<?xml version="1.0" encoding="UTF-8" standalone="no"?>
<!-- Created with Inkscape (http://www.inkscape.org/) -->

<svg
   width="101.6mm"
   height="84.666664mm"
   viewBox="0 0 101.6 84.666664"
   version="1.1"
   id="svg1"
   xml:space="preserve"
   xmlns="http://www.w3.org/2000/svg"
   xmlns:svg="http://www.w3.org/2000/svg"><defs
     id="defs1" /><g
     id="layer1"
     transform="translate(-303.06522,-113.69136)"><path
       style="fill:#ffffff;fill-opacity:1"
       d="m 303.06522,156.02469 v -42.33333 h 50.8 50.8 v 42.33333 42.33333 h -50.8 -50.8 z m 81.58099,34.76419 -0.16562,-0.86637 -0.91396,-0.59885 -0.91395,-0.59884 -0.13563,0.40688 -0.13563,0.40688 h -0.49976 -0.49977 v -0.33196 -0.33196 l 0.35277,-0.21803 0.35278,-0.21802 v -0.33196 -0.33196 h -1.25791 -1.25792 l -0.71163,0.38085 -0.71163,0.38086 0.62521,0.69084 0.6252,0.69085 0.90337,-0.18608 0.90337,-0.18607 1.76389,1.01678 1.76389,1.01677 0.0393,0.0379 0.0393,0.0379 z m 6.1555,-0.41474 -0.22278,-0.22277 0.35807,-0.66906 0.35806,-0.66905 0.33508,0.20709 0.33508,0.20709 v -0.36253 -0.36252 l 0.48364,0.18559 0.48365,0.18559 0.21084,-0.54944 0.21084,-0.54944 h 0.39188 0.39188 l -0.23245,1.05833 -0.23245,1.05834 h 0.36839 0.3684 l 0.3776,-0.70556 0.3776,-0.70555 h -0.20121 -0.20121 l 0.36237,-0.6771 0.36237,-0.6771 -0.42345,-0.14115 -0.42344,-0.14115 -0.89665,0.43164 -0.89666,0.43163 -1.68768,0.75367 -1.68769,0.75367 0.21276,0.34425 0.21276,0.34426 0.32436,-0.20047 0.32436,-0.20047 -0.21009,0.54749 -0.2101,0.54749 h 0.44932 0.44932 z m -1.77006,-4.71612 h 1.12804 l 0.22159,-0.35853 0.22158,-0.35853 0.27044,0.16714 0.27043,0.16713 1.02811,-0.27688 1.0281,-0.27688 -3.175,-0.23376 -3.175,-0.23375 -0.70555,-0.1513 -0.70556,-0.15129 -1.35946,-0.57779 -1.35946,-0.57779 -1.02179,0.22443 -1.02179,0.22442 v 0.30393 0.30392 l 0.3311,0.20463 0.33109,0.20463 0.33853,-0.60491 0.33852,-0.60491 1.49488,0.49335 1.49488,0.49336 -0.40811,0.13603 -0.4081,0.13604 -1.05084,-0.36633 -1.05084,-0.36632 v 0.33443 0.33442 l 0.61736,0.0464 0.61736,0.0464 -1.23472,0.27869 -1.23472,0.27869 1.5875,-0.0322 1.5875,-0.0322 1.16735,0.0599 1.16735,0.0599 -0.22159,0.35853 -0.22158,0.35853 -0.32437,-0.20046 -0.32436,-0.20047 0.19784,0.51556 0.19784,0.51555 1.11871,-0.32084 1.11871,-0.32084 z m -30.05115,-3.64962 0.70555,-0.0546 0.32096,-0.51038 0.32095,-0.51037 -0.44906,-0.14969 -0.44907,-0.14969 0.48089,-0.31007 0.48089,-0.31008 -0.4768,-0.30754 -0.4768,-0.30755 -1.20686,0.27219 -1.20686,0.27219 -0.87398,0.57266 -0.87398,0.57265 v 0.29074 0.29073 l 0.79375,0.36237 0.79375,0.36237 0.70556,-0.16572 0.70555,-0.16572 z m -35.45417,-7.45998 10.75972,-3.76454 0.28557,-0.27447 0.28557,-0.27447 -0.99113,-0.0283 -0.99112,-0.0283 -1.34183,-0.12284 -1.34183,-0.12284 -0.37706,0.45433 -0.37706,0.45434 h -0.62384 -0.62383 l -1.53783,0.6978 -1.53783,0.69781 -1.23473,0.0131 -1.23472,0.0131 0.52917,0.34198 0.52917,0.34197 -0.55857,0.005 -0.55856,0.005 -0.25008,-0.25008 -0.25008,-0.25008 -2.49277,-0.0319 -2.49277,-0.0319 -0.17592,0.45842 -0.17591,0.45842 h -1.72614 -1.72615 v -0.26791 -0.26792 l 0.70556,-0.44063 0.70555,-0.44063 v 0.53216 0.53216 h 0.70556 0.70555 v -0.33196 -0.33196 l -0.35277,-0.21803 -0.35278,-0.21803 v -0.86112 -0.86113 h -0.16941 -0.1694 l -2.30004,0.94456 -2.30004,0.94455 0.008,0.37836 0.008,0.37836 0.30721,1.32292 0.30721,1.32292 h -0.33965 -0.33965 l 0.7308,1.02631 0.73079,1.0263 -0.23711,0.6179 -0.23711,0.6179 0.67687,-0.20147 0.67686,-0.20146 z m 2.97627,-3.48736 2.09433,-0.80222 -0.41864,-0.25873 -0.41863,-0.25873 -0.27696,0.17117 -0.27696,0.17117 -2.1018,0.24551 -2.10181,0.2455 -0.70804,0.27518 -0.70804,0.27518 0.88194,0.36494 0.88195,0.36494 0.52916,0.004 0.52917,0.004 z m 5.48927,-6.07522 10e-4,-0.38746 1.32292,-0.53635 1.32292,-0.53635 1.85208,-0.74674 1.85208,-0.74673 v 0.35636 0.35636 l -0.93087,0.35392 -0.93087,0.35391 0.1999,0.1999 0.1999,0.19991 1.05888,0.0733 1.05888,0.0733 0.38585,-0.84685 0.38585,-0.84684 0.5984,0.22963 0.59841,0.22963 -0.24142,-0.24142 -0.24141,-0.24141 0.35527,-0.66385 0.35528,-0.66385 -0.39432,-0.61268 -0.39433,-0.61269 0.18762,0.60606 0.18761,0.60607 -0.34312,0.21206 -0.34313,0.21206 0.20297,0.32841 0.20296,0.3284 h -0.37358 -0.3736 v -0.37655 -0.37655 l -0.79375,0.22822 -0.79375,0.22822 -1.76388,0.65535 -1.76389,0.65536 -0.70556,0.25181 -0.70555,0.25182 -0.51951,0.10341 -0.5195,0.10342 -0.40133,0.54885 -0.40134,0.54886 h -1.10763 -1.10764 v 0.28177 0.28177 l 1.40999,-0.0172 1.41,-0.0172 z m -14.71476,-3.3222 -0.18595,-0.71106 -0.32732,-0.20229 -0.32733,-0.2023 0.44647,-0.58596 0.44648,-0.58595 -0.29664,0.24947 -0.29663,0.24947 -1.27924,-0.65809 -1.27923,-0.65808 -1.60076,-1.53167 -1.60076,-1.53166 -1.31173,-0.98967 -1.31174,-0.98968 -0.28198,0.17428 -0.28198,0.17427 -1.39164,-0.3413 -1.39164,-0.34129 -0.61736,-0.14596 -0.61736,-0.14597 v 0.88689 0.88689 l 0.48717,0.48717 0.48717,0.48716 0.1751,-0.1751 0.1751,-0.1751 1.00247,-0.18178 1.00247,-0.18178 0.42052,-0.34901 0.42052,-0.349 0.22862,0.36991 0.22861,0.36991 -0.21553,0.34873 -0.21553,0.34874 0.51992,-0.19951 0.51993,-0.19952 0.78078,0.41787 0.78078,0.41786 -0.48863,0.30946 -0.48864,0.30945 1.13546,0.005 1.13546,0.005 -0.20306,0.52917 -0.20306,0.52917 h 0.51202 0.51202 l 2.08336,1.81583 2.08336,1.81584 0.11406,0.47722 0.11406,0.47722 h 0.29389 0.29388 z m 17.18533,-4.22784 v -0.35278 h -0.95754 -0.95754 l 0.59378,-0.59378 0.59378,-0.59378 0.70822,0.64093 0.70822,0.64093 -0.22258,0.36014 -0.22258,0.36013 0.40337,-0.24929 0.40336,-0.24929 -0.54134,-0.82619 -0.54135,-0.8262 0.23781,-1.00749 0.2378,-1.0075 0.66464,-1.10709 0.66464,-1.1071 -0.53357,-0.20475 -0.53357,-0.20474 v 0.3858 0.3858 l -1.14652,-0.24462 -1.14653,-0.24463 -0.88195,-0.15985 -0.88194,-0.15984 0.49614,0.32709 0.49613,0.3271 -0.40165,1.53258 -0.40166,1.53259 0.0506,0.88194 0.0506,0.88195 -0.27102,0.61736 -0.27102,0.61736 h 1.80163 1.80164 z m 36.86551,-7.43422 2.37742,-3.13847 0.38429,0.23751 0.3843,0.2375 1.48632,-0.0914 1.48633,-0.0914 2.56232,1.07658 2.56233,1.07657 0.13346,-0.13346 0.13346,-0.13346 -2.0055,-0.91815 -2.0055,-0.91815 -0.22195,-0.0112 -0.22195,-0.0112 -0.70556,-0.55443 -0.70555,-0.55444 0.88194,0.22972 0.88194,0.22972 -0.64272,-0.40134 -0.64272,-0.40135 -0.592,0.47958 -0.592,0.47958 -1.23472,-0.10267 -1.23472,-0.10266 -2.99862,-0.18229 -2.99861,-0.18228 -0.36396,0.27807 -0.36396,0.27806 -2.19368,2.90092 -2.19368,2.90092 v 0.16135 0.16135 l 0.79375,0.11273 0.79375,0.11273 2.33919,0.057 2.33919,0.057 z m -29.78056,1.08422 h 0.67616 l -0.0418,-0.26458 -0.0418,-0.26458 0.0418,-0.44098 0.0418,-0.44097 h 0.37655 0.37655 l -0.24349,0.76719 -0.2435,0.76718 1.13821,-1.29635 1.13821,-1.29635 h 0.31624 0.31623 v 0.37359 0.3736 l -0.41273,-0.25508 -0.41273,-0.25508 0.23634,0.61589 0.23634,0.61589 v 0.55911 0.55911 l 0.18745,-0.18745 0.18746,-0.18745 0.15049,-0.78147 0.1505,-0.78147 0.20465,-0.64478 0.20464,-0.64479 0.51574,-0.19791 0.51574,-0.1979 v 0.3417 0.34171 l 0.44097,0.002 0.44097,0.002 1.32292,0.36739 1.32292,0.36739 v 0.51259 0.51258 h 0.3736 0.37359 l -0.23174,-0.37496 -0.23174,-0.37497 1.53384,0.22187 1.53384,0.22188 -0.70556,-0.71397 -0.70555,-0.71397 -2.11667,-0.65192 -2.11667,-0.65191 -1.23472,0.24144 -1.23472,0.24144 -1.16407,0.21389 -1.16406,0.21389 0.1919,-0.3105 0.1919,-0.3105 -0.55135,-0.21157 -0.55134,-0.21157 -0.84578,0.61558 -0.84578,0.61558 0.10903,0.35277 0.10902,0.35278 0.82024,-0.12041 0.82023,-0.12041 -1.294,1.2204 -1.294,1.2204 0.0278,0.48751 0.0279,0.48751 0.17794,-0.44097 0.17793,-0.44097 z m -16.265,-2.55764 0.008,-0.61736 h 0.54999 0.54998 l -0.21802,-0.35278 -0.21803,-0.35277 h 0.3736 0.37359 v -0.3736 -0.3736 l -0.35277,0.21803 -0.35278,0.21803 v -0.41184 -0.41184 l -0.94355,0.23681 -0.94355,0.23682 0.46465,-0.55988 0.46466,-0.55987 0.15551,0.15551 0.15552,0.15552 0.6202,-0.58796 0.62019,-0.58797 -0.14125,-0.26458 -0.14124,-0.26458 h 0.43239 0.43239 l -0.21398,-0.21398 -0.21398,-0.21398 0.41977,-0.51686 0.41977,-0.51687 0.59207,-0.59207 0.59208,-0.59208 0.58491,-0.48333 0.58492,-0.48334 1.38065,0.18518 1.38065,0.18519 v -0.30168 -0.30168 l -0.61737,-0.35958 -0.61736,-0.35958 0.33201,-0.0107 0.33201,-0.0107 -0.68479,-0.51795 -0.68478,-0.51794 -0.53699,-0.0112 -0.53698,-0.0112 -1.28261,1.05723 -1.28261,1.05724 -1.52774,2.73512 -1.52773,2.73513 -0.004,0.56034 -0.004,0.56034 -0.39452,0.49799 -0.39451,0.49799 -0.63495,1.41112 -0.63494,1.41111 -0.12463,0.24312 -0.12462,0.24312 1.76362,-1.12507 1.76362,-1.12506 z m 31.94727,-0.87072 0.36582,-0.72682 -0.14235,-1.49269 -0.14235,-1.49269 -0.26531,0.42928 -0.2653,0.42928 -0.39002,-1.11879 -0.39001,-1.1188 -0.3619,0.22367 -0.36191,0.22367 v -0.37359 -0.3736 h 0.35278 0.35278 v -0.52917 -0.52917 h 0.71662 0.71663 l 0.22099,0.5759 0.221,0.5759 -0.41223,0.66008 -0.41223,0.66009 0.41832,-0.0894 0.41833,-0.0894 0.13218,1.5875 0.13219,1.5875 0.0747,0.27679 0.0747,0.27679 0.63357,-0.46328 0.63357,-0.46328 -0.36663,-2.27659 -0.36664,-2.2766 -0.76271,-0.57532 -0.76272,-0.57531 0.24795,-0.40119 0.24794,-0.40118 h -0.40615 -0.40615 l -0.91029,0.71603 -0.91029,0.71604 -0.23189,-0.37521 -0.23189,-0.3752 -0.55066,0.21131 -0.55066,0.2113 0.53611,1.07466 0.53611,1.07465 -0.34469,0.22529 -0.3447,0.2253 0.5939,0.96948 0.59389,0.96948 0.20807,-0.20807 0.20807,-0.20807 0.64382,0.37948 0.64382,0.37947 -0.79375,0.22318 -0.79375,0.22317 v 0.0826 0.0826 l 0.39287,1.12701 0.39288,1.127 0.40087,-0.13208 0.40088,-0.13209 z m -20.1702,-6.5284 -0.17633,-0.2853 -0.3284,0.20296 -0.3284,0.20296 v -0.5708 -0.57081 l 0.33507,0.20709 0.33508,0.20709 0.38289,-0.71544 0.38289,-0.71543 -0.45338,-0.0279 -0.45339,-0.0279 0.46333,-0.18539 0.46333,-0.18539 0.49559,0.65421 0.49559,0.65421 0.0112,-0.92694 0.0112,-0.92694 0.52176,-0.43302 0.52175,-0.43302 -0.34537,-0.64532 -0.34536,-0.64532 v -0.19958 -0.19958 h 0.88194 0.88195 v 0.28222 0.28222 l -0.44097,0.44709 -0.44098,0.44708 0.65166,0.48119 0.65165,0.48118 0.44935,-0.17243 0.44935,-0.17243 0.21084,0.54944 0.21084,0.54944 h -0.84894 -0.84895 l 0.0531,0.70556 0.0532,0.70555 0.71868,0.045 0.71867,0.045 0.79375,0.0832 0.79375,0.0832 v -0.66846 -0.66846 l 0.55288,-0.21216 0.55288,-0.21216 0.39962,0.39962 0.39962,0.39962 h 0.30304 0.30305 l -0.21553,-0.34874 -0.21554,-0.34873 0.54749,0.21009 0.54749,0.21009 v -0.57564 -0.57564 l -0.88194,-0.33532 -0.88195,-0.33531 v -0.45941 -0.4594 l 0.56897,-0.81231 0.56896,-0.8123 0.93034,0.23079 0.93034,0.2308 0.85064,0.7676 0.85064,0.7676 -0.25409,-0.44098 -0.2541,-0.44097 h 0.57081 0.5708 l -0.22158,-0.35853 -0.22159,-0.35853 -0.3284,0.20296 -0.3284,0.20296 v -0.37359 -0.3736 h 0.32758 0.32758 l 0.51653,0.51653 0.51652,0.51652 0.19048,-0.72841 0.19049,-0.72841 0.37652,0.23271 0.37652,0.2327 v -0.41134 -0.41134 l 0.51787,0.19872 0.51787,0.19873 0.24422,-0.39515 0.24422,-0.39516 -0.95815,-0.82416 -0.95815,-0.82416 h -0.61533 -0.61532 l -0.42334,0.42333 -0.42333,0.42333 v -0.27013 -0.27014 l 0.35362,-0.66075 0.35363,-0.66075 4.14429,-2.74306 4.14429,-2.74306 1.23472,-0.67367 1.23473,-0.67367 0.88194,-0.61755 0.88195,-0.61755 2.54882,-1.279 2.54884,-1.279 h 0.94689 0.94688 l 1.88414,1.42254 1.88414,1.42254 0.005,0.42954 0.005,0.42955 0.25918,-0.38289 0.25918,-0.38289 2.0711,-0.94003 2.07111,-0.94003 h 1.42337 1.42338 l 1.15118,0.87805 1.15118,0.87805 0.41321,1.25203 0.41321,1.25203 -0.55707,0.85019 -0.55706,0.85018 -2.44073,1.97202 -2.44073,1.97202 -0.20899,0.54463 -0.20899,0.54462 v 0.46207 0.46207 l 0.89705,0.22515 0.89705,0.22514 0.19422,0.50613 0.19422,0.50614 -0.77698,1.09116 -0.77698,1.09117 0.12668,0.12286 0.12668,0.12287 4.58611,0.076 4.58611,0.076 7.84931,-0.0428 7.8493,-0.0428 v -11.46511 -11.46528 h -50.09363 -50.09445 v 11.64167 11.64167 h 12.54443 12.54443 l -0.18767,0.30366 -0.18768,0.30367 1.38477,-0.25322 1.38476,-0.25323 -0.0714,0.36958 -0.0714,0.36958 0.56755,0.12542 0.56756,0.12542 -0.004,-0.98641 -0.004,-0.98642 0.1819,-1.23472 0.1819,-1.23472 0.75346,0.0252 0.75346,0.0252 1.01925,0.063 1.01925,0.063 0.83283,0.68051 0.83284,0.68052 -0.44098,0.44837 -0.44097,0.44838 -0.002,0.72319 -0.002,0.72319 -0.52699,1.01047 -0.52699,1.01046 v 0.64331 0.6433 l 0.68111,-0.0513 0.68112,-0.0513 z m 16.90884,-2.3943 0.42609,-0.35662 0.98341,-0.73776 0.98342,-0.73777 -0.40925,-0.49311 -0.40925,-0.49312 h -0.27792 -0.27793 l -1.44149,0.94377 -1.44149,0.94377 0.58256,0.64373 0.58257,0.64373 h 0.1366 0.1366 z m 1.70208,-6.12005 -0.41206,-0.49649 0.49151,-0.18861 0.4915,-0.18861 0.17945,-0.93873 0.17945,-0.93872 -0.53162,-0.20401 -0.53162,-0.204 -1.16523,0.62752 -1.16524,0.62752 1.29949,1.27998 1.29949,1.27998 0.13846,-0.0797 0.13847,-0.0797 z m 3.6276,-2.42557 0.38807,-0.25918 -0.49565,-0.005 -0.49564,-0.005 0.59274,-0.65497 0.59274,-0.65498 -0.53348,-0.44275 -0.53349,-0.44275 -0.90095,0.22612 -0.90096,0.22613 0.24533,0.39694 0.24532,0.39694 -0.40728,-0.25172 -0.40729,-0.25171 -0.33611,0.20773 -0.33612,0.20773 1.30625,1.20131 1.30626,1.2013 0.14109,-0.41808 0.14109,-0.41807 z m 5.38267,0.27715 -0.19617,-0.5112 0.50823,0.19502 0.50823,0.19503 0.21633,-0.56374 0.21633,-0.56375 0.32997,0.20394 0.32997,0.20393 0.71965,-0.91488 0.71964,-0.91487 0.26308,0.16259 0.26309,0.1626 1.14844,-1.21757 1.14844,-1.21757 h 0.33786 0.33785 l -0.69227,-0.74307 -0.69228,-0.74308 -0.38555,0.23829 -0.38556,0.23828 0.23665,0.38291 0.23666,0.38291 -0.42164,-0.26059 -0.42163,-0.26058 0.20608,-0.64932 0.20609,-0.64932 -0.69158,-0.11474 -0.69158,-0.11474 0.45827,-1.32292 0.45827,-1.32292 h -0.14265 -0.14264 l -2.7262,1.37741 -2.7262,1.37741 -1.51274,1.10398 -1.51274,1.10398 0.21604,0.34958 0.21605,0.34957 -0.4231,-0.0969 -0.42309,-0.0969 -0.12053,0.35278 -0.12052,0.35277 1.48754,1.13325 1.48754,1.13325 1.025,0.89522 1.02501,0.89523 h 0.15927 0.15926 z m 14.80434,-4.61825 -0.2085,-0.54334 0.61173,0.10237 0.61172,0.10236 -0.0761,-0.40479 -0.0761,-0.40479 0.68051,0.17796 0.68051,0.17796 -0.15008,-0.7793 -0.15007,-0.7793 -0.36305,-0.43744 -0.36304,-0.43744 0.25077,-0.25077 0.25077,-0.25077 -0.66448,0.25499 -0.66448,0.25498 0.25508,-0.41272 0.25508,-0.41273 h -0.67844 -0.67845 l -2.25279,1.04214 -2.25279,1.04215 0.35278,0.0569 0.35278,0.0569 0.35277,0.082 0.35278,0.082 0.4172,0.0537 0.4172,0.0537 0.20527,0.64676 0.20528,0.64675 h 0.52405 0.52406 v -0.29398 -0.29398 h 0.37359 0.3736 l -0.2424,0.39222 -0.24241,0.39222 0.48617,0.30793 0.48617,0.30794 0.12594,0.005 0.12593,0.005 z"
       id="path3" /></g></svg>
