<?xml version="1.0" encoding="UTF-8" standalone="no"?>
<!-- Created with Inkscape (http://www.inkscape.org/) -->

<svg
   width="101.6mm"
   height="84.666656mm"
   viewBox="0 0 101.6 84.666656"
   version="1.1"
   id="svg1"
   xml:space="preserve"
   xmlns="http://www.w3.org/2000/svg"
   xmlns:svg="http://www.w3.org/2000/svg"><defs
     id="defs1" /><g
     id="layer1"
     transform="translate(-234.68541,-97.895833)"><path
       style="fill:#ffffff;fill-opacity:1"
       d="M 234.68542,140.22916 V 97.895833 h 50.79999 50.80001 v 42.333327 42.33333 h -50.80001 -50.79999 z m 2.27009,41.28373 0.90491,-0.34405 v 0.31926 0.31926 l 12.75018,0.0325 12.75019,0.0325 0.79941,-0.52379 0.7994,-0.52379 0.41731,0.50283 0.41731,0.50283 3.56874,-0.004 3.56874,-0.004 0.52374,-0.42347 0.52374,-0.42346 -0.24877,0.41483 -0.24877,0.41483 9.88244,-0.0127 9.88244,-0.0127 v -0.25511 -0.2551 h 0.52917 0.52917 v 0.29399 0.29398 h 2.14969 2.14969 l 0.17327,-0.66256 0.17326,-0.66255 0.8174,-0.37243 0.8174,-0.37244 -0.0964,0.59402 -0.0964,0.59401 0.35181,0.44235 0.35181,0.44234 1.11619,-0.68985 1.1162,-0.68984 0.43851,0.70216 0.4385,0.70216 0.32584,-0.20137 0.32583,-0.20138 -0.20844,-0.60606 -0.20844,-0.60606 0.54778,0.705 0.54778,0.705 0.26403,-0.26403 0.26403,-0.26403 h -0.41158 -0.41157 v -0.35577 -0.35576 l 0.68273,0.42637 0.68274,0.42638 -0.13526,0.21886 -0.13527,0.21886 1.30462,-0.0249 1.30461,-0.0249 0.25918,-0.35278 0.25919,-0.35278 0.005,0.44097 0.005,0.44098 h 0.7193 0.7193 l -0.7193,-0.77208 -0.7193,-0.77208 -0.0224,-0.37445 -0.0224,-0.37445 -0.30182,0.74716 -0.30181,0.74715 -0.91054,0.17407 -0.91056,0.17406 v -0.24995 -0.24995 l 0.77231,-0.34461 0.77231,-0.34461 -0.41953,-0.25929 -0.41953,-0.25928 v 0.3736 0.3736 h -0.38217 -0.38219 l 0.14796,-0.44098 0.14798,-0.44097 0.49879,-0.0475 0.4988,-0.0475 0.61736,-0.0407 0.61736,-0.0407 v -0.45076 -0.45077 l 0.70959,-0.60757 0.70959,-0.60756 h 1.86568 1.86569 l 0.39247,0.39246 0.39247,0.39247 0.47184,-0.1767 0.47184,-0.1767 -1.3032,-0.56504 -1.3032,-0.56504 -0.48372,0.18562 -0.48372,0.18562 -0.85892,-0.34315 -0.85891,-0.34316 0.45526,-0.0224 0.45525,-0.0224 1.01899,-0.75337 1.019,-0.75337 1.95999,1.10615 1.95999,1.10615 h 0.80243 0.80243 l 0.52583,-0.79375 0.52583,-0.79375 0.25983,-0.63525 0.25983,-0.63524 -0.37275,0.23037 -0.37274,0.23037 -0.25042,0.67693 -0.25041,0.67693 -0.68169,-0.49847 -0.68169,-0.49846 0.48566,-0.58518 0.48565,-0.58517 0.91214,0.10603 0.91214,0.10603 0.33234,1.4993 0.33234,1.49931 h 0.57819 0.57819 l 0.50058,-0.97014 0.50059,-0.97014 0.34236,-0.38761 0.34236,-0.3876 0.53958,0.13552 0.53959,0.13553 0.70555,-1.06982 0.70556,-1.06982 0.42344,-0.001 0.42344,-0.001 0.35958,-0.61736 0.35958,-0.61737 0.0107,0.325 0.0107,0.325 -0.57786,0.63853 -0.57785,0.63852 0.48966,0.62398 0.48966,0.62397 -0.61736,-0.48416 -0.61736,-0.48417 v 0.59318 0.59318 l -0.32841,-0.20296 -0.3284,-0.20296 -0.22158,0.35853 -0.22159,0.35853 h 0.54999 0.54999 v 0.57236 0.57237 l -0.48446,-0.40206 -0.48445,-0.40206 -0.5261,0.20188 -0.52609,0.20188 -0.40135,0.88087 -0.40135,0.88087 -1.20981,0.50549 -1.20981,0.50549 -0.22134,0.35812 -0.22133,0.35812 h 0.54999 0.54998 v -0.28743 -0.28744 l 1.23473,-0.5888 1.23472,-0.5888 v 0.16847 0.16847 l -1.46404,1.06054 -1.46404,1.06055 h 0.55269 0.5527 l 0.11876,0.35627 0.11876,0.35628 0.70439,0.13944 0.70439,0.13943 0.51487,0.12165 0.51488,0.12165 0.0549,-0.80491 0.0549,-0.80492 0.22186,-0.22186 0.22185,-0.22185 0.61953,0.55635 0.61952,0.55635 0.94847,-0.0588 0.94846,-0.0587 -0.70526,-0.75105 -0.70526,-0.75105 -1.08731,0.0855 -1.0873,0.0855 -0.60473,0.8017 -0.60472,0.80171 -0.24873,-0.40246 -0.24873,-0.40245 1.60936,-1.65581 1.60936,-1.65581 v -0.24975 -0.24976 l 0.70556,0.18451 0.70555,0.1845 v -0.32336 -0.32337 l -0.3435,-0.34351 -0.34351,-0.3435 0.49898,-0.96177 0.49897,-0.96178 h -0.21426 -0.21427 l 0.19628,-0.19628 0.19628,-0.19628 1.77911,0.58192 1.77912,0.58192 -0.16632,0.43342 -0.16632,0.43343 1.21364,0.65359 1.21365,0.65359 -0.16575,0.43194 -0.16575,0.43194 0.37683,0.2329 0.37682,0.23289 v -0.96318 -0.96318 l -0.58384,-0.64514 -0.58384,-0.64514 h 0.58384 0.58384 v -0.5054 -0.50539 l -0.64676,-0.20527 -0.64675,-0.20528 v -0.52916 -0.52917 l 0.64675,0.20527 0.64676,0.20528 -0.0112,-1.52308 -0.0112,-1.52308 -0.48064,-0.63376 -0.48063,-0.63375 0.18022,-0.68916 0.18022,-0.68916 h 0.28352 0.28352 l -0.0176,-5.08668 -0.0176,-5.08668 -0.57168,0.16468 -0.57169,0.16469 0.60211,-0.44644 0.6021,-0.44644 -0.95488,-0.4077 -0.95488,-0.4077 0.98973,-0.26425 0.98973,-0.26425 -0.0945,-0.92698 -0.0944,-0.92697 -0.36611,-0.5087 -0.36611,-0.50869 0.44097,0.26493 0.44097,0.26493 v -0.3736 -0.3736 l -0.79375,-0.0224 -0.79375,-0.0224 0.77035,-0.31039 0.77034,-0.31039 0.0342,-25.7728 0.0342,-25.772807 h -50.10446 -50.10522 v 16.238847 16.23885 l 0.56311,0.21609 0.56311,0.21608 -0.24266,1.09576 -0.24267,1.09576 -0.19502,1.41111 -0.19503,1.41111 -0.0372,4.374 -0.0372,4.374 0.85487,0.13103 0.85486,0.13103 -0.67847,-0.77331 -0.67848,-0.77331 0.41084,0.23923 0.41084,0.23923 0.13915,-0.41744 0.13915,-0.41743 0.4442,0.27453 0.4442,0.27453 -0.1964,0.51181 -0.1964,0.5118 0.30035,-0.18562 0.30034,-0.18562 0.43128,-1.54036 0.43127,-1.54035 0.8326,-1.02637 0.8326,-1.02638 -0.19829,0.79375 -0.1983,0.79375 h 0.34542 0.34541 l -0.10107,0.92068 -0.10106,0.92068 1.0604,-0.21208 1.0604,-0.21208 0.67667,0.36215 0.67668,0.36214 v 0.34037 0.34037 h -0.54999 -0.54998 l 0.21803,-0.35278 0.21802,-0.35278 h -0.3304 -0.3304 l -0.43917,0.52917 -0.43917,0.52916 h 1.80709 1.80708 v 0.32691 0.32691 l -0.61736,0.14581 -0.61736,0.14581 1.05833,0.26151 1.05833,0.26151 1.00601,0.38176 1.00601,0.38176 -0.21643,1.35346 -0.21643,1.35345 h 0.54441 0.54441 l 0.20306,-0.52916 0.20306,-0.52917 h 0.35278 0.35277 l -0.18662,0.48633 -0.18662,0.48634 2.35374,-0.17362 2.35374,-0.17363 2.73403,-0.62058 2.73403,-0.62057 v 0.23731 0.23731 l -0.42334,0.42333 -0.42333,0.42333 h 0.29468 0.29469 l 0.81736,-0.88194 0.81736,-0.88194 -0.33594,-0.0441 -0.33593,-0.0441 -0.35278,-0.0882 -0.35277,-0.0882 -0.3736,-0.0441 -0.3736,-0.0441 0.21803,-0.35278 0.21803,-0.35278 h -0.59318 -0.59319 l 0.44625,0.53769 0.44624,0.5377 -0.13846,0.12605 -0.13847,0.12605 -1.14653,-0.17462 -1.14652,-0.17461 v -0.26994 -0.26994 l 1.05833,-0.43838 1.05833,-0.43837 v -0.48637 -0.48637 h -0.49977 -0.49976 l -0.15656,0.44097 -0.15656,0.44098 -0.54595,-1.80687 -0.54595,-1.80686 -0.5284,-1.01536 -0.5284,-1.01536 -0.91473,-1.05833 -0.91472,-1.05834 -4.3e-4,-0.43191 -4.3e-4,-0.43191 -1.05834,-0.54729 -1.05833,-0.54728 v -0.19052 -0.19053 l 0.40369,-0.77055 0.40369,-0.77056 1.18381,-1.32393 1.18381,-1.32394 v 0.18275 0.18275 l -1.05833,1.87527 -1.05834,1.87526 v 0.41245 0.41244 h 1.41111 1.41111 v 0.35278 0.35278 h 0.58959 0.58958 l 0.55695,0.48744 0.55694,0.48744 0.79375,0.24189 0.79375,0.24189 v -0.30475 -0.30475 l 0.97014,0.0591 0.97014,0.0591 0.2854,0.0455 0.2854,0.0455 -0.21802,0.35278 -0.21803,0.35278 h 0.33585 0.33586 l 0.21009,-0.54749 0.21009,-0.54749 -0.29866,0.18458 -0.29866,0.18458 -1.72577,-1.63585 -1.72577,-1.63585 0.91083,0.55693 0.91084,0.55692 0.4419,-0.27311 0.4419,-0.27311 -0.79339,-0.20748 -0.79339,-0.20748 0.36719,-0.45882 0.3672,-0.45883 -0.28439,-0.70556 -0.28438,-0.70555 -0.0248,-0.30233 -0.0248,-0.30233 0.61736,0.21483 0.61736,0.21483 -0.73261,-0.6251 -0.73261,-0.62509 0.15242,-0.45724 0.15241,-0.45724 -0.77254,-0.20203 -0.77255,-0.20202 0.4708,-0.29843 0.47079,-0.29844 -0.52917,-0.0406 -0.52916,-0.0406 0.81457,-0.22942 0.81457,-0.22942 -0.0525,-0.31463 -0.0525,-0.31463 1.11097,-0.70341 1.11097,-0.70342 1.37969,-0.0778 1.37968,-0.0778 -0.22108,0.35771 -0.22108,0.35771 0.74775,-0.19554 0.74775,-0.19554 0.40895,0.49275 0.40894,0.49275 h -0.41679 -0.4168 l 0.21803,0.35278 0.21803,0.35277 h -0.39679 -0.39679 l -0.72493,-0.38797 -0.72494,-0.38797 0.21897,0.3543 0.21897,0.3543 1.95533,1.10352 1.95532,1.10352 0.34646,-0.21413 0.34646,-0.21412 -0.0969,0.4231 -0.0969,0.42309 0.41322,0.15244 0.41321,0.15244 -0.17923,-0.8139 -0.17923,-0.81389 0.29966,0.41453 0.29967,0.41454 1.31844,-0.41266 1.31843,-0.41267 v -0.4051 -0.4051 l 0.50638,-0.19432 0.50637,-0.19431 0.13989,0.41965 0.13988,0.41966 1.08389,-1.18671 1.08388,-1.1867 0.38652,0.23889 0.38652,0.23888 v -0.67786 -0.67787 l -0.96822,0.10629 -0.96823,0.10628 0.88003,-0.6999 0.88004,-0.6999 0.76896,-0.31868 0.76896,-0.31869 1.3477,0.20491 1.34771,0.2049 0.74866,0.67802 0.74867,0.67802 0.2104,-0.5483 0.2104,-0.5483 h 0.54024 0.54024 v -0.83785 -0.83785 l -1.10243,-0.22048 -1.10243,-0.22049 h -0.93636 -0.93636 l -0.50798,-0.70479 -0.50798,-0.70478 -0.62823,0.19939 -0.62823,0.19939 0.005,-0.81752 0.005,-0.81752 0.34197,-0.52917 0.34198,-0.52917 0.005,0.48417 0.005,0.48417 0.50661,-0.42046 0.50662,-0.42045 0.6947,0.37179 0.6947,0.37179 0.70157,0.9631 0.70157,0.9631 1.29152,-0.69305 1.29153,-0.69305 0.73217,-0.77728 0.73217,-0.77729 -0.3988,-1.58379 -0.39881,-1.58379 v -0.26816 -0.26815 l 1.32292,1.24338 1.32292,1.24338 0.96522,0.59701 0.96523,0.59702 0.59932,0.91469 0.59933,0.91469 -0.63674,0.35633 -0.63674,0.35634 0.34756,0.22337 0.34755,0.22336 0.24771,0.79375 0.24771,0.79375 -0.46474,0.005 -0.46475,0.005 0.52917,0.34197 0.52917,0.34198 0.28835,0.005 0.28836,0.005 -0.21139,-0.79375 -0.2114,-0.79375 0.67991,1.23472 0.6799,1.23472 0.77695,2.55816 0.77696,2.55815 0.2673,0.1652 0.2673,0.1652 -0.16587,-0.86768 -0.16586,-0.86768 0.83419,-0.334 0.83419,-0.33401 -0.79375,-0.0224 -0.79375,-0.0224 v -0.22366 -0.22365 l 0.40861,-1.36385 0.40862,-1.36384 h 0.23775 0.23775 l 0.39681,1.29293 0.39681,1.29293 -0.18205,0.29457 -0.18206,0.29457 0.63819,-0.0271 0.63818,-0.0271 1.41111,-0.46506 1.41111,-0.46507 -0.88195,-0.076 -0.88194,-0.076 -0.79507,0.0645 -0.79507,0.0645 -0.20706,-0.64278 -0.20706,-0.64278 -0.37092,-0.77604 -0.37092,-0.77604 0.37622,-0.98785 0.37623,-0.98785 0.19842,-1.41111 0.19842,-1.41111 -0.84793,1.76389 -0.84792,1.76389 -0.0294,-0.37355 -0.0294,-0.37354 -0.53123,-0.68479 -0.53122,-0.68479 0.35984,1.00627 0.35984,1.00628 -0.21836,1.63956 -0.21837,1.63956 -0.2882,0.52418 -0.28821,0.52418 -0.22355,-0.89073 -0.22356,-0.89073 0.35886,-0.94388 0.35886,-0.94388 -0.3393,-0.20969 -0.33929,-0.2097 v 0.3736 0.37359 h -0.3736 -0.3736 l 0.25172,-0.40728 0.25171,-0.40729 -0.36731,0.22701 -0.36731,0.22702 -0.4261,-0.51342 -0.42611,-0.51343 0.12155,-0.34919 0.12155,-0.34919 2.28258,-1.5862 2.28258,-1.58621 0.23562,0.38123 0.23561,0.38123 0.36514,-0.22567 0.36514,-0.22567 2.22635,4.02792 2.22634,4.02792 0.61099,-1.28981 0.61098,-1.2898 0.012,0.4299 0.012,0.4299 0.54945,-0.21084 0.54944,-0.21084 -0.20067,-0.52292 -0.20066,-0.52292 0.50905,0.19534 0.50906,0.19534 1.56548,-1.19533 1.56549,-1.19534 0.19329,-0.73911 0.19328,-0.73911 -0.76452,0.23406 -0.76452,0.23405 -0.39626,0.31569 -0.39626,0.31569 -0.55579,-0.21328 -0.5558,-0.21328 -0.45905,0.37132 -0.45906,0.37131 -1.2813,1.0706 -1.28129,1.0706 h -0.57079 -0.57079 v -0.32392 -0.32393 l -0.23259,-0.64621 -0.2326,-0.64622 0.23847,0.21167 0.23847,0.21166 1.75802,-1.7305 1.75801,-1.7305 v -0.39204 -0.39204 l 0.20892,0.20892 0.20892,0.20892 1.06941,-0.94388 1.06942,-0.94387 0.39736,0.11759 0.39737,0.11759 -0.2352,-0.23518 -0.23518,-0.23519 0.67617,-0.67615 0.67615,-0.67616 0.26459,-5.8e-4 0.26458,-5.8e-4 1.29902,-1.32234 1.29901,-1.32233 1.94168,-1.41112 1.94167,-1.41111 0.23629,-0.70555 0.23629,-0.70556 0.17023,0.64527 0.17024,0.64526 -0.2002,0.76585 -0.20019,0.76584 -2.85297,2.27731 -2.85296,2.27731 -0.18216,0.9108 -0.18216,0.91079 -1.20565,0.82612 -1.20565,0.82612 0.0149,0.21911 0.0149,0.21911 1.23809,0.78965 1.23807,0.78965 -0.1714,-0.27733 -0.17139,-0.27732 0.2413,-0.34409 0.24131,-0.34408 0.97014,-0.61734 0.97014,-0.61735 v 0.13032 0.13032 l -0.5498,1.10209 -0.54979,1.10209 -2.7092,2.49636 -2.70921,2.49636 -0.004,0.57457 -0.004,0.57456 -1.05834,0.28921 -1.05833,0.28922 -0.42582,-0.15781 -0.42582,-0.15781 0.33762,0.88803 0.33763,0.88802 v 0.5062 0.5062 h -0.88194 -0.88195 l -0.0107,-0.61736 -0.0107,-0.61736 -0.35958,0.61736 -0.35958,0.61736 -0.77622,0.01 -0.77622,0.01 -2.26213,3.16516 -2.26213,3.16516 h -0.27173 -0.27174 l -0.19994,0.62996 -0.19994,0.62996 h -0.67988 -0.67987 l 0.1713,-0.27718 0.17131,-0.27718 h -0.5708 -0.57081 l 0.2424,0.39222 0.24241,0.39222 -0.39623,0.24488 -0.39623,0.24488 -0.23324,2.23158 -0.23325,2.23158 -0.63566,-1.19299 -0.63565,-1.19298 -0.0148,-0.45573 -0.0148,-0.45572 -0.73727,-0.779 -0.73726,-0.779 -1.02662,-2.01841 -1.02663,-2.01841 v -0.47289 -0.47288 l -0.97014,-0.70633 -0.97014,-0.70633 -0.49548,-0.29647 -0.49548,-0.29646 0.28265,0.49548 0.28265,0.49548 -0.47508,-0.44097 -0.47509,-0.44097 -0.7232,-0.005 -0.72319,-0.005 0.52917,-0.35809 0.52916,-0.35809 -0.90368,0.20867 -0.90369,0.20867 -0.41167,-0.90351 -0.41166,-0.90351 -0.44854,0.002 -0.44854,0.002 -1.30262,0.36179 -1.30263,0.3618 -0.22208,0.69969 -0.22207,0.6997 -0.27783,-0.1717 -0.27783,-0.17171 -0.92874,0.43117 -0.92875,0.43116 -0.003,0.79375 -0.003,0.79375 h 0.3736 0.3736 l -0.22159,0.35853 -0.22158,0.35854 -0.29997,-0.1854 -0.29997,-0.18539 -0.42058,1.27435 -0.42057,1.27435 0.17566,2.08434 0.17565,2.08435 -0.62036,1.2168 -0.62036,1.2168 0.66046,0.59771 0.66046,0.59771 v 0.28155 0.28155 l -1.14653,0.50677 -1.14653,0.50677 -2.55764,0.91341 -2.55764,0.91341 v -0.18132 -0.18132 l -0.79375,0.41669 -0.79375,0.41669 -0.28211,0.47767 -0.28211,0.47766 -0.95261,0.005 -0.95261,0.005 -0.5147,0.32556 -0.5147,0.32557 2.91463,0.006 2.91462,0.006 2.18619,0.17735 2.18618,0.17736 -1.5875,-0.35695 -1.5875,-0.35694 -1.39761,-0.24598 -1.39762,-0.24597 2.39322,-0.94878 2.39323,-0.94878 -0.42852,0.51633 -0.42852,0.51633 0.1809,0.1809 0.1809,0.1809 1.54507,0.13931 1.54506,0.13931 0.26459,0.024 0.26458,0.024 v 1.94027 1.94028 h 0.14754 0.14753 l 0.55802,-0.21413 0.55802,-0.21413 v -0.66781 -0.66782 h -0.39597 -0.39598 l 0.42045,-0.50661 0.42046,-0.50661 0.27906,-0.9927 0.27906,-0.99269 -0.56812,-0.99387 -0.56813,-0.99387 0.62479,-0.35073 0.62478,-0.35073 -0.20463,-0.33109 -0.20463,-0.3311 h 0.72416 0.72416 l -0.12069,-0.79375 -0.1207,-0.79375 -1.02362,-0.18387 -1.02362,-0.18386 0.44098,-0.27793 0.44097,-0.27792 0.35527,0.21957 0.35527,0.21957 0.21407,-0.55787 0.21407,-0.55786 -0.46112,-1.14019 -0.46112,-1.14019 -0.3728,-0.25172 -0.37281,-0.25171 -0.0125,-0.27745 -0.0125,-0.27746 -0.43663,-0.78581 -0.43664,-0.78581 0.53733,0.2062 0.53733,0.20619 v -0.39052 -0.39052 h 0.52917 0.52917 v 0.88194 0.88195 h 0.35277 0.35278 v -0.56843 -0.56843 l 1.28625,0.2413 1.28624,0.2413 0.29585,-0.46662 0.29586,-0.46662 0.0472,0.70555 0.0472,0.70556 -0.0222,0.20578 -0.0222,0.20579 h 0.50153 0.50153 l -0.22687,-0.91134 -0.22687,-0.91134 0.6554,0.52916 0.65541,0.52917 -0.23305,-0.38939 -0.23305,-0.38938 0.87089,-0.3968 0.87088,-0.3968 0.0279,0.4334 0.0279,0.43341 0.17867,-0.44317 0.17867,-0.44317 0.3258,0.20136 0.3258,0.20136 0.7024,-0.22293 0.7024,-0.22294 v -0.43032 -0.43032 l 0.74168,-0.0559 0.74168,-0.0559 -0.19775,0.75619 -0.19775,0.75619 0.38829,0.46786 0.38828,0.46785 -0.20578,0.20578 -0.20578,0.20578 0.84219,0.90826 0.84219,0.90826 -0.1932,0.3126 -0.19319,0.31259 -0.57093,-0.21908 -0.57092,-0.21909 0.27915,0.28323 0.27915,0.28323 1.12121,0.37612 1.1212,0.37611 1.05834,1.94143 1.05833,1.94144 0.77404,0.96816 0.77404,0.96816 -0.19442,0.50665 -0.19442,0.50665 h 0.56691 0.56691 v 0.32338 0.32338 l -0.44098,0.15553 -0.44097,0.15554 0.61736,1.07482 0.61736,1.07483 v 0.51189 0.5119 l 1.14653,0.32693 1.14653,0.32694 0.10848,1.48798 0.10848,1.48799 h 0.40305 0.40305 l -0.42334,0.42334 -0.42333,0.42333 v 0.65582 0.65582 l 0.37683,-0.23289 0.37682,-0.23289 -0.18936,-0.49349 -0.18937,-0.49348 h 0.31459 0.31459 l -0.0643,-2.1475 -0.0643,-2.14749 -0.68152,-0.49834 -0.68151,-0.49834 h -0.72966 -0.72966 l -0.38524,-0.61736 -0.38525,-0.61736 0.21219,-0.52917 0.21219,-0.52916 0.4672,-0.0969 0.46719,-0.0969 -0.20184,0.32658 -0.20184,0.32658 1.23395,-0.035 1.23395,-0.035 v -1.36201 -1.36202 l -0.30181,0.18654 -0.30182,0.18653 0.16577,-0.86716 0.16576,-0.86716 0.27233,0.16831 0.27234,0.16831 0.26061,-0.78978 0.26061,-0.78978 -0.0107,-1.5875 -0.0107,-1.5875 0.15995,0.88194 0.15995,0.88195 0.68074,0.88194 0.68074,0.88195 0.008,-0.42016 0.008,-0.42015 -0.35853,-0.22158 -0.35853,-0.22159 0.20296,-0.3284 0.20296,-0.3284 h -0.41474 -0.41474 l 0.18441,-0.70521 0.18442,-0.7052 -0.31966,-0.19756 -0.31966,-0.19756 v -0.37515 -0.37516 l 0.54412,0.45158 0.54412,0.45158 0.40706,-0.40706 0.40706,-0.40706 -0.6866,-0.50448 -0.68659,-0.50448 -2.02793,-0.23698 -2.02792,-0.23697 0.19393,-0.31379 0.19394,-0.3138 2.53954,0.14166 2.53955,0.14165 0.35278,0.0863 0.35277,0.0863 0.65297,-0.2838 0.65296,-0.2838 0.26808,0.43376 0.26808,0.43376 0.21441,-0.55874 0.21441,-0.55875 -0.18936,-0.49348 -0.18937,-0.49349 0.37279,-0.23039 0.37278,-0.2304 -0.21009,0.54749 -0.21009,0.54749 h 0.35278 0.35278 l 0.20431,-0.53244 0.20432,-0.53244 0.45079,0.0915 0.45079,0.0915 -0.0882,-0.44097 -0.0882,-0.44098 h 0.20158 0.20159 l 0.52917,0.52917 0.52916,0.52917 -0.46617,0.005 -0.46617,0.005 0.52917,0.34197 0.52917,0.34198 0.79375,0.005 0.79375,0.005 -0.0112,-0.79375 -0.0112,-0.79375 -0.54532,0.70556 -0.54531,0.70555 0.0692,-0.52916 0.0692,-0.52917 -0.0418,-0.76788 -0.0418,-0.76789 -0.53881,-0.11406 -0.53881,-0.11406 0.55882,-0.79375 0.55881,-0.79375 h 0.8525 0.85252 l 1.57086,0.76319 1.57086,0.76318 0.19091,0.73004 0.19091,0.73003 0.43489,-0.43488 0.43488,-0.43489 0.54681,0.005 0.54681,0.005 0.52916,0.34738 0.52917,0.34737 -0.47654,0.30739 -0.47655,0.30739 1.612,0.24173 1.612,0.24174 0.36188,1.30296 0.36189,1.30296 0.002,0.44097 0.002,0.44097 h -0.54999 -0.54998 l 0.22158,0.35854 0.22159,0.35853 0.36619,-0.22632 0.3662,-0.22632 -0.23796,0.74973 -0.23795,0.74973 h 0.35997 0.35996 l 0.3311,1.14653 0.33111,1.14653 0.25239,0.61736 0.25239,0.61736 h -1.09608 -1.09608 l -0.0418,0.44097 -0.0418,0.44098 0.0486,0.52916 0.0486,0.52917 -0.55689,-0.88195 -0.5569,-0.88194 0.18225,1.36663 0.18226,1.36662 0.14098,0.14099 0.14098,0.14098 0.54068,-0.20748 0.54067,-0.20747 -0.18883,-0.7221 -0.18884,-0.7221 1.19796,0.24205 1.19796,0.24205 0.55565,0.15424 0.55564,0.15424 -0.15205,1.14234 -0.15205,1.14234 -0.53483,0.42314 -0.53482,0.42314 0.5715,0.5715 0.5715,0.5715 -0.30371,0.59286 -0.30371,0.59286 -0.22552,1.47802 -0.22552,1.47801 0.3593,0.22206 0.35929,0.22205 -0.20296,0.32841 -0.20296,0.3284 h -1.09631 -1.09631 l 0.21398,0.21398 0.21398,0.21398 -0.41977,0.45619 -0.41977,0.4562 -0.44097,-0.36059 -0.44097,-0.3606 v 0.74875 0.74875 l 0.44097,-0.0882 0.44097,-0.0882 -0.11001,0.50643 -0.11001,0.50642 0.20493,0.81649 0.20492,0.8165 h 0.50492 0.50492 l 0.31509,0.56305 0.3151,0.56305 0.93691,0.0543 0.9369,0.0543 2.5e-4,0.65849 2.5e-4,0.65848 0.88194,-0.16859 0.88195,-0.16859 v 0.32467 0.32468 l 0.34874,-0.21553 0.34873,-0.21553 -0.19353,0.50434 -0.19353,0.50434 1.07951,0.15844 1.07952,0.15844 v -0.49184 -0.49185 l 0.74974,0.23796 0.74973,0.23796 -0.20853,-0.33742 -0.20854,-0.33741 0.86991,-0.75638 0.86992,-0.75638 0.0441,0.17405 0.0441,0.17406 0.0495,0.26458 0.0495,0.26459 0.26493,0.41659 0.26494,0.4166 -0.36102,0.22312 -0.36103,0.22313 -0.21164,-0.55153 -0.21164,-0.55153 h -0.24448 -0.24448 v 0.88195 0.88194 h 0.28223 0.28222 v -0.28986 -0.29398 l 0.52916,-0.0588 0.52917,-0.0588 0.49759,-0.0588 0.49759,-0.0588 -0.13079,-0.67913 -0.13079,-0.67912 0.51515,0.19768 0.51514,0.19768 v -0.51809 -0.5181 h 0.30427 0.30426 l -0.0942,0.85794 -0.0942,0.85794 0.49546,-0.19013 0.49547,-0.19012 v 0.56691 0.56691 h -0.31975 -0.31975 l 0.17699,0.67679 0.17698,0.6768 -0.41304,0.64612 -0.41304,0.64612 0.18506,-0.5994 0.18506,-0.59939 -0.50917,0.19539 -0.50918,0.19539 0.15885,0.25701 0.15884,0.25702 h -0.48256 -0.48256 l 0.31418,-0.82636 0.31418,-0.82636 -0.87443,0.57295 -0.87444,0.57295 v 0.15664 0.15663 l 0.35278,-0.21803 0.35278,-0.21803 v 0.35278 0.35278 l -0.32094,0.19835 -0.32095,0.19836 -0.52623,-0.20194 -0.52624,-0.20194 -0.18741,-0.71664 -0.18741,-0.71665 -0.38228,0.23626 -0.38227,0.23626 0.17108,0.27682 0.17108,0.27681 -0.95908,0.4654 -0.95907,0.46539 -0.52917,-0.0757 -0.52917,-0.0757 0.51233,0.34421 0.51232,0.34421 0.25705,-0.15887 0.25705,-0.15886 0.1968,0.31842 0.1968,0.31843 -0.70208,0.18359 -0.70207,0.1836 0.19769,-0.31988 0.1977,-0.31988 h -0.3442 -0.3442 l -0.12338,0.37013 -0.12337,0.37012 -1.43817,-0.22997 -1.43816,-0.22997 -0.40006,-0.9339 -0.40005,-0.93391 0.12283,0.98819 0.12284,0.98818 -1.10105,-0.23617 -1.10106,-0.23617 -0.62185,-0.32585 -0.62184,-0.32586 0.43221,-0.77893 0.43221,-0.77894 -0.10435,-0.35278 -0.10434,-0.35278 0.26152,0.26153 0.26152,0.26152 0.4636,-0.38475 0.46359,-0.38475 -0.48121,-0.48122 -0.48122,-0.48122 -0.72078,0.13881 -0.72077,0.13881 -0.72845,0.38985 -0.72845,0.38986 v 0.22277 0.22277 l 0.23595,-0.23595 0.23596,-0.23596 0.64599,0.58462 0.64599,0.58461 v 0.51958 0.51958 l -1.32292,-0.20413 -1.32292,-0.20414 -0.64564,0.48321 -0.64565,0.4832 0.11648,0.82237 0.11648,0.82237 1.41111,-0.0496 1.41111,-0.0496 -0.42115,0.16056 -0.42116,0.16056 0.17768,0.46302 0.17768,0.46301 -2.31416,0.24783 -2.31417,0.24782 v 0.34552 0.34552 l 0.39855,-0.24631 0.39854,-0.24632 -0.15276,0.45829 -0.15276,0.45828 -1.19824,0.64263 -1.19825,0.64262 -0.29979,0.5357 -0.29979,0.53569 h -0.74271 -0.7427 l 0.59907,-0.66196 0.59908,-0.66197 -0.62184,-0.23862 -0.62184,-0.23863 0.25214,0.25215 0.25214,0.25214 -0.89821,1.17761 -0.89821,1.17762 h 0.30018 0.30017 l 0.50217,-0.44098 0.50217,-0.44097 -0.66268,0.79375 -0.66267,0.79375 h -0.47449 -0.4745 l 0.056,-0.26458 0.056,-0.26458 -0.26159,-0.59509 -0.26159,-0.59509 -0.49794,0.19108 -0.49795,0.19108 0.16793,0.27172 0.16793,0.27171 h -0.86908 -0.86907 l 0.19077,-0.30868 0.19078,-0.30868 h 0.52916 0.52917 l -0.25172,-0.40728 -0.25171,-0.40729 0.40449,0.24999 0.40449,0.24999 0.62016,-0.34917 0.62015,-0.34917 -1.23472,0.0237 -1.23472,0.0237 -0.44905,0.35623 -0.44905,0.35623 0.22221,-0.57907 0.22221,-0.57906 -0.65511,-0.0107 -0.6551,-0.0107 0.61736,-0.35958 0.61736,-0.35958 v -0.26469 -0.26469 l -1.81713,0.0835 -1.81714,0.0835 -0.56411,0.6016 -0.56412,0.6016 0.70556,-0.2591 0.70555,-0.25909 0.97014,-0.0758 0.97014,-0.0758 v 0.2848 0.2848 h -0.75254 -0.75271 l -0.87745,0.97014 -0.87745,0.97014 0.215,-0.63569 0.21501,-0.63568 -0.32436,0.20047 -0.32436,0.20046 -0.22159,-0.35853 -0.22158,-0.35853 h -0.71414 -0.71413 l 0.15038,-0.44097 0.15039,-0.44098 0.7297,0.10508 0.72971,0.10507 0.22846,-0.36966 0.22846,-0.36965 h -2.66665 -2.66665 v -0.3736 -0.3736 l 0.35277,0.21803 0.35278,0.21803 v -0.49531 -0.49531 l -0.61736,-0.54212 -0.61736,-0.54211 -0.88195,-0.28476 -0.88194,-0.28476 -0.45851,-0.0811 -0.45851,-0.0811 -0.52865,-0.43874 -0.52866,-0.43875 0.10522,-0.73642 0.10522,-0.73643 1.05833,-0.074 1.05834,-0.0739 1.14653,-0.23067 1.14652,-0.23067 v -2.06064 -2.06064 l -1.26288,-0.23692 -1.26289,-0.23692 -0.18597,-0.48462 -0.18597,-0.48462 h -0.59725 -0.59726 l -0.4038,0.40381 -0.40381,0.4038 -0.25307,-1.00831 -0.25307,-1.0083 -0.27083,0.69269 -0.27083,0.6927 -0.0248,0.97014 -0.0248,0.97014 0.44097,0.005 0.44098,0.005 -0.52917,0.37423 -0.52917,0.37424 0.44097,0.17893 0.44098,0.17893 v 0.49977 0.49976 h -0.39599 -0.39597 l 0.48417,0.58654 0.48417,0.58654 -0.43816,0.14747 -0.43815,0.14748 0.36237,0.6771 0.36237,0.6771 -0.45338,0.0279 -0.45339,0.0279 0.44097,0.17793 0.44098,0.17794 v 0.3442 0.3442 l -0.38798,-0.23978 -0.38797,-0.23978 0.4031,0.75319 0.40309,0.7532 -0.12014,1.72336 -0.12014,1.72337 1.25155,-0.15839 1.25154,-0.15838 1.41111,-0.0197 1.41111,-0.0198 1.05834,0.0426 1.05833,0.0426 -0.52917,0.34197 -0.52916,0.34197 -1.24785,0.005 -1.24784,0.005 -0.0534,0.70909 -0.0534,0.7091 0.53271,-0.53271 0.5327,-0.5327 h 1.70095 1.70095 l 0.2089,0.54438 0.20889,0.54438 0.67003,-0.35859 0.67002,-0.35859 -0.0474,0.60796 -0.0474,0.60796 0.44098,-0.0882 0.44097,-0.0882 v 0.35277 0.35278 h 0.39052 0.39052 l -0.20306,-0.52916 -0.20306,-0.52917 h 0.2633 0.26331 l 0.59791,0.69831 0.59791,0.69831 -0.6077,0.29519 -0.60771,0.29518 -0.35278,-0.0288 -0.35277,-0.0288 -0.43693,-0.2775 -0.43694,-0.27751 0.21009,0.54749 0.2101,0.54749 -0.8315,0.0556 -0.83149,0.0556 -0.43772,-0.0158 -0.43772,-0.0158 0.20651,0.8228 0.20651,0.82279 -0.71449,-0.0538 -0.71449,-0.0538 0.17277,-0.27955 0.17277,-0.27954 h -0.3736 -0.3736 v 0.30004 0.30004 l -1.37884,-0.0332 -1.37884,-0.0332 0.16494,-0.26688 0.16494,-0.26687 -0.81457,-0.0352 -0.81457,-0.0352 0.86662,-0.24171 0.86661,-0.2417 -1.06248,-0.75656 -1.06249,-0.75656 -0.50968,0.32247 -0.50969,0.32247 0.45471,0.005 0.45472,0.005 -0.7071,0.75898 -0.7071,0.75898 0.21594,0.38754 0.21595,0.38755 -0.46014,-0.42602 -0.46013,-0.42602 0.46398,-0.55907 0.46399,-0.55907 -0.42928,-0.42602 -0.42929,-0.42602 0.23504,0.61736 0.23503,0.61736 h -0.7433 -0.7433 l 0.0882,0.39688 0.0882,0.39687 -0.44097,0.16169 -0.44097,0.16169 v -0.73495 -0.73496 h -0.81139 -0.81139 l -0.49451,-0.44097 -0.49452,-0.44097 0.43634,0.58023 0.43633,0.58022 -0.62974,-0.0511 -0.62973,-0.0511 -0.26376,-0.40816 -0.26375,-0.40816 -0.79458,0.20479 -0.79458,0.2048 -0.46142,0.55615 -0.46142,0.55614 0.13672,-1.15323 0.13672,-1.15322 -0.53023,-0.43428 -0.53022,-0.43427 0.20444,0.7934 0.20445,0.7934 -0.37417,0.23124 -0.37416,0.23125 0.25171,-0.40729 0.25172,-0.40728 h -0.39441 -0.39442 l 0.20297,-0.3284 0.20296,-0.3284 -0.32157,-0.19874 -0.32156,-0.19874 -0.20228,0.52714 -0.20229,0.52714 h -0.38467 -0.38467 l 0.20709,-0.33508 0.20709,-0.33508 -0.69224,-0.37047 -0.69225,-0.37048 h -0.38353 -0.38353 l -0.40295,0.88437 -0.40295,0.88438 -0.65297,-0.59094 -0.65297,-0.59093 -0.7886,-0.0636 -0.7886,-0.0636 -0.23917,0.3672 -0.23916,0.36721 0.59194,0.43977 0.59194,0.43977 -1.17292,-0.18022 -1.17293,-0.18023 -0.1949,0.74528 -0.19489,0.74528 -0.5047,-0.72055 -0.5047,-0.72056 0.21765,-0.35216 0.21764,-0.35216 h -0.53891 -0.53892 l 0.20307,0.52917 0.20306,0.52917 -0.30233,-0.005 -0.30233,-0.005 -0.52916,-0.34197 -0.52917,-0.34198 0.52917,-0.0108 0.52916,-0.0108 -0.52916,-0.34198 -0.52917,-0.34197 0.88194,-0.0108 0.88195,-0.0108 -0.49718,-0.31474 -0.49717,-0.31473 -0.56116,0.20621 -0.56116,0.20621 -0.25918,0.37851 -0.25918,0.37851 -0.005,-0.40583 -0.005,-0.40583 -1.07084,0.0741 -1.07083,0.0741 -0.35325,-0.42563 -0.35325,-0.42564 -0.69808,0.18255 -0.69808,0.18255 -0.2254,0.36471 -0.2254,0.3647 0.40325,-0.24922 0.40324,-0.24922 -0.18753,0.48869 -0.18753,0.4887 h -0.49941 -0.4994 l 0.0736,-0.55857 0.0736,-0.55856 -0.35278,-0.0104 -0.35278,-0.0104 0.0926,0.40332 0.0926,0.40332 -0.88226,-0.16865 -0.88225,-0.16866 0.19843,-0.40063 0.19844,-0.40063 -0.55533,0.68479 -0.55532,0.68478 v -0.63433 -0.63434 l -0.55802,0.21413 -0.55802,0.21414 h -0.36302 -0.36301 l 0.83283,0.70748 0.83284,0.70747 -0.97014,-0.34596 -0.97014,-0.34597 -0.0125,0.25585 -0.0125,0.25585 -0.42847,-0.747 -0.42847,-0.747 -0.70556,0.28123 -0.70555,0.28123 0.81457,0.0248 0.81457,0.0248 -0.2204,0.35662 -0.2204,0.35661 -1.03515,-0.0789 -1.03514,-0.0789 v -0.25311 -0.25311 l -0.9998,0.28673 -0.9998,0.28674 -0.60617,-0.33923 -0.60617,-0.33923 -0.4225,0.3144 -0.4225,0.31441 -0.52917,-0.0564 -0.52917,-0.0564 -0.46178,-0.0537 -0.4618,-0.0537 0.23978,-0.38797 0.23979,-0.38798 -0.74813,0.40039 -0.74813,0.40039 v 0.16397 0.16398 l 0.26458,-0.0418 0.26459,-0.0418 0.46179,0.0418 0.46179,0.0418 -0.21803,0.35278 -0.21803,0.35278 h -0.68473 -0.68474 l -0.048,-1.14653 -0.048,-1.14653 -0.15642,0.82072 -0.15641,0.82072 -0.52995,-0.20336 -0.52995,-0.20336 h -0.34522 -0.34522 l 0.10949,-1.32291 0.10949,-1.32292 1.5875,-0.46821 1.5875,-0.46822 0.70555,-0.30095 0.70556,-0.30096 1.26907,-0.38695 1.26907,-0.38694 0.58301,0.22372 0.58301,0.22372 v 0.8442 0.8442 h 0.35278 0.35278 l 0.0374,-0.44097 0.0374,-0.44097 -0.0565,-0.89856 -0.0565,-0.89856 1.77248,-0.45427 1.77248,-0.45427 0.80424,-0.1231 0.80423,-0.12309 2.41521,-0.54123 2.41521,-0.54123 0.23063,0.0305 0.23062,0.0305 0.63818,-0.0418 0.63818,-0.0418 -0.24139,-0.39057 -0.24138,-0.39057 0.79391,0.25197 0.79391,0.25198 -0.27844,-0.45052 -0.27844,-0.45052 0.60537,0.2323 0.60536,0.23229 -0.18943,-0.3065 -0.18943,-0.3065 2.28777,-0.65519 2.28777,-0.65519 v -0.44538 -0.44538 h -0.32758 -0.32757 l -0.52816,0.52816 -0.52815,0.52815 -0.50117,-0.19232 -0.50117,-0.19231 -1.55351,0.54097 -1.55352,0.54097 -0.62849,0.005 -0.62849,0.005 -2.01734,0.66829 -2.01735,0.66828 -6.70277,2.13955 -6.70278,2.13956 -0.97014,0.22901 -0.97013,0.22902 v -0.7438 -0.7438 h 0.70555 0.70556 v -0.36824 -0.36824 l 0.44097,0.0895 0.44097,0.0895 0.82132,-0.45396 0.82131,-0.45396 0.51992,0.19952 0.51992,0.19951 -0.19236,-0.31126 -0.19237,-0.31126 4.49557,-1.8374 4.49558,-1.8374 2.46944,-1.16627 2.46944,-1.16627 0.61737,-0.19774 0.61736,-0.19773 v -0.38762 -0.38763 l -0.73084,0.23196 -0.73084,0.23196 -0.7316,-0.64916 -0.73161,-0.64916 0.43269,0.82397 0.43269,0.82396 -0.11677,0.0713 -0.11678,0.0713 -2.11667,0.83134 -2.11666,0.83134 -5.40141,2.42601 -5.4014,2.42601 -0.30955,-0.19131 -0.30955,-0.19131 -0.35249,0.62478 -0.35249,0.62478 -0.35834,-0.35402 -0.35835,-0.35401 -0.1046,-2.82099 -0.1046,-2.82098 -0.70555,0.12173 -0.70556,0.12173 -0.0545,0.0547 -0.0545,0.0546 -0.11065,1.23473 -0.11065,1.23472 0.42975,-0.0882 0.42976,-0.0882 v 0.29671 0.29671 l -0.52535,1.73176 -0.52535,1.73176 0.009,0.52917 0.009,0.52917 0.46639,-0.84141 0.46639,-0.84141 0.22919,0.37083 0.22919,0.37084 -0.33354,0.87728 -0.33355,0.87728 -0.37453,0.23147 -0.37454,0.23148 v -0.3736 -0.3736 h -0.37364 -0.37359 l 0.21803,0.35278 0.21802,0.35278 -0.99095,0.0294 -0.99096,0.0294 1.76389,0.81772 1.76388,0.81771 -0.60281,0.24342 -0.60281,0.24342 -1.33747,-0.44049 -1.33746,-0.44049 -0.38996,-0.53094 -0.38996,-0.53093 -0.55808,0.21415 -0.55808,0.21416 -0.13609,-0.59781 -0.1361,-0.59781 -0.0541,4.49792 -0.0541,4.49792 h 0.3215 0.32149 z m 76.52679,-8.52099 0.60344,-0.92754 -0.56419,-0.2165 -0.56418,-0.2165 0.21957,-0.35526 0.21956,-0.35527 h 0.35278 0.35278 l -0.21803,0.35277 -0.21803,0.35278 h 0.35278 0.35278 l 0.22158,-0.35853 0.22159,-0.35853 0.3284,0.20296 0.3284,0.20296 0.43477,-0.2687 0.43477,-0.2687 0.53537,-0.0593 0.53537,-0.0593 1.94028,-0.2411 1.94027,-0.2411 0.33514,-0.33367 0.33514,-0.33368 h 0.28222 0.28223 v 0.52917 0.52917 l 0.97014,-0.0352 0.97013,-0.0352 0.88195,-0.30911 0.88194,-0.30912 -1.76389,0.17292 -1.76388,0.17292 0.88194,-0.4845 0.88194,-0.4845 1.1344,-0.21484 1.1344,-0.21484 0.5413,0.7728 0.54129,0.77281 v 0.31253 0.31252 l -0.86032,-0.21592 -0.86033,-0.21593 -0.21882,0.35407 -0.21883,0.35407 h -0.65534 -0.65534 l -0.17793,0.44098 -0.17794,0.44097 -0.0279,-0.44097 -0.0278,-0.44098 -0.61736,0.005 -0.61736,0.005 0.52916,0.34197 0.52917,0.34197 -0.26458,0.0495 -0.26459,0.0495 -0.26458,0.0916 -0.26458,0.0916 -0.79375,0.25827 -0.79375,0.25827 v 0.27861 0.27861 l -0.70159,-0.18347 -0.70159,-0.18347 0.19324,-0.31267 0.19324,-0.31267 h -0.51224 -0.51224 l -0.2182,0.56861 -0.2182,0.56861 -1.14246,-0.24487 -1.14246,-0.24487 -1.17036,0.006 -1.17036,0.006 -0.56695,0.46439 -0.56695,0.46439 z m -47.31147,-47.81304 -0.44097,-0.17794 v -0.52331 -0.5233 l -0.95433,-1.25119 -0.95432,-1.25118 0.66897,-0.48917 0.66897,-0.48917 h -0.4202 -0.4202 v -0.37797 -0.37798 l 0.46558,-0.46558 0.46557,-0.46557 1.634,0.41488 1.63399,0.41489 0.24127,0.24127 0.24127,0.24127 -0.57695,0.88054 -0.57696,0.88054 v 0.73549 0.73548 l -0.53822,1.04082 -0.53823,1.04081 -0.0791,-0.0279 -0.0791,-0.0279 z m 27.42847,-6.80279 v -0.34709 l 0.65917,-0.35277 0.65917,-0.35278 0.25145,0.25145 0.25145,0.25145 -0.23453,-1.05761 -0.23453,-1.05761 -0.15131,-0.48126 -0.15131,-0.48126 -0.78936,0.17131 -0.78936,0.17131 -0.61737,0.25949 -0.61736,0.2595 v -0.75203 -0.75203 l 0.92486,-0.35163 0.92485,-0.35163 0.57445,0.41829 0.57445,0.41828 1.18178,1.26499 1.18178,1.265 -0.21089,-0.40606 -0.21088,-0.40607 3.08605,-2.28167 3.08605,-2.28168 0.88195,-0.44315 0.88194,-0.44315 0.70556,-0.62274 0.70555,-0.62274 1.14654,0.17769 1.14653,0.1777 v 0.33023 0.33022 l -1.14653,1.13738 -1.14654,1.13737 -0.97014,0.49225 -0.97014,0.49225 v 0.29317 0.29317 h -0.36338 -0.36338 l -3.1356,1.91027 -3.13561,1.91027 -0.17496,-0.17496 -0.17497,-0.17497 -0.64758,0.33256 -0.64757,0.33256 -0.97014,0.23191 -0.97014,0.23191 z m 23.89835,61.3642 -3.03368,-2.11667 h -0.53373 -0.53374 l -0.25966,0.42016 -0.25967,0.42015 0.43803,0.14601 0.43804,0.14601 0.36883,0.93314 0.36883,0.93314 0.28913,-0.70555 0.28913,-0.70556 0.0248,0.45701 0.0248,0.45701 0.86591,0.86591 0.86591,0.86591 h 1.84038 1.84038 z m -39.98194,-5.64444 h 1.49759 l -0.0918,-1.62668 -0.0918,-1.62667 0.68205,-0.17836 0.68205,-0.17836 v -0.31163 -0.31164 h 0.41158 0.41157 l -0.23294,0.23294 -0.23294,0.23294 0.75425,0.5283 0.75424,0.5283 -0.66829,0.48867 -0.6683,0.48867 0.0882,0.1612 0.0882,0.1612 -0.26458,-0.0882 -0.26459,-0.0882 0.0422,-0.61737 0.0422,-0.61736 h -0.45018 -0.45019 l 0.18451,0.70556 0.18451,0.70555 h -0.39393 -0.39392 v 0.29562 0.29562 l 1.28465,0.0483 1.28466,0.0483 0.18219,0.18219 0.18219,0.1822 0.43655,-0.36231 0.43655,-0.3623 -0.37102,-1.20889 -0.37102,-1.20889 -0.27327,0.1689 -0.27328,0.16889 -0.22159,-0.35853 -0.22158,-0.35853 0.46179,-0.0418 0.46179,-0.0418 0.21234,0.0244 0.21233,0.0244 -0.16448,-0.86042 -0.16448,-0.86042 -0.40063,0.24 -0.40063,0.24 0.48416,-0.59689 0.48417,-0.59688 -0.48417,-0.005 -0.48416,-0.005 0.48758,-0.30881 0.48758,-0.30881 -0.74901,-0.23772 -0.74901,-0.23773 -0.35593,0.21998 -0.35594,0.21998 v -0.3736 -0.3736 h -0.31574 -0.31574 l 0.17262,1.94028 0.17262,1.94028 h -0.56243 -0.56244 v -0.3736 -0.3736 l 0.44098,0.26493 0.44097,0.26493 -0.52077,-0.64099 -0.52077,-0.64099 0.11396,-1.08644 0.11396,-1.08644 0.12197,-0.63334 0.12197,-0.63335 h -0.57634 -0.57633 l 0.68478,-0.52337 0.68479,-0.52337 -0.80818,-0.2271 -0.80817,-0.2271 0.14672,-0.39606 0.14671,-0.39605 0.4231,0.0969 0.4231,0.0969 -0.20296,-0.3284 -0.20297,-0.3284 -0.73171,0.19134 -0.73171,0.19135 0.1147,-0.66544 0.1147,-0.66544 -0.79375,-0.11273 -0.79375,-0.11273 v -0.32824 -0.32824 h 0.63813 0.63813 l 0.68479,-0.51795 0.68479,-0.51794 -0.97014,-0.0112 -0.97014,-0.0112 v -0.33196 -0.33196 l 0.35278,-0.21803 0.35277,-0.21803 v -0.3697 -0.3697 l -0.5112,0.19617 -0.5112,0.19616 0.19617,-0.5112 0.19617,-0.5112 h -0.39053 -0.39052 v 0.3736 0.3736 l -0.35277,-0.21803 -0.35278,-0.21803 -0.005,3.28402 -0.005,3.28401 -0.31917,0.50435 -0.31917,0.50434 -0.7174,0.0529 -0.7174,0.0528 0.16117,-0.26078 0.16117,-0.26078 -0.2128,-0.55454 -0.21279,-0.55455 -0.67759,0.36264 -0.67758,0.36263 -0.32111,-0.19846 -0.32111,-0.19846 -0.23645,0.38258 -0.23645,0.38259 -0.48218,-0.18504 -0.48219,-0.18503 -0.22301,0.36084 -0.22301,0.36085 0.12352,0.10909 0.12352,0.10909 0.76506,0.23488 0.76506,0.23488 0.11688,-0.52931 0.11689,-0.52931 1.14653,0.55871 1.14652,0.55871 v 0.66149 0.66149 l 0.44098,-0.0882 0.44097,-0.0882 0.25918,-0.35278 0.25918,-0.35277 0.005,0.42015 0.005,0.42015 -0.35145,0.21721 -0.35145,0.21721 -0.72536,0.13969 -0.72535,0.13969 0.2117,-0.77705 0.21171,-0.77705 -0.37018,0.58704 -0.37019,0.58704 0.21472,0.55954 0.21471,0.55953 0.81073,-0.14701 0.81073,-0.14701 0.17239,0.65921 0.17239,0.65922 -0.40352,0.16545 -0.40352,0.16545 0.62917,0.0279 0.62918,0.0279 -0.0608,1.14653 -0.0608,1.14653 0.0489,1.18427 0.0489,1.18427 0.55802,-0.21413 0.55802,-0.21413 z m 30.65321,-7.32014 0.28212,-0.44098 h 0.43656 0.43656 l 0.0554,-0.73575 0.0554,-0.73576 -0.59771,0.23809 -0.59771,0.23809 -0.88195,0.14856 -0.88195,0.14856 -0.87617,0.20013 -0.87616,0.20012 0.9162,-0.72068 0.9162,-0.72069 -0.1811,-1.33519 -0.18109,-1.3352 0.0328,-1.74808 0.0328,-1.74808 0.20319,-0.80956 0.20319,-0.80955 h -0.44977 -0.44977 l -0.40984,0.97013 -0.40983,0.97014 -0.2427,1.53621 -0.24269,1.5362 -0.12826,1.46241 -0.12826,1.4624 -0.0306,0.64711 -0.0306,0.6471 0.68428,0.59348 0.68429,0.59348 1.18748,-0.006 1.18749,-0.006 z m -64.46441,-3.57834 -0.19477,-0.31515 0.89573,-0.22481 0.89573,-0.22482 0.39106,0.24169 0.39106,0.24169 -0.22693,-0.36718 -0.22693,-0.36717 0.78978,-0.2075 0.78978,-0.20749 0.1176,0.34377 0.11759,0.34378 h 0.36112 0.36113 l -0.18973,-0.49441 -0.18972,-0.4944 0.75672,-0.19789 0.75672,-0.19788 0.2718,0.4277 0.2718,0.42771 0.005,-0.57962 0.005,-0.57961 0.61064,-0.23432 0.61063,-0.23433 0.12432,0.37297 0.12432,0.37297 h 0.31231 0.31231 l -0.17995,-0.46894 -0.17995,-0.46895 1.38882,-0.4161 1.38881,-0.4161 0.65429,0.21277 0.65429,0.21276 -0.52917,-0.38065 -0.52917,-0.38065 0.70556,-0.0613 0.70556,-0.0613 0.63785,0.0554 0.63785,0.0554 -0.202,-0.32686 -0.20201,-0.32685 0.70753,-0.22456 0.70752,-0.22455 0.41044,0.25366 0.41044,0.25367 -0.22693,-0.36718 -0.22693,-0.36717 0.77716,-0.20324 0.77716,-0.20323 0.27181,0.42771 0.2718,0.42771 0.005,-0.59001 0.005,-0.59 1.18088,-0.38972 1.18088,-0.38973 0.64088,0.24593 0.64088,0.24593 -0.23223,-0.37576 -0.23224,-0.37577 0.52714,-0.20228 0.52714,-0.20228 0.58704,0.22527 0.58704,0.22526 -0.23384,-0.37836 -0.23384,-0.37836 1.06842,-0.37246 1.06843,-0.37246 0.51865,-0.51865 0.51866,-0.51866 v -0.37797 -0.37798 h -0.32758 -0.32758 l -0.46617,0.46196 -0.46617,0.46196 -1.07304,0.53268 -1.07304,0.53267 -0.42627,-0.14209 -0.42626,-0.14209 v -0.32338 -0.32337 h 1.0694 1.06941 l 0.13585,-0.44098 0.13585,-0.44097 0.21258,-0.97014 0.21257,-0.97014 h -0.53588 -0.53589 v 0.37709 0.37709 l -2.23498,-0.081 -2.23498,-0.081 -0.37983,0.23475 -0.37983,0.23475 -3.20602,0.22757 -3.20603,0.22757 v -0.40561 -0.4056 h -0.70555 -0.70556 v 0.35278 0.35277 h 0.3736 0.3736 l -0.25158,0.40707 -0.25158,0.40706 2.25923,-0.2212 2.25923,-0.22121 4.23333,-0.24208 4.23334,-0.24209 -0.48095,0.58151 -0.48094,0.58151 -0.32826,-0.20288 -0.32826,-0.20287 -0.53426,0.44339 -0.53426,0.4434 -3.59542,-0.0715 -3.59543,-0.0715 -1.22142,0.0274 -1.22142,0.0274 -0.0978,0.0978 -0.0978,0.0978 -0.21825,1.09126 -0.21825,1.09127 0.83193,0.15789 0.83194,0.15788 -1.17955,0.0481 -1.17956,0.048 -0.1845,-0.70556 -0.18451,-0.70555 h -0.2836 -0.28361 l -0.22725,-1.03469 -0.22726,-1.03469 -0.77091,0.02 -0.77091,0.02 -1.1116,0.32492 -1.11159,0.32492 0.53773,1.07791 0.53773,1.0779 1.01484,-0.20297 1.01483,-0.20297 v 0.33289 0.33289 l 0.52917,-0.20306 0.52916,-0.20306 v 0.33246 0.33247 l -1.93951,-0.0301 -1.93951,-0.0301 -0.0425,-0.35278 -0.0425,-0.35278 0.0481,-0.28348 0.0481,-0.28348 -0.50407,-0.50406 -0.50406,-0.50407 0.18613,-0.71176 0.18613,-0.71176 h -0.37789 -0.37788 l -0.90612,0.90613 -0.90613,0.90612 -0.82475,-0.10808 -0.82476,-0.10808 -0.55879,0.46376 -0.5588,0.46376 -0.78631,-0.11528 -0.78631,-0.11527 -0.97195,-1.88483 -0.97195,-1.88482 -0.57719,-0.63779 -0.57719,-0.63779 0.37576,-0.23224 0.37575,-0.23223 0.35278,0.21803 0.35278,0.21803 v -0.49681 -0.4968 l -1.32292,0.0903 -1.32291,0.0903 -0.26459,0.0329 -0.26458,0.0329 0.0191,1.32292 0.0191,1.32292 1.60915,1.05833 1.60914,1.05833 1.81128,3.52099 1.81129,3.52098 0.49829,0.39675 0.49829,0.39676 -0.24566,0.64017 -0.24565,0.64017 0.45292,0.28738 0.45292,0.28739 0.10901,0.005 0.10902,0.005 z m 56.46949,-2.41889 0.95882,-0.97013 -0.40977,0.55856 -0.40977,0.55857 h 0.52357 0.52356 l 0.0418,-0.38218 0.0418,-0.38218 -0.0573,-0.44097 -0.0573,-0.44097 h 0.32767 0.32767 l 0.62854,-0.95927 0.62853,-0.95926 v -0.45185 -0.45184 l 0.55857,-0.0279 0.55856,-0.0279 -0.44097,-0.17794 -0.44097,-0.17794 v -0.67615 -0.67616 h -0.32142 -0.32142 l -0.93777,1.14653 -0.93778,1.14652 -0.50124,0.61736 -0.50124,0.61737 h 0.23443 0.23443 l -0.82855,0.88194 -0.82854,0.88194 h -0.46767 -0.46768 v 0.38581 0.3858 l 0.73538,0.19231 0.73538,0.19231 -0.4708,0.29843 -0.47079,0.29843 0.4267,0.005 0.42669,0.005 z m 3.79671,-7.81564 -0.22026,-1.37745 0.69887,-0.37403 0.69888,-0.37402 0.19216,0.19216 0.19217,0.19217 0.88975,-0.58299 0.88976,-0.58299 0.97158,0.11383 0.97158,0.11383 -0.57358,0.56974 -0.57359,0.56975 0.77133,0.3684 0.77134,0.36841 0.61736,0.1973 0.61736,0.19731 v -0.34171 -0.3417 h -0.31503 -0.31504 l -0.18306,-0.47706 -0.18307,-0.47706 1.7693,-1.32091 1.7693,-1.3209 -0.37698,-0.37698 -0.37698,-0.37699 0.60453,-0.44204 0.60453,-0.44204 -0.19314,-0.19314 -0.19314,-0.19314 -1.69833,0.8598 -1.69833,0.8598 -0.48922,0.40603 -0.48923,0.40602 v -0.92514 -0.92514 h 0.35278 0.35278 v -0.97126 -0.97127 l 0.69926,-2.44521 0.69927,-2.44521 -0.12012,-0.12012 -0.12013,-0.12013 -0.71267,0.62618 -0.71268,0.62618 -0.81645,2.46945 -0.81644,2.46944 -0.27886,0.32926 -0.27887,0.32926 -0.20346,-0.20347 -0.20348,-0.20346 -0.69679,-4.34216 -0.69679,-4.34216 -0.14121,-0.14121 -0.14121,-0.14121 -0.23668,1.26161 -0.23667,1.26161 0.21393,1.77305 0.21393,1.77305 0.20791,1.72359 0.2079,1.72359 -0.44537,0.27525 -0.44537,0.27526 -2.3479,-2.58724 -2.3479,-2.58724 -0.2435,0.63457 -0.24351,0.63458 0.83145,1.10035 0.83145,1.10035 1.29186,1.84846 1.29187,1.84847 v 0.33557 0.33558 l -0.30727,0.1899 -0.30726,0.1899 -2.77954,0.2197 -2.77954,0.2197 -0.13544,0.12883 -0.13544,0.12884 -0.0981,0.89349 -0.0981,0.8935 h 0.19463 0.19463 l 0.48072,-0.61736 0.48073,-0.61736 -0.21499,0.61736 -0.215,0.61736 1.36066,0.0493 1.36066,0.0493 1.29052,-0.0765 1.29052,-0.0765 0.23256,0.73272 0.23255,0.73272 h 0.15679 0.15678 z m -23.66652,-0.89844 0.99238,-0.21816 -0.11044,-0.94389 -0.11044,-0.94388 -0.88194,-0.21026 -0.88195,-0.21026 0.73958,-0.19747 0.73958,-0.19747 -0.1751,-1.19303 -0.1751,-1.19303 -0.24063,0.68597 -0.24063,0.68598 -0.20284,-0.77569 -0.20285,-0.77569 0.54589,-0.3055 0.54588,-0.30549 -0.25978,-0.42034 -0.25979,-0.42034 -0.47296,0.63847 -0.47297,0.63847 0.0795,-0.52917 0.0795,-0.52916 0.44777,-0.70556 0.44777,-0.70555 0.19022,0.45569 0.19022,0.4557 0.49486,-0.4107 0.49486,-0.4107 v 1.09046 1.09046 l 0.52917,-0.20306 0.52916,-0.20306 v -0.33586 -0.33585 l -0.35277,0.21803 -0.35278,0.21803 v -0.53892 -0.53891 l 0.50218,0.1927 0.50218,0.19271 -0.0612,1.20575 -0.0612,1.20575 -0.23519,0.002 -0.23518,0.002 -0.20889,-0.44098 -0.20888,-0.44097 0.175,1.76389 0.17501,1.76389 0.12516,0.69774 0.12516,0.69773 1.105,0.226 1.105,0.226 0.20898,-0.65844 0.20898,-0.65844 -0.10117,-2.47811 -0.10118,-2.47812 -0.45154,0.17328 -0.45154,0.17327 v -0.87087 -0.87087 l -0.44097,-0.005 -0.44097,-0.005 0.52916,-0.34197 0.52917,-0.34198 -0.60629,-0.005 -0.60629,-0.005 0.19083,-0.4973 0.19083,-0.49729 -0.72395,-0.22978 -0.72395,-0.22977 -0.62448,0.36357 -0.62448,0.36356 0.79375,0.0107 0.79375,0.0107 v 0.52161 0.5216 l -0.88051,-0.40119 -0.88051,-0.40118 -0.64657,0.58514 -0.64657,0.58514 h -0.23681 -0.23681 v -0.35278 -0.35278 h 0.48598 0.48597 l 0.48416,-0.58603 0.48417,-0.58604 -1.05833,0.24436 -1.05833,0.24435 -0.52917,0.0771 -0.52917,0.0771 -0.37451,0.70556 -0.3745,0.70555 0.3745,0.26459 0.37451,0.26458 -0.37851,0.26458 -0.37851,0.26459 -0.23481,0.63568 -0.23481,0.63568 0.38393,-0.23728 0.38394,-0.23728 -0.40039,0.74813 -0.40038,0.74812 0.27699,0.0418 0.277,0.0418 0.19434,-0.0184 0.19435,-0.0184 0.426,0.68214 0.42601,0.68214 h -0.32637 -0.32637 l -0.14738,-0.44097 -0.14739,-0.44097 0.0298,1.28788 0.0298,1.28787 0.28004,-0.17172 0.28004,-0.17172 0.51371,0.42635 0.51371,0.42634 v 0.3304 0.33041 l -0.34873,-0.21554 -0.34874,-0.21553 0.20154,0.52522 0.20155,0.52521 0.41177,-0.12465 0.41178,-0.12465 z m -37.85383,-3.31033 0.70172,-0.82372 -0.006,-0.23461 -0.006,-0.23462 -1.40537,-1.16696 -1.40537,-1.16697 -0.35216,0.21765 -0.35216,0.21765 v 0.50834 0.50835 h 0.52917 0.52917 v 0.70556 0.70555 l -0.44097,0.0418 -0.44098,0.0418 -0.18177,-0.0142 -0.18177,-0.0142 0.0653,1.4717 0.0653,1.4717 0.0339,0.52917 0.0339,0.52917 1.05653,-1.23473 1.05654,-1.23472 z m 24.59704,-6.80854 0.40031,-0.40032 -0.5457,-0.83285 -0.5457,-0.83284 0.23932,-1.2757 0.23932,-1.27569 0.81324,-0.81324 0.81324,-0.81324 -0.74234,-0.19412 -0.74234,-0.19413 -0.29836,0.29836 -0.29837,0.29837 -1.60082,-0.48178 -1.60082,-0.48178 -0.2719,0.16805 -0.2719,0.16804 -0.0304,3.22784 -0.0304,3.22784 0.18773,0.30375 0.18773,0.30376 h 1.8489 1.84891 z m 22.68214,-10.08315 1.75636,-1.31124 -0.19457,-1.2464 -0.19456,-1.24639 -0.17393,-1.13639 -0.17393,-1.13639 -0.72971,-0.51111 -0.72972,-0.51112 0.22039,-0.35659 0.22039,-0.35659 -0.34231,-0.21156 -0.34231,-0.21156 -0.89573,0.22481 -0.89573,0.22482 0.17192,0.27818 0.17193,0.27818 -0.52714,0.20228 -0.52714,0.20228 v -0.33063 -0.33064 l -0.52917,0.20306 -0.52917,0.20306 v -0.41991 -0.41992 l -0.41321,0.13774 -0.41322,0.13773 -0.057,0.77361 -0.057,0.7736 h 0.43246 0.43247 l 0.2257,0.58816 0.2257,0.58816 -0.35953,0.35952 -0.35953,0.35953 0.47903,0.55162 0.47903,0.55162 0.62146,1.94028 0.62146,1.94028 0.15024,0.26458 0.15024,0.26458 h 0.16473 0.16473 z m -2.35044,-9.53667 1.58911,-1.32292 0.0225,-0.50139 0.0225,-0.50139 -0.58384,-0.64513 -0.58384,-0.64514 -0.56269,0.005 -0.56268,0.005 0.52916,0.34197 0.52917,0.34198 -0.61736,0.005 -0.61736,0.005 v 0.32401 0.324 l -1.2833,0.79313 -1.28331,0.79312 h -0.48058 -0.48059 v 0.13451 0.13452 l 0.97014,0.85387 0.97014,0.85388 0.41687,0.0111 0.41688,0.0111 z"
       id="path2" /></g></svg>
