<?xml version="1.0" encoding="UTF-8" standalone="no"?>
<!-- Created with Inkscape (http://www.inkscape.org/) -->

<svg
   width="101.6mm"
   height="84.666672mm"
   viewBox="0 0 101.6 84.666672"
   version="1.1"
   id="svg1"
   xml:space="preserve"
   xmlns="http://www.w3.org/2000/svg"
   xmlns:svg="http://www.w3.org/2000/svg"><defs
     id="defs1" /><g
     id="layer1"
     transform="translate(-30.592345,-131.26849)"><path
       style="fill:#ffffff;fill-opacity:1"
       d="m 30.592344,173.60182 v -42.33333 h 50.799999 50.799997 v 42.33333 42.33333 H 81.392343 30.592344 Z m 38.452777,41.09861 0.439169,-0.52917 h 0.523714 0.523715 l -0.203061,0.52917 -0.20306,0.52916 h 1.047261 1.047262 v -0.3858 -0.38581 l -0.705556,-0.1845 -0.705555,-0.18451 v -0.31163 -0.31163 h -0.445513 -0.445513 l -0.421059,-0.79375 -0.42106,-0.79375 -0.22985,-0.60568 -0.229851,-0.60568 -0.579272,-0.19694 -0.579271,-0.19694 -0.633831,-0.87308 -0.63383,-0.87307 h 0.924408 0.924407 l 2.627267,0.88194 2.627267,0.88195 h 0.874517 0.874517 v -0.68474 -0.68474 l -0.352778,-0.21802 -0.352777,-0.21803 v -0.33868 -0.33868 l 0.819927,0.20579 0.819927,0.20579 0.455161,-0.54844 0.45516,-0.54843 0.779562,0.19565 0.779561,0.19566 0.416077,-0.50134 0.416076,-0.50134 -0.221767,-1.10884 -0.221768,-1.10884 h -0.30868 -0.308681 l 0.01122,-0.97014 0.01122,-0.97013 0.473125,0.62348 0.473125,0.62349 0.588415,-0.22579 0.588415,-0.2258 -0.10262,0.44016 -0.102621,0.44015 0.419269,0.15446 0.419269,0.15445 -0.104365,-0.9923 -0.104364,-0.9923 -1.816774,-0.18643 -1.816775,-0.18642 -0.516191,0.51619 -0.516191,0.51619 -0.94793,-0.50616 -0.947931,-0.50615 -0.140229,-0.53427 -0.14023,-0.53427 -2.801479,-1.87673 -2.801479,-1.87674 -1.588828,-1.81627 -1.588828,-1.81627 v -0.38553 -0.38554 l -0.886616,-0.83293 -0.886617,-0.83294 -0.411627,0.41163 -0.411628,0.41163 -0.632956,3.09384 -0.632956,3.09384 -0.430019,4.11505 -0.43002,4.11505 0.464138,0.55925 0.464137,0.55925 h 0.633507 0.633507 l 0.55802,0.21414 0.558019,0.21413 v 0.44402 0.44403 l 1.197961,2.42865 1.197962,2.42864 0.236922,0.79375 0.236923,0.79375 h 0.991365 0.991365 z M 80.33401,213.9838 v -1.24579 l -0.558545,-0.21434 -0.558545,-0.21433 -0.71311,0.71311 -0.71311,0.71311 0.237094,0.74702 0.237095,0.74701 h 1.03456 1.034561 z m 10.027284,-5.80471 2.849104,-1.40606 2.116667,-0.50289 2.116667,-0.5029 0.970138,-0.21443 0.970139,-0.21444 -0.0029,-1.84536 -0.0029,-1.84536 -0.362378,-3.16337 -0.362379,-3.16337 -0.202137,-0.80538 -0.202138,-0.80538 h -0.284274 -0.284275 l -1.123136,1.85209 -1.123136,1.85208 -1.689221,1.76389 -1.689222,1.76388 -2.853779,3.78584 -2.85378,3.78583 0.205566,0.53569 0.205565,0.5357 h 0.376347 0.376347 z m -15.318951,-12.24976 1.5875,-0.55647 0.612241,-0.68772 0.612241,-0.68773 -0.40047,-0.76099 -0.40047,-0.76099 -0.38816,-0.25918 -0.38816,-0.25918 -1.499305,-0.005 -1.499306,-0.005 v -0.66236 -0.66236 l -0.538598,-0.447 -0.538599,-0.44699 1.126941,-0.68534 1.126941,-0.68533 -0.500148,-0.31658 -0.500148,-0.31657 -0.891644,-0.005 -0.891643,-0.005 -0.778979,0.54562 -0.778978,0.54562 -0.56663,1.94914 -0.566631,1.94914 -0.440572,-0.16907 -0.440572,-0.16906 -0.474491,0.29325 -0.474491,0.29325 0.386486,0.46786 0.386487,0.46786 0.316651,1.23472 0.316651,1.23472 1.196278,0.39321 1.196278,0.3932 1.2529,-0.3283 1.2529,-0.3283 z m -10.476663,-9.85007 0.573544,-1.10451 1.1204,-0.94275 1.120399,-0.94276 0.463108,0.17772 0.463108,0.17771 0.810413,-0.95281 0.810413,-0.95281 1.017714,-0.79362 1.017714,-0.79361 h 1.216546 1.216545 l -0.146307,-0.44097 -0.146307,-0.44097 -1.382397,-0.2135 -1.382397,-0.2135 -0.560841,-0.24353 -0.560841,-0.24353 -0.452493,0.54522 -0.452494,0.54523 h -0.309582 -0.309582 l 0.0125,-0.61737 0.0125,-0.61736 0.469359,-0.84696 0.46936,-0.84695 0.362497,0.64774 0.362496,0.64775 1.596967,0.0928 1.596966,0.0928 1.466134,-1.59057 1.466134,-1.59057 0.532136,-1.27358 0.532135,-1.27357 0.01823,-3.02665 0.01823,-3.02665 -0.559261,-1.32291 -0.559262,-1.32292 h -0.653001 -0.653001 l -0.375456,-0.37546 -0.375457,-0.37545 -0.577043,0.57704 -0.577044,0.57705 v 0.99005 0.99005 l -0.508785,1.21769 -0.508785,1.2177 -0.461354,0.36524 -0.461354,0.36525 -1.530162,0.1946 -1.530163,0.1946 0.200523,-0.79895 0.200524,-0.79895 -0.913753,-0.41633 -0.913754,-0.41634 0.181894,-0.69556 0.181893,-0.69556 h -0.848917 -0.848918 v 0.51675 0.51676 l -0.718881,0.38473 -0.718881,0.38473 -0.69223,-0.2197 -0.69223,-0.21971 v -0.42349 -0.42351 l 0.865728,-1.27403 0.865729,-1.27403 -0.177835,-0.17784 -0.177834,-0.17783 -1.295351,0.29215 -1.295351,0.29215 -0.140277,-0.14028 -0.140278,-0.14028 0.680951,-1.16314 0.680952,-1.16315 2.800811,0.0451 2.800811,0.0451 2.293055,-0.002 2.293056,-0.002 2.000302,0.0568 2.000302,0.0568 0.520504,-0.74312 0.520504,-0.74313 0.193609,0.31327 0.19361,0.31327 2.400862,-0.0735 2.400862,-0.0735 0.264583,-0.0375 0.264584,-0.0375 v -0.88195 -0.88194 h 0.413194 0.413194 l 0.562926,0.50944 0.562925,0.50944 1.581519,-0.71156 1.581519,-0.71157 0.617361,0.3815 0.617362,0.3815 v -0.31802 -0.31802 l -0.529167,-0.20306 -0.529167,-0.20306 v -0.71663 -0.71663 h 0.352778 0.352778 v -0.50539 -0.5054 l 0.737807,-0.23417 0.737807,-0.23417 -0.168617,-0.58335 -0.168616,-0.58335 -0.221746,-0.5329 -0.221746,-0.53291 1.063666,-1.16456 1.063667,-1.16457 v -0.331 -0.33101 h 0.853355 0.853356 l 1.071222,0.6148 1.071222,0.6148 0.351229,0.70812 0.351228,0.70812 0.02694,-1.05834 0.02694,-1.05833 -0.02091,-2.29306 -0.02091,-2.29305 -0.605356,-1.15988 -0.605356,-1.15988 0.528385,-0.33572 0.528385,-0.33572 0.440972,0.16161 0.440973,0.16161 v -0.6688 -0.6688 l -1.297941,-1.06987 -1.29794,-1.06987 -1.083309,-0.23532 -1.08331,-0.23532 -1.741718,-0.83716 -1.741718,-0.83716 h -0.612465 -0.612465 l -1.032182,-0.86852 -1.032182,-0.86853 -1.728913,-0.40178 -1.728913,-0.40179 -4.588974,0.0268 -4.588973,0.0268 -1.65926,0.49936 -1.65926,0.49936 -1.865655,1.14689 -1.865655,1.14688 -1.524239,1.24771 -1.524239,1.24771 -0.731523,1.43638 -0.731523,1.43638 -0.794775,1.05833 -0.794776,1.05833 -0.575111,1.71653 -0.575112,1.71652 -0.221979,2.16403 -0.22198,2.16403 -1.620427,1.90659 -1.620427,1.90659 0.0852,2.19745 0.0852,2.19744 0.734026,3.65708 0.734026,3.65707 0.10563,3.88056 0.105631,3.88056 0.592,1.5553 0.592,1.5553 0.343463,0.64176 0.343463,0.64177 0.833132,0.83313 0.833132,0.83313 0.241246,1.55591 0.241246,1.55592 0.55156,1.76389 0.551561,1.76389 0.38329,0.48193 0.38329,0.48193 0.394927,-1.54026 0.394927,-1.54027 z m 21.296249,-12.34579 1.894077,-0.92669 0.214754,-0.34748 0.214753,-0.34747 -0.469325,-0.29006 -0.469325,-0.29006 -0.299163,0.18489 -0.299164,0.1849 -1.653852,0.23657 -1.653853,0.23657 -0.122135,0.6342 -0.122135,0.63419 0.195152,0.50856 0.195153,0.50856 h 0.240493 0.240493 z"
       id="path1" /></g></svg>
