<?xml version="1.0" encoding="UTF-8" standalone="no"?>
<!-- Created with Inkscape (http://www.inkscape.org/) -->

<svg
   width="101.6mm"
   height="84.666679mm"
   viewBox="0 0 101.6 84.666679"
   version="1.1"
   id="svg1"
   xml:space="preserve"
   xmlns="http://www.w3.org/2000/svg"
   xmlns:svg="http://www.w3.org/2000/svg"><defs
     id="defs1" /><g
     id="layer1"
     transform="translate(-26.248368,-122.21064)"><path
       style="fill:#ffffff;fill-opacity:1"
       d="m 26.248368,164.54397 v -42.33333 h 50.799999 50.800003 v 42.33333 42.33334 H 77.048367 26.248368 Z m 16.756944,40.07391 2.469444,-1.16815 0.79375,-0.25026 0.79375,-0.25027 v 0.38897 0.38896 l -0.569739,0.86953 -0.56974,0.86953 h -0.644163 -0.644162 l -0.218029,0.35278 -0.218029,0.35278 2.40207,-0.001 2.40207,-0.001 0.588201,-1.49798 0.588202,-1.49799 0.236682,-1.76388 0.236683,-1.76389 0.937589,-1.23473 0.93759,-1.23472 0.530582,-0.93877 0.530582,-0.93876 0.976082,-1.79526 0.976082,-1.79526 h 0.38856 0.38856 l -0.24541,2.94611 -0.24541,2.94612 0.581131,0.58113 0.581131,0.58113 0.789143,0.19807 0.789143,0.19806 1.479244,2.98265 1.479244,2.98265 v 0.52398 0.52399 h 7.368293 7.368293 l 0.175118,-1.14658 0.175117,-1.14653 -0.354662,-0.44097 -0.354662,-0.44097 H 75.180866 74.45809 l -0.677699,0.61331 -0.677698,0.61331 -1.036048,-1.15954 -1.036048,-1.15954 0.204146,-0.33032 0.204146,-0.33031 0.952656,0.0586 0.952655,0.0586 0.451999,0.34114 0.451999,0.34114 0.429945,-0.56433 0.429946,-0.56433 3.101803,-0.42552 3.101803,-0.42551 0.408336,0.40833 0.408336,0.40834 h 0.467599 0.4676 l 3.254206,-1.57262 3.254206,-1.57261 2.605393,-0.52125 2.605393,-0.52125 0.360523,-0.36053 0.360524,-0.36052 -0.450547,-6.33035 -0.450546,-6.33035 0.259873,-0.42049 0.259874,-0.42048 1.460617,1.43349 1.460618,1.43349 0.751408,-0.1965 0.751408,-0.1965 0.246574,0.39897 0.24657,0.39896 -0.392728,0.47321 -0.392732,0.47322 1.3325,0.81519 1.3325,0.8152 0.83408,0.46002 0.83407,0.46003 h 0.7125 0.7125 l 1.45204,0.41364 1.45204,0.41364 0.52916,0.38011 0.52917,0.38011 0.88194,0.5204 0.88195,0.5204 3.04928,0.19937 3.04927,0.19936 1.45687,1.04412 1.45686,1.04413 0.78553,0.40874 0.78552,0.40874 2.91202,0.88609 2.91201,0.88609 -0.007,-33.30941 -0.007,-33.30942 h -0.6795 -0.6795 l -0.19254,0.31155 -0.19255,0.31155 -2.03313,0.25198 -2.03314,0.25199 -1.41111,0.52848 -1.41111,0.52848 -2.82222,0.51483 -2.82223,0.51483 -0.50206,0.0985 -0.50207,0.0985 -1.35762,-0.24826 -1.35761,-0.24825 -0.21288,0.34446 -0.21289,0.34446 -0.2645,-0.42796 -0.26449,-0.42796 -1.29445,0.61426 -1.29445,0.61425 -0.47948,0.92722 -0.47948,0.92721 -0.24126,1.60884 -0.24126,1.60884 0.61164,1.38512 0.61165,1.38513 0.0696,2.05812 0.0696,2.05813 -0.82692,0.31439 -0.82692,0.3144 v 0.36151 0.36151 h 0.35757 0.35756 l 0.65404,-0.40846 0.65404,-0.40845 0.6542,0.25104 0.65421,0.25104 -0.46067,0.28471 -0.46066,0.28471 0.55874,0.21441 0.55875,0.21441 v 1.09022 1.09023 l -0.35278,-0.21803 -0.35278,-0.21803 v 0.95207 0.95207 l -0.61736,0.50866 -0.61736,0.50866 0.61736,-0.19412 0.61736,-0.19411 v 0.31587 0.31586 l -1.11253,0.55501 -1.11253,0.555 h -0.47497 -0.47497 v 0.1888 0.18881 l 0.5709,0.87129 0.5709,0.8713 -0.4006,0.48269 -0.40059,0.48269 0.21145,0.55102 0.21144,0.55102 -0.91091,0.79203 -0.91092,0.79203 v 0.34384 0.34384 l 0.68333,-0.61841 0.68332,-0.6184 0.29071,0.17967 0.2907,0.17966 0.52528,-0.40969 0.52527,-0.40969 v -1.41111 -1.41111 h 0.52917 0.52917 l 0.0442,1.05833 0.0442,1.05834 -0.21131,0.35278 -0.2113,0.35277 -0.009,0.52477 -0.009,0.52477 -1.05834,0.19542 -1.05833,0.19542 0.79375,0.43875 0.79375,0.43875 v 0.69315 0.69314 h -0.7433 -0.7433 l 0.19317,-0.50337 0.19316,-0.50338 -0.49275,-0.40894 -0.49274,-0.40894 -0.37398,0.23114 -0.37399,0.23113 0.18012,0.29144 0.18011,0.29143 -0.47769,0.18331 -0.4777,0.18331 -0.39415,1.56533 -0.39415,1.56532 -1.411624,0.93417 -1.411618,0.93416 h -0.724191 -0.724411 l -0.204784,0.53366 -0.204784,0.53366 0.435441,0.52467 0.43544,0.52468 h 0.596017 0.596017 l 0.789713,-1.06815 0.789714,-1.06814 0.36355,0.22469 0.36355,0.22468 -0.22836,0.90986 -0.22836,0.90987 -0.55968,0.40924 -0.559677,0.40925 0.251105,0.40629 0.251102,0.4063 h 0.86113 0.86113 v 0.35277 0.35278 h -0.35512 -0.35511 l -0.76684,0.88195 -0.766842,0.88194 h -0.28916 -0.289159 v -0.52917 -0.52916 h -0.340366 -0.340366 l -0.395394,0.7388 -0.395395,0.7388 -0.679968,-0.17781 -0.679968,-0.17782 -0.354288,0.66199 -0.354288,0.662 -0.694877,2.2166 -0.694876,2.2166 -0.0046,1.4213 -0.0046,1.4213 -2.121176,3.28003 -2.121176,3.28003 -2.37674,2.76554 -2.376741,2.76553 -0.264583,0.0297 -0.264584,0.0297 v -0.52917 -0.52917 h 0.537986 0.537986 l 0.214173,-1.07086 0.214172,-1.07086 0.610569,-0.32677 0.610569,-0.32676 0.443961,-1.07182 0.44396,-1.07181 h 0.309979 0.309978 v -0.39389 -0.39391 l -0.793749,0.18177 -0.79375,0.18177 -1.234723,0.47672 -1.234722,0.47672 -0.935288,0.97014 -0.935288,0.97014 H 82.562248 82.36208 l 0.203061,-0.52917 0.20306,-0.52917 -0.302327,0.0125 -0.302326,0.0125 -0.881945,0.50417 -0.881944,0.50416 -0.79375,0.0125 -0.79375,0.0125 v -0.31163 -0.31163 l -0.79375,-0.25464 -0.79375,-0.25463 -0.586109,0.054 -0.586108,0.054 -0.230413,-0.37281 -0.230412,-0.37282 0.222933,-0.7024 0.222932,-0.7024 h 0.681783 0.681783 v -0.64406 -0.64406 l 0.871071,-0.81833 0.871072,-0.81833 -0.16804,-0.27189 -0.16804,-0.2719 0.355651,-0.93543 0.355652,-0.93543 -0.214492,-1.34136 -0.214491,-1.34135 -1.069533,0.53355 -1.069534,0.53356 -1.259784,-0.31485 -1.259784,-0.31484 -0.206961,-0.88194 -0.206961,-0.88195 h -3.669526 -3.669526 l -0.795963,0.79375 -0.795963,0.79375 h -0.605521 -0.605619 l -0.565001,0.51132 -0.565002,0.51132 -0.509894,-0.31513 -0.509893,-0.31513 0.42441,-2.02339 0.42441,-2.02338 0.975485,-1.02652 0.975485,-1.02652 0.95262,-0.49767 0.95262,-0.49767 h 0.679879 0.679878 l 0.406642,-0.48998 0.406641,-0.48997 1.576832,-0.39705 1.576832,-0.39705 v -0.35249 -0.35248 l -0.440972,-0.70844 -0.440972,-0.70843 2.625874,-2.50513 2.625873,-2.50513 0.549127,0.33091 0.549126,0.3309 0.771138,1.56453 0.771139,1.56453 -0.06558,1.29167 -0.06558,1.29166 -0.297412,-0.0569 -0.297412,-0.057 -0.391853,0.5944 -0.391852,0.59439 0.512876,0.96883 0.512875,0.96882 1.014598,0.55345 1.014597,0.55345 1.046251,0.85235 1.046252,0.85235 -0.198557,0.99278 -0.198556,0.99279 0.708672,0.37927 0.708672,0.37927 0.642424,-0.2039 0.642424,-0.2039 0.445779,0.53713 0.44578,0.53713 h 0.485971 0.485971 v -0.59462 -0.59462 l -0.689318,-0.73375 -0.689318,-0.73374 0.297973,-0.48214 0.297974,-0.48213 0.238728,0.75217 0.238729,0.75217 h 0.545434 0.545434 l -0.155331,1.05833 -0.15533,1.05833 h 0.262281 0.262281 l 0.205787,-0.44097 0.205787,-0.44097 0.193304,0.40352 0.193303,0.40352 0.691061,-0.18071 0.691061,-0.18072 -0.07588,-0.9958 -0.07588,-0.9958 0.53944,-0.63812 0.53944,-0.63811 0.06358,-1.02266 0.06358,-1.02267 0.423064,-0.50976 0.423064,-0.50976 -1.389082,0.11968 -1.389082,0.11967 -0.133902,-0.70392 -0.133902,-0.70392 -0.619454,-0.88194 -0.619454,-0.88194 0.08592,-1.34792 0.08592,-1.34791 0.398336,-0.39834 0.398336,-0.39833 v -0.32877 -0.32876 l 1.317876,-1.24291 1.317876,-1.24292 -0.108401,-0.82721 -0.1084,-0.82721 h 0.554413 0.554413 v 0.52917 0.52916 h 0.331958 0.331958 l 0.202963,-0.3284 0.202964,-0.3284 -0.364287,-0.22514 -0.364287,-0.22514 0.202964,-0.32841 0.202963,-0.3284 h 0.852065 0.852065 l 0.607848,-1.14652 0.607849,-1.14653 0.01857,-0.45983 0.01857,-0.45983 0.864556,-0.65343 0.864556,-0.65343 -0.449322,-0.5414 -0.449323,-0.5414 0.07996,-0.6384 0.07996,-0.63839 -0.274188,-0.63258 -0.274188,-0.63257 0.185618,-0.18562 0.185617,-0.18562 0.720175,0.44976 0.720174,0.44975 0.690355,-0.62476 0.690355,-0.62476 0.227309,-1.21166 0.227309,-1.21167 h 0.80652 0.80653 l 0.37742,-1.64932 0.37741,-1.64932 -0.18561,-0.48371 -0.18562,-0.48371 -1.719866,-0.87152 -1.719866,-0.87152 v 0.54986 0.54986 l -0.656146,0.70429 -0.656146,0.70429 -0.640263,-0.98363 -0.640263,-0.98362 -0.538035,-0.39964 -0.538035,-0.39963 0.07937,-1.27606 0.07937,-1.27606 0.04485,-0.79375 0.04485,-0.79375 -0.259324,-1.5875 -0.259324,-1.5875 1.453114,1.49931 1.453114,1.4993 0.604619,-0.0107 0.604618,-0.0107 -0.602709,-0.35138 -0.602709,-0.35138 0.182033,-0.47437 0.182033,-0.47437 -1.109571,-2.07394 -1.109572,-2.07394 -1.635685,-1.67995 -1.635686,-1.67995 -1.772956,-0.67277 -1.772955,-0.67277 -3.092418,-1.45924 -3.092417,-1.45924 -2.375638,-0.50344 -2.375638,-0.50344 -2.822223,0.005 -2.822222,0.005 -2.645833,0.34252 -2.645833,0.34253 -2.208847,1.13197 -2.208848,1.13196 -2.131264,1.74543 -2.131264,1.74542 -0.526907,1.26711 -0.526906,1.26711 -0.873759,1.26542 -0.873759,1.26543 -0.374353,1.20402 -0.374352,1.20402 -0.639215,2.74119 -0.639216,2.74119 -1.280833,1.56308 -1.280833,1.56309 -0.171875,1.69295 -0.171875,1.69294 0.391609,1.94028 0.391609,1.94028 0.512976,2.44038 0.512975,2.44039 0.128546,3.64079 0.128546,3.64079 0.768407,2.30906 0.768407,2.30907 0.796854,0.95837 0.796854,0.95837 0.405189,0.77055 0.405189,0.77056 v 0.72132 0.72132 l 0.910211,2.71147 0.910211,2.71148 -0.557433,2.21915 -0.557433,2.21915 v 0.64263 0.64263 l -1.058333,1.15872 -1.058334,1.15873 v 0.26604 0.26605 l -1.370949,0.77051 -1.370949,0.77052 h -0.745717 -0.745718 v 0.34794 0.34795 l -2.508143,1.23955 -2.508143,1.23956 H 45.10887 44.644006 l -0.693737,0.88194 -0.693738,0.88195 h -0.898547 -0.898547 l -0.194771,0.31514 -0.194771,0.31515 0.840595,0.21098 0.840594,0.21097 0.223807,0.58323 0.223806,0.58323 -0.537672,0.59412 -0.537672,0.59412 v 0.95478 0.95477 l 0.705555,-0.3776 0.705556,-0.3776 v 1.08315 1.08316 L 42.8521,203.362 42.169737,202.99681 h -0.37597 -0.37597 v 0.48597 0.48597 l -0.49776,0.41311 -0.497759,0.4131 -0.222458,-0.35994 -0.222457,-0.35995 0.545065,-0.83187 0.545066,-0.83188 -0.236423,-0.23642 -0.236422,-0.23642 -0.558565,0.005 -0.558565,0.005 -0.506482,0.32049 -0.506482,0.32048 0.37766,0.46786 0.37766,0.46786 -0.303675,0.80157 -0.303675,0.80157 -0.537642,0.20631 -0.537642,0.20632 v 0.36012 0.36012 l 1.499306,-0.23795 1.499306,-0.23795 z m 39.687499,-44.34285 0.529167,-0.37088 -0.440972,-0.17893 -0.440972,-0.17893 v -0.47742 -0.47742 l -1.146528,-0.11054 -1.146528,-0.11055 0.08683,-1.12655 0.08683,-1.12655 -0.34412,-0.21268 -0.344121,-0.21268 -0.712846,0.38151 -0.712847,0.3815 v 0.852 0.852 l -0.467575,0.28212 -0.467576,0.28211 -0.226908,0.61736 -0.226908,0.61736 h -0.544691 -0.544687 l -0.90076,-2.02847 -0.900759,-2.02847 -0.197223,-0.97014 -0.197222,-0.97014 h 0.733053 0.733054 l 0.986738,-0.40274 0.986738,-0.40275 1.563696,-0.68766 1.563696,-0.68766 2.533923,-0.19164 2.533923,-0.19164 1.60791,0.61406 1.607911,0.61407 0.339915,-0.21008 0.339915,-0.21008 0.43254,0.52118 0.43254,0.52118 0.0484,2.53873 0.04841,2.53873 -1.641844,1.02299 -1.641844,1.023 -2.238712,0.13779 -2.238711,0.13779 z m -19.090692,-2.69842 -0.04069,-0.26458 -0.08196,-0.35278 -0.08196,-0.35278 -0.05373,-0.44097 -0.05373,-0.44097 h -0.590661 -0.590661 l 0.777023,-0.8271 0.777022,-0.82711 -0.24557,-0.63994 -0.245571,-0.63995 1.161639,0.23233 1.16164,0.23233 h 0.501055 0.501055 l -0.223759,1.19273 -0.223758,1.19274 0.783316,0.54865 0.783316,0.54866 -0.2581,0.63986 -0.258099,0.63986 -0.292722,-0.75766 -0.292722,-0.75765 -0.435888,-0.26939 -0.435888,-0.26939 -0.748613,0.93885 -0.748614,0.93885 h -0.251331 -0.251331 z m 29.424624,-3.70416 -1.121411,-0.79375 -0.725155,-1.35523 -0.725154,-1.35522 0.290531,-0.51915 0.290532,-0.51915 0.45767,0.55146 0.457669,0.55145 h 0.624616 0.624617 l 0.211641,-0.55152 0.21164,-0.55153 0.304847,0.18841 0.304848,0.1884 0.197755,1.86243 0.197755,1.86242 0.243188,0.61737 0.243188,0.61736 h -0.483683 -0.483683 z m 1.842028,-3.35139 0.218808,-0.79375 h -0.34852 -0.348521 l -0.23799,-1.08356 -0.237989,-1.08356 0.1835,-0.1835 0.1835,-0.1835 0.524625,0.29692 0.524624,0.29692 1.50089,1.39152 1.50089,1.39152 -0.408405,0.13613 -0.408406,0.13614 -0.557514,-0.55752 -0.557515,-0.55751 H 96.21791 96.035073 l -0.692555,0.79375 -0.692555,0.79375 z m -34.162899,54.70815 -0.07245,-0.94253 -0.435585,-0.1452 -0.435585,-0.14519 v 0.73495 0.73495 H 59.430298 59.09834 l -0.218028,-0.35277 -0.218029,-0.35278 h 0.373598 0.373597 v -0.35278 -0.35278 h -0.400519 -0.400518 l -0.835762,0.90181 -0.835761,0.9018 -0.326844,-0.202 -0.326843,-0.202 -0.221585,0.35853 -0.221585,0.35853 h 2.469128 2.469129 z m 30.910052,-0.71987 0.605377,-1.68898 -0.0017,-0.61736 -0.0017,-0.61736 h -0.469539 -0.469539 l -1.823516,1.91064 -1.823517,1.91064 6.8e-5,0.29422 6.9e-5,0.29422 1.689355,0.10148 1.689355,0.10147 z M 102.44837,157.804 v -0.22043 l -0.73116,-0.92952 -0.73116,-0.92952 h -0.81726 -0.817259 l -0.766224,0.62045 -0.766224,0.62045 0.214139,0.55804 0.214138,0.55803 2.1005,-0.0285 2.10051,-0.0285 z"
       id="path1" /></g></svg>
