<?xml version="1.0" encoding="UTF-8" standalone="no"?>
<!-- Created with Inkscape (http://www.inkscape.org/) -->

<svg
   width="101.60001mm"
   height="84.666664mm"
   viewBox="0 0 101.60001 84.666664"
   version="1.1"
   id="svg1"
   xml:space="preserve"
   sodipodi:docname="bank1.svg"
   xmlns:inkscape="http://www.inkscape.org/namespaces/inkscape"
   xmlns:sodipodi="http://sodipodi.sourceforge.net/DTD/sodipodi-0.dtd"
   xmlns="http://www.w3.org/2000/svg"
   xmlns:svg="http://www.w3.org/2000/svg"><sodipodi:namedview
     id="namedview1"
     pagecolor="#ffffff"
     bordercolor="#000000"
     borderopacity="0.25"
     inkscape:showpageshadow="2"
     inkscape:pageopacity="0.0"
     inkscape:pagecheckerboard="0"
     inkscape:deskcolor="#d1d1d1"
     inkscape:document-units="mm" /><defs
     id="defs1" /><g
     id="layer1"
     transform="matrix(1.3333333,0,0,1.3333333,-40.034166,-155.66666)"><path
       style="fill:#ffffff;fill-opacity:1"
       d="m 30.025625,148.5 v -31.75 h 38.099995 38.10001 v 31.75 31.75 H 68.12562 30.025625 Z m 44.556535,30.91457 -0.18928,-0.30626 0.63669,0.23247 0.63668,0.23246 15.01511,0.0771 15.0151,0.0771 v -31.2241 -31.22417 H 68.12562 30.554792 V 148.5 179.72084 H 52.66311 74.77144 Z m -1.26851,-0.41447 -0.059,-0.0593 -12.98707,-0.0211 -12.98706,-0.0211 0.12601,-0.48189 0.12602,-0.48189 h -0.73879 -0.73879 l -0.0985,-0.29555 -0.0985,-0.29554 -0.53975,0.28887 -0.53975,0.28886 0.20105,-0.3253 0.20105,-0.32531 -0.36756,0.12895 -0.36756,0.12895 0.0368,0.43454 0.0367,0.43455 h -0.38309 -0.38309 l 0.16352,0.26458 0.16352,0.26458 h -0.70538 -0.70538 l 0.1606,-0.41851 0.1606,-0.41852 0.008,-0.57367 0.008,-0.57367 0.38846,-0.51359 0.38846,-0.51359 0.33572,0.45913 0.33573,0.45913 2.24396,-0.0778 2.24396,-0.0778 -10e-4,-1.62076 -0.001,-1.62076 0.79499,-0.52046 0.79498,-0.52046 11.24479,-0.17094 11.2448,-0.17095 1.25677,-0.003 1.25677,-0.003 0.0473,-4.16719 0.0473,-4.16719 0.18223,4.10105 0.18223,4.10104 0.035,0.0818 0.035,0.0818 0.2598,-0.16057 0.2598,-0.16056 -0.005,-13.61339 -0.005,-13.61338 h -0.25477 -0.25467 l -0.05,1.65365 -0.05,1.65364 -0.0949,-1.50395 -0.095,-1.50396 -0.49687,0.0374 -0.49687,0.0374 -0.14533,1.46653 -0.14533,1.46653 -0.17046,9.39271 -0.17045,9.3927 -0.19822,1.7198 -0.19823,1.71979 -0.0371,-1.05834 -0.0371,-1.05833 -0.17175,-1.43049 -0.17175,-1.43048 0.25605,0.15825 0.25605,0.15824 -0.0828,-6.26838 -0.0828,-6.26839 -0.13875,-0.37134 -0.13876,-0.37134 -0.35133,0.48047 -0.35133,0.48048 -0.39299,-0.1508 -0.39298,-0.1508 -0.37288,0.23605 -0.37288,0.23605 0.52916,0.004 0.52917,0.004 0.0705,8.59883 0.0705,8.59883 h -0.66586 -0.66585 v -0.27311 -0.27311 l 0.59531,-0.23929 0.59531,-0.23928 -0.57367,-0.0168 -0.57367,-0.0168 -0.41852,0.1606 -0.41851,0.1606 v 0.50085 0.50086 l -0.46303,0.008 -0.46302,0.008 -4.82864,0.60032 -4.82865,0.60031 -0.0186,-3.58508 -0.0186,-3.58509 -0.22739,-0.52916 -0.22739,-0.52917 -0.0186,4.1828 -0.0186,4.1828 -0.26458,-0.16352 -0.26459,-0.16352 v -13.62604 -13.62604 l -0.26458,0.16352 -0.26458,0.16352 -0.0569,4.68074 -0.0569,4.68074 -0.14157,-4.63021 -0.14156,-4.63021 -0.31039,-0.0594 -0.3104,-0.0594 -0.14485,1.64687 -0.14484,1.64687 -0.14383,6.35 -0.14382,6.35 -0.16221,5.15937 -0.16221,5.15938 -0.0371,0.0487 -0.0371,0.0487 -3.15943,0.41434 -3.15942,0.41434 h -1.65634 -1.65633 l 0.17255,-0.44964 0.17254,-0.44964 0.10578,0.31735 0.10579,0.31735 h 0.24253 0.24254 l 0.0562,-3.10886 0.0562,-3.10885 0.0857,2.90677 0.0857,2.90678 0.22169,0.22168 0.22169,0.22169 0.12178,-3.26075 0.12179,-3.26075 0.0535,-10.25261 0.0535,-10.2526 h -0.25586 -0.25586 l -0.11466,0.59531 -0.11466,0.59531 -0.036,-0.59531 -0.036,-0.59531 h -0.21174 -0.21166 l -0.3175,0.3175 -0.3175,0.3175 v -0.4856 -0.4856 l -0.72761,-0.68124 -0.7276,-0.68124 0.7276,-0.26007 0.72761,-0.26007 v -0.3458 -0.3458 h 0.80936 0.80937 l -0.16352,0.26459 -0.16353,0.26458 -0.4474,0.0389 -0.44741,0.0389 1.5875,0.17561 1.5875,0.17561 0.4686,-0.11454 0.4686,-0.11453 -0.2818,-0.33955 -0.2818,-0.33954 2.36195,-0.0253 2.36195,-0.0253 0.13846,0.52947 0.13846,0.52947 1.01696,0.0307 1.01695,0.0307 -0.46302,0.121 -0.46302,0.121 v 0.23857 0.23856 l 0.8599,-0.16651 0.85989,-0.16651 0.18727,-0.31259 0.18727,-0.31259 1.46638,0.12161 1.46638,0.1216 -2.3e-4,-0.62808 -2.4e-4,-0.62807 5.95336,0.0758 5.95336,0.0758 v 0.54781 0.54781 l 0.41851,-0.16059 0.41852,-0.1606 h 2.75648 2.75649 v -0.49744 -0.49745 l 2.20682,-0.003 2.20682,-0.003 -0.11287,0.59049 -0.11288,0.59048 0.88262,-0.11821 0.88261,-0.11821 -0.47139,0.36171 -0.47139,0.36171 1.23324,-0.0981 1.23324,-0.0981 -0.36497,-0.23117 -0.36498,-0.23117 1.52136,-0.004 1.52135,-0.004 v -0.25154 -0.25143 l -0.46302,-0.26551 -0.46302,-0.2655 0.79375,0.0539 0.79375,0.0539 0.1872,0.26203 0.18721,0.26202 -0.41703,0.66402 -0.41704,0.66402 -0.41405,0.32926 -0.41405,0.32927 0.341,13.69365 0.341,13.69365 0.12006,0.19844 0.12005,0.19843 -1.0078,0.0245 -1.0078,0.0245 -1.15355,-0.0463 -1.15355,-0.0463 0.21215,0.35251 0.21215,0.3525 -0.44028,-0.35701 -0.44029,-0.357 -0.39165,0.39165 -0.39166,0.39165 0.15438,0.15438 0.15438,0.15438 -2.87896,-0.005 -2.87895,-0.005 -6.06337,0.0142 -6.06337,0.0142 0.14186,0.14186 0.14186,0.14185 9.16265,0.002 9.16266,0.002 v 0.23382 0.23382 l -0.34993,0.34963 -0.34993,0.34963 -14.13601,-0.0403 -14.13601,-0.0403 -0.52916,-0.0107 -0.52917,-0.0107 -1.76841,-0.0183 -1.7684,-0.0183 -0.16816,0.27208 -0.16816,0.27209 17.08401,-0.0705 17.08402,-0.0705 -6e-5,0.59531 -5e-5,0.59531 -16.86719,0.004 -16.86718,0.004 -0.35156,0.22287 -0.35155,0.22287 17.48332,-0.13241 17.48333,-0.13242 v 0.56695 0.56696 H 74.87212 63.36274 v 0.28182 0.28181 l 11.89696,-0.0834 11.89694,-0.0834 0.47233,-0.4977 0.47232,-0.4977 -0.59531,0.1422 -0.59532,0.1422 v -1.98804 -1.98791 l 0.41852,0.1606 0.41851,0.1606 h 2.75649 2.75648 v 2.64583 2.64583 l -0.7276,0.0232 -0.72761,0.0232 -5.42395,0.12015 -5.42396,0.12014 -3.79263,0.0551 -3.79263,0.0551 z m 16.92639,-1.5298 -0.61155,-0.65988 h -0.4483 -0.44829 l 0.17467,0.28262 0.17467,0.28262 0.38385,-0.1473 0.38385,-0.1473 -0.17704,0.28647 -0.17705,0.28647 -0.61719,-0.11798 -0.61719,-0.11799 -0.12408,0.32335 -0.12408,0.32334 1.41965,0.0327 1.41964,0.0327 z m -27.1415,0.13387 v -0.26458 l -5.88698,0.0186 -5.88698,0.0186 -0.52916,0.22739 -0.52917,0.22739 6.41615,0.0186 6.41614,0.0186 z m 29.63334,-1.47523 v -0.4169 l -0.6219,-0.55393 -0.6219,-0.55394 -1.09048,-0.32198 -1.09048,-0.32198 -0.27106,0.32661 -0.27107,0.32661 0.52824,0.47804 0.52823,0.47805 v -0.16128 -0.16127 l 0.64943,0.64943 0.64943,0.64944 h 0.80578 0.80578 z m -28.04584,-2.7581 0.66146,-0.21184 -4.63021,-0.0762 -4.63021,-0.0762 -1.34146,-0.0374 -1.34146,-0.0374 -0.31219,-0.19294 -0.31218,-0.19294 v 0.2802 0.2802 h -0.51355 -0.51355 l -0.16352,0.26458 -0.16352,0.26458 6.29946,-0.0264 6.29947,-0.0264 z m 19.9522,-1.62609 -0.18737,-0.30317 0.70092,0.17592 0.70092,0.17592 0.0363,-1.79098 0.0363,-1.79098 0.17829,-7.54062 0.1783,-7.54063 0.0499,9.32656 0.0499,9.32657 h 0.26458 0.26458 v -13.6195 -13.61949 l -0.63425,0.24114 -0.63425,0.24114 -0.12424,-0.12423 -0.12424,-0.12424 -0.15959,1.26561 -0.15959,1.26561 -0.16623,7.40833 -0.16623,7.40833 -0.0885,0.79375 -0.0885,0.79375 -0.0179,3.77032 -0.0179,3.77031 -1.12448,0.0199 -1.12448,0.0199 -2.24896,0.34219 -2.24896,0.34219 3.52135,0.0347 3.52134,0.0347 z m -35.35499,-8.55915 -0.11699,-8.59774 0.13898,0.13898 0.13897,0.13897 0.16766,5.08533 0.16766,5.08532 0.0186,-6.48229 0.0185,-6.48229 -0.21183,-0.66146 -0.21184,-0.66146 -0.0832,1.85208 -0.0833,1.85209 -0.15083,-4.7625 -0.15084,-4.7625 -0.0569,13.4276 -0.0569,13.42761 h 0.29461 0.2946 z m 0.77563,6.54721 -0.11022,-0.7276 v 1.45521 1.45521 l 0.11022,-0.72761 0.11023,-0.7276 z m 27.47029,-0.66145 -0.11048,-2.71198 -0.0362,-9.78959 -0.0362,-9.78958 -0.23635,-1.05833 -0.23634,-1.05834 0.12262,12.7 0.12261,12.7 10e-4,0.8599 0.001,0.8599 h 0.2591 0.2591 z m -17.15154,0.39687 -0.11022,-0.7276 v 1.45521 1.4552 l 0.11022,-0.7276 0.11023,-0.7276 z m -6.87162,1.38537 1.12309,-0.17464 0.16423,-0.26573 0.16423,-0.26574 0.10153,-5.46593 0.10152,-5.46593 0.1059,-2.41797 0.1059,-2.41796 -1.30119,-1.60811 -1.30118,-1.60811 0.0579,-0.75951 0.0579,-0.75952 -1.01642,-1.2404 -1.01641,-1.2404 -0.11611,0.1161 -0.11611,0.11611 0.28495,8.55572 0.28496,8.55571 0.16745,3.38037 0.16745,3.38037 0.42869,-0.11989 0.42868,-0.1199 z m 9.57791,-0.24327 0.31476,-0.37926 -0.0685,-8.41814 -0.0685,-8.41814 0.77836,-0.16713 0.77837,-0.16713 -0.97128,-0.0313 -0.97129,-0.0313 -0.0989,2.05052 -0.0989,2.05052 0.037,6.18705 0.037,6.18706 -0.48276,0.12624 -0.48277,0.12625 0.0523,0.63201 0.0523,0.63201 h 0.43906 0.43906 z m 24.7951,-6.69835 -0.16244,-7.0776 -0.006,-6.19566 -0.006,-6.19566 -0.14066,0.14066 -0.14066,0.14066 0.009,12.89409 0.009,12.89408 0.14741,0.23852 0.14741,0.23852 h 0.15272 0.15272 z m -5.39567,5.66326 0.12285,-0.83461 0.0524,-4.19311 0.0524,-4.19312 -0.27917,0.17254 -0.27916,0.17253 -0.46512,-0.27085 -0.46512,-0.27086 0.8599,-0.008 0.85989,-0.008 v -3.06885 -3.06884 l -0.81296,-0.75943 -0.81297,-0.75943 -0.97297,0.10207 -0.97297,0.10206 -0.19455,0.022 -0.19456,0.022 0.1347,3.77031 0.1347,3.77031 0.10885,3.57188 0.10885,3.57187 0.0172,1.50196 0.0172,1.50195 0.45282,0.0872 0.45281,0.0872 0.97607,-0.0931 0.97608,-0.0931 z m -17.51779,0.28987 0.49663,-0.59532 0.009,-0.3129 0.009,-0.3129 -0.52917,-0.16795 -0.52917,-0.16795 v -0.77592 -0.77592 h 0.52917 0.52917 v -0.52916 -0.52917 l -0.33073,-0.0313 -0.33073,-0.0313 -0.19844,0.0313 -0.19844,0.0313 v -0.90764 -0.90764 l 0.59532,-0.0845 0.59531,-0.0846 0.0892,-0.63056 0.0892,-0.63056 -0.68448,0.13085 -0.68448,0.13085 v -1.02165 -1.02164 h 0.66146 0.66146 v -0.66145 -0.66146 h -0.64389 -0.64388 l -0.11022,-0.72761 -0.11023,-0.7276 -0.0396,5.88698 -0.0396,5.88698 h -0.26458 -0.26458 v 0.39687 0.39688 h 0.42061 0.42061 z m 0.77881,-2.05052 v -0.52917 H 65.3475 64.95062 v 0.52917 0.52916 h 0.39688 0.39687 z m -15.71625,-0.42334 -0.1712,-0.44615 -0.13229,0.13229 -0.13229,0.13229 0.1712,0.44616 0.17121,0.44615 0.13229,-0.13229 0.13229,-0.13229 z m 11.67005,-2.55014 -0.11507,-0.5984 -0.005,1.05833 -0.005,1.05834 0.12041,-0.45994 0.12041,-0.45994 z m -1.49491,-1.87972 -0.27972,-0.27972 v 1.46403 1.46402 l 0.19844,0.20074 0.19844,0.20075 0.0813,-1.38505 0.0813,-1.38505 z m 5.54111,1.94278 V 164.375 H 65.3475 64.95062 v 0.52917 0.52917 h 0.39688 0.39687 z m 22.6869,-7.19651 -0.0875,-2.46078 -5.1e-4,4.7625 -5e-4,4.7625 0.088,-2.30172 0.088,-2.30173 z m -26.72486,2.37673 -0.0975,-1.39793 -0.001,2.64583 -10e-4,2.64584 0.0987,-1.2479 0.0987,-1.24791 z m -2.15454,0.12969 -0.0854,-0.99845 -0.036,-7.22551 -0.036,-7.22551 -0.28596,0.17673 -0.28596,0.17673 0.13563,8.50399 0.13563,8.50398 0.0348,0.1323 0.0348,0.13229 0.23697,-0.58905 0.23697,-0.58905 z m 6.1925,1.51509 V 161.2 H 65.3475 64.95062 v 0.52917 0.52917 h 0.39688 0.39687 z m 12.36636,-4.16719 -0.0955,-1.52135 v 3.04271 3.0427 l 0.0955,-1.52135 0.0955,-1.52135 z m -17.93376,-3.2376 -0.0279,-5.28812 -0.23712,-0.14655 -0.23712,-0.14655 0.0923,2.45811 0.0923,2.45811 0.032,2.97656 0.032,2.97656 h 0.14067 0.14067 z m 18.45076,4.03639 -0.12197,-0.46806 -0.01,0.79375 -0.01,0.79375 0.13177,-0.32569 0.13178,-0.3257 z m -12.66914,0.25954 -0.0892,-0.46302 h -0.38963 -0.38963 l -0.0892,0.46302 -0.0892,0.46303 h 0.56797 0.56797 z m -4.26042,-1.45212 -0.11507,-0.5984 -0.005,1.05834 -0.005,1.05833 0.12041,-0.45994 0.12041,-0.45993 z m 4.0462,-0.23237 v -0.82459 l -0.65222,0.12468 -0.65223,0.12468 -0.12064,-0.29227 -0.12063,-0.29228 -0.0209,0.99219 -0.0209,0.99219 h 0.79375 0.79375 z m -15.42706,-0.42714 -0.12197,-0.46805 -0.01,0.79375 -0.01,0.79375 0.13178,-0.3257 0.13177,-0.32569 z m 15.69165,-0.99722 v -0.39687 h -0.52917 -0.52917 v 0.39687 0.39688 h 0.52917 0.52917 z m 12.08863,-1.91823 -0.121,-0.46302 v 0.92604 0.92604 l 0.121,-0.46302 0.121,-0.46302 z m 0.26459,-2.64583 -0.121,-0.46302 v 0.92604 0.92604 l 0.121,-0.46302 0.121,-0.46302 z m -28.82863,-3.84444 -0.10089,-1.1165 0.001,2.38125 0.002,2.38125 0.0994,-1.26475 0.0994,-1.26476 z m 28.31156,-0.91806 -0.0991,-1.25677 v 2.51354 2.51354 l 0.0991,-1.25677 0.0991,-1.25677 z m 0.52141,0.13229 -0.11466,-0.59531 v 1.19062 1.19063 l 0.11466,-0.59532 0.11466,-0.59531 z m -2.61653,-2.89265 0.8423,-0.0642 v -0.2083 -0.20831 l -0.85989,0.008 -0.8599,0.008 -0.45891,0.34848 -0.4589,0.34847 0.16998,0.16998 0.16998,0.16998 0.30651,-0.25438 0.30652,-0.25439 z m -28.12957,-0.2162 0.16352,-0.26459 -0.34635,0.004 -0.34634,0.004 -0.39687,0.25648 -0.39688,0.25648 0.5797,0.004 0.5797,0.004 z m -4.63021,31.75 v -0.26459 l 0.19844,0.004 0.19843,0.004 0.39688,0.25648 0.39687,0.25648 -0.59531,0.004 -0.59531,0.004 z m 0,-0.9481 v -0.41892 l 0.31419,0.10473 0.31419,0.10473 0.10473,0.3142 0.10474,0.31419 h -0.41893 -0.41892 z m 14.74516,-2.82222 -0.13156,-0.85989 0.22578,-0.39688 0.22578,-0.39687 0.008,1.25677 0.008,1.25677 H 57.9692 57.86693 Z m -11.83474,-0.34634 v -0.41249 l 0.26458,0.16352 0.26458,0.16352 v 0.24897 0.24897 h -0.26458 -0.26458 z m 11.95782,-5.54064 0.01,-0.79375 0.12197,0.46806 0.12197,0.46806 -0.13177,0.32569 -0.13177,0.32569 z m 17.72709,-5.55625 0.01,-0.79375 0.12197,0.46806 0.12197,0.46806 -0.13177,0.32569 -0.13178,0.32569 z m -17.68622,-1.98437 v -2.24896 l 0.10128,1.12448 0.10128,1.12448 -0.10128,1.12448 -0.10128,1.12448 z m -10.07989,-2.51354 0.005,-1.05834 0.11507,0.5984 0.11506,0.5984 -0.1204,0.45993 -0.12041,0.45994 z m 27.86795,-1.5975 -0.16852,-0.67146 0.22796,-0.40734 0.22795,-0.40734 0.0423,1.0788 0.0423,1.0788 h -0.1017 -0.1017 z m -0.19853,-13.78142 -0.6679,-0.6679 -1.12548,-0.15096 -1.12549,-0.15096 -0.22267,0.36029 -0.22267,0.36029 -1.13961,-0.08 -1.13961,-0.08 -0.0882,-0.24186 -0.0882,-0.24186 h -1.56546 -1.56545 v 0.26458 0.26459 h -1.4469 -1.44691 l 0.12732,-0.33073 0.12731,-0.33073 -1.50459,0.0933 -1.50459,0.0933 -0.33835,0.33835 -0.33836,0.33836 -1.0708,0.0148 -1.07079,0.0148 v -0.38029 -0.38029 H 56.506 54.94054 l -0.10606,0.31819 -0.10606,0.31818 -1.24735,0.0783 -1.24736,0.0783 -0.15215,-0.39649 -0.15214,-0.39649 h -1.56751 -1.5675 l -0.15229,0.39687 -0.1523,0.39688 h -1.1094 -1.1094 l -0.3175,-0.3175 -0.3175,-0.3175 v -0.22888 -0.22889 l 7.07761,0.002 7.0776,0.002 10.45104,-0.11219 10.45105,-0.1122 4.82864,-0.0915 4.82865,-0.0915 v 0.20634 0.20633 l -0.30706,0.67391 -0.30705,0.67391 H 89.53 89.3235 l -0.16352,-0.26459 -0.16352,-0.26458 h -0.91974 -0.91973 l -0.60884,-0.39892 -0.60883,-0.39893 -0.83706,0.16742 -0.83707,0.16741 v 0.23151 0.23151 h -1.48352 -1.48351 l 0.12762,-0.33073 0.12763,-0.33073 -1.68682,0.0887 -1.68682,0.0887 v 0.24201 0.24201 h -0.79375 -0.79375 v 0.38126 0.38126 l -0.21777,0.13458 -0.21776,0.13459 z m -28.75213,-2.43636 -0.0423,-0.88195 -0.33073,0.11136 -0.33073,0.11136 -1.13745,-1.21379 -1.13745,-1.21379 -0.3907,-0.7276 -0.3907,-0.7276 2.98336,-9.6e-4 2.98336,-9.6e-4 21.56354,-0.14738 21.56354,-0.14738 0.46302,-0.0915 0.46302,-0.0915 v 0.33384 0.33384 l -1.5651,1.70803 -1.56509,1.70803 -0.11505,0.77763 -0.11505,0.77763 -0.0396,-0.8599 -0.0396,-0.85989 h -0.26459 -0.26458 l -0.0348,0.85989 -0.0348,0.8599 -0.18448,-0.92604 -0.18449,-0.92604 -0.16207,0.39687 -0.16207,0.39688 -0.11709,0.52916 -0.11709,0.52917 -0.0307,-0.74965 -0.0307,-0.74966 -0.33073,0.11279 -0.33073,0.11279 0.0828,0.57072 0.0828,0.57072 h -1.73644 -1.73642 l -0.19844,-0.0661 -0.19844,-0.0661 0.0753,-0.22584 0.0753,-0.22584 -0.17887,-0.56356 -0.17887,-0.56357 -0.22765,0.6154 -0.22765,0.6154 0.14842,0.24015 0.14842,0.24015 h -0.31023 -0.31023 l 0.11308,-0.77045 0.11308,-0.77045 -0.61264,0.0653 -0.61264,0.0653 -0.17596,0.17597 -0.17597,0.17596 h -0.68601 -0.68601 l -0.33047,0.52917 -0.33047,0.52917 h -0.79151 -0.7915 v -0.79375 -0.79375 H 77.38628 77.1217 l -0.0307,0.85989 -0.0307,0.8599 -0.11709,-0.52917 -0.11709,-0.52917 -0.16207,-0.39687 -0.16207,-0.39688 -0.18449,0.92605 -0.18448,0.92604 -0.0348,-0.85159 -0.0348,-0.8516 -0.39687,0.1523 -0.39688,0.15229 v 0.63315 0.63316 H 74.667 74.06434 l -0.45308,-0.52917 -0.45309,-0.52916 h -0.45238 -0.45238 l 0.3175,0.3175 0.3175,0.3175 v 0.1808 0.18081 l -0.50993,0.13335 -0.50993,0.13335 -0.25648,-0.96239 -0.25647,-0.96238 -0.0512,1.05833 -0.0512,1.05833 -0.28876,-0.92604 -0.28875,-0.92604 -0.18172,0.92604 -0.18172,0.92604 -0.0662,-0.66145 -0.0662,-0.66146 0.0228,-0.17291 0.0228,-0.17291 -1.11597,0.0536 -1.11597,0.0536 -0.25161,0.56014 -0.25161,0.56014 -0.74058,0.10869 -0.74058,0.1087 v -0.74793 -0.74792 h -0.26472 -0.26459 l -0.004,0.85989 -0.004,0.8599 -0.23605,-0.37288 -0.23605,-0.37289 0.12585,-0.32796 0.12585,-0.32796 -0.28262,-0.17466 -0.28262,-0.17467 -0.0264,0.74322 -0.0264,0.74321 -0.18279,-0.65637 -0.1828,-0.65637 -1.11375,0.0305 -1.11375,0.0305 -0.77617,0.0305 -0.77618,0.0305 -0.11022,0.72761 -0.11023,0.7276 -0.0396,-1.0451 -0.0396,-1.04511 -0.24422,0.25136 -0.24423,0.25135 -0.113,0.79375 -0.11301,0.79375 -0.0396,-0.85989 -0.0396,-0.8599 h -0.24782 -0.24782 l -0.10671,0.8599 -0.10671,0.85989 -0.0423,-0.85989 -0.0423,-0.8599 H 58.3893 58.17763 l -0.31032,0.31032 -0.31032,0.31033 -0.60249,-0.25955 -0.60249,-0.25954 -0.78195,0.14821 -0.78196,0.14821 -0.18386,0.66091 -0.18386,0.6609 -0.0264,-1.0451 -0.0264,-1.04511 -0.24422,0.25136 -0.24423,0.25135 -0.11301,0.79375 -0.113,0.79375 -0.0396,-0.85989 -0.0396,-0.8599 H 53.3261 53.07828 l -0.10672,0.8599 -0.10671,0.85989 -0.0423,-1.02458 -0.0423,-1.02459 -0.39753,0.32992 -0.39753,0.32993 -0.76219,-0.15244 -0.76219,-0.15244 -0.93955,0.25942 -0.93954,0.25942 -0.11366,0.58768 -0.11366,0.58768 -0.036,-0.91281 -0.036,-0.91281 -0.24218,0.25135 -0.24218,0.25135 -0.11866,0.66146 -0.11867,0.66146 -0.036,-0.85989 -0.036,-0.8599 h -0.24782 -0.24782 l -0.10671,0.8599 -0.10671,0.85989 z m 7.36599,-4.176 v -0.10143 l -1.12448,0.0264 -1.12448,0.0264 0.66146,0.19003 0.66146,0.19003 0.46302,-0.11497 0.46302,-0.11497 z m -11.98041,-2.19094 -0.459017,-0.77705 1.258777,-0.40616 1.25877,-0.40617 5.25477,-1.48493 5.25477,-1.48493 0.38137,0.14634 0.38137,0.14635 -0.14033,-0.22706 -0.14033,-0.22706 2.52667,-0.71703 2.52667,-0.71703 0.39179,0.15034 0.39178,0.15034 -0.13791,-0.22314 -0.1379,-0.22313 1.99466,-0.57957 1.99466,-0.57957 0.5769,0.16161 0.5769,0.16161 -0.34016,-0.23721 -0.34016,-0.23722 1.03231,-0.30928 1.03232,-0.30929 h 0.59802 0.59803 l 6.77961,1.86675 6.77961,1.86676 4.63021,1.28765 4.63021,1.28765 1.64699,0.45047 1.647,0.45047 -0.60412,0.77193 -0.60413,0.77192 -3.82099,0.003 -3.821,0.002 -18.12396,-0.0322 -18.12396,-0.0322 0.52917,-0.21302 0.52916,-0.21301 -0.63568,-0.0991 -0.63568,-0.0991 6.32422,-1.81947 6.32423,-1.81946 2.64583,-0.80587 2.64583,-0.80587 0.79375,-10e-4 0.79375,-0.001 2.77813,0.82386 2.77813,0.82387 6.08541,1.62137 6.08542,1.62137 0.60776,0.24746 0.60776,0.24746 1.77349,-0.0416 1.77349,-0.0416 -1.71979,-0.16348 -1.7198,-0.16349 -0.8066,-0.43558 -0.8066,-0.43557 -1.57465,-0.52519 -1.57465,-0.52519 -1.4552,-0.43038 -1.45521,-0.43039 -0.92604,-0.14678 -0.92604,-0.14677 -0.79375,-0.3453 -0.79375,-0.3453 -0.46303,-0.15231 -0.46302,-0.15232 v 0.27786 0.27786 l -0.89112,-0.55074 -0.89113,-0.55075 h -0.18282 -0.18282 l 0.14827,0.23991 0.14827,0.23991 -0.55192,-0.14433 -0.55193,-0.14434 -0.13062,-0.3404 -0.13063,-0.34041 -1.10375,-0.18374 -1.10375,-0.18374 -0.94887,-0.37657 -0.94887,-0.37658 -2.35843,0.6972 -2.35842,0.6972 -2.38125,0.66706 -2.38125,0.66707 -2.85961,0.89609 -2.85961,0.89609 h -0.46091 -0.46091 l -0.29202,0.29202 -0.29202,0.29201 -1.67913,0.34917 -1.67912,0.34916 -1.79072,0.50056 -1.79072,0.50057 0.18117,0.18117 0.18117,0.18117 h -0.9485 -0.9485 l -0.35838,0.13752 -0.35838,0.13753 z m 10.32676,0.055 -0.46302,-0.121 -0.46302,0.121 -0.46302,0.121 h 0.92604 0.92604 z m 27.44355,-0.0875 -1.32989,-0.18711 -4.47762,-0.0476 -4.47762,-0.0476 -0.3205,-0.26599 -0.3205,-0.26599 -0.15172,0.24549 -0.15172,0.24549 -0.47701,0.12475 -0.47702,0.12474 -0.65159,-0.25217 -0.65159,-0.25216 -1.91833,-0.0391 -1.91833,-0.0391 1e-4,0.23083 10e-5,0.23084 -0.35132,-0.29158 -0.35133,-0.29157 -0.90544,0.29498 -0.90545,0.29498 -3.57187,0.18548 -3.57188,0.18547 14.15521,0.002 14.15521,0.002 z m -12.07454,-1.21436 1.14766,-0.17033 -0.41019,-0.41019 -0.41019,-0.4102 -1.26663,0.31341 -1.26664,0.31341 -0.99969,0.0937 -0.9997,0.0937 -0.13409,0.13409 -0.13408,0.13408 1.66295,0.0393 1.66295,0.0393 z"
       id="path3" /></g></svg>
