<?xml version="1.0" encoding="UTF-8" standalone="no"?>
<!-- Created with Inkscape (http://www.inkscape.org/) -->

<svg
   width="101.60001mm"
   height="84.666664mm"
   viewBox="0 0 101.60001 84.666664"
   version="1.1"
   id="svg1"
   xml:space="preserve"
   xmlns="http://www.w3.org/2000/svg"
   xmlns:svg="http://www.w3.org/2000/svg"><defs
     id="defs1" /><g
     id="layer1"
     transform="matrix(1.3333333,0,0,1.3333333,-152.92774,-155.66666)"><path
       style="fill:#ffffff;fill-opacity:1"
       d="m 114.69581,148.5 v -31.75 h 38.1 38.1 v 31.75 31.75 h -38.1 -38.1 z m 26.06676,30.94766 0.15822,-0.256 -0.41249,-0.0331 -0.41249,-0.0331 -0.33073,-0.0419 -0.33073,-0.0419 -0.17003,0.24308 -0.17002,0.24308 -0.75602,-0.25523 -0.75601,-0.25523 -1.85209,0.0614 -1.85208,0.0614 -0.26458,0.0571 -0.26459,0.0571 -2.97656,-0.0313 -2.97656,-0.0313 v -2.88454 -2.88453 l 0.77126,-0.26886 0.77125,-0.26886 0.16203,0.16202 0.16203,0.16203 1.6464,0.0592 1.6464,0.0592 0.99219,-0.25305 0.99219,-0.25305 v -0.19516 -0.19516 l -2.24896,0.0455 -2.24896,0.0455 v -0.19293 -0.19292 l 0.19844,-0.19685 0.19844,-0.19684 0.28653,-7.32173 0.28654,-7.32174 0.0442,2.85989 0.0442,2.85989 0.2689,-0.16619 0.2689,-0.16619 -0.15222,-0.2463 -0.15222,-0.2463 0.20275,-0.32807 0.20276,-0.32806 0.18336,0.65879 0.18336,0.65879 v -3.43959 -3.43958 l -0.21184,0.66146 -0.21183,0.66146 -0.0264,-0.47864 -0.0264,-0.47864 -0.28306,0.17495 -0.28307,0.17494 0.0645,-5.98383 0.0645,-5.98382 -0.66866,-0.72394 -0.66866,-0.72394 -0.1466,-0.42087 -0.1466,-0.42087 0.17396,-0.25437 0.17396,-0.25438 0.9544,-0.44372 0.9544,-0.44371 2.04696,0.39164 2.04695,0.39165 0.22151,-0.1369 0.22151,-0.13689 0.15543,0.25149 0.15543,0.25149 1.82127,-0.0487 1.82128,-0.0487 -0.10799,-0.17584 -0.10799,-0.17584 0.29525,-0.0984 0.29524,-0.0984 -0.43194,-0.35848 -0.43195,-0.35848 0.18321,0.50044 0.18322,0.50045 -0.57403,-0.50403 -0.57404,-0.50403 -0.004,-0.42201 -0.004,-0.42201 -0.20107,0.31627 -0.20107,0.31628 -0.9855,-0.22227 -0.98551,-0.22227 v 0.23018 0.23017 l -0.67868,-0.25804 -0.67868,-0.25803 h -1.22632 -1.22632 l 0.25136,0.24218 0.25135,0.24218 0.66146,0.11719 0.66146,0.1172 -1.22689,-0.0187 -1.22688,-0.0187 0.14703,-0.38316 0.14704,-0.38316 -0.61657,0.16123 -0.61657,0.16124 -0.48639,-0.26031 -0.4864,-0.26031 v -0.51986 -0.51985 h 0.49248 0.49248 l -0.13178,-0.68936 -0.13178,-0.68936 -1.19162,-1.09658 -1.19162,-1.09658 -0.62429,-0.98693 -0.62428,-0.98693 v -0.13755 -0.13755 l 2.71198,-0.008 2.71198,-0.008 -0.40021,-0.23453 -0.4002,-0.23453 -0.85657,0.0593 -0.85657,0.0593 v -0.16389 -0.1639 l -1.55099,0.0478 -1.55099,0.0478 -0.43338,-0.73365 -0.43338,-0.73366 v -0.2578 -0.25781 l 0.7276,-0.28207 0.7276,-0.28208 2.11667,-0.56811 2.11667,-0.56811 6.08541,-1.71516 6.08542,-1.71515 3.96875,-1.21102 3.96875,-1.21102 0.39687,0.0341 0.39688,0.0341 4.23333,1.18892 4.23334,1.18891 8.92968,2.45414 8.92969,2.45414 v 0.21701 0.21701 l -0.62672,0.84224 -0.62672,0.84224 -0.16003,0.66146 -0.16004,0.66146 -1.45802,1.5875 -1.45802,1.5875 -0.004,0.67469 -0.004,0.67468 0.2891,0.2891 0.28909,0.28909 -0.28909,0.54018 -0.2891,0.54018 v 1.10403 1.10404 l 0.39688,-0.1523 0.39687,-0.15229 v 0.7067 0.70671 l -0.80467,0.83021 -0.80468,0.83022 0.27905,10.69175 0.27905,10.69176 0.1543,2.91042 0.15429,2.91041 1.18143,0.72761 1.18144,0.7276 h 0.38052 0.38052 v 2.56521 2.56521 l 0.71096,0.74208 0.71096,0.74208 h 5.50675 5.50675 V 148.5 117.27916 h -37.57083 -37.57083 v 31.22149 31.22148 l 12.68969,-0.009 12.68969,-0.009 z m 30.47997,-0.16103 0.58736,-0.23305 -3.76236,-0.0589 -3.76236,-0.0589 0.43251,0.33327 0.4325,0.33328 2.7425,-0.0413 2.74249,-0.0413 z m -12.29517,-7.41394 -0.33073,-0.13346 v -0.50712 -0.50711 h -1.60001 -1.60001 l -4.55155,0.54212 -4.55155,0.54213 -0.26459,0.0984 -0.26458,0.0985 h 6.74687 6.74688 z m -17.38111,-1.04887 -0.17442,-0.69492 0.41032,0.15745 0.41031,0.15746 v -2.25627 -2.25627 l -0.26458,0.16352 -0.26458,0.16352 v -0.25815 -0.25815 l 0.24158,-0.0882 0.24159,-0.0882 0.1493,-2.27699 0.1493,-2.277 -0.17253,-0.17253 -0.17253,-0.17253 -0.48696,0.72973 -0.48696,0.72974 0.0401,4.69635 0.0401,4.69636 h 0.25721 0.25721 z m 28.46229,-0.31288 0.0348,-0.71198 0.19493,0.92604 0.19492,0.92604 0.0348,-1.37345 0.0348,-1.37345 -0.26458,-0.16352 -0.26459,-0.16352 V 168.06355 167.55 h -0.26458 -0.26458 v 1.99999 1.99999 l 0.26458,-0.16352 0.26458,-0.16353 z m -8.94542,-4.74688 -0.13994,-3.63802 -0.10494,-0.11024 -0.10494,-0.11025 v 3.74827 3.74826 h 0.24488 0.24488 z m 9.23343,-1.89557 -0.22914,-0.15495 -0.24158,-0.52917 -0.24157,-0.52916 -0.084,1.71162 -0.084,1.71163 0.17673,0.66962 0.17674,0.66963 0.21567,-0.52917 0.21567,-0.52917 0.0725,1.05834 0.0725,1.05833 0.0898,-2.2263 0.0898,-2.22629 z m -10.68925,1.76328 0.0477,1.65364 h 0.26459 0.26458 l -0.004,-3.50573 -0.004,-3.50572 -0.2297,0.3626 -0.22971,0.36261 -0.12191,-1.15636 -0.12192,-1.15635 0.13673,-0.24703 0.13673,-0.24702 0.20034,0.51161 0.20035,0.5116 -0.0127,-1.32291 -0.0127,-1.32292 -0.20197,0.79375 -0.20198,0.79375 -0.0353,-1.32292 -0.0354,-1.32291 -0.25648,-0.39688 -0.25648,-0.39687 -0.0113,3.175 -0.0113,3.175 -0.15361,2.45194 -0.15361,2.45195 0.22137,0.98764 0.22137,0.98763 0.15643,-1.98437 0.15643,-1.98438 z m -23.13922,0.27273 -0.13323,-0.21556 0.87962,0.41946 0.87961,0.41945 0.72628,-0.27613 0.72627,-0.27612 v -0.3856 -0.38559 l -0.46302,-0.14288 -0.46302,-0.14287 -0.79375,0.093 -0.79375,0.093 -0.46145,-0.24104 -0.46145,-0.24104 0.0422,1.07769 0.0422,1.07769 0.20332,-0.32899 0.20333,-0.32898 z m 21.53238,-7.79898 -0.0852,-2.85865 -4e-4,5.55625 -3.9e-4,5.55625 0.0856,-2.6976 0.0856,-2.69759 z m -14.76826,3.01272 -0.0186,-2.43178 -0.2274,0.52916 -0.22739,0.52917 -0.0186,2.06614 -0.0186,2.06613 0.26458,-0.16352 0.26459,-0.16352 z m 27.02023,-0.95018 -0.27872,-0.52077 -0.0331,-0.87729 -0.0331,-0.87729 -0.19466,1.19062 -0.19465,1.19063 0.13032,0.99218 0.13031,0.99219 h 0.22975 0.22975 l 0.0477,0.46302 0.0477,0.46302 0.0987,-1.24776 0.0987,-1.24777 z m -27.84559,-3.58961 0.11219,-2.93101 -0.11545,-0.5232 -0.11546,-0.5232 -0.42313,0.97287 -0.42313,0.97288 -0.0457,2.599 -0.0457,2.599 0.0241,0.52189 0.0241,0.52189 0.44797,-0.63956 0.44797,-0.63956 z m -2.59563,3.16634 v -0.39688 h -1.57188 -1.57189 l -0.16352,-0.26458 -0.16352,-0.26458 h -0.24897 -0.24897 v 0.66146 0.66145 h 1.98438 1.98437 z m 30.87377,-8.59896 -0.011,-4.10104 -0.16854,2.24896 -0.16854,2.24896 -0.0493,-2.62379 -0.0493,-2.62378 -0.12596,0.12595 -0.12595,0.12595 -0.16617,4.61625 -0.16617,4.61625 0.34426,1.18888 0.34426,1.18887 0.17672,-1.45521 0.17671,-1.45521 z m -32.87787,5.95677 1.56778,-0.37437 0.21816,0.13483 0.21816,0.13483 v -0.41249 -0.41249 h -0.98806 -0.98805 l 0.90781,-0.48686 0.90781,-0.48687 0.0914,-0.27428 0.0914,-0.27429 -0.40806,-0.15658 -0.40806,-0.15659 v 0.25628 0.25628 h -0.39687 -0.39688 v -0.26459 -0.26458 h -1.35122 -1.35122 l 0.1606,0.41852 0.16059,0.41851 v 0.40418 0.40419 l 0.92605,-0.10811 0.92604,-0.10812 v 0.19947 0.19947 l -0.92604,0.17372 -0.92605,0.17373 v 0.49972 0.49972 l 0.19844,-0.009 0.19844,-0.009 z m 22.14376,-5.4276 0.14857,0.92604 0.0423,-2.72937 0.0423,-2.72938 -0.29536,-0.55189 -0.29537,-0.55189 0.42766,0.16411 0.42765,0.1641 -0.004,-0.7193 -0.004,-0.7193 -0.25648,0.39688 -0.25648,0.39687 -0.004,-0.33073 -0.004,-0.33073 h -0.23075 -0.23074 l -0.12803,4.56407 -0.12804,4.56406 0.16034,0.26458 0.16034,0.26459 0.13981,-1.98438 0.13982,-1.98437 z m -27.54799,1.19062 v -0.63023 l -0.26458,-0.16352 -0.26459,-0.16352 0.004,-0.44741 0.004,-0.4474 0.25648,0.39687 0.25648,0.39688 0.004,-0.54256 0.004,-0.54257 -0.33073,-0.71214 -0.33073,-0.71214 -0.19843,-0.002 -0.19844,-0.002 v 1.41572 1.41573 l 0.29035,0.83292 0.29036,0.83291 0.23881,-0.14759 0.23881,-0.14759 z m 10.04723,-4.65226 0.007,-3.06475 h -0.39688 -0.39687 l -0.002,2.271 -0.002,2.27101 -0.13299,1.85209 -0.13299,1.85208 0.52481,-1.05833 0.5248,-1.05834 z m -0.13132,-6.84746 0.15756,-0.25494 -0.53882,-0.53881 -0.53882,-0.53882 v 0.26458 0.26459 h -0.22789 -0.22789 l 0.1154,-0.60367 0.1154,-0.60368 -0.81355,-0.062 -0.81355,-0.062 v 0.54899 0.54898 l 0.26125,-0.16145 0.26124,-0.16146 0.41918,0.34428 0.41918,0.34428 0.44405,0.44097 0.44406,0.44097 0.18282,0.022 0.18282,0.0221 z m 16.0794,0.0682 -0.59531,-0.11466 v -0.31998 -0.31997 l -2.4474,0.0396 -2.44739,0.0396 -1.91823,0.20109 -1.91823,0.2011 v -0.24436 -0.24435 l 1.19063,-0.31844 1.19062,-0.31845 -0.004,-0.46403 -0.004,-0.46404 -0.22138,0.34914 -0.22138,0.34915 -2.75113,-0.0232 -2.75113,-0.0232 -0.87409,0.16914 -0.87409,0.16915 0.0803,0.5632 0.0803,0.5632 1.81744,-0.0919 1.81744,-0.0919 -0.17941,0.2903 -0.17941,0.2903 5.90259,-0.036 5.9026,-0.036 z"
       id="path2" /></g></svg>
