<?xml version="1.0" encoding="UTF-8" standalone="no"?>
<!-- Created with Inkscape (http://www.inkscape.org/) -->

<svg
   width="101.60001mm"
   height="84.666664mm"
   viewBox="0 0 101.60001 84.666664"
   version="1.1"
   id="svg1"
   xml:space="preserve"
   xmlns="http://www.w3.org/2000/svg"
   xmlns:svg="http://www.w3.org/2000/svg"><defs
     id="defs1" /><g
     id="layer1"
     transform="matrix(1.3333333,0,0,1.3333333,-142.41973,-140.47501)"><path
       style="fill:#ffffff;fill-opacity:1"
       d="m 106.8148,137.10626 v -31.75 h 38.1 38.1 v 31.75 31.75 h -38.1 -38.1 z m 59.79583,30.70728 v -0.51355 l -0.26458,-0.16352 -0.26458,-0.16353 -0.004,-0.57969 -0.004,-0.5797 -0.23623,-0.37316 -0.23622,-0.37315 -0.61962,-0.0678 -0.61962,-0.0678 -0.92604,-0.0388 -0.92605,-0.0388 0.65399,-0.26099 0.65399,-0.26099 0.21075,-0.31755 0.21075,-0.31755 0.27289,0.46302 0.27289,0.46302 h 0.25143 0.25144 v -0.2802 -0.2802 l -0.26419,0.16328 -0.26419,0.16328 0.0658,-0.59747 0.0657,-0.59747 -1.26129,-0.21854 -1.26129,-0.21854 -0.50725,0.27147 -0.50725,0.27147 h -0.91503 -0.91513 l -0.1523,-0.39687 -0.15229,-0.39688 1.4469,-0.0331 1.44691,-0.0331 0.33073,-0.0331 0.33072,-0.0331 0.0791,-0.66146 0.0791,-0.66146 0.13356,-0.38946 0.13355,-0.38946 0.2463,0.38946 0.24629,0.38946 0.004,-0.43471 0.004,-0.43471 0.41852,-0.1606 0.41851,-0.1606 h 0.12627 0.12627 l -0.1987,0.33073 -0.19869,0.33073 0.49042,-0.39688 0.49043,-0.39687 h 0.52209 0.5221 l 0.29504,-0.52917 0.29504,-0.52917 0.16783,-0.13229 0.16783,-0.13229 0.1322,-0.52917 0.13221,-0.52916 0.0307,0.61093 0.0307,0.61092 0.23881,-0.14759 0.23881,-0.14759 0.28136,0.80711 0.28136,0.80711 0.93827,-0.17602 0.93826,-0.17602 -0.16498,0.42993 -0.16497,0.42993 0.41796,-0.16039 0.41797,-0.16039 -0.0578,-0.29361 -0.0578,-0.2936 0.33073,-0.0451 0.33073,-0.0451 0.39687,-0.0331 0.39688,-0.0331 0.004,-1.52136 0.004,-1.52135 0.24307,0.38424 0.24308,0.38424 -0.13045,0.21107 -0.13045,0.21107 h 0.4408 0.44079 l -0.12448,-0.33073 -0.12429,-0.33073 -0.18643,-0.59532 -0.18643,-0.59531 h 0.29803 0.29803 l -0.17325,-0.28032 -0.17325,-0.28032 -1.76927,-0.86105 -1.76927,-0.86105 -1.44653,-0.48466 -1.44654,-0.48466 -2.77812,-0.61895 -2.77813,-0.61895 -3.83645,-0.67944 -3.83646,-0.67944 -0.69627,0.0959 -0.69626,0.0959 0.25505,-0.80947 0.25506,-0.80948 0.29669,-0.61252 0.29669,-0.61252 -0.38465,-0.24332 -0.38465,-0.24332 -0.33073,-0.004 -0.33072,-0.004 v 0.22415 0.22415 l 0.59531,0.29798 0.59531,0.29798 -0.69434,-0.14559 -0.69435,-0.14559 -0.14566,0.88023 -0.14566,0.88023 0.0928,5.29166 0.0928,5.29167 0.14769,3.41336 0.1477,3.41336 0.13646,0.13647 0.13647,0.13646 0.0176,-1.16857 0.0176,-1.16858 0.12937,-1.67501 0.12938,-1.67502 0.24941,-0.65601 0.24942,-0.65601 0.27792,0.17177 0.27793,0.17177 -0.30703,0.36995 -0.30703,0.36995 0.14703,0.38315 0.14702,0.38315 -0.31586,0.11631 -0.31587,0.11631 0.29557,0.31541 0.29557,0.31541 2.5634,0.10801 2.5634,0.10801 0.2542,0.1571 0.2542,0.15711 -0.13472,0.21799 -0.13473,0.21799 -2.53463,-0.0797 -2.53463,-0.0797 -0.33554,-0.45888 -0.33555,-0.45889 -0.17283,2.22052 -0.17283,2.22052 -0.002,0.72761 -0.002,0.7276 h 7.14375 7.14375 z m 15.875,-1.88331 v -2.39687 l -0.26378,0.16303 -0.26378,0.16303 0.26378,-0.69381 0.26378,-0.6938 v -0.77653 -0.77652 h -0.23372 -0.23373 l -0.14384,-0.55007 -0.14385,-0.55006 0.37757,0.14488 0.37757,0.14489 v -27.11149 -27.11149 h -37.57692 -37.57692 l 0.0186,15.22858 0.0186,15.22858 0.29923,0.65674 0.29923,0.65674 0.39393,-0.0765 0.39392,-0.0765 0.11018,-0.33091 0.11018,-0.33091 -0.38421,0.14744 -0.38421,0.14743 -0.1423,-0.54413 -0.14229,-0.54413 h 0.63669 0.63669 v 1.1089 1.10891 l 0.38846,-0.51359 0.38846,-0.5136 0.0125,0.52917 0.0125,0.52917 0.25648,-0.39688 0.25648,-0.39687 0.004,-0.35904 0.004,-0.35904 -0.37498,0.1439 -0.37498,0.14389 -0.12675,-0.33032 -0.12676,-0.33032 0.76387,0.11212 0.76387,0.11211 0.25026,-0.62499 0.25026,-0.62498 0.0168,0.7092 0.0168,0.70921 0.57459,0.0846 0.57459,0.0846 0.12119,0.36755 0.1212,0.36756 -0.29891,-0.18473 -0.29891,-0.18474 v 0.24934 0.24934 l 0.51385,0.13437 0.51384,0.13438 0.14532,-0.14532 0.14532,-0.14532 -0.29469,-0.35507 -0.29468,-0.35507 h 0.40763 0.40763 l 0.39857,0.15294 0.39857,0.15295 -0.10229,1.02827 -0.1023,1.02828 0.25453,0.15731 0.25453,0.15731 0.004,-1.0078 0.004,-1.0078 0.25648,-0.39688 0.25648,-0.39687 0.0321,0.39687 0.0321,0.39688 -0.048,0.7276 -0.048,0.7276 h 0.25213 0.25213 l 0.30626,-0.36902 0.30627,-0.36903 -0.0754,-0.22628 -0.0754,-0.22629 h 0.25481 0.25482 l -0.0763,0.7276 -0.0763,0.72761 h 0.57995 0.57996 l -0.13073,-0.68384 -0.13072,-0.68385 0.5629,0.15107 0.5629,0.15106 0.33073,0.004 0.33073,0.004 v 0.63315 0.63315 l 0.43474,0.16683 0.43475,0.16682 0.15055,-0.15055 0.15055,-0.15055 -0.32295,-0.51714 -0.32296,-0.51713 h 0.36604 0.36605 l 0.15875,0.79375 0.15875,0.79375 h 0.2712 0.27119 v -0.24895 -0.24897 l -0.26458,-0.16352 -0.26458,-0.16352 v -0.22957 -0.22957 l 0.46302,-0.121 0.46302,-0.121 -0.57748,-0.0307 -0.57749,-0.0307 -0.11368,-0.46302 -0.11368,-0.46302 0.11737,-5.55625 0.11737,-5.55625 -0.0144,-6.28801 -0.0144,-6.288 -0.28098,-0.52502 -0.28098,-0.52501 1.0015,-0.0338 1.0015,-0.0338 0.55698,-0.0606 0.55699,-0.0606 1.95655,-0.17681 1.95656,-0.17681 3.96875,-0.51228 3.96875,-0.51228 4.7625,-0.43324 4.7625,-0.43323 0.11024,-0.10627 0.11024,-0.10626 -0.14046,-0.14046 -0.14046,-0.14046 -3.93853,0.40104 -3.93853,0.40105 -4.89479,0.26843 -4.89479,0.26843 -1.30087,1.5e-4 -1.30087,1.5e-4 0.11024,-0.10784 0.11025,-0.10785 2.64583,-0.29887 2.64583,-0.29888 0.71251,-0.14015 0.7125,-0.14015 -0.12982,-0.33831 -0.12982,-0.33831 1.86909,-0.30867 1.86909,-0.30868 0.67062,0.43941 0.67062,0.43941 2.69844,-0.31924 2.69844,-0.31923 0.97214,-0.14755 0.97213,-0.14756 -0.14055,-0.36626 -0.14054,-0.36627 0.22674,-0.005 0.22675,-0.005 1.80201,-0.26054 1.80202,-0.26054 0.84381,0.6289 0.84382,0.62889 0.26459,-0.0942 0.26458,-0.0942 0.37986,0.24012 0.37986,0.24012 -0.34611,0.41704 -0.34611,0.41704 h 0.32937 0.32938 l -0.31839,0.38364 -0.31839,0.38364 0.0755,0.87694 0.0755,0.87694 -0.19075,0.30864 -0.19075,0.30863 0.23719,0.1466 0.23719,0.14659 0.0129,5.71874 0.0129,5.71874 0.15451,0.96597 0.1545,0.96597 0.10438,5.55625 0.10439,5.55625 0.19613,3.10885 0.19613,3.10886 h 0.35756 0.35756 v 0.66146 0.66145 l 0.52916,0.52917 0.52917,0.52917 h 0.47625 0.47625 l 0.27326,-0.27326 0.27325,-0.27326 0.44112,0.16928 0.44112,0.16927 v 0.23627 0.23628 h 0.66146 0.66146 v 0.23151 0.23151 h 0.66146 0.66145 v -0.23159 -0.23151 h 0.23373 0.23372 l 0.13838,0.52917 0.13838,0.52916 h 0.79688 0.79688 l 0.4407,0.16912 0.4407,0.16911 -0.35291,0.2358 -0.35291,0.2358 0.7276,-0.16901 0.7276,-0.16901 0.004,0.35941 0.004,0.35941 0.20504,-0.32269 0.20503,-0.32269 0.7831,0.2338 0.78311,0.2338 -0.52917,0.0456 -0.52917,0.0456 2.38125,0.52975 2.38125,0.52974 0.5085,0.43955 0.5085,0.43954 -0.19338,-0.33073 -0.19339,-0.33072 h 0.52917 0.52916 l 0.14147,0.22889 0.14146,0.22889 1.66009,0.33996 1.66009,0.33997 0.86944,0.0265 0.86945,0.0265 0.18889,0.27837 0.18888,0.27836 1.05834,0.49198 1.05833,0.49197 1.38906,1.04738 1.38907,1.04739 v 0.23279 0.2328 l 0.33073,-0.0662 0.33072,-0.0661 0.0832,1.01065 0.0832,1.01065 -0.3478,0.42106 -0.3478,0.42106 0.72761,-0.13825 0.7276,-0.13825 v 0.19786 0.19787 l -0.79375,0.11649 -0.79375,0.1165 v -0.56272 -0.56271 l -0.3175,-0.3175 -0.3175,-0.3175 h 0.3175 0.3175 v -0.26459 -0.26458 h -0.24675 -0.24676 l -0.18578,0.59531 -0.18578,0.59532 -0.29507,0.19843 -0.29507,0.19844 0.39688,0.26053 0.39687,0.26053 -0.33073,0.004 -0.33073,0.004 v 0.26459 0.26458 h 0.47625 0.47625 l 0.35632,0.33073 0.35631,0.33073 -0.18672,-0.33073 -0.18672,-0.33073 h 0.41249 0.41249 v 0.24295 0.24294 l 0.15725,0.48466 0.15725,0.48466 -0.25647,-0.35898 -0.25647,-0.35897 -0.16245,0.26285 -0.16245,0.26285 0.36665,0.30429 0.36664,0.30429 -0.13505,0.51646 -0.13506,0.51647 -0.23882,-0.1476 -0.23882,-0.1476 0.17749,-0.28718 0.17749,-0.28718 -0.31706,0.19595 -0.31705,0.19595 -0.35482,-0.29447 -0.35482,-0.29448 -0.17532,0.73472 -0.17532,0.73471 -0.14947,0.52917 -0.14946,0.52917 0.34724,-0.33073 0.34723,-0.33073 h 0.74084 0.74083 v -0.27389 -0.2739 l 0.51931,0.27793 0.51932,0.27793 -0.15075,0.39284 -0.15075,0.39284 h -0.22826 -0.22797 l 0.14558,-0.46302 0.14559,-0.46302 -0.41682,0.51132 -0.41681,0.51132 -1.05999,0.0598 -1.05999,0.0598 -0.036,-0.57115 -0.036,-0.57114 -0.11467,0.59531 -0.11466,0.59531 h -0.3454 -0.3454 l -0.82253,-0.1645 -0.82253,-0.16451 0.13232,-0.21409 0.13231,-0.21408 -0.29195,-0.18044 -0.29196,-0.18044 -0.29444,0.29445 -0.29445,0.29444 0.38365,0.0264 0.38364,0.0264 -0.66145,0.19875 -0.66146,0.19875 -1.91823,-0.13102 -1.91823,-0.13102 v 2.41944 2.41944 h 6.21771 6.21771 z m -65.10551,-2.03491 0.52379,-0.99219 0.0117,0.34813 0.0117,0.34812 -0.27389,0.51177 -0.27389,0.51177 0.73691,-0.004 0.73691,-0.004 0.36929,-0.23382 0.36928,-0.23383 -0.16898,-0.44035 -0.16897,-0.44035 -0.26645,0.16468 -0.26646,0.16467 v -0.38009 -0.38009 l 0.36592,-0.30368 0.36591,-0.30368 0.17411,-2.4407 0.17411,-2.44069 -0.27464,-2.09542 -0.27464,-2.09542 0.10803,-0.10803 0.10802,-0.10802 0.27056,1.40969 0.27055,1.4097 -0.0495,-3.57188 -0.0495,-3.57187 -0.64136,-1.1213 -0.64136,-1.12129 -0.81296,-0.11908 -0.81297,-0.11908 -2.24895,-0.26916 -2.24896,-0.26916 -2.08596,-0.28822 -2.08596,-0.28821 -0.163,-0.0195 -0.163,-0.0195 -0.33665,0.0313 -0.33664,0.0313 0.0187,8.95669 0.0187,8.9567 0.64424,-0.12316 0.64425,-0.12315 0.46743,0.20312 0.46744,0.20311 1.05833,0.0974 1.05833,0.0974 0.59995,-0.14446 0.59995,-0.14447 -0.33397,-0.35752 -0.33397,-0.35752 -0.29733,0.1141 -0.29733,0.1141 -0.89469,-0.39025 -0.89469,-0.39025 0.5797,-0.0216 0.5797,-0.0216 0.16618,-0.2689 0.16619,-0.2689 0.2463,0.15222 0.2463,0.15223 v -0.38368 -0.38368 l -1.05055,-1.27132 -1.05055,-1.27131 0.10053,-0.10052 0.10052,-0.10053 1.12609,1.22167 1.1261,1.22167 0.20749,-0.33573 0.20749,-0.33574 -0.1606,-1.17175 -0.16061,-1.17175 0.30621,0.18925 0.30622,0.18925 v -0.28011 -0.2802 h -0.24897 -0.24897 l -0.16352,0.26458 -0.16352,0.26459 h -0.37194 -0.37195 l -0.30091,-0.56224 -0.3009,-0.56224 0.25878,-0.56224 0.25878,-0.56224 0.9515,-2.11667 0.95149,-2.11666 0.33809,-0.98321 0.33809,-0.98321 -0.0692,4.88581 -0.0692,4.88581 h 0.39995 0.39996 v 0.52917 0.52917 h 0.23627 0.23628 l 0.16927,0.44112 0.16927,0.44111 -0.26964,0.26965 -0.26965,0.26964 0.43427,0.47987 0.43427,0.47986 -0.76861,0.0313 -0.76861,0.0313 -0.19844,-0.0313 -0.19843,-0.0313 v 1.19062 1.19063 h 1.58117 1.58118 z m 31.97629,-18.64534 0.0242,-0.85211 -0.25506,-0.30734 -0.25507,-0.30734 -0.13373,-6.18273 -0.13373,-6.18274 -0.0914,-4.42705 -0.0914,-4.42704 0.21339,0.13188 0.21338,0.13188 0.16735,-0.27077 0.16734,-0.27077 -0.38459,-0.14758 -0.38458,-0.14758 -0.013,-0.57815 -0.013,-0.57816 -0.0682,-5.95312 -0.0682,-5.95313 -0.27861,-0.19438 -0.27861,-0.19439 -0.46302,-0.004 -0.46302,-0.004 v 0.26458 0.26459 l 0.33073,-3.2e-4 0.33073,-3.2e-4 -0.13229,6.63758 -0.13229,6.63759 0.12241,0.12178 0.12242,0.12178 0.0259,1.11231 0.0259,1.11231 0.19348,6.48229 0.19349,6.48229 0.13805,1.12844 0.13806,1.12845 0.10922,2.51525 0.10921,2.51525 0.28016,0.52349 0.28017,0.52349 h 0.21501 0.21501 z m -4.83849,-11.79494 v -9.18107 l -0.85275,-1.60618 -0.85275,-1.60617 -0.48023,-0.4346 -0.48022,-0.4346 -0.66829,0.71786 -0.66828,0.71785 -0.62411,0.85438 -0.6241,0.85439 -0.3385,-0.28093 -0.3385,-0.28093 -0.54186,0.17198 -0.54186,0.17198 v 0.31465 0.31464 l 0.25871,0.9243 0.25871,0.92429 -0.50075,-0.6516 -0.50074,-0.6516 -0.16696,0.91618 -0.16696,0.91619 -0.054,0.7601 -0.054,0.7601 0.99219,0.52261 0.99218,0.52261 v 0.23864 0.23865 h -0.1416 -0.1416 l -0.67473,-0.4421 -0.67473,-0.4421 -0.18837,0.30479 -0.18837,0.3048 0.0517,1.12949 0.0517,1.12949 0.031,4.63021 0.031,4.63021 0.2092,0.32944 0.20921,0.32945 0.64664,0.0371 0.64664,0.0371 0.46302,-0.1964 0.46302,-0.1964 v 0.56578 0.56577 l 0.33073,0.0928 0.33073,0.0928 1.05833,0.27695 1.05833,0.27694 0.92604,0.24228 0.92605,0.24228 0.26458,-0.23664 0.26458,-0.23664 z m -18.5741,7.17969 -0.16895,-0.44028 0.30955,0.19131 0.30955,0.19131 0.0331,-0.2802 0.0331,-0.2802 0.0331,-0.30868 0.0331,-0.30868 0.30991,-0.1033 0.30991,-0.1033 -0.14233,0.54427 -0.14234,0.54428 h 0.29545 0.29544 v -0.39688 -0.39687 h 0.26835 0.26836 l -0.13207,0.74965 -0.13207,0.74965 h 0.39288 0.39288 v -0.22552 -0.22553 l 0.6649,0.16688 0.66489,0.16688 0.39344,-0.32653 0.39344,-0.32653 v 0.42928 0.42927 l 0.59531,-0.0209 0.59531,-0.0209 -0.33073,-0.13345 -0.33073,-0.13346 v -0.20584 -0.20585 l 0.62367,0.11922 0.62366,0.11923 0.17009,-0.85045 0.17008,-0.85044 -0.006,-7.17682 -0.006,-7.17682 -0.75109,-1.45521 -0.7511,-1.45521 -0.39555,-0.0782 -0.39554,-0.0782 -1.14701,1.73202 -1.147,1.73201 -0.19979,-0.32326 -0.19978,-0.32326 -0.19844,0.19844 -0.19843,0.19843 -0.12075,0.45536 -0.12075,0.45536 0.009,1.16861 0.009,1.1686 -0.27718,-0.50715 -0.27718,-0.50714 -0.2872,-0.19439 -0.28719,-0.19438 -0.21507,-0.004 -0.21507,-0.004 0.0762,0.46302 0.0762,0.46302 -0.17437,0.27722 -0.17438,0.27721 0.18098,0.25195 0.18098,0.25195 1.00629,0.46547 1.00629,0.46547 -0.16141,0.26116 -0.16141,0.26117 -0.80332,-0.41541 -0.80333,-0.41542 -0.11924,0.11925 -0.11925,0.11925 -0.0546,4.79509 -0.0546,4.79509 0.33073,-4e-5 0.33073,-3e-5 v 0.24896 0.24897 l -0.26459,0.16352 -0.26458,0.16353 v 0.64584 0.64584 h 0.25628 0.25628 z"
       id="path3" /></g></svg>
