<?xml version="1.0" encoding="UTF-8" standalone="no"?>
<!-- Created with Inkscape (http://www.inkscape.org/) -->

<svg
   width="101.60001mm"
   height="84.666664mm"
   viewBox="0 0 101.60001 84.666664"
   version="1.1"
   id="svg1"
   xml:space="preserve"
   xmlns="http://www.w3.org/2000/svg"
   xmlns:svg="http://www.w3.org/2000/svg"><defs
     id="defs1" /><g
     id="layer1"
     transform="matrix(1.3333333,0,0,1.3333333,-30.162075,-140.47501)"><path
       style="fill:#ffffff;fill-opacity:1"
       d="m 22.621557,137.10626 v -31.75 h 38.1 38.099999 v 31.75 31.75 h -38.099999 -38.1 z m 58.539059,30.91508 0.46302,-0.24203 -0.004,-0.586 -0.004,-0.586 -0.15954,-0.59532 -0.15954,-0.59531 h -1.19216 -1.19217 l 0.36313,0.4507 0.36313,0.4507 -0.71929,-0.51685 -0.71929,-0.51684 -0.008,-0.46302 -0.008,-0.46302 h 0.52916 0.52917 v -0.26459 -0.26458 l -1.52135,-0.0332 -1.52136,-0.0332 -3.63727,-0.0329 -3.63727,-0.0329 -0.0205,0.26458 -0.0205,0.26459 -0.0709,2.0658 -0.0709,2.0658 5.97765,-0.0471 5.97765,-0.0472 z m 17.13177,-1.1429 v -1.44866 l -0.7276,0.28298 -0.72761,0.28298 -0.65138,0.0771 -0.65138,0.0771 -0.0983,0.29481 -0.0983,0.29482 h -0.50712 -0.50712 v 0.23372 0.23373 l -0.58585,0.1532 -0.58584,0.1532 -0.14176,-0.18849 -0.14176,-0.18849 -0.4421,-0.0333 -0.44209,-0.0333 0.1573,0.40992 0.1573,0.40993 -0.42346,-0.1625 -0.42347,-0.1625 -0.31632,0.38115 -0.31633,0.38115 h 3.73657 3.73656 z m -73.10253,-7.6312 0.31935,-0.004 0.12147,-0.31656 0.12147,-0.31655 -1.168419,-1.33568 -1.16842,-1.33569 v -0.15572 -0.15574 h 0.22049 0.22048 l 0.95873,0.95873 0.95873,0.95872 0.45253,-0.17365 0.45253,-0.17365 -0.29628,-0.29628 -0.29628,-0.29627 0.51662,-0.65678 0.51662,-0.65677 v -0.33578 -0.33579 l 1.05923,-2.20822 1.05923,-2.20822 0.22936,-1.98438 0.22936,-1.98437 0.0528,1.71979 0.0528,1.71979 -0.0355,3.90261 -0.0355,3.9026 0.61233,-0.004 0.61234,-0.004 -0.39688,-0.25648 -0.39687,-0.25648 0.4101,-0.004 0.4101,-0.004 0.31173,0.31173 0.31172,0.31172 0.53495,-0.61679 0.53494,-0.61679 v 1.07717 1.07718 l 0.1661,0.43287 0.16611,0.43287 0.61413,-0.57695 0.61413,-0.57695 0.68156,0.13029 0.68155,0.13029 -0.12235,-0.42759 -0.12235,-0.42759 -0.19804,-2.11667 -0.19804,-2.11667 -0.0428,-0.26458 -0.0428,-0.26458 -0.0403,-0.61421 -0.0403,-0.61421 -0.41577,0.41577 -0.41577,0.41577 h -0.24569 -0.24568 l 0.008,-0.33073 0.008,-0.33073 0.66666,-0.75813 0.66667,-0.75813 0.0816,0.0967 0.0816,0.0967 0.41724,1.98437 0.41724,1.98438 -0.11692,-2.76828 -0.11692,-2.76828 -0.61732,-1.17868 -0.61733,-1.17869 -0.50576,-0.0765 -0.50576,-0.0765 -1.45521,-0.15673 -1.45521,-0.15674 -1.85208,-0.27416 -1.85209,-0.27417 -1.5875,-0.2078 -1.5875,-0.2078 -0.19844,0.1137 -0.19843,0.1137 v 7.14916 7.14916 l 0.85989,-0.19324 0.8599,-0.19324 z m 48.26239,-1.56962 0.0307,-1.12448 0.1119,0.52917 0.1119,0.52916 0.11091,0.52917 0.11091,0.52917 1.02936,0.0696 1.02935,0.0696 0.67711,-0.53262 0.6771,-0.53261 h 0.22535 0.22536 l 0.34303,-0.54927 0.34303,-0.54928 0.37965,0.31508 0.37964,0.31508 0.7822,-0.1148 0.7822,-0.11481 -0.10482,0.16961 -0.10482,0.1696 1.30924,-0.019 1.30923,-0.019 1.9e-4,-0.59531 1.8e-4,-0.59532 h 0.26458 0.26459 v 0.56379 0.56378 l 0.8693,-0.14106 0.86929,-0.14107 0.74253,0.14194 0.74253,0.14195 -0.34739,0.2147 -0.3474,0.2147 0.17084,0.17084 0.17084,0.17083 0.55294,-0.1755 0.55295,-0.17549 -0.14045,-0.22726 -0.14045,-0.22725 0.26199,-0.16192 0.262,-0.16192 -0.0592,-1.09161 -0.0592,-1.09162 -1.71979,-0.78345 -1.71979,-0.78346 -4.10105,-1.03179 -4.10104,-1.03179 -3.23677,-0.52138 -3.236756,-0.52137 h -0.779515 -0.779509 l -0.008,4.07259 -0.008,4.07259 0.71685,0.10174 0.716865,0.10174 0.46302,-0.0927 0.46302,-0.0927 0.0179,-0.44362 0.0179,-0.44362 0.287105,0.59531 0.28711,0.59532 h 0.22415 0.22416 l 0.0264,-0.72761 0.0264,-0.7276 0.19549,0.66146 0.19548,0.66146 0.30731,-0.0661 0.30731,-0.0662 v 0.26458 0.26458 h 0.39687 0.39688 z m 24.84014,-27.31823 V 105.88543 H 60.721557 23.150727 l 0.004,3.37344 0.004,3.37344 0.22493,0.35487 0.22492,0.35488 2.87988,-0.14351 2.87988,-0.1435 0.74321,-0.0129 0.74322,-0.0129 -0.16352,-0.26459 -0.16352,-0.26458 h 0.25815 0.25815 l 0.099,0.29699 0.099,0.297 1.90742,-0.19156 1.90743,-0.19155 v -0.25556 -0.25556 l -0.55674,0.1767 -0.55674,0.1767 0.60649,-0.82033 0.606499,-0.82033 0.28097,-0.009 0.28097,-0.009 1.82041,-0.23455 1.8204,-0.23455 0.56085,0.25062 0.56084,0.25062 3.04271,-0.33979 3.04271,-0.33979 v -0.39523 -0.39522 l 2.08918,-0.36494 2.08918,-0.36494 0.7723,0.45621 0.7723,0.45621 1.83488,-0.18427 1.83487,-0.18427 v -0.19191 -0.1919 l 0.79036,0.116 0.79037,0.116 0.66484,-0.16687 0.66485,-0.16686 v -0.37082 -0.37081 l 0.7276,-0.13939 0.7276,-0.1394 1.67273,-0.1744 1.67273,-0.17441 0.61679,0.57944 0.61678,0.57944 1.02515,-0.074 1.02515,-0.074 0.36424,0.22511 0.36424,0.22511 -0.18879,-0.30546 -0.18879,-0.30546 h 0.2802 0.2802 v 0.37482 0.37483 l -0.33073,0.11977 -0.33073,0.11977 0.35813,0.60403 0.35814,0.60403 -0.41329,0.23129 -0.41329,0.23128 0.147,0.38308 0.147,0.38308 -0.40368,0.40368 -0.40367,0.40367 h -0.15623 -0.15623 l 0.15877,-0.63259 0.15877,-0.6326 -0.28602,-0.17677 -0.28602,-0.17677 v 0.68638 0.68638 l 0.4273,0.65215 0.4273,0.65215 h -0.30816 -0.30816 l 0.25133,0.4491 0.25133,0.4491 -0.23517,0.61852 -0.23516,0.61853 2.16968,4.55477 2.169671,4.55477 2.49418,4.8948 2.49419,4.89479 0.4925,0.63099 0.4925,0.631 v 0.23098 0.23099 l 1.36988,2.44531 1.36988,2.44531 0.3261,0.39688 0.3261,0.39687 0.85513,1.5875 0.85513,1.5875 1.19965,1.85208 1.19965,1.85209 0.0255,0.0501 0.0255,0.0501 0.69755,0.12649 0.69754,0.12649 0.61941,0.39717 0.61942,0.39718 0.66145,0.0877 0.66146,0.0877 0.038,-2.64584 0.038,-2.64583 1.94636,-0.0513 1.94636,-0.0513 2.54172,-0.12003 2.54172,-0.12003 0.23641,0.17138 0.2364,0.17137 0.0485,3.57188 0.0485,3.57187 0.16897,1.38906 0.16897,1.38907 h 0.11326 0.11325 z m -2.8633,17.86908 -0.5011,-0.67116 -0.23603,0.007 -0.23603,0.007 -0.32496,0.67801 -0.32497,0.67802 -0.17347,1.8665 -0.17347,1.86649 0.49844,0.42678 0.49843,0.42677 0.26459,0.0334 0.26458,0.0334 0.39687,0.55975 0.39688,0.55975 0.0757,-2.90071 0.0757,-2.90071 z m -3.34143,0.89247 -0.15562,-0.82953 -0.48605,-0.43987 -0.48606,-0.43988 -0.26413,0.33741 -0.26413,0.3374 -0.24361,0.79375 -0.2436,0.79375 0.0905,0.72761 0.0905,0.7276 h 0.3793 0.3793 v 0.20184 0.20185 l 0.59531,0.26117 0.59531,0.26118 0.0843,-1.05238 0.0843,-1.05237 z m -8.61194,-0.62198 v -0.24897 l -0.24006,-0.14837 -0.24007,-0.14836 -2.46921,-4.03444 -2.46921,-4.03443 -1.78394,-3.43958 -1.78393,-3.43959 -3.69598,-7.3146 -3.695991,-7.3146 -0.49005,-0.80583 -0.49006,-0.80584 -0.0205,0.97669 -0.0205,0.97668 0.214518,-0.52916 0.21453,-0.52917 0.0186,0.33432 0.0186,0.33432 -0.324831,0.52014 -0.324839,0.52015 0.48018,0.81288 0.48018,0.81288 -0.15348,0.39994 -0.15347,0.39995 -0.26645,-0.16468 -0.26645,-0.16467 0.004,0.61092 0.004,0.61093 0.25874,-0.39687 0.25873,-0.39688 -0.0774,2.19448 -0.0774,2.19447 0.35219,0.29229 0.35218,0.29228 -0.0608,1.03005 -0.0608,1.03004 -0.3445,0.28591 -0.34449,0.2859 v 0.22388 0.22389 l 0.39687,-0.1523 0.39688,-0.15229 v 1.18653 1.18654 l -0.39688,0.32937 -0.39687,0.32938 v 0.26458 0.26459 l 0.39687,-0.32938 0.39688,-0.32938 v 0.44801 0.44801 l 1.25677,1.70801 1.256775,1.70802 0.60938,0.85293 0.609366,0.85294 2.2559,2.71958 2.25589,2.71958 1.43556,1.55058 1.43557,1.55058 1.91687,0.58961 1.91688,0.5896 0.52916,0.21556 0.52917,0.21556 0.19844,0.0179 0.19843,0.0179 z m -7.68534,-3.65363 -1.91679,-2.05052 -2.8057,-3.59568 -2.805711,-3.59568 -0.580609,-0.76995 -0.58061,-0.76994 -0.0147,0.81603 -0.0147,0.81604 1.73285,2.32422 1.732855,2.32422 1.810236,2.15141 1.81023,2.15141 1.02098,0.96013 1.02097,0.96013 0.39688,0.14346 0.39687,0.14346 0.35687,0.0209 0.35686,0.0209 z m -0.51674,1.31634 v -0.20501 l -1.12448,-1.06026 -1.12448,-1.06026 -1.99931,-2.50504 -1.99931,-2.50504 -0.74407,-0.99219 -0.74407,-0.99219 h -0.22777 -0.22777 l 0.15078,1.25677 0.15077,1.25677 0.174549,2.22097 0.174542,2.22097 1.00681,0.8137 1.006804,0.81369 0.24997,-0.38883 0.24996,-0.38883 0.25169,0.39687 0.251685,0.39688 1.93112,0.42973 1.93112,0.42973 0.33073,0.0333 0.33073,0.0333 z m -15.258519,-5.72633 0.15698,-1.87387 0.14608,-0.71912 0.14607,-0.71913 -2.71562,-3.02799 -2.71561,-3.02799 -0.34635,-0.0232 -0.34634,-0.0232 0.15099,0.2443 0.15099,0.2443 0.0393,4.31976 0.0393,4.31976 0.55202,0.79375 0.55202,0.79375 0.0814,0.12463 0.0814,0.12463 0.20123,-0.3256 0.20124,-0.32561 0.49498,0.46994 0.49499,0.46994 1.23893,0.0174 1.23894,0.0174 z m -11.8543,-0.74939 0.14933,-0.59531 -0.0781,-7.54063 -0.0781,-7.54062 -0.747881,-1.27234 -0.74788,-1.27234 -0.38864,0.32254 -0.38864,0.32254 0.15832,0.41257 0.15831,0.41257 -0.1814,-0.1814 -0.1814,-0.1814 -0.45767,0.58634 -0.45768,0.58634 -0.62128,1.19062 -0.62128,1.19063 0.075,6.48229 0.075,6.48229 0.17921,0.16188 0.17922,0.16188 1.18319,0.28791 1.18319,0.28791 0.17629,-0.28525 0.17629,-0.28525 0.29848,0.18447 0.29848,0.18447 -0.15222,0.2463 -0.15222,0.2463 h 0.40745 0.40745 z m -11.76404,-7.67292 0.0572,-5.35781 0.0171,-4.7625 0.0171,-4.7625 -0.20591,-1.52492 -0.2059,-1.52493 -0.25586,0.15813 -0.25586,0.15813 0.15713,0.57305 0.15714,0.57304 -0.46004,-0.7075 -0.46004,-0.70749 -0.557231,-0.2539 -0.557231,-0.25389 -1.44421,0.23116 -1.444199,0.23116 -1.587501,0.14016 -1.5875,0.14015 -1.45521,0.16339 -1.455209,0.16339 -0.52917,0.0739 -0.52916,0.0739 -0.33073,0.0221 -0.33073,0.022 v 9.70139 9.70139 l 0.17409,-0.17409 0.17409,-0.1741 0.28893,0.23954 0.28893,0.23954 2.91042,0.68661 2.91041,0.68662 0.66146,0.18191 0.66146,0.18192 0.26458,0.0397 0.26459,0.0397 0.39687,0.15703 0.39688,0.15704 1.71979,0.38935 1.71979,0.38935 0.178251,0.0234 0.178259,0.0233 z m 23.94162,3.79251 -0.12721,-0.20583 -0.0306,-4.60453 -0.0306,-4.60454 -1.63242,-2.43675 -1.63243,-2.43676 -0.47092,0.58467 -0.47093,0.58467 -0.63969,1.05834 -0.6397,1.05833 -0.25433,1.5875 -0.25434,1.5875 0.24048,0.25135 0.240469,0.25136 v 0.82186 0.82186 l 2.711981,3.05327 2.71198,3.05327 0.20275,-0.10987 0.20276,-0.10987 z m -0.41531,-11.41415 -0.25495,-0.91117 -1.04921,-1.57316 -1.04922,-1.57316 -0.15804,0.41185 -0.15804,0.41185 1.38775,2.14694 1.38774,2.14694 0.0745,-0.0745 0.0745,-0.0745 z"
       id="path4" /></g></svg>
