<?xml version="1.0" encoding="UTF-8" standalone="no"?>
<!-- Created with Inkscape (http://www.inkscape.org/) -->

<svg
   width="132.43839mm"
   height="129.38879mm"
   viewBox="0 0 132.43839 129.38879"
   version="1.1"
   id="svg1"
   xml:space="preserve"
   xmlns:inkscape="http://www.inkscape.org/namespaces/inkscape"
   xmlns:sodipodi="http://sodipodi.sourceforge.net/DTD/sodipodi-0.dtd"
   xmlns="http://www.w3.org/2000/svg"
   xmlns:svg="http://www.w3.org/2000/svg"><sodipodi:namedview
     id="namedview1"
     pagecolor="#ffffff"
     bordercolor="#000000"
     borderopacity="0.25"
     inkscape:showpageshadow="2"
     inkscape:pageopacity="0.0"
     inkscape:pagecheckerboard="0"
     inkscape:deskcolor="#d1d1d1"
     inkscape:document-units="mm" /><defs
     id="defs1" /><g
     inkscape:label="Layer 1"
     inkscape:groupmode="layer"
     id="layer1"
     transform="translate(-247.59542,-89.779912)"><path
       style="fill:#ffffff;fill-opacity:1"
       d="m 317.98902,218.66213 v -0.50712 l 0.19843,-0.0882 0.19844,-0.0882 0.46302,-0.83457 0.46302,-0.83457 v -0.4546 -0.45459 l -0.356,0.29546 -0.35601,0.29546 -0.46847,1.03888 -0.46847,1.03888 -0.64706,0.16241 -0.64707,0.1624 -0.5054,-0.60445 -0.5054,-0.60446 -0.16218,-0.47758 -0.16217,-0.47759 -0.30828,0.11179 -0.30828,0.11178 -0.78861,-0.42795 -0.7886,-0.42795 -0.5004,-0.61187 -0.50039,-0.61187 -0.73943,0.0776 -0.73942,0.0776 -0.48512,-0.39466 -0.48511,-0.39465 -0.81161,-0.44653 -0.8116,-0.44653 -1.17277,-0.0568 -1.17277,-0.0568 -0.34651,-0.2668 -0.34651,-0.26679 -0.97641,-0.0905 -0.9764,-0.0905 -1.95123,-0.0882 -1.95122,-0.0882 -0.22972,-0.41048 -0.22971,-0.41049 -1.39094,-0.32983 -1.39094,-0.32984 -0.14755,-0.22559 -0.14755,-0.2256 -1.30765,-0.14516 -1.30766,-0.14517 -0.66146,-0.46516 -0.66146,-0.46516 -1.98437,-0.70237 -1.98438,-0.70238 -2.44739,-0.562 -2.4474,-0.562 v -0.20812 -0.20811 l -1.65365,-0.31682 -1.65364,-0.31682 -2.38125,-0.74952 -2.38125,-0.74953 -7.20287,-1.61818 -7.20287,-1.61818 -5.62942,-0.92496 -5.62943,-0.92497 -0.58826,-0.13237 -0.58827,-0.13238 -0.008,-11.26599 -0.008,-11.26599 0.53031,-0.13868 0.53031,-0.13868 v -0.23372 -0.23373 l -0.19844,0.0313 -0.19843,0.0313 -0.33073,-0.0313 -0.33073,-0.0313 0.029,-5.22552 0.029,-5.22552 0.22985,1.17165 0.22985,1.17165 0.21245,0.21245 0.21245,0.21245 0.89198,0.1784 0.89198,0.1784 -0.14608,-1.08913 -0.14608,-1.08913 0.33994,-0.28213 0.33995,-0.28213 0.16023,-1.77874 0.16023,-1.77874 0.0892,-1.19063 0.0892,-1.19062 0.34775,-2.11667 0.34775,-2.11666 0.59089,-1.32292 0.59089,-1.32292 0.76051,-0.8174 0.76051,-0.81741 2.24896,-1.4678 2.24895,-1.4678 3.42701,-1.7809 3.427,-1.7809 0.54175,-0.29685 0.54174,-0.29684 1.91823,-1.17333 1.91823,-1.17334 -0.002,-0.28455 -0.002,-0.28455 -0.25377,-1.54953 -0.25377,-1.54954 0.39941,-0.3994 0.3994,-0.3994 -0.0846,-0.25372 -0.0846,-0.25372 -0.24763,0.0394 -0.24764,0.0394 -0.15787,-0.45006 -0.15788,-0.45006 0.0538,-2.2815 0.0538,-2.2815 0.45621,-1.39308 0.4562,-1.39308 0.23282,-0.14389 0.23281,-0.14389 v 0.39806 0.39805 l 0.72761,0.36283 0.7276,0.36282 -0.0661,0.31307 -0.0661,0.31307 h 0.51027 0.51026 l 0.42315,0.42315 0.42316,0.42315 0.36594,-0.30371 0.36594,-0.3037 0.14309,0.23151 0.14308,0.23152 -0.14961,0.5721 -0.14961,0.57211 -0.26285,-0.16245 -0.26285,-0.16245 0.17205,0.54207 0.17205,0.54208 -0.93325,0.93325 -0.93325,0.93325 0.26038,0.16092 0.26038,0.16093 v 0.48269 0.4827 l -0.52916,0.13838 -0.52917,0.13838 v 0.32021 0.32021 l 0.5043,-0.13188 0.5043,-0.13187 0.13282,0.69482 0.13283,0.69482 -0.12357,0.19995 -0.12358,0.19994 h -0.51355 -0.51355 v 0.26459 0.26458 h 0.51355 0.51355 l 0.17774,-0.28758 0.17773,-0.28757 0.83007,0.78499 0.83007,0.785 0.6053,0.31099 0.60531,0.31099 0.5802,-0.18415 0.5802,-0.18415 0.75851,-0.55812 0.75851,-0.55811 0.37109,-0.71446 0.37109,-0.71447 v -1.00924 -1.00925 l -0.55704,-1.05441 -0.55703,-1.05442 -0.56745,-0.61841 -0.56744,-0.61842 -0.88801,-0.37201 -0.888,-0.37202 -0.26191,0.16187 -0.26191,0.16187 0.0938,-0.49436 0.0939,-0.49435 0.72534,-0.0837 0.72534,-0.0837 v -0.11831 -0.11831 l -0.28487,-0.45943 -0.28487,-0.45943 0.28855,-0.7545 0.28854,-0.7545 0.39932,0.15323 0.39932,0.15324 -0.28001,-0.52322 -0.28002,-0.52321 h -0.25527 -0.25527 v -0.24611 -0.24612 l 0.85989,0.24247 0.8599,0.24247 0.43928,0.53281 0.43929,0.53282 h 0.43411 0.43411 l 0.36404,0.87126 0.36404,0.87127 0.18515,1.70842 0.18515,1.70842 0.36335,0.89221 0.36335,0.89221 v 0.62914 0.62915 h 0.26459 0.26458 l 0.0313,-0.33073 0.0313,-0.33073 -0.0114,-0.13867 -0.0114,-0.13866 0.47877,-0.63473 0.47877,-0.63472 0.40572,0.77339 0.40572,0.77339 1.27839,0.62835 1.2784,0.62835 0.79375,0.33136 0.79375,0.33137 0.92605,0.34175 0.92604,0.34175 0.8664,0.001 0.86641,0.001 0.15756,0.62776 0.15755,0.62775 -0.16446,0.16447 -0.16447,0.16446 -0.70435,-0.37522 -0.70436,-0.37523 -0.11104,0.33073 -0.11105,0.33073 h -0.24253 -0.24254 l 0.0661,-0.29623 0.0661,-0.29624 -0.92604,-0.34509 -0.92604,-0.3451 -0.55963,-0.0201 -0.55963,-0.0201 -0.63099,-0.48711 -0.631,-0.4871 -0.59531,-0.14959 -0.59531,-0.14958 v 0.21817 0.21818 l -0.1606,0.41851 -0.1606,0.41852 h 0.42294 0.42294 l 0.33047,0.52916 0.33047,0.52917 h 0.47928 0.47929 l 0.25694,0.73705 0.25694,0.73706 0.4569,0.0185 0.4569,0.0185 0.50643,0.2155 0.50642,0.2155 -0.19131,-0.30955 -0.19131,-0.30954 h 0.2478 0.2478 l 0.32426,0.39071 0.32427,0.39071 1.61638,-0.13525 1.61639,-0.13525 0.17538,-0.28377 0.17539,-0.28378 0.58994,0.18724 0.58994,0.18724 -0.16402,0.82011 -0.16402,0.82011 -0.29449,0.18201 -0.2945,0.182 0.1818,0.29417 0.18181,0.29416 h 0.42535 0.42536 l -0.12765,0.12766 -0.12766,0.12765 -1.70238,-0.29105 -1.70238,-0.29106 -0.79375,-0.47584 -0.79375,-0.47584 -1.05833,-0.18901 -1.05834,-0.189 -0.33296,-0.26434 -0.33297,-0.26434 -0.90664,0.14712 -0.90664,0.14713 -1.32414,-0.3493 -1.32413,-0.3493 -0.19039,0.17028 -0.1904,0.17028 0.15872,-0.44367 0.15873,-0.44368 -0.32895,-0.27299 -0.32894,-0.273 -0.64752,0.3371 -0.64752,0.3371 -1.19062,0.7762 -1.19063,0.77621 -0.32231,0.39712 -0.32231,0.39712 -0.008,0.33072 -0.008,0.33073 h 0.36856 0.36857 l 0.13821,-0.36016 0.1382,-0.36016 0.55193,-0.14433 0.55192,-0.14433 -0.19475,0.30605 -0.19475,0.30606 -0.008,0.26458 -0.008,0.26459 -1.09808,-0.0212 -1.09808,-0.0212 -0.28658,0.62898 -0.28658,0.62897 v 0.13874 0.13874 l 0.41821,-0.4182 0.4182,-0.41821 0.24326,0.15034 0.24325,0.15034 v 0.60174 0.60175 l 0.16262,0.16262 0.16261,0.16261 0.59386,-0.3891 0.59385,-0.38911 0.41745,0.16019 0.41745,0.16019 -0.1439,0.37498 -0.14389,0.37498 h 0.29289 0.29289 v 0.26458 0.26459 h -0.36601 -0.36602 l -0.13838,0.52916 -0.13838,0.52917 h -0.44642 -0.44641 l -0.13838,-0.52917 -0.13838,-0.52916 h -0.23373 -0.23372 l 0.004,0.19843 0.004,0.19844 0.24305,0.38421 0.24306,0.38421 -0.55053,0.3856 -0.55052,0.3856 -0.32106,-0.43908 -0.32106,-0.43908 h -0.30156 -0.30156 v 0.41577 0.41578 l 0.37797,0.37797 0.37798,0.37798 h 0.28348 0.28348 v 0.40192 0.40191 l -0.7276,-0.15873 -0.72761,-0.15873 0.39688,0.28598 0.39687,0.28598 -0.35511,0.22913 -0.35512,0.22912 0.35512,0.58074 0.35511,0.58074 -0.48951,0.36316 -0.48952,0.36316 0.16726,0.27063 0.16726,0.27063 0.3884,-0.14904 0.38841,-0.14905 v -0.63315 -0.63315 h 0.24253 0.24254 l 0.15434,0.33073 0.15434,0.33073 0.14938,-0.31587 0.14939,-0.31586 0.37978,0.14573 0.37978,0.14574 v -0.42518 -0.42519 h 0.26458 0.26459 v 0.24897 0.24897 l -0.28603,0.17677 -0.28602,0.17677 0.16717,0.66606 0.16717,0.66606 -0.43975,-0.16875 -0.43974,-0.16874 0.16676,0.66444 0.16677,0.66445 h -0.4932 -0.4932 l -0.50231,0.55504 -0.5023,0.55504 1.25505,-0.1882 1.25504,-0.18821 -0.008,0.22848 -0.008,0.22848 -0.35148,0.46302 -0.35148,0.46302 h -0.14987 -0.14987 l -0.0855,-0.35717 -0.0855,-0.35717 -0.49834,0.47904 -0.49834,0.47904 0.76292,0.33577 0.76292,0.33576 0.19439,0.26997 0.19439,0.26997 0.004,0.19844 0.004,0.19843 h -0.40518 -0.40518 l -0.15229,-0.39687 -0.1523,-0.39688 h -0.51647 -0.51648 l 0.16352,-0.26458 0.16353,-0.26458 h -0.2802 -0.2802 v -0.41249 -0.41249 l -0.29293,0.18104 -0.29293,0.18104 0.19302,-0.62845 0.19302,-0.62844 0.24928,-0.31228 0.24929,-0.31228 -0.52886,-0.28303 -0.52885,-0.28304 h -0.14307 -0.14307 l 0.15793,0.78968 0.15794,0.78967 -0.42914,0.16468 -0.42913,0.16467 v 0.36857 0.36856 h 0.39183 0.39184 l 0.15331,0.72761 0.15332,0.7276 0.24431,0.45256 0.24431,0.45256 -0.15445,0.40249 -0.15445,0.40249 -0.48532,-0.25973 -0.48533,-0.25974 h -0.94344 -0.94343 v -0.36857 -0.36857 l -0.41852,-0.1606 -0.41851,-0.1606 h -0.0776 -0.0776 l -0.0174,0.72761 -0.0174,0.7276 0.27057,0.70241 0.27057,0.70241 0.5075,0.13272 0.50751,0.13271 v 0.42165 0.42164 h 0.29289 0.29289 l -0.1523,0.39688 -0.15229,0.39687 h 0.47985 0.47986 l 0.43825,0.48426 0.43825,0.48427 -0.59568,0.2889 -0.59568,0.28891 -0.72761,0.15791 -0.7276,0.15792 v -0.50335 -0.50335 l 0.54823,-0.14336 0.54823,-0.14337 -0.46493,-0.70956 -0.46492,-0.70957 -0.34789,0.47577 -0.34789,0.47576 v 0.31545 0.31545 l -0.55218,0.14439 -0.55217,0.1444 0.0987,0.48178 0.0988,0.48177 0.4815,-0.0842 0.48149,-0.0842 -0.16019,0.34877 -0.16018,0.34878 -0.16332,0.46302 -0.16332,0.46302 h -0.24575 -0.24575 l -0.60885,-0.60884 -0.60884,-0.60885 -0.30517,0.10173 -0.30517,0.10172 v -0.27102 -0.27101 l 0.26458,-0.16352 0.26458,-0.16353 v -0.48115 -0.48116 l -0.36597,-0.30373 -0.36598,-0.30373 -0.16319,0.42527 -0.16319,0.42526 v 0.55742 0.55742 l -0.55619,-0.597 -0.55618,-0.59699 -0.3915,0.15023 -0.39149,0.15023 h -0.24295 -0.24294 v 0.35587 0.35586 l 0.52917,0.47889 0.52916,0.47889 v 0.31093 0.31093 l 2.38125,1.54509 2.38125,1.54508 v 0.0626 0.0626 l -0.52916,-0.13838 -0.52917,-0.13838 v 0.25297 0.25297 l 0.70362,0.32059 0.70362,0.3206 0.19776,-0.31998 0.19775,-0.31997 0.93799,0.4451 0.93798,0.4451 0.81406,0.68499 0.81405,0.68498 -0.26987,0.32517 -0.26987,0.32517 0.15852,0.15853 0.15852,0.15852 0.48574,-0.30335 0.48575,-0.30336 1.20552,0.60207 1.20553,0.60207 v 0.24602 0.24602 h -0.39033 -0.39033 l 0.22989,0.60465 0.22988,0.60464 -0.33175,0.45369 -0.33174,0.45369 h -0.69844 -0.69843 v 0.37483 0.37482 l 0.33073,0.15556 0.33072,0.15556 -0.66145,-0.1063 -0.66146,-0.1063 -1.5875,-0.58371 -1.5875,-0.5837 -2.04781,-0.0195 -2.0478,-0.0195 -0.15024,0.15024 -0.15024,0.15024 0.81945,0.58351 0.81946,0.5835 1.01626,1.37567 1.01626,1.37566 2.08212,1.18936 2.08212,1.18937 3.43958,1.67817 3.43959,1.67817 1.71979,0.99132 1.71979,0.99133 10.58334,5.30457 10.58333,5.30457 3.65825,1.73856 3.65825,1.73856 h 0.10274 0.10273 l 3.11818,1.5573 3.11818,1.55731 3.70417,1.91038 3.70417,1.91037 0.78288,0.41573 0.78288,0.41573 2.02665,0.11732 2.02665,0.11732 1.02693,-0.32931 1.02692,-0.32931 0.83299,-0.62166 0.833,-0.62166 -0.0392,-1.83722 -0.0392,-1.83722 -0.19675,-0.19662 -0.19676,-0.19663 0.52749,-0.36946 0.52748,-0.36946 v -0.21873 -0.21872 l -0.52917,-0.13838 -0.52916,-0.13838 v -0.55393 -0.55394 h -0.28216 -0.28216 l 0.0837,-0.72761 0.0837,-0.7276 0.55481,0.0759 0.55481,0.0759 0.32443,-0.39092 0.32443,-0.39091 0.3384,0.12985 0.33839,0.12985 0.44211,-0.67474 0.44211,-0.67475 h 0.39908 0.39908 l 0.15985,-0.41656 0.15985,-0.41656 0.6005,0.15072 0.6005,0.15071 -0.13025,-0.49804 -0.13024,-0.49805 0.28764,-0.17777 0.28763,-0.17776 v -0.52917 -0.52917 l 0.27617,0.17069 0.27618,0.17068 0.38528,-0.31976 0.38529,-0.31975 v -0.23723 -0.23723 l -0.72761,0.1638 -0.7276,0.1638 -2.18282,1.04449 -2.18281,1.04449 v 0.37494 0.37494 l -0.52917,0.28321 -0.52916,0.2832 v -0.38414 -0.38413 l -0.22365,-0.0882 -0.22365,-0.0882 -0.17827,-0.72761 -0.17826,-0.7276 h 0.26962 0.26962 v -0.24675 -0.24676 l -0.52916,-0.16795 -0.52917,-0.16795 v -0.38566 -0.38566 l 0.81316,-0.16263 0.81316,-0.16263 -0.15044,-0.59941 -0.15044,-0.5994 0.49194,0.12864 0.49194,0.12865 0.63128,-0.75857 0.63128,-0.75858 0.72951,-0.36694 0.72951,-0.36695 -0.36583,-0.54958 -0.36584,-0.54958 -0.36368,-0.007 -0.36367,-0.007 -0.33426,-0.20924 -0.33426,-0.20924 -0.83472,-0.0237 -0.83472,-0.0237 0.70564,-0.60697 0.70563,-0.60696 -0.40676,-0.22763 -0.40676,-0.22764 0.34256,-0.64522 0.34256,-0.64523 0.4614,-0.0777 0.4614,-0.0777 v 0.52515 0.52515 l 0.28981,0.17911 0.28981,0.17912 0.63891,-0.34194 0.63891,-0.34193 -0.0845,-0.82346 -0.0845,-0.82347 -0.1984,-0.32102 -0.1984,-0.32102 0.34635,-0.01 0.34634,-0.01 -0.98702,-0.84997 -0.98701,-0.84996 0.15798,-0.59531 0.15798,-0.59531 h 0.34124 0.34125 l -0.13838,-0.52917 -0.13838,-0.52917 h 0.29544 0.29544 v 0.24619 0.24618 l 0.59531,0.0846 0.59532,0.0845 0.0889,0.66146 0.0889,0.66146 0.79645,0.73595 0.79646,0.73595 -0.31966,0.38516 -0.31965,0.38516 0.15359,0.40024 0.15359,0.40025 h -0.25628 -0.25628 v 0.25779 0.25779 l 0.81834,0.42317 0.81833,0.42318 0.0416,-0.0856 0.0416,-0.0857 0.32539,-0.58317 0.32539,-0.58317 -0.45768,-0.8654 -0.45768,-0.86541 -0.37372,-0.2991 -0.37372,-0.2991 0.16698,-0.43514 0.16697,-0.43513 h -0.51155 -0.51155 l -0.26151,-0.48864 -0.26151,-0.48863 0.31201,-0.31201 0.31201,-0.31201 0.4793,0.60221 0.4793,0.6022 -0.11896,-0.85866 -0.11896,-0.85867 0.22303,-0.13784 0.22302,-0.13783 0.15084,0.24406 0.15084,0.24406 0.59504,-0.14123 0.59505,-0.14123 0.34601,-0.42925 0.34601,-0.42924 0.26245,0.46302 0.26245,0.46302 h 0.32493 0.32493 l 0.45736,-0.53416 0.45736,-0.53416 0.65977,0.4323 0.65978,0.4323 v 0.23415 0.23415 h 0.53847 0.53848 l -0.2739,-0.51177 -0.27389,-0.51177 v -0.14969 -0.14968 h 1.21093 1.21092 l -0.80914,-0.68085 -0.80914,-0.68084 -0.52874,0.16781 -0.52873,0.16781 -0.46836,-0.27267 -0.46836,-0.27267 0.33073,-0.008 0.33073,-0.008 v -0.2366 -0.23661 l 0.74248,-0.79483 0.74248,-0.79483 2.0451,-0.72602 2.0451,-0.72603 -0.5522,-0.51446 -0.55221,-0.51446 -1.30934,0.18008 -1.30933,0.18008 v -0.26777 -0.26777 l -0.16115,-0.41996 -0.16116,-0.41996 0.93067,-0.38885 0.93066,-0.38886 0.11787,-0.3373 0.11788,-0.33731 0.52251,0.46302 0.52251,0.46302 h 0.12189 0.12189 l -0.0104,-0.70178 -0.0104,-0.70177 0.29813,-0.10316 0.29813,-0.10315 0.18003,0.46915 0.18003,0.46916 -0.27972,0.0932 -0.27973,0.0932 v 0.24864 0.24863 l 0.65919,-0.43192 0.65919,-0.43191 -0.14564,-0.23564 -0.14563,-0.23565 h 0.25815 0.25815 l 0.0882,0.23241 0.0882,0.2324 0.62928,-0.23644 0.62928,-0.23644 -0.14962,-0.92201 -0.14963,-0.922 h 0.51254 0.51253 v -0.29289 -0.29289 l 0.43041,0.16516 0.43041,0.16517 0.36334,-0.30155 0.36334,-0.30154 v 0.42927 0.42927 h 0.23219 0.23218 l 0.32938,-0.39687 0.32938,-0.39688 h -0.17965 -0.17965 l 0.44732,-0.75725 0.44732,-0.75725 1.08899,0.11905 1.089,0.11905 0.76052,-0.3992 0.76053,-0.39919 0.32981,0.12656 0.32981,0.12656 0.15813,-0.41208 0.15813,-0.41208 h 0.38041 0.38041 l -0.12834,-0.49075 -0.12833,-0.49076 0.94749,-0.55903 0.94749,-0.55903 0.41202,0.1581 0.41203,0.15811 0.14258,-0.54522 0.14257,-0.54522 0.32842,0.12602 0.32841,0.12603 0.2833,-0.34277 0.2833,-0.34277 0.17454,-0.93423 0.17454,-0.93423 -1.07691,-1.61267 -1.0769,-1.61268 v -0.69424 -0.69425 h 0.25876 0.25876 l 1.48243,1.78594 1.48242,1.78594 0.50777,0.98165 0.50778,0.98164 v 0.41101 0.411 l -0.33073,0.59173 -0.33073,0.59172 -0.26352,0.18813 -0.26352,0.18813 0.61009,2.85458 0.61009,2.85458 0.49261,2.77812 0.49261,2.77813 0.42038,5.55625 0.42039,5.55625 0.15436,1.25702 0.15436,1.25702 0.23972,-0.14816 0.23972,-0.14815 v 0.49431 0.49432 l -1.38906,1.19644 -1.38907,1.19643 -1.32291,0.93324 -1.32292,0.93323 -1.5062,0.81395 -1.5062,0.81395 -0.79565,-0.30033 -0.79565,-0.30032 -0.47628,0.40882 -0.47627,0.40882 -1.52136,0.85422 -1.52135,0.85423 v 0.23686 0.23686 l -0.34742,-0.13331 -0.34743,-0.13332 -0.48733,0.53849 -0.48734,0.5385 h -0.23474 -0.23474 l -0.31956,0.26917 -0.31957,0.26916 -0.92604,0.65013 -0.92604,0.65012 -0.66146,0.28612 -0.66146,0.28613 -1.05833,0.71207 -1.05833,0.71207 -0.13494,0.17821 -0.13495,0.1782 -0.72745,0.18258 -0.72745,0.18258 -0.1555,0.25159 -0.15549,0.2516 -0.56961,0.25962 -0.56961,0.25962 -0.53466,0.31937 -0.53465,0.31937 -0.78827,0.54739 -0.78826,0.5474 -1.48399,0.71055 -1.48399,0.71056 -0.71678,0.66429 -0.71678,0.66429 -0.32215,1.11267 -0.32215,1.11267 -2.37187,1.38661 -2.37187,1.3866 -1.9176,0.95665 -1.9176,0.95666 -1.97861,0.14964 -1.9786,0.14964 -0.33713,-0.27861 -0.33713,-0.27861 -1.05833,-0.19343 -1.05833,-0.19342 -1.32292,-0.6711 -1.32292,-0.6711 -0.75829,-0.52194 -0.75829,-0.52194 -0.69692,-0.0303 -0.69691,-0.0303 -0.5219,0.33472 -0.52189,0.33473 h -0.338 -0.33801 v -0.68351 -0.68351 l -0.33072,0.11565 -0.33073,0.11564 0.0787,0.50172 0.0787,0.50171 0.11142,0.33073 0.11141,0.33073 h 0.53747 0.53747 v 0.21167 0.21167 l -0.30829,0.30829 -0.30829,0.30829 -0.28702,-0.36337 -0.28702,-0.36338 -0.59531,0.23177 -0.59532,0.23176 v 0.4228 0.42279 l 0.2739,0.51177 0.27389,0.51178 h 0.38757 0.38756 v 0.74083 0.74083 l -0.3175,0.3175 -0.3175,0.3175 h -0.21167 -0.21166 v -0.44979 -0.44979 l -0.3175,0.3175 -0.3175,0.3175 h -0.19409 -0.1941 l -0.0935,-0.7276 -0.0935,-0.72761 -0.51937,0.88595 -0.51937,0.88596 -0.48223,0.6354 -0.48222,0.6354 h -0.37767 -0.37767 z m 16.07032,-5.64444 -0.063,-0.59532 0.42772,0.0696 0.42773,0.0696 0.33228,-0.40037 0.33227,-0.40036 h 0.56647 0.56646 l 3.17145,-1.61073 3.17145,-1.61073 0.11025,-0.10906 0.11024,-0.10907 -0.1716,-0.17159 -0.17159,-0.1716 -0.99698,0.68676 -0.99698,0.68676 -2.5129,0.83878 -2.51289,0.83878 -1.58815,0.14327 -1.58815,0.14327 -0.32231,0.42101 -0.32232,0.42102 -0.008,0.44987 -0.008,0.44988 0.46303,0.26968 0.46302,0.26969 0.59219,0.008 0.59219,0.008 z m -30.42385,-4.63021 0.11012,-0.33073 h -0.81579 -0.8158 v 0.24253 0.24254 l 0.33073,0.1365 0.33073,0.13649 0.37495,-0.0483 0.37495,-0.0483 z m 1.4668,-3.79829 -0.29633,-0.29633 -0.2628,0.16241 -0.2628,0.16242 0.14367,0.54939 0.14367,0.54938 0.41546,-0.41546 0.41547,-0.41547 z m 42.7185,-6.20399 0.33073,-0.10143 v -0.27288 -0.27289 h -0.92604 -0.92604 v -0.49677 -0.49677 l -0.39375,-0.32678 -0.39374,-0.32678 -0.13543,0.42668 -0.13542,0.42667 -0.11558,0.37498 -0.11559,0.37498 0.37571,0.14417 0.37571,0.14417 -0.15121,0.39405 -0.15122,0.39405 1.01557,-0.14201 1.01557,-0.142 z m -59.10595,-0.70066 0.28358,-0.45033 -0.18745,-0.18745 -0.18746,-0.18746 -0.53079,0.48036 -0.53079,0.48035 v 0.24298 0.24298 l 0.43466,-0.0855 0.43467,-0.0856 z m 67.90335,-4.04758 0.32937,-0.39688 h -0.40763 -0.40763 l -0.36182,-0.13884 -0.36182,-0.13884 v 0.53571 0.53572 h 0.44008 0.44007 z m -77.9198,-1.02976 0.52917,-0.40862 -0.25036,-0.008 -0.25037,-0.008 -1.00641,0.69744 -1.0064,0.69744 v 0.10311 0.1031 l 0.7276,-0.38351 0.7276,-0.3835 z m 72.43091,-0.26833 0.41446,-1.34775 -0.10223,-0.10385 -0.10222,-0.10384 -0.42608,0.35361 -0.42608,0.35361 0.1517,0.75848 0.15169,0.75848 -0.45961,-0.0567 -0.45962,-0.0567 -0.46302,0.20126 -0.46302,0.20127 v 0.22822 0.22821 l 0.88479,-0.0333 0.88478,-0.0333 z m 2.00623,0.0635 0.23401,0.35291 0.16081,-0.41906 0.16081,-0.41905 h 0.83036 0.83036 l -0.19462,-0.46303 -0.19462,-0.46302 -0.12911,-0.59531 -0.12912,-0.59531 h -0.20134 -0.20134 l -0.32938,0.39687 -0.32937,0.39688 -0.29834,0.009 -0.29833,0.009 -0.59531,0.49663 -0.59531,0.49663 v 0.3677 0.36769 l -0.29445,0.29444 -0.29445,0.29445 0.1955,0.31632 0.19549,0.31631 0.62187,-0.75628 0.62186,-0.75628 z m 5.93005,-0.85352 0.46302,-0.35148 v -0.1445 -0.1445 l -0.5205,0.13612 -0.5205,0.13611 -0.30564,0.36828 -0.30565,0.36829 0.36312,-0.008 0.36313,-0.008 z m -1.38906,-0.26228 v -0.36602 l -0.59531,-0.15954 -0.59532,-0.15954 -0.33073,-0.004 -0.33072,-0.004 v 0.37482 0.37483 l 0.33072,0.13345 0.33073,0.13346 0.59532,0.0209 0.59531,0.0209 z m -12.56771,-0.42774 0.47889,-0.52916 h -0.67007 -0.67007 l -0.29468,0.35507 -0.29469,0.35507 0.1741,0.1741 0.17409,0.17409 h 0.31177 0.31177 z m 13.27556,-0.43867 -0.17409,-0.1741 0.2694,-0.3246 0.26939,-0.32461 -0.70684,-0.1774 -0.70684,-0.17741 -0.27823,0.27824 -0.27824,0.27824 0.51494,0.38945 0.51495,0.38945 0.37483,0.008 0.37482,0.008 z m 2.86402,-1.14883 v -0.38963 l -0.46302,-0.0892 -0.46302,-0.0892 v 0.56797 0.56797 l 0.46302,-0.0892 0.46302,-0.0892 z m -11.11712,-2.10919 0.15891,-0.25711 -0.4531,-0.69151 -0.45309,-0.69152 0.36829,-0.22761 0.36829,-0.22762 -0.17937,-0.17936 -0.17936,-0.17937 -0.40829,0.15668 -0.40828,0.15667 v 0.52186 0.52185 l 0.2689,0.16619 0.2689,0.16619 -0.15223,0.2463 -0.15222,0.2463 0.16352,0.26459 0.16353,0.26458 h 0.23335 0.23335 z m 9.37407,-4.87424 0.30611,-0.36884 -0.42491,-0.42491 -0.4249,-0.4249 h -0.10274 -0.10275 l 0.0555,0.79322 0.0555,0.79323 0.16604,5.2e-4 0.16605,5.3e-4 z m -0.63207,-3.62781 0.16937,-0.77111 0.73591,0.52401 0.7359,0.52401 0.69564,-0.32294 0.69563,-0.32294 0.002,-0.21405 0.002,-0.21405 -0.2463,0.15222 -0.2463,0.15222 -0.14575,-0.23582 -0.14575,-0.23583 h -0.71179 -0.7118 l -0.35136,-0.48052 -0.35136,-0.48051 -0.0331,0.31515 -0.0331,0.31515 -0.0661,0.26458 -0.0661,0.26459 -0.0331,0.23372 -0.0331,0.23373 -0.59531,0.19176 -0.59531,0.19177 -0.19844,-0.0286 -0.19844,-0.0286 v 0.29289 0.29289 l -0.3884,-0.14904 -0.3884,-0.14905 -0.14705,0.23793 -0.14704,0.23793 1.31372,-0.0102 1.31373,-0.0102 z m 6.32488,-1.11862 -0.64246,-0.22049 -0.0209,-0.44097 -0.0209,-0.44097 -0.13345,0.33073 -0.13345,0.33073 h -0.50712 -0.50712 v 0.25954 0.25954 l 0.66844,0.16777 0.66843,0.16777 0.29068,0.54313 0.29068,0.54314 0.34481,-0.63972 0.34481,-0.63971 z m 2.10735,-0.33032 0.1606,-0.41851 v -0.11066 -0.11065 h -0.52916 -0.52917 v 0.35278 0.35278 l 0.17639,0.17639 0.17639,0.17638 h 0.19218 0.19217 z m -116.65294,-1.83044 v -0.26459 l -0.59532,-0.0845 -0.59531,-0.0846 v 0.43368 0.43368 l 0.59531,-0.0845 0.59532,-0.0846 z m 118.40104,-1.05834 -0.32937,-0.39687 h -0.36448 -0.36448 v 0.39687 0.39688 h 0.69385 0.69386 z m 1.85209,-9.5333 v -0.40518 l -0.40829,-0.15667 -0.40829,-0.15668 -0.15356,0.15357 -0.15357,0.15357 0.15667,0.40828 0.15668,0.40829 h 0.40518 0.40518 z m -101.84118,-1.74937 0.18201,-0.2945 0.27283,0.16862 0.27284,0.16862 0.3993,-0.3993 0.39931,-0.39931 h 0.55637 0.55637 l 0.1523,-0.39687 0.15229,-0.39688 -0.14668,-0.38223 -0.14667,-0.38223 -1.1384,0.62837 -1.13841,0.62837 -0.9877,0.54103 -0.9877,0.54102 -0.40136,-0.15401 -0.40136,-0.15402 v 0.27084 0.27085 l 0.33073,0.14327 0.33073,0.14327 0.78059,-0.12521 0.7806,-0.1252 z m 0.62854,-2.59745 0.46939,-0.51867 0.16693,0.0399 0.16694,0.0399 0.85989,-0.20372 0.8599,-0.20372 v -0.4865 -0.48651 l 0.16175,-0.42151 0.16175,-0.42152 -0.36019,0.13252 -0.36019,0.13251 -0.37986,-0.24164 -0.37986,-0.24164 0.34611,-0.41704 0.34612,-0.41704 -0.32938,-0.39687 -0.32938,-0.39688 h 0.19709 0.19708 l -0.32937,-0.39687 -0.32938,-0.39688 h 0.61145 0.61146 l -0.61603,-0.57392 -0.61603,-0.57392 -0.32293,0.44163 -0.32292,0.44163 h -0.16097 -0.16096 l 0.13421,-0.34975 0.13421,-0.34975 -0.71385,-0.32525 -0.71384,-0.32525 -0.16574,0.26818 -0.16574,0.26817 -0.58585,-0.1532 -0.58584,-0.1532 -0.0331,-0.36602 -0.0331,-0.36602 -0.0331,-0.33073 -0.0331,-0.33072 -0.58068,-0.0826 -0.58068,-0.0826 0.14549,-0.37913 0.14548,-0.37914 -0.74478,0.3864 -0.74479,0.3864 -0.42835,-0.38765 -0.42835,-0.38766 h -0.19651 -0.1965 l -0.37798,-0.37797 -0.37797,-0.37798 -0.005,-0.21734 -0.005,-0.21733 -1.38455,-0.58091 -1.38455,-0.5809 -1.12221,0.11024 -1.12221,0.11024 -1.20603,0.54941 -1.20603,0.54941 -0.166,0.45042 -0.166,0.45042 -0.26687,0.17827 -0.26687,0.17828 0.34611,0.41704 0.34612,0.41704 h 1.01032 1.01032 l 0.16352,0.26458 0.16352,0.26458 h 0.50525 0.50525 l -0.16068,0.41872 -0.16067,0.41871 0.76429,-0.0617 0.76429,-0.0617 0.44519,0.0399 0.44519,0.0399 0.16812,0.52969 0.16812,0.5297 0.62498,-0.15686 0.62498,-0.15686 -0.14981,0.61935 -0.1498,0.61936 0.35349,-0.33073 0.3535,-0.33073 h 0.74083 0.74084 v 0.27113 0.27113 l 0.66145,0.25149 0.66146,0.25149 v 0.40342 0.40342 h 0.61899 0.61899 l 0.3132,0.68741 0.31321,0.68741 0.39072,-0.15824 0.39073,-0.15824 0.39237,-0.15888 0.39238,-0.15887 -0.28597,0.82033 -0.28597,0.82033 h -0.45036 -0.45037 l -0.32151,-0.3215 -0.3215,-0.3215 0.10277,0.91681 0.10277,0.91682 h 0.95974 0.95974 l -1.7e-4,0.19844 -1.7e-4,0.19843 h 0.22357 0.22358 z m 24.36247,-17.98389 -0.15222,-0.2463 0.2689,-0.16619 0.2689,-0.16619 v -0.24242 -0.24242 l -0.68366,0.25993 -0.68366,0.25993 -0.24238,-0.1498 -0.24238,-0.1498 v 0.13946 0.13945 l 0.7276,0.39474 0.7276,0.39473 0.0818,0.0106 0.0818,0.0106 z m -8.61025,-2.6485 v -0.24897 l -0.2716,-0.16786 -0.2716,-0.16785 0.0732,-0.35958 0.0732,-0.35957 -0.26458,-0.0835 -0.26459,-0.0835 -0.0829,0.85989 -0.0829,0.8599 h 0.54593 0.54593 z m -1.89883,-1.95577 0.0855,-0.44109 h -0.41627 -0.41628 v 0.55121 0.55122 l 0.33073,-0.11012 0.33073,-0.11012 z m 8.10096,73.78295 -0.51359,-0.38846 0.39687,9.6e-4 0.39688,9.6e-4 0.66146,0.37812 0.66145,0.37813 -0.54474,0.009 -0.54474,0.009 z m 37.32779,-5.15814 -0.15756,-0.25493 0.56528,-0.56528 0.56527,-0.56527 0.22946,0.22945 0.22946,0.22946 -0.15448,0.59075 -0.15449,0.59075 h -0.48269 -0.48269 z m 8.23747,-13.82258 -0.15265,-0.58375 0.10287,-0.10288 0.10288,-0.10288 0.8031,0.17639 0.80309,0.17639 -0.31865,0.51025 -0.31865,0.51024 h -0.43467 -0.43466 z m -11.83585,-0.18022 -0.64092,-0.52578 0.29161,-0.4796 0.2916,-0.4796 0.55039,-0.0822 0.55039,-0.0822 0.30905,0.57746 0.30904,0.57746 -0.51012,0.51012 -0.51012,0.51012 z m 13.91502,-0.35433 -0.19338,-0.60148 0.0286,-0.19844 0.0286,-0.19843 h -0.39687 -0.39688 v -0.23373 -0.23372 l 0.52296,-0.13676 0.52296,-0.13676 0.36276,0.72719 0.36277,0.72718 -0.32409,0.44321 -0.32408,0.44321 z m 1.45136,-0.9675 v -0.23372 l 0.58375,-0.15266 0.58376,-0.15265 0.1042,0.10419 0.10419,0.1042 -0.1744,0.28218 -0.1744,0.28219 h -0.51355 -0.51355 z m -37.09551,-2.41043 0.45071,-0.79208 0.19014,-0.002 0.19013,-0.002 -0.14203,0.37011 -0.14202,0.37011 0.28694,0.17734 0.28693,0.17733 -0.15222,0.2463 -0.15222,0.24631 h -0.63354 -0.63354 z m 34.22292,0.55647 -0.35904,-0.2275 0.17067,-0.53775 0.17068,-0.53776 0.41068,-0.15759 0.41068,-0.1576 0.23974,0.14817 0.23973,0.14817 -0.40269,0.77873 -0.4027,0.77874 -0.0594,-0.004 -0.0593,-0.004 z m 41.52977,-3.00554 0.028,-1.91823 0.19465,-2.38125 0.19465,-2.38125 0.0419,4.29948 0.0419,4.29948 h -0.26458 -0.26459 z m -38.65718,-0.8599 v -0.13229 l 0.55562,-0.55562 0.55563,-0.55563 0.29104,0.29104 0.29104,0.29104 h -0.44979 -0.44979 v 0.39688 0.39688 h -0.39688 -0.39687 z m -23.10465,-4.01055 -0.1741,-0.17409 0.26397,-0.31806 0.26397,-0.31807 0.65669,0.12554 0.6567,0.12553 -0.13768,0.22278 -0.13769,0.22277 -0.3884,-0.14904 -0.3884,-0.14905 v 0.29289 0.29289 h -0.22049 -0.22048 z m -15.59089,-5.8013 -0.15456,-0.15456 -1.2786,-0.11083 -1.2786,-0.11082 -0.79375,-0.11455 -0.79375,-0.11454 -1.5875,-0.17163 -1.5875,-0.17162 -0.80983,-0.20705 -0.80984,-0.20704 -0.86083,0.0677 -0.86082,0.0677 0.15536,-0.40488 0.15537,-0.40487 -0.39378,0.32681 -0.39379,0.32681 -1.07272,-0.18124 -1.07273,-0.18124 -0.33033,-0.30658 -0.33033,-0.30659 -0.9212,-0.50924 -0.9212,-0.50924 -0.19438,-0.28451 -0.19439,-0.28451 -0.004,-0.29987 -0.004,-0.29987 0.46302,-0.16332 0.46302,-0.16332 0.33073,-0.15417 0.33073,-0.15417 v 0.44723 0.44723 l 0.37809,-0.14509 0.37808,-0.14508 0.93676,-0.17574 0.93677,-0.17574 -0.0581,-0.43509 -0.0581,-0.43508 0.26458,-0.0766 0.26459,-0.0766 0.0846,0.53965 0.0845,0.53965 h 0.37848 0.37847 v 0.2802 0.28019 l 0.25294,-0.15632 0.25293,-0.15632 0.93769,0.39179 0.93769,0.39179 v -0.12234 -0.12234 l 0.99219,0.41915 0.99218,0.41915 1.01403,0.12619 1.01402,0.12619 -0.17143,-0.54013 -0.17143,-0.54012 0.44471,0.17065 0.44471,0.17065 -0.17358,-0.54693 -0.17359,-0.54692 0.25051,-0.15482 0.2505,-0.15482 -0.15039,-0.59505 -0.15039,-0.59505 -0.28779,-0.20347 -0.28779,-0.20346 0.48874,-0.37368 0.48873,-0.37367 0.33964,0.13033 0.33964,0.13033 -0.20663,0.91618 -0.20663,0.91618 0.13671,0.52282 0.13672,0.52281 h 0.20505 0.20504 l 0.15953,-0.63561 0.15953,-0.63561 -0.16138,-0.80689 -0.16138,-0.80689 0.69199,-0.17368 0.69199,-0.17368 v -0.2359 -0.2359 h 0.26458 0.26459 v 0.39687 0.39688 h -0.25528 -0.25527 l -0.31721,0.59531 -0.31721,0.59531 0.40929,-0.33748 0.4093,-0.33748 0.17067,0.44476 0.17067,0.44476 -0.55655,0.59241 -0.55654,0.59242 0.28448,0.17582 0.28448,0.17581 0.25131,-0.15531 0.25131,-0.15532 0.29113,0.54399 0.29113,0.54399 0.2629,-0.16248 0.2629,-0.16248 0.3737,0.31013 0.37369,0.31014 0.25358,-0.15671 0.25357,-0.15672 0.12182,0.33238 0.12181,0.33237 0.32394,-0.30409 0.32394,-0.3041 -0.16347,-0.51507 -0.16348,-0.51507 -1.05343,-0.34766 -1.05343,-0.34766 v -0.20194 -0.20193 l 0.71432,-0.8802 0.71432,-0.88019 0.0993,-0.13009 0.0993,-0.13009 0.25541,0.45639 0.25541,0.4564 0.50975,-0.31835 0.50976,-0.31834 0.73634,0.55743 0.73635,0.55744 -0.0762,0.69138 -0.0762,0.69137 h 0.25357 0.25358 l 0.17433,-0.79375 0.17434,-0.79375 h 0.25387 0.25386 l -0.53947,-0.57906 -0.53947,-0.57906 v -0.19264 -0.19265 l 0.33073,-0.11127 0.33073,-0.11128 0.43855,0.11369 0.43856,0.11369 0.14337,0.54822 0.14336,0.54821 0.41026,-0.34049 0.41027,-0.34049 v 0.42927 0.42927 h 0.0916 0.0916 l 0.8344,-0.41625 0.8344,-0.41625 v -0.22959 -0.22959 l -0.26458,-0.16352 -0.26458,-0.16353 0.008,-0.31511 0.008,-0.31511 0.64041,0.7276 0.6404,0.7276 h 0.27728 0.27727 v 0.52917 0.52917 h 0.11507 0.11507 l 0.65617,-0.24948 0.65617,-0.24947 0.1548,0.4034 0.1548,0.40341 -0.004,0.30909 -0.004,0.30909 -0.24614,-0.38921 -0.24615,-0.38922 -0.18438,0.18439 -0.18438,0.18438 0.33468,0.40327 0.33468,0.40326 h 0.49677 0.49677 v 0.41528 0.41528 l 0.59532,-0.0846 0.59531,-0.0845 v -0.66146 -0.66145 h 0.39687 0.39688 l -0.0231,0.61491 -0.0231,0.61492 0.52075,-0.13618 0.52075,-0.13618 0.29612,0.31501 0.29611,0.31502 0.45926,0.92604 0.45926,0.92604 0.46448,0.64287 0.46449,0.64286 -0.65916,-0.21481 -0.65916,-0.21481 -0.72761,-0.003 -0.7276,-0.003 -0.008,-0.29276 -0.008,-0.29276 -0.26969,0.46302 -0.26968,0.46302 h -0.51602 -0.51602 v 0.41471 0.4147 l -0.57841,-0.18358 -0.57841,-0.18357 -1.33982,0.0649 -1.33982,0.0649 -0.52917,-0.004 -0.52916,-0.004 -1.12006,-0.14159 -1.12006,-0.14158 -0.13747,0.22242 -0.13747,0.22243 -1.49735,-0.34807 -1.49734,-0.34807 -0.34131,0.13098 -0.34131,0.13097 -0.33004,-0.20398 -0.33004,-0.20397 -0.58825,-0.0257 -0.58826,-0.0258 0.12749,0.20628 0.12749,0.20628 h -0.3243 -0.32429 l 0.16379,0.16379 0.16379,0.16379 -0.36538,0.36537 -0.36538,0.36538 h -0.23938 -0.23939 z m 7.34361,-5.73242 -0.0427,-0.59531 -0.57458,-0.0846 -0.57459,-0.0846 v 0.41528 0.41528 h 0.39688 0.39687 v 0.26458 0.26458 h 0.22037 0.22037 z m 20.26384,3.48325 -0.90162,-0.54966 -2.40567,-1.93369 -2.40567,-1.9337 -3.50573,-3.4506 -3.50573,-3.4506 v -0.19099 -0.19099 l 0.78073,-1.65241 0.78073,-1.65242 1.2132,-0.46332 1.21321,-0.46333 0.61345,0.32831 0.61345,0.32831 1.29522,-0.57868 1.29522,-0.57867 0.66146,-0.3378 0.66146,-0.3378 2.11667,-1.09089 2.11666,-1.09088 0.16858,-10e-4 0.16858,-0.001 0.10364,1.83412 0.10364,1.83413 0.71997,0.56633 0.71997,0.56632 v 0.47757 0.47757 l 0.3935,0.32658 0.39351,0.32658 0.43026,-0.16511 0.43026,-0.16511 -0.13779,-0.52691 -0.13779,-0.52692 0.49585,-0.59435 0.49584,-0.59434 0.0426,0.39687 0.0426,0.39688 0.0613,0.57203 0.0613,0.57203 0.16123,0.42015 0.16123,0.42016 h -0.25628 -0.25628 v 0.64423 0.64424 l -0.22872,0.61254 -0.22872,0.61253 0.16257,1.19063 0.16258,1.19062 0.59531,0.0846 0.59531,0.0845 v -0.41528 -0.41528 l 0.53882,-0.53881 0.53882,-0.53882 -0.13699,-0.22165 -0.13698,-0.22164 0.62185,-0.671 0.62186,-0.67099 0.18158,-0.72348 0.18158,-0.72348 0.21611,0.23671 0.21611,0.23671 0.16804,1.11691 0.16803,1.11691 -0.39879,-0.15303 -0.39879,-0.15303 v 0.40597 0.40598 l 0.71742,0.56432 0.71741,0.56432 -0.28488,0.18249 -0.28488,0.18249 -0.18578,0.59531 -0.18578,0.59531 h 0.4147 0.41471 v 0.2387 0.2387 l 1.32292,-0.65924 1.32291,-0.65924 v -0.15772 -0.15772 l -0.54183,-0.57675 -0.54184,-0.57676 0.77454,-0.15491 0.77453,-0.15491 0.17828,-1.00518 0.17829,-1.00517 0.13723,-0.46687 0.13723,-0.46686 0.20217,0.12494 0.20216,0.12495 0.0371,2.39244 0.0371,2.39244 h -0.23632 -0.23631 l -0.12127,-0.33073 -0.12126,-0.33073 -0.32606,0.30622 -0.32607,0.30622 0.53371,0.28563 0.53371,0.28563 -0.13929,0.53263 -0.13928,0.53263 h 0.26458 0.26458 l 0.13838,-0.52917 0.13838,-0.52917 h 0.28936 0.28935 v 0.2359 0.23591 l 0.64044,0.16073 0.64043,0.16074 0.41638,-0.15978 0.41638,-0.15978 -0.14639,-0.23686 -0.14638,-0.23686 h 0.41249 0.41249 v 0.26459 0.26458 h 0.40517 0.40518 l 0.14314,-0.373 0.14313,-0.37299 0.70846,-0.19823 0.70846,-0.19822 0.43958,0.0547 0.43958,0.0547 0.17135,-0.27725 0.17134,-0.27724 h 0.59013 0.59013 l -0.0104,-0.7276 -0.0104,-0.72761 0.84211,-0.39687 0.8421,-0.39688 0.70473,-2.55558 0.70473,-2.55558 -0.1637,-0.51576 -0.1637,-0.51576 -1.02383,-0.46169 -1.02384,-0.46168 -0.82232,0.18061 -0.82232,0.18061 v -0.96741 -0.96742 l -0.75441,-0.75441 -0.75441,-0.75441 -1.03153,0.23929 -1.03153,0.23928 -0.19844,0.006 -0.19843,0.006 v -0.88503 -0.88504 l -0.46303,-0.39431 -0.46302,-0.3943 -0.87181,-0.3452 -0.87182,-0.34519 -0.64954,0.29594 -0.64953,0.29595 v -0.88469 -0.88468 l -0.52537,-0.6679 -0.52537,-0.6679 0.32693,-0.25275 0.32693,-0.25275 0.50089,-0.1796 0.50089,-0.17959 -0.17257,-0.17257 -0.17258,-0.17258 0.93904,-0.32282 0.93904,-0.32283 0.58473,0.14297 0.58473,0.14297 0.32736,0.25596 0.32736,0.25597 0.35895,-0.13774 0.35895,-0.13774 0.60272,-1.61165 0.60272,-1.61165 h 0.1862 0.1862 l 0.64144,0.69048 0.64143,0.69047 3.43958,2.81048 3.43959,2.81049 2.06545,1.81844 2.06545,1.81844 -0.13817,0.69987 -0.13818,0.69987 -0.17078,0.99219 -0.17079,0.99219 h 0.24109 0.2411 l 0.32139,-1.55605 0.3214,-1.55606 0.88871,-0.60895 0.8887,-0.60895 0.31638,-0.50659 0.31637,-0.5066 -0.10837,-0.10837 -0.10838,-0.10838 -1.1273,0.81662 -1.12731,0.81661 -0.56859,-0.52245 -0.56859,-0.52244 -0.66146,-0.54974 -0.66146,-0.54973 -3.70416,-3.2176 -3.70417,-3.2176 -1.25677,-0.94709 -1.25677,-0.94709 0.006,-0.27425 0.006,-0.27425 1.07482,-0.76068 1.07482,-0.76068 h 0.64809 0.64809 l 0.45425,0.40264 0.45425,0.40263 0.52917,0.095 0.52917,0.095 0.26117,0.59377 0.26118,0.59377 h 0.17913 0.17913 l 0.95671,0.92908 0.9567,0.92909 0.65351,-0.16402 0.65351,-0.16402 v 0.24035 0.24035 l -0.28171,0.28171 -0.2817,0.2817 1.13341,0.89569 1.13342,0.89569 1.46152,1.27699 1.46152,1.27699 0.70487,-0.14097 0.70486,-0.14098 0.43636,0.58378 0.43637,0.58378 -0.15017,-0.49248 -0.15017,-0.49248 0.46602,0.19577 0.46602,0.19578 0.60263,0.13051 0.60263,0.13051 0.78643,0.95408 0.78644,0.95408 v 0.33659 0.33659 h -0.55394 -0.55393 l -0.12974,-0.49609 -0.12973,-0.49609 h -0.58993 -0.58993 l -0.74941,-0.69454 -0.74941,-0.69453 h -0.22595 -0.22595 v 0.53752 0.53751 l 0.54341,1.61309 0.54341,1.61308 -0.60955,0.65328 -0.60956,0.65327 -0.97423,0.49964 -0.97424,0.49964 -0.19564,0.31655 -0.19565,0.31656 0.96981,0.83832 0.9698,0.83833 -0.46626,0.42196 -0.46627,0.42196 -2.90553,1.50535 -2.90554,1.50536 -0.41771,0.36117 -0.41771,0.36116 h -0.32061 -0.32061 l -0.71689,0.49407 -0.71689,0.49407 -2.16817,1.35802 -2.16817,1.35801 h -0.27108 -0.27107 l -1.13263,0.57473 -1.13263,0.57473 -3.70416,2.04065 -3.70417,2.04065 -0.56789,0.17187 -0.56789,0.17187 -1.63795,-0.56684 -1.63795,-0.56685 -1.78401,0.8223 -1.78401,0.82231 -0.90494,-9.9e-4 -0.90494,-9.9e-4 z m 1.2985,-1.30984 v -1.06773 l 1.22807,-0.52642 1.22808,-0.52641 -0.12684,-0.12684 -0.12683,-0.12683 -0.84585,0.29486 -0.84585,0.29487 -0.58612,-0.14002 -0.58612,-0.14002 -0.66146,-0.19285 -0.66145,-0.19285 0.59531,0.65156 0.59531,0.65156 v 0.93104 0.93104 l 0.17639,0.17639 0.17639,0.17639 h 0.22049 0.22048 z m -6.22518,-6.81877 -4.22586,-4.18235 -0.99939,-0.74934 -0.99939,-0.74934 -0.14792,0.14792 -0.14792,0.14792 2.60252,2.49288 2.60252,2.49289 2.51354,2.28142 2.51354,2.28142 0.25711,0.009 0.25711,0.009 z m 5.69601,2.60847 v -0.25095 l -0.62565,-0.67509 -0.62565,-0.67509 h -0.29712 -0.29712 l -1.24859,-1.32292 -1.24859,-1.32291 h -0.34218 -0.34218 l -0.003,-0.33073 -0.003,-0.33073 -1.73417,-1.52136 -1.73417,-1.52135 h -0.24736 -0.24736 v 0.48115 0.48114 l 2.31666,2.12449 2.31665,2.12449 0.8505,0.43981 0.8505,0.43981 0.3034,0.59258 0.30339,0.59257 0.56435,0.45714 0.56434,0.45714 0.46302,0.006 0.46302,0.006 z m -0.22657,-6.56207 0.29125,-0.7276 0.4999,-0.96753 0.49989,-0.96752 -1.03333,-0.81841 -1.03333,-0.81842 h -0.37203 -0.37203 l -0.3175,0.3175 -0.3175,0.3175 v 0.26224 0.26224 l 0.35674,-0.48787 0.35674,-0.48787 0.30544,0.18877 0.30543,0.18877 -0.2653,0.49572 -0.2653,0.49572 v 1.56079 1.5608 l 0.17639,0.17639 0.17639,0.17639 h 0.35845 0.35845 z m 23.39586,-7.52462 0.0745,-0.7116 -0.37375,-0.31019 -0.37375,-0.31018 -0.4277,0.16412 -0.42769,0.16412 0.15143,0.39465 0.15144,0.39464 h -0.38857 -0.38857 v 0.25144 0.25143 l 0.46302,0.2751 0.46302,0.27509 0.50102,-0.0635 0.50102,-0.0635 z m 8.05155,-3.14047 v -0.24897 h -0.54077 -0.54076 l 0.0777,-0.45343 0.0778,-0.45343 -0.46302,-0.0951 -0.46302,-0.0951 v 0.34019 0.34019 l 0.72747,0.58006 0.72747,0.58007 0.19857,-0.12272 0.19857,-0.12272 z m -13.02941,-0.44741 0.10892,-0.33073 h -0.43675 -0.43675 l 0.16795,-0.52916 0.16795,-0.52917 h -0.18593 -0.18593 l -0.60931,0.65746 -0.60931,0.65745 0.44668,0.26595 0.44668,0.26595 0.50844,-0.0635 0.50845,-0.0635 z m 10.91274,-1.33917 v -0.21469 l -0.53947,-0.57906 -0.53947,-0.57906 h -0.36452 -0.36452 l -0.12127,-0.33073 -0.12127,-0.33072 -0.35057,0.33072 -0.35057,0.33073 h 0.44979 0.44979 v 0.25428 0.25428 l 0.57906,0.53947 0.57905,0.53947 h 0.34699 0.34698 z m -78.84187,21.37395 0.28717,-0.53658 0.23505,0.14527 0.23504,0.14527 0.261,-0.46638 0.261,-0.46639 0.17328,0.17328 0.17328,0.17328 -0.44845,0.68441 -0.44844,0.68442 h -0.50805 -0.50805 z m -2.35052,-1.14141 -0.29469,-0.35508 0.15587,-0.15586 0.15586,-0.15586 0.41061,0.15756 0.41061,0.15757 -0.17287,-0.68875 -0.17286,-0.68875 0.26555,-0.16412 0.26556,-0.16412 -0.004,0.61093 -0.004,0.61093 -0.15953,0.59531 -0.15954,0.59531 h -0.20133 -0.20133 z m 2.11122,-0.34847 0.0413,-0.75167 -0.18253,-0.42825 -0.18254,-0.42825 0.61028,-0.16345 0.61027,-0.16345 0.46303,-0.004 0.46302,-0.004 -0.004,0.7276 -0.004,0.72761 -0.22609,-0.35677 -0.22609,-0.35676 -0.49746,0.10789 -0.49746,0.1079 0.0977,0.38116 0.0977,0.38116 0.0345,0.3684 0.0345,0.3684 -0.33676,0.11868 -0.33677,0.11868 z m 98.97825,-2.93448 -0.32393,-3.10885 0.003,-0.96388 0.003,-0.96388 0.39688,-0.1523 0.39687,-0.15229 v 4.22502 4.22503 h -0.076 -0.076 z m -77.57625,2.58579 v -0.27069 h 0.26459 0.26458 v -0.39687 -0.39688 h 0.39688 0.39687 v 0.23416 0.23415 l -0.66146,0.43341 -0.66146,0.4334 z m -27.67409,-2.16825 -0.50403,-0.57465 0.34232,0.20055 0.34232,0.20055 0.31914,-0.26469 0.31913,-0.26469 0.0382,0.63879 0.0382,0.63879 h -0.19559 -0.19559 z m 24.14632,0.13368 -0.17639,-0.17639 v -0.45677 -0.45676 l 0.41851,-0.1606 0.41852,-0.1606 h 0.0648 0.0648 l -0.1165,0.79375 -0.11649,0.79375 h -0.19046 -0.19046 z m -20.6447,-0.27178 -0.16919,-0.1692 v -0.48507 -0.48507 h 0.39687 0.39688 v 0.51356 0.51355 l -0.22768,0.14071 -0.22768,0.14071 z m 29.47219,-0.14715 -0.008,-0.46302 h -0.61534 -0.61534 l -0.62873,-0.66926 -0.62873,-0.66925 -0.34343,0.13178 -0.34343,0.13179 v -0.37926 -0.37926 l 0.52917,-0.28321 0.52916,-0.2832 v -0.25527 -0.25528 h -0.57017 -0.57017 l 0.41572,-0.46302 0.41572,-0.46302 -0.14098,-0.7276 -0.14097,-0.72761 h 0.24486 0.24485 l 0.49044,0.35862 0.49043,0.35861 -0.16372,0.42667 -0.16373,0.42666 0.25009,0.15456 0.25009,0.15456 -0.36917,0.58152 -0.36916,0.58151 0.008,0.72266 0.008,0.72265 0.35221,0.29231 0.35222,0.29231 0.27617,-0.17068 0.27617,-0.17069 v -0.51355 -0.51355 h 0.39688 0.39687 v -0.56156 -0.56157 l -0.44275,0.36313 -0.44276,0.36313 0.17456,-0.66146 0.17456,-0.66146 0.004,-0.35108 0.004,-0.35108 0.83038,0.83038 0.83039,0.83038 -0.28132,0.28132 -0.28131,0.28131 0.64155,0.69189 0.64156,0.69189 v 0.16874 0.16875 l -0.39688,0.32937 -0.39687,0.32938 v -0.29698 -0.29698 h -0.38373 -0.38373 l -0.26968,0.46302 -0.26969,0.46302 z m -29.01168,-1.64097 -0.14743,-0.38421 0.17135,-0.27725 0.17136,-0.27726 h 0.50788 0.50787 l -0.30138,0.66146 -0.30138,0.66146 h -0.23041 -0.23042 z m 23.54792,-1.85209 -0.14743,-0.3842 0.17135,-0.27726 0.17135,-0.27725 0.31512,1.9e-4 0.31511,1.8e-4 0.0382,0.66128 0.0382,0.66127 h -0.37718 -0.37719 z m -25.08403,-0.32149 -0.16927,-0.44112 -0.30883,0.30882 -0.30883,0.30883 h -0.2942 -0.2942 l -0.58988,-0.79785 -0.58987,-0.79785 0.47397,-0.17504 0.47397,-0.17504 0.19439,-0.28388 0.19439,-0.28388 0.004,0.43471 0.004,0.43472 -0.43475,0.16682 -0.43474,0.16683 0.16937,0.16937 0.16937,0.16937 0.90606,0.0605 0.90606,0.0605 0.28536,0.17636 0.28535,0.17636 v 0.38126 0.38126 h -0.23627 -0.23628 z m 11.48974,-2.04842 v -0.62084 l -0.40043,-0.95836 -0.40042,-0.95835 h 0.38481 0.38481 l 0.21,0.33073 0.21,0.33073 0.0269,0.66146 0.0269,0.66146 0.19079,0.42887 0.19079,0.42888 -0.41208,0.15813 -0.41208,0.15813 z m 14.65561,-0.004 -0.14444,-0.37642 0.59556,-0.59556 0.59555,-0.59555 -0.17822,0.46444 -0.17823,0.46445 v 0.50753 0.50753 h -0.27288 -0.27289 z m -17.12505,-1.12289 -0.17639,-0.17639 v -0.18964 -0.18964 l 0.67681,-0.12938 0.67681,-0.12938 -0.14764,0.38476 -0.14765,0.38476 v 0.11065 0.11065 h -0.35278 -0.35278 z m -3.49034,-0.62812 -0.17017,-0.27535 -0.44075,0.13818 -0.44076,0.13818 -0.33073,-0.70933 -0.33073,-0.70933 v -0.31173 -0.31173 l 0.37332,-0.30983 0.37332,-0.30983 0.16017,0.25915 0.16016,0.25915 -0.2689,0.16619 -0.2689,0.16619 v 0.39909 0.39909 l 0.50667,-0.16082 0.50668,-0.16081 0.41937,0.59873 0.41936,0.59873 v 0.20571 0.20571 h -0.24897 -0.24896 z m 10.38584,-0.41387 -0.17834,-0.17834 0.14071,-0.22768 0.14072,-0.22768 h 0.5356 0.5356 l -0.11012,0.33073 -0.11012,0.33073 -0.38785,0.0753 -0.38786,0.0753 z m 7.69371,-1.62589 -0.39767,-0.46302 -0.15678,-0.44368 -0.15678,-0.44367 0.37801,-0.31373 0.37802,-0.31373 0.18517,0.49282 0.18518,0.49282 0.39011,0.29247 0.39012,0.29247 -0.16698,0.43513 -0.16698,0.43514 h -0.23188 -0.23188 z m -12.81171,-0.004 -0.29507,-0.19439 -0.19572,-0.62661 -0.19572,-0.62662 0.3585,0.13052 0.35849,0.13052 -0.0737,0.32045 -0.0737,0.32044 0.53379,0.13958 0.53378,0.13959 -0.14493,0.2345 -0.14493,0.23451 -0.18282,-0.004 -0.18283,-0.004 z m 1.75027,-0.21928 v -0.37198 h 0.2802 0.2802 l -0.13045,-0.21107 -0.13045,-0.21107 0.21755,-0.352 0.21754,-0.35199 0.29417,0.1818 0.29416,0.18181 -0.002,0.4474 -0.002,0.44741 -0.65939,0.30583 -0.6594,0.30584 z m -6.07236,-0.48855 -0.31633,-0.38115 -0.44367,0.13817 -0.44368,0.13816 0.52917,-0.40945 0.52916,-0.40945 0.27358,-0.23065 0.27358,-0.23065 1.11549,-0.17838 1.11548,-0.17837 v 0.26771 0.26771 h -0.26458 -0.26459 v 0.35587 0.35587 l -0.48385,0.43788 -0.48386,0.43788 h -0.40979 -0.40979 z m -2.44296,-1.07518 -0.30189,-0.66257 0.10913,-0.0983 0.10912,-0.0983 0.57398,-0.17622 0.57397,-0.17622 0.17549,0.55292 0.17549,0.55292 -0.31884,0.38418 -0.31884,0.38418 h -0.23786 -0.23786 z m 10.16897,-0.32104 -0.33073,-0.11881 v -0.48507 -0.48507 l -0.33073,-0.12127 -0.33073,-0.12126 0.33073,-0.35058 0.33073,-0.35057 v 0.28882 0.28881 l 0.66146,0.16602 0.66146,0.16602 v 0.35943 0.35944 l -0.33073,0.26145 -0.33073,0.26146 z m -1.90885,-0.51569 0.009,-0.22048 0.3915,-0.66146 0.3915,-0.66146 -0.0702,0.77335 -0.0701,0.77334 -0.33073,0.1086 -0.33073,0.1086 z m -1.3323,-2.60173 v -0.66146 l -0.33073,-0.008 -0.33073,-0.008 0.5136,-0.38846 0.51359,-0.38846 h 0.39922 0.39922 l -0.3175,0.3175 -0.3175,0.3175 v 0.74083 0.74084 h -0.26458 -0.26459 z m -2.38125,-0.28935 v -0.42165 l -0.52916,-0.13838 -0.52917,-0.13838 v -0.33516 -0.33516 l 0.5289,-0.13831 0.52891,-0.13831 0.14817,0.23975 0.14817,0.23974 h 0.24896 0.24897 v -0.44979 -0.44979 l 0.2894,0.28939 0.28939,0.2894 -0.0975,0.49112 -0.0975,0.49113 -0.65493,-0.089 -0.65494,-0.089 0.33073,0.34037 0.33073,0.34038 v 0.21166 0.21167 h -0.26458 -0.26459 z m -5.13192,-1.05744 -0.16146,-0.42076 0.15143,-0.24502 0.15143,-0.24502 0.2463,0.15222 0.24631,0.15222 v 0.51356 0.51355 h -0.23628 -0.23628 z m 25.30871,-1.00565 -0.85759,-0.60669 0.17408,-0.17408 0.17408,-0.17408 h 0.48507 0.48507 v 0.52916 0.52917 h 0.39688 0.39687 v 0.26458 0.26459 l -0.19843,-0.013 -0.19844,-0.013 z m -57.72629,-21.33651 0.0357,-19.85249 0.33747,0.28008 0.33747,0.28007 0.15489,-0.40363 0.15488,-0.40362 h 0.40518 0.40518 v 0.3175 0.3175 l 0.31651,-0.31651 0.31651,-0.31651 -0.51495,-0.38945 -0.51494,-0.38946 -0.19844,-0.008 -0.19844,-0.008 v 0.39687 0.39688 h -0.41627 -0.41628 l 0.0856,-0.41498 0.0855,-0.41498 0.79375,-0.44492 0.79375,-0.44492 0.11655,-0.0724 0.11654,-0.0724 -0.43755,-0.43755 -0.43755,-0.43755 -0.16974,0.44233 -0.16974,0.44233 -0.24762,-0.15304 -0.24762,-0.15303 0.15472,-0.48748 0.15472,-0.48748 -0.40854,-0.97778 -0.40854,-0.97778 v -2.994778 -2.994781 l 0.28602,-0.176771 0.28602,-0.176772 -0.16155,-0.643671 -0.16155,-0.643671 0.33855,-0.334456 0.33855,-0.334456 0.49108,-0.186099 0.49109,-0.186098 -0.1654,-0.658993 -0.16539,-0.658993 h 0.28524 0.28523 l -0.16544,0.267691 -0.16544,0.26769 0.82068,0.164137 0.82069,0.164136 0.24587,0.459427 0.24588,0.459426 -0.16708,0.16708 -0.16708,0.16708 h -0.62842 -0.62843 l -0.5807,0.541008 -0.58071,0.541008 0.37282,0.230413 0.37281,0.230412 0.50473,-0.64165 0.50472,-0.64165 0.24771,0.153095 0.24771,0.153095 -0.17343,0.280626 -0.17344,0.280626 0.36756,-0.121195 0.36756,-0.121195 0.0791,-0.532975 0.0791,-0.532976 1.24182,-0.284169 1.24182,-0.284168 0.15544,0.251517 0.15545,0.251517 0.45458,-0.174439 0.45458,-0.174438 0.37575,0.496206 0.37575,0.496207 0.008,0.434713 0.008,0.434713 0.41851,0.160599 0.41851,0.1606 h 0.11676 0.11675 l -0.44051,-0.672297 -0.4405,-0.672297 0.32029,-0.702967 0.32029,-0.702967 0.21683,0.350828 0.21682,0.350827 0.28261,-0.174662 0.28261,-0.174662 -0.1657,-0.431805 -0.1657,-0.431806 0.32114,0.198474 0.32113,0.198473 0.42831,-0.353507 0.42832,-0.353508 0.11131,0.33073 0.11131,0.330729 h 0.26356 0.26356 l -0.17434,-0.79375 -0.17434,-0.79375 h 0.28561 0.28561 v 0.261559 0.261559 l 0.44505,0.519781 0.44505,0.519781 0.0407,0.552779 0.0407,0.552779 -0.2212,0.136704 -0.22119,0.136704 0.008,0.315115 0.008,0.315114 0.41882,-0.529167 0.41882,-0.529166 0.1232,0.328366 0.12319,0.328367 0.39451,-0.394513 0.39451,-0.394512 h 0.37798 0.37798 v 0.396875 0.396875 h -0.39688 -0.39687 v 0.293266 0.293266 l 0.66145,-0.166015 0.66146,-0.166015 v 0.401915 0.401916 l 0.33073,0.01059 0.33073,0.01059 -0.7764,0.420298 -0.7764,0.420297 0.433,0.316613 0.43299,0.316612 -0.15047,0.575413 -0.15048,0.575414 h -0.70402 -0.70402 l -0.60581,0.424326 -0.60581,0.424327 0.15644,0.407687 0.15645,0.407687 -0.44426,0.490902 -0.44427,0.4909 h -0.31165 -0.31165 l 0.0428,0.58021 0.0427,0.5802 0.30992,0.1033 0.30991,0.10331 v 0.9323 0.9323 l -0.3884,-0.14904 -0.3884,-0.14905 -0.15638,0.25303 -0.15638,0.25303 h 0.41249 0.41249 v 0.51027 0.51026 l -0.42838,0.42838 -0.42837,0.42837 0.15238,0.15238 0.15238,0.15238 0.40828,-0.15668 0.40829,-0.15667 0.005,-0.47132 0.005,-0.47133 0.62803,-0.59531 0.62804,-0.59531 h 0.16114 0.16115 l -0.002,0.46302 -0.002,0.46302 -0.79135,0.62509 -0.79135,0.6251 v 0.36709 0.36709 h 0.14543 0.14543 l 0.74855,-0.38709 0.74855,-0.38709 0.15605,-0.40666 0.15605,-0.40666 h 0.27288 0.27289 v 0.51602 0.51602 l -0.42583,0.23831 -0.42584,0.23831 0.41736,0.16016 0.41737,0.16015 0.15638,-0.25302 0.15638,-0.25303 h 0.24066 0.24066 l -0.15229,0.39687 -0.1523,0.39688 h 0.26204 0.26203 l 0.14351,0.5488 0.14352,0.5488 0.5488,0.14352 0.5488,0.14351 v 0.33599 0.33599 l 0.77987,0.11446 0.77987,0.11446 0.4769,-0.26764 0.4769,-0.26764 0.84035,-0.0868 0.84035,-0.0868 0.16539,0.52108 0.16538,0.52107 0.35657,-0.13683 0.35656,-0.13683 0.15476,0.25041 0.15476,0.25041 -0.8556,0.17897 -0.8556,0.17898 0.7276,0.39085 0.72761,0.39086 v 0.25613 0.25614 h 0.39687 0.39688 v -0.24897 -0.24897 l -0.26458,-0.16352 -0.26459,-0.16352 v -0.24897 -0.24897 h 0.52917 0.52917 v -0.39688 -0.39687 h 0.40254 0.40255 l 0.29116,0.63903 0.29117,0.63904 0.54283,0.14195 0.54283,0.14195 0.24172,-0.14939 0.24171,-0.14939 -0.14427,-0.55168 -0.14426,-0.55168 0.27068,-0.32616 0.27069,-0.32615 0.022,-0.7731 0.022,-0.7731 0.95303,-0.32552 0.95303,-0.32552 0.88737,-0.40038 0.88736,-0.40038 0.25756,0.25756 0.25755,0.25755 0.97175,-0.22579 0.97174,-0.2258 0.19844,-0.006 0.19844,-0.006 v 0.39687 0.39688 h 0.39687 0.39688 v 0.2826 0.2826 l 0.79375,-0.5652 0.79375,-0.5652 v 0.2826 0.2826 h 0.28224 0.28223 l 0.95303,-0.72692 0.95303,-0.72691 0.51801,0.0878 0.51801,0.0878 0.75985,-0.83193 0.75985,-0.83193 0.265,0.16378 0.265,0.16378 v -0.41249 -0.41249 h 0.26458 0.26459 v 0.30156 0.30156 l -0.46302,0.35555 -0.46303,0.35555 0.59532,0.1675 0.59531,0.1675 v 0.37169 0.37169 l -0.7276,0.28873 -0.72761,0.28873 -0.69048,0.36008 -0.69048,0.36008 -0.16299,-0.16299 -0.16299,-0.16299 -0.85674,0.83762 -0.85674,0.83762 -1.90985,0.90652 -1.90985,0.90653 -0.81171,-0.23279 -0.81171,-0.2328 -0.0331,0.11382 -0.0331,0.11383 -0.0331,0.33072 -0.0331,0.33073 -0.55232,0.0789 -0.55232,0.0789 -0.37372,-0.45267 -0.37373,-0.45267 0.33073,-0.11131 0.33073,-0.11132 v -0.37482 -0.37483 h -0.39687 -0.39688 v -0.53571 -0.53572 l 0.67738,-0.25754 0.67738,-0.25754 -0.16383,-0.26508 -0.16382,-0.26507 h -0.64585 -0.64584 v 0.66649 0.6665 l -0.68765,-0.17259 -0.68765,-0.17258 0.10193,0.49827 0.10193,0.49828 0.44385,-0.0756 0.44386,-0.0755 -0.40376,0.96633 -0.40376,0.96632 0.14688,0.38276 0.14688,0.38276 0.29604,-0.18296 0.29603,-0.18296 0.21987,0.35576 0.21986,0.35575 -0.28428,0.34254 -0.28428,0.34253 -0.34041,-0.46554 -0.34041,-0.46553 -0.20243,0.20243 -0.20243,0.20243 0.31309,0.31309 0.31309,0.31309 v 0.18368 0.18367 l -0.66146,0.028 -0.66146,0.028 -0.66146,0.028 -0.66145,0.028 v 0.90636 0.90635 l 0.39687,0.1523 0.39688,0.15229 v 0.36857 0.36857 h 0.35824 0.35824 l 0.70413,0.65257 0.70414,0.65257 -0.82819,0.42828 -0.8282,0.42828 -0.2871,-0.2871 -0.2871,-0.2871 h -0.23997 -0.23998 l 0.14464,0.37691 0.14463,0.3769 -0.57935,0.37182 -0.57934,0.37182 -1.76181,0.67461 -1.7618,0.67461 -0.89975,0.68628 -0.89976,0.68627 -0.61783,1.2371 -0.61784,1.23711 -0.33535,1.75994 -0.33534,1.75994 0.22662,1.97095 0.22663,1.97095 0.51219,1.45521 0.5122,1.4552 0.67198,1.5065 0.67197,1.50649 -0.3096,0.24743 -0.3096,0.24742 -1.15395,0.5816 -1.15395,0.5816 -3.60855,1.46424 -3.60855,1.46424 -1.5875,0.65802 -1.5875,0.65803 -2.51354,1.00828 -2.51354,1.00828 -1.5289,0.6855 -1.5289,0.6855 h -0.13192 -0.13193 z m 10.66386,-16.78299 0.42731,-0.65215 v -0.40619 -0.40618 l -0.19844,0.004 -0.19844,0.004 -0.39687,0.28068 -0.39688,0.28067 0.33073,0.1342 0.33073,0.1342 v 0.24253 0.24254 l -0.31501,-0.0661 -0.31502,-0.0662 -0.10126,0.46302 -0.10126,0.46303 h 0.25356 0.25355 z m -2.33095,-0.25886 0.16224,-0.64642 -0.17548,-0.28394 -0.17548,-0.28393 -0.23475,0.14508 -0.23474,0.14508 0.14904,0.3884 0.14904,0.3884 h -0.29289 -0.29289 v 0.39688 0.39687 h 0.39184 0.39183 z m 24.97484,-0.61035 -0.008,-0.19844 -0.39105,-0.51713 -0.39105,-0.51713 -0.43751,0.43752 -0.43752,0.43752 0.57239,-0.14968 0.5724,-0.14969 v 0.42774 0.42773 h 0.26459 0.26458 z m -30.342,-0.59531 0.13838,-0.52917 h -0.63893 -0.63893 l 0.33047,0.52917 0.33047,0.52917 h 0.17008 0.17008 z m 7.06709,-0.56578 v -0.24458 l -0.40829,-0.15667 -0.40829,-0.15668 -0.15356,0.15357 -0.15357,0.15357 0.15496,0.40382 0.15496,0.40383 0.40689,-0.15614 0.4069,-0.15614 z m -3.175,-0.91986 v -0.36644 h -0.24295 -0.24294 l -0.37124,-0.14246 -0.37123,-0.14246 0.0153,0.90131 0.0153,0.9013 0.59888,-0.3924 0.59889,-0.3924 z m 28.82357,0.90507 0.50597,-0.31598 0.68106,0.31031 0.68106,0.31031 v -0.36289 -0.3629 l -0.41851,-0.1606 -0.41852,-0.1606 h -0.50752 -0.50753 v 0.26459 0.26458 l -0.29766,-0.0662 -0.29765,-0.0661 -0.12127,0.33073 -0.12127,0.33073 h 0.15793 0.15793 z m -24.63475,-2.83829 0.0878,-0.59929 -0.61696,0.18673 -0.61695,0.18673 -0.26458,0.27366 -0.26458,0.27366 0.303,-0.16959 0.30301,-0.16959 0.16015,0.41736 0.16016,0.41736 0.33059,-0.10887 0.33059,-0.10887 z m -3.04887,-0.91002 0.44755,0.0367 v -0.23519 -0.23518 l -0.33073,-0.0127 -0.33073,-0.0127 0.92604,-0.46694 0.92604,-0.46694 -0.0724,-0.33279 -0.0724,-0.3328 0.57749,-0.46762 0.5775,-0.46763 -0.19001,-0.30743 -0.19,-0.30744 h -0.38957 -0.38956 l -0.14588,0.38017 -0.14589,0.38017 -0.36231,-0.13903 -0.3623,-0.13903 -0.27929,0.17261 -0.27928,0.1726 0.3989,0.39891 0.39891,0.3989 v 0.25136 0.25136 l -0.66146,0.30138 -0.66146,0.30138 v 0.22211 0.22212 h -0.42518 -0.42518 l 0.1606,0.41851 0.1606,0.41852 0.004,0.44138 0.004,0.44138 0.3423,-0.66146 0.34231,-0.66146 z m -4.36436,-0.0929 0.0829,-0.57991 -0.5459,-0.34093 -0.54591,-0.34092 v -0.31433 -0.31434 l 0.40953,-0.40952 0.40953,-0.40953 -0.28655,-0.53542 -0.28654,-0.53541 h -0.46694 -0.46695 l -0.31309,-0.31309 -0.31309,-0.31309 -0.17917,0.17918 -0.17918,0.17917 0.45742,0.50545 0.45742,0.50544 -0.3488,0.62066 -0.3488,0.62066 -0.26458,0.19439 -0.26458,0.19438 0.7276,0.004 0.7276,0.004 v 0.26458 0.26458 h 0.39688 0.39687 v 0.16927 0.16927 l -0.46302,0.35487 -0.46302,0.35487 0.39688,0.26928 0.39687,0.26928 0.39688,-0.0685 0.39687,-0.0685 z m 5.77928,-4.61289 0.60461,-0.568004 0.39647,0.329041 0.39647,0.329043 0.7053,-0.554792 0.7053,-0.55479 h -0.43255 -0.43256 V 98.709934 98.37186 l -0.52916,-0.453087 -0.52917,-0.453086 v 0.36484 0.364839 l -0.88476,0.165982 -0.88476,0.165983 -1.28521,0.130046 -1.28521,0.130047 0.50524,-0.369442 0.50524,-0.369441 0.34181,0.131166 0.34182,0.131166 V 97.88569 97.460508 h 0.39687 0.39688 v -0.396875 -0.396875 h 0.36856 0.36857 l 0.16306,0.424939 0.16307,0.424939 0.64323,-0.161441 0.64323,-0.16144 0.39306,0.561166 0.39305,0.561166 1.01177,-0.268153 1.01177,-0.268152 -0.7276,-0.02735 -0.72761,-0.02735 v -0.256279 -0.25628 l 0.44281,0.169922 0.44281,0.169922 -0.16472,-0.429265 -0.16473,-0.429264 0.4867,-0.154472 0.48669,-0.154472 -0.30176,-0.650758 -0.30176,-0.650759 -0.21733,-0.0021 -0.21734,-0.0021 -0.38821,0.388213 -0.38822,0.388213 -0.74829,-0.14966 -0.7483,-0.149659 -0.17255,0.687488 -0.17255,0.687488 h -0.25954 -0.25954 l 0.0661,-0.31315 0.0661,-0.31315 -1.45466,-0.287754 -1.45466,-0.287754 -0.0264,-0.391284 -0.0264,-0.391283 -0.0403,-0.330729 -0.0403,-0.330729 h -0.25628 -0.25628 l 0.1523,0.396875 0.15229,0.396875 h -0.27084 -0.27084 l -0.0929,-0.278777 -0.0929,-0.278776 -0.55716,0.212631 -0.55716,0.21263 0.22264,0.595312 0.22263,0.595313 h 0.27311 0.27311 l 0.0209,0.463021 0.0209,0.463021 0.13346,-0.33073 0.13345,-0.330729 h 0.64771 0.64772 l 0.16486,0.429628 0.16486,0.429628 -0.4676,0.261685 -0.46761,0.261685 -0.49931,0.499312 -0.49931,0.499312 h -0.29698 -0.29698 l 0.33208,0.400138 0.33209,0.400138 0.33821,-0.280694 0.33822,-0.280694 0.16432,0.265876 0.16432,0.265876 0.3884,-0.149044 0.3884,-0.149044 v 0.478099 0.478096 l 0.3175,-0.317497 0.3175,-0.3175 h 0.36179 0.36179 l -0.16795,0.529167 -0.16795,0.52917 h 0.19921 0.19921 z m -7.05279,-0.457939 v -0.232186 l -0.38529,-0.319758 -0.38528,-0.319759 -0.26462,0.163543 -0.26462,0.163543 0.14905,0.388402 0.14904,0.388402 h 0.50086 0.50086 z m 78.42065,46.909509 0.1606,-0.41851 v -0.11065 -0.11066 h 0.50086 0.50086 l 0.15942,-0.41543 0.15941,-0.41543 0.5965,0.0847 0.59649,0.0847 v 0.26458 0.26458 l -1.19062,0.58441 -1.19063,0.5844 -0.22674,0.0109 -0.22675,0.0109 z m -5.54219,-0.1337 -0.17777,-0.28764 0.27139,-0.27139 0.2714,-0.2714 0.28763,0.17777 0.28764,0.17777 v 0.38126 0.38126 h -0.38126 -0.38126 z m 1.27102,-0.41676 -0.33073,-0.13345 0.002,-0.30868 0.002,-0.30868 0.81352,-0.46303 0.81351,-0.46302 h 0.37544 0.37543 l 1.6e-4,-0.19843 1.5e-4,-0.19844 1.71616,-0.79375 1.71615,-0.79375 0.003,-0.19844 0.003,-0.19844 0.46303,-0.008 0.46302,-0.008 0.48951,-0.37085 0.48952,-0.37086 -0.19192,-0.31053 -0.19192,-0.31054 0.5623,0.17847 0.5623,0.17847 v -0.25411 -0.2541 l -0.34322,-0.13171 -0.34322,-0.1317 -1.04584,0.3839 -1.04585,0.38391 -1.52968,0.37982 -1.52968,0.37982 -1.08467,0.59644 -1.08466,0.59645 -0.69295,0.36496 -0.69294,0.36497 -0.52917,0.46452 -0.52916,0.46452 -0.59532,0.18053 -0.59531,0.18053 v -0.22099 -0.221 l 0.64699,-0.95213 0.64699,-0.95213 1.40353,-0.92402 1.40353,-0.92403 0.92604,-0.40807 0.92605,-0.40808 0.92604,-0.31997 0.92604,-0.31997 1.0366,-0.20794 1.0366,-0.20794 1.03113,0.36381 1.03114,0.36381 0.71039,0.55571 0.71039,0.55572 0.7276,1.07726 0.72761,1.07726 v 0.43846 0.43846 l -1.74171,0.86682 -1.74172,0.86682 -0.13453,-0.13453 -0.13452,-0.13453 0.1806,-0.56904 0.18061,-0.56905 0.14292,0.14292 0.14292,0.14293 0.5149,-0.27557 0.5149,-0.27557 -0.15887,-0.414 -0.15887,-0.41401 0.37938,0.31485 0.37938,0.31486 0.1567,-0.25356 0.15671,-0.25355 -0.16146,-0.42075 -0.16146,-0.42075 h -0.36856 -0.36857 v 0.28241 0.28241 l -0.53047,-0.16836 -0.53047,-0.16837 -0.16228,0.4229 -0.16228,0.42289 -0.33332,-0.45584 -0.33332,-0.45584 -0.18226,0.82984 -0.18226,0.82984 -0.37694,-0.14464 -0.37694,-0.14465 -0.16586,0.43222 -0.16585,0.43221 -0.47557,-0.15094 -0.47557,-0.15094 -0.17811,0.28819 -0.17811,0.2882 -0.34101,-0.28301 -0.341,-0.28301 -0.13984,0.53474 -0.13984,0.53475 h -0.53832 -0.53832 l -0.17467,0.28262 -0.17467,0.28262 -0.36164,-0.13878 -0.36164,-0.13877 -0.15638,0.25303 -0.15638,0.25303 -0.18282,-0.0209 -0.18282,-0.0209 z m -26.1276,-0.99725 -1.85209,-0.87196 0.86222,0.0573 0.86222,0.0573 0.46761,0.42318 0.46761,0.42319 1.11757,0.1787 1.11756,0.17871 v 0.23077 0.23076 l -0.59531,-0.018 -0.59531,-0.018 z m 60.30672,-1.50294 -0.18181,-0.29416 0.36463,-0.2307 0.36462,-0.2307 0.26459,0.0838 0.26458,0.0838 0.0855,0.44109 0.0855,0.4411 h -0.53295 -0.53295 z m -66.79561,-2.88491 -0.37496,-0.23173 0.12463,-0.10946 0.12463,-0.10946 0.72761,-0.17455 0.7276,-0.17456 v 0.26032 0.26032 l -0.47728,0.25543 -0.47727,0.25543 z m -16.25047,-5.35374 -0.20447,-0.7276 0.16602,-0.66146 0.16601,-0.66146 h 0.64295 0.64296 l 0.67492,0.88487 0.67492,0.88487 v 0.34489 0.34488 l -0.60461,-0.89719 -0.60462,-0.8972 -0.41366,-0.0797 -0.41366,-0.0797 -0.26115,1.13616 -0.26115,1.13617 z m 9.12659,-3.22514 -0.3161,-0.38088 0.0889,-0.7436 0.0889,-0.74361 0.45939,0.84676 0.45939,0.84676 v 0.27772 0.27772 h -0.23218 -0.23219 z m 2.63256,-2.01161 v -1.06957 l 1.65364,-0.78655 1.65365,-0.78656 0.46302,0.56252 0.46302,0.56252 v 0.34973 0.34973 l -0.58081,0.18434 -0.5808,0.18434 -1.2344,0.75954 -1.23439,0.75953 h -0.30147 -0.30146 z m 13.03073,-0.11864 -0.8599,-0.37375 v -0.12551 -0.12551 l 4.00639,-2.02519 4.00638,-2.02519 0.4717,-0.29458 0.47171,-0.29459 0.16411,-0.87478 0.16411,-0.87478 0.31874,0.002 0.31874,0.002 0.75784,0.39525 0.75785,0.39524 h 0.3447 0.34469 l 1.2295,0.52703 1.2295,0.52702 -0.1705,0.27588 -0.1705,0.27587 -2.0368,1.00579 -2.0368,1.0058 -0.70384,0.17665 -0.70384,0.17666 -0.16412,-0.26556 -0.16412,-0.26555 h -0.28137 -0.28136 l 0.30851,0.37174 0.30852,0.37174 -0.84594,0.42201 -0.84593,0.42201 h -0.35623 -0.35622 v 0.26458 0.26458 h -0.52917 -0.52917 v 0.26459 0.26458 h -0.64584 -0.64584 l -0.16352,0.26458 -0.16353,0.26459 -0.84428,-0.0104 -0.84428,-0.0104 z m 76.31155,-1.42371 -3.08444,-1.55358 -0.33257,-0.26653 -0.33256,-0.26652 -1.64938,-0.59504 -1.64938,-0.59504 -0.2817,-0.33942 -0.2817,-0.33943 0.28907,-0.17865 0.28907,-0.17865 0.64051,0.41968 0.64051,0.41968 h 0.15944 0.15943 l -0.16796,-0.52917 -0.16795,-0.52916 h 0.28242 0.28241 v -0.68679 -0.68678 l 0.4629,-0.78363 0.4629,-0.78363 -0.65961,-0.49754 -0.65961,-0.49755 0.474,-0.1819 0.47401,-0.18189 0.38481,0.49621 0.38481,0.4962 -0.14872,-0.43037 -0.14872,-0.43038 0.61109,-0.15393 0.6111,-0.15393 -0.0293,-1.13549 -0.0293,-1.13548 -0.0368,-0.46302 -0.0368,-0.46302 h -0.39688 -0.39687 l 0.004,-0.33073 0.004,-0.33073 0.15954,-0.59531 0.15954,-0.59531 h 0.33362 0.33362 l 0.32938,-0.39688 0.32937,-0.39687 -0.6277,-0.0314 -0.62772,-0.0313 -0.33073,0.0429 -0.33073,0.0429 v -0.27618 -0.27618 h 0.39688 0.39687 v -0.24897 -0.24897 l -0.28262,-0.17467 -0.28262,-0.17467 0.14846,-0.38687 0.14845,-0.38687 -0.3844,-0.74336 -0.38441,-0.74336 -0.52444,-0.13715 -0.52444,-0.13714 -0.14761,0.14761 -0.14762,0.14761 v 0.59532 0.59531 l 0.33073,0.13734 0.33073,0.13734 -0.62462,0.54616 -0.62463,0.54617 h -0.24182 -0.24182 l -0.25991,-0.68361 -0.2599,-0.68361 0.45579,-0.7716 0.4558,-0.77159 h 0.32952 0.32952 l 0.53947,-0.57906 0.53948,-0.57906 v 0.41437 0.41437 l 0.36334,0.30154 0.36334,0.30155 0.43041,-0.16517 0.43041,-0.16516 v -0.36353 -0.36352 l 0.66489,-0.16688 0.6649,-0.16688 0.39344,0.32653 0.39344,0.32652 v 0.36448 0.36448 h -0.52917 -0.52917 v 0.52917 0.52916 h -0.54806 -0.54807 l 0.42315,0.42315 0.42315,0.42315 0.3895,-0.32325 0.3895,-0.32326 0.0305,0.23084 0.0305,0.23083 0.0356,0.39688 0.0356,0.39687 0.59531,0.0846 0.59532,0.0845 v -0.51518 -0.51517 l 0.37916,-0.31468 0.37917,-0.31468 0.6769,0.44352 0.67689,0.44351 -0.12201,0.19743 -0.12202,0.19742 0.64489,-0.12328 0.6449,-0.12328 0.16916,-0.53299 0.16917,-0.53299 -0.35905,-0.2275 -0.35904,-0.2275 -0.59531,-0.004 -0.59531,-0.004 v -0.2929 -0.29289 l 0.39687,0.1523 0.39688,0.15229 0.39687,-0.15229 0.39688,-0.1523 0.008,-0.83158 0.008,-0.83159 0.27567,0.47372 0.27567,0.47372 -0.12294,2.17211 -0.12293,2.17211 -0.11136,0.66146 -0.11135,0.66146 0.23396,0.48076 0.23396,0.48077 -0.41568,0.6344 -0.41568,0.63441 v 0.1416 0.1416 h 0.39688 0.39687 v 0.21167 0.21167 l -0.3175,0.3175 -0.3175,0.3175 0.3175,0.3175 0.3175,0.3175 v 5.50333 5.50333 h -0.22102 -0.22101 z m 1.40981,-7.67228 v -0.16996 l -0.78938,-0.34942 -0.78938,-0.34941 -0.44547,0.0864 -0.44547,0.0864 -0.0891,0.26756 -0.0891,0.26756 0.59631,0.26506 0.5963,0.26506 0.72761,-0.0996 0.7276,-0.0996 z m 0.77454,-2.36336 0.41608,-0.34443 -0.59531,0.16382 -0.59531,0.16383 v -0.29505 -0.29505 l 0.66145,-0.61302 0.66146,-0.61302 v -0.77664 -0.77663 l -0.28159,-0.2816 -0.28159,-0.28159 0.40128,-0.40128 0.40129,-0.40129 -0.16379,-0.16379 -0.16379,-0.16379 h -0.48507 -0.48507 v 0.26459 0.26458 l -0.59531,0.0209 -0.59532,0.0209 0.32119,0.13027 0.32119,0.13027 -0.31278,0.50085 -0.31279,0.50084 -0.58523,-0.14688 -0.58524,-0.14689 0.14467,0.55321 0.14467,0.55322 h 0.21811 0.21811 l 0.17553,-0.28402 0.17553,-0.28401 0.39222,0.55996 0.39221,0.55996 -0.31994,0.38551 -0.31995,0.38551 0.28353,0.34163 0.28353,0.34163 -0.51572,0.32207 -0.51571,0.32207 v 0.1996 0.19961 l 0.59531,0.26783 0.59531,0.26783 0.24538,-0.40353 0.24538,-0.40353 z m -104.7558,9.93562 v -0.89109 l -0.35649,-0.48753 -0.35649,-0.48752 -0.18829,0.30466 -0.18829,0.30467 h -0.38736 -0.38736 l 0.4334,-0.66146 0.43341,-0.66146 h 0.61541 0.61541 l 0.16619,0.2689 0.16619,0.2689 0.22497,-0.13904 0.22497,-0.13904 0.41821,0.4182 0.4182,0.41821 v 0.22091 0.22092 l -0.49558,-0.1296 -0.49558,-0.12959 -0.17612,0.93883 -0.17613,0.93884 -0.25434,0.15718 -0.25433,0.15719 z m 10.83861,-2.19407 -0.33868,-0.40809 -0.2758,0.2758 -0.2758,0.2758 h -0.51116 -0.51117 l -0.89112,-0.55075 -0.89113,-0.55075 v -0.4206 -0.42061 l -0.42279,-0.46718 -0.4228,-0.46719 0.17383,-0.28125 0.17382,-0.28126 h 1.25673 1.25674 l 0.41701,0.33073 0.417,0.33073 0.14493,0.39688 0.14492,0.39687 0.18378,-0.60613 0.18379,-0.60613 0.29704,0.0997 0.29704,0.0997 v 0.50639 0.50639 l 0.59531,0.0846 0.59532,0.0845 v -0.28299 -0.28298 h -0.26459 -0.26458 v -0.47625 -0.47625 l -0.29972,-0.29972 -0.29971,-0.29971 0.17773,-0.46316 0.17772,-0.46315 0.52383,0.52383 0.52383,0.52383 0.51128,1.34557 0.51128,1.34558 -0.14186,0.14186 -0.14187,0.14186 -0.78476,-0.27357 -0.78476,-0.27357 -0.17727,0.17727 -0.17727,0.17727 0.3722,0.23003 0.3722,0.23003 -0.34611,0.41704 -0.34612,0.41704 h -0.19979 -0.19979 z m 77.26764,-4.34122 -0.39687,-0.22028 -2.77813,-1.33324 -2.77812,-1.33325 -1.71979,-0.76754 -1.7198,-0.76753 -0.36312,-0.44151 -0.36313,-0.44151 h -0.62906 -0.62906 v -0.28241 -0.28241 l 0.49637,0.15754 0.49636,0.15754 0.13725,-0.52483 0.13725,-0.52484 0.68724,0.31898 0.68723,0.31897 0.019,0.66146 0.019,0.66146 0.36031,-0.79375 0.3603,-0.79375 0.15008,-0.47979 0.15007,-0.47979 0.29175,0.18031 0.29175,0.18031 -0.10446,0.89479 -0.10446,0.8948 h 0.31543 0.31544 l 0.16146,-0.42076 0.16146,-0.42075 -0.14877,-0.2407 -0.14876,-0.24071 h 0.41249 0.41249 v -0.63941 -0.63941 l 0.30252,-0.10084 0.30253,-0.10084 -0.3158,-0.59008 -0.3158,-0.59008 -0.18516,0.11185 -0.18517,0.11185 -1.37351,0.40585 -1.37351,0.40585 0.16628,-0.44414 0.16628,-0.44414 -0.39844,0.32331 -0.39844,0.32331 -1.23461,0.1209 -1.23461,0.1209 -0.17985,-0.29101 -0.17986,-0.29101 -0.22685,0.61326 -0.22686,0.61325 0.43481,0.48046 0.43481,0.48046 -0.16251,0.4235 -0.16251,0.4235 -0.26646,-0.16468 -0.26645,-0.16467 v -0.5444 -0.5444 l -0.67218,0.1285 -0.67218,0.12849 -1.11375,-0.38075 -1.11376,-0.38076 -0.25136,-0.24606 -0.25135,-0.24606 h -0.34922 -0.34921 l -1.0247,-0.64686 -1.02469,-0.64686 -1.62542,-0.42119 -1.62543,-0.42119 -0.28937,0.17884 -0.28936,0.17883 0.12325,-0.36755 0.12324,-0.36756 0.43009,-0.003 0.43008,-0.003 0.3012,-0.3012 0.3012,-0.3012 -0.57332,-0.57333 -0.57333,-0.57333 0.28904,-0.34827 0.28904,-0.34828 -0.37776,-0.14496 -0.37776,-0.14496 -0.15816,0.15816 -0.15816,0.15816 -0.008,0.68351 -0.008,0.6835 -0.38846,0.51359 -0.38846,0.51359 v -0.82268 -0.82268 l -0.17726,-0.46191 -0.17725,-0.46192 0.29126,0.18001 0.29127,0.18001 0.16619,-0.2689 0.16618,-0.2689 h -0.28019 -0.2802 v -0.2802 -0.28019 l 0.23636,0.14607 0.23636,0.14608 0.18258,-0.72577 0.18259,-0.72578 0.35483,0.84277 0.35483,0.84278 0.81373,0.42079 0.81372,0.42079 v 0.2734 0.27341 l 0.30546,-0.18879 0.30547,-0.18879 -0.20304,0.32852 -0.20303,0.32851 -0.51441,-0.13452 -0.51442,-0.13452 0.11433,0.30991 0.11433,0.30991 0.29765,-0.0661 0.29766,-0.0661 v 0.26458 0.26458 h -0.31515 -0.31516 l 0.51359,0.38467 0.51359,0.38467 0.31131,-0.40868 0.31132,-0.40869 0.48243,0.28056 0.48244,0.28055 -0.38742,0.008 -0.38743,0.008 0.46855,0.46302 0.46855,0.46302 0.27097,-0.47769 0.27096,-0.47769 0.35021,0.29064 0.35021,0.29065 0.68676,-0.17237 0.68677,-0.17236 v -0.2359 -0.2359 h 0.26458 0.26459 v 0.39687 0.39688 h 0.39687 0.39688 v -0.26459 -0.26458 h 0.63941 0.6394 l 0.1519,0.33073 0.1519,0.33073 -0.1677,-0.66146 -0.16769,-0.66146 -0.49132,-0.42791 -0.49132,-0.42791 v -0.40113 -0.40112 l 0.59075,-0.15449 0.59075,-0.15448 -0.31258,-0.31258 -0.31258,-0.31258 -0.66784,0.43758 -0.66783,0.43758 -0.22808,0.85852 -0.22808,0.85852 -0.77132,-0.0846 -0.77132,-0.0846 -0.0882,-0.24609 -0.0882,-0.2461 h -0.37482 -0.37483 v 0.24814 0.24814 l -0.53237,-0.0401 -0.53236,-0.0401 0.0913,-0.27419 0.0913,-0.27418 0.53674,-0.0283 0.53674,-0.0283 0.71691,-0.17994 0.71691,-0.17993 -0.10699,-0.32097 -0.10699,-0.32097 h -0.37482 -0.37483 l -0.081,-0.5684 -0.081,-0.56839 0.3456,0.0148 0.34561,0.0148 0.46302,-0.0417 0.46302,-0.0417 v -0.40191 -0.40192 l 0.63259,0.15877 0.6326,0.15877 0.17677,-0.28602 0.17677,-0.28602 h 0.62379 0.6238 l 0.0945,-0.28357 0.0945,-0.28357 0.74015,0.5822 0.74015,0.5822 0.23704,-0.23705 0.23705,-0.23705 -0.15448,-0.59075 -0.15449,-0.59074 h -0.61498 -0.61499 l -0.16751,-0.27104 -0.16751,-0.27104 0.17292,-0.7873 0.17292,-0.78729 h 0.49253 0.49253 l 0.17677,0.28602 0.17677,0.28602 0.59745,-0.14995 0.59744,-0.14995 -0.0906,0.77838 -0.0906,0.77839 0.25807,0.15949 0.25807,0.1595 v 0.59292 0.59293 l 0.3175,0.3175 0.3175,0.3175 h -0.68353 -0.68353 l -0.12766,0.66777 -0.12765,0.66778 0.2291,0.14159 0.2291,0.14159 v -0.3126 -0.31259 l 0.33915,0.28147 0.33916,0.28147 0.35344,-0.79849 0.35345,-0.7985 0.43188,-0.16179 0.43188,-0.16178 0.26458,-0.31574 0.26459,-0.31573 0.66146,-0.3916 0.66145,-0.3916 0.58738,0.16177 0.58738,0.16177 -0.27679,0.39688 -0.27679,0.39687 -0.1342,-0.33073 -0.1342,-0.33073 h -0.37482 -0.37483 v 0.21402 0.21401 l 0.35662,0.4877 0.35661,0.4877 0.55024,-0.55023 0.55023,-0.55023 0.27001,0.77456 0.27001,0.77456 h 0.27835 0.27835 v 0.52086 0.52086 l -0.39688,-0.15229 -0.39687,-0.1523 v 0.42518 0.42519 h 0.28197 0.28198 l 0.48257,-0.25827 0.48256,-0.25826 0.15014,0.57413 0.15014,0.57413 0.54053,-0.48916 0.54052,-0.48917 v 0.18261 0.1826 l 0.51311,-0.2746 0.51311,-0.27461 0.16512,0.26717 0.16512,0.26716 -0.4204,0.16132 -0.4204,0.16133 0.30786,0.37094 0.30785,0.37093 -0.49954,0.55496 -0.49954,0.55495 0.52253,-0.0992 0.52252,-0.0992 0.33692,-0.65911 0.33692,-0.65912 0.26976,0.0677 0.26977,0.0677 0.94942,-0.3967 0.94942,-0.39669 0.23697,0.14645 0.23697,0.14646 0.23239,-0.61123 0.23239,-0.61124 -0.0344,-0.25751 -0.0345,-0.25752 -0.59422,0.0779 -0.59422,0.0779 0.15445,-0.48181 0.15445,-0.48181 -0.62018,0.66146 -0.62017,0.66145 -0.85829,0.003 -0.85828,0.003 v -0.17014 -0.17013 l -0.5289,-0.13832 -0.52891,-0.13831 -0.14817,0.23975 -0.14817,0.23974 h -0.51614 -0.51614 l -0.44246,-0.51675 -0.44246,-0.51676 -0.0394,-0.53541 -0.0394,-0.5354 0.68293,0.16272 0.68293,0.16272 0.46302,0.23729 0.46303,0.23729 v 0.23051 0.2305 l 0.52916,-0.13838 0.52917,-0.13838 v 0.42773 0.42774 h 0.13588 0.13588 l 0.50073,-0.31271 0.50073,-0.31271 -0.22284,-0.58613 -0.22285,-0.58612 0.14261,-0.14261 0.1426,-0.1426 0.67095,0.25509 0.67095,0.25509 0.13501,-0.135 0.13501,-0.13501 0.30166,-0.6 0.30167,-0.6 h 0.70249 0.7025 l 0.33226,-0.33073 0.33226,-0.33073 h 0.44539 0.44539 l 0.19831,0.59531 0.19831,0.59532 0.18129,-1.05834 0.18128,-1.05833 0.20922,0.46427 0.20921,0.46426 0.89726,0.42578 0.89726,0.42578 v 0.23947 0.23948 l -0.6326,-0.15877 -0.63259,-0.15877 -0.18708,0.30269 -0.18707,0.3027 0.41746,0.46129 0.41746,0.46129 -0.11176,0.58037 -0.11177,0.58037 h 0.24939 0.24939 v 0.23981 0.23982 l -0.47343,-0.12381 -0.47342,-0.1238 -0.49362,0.54545 -0.49363,0.54545 h -0.3737 -0.37369 l 0.16795,0.52916 0.16795,0.52917 h -0.28241 -0.28242 v 0.39687 0.39688 h 0.23628 0.23627 l 0.16132,0.42038 0.16131,0.42038 -0.53123,0.67535 -0.53124,0.67536 0.26364,0.31767 0.26365,0.31767 -0.18848,0.18848 -0.18848,0.18848 0.35429,0.21897 0.3543,0.21897 -0.5604,0.56039 -0.56039,0.5604 h -0.23672 -0.23672 l 0.19329,-0.8599 0.1933,-0.85989 -0.10596,-0.31587 -0.10597,-0.31586 -0.37756,0.14488 -0.37756,0.14488 0.23348,0.41721 0.23348,0.4172 -0.34909,0.34909 -0.34909,0.34909 h -0.3364 -0.3364 l 0.28689,-0.28689 0.2869,-0.2869 -0.13255,-0.50685 -0.13254,-0.50686 h -0.33362 -0.33362 l -0.31976,0.38529 -0.31976,0.38528 0.15939,0.25789 0.15938,0.25789 -0.27633,0.17079 -0.27633,0.17078 -0.78631,0.0995 -0.78632,0.0995 v -0.25769 -0.25769 l 0.66145,-0.30138 0.66146,-0.30138 v -0.48669 -0.4867 h -0.36612 -0.36612 l 0.0801,-1.18825 0.0801,-1.18826 -0.19049,-0.11773 -0.1905,-0.11773 -0.72784,0.91217 -0.72784,0.91217 0.20811,0.32767 0.2081,0.32767 0.0269,0.13229 0.0269,0.13229 0.18408,0.41138 0.18407,0.41138 -0.0871,1.04383 -0.0871,1.04383 -0.58289,-0.063 -0.58289,-0.063 v 0.27708 0.27708 l -0.24631,-0.15222 -0.2463,-0.15222 -0.16619,0.2689 -0.16618,0.2689 0.47863,0.0392 0.47864,0.0392 0.42025,0.027 0.42026,0.027 0.4253,0.35122 0.4253,0.35123 -0.2605,0.68515 -0.2605,0.68516 0.34099,0.21634 0.34098,0.21634 0.19844,0.004 0.19844,0.004 0.55121,-0.55122 0.55122,-0.55121 0.058,0.0882 0.058,0.0882 0.46679,0.74531 0.46678,0.74531 0.31303,-0.24891 0.31303,-0.24892 0.52917,0.51938 0.52916,0.51937 -1.27894,-0.18924 -1.27894,-0.18924 -0.76086,0.56253 -0.76087,0.56253 -0.20915,-0.0156 -0.20915,-0.0156 z m -1.5201,-3.32973 -0.79325,-0.33354 -0.36468,-0.50749 -0.36468,-0.50749 -0.44732,-0.16668 -0.44733,-0.16669 -0.0818,0.84557 -0.0818,0.84557 1.45521,0.28049 1.45521,0.28049 0.23189,-0.11834 0.23189,-0.11835 z m -2.37646,-3.01634 0.1339,-0.51204 0.55841,0.14602 0.55842,0.14603 v -0.65992 -0.65992 l -0.40809,-0.33868 -0.40809,-0.33868 -0.28561,0.28561 -0.28561,0.28561 -0.33088,-0.12697 -0.33088,-0.12697 0.12938,0.67681 0.12938,0.67681 h -0.42771 -0.42772 v 0.37748 0.37747 l 0.46302,0.121 0.46302,0.121 0.16758,0.0307 0.16757,0.0307 z m -5.7725,-2.64391 0.15175,-0.24553 -0.51948,-0.16487 -0.51947,-0.16488 -0.16828,-0.5302 -0.16828,-0.53019 -0.30828,0.10263 -0.30827,0.10264 -0.0894,0.46107 -0.0894,0.46108 0.48627,0.36848 0.48627,0.36848 0.4474,0.008 0.44741,0.008 z m 6.69944,-1.03205 0.1033,-0.30991 h -0.41892 -0.41892 v -0.66146 -0.66146 H 357.96 357.71432 l -0.41578,0.41578 -0.41577,0.41577 v 0.11339 0.1134 l 0.46302,0.47437 0.46302,0.47437 0.51406,-0.0322 0.51405,-0.0322 z m 7.99671,-0.4422 0.32937,-0.39688 -0.32937,-0.39687 -0.32938,-0.39688 h -0.20742 -0.20741 l 0.1394,0.5331 0.13941,0.5331 -0.4949,-0.18576 -0.49491,-0.18576 0.36312,0.44641 0.36313,0.44641 h 0.19979 0.19979 z m -13.10187,-0.65594 0.4739,-0.52366 -0.4596,-0.17636 -0.45959,-0.17636 -0.23383,0.36928 -0.23383,0.36929 -0.004,0.33073 -0.004,0.33073 h 0.22358 0.22357 z m 15.41697,-2.36501 0.33073,-0.0218 v -0.38126 -0.38126 l -0.28764,-0.17777 -0.28763,-0.17777 -0.29445,0.29445 -0.29445,0.29444 h -0.47625 -0.47625 v 0.40593 0.40593 l 0.72761,-0.11959 0.7276,-0.11959 z m -61.5229,11.73719 -0.58804,-0.41187 v -0.19686 -0.19686 l 1.25677,-0.61893 1.25677,-0.61893 1.92598,-0.88585 1.92597,-0.88585 0.24052,0.63261 0.24052,0.6326 0.2809,0.17361 0.2809,0.17361 v 0.40019 0.4002 l -0.59531,-0.0576 -0.59531,-0.0576 -0.66146,0.26998 -0.66146,0.26999 -0.18328,-0.28852 -0.18328,-0.28851 -1.13964,0.62572 -1.13963,0.62571 -0.41771,0.35757 -0.41771,0.35756 h -0.11873 -0.11873 z m 64.50351,-1.37406 -0.004,-0.59531 h -0.35105 -0.35105 l 0.1165,-0.79375 0.1165,-0.79375 h 0.39552 0.39553 l -0.17237,0.68677 -0.17236,0.68677 0.26084,0.31429 0.26084,0.31429 -0.2454,0.38801 -0.24539,0.388 z m -55.6783,-1.43413 -0.11132,-0.3518 -0.16619,-1.65365 -0.16618,-1.65364 h 0.2491 0.24911 l 1.35153,1.21514 1.35153,1.21514 v 0.36305 0.36305 l -0.46302,0.24259 -0.46302,0.24259 -0.86011,0.18466 -0.86012,0.18467 z m 1.51355,-0.91576 0.16708,-0.16708 -0.26458,-0.49438 -0.26458,-0.49437 h -0.51986 -0.51986 v 0.14968 0.14969 l 0.27389,0.51177 0.2739,0.51177 h 0.34346 0.34347 z m 51.00659,-1.03677 -0.0209,-0.5424 -0.28527,-0.28527 -0.28526,-0.28526 0.0868,-0.75984 0.0868,-0.75984 0.26458,0.1323 0.26458,0.13229 -0.0714,0.5103 -0.0714,0.5103 0.30209,0.1867 0.30209,0.18671 -0.27595,0.7582 -0.27594,0.7582 z m -64.85593,-0.40631 -0.29533,-0.55183 0.0876,-0.063 0.0876,-0.063 0.8599,-0.59379 0.85989,-0.59379 v -0.40717 -0.40717 l 0.39688,0.1523 0.39687,0.15229 v -0.25628 -0.25627 h -0.7378 -0.73781 l -1.03793,0.52916 -1.03793,0.52917 h -0.31262 -0.31262 l -0.14077,-0.36683 -0.14076,-0.36682 0.9062,-0.98935 0.90621,-0.98935 v -0.099 -0.099 h -0.39687 -0.39688 v -0.51355 -0.51355 l -0.28764,-0.17777 -0.28763,-0.17777 -0.27377,0.27377 -0.27377,0.27377 -0.36464,-0.13992 -0.36463,-0.13993 v 0.42519 0.42518 h -0.24736 -0.24736 l -0.67868,-0.25804 -0.67869,-0.25803 v -0.39736 -0.39736 l 0.99219,0.005 0.99219,0.005 0.52917,-0.0371 0.52916,-0.0371 0.59531,0.18882 0.59532,0.18882 v -0.69231 -0.69232 h 0.42773 0.42773 l -0.13838,-0.52917 -0.13838,-0.52916 h 0.20742 0.20742 l 0.28509,0.34351 0.28509,0.34351 -0.0446,1.11833 -0.0446,1.11833 -0.34038,-0.13062 -0.34039,-0.13062 v 0.48553 0.48554 l 1.81609,-0.12994 1.81608,-0.12994 0.17213,0.27851 0.17213,0.27851 -0.53301,0.16917 -0.53301,0.16917 v 0.4264 0.42641 l 0.30899,0.85449 0.30899,0.85449 0.76688,0.15337 0.76688,0.15338 -0.16544,0.26769 -0.16544,0.26769 h -0.89481 -0.89482 l -0.16619,-0.2689 -0.16618,-0.2689 -0.26434,0.16337 -0.26434,0.16337 0.13712,0.35733 0.13711,0.35732 -0.82118,0.40967 -0.82119,0.40966 h -0.34692 -0.34691 z m 20.58348,-0.79314 -0.46302,-0.50711 v -0.12299 -0.12298 l 0.54608,-0.29225 0.54608,-0.29226 0.38435,0.31899 0.38436,0.31899 0.62812,-0.731 0.62813,-0.731 0.29058,0.17959 0.29058,0.17958 -0.42436,0.64766 -0.42436,0.64767 0.22886,0.008 0.22887,0.008 -0.44206,0.25795 -0.44207,0.25796 -0.65521,-0.24911 -0.65521,-0.24911 -0.14127,0.14127 -0.14126,0.14126 0.14237,0.37101 0.14237,0.37101 -0.0945,-0.022 -0.0945,-0.0221 z m -12.4006,-0.97014 -0.0313,-0.19843 0.0282,-0.18892 0.0282,-0.18891 -0.39574,0.15186 -0.39575,0.15186 -0.6501,-0.42597 -0.65011,-0.42596 h -0.51017 -0.51017 l -0.1606,-0.41852 -0.1606,-0.41851 v -0.39464 -0.39464 l 0.33073,0.0855 0.33073,0.0855 1.77737,1.04361 1.77736,1.04361 0.13256,0.34545 0.13256,0.34545 h -0.52086 -0.52086 z m 9.08856,-0.85989 -0.33047,-0.52917 h 0.24519 0.24519 l 0.41851,0.1606 0.41851,0.1606 v 0.36857 0.36857 h -0.33323 -0.33323 z m -3.5832,-1.3531 -0.47909,-0.27868 -0.36371,0.13957 -0.36371,0.13957 -0.0926,-0.27784 -0.0926,-0.27783 -1.03409,0.28552 -1.03408,0.28553 -0.11371,-0.11371 -0.11371,-0.11371 0.15667,-0.40829 0.15668,-0.40828 h 0.53747 0.53747 v -0.26458 -0.26459 h 0.76135 0.76135 l 0.32938,0.39688 0.32938,0.39687 0.29833,0.006 0.29833,0.006 0.66146,0.5174 0.66146,0.5174 -0.66146,-0.002 -0.66146,-0.002 z m -20.11431,-1.20454 -0.17639,-0.17639 v -0.35278 -0.35277 h 0.39688 0.39687 v 0.52916 0.52917 h -0.22049 -0.22048 z m -26.16844,-0.3996 -0.15999,-0.41694 -0.68232,0.13044 -0.68231,0.13043 v -0.23663 -0.23663 l 0.54152,-0.46366 0.54151,-0.46365 0.25224,0.15589 0.25223,0.15589 v 0.38126 0.38126 h 0.39688 0.39687 v 0.28019 0.2802 l -0.24198,-0.14955 -0.24199,-0.14956 -0.10633,0.319 -0.10633,0.319 z m 50.42385,-0.0494 0.17445,-0.43297 0.1606,-0.39688 0.1606,-0.39687 h -0.29289 -0.29289 v -0.58804 -0.58804 l 0.41414,0.59126 0.41413,0.59127 -0.0834,0.70397 -0.0834,0.70398 -0.37289,0.12265 -0.37289,0.12265 z m 8.57497,0.16179 -0.46302,-0.1044 v -0.24518 -0.24518 h 0.47625 0.47625 l 0.3175,-0.3175 0.3175,-0.3175 v 0.41739 0.4174 l -0.33073,0.24968 -0.33073,0.24969 z m 11.61247,-0.19877 0.15264,-0.39776 -0.75625,-0.15126 -0.75625,-0.15125 v -0.90619 -0.9062 h 0.19843 0.19844 l 0.006,-0.33073 0.006,-0.33073 0.509,-0.66146 0.50899,-0.66146 0.34502,0.34854 0.34501,0.34855 -0.39687,0.31291 -0.39688,0.31292 -0.0163,0.55122 -0.0163,0.55121 0.41315,0.008 0.41314,0.008 0.33073,-0.26092 0.33073,-0.26092 0.0169,0.0986 0.0169,0.0985 0.0826,0.83437 0.0826,0.83436 -0.75026,0.5547 -0.75027,0.5547 h -0.1347 -0.1347 z m -28.81914,-0.0299 -0.16309,-0.16309 0.6818,-0.85448 0.6818,-0.85447 0.59725,0.28186 0.59724,0.28185 -0.11497,0.29961 -0.11497,0.29961 -0.71435,-0.12923 -0.71435,-0.12924 0.19614,0.21026 0.19614,0.21027 -0.29468,0.35507 -0.29469,0.35507 h -0.18809 -0.18808 z m -17.3903,-0.71182 -0.65876,-0.61033 -0.87071,-0.38186 -0.8707,-0.38186 0.16461,-0.66091 0.16461,-0.66092 0.147,-0.13283 0.14701,-0.13284 0.11812,0.33073 0.11812,0.33073 h 0.75855 0.75856 l 0.22811,-0.40761 0.22811,-0.40761 0.44649,0.17133 0.4465,0.17134 v 0.36857 0.36857 h 0.39687 0.39688 v 1.05833 1.05833 h -0.26459 -0.26458 v -0.26458 -0.26458 h -0.52917 -0.52916 v 0.21166 0.21167 l 0.3175,0.3175 0.3175,0.3175 h -0.25406 -0.25406 z m -29.19562,-0.5554 -0.71539,-0.89727 -0.52127,0.13632 -0.52127,0.13631 v -0.53134 -0.53134 l 0.71292,-0.17893 0.71292,-0.17894 0.46776,0.61327 0.46776,0.61327 0.16741,0.74653 0.16742,0.74652 -0.11144,0.11143 -0.11143,0.11144 z m 39.63318,0.52957 -0.26361,-0.28988 0.0931,-0.46302 0.0932,-0.46302 0.8405,0.0264 0.84049,0.0264 0.63043,0.17667 0.63043,0.17667 -0.42449,0.3523 -0.42449,0.35229 -0.87598,0.19757 -0.87598,0.19756 z m -37.95153,-0.53885 v -0.38126 l 0.2689,-0.16619 0.2689,-0.16619 -0.16647,-0.26935 -0.16647,-0.26935 -0.44795,0.11714 -0.44795,0.11714 -0.0252,-0.8884 -0.0252,-0.8884 0.23841,-0.14735 0.23841,-0.14734 v 0.28872 0.28872 l 0.59531,0.23929 0.59531,0.23929 -0.33073,0.0168 -0.33072,0.0168 v 0.26458 0.26459 h 0.37482 0.37483 l 0.11421,0.33072 0.11422,0.33073 -0.26693,0.59532 -0.26693,0.59531 h -0.3544 -0.35441 z m 108.69332,-0.25131 -0.4473,-0.61594 0.29549,-0.29549 0.29549,-0.29549 0.35026,0.29068 0.35025,0.29069 v 0.62906 0.62906 l -0.19844,-0.008 -0.19844,-0.008 z m -3.84149,-0.1618 0.13855,-0.5298 -0.43842,-0.24616 -0.43841,-0.24617 0.44234,-0.17046 0.44235,-0.17046 0.61599,0.33769 0.61599,0.33769 0.55192,-0.066 0.55192,-0.066 0.34568,0.41652 0.34568,0.41652 -0.18203,0.18202 -0.18203,0.18203 -0.52739,-0.32936 -0.52738,-0.32936 -0.40553,0.40552 -0.40552,0.40553 h -0.54112 -0.54113 z m -33.89675,-0.17589 0.0856,-0.4411 0.33073,-0.11012 0.33073,-0.11012 v 0.55122 0.55121 h -0.41628 -0.41627 z m -57.01333,-0.82066 -0.47805,-0.10575 -0.24956,-0.65639 -0.24955,-0.65639 0.008,-0.3135 0.008,-0.31351 0.33268,0.43731 0.33268,0.43731 0.64839,0.0919 0.64839,0.0918 0.0818,0.42973 0.0818,0.42973 -0.34372,0.11675 -0.34372,0.11676 z m 9.60617,-0.092 v -0.29545 l -0.49563,0.12961 -0.49562,0.12961 0.12961,-0.49562 0.12961,-0.49563 h 0.4573 0.4573 l 0.43788,0.48386 0.43788,0.48385 v 0.1776 0.17761 h -0.52916 -0.52917 z m 43.65625,-0.23373 v -0.26458 h 0.39688 0.39687 v -0.42927 -0.42928 l 0.42077,0.34921 0.42077,0.34921 -0.47134,0.34465 -0.47134,0.34465 h -0.3463 -0.34631 z m 9.38712,-0.10366 -0.5036,-0.36824 0.32925,-0.39673 0.32925,-0.39672 0.79679,-0.11695 0.79679,-0.11694 0.27301,0.41889 0.27301,0.41889 -0.14396,-0.46302 -0.14397,-0.46302 h 0.25628 0.25628 v 0.50979 0.50979 l -0.8344,0.41625 -0.8344,0.41626 h -0.17336 -0.17337 z m 12.05611,-0.0142 -0.35997,-0.43374 0.30629,-0.30629 0.30629,-0.30628 0.23454,0.25135 0.23454,0.25135 -0.18086,0.48868 -0.18085,0.48867 z m -82.95886,-0.41131 0.16796,-0.52917 -0.34856,-0.004 -0.34856,-0.004 -0.36463,-0.23095 -0.36463,-0.23096 0.18027,-0.29167 0.18027,-0.29168 0.75755,0.56008 0.75754,0.56008 0.12965,0.49577 0.12965,0.49576 h -0.52223 -0.52223 z m 84.70713,0.12226 0.1837,-0.47872 -0.45282,0.17377 -0.45283,0.17376 -0.16083,-0.41911 -0.16083,-0.41912 0.33704,-0.2083 0.33703,-0.2083 -0.1705,-0.27588 -0.17051,-0.27588 0.2689,-0.16619 0.2689,-0.16619 v 0.41249 0.41249 h 0.26459 0.26458 v -0.23813 -0.23812 h 0.98517 0.98517 l -0.50657,0.37042 -0.50658,0.37041 h -0.18461 -0.18462 l 0.0368,0.42287 0.0367,0.42287 -0.60079,0.40679 -0.60079,0.40679 z m 19.00955,-0.32774 -0.79375,-0.45598 -0.11025,-0.0662 -0.11024,-0.0661 0.1836,-0.1836 0.18359,-0.18359 1.11727,0.0655 1.11728,0.0654 0.26458,0.28017 0.26458,0.28016 -0.59294,-0.1791 -0.59295,-0.17911 -0.27979,0.17292 -0.2798,0.17293 0.30982,0.37332 0.30983,0.37332 -0.0985,-0.007 -0.0985,-0.007 z m -43.3473,-0.17117 -0.1545,-0.40262 0.57345,-0.40167 0.57346,-0.40166 0.26941,0.26941 0.26941,0.26942 -0.28699,0.45574 -0.287,0.45573 -0.40137,0.0791 -0.40137,0.0791 z m -1.64302,-0.43514 -0.17467,-0.28262 -0.37099,0.14236 -0.37099,0.14236 0.43458,-0.66326 0.43459,-0.66326 0.2939,0.0978 0.29389,0.0978 0.0968,0.50724 0.0967,0.50724 0.30012,0.19439 0.30012,0.19439 -0.57969,0.004 -0.5797,0.004 z m 35.79433,-3.15341 -0.44043,-0.5144 0.21516,-0.13298 0.21517,-0.13298 0.43092,0.32226 0.43092,0.32225 -0.20565,0.32512 -0.20565,0.32512 z m 3.46632,0.0835 -0.438,-0.11618 -0.15708,-0.62586 -0.15708,-0.62585 0.14228,-0.37077 0.14228,-0.370774 -0.73783,-0.3464 -0.73782,-0.346401 0.33946,-0.12256 0.33945,-0.12256 0.37685,0.144611 0.37685,0.14461 0.67276,1.065714 0.67275,1.06572 v 0.40213 0.40213 l -0.19843,-0.0307 -0.19844,-0.0307 z m -104.85903,-1.66297 -0.15638,-0.253024 -0.3884,0.149044 -0.3884,0.14904 v -0.425179 -0.425183 h 0.11984 0.11984 l 0.67391,0.307053 0.67391,0.307053 v 0.222116 0.22211 h -0.24897 -0.24897 z m 0.16298,-1.040905 -0.35904,-0.227499 0.17843,-0.562199 0.17844,-0.562199 h 0.21589 0.2159 l 0.15954,0.595313 0.15953,0.595312 0.004,0.198438 0.004,0.198437 -0.19844,-0.0041 -0.19844,-0.0041 z m -2.94825,-4.114407 v -0.38126 l 0.23461,-0.144994 0.2346,-0.144993 0.29227,0.35216 0.29226,0.35216 -0.17409,0.174094 -0.17409,0.174093 h -0.35278 -0.35278 z m 3.70417,-0.529167 v -0.38126 l 0.26249,-0.162226 0.26248,-0.162227 0.46512,0.270858 0.46512,0.270857 -0.46302,0.008 -0.46302,0.008 v 0.264583 0.264583 h -0.26459 -0.26458 z m -16.75695,-1.382629 -0.17639,-0.176389 v -0.485069 -0.48507 h -0.52412 -0.52413 l -0.16586,-0.660866 -0.16587,-0.660867 0.13137,-0.342345 0.13137,-0.342345 2.21227,-0.05898 2.21227,-0.05898 -0.50746,0.396252 -0.50746,0.396252 -0.33108,-0.274772 -0.33108,-0.274771 -0.3013,0.477692 -0.30129,0.477693 -0.13899,-0.330729 -0.13898,-0.33073 h -0.24254 -0.24253 v 0.396875 0.396875 h 0.23372 0.23373 l 0.13391,0.51208 0.13391,0.512079 -0.36317,0.139363 -0.36318,0.139364 0.15614,0.406891 0.15614,0.40689 h -0.11651 -0.1165 z m 1.2944,-0.228901 -0.51359,-0.38846 h 0.31515 0.31515 v -0.396875 -0.396875 h 0.34877 0.34877 v 0.79375 0.79375 l -0.15033,-0.0084 -0.15033,-0.0084 z m 7.32454,-1.707096 -0.32866,-0.526267 v -0.110989 -0.110988 l 0.65921,0.305836 0.6592,0.305836 -0.0804,0.248047 -0.0804,0.248046 -0.25011,0.08337 -0.25012,0.08337 z"
       id="path3" /></g></svg>
