<?xml version="1.0" encoding="UTF-8" standalone="no"?>
<!-- Created with Inkscape (http://www.inkscape.org/) -->

<svg
   width="132.36807mm"
   height="132.30952mm"
   viewBox="0 0 132.36807 132.30952"
   version="1.1"
   id="svg1"
   xml:space="preserve"
   xmlns:inkscape="http://www.inkscape.org/namespaces/inkscape"
   xmlns:sodipodi="http://sodipodi.sourceforge.net/DTD/sodipodi-0.dtd"
   xmlns="http://www.w3.org/2000/svg"
   xmlns:svg="http://www.w3.org/2000/svg"><sodipodi:namedview
     id="namedview1"
     pagecolor="#ffffff"
     bordercolor="#000000"
     borderopacity="0.25"
     inkscape:showpageshadow="2"
     inkscape:pageopacity="0.0"
     inkscape:pagecheckerboard="0"
     inkscape:deskcolor="#d1d1d1"
     inkscape:document-units="mm" /><defs
     id="defs1" /><g
     inkscape:label="Layer 1"
     inkscape:groupmode="layer"
     id="layer1"
     transform="translate(-247.66573,-239.37228)"><path
       style="fill:#ffffff;fill-opacity:1"
       d="m 247.66573,334.90792 v -36.68636 l 2.57969,-1.01309 2.57968,-1.01309 3.04271,-1.35328 3.04271,-1.35329 0.0882,-0.20307 0.0882,-0.20306 h 0.40817 0.40817 l 2.41405,-0.94747 2.41405,-0.94747 1.97668,-0.80431 1.97668,-0.80431 0.31174,-0.0458 0.31173,-0.0457 0.42357,-0.35153 0.42356,-0.35153 v -0.49677 -0.49677 h -0.10763 -0.10762 l -1.8106,0.82076 -1.81061,0.82077 -3.43958,1.40161 -3.43958,1.40162 -2.24896,0.92658 -2.24896,0.92657 -3.50239,1.48126 -3.50239,1.48125 h -0.13563 -0.13563 v -28.83958 -28.83959 h 66.14583 66.14584 v 20.24063 20.24062 h -0.26652 -0.26652 l -5.22358,-2.48268 -5.22359,-2.48268 -0.97911,-0.40877 -0.97912,-0.40877 -3.65109,-1.639 -3.6511,-1.639 -1.39631,-0.64011 -1.39632,-0.64011 -6.22722,-2.89923 -6.22722,-2.89923 h -0.1089 -0.1089 l -1.68844,-0.77332 -1.68843,-0.77332 -1.54178,-0.28501 -1.54179,-0.28502 h -1.82548 -1.82547 l -3.21916,1.06812 -3.21916,1.06812 -2.77813,1.1147 -2.77812,1.11469 -0.23565,1.38906 -0.23565,1.38906 h -0.22233 -0.22233 l -0.17949,-0.7276 -0.17949,-0.72761 -0.42086,-0.58699 -0.42087,-0.587 -0.19843,-0.008 -0.19844,-0.008 v 0.36277 0.36277 l -0.91115,0.62433 -0.91115,0.62433 -0.17249,0.53425 -0.17248,0.53426 -0.29036,-0.72761 -0.29036,-0.7276 h -0.65947 -0.65948 l -0.57095,0.53638 -0.57096,0.53639 -0.58202,0.11208 -0.58202,0.11209 -0.98074,0.33149 -0.98075,0.33149 -0.26458,0.27831 -0.26458,0.27831 -0.77213,0.26308 -0.77213,0.26309 -0.10443,0.31456 -0.10443,0.31456 1.93489,0.55574 1.93489,0.55574 0.60776,0.25418 0.60777,0.25418 0.71515,0.004 0.71516,0.004 0.36462,0.23095 0.36463,0.23095 -0.19534,0.31606 -0.19534,0.31606 -1.13232,0.48538 -1.13233,0.48537 -0.13715,0.22033 -0.13714,0.22034 -3.06064,1.32291 -3.06065,1.32292 -0.006,0.33073 -0.006,0.33073 h -0.62045 -0.62045 l -0.47889,0.52917 -0.47889,0.52916 h -0.44715 -0.44716 l -0.45876,0.50693 -0.45877,0.50693 -1.33487,-0.12399 -1.33487,-0.124 -0.38467,-0.38467 -0.38467,-0.38466 -0.52461,-0.28077 -0.52461,-0.28076 0.0992,-0.29763 0.0992,-0.29762 4.48093,-2.26415 4.48093,-2.26415 0.0906,-0.92604 0.0906,-0.92604 -0.30342,-1.36862 -0.30342,-1.36861 -0.36848,-0.30581 -0.36848,-0.30581 -1.69307,0.94682 -1.69307,0.94682 h -0.3247 -0.32471 l 0.0855,-0.44046 0.0856,-0.44045 0.81374,-0.45443 0.81374,-0.45443 0.90605,-0.194 0.90605,-0.194 0.29338,-0.23544 0.29338,-0.23543 1.54455,-0.5314 1.54455,-0.5314 0.67561,-0.45777 0.67561,-0.45776 1.05834,-0.32833 1.05833,-0.32834 0.17255,-0.004 0.17256,-0.004 0.31294,0.8599 0.31294,0.85989 0.23358,-0.59531 0.23359,-0.59531 h 0.4054 0.4054 v -0.51355 -0.51356 l -0.25517,-0.1577 -0.25517,-0.1577 0.11809,-1.16704 0.11809,-1.16704 -1.11969,-0.90841 -1.11969,-0.90841 -1.17418,-0.56059 -1.17418,-0.56059 h -0.51639 -0.51639 l 1.02911,0.69158 1.02911,0.69157 1.12758,0.91618 1.12757,0.91618 -0.13289,0.21502 -0.13289,0.21502 -0.64995,0.16313 -0.64996,0.16313 -0.97697,-0.66299 -0.97696,-0.66298 h -0.74121 -0.74122 l -0.16467,0.26645 -0.16468,0.26645 0.47979,0.14974 0.47979,0.14974 0.45943,0.24527 0.45943,0.24527 h 0.40047 0.40046 v 0.37635 0.37636 l -0.99218,0.32275 -0.99219,0.32275 -0.52189,0.35922 -0.5219,0.35923 h -0.338 -0.338 v -0.67077 -0.67076 l -0.55112,0.29495 -0.55112,0.29495 0.44475,0.49143 0.44474,0.49144 -0.17382,0.28126 -0.17383,0.28125 h -0.51355 -0.51355 v -0.65484 -0.65485 l -0.7692,0.15384 -0.7692,0.15384 -0.47424,-0.72379 -0.47425,-0.72379 0.55062,-0.42885 0.55061,-0.42885 0.49439,-0.2997 0.49439,-0.2997 -0.17392,-0.1829 -0.17393,-0.18291 -1.29034,0.45828 -1.29034,0.45829 -1.22125,-0.90172 -1.22124,-0.90172 -3.29562,-1.91651 -3.29562,-1.91651 -1.12974,-0.3986 -1.12974,-0.39859 h -0.61672 -0.61673 l -2.06199,1.01534 -2.06199,1.01534 -5.08395,2.55653 -5.08396,2.55654 h -0.24146 -0.24146 l -0.32926,0.39673 -0.32926,0.39674 1.55364,0.68269 1.55363,0.68269 0.59531,0.2882 0.59532,0.2882 v 0.19627 0.19627 l -1.12448,0.53068 -1.12448,0.53068 -2.81536,1.21272 -2.81536,1.21271 h -0.24137 -0.24137 l -1.07186,0.78825 -1.07186,0.78826 -0.68612,1.52888 -0.68612,1.52888 -0.17252,1.71776 -0.17253,1.71776 0.41464,2.16708 0.41464,2.16709 0.64658,1.59122 0.64657,1.59122 0.38605,0.55117 0.38606,0.55117 0.14249,-3.64801 0.1425,-3.64802 0.31876,-0.94577 0.31876,-0.94576 0.98567,-1.43194 0.98567,-1.43194 1.23714,-0.63666 1.23714,-0.63665 h 1.39375 1.39376 l 1.24304,0.54986 1.24304,0.54985 0.16325,-0.26414 0.16325,-0.26415 -0.42279,-0.46718 -0.42279,-0.46719 v -0.44873 -0.44874 l 0.67868,-0.25803 0.67868,-0.25804 1.10726,-9.9e-4 1.10725,-9.9e-4 0.86629,-0.52817 0.86629,-0.52818 h 0.37494 0.37495 l 1.13867,1.45794 1.13867,1.45795 0.46436,0.14738 0.46437,0.14739 v 0.32793 0.32793 l -1.86339,0.90145 -1.86338,0.90145 -0.54363,-0.3395 -0.54363,-0.3395 -0.12581,0.12581 -0.12581,0.12581 0.27395,0.99217 0.27395,0.99217 -0.13463,0.21783 -0.13462,0.21782 0.31872,1.06378 0.31871,1.06377 h 0.23187 0.23187 l 0.56053,-1.26275 0.56054,-1.26276 1.87678,-0.78776 1.87678,-0.78777 0.148,-0.0711 0.14799,-0.0711 0.44823,0.93995 0.44823,0.93995 v 0.47918 0.47918 l -0.48449,0.43846 -0.48449,0.43846 -0.17697,-0.17697 -0.17696,-0.17696 v 0.58888 0.58888 l -0.2463,-0.15223 -0.24631,-0.15222 -0.1474,0.23851 -0.14741,0.2385 0.2873,0.82415 0.2873,0.82414 h 0.2387 0.2387 v 0.29327 0.29326 l -0.66146,-0.16601 -0.66146,-0.16602 v 0.12011 0.12011 l 0.24865,0.654 0.24865,0.65399 -0.6659,0.16714 -0.6659,0.16713 -1.30652,-0.80391 -1.30651,-0.8039 h -0.3929 -0.3929 v 0.39354 0.39355 l 1.84548,0.92937 1.84548,0.92937 h 0.29891 0.29891 l 1.31693,0.66146 1.31693,0.66146 h 0.50743 0.50743 l 0.46302,0.41565 0.46302,0.41565 2.20056,1.30414 2.20056,1.30414 h 0.0795 0.0795 l 1.77535,1.1905 1.77535,1.1905 1.62777,1.38919 1.62777,1.38918 2.32974,2.32056 2.32974,2.32055 0.78447,1.23698 0.78446,1.23697 v 0.21279 0.21278 h -0.21922 -0.21922 l -1.30213,-0.85013 -1.30213,-0.85012 -0.1323,-0.15603 -0.13229,-0.15603 -1.01475,-0.61687 -1.01476,-0.61687 -0.83163,-0.75958 -0.83163,-0.75958 -0.45268,-0.14368 -0.45268,-0.14367 -1.6968,-1.13783 -1.6968,-1.13783 -1.05757,-0.16911 -1.05756,-0.16911 -0.63569,-0.50004 -0.63569,-0.50003 -1.56366,-0.32461 -1.56365,-0.32462 -0.88316,0.14332 -0.88316,0.14332 v -0.21964 -0.21965 l -0.44112,-0.16927 -0.44112,-0.16927 -0.23921,0.23921 -0.23921,0.23921 0.68033,0.53515 0.68033,0.53514 v 0.42494 0.42495 h 0.77592 0.77592 l 0.1596,0.50286 0.1596,0.50286 0.64466,0.1618 0.64465,0.1618 0.55163,0.59211 0.55164,0.59211 h 0.25909 0.25909 l 0.18878,0.26802 0.18879,0.26802 0.79375,0.26488 0.79375,0.26488 0.26409,0.59834 0.26409,0.59833 0.38577,-0.0743 0.38577,-0.0743 0.15607,-0.66007 0.15607,-0.66007 0.18602,0.48404 0.18602,0.48405 -0.16012,0.63797 -0.16011,0.63797 0.49108,0.16033 0.49109,0.16033 0.83631,0.41877 0.83632,0.41877 0.14818,0.74092 0.14819,0.74093 0.37042,-0.14214 0.37042,-0.14214 0.16062,0.41857 0.16062,0.41858 0.66727,-0.16747 0.66727,-0.16747 v 0.42556 0.42555 h 0.28241 0.28242 l -0.17847,0.5623 -0.17847,0.5623 0.2953,-0.1825 0.2953,-0.1825 0.51003,0.16188 0.51004,0.16188 0.0829,0.55578 0.0829,0.55578 0.51472,0.2916 0.51473,0.29161 0.52735,0.46302 0.52735,0.46302 h 0.28818 0.28819 l 0.45308,0.52917 0.45309,0.52916 h -0.1927 -0.19271 l 0.98905,0.70372 0.98904,0.70371 v 0.22233 0.22233 h 0.39688 0.39687 v -0.26459 -0.26458 h 0.29289 0.29289 l -0.14904,0.3884 -0.14905,0.3884 0.27447,0.16963 0.27447,0.16963 -0.15877,0.6326 -0.15877,0.63259 h 0.25647 0.25648 l 0.29593,-0.46302 0.29594,-0.46302 -0.13453,0.62898 -0.13453,0.62899 0.44705,0.69381 0.44706,0.69381 0.50111,0.58436 0.5011,0.58436 0.43257,-0.2315 0.43257,-0.23151 0.58768,0.6106 0.58768,0.6106 v 0.27186 0.27186 l 0.95105,0.58778 0.95105,0.58778 0.5703,0.59134 0.57031,0.59134 3.0427,3.10462 3.04271,3.10461 1.08424,0.74995 1.08423,0.74995 0.44322,0.67643 0.44322,0.67644 h 0.41908 0.41909 l -0.1523,0.39687 -0.15229,0.39688 h 0.37926 0.37926 l 0.30703,0.57369 0.30704,0.5737 -0.0372,1.71608 -0.0372,1.71607 0.42801,0.47295 0.42801,0.47294 -0.41041,0.82269 -0.4104,0.82268 0.1849,0.4495 0.18491,0.44949 h 0.39687 0.39688 l 0.0846,0.59531 0.0845,0.59531 h 0.24618 0.24618 v 0.39688 0.39687 h -0.24538 -0.24538 l -0.51325,-0.65248 -0.51324,-0.65249 -0.16742,0.16742 -0.16742,0.16742 v 0.4261 0.4261 l 0.79375,0.86905 0.79375,0.86904 v 0.12101 0.121 l -0.62546,-0.15698 -0.62546,-0.15698 -0.14865,0.56845 -0.14865,0.56845 -0.54881,0.14351 -0.5488,0.14352 v 0.18963 0.18962 l 0.17697,0.17697 0.17696,0.17697 0.48612,-0.43993 0.48611,-0.43993 0.18546,0.18546 0.18547,0.18547 -0.43276,0.7169 -0.43275,0.71691 -0.5222,0.0812 -0.5222,0.0812 -0.33477,0.8082 -0.33476,0.80819 0.49839,0.96273 0.49839,0.96273 1.02575,1.25677 1.02576,1.25677 h 0.37224 0.37224 v 0.39688 0.39687 h 0.20094 0.20094 l 0.34345,-0.54995 0.34345,-0.54996 -0.54439,-0.14236 -0.54439,-0.14236 v -0.21811 -0.21811 l 0.26458,-0.16352 0.26458,-0.16352 v -0.24897 -0.24897 h -0.41249 -0.41249 l 0.17147,-0.27743 0.17146,-0.27743 0.38107,0.31626 0.38108,0.31627 0.71985,-0.63146 0.71985,-0.63146 0.27413,-0.30659 0.27413,-0.30659 -0.10211,-1.07076 -0.10211,-1.07077 -0.96577,-0.0805 -0.96577,-0.0805 0.0851,-0.72761 0.0851,-0.7276 h -0.31592 -0.31591 l 0.35314,-0.42551 0.35314,-0.4255 -0.50361,-0.36825 -0.5036,-0.36824 h 0.44744 0.44745 v -0.39688 -0.39687 h -0.39688 -0.39687 v -0.38126 -0.38126 l 0.2727,-0.16854 0.2727,-0.16854 -0.17529,-0.93438 -0.17529,-0.93439 0.35338,-0.2184 0.35338,-0.2184 -0.37242,-0.69587 -0.37242,-0.69588 0.37699,-0.23299 0.37698,-0.23299 -0.18146,-0.18146 -0.18147,-0.18147 0.25475,-0.476 0.25475,-0.47601 -0.43096,-0.43096 -0.43097,-0.43097 0.53304,-0.1394 0.53305,-0.13939 -0.13278,-0.50776 -0.13278,-0.50775 0.35797,-0.43133 0.35796,-0.43132 0.0298,-0.29487 0.0298,-0.29487 0.0403,-0.27011 0.0403,-0.27011 1.12448,-0.56322 1.12448,-0.56322 1.05833,-0.46362 1.05834,-0.46362 0.79375,-0.40292 0.79375,-0.40291 0.13229,-0.18435 0.13229,-0.18434 1.85208,-1.1628 1.85209,-1.16279 1.55278,-0.78377 1.55279,-0.78376 1.13365,-0.99788 1.13364,-0.99787 0.22399,-0.006 0.22398,-0.006 0.66146,-0.5174 0.66146,-0.5174 0.44097,-0.006 0.44097,-0.006 0.0882,-0.2004 0.0882,-0.20041 1.08543,-0.84923 1.08543,-0.84923 1.36197,-0.68408 1.36196,-0.68408 v -0.25066 -0.25066 h 0.66405 0.66405 l 0.45308,-0.52916 0.45309,-0.52917 h 0.58704 0.58705 l 0.16352,-0.26458 0.16352,-0.26459 h 0.5293 0.52931 l 1.17487,-0.98207 1.17487,-0.98207 v -0.28308 -0.28308 l 1.25677,-0.36081 1.25677,-0.36081 0.33073,-0.25852 0.33073,-0.25852 v -0.47894 -0.47894 l 0.50473,-0.16019 0.50472,-0.16019 0.15906,-0.4145 0.15906,-0.4145 -0.30973,-1.03378 -0.30973,-1.03378 -0.35405,-0.29384 -0.35406,-0.29384 v 0.29698 0.29698 h -0.51355 -0.51355 l -0.16352,0.26459 -0.16352,0.26458 h -0.38126 -0.38126 l -0.52917,-0.52917 -0.52917,-0.52916 v -0.52087 -0.52086 l 0.41208,0.15813 0.41208,0.15813 -0.13919,0.36273 -0.13919,0.36274 h 0.24066 0.24067 l 0.16352,-0.26459 0.16352,-0.26458 h 0.51355 0.51355 v -0.2734 -0.27341 l -0.86648,-0.85107 -0.86649,-0.85108 -0.46486,-0.37012 -0.46486,-0.37012 0.26319,0.69223 0.26318,0.69223 -0.6066,0.73622 -0.6066,0.73623 -0.17545,0.47979 -0.17546,0.47979 -0.24302,-0.1502 -0.24303,-0.1502 -0.8155,0.46416 -0.81551,0.46416 -0.002,0.30058 -0.002,0.30058 0.92817,0.44045 0.92816,0.44044 -0.30053,0.56156 -0.30054,0.56155 -0.816,0.7453 -0.816,0.7453 -1.24648,0.41402 -1.24647,0.41401 -0.31735,0.38238 -0.31734,0.38237 h -0.37379 -0.37378 l -0.7183,0.45691 -0.71829,0.45691 -0.13229,0.1658 -0.1323,0.1658 -1.59864,0.77532 -1.59864,0.77531 -0.84875,0.60437 -0.84876,0.60436 v 0.37886 0.37886 h -0.57826 -0.57826 l -0.54622,0.48422 -0.54622,0.48421 -1.19062,0.33941 -1.19063,0.3394 -0.66145,0.45393 -0.66146,0.45394 -3.34136,1.63286 -3.34136,1.63286 -0.4951,-0.002 -0.4951,-0.002 -0.79375,-0.42147 -0.79375,-0.42148 -1.13093,0.0167 -1.13093,0.0167 -1.19551,0.52883 -1.19552,0.52883 -0.86822,0.16288 -0.86822,0.16288 -3.94909,-2.65753 -3.94908,-2.65753 -1.51219,-1.76582 -1.5122,-1.76582 -0.8093,-0.49216 -0.80931,-0.49217 h -0.42134 -0.42134 l 0.1399,-0.53498 0.1399,-0.53498 -0.88777,-0.94131 -0.88777,-0.94132 -0.0977,-0.29311 -0.0977,-0.29311 0.50001,-0.50001 0.50002,-0.50001 -0.13703,-0.35708 -0.13702,-0.35707 0.38721,-0.32135 0.3872,-0.32135 -0.18051,0.4704 -0.18051,0.4704 0.37289,-0.12297 0.37289,-0.12298 0.0848,-0.57631 0.0848,-0.57631 -0.85416,-0.85817 -0.85416,-0.85818 -1.06459,-0.54098 -1.06459,-0.54099 -0.0951,-0.28522 -0.0951,-0.28522 0.53998,-0.14121 0.53999,-0.14121 v -0.4525 -0.45251 l 0.58154,0.15208 0.58155,0.15208 0.31096,-0.25808 0.31096,-0.25807 0.44562,0.171 0.44561,0.17099 -0.13919,0.36274 -0.13919,0.36273 0.32242,-0.002 0.32243,-0.002 0.72887,-0.38021 0.72887,-0.38021 -0.15324,0.61056 -0.15324,0.61057 0.43572,0.1672 0.43572,0.1672 0.44386,-0.22788 0.44385,-0.22788 0.30649,0.1105 0.30648,0.11051 0.17931,-0.29014 0.17932,-0.29014 -0.30021,-0.36173 -0.30021,-0.36173 0.26588,-0.16432 0.26587,-0.16432 -0.12853,-0.33496 -0.12854,-0.33495 0.66822,-0.62775 0.66821,-0.62776 0.17756,0.17756 0.17756,0.17756 0.0423,0.59519 0.0423,0.59518 0.90563,0.0746 0.90563,0.0746 -0.36463,-0.24349 -0.36463,-0.2435 0.18181,-0.29417 0.1818,-0.29416 h 0.6238 0.62379 l 0.11977,-0.33073 0.11977,-0.33073 0.56015,0.33073 0.56014,0.33073 h 0.40978 0.40977 l -0.29418,-0.54969 -0.29419,-0.54969 -0.35723,0.13709 -0.35724,0.13709 -0.28164,-0.33935 -0.28163,-0.33935 0.1741,-0.17409 0.17409,-0.17409 h 0.48507 0.48507 v -0.39688 -0.39687 h 0.20571 0.20571 l 0.60031,0.42047 0.60031,0.42047 0.45075,-0.19789 0.45075,-0.1979 0.2058,0.0445 0.2058,0.0445 0.17136,-0.46547 0.17136,-0.46548 0.60264,-0.5712 0.60264,-0.5712 0.29975,0.36117 0.29975,0.36118 -0.17069,0.27617 -0.17068,0.27617 h 0.38163 0.38163 l 0.13831,-0.5289 0.13831,-0.5289 -0.24046,-0.14862 -0.24046,-0.14861 0.27461,-0.51311 0.27461,-0.51311 h 0.78444 0.78444 v -0.64584 -0.64584 l 0.2345,-0.14493 0.23451,-0.14494 0.1376,0.5262 0.1376,0.52619 h 0.43726 0.43726 l -0.17068,-0.27618 -0.17069,-0.27617 0.31734,-0.38237 0.31734,-0.38237 0.25221,0.15587 0.25221,0.15587 0.37086,-0.48951 0.37085,-0.48952 0.008,-0.93927 0.008,-0.93927 -0.3175,-0.3175 -0.3175,-0.3175 h 0.30189 0.30188 l 0.15638,0.25303 0.15638,0.25303 0.3884,-0.14905 0.3884,-0.14904 v 0.55451 0.55451 l 0.66146,-0.0548 0.66146,-0.0547 -0.008,-0.14073 -0.008,-0.14073 -0.32231,-0.42313 -0.32232,-0.42313 -0.25797,-0.02 -0.25796,-0.02 -0.0987,-0.29597 -0.0987,-0.29597 0.6515,0.16352 0.65149,0.16351 0.16716,-0.43562 0.16717,-0.43562 0.70551,0.0852 0.7055,0.0852 0.11128,-0.33073 0.11128,-0.33073 h -0.44097 -0.44097 l 0.11024,-0.33073 0.11024,-0.33073 h 0.37483 0.37483 l 0.0796,0.55782 0.0796,0.55783 0.63937,0.34218 0.63936,0.34218 0.1738,1.53616 0.1738,1.53617 0.4723,0.42742 0.4723,0.42743 0.25353,-0.45304 0.25354,-0.45304 0.88711,0.44254 0.8871,0.44255 0.47717,-0.60414 0.47717,-0.60414 -0.12261,-0.66146 -0.1226,-0.66146 -0.17917,-0.7276 -0.17917,-0.72761 h 0.28712 0.28712 l -0.16749,0.43648 -0.16749,0.43648 0.75497,-0.18949 0.75497,-0.18948 0.74374,-0.5296 0.74375,-0.52959 v -0.23411 -0.23412 l -0.29009,-0.63667 -0.29009,-0.63668 -1.562,-0.9951 -1.56199,-0.9951 v -0.39591 -0.39591 l -0.53027,0.13867 -0.53027,0.13867 -0.15358,-0.61189 -0.15357,-0.61188 -0.63907,-0.60038 -0.63907,-0.60038 v 0.27083 0.27083 l 0.92604,1.74503 0.92604,1.74503 v 0.52819 0.52819 l -0.28219,0.1744 -0.28219,0.1744 -0.37085,-0.48952 -0.37086,-0.48951 -0.008,-0.39958 -0.008,-0.39958 -0.59531,-0.65986 -0.59531,-0.65987 -0.72818,-1.4541 -0.72817,-1.4541 -0.92443,-1.19062 -0.92442,-1.19063 -0.25605,-0.58735 -0.25606,-0.58735 -1.11829,-1.00015 -1.1183,-1.00015 -0.54493,-0.66145 -0.54492,-0.66146 -1.32292,-1.32827 -1.32292,-1.32828 -0.7587,-0.58635 -0.7587,-0.58635 -0.23046,0.14243 -0.23045,0.14243 0.1383,-0.36042 0.1383,-0.36041 -1.42812,-0.98359 -1.42813,-0.98359 -1.90239,0.68623 -1.90239,0.68623 -1.73027,0.77632 -1.73027,0.77633 h -0.29872 -0.29871 l 0.52181,-0.49807 0.52182,-0.49807 1.85208,-0.92595 1.85209,-0.92595 0.7276,-0.2901 0.7276,-0.2901 v -0.39425 -0.39424 l -0.4428,0.16992 -0.44281,0.16992 0.16992,-0.44281 0.16992,-0.4428 h -0.55784 -0.55784 l -0.3815,0.46302 -0.38149,0.46302 0.15222,-0.48033 0.15223,-0.48032 -0.50091,0.15899 -0.50092,0.15898 -0.50627,-0.64362 -0.50627,-0.64362 -0.77709,0.12242 -0.77709,0.12242 0.51359,-0.41423 0.51359,-0.41423 h 0.42568 0.42568 l 0.28527,-0.28527 0.28527,-0.28527 0.73943,0.0868 0.73943,0.0868 0.1086,0.33073 0.1086,0.33073 h -0.41892 -0.41893 v 0.26458 0.26459 h 0.69232 0.69232 l -0.13313,-0.46303 -0.13314,-0.46302 -0.11894,-0.39687 -0.11895,-0.39688 0.11098,0.19844 0.11098,0.19844 h 0.37482 0.37483 l -0.0313,-0.19844 -0.0313,-0.19844 0.0313,-0.34634 0.0313,-0.34634 0.26458,0.16352 0.26458,0.16352 v 0.54595 0.54595 l 0.39688,-0.32938 0.39687,-0.32938 v 0.2683 0.2683 l 0.72761,0.18947 0.7276,0.18948 -0.66146,0.25326 -0.66145,0.25326 0.46302,0.26055 0.46302,0.26055 v 0.39203 0.39204 l -0.39688,0.15229 -0.39687,0.1523 v 0.23627 0.23628 h 0.37482 0.37483 l 0.13345,-0.33073 0.13345,-0.33073 0.0209,0.36313 0.0209,0.36312 0.33073,-0.2605 0.33073,-0.26049 0.7276,-0.17382 0.72761,-0.17381 0.67275,0.16885 0.67275,0.16885 -0.0774,0.56379 -0.0774,0.5638 0.51817,-0.0459 0.51818,-0.0459 0.42822,0.22918 0.42823,0.22918 0.38344,-0.44783 0.38344,-0.44782 0.078,-0.26458 0.078,-0.26459 0.38017,-0.21275 0.38018,-0.21276 0.26249,0.16223 0.26248,0.16222 v 0.51355 0.51356 h 0.39688 0.39687 v 0.23218 0.23219 l -0.41026,0.34049 -0.41027,0.34049 -0.14976,-0.57268 -0.14976,-0.57267 h -0.33515 -0.33516 l -0.13838,0.52916 -0.13838,0.52917 h 0.44115 0.44116 l 0.62759,0.75978 0.62759,0.75978 0.52107,-0.13626 0.52106,-0.13627 0.23345,0.36867 0.23345,0.36867 0.004,0.15801 0.004,0.158 -0.59531,0.28711 -0.59531,0.28711 0.66146,0.0139 0.66146,0.0138 0.33969,-0.21554 0.33969,-0.21554 -0.16956,-0.44186 -0.16956,-0.44187 h 0.26049 0.26049 l 0.32726,0.39432 0.32725,0.39431 0.63119,-0.15841 0.63118,-0.15842 v 0.32566 0.32567 l 0.39688,-0.32938 0.39687,-0.32938 v 0.82615 0.82615 h 0.39688 0.39687 v -0.49677 -0.49677 l 0.33073,-0.266 0.33073,-0.266 0.85119,0.13006 0.85119,0.13006 0.15877,0.50022 0.15876,0.50021 0.494,-0.26438 0.49401,-0.26438 h 0.14969 0.14968 v 0.47625 0.47625 l 0.2869,0.28689 0.28689,0.2869 0.50686,-0.13255 0.50685,-0.13255 v -0.4983 -0.49831 h 0.39688 0.39687 v 0.23627 0.23628 l 0.43041,0.16516 0.43041,0.16517 0.32981,-0.27371 0.3298,-0.27372 0.45009,0.17272 0.4501,0.17272 -0.16732,0.66664 -0.16732,0.66665 0.32906,0.20337 0.32906,0.20337 -0.29858,0.35977 -0.29858,0.35976 0.21987,0.35576 0.21986,0.35575 0.29604,-0.18296 0.29603,-0.18296 0.15873,0.41365 0.15873,0.41364 h 0.50086 0.50086 v 0.41249 0.41249 l 0.32316,-0.19972 0.32317,-0.19973 0.83628,0.0169 0.83629,0.0169 0.87728,0.43764 0.87729,0.43765 0.19411,-0.33657 0.19411,-0.33657 0.39335,-0.52875 0.39336,-0.52875 0.21005,0.21005 0.21006,0.21006 -0.34462,0.55181 -0.34461,0.55182 0.75151,-0.18654 0.7515,-0.18653 0.0882,-0.24502 0.0882,-0.24502 h 0.37483 0.37482 l 0.009,0.7276 0.009,0.7276 0.49663,-0.59531 0.49663,-0.59531 h 0.26001 0.26001 l 0.15873,0.41364 0.15873,0.41365 0.3326,-0.16868 0.33259,-0.16869 -0.52916,0.44474 -0.52917,0.44474 -0.8418,0.36462 -0.84181,0.36463 -0.15124,0.24471 -0.15124,0.24472 0.14933,0.38915 0.14933,0.38915 0.92443,-0.0246 0.92443,-0.0246 -0.14248,-0.5677 -0.14249,-0.56771 1.1201,0.0286 1.12011,0.0286 -0.0838,1.19062 -0.0838,1.19063 0.75004,0.44173 0.75003,0.44173 0.46358,-0.25943 0.46357,-0.25943 0.52383,0.16626 0.52383,0.16626 v -0.15372 -0.15371 l -0.31481,-0.50409 -0.31481,-0.50409 0.36132,-0.43537 0.36133,-0.43537 0.59873,0.15027 0.59873,0.15027 0.16679,-0.26987 0.16678,-0.26987 0.24702,0.15267 0.24702,0.15266 -0.29379,0.54895 -0.29378,0.54894 0.65975,-0.16559 0.65975,-0.16559 0.13771,0.52663 0.13772,0.52663 h -0.3638 -0.3638 l 0.16254,0.42358 0.16254,0.42358 -0.36187,0.22365 -0.36187,0.22364 0.45561,0.17484 0.45561,0.17483 v 0.36857 0.36856 h 0.68977 0.68976 l -0.15104,0.3936 -0.15104,0.3936 0.78524,-0.086 0.78523,-0.086 0.15239,-0.15239 0.15239,-0.15239 -0.47201,-0.72038 -0.47201,-0.72037 0.59124,0.36669 0.59123,0.36669 0.23535,-0.37826 0.23535,-0.37825 0.35189,-0.0569 0.35189,-0.057 0.26458,-0.0802 0.26458,-0.0802 0.58532,0.19937 0.58532,0.19937 0.56182,-0.30067 0.56182,-0.30068 0.14734,0.14733 0.14733,0.14734 -0.29688,0.35772 -0.29688,0.35772 0.25918,0.9037 0.25917,0.90369 v 42.14617 42.14617 l -66.14584,-0.0444 -66.14583,-0.0444 z m 89.71051,24.17964 0.78423,-0.40554 -0.11551,-1.77727 -0.11551,-1.77728 -0.0204,-0.18322 -0.0204,-0.18323 -1.11741,-0.0813 -1.11741,-0.0814 -0.29117,-1.04279 -0.29117,-1.04279 -0.34181,-0.11394 -0.34182,-0.11394 -0.25412,0.36298 -0.25413,0.36298 -0.1342,-0.33073 -0.13419,-0.33073 h -0.21423 -0.21423 l -0.16054,0.41837 -0.16055,0.41837 0.39682,0.56654 0.39682,0.56654 v 0.22599 0.22598 l -0.85989,-0.0471 -0.8599,-0.0471 -0.27585,0.0268 -0.27585,0.0268 -0.31946,1.19442 -0.31946,1.19442 v 0.62527 0.62526 l 0.33073,0.26146 0.33073,0.26145 0.79375,0.27922 0.79375,0.27922 1.79907,0.0209 1.79908,0.0209 z m -14.03968,-5.68818 v -0.27289 l -0.39687,-0.15229 -0.39688,-0.1523 v -0.62 -0.62001 l 0.4152,-0.23235 0.41519,-0.23236 -0.87821,-0.66973 -0.87822,-0.66972 -1.5875,-0.82512 -1.5875,-0.82513 -1.45521,-0.82241 -1.4552,-0.82241 -0.25136,-0.24165 -0.25135,-0.24166 h -0.37011 -0.37012 l -2.42124,-1.2312 -2.42124,-1.2312 -4.89479,-2.46999 -4.89479,-2.47 -0.18369,-0.003 -0.18368,-0.003 -3.12361,-1.48477 -3.12361,-1.48478 -0.52917,-0.2804 -0.52916,-0.28041 -1.71979,-0.84894 -1.7198,-0.84895 -2.77812,-1.33337 -2.77813,-1.33336 -1.71979,-0.55041 -1.71979,-0.5504 -2.3151,-0.0956 -2.31511,-0.0955 v 0.21925 0.21924 l 1.38907,1.04296 1.38906,1.04295 1.6491,0.53728 1.6491,0.53728 1.12903,0.76803 1.12902,0.76803 2.38125,1.27737 2.38125,1.27737 5.02708,2.55956 5.02709,2.55956 5.29166,2.66656 5.29167,2.66657 3.30729,1.57689 3.30729,1.57689 2.11667,1.00339 2.11667,1.00339 1.19062,0.47041 1.19063,0.4704 0.7276,0.0124 0.7276,0.0124 z m -0.49081,-11.1876 0.43522,-0.33116 -0.30849,-0.38803 -0.30849,-0.38803 -1.44965,-0.75889 -1.44965,-0.75888 -3.83646,-1.97348 -3.83646,-1.97349 -1.5875,-0.66742 -1.5875,-0.66741 -0.39687,-0.33924 -0.39688,-0.33923 -0.6568,-0.20093 -0.65681,-0.20094 -5.35155,-2.60848 -5.35154,-2.60849 h -0.16937 -0.16936 l -2.29819,-1.16087 -2.2982,-1.16087 -2.36022,-0.97702 -2.36023,-0.97702 -4.5097,-2.26622 -4.5097,-2.26622 -0.73772,-0.38281 -0.73772,-0.38282 -0.40725,0.15628 -0.40724,0.15627 0.6158,0.7553 0.6158,0.75529 0.88729,0.58845 0.88728,0.58845 2.1504,0.90693 2.1504,0.90692 2.83256,1.58623 2.83255,1.58623 h 0.23909 0.23909 l 2.22505,1.34615 2.22504,1.34614 3.57188,1.79431 3.57187,1.79431 6.08542,2.82815 6.08542,2.82816 1.05833,0.57069 1.05833,0.57069 3.43959,1.51621 3.43958,1.5162 0.52917,0.006 0.52916,0.006 z m 10.39505,-0.73568 0.24695,-0.23043 -0.1812,-0.1812 -0.1812,-0.1812 -0.66106,0.35379 -0.66106,0.35379 v 0.2377 0.23771 l 0.59531,-0.17986 0.59532,-0.17986 z m 13.49417,-26.16187 0.67868,-0.25804 0.0209,-0.60186 0.0209,-0.60186 0.13346,0.33073 0.13345,0.33073 h 0.45338 0.45338 l 1.79691,-1.18022 1.79691,-1.18021 0.47089,-0.14946 0.47089,-0.14945 0.45335,-0.50094 0.45334,-0.50094 0.29535,-1.90811 0.29535,-1.90811 -0.64678,-0.52374 -0.64679,-0.52373 -1.25764,0.14895 -1.25764,0.14895 v -1.04587 -1.04587 l -0.52916,-0.52917 -0.52917,-0.52916 h -0.86717 -0.86717 l -0.58804,0.41187 -0.58804,0.41188 -0.0256,-0.34573 -0.0256,-0.34573 0.0445,-0.97371 0.0445,-0.9737 -0.66013,-0.43254 -0.66013,-0.43253 -0.98562,0.0833 -0.98562,0.0833 -0.19823,0.39688 -0.19824,0.39687 -0.29711,0.66146 -0.29711,0.66146 0.11697,-2.04455 0.11696,-2.04455 -0.79319,-0.66743 -0.7932,-0.66743 h -0.58229 -0.58228 l -0.58804,0.41188 -0.58804,0.41188 v 1.04333 1.04333 h -0.38126 -0.38126 l -0.16352,-0.26458 -0.16352,-0.26459 h -1.02382 -1.02382 l -0.41577,0.41578 -0.41578,0.41577 v 0.90714 0.90715 h -0.23219 -0.23218 l -0.32938,-0.39688 -0.32938,-0.39687 h -0.98493 -0.98492 l -0.49328,0.54506 -0.49328,0.54507 0.0734,2.03462 0.0734,2.03462 0.21425,0.21901 0.21424,0.219 0.89224,0.1913 0.89225,0.1913 0.44637,-0.0958 0.44637,-0.0958 0.39264,-1.10828 0.39264,-1.10829 0.0209,2.05052 0.0209,2.05052 0.52917,0.52917 0.52916,0.52917 h 0.84996 0.84996 l 0.59573,-0.72761 0.59574,-0.7276 0.0512,1.05833 0.0512,1.05834 -0.0215,0.38587 -0.0215,0.38588 0.2487,0.46469 0.24869,0.46469 1.05923,0.31735 1.05923,0.31736 0.39488,-0.50647 0.39487,-0.50646 0.16097,-0.72167 0.16096,-0.72167 0.3534,-0.29329 0.3534,-0.2933 0.27617,0.17069 0.27618,0.17068 0.004,2.03491 0.004,2.0349 0.19438,0.30012 0.19439,0.30013 0.52917,0.1322 0.52916,0.13221 0.31351,0.0307 0.3135,0.0307 z m -3.91261,-7.35845 -0.21444,-0.34044 0.17716,-1.04862 0.17716,-1.04862 h 0.24133 0.24133 l -0.0313,0.59531 -0.0313,0.59531 -0.17274,0.79375 -0.17275,0.79375 z m -4.25536,-3.46868 -0.14663,-0.23725 0.38524,-0.88723 0.38524,-0.88723 0.0104,1.12448 0.0103,1.12448 h -0.24896 -0.24897 z m -1.64538,-3.34604 -0.15668,-0.40829 0.15859,-0.15858 0.15858,-0.15858 0.40327,0.33468 0.40327,0.33468 v 0.23219 0.23219 h -0.40518 -0.40518 z m -1.25829,13.24058 0.16602,-0.66146 h 0.2359 0.2359 v -0.26458 -0.26459 h -0.44979 -0.4498 l 0.2869,-0.28689 0.2869,-0.2869 -0.12872,-0.49221 -0.12872,-0.49222 -0.48868,0.30519 -0.48869,0.30519 0.26398,0.31807 0.26398,0.31808 -0.27743,0.17146 -0.27743,0.17146 v 0.91043 0.91043 h 0.39183 0.39184 z m -5.6082,-3.46122 0.1606,-0.41852 v -0.50753 -0.50752 h -0.52917 -0.52916 v 0.92604 0.92604 h 0.36857 0.36856 z m 0.42518,-2.88878 -0.34799,-0.4193 -0.25383,0.25383 -0.25383,0.25383 0.36168,0.39672 0.36168,0.39672 0.24014,-0.23125 0.24014,-0.23125 z m -40.0287,-14.32223 0.0888,-0.26624 -0.66713,-0.35703 -0.66712,-0.35704 -0.17786,0.17786 -0.17785,0.17786 0.50818,0.51127 0.50819,0.51127 0.24805,-0.0659 0.24805,-0.0659 z m -14.21088,-5.78706 v -0.13326 l -0.53425,-0.99122 -0.53424,-0.99123 -0.16026,-0.98738 -0.16026,-0.98738 -0.18913,0.11689 -0.18913,0.11689 0.11251,1.25811 0.11251,1.25811 0.38105,0.73686 0.38104,0.73686 h 0.39008 0.39008 z m 4.23202,-2.3311 10e-4,-0.47998 -0.63926,-1.39757 -0.63927,-1.39758 -0.98055,-0.4653 -0.98054,-0.4653 -0.69492,0.31662 -0.69491,0.31663 0.71828,0.37634 0.71827,0.37634 0.6507,1.12072 0.6507,1.12072 0.18675,1.05833 0.18675,1.05833 0.14032,0.24239 0.14032,0.24239 0.61737,-0.77155 0.61736,-0.77156 z m 90.48882,-1.75868 v -0.25428 l -0.56924,-0.53032 -0.56924,-0.53033 -0.22451,0.13876 -0.22451,0.13876 v 0.24052 0.24052 l 0.7276,0.39473 0.7276,0.39473 0.0661,0.0106 0.0662,0.0106 z m -17.89758,-5.36378 -0.12532,-0.20278 h -0.46946 -0.46945 l -0.15816,0.15816 -0.15816,0.15816 0.12994,0.33862 0.12994,0.33862 0.623,-0.294 0.62299,-0.29401 z m -4.21014,0.003 0.41188,-0.58803 v -0.20572 -0.20571 h -0.2452 -0.24521 l -0.39597,0.79375 -0.39598,0.79375 h 0.2293 0.22931 z m 2.3358,-0.676 -0.20413,-0.54711 -0.50434,0.36965 -0.50435,0.36965 0.63664,0.2405 0.63664,0.24051 0.0718,-0.063 0.0718,-0.063 z m -68.21449,-0.10134 0.6739,-0.30706 v -0.20409 -0.2041 l -0.76845,-0.54718 -0.76844,-0.54719 h -0.40657 -0.40656 l -0.13562,0.21945 -0.13563,0.21945 0.58303,0.83431 0.58303,0.83431 0.0537,0.005 0.0537,0.005 z m 67.65008,-1.48874 -0.33352,-0.11117 0.45552,-0.50335 0.45553,-0.50335 -0.16217,-0.16217 -0.16217,-0.16217 -0.34333,0.36223 -0.34333,0.36223 -0.0824,0.59325 -0.0824,0.59326 0.46592,-0.17879 0.46593,-0.17879 z m -15.97152,-5.52128 -0.37529,-0.37529 -0.44385,0.17032 -0.44385,0.17032 v 0.21787 0.21788 l 0.59531,0.0981 0.59532,0.0981 0.22382,-0.11102 0.22383,-0.11102 z m -14.23599,-5.71366 -0.008,-0.8599 -0.37367,-0.49336 -0.37367,-0.49336 -0.70649,-0.36654 -0.7065,-0.36653 h -0.4833 -0.48331 l -0.17748,0.28717 -0.17748,0.28716 1.41864,1.38784 1.41863,1.38784 0.33073,0.0448 0.33073,0.0448 z m 2.58811,34.54418 -0.46303,-0.121 0.004,-0.17904 0.004,-0.17904 0.23259,-0.36728 0.2326,-0.36729 0.77065,-0.0296 0.77065,-0.0296 0.0248,-0.85989 0.0248,-0.8599 h -0.37069 -0.37069 v 0.26459 0.26458 h -0.60854 -0.60854 l -0.31897,0.31897 -0.31898,0.31897 -0.7713,-0.91428 -0.77131,-0.91429 -0.31532,-1.10797 -0.31532,-1.10798 0.56792,-0.79758 0.56792,-0.79757 1.20837,-0.81551 1.20836,-0.81552 1.2534,-0.63514 1.25339,-0.63515 1.69644,-0.57445 1.69644,-0.57446 1.51926,0.13508 1.51927,0.13507 0.81614,0.68674 0.81614,0.68674 h 0.19738 0.19739 l 0.58603,1.12448 0.58603,1.12447 0.29673,0.42706 0.29672,0.42706 -0.16464,0.42905 -0.16465,0.42906 -2.72173,1.30185 -2.72174,1.30185 -2.77812,1.30412 -2.77813,1.30411 -0.36312,0.44053 -0.36313,0.44052 -0.29833,-0.0307 -0.29833,-0.0307 z m -18.36535,-9.82329 -0.1257,-0.48068 -0.84172,0.0928 -0.84171,0.0928 1.0305,-0.38789 1.0305,-0.3879 0.4664,0.57599 0.46641,0.57598 -0.12346,0.19976 -0.12346,0.19976 h -0.40603 -0.40603 z m 2.29191,-0.45938 v -0.10937 l 1.25677,-0.6723 1.25677,-0.67231 0.79375,-0.45663 0.79375,-0.45663 0.52353,-0.0916 0.52354,-0.0916 0.97987,-0.49989 0.97986,-0.49989 0.16586,-0.26837 0.16586,-0.26836 h 0.59293 0.59292 l 0.27326,-0.27326 0.27326,-0.27325 0.4396,0.16868 0.43959,0.16869 -0.14638,0.23686 -0.14639,0.23686 h -0.48052 -0.48052 l -2.0145,0.91804 -2.01449,0.91803 -0.71867,0.47089 -0.71866,0.47088 -0.93789,0.34575 -0.93789,0.34575 -0.72761,0.23124 -0.7276,0.23123 z m 36.16202,-0.29237 -0.1741,-0.1741 0.23883,-0.28892 0.23883,-0.28893 -0.13609,-0.70884 -0.13609,-0.70884 -0.36962,0.14183 -0.36961,0.14184 v -0.38492 -0.38492 l 0.7614,-0.0217 0.76141,-0.0217 0.14747,1.09944 0.14747,1.09944 -0.27982,0.33715 -0.27981,0.33716 h -0.18809 -0.18809 z m -50.05265,-2.20716 -0.16352,-0.26458 0.126,-0.19844 0.126,-0.19844 1.01409,-0.51606 1.0141,-0.51606 0.39687,-0.3247 0.39688,-0.32469 1.32292,-0.44556 1.32291,-0.44556 1.04189,-0.49962 1.04188,-0.49962 h 0.4779 0.47789 l 2.44897,-1.16019 2.44897,-1.16019 0.98095,-0.43439 0.98095,-0.43439 0.14103,-0.2282 0.14103,-0.22819 0.62337,-0.15646 0.62337,-0.15645 5.69103,-2.78327 5.69103,-2.78327 h 0.17039 0.17039 v 0.26292 0.26293 l -5.35781,2.63721 -5.35781,2.63722 -1.12528,0.73137 -1.12528,0.73137 0.15331,0.81723 0.15331,0.81722 -0.4283,0.35547 -0.42831,0.35546 -0.31731,-0.3173 -0.3173,-0.31731 0.39466,-0.24926 0.39467,-0.24927 0.26458,-0.10487 0.26458,-0.10486 -0.45206,-0.47434 -0.45207,-0.47434 -2.45835,1.23641 -2.45835,1.23641 -0.61973,-5e-5 -0.61972,-4e-5 -0.67273,0.52917 -0.67273,0.52916 h -0.30979 -0.30979 l -0.83246,0.61417 -0.83246,0.61417 -1.49236,0.50727 -1.49237,0.50727 -0.24943,0.46606 -0.24942,0.46606 h -0.76883 -0.76883 z m 9.61889,-1.89504 0.8558,-0.8367 -0.13581,-0.35392 -0.13581,-0.35392 h 0.52086 0.52086 v 0.49318 0.49318 l -1.00641,0.69744 -1.0064,0.69745 h -0.23445 -0.23444 z m 5.76044,-0.76554 -0.76026,-0.76727 0.66636,-0.25335 0.66637,-0.25335 0.10902,-0.32706 0.10901,-0.32705 1.16245,0.0455 1.16245,0.0455 0.24135,0.24136 0.24136,0.24135 -0.18735,0.30313 -0.18734,0.30313 -0.7155,-0.15715 -0.7155,-0.15715 -0.36703,0.93541 -0.36703,0.93541 -0.14905,-0.0206 -0.14905,-0.0206 z m 9.11544,-0.21095 -0.26238,-0.49028 0.60649,0.11594 0.6065,0.11594 0.90336,-0.55071 0.90335,-0.55072 0.39687,0.009 0.39688,0.009 -0.79375,0.65063 -0.79375,0.65062 -0.44741,10e-4 -0.44741,10e-4 -0.16352,0.26459 -0.16352,0.26458 h -0.23966 -0.23966 z m -11.13331,-0.30347 v -0.26458 h -0.39687 -0.39688 v -0.36448 -0.36448 l 0.37917,-0.31468 0.37917,-0.31468 0.67916,0.445 0.67917,0.44501 v 0.083 0.083 l -0.41578,0.41578 -0.41577,0.41577 h -0.24569 -0.24568 z m 14.81667,-1.64042 v -0.58208 l 0.29427,0.29427 0.29427,0.29427 1.20034,-0.63823 1.20035,-0.63823 h 0.0929 0.0929 v 0.25066 0.25066 l -1.34466,0.67538 -1.34465,0.67539 h -0.24285 -0.24284 z m -26.29698,-1.42195 -0.15984,-0.41653 0.37722,-0.37722 0.37722,-0.37721 h 0.28348 0.28348 v 0.39687 0.39688 h -0.26458 -0.26459 v 0.39687 0.39688 h -0.23627 -0.23628 z m 1.95531,-0.22931 v -0.38126 l 0.27617,-0.17068 0.27618,-0.17069 0.38237,0.31734 0.38237,0.31734 -0.14499,0.23461 -0.145,0.2346 h -0.51355 -0.51355 z m 16.54829,-0.11063 -0.15612,-0.49189 0.15875,-0.41369 0.15875,-0.4137 0.40587,-0.15575 0.40588,-0.15575 -0.16175,0.42152 -0.16175,0.42151 v 0.63982 0.63982 h -0.24676 -0.24675 z m 11.14922,-0.19492 -0.71001,-0.61072 v -0.14499 -0.14498 h 0.66146 0.66146 l 0.004,0.19844 0.004,0.19844 0.20933,0.32964 0.20933,0.32964 2.20219,-1.12339 2.20218,-1.12339 0.63651,-0.34966 0.63651,-0.34965 0.32136,0.11062 0.32136,0.11063 -1.98437,1.02472 -1.98438,1.02473 -1.34051,0.56533 -1.3405,0.56532 z m -28.56122,-6.08593 -0.15816,-0.15816 0.13745,-0.35821 0.13746,-0.35821 0.96879,-0.31083 0.9688,-0.31083 0.40291,-0.35004 0.40292,-0.35004 0.35858,0.22162 0.35859,0.22161 -0.17743,0.28709 -0.17743,0.28708 -0.98095,0.4262 -0.98094,0.4262 -0.45944,0.24234 -0.45943,0.24234 h -0.0918 -0.0918 z m 25.35697,-4.27766 0.28388,-0.19439 0.17084,-0.46302 0.17083,-0.46302 h 0.27289 0.27288 v 0.66146 0.66146 l -0.7276,-0.004 -0.7276,-0.004 z m -42.85789,-0.55258 -0.13961,-0.22589 0.68735,-0.31318 0.68735,-0.31318 0.16384,0.16383 0.16383,0.16383 -0.51318,0.37525 -0.51317,0.37524 h -0.1984 -0.1984 z"
       id="path4" /></g></svg>
