<?xml version="1.0" encoding="UTF-8" standalone="no"?>
<!-- Created with Inkscape (http://www.inkscape.org/) -->

<svg
   width="101.6mm"
   height="84.666679mm"
   viewBox="0 0 101.6 84.666679"
   version="1.1"
   id="svg1"
   xml:space="preserve"
   xmlns="http://www.w3.org/2000/svg"
   xmlns:svg="http://www.w3.org/2000/svg"><defs
     id="defs1" /><g
     id="layer1"
     transform="matrix(1.3333335,0,0,1.3333335,-141.45619,-133.71268)"><path
       style="fill:#ffffff;fill-opacity:1"
       d="m 106.09213,132.0345 v -31.75 h 38.1 38.09999 v 31.75 31.75 h -38.09999 -38.1 z m 75.67082,0 v -31.22083 h -37.57082 -37.57084 v 9.21184 9.21184 l 6.01927,0.87379 6.01927,0.87379 0.20742,0.18918 0.20742,0.18918 -2.0595,-0.32133 -2.0595,-0.32132 -1.85209,-0.15175 -1.85208,-0.15174 0.66146,0.22605 0.66146,0.22606 0.87551,0.0264 0.87551,0.0264 -0.16754,0.27109 -0.16755,0.27109 -1.36942,-0.13402 -1.36943,-0.13401 0.66146,0.23342 0.66146,0.23343 1.12448,0.0264 1.12448,0.0264 v 0.24782 0.24782 l -0.8599,0.10671 -0.85989,0.10671 1.5875,0.0238 1.5875,0.0237 -0.52917,-0.25029 -0.52917,-0.25028 2.24896,0.1241 2.24896,0.1241 -0.52917,-0.2335 -0.52916,-0.23349 0.66145,-0.0603 0.66146,-0.0603 0.26459,-6.5e-4 0.26458,-6.4e-4 1.5875,0.17635 1.5875,0.17635 -0.39688,-0.26226 -0.39687,-0.26227 -0.79375,-0.0401 -0.79375,-0.0401 0.62222,-0.11819 0.62223,-0.11819 0.63454,0.15926 0.63455,0.15926 v 0.42953 0.42953 l -1.65365,-0.15279 -1.65364,-0.15278 0.52917,0.22879 0.52916,0.22878 -0.7276,0.0186 -0.72761,0.0186 -0.0209,-0.33073 -0.0209,-0.33072 -0.13345,0.33072 -0.13345,0.33073 h -0.37483 -0.37482 v 0.24618 0.24619 l -0.59532,0.11033 -0.59531,0.11034 2.55073,0.007 2.55073,0.007 0.29051,0.17954 0.29051,0.17954 -0.17422,-0.45403 -0.17423,-0.45402 0.35775,0.2211 0.35774,0.2211 0.8117,0.0543 0.8117,0.0543 0.29972,-0.23865 0.29972,-0.23864 0.11956,0.81461 0.11956,0.81462 -1.52642,-0.0756 -1.52641,-0.0756 -0.19374,0.19373 -0.19373,0.19373 2.22691,0.002 2.22691,0.002 2.78985,0.11348 2.78985,0.11347 0.35964,-0.22227 0.35964,-0.22227 -0.1571,-1.68232 -0.1571,-1.68232 -0.1908,-0.49722 -0.1908,-0.49721 1.03487,0.19045 1.03487,0.19045 0.71539,0.67856 0.7154,0.67856 0.4215,0.88823 0.42149,0.88824 h 0.14991 0.14991 l -0.11501,-0.7836 -0.11501,-0.7836 0.3575,-0.13718 0.35749,-0.13719 -0.0614,0.91144 -0.0614,0.91143 0.20761,0.20779 0.20761,0.20778 h 2.64199 2.64199 l -0.1121,0.58731 -0.11209,0.58731 0.22636,-0.1399 0.22636,-0.1399 v 0.94165 0.94166 h 0.38126 0.38126 l 0.16319,0.26404 0.16318,0.26404 -0.4692,0.79429 -0.4692,0.7943 h -0.18549 -0.18549 l -0.13379,-0.33073 -0.1338,-0.33073 0.0111,1.05833 0.0111,1.05833 -0.45317,1.19063 -0.45318,1.19062 -0.35997,1.26712 -0.35997,1.26711 0.15916,0.41476 0.15916,0.41476 -3.12209,-0.0944 -3.12209,-0.0944 -0.1141,0.33073 -0.1141,0.33073 h 1.87413 1.87414 v 0.52917 0.52916 h 0.26458 0.26458 v -0.52916 -0.52917 h 1.83647 1.83647 l 0.16352,-0.26458 0.16352,-0.26459 h -0.80936 -0.80937 v -1.02602 -1.02602 l 0.42468,-1.0245 0.42469,-1.0245 0.0981,-0.10385 0.0981,-0.10385 0.4062,0.33712 0.4062,0.33712 -0.42915,0.3138 -0.42915,0.31381 0.44512,0.44511 0.44511,0.44512 h 0.40628 0.40629 l -0.14055,0.36626 -0.14055,0.36627 1.07361,0.17167 1.0736,0.17168 0.14107,-0.14107 0.14106,-0.14106 h -0.30868 -0.30867 v -0.26446 -0.26458 h 1.7982 1.79819 l 1.83983,-1.74819 1.83983,-1.74818 -0.43256,0.30009 -0.43255,0.30008 -0.16448,-0.65534 -0.16448,-0.65535 -1.50662,-1.66687 -1.50662,-1.66686 1.10252,1.03715 1.10251,1.03714 0.17399,-0.4534 0.17398,-0.45338 -0.1484,-0.91448 -0.1484,-0.91448 h 0.36503 0.36503 l 0.0814,1.12448 0.0814,1.12446 1.05833,0.1609 1.05833,0.16089 -0.47863,0.0376 -0.47864,0.0376 0.16352,0.26458 0.16352,0.26458 h -0.72999 -0.72999 l 0.29798,0.29798 0.29798,0.29798 6.11965,-0.0467 6.11965,-0.0467 2.88833,0.18276 2.88834,0.18277 -0.14054,0.2274 -0.14054,0.22739 h 0.66393 0.66393 l 0.26968,-0.46302 0.26969,-0.46302 0.008,0.49764 0.008,0.49763 0.85989,-0.1315 0.8599,-0.13151 0.33073,0.11894 0.33073,0.11894 1.6e-4,0.17639 1.6e-4,0.17639 -1.32308,-0.0917 -1.32308,-0.0917 v 0.42241 0.42241 l 0.46302,0.0305 0.46302,0.0305 0.46302,-0.0471 0.46303,-0.0471 v 0.5458 0.5458 l 0.19843,-0.0313 0.19844,-0.0313 0.26458,0.058 0.26459,0.058 1.25661,0.0395 1.2566,0.0395 0.024,-0.79375 0.024,-0.79375 0.24829,0.85989 0.24829,0.8599 h 0.28646 0.28647 l -0.18523,0.98731 -0.18522,0.98732 -0.26552,0.49613 -0.26552,0.49612 -0.83547,-0.76964 -0.83548,-0.76964 -0.40729,-0.30307 -0.40729,-0.30307 -1.11406,-0.25032 -1.11407,-0.25031 v 0.30665 0.30665 l 1.32114,0.46922 1.32114,0.46923 0.65121,0.65121 0.65121,0.65121 h 0.27661 0.27661 l 0.0397,0.39687 0.0397,0.39688 0.0265,0.33073 0.0265,0.33073 0.30612,0.19781 0.30612,0.19781 -0.13854,0.52979 -0.13854,0.52979 h 0.25297 0.25297 l 0.30138,0.66146 0.30138,0.66146 h -0.37535 -0.37535 l 0.0543,0.7069 0.0543,0.70691 0.32669,0.10889 0.32669,0.1089 0.0209,-0.48507 0.0209,-0.48507 0.13636,0.33946 0.13636,0.33945 -0.19223,0.4543 -0.19224,0.45429 -0.0765,0.52917 -0.0765,0.52916 -0.6785,1.4708 -0.67851,1.4708 -1.65739,0.82621 -1.6574,0.82621 -0.79375,0.17528 -0.79375,0.17528 -1.71979,-0.0459 -1.71979,-0.0459 -0.33073,-0.0231 -0.33073,-0.0231 v -0.17105 -0.17104 l -1.22514,-0.0634 -1.22514,-0.0634 0.13757,0.52605 0.13757,0.52606 -0.38138,0.14635 -0.38138,0.14635 0.18692,-0.30244 0.18691,-0.30243 -0.28062,0.17344 -0.28063,0.17343 0.14913,0.57028 0.14913,0.57027 -0.35904,-0.2219 -0.35905,-0.2219 -0.61506,-0.0269 -0.61506,-0.0269 0.13038,0.33974 0.13037,0.33975 h -0.53648 -0.53648 l 0.145,-0.2346 0.14499,-0.23461 -0.43213,-0.35863 -0.43212,-0.35864 0.20862,0.65731 0.20862,0.6573 -0.39324,-0.32635 -0.39324,-0.32636 -0.21651,0.19614 -0.21651,0.19615 0.21608,-0.37241 0.21609,-0.37241 -0.63669,0.16081 -0.63669,0.16081 0.52917,-0.41427 0.52917,-0.41426 -0.79375,0.17347 -0.79375,0.17348 -0.33073,0.0335 -0.33073,0.0335 v 0.23712 0.23712 l -0.46302,-0.0587 -0.46302,-0.0587 -0.75601,0.21015 -0.756,0.21016 -0.23213,-0.36654 -0.23213,-0.36654 -0.004,0.36313 -0.004,0.36312 -0.35809,-0.29718 -0.35808,-0.29718 -1.42785,-0.13531 -1.42786,-0.13531 -0.72577,-0.2927 -0.72576,-0.2927 -0.51832,0.13554 -0.51832,0.13554 -0.0788,-0.18221 -0.0788,-0.1822 -1.14191,-0.5883 -1.14191,-0.58829 -0.24715,0.15274 -0.24715,0.15275 v -0.29581 -0.29582 l -0.2463,0.15223 -0.2463,0.15222 -0.17606,-0.28487 -0.17606,-0.28487 0.32077,-0.77442 0.32078,-0.77442 0.2039,0.12602 0.20389,0.12602 0.30428,-0.36664 0.30428,-0.36663 1.04875,0.0388 1.04874,0.0388 0.11202,-0.26459 0.11202,-0.26458 0.21858,0.27728 0.21858,0.27727 0.63766,0.0402 0.63765,0.0402 0.1561,0.25135 0.15609,0.25134 1.65413,0.0926 1.65413,0.0926 -4.8e-4,-0.21405 -4.9e-4,-0.21406 0.30392,0.18784 0.30393,0.18783 1.93328,0.0481 1.93329,0.0481 -0.15247,-0.2467 -0.15247,-0.24671 0.56487,0.30231 0.56487,0.30232 -0.0699,-0.29915 -0.0699,-0.29914 0.79524,-0.43979 0.79525,-0.43979 0.57611,-0.57761 0.57612,-0.57761 -0.37388,-0.31029 -0.37388,-0.3103 -2.12344,0.18797 -2.12345,0.18797 -0.14176,0.22938 -0.14177,0.22938 -1.21329,0.5367 -1.2133,0.5367 h -0.26477 -0.26477 l 0.16518,-1.03294 0.16517,-1.03293 -2.71104,-0.15095 -2.71105,-0.15095 -4.7625,-0.15424 -4.7625,-0.15425 -5.9429,-0.24601 -5.9429,-0.24601 -1.12938,1.12112 -1.12939,1.12112 -0.005,0.27791 -0.005,0.27791 -1.3516,1.51646 -1.35159,1.51646 -0.92968,0.38844 -0.92967,0.38844 -0.43071,-0.008 -0.43071,-0.008 1.2761,-0.62522 1.27609,-0.62522 0.66731,-0.62327 0.66732,-0.62328 0.69724,-1.1856 0.69724,-1.1856 0.0585,-1.9894 0.0585,-1.9894 -0.41453,-1.25418 -0.41453,-1.25419 -0.99428,-1.12956 -0.99428,-1.12956 -1.29031,-0.6541 -1.29031,-0.6541 -1.85209,-0.005 -1.85208,-0.005 -1.02738,0.50987 -1.02738,0.50987 -1.00855,1.04961 -1.00856,1.0496 -0.43103,0.82178 -0.43103,0.82177 0.13607,-0.66145 0.13607,-0.66146 -0.76699,0.90291 -0.76699,0.90291 0.13694,0.22157 0.13694,0.22157 h -0.67693 -0.67707 v -0.26448 -0.26458 h 0.29698 0.29698 l -0.32938,-0.39688 -0.32937,-0.39687 h 0.30352 0.30353 l 0.28958,-0.7276 0.28957,-0.72761 0.1228,0.33073 0.1228,0.33073 h 0.31119 0.31118 l 0.31868,-0.5103 0.31869,-0.5103 -0.32119,-0.10813 -0.32119,-0.10813 0.36313,-0.43991 0.36313,-0.4399 h -0.29698 -0.29698 v -0.39687 -0.39688 h -0.26459 -0.26458 v -0.47075 -0.47076 l 0.49547,-0.35712 0.49548,-0.35712 -0.12498,-0.4779 -0.12498,-0.47791 -0.43855,-0.39689 -0.43856,-0.39689 -1.321,-0.1164 -1.32101,-0.1164 5.15938,0.11879 5.15937,0.11879 1.5451,0.37797 1.54509,0.37797 1.17233,0.84191 1.17233,0.8419 1.03276,1.3403 1.03277,1.3403 0.56702,1.51794 0.56702,1.51793 -0.13838,0.22391 -0.13838,0.2239 h 0.36144 0.36145 l -0.14585,-0.94809 -0.14586,-0.94809 -0.52119,-1.41677 -0.52119,-1.41677 -1.63054,-1.66296 -1.63054,-1.66295 -1.71352,-0.52819 -1.71352,-0.52818 -4.43374,-0.1946 -4.43374,-0.1946 -0.38059,-1.35686 -0.38059,-1.35687 -0.17753,-1.52485 -0.17753,-1.52485 -0.26191,-0.16187 -0.26191,-0.16186 0.35898,-0.24885 0.35897,-0.24884 -0.52916,0.13215 -0.52917,0.13215 -1.32292,0.18418 -1.32291,0.18419 -0.59531,-0.0315 -0.59532,-0.0315 v 19.97308 19.97308 h 37.57084 37.57082 z m -62.93979,14.5069 -1.15959,-0.26443 -1.22898,-1.23425 -1.22898,-1.23426 -0.32341,-1.08903 -0.32341,-1.08903 0.006,-1.29222 0.006,-1.29222 0.51092,-1.12558 0.51091,-1.12558 0.74005,-0.68757 0.74004,-0.68756 1.01783,-0.52042 1.01783,-0.52041 0.15075,0.15075 0.15075,0.15075 -0.37483,0.0376 -0.37483,0.0376 1.7418,0.17849 1.74179,0.17848 1.24803,0.84229 1.24804,0.84227 h 0.16852 0.16853 l -0.7771,-0.84036 -0.77711,-0.84036 1.11982,0.90651 1.11982,0.90651 0.42734,0.8881 0.42733,0.88811 -0.008,1.92094 -0.007,1.92096 -0.37416,0.8951 -0.37415,0.89512 -0.43786,0.36312 -0.43786,0.36314 v -0.21082 -0.21081 l -0.59531,0.54434 -0.59532,0.54434 -0.79375,0.39654 -0.79375,0.39653 -1.05833,0.14091 -1.05833,0.14091 z m 2.46046,-0.68242 0.19844,-0.19844 0.24253,-0.0331 0.24254,-0.0331 0.33073,-0.0415 0.33073,-0.0415 0.51712,-0.39104 0.51713,-0.39105 -0.38483,-0.36144 -0.38484,-0.36144 -0.71139,-0.16611 -0.71139,-0.16611 -0.18158,0.2938 -0.18158,0.2938 -0.19848,-0.32114 -0.19848,-0.32115 -0.53589,0.17009 -0.5359,0.17009 -0.16363,0.65197 -0.16364,0.65198 h -0.28785 -0.28785 l 0.16173,-0.42145 0.16173,-0.42146 0.15084,-0.60102 0.15085,-0.60102 -0.46669,-0.17908 -0.46668,-0.17908 -0.77791,0.77791 -0.77791,0.77791 0.55217,0.47279 0.55217,0.47278 0.87118,0.31617 0.87118,0.31617 0.6835,0.0316 0.68351,0.0316 z m -3.74963,-2.64583 0.69294,-0.72761 -0.34188,-0.46302 -0.34189,-0.46302 -0.49999,-0.008 -0.5,-0.008 0.46302,-0.26968 0.46302,-0.26969 v -0.67662 -0.67661 l 0.41062,0.15755 0.41061,0.15757 -0.20557,-0.3277 -0.20558,-0.32768 0.0705,-0.42931 0.0705,-0.42931 -0.60623,-0.16239 -0.60623,-0.16239 -0.48242,-0.004 -0.48243,-0.004 0.0952,0.46302 0.0952,0.46302 -0.32114,0.26458 -0.32115,0.26458 -0.0497,0.52917 -0.0497,0.52917 0.0305,0.46302 0.0305,0.46302 0.59531,0.0307 0.59531,0.0307 -0.46302,0.121 -0.46302,0.121 v 0.36502 0.36503 l 0.30706,0.67391 0.30705,0.6739 h 0.3049 0.30491 z m 3.54334,-3.19408 -0.0614,-0.70853 -0.62758,0.071 -0.62759,0.071 -0.3247,0.26949 -0.32471,0.26948 0.14791,0.58559 0.14792,0.58557 0.26612,0.1754 0.26612,0.17539 0.59967,-0.39291 0.59966,-0.39292 z m 24.18829,-6.57989 0.0152,-0.47864 0.51357,-2.11666 0.51357,-2.11667 -0.142,1.05833 -0.14201,1.05834 -0.15996,1.39682 -0.15996,1.39681 -0.22677,0.14016 -0.22677,0.14015 z m 23.66174,-4.54372 -0.26128,-0.24847 -1.45521,-0.15656 -1.45521,-0.15657 -1.5875,-0.17217 -1.5875,-0.17216 -2.24895,0.0119 -2.24896,0.012 -0.43569,0.17627 -0.43569,0.17628 -0.88723,-0.0999 -0.88722,-0.0999 -0.079,-0.92459 -0.079,-0.92461 6.87742,-0.0411 6.87742,-0.0411 0.17449,1.16356 0.17449,1.16354 -0.097,0.29105 -0.097,0.29104 z m -26.54322,-5.56284 0.0882,-0.23523 1.14014,-0.94757 1.14013,-0.94757 0.91039,0.82843 0.91038,0.82843 v 0.1359 0.1359 l -0.59531,-0.54161 -0.59532,-0.54161 -0.38415,-0.11763 -0.38416,-0.11763 -0.51354,0.41468 -0.51354,0.41468 -0.41787,0.46303 -0.41788,0.46302 h -0.22783 -0.22783 z m 29.55915,23.90141 0.11828,-0.11828 -0.50712,-0.006 -0.50712,-0.006 -1.12959,-0.51271 -1.12959,-0.51271 -1.04846,-0.87054 -1.04845,-0.87054 -0.005,-0.38365 -0.005,-0.38364 -0.33072,0.35057 -0.33073,0.35057 0.33073,0.12127 0.33072,0.12127 v 0.32532 0.32533 l 0.73752,0.70659 0.73752,0.70659 1.04842,0.51851 1.04842,0.51852 0.78571,-0.13128 0.78571,-0.13128 z m 3.17827,-2.86409 0.30256,-0.36457 -0.98488,-0.86473 -0.98488,-0.86474 -0.0853,0.25594 -0.0853,0.25593 0.4067,0.97336 0.4067,0.97337 h 0.36093 0.36093 z m 1.88667,-1.50628 0.34125,-0.82386 -0.34068,-0.21056 -0.34069,-0.21055 -1.31992,-0.1751 -1.31993,-0.17509 -0.16755,0.1733 -0.16755,0.17329 1.3018,1.15062 1.30179,1.15062 0.18511,-0.1144 0.18511,-0.11441 z m -13.77491,-0.97343 -0.009,-0.19845 -0.49531,-0.59368 -0.49531,-0.59369 -1.21568,0.16663 -1.21568,0.16663 v 0.44911 0.4491 l 0.17639,0.17639 0.17639,0.17639 h 1.5434 1.5434 z m -24.34578,-0.6952 -0.11937,-0.11817 -4.89479,-0.1292 -4.8948,-0.1292 1.7198,0.18003 1.71979,0.18002 3.29437,0.0673 3.29438,0.0673 z m 30.44,-0.43758 v -0.53748 l -0.41466,-0.15912 -0.41466,-0.15912 -0.28193,0.28193 -0.28193,0.28193 0.15912,0.41466 0.15912,0.41466 h 0.53747 0.53747 z m 8.20208,-0.23465 v -0.77211 l -0.1468,-0.38256 -0.14681,-0.38257 -1.10996,0.37946 -1.10997,0.37945 -0.23435,0.22905 -0.23434,0.22905 0.38535,0.38534 0.38535,0.38535 0.51045,0.13013 0.51046,0.13015 0.59531,0.0307 0.59531,0.0307 z m -31.81614,-0.19685 -1.25677,-0.38471 v -0.64608 -0.64608 h -0.39688 -0.39687 v 1.05833 1.05833 l 1.65364,-0.0275 1.65365,-0.0276 z m -10.2526,-0.49824 v -0.67345 l -0.8599,0.13266 -0.8599,0.13264 -1.29059,0.16521 -1.2906,0.16522 -0.4292,0.1763 -0.42919,0.1763 1.05833,0.16174 1.05834,0.16175 1.52135,0.0376 1.52136,0.0376 z m 20.10833,-0.903 v -0.7431 l -0.59531,-0.11072 -0.59532,-0.11071 -2.77812,0.0137 -2.77813,0.0137 -0.0824,0.71391 -0.0824,0.71392 1.53761,0.091 1.53761,0.0911 1.91823,0.0351 1.91823,0.0351 z m 21.14574,-0.52168 0.37595,-0.23796 -0.44819,-0.68404 -0.4482,-0.68404 h -0.35938 -0.35937 l -0.70633,0.92604 -0.70632,0.92605 1.13794,-0.004 1.13795,-0.004 z m -10.45915,-1.18768 0.16062,-0.63999 1.4764,-1.3159 1.4764,-1.31589 -0.27795,-0.17178 -0.27795,-0.17179 -0.73508,0.47192 -0.73508,0.47191 -0.4637,0.41928 -0.4637,0.41927 -0.50416,1.03651 -0.50417,1.03651 0.12359,0.19996 0.12358,0.19997 h 0.22029 0.22028 z m -5.51727,-2.33544 1.31297,-1.38791 -0.38365,0.32958 -0.38364,0.32958 h -1.38507 -1.38507 l -0.67868,-0.25804 -0.67868,-0.25803 -0.0348,0.32419 -0.0348,0.32418 -0.16361,-0.92604 -0.16361,-0.92604 h -0.79375 -0.79375 l -0.0833,0.86492 -0.0833,0.86492 -0.24744,-0.15293 -0.24745,-0.15293 v 0.4281 0.42811 l 0.26459,-0.16353 0.26458,-0.16352 v 0.3243 0.32429 l 0.17228,-0.17227 0.17227,-0.17228 0.29794,0.40746 0.29794,0.40745 1.40042,0.0109 1.40043,0.0109 0.15783,-0.15783 0.15783,-0.15783 h -0.70555 -0.70556 v -0.33073 -0.33073 h 1.57529 1.57529 l -0.83344,0.85989 -0.83344,0.8599 h 0.12799 0.12799 z m -26.60057,0.065 -0.66146,-0.21182 -1.91823,-0.0264 -1.91823,-0.0264 v 0.26458 0.26458 l 2.57969,-0.0264 2.57969,-0.0264 z m -23.14705,-14.55853 0.11822,-0.19129 -1.30726,-0.17341 -1.30726,-0.17342 -0.69722,0.17499 -0.69721,0.17499 0.35587,0.22905 0.35587,0.22904 1.53038,-0.0393 1.53038,-0.0393 z"
       id="path4" /></g></svg>
