<?xml version="1.0" encoding="UTF-8" standalone="no"?>
<!-- Created with Inkscape (http://www.inkscape.org/) -->

<svg
   width="101.60001mm"
   height="84.666679mm"
   viewBox="0 0 101.60001 84.666679"
   version="1.1"
   id="svg1"
   xml:space="preserve"
   xmlns="http://www.w3.org/2000/svg"
   xmlns:svg="http://www.w3.org/2000/svg"><defs
     id="defs1" /><g
     id="layer1"
     transform="matrix(1.3333335,0,0,1.3333335,-26.811174,-133.71268)"><path
       style="fill:#ffffff;fill-opacity:1"
       d="m 20.108378,132.0345 v -31.75 h 38.1 38.099993 v 31.75 31.75 h -38.099993 -38.1 z m 75.670833,0 V 100.81367 H 58.208378 20.637538 v 8.31876 8.31876 l 0.2538,0.15685 0.25379,0.15686 1.73911,0.1624 1.7391,0.1624 0.13938,0.22552 0.13939,0.22553 0.4474,-0.004 0.44741,-0.004 -0.37857,-0.23957 -0.37857,-0.23957 0.92307,-0.17316 0.92306,-0.17317 1.83676,0.55871 1.83675,0.55872 1.05833,0.48521 1.05833,0.48521 2.11667,0.46652 2.11667,0.46652 0.52916,0.36665 0.52917,0.36664 v 0.32563 0.32564 l 1.10661,0.0805 1.1066,0.0805 0.17119,0.77941 0.17119,0.77941 h 3.55085 3.55085 v -0.39688 -0.39687 h -0.39183 -0.39184 l -0.16586,-0.66087 -0.16587,-0.66087 0.21066,-0.46361 0.21066,-0.46361 0.0433,-0.39688 0.0433,-0.39687 0.0392,-0.33073 0.0392,-0.33073 h 0.94117 0.94117 l 1.15979,0.29204 1.15979,0.29204 1.07404,1.18016 1.07404,1.18015 v 0.21929 0.21929 l 0.41851,0.1606 0.41851,0.1606 h 1.00739 1.00738 l 0.61824,-0.50062 0.61824,-0.50063 0.006,-0.62295 0.006,-0.62295 0.81626,-0.26549 0.81627,-0.26549 0.98551,-0.86572 0.98551,-0.86572 0.25763,0.15922 0.25762,0.15922 -0.80263,0.91415 -0.80263,0.91414 v 0.59515 0.59514 l 1.45521,1.43713 1.4552,1.43713 v 0.15465 0.15464 l 1.46005,1.50742 1.46005,1.50741 -0.0454,-1.28197 -0.0454,-1.28197 0.23132,-0.37105 0.23132,-0.37105 0.0805,-0.51768 0.0805,-0.51768 0.32405,-0.20587 0.32405,-0.20588 0.18961,-0.004 0.18962,-0.004 0.9096,0.9096 0.90959,0.90959 6.904663,0.0826 6.90467,0.0826 -2.3e-4,-0.46302 -2.3e-4,-0.46302 h 0.52916 0.52917 v 0.41577 0.41578 l 0.37273,0.37273 0.37274,0.37273 0.17969,1.06358 0.17969,1.06358 h 0.4966 0.4966 l 0.26458,0.49437 0.26459,0.49438 -0.16708,0.16708 -0.16708,0.16708 h -0.48507 -0.48507 v 0.39688 0.39687 h 0.28348 0.28348 l 0.39688,-0.39687 0.39687,-0.39688 h 1.5403 1.54029 l 0.15229,0.39688 0.1523,0.39687 h 0.51542 0.51542 l 0.15434,0.33073 0.15434,0.33073 0.15434,-0.33073 0.15434,-0.33073 0.44098,0.004 0.44097,0.004 -0.28936,0.19439 -0.28935,0.19438 0.31959,0.76918 0.3196,0.76918 0.14731,-0.3723 0.14731,-0.37231 0.0209,1.50413 0.0209,1.50413 -0.25615,0.67373 -0.25615,0.67374 0.70228,1.39401 0.70229,1.39401 0.0635,2.22129 0.0635,2.22128 0.26363,0.16293 0.26363,0.16294 0.37939,1.10117 0.37938,1.10116 -0.16048,0.24609 -0.16048,0.24608 -2.0616,0.97372 -2.06161,0.97371 -0.79938,0.15988 -0.79938,0.15988 -0.38242,0.95577 -0.38243,0.95577 0.0179,0.26458 0.0179,0.26459 -0.61093,0.14538 -0.61093,0.14538 0.0919,0.78066 0.0919,0.78066 -0.19167,-0.18799 -0.19168,-0.188 -1.09082,0.74641 -1.09083,0.74641 -0.92604,0.18307 -0.92604,0.18308 -3.04271,0.11948 -3.04271,0.11948 -0.26458,0.0165 -0.26458,0.0165 -1.85209,-0.15242 -1.85208,-0.15241 -1.19063,-0.1571 -1.19062,-0.15709 -0.52917,-0.0388 -0.529163,-0.0388 -0.19439,-0.26458 -0.19439,-0.26459 -0.004,0.32418 -0.004,0.32418 -0.67868,-0.25803 -0.67868,-0.25804 h -1.26621 -1.26621 l -0.81715,-0.28485 -0.81715,-0.28486 0.14452,-0.3766 0.14451,-0.3766 h 0.75714 0.75714 l -0.15172,-0.39536 -0.15171,-0.39535 -0.23383,0.14451 -0.23382,0.14451 0.14376,-0.37464 0.14376,-0.37464 -0.84132,-0.16827 -0.84133,-0.16826 h -0.62838 -0.62839 v -0.26459 -0.26458 h -0.68213 -0.68213 l -1.99078,-0.95752 -1.99077,-0.95753 -6.65366,-0.0259 -6.65365,-0.0259 -4.49792,0.2151 -4.49792,0.2151 -0.15609,0.0963 -0.15609,0.0963 -1.91655,-0.3209 -1.91656,-0.32089 -0.76044,-1.05761 -0.76045,-1.05761 -0.69579,-1.12109 -0.69579,-1.1211 -0.27842,-1.65703 -0.27842,-1.65703 0.39307,-1.52136 0.39308,-1.52135 h -0.22379 -0.2238 v 0.39687 0.39688 h -0.26458 -0.26458 v 0.38126 0.38126 l -0.21867,0.13514 -0.21867,0.13515 -0.52659,-0.13771 -0.52659,-0.13771 0.11383,-0.77557 0.11383,-0.77557 h 0.23455 0.23456 v -0.36645 -0.36644 l 0.65794,-0.4311 0.65794,-0.4311 -0.0835,-0.72381 -0.0835,-0.72381 -0.20672,-0.46516 -0.20673,-0.46517 0.45267,-0.95393 0.45267,-0.95393 -0.40981,-0.4098 -0.4098,-0.4098 -2.1304,-0.12333 -2.13041,-0.12333 v -0.20228 -0.20228 l 0.41852,-0.1606 0.41851,-0.1606 h 1.59672 1.59672 l -0.17388,-0.59531 -0.17388,-0.59531 -0.27458,-1.5875 -0.27459,-1.5875 -0.18709,-0.79194 -0.18709,-0.79193 -0.49175,-0.0947 -0.49176,-0.0947 -1.68167,0.18009 -1.68168,0.18009 v 19.82269 19.82269 h 37.57084 37.570833 z m -64.513023,11.20379 0.48385,-0.43789 v -0.47254 -0.47255 l -0.23419,-0.14474 -0.23419,-0.14473 -0.81856,0.28535 -0.81856,0.28535 0.39809,0.76981 0.39809,0.76982 h 0.1708 0.17081 z m 15.61769,-0.86609 0.44947,-0.37792 -0.13941,-0.22558 -0.13942,-0.22558 -1.70796,0.0681 -1.70797,0.0681 -0.41296,0.63026 -0.41296,0.63026 1.81087,-0.0949 1.81088,-0.0949 z m -16.25832,-1.24405 0.59532,-0.15953 v -0.6306 -0.6306 l -0.19844,-0.004 -0.19844,-0.004 -0.63668,-0.17036 -0.63669,-0.17036 0.18928,0.30627 0.18928,0.30626 h -0.2802 -0.2802 v 0.66145 0.66146 l 0.33073,-0.004 0.33073,-0.004 z m 60.655733,-1.01555 v -0.91774 l -0.46302,0.16506 -0.46302,0.16506 -0.315,0.24285 -0.31501,0.24286 0.1391,0.36247 0.13909,0.36247 0.44049,0.11666 0.4405,0.11666 0.19843,0.0307 0.19844,0.0307 z m -42.068753,-0.29922 v -0.43978 l -0.99219,0.16399 -0.99218,0.164 -1.05834,0.0426 -1.05833,0.0427 1.19063,0.16017 1.19062,0.16016 0.8599,0.073 0.85989,0.073 z m 40.706353,-1.45476 0.83323,-0.29047 v -0.19769 -0.1977 l -0.50045,-0.4529 -0.50045,-0.4529 -0.55007,0.77249 -0.55006,0.77249 0.16857,0.16857 0.16857,0.16857 h 0.0487 0.0487 z m -30.528203,-6.39027 0.13407,-0.59531 0.53527,-2.63545 0.53528,-2.63544 0.26174,-0.26174 0.26174,-0.26174 v -0.74472 -0.74472 l -0.8816,-0.96199 -0.8816,-0.962 -0.63975,0.16979 -0.63976,0.16979 -0.39466,0.25591 -0.39466,0.2559 0.32851,0.32852 0.32852,0.32852 v 1.25217 1.25217 l 0.52917,0.16795 0.52917,0.16795 -0.008,0.57748 -0.008,0.57748 -0.37693,0.49782 -0.37692,0.49782 -0.30586,1.47327 -0.30585,1.47328 0.58821,0.4763 0.58821,0.47631 h 0.23024 0.23023 z m 2.30334,-1.32405 0.97212,-1.91709 0.42315,-1.03934 0.42314,-1.03934 -0.85793,-0.88517 -0.85794,-0.88516 -0.22733,0.60159 -0.22734,0.60158 -0.50252,2.64584 -0.50251,2.64583 -0.14325,0.59531 -0.14324,0.59532 0.33577,-0.001 0.33577,-0.001 z m 2.59976,1.65478 0.39688,-0.25648 -0.39688,-0.0354 -0.39687,-0.0354 -0.33073,0.0429 -0.33073,0.043 0.004,-0.34233 0.004,-0.34232 0.22746,-0.35898 0.22746,-0.35898 0.18098,0.29283 0.18098,0.29284 h 0.67025 0.67026 l 0.66514,-0.5232 0.66514,-0.5232 -1.46291,-1.52233 -1.46292,-1.52233 -0.19094,0.78876 -0.19095,0.78875 -0.88777,1.77934 -0.88778,1.77933 v 0.1389 0.13889 l 1.12448,-0.004 1.12448,-0.004 z"
       id="path5" /></g></svg>
