<?xml version="1.0" encoding="UTF-8" standalone="no"?>
<!-- Created with Inkscape (http://www.inkscape.org/) -->

<svg
   width="101.6mm"
   height="84.666672mm"
   viewBox="0 0 101.6 84.666672"
   version="1.1"
   id="svg1"
   xml:space="preserve"
   xmlns="http://www.w3.org/2000/svg"
   xmlns:svg="http://www.w3.org/2000/svg"><defs
     id="defs1" /><g
     id="layer1"
     transform="translate(-62.8118,-117.42057)"><path
       style="fill:#ffffff;fill-opacity:1"
       d="m 62.811799,159.75391 v -42.33333 h 50.800001 50.8 v 42.33333 42.33333 h -50.8 -50.800001 z m 9.595254,35.98333 -0.134047,-5.55625 h 0.561063 0.561063 v -0.52916 -0.52917 h -0.251436 -0.251437 l -0.256622,0.45856 -0.256623,0.45856 -0.05998,-2.2445 -0.05998,-2.24449 -0.01047,-0.92604 -0.01047,-0.92605 0.167147,-1.85208 0.167147,-1.85208 -0.131892,0.56243 -0.131892,0.56243 -0.62228,0.5846 -0.622279,0.5846 -1.004231,0.34524 -1.004232,0.34524 -0.358834,-0.69852 -0.358835,-0.69852 -0.315665,-0.32205 -0.315666,-0.32204 0.06856,4.1585 0.06857,4.1585 -0.525702,-0.66146 -0.525703,-0.66145 -0.0059,-2.04222 -0.0059,-2.04222 -0.394644,0.15144 -0.394645,0.15144 -0.182123,-0.4746 -0.182123,-0.47461 0.313833,-0.10461 0.313833,-0.10461 -0.177344,-0.28695 -0.177344,-0.28695 0.426734,0.16376 0.426735,0.16375 0.162914,-0.5133 0.162914,-0.5133 -0.140894,-0.22797 -0.140895,-0.22797 0.379985,-0.502 0.379985,-0.502 0.0084,-0.36313 0.0084,-0.36312 -0.339602,0.28184 -0.339603,0.28185 -0.388002,-0.2454 -0.388001,-0.2454 0.529167,-0.0134 0.529166,-0.0134 -0.661458,-0.37812 -0.661458,-0.37813 0.264583,-0.0153 0.264583,-0.0153 -0.661458,-0.5174 -0.661458,-0.5174 0.29987,-0.006 0.299871,-0.006 0.13838,-0.52917 0.13838,-0.52916 h 0.843945 0.843944 l 1.49593,-0.41499 1.49593,-0.41499 0.396875,-0.14258 0.396875,-0.14258 -0.529167,-0.2191 -0.529167,-0.2191 1.322917,-0.0295 1.322917,-0.0295 0.969688,-0.0537 0.969688,-0.0537 -0.274481,-0.33073 -0.274481,-0.33072 -0.95979,-0.009 -0.959791,-0.009 0.658138,-0.36428 0.658138,-0.36429 0.201758,0.1247 0.201758,0.12469 v -0.2802 -0.2802 H 73.82085 73.452869 l -1.153373,0.52336 -1.153373,0.52335 -1.261811,0.006 -1.261812,0.006 0.154383,0.61511 0.154383,0.61511 -1.406113,0.33379 -1.406113,0.33379 -0.759782,-0.39841 -0.759783,-0.39842 0.892074,-0.26455 0.892074,-0.26456 0.926042,-0.3255 0.926042,-0.3255 0.586282,-0.26489 0.586283,-0.26489 -0.108096,-0.17491 -0.108096,-0.1749 1.561589,-0.32254 1.561588,-0.32254 0.401468,-0.40147 0.401469,-0.40147 1.130631,-0.24515 1.130632,-0.24515 -1.417076,0.11646 -1.417075,0.11646 -0.302716,0.24966 -0.302717,0.24967 -1.645299,0.55323 -1.645299,0.55323 H 67.465918 66.282562 L 66.11904,172.984 65.955519,172.71942 h -0.778135 -0.778136 v -0.26459 -0.26458 h 1.171727 1.171726 l 0.396875,-0.39688 0.396875,-0.39687 h 1.055592 1.055593 l 0.416995,-0.16002 0.416995,-0.16001 -0.148352,-0.24004 -0.148351,-0.24004 1.767727,-0.79312 1.767727,-0.79313 -0.125957,-0.6589 -0.125958,-0.65891 h 0.310295 0.310294 l 0.567994,0.52917 0.567994,0.52917 h 0.303954 0.303954 l -0.147125,-0.3834 -0.147125,-0.38341 0.357328,0.13712 0.357328,0.13712 0.18641,0.57701 0.186409,0.57701 0.126626,-0.47849 0.126626,-0.47849 0.57023,0.0816 0.57023,0.0816 0.09116,0.47815 0.09116,0.47815 -0.683772,0.6337 -0.683772,0.63369 v 0.6741 0.67409 h 0.437882 0.437882 l -0.454056,0.50173 -0.454057,0.50172 0.346904,0.12516 0.346903,0.12517 -0.330729,0.56014 -0.330729,0.56015 v 0.47984 0.47984 l -0.330729,0.33317 -0.330729,0.33318 0.466021,-0.17743 0.466021,-0.17742 -0.153594,0.40026 -0.153595,0.40026 -0.57701,0.18698 -0.57701,0.18698 -0.198438,-0.0286 -0.198437,-0.0286 0.06615,0.23649 0.06615,0.23649 -0.79375,0.68923 -0.79375,0.68923 0.463021,3.2e-4 0.46302,3.2e-4 0.0018,-0.19844 0.0018,-0.19843 0.944924,-0.6436 0.944925,-0.64359 0.261224,0.37901 0.261225,0.37901 -0.167453,-0.59531 -0.167453,-0.59531 h 0.301311 0.301312 l 0.394846,0.39484 0.394845,0.39485 -0.164776,0.26661 -0.164776,0.26661 h -0.645843 -0.645843 v 0.26459 0.26458 l 0.330729,0.008 0.330729,0.008 -0.463021,0.35148 -0.463021,0.35148 v 0.43386 0.43385 h -0.245183 -0.245183 l -0.11461,-0.46302 -0.11461,-0.46302 0.130366,1.5875 0.130367,1.5875 0.240935,0.39687 0.240935,0.39688 -0.173294,-0.89847 -0.173295,-0.89847 0.558661,0.14609 0.558661,0.1461 v -0.38772 -0.38772 l 0.253028,0.15638 0.253028,0.15638 -0.149044,0.3884 -0.149043,0.3884 h 0.205911 0.205912 l 0.483854,-0.43788 0.483854,-0.43788 v 0.30559 0.30559 h -0.264583 -0.264583 v 0.26458 0.26459 l 0.727604,0.004 0.727604,0.004 0.364626,0.23095 0.364627,0.23095 -0.20707,0.33504 -0.207069,0.33505 0.282866,-0.17482 0.282865,-0.17482 0.119138,0.33238 0.119137,0.33237 -0.23814,0.46302 -0.23814,0.46303 h 0.382886 0.382886 l -0.09022,-0.59532 -0.09021,-0.59531 -0.181928,-0.59531 -0.181929,-0.59531 h 0.551722 0.551721 l -0.145587,0.46302 -0.145587,0.46302 0.355704,-0.42775 0.355703,-0.42775 0.31145,0.33341 0.311449,0.33341 -0.178123,0.22663 -0.178123,0.22663 0.368022,-0.31952 0.368023,-0.31951 -0.34399,-0.41448 -0.34399,-0.41449 0.169995,-0.16999 0.169995,-0.17 v 0.30868 0.30869 h 0.417147 0.417147 l -0.04708,0.85989 -0.04708,0.8599 0.02681,0.34634 0.02681,0.34634 0.264584,-0.16352 0.264583,-0.16352 v 0.13229 0.1323 l -0.243253,0.15033 -0.243252,0.15034 -0.418206,-0.4182 -0.418206,-0.41821 v 0.31179 0.31179 l -0.388401,-0.14904 -0.388402,-0.14905 -0.15638,0.25303 -0.15638,0.25303 h 0.79375 0.79375 l 0.189047,0.30588 0.189047,0.30589 -0.886622,-0.17733 -0.886621,-0.17732 -1.014586,-0.2732 -1.014585,-0.2732 0.15589,-0.25224 0.15589,-0.25223 h -0.41249 -0.41249 v -0.26458 -0.26459 h 0.29698 0.29698 l -0.329377,-0.39687 -0.329377,-0.39688 -0.298332,0.004 -0.298332,0.004 0.394663,0.24952 0.394663,0.24951 -0.266935,0.26694 -0.266934,0.26693 -0.601569,-0.15731 -0.601569,-0.15731 0.110038,-0.29705 0.110038,-0.29704 0.363803,0.085 0.363802,0.085 -0.313721,-0.31939 -0.31372,-0.31939 -0.398936,0.39894 -0.398937,0.39894 0.524526,0.56301 0.524526,0.56301 h 0.430666 0.430665 l -0.155406,0.15541 -0.155406,0.1554 -1.542337,-0.30592 -1.542337,-0.30591 -0.463021,-0.1319 -0.463021,-0.1319 v 3.55884 3.55885 l 0.54864,0.14347 0.54864,0.14347 -0.08562,0.74728 -0.08562,0.74729 -0.463021,-0.0777 -0.463021,-0.0777 v 1.21962 1.21961 l 0.273893,0.51178 0.273892,0.51177 h -0.273892 -0.273893 v 2.65277 2.65277 l 3.439584,-0.0307 3.439583,-0.0307 v -0.28488 -0.28489 l 0.165208,0.16521 0.165208,0.16521 0.850085,-0.87535 0.850084,-0.87536 0.781111,0.11464 0.78111,0.11465 -0.105558,0.90418 -0.105559,0.90418 h 2.797204 2.797205 l -0.01523,-2.71197 -0.01523,-2.71198 0.0251,-0.59532 0.0251,-0.59531 h 0.396875 0.396875 v -0.2241 -0.2241 l 0.529167,-0.61013 0.529166,-0.61014 -0.0084,-0.15795 -0.0084,-0.15795 -0.384252,-0.50784 -0.384253,-0.50784 -0.483805,0.43784 -0.483804,0.43784 0.04081,-5.48625 0.04081,-5.48625 0.07325,-0.26459 0.07325,-0.26458 -0.05222,-0.79375 -0.05222,-0.79375 -0.133452,0.33073 -0.133452,0.33073 H 90.050124 89.55131 l 0.152295,0.39687 0.152295,0.39688 h -0.440797 -0.440798 l 0.188787,-0.30547 0.188787,-0.30546 -0.287181,0.17749 -0.287182,0.17749 -0.183647,-0.29715 -0.183646,-0.29715 -0.197863,0.32015 -0.197862,0.32015 -0.601526,-0.32193 -0.601525,-0.32192 0.146232,0.55919 0.146232,0.55919 h -0.387719 -0.38772 l 0.188787,0.30547 0.188787,0.30546 -0.273527,-0.16905 -0.273527,-0.16905 -0.139553,-0.53365 -0.139554,-0.53366 0.239908,0.14827 0.239909,0.14827 v -0.26458 -0.26458 l -0.315114,-0.19475 -0.315115,-0.19475 -0.103809,0.31142 -0.103809,0.31143 h -0.214672 -0.214671 l 0.204079,-0.90486 0.204079,-0.90486 -0.125439,-0.65619 -0.125438,-0.65619 0.951829,-0.34418 0.95183,-0.34419 v -0.58353 -0.58354 l 0.491971,0.12865 0.491972,0.12866 0.165243,-1.03338 0.165243,-1.03337 0.60798,-0.70755 0.607979,-0.70755 h 0.454598 0.454597 v -0.28241 -0.28242 l 0.53047,0.16837 0.53047,0.16836 0.159296,-0.41512 0.159296,-0.41511 h 0.368567 0.368568 v -0.54657 -0.54656 l 0.304336,-0.56865 0.304336,-0.56866 0.772339,-0.80301 0.77234,-0.80301 0.239692,-0.59532 0.239693,-0.59531 h 0.255517 0.255517 l 0.163521,0.26459 0.163522,0.26458 h 0.468842 0.468843 l 0.354002,-0.66146 0.354001,-0.66146 h 0.219875 0.219874 v -0.26288 -0.26288 l 1.785938,-1.80403 1.78594,-1.80404 1.4648,-1.63725 1.4648,-1.63725 h 0.32114 0.32113 v 0.45417 0.45418 l 0.44098,1.15468 0.44098,1.15468 -0.5924,2.29779 -0.5924,2.29779 0.0853,5.8832 0.0853,5.8832 -0.27781,-2.6e-4 -0.27781,-2.6e-4 -0.3175,-0.3175 -0.3175,-0.3175 v -0.98405 -0.98405 l 0.41596,-1.62364 0.41595,-1.62364 -0.39874,-1.90346 -0.39874,-1.90346 -0.27897,-1.5875 -0.27897,-1.5875 -0.33356,-1.14134 -0.33356,-1.14134 -1.12079,1.14134 -1.1208,1.14134 -1.260455,1.34591 -1.260453,1.34591 -1.647765,2.01624 -1.647766,2.01625 -1.064218,0.6066 -1.064217,0.60659 0.123991,0.33073 0.123992,0.33073 H 92.70145 92.44517 v 0.41581 0.41581 l -0.595312,-0.0482 -0.595313,-0.0482 -1.058333,0.06 -1.058333,0.06 0.529166,0.1322 0.529167,0.13221 0.194386,0.30012 0.194386,0.30012 0.0041,1.30087 0.0041,1.30087 0.105336,-0.11024 0.105335,-0.11025 0.0931,-1.32291 0.0931,-1.32292 0.264583,-0.19439 0.264584,-0.19438 0.859896,-0.004 0.859895,-0.004 v 0.66145 0.66146 h 0.247009 0.24701 l 0.110222,-0.7276 0.110223,-0.72761 0.03964,0.84268 0.03964,0.84267 -0.280955,0.73896 -0.280954,0.73897 -0.02497,1.19649 -0.02497,1.19648 0.19146,0.59532 0.19146,0.59531 h 0.67217 0.672169 l -0.179736,2.71198 -0.179735,2.71198 -0.131023,0.4624 -0.131023,0.46241 -0.643824,0.16159 -0.643824,0.16159 v 1.17349 1.17349 l -0.661458,0.71335 -0.661458,0.71335 v 0.18553 0.18552 l 0.294164,0.18181 0.294165,0.1818 0.242539,-0.36462 0.24254,-0.36463 0.209728,-0.34558 0.209729,-0.34558 0.841748,0.47787 0.841748,0.47787 0.149441,0.46302 0.14944,0.46302 h 0.247333 0.247332 l 0.925463,0.98117 0.925463,0.98116 v 0.25356 0.25356 l 0.1452,-0.1452 0.145201,-0.1452 1.706883,1.64099 1.706887,1.641 v -0.48836 -0.48835 l 0.78061,0.40367 0.78061,0.40367 h 0.5423 0.54231 v -0.26458 -0.26459 h -0.26458 -0.26459 v -0.40342 -0.40342 l -0.66145,-0.25149 -0.66146,-0.25148 v -0.35051 -0.35051 l 0.28959,-0.28959 0.28959,-0.28959 -0.027,-2.57379 -0.027,-2.57379 -0.42043,-1.44622 -0.42043,-1.44623 0.11818,-0.96883 0.11819,-0.96883 0.42227,-1.98438 0.42227,-1.98437 0.31983,-1.98438 0.31983,-1.98437 0.34993,0.84341 0.34994,0.8434 0.363,0.21493 0.363,0.21492 -0.1782,1.57286 -0.17821,1.57285 0.1166,0.60996 0.1166,0.60996 h 0.20543 0.20544 l 0.14573,-0.37978 0.14574,-0.37978 -0.31587,-0.1285 -0.31586,-0.1285 0.74322,-0.0209 0.74321,-0.0209 -0.16352,0.26458 -0.16352,0.26458 h 0.16681 0.1668 l 0.39931,-0.39931 0.39931,-0.3993 0.24325,0.15034 0.24325,0.15033 v -0.29581 -0.29581 l 0.24199,0.14955 0.24198,0.14956 0.13475,-0.33238 0.13475,-0.33238 0.26142,0.37479 0.26143,0.37479 -0.24129,0.63462 -0.24128,0.63463 v 0.24736 0.24736 l 0.31502,-0.0661 0.31501,-0.0661 0.0782,0.39688 0.0782,0.39687 -0.69608,0.50428 -0.69608,0.50427 -0.82158,0.1666 -0.82158,0.16659 -0.0837,0.71819 -0.0837,0.7182 h 0.22924 0.22924 l 0.3175,-0.3175 0.3175,-0.3175 v 0.30188 0.30189 l -0.24675,0.1525 -0.24676,0.15251 0.0222,0.78004 0.0222,0.78004 0.29072,-0.18189 0.29073,-0.18188 0.35497,-0.0537 0.35497,-0.0537 0.1742,-0.1943 0.17419,-0.1943 -0.47676,0.17142 -0.47676,0.17141 0.16164,-0.26155 0.16165,-0.26155 h 0.39909 0.39909 l -0.16795,-0.52917 -0.16795,-0.52917 h 0.28241 0.28242 l 0.19843,0.0156 0.19844,0.0156 0.13831,-0.58588 0.13831,-0.58589 0.52315,-0.28962 0.52315,-0.28963 0.18098,-0.25195 0.18098,-0.25195 -0.12327,-0.19944 -0.12326,-0.19945 0.65957,-0.43217 0.65957,-0.43217 0.16677,-0.52543 0.16677,-0.52544 0.13653,0.13653 0.13653,0.13654 -0.85312,1.49109 -0.85311,1.49109 -0.36439,0.13983 -0.36439,0.13983 0.12786,0.20688 0.12786,0.20688 -0.39396,0.32696 -0.39396,0.32696 v 0.47472 0.47472 l -0.208,0.0882 -0.20799,0.0882 -0.60378,0.8599 -0.60377,0.85989 h 0.2543 0.25429 l 0.15229,-0.39687 0.1523,-0.39688 h 0.42079 0.4208 l -0.12883,-0.20844 -0.12882,-0.20844 0.80358,-0.3557 0.80358,-0.3557 0.24137,0.3657 0.24137,0.36571 -0.11298,-0.68631 -0.11298,-0.68631 0.2065,-0.33413 0.2065,-0.33412 0.18098,0.29283 0.18098,0.29283 h -0.2719 -0.27189 l 0.15171,0.39535 0.15171,0.39536 0.2165,-0.13381 0.21651,-0.1338 0.16568,-0.75434 0.16568,-0.75433 0.62577,-0.5441 0.62578,-0.54411 0.15494,0.15495 0.15494,0.15494 0.0314,-1.69774 0.0314,-1.69775 -0.043,-0.33073 -0.0429,-0.33072 h 0.27618 0.27618 v -0.39688 -0.39687 l 0.8599,-0.0261 0.85989,-0.0261 0.52917,-0.0574 0.52917,-0.0574 0.66145,-0.0656 0.66146,-0.0656 -0.61747,-0.24748 -0.61747,-0.24749 0.11678,-0.33105 0.11678,-0.33106 0.43455,0.0367 0.43454,0.0368 -0.0209,-0.56591 -0.0209,-0.56592 -0.13812,0.34476 -0.13813,0.34475 -0.33818,-0.46249 -0.33818,-0.46249 -0.18771,1.11105 -0.18771,1.11105 -0.2198,-0.13585 -0.21981,-0.13585 0.0358,-0.98975 0.0358,-0.98976 0.18099,-0.13229 0.18099,-0.13229 0.0926,-0.52322 0.0926,-0.52321 0.38953,-0.46897 0.38953,-0.46898 h 0.51446 0.51446 l -0.12239,-0.12239 -0.1224,-0.1224 -1.07201,-0.13469 -1.072,-0.13469 -0.50334,0.38096 -0.50334,0.38097 -0.39688,0.004 -0.39687,0.004 0.39687,-0.25648 0.39688,-0.25648 -0.58217,-0.004 -0.58216,-0.004 -0.26969,0.46302 -0.26968,0.46302 -0.01,-0.39687 -0.01,-0.39688 -0.39525,0.75785 -0.39524,0.75785 -0.036,0.69736 -0.036,0.69736 -0.1167,-0.61091 -0.11671,-0.61091 0.26923,-0.77231 0.26923,-0.7723 -0.28362,-0.17529 -0.28363,-0.17529 -0.246,0.43959 -0.24601,0.43959 -0.24832,-0.15347 -0.24832,-0.15347 v 0.41249 0.41249 h -0.23981 -0.23982 l 0.13521,-0.51703 0.1352,-0.51702 -1.01987,0.16106 -1.01987,0.16106 -0.15564,0.2362 -0.15565,0.23619 -0.34508,-0.41579 -0.34508,-0.4158 0.19013,-0.19012 0.19012,-0.19013 1.23664,-0.0324 1.23665,-0.0324 3.57187,-0.1875 3.57188,-0.18749 0.46302,-0.13063 0.46302,-0.13063 0.008,-1.10665 0.008,-1.10665 0.27455,0.47171 0.27454,0.47171 0.0949,1.24445 0.0949,1.24444 -0.20359,0.13593 -0.2036,0.13593 -0.16067,0.82682 -0.16066,0.82682 h 0.66464 0.66471 l -0.0445,-0.69453 -0.0445,-0.69453 0.028,-0.61093 0.028,-0.61092 0.26459,0.16352 0.26458,0.16352 v -0.41249 -0.41249 h -0.23111 -0.23112 l 0.0715,-1.20741 0.0715,-1.20741 0.1596,-0.1596 0.15961,-0.15961 0.0419,0.7717 0.0419,0.7717 -0.0388,0.46302 -0.0388,0.46303 h 0.50502 0.50503 l 0.18207,-0.82898 0.18207,-0.82898 0.20033,0.32414 0.20033,0.32414 0.14382,-0.75193 0.14382,-0.75194 -0.23257,-0.39687 -0.23257,-0.39688 -0.0121,0.26459 -0.0121,0.26458 -0.25648,-0.39687 -0.25648,-0.39688 -0.004,-0.46302 -0.004,-0.46302 h 0.53769 0.53769 l 0.1942,-0.52497 0.1942,-0.52496 -0.0132,-3.11306 -0.0131,-3.11305 -0.12344,-0.39688 -0.12343,-0.39687 0.26458,0.0411 0.26459,0.0411 0.58329,0.0912 0.58328,0.0912 0.01,-0.26179 0.01,-0.2618 -0.32847,-0.0286 -0.32847,-0.0286 -0.7276,-0.0403 -0.7276,-0.0403 0.009,-0.99219 0.009,-0.99218 0.37812,0.66146 0.37812,0.66145 0.009,-0.56359 0.009,-0.5636 -1.71323,-1.5228 -1.71323,-1.52281 0.16914,-0.27366 0.16913,-0.27367 -0.42339,0.16247 -0.42339,0.16247 -0.70148,-0.55178 -0.70148,-0.55178 -0.82162,-0.0957 -0.82163,-0.0957 -0.14743,-0.23408 -0.14743,-0.23407 -0.92604,-0.42501 -0.92604,-0.42501 -1.43703,-1.04625 -1.43704,-1.04625 -0.26346,-0.47671 -0.26347,-0.4767 0.45012,0.36843 0.45012,0.36843 0.12705,-0.12704 0.12704,-0.12705 -0.42244,-0.84681 -0.42245,-0.84682 0.14821,-0.38623 0.14821,-0.38623 -0.71108,-0.46355 -0.71107,-0.46355 1.02963,-0.13229 1.02963,-0.13229 0.10268,-0.31214 0.10268,-0.31214 -1.20846,-0.18122 -1.20847,-0.18122 -0.51009,0.13339 -0.51009,0.13339 -0.11606,-0.30149 -0.11606,-0.30149 1.2896,0.0917 1.28959,0.0917 v -0.42895 -0.42896 l -0.69113,-0.26277 -0.69112,-0.26277 0.62498,-0.49082 0.62498,-0.49083 1.11274,-0.10563 1.11274,-0.10562 0.0779,1.32631 0.0779,1.32631 0.45848,0.0872 0.45849,0.0872 0.66599,-0.71862 0.666,-0.71862 v -0.48223 -0.48223 l 0.36273,0.1392 0.36273,0.13919 0.15813,-0.41208 0.15813,-0.41208 h 0.40518 0.40518 v -0.28235 -0.28235 l -0.92604,-0.87337 -0.92604,-0.87337 v -0.40347 -0.40348 l -0.44112,-0.16927 -0.44112,-0.16927 -0.27326,0.27326 -0.27325,0.27325 h -0.47625 -0.47625 v 0.39688 0.39687 h -0.40619 -0.40618 l -0.65215,-0.4273 -0.65215,-0.42731 v -0.63103 -0.63102 l 1.12448,-0.0343 1.12448,-0.0343 1.71979,-0.0318 1.71979,-0.0318 -0.0666,-1.05833 -0.0666,-1.05833 0.52371,-0.66146 0.52371,-0.66146 0.006,0.36313 0.006,0.36312 0.39688,-0.32937 0.39687,-0.32938 v -0.55819 -0.55819 l 0.68498,1.00804 0.68498,1.00804 0.13021,-0.13021 0.13021,-0.13021 -0.29533,-0.55183 -0.29533,-0.55182 h -0.22633 -0.22634 l -0.10345,-0.88616 -0.10346,-0.88616 0.53753,0.1344 0.53753,0.1344 0.77576,0.64291 0.77577,0.64291 0.74559,-0.14912 0.74559,-0.14912 v 0.25797 0.25797 h -0.39672 -0.39671 l 0.066,0.92551 0.066,0.92551 0.62711,5.3e-4 0.62712,5.3e-4 -0.1112,1.53727 -0.1112,1.53727 -0.60634,1.16329 -0.60634,1.1633 -0.43874,0.34373 -0.43874,0.34372 -0.79375,-0.13126 -0.79375,-0.13127 -0.722,1.51875 -0.72199,1.51874 -0.33634,0.52917 -0.33634,0.52916 -0.26458,0.19439 -0.26459,0.19439 0.24375,0.004 0.24375,0.004 0.51064,-0.46212 0.51064,-0.46212 -0.0723,0.79285 -0.0723,0.79285 0.20082,1.12309 0.20081,1.12309 0.28652,0.17708 0.28653,0.17709 -0.16895,-0.44028 -0.16895,-0.44028 h 0.20336 0.20336 l 0.25136,0.22218 0.25135,0.22217 0.92604,0.3353 0.92604,0.33529 0.80504,0.39919 0.80503,0.3992 0.31945,1.02354 0.31944,1.02355 v 0.36864 0.36865 l 0.39688,0.32937 0.39687,0.32938 v -0.23334 -0.23333 l 0.56036,-0.34995 0.56036,-0.34995 0.26474,0.26473 0.26473,0.26474 0.11979,1.14605 0.11979,1.14605 0.0395,2.38125 0.0395,2.38125 0.24432,0.17142 0.24433,0.17143 0.35484,1.0192 0.35484,1.0192 0.004,0.40672 0.004,0.40671 1.02152,1.97454 1.02153,1.97453 0.54778,2.24896 0.54778,2.24895 0.31111,2.38125 0.31112,2.38125 0.20933,1.32292 0.20934,1.32292 0.20612,0.65674 0.20613,0.65674 0.48224,0.51763 0.48225,0.51763 v 0.18383 0.18383 l -0.52917,0.13838 -0.52917,0.13838 v 0.80291 0.80291 l 0.2388,0.14758 0.23881,0.14759 0.53931,-0.85178 0.53931,-0.85178 0.28022,0.73703 0.28022,0.73703 v 0.11507 0.11507 h -0.36857 -0.36857 l -0.1606,0.41851 -0.16059,0.41852 0.008,1.36742 0.008,1.36742 0.67499,-0.76782 0.675,-0.76782 -0.17107,-0.91187 -0.17106,-0.91187 0.28145,0.17395 0.28146,0.17395 v 0.61354 0.61353 l -0.37503,0.89758 -0.37503,0.89758 -0.5727,0.51828 -0.57271,0.51829 -0.24226,-0.4329 -0.24227,-0.43291 -0.52979,0.13854 -0.52979,0.13855 v -0.232 -0.232 l 0.61427,-0.66247 0.61427,-0.66246 0.15471,-0.59161 0.15471,-0.5916 h -0.24636 -0.24636 l -0.25149,0.66146 -0.25149,0.66146 h -0.8027 -0.80271 l -0.81573,-0.77956 -0.81573,-0.77955 0.16152,-0.26134 0.16151,-0.26134 -0.43671,-1.09144 -0.43671,-1.09144 0.1598,-1.34921 0.15979,-1.3492 -0.36628,-0.81794 -0.36629,-0.81794 -0.72922,-1.71979 -0.72921,-1.71979 -0.38109,-0.39688 -0.3811,-0.39687 0.18794,1.5875 0.18795,1.5875 0.23781,0.44562 0.23782,0.44563 v 0.59187 0.59188 l 0.35941,0.41771 0.3594,0.4177 0.30205,0.89938 0.30205,0.89938 0.0116,2.93708 0.0116,2.93708 0.23447,1.85208 0.23448,1.85209 0.31274,2.27169 0.31274,2.27169 1.88856,-0.30181 1.88856,-0.3018 0.57792,-0.31624 0.57792,-0.31624 1.00958,-0.003 1.00958,-0.003 1.45521,-0.40647 1.45521,-0.40647 2.11667,-0.35848 2.11666,-0.35848 2.24896,-0.40254 2.24896,-0.40253 1.32292,-0.15451 1.32291,-0.15451 1.32292,-0.24659 1.32292,-0.2466 0.58701,-0.0158 0.58701,-0.0158 -0.1523,0.39687 -0.1523,0.39688 h -0.33716 -0.33716 l -0.66037,0.85989 -0.66037,0.8599 -1.21497,1.24441 -1.21498,1.2444 -0.16866,0.672 -0.16866,0.67199 -0.3025,-0.18125 -0.30251,-0.18125 0.32844,0.40586 0.32843,0.40586 -0.17409,0.17409 -0.1741,0.1741 h 0.28038 0.28037 l 0.15229,-0.39688 0.1523,-0.39687 0.47132,-0.002 0.47133,-0.002 1.19062,-1.45367 1.19063,-1.45368 0.46302,-0.14986 0.46302,-0.14985 0.0224,-0.3129 0.0224,-0.3129 1.03594,-0.89058 1.03593,-0.89059 v 0.54485 0.54486 l -0.48044,0.34573 -0.48045,0.34573 -0.1727,0.46302 -0.17271,0.46302 h -0.37483 -0.37475 l -0.44398,0.67759 -0.44397,0.6776 0.0859,0.25779 0.0859,0.2578 1.11114,-1.06768 1.11114,-1.06768 h 0.11376 0.11376 l 1.35167,-1.34458 1.35167,-1.34458 v -0.14342 -0.14342 l 1.22152,-1.07523 1.22153,-1.07523 0.82899,-0.0165 0.829,-0.0165 0.0671,-36.31406 0.0671,-36.31406 H 113.61274 63.605549 v 6.15891 6.1589 l 0.503835,0.4314 0.503836,0.4314 0.488352,0.0941 0.488351,0.0941 v 0.52191 0.52192 l -0.529166,0.0971 -0.529167,0.0971 -0.463021,0.41057 -0.46302,0.41057 v 4.13352 4.13353 l 0.532191,0.45567 0.532191,0.45568 h 1.666197 1.666198 l 0.51359,-0.38846 0.513591,-0.38846 0.562047,-0.008 0.562047,-0.008 1.025453,0.35881 1.025453,0.35881 1.256771,-0.55685 1.25677,-0.55685 v -0.43696 -0.43696 h -0.97639 -0.97639 l -0.346527,-0.4739 -0.346526,-0.47391 v -0.18191 -0.18191 l 0.797115,-0.33018 0.797116,-0.33018 0.161286,-0.64261 0.161285,-0.64261 -0.607646,-0.64681 -0.607647,-0.64681 h -0.626505 -0.626505 l -0.38856,0.33073 -0.388561,0.33072 -0.991733,0.92605 -0.991733,0.92604 -0.589324,0.33073 -0.589324,0.33073 h -0.929632 -0.929632 v -0.24569 -0.24568 l 0.419441,-0.41944 0.419441,-0.41944 1.168059,-0.53212 1.168059,-0.53211 -0.0084,-0.45641 -0.0084,-0.45641 -0.398908,-0.52787 -0.398907,-0.52788 -0.225738,0.36525 -0.225737,0.36525 -0.689857,-0.17314 -0.689857,-0.17315 v -0.25954 -0.25954 h 0.264583 0.264583 v -0.49455 -0.49455 l 0.985589,-0.15994 0.985588,-0.15993 1.594099,0.77094 1.594099,0.77094 0.926042,-0.0647 0.926042,-0.0647 0.901102,0.3488 0.901101,0.3488 0.442649,-0.40059 0.442648,-0.40059 h 0.321494 0.321494 l -0.05403,0.33073 -0.05403,0.33073 0.28967,0.69921 0.28967,0.69921 -0.136193,0.5208 -0.136193,0.5208 1.2511,0.31503 1.2511,0.31503 -0.303813,0.30381 -0.303812,0.30382 v 1.0789 1.07891 l 0.529167,0.45309 0.529166,0.45308 v 0.79634 0.79634 H 80.009743 79.74516 v 0.49304 0.49303 l 1.521354,0.66755 1.521354,0.66755 0.314833,0.0962 0.314833,0.0962 0.621262,0.92605 0.621261,0.92604 1.775885,0.86865 1.775884,0.86865 v 0.64339 0.6434 l 0.565455,0.30262 0.565455,0.30262 0.860934,-0.13971 0.860933,-0.13971 1.066519,0.14305 1.06652,0.14305 0.150641,0.60021 0.150642,0.6002 0.404754,0.15532 0.404753,0.15532 1.144861,-0.55622 1.144861,-0.55621 1.244693,1.24469 1.244694,1.24469 0.38937,-0.32315 0.389369,-0.32314 0.13635,0.13634 0.13634,0.13635 -0.70757,1.29042 -0.70757,1.29042 -0.295065,0.59415 -0.295064,0.59415 -0.79375,0.23389 -0.79375,0.2339 -1.719792,0.47295 -1.719791,0.47296 -0.794295,0.85613 -0.794294,0.85614 -1.454664,0.65516 -1.454664,0.65515 -0.486836,0.59199 -0.486836,0.59198 -0.501463,-0.82459 -0.501462,-0.82459 h -0.543596 -0.543596 l -1.037252,0.52917 -1.037253,0.52917 h -0.460332 -0.460332 l 0.3175,0.3175 0.3175,0.3175 v 0.74083 0.74083 l -0.992188,0.0305 -0.992187,0.0305 -0.529167,-0.0565 -0.529166,-0.0565 -0.211585,-0.37082 -0.211585,-0.37082 h -0.49712 -0.497121 l -0.396875,0.39688 -0.396875,0.39687 H 76.87569 75.820507 l -0.118118,-0.33073 -0.118117,-0.33073 -0.206161,0.19199 -0.206161,0.19199 -0.02,0.73405 -0.02,0.73406 0.218633,0.62955 0.218634,0.62956 -0.888594,-0.17587 -0.888593,-0.17586 -1.5875,-0.16091 -1.5875,-0.16092 0.529166,-0.20803 0.529167,-0.20804 0.941618,-0.0186 0.941618,-0.0186 0.51359,-0.38846 0.513591,-0.38846 -0.396875,-0.0397 -0.396875,-0.0397 -0.198438,0.0313 -0.198437,0.0313 v -0.14606 -0.14605 l 0.807256,-0.28141 0.807256,-0.28141 -0.09311,-0.0931 -0.09311,-0.0931 -1.044878,0.30571 -1.044879,0.3057 -0.702302,0.47945 -0.702302,0.47946 h -0.537244 -0.537245 l -0.634622,0.24128 -0.634623,0.24128 -0.33101,-0.20457 -0.33101,-0.20458 0.617679,-0.16539 0.617679,-0.16538 0.598903,-0.004 0.598903,-0.004 0.586438,-0.33073 0.586438,-0.33073 0.269868,-0.28734 0.269867,-0.28735 1.157024,-0.32834 1.157025,-0.32833 -0.285915,-0.28592 -0.285915,-0.28591 -0.341943,0.2698 -0.341943,0.2698 -0.727604,0.17382 -0.727604,0.17381 -0.01187,-0.0712 -0.01187,-0.0712 -0.134036,-1.45521 -0.134035,-1.45521 -0.132914,-0.38946 -0.132914,-0.38946 -0.230185,0.37245 -0.230185,0.37245 -0.386141,-0.32047 -0.386142,-0.32047 -0.146295,0.38124 -0.146296,0.38124 0.199354,0.74999 0.199354,0.74999 0.577501,0.0845 0.577501,0.0846 v 0.63696 0.63695 l -0.601647,0.39422 -0.601646,0.39421 -0.865017,0.0659 -0.865016,0.0659 -0.506649,0.47201 -0.506648,0.47202 H 67.424398 67.25236 l 0.169992,-0.67731 0.169992,-0.6773 -0.170755,-0.9102 -0.170754,-0.91019 h -1.835366 -1.835365 l 0.07887,6.78107 0.07887,6.78108 0.595313,0.39495 0.595312,0.39494 v 0.21509 0.21508 l -0.272924,0.71785 -0.272924,0.71784 -0.38012,-0.50218 -0.380119,-0.50218 -0.0084,1.3488 -0.0084,1.34879 0.830001,0.0236 0.830001,0.0236 0.276839,0.27684 0.276839,0.27684 -0.122081,0.12208 -0.122081,0.12208 -0.984759,-0.2221 -0.984759,-0.2221 v 8.67751 8.6775 l 0.727604,0.26077 0.727604,0.26078 1.5875,0.93206 1.5875,0.93207 2.152672,0.0237 2.152672,0.0237 z m 11.196585,2.4474 -0.198437,-0.19844 -0.176389,-0.0205 -0.176389,-0.0205 -0.982761,-0.2056 -0.98276,-0.20561 -0.306407,-0.36919 -0.306407,-0.3692 h 0.429272 0.429272 v 0.25797 0.25797 l 0.79375,-0.15875 0.79375,-0.15875 v 0.42164 0.42164 l 0.396875,-0.15229 0.396875,-0.1523 v 0.27349 0.27349 l 0.46302,0.121 0.463021,0.121 -0.418923,0.0307 -0.418924,0.0307 z m 1.599923,-9.92187 -0.159537,-0.59532 -0.0036,-0.34634 -0.0036,-0.34634 0.234078,0.14466 0.234078,0.14467 0.116973,0.79699 0.116973,0.79699 h -0.1879 -0.187901 z m 2.389254,-0.15151 -0.43935,-0.48547 -9.89e-4,-0.37605 -9.89e-4,-0.37604 -0.524289,-0.85989 -0.524289,-0.8599 h 0.147302 0.147301 l -0.415773,-0.41577 -0.415774,-0.41578 v -0.37797 -0.37798 h -0.220486 -0.220486 l -0.16708,0.16708 -0.16708,0.16708 0.277229,0.51801 0.277229,0.51801 -0.484976,-0.10062 -0.484975,-0.10062 0.06452,-0.59291 0.06452,-0.59291 -0.593689,0.31152 -0.593688,0.31153 0.459408,-0.51836 0.459408,-0.51837 -0.327116,-0.32956 -0.327117,-0.32956 0.463021,0.17627 0.463021,0.17628 0.02637,-0.49133 0.02637,-0.49133 0.211836,0.66146 0.211836,0.66146 0.02637,-0.9896 0.02637,-0.9896 0.505933,0.43319 0.505932,0.4332 -0.137592,0.35856 -0.137592,0.35855 0.171905,0.68493 0.171905,0.68492 0.396424,-0.15212 0.396425,-0.15212 -0.04198,0.3265 -0.04198,0.3265 0.03135,0.36313 0.03135,0.36313 0.37332,-0.30983 0.37332,-0.30983 0.148181,0.23976 0.148181,0.23976 -0.235302,0.82045 -0.235302,0.82045 0.508075,0.16126 0.508076,0.16126 -0.170037,0.70961 -0.170036,0.7096 -0.0526,0.0678 -0.0526,0.0678 z m -21.710001,-1.2592 -0.160599,-0.41851 v -0.6242 -0.62421 l 0.222832,-0.13772 0.222831,-0.13771 0.01785,1.18043 0.01785,1.18044 h -0.08008 -0.08008 z m 43.278256,-4.56639 0.014,-1.01616 1.02106,-0.04 1.02107,-0.04 -0.30505,0.66952 -0.30505,0.66951 -0.37424,-0.1436 -0.37423,-0.14361 -0.13866,0.53026 -0.13867,0.53026 h -0.21714 -0.21714 z m -20.806464,-0.60448 0.178467,-0.5623 -0.274647,0.16975 -0.274647,0.16974 -0.166189,-0.2689 -0.166188,-0.2689 h 0.39085 0.39085 l 0.406063,0.15582 0.406062,0.15582 -0.315776,0.50564 -0.315776,0.50564 h -0.218768 -0.218768 z m -9.932167,-1.42207 -0.06116,-0.26458 0.05338,-0.50013 0.05338,-0.50012 -0.419791,0.16109 -0.419792,0.16109 v -0.25628 -0.25628 h 0.826147 0.826147 l -0.268509,0.33073 -0.268509,0.33073 -0.130071,0.52917 -0.130071,0.52916 z m 31.625611,-0.38373 -0.13459,-0.21777 0.39396,-0.32696 0.39396,-0.32696 v -0.62906 -0.62906 h 0.42995 0.42995 l -0.16537,0.82682 -0.16536,0.82682 v 0.3075 0.3075 l -0.52396,0.0395 -0.52396,0.0395 z m -4.37375,-0.97315 v -0.0847 l 0.74325,-0.38435 0.74325,-0.38435 0.37356,0.23088 0.37357,0.23088 -0.18141,0.18141 -0.18142,0.18142 -0.9354,0.0568 -0.9354,0.0568 z m 8.99583,-0.16698 v -0.33323 l 0.52917,-0.33047 0.52917,-0.33047 v 0.50311 0.5031 l -0.41852,0.1606 -0.41851,0.1606 h -0.11066 -0.11065 z m -33.006769,-0.84062 -0.595313,-0.27454 v -0.20184 -0.20185 h 0.537471 0.53747 l 0.156674,0.40829 0.156674,0.40828 -0.09883,0.0681 -0.09883,0.0681 z m 24.996949,-0.69481 0.14271,-0.54575 -0.59131,-0.41417 -0.5913,-0.41417 0.35767,-0.23071 0.35768,-0.2307 -0.39688,-0.26053 -0.39687,-0.26054 0.53166,-0.004 0.53167,-0.004 0.34683,-0.55536 0.34684,-0.55537 0.51932,-1.89203 0.51932,-1.89203 0.23625,-1.05833 0.23625,-1.05834 0.41482,-0.79375 0.41482,-0.79375 0.002,0.55467 0.002,0.55466 -0.37794,0.76825 -0.37793,0.76826 -0.28238,2.06145 -0.28238,2.06145 -0.36799,0.71667 -0.36798,0.71668 -0.0135,1.12448 -0.0134,1.12448 h 0.5282 0.52819 l -0.17776,0.28763 -0.17777,0.28763 -0.48222,-0.1261 -0.48222,-0.1261 -0.14107,0.36763 -0.14108,0.36764 h -0.24812 -0.24811 z m -42.106775,-5.77567 -0.507222,-0.19881 0.904097,-0.66951 0.904097,-0.66951 0.463021,-0.16311 0.46302,-0.16312 v -0.53747 -0.53747 h 1.058334 1.058333 v -0.24554 -0.24555 l 1.465424,-0.18309 1.465423,-0.18309 0.505252,0.45724 0.505252,0.45725 -0.752099,0.63285 -0.752099,0.63285 h -0.305316 -0.305316 l -1.09742,0.53021 -1.09742,0.53022 -0.265632,-0.26563 -0.265632,-0.26563 h -0.239974 -0.239974 l 0.152295,0.39687 0.152295,0.39688 h -1.050029 -1.05003 v 0.26458 0.26458 l -0.330729,-0.0186 -0.330729,-0.0186 z m 56.995765,-2.64097 v -1.06055 l 0.26458,-0.16352 0.26459,-0.16352 -0.0186,-0.44741 -0.0186,-0.4474 -0.22739,0.52916 -0.22739,0.52917 -0.0186,-0.7276 -0.0186,-0.72761 h 0.26458 0.26459 v -1.71979 -1.71979 h 0.23151 0.23151 l 0.16536,0.82682 0.16537,0.82682 -0.0264,1.09141 -0.0264,1.09141 -0.19121,0.66146 -0.1912,0.66145 0.3892,0.6089 0.3892,0.6089 -0.23777,0.22126 -0.23777,0.22126 -0.59531,0.17986 -0.59531,0.17986 z m -9.12813,-1.90021 -0.79375,-0.23154 -0.88139,-0.93522 -0.88139,-0.93522 h 0.0914 0.0914 l 1.45148,0.56193 1.45147,0.56194 0.88654,0.13158 0.88654,0.13158 1.75929,-0.47131 1.7593,-0.4713 0.71296,-0.55294 0.71297,-0.55294 0.0146,-0.61093 0.0146,-0.61093 0.26458,0.16352 0.26458,0.16353 v -0.2802 -0.2802 h 0.25954 0.25955 l 0.18019,0.71796 0.1802,0.71796 0.19332,-0.51952 0.19332,-0.51953 0.20368,0.50129 0.20368,0.50128 -0.37372,0.29247 -0.37372,0.29246 -0.0918,0.92605 -0.0918,0.92604 -0.30506,0.2042 -0.30506,0.2042 -1.44592,-0.15758 -1.44593,-0.15759 -0.20736,-0.12815 -0.20735,-0.12816 -1.60924,0.41227 -1.60923,0.41227 -0.30936,-0.0239 -0.30936,-0.0239 z m 3.06579,-2.03584 0.29215,-0.46302 0.63613,-0.47537 0.63614,-0.47538 v 0.42485 0.42484 l -0.25296,-0.15634 -0.25296,-0.15634 -0.43893,0.66989 -0.43892,0.66989 h -0.2364 -0.2364 z m -4.77716,-2.59292 -0.008,-0.27781 0.23484,-0.25135 0.23485,-0.25136 0.17986,-0.59531 0.17986,-0.59531 h -0.41471 -0.4147 v -0.25954 -0.25955 l 0.66146,-0.16601 0.66145,-0.16602 v -0.36819 -0.36819 h 0.28242 0.28241 l -0.18182,0.59531 -0.18181,0.59531 -0.33694,0.79375 -0.33694,0.79375 -0.4167,0.52917 -0.4167,0.52917 z m 11.30467,-0.96126 0.15674,-0.59936 0.10797,0.32391 0.10797,0.3239 h 0.20584 0.20584 l -0.0968,-0.7276 -0.0968,-0.72761 0.29336,0.74414 0.29336,0.74415 -0.0937,0.0829 -0.0937,0.0829 -0.57339,0.17603 -0.57338,0.17603 z m -8.41899,-1.296 -0.64514,-0.49586 0.56292,-0.006 0.56291,-0.006 0.33869,-0.40809 0.33868,-0.40809 0.24916,0.24917 0.24916,0.24916 -0.16864,0.53136 -0.16865,0.53135 -0.33698,0.12931 -0.33697,0.12931 z m 6.36632,0.16757 v -0.36652 l -0.25611,-0.0882 -0.2561,-0.0882 0.22477,-0.36179 0.22477,-0.36178 0.84591,-0.0985 0.84592,-0.0985 0.22547,-0.13935 0.22547,-0.13935 0.1665,0.2694 0.16649,0.26939 -0.68416,0.26012 -0.68416,0.26012 -0.14597,0.38039 -0.14597,0.38038 -0.37641,0.14445 -0.37642,0.14444 z m -9.11342,-1.70974 -0.13632,-0.22056 1.12799,-0.43079 1.12798,-0.43078 h 0.24847 0.24846 l -0.56164,0.39339 -0.56164,0.39338 -0.67849,0.25797 -0.67849,0.25796 z m 17.9676,-11.69496 -0.17732,-0.55867 0.42218,-0.42218 0.42218,-0.42218 0.2763,0.27631 0.27631,0.2763 -0.26787,0.70454 -0.26786,0.70455 h -0.25331 -0.2533 z m -25.12606,-5.77682 -0.52916,-0.21288 -0.19844,0.1148 -0.19844,0.1148 v -0.2802 -0.2802 h -0.41577 -0.41578 l -0.36537,-0.36538 -0.36538,-0.36537 0.16379,-0.16379 0.16379,-0.16379 h -0.44097 -0.44097 v -0.55122 -0.55121 l 0.33073,0.12126 0.33072,0.12127 -0.0727,0.31732 -0.0727,0.31733 0.27546,-0.17024 0.27545,-0.17024 -0.15222,-0.24631 -0.15222,-0.2463 h 0.37201 0.372 l 0.61014,-0.52916 0.61013,-0.52917 h 0.85687 0.85688 l 0.20235,0.7276 0.20235,0.72761 0.0627,0.29801 0.0627,0.29802 0.17833,0.56188 0.17834,0.56188 h -0.3864 -0.3864 l -0.15229,0.39687 -0.1523,0.39688 -0.33903,-0.0186 -0.33903,-0.0186 z m 3.67586,-0.96219 0.1606,-0.41852 v -0.11065 -0.11065 h 1.03944 1.03943 l 0.45121,0.45121 0.45121,0.4512 -0.33062,0.11021 -0.33062,0.11021 -0.22993,-0.36298 -0.22993,-0.36298 -0.004,0.33073 -0.004,0.33073 h -1.08664 -1.08664 z m -10.422272,60.28049 -0.995618,-0.99219 -0.59308,-0.52917 -0.59308,-0.52916 0.180769,1.08243 0.18077,1.08242 -1.00834,0.41322 -1.008339,0.41321 2.416268,0.0257 2.416268,0.0257 z m 27.993862,0.85248 -0.1397,-0.1397 -1.02887,-0.12996 -1.02888,-0.12996 -0.46302,-0.14504 -0.46302,-0.14504 v 0.4147 0.4147 h 1.6316 1.6316 z m 3.79701,-0.19102 0.0413,-0.33073 0.0338,-0.72761 0.0338,-0.7276 h -0.57598 -0.57597 l -0.1523,0.39687 -0.15229,0.39688 h -0.2885 -0.2885 l 0.16352,-0.26459 0.16352,-0.26458 h -0.2802 -0.2802 l -0.0209,0.33073 -0.0209,0.33073 -0.13001,-0.32039 -0.13001,-0.3204 -0.77514,0.15503 -0.77515,0.15503 v -0.2554 -0.2554 l 1.45521,-0.3491 1.45521,-0.34909 v -0.18271 -0.18271 l -2.43224,-0.17264 -2.43223,-0.17265 -0.19841,-0.32103 -0.19841,-0.32103 -0.27977,0.73587 -0.27978,0.73586 v 0.31808 0.31809 l 1.65365,0.6166 1.65364,0.61659 0.79375,0.35409 0.79375,0.35409 0.99219,0.0169 0.99219,0.0169 z m 23.13342,-0.0998 -0.16519,-0.43049 0.43787,-0.32018 0.43788,-0.32019 -0.1064,-0.31921 -0.10641,-0.31921 -0.59488,0.55422 -0.59489,0.55422 -0.23856,-0.14744 -0.23856,-0.14744 -0.10139,0.30417 -0.10139,0.30418 -0.51652,-0.26678 -0.51652,-0.26677 -0.33238,0.11914 -0.33238,0.11914 0.17532,0.28366 0.17531,0.28366 -0.63668,-0.17035 -0.63669,-0.17036 -0.58701,-0.004 -0.58701,-0.004 0.16411,-0.42765 0.16411,-0.42766 -0.59195,0.3168 -0.59195,0.3168 -0.15373,-0.15372 -0.15372,-0.15373 h 0.30868 0.30868 v -0.43788 -0.43789 l -0.48449,0.43846 -0.4845,0.43846 -0.23439,-0.19901 -0.23439,-0.19902 0.33114,0.43499 0.33114,0.43499 -0.4249,0.42491 -0.42491,0.4249 h 3.75137 3.75138 z m 11.75025,-1.45027 v -1.88077 l -0.72761,0.20057 -0.7276,0.20058 -0.66146,0.0514 -0.66146,0.0514 -0.7276,0.0413 -0.72761,0.0413 -0.004,0.59532 -0.004,0.59531 -0.25648,-0.39688 -0.25648,-0.39687 -0.005,0.26458 -0.005,0.26459 -1.45428,0.78447 -1.45428,0.78447 v 0.18831 0.18832 l -0.46302,0.121 -0.46302,0.121 4.29947,0.0307 4.29948,0.0307 z m -35.99175,-1.88955 -0.008,-0.33073 -0.38846,-0.51359 -0.38846,-0.51359 -0.0209,0.51359 -0.0209,0.51359 -0.15107,-0.39687 -0.15108,-0.39688 -0.29106,-0.19438 -0.29105,-0.19439 0.61736,-0.004 0.61736,-0.004 -0.12127,-0.33073 -0.12126,-0.33073 -0.28814,0.063 -0.28813,0.063 0.15107,-0.3937 0.15108,-0.3937 -0.35903,-0.004 -0.35904,-0.004 0.34353,-0.21792 0.34354,-0.21791 0.12817,-1.29939 0.12817,-1.29939 0.11024,-0.66146 0.11023,-0.66145 0.14099,-0.66146 0.14099,-0.66146 0.26726,-1.28884 0.26725,-1.28883 -0.17054,-1.06653 -0.17055,-1.06653 -0.35662,0.4877 -0.35662,0.48771 v 0.46137 0.46138 l -0.26001,0.61253 -0.26001,0.61254 -0.66772,1.05833 -0.66772,1.05834 -0.39118,0.8418 -0.39118,0.8418 -0.28663,0.17715 -0.28662,0.17715 0.14191,0.36983 0.14192,0.36982 -0.75556,1.65393 -0.75555,1.65393 -0.16645,0.55292 -0.16645,0.55292 2.18719,0.5538 2.18719,0.5538 0.59531,0.0178 0.59531,0.0178 z m -16.4628,-3.78511 -0.1281,-1.13647 0.49271,-0.74728 0.4927,-0.74728 0.002,-0.84428 0.002,-0.84429 -0.27432,-0.16954 -0.27433,-0.16954 -1.05674,0.5508 -1.05674,0.5508 h -0.47692 -0.47692 l -0.17512,0.17513 -0.17513,0.17512 0.62006,0.81707 0.62005,0.81706 0.34054,1.05833 0.34053,1.05834 0.42721,0.42918 0.42721,0.42919 0.22896,-0.13294 0.22896,-0.13293 z m 4.7283,-8.86061 0.0387,-0.76917 0.18261,-1.46156 0.18261,-1.46157 h -0.60112 -0.60112 l 0.3175,0.3175 0.3175,0.3175 v 0.21167 0.21167 l -0.33073,-0.0662 -0.33073,-0.0661 0.0466,1.54415 0.0466,1.54415 0.15808,0.41195 0.15808,0.41195 0.18839,-0.18839 0.18839,-0.18839 z m 9.36167,-1.44334 v -0.39687 h 0.22594 0.22595 l 0.63395,-0.60949 0.63395,-0.60948 0.0556,-0.28505 0.0556,-0.28506 -0.48041,-0.43476 -0.4804,-0.43476 -0.43514,0.16698 -0.43513,0.16698 v 0.63315 0.63315 h -0.26459 -0.26458 v 0.92604 0.92605 h 0.26458 0.26459 z m -4.23334,-0.37733 0.39688,-0.11276 0.68173,-0.0417 0.68173,-0.0417 0.32806,-0.20275 0.32806,-0.20275 0.37086,0.48951 0.37085,0.48952 0.004,-0.52917 0.004,-0.52916 -0.25648,-0.39688 -0.25648,-0.39687 -0.004,0.33073 -0.004,0.33073 h -0.39687 -0.39688 v -0.42928 -0.42927 l -0.43033,0.35715 -0.43034,0.35715 -0.89258,0.0571 -0.89258,0.0571 v -0.29366 -0.29366 l -0.15747,0.15747 -0.15747,0.15747 0.18623,0.8479 0.18623,0.8479 0.16968,-0.23367 0.16967,-0.23366 z m -4.04178,-1.72508 -0.30069,-0.54342 -0.1001,0.47847 -0.1001,0.47848 0.1689,0.44015 0.16891,0.44015 0.23188,-0.3752 0.23189,-0.37521 z m 3.9561,-1.00644 0.003,-0.33073 0.17985,-0.55796 0.17985,-0.55796 -0.39948,-0.33154 -0.39948,-0.33154 -0.40024,0.15359 -0.40025,0.15359 v 1.06664 1.06664 h 0.61737 0.61736 z M 71.011233,178.5393 h 0.223135 l 0.116962,0.33073 0.116962,0.33073 -0.05738,-1.12448 -0.05738,-1.12448 h 0.227051 0.227051 v 0.44097 0.44097 l 0.18369,-0.18369 0.183691,-0.18369 0.04678,-0.91874 0.04678,-0.91874 H 72.134593 72.00061 l -0.559506,0.60774 -0.559507,0.60774 -0.52858,0.98977 -0.528581,0.98978 0.396289,0.2476 0.396289,0.2476 0.08555,-0.3899 0.08555,-0.38991 z m 15.752504,-1.04677 -0.139966,-0.22647 -0.528903,0.13831 -0.528903,0.13831 v 0.18963 0.18963 l 0.16708,0.16708 0.16708,0.16708 0.501789,-0.26855 0.501788,-0.26855 z m -12.710861,-0.15936 0.986951,-0.41237 -0.131875,-0.13188 -0.131876,-0.13187 -0.870913,0.22568 -0.870913,0.22567 -0.106191,0.31857 -0.106191,0.31858 h 0.122028 0.122028 z m 15.875542,-1.16513 0.164779,-0.51917 -0.28855,-0.53916 -0.28855,-0.53916 h -0.09519 -0.09519 l -0.100929,1.05833 -0.100928,1.05834 h 0.319891 0.319892 z m -14.019745,-3.44957 0.79375,-0.52568 -0.324334,-0.002 -0.324334,-0.002 -0.866291,0.52818 -0.866291,0.52817 0.396875,-7.5e-4 0.396875,-7.5e-4 z m -7.011458,-8.28135 v -0.48113 l -0.268899,0.16618 -0.268899,0.16619 0.175423,0.31245 0.175423,0.31245 -0.280995,-0.26459 -0.280995,-0.26458 -0.126479,-0.66146 -0.126479,-0.66146 0.01979,1.22904 0.01979,1.22903 0.481162,-0.30049 0.481162,-0.30049 z m 12.633854,-1.14583 0.595313,-0.15954 v -0.23373 -0.23372 h -0.680358 -0.680357 l -0.396875,0.39687 -0.396875,0.39688 0.48192,-0.004 0.48192,-0.004 z m -6.072187,-0.94449 0.3175,-0.3175 -0.0021,-0.5424 -0.0021,-0.54239 -0.712257,-0.33079 -0.712257,-0.33078 -0.230174,0.23018 -0.230175,0.23017 0.180191,0.9605 0.180192,0.96051 h 0.446804 0.446805 z m -7.523247,-3.18418 0.300122,-0.19438 0.992187,-0.004 0.992188,-0.004 v 0.26459 0.26458 h 0.264583 0.264583 v -0.39688 -0.39687 h 0.251437 0.251436 l 0.241116,0.43085 0.241117,0.43085 0.202803,-0.32814 0.202802,-0.32814 -0.355515,-0.21972 -0.355516,-0.21972 -1.728902,0.13929 -1.728903,0.13928 -0.330729,0.10171 -0.330729,0.10171 0.03069,0.73591 0.03069,0.73591 0.132207,-0.52917 0.132208,-0.52916 z m 58.241655,-1.80009 -0.17212,-0.78365 h -0.22771 -0.22771 l 0.0863,0.72761 0.0863,0.7276 0.0382,0.52917 0.0382,0.52916 0.27534,-0.47312 0.27535,-0.47313 z m -61.648227,-0.84445 0.26711,-0.94444 0.431726,-0.48956 0.431726,-0.48957 0.171021,-0.52917 0.171021,-0.52917 0.481639,-0.57511 0.481639,-0.57511 1.230719,-0.5785 1.230718,-0.57851 v -0.20676 -0.20676 l 0.69342,-0.17404 0.693419,-0.17404 0.372571,-0.37257 0.37257,-0.37257 0.389218,0.14936 0.389218,0.14935 v 0.21845 0.21845 l -0.529166,0.16795 -0.529167,0.16795 v 0.51788 0.51789 l 0.682335,0.25942 0.682336,0.25943 0.574435,-0.1309 0.574436,-0.1309 0.726556,-0.16572 0.726557,-0.16572 0.900929,0.42752 0.90093,0.42752 h 0.258346 0.258346 l 0.314682,-0.37917 0.314681,-0.37916 -0.462012,-0.70512 -0.462012,-0.70512 0.312019,-0.49963 0.312019,-0.49962 v -0.51385 -0.51386 l -0.415774,-0.41578 -0.415773,-0.41577 H 76.1758 75.290098 l -0.79903,0.45858 -0.799031,0.45858 -0.821692,-0.6075 -0.821692,-0.60751 -0.914261,0.30174 -0.91426,0.30173 v 0.24407 0.24406 h -0.391834 -0.391835 l -0.16121,0.64231 -0.161211,0.64232 -0.388502,0.14908 -0.388502,0.14908 -1.241265,-0.29378 -1.241266,-0.29379 -0.751753,-0.0596 -0.751753,-0.0596 0.137563,0.81879 0.137564,0.8188 0.178993,0.71181 0.178993,0.7118 -0.689283,0.68929 -0.689282,0.68928 v 1.9944 1.99439 l 0.328202,-0.1094 0.328202,-0.1094 z m 18.655652,-2.74972 v -0.36448 h -0.364478 -0.364478 l -0.346113,0.41704 -0.346113,0.41704 0.370988,0.22929 0.370988,0.22928 0.339603,-0.28185 0.339603,-0.28184 z m -11.829867,-8.39596 0.737842,-0.79492 -0.08723,-0.41545 -0.08723,-0.41544 -0.624526,0.0701 -0.624525,0.0701 -0.65748,0.65748 -0.65748,0.65748 h -0.228504 -0.228504 v 0.61736 0.61736 l 0.158689,0.15869 0.158689,0.15869 0.701207,-0.29329 0.701207,-0.29329 z m -7.129724,-0.96435 -0.154592,-0.92604 -0.232492,-0.25136 -0.232491,-0.25135 0.0094,1.83885 0.0094,1.83886 0.377708,-0.66146 0.377708,-0.66146 z m 13.216593,0.73833 0.757161,-0.53915 0.212695,-0.56261 0.212696,-0.56261 -0.249406,-0.47569 -0.249406,-0.47568 -0.622853,-0.23681 -0.622853,-0.23681 -0.949126,0.26207 -0.949126,0.26206 -0.660892,0.66089 -0.660892,0.6609 v 0.61716 0.61716 l 0.595313,0.42489 0.595312,0.4249 0.917108,-0.15076 0.917108,-0.15077 z"
       id="path2" /></g></svg>
