<?xml version="1.0" encoding="UTF-8" standalone="no"?>
<!-- Created with Inkscape (http://www.inkscape.org/) -->

<svg
   width="101.6mm"
   height="84.666656mm"
   viewBox="0 0 101.6 84.666656"
   version="1.1"
   id="svg1"
   xml:space="preserve"
   xmlns="http://www.w3.org/2000/svg"
   xmlns:svg="http://www.w3.org/2000/svg"><defs
     id="defs1" /><g
     id="layer1"
     transform="translate(-62.8118,-25.663562)"><path
       style="fill:#ffffff;fill-opacity:1"
       d="M 62.811798,67.996893 V 25.663561 h 50.800002 50.8 v 42.333332 42.333327 h -50.8 -50.800002 z M 163.61805,94.140171 v -0.214112 h -0.22712 -0.22711 l -1.8066,1.653646 -1.8066,1.653645 -1.10708,1.12448 -1.10708,1.124479 h -0.74623 -0.74624 l 0.49503,0.361974 0.49503,0.361967 -2.69342,2.70664 -2.69342,2.70663 v 0.37003 0.37004 l 6.08542,-6.00266 6.08542,-6.002647 z m -28.04989,1.508181 -0.004,-0.531668 -0.24614,-0.389213 -0.24615,-0.389212 -0.1646,0.164599 -0.1646,0.164599 -0.0757,1.062593 -0.0757,1.062592 0.49049,-0.306311 0.49048,-0.306312 z m -28.45797,-7.681099 0.50985,-0.385726 -0.15646,-0.156462 -0.15646,-0.156462 -0.55183,0.295329 -0.55183,0.295328 v 0.255275 0.255274 l 0.19844,-0.0084 0.19844,-0.0084 z m 33.88598,-0.920361 -0.52916,-0.22739 0.4474,-0.0186 0.44741,-0.0186 0.18878,-0.305464 0.18879,-0.305463 -0.30733,0.189942 -0.30733,0.189941 -0.17727,-0.47979 -0.17727,-0.479791 -0.28389,-0.194386 -0.28388,-0.194386 0.39688,-0.02082 0.39687,-0.02082 -0.60118,-0.241456 -0.60117,-0.241455 -0.14689,-0.382775 -0.14688,-0.382774 0.58073,-0.580731 0.58073,-0.580731 1.15952,-0.06246 1.15952,-0.06246 0.004,0.292003 0.004,0.292003 0.19438,-0.300107 0.19439,-0.300107 1.17666,-0.01476 1.17665,-0.01476 0.71162,0.42036 0.71161,0.42036 0.78743,-0.560699 0.78743,-0.560698 0.16857,0.168572 0.16857,0.168571 0.004,-0.374826 0.004,-0.374826 0.22688,0.358046 0.22689,0.358046 0.56898,-0.304511 0.56899,-0.304512 -0.40305,-0.575427 -0.40304,-0.575427 v -0.236562 -0.23657 l 0.51944,0.135836 0.51943,0.135836 0.30671,-0.36956 0.30671,-0.369561 h 0.2478 0.2478 l -0.14374,0.232586 -0.14375,0.232587 1.71449,-0.03415 1.71449,-0.03415 0.001,-0.226745 0.001,-0.226745 0.41062,0.157568 0.41061,0.157569 -0.15685,-0.253796 -0.15686,-0.253796 0.73843,-0.176531 0.73842,-0.176531 0.33073,-0.260498 0.33073,-0.260497 v 0.341077 0.341077 l 0.16509,-0.165091 0.1651,-0.165092 -0.57943,-0.982055 -0.57943,-0.982055 0.15751,-0.627563 0.15751,-0.627563 0.30179,0.186516 0.30179,0.186516 -0.15539,-0.404948 -0.1554,-0.404948 1.06223,-0.318252 1.06223,-0.318252 0.11978,0.119779 0.11978,0.119779 0.91421,-0.206187 0.9142,-0.206186 0.13936,0.225482 0.13935,0.225482 0.45455,-0.157708 0.45455,-0.157708 0.33073,-0.410473 0.33073,-0.410473 v -1.660916 -1.660918 l -0.39688,0.152295 -0.39687,0.152296 v -0.292891 -0.292891 l -0.46302,0.0041 -0.46303,0.0041 0.39688,0.25648 0.39687,0.256481 -0.31511,0.0041 -0.31511,0.0041 -0.16619,-0.2689 -0.16619,-0.268899 -0.31245,0.182088 -0.31245,0.182088 0.52917,-0.636233 0.52917,-0.636233 -0.46302,0.358566 -0.46302,0.358566 v -0.217605 -0.217605 l -0.3175,0.3175 -0.3175,0.3175 h -0.47625 -0.47625 v -0.239813 -0.239813 l 0.59531,0.110455 0.59531,0.110455 -0.33073,-0.157274 -0.33073,-0.157274 v -0.242535 -0.242534 l 0.19844,0.03133 0.19844,0.03133 0.34634,-0.03133 0.34635,-0.03133 -0.16353,-0.264584 -0.16352,-0.264583 h 0.29582 0.29581 l -0.16165,-0.261553 -0.16165,-0.261552 0.4328,0.166081 0.4328,0.166081 -0.35291,0.223712 -0.35291,0.223711 0.52916,-0.0048 0.52917,-0.0048 0.61549,-0.512967 0.61549,-0.512968 -0.17152,-0.540405 -0.17151,-0.540405 -0.23778,0.146954 -0.23778,0.146955 -0.14005,-0.672279 -0.14005,-0.67228 -0.13733,-0.661458 -0.13733,-0.661458 h 0.6665 0.6665 v -3.243575 -3.243479 l -1.52136,-0.02112 -1.52135,-0.02112 -12.43542,-0.07642 -12.43541,-0.07642 -1.19063,-0.266159 -1.19062,-0.266158 -1.57982,-0.07612 -1.57981,-0.07612 -0.9182,0.383648 -0.9182,0.383648 -1.36138,-0.304664 -1.36139,-0.304665 -0.55498,0.297017 -0.55498,0.297017 h -1.90187 -1.90188 l 0.31527,0.379868 0.31526,0.379867 0.84161,0.182197 0.84162,0.182196 0.7023,0.496269 0.7023,0.496269 h 0.54333 0.54333 l 1.06947,1.017366 1.06947,1.017367 v 0.517217 0.517217 l 0.27162,0.271615 0.27161,0.271614 0.16133,1.362129 0.16132,1.362128 0.18442,-0.11398 0.18443,-0.113979 v 0.373598 0.373597 l -0.20712,-0.128005 -0.20712,-0.128006 -0.15793,0.867248 -0.15793,0.867249 0.40628,1.322917 0.40628,1.322916 0.003,0.631528 0.003,0.631528 1.0286,2.146597 1.02861,2.146597 0.55889,1.654699 0.5589,1.6547 0.001,0.72655 0.001,0.726551 0.26833,0.966052 0.26833,0.966052 0.59009,-0.129108 0.59009,-0.129108 -0.39687,0.283484 -0.39688,0.283483 0.24901,0.0041 0.24901,0.0041 -0.46306,0.338594 -0.46305,0.338594 0.26433,0.695232 0.26432,0.695232 0.78751,0.172967 0.78752,0.172967 0.16167,0.42132 0.16168,0.42132 0.32345,-0.418875 0.32345,-0.418875 0.79375,-0.07274 0.79375,-0.07274 0.85989,0.383296 0.8599,0.383295 v 0.232393 0.232392 l 0.37332,-0.309828 0.37332,-0.309828 0.15749,0.254833 0.1575,0.254833 -0.33238,0.134002 -0.33238,0.134001 1.05834,0.0023 1.05833,0.0023 z m -4.58819,-3.206044 -0.34567,-0.553496 0.28412,0.175594 0.28412,0.175593 v -0.280198 -0.280198 h 0.52916 0.52917 v 0.295427 0.295428 l 0.60868,-0.116356 0.60868,-0.116356 0.0411,0.545196 0.0411,0.545197 -0.24882,-0.393539 -0.24882,-0.393539 -0.004,0.363126 -0.004,0.363126 -0.39688,-0.329377 -0.39687,-0.329377 v 0.312595 0.312595 l -0.28262,-0.174669 -0.28263,-0.17467 0.14203,-0.370112 0.14203,-0.370112 h -0.13242 -0.13252 l -0.19451,0.525809 -0.19451,0.525809 z m 19.67923,-10.536456 -0.17331,-0.280416 h 0.2802 0.2802 v -0.273892 -0.273893 l -0.52917,0.283202 -0.52917,0.283201 V 72.768702 72.49481 h 0.41249 0.41249 l -0.16165,-0.261553 -0.16164,-0.261553 0.36531,0.140183 0.36531,0.140183 0.29198,-0.606234 0.29198,-0.606235 0.0179,0.346344 0.0179,0.346344 0.26459,-0.163521 0.26458,-0.163522 v 0.280199 0.280198 h -0.2802 -0.2802 l 0.16165,0.261553 0.16164,0.261552 -0.45402,-0.174224 -0.45402,-0.174224 0.15224,0.246319 0.15223,0.246318 -0.34801,0.475936 -0.34802,0.475936 z m -19.98583,-2.652357 v -0.255274 l -0.56281,-0.301209 -0.56282,-0.30121 -0.22688,0.358046 -0.22689,0.358047 -0.004,-0.277813 -0.004,-0.277812 0.3027,-0.302697 0.3027,-0.302697 -0.50114,0.130159 -0.50113,0.130158 -0.52917,-0.429166 -0.52917,-0.429166 0.36506,0.188742 0.36505,0.188741 -0.11481,-0.34444 -0.11481,-0.344441 -0.50192,-0.07367 -0.50193,-0.07367 -0.44079,-0.584375 -0.4408,-0.584375 0.12803,-0.489555 0.12802,-0.489555 h 0.18081 0.1808 l 0.3175,0.3175 0.3175,0.3175 v -0.326802 -0.326809 l 0.59532,0.330103 0.59531,0.330104 0.19844,-0.05621 0.19843,-0.05621 v 0.222235 0.222234 l 1.05834,0.349281 1.05833,0.349282 v 0.250542 0.250541 l 0.42845,-0.164411 0.42845,-0.164411 -0.12845,0.671942 -0.12845,0.671943 0.3986,0.223071 0.39861,0.223072 -0.20251,0.327671 -0.20251,0.32767 -0.23152,-0.358977 -0.23152,-0.358976 -0.16314,0.595312 -0.16314,0.595313 h -0.36602 -0.36602 z m -30.1401,10.719545 0.24218,-0.251354 v -0.691137 -0.691137 l 0.5361,-1.109582 0.53609,-1.109581 0.16659,-0.858344 0.16659,-0.858344 0.48794,-0.922123 0.48794,-0.922124 V 73.226332 72.49481 h 0.26459 0.26458 v -0.40349 -0.40349 l 0.79375,-0.15875 0.79375,-0.15875 v -0.23151 -0.23151 h -0.52917 -0.52916 v -0.275124 -0.275124 l 0.55562,-1.089115 0.55563,-1.089115 v -0.876825 -0.876825 l -0.54116,-0.875603 -0.54115,-0.875604 0.0863,-1.05052 0.0863,-1.05052 -0.12278,0.330729 -0.12278,0.330729 h -0.24253 -0.24254 v -0.396875 -0.396875 h -0.26458 -0.26459 V 62.07945 61.718256 l -0.54636,-0.694585 -0.54636,-0.694585 0.19037,-0.308018 0.19036,-0.308019 -0.27548,0.170259 -0.27548,0.170259 -0.33199,-0.400019 -0.33199,-0.400018 0.50045,0.177289 0.50044,0.17729 -0.31528,-0.340999 -0.31529,-0.340999 -0.87534,0.412435 -0.87534,0.412435 -0.97489,0.180407 -0.97489,0.180407 -0.45518,0.502966 -0.45518,0.502966 h -0.20902 -0.20903 l -1.19904,1.25677 -1.199043,1.256771 -0.0061,0.344766 -0.0061,0.344767 -0.661458,0.973423 -0.661458,0.973424 v 0.212383 0.212382 l -1.692923,2.041303 -1.692923,2.041302 -0.681739,0.587835 -0.68174,0.587835 -1.053876,0.665282 -1.053876,0.665283 -1.066268,1.443354 -1.066268,1.443354 -0.06926,0.875403 -0.06926,0.875404 -0.333161,0.35206 -0.333161,0.352059 0.134774,0.218069 0.134774,0.218069 1.120343,-0.150269 1.120343,-0.15027 0.344264,-0.344264 0.344264,-0.344264 -0.04857,-0.0756 -0.04857,-0.07559 0.568289,-1.113939 0.568289,-1.113939 v -0.34377 -0.343771 l 0.529166,-0.33047 0.529167,-0.33047 v -0.394633 -0.394633 h 0.264583 0.264584 v -0.396875 -0.396875 l 0.198437,0.0016 0.198438,0.0016 0.727604,0.379554 0.727604,0.379555 v -0.216794 -0.216793 l 0.84036,-0.348089 0.84036,-0.348088 1.746446,-1.734532 1.746445,-1.734531 0.89556,-1.412751 0.89556,-1.412751 1.02002,-0.643911 1.02002,-0.643912 0.54985,0.512256 0.54984,0.512255 -0.17527,0.55222 -0.17527,0.552219 0.17276,0.544323 0.17277,0.544323 0.63881,0.242878 0.63882,0.242878 v 0.242449 0.242449 l -0.59889,0.150314 -0.5989,0.150313 -0.33942,1.664307 -0.33942,1.664307 -0.2885,1.719792 -0.2885,1.719791 0.21991,3.439584 0.2199,3.439583 0.10328,-0.661458 0.10327,-0.661459 z m -19.041365,0.582083 0.427909,-0.46302 h 0.431987 0.431986 V 81.226059 80.961476 H 87.68263 87.153464 v -0.264583 -0.264584 h 0.529166 0.529167 v -0.499721 -0.499721 l -0.893393,-0.167601 -0.893393,-0.167602 -0.662971,0.252061 -0.66297,0.252061 -0.423209,1.242048 -0.423208,1.242049 0.154021,0.24921 0.15402,0.249211 0.965656,-0.08381 0.965655,-0.08381 z m 16.611345,-7.672916 -0.0264,-0.330729 -0.21184,-0.661458 -0.21183,-0.661459 -0.0264,0.454717 -0.0264,0.454717 -0.40564,-0.155655 -0.40563,-0.155656 0.31581,0.693126 0.31581,0.693126 h 0.35441 0.3544 z m 12.72637,-0.415471 0.39688,-0.179841 0.0367,-0.463021 0.0367,-0.463021 h -0.22204 -0.22203 l -0.21159,0.354192 -0.21158,0.354192 -0.52917,0.299221 -0.52917,0.29922 0.52917,-0.01055 0.52917,-0.01055 z m -1.03877,-0.696915 0.23896,0.147682 -0.15757,-0.410617 -0.15757,-0.410616 h -0.35295 -0.35295 l -0.17777,-0.287638 -0.17777,-0.287637 0.29444,-0.294446 0.29445,-0.294446 V 71.118976 70.90731 h -0.23372 -0.23373 l -0.16332,0.46302 -0.16332,0.463021 -0.14669,0.308277 -0.14668,0.308277 0.54373,0.172574 0.54373,0.172573 0.0209,0.445191 0.0209,0.445192 0.134,-0.332378 0.134,-0.332378 z m 3.94276,-0.748063 0.22082,0.05778 0.14391,-0.375035 0.14391,-0.375034 -0.43783,0.168011 -0.43783,0.168012 -0.46118,0.394876 -0.46118,0.394877 0.15912,0.257469 0.15913,0.257469 0.37516,-0.503102 0.37516,-0.503103 z m 0.3331,-1.361398 0.19439,-0.283882 0.004,-0.198438 0.004,-0.198437 h -0.82614 -0.82615 l 0.31976,0.385285 0.31976,0.385285 -0.16882,0.273143 -0.16881,0.273142 0.47677,-0.176107 0.47676,-0.176108 z m -3.1048,-0.0193 v -0.264583 l -0.59531,-0.08455 -0.59531,-0.08455 v 0.433679 0.433679 l 0.59531,-0.08455 0.59531,-0.08455 z m -2.61185,-4.046051 -0.15803,-0.2557 -0.504,-0.131799 -0.504,-0.131799 -0.36002,0.228102 -0.36001,0.228103 0.43062,0.0041 0.43062,0.0041 0.33869,0.408088 0.33868,0.408089 0.25274,-0.252743 0.25275,-0.252743 z m 3.4056,0.209593 -0.52916,-0.227391 1.3837,-0.0186 1.38371,-0.0186 1.07742,-0.431087 1.07741,-0.431097 -0.87362,-0.526904 -0.87362,-0.526904 -0.0882,-0.232625 -0.0882,-0.232624 -0.44098,-9.89e-4 -0.44097,-9.89e-4 -0.8001,-0.487924 -0.80009,-0.487924 -0.98584,-0.325356 -0.98584,-0.325356 v -0.244064 -0.244065 h -0.36645 -0.36644 l -0.43341,-0.661458 -0.4334,-0.661458 h -0.36982 -0.36982 l -1.0214,-1.011243 -1.0214,-1.011243 -0.36482,-1.105424 -0.36482,-1.105424 h -0.42154 -0.42153 l -0.72359,0.766651 -0.7236,0.766651 0.4105,0.157522 0.41049,0.157522 -0.14621,0.23658 -0.14621,0.236579 0.43169,-0.03627 0.4317,-0.03627 0.11667,0.330729 0.11667,0.330729 -0.48507,0.0186 -0.48507,0.0186 0.44959,0.179841 0.44958,0.179841 1.22659,1.169795 1.22658,1.169794 0.17759,-0.287345 0.17759,-0.287345 0.47981,0.350843 0.4798,0.350843 -0.48148,0.308039 -0.48148,0.308039 0.52917,-0.181661 0.52916,-0.181661 0.3684,-0.03675 0.3684,-0.03675 0.13072,0.372891 0.13073,0.37289 -0.39083,-0.149974 -0.39082,-0.149973 -0.36547,0.225871 -0.36546,0.22587 0.47339,0.181657 0.47339,0.181657 0.29971,-0.299715 0.29972,-0.299716 h 0.16919 0.1692 l 0.30705,0.673908 0.30706,0.673908 v 0.596092 0.596092 l -0.31309,0.313091 -0.31309,0.31309 0.17787,0.177877 0.17788,0.177876 0.99511,0.192982 0.99511,0.192981 0.39687,0.01183 0.39688,0.01183 z m -6.12528,-2.240485 0.14905,-0.388402 -0.22916,-0.141623 -0.22915,-0.141623 -0.4275,0.164049 -0.42751,0.164048 0.30374,0.365977 0.30373,0.365976 h 0.20388 0.20388 z m 1.49507,-9.665765 v -0.264583 h -1.20624 -1.20624 l 0.16353,0.264583 0.16352,0.264584 h 1.04272 1.04271 z m 35.58984,-0.316383 0.003,-0.440018 0.15448,-0.154484 0.15448,-0.154484 -0.28874,-0.922524 -0.28875,-0.922523 h -0.19986 -0.19985 v 0.241172 0.241172 l -0.46302,-0.0749 -0.46302,-0.0749 -0.31888,0.253168 -0.31888,0.253167 0.31638,0.506604 0.31638,0.506603 0.39938,0.0041 0.39937,0.0041 -0.39687,0.25648 -0.39688,0.256481 0.33073,0.0041 0.33073,0.0041 v 0.416079 0.416275 l 0.46302,-0.08987 0.46302,-0.08987 z m -36.69742,-1.206936 -0.61221,-0.406183 -0.33073,-0.408735 -0.33073,-0.408735 v -0.214014 -0.214014 h 0.86331 0.8633 l 0.26117,-0.595312 0.26118,-0.595312 0.52917,-0.06766 0.52917,-0.06766 0.33215,0.216447 0.33215,0.216447 0.14863,1.566715 0.14862,1.566715 0.0969,0.09693 0.0969,0.09693 0.28219,-0.174401 0.28219,-0.174401 v -0.772035 -0.772036 l 0.66146,-0.433404 0.66145,-0.433404 v -0.631029 -0.631028 h -0.51355 -0.51355 l -0.14239,-0.230391 -0.14239,-0.23039 -1.33974,-0.128733 -1.33974,-0.128732 -0.52817,-0.566919 -0.52816,-0.566919 h -0.35417 -0.35418 l -0.34325,0.413594 -0.34325,0.413593 -0.2119,-0.378644 -0.2119,-0.378644 -1.48576,-0.03425 -1.48575,-0.03425 -0.24045,-0.148603 -0.24045,-0.148604 v 1.077538 1.077539 l 0.33073,0.591722 0.33073,0.591723 0.15883,0.132291 0.15883,0.132292 0.33252,0.630847 0.33252,0.630847 1.02258,-1.160014 1.02259,-1.160013 -0.1621,0.926041 -0.1621,0.926042 -0.24253,0.30998 -0.24253,0.30998 0.41959,0.490043 0.41958,0.490043 1.06769,-0.101821 1.0677,-0.10182 z m 34.5906,-3.479019 0.25136,-0.239839 1.85534,-0.28197 1.85534,-0.281969 1.36986,0.361363 1.36986,0.361362 0.17053,-0.170283 0.17053,-0.170284 4.40948,-0.04443 4.40947,-0.04443 0.8599,-0.08787 0.8599,-0.08787 v -1.622858 -1.622859 l -1.0591,-0.956829 -1.05909,-0.956829 -0.99143,-0.0313 -0.99143,-0.0313 -0.79375,-0.174395 -0.79375,-0.174395 0.4658,-0.183938 0.4658,-0.183938 0.15361,0.01038 0.15361,0.01038 0.36436,-0.480639 0.36437,-0.48064 0.008,-0.84428 0.008,-0.844281 0.24156,-0.149293 0.24156,-0.149293 0.17507,-1.03622 0.17507,-1.03622 0.35125,-0.134789 0.35126,-0.134788 0.15816,0.158159 0.15815,0.158158 v 0.517467 0.517466 l 0.37843,-0.314064 0.37842,-0.314063 0.31148,0.581995 0.31147,0.581995 0.23209,-0.366474 0.23209,-0.366474 0.004,-6.548438 0.004,-6.548437 H 113.6118 63.605548 v 2.786429 2.786429 l 0.330729,0.108204 0.330729,0.108204 1.190625,0.139959 1.190625,0.139959 2.283387,0.175609 2.283386,0.175609 0.866118,-0.432076 0.866117,-0.432076 h 0.564864 0.564865 l 1.037929,0.529166 1.03793,0.529167 h 1.101416 1.101416 l 1.157744,0.42721 1.157744,0.427209 6.217708,0.126865 6.217709,0.126864 0.624017,-0.487928 0.624018,-0.487928 0.896254,-0.754063 0.896254,-0.754062 0.860978,0.0037 0.860979,0.0037 0.755289,0.291355 0.755289,0.291354 -0.157419,0.627207 -0.157419,0.627207 0.328171,0.252525 0.328172,0.252525 1.455208,0.06523 1.45521,0.06523 0.28893,0.239395 0.28892,0.239395 0.15144,-0.151433 0.15143,-0.151433 0.58023,0.310532 0.58024,0.310531 0.28909,-0.289095 0.28909,-0.289094 h 0.35301 0.35301 l -0.11958,0.727604 -0.11959,0.727604 -0.0218,0.180608 -0.0218,0.180608 -0.52379,0.166245 -0.52379,0.166245 0.0535,0.182314 0.0535,0.182313 -0.42672,0.661459 -0.42672,0.661458 0.0756,2.248958 0.0756,2.248958 0.0277,0.198438 0.0277,0.198437 h 0.4983 0.49831 l 0.14534,0.555788 0.14534,0.555788 0.2824,-0.174528 0.28239,-0.174527 0.0328,0.610927 0.0328,0.610927 -0.0167,1.455209 -0.0167,1.455208 0.12453,-0.405848 0.12452,-0.405847 1.38068,-0.09835 1.38067,-0.09835 0.83785,-0.02497 0.83784,-0.02497 -0.034,-0.132292 -0.0341,-0.132292 0.38433,-0.595312 0.38434,-0.595313 h 0.30492 0.30492 l 0.1523,-0.396875 0.15229,-0.396875 h 0.51396 0.51395 l 0.66789,-0.79375 0.6679,-0.79375 h 0.29728 0.29728 l -0.15377,-0.24881 -0.15378,-0.248811 0.59362,-0.55304 0.59362,-0.55304 -0.3097,-0.495915 -0.30971,-0.495914 0.81209,-0.849775 0.81209,-0.849775 -0.32463,-0.200637 -0.32464,-0.200637 0.28318,-0.175015 0.28318,-0.175015 0.53882,0.538817 0.53882,0.538818 0.008,-0.463021 0.008,-0.463021 0.38846,0.51359 0.38846,0.513591 0.0307,0.544743 0.0307,0.544743 0.12162,-0.466261 0.12163,-0.46626 0.24456,0.151146 0.24456,0.151146 v -0.295881 -0.295813 l 0.2646,0.163521 0.26458,0.163522 -0.008,-0.214053 -0.008,-0.214052 -0.38846,-0.513591 -0.38846,-0.51359 v 0.315153 0.315153 h -0.24814 -0.24814 l 0.0373,-0.495871 0.0374,-0.495871 0.82404,0.424256 0.82405,0.424257 0.31228,1.314661 0.31229,1.31466 0.19894,0.19344 0.19893,0.193439 0.75791,0.187305 0.75792,0.187305 -0.11765,-1.352144 -0.11764,-1.352144 0.28577,-0.100699 0.28577,-0.1007 -0.51864,-0.583975 -0.51865,-0.583974 0.36236,-0.223952 0.36236,-0.223951 0.38143,0.146367 0.38142,0.146366 0.25522,-0.369283 0.25521,-0.369284 -0.15861,0.567433 -0.1586,0.567433 0.37697,0.376969 0.37697,0.37697 -0.20542,0.378514 -0.20541,0.378515 0.22578,0.595312 0.22577,0.595313 0.33925,-4.84e-4 0.33926,-4.83e-4 v 1.521837 1.521838 l 0.46302,-0.07775 0.46302,-0.07774 v 0.453786 0.453786 l -0.43788,0.483854 -0.43788,0.483854 h 0.45349 0.4535 l -0.14751,0.238681 -0.14752,0.238682 0.9918,0.585953 0.99179,0.585954 1.45521,0.115438 1.45521,0.115438 1.98437,0.14063 1.98438,0.140629 0.45319,0.406619 0.45319,0.406619 2.32494,-0.193011 2.32493,-0.19301 0.41825,-0.07987 0.41825,-0.07987 0.82984,0.401908 0.82985,0.401907 0.15659,0.493371 0.15659,0.493372 0.71198,0.375757 0.71198,0.375757 0.41011,0.02807 0.4101,0.02807 z m 4.56054,-3.889575 -0.13437,-0.236211 0.12435,-0.992188 0.12436,-0.992187 h 0.48503 0.48502 l -0.098,0.508822 -0.098,0.508821 -0.37702,0.719577 -0.37702,0.719577 z m 4.10832,-1.821728 -0.56379,-0.394891 0.1389,-0.53115 0.1389,-0.531151 h 0.27782 0.27782 l -0.17697,-0.176966 -0.17696,-0.176966 0.43281,-0.478253 0.43281,-0.478253 0.22923,0.141668 0.22922,0.141667 v 0.416622 0.416622 l 0.70388,0.604822 0.70387,0.604823 -1.00077,0.418149 -1.00077,0.418149 h -0.0411 -0.0411 z M 115.1993,37.966686 v -0.396875 h 0.52916 0.52917 v 0.396875 0.396875 h -0.52917 -0.52916 z m -3.175,-0.800606 v -0.689751 l 0.7276,0.08372 0.72761,0.08372 -0.1323,0.187048 -0.13229,0.187048 0.48576,0.355195 0.48576,0.355195 -1.08107,0.06379 -1.08107,0.06379 z m 3.11029,-0.786894 0.11786,-0.79375 0.32634,-0.343472 0.32635,-0.343472 -0.11837,0.806493 -0.11837,0.806492 h -0.21515 -0.21515 l -0.11069,0.330729 -0.11069,0.33073 z m 0.85846,9.921874 v -0.264583 l -0.59532,0.0041 -0.59531,0.0041 -0.39687,0.25648 -0.39688,0.256481 0.99219,0.0041 0.99219,0.0041 z"
       id="path1" /></g></svg>
