<?xml version="1.0" encoding="UTF-8" standalone="no"?>
<!-- Created with Inkscape (http://www.inkscape.org/) -->

<svg
   width="101.60001mm"
   height="84.666672mm"
   viewBox="0 0 101.60001 84.666672"
   version="1.1"
   id="svg1"
   xml:space="preserve"
   xmlns:inkscape="http://www.inkscape.org/namespaces/inkscape"
   xmlns:sodipodi="http://sodipodi.sourceforge.net/DTD/sodipodi-0.dtd"
   xmlns="http://www.w3.org/2000/svg"
   xmlns:svg="http://www.w3.org/2000/svg"><sodipodi:namedview
     id="namedview1"
     pagecolor="#ffffff"
     bordercolor="#000000"
     borderopacity="0.25"
     inkscape:showpageshadow="2"
     inkscape:pageopacity="0.0"
     inkscape:pagecheckerboard="0"
     inkscape:deskcolor="#d1d1d1"
     inkscape:document-units="mm" /><defs
     id="defs1" /><g
     inkscape:label="Layer 1"
     inkscape:groupmode="layer"
     id="layer1"
     transform="translate(-69.422548,-47.876948)"><path
       style="fill:#ffffff;fill-opacity:1"
       d="M 69.422548,90.210278 V 47.876945 h 50.800002 50.8 v 42.333333 42.333332 h -50.8 -50.800002 z m 100.541662,0 V 48.935279 H 120.22255 70.480881 V 68.11757 87.299861 h 0.364479 0.364478 l 0.329377,0.396875 0.329377,0.396875 h 1.158228 1.158228 v -0.281977 -0.281978 l -0.256063,-0.478458 -0.256063,-0.478458 0.161738,-1.365624 0.161738,-1.365624 0.292762,0.09563 0.292763,0.09563 0.247599,0.982317 0.247598,0.982318 0.727352,-0.159753 0.727353,-0.159753 0.546403,0.546403 0.546403,0.546403 v 0.661459 0.661458 h 1.158313 1.158313 l 0.976668,0.408078 0.976668,0.408078 -0.105363,0.319526 -0.105364,0.319526 -1.478467,0.07869 -1.478468,0.07869 -0.347683,0.418932 -0.347683,0.418932 0.987158,0.85333 0.987158,0.853331 v 0.402584 0.402584 l -0.396875,0.329377 -0.396875,0.329377 v 0.255079 0.255079 l 0.841973,1.172427 0.841973,1.172426 -0.268563,0.268563 -0.268563,0.268563 -0.377176,-0.144735 -0.377175,-0.144736 -0.759434,-1.608275 -0.759435,-1.608274 -1.090446,0.165913 -1.090445,0.165913 -1.234656,0.05707 -1.234655,0.05707 -0.20459,0.204523 -0.20459,0.204523 0.579349,0.405792 0.57935,0.405793 v 0.778747 0.778747 h 0.246181 0.246182 l 0.08455,-0.574589 0.08455,-0.574588 0.308277,-0.101434 0.308277,-0.101435 0.168746,0.531671 0.168746,0.53167 -0.442175,0.674844 -0.442174,0.674843 0.337584,0.406764 0.337584,0.406764 -0.240141,0.223632 -0.24014,0.223632 -0.595313,0.179859 -0.595312,0.179859 v -0.361788 -0.361788 l 0.284644,-0.284644 0.284645,-0.284645 -0.68152,0.130281 -0.681519,0.13028 v 1.072802 1.072803 l -0.345525,0.41771 -0.345525,0.41771 0.147087,1.98437 0.147088,1.98438 h 0.396875 0.396875 l -0.08766,-0.52917 -0.08766,-0.52916 -0.139412,-0.85722 -0.139413,-0.85721 0.452212,-0.17353 0.452212,-0.17353 0.241321,0.36929 0.241321,0.36928 -0.111694,0.46582 -0.111694,0.46582 0.298797,0.7916 0.298798,0.7916 -0.785857,0.74287 -0.785857,0.74288 -0.280951,0.49348 -0.280951,0.49348 -0.314361,-0.19429 -0.314362,-0.19428 v -0.91043 -0.91043 h -0.79375 -0.79375 v 3.66938 3.66937 l 2.050521,0.17636 2.050521,0.17637 2.309338,0.1551 2.309338,0.1551 0.302746,0.36479 0.302747,0.36478 -0.348418,0.41982 -0.348417,0.41982 -0.94075,-0.18358 -0.940751,-0.18359 -3.373437,-0.11865 -3.373438,-0.11865 v 3.35068 3.35069 l 0.663742,-0.16659 0.663741,-0.16659 0.784166,0.40551 0.784165,0.4055 0.970265,0.65844 0.970265,0.65844 h 0.575532 0.575533 l 0.451258,-0.94629 0.451257,-0.9463 0.325351,0.10833 0.32535,0.10832 0.09256,0.50724 0.09256,0.50724 0.488958,0.53154 0.488959,0.53154 -0.265962,1.18825 -0.265963,1.18826 -0.200575,0.20252 -0.200576,0.20252 -0.845365,-0.42173 -0.845365,-0.42172 0.150688,-0.24382 0.150687,-0.24381 h 0.434177 0.434177 l -0.273257,-0.27326 -0.273257,-0.27326 -0.441118,0.16928 -0.441118,0.16927 v 0.33617 0.33617 l -0.391316,0.32476 -0.391315,0.32477 0.257799,0.4817 0.257799,0.4817 1.049003,0.46282 1.049003,0.46282 0.143705,0.37449 0.143705,0.37449 -0.148765,0.2407 -0.148765,0.24071 h -0.25488 -0.25488 l -1.171801,-1.08013 -1.171801,-1.08013 -0.872808,0.31059 -0.872808,0.31059 -1.280673,-0.55422 -1.280672,-0.55422 -0.240682,0.14875 -0.240682,0.14875 v 2.23334 2.23335 h 49.741665 49.74166 z m -70.776037,39.422912 -0.163522,-0.26458 0.163522,-0.26458 0.163521,-0.26459 0.182823,0.004 0.182822,0.004 0.396871,0.26053 0.39688,0.26053 -0.39688,0.26053 -0.396871,0.26053 -0.182822,0.004 -0.182823,0.004 z m -5.045366,-0.55874 -0.181804,-0.29417 0.364627,-0.23095 0.364626,-0.23095 h 0.79375 0.79375 l 0.396875,0.26053 0.396875,0.26053 -0.396875,0.26053 -0.396875,0.26054 -0.976573,0.004 -0.976572,0.004 z m 22.893723,-0.11599 -0.3404,-0.41016 0.38688,-0.38688 0.38687,-0.38687 1.41245,0.26786 1.41244,0.26787 0.95608,0.004 0.95607,0.004 0.39688,0.26053 0.39687,0.26053 -0.39687,0.26053 -0.39688,0.26054 -2.415,0.004 -2.415,0.004 z m -27.909042,-0.39415 -0.185499,-0.30014 0.256666,-0.25667 0.256667,-0.25666 1.426842,0.0813 1.426842,0.0813 v 0.39688 0.39687 l -1.498009,0.0786 -1.49801,0.0787 z m -5.372773,-0.73866 -1.145958,-0.44142 -0.264004,-0.47687 -0.264005,-0.47687 0.31788,-0.38302 0.31788,-0.38303 h 0.443853 0.443854 l 0.294446,-0.29444 0.294446,-0.29445 0.287637,0.17777 0.287637,0.17777 v 0.34025 0.34026 l 0.54551,0.49367 0.545509,0.49368 1.240428,0.14264 1.240428,0.14264 v 0.39688 0.39687 l -1.719791,0.0446 -1.719792,0.0445 z m 52.475125,-0.30912 -0.16352,-0.26459 0.16352,-0.26458 0.16352,-0.26458 0.18282,0.004 0.18282,0.004 0.39688,0.26053 0.39687,0.26053 -0.39687,0.26053 -0.39688,0.26054 -0.18282,0.004 -0.18282,0.004 z m 3.63802,-0.17523 -0.33073,-0.13345 v -0.35922 -0.35921 l 0.27617,-0.17068 0.27618,-0.17069 0.36955,0.30671 0.36956,0.30671 -0.14487,0.37753 -0.14487,0.37753 -0.17013,-0.0209 -0.17013,-0.0209 z m -50.217916,-0.33508 -0.251355,-0.24572 -0.926041,-0.085 -0.926042,-0.085 v -0.39687 -0.39688 l 0.759836,-0.0868 0.759837,-0.0868 0.285268,0.28527 0.285267,0.28527 0.80698,0.004 0.806979,0.004 0.364626,0.23095 0.364626,0.23095 -0.181803,0.29417 -0.181804,0.29416 h -0.85751 -0.85751 z m 11.522606,-0.54575 -0.39688,-0.26686 0.39688,-0.26686 0.39687,-0.26685 1.5875,0.0684 1.5875,0.0684 v 0.39688 0.39687 l -1.5875,0.0684 -1.5875,0.0684 z m 44.52666,-0.53144 -0.13838,-0.52917 h -0.6306 -0.6306 v 0.23628 0.23627 l -0.43514,0.16698 -0.43514,0.16698 -0.44559,-0.40326 -0.44559,-0.40325 h -1.54583 -1.54583 l -0.48842,0.44201 -0.48841,0.44201 -0.73752,-0.7066 -0.73753,-0.70659 h -1.79976 -1.79977 l 0.13992,0.36464 0.13992,0.36463 -0.29682,0.29683 -0.29682,0.29682 h -0.88143 -0.88143 l -0.15359,-0.40024 -0.15359,-0.40025 0.29189,-0.3517 0.29189,-0.35171 -0.17409,-0.17409 -0.1741,-0.17409 h -3.51277 -3.51278 l -0.41188,-0.58804 -0.41187,-0.58804 v -0.47029 -0.4703 l -1.12448,-0.004 -1.12448,-0.004 -0.96145,-0.33498 -0.96145,-0.33499 -0.36147,-0.2981 -0.36146,-0.29811 -1.7198,-0.13798 -1.71979,-0.13799 -1.45521,-0.2729 -1.4552,-0.2729 -1.45521,-0.28857 -1.45521,-0.28857 -1.5875,-0.2337 -1.5875,-0.23369 -1.32292,-0.29759 -1.32291,-0.29759 -1.45521,-0.2007 -1.45521,-0.2007 -0.957609,-0.41708 -0.957609,-0.41708 -0.431454,-0.61598 -0.431454,-0.61599 v -1.62852 -1.62853 l 0.352841,-0.29283 0.352842,-0.29283 -0.118192,-1.42524 -0.118193,-1.42524 0.308083,-0.19041 0.308082,-0.1904 0.63526,0.68545 0.635263,0.68546 h 0.29504 0.29505 l -0.16507,-0.52008 -0.16506,-0.52008 0.27426,-0.99331 0.27427,-0.99331 -0.24811,-0.2481 -0.24811,-0.24811 -0.404714,0.33589 -0.404719,0.33588 -0.400245,-0.15358 -0.400244,-0.15359 v -2.96608 -2.96608 l -0.311437,-0.86127 -0.311436,-0.861259 0.360263,-0.434091 0.360264,-0.434091 1.737108,0.137197 1.73711,0.137197 1.85209,0.303611 1.85208,0.303612 5.42396,0.221178 5.42396,0.221178 1.32313,0.172648 1.32312,0.17265 0.54878,-0.616399 0.54877,-0.616402 0.34668,-1.190625 0.34667,-1.190625 0.28357,-0.926042 0.28357,-0.926041 0.31717,-0.396875 0.31716,-0.396875 0.1463,-1.455209 0.1463,-1.455208 0.26192,-1.719791 0.26192,-1.719792 0.30574,-1.455208 0.30574,-1.455209 0.006,-1.124479 0.006,-1.124479 h 0.24906 0.24907 l 0.89149,-0.945251 0.89148,-0.945251 2.46419,0.147178 2.46418,0.147177 0.79375,0.0062 0.79375,0.0062 1.80662,-0.157645 1.80662,-0.157645 0.59397,0.149078 0.59397,0.149077 1.01192,0.686705 1.01192,0.686706 0.22146,-0.34927 0.22146,-0.349271 0.004,-0.595312 0.004,-0.595312 h 0.14543 0.14543 l 0.75725,0.391588 0.75725,0.391589 0.55253,0.702426 0.55252,0.702426 v 0.461088 0.461089 l 0.36901,0.306251 0.36901,0.306252 0.1921,0.982916 0.19209,0.982916 0.0113,2.38125 0.0114,2.38125 -0.20819,0.736875 -0.20819,0.736876 0.48523,0.536177 0.48523,0.536177 0.4848,-0.126777 0.48479,-0.126776 0.31686,0.50737 0.31686,0.507369 h 0.16294 0.16295 l 0.20273,-1.918229 0.20274,-1.918229 -0.0154,-0.396875 -0.0154,-0.396875 -0.18231,-0.73873 -0.18232,-0.73873 0.95902,-0.959013 0.95901,-0.959013 v -0.434499 -0.4345 l 0.39688,-0.513591 0.39687,-0.51359 0.3599,0.463021 0.3599,0.46302 h 0.33024 0.33024 l -0.16601,-0.661458 -0.16602,-0.661458 0.20348,0.0084 0.20348,0.0084 0.5058,0.382764 0.5058,0.382764 0.58981,-0.148034 0.58982,-0.148033 0.20325,0.328871 0.20326,0.328872 -0.60058,0.486317 -0.60058,0.486316 h -0.49054 -0.49055 l -0.2832,0.529167 -0.2832,0.529167 0.29847,0.557694 0.29847,0.557693 -0.32402,1.757411 -0.32402,1.75741 -0.26212,0.330729 -0.26212,0.330729 h -0.64468 -0.64468 l 0.16016,0.259141 0.16016,0.259141 -0.32126,1.072268 -0.32126,1.072268 0.28255,0.282549 0.28255,0.28255 h 0.9525 0.9525 v 0.470311 0.470312 l 0.41512,0.344521 0.41513,0.344522 -0.0844,-1.267844 -0.0844,-1.267843 0.72679,-0.550546 0.7268,-0.550545 0.8526,0.872061 0.8526,0.87206 -0.4117,0.303475 -0.4117,0.303474 -0.32815,0.61595 -0.32816,0.61595 0.42454,0.839258 0.42455,0.839259 0.29937,0.427058 0.29938,0.427057 -0.1661,0.432838 -0.16609,0.43284 h -0.38447 -0.38448 l -1.80664,-1.210598 -1.80664,-1.210596 -0.39688,-0.329891 -0.39687,-0.329891 -1.10096,-0.346183 -1.10096,-0.346182 -0.68163,0.171079 -0.68163,0.171079 -0.45313,0.691556 -0.45313,0.691557 0.75387,0.648446 0.75386,0.648445 0.56708,0.838609 0.56708,0.83861 0.94605,2.11667 0.94606,2.11666 0.29945,0.94483 0.29944,0.94483 -0.007,1.96559 -0.007,1.96559 -0.85245,1.58265 -0.85246,1.58266 -1.05833,0.5958 -1.05834,0.59581 -0.59531,0.004 -0.59531,0.004 v 0.2802 0.2802 l 0.27617,-0.17069 0.27618,-0.17068 0.38528,0.31976 0.38529,0.31975 v 0.47757 0.47757 l -0.70963,0.55819 -0.70963,0.55819 -0.41485,-0.17744 -0.41485,-0.17744 -0.46302,0.0189 -0.46302,0.0189 v -0.24814 -0.24814 h 0.39687 0.39688 v -0.38126 -0.38126 l -0.2463,-0.15223 -0.24631,-0.15222 -0.16618,0.2689 -0.16619,0.2689 h -0.86942 -0.86942 l -0.46997,-0.51931 -0.46998,-0.51931 0.15608,-0.40673 0.15608,-0.40673 h 0.37278 0.37278 l 0.32938,0.39687 0.32938,0.39688 h 0.60075 0.60075 l 0.17493,-0.45584 0.17492,-0.45584 -0.67988,-0.49526 -0.67988,-0.49526 -0.28316,-0.52907 -0.28315,-0.52908 0.59796,-0.63649 0.59795,-0.6365 h 0.36859 0.36858 l -0.14408,-0.46302 -0.14408,-0.46302 0.22896,-0.36462 0.22896,-0.36463 0.29417,0.1818 0.29416,0.18181 v 0.49793 0.49794 l 0.26459,0.16352 0.26458,0.16352 v 0.48116 0.48115 l 0.35071,0.29107 0.35071,0.29106 0.86847,-0.89604 0.86847,-0.89604 -0.13719,-1.14856 -0.1372,-1.14857 -0.24469,-1.05833 -0.24468,-1.05833 -0.50657,-1.07481 -0.50657,-1.0748 -1.40472,-1.29116 -1.40472,-1.29115 -0.61356,0.76947 -0.61356,0.76948 -0.71254,-0.32466 -0.71254,-0.32466 0.0873,-0.46011 0.0873,-0.4601 0.72534,-0.0837 0.72534,-0.0837 v -0.37931 -0.3793 h -0.40297 -0.40279 l -1.11856,-1.02077 -1.11857,-1.020777 -0.59575,-0.311683 -0.59575,-0.311684 -0.39853,-0.850353 -0.39853,-0.850353 -0.64154,-0.872579 -0.64155,-0.872578 -0.11389,-0.318047 -0.11389,-0.318046 -0.2113,0.197123 -0.2113,0.197123 0.35681,1.08114 0.35681,1.081139 0.87262,0.719287 0.87262,0.719287 0.16447,0.822324 0.16446,0.822327 -0.55471,0.29687 -0.55471,0.29687 -1.15672,-1.06622 -1.15672,-1.066228 h -0.32944 -0.32945 l 0.15817,0.41218 0.15817,0.412178 -0.52674,1.03249 -0.52674,1.03249 v 0.52187 0.52188 l 0.52945,0.16804 0.52945,0.16804 0.27654,0.51672 0.27653,0.51671 -0.16014,0.25912 -0.16014,0.25911 h -0.33514 -0.33514 l -0.6238,-0.664 -0.6238,-0.66401 -0.72685,1.25932 -0.72685,1.25932 -0.41176,0.88383 -0.41176,0.88383 0.26108,0.48784 0.26108,0.48784 v 1.76159 1.7616 l 0.52917,0.67273 0.52917,0.67273 v 0.69919 0.6992 l -0.43559,0.65418 -0.43558,0.65419 -0.40874,0.33073 -0.40873,0.33073 h -1.40464 -1.40464 v 0.25527 0.25528 l 0.52917,0.2832 0.52916,0.2832 0.4497,0.68632 0.44969,0.68631 -0.58198,0.47127 -0.58199,0.47126 v 0.28832 0.28832 h 1.8012 1.8012 v -1.32496 -1.32495 l 0.29768,-0.29768 0.29768,-0.29768 0.41466,0.15912 0.41466,0.15912 0.009,0.60362 0.009,0.60362 0.89807,0.42003 0.89807,0.42004 0.82459,-0.12102 0.82458,-0.12103 -0.10538,-0.29901 -0.10537,-0.29901 -0.69985,0.0762 -0.69986,0.0762 v -0.12509 -0.12508 l 0.25804,-0.67868 0.25803,-0.67868 h 0.43429 0.43428 l -0.18789,-0.59532 -0.18788,-0.59531 -0.1182,-0.66146 -0.11819,-0.66145 0.53591,-0.8599 0.53592,-0.8599 h 0.38236 0.38236 l 0.0845,-0.59531 0.0846,-0.59531 h 0.39688 0.39687 l 0.0893,0.78569 0.0893,0.78569 -0.31531,1.06639 -0.31532,1.0664 -0.23657,0.60675 -0.23657,0.60675 0.56507,1.11304 0.56508,1.11304 0.51563,0.66146 0.51562,0.66145 3.4829,0.18683 3.48291,0.18682 2.51354,0.24753 2.51354,0.24753 1.14251,0.26102 1.1425,0.26102 0.72406,0.69369 0.72405,0.69369 h 0.97771 0.97771 v -0.39688 -0.39687 h 0.52917 0.52916 v 0.37905 0.37904 l 0.54374,0.17257 0.54373,0.17258 -0.10244,0.30732 -0.10244,0.30732 -1.03661,0.21286 -1.0366,0.21287 -0.52917,0.038 -0.52916,0.038 -0.34574,0.47771 -0.34573,0.4777 h -0.87864 -0.87864 l -0.32938,-0.39688 -0.32938,-0.39687 h -0.72895 -0.72896 l -0.35541,0.42825 -0.35541,0.42824 -1.79961,-0.12876 -1.79961,-0.12876 -0.14195,0.22968 -0.14195,0.22968 h -0.40603 -0.40603 z m -24.5177,-15.27969 0.12197,-4.82865 h -0.27588 -0.27589 v 0.91043 0.91043 l -0.30472,0.18833 -0.30472,0.18832 -0.37523,-0.50344 -0.37523,-0.50344 0.16017,-1.0313 0.16016,-1.03129 -0.58467,-0.62235 -0.58466,-0.62235 h -1.4374 -1.43739 l 0.19613,0.46302 0.19612,0.46302 0.26234,1.19062 0.26234,1.19063 -0.0209,1.45521 -0.0209,1.45521 -0.1652,1.59408 -0.16519,1.59409 0.50211,0.4544 0.50211,0.45441 0.69366,-0.72558 0.69367,-0.72557 0.0815,-1.45521 0.0815,-1.45521 h 0.52917 0.52916 l 0.0175,1.98438 0.0175,1.98437 -0.22527,0.46302 -0.22526,0.46302 h -0.51986 -0.51986 v 0.52917 0.52917 h -0.39687 -0.39688 v -0.53838 -0.53837 l -0.83302,0.94876 -0.83303,0.94877 -0.74133,0.38336 -0.74134,0.38336 h -1.28331 -1.2833 l -0.65558,-0.30939 -0.65558,-0.30938 -0.73985,-0.94739 -0.73986,-0.94738 0.16516,-1.45521 0.16515,-1.45521 0.0121,-1.32292 0.0121,-1.32291 -0.30014,-1.5875 -0.30014,-1.5875 -0.14994,-1.05834 -0.14994,-1.05833 -0.6996,-0.5858 -0.6996,-0.5858 -0.19844,-0.01 -0.19844,-0.01 v 2.3888 2.38879 l -0.79375,1.57241 -0.79375,1.57241 v 1.29354 1.29354 l 0.68152,1.00427 0.68151,1.00427 -0.12097,0.46258 -0.12096,0.46258 0.82851,0.14985 0.82852,0.14985 1.05833,0.15642 1.05833,0.15642 0.66146,0.30227 0.66146,0.30227 0.52916,0.45761 0.52917,0.45761 2.17973,0.12949 2.17972,0.12949 0.16524,-0.26737 0.16524,-0.26736 0.48958,0.12802 0.48958,0.12803 0.30671,-0.36956 0.3067,-0.36956 h 0.48998 0.48997 l 0.46835,0.8599 0.46834,0.85989 0.22153,-1.85208 0.22153,-1.85208 z m -19.0607,4.36562 -0.15417,-0.33072 -0.16332,-0.46303 -0.16332,-0.46302 h -0.37257 -0.37256 l -0.2764,-0.59531 -0.27641,-0.59531 -0.480498,-0.86633 -0.480503,-0.86633 -0.179387,0.71474 -0.179388,0.71473 1.207426,1.03208 1.20742,1.03207 v 0.50858 0.50858 h 0.41892 0.41893 z m -1.47743,-12.89843 v -0.79375 h -0.26458 -0.26459 v 0.61736 0.61736 l 0.17639,0.17639 0.17639,0.17639 h 0.0882 0.0882 z m 30.94944,-1.04397 0.65465,-0.50303 -0.45621,-0.50411 -0.45621,-0.504101 v -0.591873 -0.591874 l -0.2739,-0.511772 -0.27389,-0.511773 h -1.01334 -1.01334 l -0.6815,-0.536068 -0.6815,-0.536068 -0.14728,-0.46401 -0.14727,-0.464009 -0.77965,-0.294288 -0.77966,-0.294288 -0.17721,0.806833 -0.17721,0.806833 0.89006,1.673332 0.89006,1.673333 0.30078,0.117321 0.30079,0.117321 -0.13321,-0.509371 -0.1332,-0.509371 h 0.25681 0.2568 l 0.7001,0.648825 0.70009,0.648828 v 0.35659 0.35659 l 0.3175,0.3175 0.3175,0.3175 0.5424,-0.006 0.54239,-0.006 z m 13.24669,-4.826623 0.78304,-0.578924 -10e-4,-0.14868 -9.9e-4,-0.148681 -1.17936,-0.484982 -1.17937,-0.484982 -0.27485,0.169868 -0.27485,0.169868 9.9e-4,0.182822 9.9e-4,0.182823 0.52429,0.859896 0.52429,0.859896 h 0.14689 0.14689 z m -14.30752,-5.753682 0.27389,-0.511773 v -0.149685 -0.149686 h -0.49677 -0.49677 l -0.34611,0.41704 -0.34611,0.417041 0.37986,0.240366 0.37986,0.240367 0.18913,0.0041 0.18913,0.0041 z m -50.430428,35.304475 -0.152296,-0.39687 0.165196,-0.43049 0.165195,-0.43049 -0.441893,-0.32312 -0.441893,-0.32312 0.188328,-0.30473 0.188329,-0.30472 h 0.860925 0.860926 l 0.757816,0.79099 0.757817,0.79099 -0.156488,0.15649 -0.156488,0.15649 -0.551827,-0.29533 -0.551828,-0.29533 v 0.48556 0.48556 l -0.3175,0.3175 -0.3175,0.3175 h -0.352262 -0.352262 z m 9.584811,-6.15156 -0.197286,-0.19843 -3.220249,-0.17337 -3.220248,-0.17337 -1.385235,-0.24173 -1.385234,-0.24173 -0.194603,-0.1946 -0.194604,-0.1946 0.389213,-0.25457 0.389213,-0.25457 3.042708,0.12766 3.042708,0.12765 3.042708,0.2417 3.042709,0.2417 1.134967,0.26286 1.134968,0.26287 0.180287,0.18029 0.180286,0.18029 -0.389212,0.24614 -0.389213,0.24615 -2.403299,0.004 -2.403298,0.004 z m 3.524581,-3.43681 -0.262087,-0.68934 0.134786,-0.35125 0.134787,-0.35124 h 1.463512 1.463512 l 0.557515,0.55751 0.557515,0.55752 -0.359077,0.33623 -0.359078,0.33623 -1.534649,0.14684 -1.534649,0.14684 z m -6.229929,0.0641 -0.166241,-0.43322 0.271611,-0.27161 0.271612,-0.27161 0.491124,0.0946 0.491125,0.0946 v 0.52555 0.52554 l -0.596495,0.0847 -0.596496,0.0847 z m 69.055615,-0.002 -0.16561,-0.43156 0.26749,-0.26748 0.26748,-0.26749 0.75983,0.0868 0.75984,0.0868 v 0.52916 0.52917 l -0.86171,0.083 -0.86172,0.0831 z m -76.020221,-2.89683 -0.31884,-0.38418 0.171981,-0.54187 0.171981,-0.54186 h 0.216324 0.216324 l 0.455212,0.69474 0.455212,0.69474 -0.358637,0.22725 -0.358636,0.22725 -0.166041,0.004 -0.166041,0.004 z m 2.237758,-1.2044 -0.181447,-0.29359 0.166959,-0.66521 0.166959,-0.66522 0.320971,0.10699 0.320971,0.10699 v 0.74966 0.74965 l -0.306483,0.10216 -0.306483,0.10216 z m 6.138866,-0.61823 -0.13612,-0.35472 0.240104,-0.37289 0.240104,-0.37288 0.240104,0.37288 0.240104,0.37289 -0.13612,0.35472 -0.136119,0.35472 h -0.207969 -0.207968 z m 48.939227,0.17833 -0.17639,-0.17639 v -0.84093 -0.84094 l -0.52917,-0.47889 -0.52916,-0.47889 -1e-5,-0.28972 -1e-5,-0.28972 -0.89033,-0.7104 -0.89032,-0.71039 -0.27724,0.27723 -0.27724,0.27724 -0.28763,-0.17777 -0.28764,-0.17777 v -0.34025 -0.34026 l 0.49216,-0.4454 0.49217,-0.4454 0.63231,0.24174 0.63232,0.24174 0.50403,0.55953 0.50402,0.55953 h 0.56754 0.56753 l 0.3175,0.3175 0.3175,0.3175 v 0.59957 0.59956 l 0.45572,0.95564 0.45571,0.95565 -0.65415,0.50266 -0.65415,0.50265 -0.15434,0.006 -0.15434,0.006 z m -59.453933,-1.69602 -0.311166,-0.58142 0.145342,-0.89563 0.145341,-0.89563 -0.447341,-0.7862 -0.44734,-0.7862 -0.463021,-0.002 -0.463021,-0.002 v -0.21847 -0.21846 l 0.612366,-0.57529 0.612365,-0.57528 h 0.436659 0.436659 l 0.283201,0.52916 0.283202,0.52917 h 0.387566 0.387566 v 0.26458 0.26459 h -0.366031 -0.366031 l -0.139678,0.7276 -0.139679,0.72761 0.217766,0.26458 0.217766,0.26458 -4.7e-4,0.66146 -4.7e-4,0.66146 0.08998,0.51903 0.08998,0.51903 -0.445169,0.0922 -0.445169,0.0923 z m 81.538613,-0.81984 -1.37583,-1.11919 -0.15745,-0.62733 -0.15745,-0.62733 0.29249,-0.64195 0.29249,-0.64195 h 0.49383 0.49384 l 0.40658,0.46302 0.40659,0.46302 0.18426,0.60427 0.18425,0.60426 0.52874,0.49259 0.52874,0.49259 -0.0864,0.73483 -0.0864,0.73482 -0.28624,0.0938 -0.28624,0.0938 z m -86.173635,0.55019 -0.179214,-0.28997 0.426292,-0.42629 0.426292,-0.42629 0.275147,0.27514 0.275147,0.27515 -0.169273,0.44112 -0.169273,0.44112 h -0.352952 -0.352953 z m 7.887045,-1.47596 -0.595312,-0.41527 v -0.261 -0.26099 l 0.677301,0.16999 0.6773,0.16999 0.9102,-0.17075 0.910199,-0.17076 v -0.48472 -0.48471 l 0.537018,-0.37615 0.537017,-0.37614 -0.715445,-1.09275 -0.715445,-1.09275 -0.397814,0.82139 -0.397813,0.8214 0.284845,0.75464 0.284846,0.75464 -0.383342,0.31815 -0.383342,0.31815 -0.422906,-0.42291 -0.422906,-0.42291 0.237748,-1.67103 0.237747,-1.67103 0.579043,-0.0824 0.579042,-0.0824 0.08242,-0.57905 0.08242,-0.57904 h 0.386729 0.38673 l 0.323729,0.66146 0.323728,0.66146 0.301434,0.82997 0.301434,0.82997 0.55409,-0.14489 0.554089,-0.1449 -0.176919,0.46104 -0.176919,0.46105 -0.01101,0.57367 -0.01101,0.57367 -0.909146,1.02947 -0.909146,1.02946 -0.40772,-0.33837 -0.407719,-0.33838 -0.478892,0.43339 -0.478891,0.43339 -0.376042,-0.0139 -0.376041,-0.0139 z m -1.249602,-2.98496 -0.173616,-0.28092 0.171822,-0.54137 0.171822,-0.54136 0.308277,0.10276 0.308277,0.10276 v 0.61736 0.61736 l -0.306483,0.10216 -0.306482,0.10216 z m 14.539721,-0.54917 -0.186824,-0.30229 0.276662,-0.27666 0.276661,-0.27666 0.436662,0.16756 0.436662,0.16756 -0.110073,0.33059 -0.110073,0.33059 -0.416427,0.0808 -0.416427,0.0808 z m 65.675551,-2.31786 -0.97973,-1.00334 v -0.18728 -0.18729 h 0.37464 0.37464 l 0.81598,1.03027 0.81599,1.03026 v 0.16036 0.16036 h -0.21089 -0.21089 z m -64.861851,0.23347 -0.148765,-0.24071 0.161458,-0.42075 0.161457,-0.42075 h 0.220661 0.220661 l 0.148765,0.24071 0.148765,0.2407 -0.161457,0.42076 -0.161458,0.42075 h -0.220661 -0.220661 z m 43.263821,-0.45643 -0.54837,-0.69714 v -0.2289 -0.22891 h 0.24538 0.24538 l 0.54837,0.69714 0.54837,0.69714 v 0.22891 0.2289 h -0.24538 -0.24538 z m -56.71333,-0.0165 -0.121789,-0.2124 -0.176808,-0.98035 -0.176809,-0.98034 0.737371,-0.370932 0.737371,-0.370933 0.859896,-0.163464 0.859896,-0.163465 v 0.216962 0.216962 l -0.483854,0.437882 -0.483855,0.437878 h -0.426215 -0.426216 l -0.08212,0.97174 -0.08212,0.97173 -0.306483,0.10057 -0.306482,0.10056 z m 77.4576,-2.207006 -0.18859,-0.305136 0.43315,-0.433146 0.43315,-0.433147 0.45805,0.288935 0.45806,0.288934 v 0.368039 0.368037 l -0.70262,0.0813 -0.70262,0.0813 z M 91.429085,99.387105 90.853798,98.77474 v -0.445968 -0.445968 h 0.271132 0.271132 l 0.241714,0.635757 0.241714,0.635757 0.280904,0.173608 0.280904,0.173608 v 0.248968 0.248969 h -0.218463 -0.218463 z m -2.839937,0.05781 -0.179213,-0.289973 0.426291,-0.426292 0.426292,-0.426291 0.308176,0.308176 0.308177,0.308176 -0.338683,0.408089 -0.338684,0.408088 h -0.216571 -0.216572 z m 68.675062,-0.238804 -0.52916,-0.529167 V 98.404057 98.13117 l 0.41891,-0.160751 0.4189,-0.16075 0.5439,0.543895 0.54389,0.543896 -0.16075,0.418909 -0.16075,0.418908 h -0.27288 -0.27289 z M 85.047759,98.297895 84.72776,97.91232 l 0.08646,-0.609875 0.08646,-0.609876 h 0.529167 0.529166 l 0.07952,0.684106 0.07952,0.684105 -0.375147,0.311345 -0.375147,0.311344 z m 12.570371,-0.522349 0.15983,-0.636815 -0.299868,-0.560309 -0.299869,-0.56031 -0.144047,-2.837771 -0.144047,-2.837772 -0.06647,-0.79375 -0.06647,-0.79375 -0.207339,-0.477249 -0.207339,-0.477249 0.408211,-0.977959 0.408211,-0.977959 0.146419,-0.463021 0.146419,-0.463021 h 0.266093 0.266093 l 0.411699,0.79614 0.4117,0.796139 -0.272613,0.509383 -0.272614,0.509383 v 3.509894 3.509894 l 0.3175,-0.3175 0.3175,-0.3175 h 0.460635 0.460635 l 0.152278,0.246392 0.152283,0.246391 -0.665834,0.981155 -0.66583,0.981156 v 0.583529 0.583529 l -0.483855,0.437883 -0.483854,0.437882 h -0.182645 -0.182645 z m 62.10967,-1.869849 -1.44,-1.486718 -0.47444,0.150581 -0.47444,0.150582 -0.30976,-0.373236 -0.30975,-0.373236 0.32903,-0.722152 0.32904,-0.722153 -0.65195,-0.497992 -0.65194,-0.497993 -0.31312,-0.258655 -0.31311,-0.258655 -0.0838,0.586588 -0.0838,0.586589 -0.44676,0.08512 -0.44675,0.08512 -0.54543,-0.545434 -0.54544,-0.545434 v -0.678853 -0.678852 l 0.27569,-0.515129 0.27569,-0.515129 0.72407,0.05517 0.72407,0.05517 0.33983,-0.210026 0.33983,-0.210026 0.48067,0.435002 0.48067,0.435003 0.11651,-0.793796 0.1165,-0.793795 -0.52068,-0.07831 -0.52068,-0.07831 -0.29161,-0.468088 -0.2916,-0.468089 0.44209,-0.773656 0.44209,-0.773656 -0.37594,-0.312006 -0.37595,-0.312007 v -0.576145 -0.576145 l -0.27326,-0.273257 -0.27325,-0.273257 0.16927,-0.441118 0.16927,-0.441118 h 0.24458 0.24458 l 0.17732,0.463021 0.17731,0.463021 0.58388,0.861078 0.58388,0.861078 0.46965,1.493152 0.46966,1.493153 -0.40468,0.70511 -0.40468,0.705111 0.54552,-0.01663 0.54553,-0.01663 0.16814,1.006242 0.16813,1.006243 0.56854,0.768981 0.56853,0.768981 v 0.449813 0.449813 l 1.4764,1.54785 1.4764,1.54785 -0.10772,0.328155 -0.10771,0.328155 -0.8721,0.08534 -0.8721,0.08534 z m -4.35612,0.539161 -0.2937,-0.644586 0.15877,-0.413747 0.15877,-0.413748 h 0.26609 0.2661 l 0.41448,0.801521 0.41448,0.80152 -0.15872,0.256813 -0.15872,0.256813 h -0.38693 -0.38693 z m -68.397776,-3.738823 -0.15912,-0.41466 0.299715,-0.299715 0.299716,-0.299716 0.299715,0.299716 0.299715,0.299715 -0.15912,0.41466 -0.159119,0.414659 h -0.281191 -0.281192 z m -7.991877,-6.290671 -0.268793,-0.323875 0.229283,-0.370988 0.229284,-0.370988 0.41704,0.346112 0.41704,0.346113 v 0.203879 0.203879 l -0.37753,0.144872 -0.377531,0.144872 z m 7.285597,-1.874283 -0.144872,-0.377531 0.333034,-0.276393 0.333033,-0.276393 0.577281,0.404343 0.577281,0.404343 v 0.249581 0.24958 h -0.765442 -0.765443 z m -3.328015,-0.25584 -0.306066,-0.368787 0.666353,-1.506742 0.666353,-1.506742 0.33492,0.110044 0.334921,0.110043 0.0721,0.90559 0.0721,0.905589 -0.531229,0.859896 -0.531229,0.859896 h -0.236076 -0.236075 z m 14.528772,-0.663232 v -0.307506 l 0.396875,-0.152295 0.396875,-0.152295 v -0.617536 -0.617536 l 0.266951,-0.164985 0.266951,-0.164985 0.513265,0.162904 0.513265,0.162904 0.173019,0.545136 0.173018,0.545135 -0.376245,0.376246 -0.376246,0.376246 -0.973864,0.158037 -0.973864,0.158036 z m 2.239665,-2.422602 -0.172816,-0.279621 0.145741,-0.580275 0.14574,-0.580275 1.196539,-1.174123 1.19654,-1.174124 0.15015,0.150157 0.15016,0.150156 -0.59356,1.156259 -0.59356,1.156259 -0.52685,0.727604 -0.52685,0.727604 h -0.19921 -0.199209 z m 14.076304,-0.955101 -0.17639,-0.176389 v -3.909038 -3.909038 l -0.26713,-0.1651 -0.26714,-0.165101 -0.69459,0.546361 -0.69458,0.54636 h -0.51963 -0.51962 l -0.74924,-0.802059 -0.74923,-0.802059 -0.0845,0.735913 -0.0845,0.735914 h -0.66146 -0.66146 l -0.0306,-1.455209 -0.0306,-1.455208 -0.17411,-0.661458 -0.17412,-0.661458 0.24127,-0.364627 0.24127,-0.364626 0.29416,0.181804 0.29417,0.181803 v 0.604837 0.604836 l 0.46302,0.418344 0.46302,0.418345 1.04788,0.08568 1.04788,0.08568 0.14275,0.529166 0.14274,0.529167 0.70214,-0.01262 0.70214,-0.01262 0.42234,-0.350507 0.42234,-0.350508 v -0.481155 -0.481155 l 0.28262,-0.174669 0.28262,-0.174669 -0.13461,-0.350768 -0.1346,-0.350768 0.39236,-0.325631 0.39237,-0.325631 0.31289,0.312891 0.31289,0.31289 -0.31982,0.512103 -0.31981,0.512103 0.16386,0.427017 0.16386,0.427018 0.64671,-0.162314 0.64671,-0.162314 -0.18095,0.605652 -0.18095,0.605652 -0.37543,0.595313 -0.37542,0.595312 h 0.93214 0.93214 v -0.761353 -0.761353 l 0.39687,-0.329377 0.39688,-0.329377 0.46302,0.353021 0.46302,0.35302 -0.75651,-0.82829 -0.7565,-0.82829 0.17681,-0.286084 0.1768,-0.286083 h 0.34899 0.34899 l 0.38213,-0.575517 0.38213,-0.575517 0.44389,0.170338 0.4439,0.170338 v 0.694532 0.694533 l -0.477,0.124736 -0.47699,0.124736 0.0729,0.710389 0.0729,0.71039 0.33651,0.992187 0.3365,0.992188 h 0.56462 0.56462 l 0.31193,-0.753073 0.31193,-0.753072 -0.1756,-0.699671 -0.17561,-0.69967 0.40427,-0.155131 0.40426,-0.155131 0.54672,0.292594 0.54672,0.292595 0.1641,0.653821 0.16409,0.653821 h 0.35258 0.35258 l 0.17382,0.281256 0.17383,0.281255 -0.42917,0.474231 -0.42918,0.474231 0.16698,0.435139 0.16698,0.435138 h 0.36857 0.36856 v 0.292891 0.292891 l -0.38839,-0.149034 -0.38841,-0.149044 -0.13785,0.223049 -0.13785,0.223049 0.39994,0.331917 0.39993,0.331917 -0.15292,0.481818 -0.15292,0.481818 0.30375,0.567566 0.30375,0.567566 -0.27551,0.275509 -0.27551,0.275509 -0.6089,-0.391586 -0.60889,-0.391586 -2.38125,0.195648 -2.38125,0.195649 -0.79375,0.189105 -0.79375,0.189106 -1.2381,1.025834 -1.23809,1.025835 h -0.23916 -0.23917 z m 9.48091,-5.379861 -0.16353,-0.264584 h -1.05833 -1.05833 l 0.16352,0.264584 0.16352,0.264583 h 1.05833 1.05834 z m 3.08658,4.370326 -0.61759,-0.34029 -0.25352,-0.253524 -0.25353,-0.253523 0.41305,-0.342802 0.41306,-0.342802 0.47889,0.433391 0.47889,0.43339 h 0.29428 0.29428 l 0.1818,0.294165 0.18181,0.294165 -0.36463,0.23095 -0.36462,0.230951 -0.1323,-0.02189 -0.13229,-0.02189 z m 11.91529,-0.18991 -0.3175,-0.3175 v -0.343958 -0.343958 h 0.1416 0.1416 l 0.65215,0.427304 0.65215,0.427305 v 0.234154 0.234153 h -0.47625 -0.47625 z m -48.639889,-0.342188 -0.166624,-0.434214 0.281931,-0.281931 0.281931,-0.281931 0.434214,0.166624 0.434214,0.166623 -0.08874,0.460783 -0.08874,0.460783 -0.460782,0.08874 -0.460783,0.08874 z M 132.45629,77.996525 132.1288,77.669028 V 76.69447 75.719912 l -0.52917,-0.13838 -0.52917,-0.13838 v -0.314124 -0.314124 l 0.52917,-0.13838 0.52917,-0.13838 v -0.598203 -0.598203 l 0.34271,-0.284423 0.34271,-0.284424 0.91406,0.320315 0.91406,0.320315 0.34622,0.221483 0.34622,0.221484 -0.1485,0.702416 -0.1485,0.702416 0.2176,0.79375 0.2176,0.79375 0.64301,0.321958 0.64301,0.321959 v 0.3395 0.339499 l -1.9876,0.07614 -1.98761,0.07614 z M 80.623242,76.187361 v -0.79375 h 0.308681 0.30868 v 0.79375 0.79375 h -0.30868 -0.308681 z m 23.998508,0.408465 -0.31976,-0.385285 0.17069,-0.276173 0.17068,-0.276173 h 0.49794 0.49793 l 0.17069,0.276173 0.17068,0.276173 -0.31976,0.385285 -0.31975,0.385285 h -0.19979 -0.19979 z m -28.584619,-0.96409 v -0.238125 h 0.513552 0.513552 l 0.15687,-0.253821 0.15687,-0.25382 -0.333068,-0.533326 -0.333067,-0.533325 0.30105,-0.30105 0.30105,-0.30105 0.265589,0.164143 0.265588,0.164142 v 1.162179 1.162178 h -0.903993 -0.903993 z m 7.819965,-1.007998 -0.148765,-0.240707 0.161458,-0.420751 0.161457,-0.420752 h 0.207969 0.207968 l 0.161457,0.420752 0.161458,0.420751 -0.148765,0.240707 -0.148765,0.240707 h -0.233353 -0.233354 z m 44.578674,-1.490703 -0.65032,-0.35661 -0.21526,-0.581903 -0.21526,-0.581904 0.13902,-0.139019 0.13902,-0.139019 0.6205,0.582933 0.6205,0.582933 0.7186,-0.273209 0.71859,-0.273209 h 0.11507 0.11507 v 0.214693 0.214693 l -0.53948,0.579057 -0.53947,0.579057 -0.18813,-0.02594 -0.18813,-0.02594 z m -22.50072,-0.617443 v -0.49677 l 0.40327,-0.334684 0.40326,-0.334683 0.13331,0.1333 0.1333,0.133301 -0.26544,0.698152 -0.26544,0.698153 h -0.27113 -0.27113 z m -3.01932,-2.904971 -0.1574,-0.254673 0.16575,-0.431934 0.16575,-0.431934 0.29813,0.09938 0.29813,0.09938 v 0.485069 0.48507 l -0.30648,0.10216 -0.30649,0.102161 z m 7.54065,-0.258681 -0.27688,-0.517347 0.39481,-0.327661 0.39481,-0.327662 -0.0348,-0.295433 -0.0348,-0.295434 0.0314,-0.330729 0.0314,-0.330729 h 0.26878 0.26879 l -0.0109,0.727604 -0.0109,0.727604 0.0729,0.653201 0.0729,0.653201 -0.44517,0.09037 -0.44517,0.09037 z m 12.43916,0.007 -0.27312,-0.51034 0.16981,-0.169814 0.16981,-0.169814 -0.50985,-0.389113 -0.50985,-0.389113 0.39687,-0.26556 0.39688,-0.26556 0.19844,-0.0041 0.19843,-0.0041 0.5452,0.545195 0.54519,0.545194 -0.0822,0.709314 -0.0822,0.709314 -0.44517,0.08437 -0.44517,0.08437 z m 0.59331,-2.311114 -0.15668,-0.408286 0.15859,-0.158584 0.15858,-0.158584 0.40327,0.334683 0.40327,0.334684 v 0.232186 0.232187 h -0.40518 -0.40518 z m -14.16196,-1.24536 -0.0846,-0.595313 -0.59532,0.08278 -0.59531,0.08278 v -0.281214 -0.281215 h 0.52917 0.52917 v -0.470295 -0.470295 l 0.41382,-0.590815 0.41382,-0.590816 -0.15521,-0.489035 -0.15522,-0.489034 0.33671,-0.269556 0.3367,-0.269556 0.59531,-0.182504 0.59531,-0.182503 v 0.379023 0.379024 l -0.50229,0.638569 -0.5023,0.63857 0.37,0.506015 0.37001,0.506014 v 0.578492 0.578492 l -0.39687,0.329377 -0.39688,0.329377 v 0.364478 0.364478 h -0.51076 -0.51077 z"
       id="path2" /></g></svg>
