<?xml version="1.0" encoding="UTF-8" standalone="no"?>
<!-- Created with Inkscape (http://www.inkscape.org/) -->

<svg
   width="101.6mm"
   height="84.666672mm"
   viewBox="0 0 101.6 84.666672"
   version="1.1"
   id="svg1"
   xml:space="preserve"
   xmlns="http://www.w3.org/2000/svg"
   xmlns:svg="http://www.w3.org/2000/svg"><defs
     id="defs1" /><g
     id="layer1"
     transform="translate(-69.422556,-156.82319)"><path
       style="fill:#ffffff;fill-opacity:1"
       d="M 69.422552,199.15653 V 156.8232 h 50.799998 50.8 v 42.33333 42.33334 h -50.8 -50.799998 z m 100.806248,0 V 157.61695 H 120.22255 70.216302 l 0.02089,12.50156 0.02089,12.50157 0.133453,-0.33073 0.133452,-0.33073 h 0.507118 0.507118 v -0.26459 -0.26458 h 0.603049 0.603049 l 0.381402,0.52917 0.381401,0.52916 h 0.470758 0.470757 v -0.26458 -0.26458 h 0.79375 0.79375 v 0.26458 0.26458 h -0.264583 -0.264583 v 0.39688 0.39687 h -0.264584 -0.264583 v 0.26459 0.26458 h 0.926042 0.926041 v -0.92604 -0.92604 h 0.680357 0.680358 l 0.377976,0.37797 0.377976,0.37798 v 0.28348 0.28348 h -0.264583 -0.264584 v 0.26459 0.26458 h 0.79375 0.79375 v -0.66146 -0.66146 h 0.661459 0.661458 v 0.54807 0.54806 l 0.377976,0.37798 0.377976,0.37798 h 0.151191 0.15119 v -0.52917 -0.52917 h 0.264584 0.264583 v -0.39687 -0.39688 h 0.264583 0.264584 v -0.52916 -0.52917 h 0.144318 0.144318 l 0.649432,0.64943 0.649432,0.64943 v 0.80578 0.80578 h 1.190625 1.190625 v 0.52916 0.52917 h -0.529167 -0.529167 v 0.52917 0.52916 h 0.529167 0.529167 v 0.26459 0.26458 h 1.058333 1.058333 v -0.24253 -0.24254 l -0.330729,-0.15434 -0.330729,-0.15434 0.330729,-0.15434 0.330729,-0.15434 v -0.92289 -0.92289 l 0.377976,-0.37798 0.377977,-0.37798 h 0.548065 0.548065 v 0.26459 0.26458 h -0.264583 -0.264583 v 0.26458 0.26459 h 0.529166 0.529167 v -0.26459 -0.26458 h 0.529167 0.529166 v -0.26458 -0.26459 h 0.79375 0.79375 v -0.39687 -0.39688 h 0.396875 0.396875 v 0.39688 0.39687 h 0.529167 0.529167 v 0.52917 0.52917 h 1.322916 1.322917 v 0.79375 0.79375 h -0.264583 -0.264584 v 0.92604 0.92604 h 0.264584 0.264583 v 0.26458 0.26459 h -1.5875 -1.5875 v 0.26458 0.26458 H 93.89651 91.912135 v -0.26458 -0.26458 h -0.529167 -0.529166 v -0.26459 -0.26458 h -0.396875 -0.396875 v 0.26458 0.26459 h -1.5875 -1.5875 v -0.26459 -0.26458 h -1.190625 -1.190625 v -0.39687 -0.39688 h -0.771701 -0.771702 l -0.109455,-0.32837 -0.109456,-0.32836 -0.44176,0.44176 -0.441759,0.44176 v 0.28348 0.28348 h 1.058333 1.058333 v 0.52917 0.52916 h -1.719791 -1.719792 v -0.26458 -0.26458 H 78.02151 75.507969 v 0.52916 0.52917 h 0.264583 0.264583 v 0.79375 0.79375 h 0.396875 0.396875 v 1.19062 1.19063 h 0.264584 0.264583 v 0.52917 0.52916 h 0.79375 0.79375 v -0.26458 -0.26458 h 0.529167 0.529166 v -0.26459 -0.26458 h 0.661459 0.661458 v -0.26458 -0.26459 h 0.529167 0.529166 v -0.66146 -0.66145 h 0.264584 0.264583 v -0.4089 -0.40891 l 0.649432,-0.64943 0.649432,-0.64943 h 0.408901 0.408902 v 0.50712 0.50712 l -0.328367,0.10945 -0.328367,0.10946 0.44176,0.44176 0.441759,0.44176 h 0.283482 0.283483 v -0.26459 -0.26458 h 3.042708 3.042708 v 0.66146 0.66146 h 0.264583 0.264584 v 2.11666 2.11667 h 0.264583 0.264583 v 0.39687 0.39688 h 0.264584 0.264583 v -0.39688 -0.39687 h 1.455208 1.455209 v -0.26458 -0.26459 h -0.264584 -0.264583 v -0.79375 -0.79375 h -0.264583 -0.264584 v 0.26459 0.26458 H 94.69026 94.028802 v -0.68036 -0.68035 l 0.377976,-0.37798 0.377976,-0.37798 h 0.283482 0.283482 v -0.26458 -0.26458 h 0.529167 0.529167 v 0.26458 0.26458 h 0.529166 0.529167 v -0.66146 -0.66145 h 0.264583 0.264584 v -0.47076 -0.47076 l 0.529166,-0.3814 0.529167,-0.3814 v -0.47076 -0.47076 h 0.283482 0.283482 l 0.377981,-0.37797 0.37797,-0.37798 v -0.54806 -0.54807 h 0.26459 0.26458 v -0.52917 -0.52916 h 0.26458 0.26459 v -0.79375 -0.79375 h 0.26458 0.26458 v -0.92604 -0.92605 h 0.26459 0.26458 v -0.52916 -0.52917 h -0.26458 -0.26459 v -1.5875 -1.5875 h 0.26459 0.26458 v -0.28348 -0.28348 l 0.37797,-0.37798 0.37798,-0.37798 h 1.05518 1.05519 l 0.10945,0.32837 0.10946,0.32837 0.44176,-0.44176 0.44176,-0.44176 v -0.39373 -0.39372 l -0.33073,-0.15434 -0.33073,-0.15434 0.33073,-0.15434 0.33073,-0.15434 v -0.7717 -0.77171 h 0.26458 0.26459 v -0.39687 -0.39688 h 0.52916 0.52917 v -0.26458 -0.26458 h 0.66146 0.66146 v -0.26459 -0.26458 h -1.19063 -1.19062 v 0.52917 0.52916 h -0.79375 -0.79375 v -0.52916 -0.52917 h -0.52917 -0.52917 v -0.67348 -0.67349 l 0.64943,-0.64943 0.64944,-0.64943 h 1.57747 1.57748 l 0.11812,0.33073 0.11812,0.33073 0.23466,-0.23466 0.23466,-0.23466 -0.33073,-0.11812 -0.33073,-0.11812 v -0.63941 -0.63941 h 0.26458 0.26459 v 0.39688 0.39687 h 0.26458 0.26458 v -0.54119 -0.5412 l -0.64943,-0.64943 -0.64943,-0.64943 h -0.27661 -0.27661 v -0.26458 -0.26459 h -0.26458 -0.26459 v 0.41578 0.41577 l -0.37797,0.37798 -0.37798,0.37797 h -0.30238 -0.30238 l -0.44176,-0.44176 -0.44176,-0.44176 0.32837,-0.10945 0.32836,-0.10946 v -0.39372 -0.39373 l 0.37798,-0.37797 0.37797,-0.37798 h 0.41578 0.41577 v -0.26458 -0.26459 h 0.60305 0.60305 l 0.3814,0.52917 0.3814,0.52917 h 0.20618 0.20617 v -0.52917 -0.52917 h -0.26458 -0.26458 v -0.39687 -0.39688 h 0.26458 0.26458 v -0.52916 -0.52917 h -0.52916 -0.52917 v 0.26458 0.26459 h -0.63941 -0.63941 l -0.10946,0.32836 -0.10945,0.32837 -0.50555,-0.50554 -0.50554,-0.50555 0.32837,-0.10945 0.32837,-0.10946 v -0.39372 -0.39373 l 0.37797,-0.37797 0.37798,-0.37798 h 0.54806 0.54807 v 0.26458 0.26459 h 0.52917 0.52916 v -0.26459 -0.26458 h -0.26458 -0.26458 v -0.52917 -0.52916 h 0.15843 0.15843 l 0.80856,0.85989 0.80856,0.8599 0.11339,-0.33073 0.11339,-0.33073 h 0.39372 0.39373 l 0.37798,0.37798 0.37797,0.37797 v 0.68036 0.68036 h -0.52916 -0.52917 v -0.26459 -0.26458 h 0.26458 0.26459 v -0.26458 -0.26459 h -0.41578 -0.41577 l -0.37798,0.37798 -0.37797,0.37798 v 1.34181 1.34182 h 0.26458 0.26458 v -0.26459 -0.26458 h 1.34182 1.34181 l 0.37798,0.37798 0.37798,0.37797 v 0.39373 0.39372 l 0.32836,0.10946 0.32837,0.10945 -0.44176,0.44176 -0.44176,0.44176 h -0.41577 -0.41578 v -0.26458 -0.26458 h -0.39687 -0.39688 v -0.26459 -0.26458 h 0.39688 0.39687 v -0.52917 -0.52916 h -0.66146 -0.66145 v 0.52916 0.52917 h -0.79375 -0.79375 v 0.79375 0.79375 h 0.50711 0.50712 l 0.11812,-0.33073 0.11812,-0.33073 0.23466,0.23466 0.23466,0.23466 -0.33073,0.11812 -0.33073,0.11812 v 0.37482 0.37483 h 1.33173 1.33174 l 0.93108,0.93108 0.93108,0.93108 -0.45562,0.45562 -0.45561,0.45562 -0.10946,-0.32837 -0.10946,-0.32836 h -0.50711 -0.50712 v 0.1674 0.1674 l 0.55809,0.48403 0.55809,0.48403 -0.47068,0.47069 -0.47069,0.47068 -0.10945,-0.32837 -0.10946,-0.32836 h -0.63941 -0.63941 v -0.52917 -0.52917 h -0.26458 -0.26458 v 0.26459 0.26458 h -0.26459 -0.26458 v -0.52917 -0.52916 h -0.52917 -0.52916 v 0.52916 0.52917 h 0.4089 0.4089 l 0.64943,0.64943 0.64943,0.64943 v 0.5412 0.54119 h 0.39688 0.39687 v 0.52917 0.52916 h -0.39687 -0.39688 v 0.26459 0.26458 h 0.39688 0.39687 v -0.26458 -0.26459 h 0.50712 0.50712 l 0.11872,-0.33073 0.11871,-0.33072 0.52968,0.59531 0.52968,0.59531 h 0.69657 0.69657 v -0.26458 -0.26459 h 0.54119 0.54119 l 0.70807,-0.70806 0.70806,-0.70806 -0.32322,-0.10774 -0.32321,-0.10773 v -0.63941 -0.63941 h 0.68036 0.68036 l 0.40947,-0.40948 0.40947,-0.40947 -0.20001,-0.18584 -0.20001,-0.18584 -0.11812,0.33073 -0.11812,0.33073 h -0.7717 -0.7717 v -0.1674 -0.16741 l 0.57159,-0.49573 0.57158,-0.49573 -0.21093,-0.19676 -0.21093,-0.19676 -0.11812,0.33073 -0.11812,0.33073 h -0.24253 -0.24254 v -0.52917 -0.52917 h 1.71979 1.7198 v 0.26459 0.26458 h 0.52916 0.52917 v -0.52917 -0.52916 h -0.26458 -0.26459 v -0.66146 -0.66146 h -0.26458 -0.26458 v 0.39688 0.39687 h -0.39688 -0.39687 v -0.39687 -0.39688 h -0.26459 -0.26458 v 0.28348 0.28348 l -0.37798,0.37798 -0.37797,0.37798 h -0.41578 -0.41577 v -0.54807 -0.54806 l 0.37797,-0.37798 0.37798,-0.37798 h 0.41577 0.41578 v -0.26458 -0.26458 h 0.66146 0.66146 v 0.26458 0.26458 h 0.52916 0.52917 v -1.05833 -1.05833 h -1.19063 -1.19062 v -0.52917 -0.52917 h 0.66146 0.66146 v -0.28348 -0.28348 l 0.42088,-0.42089 0.42089,-0.42088 0.24057,0.37364 0.24057,0.37364 0.28473,-0.39688 0.28472,-0.39687 0.1342,0.33073 0.1342,0.33072 h 0.7717 0.7717 v 0.39688 0.39687 h 0.39688 0.39687 v 0.52917 0.52917 h -0.33846 -0.33847 l -0.3814,-0.52917 -0.3814,-0.52917 h -0.47076 -0.47076 v 0.52917 0.52917 h -0.26458 -0.26458 v 1.05833 1.05833 h 0.1674 0.1674 l 0.52968,-0.59531 0.52968,-0.59531 0.11871,0.33073 0.11872,0.33073 h 0.78373 0.78373 l 0.64943,0.64943 0.64943,0.64943 v 0.54119 0.5412 h -0.26458 -0.26459 v -0.26459 -0.26458 h -1.19062 -1.19062 v -0.39687 -0.39688 h -0.26459 -0.26458 v 0.39688 0.39687 h -0.26458 -0.26459 v 0.52917 0.52916 h -0.26458 -0.26458 v 1.5875 1.5875 h 0.52916 0.52917 v 0.39688 0.39687 h 0.92604 0.92604 v -0.28348 -0.28348 l 0.37798,-0.37798 0.37797,-0.37797 h 0.56697 0.56696 l 0.37798,0.37797 0.37797,0.37798 v 0.43467 0.43467 l -0.37797,0.37798 -0.37798,0.37798 h -1.34181 -1.34182 v 0.52916 0.52917 h 0.39688 0.39687 v 0.26458 0.26459 h -0.37482 -0.37483 l -0.15434,-0.33073 -0.15434,-0.33073 -0.15434,0.33073 -0.15434,0.33073 h -0.7717 -0.7717 v 0.52916 0.52917 h 0.52916 0.52917 v -0.26458 -0.26459 h 0.52917 0.52916 v 1.45521 1.45521 h 0.39688 0.39687 v -0.50712 -0.50712 l 0.33073,-0.15434 0.33073,-0.15434 -0.33073,-0.15434 -0.33073,-0.15434 v -0.63941 -0.63941 h 0.50712 0.50712 l 0.11872,-0.33073 0.11871,-0.33072 0.52968,0.59531 0.52968,0.59531 h 1.88719 1.8872 v 0.66146 0.66146 h 0.15119 0.15119 l 0.37798,-0.37798 0.37797,-0.37798 v -0.28348 -0.28348 h 0.52917 0.52916 v 0.39688 0.39687 h 0.26459 0.26458 v 0.52917 0.52916 h 0.39688 0.39687 v 0.26459 0.26458 h 0.26458 0.26459 v -0.79375 -0.79375 h 0.26458 0.26458 v -0.39687 -0.39688 h 0.26459 0.26458 v 0.39688 0.39687 h 0.26458 0.26459 v 0.79375 0.79375 h 0.26458 0.26458 v 0.50712 0.50712 l -0.33072,0.11811 -0.33073,0.11812 0.23466,0.23466 0.23466,0.23466 0.11811,-0.33073 0.11812,-0.33073 h 0.24254 0.24253 v 0.79375 0.79375 h 0.66146 0.66146 v 2.91042 2.91042 h 0.26458 0.26458 v 0.26458 0.26458 h -0.6394 -0.63941 l -0.11812,-0.33073 -0.11812,-0.33072 -0.23466,0.23466 -0.23466,0.23466 0.33073,0.11811 0.33073,0.11812 v 0.50712 0.50712 h 0.53798 0.53799 l 0.91722,0.91722 0.91722,0.91722 v 0.42459 0.4246 l 0.37798,0.37797 0.37798,0.37798 h 0.15119 0.15119 v -0.52917 -0.52916 h 0.26458 0.26458 v -0.39688 -0.39687 h 0.92605 0.92604 v -0.26459 -0.26458 h 0.52916 0.52917 v 0.26458 0.26459 h 0.52917 0.52916 v 0.39687 0.39688 h 0.66146 0.66146 v -0.39688 -0.39687 h 0.79375 0.79375 v 0.39687 0.39688 h 1.32292 1.32291 v -0.28349 -0.28348 l -0.37797,-0.37797 -0.37798,-0.37798 h -0.35736 -0.35737 l -0.3814,-0.52917 -0.3814,-0.52916 h -0.41235 -0.41235 l -0.3814,-0.52917 -0.3814,-0.52917 h -1.13222 -1.13221 v 0.26459 0.26458 h -1.03629 -1.03628 l -0.15434,0.33073 -0.15434,0.33073 -0.15434,-0.33073 -0.15434,-0.33073 h -0.35278 -0.35278 l -0.15434,0.33073 -0.15434,0.33073 -0.15434,-0.33073 -0.15434,-0.33073 h -1.03628 -1.03629 v -0.52917 -0.52916 h 0.26458 0.26459 v 0.26458 0.26458 h 2.24896 2.24895 v -0.26458 -0.26458 h 0.79375 0.79375 v -0.26459 -0.26458 h 1.19063 1.19062 v 0.26458 0.26459 h 0.73535 0.73534 l 0.3814,0.52916 0.3814,0.52917 h 0.47076 0.47075 v 0.26458 0.26459 h 0.27661 0.27661 l 0.64944,0.64943 0.64943,0.64943 v 0.48278 0.48279 l 0.52916,0.3814 0.52917,0.3814 v 0.47076 0.47076 h 0.26458 0.26459 v 0.52916 0.52917 h 3.96875 3.96875 v -0.26458 -0.26459 h 1.05833 1.05833 v 0.26459 0.26458 h 0.39688 0.39687 v 0.26458 0.26459 h -0.39687 -0.39688 v 0.26458 0.26458 h -0.52916 -0.52917 v -0.26458 -0.26458 h -0.41577 -0.41578 l -0.37797,0.37797 -0.37798,0.37798 v 0.15119 0.15119 h 1.05833 1.05834 v 0.39687 0.39688 h -0.79375 -0.79375 v 0.26458 0.26459 h -0.52917 -0.52917 v 0.26458 0.26458 h -0.63941 -0.6394 l -0.15435,-0.33073 -0.15434,-0.33073 -0.15434,0.33073 -0.15434,0.33073 h -0.74965 -0.74965 l -0.11872,-0.33073 -0.11872,-0.33073 -0.60041,0.66146 -0.60041,0.66146 -0.11872,-0.33073 -0.11872,-0.33073 h -0.37482 -0.37483 v 0.26459 0.26458 h 0.39688 0.39687 v 1.45521 1.45521 h 0.26458 0.26459 v 0.47075 0.47076 l 0.52916,0.3814 0.52917,0.3814 v 0.47076 0.47076 h 0.42301 0.42302 l 0.74147,0.79375 0.74147,0.79375 h 0.29073 0.29072 v 0.39687 0.39688 h 0.41577 0.41578 l 0.37797,0.37798 0.37798,0.37797 v 0.35737 0.35736 l 0.52916,0.3814 0.52917,0.3814 v 1.13222 1.13222 h 0.26458 0.26459 v 2.24895 2.24896 h -0.26459 -0.26458 v 0.66842 0.66842 l -1.18366,1.18367 -1.18366,1.18366 h -0.68732 -0.68732 l -0.37798,0.37798 -0.37798,0.37797 v 0.28348 0.28349 h -0.26458 -0.26458 v 0.52916 0.52917 h 0.52916 0.52917 v 0.26458 0.26459 h -1.05833 -1.05834 v -0.24254 -0.24253 l 0.33073,-0.11812 0.33073,-0.11812 -0.19676,-0.21093 -0.19676,-0.21094 -0.49573,0.57159 -0.49573,0.57159 h -1.09345 -1.09344 v 0.26458 0.26458 h 3.15295 3.15295 l 0.1342,0.33073 0.1342,0.33073 0.30486,-0.39687 0.30487,-0.39688 0.1342,0.33073 0.1342,0.33073 h 0.7717 0.7717 v 0.52917 0.52916 h -0.52917 -0.52916 v -0.26458 -0.26458 h -0.52917 -0.52917 v 0.26458 0.26458 h 0.52917 0.52917 v 0.66146 0.66146 h 0.26458 0.26458 v 0.26458 0.26459 h -0.52916 -0.52917 v -0.52917 -0.52917 h -0.26458 -0.26459 v 0.52917 0.52917 h -0.26458 -0.26458 v 0.26458 0.26458 h 1.32291 1.32292 v 0.52917 0.52917 h -0.24253 -0.24254 l -0.1342,-0.33073 -0.13419,-0.33073 -0.30487,0.39687 -0.30487,0.39688 -0.1342,-0.33073 -0.1342,-0.33073 h -0.90399 -0.90399 v -0.52917 -0.52916 h -0.26459 -0.26458 v 0.52916 0.52917 h -0.26458 -0.26459 v -0.26458 -0.26459 h -0.79375 -0.79375 v -0.26458 -0.26458 h -1.4552 -1.45521 v 0.26458 0.26458 h 0.52916 0.52917 v 0.52917 0.52917 h 0.39688 0.39687 v 0.26458 0.26458 h -3.32619 -3.32619 l -0.37798,-0.37797 -0.37797,-0.37798 v -0.41577 -0.41578 h -0.26459 -0.26458 v 0.79375 0.79375 h 0.52917 0.52916 v 0.26459 0.26458 h 1.96233 1.96233 l 0.13419,0.33073 0.1342,0.33073 0.30487,-0.39688 0.30487,-0.39687 0.1342,0.33073 0.1342,0.33073 h 3.15295 3.15295 v 0.66145 0.66146 h 1.05833 1.05833 v 0.15843 0.15843 l -0.85989,0.80857 -0.8599,0.80856 0.33073,0.11339 0.33073,0.11339 v 0.50711 0.50712 h -1.71979 -1.71979 v 0.39688 0.39687 h -1.05834 -1.05833 v -0.39687 -0.39688 h -0.66146 -0.66146 v 0.39688 0.39687 h -1.32291 -1.32292 v 0.26459 0.26458 h -0.92604 -0.92604 v 0.26458 0.26459 h -1.03629 -1.03628 l -0.15434,0.33072 -0.15434,0.33073 -0.15434,-0.33073 -0.15434,-0.33072 h -2.4915 -2.49149 v 0.26458 0.26458 h -3.70417 -3.70416 v 0.26459 0.26458 h -8.73125 -8.73125 v 0.26458 0.26459 h 1.19062 1.19063 v 0.26458 0.26458 h -1.19063 -1.19062 v 0.26459 0.26458 h -7.80521 -7.80521 v -0.26458 -0.26459 h -1.19062 -1.19063 v 0.66146 0.66146 h -0.79375 -0.79375 v -0.39688 -0.39687 h -0.52916 -0.52917 v 0.39687 0.39688 h -0.926043 -0.926042 v -0.39688 -0.39687 h -2.248958 -2.248959 v -0.26458 -0.26459 h -2.778125 -2.778125 v -0.26458 -0.26458 h -1.984374 -1.984375 v -0.26459 -0.26458 h -0.529167 -0.529167 v -0.26458 -0.26459 h -0.264583 -0.264583 v 0.52917 0.52917 h -1.058334 -1.058333 v 0.26458 0.26458 h -1.43316 -1.433159 l -0.154341,0.33073 -0.15434,0.33073 -0.15434,-0.33073 -0.154341,-0.33073 h -0.507118 -0.507118 v -0.26458 -0.26458 h -0.299694 -0.299695 l -0.529677,-0.59532 -0.529677,-0.59531 -0.118719,0.33073 -0.118718,0.33073 H 73.89842 72.862135 v 0.26458 0.26459 h 0.264584 0.264583 v 0.26458 0.26458 h -1.5875 -1.5875 v 1.32292 1.32292 h 50.006248 50.00625 z m -12.17083,-6.89806 v -0.54807 l 0.37797,-0.37797 0.37798,-0.37798 h 0.15119 0.15119 v 0.54807 0.54806 l -0.37797,0.37798 -0.37798,0.37797 h -0.15119 -0.15119 z m -62.706252,-1.5686 v -0.26459 h 0.79375 0.79375 v 0.26459 0.26458 h -0.79375 -0.79375 z m 29.633332,-19.20119 v -0.41578 l 0.37798,-0.37797 0.37797,-0.37798 h 1.6064 1.6064 v 0.52917 0.52916 h -0.52917 -0.52916 v 0.26459 0.26458 h -0.90399 -0.904 l -0.15434,-0.33073 -0.15434,-0.33073 -0.15434,0.33073 -0.15434,0.33073 h -0.24253 -0.24254 z m -22.225,66.03244 0.3814,-0.52917 h 0.86764 0.86763 v 0.26458 0.26459 h 3.30729 3.30729 v -0.52917 -0.52917 h 3.70417 3.70417 v -0.26458 -0.26458 h 3.30729 3.30729 v 0.26458 0.26458 h 0.92604 0.92604 v -0.26458 -0.26458 h 4.10104 4.10104 v -0.26459 -0.26458 h -5.79878 -5.79878 l -0.1342,-0.33073 -0.1342,-0.33073 -0.30487,0.39688 -0.30487,0.39687 -0.13419,-0.33073 -0.1342,-0.33073 h -0.35278 -0.35278 l -0.15434,0.33073 -0.15434,0.33073 -0.15434,-0.33073 -0.15434,-0.33073 h -1.03628 -1.03629 v -0.39687 -0.39688 h 7.54063 7.54062 v -0.26458 -0.26458 h -3.96875 -3.96875 v -0.26459 -0.26458 h -0.79375 -0.79375 v 0.26458 0.26459 h -3.70416 -3.70417 v -0.26459 -0.26458 h -1.05833 -1.05834 v -0.52917 -0.52916 h -0.79375 -0.79375 v 0.26458 0.26458 h -0.66146 -0.66145 v -0.26458 -0.26458 h -1.5875 -1.5875 v 0.26458 0.26458 h -0.66146 -0.66146 v -0.26458 -0.26458 h -0.50712 -0.50712 l -0.13419,0.33072 -0.1342,0.33073 -0.30487,-0.39687 -0.30487,-0.39688 -0.1342,0.33073 -0.1342,0.33073 h -1.16857 -1.16858 v -0.26458 -0.26458 h -0.79375 -0.79375 v 0.26458 0.26458 h -0.7717 -0.7717 l -0.15434,-0.33073 -0.15434,-0.33073 -0.154342,0.33073 -0.15434,0.33073 h -1.168577 -1.168576 v -0.52916 -0.52917 h 0.242535 0.242534 l 0.154341,0.33073 0.15434,0.33073 0.15434,-0.33073 0.154341,-0.33073 h 4.211284 4.21129 v -0.26458 -0.26459 h 0.52916 0.52917 v 0.26459 0.26458 h 0.39687 0.39688 v -0.26458 -0.26459 h 1.32292 1.32291 v 0.26459 0.26458 h 5.29167 5.29167 v -0.26458 -0.26459 h -1.05834 -1.05833 v -0.26458 -0.26458 h -2.51354 -2.51354 v -0.39688 -0.39687 h -1.16858 -1.16858 l -0.13419,-0.33073 -0.1342,-0.33073 -0.30487,0.39687 -0.30487,0.39688 -0.1342,-0.33073 -0.1342,-0.33073 h -0.74965 -0.74965 l -0.11872,0.33073 -0.11872,0.33073 -0.52967,-0.59532 -0.52968,-0.59531 h -1.09345 -1.09344 v 0.24254 0.24253 l 0.33073,0.11812 0.33073,0.11812 -0.23466,0.23466 -0.23466,0.23466 -0.11812,-0.33073 -0.11812,-0.33073 h -0.50712 -0.50712 v 0.26458 0.26459 h -0.26458 -0.26458 v -0.79375 -0.79375 h -0.26459 -0.26458 v 0.26458 0.26458 h -1.19062 -1.19063 v 0.26459 0.26458 h -1.45521 -1.455205 v -0.26458 -0.26459 h -7.276042 -7.276041 v -0.26458 -0.26458 H 81.83907 79.174338 l -0.377977,-0.37798 -0.377976,-0.37798 v -0.41577 -0.41577 h 0.264584 0.264583 v -0.52917 -0.52917 h 0.264583 0.264584 v -0.39687 -0.39688 h -1.058334 -1.058333 v -0.26458 -0.26458 h -3.417535 -3.417534 l -0.133452,-0.33073 -0.133453,-0.33073 -0.01798,2.51354 -0.01798,2.51354 0.163998,0.99219 0.163999,0.99219 h 1.156006 1.156006 v 0.26458 0.26458 h 0.431987 0.431986 l 0.48403,0.55809 0.48403,0.55809 0.44981,-0.44981 0.449811,-0.44981 -0.37364,-0.26071 -0.373639,-0.26072 0.33073,-0.13419 0.330729,-0.1342 v -1.16858 -1.16857 h 0.661458 0.661458 v 0.26458 0.26458 h 0.264584 0.264583 v -0.52916 -0.52917 h 0.15119 0.151191 l 0.377976,0.37798 0.377976,0.37797 v 0.41578 0.41577 h 0.79375 0.79375 v 0.66146 0.66146 h -0.264583 -0.264583 v 0.79375 0.79375 h 0.926041 0.926042 v 0.26458 0.26458 h 0.529167 0.529166 v 0.26459 0.26458 h 0.79375 0.79375 v 0.26458 0.26459 h 0.926042 0.926042 v 0.26458 0.26458 h 1.852083 1.852083 v 0.39688 0.39687 h 1.455208 1.455209 v 0.26459 0.26458 h 2.248958 2.248958 v 0.52917 0.52916 h -2.513533 -2.513542 v 0.26459 0.26458 h 2.248958 2.248959 v 0.26458 0.26459 h 2.248958 2.24896 v 0.26458 0.26458 h 0.73534 0.73534 z m -1.32291,-1.85209 v -0.26458 h -2.248963 -2.248959 v -0.54119 -0.5412 l 0.649432,-0.64943 0.649432,-0.64943 h 1.864108 1.86411 v 0.52917 0.52916 h 1.98438 1.98437 v 0.39688 0.39687 h 1.71979 1.7198 v 0.26459 0.26458 h 1.5875 1.5875 v 0.26458 0.26459 h -5.55625 -5.55625 z m 10.58333,-1.45521 v -0.66145 h 1.98437 1.98438 v 0.26458 0.26458 h 1.45521 1.45521 v 0.39688 0.39687 h -3.43959 -3.43958 z m 8.46667,-1.98437 v -0.26458 h -1.45521 -1.45521 v 0.26458 0.26458 h 1.45521 1.45521 z m 35.45416,-0.94494 v -0.15119 l -0.37797,-0.37798 -0.37798,-0.37797 h -0.54807 -0.54806 v 0.52916 0.52917 h 0.92604 0.92604 z m -7.40833,-1.30402 v -0.39687 h -1.05834 -1.05833 v 0.39687 0.39688 h 1.05833 1.05834 z m -3.43959,-1.71979 v -0.26458 h 0.904 0.90399 l 0.11812,0.33072 0.11812,0.33073 0.19657,-0.1824 0.19658,-0.1824 -0.73612,-0.73612 -0.73613,-0.73613 -0.10773,0.32322 -0.10774,0.32321 h -0.63941 -0.63941 v 0.26458 0.26459 h -0.52917 -0.52917 v 0.26458 0.26458 h 0.79375 0.79375 z m -41.53958,-0.52917 v -0.26458 h -1.05833 -1.05834 v 0.26458 0.26459 h 1.05834 1.05833 z m 34.925,0 v -0.26458 h 0.52917 0.52916 v 0.26458 0.26459 h 0.52917 0.52917 v -0.26459 -0.26458 h -0.52917 -0.52917 v -0.26458 -0.26459 h -0.52916 -0.52917 v -0.52916 -0.52917 h -0.15119 -0.15119 l -0.37798,0.37798 -0.37797,0.37797 v 0.29465 0.29465 l 0.33073,0.37564 0.33073,0.37565 0.19843,0.0101 0.19844,0.0101 z m -43.920832,-0.52916 v -0.26459 H 92.30901 90.060052 v 0.26459 0.26458 h 2.248958 2.248958 z m -11.112499,-0.68036 v -0.41578 l -0.377977,-0.37797 -0.377976,-0.37798 h -1.077232 -1.077232 v 0.52917 0.52917 h 0.661458 0.661459 v 0.26458 0.26458 h 0.79375 0.79375 z m 5.027083,0.26458 v -0.15119 l -0.377976,-0.37797 -0.377977,-0.37798 h -1.341815 -1.341815 v 0.26458 0.26459 h 0.661458 0.661458 v 0.26458 0.26458 h 1.058334 1.058333 z m 59.002078,-0.58415 v -0.20617 l -0.52916,-0.3814 -0.52917,-0.38141 v -0.33846 -0.33847 h -0.26458 -0.26459 v 0.39688 0.39687 h 0.26459 0.26458 v 0.52917 0.52917 h 0.52917 0.52916 z m -26.45833,-0.58757 v -0.26459 h -0.79375 -0.79375 v 0.26459 0.26458 h 0.79375 0.79375 z m -36.512498,-1.45521 v -1.19063 h -0.264583 -0.264584 v 1.19063 1.19062 h 0.264584 0.264583 z m 25.399998,0.79375 v -0.39688 h -0.92604 -0.92604 v 0.39688 0.39687 h 0.92604 0.92604 z m -29.368748,-0.92604 v -0.52917 h 0.396875 0.396875 v -0.26458 -0.26459 h -0.661458 -0.661459 v 0.79375 0.79375 h 0.264584 0.264583 z m 57.943748,0.022 v -0.50711 l 0.33073,-0.11812 0.33073,-0.11812 -0.18584,-0.20001 -0.18584,-0.20001 -0.40947,0.40947 -0.40948,0.40947 v 0.41578 0.41577 h 0.26459 0.26458 z m -29.10416,-0.17319 v -0.1512 l -0.37798,-0.37797 -0.37798,-0.37798 h -1.34181 -1.34182 v 0.26459 0.26458 h 1.45521 1.45521 v 0.26458 0.26459 h 0.26458 0.26459 z m 29.63333,-2.23006 v -0.79375 h -0.26459 -0.26458 v 0.79375 0.79375 h 0.26458 0.26459 z m 6.87916,0.26458 v -0.52917 h -0.39687 -0.39688 v 0.52917 0.52917 h 0.39688 0.39687 z m -38.36458,-0.26458 v -0.26459 h -0.79375 -0.79375 v 0.26459 0.26458 h 0.79375 0.79375 z m 13.49375,-2.77813 v -2.51354 h -0.26458 -0.26458 v 0.79375 0.79375 h -0.26459 -0.26458 v 1.05833 1.05834 h 0.26458 0.26459 v 0.66145 0.66146 h 0.26458 0.26458 z m 25.92917,1.5875 v -0.92604 h -1.19063 -1.19062 v 0.66146 0.66146 h 0.92604 0.92604 v 0.26458 0.26458 h 0.26458 0.26459 z m -74.429813,-0.80635 0.409474,-0.40947 -0.200012,-0.18584 -0.200012,-0.18584 -0.118118,0.33073 -0.118117,0.33073 h -0.63941 -0.63941 v -0.26458 -0.26459 h 0.264583 0.264584 v -0.26458 -0.26458 H 70.87776 70.216302 v 0.79375 0.79375 h 0.944941 0.94494 z m 36.858983,-0.11969 v -0.52917 h -0.26459 -0.26458 v 0.26459 0.26458 h -0.39688 -0.39687 v 0.26458 0.26459 h 0.66146 0.66146 z m 22.22499,0.37798 v -0.1512 l -0.37797,-0.37797 -0.37798,-0.37798 h -0.15119 -0.15119 v 0.52917 0.52917 h 0.52917 0.52916 z m 30.42709,-0.1134 v -0.26458 h -0.52917 -0.52917 v -0.26458 -0.26459 h -0.52916 -0.52917 v -0.26458 -0.26458 h -0.2734 -0.2734 l -0.91723,-0.91723 -0.91722,-0.91722 v -0.68918 -0.68917 l 0.37798,-0.37798 0.37797,-0.37797 h 0.69926 0.69926 l 0.37797,0.37797 0.37798,0.37798 v 0.4278 0.4278 l 0.64943,0.64943 0.64943,0.64943 h 0.38685 0.38686 l 0.15434,0.33073 0.15434,0.33073 0.15434,-0.33073 0.15434,-0.33073 h 0.52602 0.52601 l 0.37798,-0.37797 0.37797,-0.37798 v -1.6064 -1.6064 h -0.26458 -0.26458 v -0.52916 -0.52917 h -0.27661 -0.27661 l -0.64943,-0.64943 -0.64944,-0.64943 v -0.16322 -0.16322 l -0.37797,-0.37797 -0.37798,-0.37798 h -0.41577 -0.41578 v -0.26458 -0.26459 h -0.52916 -0.52917 v 0.20618 0.20617 l 0.52917,0.3814 0.52916,0.3814 v 0.28006 0.28006 l 0.52917,0.3814 0.52917,0.3814 v 0.20618 0.20617 h -0.73534 -0.73534 l -0.38141,-0.52917 -0.3814,-0.52916 h -0.60305 -0.60305 v -0.27034 -0.27033 l -1.50338,-1.50338 -1.50337,-1.50338 -0.10617,0.3185 -0.10617,0.31851 h -0.37483 -0.37483 v 0.41577 0.41578 l -0.40126,0.40126 -0.40126,0.40126 -0.76322,-0.81704 -0.76323,-0.81703 h -0.31686 -0.31686 l -0.74147,-0.79375 -0.74148,-0.79375 h -0.5553 -0.55531 v -0.39688 -0.39687 h -1.03628 -1.03628 l -0.10946,-0.32837 -0.10946,-0.32836 -0.44176,0.44176 -0.44176,0.44176 v 0.28348 0.28348 h -0.39687 -0.39688 v 0.52917 0.52916 h 0.29073 0.29072 l 0.74147,0.79375 0.74147,0.79375 h 0.30275 0.30275 l 0.64943,0.64943 0.64943,0.64944 v 0.27661 0.27661 h 0.26459 0.26458 v 0.26458 0.26458 h -0.79375 -0.79375 v 0.26459 0.26458 h 0.26458 0.26459 v 0.47076 0.47075 l 0.52916,0.38141 0.52917,0.3814 v 1.13221 1.13222 h 0.39688 0.39687 v 1.32292 1.32291 h 0.26458 0.26459 v -0.26458 -0.26458 h 2.77812 2.77813 v 0.26458 0.26458 h 0.79375 0.79375 v 0.26459 0.26458 h 0.92604 0.92604 v 0.26458 0.26459 h 1.05833 1.05834 z m -29.63334,-1.85208 v -1.05833 h 0.26459 0.26458 v -0.92605 -0.92604 h 0.26458 0.26459 v -0.4089 -0.4089 l -0.64943,-0.64943 -0.64944,-0.64943 h -0.27661 -0.27661 v 0.52916 0.52917 h -0.26458 -0.26458 v 0.52917 0.52916 h -0.26459 -0.26458 v 0.39688 0.39687 h -0.26458 -0.26459 v 0.94494 0.94494 l 0.37798,0.37798 0.37798,0.37798 h 0.41577 0.41577 v 0.26458 0.26458 h 0.39688 0.39687 z m -44.979161,0.26458 v -0.26458 h -0.264584 -0.264583 v -0.79375 -0.79375 h -0.264583 -0.264584 v 0.67262 0.67263 l 0.330729,0.37564 0.33073,0.37565 0.198437,0.0101 0.198438,0.0101 z M 146.4163,217.1482 v -0.79375 h -0.26458 -0.26459 v -0.66146 -0.66146 h -0.39687 -0.39688 v -0.40384 -0.40383 l -1.18366,-1.18367 -1.18366,-1.18366 h -0.13925 -0.13926 v 0.73534 0.73534 l 0.52917,0.38141 0.52916,0.3814 v 0.47076 0.47075 h 0.26459 0.26458 v 0.66146 0.66146 h 0.24254 0.24253 l 0.11812,-0.33073 0.11812,-0.33073 0.23466,0.23466 0.23466,0.23466 -0.33073,0.11812 -0.33073,0.11812 v 0.7717 0.7717 h 0.92604 0.92604 z m -71.557763,-0.91402 0.649432,-0.64943 v -0.16321 -0.16322 l 0.377976,-0.37798 0.377976,-0.37797 h 0.283482 0.283482 v -0.26459 -0.26458 H 76.43401 76.037135 v 0.26458 0.26459 h -0.415773 -0.415774 l -0.377976,0.37797 -0.377977,0.37798 v 0.54806 0.54807 h -0.264583 -0.264583 v 0.26458 0.26459 h 0.144318 0.144318 z m 21.022348,-0.14431 v -0.26459 h -0.264583 -0.264584 v -0.39687 -0.39688 h -0.396875 -0.396875 v -0.52916 -0.52917 h -0.79375 -0.79375 v 0.15119 0.15119 l 0.377977,0.37798 0.377976,0.37797 h 0.415774 0.415773 v 0.39688 0.39687 h 0.396875 0.396875 v 0.26459 0.26458 h 0.264584 0.264583 z m 2.645833,-0.39688 v -0.66146 h -0.264583 -0.264583 v 0.39688 0.39687 h -0.264584 -0.264583 v 0.26459 0.26458 h 0.529167 0.529166 z m 10.318752,0.39688 v -0.26459 h -0.39688 -0.39687 v -1.6064 -1.60639 l -0.37798,-0.37798 -0.37797,-0.37798 h -0.15119 -0.15119 v 0.79375 0.79375 h -0.26459 -0.26458 v 1.45521 1.45521 h 1.19062 1.19063 z m -18.785418,-0.66146 v -0.39688 h -0.529167 -0.529167 v 0.39688 0.39687 h 0.529167 0.529167 z m -6.431895,-1.33552 0.409474,-0.40947 -0.200012,-0.18584 -0.200013,-0.18584 -0.118117,0.33073 -0.118118,0.33073 h -0.507118 -0.507118 v 0.26458 0.26459 h 0.415774 0.415774 z m 14.898561,-0.91344 v -1.32292 h -0.529166 -0.529167 v -0.26458 -0.26458 h 0.529167 0.529166 v -0.92605 -0.92604 h -0.264583 -0.264583 v -0.52916 -0.52917 h -0.264584 -0.264583 v 0.26458 0.26459 h -0.415774 -0.415774 l -0.377976,0.37797 -0.377976,0.37798 v 0.41577 0.41578 h 0.264583 0.264584 v 0.54806 0.54807 l 0.377976,0.37797 0.377976,0.37798 h 0.415774 0.415774 v 1.05833 1.05834 h 0.264583 0.264583 z m -18.520833,0.52917 v -0.26459 h -0.264583 -0.264583 v -0.52916 -0.52917 h -0.264584 -0.264583 v 0.26458 0.26459 h -0.529167 -0.529166 v 0.14345 0.14346 l 0.330729,0.37565 0.330729,0.37564 0.727604,0.0101 0.727604,0.0101 z m -4.497916,-0.52917 v -0.26458 h 0.661458 0.661458 v -0.26459 -0.26458 H 76.28282 75.734754 l -0.377976,0.37798 -0.377976,0.37797 v 0.15119 0.15119 h 0.264583 0.264584 z m 10.999107,-1.17173 0.377976,-0.37797 v -0.81265 -0.81265 h -0.264583 -0.264584 v 0.92604 0.92604 h -0.661458 -0.661458 v 0.26459 0.26458 h 0.548065 0.548065 z m -9.036781,-0.48192 0.15434,-0.33073 0.154341,0.33073 0.15434,0.33073 h 0.507118 0.507118 v -0.92604 -0.92604 h -0.264583 -0.264584 v -0.50712 -0.50712 l 0.328367,-0.10945 0.328367,-0.10946 -0.44176,-0.44176 -0.441759,-0.44176 H 77.834235 77.47687 l -0.381401,0.52917 -0.381402,0.52917 h -0.338466 -0.338466 v 1.4552 1.45521 h 0.63941 0.63941 z m 3.858507,-1.52135 v -0.52917 h -0.396875 -0.396875 v -0.26458 -0.26458 h -0.264583 -0.264584 v 0.79375 0.79375 h 0.661459 0.661458 z m 49.212498,-0.52917 v -0.52916 h -0.52917 -0.52916 v -0.26459 -0.26458 h -0.26459 -0.26458 v 0.52917 0.52916 h 0.52917 0.52916 v 0.26459 0.26458 h 0.26459 0.26458 z m -20.6375,-0.79375 v -0.26458 h -0.92604 -0.92604 v 0.26458 0.26459 h 0.92604 0.92604 z m 28.04583,0 v -0.26458 h -0.26458 -0.26458 v -0.41577 -0.41578 l -0.37798,-0.37797 -0.37797,-0.37798 h -0.28349 -0.28348 v -0.66146 -0.66146 h -0.26458 -0.26459 v -0.52916 -0.52917 h -0.52916 -0.52917 v 0.26458 0.26459 h 0.26458 0.26459 v 0.52916 0.52917 h 0.26458 0.26458 v 0.39687 0.39688 h 0.26459 0.26458 v 0.52917 0.52916 h 0.33847 0.33846 l 0.3814,0.52917 0.38141,0.52917 h 0.20617 0.20617 z m -30.95624,-0.52916 v -0.26459 h -1.32292 -1.32292 v 0.26459 0.26458 h 1.32292 1.32292 z m 50.53541,0.10615 v -0.15843 l -0.79375,-0.74147 -0.79375,-0.74148 v -0.17733 -0.17732 l -0.37797,-0.37798 -0.37798,-0.37798 h -0.26143 -0.26144 l -0.11812,-0.33073 -0.11811,-0.33073 -0.20002,0.18584 -0.20001,0.18584 0.40948,0.40948 0.40947,0.40947 h 0.28348 0.28348 v 0.2721 0.2721 l 0.8599,0.90034 0.8599,0.90034 0.19843,0.0182 0.19844,0.0182 z M 93.499635,207.6232 v -0.26458 h 0.529167 0.529166 v -0.26459 -0.26458 h -1.058333 -1.058333 v 0.52917 0.52916 h 0.529166 0.529167 z m 20.372915,0 v -0.26458 h 0.41578 0.41577 l 0.37798,-0.37798 0.37797,-0.37798 v -0.28348 -0.28348 h 0.79375 0.79375 v -0.41577 -0.41578 l 0.37798,-0.37797 0.37797,-0.37798 h 0.28349 0.28348 v -0.52917 -0.52916 h 0.26458 0.26459 v -0.52917 -0.52917 h 0.52916 0.52917 v 1.32292 1.32292 h -0.26458 -0.26459 v 0.81265 0.81264 l -0.37797,0.37798 -0.37798,0.37798 h -0.81265 -0.81265 v 0.26458 0.26458 h 1.07723 1.07724 l 0.37797,-0.37797 0.37798,-0.37798 v -1.07723 -1.07723 h 0.26458 0.26459 v -0.79375 -0.79375 h 0.26458 0.26458 v -1.19063 -1.19062 h 0.26459 0.26458 v -1.05834 -1.05833 h 0.26458 0.26459 v -1.19063 -1.19062 h -0.26459 -0.26458 v 0.66146 0.66146 h -0.26458 -0.26459 v 0.52916 0.52917 h -0.26458 -0.26458 v 0.42301 0.42302 l -0.79375,0.74147 -0.79375,0.74147 v 0.29072 0.29073 h -0.26459 -0.26458 v 0.52916 0.52917 h -0.39688 -0.39687 v 0.41405 0.41406 l -1.32292,1.28856 -1.32291,1.28856 v 0.28176 0.28176 h -0.52917 -0.52917 v 0.26458 0.26459 h -0.39687 -0.39688 v 0.26458 0.26458 h 0.39688 0.39687 z m -24.719641,-0.64256 0.377976,-0.37798 v -0.17009 -0.17008 l 0.377976,-0.37798 0.377977,-0.37798 h 0.283482 0.283482 v -0.47075 -0.47076 l 0.529166,-0.3814 0.529167,-0.38141 v -0.3646 -0.3646 l 0.79375,-0.74148 0.79375,-0.74147 v -0.4969 -0.49689 l 0.529167,-0.3814 0.529166,-0.38141 v -0.47075 -0.47076 h -1.322916 -1.322917 v 0.26458 0.26459 h -1.168576 -1.168577 l -0.15434,-0.33073 -0.15434,-0.33073 -0.15434,0.33073 -0.154341,0.33073 h -3.549826 -3.549826 v 2.24895 2.24896 h 0.139254 0.139254 l 1.183663,-1.18366 1.183662,-1.18366 v -0.27155 -0.27154 h 0.828861 0.828862 l 0.529677,-0.59532 0.529677,-0.59531 0.118718,0.33073 0.118719,0.33073 h 0.507118 0.507118 v 1.19062 1.19063 h 0.264583 0.264583 v 1.03628 1.03629 l 0.33073,0.15434 0.330729,0.15434 -0.330729,0.15434 -0.33073,0.15434 v 0.63941 0.63941 h -0.264583 -0.264583 v 0.26458 0.26459 h 0.15119 0.151191 z m 21.809231,0.11339 v -0.26458 h 0.79375 0.79375 v -0.54807 -0.54806 l 0.37797,-0.37798 0.37798,-0.37797 h 0.28348 0.28348 v -0.26459 -0.26458 h 0.52917 0.52917 v -0.52917 -0.52916 h 0.26458 0.26458 v -0.26459 -0.26458 h -0.52916 -0.52917 v -0.26458 -0.26459 h -1.45521 -1.45521 v 0.40384 0.40384 l -1.18366,1.18366 -1.18366,1.18366 h -0.42274 -0.42274 l -0.37797,0.37798 -0.37798,0.37798 v 0.28348 0.28348 h -0.26458 -0.26458 v 0.26458 0.26459 h 1.98437 1.98438 z m -27.516671,-0.66146 v -0.39687 h 0.264583 0.264583 v -0.79375 -0.79375 h 0.264584 0.264583 v -0.52917 -0.52916 h 0.264583 0.264584 v -0.52917 -0.52917 h -0.151191 -0.15119 l -0.377977,0.37798 -0.377976,0.37798 v 0.35736 0.35736 l -0.529166,0.38141 -0.529167,0.3814 v 0.47076 0.47075 h -0.264583 -0.264584 v 0.66146 0.66146 h 0.529167 0.529167 z m 12.964583,0 v -0.39687 h 0.264583 0.264583 v -0.26458 -0.26459 h -0.529166 -0.529167 v 0.66146 0.66146 h 0.264583 0.264584 z m 4.497918,0.1134 v -0.28348 l -0.37798,-0.37798 -0.37797,-0.37798 h -0.54807 -0.548065 v 0.66146 0.66146 h 0.926042 0.926043 z m 3.43958,-1.17173 v -1.45521 h -0.39687 -0.39688 v 0.41578 0.41577 l -0.37797,0.37798 -0.37798,0.37797 h -0.30238 -0.30238 l -0.37798,0.37798 -0.37797,0.37798 v 0.28348 0.28348 h 1.4552 1.45521 z m -8.995832,-0.13229 v -0.79375 h -0.396875 -0.396875 v 0.79375 0.79375 h 0.396875 0.396875 z m 11.839002,-0.70886 0.97345,-0.97345 -0.32081,-0.10694 -0.32081,-0.10693 v -0.24254 -0.24253 h 0.66146 0.66146 v -0.26458 -0.26459 h -0.81265 -0.81265 l -0.42089,0.42089 -0.42088,0.42089 0.37364,0.26071 0.37364,0.26072 -0.33073,0.13419 -0.33073,0.1342 v 0.50712 0.50712 h -0.26458 -0.26459 v 0.26458 0.26458 h 0.14111 0.14111 z m -5.22442,-0.87864 v -0.26458 h 0.52917 0.52917 v -0.47076 -0.47076 l -0.52917,-0.3814 -0.52917,-0.3814 v -0.86763 -0.86764 h 0.26459 0.26458 v 0.52917 0.52917 h 0.26458 0.26459 v -0.40891 -0.4089 l -0.6775,-0.67749 -0.67749,-0.67749 -0.1824,0.19657 -0.18241,0.19658 0.33073,0.11812 0.33073,0.11811 v 0.24254 0.24253 h -0.52916 -0.52917 v 0.92604 0.92605 h -0.26458 -0.26459 v 0.79375 0.79375 h 0.52917 0.52917 v 0.26458 0.26458 h 0.26458 0.26458 z m -6.614582,-2.13557 v -0.28348 l 0.377977,-0.37797 0.377976,-0.37798 h 0.415774 0.415773 v -0.41577 -0.41578 l -0.396875,-0.39687 -0.396875,-0.39688 -0.396875,0.39688 -0.396875,0.39687 v 0.41578 0.41577 h -0.283482 -0.283482 l -0.377976,0.37798 -0.377976,0.37797 v 0.28348 0.28349 h 0.661458 0.661458 z m 13.493752,-0.11339 v -0.39687 h 0.26458 0.26459 v -0.26459 -0.26458 h -0.66146 -0.66146 v 0.26458 0.26459 h -0.52917 -0.52916 v 0.39687 0.39688 h 0.92604 0.92604 z m 7.67292,0 v -0.39687 h -0.79375 -0.79375 v 0.39687 0.39688 h 0.79375 0.79375 z m 0.15119,-1.30402 0.37797,-0.37797 v -0.41578 -0.41577 h 0.26459 0.26458 v -0.52917 -0.52916 h 0.39687 0.39688 v -0.54991 -0.54991 l 1.05833,-1.01685 1.05834,-1.01685 v -0.41761 -0.41762 h 0.52916 0.52917 v -0.52917 -0.52917 h 0.66146 0.66146 v -0.80577 -0.80578 l 0.64943,-0.64943 0.64943,-0.64943 h 0.38685 0.38685 l 0.15434,-0.33073 0.15435,-0.33073 0.15434,0.33073 0.15434,0.33073 h 0.50711 0.50712 v -0.41578 -0.41577 l -0.37797,-0.37798 -0.37798,-0.37797 h -0.41577 -0.41578 v -0.26459 -0.26458 h -0.79375 -0.79375 v -0.39687 -0.39688 h -2.91041 -2.91042 v 0.39688 0.39687 h -0.6822 -0.68221 l -1.01684,1.05833 -1.01685,1.05834 h -4.00152 -4.00152 l -0.64943,0.64943 -0.64943,0.64943 v 0.4278 0.4278 l -0.37798,0.37798 -0.37797,0.37797 h -0.28349 -0.28348 v 0.52917 0.52917 h -0.26458 -0.26458 v 0.52916 0.52917 h -0.26459 -0.26458 v 0.79375 0.79375 h -0.26458 -0.26459 v 0.54119 0.5412 l 0.64943,0.64943 0.64944,0.64943 h 0.78372 0.78373 l 0.11812,0.33073 0.11812,0.33073 0.21093,-0.19676 0.21093,-0.19676 -0.57158,-0.49573 -0.57159,-0.49574 v -0.43198 -0.43199 h 0.26459 0.26458 v -0.28348 -0.28348 l 0.42088,-0.42089 0.42089,-0.42089 0.26072,0.37364 0.26071,0.37364 0.1342,-0.33073 0.1342,-0.33073 h 0.50711 0.50712 v -0.79375 -0.79375 h 0.26459 0.26458 v 1.45521 1.45521 h -0.26458 -0.26459 v 1.05833 1.05834 h 0.26459 0.26458 v -0.52917 -0.52917 h 0.66146 0.66146 v 0.79375 0.79375 h 0.68035 0.68036 l 0.37798,-0.37797 0.37797,-0.37798 v -0.30962 -0.30962 l 0.79375,-0.74147 0.79375,-0.74148 v -0.29072 -0.29072 h 0.39688 0.39687 v -0.4089 -0.4089 l 0.64943,-0.64943 0.64944,-0.64944 h 0.14431 0.14432 v 0.52917 0.52917 h -0.26458 -0.26458 v 0.52916 0.52917 h -0.26459 -0.26458 v 0.54807 0.54806 l -0.37798,0.37798 -0.37797,0.37797 h -0.28349 -0.28348 v 0.52917 0.52917 h -0.26458 -0.26458 v 0.26458 0.26458 h 0.92604 0.92604 v -0.24253 -0.24254 l -0.33073,-0.11871 -0.33073,-0.11872 0.59531,-0.52968 0.59532,-0.52968 v -0.43198 -0.43199 h 0.26458 0.26458 v -0.39688 -0.39687 h 0.52917 0.52917 v -0.4089 -0.4089 l 0.64943,-0.64943 0.64943,-0.64944 h 0.25456 0.25456 l 0.11812,-0.33073 0.11812,-0.33073 0.20001,0.18584 0.20001,0.18584 -0.40947,0.40948 -0.40948,0.40947 h -0.28348 -0.28348 v 0.52917 0.52916 h -0.26458 -0.26459 v 0.66146 0.66146 h -0.26458 -0.26458 v 0.52917 0.52916 h -0.26459 -0.26458 v 0.47076 0.47076 l -0.52917,0.3814 -0.52916,0.3814 v 0.20618 0.20617 h 0.68035 0.68036 z m 2.23006,-6.97194 v -0.20618 l 0.52916,-0.3814 0.52917,-0.3814 v -0.33847 -0.33846 h 0.26458 0.26459 v 0.54806 0.54807 l -0.37798,0.37797 -0.37798,0.37798 h -0.41577 -0.41577 z m -12.43542,6.027 v -0.79375 h -0.26458 -0.26459 v 0.79375 0.79375 h 0.26459 0.26458 z m -6.614585,-0.79375 v -1.05833 H 99.45276 99.055885 v 1.05833 1.05834 h 0.396875 0.396875 z m -15.875,-0.26458 v -0.26458 h -0.79375 -0.79375 v 0.26458 0.26458 h 0.79375 0.79375 z m 3.96875,-0.26458 v -0.52917 h -0.529166 -0.529167 v 0.52917 0.52916 h 0.529167 0.529166 z m -5.55625,-0.904 v -0.37482 l -0.330729,-0.15434 -0.330729,-0.15434 0.330729,-0.15434 0.330729,-0.15434 v -0.50712 -0.50712 h 0.264584 0.264583 v -0.79375 -0.79375 h -0.264583 -0.264584 v 0.26458 0.26459 h -0.529166 -0.529167 v 0.26458 0.26458 h -0.661458 -0.661459 v 0.15119 0.15119 l 0.377976,0.37798 0.377977,0.37798 h 0.283482 0.283482 v 0.92604 0.92604 h 0.529167 0.529166 z m 8.466667,0 v -0.37482 l 0.330729,-0.11812 0.330729,-0.11812 -0.23466,-0.23466 -0.23466,-0.23466 -0.118118,0.33073 -0.118117,0.33073 h -0.374827 -0.374826 v 0.39687 0.39688 h 0.396875 0.396875 z m -19.84375,-0.6835 v -0.26459 h 0.661458 0.661459 v 0.26459 0.26458 h 0.264583 0.264583 v -0.79375 -0.79375 h -0.639409 -0.63941 l -0.109456,0.32837 -0.109455,0.32836 -0.44176,-0.44176 -0.44176,-0.44176 v -0.41577 -0.41577 h 0.264584 0.264583 v -0.52917 -0.52917 h 1.341816 1.341815 l 0.377976,-0.37797 0.377976,-0.37798 v -0.28348 -0.28348 h 0.264584 0.264583 v 0.39687 0.39688 h 0.264583 0.264584 v -0.92605 -0.92604 h -0.264584 -0.264583 v -0.68035 -0.68036 l -0.44176,-0.44176 -0.441759,-0.44176 -0.109456,0.32837 -0.109456,0.32836 h -1.830034 -1.830035 v 3.41795 3.41794 l 0.160599,0.41852 0.160599,0.41851 h 0.236276 0.236276 z m 12.964583,-1.05834 v -0.79375 h 0.264584 0.264583 v -0.26458 -0.26458 h -0.529167 -0.529166 v 1.05833 1.05833 h 0.264583 0.264583 z m 39.422915,-0.24253 v -0.50712 l 0.33073,-0.11812 0.33073,-0.11811 -0.18584,-0.20002 -0.18584,-0.20001 -0.40947,0.40947 -0.40947,0.40948 v 0.41577 0.41578 h 0.26458 0.26458 z m -21.28006,-1.45836 0.37798,-0.37798 v -0.41577 -0.41577 h 0.52917 0.52916 v -0.39688 -0.39687 h 0.27661 0.27661 l 0.64943,-0.64944 0.64944,-0.64943 v -0.4089 -0.4089 h 0.26458 0.26458 v -1.71979 -1.71979 h -0.15119 -0.15119 l -0.37798,0.37797 -0.37797,0.37798 v 0.43467 0.43467 l -0.37798,0.37798 -0.37797,0.37798 h -0.16322 -0.16322 l -0.64943,0.64943 -0.64943,0.64943 v 0.4089 0.4089 h -0.26458 -0.26459 v 0.52917 0.52917 h -0.26458 -0.26458 v 1.19062 1.19063 h 0.15119 0.15119 z m 50.91339,-0.41577 v -0.26459 h -0.79375 -0.79375 v 0.26459 0.26458 h 0.79375 0.79375 z m -13.49375,-3.31932 v -0.14432 l -0.64943,-0.64943 -0.64943,-0.64943 h -0.4089 -0.4089 v -0.26459 -0.26458 h -1.71979 -1.7198 v -0.39687 -0.39688 h -0.26458 -0.26458 v 0.39688 0.39687 h -1.71979 -1.7198 v 0.26458 0.26459 h -1.05833 -1.05833 v 0.26458 0.26458 h 1.32291 1.32292 v 0.26459 0.26458 h 1.19063 1.19062 v -0.26458 -0.26459 h 2.51354 2.51354 v 0.26459 0.26458 h 0.52917 0.52917 v 0.26458 0.26459 h 0.26458 0.26458 z m -26.45833,-1.1786 v -0.79375 h 0.39688 0.39687 v -2.24896 -2.24896 h -0.92604 -0.92604 v 0.26459 0.26458 h 0.52917 0.52916 v 0.79375 0.79375 h -0.52916 -0.52917 v -0.52917 -0.52916 h -2.22691 -2.22691 l -0.11812,0.33073 -0.11812,0.33073 -0.23466,-0.23467 -0.23466,-0.23466 0.33073,-0.11811 0.33073,-0.11812 v -0.50712 -0.50712 h -0.26458 -0.26458 v 0.52917 0.52917 h -0.26459 -0.26458 v 2.24896 2.24895 h 1.71979 1.71979 v 0.26459 0.26458 h 1.5875 1.5875 z m -4.23333,-0.52917 v -0.26458 h -0.92604 -0.92604 v -1.19062 -1.19063 h 0.52916 0.52917 v 0.79375 0.79375 h 1.92596 1.92597 l 0.3814,-0.52917 0.3814,-0.52916 h 0.20618 0.20617 v 0.81265 0.81264 l -0.37797,0.37798 -0.37798,0.37798 h -1.18748 -1.18747 l -0.15434,-0.33073 -0.15434,-0.33073 -0.15434,0.33073 -0.15434,0.33073 h -0.24254 -0.24253 z m -34.925001,-0.66145 v -0.39688 h 0.529166 0.529167 v 0.39688 0.39687 h 0.529167 0.529166 v -0.39687 -0.39688 h 2.645834 2.645833 v -0.26458 -0.26459 h -1.984375 -1.984375 v -0.26458 -0.26458 H 76.43401 75.507969 v -0.26459 -0.26458 h -0.79375 -0.79375 v -0.26458 -0.26459 h -0.470758 -0.470757 l -0.381402,-0.52916 -0.381402,-0.52917 h -0.338465 -0.338466 v 0.26458 0.26459 H 70.87776 70.216302 v 1.32291 1.32292 h 1.5875 1.5875 v 0.39688 0.39687 h 0.264583 0.264584 z m 54.504161,-0.66146 v -0.26459 h -0.26458 -0.26458 v -0.7717 -0.7717 l -0.33073,-0.15434 -0.33073,-0.15434 0.33073,-0.15434 0.33073,-0.15434 v -0.50712 -0.50712 h -0.66146 -0.66146 v -0.39687 -0.39688 h -0.26458 -0.26458 v 0.33847 0.33847 l -0.52917,0.3814 -0.52917,0.3814 v 1.26451 1.2645 h 0.52917 0.52917 v 0.26459 0.26458 h 1.19062 1.19062 z m -35.302971,-1.17173 0.377976,-0.37798 v -0.15119 -0.15119 h -0.79375 -0.79375 v 0.14346 0.14346 l 0.330729,0.37564 0.330729,0.37565 0.08504,0.0101 0.08505,0.0101 z m 3.817559,0.11339 v -0.26458 h -0.79375 -0.79375 v 0.26458 0.26459 h 0.79375 0.79375 z m 6.236612,-0.11339 0.37797,-0.37798 v -1.60639 -1.6064 h 0.39688 0.39687 v -0.52917 -0.52917 h -0.39687 -0.39688 v 0.52917 0.52917 h -0.26458 -0.26458 v 0.92604 0.92604 h -0.26459 -0.26458 v 0.52917 0.52916 h -0.26458 -0.26459 v 0.52917 0.52917 h 0.41578 0.41577 z m 27.36547,0.11339 v -0.26458 h 0.52917 0.52916 v -0.26458 -0.26459 h -0.52916 -0.52917 v -0.79375 -0.79375 h -0.52917 -0.52916 v 0.52917 0.52917 h 0.26458 0.26458 v 0.79375 0.79375 h 0.26459 0.26458 z m -24.60625,-2.24895 v -1.45521 h -0.52916 -0.52917 v 1.0695 1.0695 l 0.33073,0.37564 0.33073,0.37565 0.19843,0.0101 0.19844,0.0101 z m 31.48542,-1.98438 v -1.05833 h -0.26459 -0.26458 v 0.52916 0.52917 h -0.66146 -0.66146 v 0.26458 0.26459 h 0.66146 0.66146 v 0.26458 0.26458 h 0.26458 0.26459 z m -12.43542,-0.52917 v -1.05833 h -0.26458 -0.26458 v 1.05833 1.05834 h 0.26458 0.26458 z m -19.42797,-0.90714 0.37797,-0.37798 v -0.41577 -0.41577 h -0.26458 -0.26458 v 0.26458 0.26458 h -0.52917 -0.52917 v 0.26459 0.26458 h -0.39687 -0.39688 v 0.26458 0.26459 h 0.81265 0.81265 z m 25.51339,-0.15119 v -0.52917 h -0.52917 -0.52917 v 0.52917 0.52917 h 0.52917 0.52917 z M 113.0788,179.0482 v -0.79375 h -0.52916 -0.52917 v 0.26458 0.26459 h 0.26458 0.26459 v 0.52916 0.52917 h 0.26458 0.26458 z m -3.70416,-1.16858 v -0.90399 l -0.33073,-0.15434 -0.33073,-0.15434 0.33073,-0.15434 0.33073,-0.15434 v -0.39373 -0.39372 l -0.37798,-0.37798 -0.37798,-0.37797 h -0.28348 -0.28348 v 1.05833 1.05833 h 0.39687 0.39688 v 0.92605 0.92604 h 0.26458 0.26459 z m 2.64583,-1.89303 v -0.41577 l -0.37798,-0.37798 -0.37797,-0.37797 h -0.41578 -0.41577 v 0.26458 0.26458 h 0.52917 0.52916 v 0.52917 0.52917 h 0.26459 0.26458 z m 9.525,0.15119 v -0.26458 h 0.66146 0.66146 v -0.26458 -0.26459 h -0.37483 -0.37483 l -0.15434,-0.33073 -0.15434,-0.33072 -0.15434,0.33072 -0.15434,0.33073 h -0.50712 -0.50711 v -0.26458 -0.26458 h -0.52917 -0.52917 v 0.26458 0.26458 h 0.26459 0.26458 v 0.52917 0.52917 h 0.79375 0.79375 z m 1.85208,-3.70416 v -0.52917 h -0.66146 -0.66145 v 0.26458 0.26459 h 0.39687 0.39688 v 0.26458 0.26458 h 0.26458 0.26458 z"
       id="path3" /></g></svg>
