<?xml version="1.0" encoding="UTF-8" standalone="no"?>
<!-- Created with Inkscape (http://www.inkscape.org/) -->

<svg
   width="101.60001mm"
   height="84.666656mm"
   viewBox="0 0 101.60001 84.666656"
   version="1.1"
   id="svg1"
   xml:space="preserve"
   xmlns="http://www.w3.org/2000/svg"
   xmlns:svg="http://www.w3.org/2000/svg"><defs
     id="defs1" /><g
     id="layer1"
     transform="translate(-66.180818,-145.26359)"><path
       style="fill:#ffffff;fill-opacity:1"
       d="m 66.180816,187.59691 v -42.33333 h 50.800004 50.8 v 42.33333 42.33333 h -50.8 -50.800004 z m 22.489583,41.14271 0.329377,-0.39688 h 0.380093 0.380093 l -0.167527,0.33073 -0.167528,0.33073 0.35035,-0.42136 0.35035,-0.42136 0.926042,-0.3043 0.926042,-0.30431 0.727604,-0.0597 0.727604,-0.0597 v -0.23994 -0.23995 l 0.79375,0.15875 0.79375,0.15875 v -0.23745 -0.23745 l 0.886817,-0.29268 0.886817,-0.29267 0.807196,-0.0586 0.807196,-0.0586 -0.101259,-0.16467 -0.10126,-0.16467 0.980629,-0.15913 0.980625,-0.15914 0.2312,0.2312 0.23121,0.2312 0.49881,-0.49881 0.49881,-0.49881 0.65706,0.29938 0.65706,0.29937 -0.16488,0.26678 -0.16487,0.26677 0.3227,-0.19944 0.3227,-0.19944 -0.48026,-0.5414 -0.48026,-0.54139 0.57792,0.30308 0.57792,0.30308 h 0.13029 0.13028 l 0.121,-0.46302 0.121,-0.46302 0.0307,0.59531 0.0307,0.59531 h -0.3175 -0.3175 l 0.3175,0.3175 0.3175,0.3175 v 1.53459 1.53458 h 0.80535 0.80535 l -0.0777,-0.46302 -0.0778,-0.46302 0.5666,0.0579 0.5666,0.0579 0.12614,-0.48235 0.12613,-0.48235 -0.0939,-1.8111 -0.0939,-1.81109 0.2839,-0.17546 0.28389,-0.17545 -1.83427,-0.18075 -1.83427,-0.18074 -0.76823,-0.2512 -0.76822,-0.2512 1.25677,0.13093 1.25677,0.13092 1.22715,0.17082 1.22714,0.17082 -0.13907,-3.87499 -0.13907,-3.87498 h 0.43237 0.43238 l 1.98528,-0.63522 1.98528,-0.63522 1.32291,-0.40283 1.32292,-0.40284 0.79375,0.16082 0.79375,0.16081 -0.66146,0.18941 -0.66146,0.1894 0.88821,0.0264 0.8882,0.0264 -0.1606,0.41852 -0.1606,0.41851 v 0.90944 0.90945 l -0.59531,-0.15003 -0.59531,-0.15003 0.0879,1.86478 0.0879,1.86478 h 0.12372 0.12371 l 0.78062,-0.40367 0.78061,-0.40367 v 1.04623 1.04623 l 0.41577,0.41577 0.41577,0.41577 h 0.51027 0.51027 l 0.16886,-0.0226 0.16885,-0.0226 0.22397,0.35332 0.22397,0.35333 0.004,0.16976 0.004,0.16975 -0.69066,0.17334 -0.69065,0.17335 -1.16143,0.54593 -1.16143,0.54594 v 0.36996 0.36995 l 1.78594,-0.15578 1.78594,-0.15579 0.0832,-0.22845 0.0832,-0.22844 0.38315,0.14703 0.38315,0.14703 0.40307,-0.33452 0.40307,-0.33452 0.76293,0.73093 0.76292,0.73093 0.35199,-0.14054 0.35199,-0.14054 -0.47864,-0.0209 -0.47864,-0.0209 0.18181,-0.29416 0.1818,-0.29417 -0.35696,-0.22061 -0.35697,-0.22062 0.1796,-0.1796 0.17961,-0.1796 0.84197,0.70847 0.84197,0.70848 0.35983,-0.13808 0.35982,-0.13808 v 0.27189 0.2719 l 0.29284,-0.18098 0.29283,-0.18098 -0.32115,-0.19848 -0.32114,-0.19848 0.17136,-0.53993 0.17137,-0.53993 -0.32031,-0.19796 -0.3203,-0.19797 0.15745,0.41034 0.15746,0.41033 -0.50937,-0.13321 -0.50937,-0.1332 v -0.24934 -0.24934 l -0.26458,0.16352 -0.26459,0.16352 v -0.28019 -0.2802 h 0.77814 0.77813 l 0.14379,0.23264 0.14378,0.23265 0.53366,0.13955 0.53365,0.13956 -0.14827,-0.23991 -0.14827,-0.23991 h 0.4281 0.42811 l -0.14903,0.24114 -0.14903,0.24113 0.99872,0.16874 0.99872,0.16873 0.39147,0.24367 0.39146,0.24367 -0.8654,0.17438 -0.8654,0.17439 -0.11541,0.18674 -0.11541,0.18673 1.1131,-0.18381 1.1131,-0.18382 0.79,-0.42832 0.79,-0.42833 0.19366,0.52352 0.19367,0.52352 0.60383,-0.0209 0.60384,-0.0209 -0.33073,-0.13345 -0.33073,-0.13346 v -0.21616 -0.21617 l 1.12448,0.0692 1.12448,0.0691 1.34497,0.2007 1.34496,0.20069 0.0331,-0.4285 0.0331,-0.42851 0.0331,-1.18595 0.0331,-1.18596 -0.18263,-0.83152 -0.18263,-0.83152 0.29287,0.18101 0.29288,0.181 v -0.4281 -0.42811 l -0.26458,0.16353 -0.26459,0.16352 v -0.54478 -0.54479 l 0.003,-0.19843 0.003,-0.19844 0.45962,-0.0149 0.45961,-0.0149 0.57791,-0.31581 0.57792,-0.3158 h 0.64646 0.64645 l 0.33469,-0.40327 0.33468,-0.40327 -0.15565,-0.15565 -0.15566,-0.15566 -1.238,0.42183 -1.238,0.42183 -0.27243,-0.16837 -0.27243,-0.16837 0.18931,0.3063 0.1893,0.3063 -2.40656,-0.0446 -2.40656,-0.0446 -0.24179,0.24218 -0.24179,0.24218 -0.0447,2.81257 -0.0447,2.81257 -1.20274,0.16486 -1.20274,0.16485 -0.13315,-0.13316 -0.13316,-0.13315 h 0.41484 0.41484 l 0.54072,-0.91646 0.54072,-0.91645 0.18326,-2.25855 0.18325,-2.25854 -0.63169,-0.0104 -0.6317,-0.0104 0.85989,-0.37374 0.8599,-0.37375 -0.004,-0.87267 -0.004,-0.87266 -0.22371,0.35291 -0.22371,0.35291 -0.16911,-0.4407 -0.16912,-0.4407 v -1.95769 -1.95769 l 0.72761,-0.16636 0.7276,-0.16636 1.05833,-0.33869 1.05834,-0.33869 1.5875,-0.34186 1.5875,-0.34186 -0.79375,-0.18516 -0.79375,-0.18516 -1.2237,-0.0313 -1.2237,-0.0313 -0.82682,-0.16537 -0.82682,-0.16536 v -0.74511 -0.7451 l 1.12448,-0.25285 1.12447,-0.25284 -2.01306,0.14064 -2.01307,0.14064 -1.22808,-0.18416 -1.22808,-0.18417 v -0.88778 -0.88778 l -0.2669,-0.0882 -0.2669,-0.0882 2.44971,-0.0537 2.44972,-0.0537 2.64583,-0.11221 2.64583,-0.11222 0.59028,-0.0325 0.59027,-0.0325 0.17807,-0.72761 0.17807,-0.7276 0.28999,-0.19439 0.28999,-0.19438 0.30287,-0.004 0.30286,-0.004 -0.20885,0.92605 -0.20886,0.92604 h 0.20365 0.20364 l 0.15875,-0.79375 0.15875,-0.79375 h 0.51374 0.51373 l 0.15434,0.33073 0.15434,0.33073 0.16432,-0.36067 0.16432,-0.36067 0.23939,0.36067 0.23939,0.36067 -0.0714,-1.52136 -0.0715,-1.52135 h -0.14598 -0.14588 l -0.0624,-0.92604 -0.0624,-0.92605 h 0.49966 0.49967 l 0.0106,1.12448 0.0106,1.12448 0.0272,1.25677 0.0272,1.25677 h 0.40518 0.40518 l 0.16081,-0.41905 0.16081,-0.41906 0.2241,0.35291 0.22411,0.35291 -0.0411,-1.15864 -0.0411,-1.15865 -0.34943,0.47787 -0.34943,0.47788 -0.20117,-0.21535 -0.20117,-0.21534 0.28576,-0.10313 0.28577,-0.10313 -0.0759,-1.5143 -0.0759,-1.51429 0.14658,0.52917 0.14658,0.52916 0.2389,0.25136 0.2389,0.25135 v -0.99635 -0.99635 l -0.29098,-0.54371 -0.29098,-0.5437 0.29098,0.17984 0.29098,0.17983 v -1.48643 -1.48644 l -0.26458,0.16352 -0.26458,0.16352 v -0.41249 -0.41249 h 0.52916 0.52917 l 0.004,-0.7276 0.004,-0.72761 0.21681,0.34176 0.21682,0.34175 2.04246,-0.0474 2.04245,-0.0473 -0.13541,-0.35289 -0.13541,-0.35289 0.42854,-0.42854 0.42854,-0.42854 -0.37364,-0.23652 -0.37364,-0.23652 0.39688,-0.008 0.39687,-0.008 -0.39687,-0.25648 -0.39688,-0.25648 0.39688,-0.0243 0.39687,-0.0243 0.45482,-0.0874 0.45481,-0.0874 -0.0579,0.30611 -0.0579,0.30611 0.44307,-0.0732 0.44307,-0.0732 0.19313,0.31248 0.19312,0.31248 -0.36674,-0.22666 -0.36674,-0.22665 0.57566,0.73183 0.57566,0.73182 -0.14496,0.37776 -0.14496,0.37776 0.42433,0.16283 0.42432,0.16283 v 0.38418 0.38418 l 0.26459,-0.16352 0.26458,-0.16352 v 0.2802 0.2802 h -0.26458 -0.26459 v 0.24518 0.24518 l 0.33073,0.11069 0.33073,0.11069 -0.7276,-0.11231 -0.72761,-0.11231 v 0.4179 0.41789 h -0.92604 -0.92604 v 2.09884 2.09884 l -0.52917,0.16795 -0.52916,0.16795 -0.59532,-0.14768 -0.59531,-0.14768 0.33073,0.1519 0.33073,0.1519 v 0.35182 0.35181 l -1.7293,0.0133 -1.7293,0.0133 -0.25508,0.15764 -0.25507,0.15764 v 1.96876 1.96876 h 1.47082 1.47083 l -0.17659,-0.28572 -0.17659,-0.28573 0.55785,-0.39074 0.55785,-0.39073 0.004,-0.44802 0.004,-0.44801 0.25783,-0.39688 0.25784,-0.39687 -0.11274,1.25677 -0.11273,1.25677 h 1.17376 1.17377 v -0.66146 -0.66146 h 0.26458 0.26458 l -0.0661,-0.33073 -0.0661,-0.33073 -0.26458,-0.21858 -0.26458,-0.21858 0.33073,-0.1342 0.33073,-0.13419 v -0.50712 -0.50712 h -0.26459 -0.26458 v -0.39687 -0.39688 h 1.05833 1.05834 v 0.26458 0.26459 h -0.26459 -0.26458 v 0.2802 0.28019 l 0.24198,-0.14955 0.24199,-0.14956 0.134,0.33238 0.134,0.33238 0.0209,-0.8599 0.0209,-0.85989 h -0.3463 -0.34631 l -0.51359,-0.3922 -0.51359,-0.39221 0.8599,0.16069 0.85989,0.1607 v -1.2678 -1.26779 l 0.19263,0.19262 0.19262,0.19262 0.17697,1.37283 0.17696,1.37283 -0.0172,-1.98438 -0.0172,-1.98437 h 0.3752 0.37519 l 0.13696,-2.24896 0.13695,-2.24896 0.13626,1.98438 0.13625,1.98437 -0.27321,0.39688 -0.27321,0.39687 0.15171,1.85209 0.15172,1.85208 0.0467,-2.05052 0.0467,-2.05052 h 0.24546 0.24547 l -0.15019,-1.45521 -0.15019,-1.45521 h 0.2832 0.28319 l 0.11467,0.59531 0.11466,0.59532 0.036,-1.38907 0.036,-1.38906 h 0.24897 0.24896 l 0.16404,0.26542 0.16404,0.26541 -0.009,2.645 -0.009,2.645 0.32397,0.004 0.32398,0.004 -0.26459,0.19438 -0.26458,0.19439 -0.0777,0.46302 -0.0777,0.46302 h 0.54076 0.54077 v -0.64584 -0.64585 l -0.26458,-0.16352 -0.26459,-0.16352 v -0.27983 -0.27982 l 0.51208,0.13391 0.51208,0.13391 0.14938,-0.38928 0.14938,-0.38927 v -0.50753 -0.50753 h 0.2802 0.2802 l -0.16353,0.26459 -0.16352,0.26458 h 0.23977 0.23977 l 0.26012,0.58296 0.26012,0.58296 0.0372,-0.98931 0.0372,-0.98931 -0.62137,-0.23625 -0.62137,-0.23624 0.28415,-1.27563 0.28414,-1.27564 0.1719,-0.13229 0.17189,-0.13229 0.20565,-0.79375 0.20565,-0.79375 0.12172,0.33073 0.12172,0.33073 h 0.24254 0.24253 l -0.004,-0.59531 -0.004,-0.59532 -0.14261,-0.53058 -0.14261,-0.53059 -0.97826,-0.42707 -0.97825,-0.42708 1.26175,0.0673 1.26175,0.0673 -0.0919,-0.69718 -0.0919,-0.69719 -1.03756,-0.0455 -1.03755,-0.0455 0.52916,0.13735 0.52917,0.13735 0.26458,0.27772 0.26459,0.27771 -0.31497,-0.17698 -0.31496,-0.17697 -1.60327,-0.0226 -1.60326,-0.0226 v -0.50073 -0.50073 h 0.76857 0.76857 l -0.14677,-1.12447 -0.14677,-1.12448 -0.29107,-0.19439 -0.29107,-0.19439 -0.66146,0.0168 -0.66146,0.0168 0.33073,0.13345 0.33073,0.13345 v 0.25815 0.25815 l -0.26459,-0.16352 -0.26458,-0.16352 -0.0305,0.34634 -0.0305,0.34635 0.0512,0.48744 0.0512,0.48744 -0.61608,-0.19237 -0.61608,-0.19238 -0.19439,-0.29507 -0.19438,-0.29506 -0.004,0.33073 -0.004,0.33072 h -0.28936 -0.28935 l -0.13838,-0.52916 -0.13838,-0.52917 -0.82904,6e-4 -0.82903,5.9e-4 0.0879,-1.85268 0.0879,-1.85267 h -0.0896 -0.0896 l -0.85815,0.24611 -0.85815,0.24611 v -0.49286 -0.49287 l -0.54911,-0.17428 -0.5491,-0.17428 -0.1323,0.13229 -0.13229,0.13229 0.5228,0.16593 0.52281,0.16593 0.12791,0.58584 0.1279,0.58583 -0.0355,1.65368 -0.0355,1.65369 0.19844,-4e-5 0.19844,-4e-5 v 0.39687 0.39688 h -0.47965 -0.47965 l 0.0166,-1.25677 0.0166,-1.25677 h -1.32291 -1.32292 l -0.30813,-0.20009 -0.30813,-0.20009 -0.134,0.33238 -0.134,0.33238 -0.0209,-1.25677 -0.0209,-1.25677 h -0.50711 -0.50712 l -0.13345,-0.33073 -0.13345,-0.33073 -0.0209,0.8599 -0.0209,0.85989 h 0.24519 0.24518 l 0.11372,-0.33073 0.11372,-0.33073 -0.0907,0.52917 -0.0907,0.52917 -0.004,0.7276 -0.004,0.7276 h -1.16513 -1.16509 l -0.0917,1.27438 -0.0917,1.27438 0.2882,0.57614 0.2882,0.57614 0.17482,-0.17483 0.17482,-0.17482 v 0.30038 0.30038 l 0.4394,-0.16862 0.43941,-0.16861 -0.14989,0.57317 -0.14989,0.57318 0.83496,-0.11845 0.83497,-0.11845 -0.33073,0.14111 -0.33073,0.14112 v 1.04459 1.04459 l -0.39687,0.15229 -0.39688,0.1523 v 0.40256 0.40256 l 2.11667,-0.12253 2.11666,-0.12253 v 0.22083 0.22083 h -1.05833 -1.05833 l -0.004,0.33073 -0.004,0.33073 -0.21628,-0.34089 -0.21628,-0.34089 -1.72879,0.0476 -1.72879,0.0476 -0.36598,-0.22049 -0.36599,-0.22048 0.36313,0.44766 0.36312,0.44766 0.69521,0.0313 0.69521,0.0313 -0.79375,0.18482 -0.79375,0.18482 -0.58595,-0.20601 -0.58594,-0.20602 -0.14523,0.23499 -0.14522,0.23498 -0.85459,-0.24509 -0.85458,-0.2451 h -0.0835 -0.0835 l 0.16352,0.26459 0.16352,0.26458 h -0.52362 -0.52373 l -0.1562,1.65365 -0.1562,1.65364 0.0445,0.39688 0.0445,0.39687 -0.0417,1.54366 -0.0417,1.54365 -2.91042,-0.18863 -2.91041,-0.18863 v 1.20261 1.20262 l 0.33073,0.1342 0.33073,0.1342 -0.39688,0.28067 -0.39687,0.28067 -0.19844,0.004 -0.19844,0.004 v -1.56586 -1.56586 l -0.16002,-0.417 -0.16001,-0.41699 -0.30301,0.18156 -0.303,0.18156 0.39687,-0.49845 0.39688,-0.49846 -0.33073,0.1987 -0.33073,0.19869 v -0.41249 -0.41249 h -1.84378 -1.84378 l 0.14895,0.46303 0.14895,0.46302 -0.2855,-0.39688 -0.28549,-0.39687 -0.004,-0.19844 -0.004,-0.19844 0.72761,-0.004 0.7276,-0.004 -0.38424,-0.24308 -0.38424,-0.24307 -0.27722,0.16562 -0.27721,0.16563 0.38437,-0.47327 0.38438,-0.47327 -0.45609,-0.25524 -0.45609,-0.25524 0.14633,-0.23677 0.14633,-0.23676 0.45455,0.14233 0.45455,0.14234 -0.4708,-0.38719 -0.47079,-0.38718 0.40465,-0.15528 0.40465,-0.15528 v -0.93434 -0.93435 h -2.38125 -2.38125 v 0.68623 0.68623 l 0.52916,0.13838 0.52917,0.13838 v 0.86211 0.86211 l -0.16536,0.82682 -0.16537,0.82682 h -1.18841 -1.18841 l 0.13838,0.52917 0.13838,0.52917 h -0.0859 -0.0859 l -0.41851,-0.1606 -0.41852,-0.1606 v -1.4269 -1.4269 l 0.46302,-0.0209 0.46302,-0.0209 -0.39687,-0.15107 -0.39688,-0.15108 -0.19438,-0.29106 -0.19439,-0.29105 -0.004,0.33073 -0.004,0.33072 h -0.56156 -0.56157 l 0.29736,0.3583 0.29736,0.35829 -0.0665,1.3596 -0.0665,1.3596 -0.33073,0.002 -0.33073,0.002 -0.0477,-1.78594 -0.0477,-1.78594 -0.10159,1.3178 -0.10159,1.31781 -0.31374,0.22369 -0.31374,0.2237 0.33238,0.13474 0.33238,0.13475 -0.13156,0.21286 -0.13155,0.21285 -2.24619,-0.14013 -2.2462,-0.14014 -0.23847,0.63229 -0.23847,0.63228 0.22406,0.42833 0.22406,0.42833 -1.21829,0.16698 -1.2183,0.16699 h -0.7554 -0.75682 v 0.36013 0.36012 l -1.52135,0.12053 -1.52136,0.12053 -1.85208,-0.17444 -1.85209,-0.17445 0.8682,-0.0416 0.8682,-0.0416 0.14445,-0.37641 0.14444,-0.37642 0.42141,-0.16171 0.42141,-0.16171 0.20521,0.33203 0.2052,0.33202 0.15485,-0.15484 0.15484,-0.15484 0.23795,-0.82968 0.23795,-0.82969 h -0.52631 -0.52632 l 0.14827,0.23991 0.14828,0.23991 -0.48897,-0.12787 -0.48897,-0.12787 0.12139,-0.63505 0.1214,-0.63505 0.93319,0.14831 0.93319,0.14831 -0.16911,-0.44069 -0.1691,-0.44068 v -1.24446 -1.24446 l -1.52136,-0.0525 -1.52135,-0.0525 0.50985,0.38986 0.50985,0.38985 -0.17683,0.17683 -0.17682,0.17683 0.29468,0.35507 0.29469,0.35507 -0.30803,0.37115 -0.30802,0.37115 0.34177,0.13713 0.34177,0.13713 -1.64102,0.0209 -1.64102,0.0209 -0.0788,1.65364 -0.0788,1.65365 -0.99218,0.0821 -0.99219,0.0821 v -0.28055 -0.28056 h -0.65642 -0.65642 l -0.15474,0.61654 -0.15474,0.61654 0.0836,1.16813 0.0836,1.16813 0.79375,0.1684 0.79375,0.16841 -2.38125,0.005 -2.38125,0.005 -0.641842,-0.17936 -0.641843,-0.17937 -0.113637,-0.34091 -0.113637,-0.34091 0.554066,-0.14489 0.554067,-0.14489 -0.133632,-0.21622 -0.133632,-0.21622 0.268899,-0.16619 0.2689,-0.16619 v -0.28945 -0.28946 l -0.494056,0.56965 -0.494055,0.56965 h -0.309004 -0.309003 l 0.287167,-0.53657 0.287167,-0.53658 0.223584,0.13818 0.223584,0.13819 0.14569,-0.37967 0.145689,-0.37966 -0.845569,-0.11902 -0.845569,-0.11903 1.654128,0.0372 1.654127,0.0372 -4.82e-4,-1.52135 -4.82e-4,-1.52136 1.124479,-0.0445 1.124476,-0.0445 -1.05833,-0.0971 -1.058333,-0.0971 -0.396875,-0.16361 -0.396875,-0.16361 -0.264583,-0.0514 -0.264584,-0.0514 -0.311329,-0.0403 -0.311328,-0.0403 -0.121,-0.46302 -0.121,-0.46302 -0.03069,0.59532 -0.03069,0.59531 h -0.595595 -0.595594 l -0.07497,-1.43676 -0.07497,-1.43675 0.736715,-0.1111 0.736714,-0.11111 -1.389062,-0.0396 -1.389063,-0.0396 -0.02681,0.59531 -0.02681,0.59531 0.03298,0.92604 0.03298,0.92605 0.138349,1.5875 0.13835,1.5875 -0.272758,-0.39688 -0.272758,-0.39687 -0.0041,0.46302 -0.0041,0.46302 0.330729,0.0264 0.330729,0.0264 -0.661458,0.21199 -0.661458,0.212 -1.637647,-0.14098 -1.637646,-0.14098 -0.431773,0.43178 -0.431774,0.43177 h -0.614252 -0.614252 l -0.152295,-0.39687 -0.152295,-0.39688 0.587008,-0.0311 0.587009,-0.0311 -1.322917,-0.23322 -1.322916,-0.23322 -0.992188,0.15531 -0.992187,0.1553 v 1.29966 1.29966 h -2.07257 -2.072569 v -0.39687 -0.39688 l 0.418924,-0.0313 0.418923,-0.0313 0.254962,0.0502 0.254963,0.0502 0.869517,-0.16312 0.869516,-0.16312 v -1.33195 -1.33195 l -0.79375,0.17434 -0.79375,0.17433 v -0.2856 -0.28561 l 0.727605,-0.0209 0.727604,-0.0209 -0.351891,-0.1405 -0.35189,-0.14051 -1.919309,0.17986 -1.91931,0.17985 -0.01664,1.10602 -0.01664,1.10602 -0.02727,0.46302 -0.02727,0.46302 -0.859896,0.0281 -0.859896,0.0281 0.705004,0.27957 0.705004,0.27956 0.12764,0.66771 0.127641,0.66771 -0.133348,0.3475 -0.133348,0.34749 -0.96388,0.0307 -0.96388,0.0307 0.529167,0.11407 0.529167,0.11406 0.992187,0.42459 0.992188,0.42459 v 0.16525 0.16525 l -1.12448,-0.0667 -1.124479,-0.0667 0.859896,0.2657 0.859896,0.2657 v 0.22833 0.22834 l 0.692572,0.17382 0.692571,0.17383 0.431908,-0.39002 0.431907,-0.39001 1.040433,0.0972 1.040433,0.0972 0.36825,-0.44761 0.368251,-0.44761 -0.153561,0.30813 -0.153561,0.30813 0.332377,0.12335 0.332378,0.12336 -0.773231,0.30692 -0.773231,0.30691 -0.351248,-0.13478 -0.351248,-0.13479 v 0.26787 0.26787 l -1.918229,-0.0777 -1.918229,-0.0777 v -0.30868 -0.30868 L 77.227,206.75767 77.028563,206.55923 v 0.68392 0.68392 l 0.160599,0.41851 0.160599,0.41851 0.567005,-0.0168 0.567005,-0.0168 -0.595313,-0.23928 -0.595312,-0.23929 -4.82e-4,-0.0747 -4.82e-4,-0.0747 3.307774,0.0813 3.307773,0.0813 v 0.38175 0.38176 l -0.463021,-0.004 -0.463021,-0.004 0.396875,-0.25648 0.396875,-0.25648 -0.264583,0.005 -0.264583,0.005 -0.661459,0.39854 -0.661458,0.39854 0.568854,-0.15277 0.568854,-0.15276 v 0.94491 0.94491 l -0.436562,-0.11714 -0.436563,-0.11713 -0.752957,-0.16829 -0.752957,-0.16828 -1.363709,0.39448 -1.36371,0.39449 -1.771532,0.28115 -1.771532,0.28115 -0.477426,0.14636 -0.477426,0.14636 0.727604,-0.42217 0.727604,-0.42217 v -0.13945 -0.13946 l -0.223968,0.13842 -0.223968,0.13842 -1.694261,0.12932 -1.694261,0.12932 0.509821,-0.20586 0.509822,-0.20586 -0.477211,-0.18312 -0.477212,-0.18312 -0.369396,0.30657 -0.369396,0.30657 0.167418,-0.43628 0.167419,-0.43629 0.698534,-0.0164 0.698534,-0.0164 1.40087,-0.0816 1.40087,-0.0816 0.164581,-0.16458 0.164582,-0.16458 1.609548,-0.004 1.609549,-0.004 0.396875,-0.25337 0.396875,-0.25338 -4.68324,0.059 -4.68324,0.059 -0.300009,0.30013 -0.30001,0.30012 -0.468193,-0.12243 -0.468194,-0.12244 0.07033,-0.64071 0.07033,-0.64071 h -0.521484 -0.521483 l 0.163521,-0.26458 0.163522,-0.26459 h -0.423129 -0.423129 l 0.04135,2.63136 0.04135,2.63136 0.829188,0.10034 0.829189,0.10034 -0.859896,0.21179 -0.859896,0.21179 v 4.72943 4.72943 l 0.330729,0.0209 0.330729,0.0209 -0.330729,0.13346 -0.330729,0.13345 v 2.75607 2.75608 h 10.683228 10.683228 z m -8.73125,-2.89798 v -0.91361 l 0.992188,-0.27934 0.992187,-0.27934 0.998052,-0.16473 0.998051,-0.16472 0.142043,-0.22983 0.142042,-0.22983 0.579698,0.0106 0.579697,0.0106 -0.79375,0.43545 -0.79375,0.43546 -0.396875,0.0413 -0.396875,0.0413 -1.109247,0.19481 -1.109248,0.19482 -0.301674,0.3635 -0.301674,0.36349 0.17198,0.54187 0.171981,0.54186 h -0.282413 -0.282413 z m 5.953125,-1.33536 v -1.19062 l 0.264583,-0.0271 0.264584,-0.0271 -0.859896,-0.2375 -0.859896,-0.2375 -0.859896,-0.20895 -0.859896,-0.20895 -0.05627,-1.00753 -0.05627,-1.00753 1.180748,0.0939 1.180749,0.0939 v -0.20035 -0.20034 h 0.41249 0.41249 l -0.161649,0.26155 -0.161648,0.26155 0.410617,-0.15757 0.410616,-0.15756 v 0.30119 0.30119 l -0.462703,0.17756 -0.462703,0.17756 1.190307,0.30413 1.190308,0.30414 1.455208,-0.0877 1.455208,-0.0877 0.702339,-0.0716 0.702339,-0.0716 -0.122641,-0.19844 -0.122642,-0.19844 h 0.304969 0.304968 l 0.137717,0.52663 0.137717,0.52663 0.697409,-0.13584 0.697409,-0.13584 -0.595313,0.26214 -0.595312,0.26215 v 0.32602 0.32603 l -0.3175,-0.3175 -0.3175,-0.3175 H 92.321647 92.10998 v 0.68976 0.68977 l 0.396875,-0.1523 0.396875,-0.15229 v 0.23526 0.23525 l -0.859896,0.18138 -0.859895,0.18138 -2.212411,0.6334 -2.21241,0.63339 h -0.433423 -0.433423 z m -14.328915,-0.51665 0.161798,-0.42163 -0.505818,0.2707 -0.505818,0.27071 -1.009582,-0.004 -1.009581,-0.004 -0.36134,-0.22892 -0.36134,-0.22891 1.022798,-0.0324 1.022798,-0.0324 0.926042,-0.23668 0.926042,-0.23669 -0.568671,-0.0271 -0.568671,-0.0271 -0.115269,-1.25677 -0.115269,-1.25677 0.220919,-0.25135 0.220919,-0.25136 v 0.96335 0.96334 l 0.234503,0.14493 0.234503,0.14493 0.103119,-0.46004 0.103119,-0.46005 -0.139185,-1.00095 -0.139184,-1.00095 -0.235002,-0.0138 -0.235002,-0.0138 -0.223967,0.35333 -0.223968,0.35333 -0.0041,-0.49306 -0.0041,-0.49305 0.79375,0.1165 0.79375,0.1165 v -0.34275 -0.34274 l -0.410315,0.15745 -0.410315,0.15745 0.16717,-0.66606 0.16717,-0.66606 -0.286021,-0.17677 -0.286022,-0.17677 -0.01677,0.87551 -0.01677,0.87551 -0.260171,-0.65177 -0.26017,-0.65176 -0.09727,-0.0973 -0.09727,-0.0973 -0.551827,0.29533 -0.551827,0.29533 v -0.27389 -0.2739 h 0.264583 0.264583 v -0.52916 -0.52917 h -0.264583 -0.264583 v -0.29289 -0.29289 l 0.371007,0.14237 0.371008,0.14237 0.180208,-0.18021 0.180207,-0.18021 0.176389,-0.0216 0.176389,-0.0216 0.661458,-0.17804 0.661459,-0.17803 1.311537,-0.11807 1.311536,-0.11807 0.391647,0.31768 0.391648,0.31767 -0.173526,-0.46302 -0.173526,-0.46302 h 0.360263 0.360264 l 0.203894,0.46302 0.203894,0.46302 0.05592,0.19844 0.05592,0.19844 0.03307,0.90714 0.03307,0.90714 0.396875,0.39688 0.396875,0.39687 -0.0041,0.61421 -0.0041,0.61422 -0.223712,-0.35292 -0.223711,-0.35291 -0.169112,0.4407 -0.169112,0.4407 0.0041,0.17679 0.0041,0.1768 0.232269,-0.36676 0.23227,-0.36676 0.479135,0.55959 0.479135,0.55959 0.206534,-0.32512 0.206534,-0.32512 0.0041,-0.5797 0.0041,-0.5797 0.309546,-0.19131 0.309546,-0.19131 -0.142488,0.37414 -0.142488,0.37413 0.227579,0.61231 0.227579,0.61231 0.271137,-0.16757 0.271137,-0.16757 -0.140923,-0.22802 -0.140924,-0.22802 0.275455,-0.17024 0.275455,-0.17024 -0.03789,0.2181 -0.03789,0.21811 0.03133,0.33072 0.03133,0.33073 h 0.396875 0.396875 v 0.42691 0.4269 l -0.834595,-0.12249 -0.834594,-0.12249 0.503865,0.34802 0.503865,0.34802 0.302537,0.25771 0.302536,0.2577 0.174469,-0.17447 0.174468,-0.17447 -0.174583,0.45496 -0.174583,0.45495 -0.302422,0.0313 -0.302422,0.0313 -0.243224,-0.0463 -0.243224,-0.0463 0.341767,0.4118 0.341767,0.4118 h -0.168279 -0.168278 l -0.482932,-0.30159 -0.482932,-0.3016 -0.505665,0.31423 -0.505666,0.31423 0.661458,-0.17779 0.661458,-0.1778 -0.215099,0.22592 -0.215099,0.22592 -2.692066,0.0539 -2.692066,0.0539 -0.898608,0.16858 -0.898608,0.16858 z m 1.150546,-5.7373 -0.315381,-0.50907 0.364627,-0.22693 0.364626,-0.22693 -0.189744,-0.30701 -0.189744,-0.30701 -0.37332,0.30983 -0.37332,0.30982 v 0.61345 0.61345 l 0.264584,0.16352 0.264583,0.16352 0.02274,0.71199 0.02274,0.71199 0.226493,-0.75577 0.226493,-0.75577 z m 48.276195,5.26261 -0.30512,-0.30512 v -0.34395 -0.34396 h 0.10205 0.10205 l 0.71894,0.37299 0.71894,0.37299 -0.51587,0.27608 -0.51587,0.27609 z m 0.16697,-1.06907 -0.71854,-0.28432 0.14988,-1.60576 0.14989,-1.60576 0.25125,-1.0038 0.25125,-1.0038 0.66536,-0.25297 0.66536,-0.25297 0.3135,0.004 0.31351,0.004 -0.66146,0.33789 -0.66146,0.33788 v 1.31186 1.31186 l -0.1988,0.30606 -0.19881,0.30605 0.48923,-0.12793 0.48923,-0.12794 0.006,-0.83958 0.006,-0.83957 0.0344,-0.64823 0.0345,-0.64823 0.24662,0.25135 0.24662,0.25136 0.0707,0.66145 0.0707,0.66146 -0.21918,1.91823 -0.21918,1.91823 -0.42883,-0.0282 -0.42884,-0.0281 z m -1.22832,-4.22626 -0.0337,-1.46337 0.43241,-0.16593 0.43241,-0.16593 -0.33441,0.40293 -0.3344,0.40293 h 0.318 0.31801 l -0.18368,0.8599 -0.18368,0.85989 -0.1986,0.36647 -0.19859,0.36648 z m -39.325282,0.37117 0.09297,-0.69908 0.01823,-0.73996 0.01823,-0.73995 0.621277,0.46863 0.621277,0.46863 -0.03157,0.78295 -0.03157,0.78296 -0.70091,0.18745 -0.70091,0.18745 z m 12.564848,-0.28542 v -0.57718 l 0.305463,0.18878 0.305464,0.18879 -0.181786,-0.29414 -0.181787,-0.29413 -0.71899,-0.008 -0.718989,-0.008 -0.866397,0.001 -0.866397,0.001 -0.103692,-0.33543 -0.103692,-0.33542 -0.162427,-0.79375 -0.162428,-0.79375 0.268569,0.39687 0.268569,0.39688 0.0041,-1.52136 0.0041,-1.52135 h 0.396875 0.396875 v 0.26458 0.26458 h -0.264583 -0.264584 v 1.44691 1.4469 l 0.381813,-0.14651 0.381813,-0.14652 0.116662,-0.44049 0.116662,-0.44049 0.03069,0.99218 0.03069,0.99219 h 0.830727 0.830728 l 0.351482,-0.46302 0.351483,-0.46302 0.0084,-0.56663 0.0084,-0.56663 0.661458,-0.16602 0.661458,-0.16601 v -0.25954 -0.25955 l -0.727604,-0.0186 -0.727604,-0.0186 0.529167,-0.22739 0.529166,-0.22739 -0.529166,-0.027 -0.529167,-0.027 0.502,-0.37999 0.501999,-0.37998 0.207323,0.12813 0.207322,0.12813 0.15489,-0.25061 0.154889,-0.25062 -0.250617,-0.15489 -0.250617,-0.15489 -0.144259,0.23342 -0.144259,0.23341 -0.667773,-0.12765 -0.667773,-0.12765 v -0.23374 -0.23374 h 0.143446 0.143446 l 2.027916,-0.41888 2.027915,-0.41888 0.694958,0.102 0.694958,0.102 v -0.37421 -0.37421 l -2.497995,0.10925 -2.497995,0.10926 0.484176,-0.16984 0.484175,-0.16984 -0.654063,-0.11963 -0.654062,-0.11963 -1.785938,0.0114 -1.785938,0.0114 -0.04313,-0.52917 -0.04312,-0.52917 -0.178331,1.45521 -0.178331,1.45521 -0.04313,-1.36701 -0.04313,-1.36702 -0.330729,-0.13345 -0.330729,-0.13345 0.529167,-0.0424 0.529166,-0.0424 0.727604,-0.0534 0.727605,-0.0534 v 0.15425 0.15426 l -0.317651,0.31765 -0.31765,0.31765 0.68395,-0.32277 0.68395,-0.32277 -0.130024,-0.33884 -0.130024,-0.33884 h -1.294609 -1.294609 v -0.39687 -0.39688 h 0.264583 0.264584 v 0.26459 0.26458 h 0.529166 0.529167 l 0.01823,-0.33073 0.01823,-0.33073 0.09476,-0.7159 0.09476,-0.7159 -0.443723,-0.14066 -0.443723,-0.14067 0.09274,-1.34196 0.09274,-1.34196 1.428612,0.17849 1.428613,0.17849 0.0186,-1.55184 0.0186,-1.55184 0.22739,0.52917 0.227391,0.52917 0.0186,-0.50712 0.0186,-0.50712 0.167068,0.16707 0.167069,0.16707 -0.03001,1.33223 -0.03001,1.33224 h 0.766098 0.766098 l 0.81664,1.11046 0.816639,1.11045 v 0.34476 0.34475 H 96.74026 96.078801 v 1.19062 1.19063 l -0.595312,0.0313 -0.595313,0.0313 -0.137224,-0.0109 -0.137225,-0.0109 -0.656525,-0.11412 -0.656526,-0.11412 0.314459,0.10998 0.314459,0.10998 0.08242,0.57905 0.08242,0.57904 1.190625,0.0904 1.190625,0.0904 4.431766,0.012 4.43178,0.012 v 0.49287 0.49287 h -0.27389 -0.2739 l 0.27109,0.50654 0.27109,0.50653 -2.18001,0.53049 -2.18001,0.53048 -1.513757,0.38169 -1.513758,0.38168 -0.139888,-0.13989 -0.139888,-0.13988 v 1.21689 1.21689 l -0.526799,0.1672 -0.526799,0.1672 -0.219755,-0.13582 -0.219755,-0.13581 -0.457025,0.53377 -0.457026,0.53376 1.166326,-0.1749 1.166325,-0.1749 0.154464,0.59067 0.154464,0.59067 -1.972445,-0.14917 -1.972446,-0.14918 0.177863,0.31056 0.177864,0.31057 -0.216513,-0.19614 -0.216513,-0.19615 -0.355073,0.29469 -0.355073,0.29468 z m 4.551307,-4.44564 0.271151,-0.32782 0.231573,0.14312 0.231574,0.14312 -0.150161,-0.39131 -0.15016,-0.39131 0.49257,0.12881 0.492569,0.12881 0.04105,-0.54499 0.04105,-0.54499 h -0.24814 -0.248139 l -0.0041,0.33073 -0.0041,0.33073 -0.256481,-0.39688 -0.25648,-0.39687 -0.0121,0.39687 -0.0121,0.39688 -0.269685,-0.46303 -0.269685,-0.46302 h -0.263425 -0.263426 l 0.170359,0.9081 0.170359,0.90809 -0.62139,-0.11728 -0.621391,-0.11727 0.332378,0.15782 0.332377,0.15782 -0.17482,0.28287 -0.174821,0.28286 0.326995,-0.20209 0.326994,-0.20209 -0.052,0.49194 -0.052,0.49194 0.07011,0.39688 0.07011,0.39687 0.11606,-0.79375 0.11606,-0.79375 z m 28.455467,3.29991 -2.31511,-0.25793 v -0.26205 -0.26205 l 0.99219,0.20426 0.99219,0.20426 2.38125,0.31843 2.38125,0.31843 -1.05833,-0.003 -1.05834,-0.003 z m -47.901083,-0.88898 -0.165837,-0.16583 0.393118,-0.76021 0.393117,-0.7602 h 0.118948 0.118949 l -0.220046,0.59531 -0.220045,0.59531 0.116351,0.33073 0.116351,0.33073 h -0.242535 -0.242534 z m 39.046353,-6.92145 0.0573,-6.80333 -0.52916,-0.45422 -0.52917,-0.45422 0.66146,-0.005 0.66146,-0.005 -0.35292,0.22371 -0.35291,0.22371 0.41906,0.16081 0.41906,0.16081 v 0.38313 0.38313 l 0.30085,0.10028 0.30085,0.10028 0.13058,2.0348 0.13059,2.0348 0.6269,-0.12866 0.62689,-0.12866 0.66146,-0.13733 0.66146,-0.13733 v -1.31788 -1.31787 h 0.26458 0.26459 v -0.91104 -0.91104 l -0.5438,-0.38089 -0.54381,-0.3809 0.77025,-0.2685 0.77024,-0.26851 0.16894,-1.05652 0.16894,-1.05651 0.42001,-0.16117 0.42001,-0.16117 h 0.082 0.082 l 0.16601,0.66146 0.16602,0.66145 h 0.6408 0.6408 l 0.16352,0.26459 0.16352,0.26458 h -0.60365 -0.60365 l 0.53409,0.3741 0.5341,0.37409 0.78155,0.11543 0.78154,0.11543 -1.53697,0.0396 -1.53697,0.0396 0.14639,0.23686 0.14639,0.23686 -0.41923,0.16088 -0.41924,0.16087 -0.25229,-0.15593 -0.2523,-0.15592 -0.36956,0.3067 -0.36955,0.30671 0.14565,0.37957 0.14566,0.37957 -0.42597,0.65011 -0.42597,0.65011 v 0.13329 0.1333 l 0.37012,-0.14203 0.37011,-0.14202 0.19993,0.3235 0.19994,0.3235 -0.27774,-0.17165 -0.27774,-0.17165 -0.16002,0.41699 -0.16001,0.417 v 1.80182 1.80182 l 1.25677,0.26193 1.25677,0.26192 -0.7276,0.0313 -0.72761,0.0313 v 1.05833 1.05834 l -0.59531,0.0264 -0.59531,0.0264 0.66145,0.18987 0.66146,0.18986 -1.71618,0.16122 -1.71617,0.16122 -0.198,-0.31131 -0.198,-0.31131 -0.004,0.4474 -0.004,0.44741 0.23974,0.14817 0.23975,0.14817 -0.12102,0.46276 -0.12101,0.46276 h 0.67502 0.67502 l 0.0313,-0.26459 0.0313,-0.26458 -0.0166,-0.15434 -0.0166,-0.15434 h 0.38217 0.38218 v 0.35278 0.35277 h 0.52917 0.52916 v 0.24814 0.24814 l -0.46302,0.0193 -0.46302,0.0193 -0.59531,0.0539 -0.59531,0.0539 v 0.20789 0.20789 h -0.76068 -0.76068 l -0.209,-0.8599 -0.209,-0.85989 -0.0345,-1.19063 -0.0345,-1.19062 -0.44044,-0.79375 -0.44045,-0.79375 -0.0106,0.567 -0.0106,0.56701 0.45561,0.17483 0.45561,0.17483 -0.28171,0.1842 -0.28171,0.18421 -0.16729,0.85989 -0.16728,0.8599 h 0.20169 0.20169 l 0.0647,0.8599 0.0647,0.85989 0.25619,0.0882 0.25618,0.0882 v 0.20007 0.20006 l -0.65264,0.29737 -0.65265,0.29736 z m -39.706947,4.1647 -0.605944,-0.24322 -2.569056,-0.19358 -2.569055,-0.19358 1.455208,-0.19447 1.455208,-0.19446 1.190625,-0.15753 1.190625,-0.15754 2.219231,-0.40789 2.21923,-0.40789 0.224114,0.35356 0.224114,0.35357 0.0041,0.69674 0.0041,0.69675 -0.595313,0.15953 -0.595312,0.15954 -1.322917,-0.0132 -1.322916,-0.0131 z m 37.779907,-0.51825 0.39687,-0.25774 -1.5875,0.011 -1.5875,0.011 -2.11636,-0.21227 -2.11635,-0.21227 0.0879,-1.01311 0.0879,-1.01311 -0.45996,-0.50824 -0.45996,-0.50825 h -0.35587 -0.35586 v 0.58208 0.58209 l 0.3175,-0.3175 0.3175,-0.3175 h 0.14552 0.14552 v 1.19062 1.19063 h -0.8907 -0.89072 l 0.18417,-1.71979 0.18418,-1.7198 h -0.41794 -0.41793 v -0.29289 -0.29289 l 0.38333,0.1471 0.38333,0.1471 0.1236,-0.44952 0.12359,-0.44952 0.18047,-1.32292 0.18048,-1.32291 0.27171,-0.16835 0.27172,-0.16835 v -0.69155 -0.69155 l 0.29765,-0.004 0.29766,-0.004 -0.30655,-0.19506 -0.30656,-0.19506 0.13837,-0.72385 0.13838,-0.72384 0.23432,0.14482 0.23433,0.14482 v 0.52186 0.52186 l 0.39688,0.15229 0.39687,0.1523 v 0.55075 0.55074 l 0.53948,-0.57905 0.53947,-0.57906 h 0.14939 0.1494 l -0.82116,0.93525 -0.82116,0.93525 v 1.53948 1.53948 l 0.16998,1.62631 0.16999,1.62631 h 0.99546 0.99547 l -0.13736,-1.02403 -0.13735,-1.02403 0.30767,-0.19015 0.30767,-0.19015 -0.2623,-0.31604 -0.26229,-0.31605 0.21131,-0.34192 0.21132,-0.34192 1.09646,-0.14706 1.09647,-0.14707 v -0.20176 -0.20175 l 0.66127,0.0382 0.66127,0.0382 1.9e-4,0.21405 1.9e-4,0.21405 0.26458,-0.16352 0.26458,-0.16352 v 0.41249 0.41249 l 0.33073,1.5e-4 0.33073,1.5e-4 -0.0205,2.46483 -0.0205,2.46483 -0.19353,0.31315 -0.19353,0.31314 -0.31512,-0.004 -0.31511,-0.004 z m -1.33096,-2.71072 -0.008,-1.91823 -0.23197,0.39687 -0.23197,0.39688 0.0648,1.05833 0.0648,1.05834 0.043,0.46302 0.043,0.46302 h 0.13229 0.13229 z m -18.512794,-0.70737 v -0.27474 l 0.595312,-0.12703 0.595313,-0.12703 0.529166,-0.0831 0.529167,-0.0831 -0.0011,-0.82868 -0.0011,-0.82869 0.176927,0.10935 0.176927,0.10934 0.111526,-0.20008 0.111525,-0.20009 -0.0758,0.31816 -0.0758,0.31817 1.47671,-0.094 1.476711,-0.094 0.16963,-0.27447 0.16964,-0.27448 2.06975,0.15654 2.06975,0.15653 -0.15734,0.78674 -0.15735,0.78674 v 0.23891 0.23891 l -1.78594,-0.0326 -1.78594,-0.0326 -0.92604,0.15786 -0.926042,0.15785 -2.182813,0.1471 -2.182812,0.1471 z m 29.158574,-1.77224 0.0779,-2.08445 1.36229,-0.16628 1.36229,-0.16628 0.33312,-0.20587 0.33311,-0.20588 -0.17175,1.43049 -0.17175,1.43048 -0.002,0.69982 -0.002,0.69981 -0.99219,0.13005 -0.99219,0.13004 -0.60705,0.19626 -0.60705,0.19626 z m -15.29036,-1.192 0.13204,-0.62787 0.16657,-0.66146 0.16658,-0.66146 -0.28348,0.39688 -0.28348,0.39687 -0.004,-0.33903 -0.004,-0.33903 0.39535,-0.15172 0.39535,-0.15171 -0.14638,-0.23686 -0.14639,-0.23686 h 0.2802 0.2802 l 0.0289,0.33073 0.0289,0.33073 0.0857,1.12448 0.0857,1.12448 h -0.22527 -0.22527 l -0.4296,0.16485 -0.42959,0.16485 z m -30.568296,-0.53087 -0.03133,-0.36158 0.02816,-0.18892 0.02816,-0.18892 -0.393701,0.15108 -0.393701,0.15108 v -0.44195 -0.44194 l 0.859896,0.0829 0.859895,0.0829 v 0.37021 0.37021 l 0.529167,0.2065 0.529167,0.20651 -0.396875,0.0222 -0.396875,0.0222 -0.595313,0.15953 -0.595312,0.15954 z m 7.892462,-0.50553 -1.531579,-0.18518 -0.100225,-0.10002 -0.100225,-0.10002 h 2.307446 2.307447 l -0.259012,0.27792 -0.259012,0.27792 -0.416631,0.007 -0.416631,0.007 z m 37.122094,-0.48834 -0.004,-0.36771 0.46302,-0.35148 0.46302,-0.35149 0.92604,0.0125 0.92604,0.0125 -0.39687,0.15433 -0.39688,0.15432 -0.26458,0.34512 -0.26459,0.34512 -0.52916,-0.086 -0.52917,-0.086 -0.19439,0.29325 -0.19438,0.29325 z m -8.20614,-0.9396 v -0.64584 l 0.26458,-0.16352 0.26459,-0.16353 v 0.80937 0.80936 h -0.26459 -0.26458 z m -11.46528,-2.17638 -0.17639,-0.17639 v -0.18436 -0.18436 l 0.5734,0.03 0.5734,0.03 0.11011,0.33073 0.11011,0.33073 h -0.50712 -0.50712 z m 13.58668,-1.82895 0.21358,-0.947 0.15543,-0.15543 0.15542,-0.15542 v 1.10243 1.10243 h -0.36901 -0.36901 z m 22.00096,-1.16966 0.0415,-1.05833 0.28736,-0.004 0.28735,-0.004 -0.35028,-0.22208 -0.35027,-0.22208 0.41406,-0.41406 0.41406,-0.41407 -0.30016,-0.10005 -0.30016,-0.10005 0.30252,-0.56528 0.30252,-0.56527 v -0.6657 -0.66571 l -0.46302,-0.28486 -0.46302,-0.28486 0.66146,0.0733 0.66146,0.0733 0.0764,2.31511 0.0764,2.3151 h -0.27488 -0.27489 v 0.92604 0.92604 h -0.39497 -0.39497 z m 16.45895,-11.64167 v -3.0427 l 0.0955,1.52135 0.0955,1.52135 -0.0955,1.52136 -0.0955,1.52135 z m -7.90527,2.11667 -0.79375,-0.20197 0.39688,-0.0492 0.39687,-0.0492 -0.59531,-0.2871 -0.59531,-0.28711 v -0.35645 -0.35644 l 0.33073,-0.0313 0.33073,-0.0313 0.23224,0.0426 0.23224,0.0426 -0.13701,-0.52395 -0.13702,-0.52395 1.42568,0.0497 1.42567,0.0497 4.5e-4,0.0686 4.5e-4,0.0686 -0.79657,0.83353 -0.79657,0.83354 0.4407,0.48697 0.44071,0.48697 -0.50403,-0.0313 -0.50403,-0.0313 z m 4.84483,-3.62843 0.61149,-0.11678 0.14442,-0.37635 0.14442,-0.37636 h 0.36857 0.36856 v 0.52917 0.52917 l -1.12448,-0.036 -1.12447,-0.036 z m 0.61596,-1.67204 -0.62462,-0.52036 h 0.31129 0.31129 l 0.51177,0.27389 0.51177,0.27389 v 0.25528 0.25527 l -0.19843,-0.009 -0.19844,-0.009 z m -14.05975,44.74982 v -0.23815 l -1.03113,0.0397 -1.03113,0.0397 0.12071,0.19843 0.1207,0.19844 h 0.91043 0.91042 z m 14.65268,-0.74827 1.4435,-0.98643 -0.15147,-0.24508 -0.15147,-0.24508 0.3075,0.19004 0.30749,0.19004 0.35075,-0.35075 0.35075,-0.35074 v -0.46722 -0.46723 l -0.28664,0.10657 -0.28663,0.10657 0.0727,0.31732 0.0727,0.31733 -0.22577,-0.13954 -0.22578,-0.13954 -0.83911,0.76642 -0.83911,0.76641 v -0.21727 -0.21727 l 0.39396,-0.32696 0.39396,-0.32696 -0.14499,-0.23461 -0.145,-0.2346 h -0.4915 -0.4915 l -0.094,-0.28185 -0.0939,-0.28185 -0.64025,0.55529 -0.64025,0.55529 -0.33271,-0.12768 -0.33271,-0.12767 0.14713,0.3834 0.14712,0.3834 -0.35904,0.0108 -0.35903,0.0108 -0.92604,0.80076 -0.92605,0.80076 0.73479,-0.32809 0.73478,-0.32808 0.32355,0.34914 0.32355,0.34913 -0.37161,-0.21198 -0.37161,-0.21199 0.19139,0.30966 0.19138,0.30967 0.77554,-0.45812 0.77554,-0.45813 v -0.19109 -0.19109 l 0.51781,0.039 0.51782,0.039 -0.14299,0.14299 -0.14299,0.14299 -0.17639,0.009 -0.17639,0.009 -0.60272,0.33463 -0.60272,0.33462 0.15531,0.25131 0.15532,0.25131 h 0.37126 0.37126 z m -19.20046,-0.51341 0.4415,-0.44151 -0.79113,0.19564 -0.79113,0.19565 -0.25135,0.24586 -0.25136,0.24586 h 0.60099 0.60098 z m 5.24805,-0.51327 -0.18321,0.50045 0.37937,-0.31486 0.37938,-0.31485 0.183,0.2961 0.183,0.2961 1.08365,-0.18308 1.08366,-0.18309 0.74128,-0.74127 0.74127,-0.74128 v -0.13538 -0.13537 l -1.65364,0.0242 -1.65365,0.0242 -1.74498,-0.20666 -1.74498,-0.20665 -0.70014,0.45875 -0.70015,0.45875 0.14564,0.23564 0.14563,0.23565 0.84428,0.0186 0.84428,0.0186 0.52917,0.22739 0.52917,0.22739 -0.92605,0.0499 -0.92604,0.0499 0.79375,0.18589 0.79375,0.18589 0.50789,-0.41563 0.50788,-0.41563 z m -9.04809,-0.45789 0.48457,-0.35432 -0.49317,-0.18925 -0.49316,-0.18924 -0.30073,0.41128 -0.30073,0.41127 h -0.18488 -0.18489 l 0.18879,-0.30546 0.18879,-0.30547 -0.28719,0.17749 -0.28718,0.17749 -0.15904,-0.25735 -0.15905,-0.25734 -0.32226,0.0978 -0.32225,0.0978 -0.87305,0.15121 -0.87305,0.1512 0.16106,-0.2606 0.16106,-0.2606 h -0.41249 -0.41249 v 0.21167 0.21166 l 0.3175,0.3175 0.3175,0.3175 h 1.88089 1.88089 z m 3.05616,-0.0426 -0.66146,-0.37813 -0.92604,0.0108 -0.92604,0.0108 0.92604,0.35662 0.92604,0.35662 0.66146,0.0108 0.66146,0.0107 z m 1.85208,-0.74965 v -0.35278 l -0.33073,-0.004 -0.33073,-0.004 -0.89124,-0.20012 -0.89125,-0.20013 0.11711,0.35134 0.11711,0.35134 0.64185,0.17936 0.64184,0.17937 0.46302,0.0264 0.46302,0.0264 z m 19.87072,-0.29077 0.76481,-0.64355 -0.41479,-0.41479 -0.41479,-0.41478 h -0.14831 -0.1483 l -0.89113,0.55074 -0.89113,0.55075 v 0.18026 0.18027 l 0.59532,0.29483 0.59531,0.29484 0.0941,0.0325 0.0941,0.0325 z m 2.08242,-0.23169 0.65419,-0.44768 -0.45575,-0.0397 -0.45575,-0.0397 -0.33073,-0.0265 -0.33072,-0.0265 -0.18202,-0.25364 -0.18202,-0.25363 0.0929,0.91509 0.0929,0.91509 0.027,0.13229 0.027,0.1323 0.19438,-0.27992 0.19439,-0.27992 z m 5.80722,0.27992 -0.0209,-0.59531 -0.13345,0.33073 -0.13345,0.33073 h -0.52274 -0.52273 l 0.16352,0.26458 0.16352,0.26458 h 0.51356 0.51355 z m 2.93131,0.33073 v -0.26458 h -0.67708 -0.67707 l 0.16352,-0.26459 0.16352,-0.26458 h -0.28019 -0.2802 v 0.37847 0.37848 l 0.59531,0.11466 0.59531,0.11466 0.19844,0.036 0.19844,0.036 z m -7.83444,-3.96875 0.15417,-2.51354 0.15804,-3.03755 0.15805,-3.03755 0.12583,-0.2036 0.12583,-0.20359 h 1.04272 1.04271 v -0.26459 -0.26458 h -0.26458 -0.26458 v -0.37483 -0.37482 l -0.33073,-0.11422 -0.33073,-0.11422 -0.48398,0.68748 -0.48398,0.68749 0.15417,-3.81534 0.15417,-3.81533 0.13137,-0.13137 0.13137,-0.13137 v 0.82723 0.82723 l 1.05834,0.31708 1.05833,0.31708 v 0.26388 0.26387 l -0.61406,0.81873 -0.61406,0.81872 -0.20118,0.39688 -0.20118,0.39687 1.33598,-1.45521 1.33599,-1.4552 0.008,0.28663 0.008,0.28663 -0.17182,0.17182 -0.17181,0.17182 -0.0266,0.88669 -0.0266,0.88669 0.26458,0.0395 0.26458,0.0395 0.80938,0.15933 0.80937,0.15932 0.2972,-0.61792 0.2972,-0.61793 0.0163,0.39687 0.0163,0.39688 -0.40035,0.76769 -0.40036,0.76769 0.17306,0.55523 0.17306,0.55522 0.29507,0.19439 0.29507,0.19438 -0.34634,0.004 -0.34635,0.004 0.16165,0.26155 0.16165,0.26155 -0.46339,-0.17781 -0.46338,-0.17782 0.32839,-0.10947 0.3284,-0.10946 -0.30803,-0.37115 -0.30802,-0.37114 h -0.21696 -0.21699 l 0.10191,0.52916 0.1019,0.52917 h -0.51397 -0.51398 v 0.24736 0.24736 l 0.25448,0.66931 0.25447,0.66932 -0.25879,0.15994 -0.25879,0.15994 0.13066,0.21141 0.13066,0.21142 0.42888,2.12848 0.42888,2.12849 -0.28259,0.48609 -0.2826,0.48609 -0.0105,-0.66146 -0.0105,-0.66146 -0.65076,-1.32291 -0.65077,-1.32292 -0.008,-0.31512 -0.008,-0.31511 -0.19844,-0.12214 -0.19843,-0.12215 -1.25678,-0.18809 -1.25677,-0.1881 v 1.77241 1.77241 l 1.71751,-0.0887 1.71751,-0.0887 0.14354,0.37572 0.14353,0.37572 -0.3327,0.20562 -0.33271,0.20563 -0.13928,-0.18447 -0.13927,-0.18447 -1.05833,-0.0452 -1.05834,-0.0452 0.48205,0.13438 0.48205,0.13438 -0.48205,0.39343 -0.48205,0.39343 0.26459,-0.11881 0.26458,-0.1188 0.52917,0.19762 0.52916,0.19762 -1.16475,0.23554 -1.16476,0.23555 -0.0881,0.5771 -0.0881,0.57711 0.41183,0.41183 0.41183,0.41183 -0.21733,0.0313 -0.21734,0.0313 -0.2181,-0.0379 -0.21811,-0.0379 0.17552,0.28399 0.17551,0.28398 0.346,-0.28716 0.34601,-0.28716 -0.14282,-0.54612 -0.14281,-0.54613 0.50086,0.0965 0.50086,0.0965 v 0.30505 0.30506 l 0.1801,0.1801 0.18011,0.18011 0.33497,-0.53638 0.33498,-0.53638 0.50903,0.27243 0.50904,0.27243 -0.17984,-0.29098 -0.17983,-0.29098 h 0.40418 0.40419 l -0.15229,0.39687 -0.1523,0.39688 h 0.27449 0.27449 l 0.11466,0.59531 0.11466,0.59531 0.036,-1.12448 0.036,-1.12448 0.52917,-0.52916 0.52917,-0.52917 h -0.26459 -0.26458 v -0.66976 -0.66976 l 0.39687,-0.1523 0.39688,-0.15229 -0.004,-0.43472 -0.004,-0.43471 -0.25648,0.39687 -0.25648,0.39688 -0.004,-0.7193 -0.004,-0.7193 0.34723,0.13324 0.34722,0.13325 0.34262,-3.64728 0.34261,-3.64728 0.11646,-0.79375 0.11646,-0.79375 0.15596,-1.65364 0.15597,-1.65365 -0.89612,-0.009 -0.89612,-0.009 -1.5875,-0.40463 -1.5875,-0.40464 -0.91144,-0.23116 -0.91143,-0.23116 -0.21706,0.13415 -0.21705,0.13414 -0.39286,0.94026 -0.39287,0.94026 v 1.12391 1.1239 l -1.12448,0.1557 -1.12448,0.15569 -0.50102,0.0771 -0.50103,0.0772 -0.10334,-0.72761 -0.10334,-0.7276 h 0.36183 0.36183 v -0.39268 -0.39267 l -0.28663,0.23271 -0.28663,0.23272 -1.32292,-0.0824 -1.32291,-0.0824 0.33073,0.13208 0.33072,0.13207 v 0.25815 0.25815 l -0.26458,-0.16352 -0.26458,-0.16352 v 0.74496 0.74497 l -0.24612,0.85815 -0.24611,0.85815 h 0.4666 0.4666 v 0.39687 0.39688 h -0.22049 -0.22048 v -0.2802 -0.2802 l -0.28266,0.1747 -0.28266,0.17469 0.46627,0.44268 0.46627,0.44268 0.6607,-0.006 0.6607,-0.006 0.18765,0.66145 0.18765,0.66146 0.0264,-0.30596 0.0264,-0.30596 0.47152,0.12331 0.47151,0.1233 -0.0924,-1.00797 -0.0924,-1.00797 1.14499,-0.46302 1.14498,-0.46302 h 0.18401 0.18402 l -0.15424,3.63802 -0.15424,3.63802 -0.2093,0.22966 -0.20929,0.22965 0.14521,0.89483 0.14521,0.89482 -1.0268,0.0313 -1.02681,0.0313 -0.79375,0.21322 -0.79375,0.21321 1.45521,-0.002 1.45521,-0.002 0.33073,0.0226 0.33073,0.0226 v 0.53747 0.53747 l -0.39688,0.15229 -0.39687,0.1523 v 0.48883 0.48883 l 0.68952,0.68952 0.68952,0.68952 0.0787,-0.0822 0.0787,-0.0822 z m 7.33466,1.37139 0.41158,-0.48068 v -0.44536 -0.44535 h -0.48507 -0.48507 v 0.50753 0.50752 l -0.1606,0.41852 -0.16059,0.41851 h 0.23409 0.23408 z m -49.77106,-0.16136 v -0.37748 l 0.46303,-0.14068 0.46302,-0.14069 -0.8599,0.0755 -0.8599,0.0755 v -0.21876 -0.21876 l -0.7276,0.0186 -0.7276,0.0186 0.52916,0.22739 0.52917,0.22739 -0.46302,0.0186 -0.46302,0.0186 v 0.24618 0.24618 l 0.59531,0.11467 0.59531,0.11466 0.46302,0.036 0.46302,0.036 z m 50.27084,-4.25274 v -0.66146 h -0.39688 -0.39687 v 0.50712 0.50712 l 0.33073,0.13345 0.33073,0.13345 0.0661,0.0209 0.0661,0.0209 z m -13.15272,-0.43606 0.47333,-0.48998 h -0.17499 -0.175 l 0.32938,-0.39687 0.32937,-0.39688 h 0.28276 0.28276 l -0.51359,0.38372 -0.51359,0.38371 0.63668,-0.16081 0.63669,-0.16081 -0.18928,0.30626 -0.18928,0.30626 h -0.38126 -0.38126 v 0.42519 0.42518 l 0.46302,-0.20818 0.46302,-0.20818 1.30371,-0.0271 1.3037,-0.0271 0.10741,-0.32222 0.1074,-0.32221 h -0.40331 -0.40331 l -0.16619,0.2689 -0.16618,0.2689 -0.25062,-0.15489 -0.25062,-0.15489 0.1874,-0.31245 0.1874,-0.31244 -0.44737,0.36287 -0.44736,0.36287 0.055,-0.66409 0.055,-0.66409 0.40776,0.14385 0.40775,0.14386 0.33679,0.26093 0.33679,0.26093 -0.16666,-0.43429 -0.16666,-0.4343 h 0.4408 0.4408 l -0.16662,-0.2696 -0.16662,-0.2696 -0.97348,0.0498 -0.97347,0.0498 -0.66146,-0.13846 -0.66146,-0.13847 0.33073,0.11312 0.33073,0.11311 v 0.21433 0.21432 l -0.49165,0.12857 -0.49165,0.12857 -0.78515,-0.33014 -0.78516,-0.33013 -0.64142,0.35534 -0.64143,0.35534 0.52917,0.0153 0.52917,0.0153 -0.62893,0.48363 -0.62893,0.48363 0.56278,0.14718 0.56279,0.14717 v 0.39687 0.39688 l 0.59531,-0.14671 0.59531,-0.1467 z m -8.01395,-2.38407 v -0.97305 l 0.0889,-0.35237 0.0889,-0.35236 -0.11153,0.20008 -0.11152,0.20009 -0.24199,-0.14956 -0.24199,-0.14955 v -0.60338 -0.60337 l 0.67391,-0.30705 0.67391,-0.30706 h 1.19379 1.19379 l -0.14921,-0.24142 -0.14921,-0.24143 -2.65721,0.11918 -2.65722,0.11919 0.43999,-0.67151 0.43999,-0.67151 h 0.26655 0.26655 l -0.31976,-0.38528 -0.31975,-0.38529 0.17068,-0.27617 0.17068,-0.27617 h -0.28019 -0.2802 v -0.24814 -0.24814 l 0.54345,0.0409 0.54344,0.0409 -0.15161,0.60408 -0.15161,0.60408 h 0.11145 0.11145 l 0.29293,-0.84032 0.29294,-0.84032 -0.17718,0.17718 -0.17717,0.17717 -0.34578,-0.49367 -0.34579,-0.49367 0.11532,-0.59878 0.11531,-0.59878 0.0745,-0.0717 0.0744,-0.0717 1.26984,-0.18904 1.26985,-0.18905 -0.16081,0.75961 -0.1608,0.75961 -0.42217,1.4552 -0.42217,1.45521 -0.28999,0.19439 -0.29,0.19438 0.69067,0.004 0.69068,0.004 1.16141,0.15927 1.16141,0.15928 -0.0267,-1.41605 -0.0267,-1.41604 0.55584,-0.32136 0.55585,-0.32135 0.47864,-0.009 0.47863,-0.009 -0.16352,0.26458 -0.16352,0.26458 h 0.1376 0.1376 l 0.5138,-0.55149 0.51379,-0.5515 -0.0405,0.48535 -0.0405,0.48535 -0.26458,0.21858 -0.26458,0.21858 0.39687,-0.10595 0.39688,-0.10595 0.26458,-1.03867 0.26458,-1.03867 0.18098,-0.27722 0.18098,-0.27721 -0.22264,-0.36025 -0.22265,-0.36025 0.12159,-0.31687 0.1216,-0.31687 -1.24134,-0.17015 -1.24133,-0.17014 h -0.49224 -0.49224 v 1.47461 1.47461 l -0.46302,-0.0878 -0.46302,-0.0878 -0.0888,-0.77844 -0.0888,-0.77844 0.47014,-0.34378 0.47014,-0.34377 h -2.16724 -2.16724 l -0.0305,-0.46302 -0.0305,-0.46302 0.0471,-0.46302 0.0471,-0.46303 h -0.31016 -0.31017 l 0.10811,0.92605 0.10811,0.92604 h -0.21145 -0.21146 v 0.52916 0.52917 h -0.64584 -0.64584 l -0.16786,0.2716 -0.16786,0.2716 -0.31078,-0.0487 -0.31077,-0.0487 -0.52917,0.18754 -0.52917,0.18755 -0.69467,0.35214 -0.69467,0.35215 0.12944,-0.49499 0.12944,-0.49498 0.17921,0.11076 0.1792,0.11075 -0.10594,-0.90748 -0.10594,-0.90748 h -0.21888 -0.21887 l -0.10671,0.85989 -0.10671,0.8599 -0.0423,-0.96134 -0.0423,-0.96135 -0.65978,-0.12612 -0.65978,-0.12613 -0.23868,0.29372 -0.23869,0.29372 0.14027,1.91823 0.14026,1.91823 0.55977,-0.0307 0.55976,-0.0307 -0.46302,-0.121 -0.46303,-0.121 v -0.27604 -0.27604 l 0.52917,0.13838 0.52917,0.13838 v -0.25543 -0.25543 l 0.2578,0.15933 0.2578,0.15933 -0.0172,1.84066 -0.0172,1.84066 -0.439,-0.004 -0.43901,-0.004 0.35898,-0.22746 0.35898,-0.22746 -0.22669,-0.12339 -0.22668,-0.1234 -0.46302,0.4872 -0.46303,0.4872 h 0.26459 0.26458 v 1.05833 1.05833 h -0.42518 -0.42518 l 0.15229,0.39688 0.1523,0.39687 -0.45472,0.0307 -0.45472,0.0307 0.46302,0.121 0.46302,0.121 v 0.40642 0.40642 l 0.92605,-0.10811 0.92604,-0.10811 v 0.3658 0.36579 l 0.33073,-0.1114 0.33073,-0.1114 0.007,-0.57221 0.007,-0.57221 0.59231,-0.41488 0.59231,-0.41487 -0.14103,-0.2282 -0.14104,-0.22819 0.22412,-0.13851 0.22411,-0.13851 0.0594,1.46778 0.0594,1.46777 -0.28121,-0.17379 -0.2812,-0.1738 -0.39485,0.39485 -0.39484,0.39484 v 0.14464 0.14465 l 0.67868,-0.25804 0.67868,-0.25803 h 0.13068 0.13069 l -0.16352,0.26458 -0.16353,0.26458 h 0.26459 0.26458 l 0.16352,-0.26458 0.16352,-0.26458 h 0.26458 0.26458 l -0.16165,0.26155 -0.16165,0.26155 0.39455,-0.1514 0.39455,-0.1514 0.46181,0.25844 0.46182,0.25845 0.4803,-0.29995 0.48029,-0.29995 z m -2.48523,-4.60979 -0.1606,-0.41852 v -0.65543 -0.65543 l 0.2689,0.16619 0.2689,0.16619 -0.17051,0.27588 -0.1705,0.27588 0.36462,0.23095 0.36463,0.23095 -0.32243,0.004 -0.32242,0.004 0.15229,0.39688 0.1523,0.39687 h -0.13229 -0.13229 z m 23.64785,3.13049 -0.004,-0.99218 -0.25648,0.39687 -0.25648,0.39688 -0.004,0.59531 -0.004,0.59531 h 0.26458 0.26458 z m -97.965466,-6.85855 0.250068,0.15455 v -0.34544 -0.34543 l -1.080382,0.12135 -1.080382,0.12134 -0.110243,0.10344 -0.110243,0.10343 h 0.705555 0.705556 l 0.0041,0.33073 0.0041,0.33073 0.23095,-0.36463 0.230951,-0.36462 z m 4.508579,-0.45531 0.0524,-0.63313 -0.902174,-0.10532 -0.902174,-0.10533 0.129347,0.20929 0.129347,0.20929 h -0.264583 -0.264584 l -0.163521,-0.26458 -0.163522,-0.26459 h -0.337162 -0.337163 v 0.39688 0.39687 l 0.15434,0.0169 0.15434,0.0169 0.874369,0.0858 0.874369,0.0858 0.183965,0.19914 0.183964,0.19913 -0.79375,-0.17755 -0.79375,-0.17755 0.396875,0.26857 0.396875,0.26857 0.669896,0.004 0.669897,0.004 z m 2.393897,0.17011 -0.08917,-0.46302 h -0.52192 -0.52192 l -0.08917,0.46302 -0.08917,0.46302 h 0.700259 0.700259 z m 80.17381,-0.35649 0.34656,-0.55493 -0.15063,-0.15063 -0.15062,-0.15062 v 0.27199 0.27199 l -0.63044,-0.12052 -0.63045,-0.12051 -0.20277,0.32808 -0.20277,0.32809 0.76707,-0.18833 0.76707,-0.18832 -0.52917,0.4059 -0.52916,0.40591 0.39937,0.008 0.39938,0.008 z m -14.07945,-1.7101 -0.14613,-0.3808 h -0.26458 -0.26459 l 0.1523,0.39687 0.15229,0.39688 h -0.29289 -0.29289 v -0.50712 -0.50712 l 0.33073,-0.13345 0.33073,-0.13345 -0.46302,-0.0209 -0.46302,-0.0209 v 0.57312 0.57312 l 0.46302,0.44796 0.46302,0.44796 0.22058,-0.37569 0.22058,-0.37569 z m -68.160657,-2.89434 v -1.7198 H 73.236371 72.61901 l -0.195063,0.19507 -0.195063,0.19506 -0.342908,0.003 -0.342908,0.003 -0.961417,1.14961 -0.961417,1.14961 0.147989,0.23945 0.147989,0.23945 h 0.381261 0.38126 l 0.0041,-0.33072 0.0041,-0.33073 0.195246,0.30685 0.195245,0.30686 0.792891,0.11652 0.79289,0.11652 0.595312,0.0396 0.595313,0.0397 z m 80.830207,0.62256 v -0.95264 l 0.33073,0.1272 0.33073,0.1272 v -0.30851 -0.3085 l -0.24325,0.15034 -0.24325,0.15033 -0.39403,-0.39402 -0.39402,-0.39402 -0.0903,1.45693 -0.0903,1.45694 0.39687,-0.0793 0.39688,-0.0793 z m 11.07673,0.43374 0.39891,-0.3989 0.16477,0.26661 0.16478,0.26661 h 0.24897 0.24897 v -0.80936 -0.80937 l -0.2689,0.16619 -0.2689,0.16619 0.17607,0.28489 0.17607,0.28489 -0.72309,-0.18149 -0.72309,-0.18148 0.17408,0.34133 0.17408,0.34134 -0.35793,-0.43351 -0.35794,-0.4335 -0.58676,0.47513 -0.58676,0.47513 -0.53013,-0.13863 -0.53014,-0.13863 v 0.27339 0.27339 l 0.33073,0.13346 0.33073,0.13345 0.97329,0.0209 0.97329,0.0209 z m -95.436673,-2.30825 -0.306723,-0.19516 -0.198437,-0.004 -0.198438,-0.004 v 0.82306 0.82306 l 0.50516,-0.62385 0.50516,-0.62384 z m -2.871236,0.19243 -0.03486,-0.92722 0.169513,-0.16952 0.169513,-0.16951 1.923923,-0.12488 1.923922,-0.12487 0.396875,-0.24811 0.396875,-0.24811 -2.182812,0.16499 -2.182813,0.16499 v -0.43068 -0.43067 l 0.276174,0.17069 0.276173,0.17068 0.348732,-0.28942 0.348732,-0.28942 1.34472,0.0929 1.34472,0.0929 0.345479,-0.21912 0.345479,-0.21911 -2.844271,-0.004 -2.844271,-0.004 v 1.98438 1.98437 h 0.256526 0.256527 z m 98.740559,-0.66028 v -0.79375 h 0.39687 0.39688 l -0.008,-0.99218 -0.008,-0.99219 -0.67319,0.76572 -0.67319,0.76571 0.27071,0.16731 0.27071,0.16731 -0.25062,0.38989 -0.25062,0.38989 -0.28954,-0.39687 -0.28954,-0.39688 0.14895,0.46302 0.14894,0.46302 h -0.25628 -0.25628 v 0.2802 0.2802 l 0.2463,-0.15222 0.24631,-0.15222 0.16618,0.2689 0.16619,0.26889 h 0.24897 0.24897 z m -7.5624,-0.82898 -0.11915,-0.19278 0.2689,-0.16619 0.2689,-0.16619 v -0.50525 -0.50525 l -0.39688,0.1523 -0.39687,0.15229 0.004,1.09617 0.004,1.09618 0.24307,-0.38425 0.24307,-0.38424 z m -58.23297,0.19305 0.1425,-0.37136 -0.14505,-0.55469 -0.14505,-0.55468 H 99.760344 99.27034 l 0.139194,0.36273 0.139193,0.36273 -0.412081,0.15813 -0.41208,0.15813 v 0.40518 0.40518 h 0.765442 0.765442 z m 9.7037,-0.14162 -0.39687,-0.2323 0.0907,-1.47991 0.0907,-1.47991 0.28095,0.17363 0.28095,0.17364 -0.18879,-0.30547 -0.18879,-0.30546 h -0.22547 -0.22546 l -0.0936,1.65365 -0.0936,1.65364 0.26854,0.19439 0.26853,0.19438 0.26459,-0.004 0.26458,-0.004 z m -8.20209,-0.80995 v -0.26458 l -0.33072,-0.004 -0.33073,-0.004 0.39687,-0.25648 0.39688,-0.25648 -0.52917,-0.0226 -0.52917,-0.0226 0.52917,-0.22739 0.52917,-0.22739 -0.39688,-0.0145 -0.39687,-0.0145 -0.39688,0.25648 -0.39687,0.25648 0.3129,0.004 0.3129,0.004 0.16795,0.52917 0.16795,0.52917 h 0.24675 0.24675 z m 60.37857,-2.11666 0.14149,-0.39688 -0.2355,-0.63372 -0.2355,-0.63373 -0.14805,0.14805 -0.14804,0.14804 0.29743,0.55575 0.29743,0.55576 -0.35111,0.13473 -0.3511,0.13473 -0.0593,0.71705 -0.0593,0.71706 0.35507,-0.52498 0.35508,-0.52499 z m -14.60565,0.49913 v -0.23455 h -0.5481 -0.5481 l 0.081,-0.61827 0.081,-0.61827 -0.45896,-0.45896 -0.45896,-0.45896 v 0.55165 0.55166 l 0.33073,0.56014 0.33073,0.56015 -0.33238,0.12032 -0.33238,0.12032 0.12229,0.19787 0.1223,0.19787 0.80539,-0.1182 0.8054,-0.11821 z m -56.356248,-3.16058 v -3.19062 l -0.264583,0.16353 -0.264583,0.16352 v 2.8507 2.85071 l 0.176389,0.17639 0.176388,0.17638 h 0.08819 0.08819 z m 69.759488,2.54263 -0.14712,-0.3834 0.3834,0.14712 0.3834,0.14713 v -0.19758 -0.19757 l -0.46302,-0.35149 -0.46302,-0.35148 -0.16904,-0.008 -0.16904,-0.008 0.0368,0.46302 0.0368,0.46302 0.26458,0.32067 0.26459,0.32066 0.0944,0.0101 0.0944,0.0101 z m -60.76365,-0.14577 v -0.26458 l 0.85989,-0.004 0.8599,-0.004 -0.35898,-0.22746 -0.35898,-0.22746 0.29283,-0.18098 0.29283,-0.18098 v -0.2065 -0.2065 l -0.69186,-0.31523 -0.69186,-0.31523 -0.45466,0.1443 -0.45467,0.14431 v 0.39304 0.39304 h 0.74965 0.74965 v 0.20887 0.20887 l -0.72033,-0.0104 -0.72034,-0.0104 -0.09281,0.46302 -0.09281,0.46302 h 0.416275 0.416275 z m 65.89091,-0.80595 0.84788,-1.07053 -0.18403,-0.18403 -0.18404,-0.18404 -0.25057,0.44776 -0.25058,0.44776 -0.32489,0.34483 -0.32489,0.34482 -0.36313,0.46199 -0.36312,0.46198 h 0.27474 0.27475 z m -17.63293,0.19804 0.46953,-0.34333 -0.74969,0.0446 -0.7497,0.0446 -0.26458,0.0382 -0.26458,0.0382 0.39687,0.25648 0.39688,0.25648 0.14786,0.004 0.14787,0.004 z m 14.6473,-2.23636 -0.26383,-0.33073 h 0.29698 0.29698 v -1.05833 -1.05833 h -0.56333 -0.56333 l 0.18755,2.14998 0.18754,2.14999 0.17185,0.4297 0.17185,0.4297 0.17079,-1.19062 0.17078,-1.19063 z m -13.75893,0.77139 0.59531,-0.32698 v 0.31799 0.31799 l 0.15655,-0.15655 0.15654,-0.15654 -0.28079,-0.48287 -0.28079,-0.48286 -0.008,0.36312 -0.008,0.36313 -0.35507,-0.29469 -0.35507,-0.29468 -0.1741,0.17409 -0.17409,0.1741 0.004,-0.24254 0.004,-0.24253 0.25648,-0.39688 0.25648,-0.39687 0.004,0.42275 0.004,0.42276 0.76763,0.0218 0.76763,0.0218 -0.064,-0.44458 -0.064,-0.44458 -1.23281,-0.0806 -1.23281,-0.0806 v 0.27908 0.27908 h -0.28019 -0.2802 l 0.16352,-0.26458 0.16352,-0.26459 h -0.9728 -0.97251 l 0.13847,0.52954 0.13848,0.52953 -0.23991,-0.14827 -0.23991,-0.14828 v 0.66111 0.6611 l 0.99219,0.0821 0.99219,0.0821 0.52916,-0.0131 0.52917,-0.013 z m -18.04752,-0.82616 -0.39994,-0.44193 0.31389,-0.31389 0.31388,-0.31389 h -0.30188 -0.30189 l -0.16751,0.27104 -0.16751,0.27104 0.1757,0.79994 0.17569,0.79994 0.37975,-0.31516 0.37975,-0.31517 z m 7.14075,0.49483 0.14724,-0.46393 0.10598,-0.5503 0.10598,-0.55031 h -0.51397 -0.51398 v 0.26459 0.26458 h 0.30868 0.30868 l -0.19802,0.19802 -0.19802,0.19802 -0.3188,-0.43597 -0.31879,-0.43598 -0.65176,0.38683 -0.65176,0.38683 0.59568,-0.1242 0.59567,-0.1242 -0.14827,0.23991 -0.14827,0.23991 h -0.51355 -0.51355 v 0.29289 0.29289 l 0.39687,-0.1523 0.39688,-0.15229 v 0.34447 0.34448 h 0.78991 0.78992 z m -37.975,-0.82709 v -0.20828 l 0.46302,0.004 0.46302,0.004 -0.39688,0.25648 -0.39687,0.25648 0.59531,0.004 0.59531,0.004 -0.0313,-0.19844 -0.0313,-0.19844 0.0313,-0.46302 0.0313,-0.46302 h 0.38044 0.38043 l -0.0367,-0.48769 -0.0367,-0.4877 -1.7989,-0.0295 -1.798907,-0.0295 v 0.51717 0.51718 h 0.264583 0.264584 v 0.64502 0.64501 l 0.52917,-0.0399 0.52916,-0.0399 z m 32.90406,-0.23088 0.16886,0.0226 h 0.45357 0.45357 l -0.46314,-0.46302 -0.46314,-0.46302 -0.25096,0.39687 -0.25097,0.39688 -0.004,-0.33073 -0.004,-0.33073 -0.33073,0.0661 -0.33072,0.0661 -0.19439,0.26459 -0.19439,0.26458 -0.004,0.22674 -0.004,0.22675 0.39688,-0.1523 0.39687,-0.15229 0.004,0.32242 0.004,0.32243 0.22397,-0.35333 0.22397,-0.35332 z m 28.21469,0.18797 v -0.36381 l 0.16537,-0.82682 0.16536,-0.82682 h -0.56224 -0.56224 l -0.0403,0.46302 -0.0403,0.46302 -0.0328,0.26458 -0.0328,0.26459 -0.19468,0.3107 -0.19469,0.31071 0.46626,0.12162 0.46626,0.12162 0.19844,0.0307 0.19844,0.0307 z m 4.20079,-0.46087 0.62892,-0.79539 -0.27118,-0.84362 -0.27117,-0.84361 -0.027,0.46302 -0.027,0.46302 h -0.39688 -0.39687 v 0.77211 0.77211 l -0.1606,0.41851 -0.1606,0.41852 0.22674,-0.0146 0.22675,-0.0146 z m -55.71788,-0.23367 -0.13838,-0.52916 h 0.29545 0.29544 v -0.39688 -0.39687 h -0.52917 -0.52916 v 0.74965 0.74965 l 0.17638,0.17639 0.17639,0.17639 h 0.19572 0.19571 z m 20.29626,-0.50711 v -0.50712 l -0.33073,-0.1519 -0.33073,-0.1519 0.59531,0.14768 0.59531,0.14768 v -0.22611 -0.22611 l -0.52395,-0.0395 -0.52396,-0.0395 -0.15458,0.25011 -0.15458,0.25012 0.1672,0.5268 0.1672,0.52679 h 0.24675 0.24676 z m 4.14514,-0.41865 v -0.36857 l -0.49054,0.26253 -0.49054,0.26253 -0.32526,-0.20251 -0.32526,-0.20251 -0.5939,0.0767 -0.5939,0.0767 0.0523,-0.63165 0.0523,-0.63164 1.05175,-0.0621 1.05175,-0.0621 0.1992,-0.12311 0.19919,-0.12311 0.16619,0.2689 0.16619,0.2689 0.44741,-0.004 0.4474,-0.004 0.39467,-0.24952 0.39466,-0.24951 -0.32852,-0.32852 -0.32852,-0.32852 v -1.13771 -1.13771 h 0.25009 0.25009 l 0.0806,-1.25677 0.0806,-1.25677 1.45521,-0.0436 1.45521,-0.0436 -0.43402,0.1236 -0.43401,0.12359 0.27997,0.91223 0.27997,0.91223 h 0.21706 0.21707 l 0.16923,-1.05834 0.16924,-1.05833 0.56149,0.0307 0.5615,0.0307 -0.44862,0.11822 -0.44862,0.11823 -0.0805,1.10352 -0.0805,1.10353 -0.72761,0.0546 -0.7276,0.0546 v -1.04248 -1.04248 h -0.51355 -0.51356 l -0.14955,0.24198 -0.14956,0.24199 0.31157,0.10385 0.31156,0.10386 0.0444,0.60292 0.0444,0.60293 -0.59322,0.22554 -0.59321,0.22554 -0.13138,0.21476 -0.13138,0.21475 -0.0928,0.7154 -0.0928,0.71541 0.235,-0.0104 0.235,-0.0104 0.21406,0.34634 0.21405,0.34634 -0.31676,0.21646 -0.31677,0.21645 0.39688,-0.0424 0.39687,-0.0424 0.47864,0.0314 0.47863,0.0313 -0.15222,0.24631 -0.15222,0.2463 0.2689,0.16619 0.2689,0.16618 v 0.26459 0.26458 l -0.24199,-0.14955 -0.24198,-0.14956 -0.15245,0.33238 -0.15245,0.33238 0.1582,-0.62845 0.15819,-0.62845 -0.33381,0.20631 -0.33381,0.20631 0.18879,-0.30547 0.18879,-0.30546 h -0.31106 -0.31106 l 0.13838,0.52916 0.13838,0.52917 h -0.24912 -0.24912 l -0.65215,-0.4273 -0.65215,-0.42731 v 0.27297 0.27296 l 0.33073,0.1519 0.33073,0.1519 -0.59531,-0.14768 -0.59532,-0.14768 v 0.4147 0.41471 h 0.47625 0.47625 l 0.3175,-0.3175 0.3175,-0.3175 v 0.3175 0.3175 h 1.05834 1.05833 l 0.0417,-0.72761 0.0417,-0.7276 -0.009,-0.30981 -0.009,-0.3098 0.3907,0.14992 0.39069,0.14992 0.22686,-0.36707 0.22686,-0.36707 0.32852,0.32852 0.32852,0.32851 h 0.8521 0.8521 l 0.18208,-0.82897 0.18207,-0.82898 0.23177,0.36596 0.23178,0.36595 0.004,-1.10886 0.004,-1.10887 -0.30033,-0.18561 -0.30033,-0.18561 0.63106,-0.34979 0.63105,-0.3498 -0.28417,-0.009 -0.28418,-0.009 0.0504,-0.85989 0.0504,-0.8599 0.24583,0.0481 0.24583,0.0481 -0.0441,-0.70957 -0.0441,-0.70957 -0.0341,-0.43848 -0.0341,-0.43849 -3.89971,-0.0349 -3.89971,-0.0349 0.32784,0.32784 0.32783,0.32783 v 0.84227 0.84226 l -0.58376,0.15266 -0.58375,0.15266 -0.1218,-0.1218 -0.1218,-0.1218 h 0.30868 0.30868 v -1.19062 -1.19063 h -0.94947 -0.94948 l 0.1447,-1.42063 0.14471,-1.42063 0.18072,-7.04604 0.18071,-7.04603 h -0.45872 -0.45872 l 0.0906,-1.45067 0.0906,-1.45068 -0.20164,-0.0707 -0.20165,-0.0707 -0.78978,0.52917 -0.78978,0.52916 -7.6e-4,0.27181 -7.7e-4,0.27182 0.78949,0.69276 0.78949,0.69276 -0.59105,0.14511 -0.59105,0.14512 -1.38906,0.18117 -1.38907,0.18117 v 0.74405 0.74405 l -0.29576,0.18279 -0.29577,0.18279 0.15842,1.15574 0.15841,1.15574 h -0.39182 -0.39181 v 0.66146 0.66146 l 0.46302,0.008 0.46302,0.008 -0.46511,0.27085 -0.46512,0.27086 -0.26249,-0.16222 -0.26249,-0.16223 v 0.67707 0.67708 h 0.24676 0.24675 l 0.16795,-0.52917 0.16795,-0.52917 h 0.25951 0.2595 l -0.0444,2.77813 -0.0444,2.77812 h -0.77773 -0.77774 l 0.16352,0.26459 0.16352,0.26458 0.5797,-5.9e-4 0.5797,-6e-4 -0.0836,2.48456 -0.0836,2.48455 -0.80493,0.16099 -0.80494,0.16098 0.14939,0.38929 0.14938,0.38929 -0.28128,0.17384 -0.28127,0.17383 0.35898,0.22746 0.35897,0.22746 -0.43819,0.004 -0.43819,0.004 -0.18648,-1.35583 -0.18647,-1.35583 0.17014,-7.44156 0.17015,-7.44157 0.15407,-6.61458 0.15408,-6.61458 -0.002,-0.59356 -0.002,-0.59357 0.23648,0.14616 0.23649,0.14616 v -0.16681 -0.16681 l -0.39688,-0.39687 -0.39687,-0.39688 v -1.03943 -1.03943 h 0.27618 0.27618 l -0.0533,-0.33073 -0.0533,-0.33073 0.22163,-0.5133 0.22162,-0.5133 -0.25282,-0.0843 -0.25281,-0.0843 0.10071,-1.05608 0.10071,-1.05607 H 111.21576 95.076378 l -0.02421,0.59531 -0.02421,0.59531 -0.08623,5.42396 -0.08623,5.42396 -0.218565,1.52135 -0.218564,1.52136 h 0.311902 0.311901 l -0.128653,1.38906 -0.128653,1.38906 0.501391,-0.66146 0.501391,-0.66146 0.861014,-1.76816 0.861013,-1.76817 0.210567,0.13013 0.210567,0.13014 0.03307,-0.2802 0.03307,-0.28019 0.03307,-0.20701 0.03307,-0.20701 0.503204,-1.11591 0.503205,-1.11591 h 0.2244 0.2244 v -0.47927 -0.47928 l 0.529162,-0.56799 0.52917,-0.568 v -0.41724 -0.41725 l 0.45667,-0.7183 0.45667,-0.71829 0.33708,-0.21159 0.33708,-0.21158 v -0.51602 -0.51602 l 0.54695,-0.54695 0.54695,-0.54695 0.0385,-0.51138 0.0385,-0.51139 h 0.34057 0.34057 l -0.002,0.0662 -0.002,0.0661 -1.2786,2.51355 -1.2786,2.51354 -1.592469,3.04271 -1.592467,3.0427 -1.262996,2.51355 -1.262996,2.51354 -0.560009,1.13911 -0.560008,1.13912 0.468586,0.26621 0.468585,0.2662 -0.153471,0.24833 -0.153472,0.24832 0.610928,0.0209 0.610927,0.0209 -0.330729,0.13345 -0.330729,0.13345 v 0.51542 0.51542 l -0.463021,0.17084 -0.463021,0.17083 -0.194386,0.28388 -0.194386,0.28389 -0.0041,3.77031 -0.0041,3.77031 h 0.264584 0.264583 l 0.05007,-1.91823 0.05007,-1.91823 -0.01033,-1.85208 -0.01033,-1.85208 0.185581,0.52916 0.18558,0.52917 0.200122,0.58655 0.200123,0.58655 0.5006,0.15888 0.500599,0.15889 v 2.61601 2.61602 l 0.859896,0.13735 0.859896,0.13735 0.992187,0.11014 0.992183,0.11014 0.0268,-2.02144 0.0268,-2.02144 -0.0448,-0.83317 -0.0448,-0.83318 0.32344,-0.19989 0.32343,-0.1999 -0.19071,0.30858 -0.1907,0.30857 0.86504,0.17301 0.86505,0.17301 -0.51678,0.20216 -0.51679,0.20216 0.46303,0.0186 0.46302,0.0186 v 0.79375 0.79375 l -0.33073,0.0209 -0.33073,0.0209 0.33073,0.13345 0.33073,0.13345 v 1.43316 1.43316 h 0.96159 0.9616 l -0.13252,1.85209 -0.13252,1.85208 0.69228,-0.0186 0.69228,-0.0186 -0.52917,-0.22739 -0.52917,-0.2274 0.8405,-0.0186 0.8405,-0.0186 0.12055,0.46302 0.12056,0.46302 0.0118,-2.9633 0.0118,-2.9633 0.18292,-2.09698 0.18292,-2.09697 0.45583,0.1192 0.45583,0.11921 0.17095,-3.79018 0.17094,-3.79018 0.33413,-1.29482 0.33412,-1.29482 0.58774,-0.21521 0.58774,-0.2152 0.40688,0.40688 0.40688,0.40688 -0.17813,0.28821 -0.17813,0.28822 0.42215,-0.162 0.42215,-0.16199 -0.10546,0.54757 -0.10545,0.54757 0.27617,0.51603 0.27616,0.51602 0.37659,-0.14451 0.37658,-0.14451 v 0.25628 0.25628 h -0.39687 -0.39688 v 0.38126 0.38126 l 0.2845,0.17583 0.2845,0.17583 -0.53167,0.49533 -0.53168,0.49533 -1.04226,0.16667 -1.04225,0.16666 -0.16348,1.3606 -0.16347,1.3606 -0.002,1.91823 -0.002,1.91823 -0.33073,0.0209 -0.33073,0.0209 0.33073,0.13345 0.33073,0.13345 v 1.96233 1.96233 l -0.59532,0.036 -0.59531,0.036 0.59531,0.11466 0.59532,0.11466 v 1.43681 1.43681 h 0.11065 0.11065 l 0.41851,0.16059 0.41852,0.1606 v -0.93545 -0.93545 l 0.44478,-0.44478 0.44478,-0.44478 1.14272,0.1288 1.14272,0.1288 0.0264,-5.06073 0.0264,-5.06073 0.21183,-0.66146 0.21184,-0.66146 0.0264,1.91823 0.0264,1.91823 h 0.39687 0.39688 v 0.92604 0.92605 l 0.59531,0.0264 0.59531,0.0264 -0.66145,0.21184 -0.66146,0.21183 0.59531,0.0264 0.59531,0.0264 v 1.56545 1.56545 l -0.33073,0.1342 -0.33073,0.1342 0.39688,0.28067 0.39687,0.28068 -0.66145,0.0401 -0.66146,0.0401 0.61182,0.11683 0.61181,0.11683 -0.16982,0.77318 -0.16982,0.77319 h 0.66044 0.66043 l 0.13345,-0.33073 0.13345,-0.33073 0.0209,0.45981 0.0209,0.45981 0.72761,-0.0629 0.7276,-0.0629 0.63068,-0.44656 0.63067,-0.44655 -0.42099,-0.421 -0.421,-0.421 0.14295,-0.37251 0.14294,-0.37251 0.34892,0.13389 0.34891,0.13389 0.18927,-2.52456 0.18928,-2.52457 -0.14153,-4.7827 -0.14154,-4.7827 -0.2549,-0.31781 -0.25491,-0.31781 -0.11164,-1.00179 -0.11164,-1.00179 0.80789,0.18549 0.80789,0.18549 0.44164,-0.0255 0.44164,-0.0255 0.14537,0.37882 0.14537,0.37883 h 0.40518 0.40518 v -0.97014 -0.97014 l 0.19058,0.19058 0.19058,0.19058 -0.0811,0.94158 -0.0811,0.94157 0.26913,-0.16633 0.26913,-0.16634 0.15614,0.25264 0.15614,0.25264 0.50663,-0.0976 0.50664,-0.0976 0.13143,0.70914 0.13143,0.70915 0.1738,1.05833 0.1738,1.05833 0.2733,0.33073 0.2733,0.33073 h -0.29698 -0.29698 v 1.05834 1.05833 l -1.12448,0.004 -1.12448,0.004 -0.31499,0.20028 -0.31499,0.20027 -0.0565,1.93419 -0.0565,1.93418 -0.37504,0.37503 -0.37503,0.37503 h 0.28348 0.28349 v 3.83646 3.83646 h 0.64584 0.64584 l 0.14467,-0.23408 0.14467,-0.23407 0.75347,0.0593 0.75347,0.0593 0.29481,0.18221 0.29481,0.1822 -0.54866,0.92992 -0.54867,0.92992 0.14845,0.91476 0.14844,0.91476 -0.84326,0.0472 -0.84326,0.0472 -0.52917,-0.0392 -0.52916,-0.0392 -1.38012,0.14225 -1.38011,0.14225 0.32178,0.54581 0.32178,0.54582 -0.33073,0.11977 -0.33073,0.11977 v 0.37483 0.37482 h 0.26459 0.26458 v 0.66146 0.66146 h -0.2802 -0.2802 l 0.18879,-0.30546 0.18879,-0.30547 -0.3227,0.19944 -0.3227,0.19944 0.44561,0.4924 0.44562,0.4924 0.16693,-0.0208 0.16693,-0.0208 0.92605,0.0626 0.92604,0.0626 -0.79375,0.1873 -0.79375,0.1873 1.99873,0.2045 1.99872,0.20451 2.10232,-0.14577 2.10231,-0.14577 0.52917,-0.0313 0.52916,-0.0314 -0.52916,-0.25035 -0.52917,-0.25035 1.05833,0.12919 1.05834,0.12919 0.59243,-0.15493 0.59244,-0.15494 -0.0813,-1.02823 -0.0813,-1.02823 2.00244,0.051 2.00244,0.051 -1.66133,0.0941 -1.66134,0.0941 0.16276,0.26335 0.16276,0.26334 -0.27223,0.32802 -0.27223,0.32801 0.2454,0.388 0.2454,0.388 0.004,0.19844 0.004,0.19844 h -1.09073 -1.09073 l 0.32696,0.39396 0.32696,0.39396 0.22305,-0.13785 0.22304,-0.13785 -0.0258,0.60378 -0.0259,0.60379 0.0374,0.30934 0.0374,0.30933 1.5434,0.007 1.5434,0.007 z m -12.66909,-4.56127 1.39794,-0.0975 1.2479,0.0987 1.2479,0.0987 -2.64583,-0.001 -2.64584,-0.001 z m 7.20103,-3.22965 v -0.84397 l 0.59531,0.18299 0.59532,0.18299 0.0904,0.0796 0.0904,0.0796 -0.28079,0.48287 -0.28079,0.48286 -0.008,-0.23083 -0.008,-0.23084 -0.39687,0.32938 -0.39688,0.32938 z m -12.41453,-19.67549 -0.0209,-2.5953 0.21945,0.13562 0.21945,0.13563 -0.10558,2.19509 -0.10559,2.19509 -0.093,0.26459 -0.093,0.26458 z m 26.26335,26.71878 0.1741,0.17409 v -0.30868 -0.30868 l -1.38906,0.0445 -1.38907,0.0445 0.99773,0.10412 0.99773,0.10412 -0.18862,0.31442 -0.18862,0.31443 0.40586,-0.32843 0.40586,-0.32844 z m 20.8116,-1.74414 v -0.7717 l 0.27759,-0.0925 0.27759,-0.0925 -0.17911,-1.12015 -0.17912,-1.12014 h -0.36306 -0.36306 v 0.56298 0.56299 l -1.12448,-0.15956 -1.12448,-0.15956 0.99219,0.41862 0.99219,0.41863 v 0.22067 0.22067 l -0.26459,0.16352 -0.26458,0.16352 v 0.77814 0.77813 h 0.66146 0.66146 z m 2.11666,0.39688 v -0.37483 l 0.32102,-0.10701 0.32102,-0.107 -0.55677,-0.70782 -0.55677,-0.70782 -0.12424,0.99121 -0.12424,0.99122 0.11102,0.19843 0.11103,0.19844 h 0.24897 0.24896 z m -56.71651,-1.87414 -0.15229,-0.39687 h 0.25628 0.25628 v -2.64584 -2.64583 h -0.49148 -0.49147 l -0.16999,1.62631 -0.16998,1.62632 v 0.88723 0.88722 l 0.46302,0.50712 0.46302,0.50712 0.0945,0.0221 0.0944,0.0221 z m 51.49099,-3.22943 -0.59531,-0.11466 v -0.37848 -0.37847 h 2.02847 2.02847 l -0.13825,-0.13825 -0.13826,-0.13826 -1.95636,-0.0601 -1.95636,-0.0601 -0.0837,0.72754 -0.0837,0.72754 0.74518,-0.036 0.74518,-0.036 z m -37.4431,-1.66536 0.0616,-0.66146 -0.24143,0.52917 -0.24142,0.52917 -0.0186,-0.56701 -0.0186,-0.567 -0.43475,-0.16683 -0.43474,-0.16683 -0.0631,0.0724 -0.0631,0.0724 0.13304,0.87409 0.13305,0.87409 0.5632,-0.0803 0.5632,-0.0803 z m 37.64154,-1.13759 v -0.21655 l -0.26458,0.16352 -0.26459,0.16352 v -0.29581 -0.29582 l -0.24198,0.14956 -0.24199,0.14955 -0.11186,-0.33238 -0.11186,-0.33237 -0.4399,0.36312 -0.43991,0.36313 v -0.29698 -0.29698 h 0.23564 0.23564 l 0.10811,-0.92604 0.10811,-0.92604 h -0.47604 -0.47604 v 0.39687 0.39688 h -0.25628 -0.25628 l 0.1523,-0.39688 0.15229,-0.39687 h -0.26203 -0.26203 l -0.15954,0.59531 -0.15954,0.59531 -0.004,0.33073 -0.004,0.33073 h 0.24519 0.24518 l 0.121,-0.46302 0.121,-0.46302 0.0307,0.7193 0.0307,0.7193 -0.46302,-0.14397 -0.46302,-0.14396 0.4714,0.30239 0.4714,0.3024 0.58693,-0.0471 0.58693,-0.0471 0.49542,0.0293 0.49542,0.0293 -0.36313,0.43938 -0.36312,0.43938 0.59531,-0.37073 0.59531,-0.37074 z m 6.08542,0.11595 v -0.22789 l -0.63045,0.12051 -0.63044,0.12052 -0.17892,-0.2895 -0.17892,-0.2895 h -0.56412 -0.56413 l 0.51359,0.38846 0.5136,0.38846 0.85989,0.008 0.8599,0.008 z m -87.841671,-3.35129 v -0.37296 l 0.399876,0.15345 0.399875,0.15344 -0.163599,-0.42633 -0.1636,-0.42633 h -0.35542 -0.355421 l -0.269685,-0.46303 -0.269685,-0.46302 -0.008,0.8599 -0.008,0.8599 h 0.292891 0.292891 l -0.157569,0.41061 -0.157568,0.41062 0.261552,-0.16165 0.261553,-0.16165 z m 9.260417,0.40418 -0.396875,-0.25648 0.478635,-0.004 0.478636,-0.004 -0.176771,-0.28602 -0.176771,-0.28603 -0.69874,0.16177 -0.698739,0.16177 0.396875,-0.26857 0.396875,-0.26857 -0.463021,-0.004 -0.463021,-0.004 v 0.66146 0.66146 l 0.859896,-0.004 0.859896,-0.004 z m 64.558334,-0.11289 v -0.37747 l 0.46302,-0.121 0.46302,-0.121 -0.92604,-0.01 -0.92604,-0.01 0.33073,0.13345 0.33073,0.13345 v 0.22314 0.22313 l -0.46302,0.121 -0.46302,0.121 0.59531,0.0307 0.59531,0.0307 z m -59.398959,-0.41627 -0.163522,-0.26459 h 0.280198 0.280199 v -0.39687 -0.39688 h -0.396875 -0.396875 v 0.24295 0.24294 l -0.1606,0.41851 -0.160599,0.41852 h 0.440798 0.440797 z m 49.513699,-0.39688 -0.1523,-0.39687 h 0.38857 0.38857 v -0.42928 -0.42927 l -0.38528,0.31976 -0.38529,0.31976 -0.30257,-0.187 -0.30257,-0.187 0.29131,0.54431 0.2913,0.54431 -0.86022,0.10673 -0.86022,0.10674 1.0205,0.0423 1.02049,0.0423 z m 3.53526,0.15747 v -0.23941 l -1.12448,0.14352 -1.12448,0.14352 -0.11024,0.0959 -0.11024,0.0959 h 1.23472 1.23472 z m 3.96875,-0.23374 -0.66146,-0.10937 -0.19438,-0.30405 -0.19439,-0.30406 -0.004,0.33073 -0.004,0.33073 h -0.39678 -0.39687 v -0.26458 -0.26459 h -0.23373 -0.23372 l -0.12171,0.46302 -0.12171,0.46302 1.6122,-0.11573 1.61221,-0.11574 z m -72.919412,-0.49975 0.423578,0.16254 v -0.13602 -0.13601 l -0.677494,-0.67749 -0.677494,-0.6775 -0.163087,0.16309 -0.163087,0.16309 0.509852,0.41376 0.509852,0.41376 -0.33073,-0.16753 -0.330729,-0.16752 0.0041,0.61092 0.0041,0.61093 0.233829,-0.36928 0.233829,-0.36929 z m 80.436882,0.28371 0.41699,-0.16001 -0.14639,-0.23686 -0.14638,-0.23686 0.61092,-0.009 0.61093,-0.009 -0.66146,-0.37813 -0.66145,-0.37812 0.34634,-0.009 0.34634,-0.009 -0.16352,-0.26458 -0.16352,-0.26459 h 0.2802 0.2802 v 0.39688 0.39687 h 0.23981 0.23981 l -0.13838,-0.52916 -0.13838,-0.52917 h -1.57225 -1.57226 l 0.16352,0.26458 0.16352,0.26459 h 0.51356 0.51355 v 0.52916 0.52917 l 0.33073,0.0209 0.33073,0.0209 -0.33073,0.13346 -0.33073,0.13345 v 0.24253 0.24254 h 0.11065 0.11065 z m -11.45487,-0.43529 0.0314,-0.33073 -0.0578,-0.39688 -0.0578,-0.39687 -0.30429,-0.19439 -0.30428,-0.19439 1.45521,-0.0304 1.4552,-0.0304 0.66146,-0.21183 0.66146,-0.21184 -0.26458,-0.0263 -0.26459,-0.0263 v -1.45467 -1.45468 l 0.28602,-6e-4 0.28602,-6e-4 0.35226,-0.6582 0.35226,-0.6582 0.31211,0.25903 0.31211,0.25903 0.18807,-0.18808 0.18808,-0.18808 -0.16817,0.43825 -0.16817,0.43825 -0.33585,-0.12887 -0.33584,-0.12888 -0.42778,0.65288 -0.42779,0.65289 0.98396,0.14547 0.98396,0.14547 0.76637,-0.10456 0.76637,-0.10456 0.15967,-0.23595 0.15968,-0.23595 0.66146,0.19053 0.66145,0.19053 -0.53531,0.0264 -0.53531,0.0264 -0.0418,1.05833 -0.0418,1.05834 h 1.24556 1.24557 l -0.0992,-1.04039 -0.0992,-1.04038 0.55525,0.1452 0.55524,0.1452 v 0.76289 0.76289 l 0.33073,0.004 0.33073,0.004 0.59531,0.15954 0.59531,0.15953 0.0209,-0.49388 0.0209,-0.49388 0.13346,0.33073 0.13345,0.33073 h 0.37483 0.37482 v -0.54656 -0.54656 l -0.2813,-0.52561 -0.2813,-0.52562 1.27349,0.0483 1.27349,0.0483 1.05833,-0.16107 1.05833,-0.16108 -0.66145,0.2325 -0.66146,0.2325 0.33073,0.0264 0.33073,0.0264 v 0.79375 0.79375 h 0.66145 0.66146 v -0.49878 -0.49879 l -0.37936,-1.28715 -0.37935,-1.28716 -0.83354,-3.43958 -0.83354,-3.43958 -0.4944,-1.98438 -0.49441,-1.98437 -0.55921,-2.11667 -0.5592,-2.11667 -0.49141,-2.11666 -0.49141,-2.11667 -0.0507,-0.13229 -0.0507,-0.13229 -0.0423,-0.39688 -0.0423,-0.39687 0.21447,-0.46302 0.21447,-0.46302 h -0.3022 -0.3022 l 0.14472,-0.37714 0.14472,-0.37714 -0.22303,-0.87963 -0.22302,-0.87964 -0.16301,-0.7276 -0.16301,-0.7276 h -10.44601 -10.446 l -0.0307,0.7276 -0.0307,0.7276 -0.0823,1.7198 -0.0823,1.71979 -0.0807,7.3337 -0.0807,7.3337 0.25983,0.22934 0.25984,0.22934 1.25343,0.46121 1.25343,0.46121 0.53251,0.74784 0.53251,0.74784 v 0.37808 0.37808 l 0.15816,0.15816 0.15816,0.15816 0.371,-0.14237 0.37101,-0.14237 0.0168,-0.43471 0.0168,-0.43471 0.23929,0.59531 0.23929,0.59531 h 0.48712 0.48712 l 0.48457,0.35432 0.48456,0.35433 -0.45076,0.17297 -0.45077,0.17298 0.16468,0.26645 0.16467,0.26645 h -0.29165 -0.29165 l 0.0776,0.98283 0.0776,0.98283 -0.49113,0.10032 -0.49112,0.10031 -0.27459,-0.27459 -0.2746,-0.27459 0.53742,0.14054 0.53742,0.14054 0.1759,-0.28461 0.17589,-0.2846 -0.38385,0.1473 -0.38386,0.1473 -0.19993,-0.3235 -0.19994,-0.32351 0.30734,0.18995 0.30733,0.18994 0.16311,-0.42506 0.16311,-0.42505 -0.15859,-0.15859 -0.15858,-0.15858 -0.33712,0.26185 -0.33713,0.26185 -1.96964,0.0389 -1.96964,0.0389 -0.2483,0.2483 -0.24831,0.24831 0.14503,0.37794 0.14504,0.37795 0.55266,0.14452 0.55266,0.14453 0.15987,-0.63698 0.15987,-0.63697 0.43434,0.004 0.43434,0.004 -0.29112,0.19438 -0.29112,0.19439 -0.31643,0.60078 -0.31643,0.60078 0.18541,0.3 0.18541,0.29999 -0.34635,-0.21405 -0.34634,-0.21405 0.18879,0.30546 0.18878,0.30547 h 1.02596 1.02595 l 0.11867,0.85989 0.11867,0.8599 -0.0228,-1.25648 -0.0228,-1.25647 0.35662,-0.33103 0.35661,-0.33102 -0.18672,0.33073 -0.18672,0.33073 h 0.29581 0.29582 l -0.16353,0.26458 -0.16352,0.26458 h 0.28951 0.28951 l -0.29063,0.54303 -0.29062,0.54304 0.087,0.44915 0.087,0.44916 h 1.58336 1.58336 l 0.0837,0.7276 0.0837,0.72761 h 0.24701 0.24701 z m -2.61104,-1.69659 -0.33073,-0.13345 v -0.91961 -0.9196 l -0.26458,0.16352 -0.26458,0.16352 v -0.2802 -0.2802 h 0.30989 0.3099 l 0.51038,-0.46189 0.51038,-0.46189 -0.0927,0.44454 -0.0927,0.44454 0.20788,0.008 0.20789,0.008 0.4058,0.4058 0.4058,0.4058 0.51079,-0.27337 0.51079,-0.27336 v 0.27389 0.27389 h -0.39687 -0.39688 v 0.6306 0.6306 l -0.59531,0.15954 -0.59531,0.15954 -0.26458,-0.0173 -0.26459,-0.0173 z m 3.94225,-0.84526 -0.0396,-0.88821 -0.4343,0.16666 -0.4343,0.16666 0.33441,-0.40294 0.3344,-0.40293 h 0.45267 0.45268 v 0.39688 0.39687 h -0.20292 -0.20291 l -0.11022,0.72761 -0.11022,0.7276 z m -58.512561,2.08291 v -0.20387 l -0.385285,-0.31976 -0.385285,-0.31976 -0.282729,0.17474 -0.282729,0.17473 0.03789,-0.2181 0.03789,-0.21811 -0.03133,-0.33073 -0.03133,-0.33072 h -0.364478 -0.364478 l -0.363126,0.44766 -0.363126,0.44766 0.375692,-0.22648 0.375692,-0.22649 -0.183311,0.47771 -0.183312,0.4777 0.402932,-0.3344 0.402932,-0.33441 v 0.30551 0.3055 l -0.595312,0.23087 -0.595313,0.23087 0.863623,-0.0152 0.863623,-0.0152 0.154431,0.15443 0.154432,0.15443 0.371008,-0.14237 0.371008,-0.14237 z m 75.958671,0.33274 -0.6382,-0.12029 0.37362,-0.23651 0.37362,-0.23651 -0.64823,-0.004 -0.64823,-0.004 0.3175,-0.3175 0.3175,-0.3175 v -0.21166 -0.21167 h -0.36793 -0.36793 l -0.10811,0.92604 -0.10811,0.92604 1.07135,-0.036 1.07136,-0.036 z m -24.40139,-0.89413 -0.3604,-0.22834 -0.72761,-0.004 -0.7276,-0.004 v -0.79375 -0.79375 l -0.19844,0.004 -0.19844,0.004 -0.34469,0.21863 -0.3447,0.21863 0.0801,0.37263 0.0801,0.37263 0.26458,0.19439 0.26458,0.19438 -0.57223,0.004 -0.57223,0.004 0.1251,-0.79375 0.12509,-0.79375 h -0.28047 -0.28047 v 0.88194 0.88194 l 0.15278,0.15278 0.15277,0.15277 1.86128,-0.009 1.86127,-0.009 z m -61.214573,-0.50103 v -0.39687 l 0.226686,-0.16537 0.226685,-0.16536 -0.271645,-0.16789 -0.271644,-0.16788 -0.554059,0.70437 -0.554058,0.70437 -0.120139,-0.12014 -0.120139,-0.12014 0.446314,-0.98468 0.446315,-0.98468 0.376412,0.14444 0.376411,0.14445 -0.362962,-0.43735 -0.362962,-0.43734 0.854705,0.18773 0.854705,0.18772 v -0.94706 -0.94707 h -0.811144 -0.811144 l -0.505269,-0.27041 -0.505268,-0.27041 -0.167479,0.66729 -0.167478,0.66728 h -0.2359 -0.235901 v -0.10205 -0.10204 l 0.370243,-0.71365 0.370244,-0.71364 -0.08542,-0.44108 -0.08542,-0.44108 -0.02024,-0.34634 -0.02024,-0.34635 -0.330729,0.16753 -0.330729,0.16753 0.501999,-0.40802 0.502,-0.40802 0.252001,0.15574 0.252002,0.15575 -0.30029,-0.5611 -0.300289,-0.56109 0.07545,-0.0197 0.07545,-0.0197 0.661458,-0.11337 0.661458,-0.11337 -0.396875,0.26533 -0.396875,0.26532 0.396875,0.26053 0.396875,0.26053 0.410105,0.004 0.410104,0.004 0.336399,0.33072 0.336398,0.33073 -0.05023,-0.26458 -0.05023,-0.26458 0.03133,-0.72761 0.03133,-0.7276 h 0.396875 0.396875 v -0.37918 -0.37918 l -0.809728,0.023 -0.809728,0.023 -0.408344,-0.40835 -0.408344,-0.40834 0.197187,-0.88915 0.197186,-0.88914 0.16099,0.39687 0.160989,0.39688 0.34206,0.0699 0.342059,0.0699 -0.271324,-0.50697 -0.271323,-0.50697 0.521601,0.1364 0.5216,0.1364 -0.14493,0.2345 -0.144931,0.23451 h 0.280198 0.280198 v -0.39688 -0.39687 h -0.425182 -0.425182 l 0.152295,-0.39688 0.152295,-0.39687 h -0.288676 -0.288677 l 0.277051,-0.33383 0.27705,-0.33382 -0.279882,-1.18753 -0.279882,-1.18753 -0.218312,-0.52917 -0.218313,-0.52917 -0.293015,-1.15118 -0.293016,-1.15119 0.132621,-0.13262 0.13262,-0.13262 0.179347,0.956 0.179346,0.956 0.23459,0.14498 0.234589,0.14499 0.01063,0.4474 0.01063,0.44741 0.642348,1.45521 0.642349,1.45521 -0.0096,-4.29688 -0.0096,-4.29688 0.330888,-0.91505 0.330888,-0.91506 -0.312821,-1.69774 -0.312821,-1.69774 v -1.49085 -1.49084 H 74.511679 66.96758 l 0.06962,9.05756 0.06962,9.05756 1.019745,0.16568 1.019746,0.16569 0.232974,0.3679 0.232973,0.3679 0.0041,0.43471 0.0041,0.43471 0.371356,0.14251 0.371355,0.1425 0.554686,-0.14505 0.554687,-0.14506 0.03133,0.49388 0.03133,0.49388 -0.0334,0.20464 -0.0334,0.20464 0.795818,0.15916 0.795817,0.15916 v 0.36381 0.3638 h 0.280198 0.280198 l -0.163521,-0.26458 -0.163522,-0.26459 h 0.280198 0.280199 v 0.33983 0.33983 l 0.787199,0.46501 0.7872,0.46501 0.201364,-0.0772 0.201365,-0.0772 0.08917,0.46302 0.08917,0.46302 h -0.283984 -0.283983 v 0.23823 0.23823 l 0.745228,-0.0516 0.745228,-0.0516 0.06174,1.04635 0.06174,1.04636 -0.343947,0.24718 -0.343947,0.24718 0.462726,-0.14884 0.462726,-0.14883 0.595608,0.23939 0.595607,0.2394 -0.562916,0.0168 -0.562915,0.0168 -0.326581,0.39351 -0.326581,0.3935 0.201855,0.46639 0.201855,0.46639 0.07248,0.35498 0.07248,0.35497 0.166531,0.16653 0.166531,0.16653 0.213376,-0.34525 0.213377,-0.34525 0.167608,0.43678 0.167608,0.43678 0.729108,-0.0839 0.729108,-0.0839 z m -2.381249,-0.95973 v -0.62777 h 0.597554 0.597555 l -0.32728,0.52406 -0.327279,0.52406 -0.270275,0.10371 -0.270275,0.10372 z m 75.894192,0.629 -0.1223,-0.19843 h 0.29697 0.29696 l -0.0829,-0.8599 -0.0829,-0.8599 -0.79375,0.0932 -0.79375,0.0932 -0.17396,0.27964 -0.17396,0.27965 0.13741,0.35809 0.13742,0.35809 -0.33434,0.40285 -0.33434,0.40285 1.07288,-0.0755 1.07287,-0.0755 z m -60.945234,-0.85989 v -0.39688 h -0.529167 -0.529167 v 0.39688 0.39687 h 0.529167 0.529167 z m 0,-1.05834 v -0.39687 h -0.529167 -0.529167 v 0.39687 0.39688 h 0.529167 0.529167 z m -0.264584,-1.35531 v -0.69386 l -0.396875,0.32938 -0.396875,0.32938 v 0.36448 0.36448 h 0.396875 0.396875 z m 74.877088,-13.32906 v -12.96458 h -3.43959 -3.43958 v 0.11441 0.11441 l 0.81937,3.12673 0.81938,3.12674 1.05759,4.10104 1.05759,4.10104 0.87747,3.43958 0.87746,3.43959 0.54664,1.98437 0.54663,1.98438 0.006,0.19843 0.006,0.19844 h 0.13229 0.13229 z m -30.42709,9.49476 v -0.23434 h -0.24568 -0.24568 l -0.41525,0.41524 -0.41525,0.41525 0.28794,0.53803 0.28795,0.53803 0.37298,-0.71894 0.37299,-0.71894 z m -7.9375,-0.64683 v -0.38126 h -0.52916 -0.52917 v 0.21166 0.21167 l 0.30694,0.30694 0.30694,0.30694 0.22223,-0.13735 0.22222,-0.13734 z m -39.25449,-2.36592 -1.551367,-1.43163 -1.02832,0.82639 -1.028321,0.82638 v 0.19547 0.19547 l 1.389063,0.19061 1.389062,0.1906 0.529167,0.21433 0.529167,0.21433 0.661458,0.005 0.661458,0.005 z m 1.046181,-1.95129 -0.944982,-0.94499 -0.464797,0.4648 -0.464797,0.4648 1.322173,1.21687 1.322173,1.21688 0.08761,-0.73669 0.08761,-0.73669 z m 46.145809,1.7547 v -0.21661 l -0.39007,-0.14969 -0.39008,-0.14968 -0.42868,0.42868 -0.42868,0.42868 0.81876,-0.0624 0.81875,-0.0624 z m -7.87457,-0.57805 0.14653,0.14653 0.0175,-1.46236 0.0175,-1.46237 -0.25449,-0.15728 -0.25449,-0.15729 v 0.54478 0.54479 h -0.21514 -0.21515 l -0.0639,1.23504 -0.0639,1.23505 0.36957,-0.30671 0.36956,-0.30671 z m -43.388448,-1.30839 0.727604,-0.52975 -0.0074,-0.28097 -0.0073,-0.28097 -0.720255,-0.67018 -0.720255,-0.67018 -0.396875,-0.30059 -0.396875,-0.3006 0.08714,1.9656 0.08714,1.9656 0.309734,-0.1841 0.309733,-0.18411 z m 7.059007,-1.83491 0.0186,-1.27238 -0.264584,0.16352 -0.264583,0.16352 0.0186,1.63803 0.0186,1.63803 0.22739,-0.52917 0.227391,-0.52916 z m -0.893431,-0.38929 -0.148444,-0.14845 -0.49302,0.50819 -0.493019,0.50819 0.427943,0.4224 0.427943,0.42241 0.21352,-0.78215 0.213521,-0.78215 z m 40.172232,0.75981 0.96839,-0.76957 -0.99229,-0.81793 -0.99229,-0.81792 h -0.33659 -0.33659 l 0.001,0.59531 10e-4,0.59531 0.27555,0.99219 0.27554,0.99219 h 0.0835 0.0835 z m 4.91584,-1.56758 0.009,-0.61736 -0.31182,0.10394 -0.31183,0.10395 -0.2563,0.40632 -0.2563,0.40632 0.19283,0.76829 0.19283,0.7683 0.36592,-0.6612 0.36592,-0.6612 z m -49.065571,1.17906 0.364342,-0.36434 -1.548864,-1.48774 -1.548865,-1.48774 h -0.554168 -0.554168 v 0.37538 0.37538 l 0.859896,0.79023 0.859895,0.79023 0.79375,0.67811 0.79375,0.67811 0.08505,0.008 0.08505,0.008 z m 41.931191,-1.37106 v -0.94166 l -0.26458,0.16352 -0.26458,0.16353 v 0.77813 0.77814 h 0.26458 0.26458 z m 4.17194,0.14791 0.33047,-0.52917 h -0.92829 -0.92828 l 0.46302,0.50712 0.46302,0.50712 0.13479,0.022 0.1348,0.0221 z m -43.594854,-0.77947 v -0.18945 l 0.681746,-0.36486 0.681746,-0.36486 -0.483309,-0.19042 -0.483308,-0.19042 -2.116667,-0.008 -2.116667,-0.008 1.27553,1.17393 1.275529,1.17393 0.6427,-0.42112 0.6427,-0.42111 z m 38.540974,0.0739 -0.13497,-0.13497 -0.46484,0.0895 -0.46483,0.0895 0.51027,0.51027 0.51027,0.51027 0.0895,-0.46483 0.0895,-0.46484 z m -0.37931,-0.99667 0.13124,0.13124 0.45386,-0.69267 0.45385,-0.69267 -0.14352,-0.14353 -0.14353,-0.14353 -0.30742,0.67471 -0.30742,0.67471 -0.32155,-0.12339 -0.32156,-0.12339 -0.37312,0.45223 -0.37312,0.45223 0.56053,-0.29859 0.56052,-0.29859 z m 5.61365,0.14829 -0.25135,-0.23102 -1.53944,-0.1486 -1.53943,-0.14861 0.31506,0.37962 0.31506,0.37963 h 1.47573 1.47572 z m -42.259731,-1.53724 0.104225,-0.31304 -0.87605,0.0245 -0.87605,0.0245 -2.778125,-0.21121 -2.778125,-0.21121 0.21534,0.23003 0.215341,0.23002 2.959659,0.30069 2.95966,0.3007 0.37495,-0.031 0.37495,-0.031 z m 37.132961,-0.42297 0.41625,-0.32231 -0.22538,-0.8599 -0.22538,-0.85989 h -0.28941 -0.28942 l 0.32938,-0.39688 0.32938,-0.39687 -0.32938,-0.39688 -0.32938,-0.39687 h -0.26087 -0.26086 l 0.20387,0.7276 0.20388,0.7276 -0.0563,1.25677 -0.0562,1.25678 0.21179,-0.008 0.21179,-0.008 z m 5.27229,-1.20426 v -1.5434 l -0.16365,-0.16365 -0.16366,-0.16366 -1.03202,0.82936 -1.03202,0.82935 0.8507,0.8777 0.85071,0.87771 h 0.34497 0.34497 z m 1.31887,0.30225 0.004,-0.5797 -0.26459,-0.16352 -0.26458,-0.16352 0.004,1.14009 0.004,1.1401 0.25648,-0.39688 0.25648,-0.39687 z m -3.60444,0.5797 -0.15229,-0.39688 -0.30243,0.008 -0.30242,0.008 -0.51359,0.38846 -0.51359,0.38846 h 0.96831 0.96831 z m -43.632868,-0.6379 -0.251355,-0.24103 -1.455208,-0.0564 -1.455208,-0.0564 -0.396875,0.0369 -0.396875,0.0369 0.396875,0.25648 0.396875,0.25648 1.706562,0.004 1.706563,0.004 z m 4.378854,-1.87564 v -1.05834 h -0.264584 -0.264583 v 0.88195 0.88194 l 0.176389,0.17639 0.176389,0.17639 h 0.08819 0.08819 z m -2.910417,0.37482 v -0.37482 l -0.727604,-0.004 -0.727604,-0.004 0.396875,-0.28067 0.396875,-0.28068 -0.330729,-0.13419 -0.33073,-0.1342 v -0.39149 -0.39149 l -0.992187,0.94041 -0.992188,0.94041 -0.264583,0.0336 -0.264583,0.0336 0.79375,0.19079 0.79375,0.19078 1.124479,0.0204 1.124479,0.0204 z m 2.112615,-1.1541 0.0041,-0.91156 -0.698737,-0.72932 -0.698738,-0.72933 -0.762884,0.71485 -0.762885,0.71484 1.263184,1.20432 1.263185,1.20431 0.194386,-0.27827 0.194386,-0.27827 z m 40.225226,0.74384 1.0318,-0.82918 -0.71573,-0.75832 -0.71573,-0.75831 h -0.59617 -0.59618 v 1.16898 1.16899 l 0.1606,0.41851 0.1606,0.41852 h 0.1195 0.1195 z m -46.000895,-0.65539 1.149512,-0.9554 0.08011,-0.21097 0.08011,-0.21098 -0.25386,-0.15689 -0.253859,-0.1569 -1.479899,1.20552 -1.479898,1.20552 v 0.11775 0.11776 h 0.504133 0.504134 z m 50.843165,-1.29355 0.15614,-1.05833 -0.38479,0.51359 -0.38479,0.51359 0.008,0.94162 0.008,0.94161 0.22061,-0.39687 0.22061,-0.39688 z m -7.22803,0.39688 v -0.79375 h -0.26458 -0.26458 l -0.036,0.59531 -0.036,0.59531 -0.11467,-0.59531 -0.11466,-0.59531 h -0.23788 -0.23787 l 0.16506,0.46302 0.16506,0.46302 0.2559,0.33073 0.25591,0.33073 h 0.23219 0.23219 z m -35.731079,-3.03219 -0.21871,-0.53969 0.01792,2.11667 0.01792,2.11666 0.200789,-1.57697 0.20079,-1.57698 z m -8.206124,1.86129 0.333506,-0.40185 -0.368944,-0.33811 -0.368944,-0.3381 -0.715665,-0.64144 -0.715664,-0.64143 v 1.91622 1.91622 l 0.751103,-0.53483 0.751103,-0.53483 z m 7.160122,-0.8214 v -1.46313 l -0.798133,0.59009 -0.798133,0.59008 0.08707,0.2612 0.08707,0.26119 0.314372,0.10479 0.314373,0.10479 -0.150509,-0.39222 -0.15051,-0.39222 0.323922,-0.20019 0.323922,-0.2002 -0.159261,0.79631 -0.159261,0.7963 0.303169,0.30317 0.303168,0.30317 h 0.07937 0.07937 z m -4.493422,0.80445 0.223882,0.13837 0.372564,-0.53191 0.372565,-0.53191 0.217125,0.19675 0.217125,0.19675 -0.190326,-0.33072 -0.190326,-0.33073 -0.315114,0.009 -0.315115,0.009 -0.615495,0.51297 -0.615496,0.51298 0.200916,0.32508 0.200916,0.32509 0.106449,-0.31934 0.106448,-0.31935 z m 39.735793,-0.52326 0.13639,0.13639 0.36843,-0.45405 0.36844,-0.45406 -0.33073,0.19869 -0.33073,0.1987 v -0.29581 -0.29582 l -0.26316,0.16264 -0.26316,0.16265 -0.30933,0.58057 -0.30932,0.58058 0.39839,-0.32843 0.39839,-0.32844 z m 5.7918,-0.0966 -0.25945,-0.48478 -0.34517,-0.27573 -0.34517,-0.27573 -0.86492,-0.12044 -0.86492,-0.12045 -0.25863,0.31163 -0.25862,0.31162 0.46256,0.41862 0.46256,0.41861 1.19015,0.10449 1.19015,0.10449 0.0755,0.0462 0.0755,0.0462 z m 2.08432,-0.29291 0.27461,-0.51311 -0.25203,-0.15576 -0.25202,-0.15576 -0.27786,0.51918 -0.27786,0.51918 v 0.14969 0.14969 h 0.25528 0.25527 z m -48.145574,-1.19776 v -0.38797 l -0.858064,-0.93495 -0.858064,-0.93494 h -0.994019 -0.99402 v 0.47516 0.47516 l 1.346381,1.35346 1.346382,1.35345 0.505702,-0.5057 0.505702,-0.5057 z m 3.63802,-0.22668 0.595313,-0.53593 v -0.36006 -0.36006 l -0.463021,0.26943 -0.463021,0.26943 -0.615495,0.52624 -0.615496,0.52623 0.170757,0.27629 0.170757,0.27629 0.312447,-0.17596 0.312447,-0.17597 z m 37.290944,-0.16079 0.1336,-0.51086 0.3708,0.14229 0.3708,0.14229 0.0413,-0.49133 0.0413,-0.49133 0.0338,-0.7276 0.0338,-0.7276 h -0.86886 -0.86887 v 0.41249 0.41249 l 0.23991,-0.14828 0.23991,-0.14827 -0.14432,0.5519 -0.14433,0.5519 -0.25083,-0.3531 -0.25082,-0.35309 0.15163,0.66146 0.15163,0.66145 0.004,0.46303 0.004,0.46302 h 0.28935 0.28935 z m 5.37673,-0.74591 0.004,-0.72761 0.15954,-0.59531 0.15954,-0.59531 -0.75846,0.009 -0.75847,0.009 -0.59531,0.49663 -0.59531,0.49663 v 0.21287 0.21286 l 0.59531,0.58863 0.59531,0.58863 0.59532,0.016 0.59531,0.016 z m 1.79819,-0.13491 0.082,-0.6894 -0.48363,-0.25883 -0.48362,-0.25882 0.0999,1.04717 0.0999,1.04717 0.30176,-0.0989 0.30175,-0.0989 z m -45.47004,-0.31367 0.341366,-0.41132 h -0.826147 -0.826147 v 0.67077 0.67076 l 0.484782,-0.25944 0.484781,-0.25945 z m -1.575511,-0.14674 v -0.52916 H 88.01153 87.352662 l 0.453086,0.52916 0.453087,0.52917 h 0.205782 0.205782 z"
       id="path4" /></g></svg>
