<?xml version="1.0" encoding="UTF-8" standalone="no"?>
<!-- Created with Inkscape (http://www.inkscape.org/) -->

<svg
   width="101.59999mm"
   height="84.666672mm"
   viewBox="0 0 101.59999 84.666672"
   version="1.1"
   id="svg1"
   xml:space="preserve"
   xmlns="http://www.w3.org/2000/svg"
   xmlns:svg="http://www.w3.org/2000/svg"><defs
     id="defs1" /><g
     id="layer1"
     transform="translate(-64.218103,-31.916669)"><path
       style="fill:#ffffff;fill-opacity:1"
       d="M 64.218106,74.250001 V 31.916669 H 115.01811 165.8181 V 74.250001 116.58334 H 115.01811 64.218106 Z m 3.052836,39.053399 -0.01013,-2.48618 -0.146896,0.0887 -0.146897,0.0887 -0.977582,-0.22048 -0.977583,-0.22048 v 2.61797 2.61797 h 1.134607 1.134608 z m 6.740799,2.15546 0.0041,-0.33073 0.246146,0.38921 0.246145,0.38921 0.212408,-0.21241 0.212408,-0.2124 -0.462605,-0.33827 -0.462605,-0.33826 -0.0041,-0.76458 -0.0041,-0.76459 -0.25648,-0.39687 -0.25648,-0.39688 -0.0041,0.37174 -0.0041,0.37174 -0.463021,-0.41598 -0.463021,-0.41598 -1.719792,-0.29252 -1.719791,-0.29252 -0.595313,-0.1313 -0.595312,-0.1313 v 2.12171 2.12171 h 3.042708 3.042708 z m 8.198031,0.0661 v -0.26458 h -0.809364 -0.809365 l 0.163521,0.26458 0.163522,0.26459 h 0.645843 0.645843 z m 2.793701,-0.15191 0.513591,-0.4165 -0.326665,0.16502 -0.326665,0.16501 -1.128543,0.2225 -1.128544,0.22249 0.941618,0.029 0.941618,0.029 z m 18.307687,-0.17882 -0.12697,-0.59531 -0.10231,-0.39687 -0.10232,-0.39688 0.8599,-0.0829 0.8599,-0.0829 v -1.67358 -1.67358 l -0.8599,-0.15112 -0.8599,-0.15111 -1.5875,-0.17168 -1.587496,-0.17168 -0.291986,-0.23606 -0.291986,-0.23606 -0.634056,0.004 -0.634055,0.004 -0.992188,-0.16482 -0.992187,-0.16482 v 0.40106 0.40105 l 0.470412,-0.12302 0.470412,-0.12301 0.324527,0.89746 0.324526,0.89746 0.66423,0.35549 0.664231,0.35548 0.827556,-0.61184 0.82756,-0.61184 -0.18568,0.30043 -0.18567,0.30043 h 0.0835 0.0835 l 0.85815,-0.24612 0.85815,-0.24611 v 0.64299 0.64299 l 0.33073,0.004 0.33073,0.004 -0.30225,0.19439 -0.30225,0.19438 -0.0224,1.65365 -0.0224,1.65365 h 0.68621 0.68621 z m 31.19731,-4.80304 -0.0685,-1.4296 -0.28768,-0.35634 -0.28767,-0.35633 -0.18387,-0.8599 -0.18387,-0.85989 0.61634,-0.0186 0.61633,-0.0186 -0.52916,-0.22739 -0.52917,-0.22739 -0.15434,-0.0186 -0.15434,-0.0186 -0.0126,0.33072 -0.0126,0.33073 -0.20877,0.50643 -0.20876,0.50642 0.30954,-0.19131 0.30955,-0.19131 v 0.4281 0.42811 l -0.29098,-0.17984 -0.29098,-0.17983 0.30425,0.5685 0.30426,0.56851 0.31745,-0.18518 0.31746,-0.18519 -0.51248,0.58398 -0.51247,0.58398 -0.32132,-0.1233 -0.32132,-0.12331 0.0475,0.31241 0.0475,0.31241 0.21986,0.35217 0.21986,0.35217 0.57696,-0.14481 0.57696,-0.14481 0.0374,0.49655 0.0374,0.49655 -0.77195,-0.2214 -0.77196,-0.22139 -0.13978,0.22618 -0.13978,0.22617 0.59923,0.11518 0.59924,0.11517 0.45287,0.036 0.45286,0.036 z m -3.0396,0.67025 -0.35028,-0.22208 0.41642,-0.41643 0.41643,-0.41642 v -0.53024 -0.53023 l -0.52917,-0.16791 -0.52916,-0.16795 v -0.24676 -0.24675 h 0.25627 0.25628 l -0.15229,-0.39688 -0.1523,-0.39687 h 0.30851 0.30851 l -0.14639,0.23686 -0.14639,0.23686 0.37601,0.14429 0.37601,0.14428 0.32163,-0.38754 0.32164,-0.38754 -0.15898,-0.15897 -0.15897,-0.15897 h -0.67248 -0.67248 v -0.3638 -0.36381 h 0.2802 0.2802 l -0.12958,0.20966 -0.12958,0.20966 0.51084,0.0385 0.51084,0.0385 v -0.26375 -0.26376 l -0.26459,0.16352 -0.26458,0.16353 V 106.2802 106 h -0.41578 -0.41577 l 0.41577,-0.41577 0.41578,-0.41578 v -0.1417 -0.1417 l -0.37978,0.14574 -0.37978,0.14573 -0.11317,-0.31586 -0.11316,-0.31587 -0.13361,0.13229 -0.13361,0.13229 -0.18314,3.24115 -0.18313,3.24115 0.74354,-0.004 0.74355,-0.004 z m -3.12378,-0.89429 0.15954,-0.59531 0.004,-2.56408 0.004,-2.56407 -0.20957,-0.12952 -0.20957,-0.12952 -2.19338,-0.12828 -2.19337,-0.12827 -0.1547,-0.1547 -0.15469,-0.15469 h -0.88194 -0.88195 v 0.29289 0.29289 l 0.3884,-0.14904 0.38841,-0.14905 0.16354,0.26462 0.16354,0.26462 -0.31976,0.38528 -0.31975,0.38529 h 0.19708 0.19709 l -0.30256,0.36456 -0.30256,0.36456 0.54987,0.14379 0.54986,0.14379 -0.29255,-0.3525 -0.29255,-0.35251 0.28174,-0.17413 0.28175,-0.17412 -0.17749,-0.28719 -0.17748,-0.28718 0.29163,0.18024 0.29163,0.18024 -0.10327,-0.53623 -0.10327,-0.53624 h 0.21855 0.21855 l 0.12395,0.6484 0.12395,0.64839 -0.25847,-0.0531 -0.25847,-0.0531 -0.11004,0.29705 -0.11004,0.29704 0.53999,0.14121 0.53998,0.14121 0.0313,-0.30596 0.0313,-0.30596 -0.0502,-0.26459 -0.0502,-0.26458 0.32519,0.31952 0.32518,0.31951 -0.30399,0.36629 -0.30399,0.36629 0.17409,0.17409 0.1741,0.17409 h -0.45659 -0.45659 l 0.16352,-0.26458 0.16353,-0.26458 h -0.30851 -0.3085 l 0.13387,0.34886 0.13387,0.34887 -0.56859,-0.0181 -0.56858,-0.0181 0.10356,0.39687 0.10356,0.39688 -0.0257,0.52583 -0.0257,0.52583 0.22839,-0.36954 0.22839,-0.36955 -0.12585,-0.32796 -0.12585,-0.32796 0.28212,-0.17436 0.28211,-0.17435 -0.13136,1.04549 -0.13136,1.04549 0.39645,0.15213 0.39645,0.15213 v 0.3012 0.30119 l -0.39687,-0.15229 -0.39688,-0.1523 v 0.25628 0.25628 h 0.3665 0.3665 l 0.89027,-0.39728 0.89027,-0.39728 -0.66146,0.0666 -0.66145,0.0665 v -0.26458 -0.26458 l 0.57543,0.073 0.57543,0.073 0.17495,-0.28307 0.17495,-0.28307 -0.35351,-0.45143 -0.3535,-0.45143 0.4307,0.33631 0.4307,0.3363 0.13984,-0.53475 0.13984,-0.53474 h 0.46265 0.46266 l -0.50403,0.57403 -0.50403,0.57404 0.50044,-0.18322 0.50045,-0.18321 -0.29094,0.35056 -0.29093,0.35055 0.14953,0.5718 0.14953,0.57181 -0.56454,-0.10872 -0.56455,-0.10872 0.15497,0.25075 0.15498,0.25075 h 0.38126 0.38126 v 0.24519 0.24518 l 0.46302,0.121 0.46302,0.121 0.29987,0.0307 0.29987,0.0307 z m -5.02516,-1.87372 0.16484,-0.48466 v -0.50753 -0.50753 h 0.38857 0.38857 l -0.16795,0.46302 -0.16795,0.46302 -0.38547,0.52917 -0.38546,0.52917 z m 1.97338,-1.46721 0.35333,-0.22396 -0.0366,-0.23501 -0.0366,-0.235 0.44218,-0.0916 0.44219,-0.0916 -0.17924,0.29002 -0.17924,0.29002 h 0.28019 0.2802 v -0.30868 -0.30868 l 0.19802,0.19802 0.19802,0.19802 -0.51317,0.37524 -0.51317,0.37524 -0.54475,-0.004 -0.54474,-0.004 z m -58.164787,-0.51754 v -3.92465 l -0.33073,-0.0335 -0.330729,-0.0335 -0.727604,-0.17378 -0.727604,-0.17377 v 3.9802 3.98019 l 0.463021,0.121 0.463021,0.121 0.595312,0.0307 0.595313,0.0307 z m 37.345077,3.1605 -0.35804,-0.22688 0.2919,-0.54542 0.2919,-0.54542 v -3.06011 -3.0601 l -0.72761,0.0264 -0.7276,0.0264 0.66146,0.21217 0.66145,0.21217 -1.13597,-0.0178 -1.13596,-0.0178 0.13547,-0.35305 0.13548,-0.35306 h -0.63754 -0.63754 l -0.16124,0.2609 -0.16124,0.2609 -0.84656,-0.11075 -0.846563,-0.11075 -0.132292,-0.0364 -0.132291,-0.0365 0.529166,-0.22739 0.52917,-0.22739 -0.595315,-0.0186 -0.595313,-0.0186 v 0.26458 0.26458 l -0.727604,-0.0264 -0.727604,-0.0264 0.661458,-0.19023 0.661459,-0.19023 -1.010977,-0.19579 -1.010977,-0.19578 -0.31194,-0.11919 -0.31194,-0.11918 -0.08144,3.63426 -0.08144,3.63427 -0.27754,0.17153 -0.277539,0.17153 h 0.689706 0.689706 l 0.0041,-0.29766 0.0041,-0.29765 0.195728,0.30763 0.195728,0.30764 2.068323,0.28767 2.068321,0.28768 h 0.24544 0.24544 l 0.0307,-0.46302 0.0307,-0.46302 0.12162,0.46626 0.12163,0.46626 0.24456,-0.15115 0.24456,-0.15114 v 0.2608 0.26079 l 0.46302,0.121 0.46302,0.121 0.66146,0.0266 0.66145,0.0266 z m 10.82101,-3.87565 0.0368,-2.37166 -0.0737,-0.26458 -0.0737,-0.26458 -0.14914,2.24896 -0.14914,2.24895 0.0998,0.47352 0.0998,0.47352 0.0862,-0.0862 0.0862,-0.0862 z m -33.415567,-0.52084 0.859896,-0.17307 v -0.65242 -0.65243 l 0.992188,0.16739 0.992187,0.16738 0.463021,0.12702 0.463021,0.12702 0.0016,-1.93606 0.0016,-1.93606 0.168136,-2.159654 0.168136,-2.159652 -0.368159,0.01852 -0.368159,0.01852 -1.272386,-0.04168 -1.272386,-0.04168 0.178872,-0.289421 0.178872,-0.289421 1.027368,0.09798 1.027368,0.09798 v -1.676253 -1.676253 l -0.216922,0.134066 -0.216923,0.134065 -1.17214,-0.388328 -1.17214,-0.388327 1.389063,0.12512 1.389062,0.125119 v -1.824002 -1.824003 l -0.253028,-0.15638 -0.253028,-0.156379 0.14051,-0.366162 0.140509,-0.366162 -0.879669,0.07237 -0.879669,0.07237 -0.478636,0.03768 -0.478635,0.03768 0.188787,0.305464 0.188786,0.305464 -0.305463,-0.188787 -0.305464,-0.188787 v -0.230572 -0.230567 l 0.595313,-0.114662 0.595312,-0.114662 -0.703007,-0.03603 -0.703008,-0.03603 -0.02059,2.003162 -0.02059,2.003161 -0.151911,0.245797 -0.15191,0.245796 h 0.346344 0.346344 v 2.215272 2.215272 l -0.330729,-0.126913 -0.33073,-0.126912 -0.01317,0.888203 -0.01317,0.888203 -0.01765,1.719792 -0.01765,1.719793 0.03082,1.12448 0.03082,1.12448 h 0.396875 0.396875 v 0.25255 0.25256 l -0.607339,0.60734 -0.607339,0.60734 -0.186411,0.0661 -0.186411,0.0662 H 80.357723 80.09314 v 0.28241 0.28241 l 0.463021,-0.13036 0.46302,-0.13037 z m 7.474479,-0.15933 v -0.29289 l 0.388402,0.14904 0.388402,0.14905 0.13845,-0.22402 0.138449,-0.22402 -0.950762,-0.17836 -0.950763,-0.17837 -0.149353,0.14936 -0.149352,0.14935 h 0.60566 0.605661 l -0.329377,0.39687 -0.329377,0.39688 h 0.29698 0.29698 z m 71.433448,-0.50086 0.26053,0.39687 0.004,-0.17679 0.004,-0.1768 -0.15419,-0.40181 -0.15418,-0.40181 -0.44113,0.15453 -0.44112,0.15453 0.33073,-0.35645 0.33073,-0.35644 v -0.21166 -0.21167 h -0.64585 -0.64584 l -0.19131,0.30955 -0.19131,0.30954 0.42257,-0.16215 0.42257,-0.16216 0.17876,0.81388 0.17876,0.81388 0.23582,-0.36596 0.23583,-0.36596 z m -31.48136,-1.01769 v -0.7531 l 0.16903,-2.38143 0.16904,-2.381426 -0.53662,-0.140331 -0.53663,-0.14033 -0.33227,0.205357 -0.33228,0.205358 0.42831,0.09294 0.42831,0.09294 -0.25761,0.396875 -0.25762,0.396875 -0.26053,-0.396875 -0.26053,-0.396875 -0.004,0.330729 -0.004,0.330729 h -0.33323 -0.33323 l -0.35935,0.595313 -0.35934,0.595311 0.34861,-0.330728 0.34862,-0.330729 0.5424,0.03069 0.54239,0.03069 -0.46626,0.121624 -0.46626,0.121624 0.10975,0.178413 0.10975,0.178416 -0.92939,0.0683 -0.92938,0.0683 0.15839,-0.412751 0.15838,-0.412749 -0.27231,0.1683 -0.27232,0.1683 0.16977,0.57305 0.16977,0.57304 0.42073,0.33073 0.42073,0.33073 h -0.44744 -0.44745 v 0.29544 0.29544 l 0.49845,-0.13034 0.49846,-0.13035 0.43672,0.51006 0.43673,0.51006 -0.47216,-0.0798 -0.47216,-0.0798 v 0.52917 0.52916 l 1.19063,0.1587 1.19062,0.1587 0.19844,0.0397 0.19844,0.0397 z m -49.212504,-0.96669 v -1.4552 l -0.463021,0.004 -0.463021,0.004 0.396875,0.26053 0.396875,0.26053 -0.293253,0.19844 -0.293254,0.19844 0.07441,0.48349 0.07441,0.4835 -0.413892,-0.15882 -0.413893,-0.15883 0.331986,0.40002 0.331986,0.40002 0.234604,-0.145 0.234604,-0.14499 v 0.41249 0.41249 h 0.132292 0.132292 z m 11.1125,-1.04188 v -2.497102 l -0.463021,0.02891 -0.463021,0.02891 -0.579198,-0.190362 -0.579199,-0.190361 -0.269193,0.502992 -0.269194,0.502993 0.649955,-0.124247 0.649954,-0.124247 v 2.279804 2.2798 h 0.661458 0.661459 z m 34.925004,1.98426 v -0.24825 l -0.69871,0.0498 -0.69871,0.0498 -0.13807,-0.39687 -0.13807,-0.39688 0.37376,0.28871 0.37375,0.28872 0.64185,-0.16372 0.64184,-0.16372 0.12879,-0.38958 0.12879,-0.38957 -0.3981,0.32843 -0.3981,0.32843 -0.18848,-0.18848 -0.18848,-0.18848 -0.24615,0.38922 -0.24614,0.38921 -0.004,-0.33073 -0.004,-0.33073 h -0.54479 -0.54478 l 0.14639,0.23686 0.14639,0.23686 -0.46151,0.19643 -0.4615,0.19644 0.66146,0.20179 0.66146,0.20179 0.7276,0.0264 0.72761,0.0264 z m -2.4474,-0.87623 -0.0662,-0.33073 0.8599,-0.0829 0.85989,-0.0829 v -0.21951 -0.21951 l -0.41062,-0.15757 -0.41061,-0.15757 0.16165,0.26155 0.16164,0.26156 h -0.56039 -0.5604 l 0.16352,-0.26459 0.16352,-0.26458 h -0.59535 -0.59535 l 0.47571,0.34785 0.47572,0.34785 -0.82267,-0.057 -0.82266,-0.057 -0.17279,0.27957 -0.17278,0.27957 0.86715,-0.17343 0.86715,-0.17343 -0.32924,0.39671 -0.32924,0.39672 h 0.42927 0.42927 z m -1.96961,-1.63709 0.47779,0.0733 -0.31175,-0.37563 -0.31174,-0.37563 h 0.27808 0.27808 l 0.39558,0.39558 0.39558,0.39558 0.66908,-0.0554 0.66908,-0.0554 -0.14177,-0.14177 -0.14177,-0.14177 -0.50712,-0.0331 -0.50711,-0.0331 -0.19844,-0.0644 -0.19844,-0.0644 0.79375,-0.20835 0.79375,-0.208357 -0.98284,0.02852 -0.98283,0.02852 -0.16369,-0.163682 -0.16369,-0.16369 -0.50712,0.507112 -0.50712,0.50712 0.0186,0.46302 0.0186,0.46302 0.17984,-0.42522 0.17984,-0.42523 z m 17.16431,-0.43398 0.0945,-0.99068 -0.46777,0.250341 -0.46776,0.250341 v -0.375325 -0.375326 l 0.59531,-0.159537 0.59531,-0.159538 0.7276,-0.0036 0.72761,-0.0036 0.0392,-0.330729 0.0392,-0.330729 0.0356,-0.396875 0.0356,-0.396875 0.2103,-0.857608 0.21031,-0.857607 -0.39934,-0.800494 -0.39934,-0.800494 0.28741,0.177628 0.2874,0.177628 -0.18878,-0.305464 -0.18879,-0.305464 h -0.38957 -0.38956 l -0.16093,0.419364 -0.16094,0.419389 -0.82295,-0.155024 -0.82295,-0.155024 0.0893,2.049444 0.0893,2.049445 0.30756,0.19568 0.30755,0.19568 -0.92604,0.02265 -0.92604,0.02265 0.52917,0.227391 0.52916,0.22739 -0.24455,0.0186 -0.24456,0.0186 0.603,0.641872 0.60301,0.64187 -0.2004,0.32424 -0.2004,0.32425 -0.35648,-0.48752 -0.35649,-0.48753 v 0.4254 0.42539 l 0.33073,0.11025 0.33073,0.11024 h 0.30714 0.30714 z m 4.33204,0.8365 -0.1498,-0.24238 0.25591,-0.67309 0.25591,-0.673098 -0.65089,0.247469 -0.65089,0.247469 V 99.908035 99.65 l 0.33073,-0.0313 0.33073,-0.0313 -0.79375,-0.201975 -0.79375,-0.201975 -0.59532,-0.0313 -0.59531,-0.0313 0.002,0.859896 0.002,0.859894 1.23235,0.0568 1.23235,0.0568 0.27393,0.27394 0.27394,0.27393 h 0.095 0.095 z m 4.01449,-5.375274 -0.10707,-0.864634 -0.003,1.5875 -0.003,1.5875 0.10977,-0.722866 0.10977,-0.722865 z m 16.21242,0.307367 V 95.72453 l 0.15357,-0.400203 0.15357,-0.400202 -1.0055,-0.277632 -1.0055,-0.277633 -0.27255,0.298136 -0.27255,0.298136 0.33073,-0.186722 0.33073,-0.186723 v 0.280199 0.280198 h -0.20789 -0.20789 l -0.007,0.595312 -0.007,0.595313 0.26549,0.179297 0.26548,0.179297 0.74296,-0.02112 0.74296,-0.02112 z m -56.12625,-3.832754 -0.048,-1.470128 -0.21922,0.345649 -0.21922,0.345649 -0.004,0.94809 -0.004,0.948091 0.17638,0.176388 0.17639,0.176389 h 0.0949 0.0949 z m 10.7502,0.957154 0.52917,-0.02429 -0.39687,-0.254492 -0.39688,-0.254492 -0.49615,0.154597 -0.49616,0.154598 0.13232,-0.226783 0.13232,-0.226784 -0.21288,-0.529166 -0.21288,-0.529167 -0.0186,0.968776 -0.0186,0.968776 0.46302,-0.08864 0.46302,-0.08864 z m -7.8052,-0.809942 v -0.79375 h -0.39688 -0.39687 v 0.79375 0.79375 h 0.39687 0.39688 z m 2.91041,-0.529167 v -1.322917 h -1.32291 -1.32292 v 0.264584 0.264583 l 0.33073,0.02089 0.33073,0.02089 -0.33073,0.133452 -0.33073,0.133453 v 0.753299 0.753299 l 0.59531,0.114662 0.59531,0.114663 0.72761,0.03603 0.7276,0.03603 z m 23.30336,0.673834 0.24456,0.151146 v -0.280198 -0.280199 h -0.37483 -0.37482 l -0.13346,-0.330729 -0.13345,-0.330729 -0.0209,0.441381 -0.0209,0.441381 0.19062,0.484661 0.19062,0.48466 0.094,-0.46626 0.094,-0.46626 z m 12.01852,-0.788832 0.26458,0.02841 0.46302,0.203893 0.46302,0.203894 0.46302,-0.20715 0.46302,-0.20715 -0.66145,-0.108145 -0.66146,-0.108144 -0.25136,-0.24218 -0.25135,-0.242179 h -0.47625 -0.47625 l 0.0186,0.727604 0.0186,0.727604 0.17984,-0.402432 0.17984,-0.402432 z m -68.390743,0.04885 0.0041,-0.330729 0.24051,0.380095 0.240511,0.380095 0.615334,-0.322133 0.615333,-0.322133 -0.43078,0.1198 -0.43078,0.119799 -0.274527,-0.274527 -0.274528,-0.274528 -0.610334,0.427495 -0.610335,0.427495 h 0.455746 0.455747 z m 30.092423,-0.79375 -0.11012,-0.330729 -0.44109,-0.08555 -0.4411,-0.08555 v 0.416275 0.416275 h 0.55122 0.55121 z m 17.65471,-0.20832 -0.16963,-0.274466 1.68227,0.06211 1.68227,0.06211 0.32383,-0.200135 0.32383,-0.200136 V 89.98064 89.60293 l -0.99219,-0.442654 -0.99219,-0.442655 -0.26458,-0.04143 -0.26459,-0.04144 -0.51364,0.252359 -0.51365,0.252359 -2.73795,0.05371 -2.73796,0.05371 -0.13745,-0.222401 -0.13745,-0.222401 h -0.24897 -0.24897 v 0.246754 0.246753 l 0.59531,0.202542 0.59532,0.202542 0.2181,-0.05898 0.21811,-0.05898 -0.16802,0.271854 -0.16802,0.271855 -0.49571,-0.265299 -0.49572,-0.265299 h -0.22567 -0.22567 l -0.0373,0.494785 -0.0373,0.494784 2.4908,-0.06333 2.49081,-0.06334 0.30068,0.362301 0.30068,0.3623 h 0.3801 0.38009 z m 22.15164,-0.58916 0.11452,-0.599044 0.0673,-1.649915 0.0673,-1.649915 h -1.07705 -1.07705 v 2.248958 2.248959 h 0.8952 0.89519 z m -79.163241,-0.06242 v -0.396875 h -0.529166 -0.529167 l -0.03133,-0.330729 -0.03133,-0.330729 0.01663,-0.15434 0.01663,-0.15434 H 69.36278 68.980604 v 0.881944 0.881944 h 0.926042 0.926041 z m 31.150201,0.206934 -0.73209,-0.110656 0.17766,-0.287457 0.17766,-0.287456 -0.30547,0.188787 -0.30546,0.188787 -0.29283,-0.18098 -0.29283,-0.180979 0.35897,-0.227459 0.35898,-0.227459 -0.46302,-0.0041 -0.46302,-0.0041 v 0.372105 0.372104 l -0.595314,-0.162967 -0.595312,-0.162968 0.46626,-0.09687 0.46626,-0.09687 -0.153813,-0.248875 -0.153813,-0.248875 -0.312447,0.156228 -0.312447,0.156228 0.463021,-0.379518 0.46302,-0.379518 v -0.197577 -0.197576 l -0.407503,0.156373 -0.407503,0.156374 0.07677,-0.449204 0.07677,-0.449204 -0.463021,-0.09514 -0.46302,-0.09514 v 0.532952 0.532952 l 0.264583,0.163521 0.264583,0.163522 v 0.640802 0.640803 l 0.595313,0.127031 0.595313,0.127031 0.52917,0.111901 0.52916,0.111901 0.79375,-0.009 0.79375,-0.009 z m 15.89703,-0.928356 -0.0139,-1.005756 -0.23295,-0.143968 -0.23294,-0.143969 0.0415,0.478391 0.0415,0.478391 -0.0419,0.463021 -0.0419,0.463021 h -0.54478 -0.54479 l 0.16102,0.260534 0.16102,0.260534 0.63099,-0.05222 0.63098,-0.05222 z m -26.447277,-0.535348 -0.03755,-1.389063 -0.160891,1.037651 -0.160892,1.037652 -0.330729,0.108876 -0.330729,0.108877 -0.0041,-0.352778 -0.0041,-0.352778 -0.253234,0.396875 -0.253234,0.396875 0.720306,0.167133 0.720306,0.167134 0.06615,0.0313 0.06615,0.0313 z m 54.806297,-0.463015 v -1.058334 h -0.92604 -0.92604 v 0.373356 0.373355 l 0.81405,0.684978 0.81405,0.684978 h 0.11199 0.11199 z M 88.427481,88.254492 v -0.635786 l -0.463021,-0.08917 -0.463021,-0.08917 v 0.636761 0.636762 l 0.181901,0.181901 0.181901,0.181901 0.28112,-0.09371 0.28112,-0.09371 z M 78.241022,87.214584 v -1.5875 l -0.46302,0.0041 -0.463021,0.0041 0.396875,0.256481 0.396875,0.25648 -0.478636,0.0041 -0.478636,0.0041 0.164677,0.266452 0.164676,0.266452 -0.412125,0.158147 -0.412125,0.158147 0.144514,0.233829 0.144514,0.233828 -0.410617,-0.157568 -0.410617,-0.157569 v 0.822058 0.822057 h 1.058333 1.058333 z m 59.828908,1.190625 0.0331,-0.396875 0.0331,-0.274234 0.0331,-0.274234 0.35741,-0.22089 0.3574,-0.22089 -1.15115,-0.146027 -1.15116,-0.146026 -1.24912,0.17813 -1.24912,0.178129 0.25288,0.396875 0.25288,0.396875 0.004,-0.330729 0.004,-0.330729 h 0.69657 0.69657 l 0.49406,0.569651 0.49405,0.56965 v 0.2241 0.224099 h 0.52917 0.52917 z m 4.21422,-1.389062 -0.0188,-1.521354 0.16549,-2.71198 0.16548,-2.711979 h 0.3661 0.3661 v -0.661458 -0.661458 h -2.77812 -2.77813 v 0.628385 0.628386 l 0.83008,0.166016 0.83009,0.166016 -0.18029,2.221876 -0.18028,2.221875 1.33458,0.183551 1.33457,0.18355 v 1.694964 1.694964 h 0.28096 0.28096 z m -70.538648,0.707015 0.251354,-0.243995 h -0.529167 -0.529166 l -0.251355,0.238902 -0.251354,0.238902 -0.529166,0.147687 -0.529167,0.147687 1.058333,-0.142594 1.058334,-0.142594 z m 43.045918,0.314194 -0.35898,-0.227459 0.29283,-0.18098 0.29284,-0.180979 v -1.042719 -1.042718 h -0.2802 -0.2802 l 0.16165,0.261553 0.16165,0.261552 -0.37585,-0.144225 -0.37584,-0.144225 -0.15712,0.60081 -0.15711,0.60081 0.32078,0.203853 0.32078,0.203852 -0.39688,0.0081 -0.39687,0.0081 0.39687,0.25648 0.39688,0.256481 -0.33073,0.0041 -0.33073,0.0041 v 0.264583 0.264583 l 0.7276,-0.0041 0.72761,-0.0041 z m 4.46002,-0.706095 v -0.941657 l -0.23975,0.14817 -0.23974,0.148171 0.14345,0.595048 0.14345,0.595049 -0.3535,-0.330729 -0.35349,-0.330729 -0.27782,0.0041 -0.27781,0.0041 0.39688,0.25648 0.39687,0.256481 -0.39687,0.03043 -0.39688,0.03042 0.66146,0.211836 0.66146,0.211836 0.0661,0.02637 0.0662,0.02637 z m 10.82666,-1.256396 -0.0488,-2.213096 -0.59542,0.113823 -0.59543,0.113824 -0.17892,-0.289499 -0.17892,-0.289499 h -0.77814 -0.77813 v 0.247062 0.247062 l 0.66145,-0.119945 0.66146,-0.119945 v 0.251356 0.251356 l 0.57459,0.08455 0.57459,0.08455 0.10701,0.396875 0.10702,0.396875 -0.28068,-0.396875 -0.28067,-0.396875 -0.008,0.529167 -0.008,0.529167 -0.25648,-0.396875 -0.25649,-0.396875 -0.004,0.46302 -0.004,0.463021 h -0.54699 -0.547 l 0.18829,0.593238 0.18828,0.593237 -0.40403,-0.335316 -0.40403,-0.335317 -0.13179,0.866558 -0.1318,0.866558 0.0815,0.141961 0.0815,0.14196 1.62055,0.064 1.62055,0.064 z m 10.60459,1.668886 v -0.529167 h -0.37524 -0.37523 l -0.41852,-0.160599 -0.41851,-0.160599 v 0.689766 0.689765 h 0.79375 0.79375 z m -27.85345,-0.264584 0.67273,-0.529166 -0.631,0.0186 -0.63099,0.0186 -0.52917,0.227391 -0.52916,0.227391 0.66146,0.03719 0.66145,0.03719 -0.52916,0.227391 -0.52917,0.22739 0.35514,0.0186 0.35515,0.0186 z m -8.65905,-1.692001 v -1.692 l -1.05833,-0.100929 -1.05834,-0.100928 v 1.638589 1.638589 l 0.33073,0.133452 0.33073,0.133452 0.72761,0.02089 0.7276,0.02089 z m 13.05871,0.761924 -0.15074,-0.392839 h -0.21688 -0.21687 l -0.121,-0.463021 -0.121,-0.463021 -0.0307,1.133788 -0.0307,1.133789 0.51931,-0.277929 0.51931,-0.277928 z m 15.41707,0.719007 -0.13045,-0.21107 0.21085,-0.341157 0.21084,-0.341156 2.28524,0.0064 2.28524,0.0064 v -0.405719 -0.405719 l -1.25677,0.123789 -1.25677,0.12379 -0.63669,0.208008 -0.63668,0.208007 0.18101,-0.292893 0.18102,-0.292893 -0.91623,-0.171885 -0.91622,-0.171885 -0.22643,0.139936 -0.22642,0.139937 -0.0636,0.944622 -0.0636,0.944621 h 0.55307 0.55307 z m -36.17939,-1.614971 -0.03069,-1.48125 -0.121,0.463021 -0.121,0.463021 H 96.001624 95.809358 L 95.552274,84.840834 95.29519,84.58375 93.647274,84.458829 91.999358,84.333908 v 1.288646 1.288646 l 0.46302,0.127116 0.463021,0.127116 1.785938,-0.01553 1.785937,-0.01553 z m -30.549271,0.623249 0.16907,-0.673626 -0.156001,-0.252416 -0.156002,-0.252415 h -0.325691 -0.325692 l 0.04868,0.859895 0.04868,0.859896 0.02804,0.06615 0.02804,0.06615 h 0.235901 0.2359 z m 57.694411,0.153113 0.15817,-0.25593 -0.51459,-0.321364 -0.51458,-0.321365 0.23893,-0.628451 0.23894,-0.628452 -0.24119,0.149061 -0.24118,0.149061 -0.134,-0.332378 -0.134,-0.332377 -0.0209,0.567005 -0.0209,0.567005 -0.42877,0.164531 -0.42876,0.164531 0.13951,-0.533464 0.1395,-0.533464 -0.23991,0.148272 -0.23991,0.148272 -0.002,0.315114 -0.002,0.315114 0.86228,0.720487 0.86228,0.720486 0.18283,0.0071 0.18282,0.0071 z m 27.3347,-2.2127 0.0773,-2.029287 h -0.67259 -0.67258 v 1.962326 1.962327 l 0.33073,0.132291 0.33073,0.132292 0.26458,-0.06533 0.26458,-0.06533 z m 0.84877,-0.494704 v -1.640416 l -0.21746,0.251354 -0.21746,0.251354 0.1107,1.389062 0.11071,1.389063 h 0.10675 0.10676 z m 0.74114,-0.02272 0.23708,-1.51186 h -0.35682 -0.35682 v 1.631597 1.631597 l 0.11974,-0.119737 0.11974,-0.119738 z m 12.25742,-1.908735 0.27241,-0.529167 -0.93701,1.058334 -0.93701,1.058333 -4.2e-4,0.264583 -4.2e-4,0.264584 0.66503,-0.79375 0.66502,-0.79375 z m -3.5883,-0.86439 -0.14984,-0.149846 -0.12414,0.124136 -0.12414,0.124137 0.19028,1.04444 0.19029,1.04444 0.0837,-1.018731 0.0837,-1.018731 z m -3.45714,1.525848 -0.16352,-0.264583 h 0.21405 0.21406 v -0.926045 -0.926041 h -0.46302 -0.46302 v 0.38126 0.38126 l -0.20929,0.129347 -0.20929,0.129347 0.10594,-0.907482 0.10595,-0.907482 h 0.3221 0.3221 l -0.079,-0.859896 -0.079,-0.859896 0.28342,0.992188 0.28342,0.992187 h 0.2383 0.2383 l 0.004,-0.727604 0.004,-0.727604 0.15954,-0.595313 0.15954,-0.595312 h -0.42771 -0.42773 v -0.264584 -0.264583 h 0.52916 0.52917 v -1.302398 -1.302397 l -0.95748,-0.315997 -0.95748,-0.315996 -0.22909,0.361623 -0.2291,0.361624 -0.004,-0.727605 -0.004,-0.727604 h -0.26448 -0.26459 l 0.006,0.992188 0.006,0.992187 0.22999,0.990322 0.22999,0.990322 -0.2363,-0.146041 -0.2363,-0.146041 0.0186,0.743219 0.0186,0.743219 0.20153,-0.514998 0.20154,-0.514998 0.17313,0.64729 0.17313,0.647289 -0.0228,0.661459 -0.0228,0.661458 -0.21327,-0.661458 -0.21326,-0.661459 0.009,1.719792 0.009,1.719792 0.3407,0.490482 0.34071,0.490482 0.11826,-0.622774 0.11826,-0.622774 0.036,0.727604 0.036,0.727605 h 0.2802 0.28019 z m -0.66145,-5.723822 v -0.784931 l -0.22453,-0.251354 -0.22453,-0.251354 0.17819,-0.661458 0.1782,-0.661458 0.20044,1.543629 0.20045,1.54363 -0.15411,0.154113 -0.15411,0.154114 z m -3.13969,4.004028 0.1676,-1.058334 0.0409,-4.43177 0.0409,-4.431771 h -0.53921 -0.53921 v 0.904402 0.904402 l -0.1606,0.418515 -0.1606,0.418514 0.49133,0.02089 0.49132,0.02089 -0.31459,0.128074 -0.3146,0.128074 -0.68755,-0.450502 -0.68754,-0.450499 -0.32078,0.408697 -0.32077,0.408697 -1.302,0.148851 -1.30201,0.148852 -0.22185,0.339301 -0.22185,0.3393 0.0796,0.907629 0.0795,0.907629 0.38597,0.104701 0.38597,0.104702 -0.3601,-0.25235 -0.36011,-0.25235 0.88927,-0.09852 0.88927,-0.09852 1.85209,0.151715 1.85208,0.151716 -0.4257,0.04672 -0.4257,0.04672 0.10185,2.417646 0.10185,2.417646 0.12706,0.205589 0.12706,0.205589 -0.33238,0.147192 -0.33237,0.147191 0.52916,-0.05845 0.52917,-0.05845 z m -27.55198,0.307481 v -0.353977 l -1.25677,-0.0056 -1.25677,-0.0056 0.79375,0.115308 0.79375,0.115307 0.25135,0.244225 0.25136,0.244224 h 0.21166 0.21167 z m 35.16321,-2.358002 0.0264,-0.463021 h -0.52916 -0.52917 v 0.546561 0.546561 l 0.31451,0.577918 0.31452,0.577918 0.18828,-0.661458 0.18827,-0.661458 z m 2.39015,0.884427 0.54774,-0.769219 -0.24837,-0.619843 -0.24836,-0.619844 -0.0168,0.330729 -0.0168,0.330729 h -0.39687 -0.39688 v 1.058333 1.058334 h 0.11428 0.11427 z m -16.65128,-2.802656 v -0.412937 l -1.5875,0.04763 -1.5875,0.04763 v 0.317668 0.317667 l 1.5875,0.04763 1.5875,0.04763 z m 14.29111,-0.651617 0.004,-0.406717 0.16249,-0.60658 0.16248,-0.606581 -0.35512,0.07741 -0.35513,0.07741 -0.34014,0.625556 -0.34013,0.625557 v 0.350187 0.350188 l 0.52916,-0.03986 0.52917,-0.03986 z m 2.25773,0.274766 -0.15115,-0.244559 0.43092,-0.08617 0.43092,-0.08617 -0.55117,-0.661459 -0.55117,-0.661458 -0.009,0.815799 -0.009,0.815798 0.17639,0.176389 0.17639,0.176389 h 0.10381 0.10381 z m -23.89103,-0.397348 0.72761,-0.161925 -0.004,-1.119438 -0.004,-1.119438 -0.19439,0.290446 -0.19438,0.290447 -1.19063,-0.02586 -1.19062,-0.02586 -0.0858,0.898296 -0.0858,0.898296 0.35036,0.220143 0.35035,0.220143 0.39688,-0.10166 0.39687,-0.10166 z m -10.73767,-0.683582 v -0.68293 l -0.56828,0.541189 -0.56829,0.541188 0.0638,0.141742 0.0638,0.141741 h 0.5045 0.50449 z m 1.93623,0.432038 0.004,0.297174 1.19062,0.0239 1.19063,0.0239 v -0.491206 -0.491202 l -0.41365,-0.15873 -0.41364,-0.158731 0.13075,-0.211568 0.13076,-0.211568 -0.76855,-0.05856 -0.76855,-0.05856 0.16551,0.431333 0.16552,0.431332 -0.56928,-0.304672 -0.56929,-0.304673 0.004,0.869205 0.004,0.869205 0.25648,-0.396875 0.25648,-0.396875 z m 5.82488,-0.640197 v -1.004482 l -0.59531,0.01945 -0.59531,0.01945 -0.61584,0.343867 -0.61583,0.343866 0.14451,0.376583 0.14451,0.376584 h -0.25628 -0.25628 v 0.264583 0.264583 h 1.32292 1.32291 z m 8.20209,-0.05385 V 73.98542 h -0.26459 -0.26458 v 1.058333 1.058333 h 0.26458 0.26459 z m 16.93333,-1.442516 v -0.352952 l -0.39688,-0.152295 -0.39687,-0.152296 v 0.476766 0.476765 l 0.16919,0.169196 0.1692,0.169196 0.22768,-0.140713 0.22768,-0.140714 z m -39.54891,0.17 -0.14821,-0.148212 -1.75312,0.04295 -1.75312,0.04295 -0.14488,0.144879 -0.14488,0.14488 2.04621,-0.03962 2.04622,-0.03961 z m 9.18797,-0.178202 0.72761,0.0812 v -1.167322 -1.167326 h -0.39688 -0.39687 l -0.004,0.330729 -0.004,0.330729 -0.19439,-0.264583 -0.19439,-0.264584 -1.19062,-0.0037 -1.19063,-0.0037 -0.21158,0.334468 -0.21159,0.334468 h -0.24313 -0.24313 l 0.17353,-0.463021 0.17352,-0.463021 -0.4094,0.332409 -0.4094,0.332409 0.12687,0.663689 0.12687,0.663688 0.29015,0.179323 0.29015,0.179323 0.93503,0.167768 0.93503,0.167769 0.39688,-0.190922 0.39687,-0.190922 z m 6.81302,-0.128478 v -0.256279 l 0.41796,0.160387 0.41797,0.160387 -0.0872,-0.764004 -0.0872,-0.764003 0.39688,-0.327094 0.39687,-0.327094 -0.8599,0.286831 -0.85989,0.286831 -0.0338,0.304846 -0.0338,0.304847 -0.0624,0.595312 -0.0624,0.595313 h 0.22846 0.22846 z m 8.20349,-0.0047 1.19203,-0.0036 0.28664,-0.915806 0.28665,-0.915807 -0.27482,-0.274818 -0.27482,-0.274819 h -0.72522 -0.72522 l -0.16352,-0.264587 -0.16352,-0.264583 h 0.2158 0.2158 l 0.82335,0.236134 0.82335,0.236133 -0.0314,-1.180149 -0.0314,-1.18015 -1.5875,0.141414 -1.5875,0.141414 -1.38906,0.16668 -1.38907,0.166679 v 1.165089 1.165089 h 0.2802 0.2802 l -0.14099,-0.228127 -0.14099,-0.228126 0.5884,0.06207 0.58839,0.06207 0.33073,0.03377 0.33073,0.03377 v 1.221483 1.221484 l 0.59531,-0.159538 0.59532,-0.159537 z m -1.5576,-1.011415 -0.0313,-0.346344 -0.33073,0.186722 -0.33073,0.186722 0.33073,-0.356316 0.33073,-0.356315 v -0.227282 -0.227281 l -0.26458,0.163521 -0.26459,0.163522 V 71.3552 71.075001 h -0.3406 -0.34059 l -0.0605,-0.79375 -0.0605,-0.79375 h 0.36801 0.368 l 0.15875,0.79375 0.15875,0.79375 h 0.38144 0.38144 l 0.10579,-0.317351 0.10578,-0.317352 0.17133,0.44647 0.17132,0.446469 -0.30649,-0.06297 -0.3065,-0.06297 -0.18184,0.79375 -0.18185,0.79375 z m 13.99161,0.610927 v -0.396875 h -1.19062 -1.19063 v 0.246182 0.246181 l 0.59531,0.114662 0.59532,0.114662 0.59531,0.03603 0.59531,0.03603 z m -9.08997,-1.323103 0.0382,-0.661272 h -0.50118 -0.50117 v 0.245685 0.245684 l 0.41577,0.415774 0.41577,0.415774 0.0473,-1.87e-4 0.0472,-1.87e-4 z m -19.83881,-0.727418 0.20661,-0.330729 0.0502,-0.330729 0.0502,-0.330729 h -0.24117 -0.24117 v -0.264583 -0.264584 h 0.38857 0.38857 l -0.14313,-0.372997 -0.14314,-0.372997 -0.59478,-0.14928 -0.59478,-0.14928 0.0821,-1.037933 0.0821,-1.037933 -0.38574,-0.148026 -0.38575,-0.148026 -0.16421,0.265698 -0.16421,0.265698 0.13697,0.356947 0.13697,0.356948 -0.64269,0.122859 -0.6427,0.122859 V 66.80498 66.04792 l 0.46302,-0.03069 0.46302,-0.03069 -0.46302,-0.121 -0.46302,-0.121 -0.0389,-0.575912 -0.0389,-0.575912 -0.19696,1.5875 -0.19697,1.5875 -0.0287,0.992187 -0.0287,0.992188 h 0.23981 0.23981 l -0.1359,-0.519686 -0.1359,-0.519686 0.38235,-0.382345 0.38234,-0.382344 0.29094,0.179811 0.29094,0.179811 0.31827,0.788365 0.31826,0.788365 0.20108,-0.661458 0.20108,-0.661458 0.0264,0.359036 0.0264,0.359037 0.44819,-0.171985 0.44818,-0.171986 -0.44818,0.495241 -0.44819,0.49524 v 0.309896 0.309896 l 0.33073,0.02089 0.33073,0.02089 -0.33073,0.133452 -0.33073,0.133452 v 0.242535 0.242535 h 0.24897 0.24897 z m 3.52878,-0.771701 v -1.10243 l -0.13154,0.131543 -0.13155,0.131544 -0.0557,0.77245 -0.0557,0.772449 -0.2758,0.194386 -0.2758,0.194386 0.46302,0.0041 0.46302,0.0041 z m 3.13179,-0.08818 -0.0239,-1.190625 h -0.74458 -0.74458 l -0.13393,0.216708 -0.13393,0.216709 0.71363,-0.04945 0.71363,-0.04945 -0.44839,0.113811 -0.4484,0.11381 0.14597,0.38039 0.14597,0.38039 h -0.27084 -0.27084 l -0.11098,-0.198437 -0.11097,-0.198438 0.0774,0.322256 0.0774,0.322256 -0.25303,0.15638 -0.25302,0.15638 v -0.324296 -0.324295 l -0.16498,0.164978 -0.16498,0.164978 0.15667,0.408286 0.15668,0.408286 h 1.05698 1.05698 z m 3.21546,-0.5062 -0.0424,-0.228388 0.35332,-0.223967 0.35333,-0.223967 -1.64534,-0.0041 -1.64534,-0.0041 0.14649,0.381768 0.1465,0.381768 0.61846,-0.235136 0.61845,-0.235135 0.32479,0.391346 0.32479,0.391346 0.24471,-0.08157 0.24472,-0.08157 z m -8.19933,-2.684415 v -1.96876 h -0.51355 -0.51355 l -0.17069,0.276173 -0.17068,0.276174 0.28106,0.338663 0.28107,0.338664 -0.31987,0.31987 -0.31987,0.319871 0.64272,0.168077 0.64273,0.168076 -0.515,0.201536 -0.515,0.201536 0.46302,0.0186 0.46303,0.0186 V 68.004 68.372567 l -0.45561,0.174832 -0.45561,0.174833 0.37683,0.232892 0.37683,0.232892 0.21107,-0.130449 0.21107,-0.130448 z m -7.4291,-0.75873 0.0512,-2.122361 -0.13637,0.136365 -0.13636,0.136366 -0.0649,1.75709 -0.0649,1.75709 -0.2439,-0.04823 -0.24391,-0.04823 -0.11621,0.315565 -0.11621,0.315566 0.5102,-0.03843 0.5102,-0.03843 z m -20.08757,0.37747 v -1.322917 l -0.19843,-2.05e-4 -0.19844,-2.05e-4 0.0493,1.256976 0.0493,1.256976 0.0169,0.06615 0.0169,0.06614 h 0.13229 0.13229 z m 25.92917,0.264583 -0.39688,-0.25648 0.33073,-0.0041 0.33073,-0.0041 v -0.418827 -0.418923 l -0.33073,0.108918 -0.33073,0.108919 -0.0845,0.574588 -0.0846,0.574588 0.48142,-0.0041 0.48142,-0.0041 z M 101.5905,64.798193 100.73061,64.691481 V 64.460886 64.23029 l 0.25803,-0.678682 0.25804,-0.678683 h 0.53571 0.53572 v -0.256279 -0.25628 l -0.40025,0.153589 -0.40024,0.153588 -0.35171,-0.291889 -0.3517,-0.291888 -0.17409,0.174094 -0.1741,0.174093 v 1.278819 1.27882 l 0.99219,-0.04234 0.99219,-0.04234 z m 27.97969,-0.354211 v -0.512723 h -0.52917 -0.52916 v 0.472862 0.472862 l 0.52916,0.03986 0.52917,0.03986 z m -32.146876,0.01644 -1.058333,-0.189492 0.595312,-0.03755 0.595313,-0.03755 v -0.280186 -0.280199 l -0.261553,0.161649 -0.261553,0.161648 0.157569,-0.410617 0.157568,-0.410616 h 0.467786 0.467787 l 0.140414,-0.727605 0.140415,-0.727604 0.03745,-3.274248 0.03745,-3.274249 -0.367892,0.141174 -0.367893,0.141173 -1.496687,0.186999 -1.496688,0.186999 v 0.307235 0.307234 l 1.085815,-0.103549 1.085816,-0.103549 -0.188472,0.59382 -0.188471,0.59382 0.822448,-0.120709 0.822448,-0.12071 v 0.218759 0.21876 h -0.910427 -0.910427 l -0.174401,0.282186 -0.1744,0.282186 0.157667,0.157668 0.157668,0.157668 0.642485,-0.292736 0.642484,-0.292735 0.322379,0.388442 0.322378,0.388442 -0.169995,0.169995 -0.169995,0.169995 v -0.261246 -0.261246 l -1.389062,0.183895 -1.389063,0.183895 -0.112977,-0.101772 -0.112976,-0.101772 0.509851,-0.385726 0.509852,-0.385727 -0.239444,-0.0084 -0.239445,-0.0084 0.480357,-0.530789 0.480357,-0.530788 -0.108621,-0.107306 -0.10862,-0.107306 -0.691071,0.132788 -0.69107,0.132789 -0.05003,3.656349 -0.05003,3.65635 0.277684,0.171618 0.277685,0.171618 -0.06575,-0.610682 -0.06575,-0.610683 0.330729,0.06615 0.33073,0.06615 v -0.280235 -0.280199 l 0.280416,0.173307 0.280416,0.173307 -0.478854,0.371475 -0.478853,0.371475 0.51359,0.396874 0.513591,0.396875 0.941617,-0.03755 0.941618,-0.03755 z m -1.719965,-4.034896 -1.74e-4,-0.330729 h 0.967657 0.967656 l 0.12243,-0.35932 0.122429,-0.359321 -1.123397,0.189797 -1.123397,0.189796 0.181391,-0.293497 0.181391,-0.293496 h 1.118314 1.118314 v 0.516567 0.516568 l -0.110352,-0.110352 -0.110351,-0.110351 -0.553282,0.387534 -0.553282,0.387534 h -0.602587 -0.602587 z m 36.248091,3.829467 V 63.78498 l -1.05833,0.100928 -1.05834,0.100929 v 0.369084 0.369084 h 1.05834 1.05833 z m -0.2939,-0.915115 0.36756,0.130864 -0.18474,-0.298909 -0.18473,-0.298908 h -0.49192 -0.49191 l -0.4407,0.169112 -0.4407,0.169112 0.33866,0.209302 0.33866,0.209301 0.41113,-0.210369 0.41113,-0.210369 z m -38.669567,-4.435703 0.02224,-3.042708 -0.225596,1.058333 -0.225596,1.058334 0.01606,2.778125 0.01606,2.778125 0.187302,-0.79375 0.187303,-0.79375 z m 11.446797,3.574102 v -0.286493 l -0.53488,-0.04029 -0.53489,-0.04029 0.14194,0.229654 0.14193,0.229654 -0.59924,0.121506 -0.59923,0.121505 0.99219,-0.02437 0.99218,-0.02437 z m 2.87575,-0.463874 -0.27066,-0.505744 0.14436,-0.3762 0.14436,-0.3762 h -0.22543 -0.22544 l -0.1388,0.726096 -0.1388,0.726097 0.0963,0.155848 0.0963,0.155847 h 0.39422 0.39422 z m 24.66058,-0.133665 0.0197,-0.463021 0.11097,-0.595313 0.11097,-0.595312 -0.46136,-0.03069 -0.46136,-0.03069 0.46302,-0.121 0.46302,-0.121 v -2.09727 -2.097267 l -0.85989,-0.0186 -0.8599,-0.0186 0.52917,-0.227391 0.52916,-0.227391 -0.39687,-0.02265 -0.39688,-0.02265 0.39688,-0.270304 0.39687,-0.270304 -0.79375,0.07592 -0.79375,0.07592 v 0.529166 0.529167 l 0.8599,0.08291 0.8599,0.08291 0.0377,0.181674 0.0377,0.181674 0.0716,0.859896 0.0716,0.859895 h -0.99122 -0.99121 v 0.396875 0.396875 l 1.08038,0.02089 1.08038,0.02089 -0.39688,0.151076 -0.39687,0.151076 -0.19439,0.291057 -0.19438,0.291056 -0.004,-0.330729 -0.004,-0.330729 h -0.39688 -0.39687 v 0.227893 0.227893 l -0.63789,-0.12194 -0.63789,-0.12194 -0.45061,0.252175 -0.45061,0.252175 0.55933,0.146268 0.55933,0.146269 v -0.239809 -0.239813 h 0.2802 0.2802 l -0.16352,0.264584 -0.16352,0.264583 0.74321,0.03069 0.74322,0.03069 -0.46302,0.121 -0.46302,0.121 v 0.377475 0.377474 h 0.52917 0.52917 v 0.372105 0.372105 l -0.52917,-0.13838 -0.52917,-0.138381 v 0.295443 0.295442 h 1.05834 1.05833 z m -29.08657,-0.06615 h 0.25856 l -0.19131,-0.309546 -0.19131,-0.309547 0.4318,0.1657 0.43181,0.165699 0.15638,-0.253028 0.15638,-0.253028 h -0.82498 -0.82498 l 0.18878,0.305464 0.18879,0.305463 -0.30546,-0.188787 -0.30547,-0.188787 -0.2689,0.166189 -0.2689,0.166189 0.16337,0.264339 0.16337,0.264338 0.39176,-0.150329 0.39175,-0.150329 z m -1.14673,-1.928606 0.7126,-0.108775 -0.8599,-0.03964 -0.85989,-0.03964 0.0445,1.124479 0.0445,1.12448 0.10282,-0.976062 0.10282,-0.976062 z m 5.58917,-0.83629 -0.24636,-0.251354 v -0.211663 -0.211666 h 0.41892 0.41892 l -0.0948,-0.284427 -0.0948,-0.284427 -0.25797,0.08599 -0.25796,0.08599 -0.1587,-1.190625 -0.1587,-1.190625 -0.0304,2.513541 -0.0304,2.513542 0.36927,-0.661458 0.36928,-0.661459 z m -4.85051,-0.549132 -0.76769,-0.400352 -0.48908,0.155228 -0.48908,0.155228 v 0.246754 0.246753 l 1.25677,-0.0016 1.25677,-0.0016 z m 62.51478,-1.911493 -0.0331,-1.521354 -0.19466,1.190625 -0.19467,1.190625 0.1238,0.330729 0.12379,0.330729 h 0.10399 0.10398 z m -61.6148,0.860553 v -0.405937 l -0.79375,0.06048 -0.79375,0.06048 -0.004,0.27445 -0.004,0.27445 -0.25648,-0.396875 -0.25648,-0.396875 -0.004,-0.226745 -0.004,-0.226745 0.39687,0.152296 0.39688,0.152295 0.004,-0.322425 0.004,-0.322426 0.25648,0.396875 0.25648,0.396875 0.004,-0.595312 0.004,-0.595313 h 1.05833 1.05834 V 55.18438 54.639598 l -0.20223,0.124981 -0.20222,0.124981 -1.45142,0.06751 -1.45143,0.06751 -0.33072,0.116015 -0.33073,0.116015 v 0.897734 0.897734 h 0.29698 0.29698 l -0.29462,0.354995 -0.29462,0.354996 1.32055,0.04674 1.32056,0.04674 z m 26.1978,0.06549 0.004,-0.330729 0.19439,0.301449 0.19438,0.301449 0.34116,-0.367595 0.34116,-0.367595 -0.73803,-0.02089 -0.73804,-0.02089 0.31587,-0.128498 0.31586,-0.128497 -0.14913,-0.388629 -0.14913,-0.388628 -0.97399,0.05747 -0.97399,0.05747 -0.0354,0.47049 -0.0354,0.470489 0.8427,-0.16686 0.84269,-0.16686 -0.34177,0.415769 -0.34177,0.415768 0.34177,0.137134 0.34177,0.137133 0.19844,0.02089 0.19844,0.02089 z M 109.46186,57.0677 v -0.248968 l -0.26696,-0.164985 -0.26695,-0.164985 -0.5268,0.1672 -0.52679,0.167199 v 0.246754 0.246753 h 0.79375 0.79375 z m -5.02709,-0.677073 v -0.396875 h -0.79375 -0.79375 v 0.396875 0.396875 h 0.79375 0.79375 z m 17.99167,-0.396875 v -0.264584 l -0.33073,-0.0186 -0.33073,-0.0186 0.52917,-0.227391 0.52916,-0.227391 -0.57969,-0.0186 -0.5797,-0.0186 -0.16352,0.264583 -0.16352,0.264583 0.16352,0.264584 0.16352,0.264583 h 0.38126 0.38126 z m 6.91885,-0.520879 0.0397,-0.272871 0.0265,-0.330729 0.0265,-0.33073 0.23233,-0.168856 0.23234,-0.168856 -0.18683,-0.302283 -0.18682,-0.302283 -0.97155,0.166313 -0.97156,0.166312 0.76876,-0.687361 0.76876,-0.68736 h -0.83491 -0.8349 v 1.058333 1.058333 h 0.92604 0.92605 v 0.272887 0.272888 l -0.43193,0.165744 -0.43192,0.165745 -0.45002,-0.281043 -0.45002,-0.281043 v 0.32047 0.32047 l 0.88194,0.0594 0.88195,0.0594 z m -19.36962,-0.646882 0.38151,-0.287448 -0.22035,0.396875 -0.22035,0.396875 0.48454,-0.456721 0.48455,-0.456721 -0.17045,-0.170443 -0.17044,-0.170444 -1.51247,0.23029 -1.51246,0.230289 -0.11342,0.34299 -0.11341,0.342989 1.15061,-0.05554 1.15062,-0.05554 z m -34.645064,-0.155156 0.661458,-0.211836 -0.529166,-0.03043 -0.529167,-0.03042 0.384242,-0.243074 0.384242,-0.243074 0.211071,0.130449 0.21107,0.130448 V 53.8927 53.612502 H 75.97467 75.824984 l -0.511772,0.273892 -0.511773,0.273893 v -0.273893 -0.273892 l -0.529166,0.529166 -0.529167,0.529167 v 0.132292 0.132291 l 0.463021,-0.02637 0.463021,-0.02637 z m -3.562957,-0.519312 -0.469971,-0.519312 0.127766,-0.340584 0.127766,-0.340583 -0.190919,-0.529167 -0.19092,-0.529167 -0.02704,1.239298 -0.02704,1.239298 0.453013,0.119072 0.453013,0.119073 0.107153,0.03069 0.107153,0.03069 z m 6.924285,0.254729 h 0.672215 l -0.329377,-0.396875 -0.329377,-0.396875 h -0.342429 -0.34243 l -0.110976,-0.198438 -0.110976,-0.198437 0.09352,0.364346 0.09352,0.364346 -0.467617,0.384857 -0.467617,0.384858 0.484661,-0.153891 0.48466,-0.153891 z m -8.134377,-1.203336 -0.318828,-0.384164 h 0.268297 0.268297 l 0.194593,-0.727604 0.194593,-0.727604 0.395102,0.926041 0.395102,0.926042 0.224212,-0.595313 0.224212,-0.595312 h 0.27311 0.273109 v 0.396875 0.396875 h 0.405179 0.405179 l 0.152295,-0.396875 0.152295,-0.396875 h 0.604844 0.604843 l 0.150746,-0.392839 0.150747,-0.392839 -0.50192,-0.268619 -0.50192,-0.26862 H 73.91484 73.258036 l -0.121267,0.330729 -0.121267,0.33073 -0.306149,-0.286305 -0.306148,-0.286305 1.066825,-0.319628 1.066826,-0.319629 v -0.518546 -0.518546 h -0.308681 -0.30868 l 0.121797,-0.121797 0.121798,-0.121798 0.583758,0.152657 0.583758,0.152656 v 0.630599 0.6306 h 0.396875 0.396875 v -0.264583 -0.264584 l 0.595312,3.88e-4 0.595313,3.88e-4 0.07404,1.078442 0.07405,1.078443 -0.338629,-0.203578 -0.338629,-0.203577 0.368433,0.454057 0.368432,0.454058 -0.169995,0.169995 -0.169995,0.169995 v -0.352777 -0.352778 l -0.174093,0.174093 -0.174094,0.174093 -0.375238,-0.31142 -0.375239,-0.31142 -0.237303,0.379861 -0.237304,0.379862 0.852781,0.147248 0.852782,0.147248 0.178081,-0.08414 0.178082,-0.08414 0.183199,-0.856862 0.1832,-0.856862 0.266428,-0.330729 0.266428,-0.330729 h -0.29698 -0.29698 v 0.280198 0.280198 l -0.265299,-0.163963 -0.265299,-0.163964 0.274608,-0.51311 0.274608,-0.513109 h -0.803059 -0.803059 v -0.264583 -0.264584 l 0.595313,-0.02089 0.595312,-0.02089 -0.330729,-0.133452 -0.330729,-0.133452 v -0.39986 -0.399859 l 0.926041,1.108399 0.926042,1.1084 v -0.160915 -0.160915 l -0.2565,-0.459431 -0.256499,-0.45943 -0.416106,-1.5875 -0.416105,-1.5875 -0.03295,-0.330729 -0.03295,-0.33073 h -0.236101 -0.236101 l 0.173391,-0.280552 0.173391,-0.280553 -0.268561,-0.711635 -0.268562,-0.711635 -0.161555,-0.738425 -0.161554,-0.738425 -0.190681,0.116378 -0.190681,0.116379 -0.04316,-0.833162 -0.04316,-0.833161 -0.515021,-1.455208 -0.515021,-1.455209 -0.346504,0.08107 -0.346505,0.08108 0.316548,-0.381417 0.316547,-0.381416 -0.379929,-1.154867 -0.379929,-1.154866 -0.177438,-0.859896 -0.177437,-0.859896 H 69.356452 65.01185 v 6.630198 6.630198 l 0.29098,-0.179836 0.290981,-0.179835 -0.290981,0.543701 -0.29098,0.543702 V 48.692 50.685465 l 0.440279,-0.16895 0.440278,-0.168951 -0.19131,0.309546 -0.19131,0.309547 h 0.529167 0.529166 l 0.163522,-0.264584 0.163521,-0.264583 h 0.396875 0.396875 l -0.188787,0.305464 -0.188787,0.305463 0.305464,-0.188787 0.305464,-0.188787 0.277431,0.171462 0.277431,0.171462 -0.315135,0.379714 -0.315134,0.379713 0.169995,0.169995 0.169995,0.169995 v -0.339527 -0.339539 l 0.581545,0.152077 0.581544,0.152077 0.395286,-0.319656 0.395286,-0.319656 -0.202701,0.396875 -0.202702,0.396875 0.416496,-0.51359 0.416496,-0.513591 -0.02089,-0.677034 -0.02089,-0.677035 -0.153926,0.392151 -0.153926,0.39215 -0.335454,0.335454 -0.335454,0.335454 H 69.112888 68.678215 L 68.300239,50.588692 67.922263,50.210716 V 50.080548 49.95038 l 0.826801,-0.181596 0.826802,-0.181596 0.22748,0.359011 0.22748,0.359011 v -0.264583 -0.264583 l -0.194386,-0.291057 -0.194386,-0.291056 -0.396875,-0.173547 -0.396875,-0.173548 0.661459,0.122739 0.661458,0.122738 -0.0498,-1.510218 -0.0498,-1.510218 0.143257,0.529167 0.143258,0.529166 0.435705,0.508502 0.435706,0.508501 -0.365054,-0.214601 -0.365054,-0.214601 0.125065,0.367558 0.125064,0.367558 0.570719,-0.08278 0.570719,-0.08278 v 0.262812 0.262813 l -0.595313,0.08455 -0.595312,0.08455 0.08865,1.364412 0.08865,1.364412 -0.272977,0.510063 -0.272978,0.510064 -0.741711,-0.05215 -0.741712,-0.05215 0.610939,0.114985 0.610939,0.114985 0.116665,0.377793 0.116666,0.377793 0.173238,0.463021 0.173238,0.46302 0.113193,-0.475731 0.113194,-0.475731 z m -0.786113,-8.123226 -0.0029,-0.859896 -0.165368,-1.000626 -0.165368,-1.000626 -0.547746,0.471459 -0.547747,0.471459 0.642848,-0.800782 0.642849,-0.800782 0.800782,-0.649234 0.800782,-0.649234 -0.396875,0.523975 -0.396875,0.523974 -0.346972,0.220675 -0.346973,0.220675 0.1827,2.094429 0.182699,2.094429 h -0.166456 -0.166456 z m -3.81649,0.310838 0.16824,-0.376984 1.038876,-0.896948 1.038877,-0.896947 0.07303,0.103197 0.07304,0.103198 -1.280152,1.170734 -1.280151,1.170735 z m 3.16997,-5.680677 -0.184014,-1.227097 0.132291,-0.132292 0.132292,-0.132291 0.184014,1.227096 0.184015,1.227097 -0.132292,0.132292 -0.132291,0.132291 z m 24.876378,14.075805 -0.06813,-0.620596 -0.188775,-0.305446 -0.188776,-0.305445 h -0.232525 -0.232525 l 0.03767,0.500097 0.03767,0.500096 0.323456,-0.124121 0.323455,-0.124121 -0.143845,0.550066 -0.143846,0.550066 h 0.272144 0.272144 z m 37.950138,0.02055 v -0.352034 l -0.92604,0.10811 -0.92604,0.10811 v 0.181559 0.181559 l 0.92604,0.06236 0.92604,0.06237 z m -43.403656,-0.605028 -0.341366,-0.411321 -0.550927,-0.264734 -0.550927,-0.264734 0.513591,0.411471 0.51359,0.411471 -0.51359,0.0186 -0.513591,0.0186 0.529167,0.22739 0.529166,0.227391 0.363126,0.0186 0.363126,0.0186 z m 6.313474,-2.288358 0.182662,-0.186137 -0.04328,1.24447 -0.04328,1.24447 0.130446,-0.772936 0.130447,-0.772936 0.619946,-0.48765 0.619946,-0.487649 -0.22655,-0.789936 -0.226551,-0.789935 h 0.246114 0.246114 v 0.620451 0.620452 l 0.529167,0.478889 0.529167,0.478889 V 50.87538 50.437498 h 0.338868 0.338868 l 0.308734,-0.817929 0.308733,-0.817928 0.250716,0.15495 0.250715,0.154951 0.148461,-0.386882 0.14846,-0.386882 -0.230429,-0.142414 -0.23043,-0.142413 -0.134002,0.332378 -0.134002,0.332377 -0.02089,-0.491328 -0.02089,-0.491328 0.396424,0.152122 0.396425,0.152122 0.794203,-0.776355 0.7942,-0.776356 v 0.271281 0.271281 l 0.26458,-0.163522 0.26459,-0.163521 V 46.18855 45.674998 l 0.51951,-0.519516 0.51952,-0.519516 0.15755,0.254933 0.15756,0.254932 h -0.2802 -0.28019 v 0.264584 0.264583 h 0.52916 0.52917 v -0.29276 -0.292764 l 1.78594,0.07367 1.78593,0.07367 0.79375,-0.07089 0.79375,-0.07089 -1.32291,-0.326702 -1.32292,-0.326702 1.5875,0.01591 1.5875,0.01591 1.23003,-0.108742 1.23002,-0.108743 -0.135,-0.351819 -0.13501,-0.35182 0.42481,0.163017 0.42482,0.163016 -0.13509,0.218577 -0.13509,0.218577 0.24568,0.151834 0.24567,0.151834 -0.0628,-0.427871 -0.0628,-0.427871 -0.42753,-0.239256 -0.42753,-0.239257 -0.29283,0.46743 -0.29283,0.46743 0.16276,-0.595313 0.16275,-0.595312 h -0.48335 -0.48335 l -0.33047,-0.529167 -0.33047,-0.529167 h 0.25368 0.25367 l 0.24062,0.429948 0.24061,0.429948 h 0.69857 0.69858 v 0.231511 0.23151 l 0.33073,-0.0088 0.33073,-0.0088 -0.59531,-0.496629 -0.59531,-0.496629 v -0.171642 -0.171641 l 0.2463,0.152222 0.2463,0.152223 0.15183,-0.245673 0.15184,-0.245673 -0.44994,0.06604 -0.44994,0.06604 -0.10254,0.307611 -0.10254,0.307612 h -0.23322 -0.23323 l -0.26364,-0.492617 -0.26364,-0.492617 0.36273,-0.496058 0.36273,-0.496058 0.48691,0.427281 0.48692,0.427281 0.83246,0.114669 0.83247,0.114669 -0.13317,-0.347025 -0.13317,-0.347025 h 0.68977 0.68977 v 0.396875 0.396875 h 0.0929 0.0929 l 1.25008,-0.664678 1.25009,-0.664678 0.24453,0.151126 0.24453,0.151127 v -0.230308 -0.230308 l 0.55222,-0.592742 0.55222,-0.592742 -0.15136,-0.39443 -0.15135,-0.394431 0.98819,0.181461 0.9882,0.18146 0.0882,0.226655 0.0882,0.226655 0.57326,-0.0041 0.57327,-0.0041 0.39687,-0.283484 0.39688,-0.283483 -0.59505,0.130404 -0.59505,0.130404 -0.14817,-0.239744 -0.14817,-0.239744 h 0.2802 0.2802 v -0.24782 -0.24782 l -0.72761,-0.112481 -0.7276,-0.112481 1.36364,0.11158 1.36365,0.111581 0.17332,-0.280446 0.17333,-0.280446 h 0.29953 0.29954 l -0.42043,0.330729 -0.42043,0.330729 0.21897,0.529167 0.21898,0.529166 0.0186,-0.330729 0.0186,-0.330729 h 0.51181 0.51181 l 0.009,-2.293032 0.009,-2.293031 0.27343,-0.273427 0.27343,-0.273427 v -0.214569 -0.21457 l -11.01666,0.06905 -11.01665,0.06905 -1.78847,3.439583 -1.788477,3.439583 -0.741057,1.407187 -0.741058,1.407187 0.383164,0.271418 0.383164,0.271417 -0.49248,-0.160251 -0.49248,-0.160251 0.150196,0.391403 0.150195,0.391402 -0.293909,0.181645 -0.293908,0.181646 0.188787,-0.305464 0.188787,-0.305464 h -0.141819 -0.141818 l -0.998276,2.050521 -0.998275,2.050521 -0.153442,0.132291 -0.153442,0.132292 -0.640308,1.359855 -0.640308,1.359854 0.126602,1.550562 0.126602,1.550562 0.08854,-1.190625 0.08854,-1.190625 z m 13.949842,-10.51853 -1.02274,-1.047375 -0.17749,0.109694 -0.17749,0.109695 v -0.385236 -0.385236 h 0.17948 0.17948 l 0.48036,0.530788 0.48036,0.530789 0.13161,-0.131618 0.13162,-0.131618 0.35216,0.292267 0.35216,0.292266 -0.14615,0.236473 -0.14614,0.236473 0.41364,0.158731 0.41365,0.15873 v 0.236276 0.236276 h -0.21089 -0.21089 z m 22.02909,12.371541 0.3175,-0.3175 v 0.3175 0.3175 h 0.22048 0.22049 v -0.396875 -0.396875 h -0.85364 -0.85363 l -0.1523,0.396875 -0.15229,0.396875 h 0.46794 0.46795 z m -45.85496,-0.215982 -0.166189,-0.2689 -0.287181,0.177488 -0.287182,0.177488 0.191455,-0.309779 0.191454,-0.30978 0.246301,0.152223 0.246301,0.152222 v -0.39309 -0.393089 l 0.463021,-0.105026 0.463021,-0.105027 0.529166,0.416355 0.529167,0.416356 -0.504028,-0.595313 -0.504028,-0.595312 h -0.23429 -0.23429 l -0.783036,0.578923 -0.783036,0.578924 v 0.347118 0.347118 h 0.544781 0.544782 z m 75.40901,-0.194122 0.189,-0.463021 0.21758,0.529167 0.21759,0.529167 0.0146,-0.396875 0.0145,-0.396875 -0.25648,-0.396875 -0.25648,-0.396875 -0.008,0.264583 -0.008,0.264583 -0.28549,-0.396875 -0.28549,-0.396875 0.16182,0.496557 0.16181,0.496556 -0.30154,0.363339 -0.30155,0.36334 h 0.26867 0.26868 z m -71.434569,-0.428092 -0.487513,-0.356478 0.428383,-0.239735 0.428383,-0.239735 -0.959414,-0.922407 -0.959413,-0.922407 0.204514,0.348425 0.204514,0.348425 -0.489572,-0.08384 -0.489572,-0.08384 v 0.330729 0.330729 l 0.139367,-0.06615 0.139367,-0.06615 1.022217,1.131472 1.022217,1.131471 0.142017,-0.142018 0.142018,-0.142017 z M 135.847,48.783856 135.74029,47.92396 v 1.719792 1.719792 l 0.10671,-0.859896 0.10672,-0.859896 z m -52.843478,1.203365 v -0.431664 l 0.16379,0.16379 0.16379,0.16379 0.399223,-0.399223 0.399223,-0.399223 -0.55195,-0.51422 -0.551949,-0.514219 h -0.15897 -0.15897 l 0.163522,0.264583 0.163521,0.264584 h -0.11551 -0.115509 l -0.363126,-0.447664 -0.363126,-0.447664 0.330729,0.198695 0.330729,0.198696 v -0.11551 -0.11551 l -0.396875,-0.329377 -0.396875,-0.329377 v 1.893789 1.89379 l 0.529167,-0.283202 0.529166,-0.283201 z m -0.618187,-0.126142 -0.158231,-0.605076 0.191984,-0.191983 0.191983,-0.191983 0.278669,0.18742 0.278669,0.18742 -0.312422,0.609639 -0.312421,0.609639 z m 11.323099,-0.725777 0.399751,-0.773033 0.05538,-4.452487 0.05538,-4.452488 0.102448,0.924979 0.102447,0.92498 0.208106,0.265645 0.208105,0.265646 0.333047,1.805251 0.333046,1.805251 0.205205,-0.217751 0.205204,-0.217751 1.341013,-2.617379 1.341013,-2.617378 -0.140227,-0.226892 -0.140227,-0.226893 h 0.255057 0.255057 l 0.65191,-1.124479 0.651911,-1.124479 1.09302,-2.039719 1.09302,-2.03972 v -0.143093 -0.143093 h -4.47322 -4.473225 l -0.181701,2.447396 -0.181701,2.447396 -0.04715,5.120624 -0.04715,5.120625 0.371623,0.530565 0.371622,0.530565 -0.233609,0.169643 -0.233608,0.169644 -0.06615,0.330729 -0.06615,0.330729 h 0.125497 0.125497 z m 66.553426,0.09596 v -0.38126 h -0.25628 -0.25628 l 0.14436,-0.3762 0.14436,-0.376201 -0.33917,-0.615987 -0.33917,-0.615987 0.0728,-0.529167 0.0728,-0.529166 -0.48157,0.661458 -0.48157,0.661458 -0.0121,0.582872 -0.0121,0.582872 0.28512,-0.236634 0.28513,-0.236634 0.38138,0.844387 0.38137,0.844387 -0.0656,0.218104 -0.0656,0.218104 0.27114,-0.167573 0.27114,-0.167573 z m -75.940613,-2.828656 -1.603014,-1.521354 -0.584959,0.0041 -0.58496,0.0041 0.396875,0.25648 0.396875,0.256481 -0.346344,0.0041 -0.346344,0.0041 0.166189,0.268899 0.166189,0.268899 0.287181,-0.177488 0.287181,-0.177488 -0.170594,0.276027 -0.170594,0.276027 0.98961,0.756121 0.989609,0.756122 0.264584,-0.08727 0.264583,-0.08728 -0.196142,0.196142 -0.196142,0.196142 0.284851,0.343224 0.284851,0.343225 0.511764,-0.31888 0.511765,-0.318881 z m 80.668123,-0.654918 -0.0367,-1.911688 -0.22873,0.141366 -0.22874,0.141366 v -0.165301 -0.1653 l 0.29098,-0.543702 0.29098,-0.543702 -0.29147,0.180142 -0.29148,0.180142 -0.27149,-0.714074 -0.27149,-0.714074 0.13346,-0.133466 0.13347,-0.133467 0.16683,0.434745 0.16683,0.434744 h 0.17945 0.17946 l 0.0609,-1.455208 0.0609,-1.455209 h -0.32158 -0.32156 l 0.3175,-0.3175 0.3175,-0.3175 v -2.989791 -2.989792 h -3.43959 -3.43958 v 0.236276 0.236276 l 0.39687,0.152295 0.39688,0.152295 -0.0186,0.471325 -0.0186,0.471325 -0.22739,-0.529167 -0.22739,-0.529167 -0.0186,0.30909 -0.0186,0.30909 0.16001,0.416994 0.16002,0.416995 0.26515,-0.163872 0.26515,-0.163873 -0.17663,0.892996 -0.17664,0.892997 0.29669,-0.396875 0.29669,-0.396875 -0.1644,0.926042 -0.1644,0.926041 0.2582,-0.376184 0.2582,-0.376185 0.3019,1.169935 0.30191,1.169934 0.26604,0.847255 0.26605,0.847254 0.48492,0.153908 0.48492,0.153908 0.10555,0.904116 0.10555,0.904116 -0.34223,-0.284029 -0.34224,-0.28403 v 0.29698 0.29698 h 0.2929 0.29289 l -0.1523,0.396875 -0.15229,0.396875 h 0.11719 0.11719 l 0.39974,-0.773011 0.39974,-0.773011 -0.3268,-0.132142 -0.3268,-0.132143 0.44802,-0.02089 0.44802,-0.02089 0.40084,-0.572285 0.40085,-0.572285 -0.16368,-0.287611 -0.16368,-0.28761 0.2147,0.194324 0.21469,0.194325 0.35462,-0.458908 0.35462,-0.458908 -0.44575,1.240777 -0.44574,1.240778 -0.25432,-0.157179 -0.25432,-0.157179 0.18282,0.295814 0.18282,0.295813 -0.53882,0.538817 -0.53881,0.538817 0.46302,0.47247 0.46302,0.472471 0.35911,-0.34966 0.35911,-0.349659 -0.13986,-0.534807 -0.13985,-0.534807 0.36123,0.299796 0.36123,0.299796 -0.28559,0.626812 -0.2856,0.626811 -0.40603,0.155808 -0.40603,0.155808 -0.2052,-0.332028 -0.20521,-0.332028 -0.17366,0.173665 -0.17367,0.173665 0.39563,0.564837 0.39563,0.564837 0.13964,-0.349289 0.13963,-0.34929 0.0209,0.595313 0.0209,0.595312 h -0.24958 -0.24958 l -0.41187,-0.588038 -0.41188,-0.588038 v 0.270538 0.270538 l 0.25356,0.253566 0.25357,0.253566 -0.25357,0.394663 -0.25356,0.394664 -0.26053,-0.396875 -0.26054,-0.396875 v 0.264583 0.264583 l 0.22746,0.358977 0.22746,0.358977 0.18892,-0.305679 0.18892,-0.305678 0.41635,0.343576 0.41634,0.343577 0.11132,-0.330729 0.11131,-0.330729 h 0.63941 0.63941 v 0.251436 0.251436 l -0.46302,0.269685 -0.46302,0.269685 0.33073,0.008 0.33073,0.008 0.004,0.463021 0.004,0.463021 0.26139,-0.396875 0.2614,-0.396875 z m -30.39615,1.184085 0.004,-0.463021 h -0.21166 -0.21167 l -0.3175,0.3175 -0.3175,0.3175 v 0.359573 0.359573 l 0.26458,-0.163521 0.26459,-0.163521 0.004,0.346344 0.004,0.346344 0.25648,-0.396875 0.25648,-0.396875 z m -39.56541,-0.264583 0.35562,-0.859896 -0.478401,-2.116667 -0.478401,-2.116666 -0.02301,2.976562 -0.02301,2.976562 h 0.145792 0.145792 z m 36.66496,0.191315 0.33528,-0.403996 -0.81859,0.06237 -0.8186,0.06238 0.28352,0.341621 0.28352,0.341622 h 0.19979 0.19979 z M 87.128206,46.33646 87.294222,45.675002 h 0.245209 0.245209 l -0.289858,0.595313 -0.289859,0.595312 0.650211,-0.710721 0.650211,-0.71072 0.133011,0.133011 0.133011,0.133011 0.155243,-0.251187 0.155242,-0.251188 -2.264196,-0.188606 -2.264196,-0.188607 -0.119905,0.119905 -0.119904,0.119904 0.454058,0.368432 0.454058,0.368433 -0.202701,-0.396875 -0.202702,-0.396875 0.435171,0.529166 0.43517,0.529167 0.312055,-0.08819 0.312054,-0.08819 -0.196142,0.196142 -0.196142,0.196142 0.294685,0.355073 0.294684,0.355074 h 0.227146 0.227146 z m 71.916904,-0.79375 0.17449,-0.79375 -0.28244,0.396875 -0.28244,0.396875 0.1655,-0.959906 0.1655,-0.959907 -0.38024,-0.355197 -0.38024,-0.355198 0.12629,-0.482932 0.12629,-0.482933 -0.49705,-0.404397 -0.49704,-0.404396 0.33073,0.167527 0.33073,0.167528 v -0.428105 -0.428105 l -0.19844,0.122641 -0.19844,0.122641 -0.0349,-0.702338 -0.0349,-0.702339 -0.56947,-2.248958 -0.56947,-2.248959 -0.277,-1.124479 -0.277,-1.124479 h -2.7567 -2.7567 l -0.0209,0.330729 -0.0209,0.330729 -0.13346,-0.330729 -0.13345,-0.330729 h -0.24253 -0.24254 l -0.0307,0.463021 -0.0307,0.463021 -0.121,-0.463021 -0.121,-0.463021 h -6.72748 -6.72747 l -0.0304,0.859896 -0.0304,0.859896 0.0561,1.719791 0.0561,1.719792 0.121,0.124629 0.12101,0.124629 0.26442,-0.389212 0.26442,-0.389213 -0.0961,0.529167 -0.0961,0.529167 -0.31501,-0.06615 -0.31502,-0.06615 v 0.410022 0.410022 l 0.39645,-0.221864 0.39645,-0.221864 1.91865,0.18213 1.91866,0.18213 0.86905,-0.40478 0.86905,-0.40478 0.36658,-0.523358 0.36657,-0.523358 0.28573,0.17659 0.28573,0.17659 v -0.324288 -0.324295 l 0.13852,0.138519 0.13852,0.13852 -0.17534,0.456929 -0.17534,0.456928 -0.18359,-0.297052 -0.18359,-0.297053 -0.43458,1.134764 -0.43457,1.134764 0.35342,-0.463021 0.35342,-0.46302 h 2.16816 2.16817 l 1.18449,0.539599 1.18449,0.539599 0.29788,-0.184097 0.29788,-0.184098 -0.14474,0.553452 -0.14473,0.553453 0.3971,0.15238 0.39709,0.152379 -0.16208,-0.422386 -0.16209,-0.422387 -0.13176,-1.498843 -0.13177,-1.498843 0.28173,0.79375 0.28173,0.79375 2.3e-4,0.732366 2.2e-4,0.732366 0.23368,-0.144425 0.23369,-0.144424 -0.11166,-1.381692 -0.11165,-1.381691 0.26846,1.286842 0.26845,1.286842 0.3668,0.366804 0.36681,0.366804 0.61421,0.0041 0.61421,0.0041 0.39688,0.25648 0.39687,0.25648 -0.59531,0.0041 -0.59531,0.0041 v 0.292891 0.292891 l 0.46302,-0.161249 0.46302,-0.161248 -0.47532,0.369538 -0.47532,0.369539 -0.49856,-0.130377 -0.49856,-0.130377 0.13894,-0.43695 0.13894,-0.436949 -0.2744,0.388001 -0.27441,0.388001 0.26084,0.314295 0.26084,0.314294 -0.10511,0.620621 -0.1051,0.620621 0.10877,-0.308202 0.10878,-0.308201 0.36038,-0.138293 0.36039,-0.138292 0.57694,0.500379 0.57694,0.500379 1.18015,0.176973 1.18014,0.176974 -0.13985,0.364454 -0.13986,0.364454 h 0.57144 0.57143 l -0.4344,0.330729 -0.43439,0.330729 0.46938,0.566912 0.46939,0.566913 0.50975,0.115002 0.50975,0.115001 0.16428,-0.152747 0.16428,-0.152748 z m -79.755929,-3.505729 0.03056,-4.43177 0.07034,-0.455363 0.07034,-0.455363 0.181102,-0.181102 0.181102,-0.181101 -0.065,3.458379 -0.065,3.45838 0.196184,-0.308373 0.196185,-0.308374 0.0041,-4.960938 0.0041,-4.960937 h -2.752231 -2.752231 l 0.392243,1.256771 0.392242,1.256771 0.526613,1.719791 0.526612,1.719792 0.300537,0.992187 0.300536,0.992188 h 0.225538 0.225537 l -0.148765,0.240707 -0.148765,0.240706 0.160875,0.419232 0.160874,0.419232 0.233828,-0.144514 0.233829,-0.144514 -0.152145,0.396483 -0.152144,0.396482 0.427149,1.469343 0.42715,1.469343 h 0.275022 0.275022 l -0.167951,0.529166 -0.167951,0.529167 h 0.262046 0.262046 z m 51.736219,3.366469 -1.05834,-0.227119 -0.61092,-0.01525 -0.61093,-0.01525 0.13522,0.218793 0.13522,0.218793 1.53404,0.02357 1.53404,0.02357 z m -41.671883,-1.514385 -5e-6,-0.198438 -1.242967,-0.04797 -1.242968,-0.04797 0.383077,0.242354 0.383077,0.242353 0.859895,0.0041 0.859896,0.0041 z m -2.667877,-0.163992 -0.110243,-0.09785 -1.9454,-0.185436 -1.9454,-0.185436 0.175078,0.283282 0.175077,0.283282 h 1.880566 1.880565 z m 45.23511,-1.5558 -0.0307,-1.653646 -0.0887,0.396875 -0.0887,0.396875 -0.081,1.256771 -0.081,1.256771 h 0.20034 0.20035 z m -2.41693,0.944717 -0.4628,-0.462797 -0.39726,0.397263 -0.39726,0.397263 0.86006,0.06553 0.86006,0.06553 z m 31.63722,-0.41555 -0.1296,-0.595313 -0.22316,-0.529166 -0.22315,-0.529167 -0.15204,-0.396875 -0.15203,-0.396875 0.15617,1.053462 0.15618,1.053463 0.25041,0.467891 0.2504,0.467892 h 0.0982 0.0982 z m -75.888559,-0.213617 -1.058334,-0.218908 -0.926041,0.0223 -0.926042,0.0223 1.058333,0.189492 1.058334,0.189492 0.926041,0.0071 0.926042,0.0071 z m 43.700349,-1.42839 v -0.385237 l -0.23023,0.142291 -0.23024,0.142291 0.0627,-0.930584 0.0627,-0.930585 0.19163,0.118436 0.19163,0.118436 0.11435,-0.333969 0.11434,-0.333968 -0.0695,0.463021 -0.0695,0.463021 h 0.2685 0.2685 l -0.16602,0.661458 -0.16602,0.661458 h 0.0963 0.0963 l 0.50403,-0.574647 0.50403,-0.574647 -0.303,0.176253 -0.30301,0.176252 -0.14735,-0.383992 -0.14735,-0.383991 0.67413,0.256305 0.67414,0.256305 -0.75209,-0.796836 -0.75208,-0.796835 h -0.59618 -0.59617 v 1.27 1.27 l 0.3175,0.3175 0.3175,0.3175 h 0.0353 0.0353 z m -42.792904,-0.210077 -0.0186,-0.330729 -0.186888,-0.473239 -0.186888,-0.473239 -0.900503,0.803968 -0.900503,0.803969 h 1.105987 1.105987 z m 3.150241,-0.776677 0.04339,-1.107407 -0.566961,-0.603503 -0.566961,-0.603502 -0.759085,0.540516 -0.759085,0.540516 0.168476,0.272599 0.168475,0.2726 0.227459,-0.358977 0.227459,-0.358977 0.0041,0.442668 0.0041,0.442668 0.814103,0.814103 0.814102,0.814103 h 0.06856 0.06856 z m -5.8915,0.185368 0.861968,-0.657455 0.422209,-0.422209 0.422209,-0.422209 -0.153006,-0.247568 -0.153006,-0.247569 -0.250617,0.15489 -0.250617,0.15489 0.177488,0.287181 0.177488,0.287182 -0.308392,-0.190597 -0.308391,-0.190596 -0.811175,0.811174 -0.811174,0.811175 H 82.18942 81.945189 v 0.264583 0.264583 h 0.305755 0.305755 z m 8.244614,-3.239248 -0.104137,-0.998088 -0.0021,1.852083 -0.0021,1.852083 0.106272,-0.853994 0.106272,-0.853995 z m -8.549588,1.162252 0.6666,-0.617784 -0.917552,-0.889327 -0.917552,-0.889326 v 1.507111 1.507111 h 0.250952 0.250951 z m 3.65609,-0.818125 0.194386,-0.283882 0.0041,-0.204537 0.0041,-0.204537 -0.661458,0.433404 -0.661458,0.433404 v 0.22585 0.22585 l 0.463021,-0.170835 0.46302,-0.170834 z m 44.883327,-0.08544 -0.36313,-0.46302 -0.39687,-0.322315 -0.39688,-0.322314 -0.8599,-0.0084 -0.85989,-0.0084 v 0.264584 0.264583 h 0.2802 0.2802 l -0.15873,0.256827 -0.15873,0.256826 0.67652,0.169797 0.67653,0.169797 0.52466,-0.137201 0.52466,-0.137201 0.14817,0.239744 0.14817,0.239744 h 0.14907 0.14907 z M 85.384772,35.619847 v -0.72995 l -0.908388,-0.692862 -0.908388,-0.692861 h -0.811403 -0.811404 l 0.0087,0.463021 0.0087,0.463021 1.216551,1.190625 1.216551,1.190625 -0.182493,-0.33073 -0.182492,-0.330729 h 0.280198 0.280198 v 0.429272 0.429272 l 0.396875,-0.329377 0.396875,-0.329377 z m 3.539433,0.199431 0.326635,-0.330729 0.180602,-0.476763 0.180602,-0.476762 -0.316236,0.195445 -0.316237,0.195445 -0.474483,0.406264 -0.474482,0.406265 v 0.205782 0.205782 h 0.283482 0.283482 z m 43.027235,-1.918229 v -1.190625 h -0.54072 -0.54071 l -0.71606,0.675006 -0.71605,0.675006 0.62462,0.515619 0.62463,0.515619 h 0.63214 0.63215 z m -44.119272,0.55773 0.463021,-0.351483 v -0.169269 -0.16927 h -0.661458 -0.661459 v 0.529167 0.529167 l 0.198438,-0.0084 0.198437,-0.0084 z"
       id="path3" /></g></svg>
