<?xml version="1.0" encoding="UTF-8" standalone="no"?>
<!-- Created with Inkscape (http://www.inkscape.org/) -->

<svg
   width="101.59999mm"
   height="84.666656mm"
   viewBox="0 0 101.59999 84.666656"
   version="1.1"
   id="svg1"
   xml:space="preserve"
   xmlns="http://www.w3.org/2000/svg"
   xmlns:svg="http://www.w3.org/2000/svg"><defs
     id="defs1" /><g
     id="layer1"
     transform="translate(-42.183717,-43.535533)"><path
       style="fill:#ffffff;fill-opacity:1"
       d="M 42.183718,85.868864 V 43.535532 h 50.8 50.800002 v 42.333332 42.333326 h -50.800002 -50.8 z m 16.34161,41.305866 0.45944,-0.23371 0.66145,-0.29 0.66146,-0.28999 0.79375,-0.30158 0.79375,-0.30158 -0.35388,-0.13052 -0.35388,-0.13052 -0.29435,0.29435 -0.29435,0.29435 h -0.31002 -0.31003 l -1.42299,0.64621 -1.423,0.64622 0.46661,0.0152 0.46661,0.0152 z m 18.58339,-0.94374 v -0.0581 l -0.54459,-1.69734 -0.54459,-1.69734 -0.51469,-0.44006 -0.51469,-0.44005 0.0429,-0.48599 0.0429,-0.48598 -0.0419,-0.61315 -0.0419,-0.61314 -0.59532,0.16276 -0.59531,0.16275 0.44386,-0.27964 0.44385,-0.27964 -0.22459,-0.72518 -0.22459,-0.72518 -0.54045,-1.45521 -0.54045,-1.45521 -0.01,0.59531 -0.01,0.59532 h -0.2394 -0.23941 l 0.14195,-1.05834 0.14195,-1.05833 h -0.4641 -0.46411 l 0.29802,-0.35909 0.29802,-0.35909 -0.55913,-1.42685 -0.55912,-1.42684 -0.4529,-1.05834 -0.4529,-1.05833 -0.90725,-1.83171 -0.90724,-1.83171 -0.26458,0.11192 -0.26459,0.11192 0.0207,0.66145 0.0207,0.66146 0.30303,1.85209 0.30304,1.85208 0.43193,2.64583 0.43193,2.64584 0.30263,1.85208 0.30263,1.85208 0.23854,0.37035 0.23854,0.37035 0.0801,0.95257 0.0801,0.95257 0.31751,2.17082 0.3175,2.17083 1.48054,0.079 1.48053,0.079 1.25677,0.0348 1.25677,0.0348 z m -5.29166,-5.96852 v -0.26236 h 0.97014 0.97013 l -0.17534,0.17535 -0.17535,0.17535 -0.79479,0.087 -0.79479,0.087 z m 8.20208,5.57409 v -0.51355 l -0.28219,-0.1744 -0.28218,-0.1744 -0.1042,0.10419 -0.10419,0.10419 0.15265,0.58376 0.15266,0.58376 h 0.23373 0.23372 z m 38.244742,-0.93248 0.17717,-1.18145 -0.1771,-1.13365 -0.1771,-1.13366 -0.22523,-9.65729 -0.22522,-9.65729 -0.26251,-2.466207 -0.26251,-2.466206 -0.11975,-0.119746 -0.11974,-0.119746 -1.4269,0.733869 -1.42689,0.733868 -0.1323,0.146078 -0.13229,0.146077 -0.92604,0.428832 -0.92604,0.428832 -0.79375,0.189178 -0.79375,0.189177 -0.26458,0.202234 -0.26459,0.20223 -2.38125,0.8016 -2.38125,0.8016 -0.0812,0.78946 -0.0812,0.78946 0.47812,0.12391 0.47812,0.12391 -0.52916,0.0324 -0.52917,0.0324 -0.51256,0.85822 -0.51255,0.85822 -0.29291,0.52917 -0.2929,0.52917 -0.31446,1.4552 -0.31445,1.45521 -0.11288,1.05834 -0.11288,1.05833 -0.40678,1.45521 -0.40678,1.45521 -0.26502,1.05833 -0.26503,1.05833 -0.16298,1.01923 -0.16298,1.01922 -0.0897,-0.0932 -0.0897,-0.0932 0.24246,-1.85208 0.24246,-1.85209 0.0139,-0.66146 0.0139,-0.66145 0.24634,0.52916 0.24635,0.52917 -0.15372,-1.11899 -0.15372,-1.119 0.31337,-0.94952 0.31337,-0.94952 -0.002,-0.9742 -10e-4,-0.97419 0.20695,-0.26458 0.20695,-0.26458 0.15487,-1.5875 0.15488,-1.5875 -0.30747,0.92604 -0.30746,0.92604 -0.10001,-0.75957 -0.1,-0.75958 0.18327,-0.69563 0.18326,-0.69564 0.21567,0.52917 0.21567,0.52917 0.0186,-0.97904 0.0186,-0.97904 0.46302,-0.26969 0.46303,-0.26968 -0.1768,-0.008 -0.1768,-0.008 -0.41852,0.1606 -0.41851,0.1606 -0.0209,0.43471 -0.0209,0.43471 -0.13345,-0.33073 -0.13345,-0.33073 h -0.47669 -0.47669 l -0.4273,0.65215 -0.42731,0.65215 v 0.68638 0.68639 l 0.22471,-0.13888 0.22471,-0.13888 0.36177,0.67599 0.36177,0.67598 -0.45418,0.25417 -0.45419,0.25418 v 0.64831 0.64831 h 0.21876 0.21876 l -0.12302,0.8599 -0.12302,0.8599 -0.1837,0.13229 -0.1837,0.13229 -0.390502,2.41325 -0.3905,2.41325 0.17038,0.48572 0.17038,0.48572 0.17287,-1.04689 0.172882,-1.04689 0.003,-0.85989 0.003,-0.8599 h 0.27659 0.27659 l -0.15356,1.12448 -0.15355,1.12448 -0.15988,2.17566 -0.15988,2.17565 -0.227742,-0.14075 -0.22773,-0.14075 -0.0307,-1.10886 -0.0307,-1.10887 -0.1119,0.52917 -0.1119,0.52917 -0.12703,0.59531 -0.12703,0.59531 h -0.33868 -0.33869 l -0.34666,0.95869 -0.34667,0.9587 0.24667,0.16578 0.24667,0.16579 0.17083,0.46302 0.17084,0.46302 h 0.3721 0.37211 l 0.15875,-0.79375 0.15875,-0.79375 h 0.27119 0.271202 v 0.26459 0.26458 h -0.198432 -0.19844 v 1.1224 1.12239 l 0.991882,0.46705 0.99189,0.46704 2.45753,0.25483 2.45754,0.25484 0.9162,0.47083 0.91621,0.47083 1.4552,0.2968 1.45521,0.29681 3.35723,0.0339 3.35722,0.0339 z m 22.32624,-1.00137 0.0186,-1.25676 h -0.24031 -0.24031 l 0.0299,1.74408 0.0299,1.74409 0.19182,-0.48732 0.19183,-0.48731 z m -70.903482,0.17275 -0.33983,-0.63497 0.15519,-0.15518 0.15518,-0.15518 -0.27451,-0.78747 -0.27451,-0.78746 -0.37909,0.14547 -0.37908,0.14547 0.16035,-0.25946 0.16036,-0.25946 -0.23481,-0.41957 -0.23481,-0.41958 v 0.79503 0.79503 l 0.55122,0.15161 0.55122,0.15161 -0.34608,0.22354 -0.34607,0.22354 0.17632,0.70251 0.17632,0.7025 h 0.20504 0.20504 l 0.18096,0.59532 0.18095,0.59531 0.14523,-0.35682 0.14523,-0.35682 z m 14.14548,-0.4437 0.66827,-0.98476 -0.21292,-0.57559 -0.21293,-0.57559 -0.57249,-0.0422 -0.57249,-0.0422 v 1.71967 1.71967 l 0.11714,-0.11714 0.11714,-0.11714 z m -3.72519,0.59109 0.30908,-0.0106 -0.75099,-0.40699 -0.751,-0.40698 -0.11512,0.11512 -0.11513,0.11513 0.17266,0.44995 0.17266,0.44995 0.38437,-0.1475 0.38438,-0.1475 z m 1.38394,-1.42667 -0.17952,-1.19713 -1.05876,-1.13019 -1.05877,-1.1302 -0.39384,-0.82324 -0.39384,-0.82324 -0.66116,-0.30124 -0.66116,-0.30124 h -0.28158 -0.28157 l 0.18541,0.99218 0.18541,0.99219 0.19325,0.26459 0.19325,0.26458 0.35825,1.19062 0.35824,1.19063 0.25752,0.26458 0.25752,0.26459 -0.17099,-0.48405 -0.171,-0.48405 0.16382,-0.65269 0.16381,-0.6527 0.50127,0.45364 0.50127,0.45364 0.59145,0.0435 0.59145,0.0435 0.0728,0.50735 0.0728,0.50734 0.30068,0.9935 0.30067,0.9935 0.12139,-0.12138 0.12138,-0.12138 z M 142.98997,107.03553 V 93.277197 l -0.19844,0.0041 -0.19844,0.0041 -0.39687,0.256481 -0.39688,0.25648 0.39688,0.0081 0.39687,0.0081 -0.38564,0.243943 -0.38565,0.243943 -0.0373,5.995476 -0.0373,5.99548 -0.23851,0.17268 -0.23851,0.17267 0.003,0.52916 0.003,0.52917 -0.39963,0.4716 -0.39963,0.4716 0.0835,0.14375 0.0835,0.14375 -0.50501,0.44298 -0.50501,0.44299 -0.30612,0.57792 -0.30612,0.57791 v 0.55015 0.55016 l 0.24047,0.45943 0.24047,0.45943 0.33444,2.24895 0.33443,2.24896 -0.0123,1.50822 -0.0123,1.50823 1.22337,0.0977 1.22337,0.0977 0.19844,0.0477 0.19844,0.0477 z m -74.020122,11.67159 -0.24768,-0.16221 -0.18906,-1.45521 -0.18906,-1.45521 -0.22523,-1.32292 -0.22522,-1.32291 -0.26836,-1.5875 -0.26836,-1.5875 -0.27077,-1.7198 -0.27077,-1.71979 -0.29261,-1.71979 -0.29261,-1.71979 -0.1831,-0.16167 -0.18309,-0.16167 -0.85989,0.23538 -0.8599,0.23538 v 0.38931 0.38931 h 0.2083 0.20831 l 0.0559,0.8599 0.0559,0.85989 0.29074,1.32292 0.29073,1.32292 0.30341,0.7276 0.30342,0.7276 h 0.27985 0.27985 l 0.0269,0.94792 0.0269,0.94792 0.55474,0.59049 0.55473,0.59049 v 0.6885 0.6885 l -0.29923,0.0998 -0.29924,0.0997 0.049,1.31137 0.049,1.31137 0.0518,1.02903 0.0518,1.02904 0.39687,0.18601 0.39688,0.18601 0.52917,0.27253 0.52916,0.27253 0.0893,-0.53161 0.0893,-0.53162 z m -25.56273,0.0923 -0.15614,-0.40689 0.37175,-0.14266 0.37175,-0.14265 0.35139,-0.0532 0.3514,-0.0532 0.34339,-0.21445 0.3434,-0.21444 0.37574,0.14418 0.37573,0.14419 0.17384,-0.28128 0.17383,-0.28128 0.19702,0.31879 0.19703,0.31879 0.56015,-0.60126 0.56016,-0.60126 0.99569,-0.34676 0.99568,-0.34675 0.35689,-0.004 0.35689,-0.004 0.83374,-0.3626 0.83373,-0.36259 1.19063,-0.34652 1.19062,-0.34652 0.26459,-0.16174 0.26458,-0.16174 1.05833,-0.33868 1.05834,-0.33869 1.38906,-0.54098 1.38906,-0.54098 v -0.37445 -0.37445 l -0.40024,-0.15359 -0.40025,-0.15359 -0.3935,0.32658 -0.39351,0.32658 -0.004,-0.23083 -0.004,-0.23083 -0.26053,0.39687 -0.26054,0.39688 -0.22776,-0.35292 -0.22776,-0.35291 -0.16731,0.436 -0.16731,0.43599 -0.46482,-0.0474 -0.46483,-0.0474 -0.34634,0.0305 -0.34635,0.0305 0.13082,0.21167 0.13082,0.21166 -0.64437,0.0529 -0.64437,0.0529 -0.66146,0.0529 -0.66146,0.0529 v 0.2295 0.2295 l -0.5623,-0.17847 -0.5623,-0.17847 0.20883,0.3379 0.20883,0.33789 -0.38522,-0.14782 -0.38521,-0.14783 -0.49092,0.35897 -0.49091,0.35897 -0.22561,-0.13943 -0.2256,-0.13944 v 0.2802 0.2802 h -0.79375 -0.79375 l -0.0209,0.33073 -0.0209,0.33073 -0.13713,-0.34177 -0.13714,-0.34177 -0.33175,0.27532 -0.33175,0.27533 -0.70085,0.058 -0.70085,0.058 v 0.18362 0.18362 l -1.12448,0.20477 -1.12448,0.20476 -0.35728,-0.0669 -0.35728,-0.0669 0.17446,0.28228 0.17445,0.28228 h -0.41249 -0.41249 v 0.9044 0.9044 l 0.1606,0.41852 0.1606,0.41851 h 0.13229 0.1323 z m 37.24041,-1.39168 0.13044,-0.21107 -0.2191,-0.35451 -0.2191,-0.35452 -0.60708,0.56559 -0.60708,0.56558 h 0.69573 0.69574 z m 4.66328,-0.35117 v -0.49609 h -0.24897 -0.24897 l -0.17467,0.28262 -0.17467,0.28262 -0.37011,-0.14203 -0.37011,-0.14202 v 0.21218 0.21218 l 0.14331,0.14332 0.14332,0.14331 h 0.65043 0.65044 z m 3.50386,-0.32408 0.28366,0.17532 -0.15189,-0.58081 -0.15188,-0.58081 0.53626,-0.4996 0.53625,-0.4996 -1.13999,0.3366 -1.14,0.3366 -0.1,0.37171 -0.0999,0.3717 0.24193,-0.34325 0.24194,-0.34326 0.31194,0.37587 0.31194,0.37586 -0.0935,0.36427 -0.0935,0.36426 0.11153,-0.20009 0.11152,-0.20008 z m -32.01272,-1.13564 0.46302,-0.13037 v -0.51133 -0.51134 h -0.24253 -0.24254 l -0.10216,0.3065 -0.10217,0.3065 -0.64629,0.0986 -0.64629,0.0986 -0.39807,0.41519 -0.39807,0.4152 0.92604,-0.17862 0.92604,-0.17862 z m 20.16271,-1.13399 0.15175,-0.24554 -0.53145,-0.16867 -0.53144,-0.16867 -0.41104,-0.41104 -0.41104,-0.41104 -0.16267,0.16267 -0.16267,0.16267 0.30189,0.66258 0.30189,0.66257 h 0.65151 0.65152 z m 2.85604,-1.67403 0.46302,-0.0459 v -0.20789 -0.20789 h -0.42927 -0.42927 l 0.29468,-0.35507 0.29469,-0.35507 -0.17409,-0.1741 -0.1741,-0.17409 h -0.36839 -0.36839 l 0.18878,0.30546 0.18879,0.30547 -0.3,-0.18541 -0.29999,-0.18541 -0.60078,0.30921 -0.60078,0.3092 0.31005,-0.32921 0.31005,-0.32921 -0.12965,-0.33787 -0.12965,-0.33787 0.32758,-0.20246 0.32759,-0.20246 -0.19156,0.50643 -0.19155,0.50642 0.39953,-0.39687 0.39953,-0.39688 0.0488,-0.92604 0.0489,-0.92604 -0.20776,-1.03919 -0.20775,-1.03918 0.82804,0.90689 0.82804,0.9069 0.24177,-0.36916 0.24178,-0.36916 1.10211,0.14782 1.10211,0.14783 0.23082,-0.57242 0.23081,-0.57241 0.0168,0.33577 0.0168,0.33577 0.72761,-0.15227 0.7276,-0.15226 1.1313,-0.28595 1.13129,-0.28594 0.15033,-0.24324 0.15032,-0.24323 0.26253,-1.50641 0.26253,-1.50641 0.0528,-1.66284 0.0528,-1.662844 -0.58009,-0.145594 -0.5801,-0.145594 -0.55381,0.29639 -0.55381,0.296392 -0.0313,0.586 -0.0313,0.58601 0.0313,0.19843 0.0313,0.19844 h -0.19999 -0.2 l -0.34861,0.78756 -0.34861,0.78757 0.14882,0.24079 0.14882,0.24079 -0.37795,0.31367 -0.37795,0.31367 0.0737,-0.69086 0.0737,-0.69086 0.30721,-0.30721 0.3072,-0.3072 v -0.1869 -0.1869 l -0.52916,0.13838 -0.52917,0.13838 v 0.23373 0.23372 h -0.21922 -0.21922 l -1.26798,-0.83987 -1.26798,-0.83987 -0.97182,0.25939 -0.97182,0.2594 -0.26381,-0.26381 -0.26381,-0.26382 0.79439,-0.75916 0.7944,-0.759173 -0.25438,-0.182479 -0.25438,-0.18248 v -0.529166 -0.529167 l -0.33072,0.06615 -0.33073,0.06615 v -0.135882 -0.135882 l 0.33073,-0.560145 0.33072,-0.560145 -0.33237,-0.120322 -0.33238,-0.120321 0.13826,-0.223703 0.13825,-0.223703 -0.23886,-0.147625 -0.23886,-0.147625 -0.91883,0.856947 -0.91883,0.856947 -0.16446,1.256589 -0.16445,1.256585 -0.16068,0.64019 -0.16067,0.64018 0.61861,0.13991 0.61861,0.1399 -2.6128,-0.11353 -2.61281,-0.11354 -0.35638,-0.29577 -0.35638,-0.29577 -0.42315,0.42315 -0.42315,0.42315 h -0.36237 -0.36236 l -0.16619,-0.2689 -0.16618,-0.2689 -0.2467,0.15246 -0.24669,0.15247 0.46341,0.63443 0.46342,0.63442 0.46302,-0.13894 0.46302,-0.13895 -0.004,0.48085 -0.004,0.48085 -0.25648,-0.39688 -0.25648,-0.39687 -0.004,0.21158 -0.004,0.21157 0.40367,0.78061 0.40367,0.78061 h 0.11719 0.1172 l -0.13871,-0.36145 -0.1387,-0.36146 0.60648,0.0307 0.60649,0.0307 0.0891,0.46302 0.0891,0.46303 h -0.55536 -0.55537 l 0.38796,0.75023 0.38796,0.75023 0.76748,-0.11264 0.76747,-0.11264 0.28128,0.75147 0.28127,0.75147 0.33648,1.32292 0.33649,1.32291 0.61184,0.98216 0.61184,0.98216 0.73062,0.40747 0.73061,0.40746 0.79375,-0.14364 0.79375,-0.14363 z m -2.59152,-2.4092 -0.27641,-0.30145 -0.18697,-0.30605 -0.18697,-0.30605 0.49967,0.13066 0.49967,0.13067 0.17777,-0.28763 0.17776,-0.28764 h 0.24897 0.24897 v 0.26459 0.26458 h -0.41249 -0.41249 l 0.13045,0.21107 0.13045,0.21107 -0.18098,0.28882 -0.18098,0.28881 z m -13.2333,-1.23679 -0.38735,-1.97507 -0.31403,-1.51278 -0.31404,-1.51278 -0.14128,0.14128 -0.14127,0.14127 -0.30153,1.02123 -0.30153,1.02122 0.39264,1.40861 0.39263,1.40861 0.12863,0.69868 0.12863,0.69868 0.56952,0.26063 0.56953,0.26062 0.0534,-0.0426 0.0534,-0.0426 z m 26.74592,-5.70818 0.64988,-0.42582 -0.17342,-0.2806 -0.17343,-0.28061 0.42674,0.16376 0.42673,0.16375 0.16347,-0.51505 0.16347,-0.51505 0.61874,-0.15529 0.61873,-0.1553 0.60996,-0.64927 0.60996,-0.64928 -0.59569,-0.155774 -0.59569,-0.155776 0.0935,-0.280505 0.0935,-0.280505 0.35103,-0.117007 0.35102,-0.117007 -0.21,0.339788 -0.21,0.339789 0.3019,-0.18659 0.30191,-0.18659 0.96697,0.266991 0.96696,0.266992 1.2194,-0.281888 1.21941,-0.281889 2.248952,-0.678567 2.24896,-0.678567 1.71979,-0.806233 1.7198,-0.806232 0.0882,-0.206677 0.0882,-0.206677 h 0.50711 0.50712 v -0.264584 -0.264583 h 0.25283 0.25284 l 1.00394,-0.657732 1.00393,-0.657731 0.26459,-0.213112 0.26458,-0.213111 1.32292,-0.902514 1.32291,-0.902514 0.34963,-0.34331 0.34963,-0.343309 h 0.24568 0.24569 v -0.299202 -0.299202 l -0.99219,0.178675 -0.99219,0.178675 -1.69483,0.257575 -1.69484,0.257576 -0.51969,-0.164944 -0.51969,-0.164944 0.15129,-2.154917 0.1513,-2.154917 0.41711,-2.38125 0.41711,-2.38125 0.23589,-1.5875 0.23589,-1.5875 0.2918,-1.984375 0.29179,-1.984375 0.78165,-1.190625 0.78164,-1.190625 0.84684,-1.719791 0.84684,-1.719792 1.71661,-2.513541 1.71661,-2.513542 0.41917,-0.322315 0.41918,-0.322314 0.66146,-0.01247 0.66146,-0.01247 -0.39688,-0.256481 -0.39687,-0.25648 0.38213,-0.0041 0.38213,-0.0041 -0.8844,-0.652494 -0.88441,-0.652494 -0.29148,-0.105033 -0.29147,-0.105034 0.18583,-0.200012 0.18584,-0.200012 0.42931,0.429309 0.42931,0.429308 1.11776,0.769037 1.11775,0.769038 0.51606,0.08992 0.51605,0.08992 0.0806,-1.25677 0.0806,-1.256771 h -0.27908 -0.27908 v -0.41249 -0.41249 l 0.33073,0.198695 0.33073,0.198696 -0.36313,-0.447664 -0.36312,-0.447664 0.36312,-0.0041 0.36313,-0.0041 -0.35333,-0.223967 -0.35332,-0.223968 0.0427,-0.235002 0.0427,-0.235002 -0.16771,-1.118312 -0.1677,-1.118312 -0.24929,-0.154073 -0.2493,-0.154074 v -1.042718 -1.042719 h -0.26146 -0.26147 l 0.0388,0.463021 0.0388,0.463021 -0.0419,0.709774 -0.0419,0.709775 -0.46734,0.148327 -0.46733,0.148327 -0.76134,1.994068 -0.76133,1.994067 -0.23813,0.147171 -0.23812,0.147172 -0.31914,-0.250879 -0.31914,-0.250878 -0.74587,-0.178399 -0.74586,-0.178399 0.0844,0.525949 0.0844,0.525948 -1.19063,1.262081 -1.19062,1.262081 0.54652,-0.452346 0.54653,-0.452346 0.84254,-0.168507 0.84253,-0.168507 v 0.288347 0.288347 l -0.5283,0.282739 -0.5283,0.282739 -0.53004,1.038946 -0.53003,1.038947 v 0.280381 0.280382 l -0.66145,1.047818 -0.66146,1.047817 v 0.51881 0.518809 l -0.23125,0.142919 -0.23125,0.142918 -0.71456,1.509191 -0.71457,1.50919 -0.35645,1.075485 -0.35644,1.075485 -0.45323,1.840206 -0.45322,1.840207 -0.45122,0.805627 -0.45122,0.805627 -1.46008,-0.0027 -1.46007,-0.0027 -0.38764,-0.321708 -0.38763,-0.321708 0.2191,-1.395362 0.2191,-1.395362 0.22251,-1.719792 0.22252,-1.719792 -0.30252,-1.058333 -0.30252,-1.058333 0.71988,-1.190625 0.71989,-1.190625 0.17598,-1.124479 0.17598,-1.124479 h -0.41082 -0.41082 l -0.25014,0.467383 -0.25013,0.467384 -0.42656,1.980012 -0.42656,1.980012 -0.41279,2.513542 -0.41279,2.513541 -0.22941,0.529167 -0.22942,0.529167 -0.46045,1.322916 -0.46045,1.322917 -0.0452,3.206739 -0.0452,3.20674 -0.17112,0.276878 -0.17112,0.276878 0.28475,1.327752 0.28475,1.327752 0.37866,0.314256 0.37865,0.314256 v 1.084336 1.084335 l -0.32474,1.396809 -0.32475,1.39681 -0.40286,0.0041 -0.40286,0.0041 0.39688,0.25648 0.39688,0.256481 -0.31512,0.0041 -0.31511,0.0041 -0.17467,-0.282621 -0.17467,-0.282621 -0.33787,0.129653 -0.33788,0.129654 -0.230668,-0.225086 -0.23068,-0.225085 -2.24896,-0.285663 -2.24896,-0.285662 -1.71979,-0.272889 -1.71979,-0.272889 -1.53994,-0.270992 -1.53994,-0.270992 -0.37829,0.313952 -0.37829,0.313951 -0.0493,2.150416 -0.0493,2.150415 -0.16599,-2.248958 -0.166,-2.248958 -0.0493,2.315104 -0.0493,2.315104 0.46302,0.008 0.46302,0.008 -0.48531,0.28216 -0.48531,0.282159 0.55192,0.386581 0.55192,0.386582 0.28216,-0.174383 0.28216,-0.174382 -0.14203,-0.370113 -0.14202,-0.370112 h 0.49881 0.49882 l 0.12021,-0.330729 0.12021,-0.330729 -0.13819,1.322917 -0.13818,1.32292 -0.48915,0.42791 -0.48914,0.42791 v 0.19608 0.19609 l 0.69542,-0.17454 0.69541,-0.17454 0.79502,0.17462 0.79502,0.17461 -0.33352,0.20613 -0.33352,0.20612 -1.06856,-0.14332 -1.06856,-0.14333 0.17623,0.45925 0.17623,0.45924 v 0.37524 0.37523 h 0.40618 0.40618 z m -46.86144,-2.11545 0.41699,-0.16002 -0.13114,-0.21218 -0.13113,-0.21218 0.53989,0.14118 0.5399,0.14119 1.83911,-0.58044 1.83911,-0.580429 0.33993,-0.485319 0.33993,-0.485319 0.48904,0.357589 0.48903,0.357589 0.82729,-0.143684 0.82729,-0.143684 0.79375,-0.216293 0.79375,-0.216292 0.7276,-0.161096 0.72761,-0.161095 v -0.511676 -0.511677 l 0.32472,-0.740053 0.32472,-0.740054 0.66747,-0.599683 0.66746,-0.599683 1.01643,-0.276938 1.01643,-0.276939 1.31962,0.283008 1.31962,0.283007 1.1512,0.792052 1.15121,0.792051 h 0.4029 0.4029 l 0.74005,-0.318156 0.74006,-0.318157 0.0976,-0.06612 0.0976,-0.06612 -0.36748,-0.367477 -0.36748,-0.367477 -2.24371,-0.326247 -2.2437,-0.326247 -1.5875,-0.229666 -1.5875,-0.229666 -1.7198,-0.289184 -1.71979,-0.289184 -1.5875,-0.256932 -1.5875,-0.256932 -1.12448,-0.166556 -1.12448,-0.166557 v -0.22862 -0.22862 h -0.79375 -0.79375 v 0.264583 0.264583 l -0.7276,0.0015 -0.7276,0.0015 -0.92605,0.237429 -0.92604,0.23743 -0.7276,0.163011 -0.72761,0.16301 v 4.096001 4.095999 h 0.24295 0.24294 z m 27.75533,-4.23808 -0.14501,-0.37791 -0.33245,0.275901 -0.33244,0.275901 -0.49655,-0.186395 -0.49656,-0.186394 0.39688,0.512559 0.39687,0.512559 0.26459,0.193501 0.26458,0.193501 0.31255,-0.417656 0.31256,-0.417656 z m 3.76556,0.978448 -0.1512,-0.244647 0.80207,-0.878156 0.80208,-0.878156 -0.29894,-0.09964 -0.29893,-0.09964 -0.61647,0.664843 -0.61648,0.664844 0.16073,0.160728 0.16072,0.160729 h -0.34107 -0.34108 l 0.32938,0.396875 0.32937,0.396875 h 0.11551 0.11551 z m -16.91497,-0.401356 0.14636,-0.381419 -0.0885,-0.459583 -0.0885,-0.459583 -0.46302,0.463027 -0.46302,0.463026 v 0.377976 0.377976 h 0.40518 0.40517 z m 2.35057,-0.41233 0.16352,-0.264583 h -0.25856 -0.25856 l -0.41851,-0.160599 -0.41852,-0.160599 v 0.425182 0.425183 h 0.51356 0.51355 z m 15.06161,-1.940132 -0.16927,-0.441118 h -0.25517 -0.25518 l -0.37797,0.377977 -0.37798,0.377976 v 0.132788 0.132789 l 0.59531,0.09806 0.59531,0.09806 0.20712,-0.167702 0.20711,-0.167702 z m -3.71067,-0.623328 0.17596,-0.554405 0.58655,-0.188904 0.58655,-0.188904 -0.52917,-0.132799 -0.52917,-0.132799 -0.45118,-0.476848 -0.45119,-0.476848 0.38504,-0.147754 0.38504,-0.147754 v 0.256279 0.25628 h 0.38126 0.38126 l 0.18879,-0.305464 0.18879,-0.305464 -0.30547,0.188787 -0.30546,0.188787 v -0.375799 -0.3758 l -0.70078,0.133963 -0.70078,0.133963 0.15806,-0.255749 0.15806,-0.255749 -0.50246,-0.430219 -0.50246,-0.43022 -0.87305,0.820851 -0.87305,0.82085 0.33238,0.113938 0.33238,0.113938 -0.14956,0.241985 -0.14955,0.241985 h 0.29581 0.29581 l -0.15727,0.254474 -0.15727,0.254473 -0.65938,-0.250695 -0.65938,-0.250696 0.28118,0.525389 0.28118,0.525388 0.45371,0.02454 0.45371,0.02454 1.19063,-0.01969 1.19062,-0.01968 -0.59531,0.300164 -0.59531,0.300163 v 0.444638 0.444637 l 0.16379,0.16379 0.16379,0.163789 0.33047,-0.33047 0.33047,-0.33047 z m 8.47805,-0.0585 0.14877,-0.240707 -0.16405,-0.427505 -0.16405,-0.427504 -0.34242,0.284184 -0.34242,0.284184 -0.17413,-0.281747 -0.17413,-0.281747 -0.2463,0.152222 -0.2463,0.152223 0.004,0.447406 0.004,0.447406 0.27423,-0.396875 0.27422,-0.396875 0.31568,0.463021 0.31568,0.46302 h 0.18418 0.18418 z m -12.69847,-2.969281 0.25135,-0.229596 -1.0451,-0.03312 -1.0451,-0.03312 1.05833,-0.174596 1.05833,-0.174595 0.33505,-0.207445 0.33504,-0.207444 -0.15222,-0.246301 -0.15222,-0.246302 0.34634,-0.0041 0.34635,-0.0041 -0.39688,-0.25648 -0.39687,-0.25648 -1.1043,-0.0041 -1.10429,-0.0041 -1.3431,0.310025 -1.34311,0.310025 v 0.219142 0.219141 h 0.25256 0.25256 l 0.62237,0.622372 0.62237,0.622372 0.38184,0.139809 0.38185,0.139808 0.79375,-0.13571 0.79375,-0.13571 z m 7.19359,-0.0973 -0.1523,-0.396875 h 0.30685 0.30685 l -0.51359,-0.416513 -0.51359,-0.416512 0.56603,0.1195 0.56602,0.119499 0.35781,-0.221136 0.3578,-0.221137 -0.36733,-0.341746 -0.36733,-0.341747 0.21658,0.396875 0.21659,0.396875 -0.52933,-0.463021 -0.52934,-0.46302 -0.50833,0.01677 -0.50834,0.01677 0.65509,0.2614 0.65509,0.261399 -0.36651,0.226517 -0.36651,0.226517 -0.29793,-0.114325 -0.29793,-0.114326 -0.0451,0.59849 -0.0451,0.59849 0.24882,-0.393539 0.24882,-0.39354 0.0354,0.396875 0.0354,0.396875 -0.0379,0.218104 -0.0379,0.218104 0.27114,-0.167573 0.27114,-0.167573 v 0.280199 0.280198 h 0.1606 0.16059 z m 5.91246,-2.248958 0.26053,0.396875 0.004,-0.463021 0.004,-0.463021 h -0.52917 -0.52917 v -0.242535 -0.242535 l 0.33073,-0.133452 0.33073,-0.133452 -0.33903,-0.02089 -0.33903,-0.02089 -0.1523,0.396875 -0.1523,0.396875 0.17484,0.455606 0.17483,0.455606 0.25035,-0.38946 0.25035,-0.38946 z m -4.00545,-0.664369 -0.35612,-0.337173 -0.62845,-0.189033 -0.62844,-0.189034 0.18104,0.292929 0.18104,0.29293 h 0.35295 0.35295 l 0.15873,0.413644 0.15873,0.413645 0.29184,-0.180368 0.29185,-0.180368 z m 16.44492,-1.20333 v -0.248968 h -0.37483 -0.37482 l -0.11812,-0.330729 -0.11812,-0.330729 -0.21099,0.196815 -0.21099,0.196815 0.47471,0.52455 0.47471,0.524549 0.22923,-0.141667 0.22922,-0.141667 z m 31.208422,-0.660796 -0.32702,-0.394036 0.4343,0.166656 0.4343,0.166656 0.004,0.567005 0.004,0.567005 0.23605,-0.372881 0.23605,-0.372882 -0.12585,-0.32796 -0.12585,-0.32796 0.28694,-0.177336 0.28694,-0.177337 -0.17799,-0.287979 -0.17798,-0.287979 0.55075,0.144023 0.55074,0.144023 -0.12006,-0.312872 -0.12006,-0.312871 1.36573,-1.273426 1.36574,-1.273426 -0.36598,-0.231788 -0.36598,-0.231787 0.47863,-0.0041 0.47864,-0.0041 -0.16165,-0.261553 -0.16165,-0.261553 0.4328,0.166082 0.4328,0.166081 -0.32968,0.203752 -0.32967,0.203752 0.43978,0.439785 0.43979,0.439785 v -0.944941 -0.94494 h 0.26458 0.26458 v -0.333231 -0.33323 l 0.50065,-0.312656 0.50064,-0.312656 0.16081,0.160817 0.16082,0.160817 v 0.248793 0.248794 l -0.3793,-0.14555 -0.3793,-0.14555 0.0354,0.47002 0.0354,0.470021 h 0.33339 0.33338 l 0.27318,-0.78364 0.27317,-0.783639 0.36255,0.300883 0.36254,0.300884 -0.10923,-0.597626 -0.10922,-0.597626 0.66927,-0.303302 0.66927,-0.303302 -0.26852,0.50174 -0.26853,0.501739 h 0.2739 0.27389 v -0.280198 -0.280199 l 0.25303,0.15638 0.25303,0.15638 -0.15241,0.397158 -0.1524,0.397158 0.69312,-0.315809 0.69313,-0.315809 v -0.21381 -0.21381 l -0.46302,0.159583 -0.46302,0.159583 0.52916,-0.424056 0.52917,-0.424055 -0.23083,-0.0084 -0.23084,-0.0084 0.36313,-0.447664 0.36312,-0.447664 -0.31244,0.187396 -0.31245,0.187397 -0.16619,-0.2689 -0.16619,-0.268899 h -0.66146 -0.66145 l 0.12212,0.198438 0.12213,0.198437 -0.77746,0.05624 -0.77747,0.05624 0.14027,-0.226953 0.14026,-0.226952 -0.4615,-0.189911 -0.4615,-0.18991 -1.05833,-0.105417 -1.05834,-0.105416 -1.94684,-0.214051 -1.94684,-0.21405 -0.38781,0.38781 -0.38781,0.38781 0.2848,0.176017 0.2848,0.176017 -0.11153,0.910013 -0.11153,0.910014 0.28429,2.049953 0.28429,2.049954 -0.56549,0.490449 -0.56549,0.490449 0.19362,0.229 0.19363,0.229 -0.46302,-0.354404 -0.46302,-0.354403 v 0.545949 0.545948 l -0.26459,0.163522 -0.26458,0.163521 v 0.513552 0.513552 h 0.26458 0.26459 l 0.0209,0.46302 0.0209,0.463021 0.13641,-0.339625 0.13642,-0.339625 z m 18.26866,-7.756169 v -7.109663 l -1.38906,-0.18681 -1.38907,-0.18681 -5.15937,-0.244181 -5.15938,-0.24418 -2.43135,-0.168047 -2.43135,-0.168047 0.40835,0.89568 0.40834,0.89568 1.75843,0.02607 1.75842,0.02607 1.52135,0.19141 1.52136,0.191409 0.0186,0.840858 0.0186,0.840857 0.22739,-0.529167 0.22739,-0.529166 0.0406,0.132291 0.0406,0.132292 0.0652,0.584284 0.0652,0.584285 -0.34337,0.131764 -0.34338,0.131764 -0.14597,-0.236191 -0.14598,-0.236192 -0.45781,-0.0068 -0.45781,-0.0068 -1.32292,-0.258874 -1.32291,-0.258875 -1.37505,-0.01577 -1.37504,-0.01577 0.041,1.027995 0.041,1.027994 1.33405,0.165343 1.33405,0.165344 2.80506,0.16776 2.80506,0.167761 0.17998,-0.29121 0.17997,-0.29121 0.38225,0.146684 0.38226,0.146684 0.3132,-0.687406 0.3132,-0.687406 h 0.25451 0.25451 l -0.30024,0.361771 -0.30024,0.36177 0.46628,0.365834 0.46628,0.365834 -0.36312,-0.463021 -0.36313,-0.463021 0.23084,-0.03133 0.23083,-0.03133 0.25716,0.05091 0.25716,0.05091 -0.4556,-0.503428 -0.45559,-0.503428 v -0.301591 -0.301592 l 0.39987,0.153446 0.39988,0.153447 -0.1636,-0.426334 -0.1636,-0.426334 0.35903,0.0041 0.35904,0.0041 0.39688,0.285491 0.39687,0.28549 -0.43695,-0.138942 -0.43695,-0.138942 -0.13359,0.510859 -0.13359,0.510858 h 0.18689 0.1869 l 0.33317,-0.330729 0.33318,-0.330729 -0.18043,0.47384 -0.18042,0.473841 0.23089,-0.04215 0.2309,-0.04215 0.23084,0.03133 0.23083,0.03133 -0.36313,0.440193 -0.36312,0.440192 0.52916,-0.272148 0.52917,-0.272148 0.39215,0.139061 0.39215,0.139062 0.35435,0.354352 0.35436,0.354353 -0.21734,9.89e-4 -0.21734,9.89e-4 0.92605,0.568799 0.92604,0.568799 -0.33073,0.113719 -0.33073,0.113719 v 0.524512 0.524512 l 0.25159,0.470105 0.25159,0.470106 0.16841,1.559562 0.16841,1.559561 0.12748,0.206262 0.12748,0.206261 0.11673,0.72324 0.11673,0.72324 0.13458,0.595312 0.13458,0.595313 h 0.12725 0.12725 z m -9.26042,-4.823132 v -0.311992 l -0.46302,-0.379519 -0.46302,-0.379518 0.30813,0.153561 0.30813,0.153561 0.0887,-0.227897 0.0887,-0.227896 0.43554,0.424685 0.43554,0.424686 -0.36939,0.341161 -0.36939,0.341161 z m -6.21771,11.403629 -0.16352,-0.264583 h 0.3243 0.32429 l -0.17409,-0.174094 -0.17409,-0.174093 0.29468,-0.355073 0.29469,-0.355074 h -0.12421 -0.1242 l -0.52824,0.463021 -0.52824,0.463021 0.11293,0.330729 0.11293,0.330729 h 0.25815 0.25815 z m 2.16444,-2.553969 -0.14485,-0.144853 -0.28219,0.174401 -0.28219,0.174401 v 0.396875 0.396875 l -0.26155,-0.161649 -0.26155,-0.161648 0.15749,0.410411 0.15749,0.410412 0.5311,-0.675187 0.5311,-0.675186 z m -48.496502,0.322275 -0.14567,-0.379611 1.01387,-0.105078 1.01387,-0.105079 -2.64584,-0.0048 -2.64583,-0.0048 0.79375,0.11606 0.79375,0.11606 0.38152,0.307318 0.38152,0.307317 -0.23387,-0.396875 -0.23387,-0.396875 0.40586,0.328434 0.40586,0.328433 0.1741,-0.174093 0.17409,-0.174093 v 0.30868 0.308681 h 0.25628 0.25628 z m 10.74156,-0.347993 -0.004,-0.198438 -0.26054,-0.396875 -0.26053,-0.396875 -0.24712,0.384242 -0.24713,0.384243 0.13045,0.21107 0.13045,0.21107 h 0.38126 0.38126 z m -8.99178,-1.12448 v -0.264583 l -3.10886,0.03974 -3.10885,0.03974 1.19062,0.185105 1.19063,0.185106 1.91823,0.03974 1.91823,0.03974 z m 8.16437,-3.300847 0.008,-3.036263 -0.24974,-0.154351 -0.24975,-0.154352 -0.007,0.478636 -0.007,0.478636 -0.0194,2.38125 -0.0195,2.38125 0.0265,0.330729 0.0265,0.330729 h 0.24171 0.24171 z m 28.870072,1.818152 2.7709,-0.730474 0.99941,0.05897 0.99941,0.05897 -0.003,-0.07686 -0.003,-0.07686 -0.39059,-1.455208 -0.3906,-1.455208 -0.003,-0.727605 -0.003,-0.727604 h -0.26458 -0.26459 v 0.264584 0.264583 h -0.25803 -0.25803 l 0.25093,-0.66001 0.25094,-0.660011 -0.66636,-0.436612 -0.66635,-0.436613 -0.62794,0.336061 -0.62793,0.33606 -2.60122,1.652659 -2.60121,1.652658 0.006,1.5553 0.006,1.555299 0.18378,0.461414 0.18378,0.461413 0.60424,-0.242212 0.60423,-0.242211 z m -36.527332,0.849061 -0.11024,-0.104468 -1.98437,-0.151003 -1.98438,-0.151002 -2.38125,-0.171533 -2.38125,-0.171533 0.20794,0.216014 0.20793,0.216014 2.04102,0.171059 2.04103,0.171059 2.22691,0.03993 2.22691,0.03993 z m 1.20662,-1.502112 -0.16189,-0.510087 0.34856,-0.02637 0.34855,-0.02637 -0.66145,-0.211836 -0.66146,-0.211836 -3.68212,-0.02637 -3.68212,-0.02637 0.14922,0.149215 0.14921,0.149215 0.82197,0.02337 0.82197,0.02337 0.29593,0.356581 0.29594,0.356581 h -1.92858 -1.92857 l 0.1721,0.172108 0.17211,0.172109 2.31939,0.158621 2.31938,0.15862 2.32688,-0.08523 2.32688,-0.08523 z m -39.0828,-0.912767 1.78261,-0.152153 2.24896,-0.255673 2.24896,-0.255672 2.24895,-0.249265 2.24896,-0.249265 2.77813,-0.293535 2.77812,-0.293535 0.8599,-0.126725 0.85989,-0.126725 v -0.21621 -0.216211 l -0.7276,0.09515 -0.7276,0.09514 -1.85209,0.168802 -1.85208,0.168801 -2.68371,0.0304 -2.6837,0.0304 0.11963,0.198437 0.11963,0.198438 -0.34634,0.01285 -0.34634,0.01285 -2.64584,0.267393 -2.64583,0.267392 -2.18281,0.143786 -2.18282,0.143786 v 0.530323 0.530324 l 0.4002,-0.153571 0.4002,-0.153571 z m 20.81497,-2.149469 1.24685,-0.170899 -0.25711,-0.15983 -0.25711,-0.15983 -1.61532,0.0897 -1.61533,0.0897 0.14897,0.24103 0.14896,0.241029 h 0.47662 0.47663 z m 23.57188,-0.602912 -0.17428,-0.549105 -0.57748,-0.03603 -0.57748,-0.03603 0.57276,-0.111708 0.57277,-0.111707 0.39597,-0.97674 0.39597,-0.976741 0.54276,-0.573662 0.54275,-0.573663 -1.90837,-0.148364 -1.90836,-0.148364 -2.38125,-0.14016 -2.38125,-0.140161 -1.32292,-0.134878 -1.32292,-0.134877 -0.30883,-0.110708 -0.30883,-0.110708 -0.15419,0.401808 -0.15419,0.401808 0.004,1.367423 0.004,1.367423 0.20222,0.318152 0.20223,0.318153 2.37341,0.277975 2.37341,0.277975 2.32785,0.15629 2.32785,0.15629 0.31798,0.345376 0.31798,0.345376 0.0903,-0.08567 0.0903,-0.08567 z m 41.400962,-2.136605 -0.66146,-0.211836 -0.74321,-0.02637 -0.74322,-0.02637 0.16352,0.264584 0.16352,0.264583 1.24116,-0.02637 1.24115,-0.02637 z m -2.64583,-0.79375 v -0.264584 l -1.25677,0.03483 -1.25677,0.03483 0.92604,0.194923 0.92604,0.194923 0.33073,0.03483 0.33073,0.03483 z m -84.068672,-1.590647 0.32805,-0.368208 -0.49354,0.375693 -0.49354,0.375692 0.10319,-0.520744 0.10318,-0.520745 0.65494,0.07799 0.65494,0.07799 -0.36463,-0.246842 -0.36463,-0.246842 0.18181,-0.294165 0.1818,-0.294164 h 0.36565 0.36564 l 0.12293,-0.198438 0.12292,-0.198437 -1.0995,0.04818 -1.09949,0.04818 -0.46112,0.01796 -0.46112,0.01796 0.0439,1.119463 0.0439,1.119463 0.10857,-0.325713 0.10857,-0.325713 h 0.27085 0.27084 l -0.14228,0.370775 -0.14228,0.370775 0.38123,-0.05595 0.38124,-0.05595 z m 98.294442,-1.469696 -0.10155,-0.101547 -1.96888,-0.174896 -1.96888,-0.174896 -0.33249,-0.262387 -0.33248,-0.262388 -1.25502,0.15935 -1.25501,0.159351 -2.77813,0.0088 -2.77812,0.0088 -0.92604,-0.124434 -0.92605,-0.124434 -1.33531,-0.154445 -1.33531,-0.154446 -0.45062,0.172922 -0.45063,0.172922 v 0.345993 0.345993 l 1.96935,0.184544 1.96935,0.184543 1.9766,-0.09981 1.9766,-0.09981 -0.12511,0.202428 -0.1251,0.202427 0.34634,0.0024 0.34634,0.0024 4.26965,0.259708 4.26965,0.259709 0.62514,0.233767 0.62515,0.233767 0.0861,-0.652322 0.0861,-0.652322 z m -39.89035,-1.040694 v -0.661458 h -0.24676 -0.24675 l -0.16387,-0.516316 -0.16387,-0.516315 -1.11073,-0.2491 -1.110732,-0.2491 0.934482,-0.02833 0.93448,-0.02834 0.0578,-0.698369 0.0578,-0.698369 -0.4602,-0.336503 -0.46019,-0.336502 -0.18112,0.111941 -0.18113,0.111941 -0.5494,-0.771559 -0.549389,-0.771559 v -0.289886 -0.289885 h -0.21144 -0.21143 l -0.33486,-0.926042 -0.33486,-0.926041 h -0.26636 -0.26635 l -0.39688,-0.396875 -0.39687,-0.396875 0.34963,-0.0041 0.34962,-0.0041 -0.26458,-0.194386 -0.26458,-0.194386 -0.0274,-0.843743 -0.0273,-0.843743 -0.34536,-0.833771 -0.34536,-0.833771 -0.76342,0.112046 -0.76341,0.112045 -0.1291,-0.208897 -0.12911,-0.208896 0.40534,-1.747783 0.40534,-1.747782 V 51.71455 50.666087 l 0.70604,-0.268437 0.70604,-0.268437 0.34388,-0.452618 0.34387,-0.452619 0.008,-0.463021 0.008,-0.463021 h 0.26459 0.26458 v -0.529167 -0.529166 h 0.33323 0.33323 l 0.31686,-0.50737 0.31686,-0.50737 0.510669,0.133545 0.51068,0.133545 0.17777,-0.287634 0.17776,-0.287633 h 0.61138 0.61137 l 1.64645,-0.525975 1.64644,-0.525975 1.7551,0.440867 1.7551,0.440866 1.19699,1.209588 1.19698,1.209587 0.58305,1.190625 0.58304,1.190625 0.16583,1.719792 0.16584,1.719792 -0.012,1.322916 -0.012,1.322917 -0.14362,0.954014 -0.14363,0.954015 0.79155,0.898069 0.79155,0.898068 0.0112,-0.396875 0.0112,-0.396875 0.24762,-5.556249 0.24762,-5.55625 0.17557,-2.04019 0.17557,-2.040191 -10.32011,-0.01431 -10.320111,-0.01431 -0.182,0.599296 -0.182,0.599296 -0.13653,-0.330729 -0.13653,-0.330729 h -0.24478 -0.24478 l 0.24971,0.463021 0.24972,0.46302 0.27047,0.867186 0.27047,0.867185 -0.20607,0.557068 -0.20607,0.557069 -0.43765,-1.424254 -0.43764,-1.424254 0.0894,-0.727604 0.0894,-0.727604 H 81.569449 69.964159 V 56.063986 67.79878 l 2.4474,0.179752 2.44739,0.179751 4.23334,0.252791 4.23333,0.252791 5.15938,0.295326 5.15937,0.295326 3.70417,0.19318 3.704161,0.193179 0.99219,0.04416 0.99219,0.04416 z m -23.873912,-2.969877 0.86464,-0.107065 0.72286,0.109765 0.72287,0.109766 -1.5875,-0.0027 -1.5875,-0.0027 z m 9.91051,-18.332094 -0.3241,-0.518973 v -0.79734 -0.79734 h 0.2227 0.22271 l 0.32683,1.090878 0.32684,1.090879 -0.22544,0.225434 -0.22543,0.225434 z m 52.125492,20.804721 0.19439,-0.2965 0.004,0.330729 0.004,0.330729 h 0.64584 0.64584 l 0.16353,-0.264583 0.16352,-0.264583 h -0.52696 -0.52695 l -0.20254,-0.595313 -0.20254,-0.595312 0.059,-0.218104 0.059,-0.218104 -0.27114,0.167573 -0.27114,0.167573 v -0.767262 -0.767262 l -1.44661,-0.323736 -1.44661,-0.323737 -2.08178,-0.01553 -2.08178,-0.01553 -0.59752,0.319785 -0.59752,0.319784 0.60015,0.638839 0.60016,0.638839 h 0.33514 0.33514 l 0.17777,0.287637 0.17777,0.287637 -0.2283,0.218654 -0.2283,0.218654 -0.66146,0.08902 -0.66146,0.08902 -0.19438,0.264583 -0.19439,0.264583 -0.004,-0.283445 -0.004,-0.283445 -1.38906,-0.08269 -1.38906,-0.08269 -1.36166,-0.03353 -1.36165,-0.03353 -0.62272,0.160722 -0.62272,0.160723 1.4552,0.158965 1.45521,0.158965 3.04271,0.348373 3.04271,0.348374 2.91042,-0.104194 2.91041,-0.104194 z m -90.285012,-0.949351 1.45521,-0.208663 -3.70416,-0.02935 -3.70417,-0.02935 -0.99219,0.163999 -0.99219,0.163998 v 0.164799 0.164798 l 3.24115,-0.09078 3.24115,-0.09078 z m 7.63786,-12.070687 0.005,-11.249012 -1.23526,0.08003 -1.23526,0.08003 0.037,1.113859 0.037,1.113859 -0.50645,0.160741 -0.50645,0.160742 v 8.685112 8.685113 l -0.3621,0.138948 -0.36209,0.138949 -0.19309,-1.499704 -0.1931,-1.499703 0.0106,-0.859896 0.0106,-0.859896 h -0.38146 -0.38146 v -0.396884 -0.396875 h 0.39688 0.39687 V 58.93767 58.729391 l -0.52916,-0.03986 -0.52917,-0.03986 0.004,1.50491 0.004,1.504911 0.25648,-0.396875 0.25648,-0.396875 0.004,0.610927 0.004,0.610928 -0.30626,-0.18928 -0.30627,-0.18928 0.14913,0.570276 0.14914,0.570277 -0.21105,0.130433 -0.21104,0.130433 -0.1641,-0.990065 -0.16409,-0.990066 0.0299,-0.79375 0.0299,-0.79375 0.0792,-0.661458 0.0792,-0.661458 0.0262,-0.336829 0.0263,-0.336828 0.66146,0.433404 0.66145,0.433404 v -0.435609 -0.435608 l -0.39687,-0.152296 -0.39688,-0.152295 v -0.251891 -0.25189 l 0.26459,0.163521 0.26458,0.163522 0.0202,-0.214053 0.0203,-0.214052 0.12437,-0.529167 0.12437,-0.529166 -0.0526,-1.190625 -0.0526,-1.190625 0.033,-2.806183 0.033,-2.806182 -0.65847,0.125874 -0.65847,0.125875 0.0357,0.299058 0.0357,0.299058 -0.0354,0.926041 -0.0354,0.926042 -0.23684,-0.374169 -0.23685,-0.374168 0.15034,-0.926433 0.15034,-0.926432 -0.69488,0.506851 -0.69487,0.506851 -0.008,4.175491 -0.008,4.175492 0.36066,0.138397 0.36065,0.138398 -0.0894,1.440798 -0.0894,1.440799 0.32407,0.0084 0.32406,0.0084 -0.47704,0.361737 -0.47705,0.361737 0.34476,0.138127 0.34475,0.138127 -0.41892,0.02089 -0.41893,0.02089 v 0.396875 0.396875 l 0.15434,-6.07e-4 0.15434,-6.08e-4 -0.0835,2.325075 -0.0835,2.325074 3.56924,0.04712 3.56925,0.04712 z m -1.90056,7.284755 0.0825,-1.043508 h -0.26409 -0.26409 v -0.280199 -0.280198 l 0.33073,0.186722 0.33073,0.186722 -0.31005,-0.335639 -0.31006,-0.33564 0.15658,-0.408038 0.15658,-0.408037 -0.30955,0.19131 -0.30954,0.19131 v -0.41249 -0.41249 h -0.23982 -0.23981 l 0.1376,-0.526191 0.1376,-0.52619 0.23451,0.14493 0.2345,0.144931 v -0.957272 -0.957271 l -0.29098,0.179836 -0.29098,0.179835 0.2589,-0.49495 0.2589,-0.494949 -0.0437,-1.058334 -0.0438,-1.058333 0.18864,-0.724036 0.18863,-0.724037 -0.22249,-0.137508 -0.2225,-0.137508 -0.11215,0.332378 -0.11215,0.332378 0.017,-1.501425 0.0171,-1.501424 0.13865,0.0114 0.13865,0.0114 0.26458,-0.03538 0.26459,-0.03538 -0.30958,-0.196927 -0.30958,-0.196928 0.17729,-1.431018 0.17728,-1.431017 0.33073,-0.109844 0.33073,-0.109843 v 8.4731 8.4731 l -0.21533,0.133082 -0.21533,0.133082 z m 5.90437,-7.261216 V 44.329282 h -0.26458 -0.26459 v 11.244792 11.244791 h 0.26459 0.26458 z m 61.164092,9.392708 0.10093,-1.058334 h -0.17712 -0.17712 l -0.1606,0.418515 -0.1606,0.418514 v 0.639819 0.639819 h 0.23679 0.2368 z m 18.73705,-0.984843 0.53219,-0.455676 V 63.32048 63.114698 h -0.2802 -0.2802 l 0.19131,0.309547 0.19131,0.309546 -0.44028,-0.168951 -0.44027,-0.168951 v 0.102349 0.102348 l -0.1606,0.418514 -0.1606,0.418515 h 0.15757 0.15758 z m -6.34698,-0.602657 v -0.529167 h -0.34396 -0.34395 l -0.3175,0.3175 -0.3175,0.3175 v 0.211667 0.211666 h 0.66145 0.66146 z m 1.98438,-1.058334 -0.79375,-0.201975 -3.30729,0.01026 -3.3073,0.01026 1.32292,0.181449 1.32292,0.18145 2.77812,0.01026 2.77813,0.01026 z m 0.92604,-1.067753 -1.71979,-0.193312 -3.175,0.01355 -3.175,0.01355 1.5875,0.175626 1.5875,0.175626 3.30729,0.0041 3.30729,0.0041 z m 0.52917,-1.058333 -1.7198,-0.193312 -3.30729,0.01474 -3.30729,0.01474 1.71979,0.17325 1.71979,0.173249 3.3073,0.0053 3.30729,0.0053 z m -16.3731,-1.247351 0.0311,-0.463021 0.0744,-1.719792 0.0744,-1.719791 0.18379,-2.248958 0.18379,-2.248959 0.0114,-0.396875 0.0114,-0.396875 0.26092,-0.330729 0.26091,-0.330729 h -0.24385 -0.24385 l 0.10515,-0.90073 0.10516,-0.900729 1.09849,-0.116109 1.09848,-0.116108 0.3017,0.231387 0.30169,0.231386 7.56967,0.05785 7.56966,0.05785 v -0.198438 l -1e-5,-0.198437 h -7.67291 -7.67292 v -0.22576 -0.225759 l 2.05052,-0.198344 2.05052,-0.198345 0.66146,0.07072 0.66146,0.07072 0.92604,-0.0077 0.92604,-0.0077 0.49276,-0.121787 0.49275,-0.121787 0.25101,-0.44853 0.25101,-0.448529 -0.2146,0.03672 -0.2146,0.03672 -0.13229,-0.056 -0.13229,-0.056 -1.13386,-0.08301 -1.13387,-0.08301 -0.36613,-0.303862 -0.36613,-0.303862 -0.2779,0.477692 -0.27789,0.477692 -0.008,-0.439939 -0.008,-0.439939 -0.79375,0.125096 -0.79375,0.125097 v -0.244547 -0.244546 l -3.53133,-0.04708 -3.53132,-0.04708 -0.18709,5.079969 -0.18708,5.079969 0.30614,0.189207 0.30615,0.189208 -0.2919,0.545421 -0.29191,0.54542 10e-4,0.744999 0.002,0.744998 0.27555,0.992187 0.27554,0.992188 h 0.25215 0.25215 z m 17.36528,0.267497 -1.52135,-0.09547 -1.52135,0.09547 -1.52136,0.09547 h 3.04271 3.04271 z m -6.73478,-0.26527 -1.90613,-0.09107 -2.06262,0.09039 -2.06261,0.09039 3.96875,6.74e-4 3.96875,6.74e-4 z m 7.67049,-0.792266 -1.37941,-0.09684 -1.53101,0.09575 -1.53102,0.09575 2.91042,0.0011 2.91042,0.0011 z m -7.15341,-0.266312 -1.91823,-0.09131 -1.91823,0.09131 -1.91823,0.09131 h 3.83646 3.83645 z m 7.8122,-0.789618 -0.9852,-0.10337 -1.13147,0.101622 -1.13147,0.101622 2.11666,0.0017 2.11667,0.0017 z m -8.49967,-0.406752 -3.92861,-0.252331 -0.5693,0.275504 -0.56931,0.275505 4.49791,-0.02317 4.49792,-0.02317 z m 2.01038,-0.921189 -2.71198,-0.08575 -2.71198,0.08575 -2.71198,0.08575 h 5.42396 5.42396 z m 4.69636,-0.85208 -1.45521,-0.169426 -6.08542,-0.0013 -6.08542,-0.0013 3.83646,0.158766 3.83646,0.158767 3.70417,0.01192 3.70416,0.01192 z m 0.26458,-1.078325 -1.45521,-0.201164 -7.14375,0.03168 -7.14375,0.03168 5.42396,0.148885 5.42396,0.148885 3.175,0.0206 3.175,0.0206 z m -18.7242,-5.082143 0.13099,-4.299479 -0.0961,-0.110243 -0.0961,-0.110243 -0.12951,0.129502 -0.1295,0.129503 -0.17645,4.280219 -0.17645,4.28022 h 0.27106 0.27107 z m 19.25337,4.026696 -1.98438,-0.18722 -6.48229,0.02344 -6.48229,0.02344 5.55625,0.148544 5.55625,0.148544 2.91041,0.01524 2.91042,0.01524 z m -6.29852,-1.247784 -2.99123,-0.08454 -2.82961,0.0849 -2.8296,0.0849 5.82083,-3.64e-4 5.82083,-3.63e-4 z m 0.54383,-1.058327 -3.24115,-0.08323 -3.24114,0.08323 -3.24115,0.08323 h 6.48229 6.48229 z m 4.67,-0.97524 -0.11455,-0.11455 -5.41965,-0.121028 -5.41966,-0.121029 -1.71979,0.195233 -1.71979,0.195234 7.25399,0.04034 7.254,0.04035 z m 1.98267,-0.994681 -1.03028,-0.183189 -7.54062,0.01113 -7.54062,0.01112 -0.61106,0.172064 -0.61106,0.172064 h 9.18196 9.18196 z m 0.9541,-2.859518 v -1.322917 h -1.33853 -1.33853 l 0.18672,0.330729 0.18672,0.33073 -0.35631,-0.33073 -0.35632,-0.330729 h -0.22098 -0.22097 l 0.27461,0.51311 0.2746,0.513109 -0.25754,0.15917 -0.25754,0.15917 -0.16113,-0.641996 -0.16113,-0.641996 -0.52773,0.138005 -0.52774,0.138005 0.15235,0.607006 0.15235,0.607006 -0.59572,0.114716 -0.59572,0.114715 0.7276,0.03603 0.72761,0.03603 0.0916,-0.06614 0.0916,-0.06615 0.48833,0.396875 0.48832,0.396875 -0.22254,-0.369317 -0.22254,-0.369317 0.76706,0.190442 0.76707,0.190443 0.0882,0.24502 0.0882,0.24502 h 0.90399 0.904 z"
       id="path5" /></g></svg>
