<?xml version="1.0" encoding="UTF-8" standalone="no"?>
<!-- Created with Inkscape (http://www.inkscape.org/) -->

<svg
   width="101.59999mm"
   height="84.666687mm"
   viewBox="0 0 101.59999 84.666687"
   version="1.1"
   id="svg1"
   xml:space="preserve"
   xmlns="http://www.w3.org/2000/svg"
   xmlns:svg="http://www.w3.org/2000/svg"><defs
     id="defs1" /><g
     id="layer1"
     transform="translate(-42.183717,-151.97563)"><path
       style="fill:#ffffff;fill-opacity:1"
       d="m 42.183719,194.30897 v -42.33334 h 50.8 50.800001 v 42.33334 42.33333 h -50.800001 -50.8 z m 12.54497,41.16389 0.50642,-0.2434 -0.19131,0.30954 -0.19131,0.30955 h 3.98437 3.98436 v -0.24569 -0.24568 l -0.37285,-0.37285 -0.37285,-0.37285 -0.0902,-0.63823 -0.0902,-0.63824 -0.80811,0.0349 -0.8081,0.035 -1.12146,0.54183 -1.12147,0.54184 -0.77938,0.17118 -0.77937,0.17118 -0.15094,0.24422 -0.15094,0.24423 h -0.43418 -0.43418 l 0.25136,-0.22085 0.25135,-0.22085 1.32292,-0.47933 1.32292,-0.47932 1.19062,-0.51682 1.19063,-0.51681 0.59531,-0.28293 0.59531,-0.28292 v -0.46663 -0.46663 l 0.5483,-0.17402 0.5483,-0.17403 -0.13017,-0.33922 -0.13017,-0.33922 -0.52859,-1.81969 -0.52859,-1.81969 -0.18404,-1.19062 -0.18404,-1.19063 -0.20461,-0.26458 -0.20462,-0.26458 -0.56969,-2.21621 -0.56969,-2.2162 -0.38101,-0.69421 -0.38102,-0.69422 -0.54117,-0.63279 -0.54117,-0.63279 -0.15718,0.15717 -0.15717,0.15717 0.46381,0.46381 0.46381,0.46381 -0.36617,0.11763 -0.36616,0.11763 -0.19027,0.29106 -0.19028,0.29105 -0.69713,-0.69498 -0.69714,-0.69499 0.2921,-0.18052 0.29209,-0.18053 v 0.42811 0.4281 l 0.26459,-0.16352 0.26458,-0.16352 v 0.46541 0.4654 l 0.31699,-0.31698 0.31698,-0.31699 -0.8508,-0.8778 -0.85081,-0.87781 0.18104,-0.18104 0.18104,-0.18104 h 0.21219 0.21218 l -0.16895,0.44027 -0.16895,0.44028 0.30954,-0.19131 0.30955,-0.19131 v 0.46541 0.46541 l 0.30629,-0.30629 0.30628,-0.30629 -0.32906,-0.3965 -0.32907,-0.39649 0.16882,-0.27315 0.16881,-0.27314 -0.41362,0.15872 -0.41362,0.15872 0.18026,-0.46974 0.18025,-0.46973 -0.30954,0.19131 -0.30955,0.19131 v -0.41249 -0.41249 h -0.29289 -0.29289 l 0.1636,-0.42634 0.1636,-0.42633 -0.36993,0.14195 -0.36993,0.14196 0.13775,-0.52676 0.13775,-0.52675 -0.3537,-0.66089 -0.35369,-0.66089 -0.54161,0.16964 -0.5416,0.16964 -0.92604,0.22646 -0.92604,0.22646 -0.92605,0.26254 -0.92604,0.26255 -3.57187,0.90171 -3.57188,0.90171 -0.0826,1.12809 -0.0826,1.12809 0.28106,-0.1737 0.28106,-0.17371 v 0.26459 0.26458 l -0.26459,0.16352 -0.26458,0.16352 v 0.51355 0.51356 h 0.3175 0.3175 l -0.3175,0.3175 -0.3175,0.3175 v 0.47625 0.47625 l 0.33073,-0.0661 0.33073,-0.0661 -0.0768,0.4588 -0.0768,0.45879 0.4075,-0.15637 0.40751,-0.15637 v 0.24879 0.24879 l -0.17697,0.17697 -0.17697,0.17697 -0.48449,-0.43846 -0.48449,-0.43846 v 0.58579 0.58579 l 0.2463,-0.15223 0.2463,-0.15222 0.16735,0.27077 0.16734,0.27077 -0.35786,0.13732 -0.35786,0.13732 -0.0382,0.50722 -0.0382,0.50722 0.37094,-0.14234 0.37093,-0.14234 -0.023,-0.17334 -0.023,-0.17334 0.0313,-0.34635 0.0313,-0.34634 0.25461,0.15735 0.2546,0.15736 -0.29707,0.65201 -0.29708,0.65201 h -0.3544 -0.35441 v 6.36002 6.36003 l 5.6224,-0.0762 5.62239,-0.0762 z m -1.56329,-9.94069 -0.17932,-0.29013 0.31976,-0.38529 0.31976,-0.38528 h 0.18797 0.18797 l -0.0428,0.5802 -0.0427,0.5802 -0.28567,0.0952 -0.28567,0.0952 z m 1.45374,-0.26695 -0.39688,-0.25649 0.34635,-0.004 0.34634,-0.004 -0.14816,-0.23972 -0.14815,-0.23972 1.32316,-0.18198 1.32317,-0.18198 v -0.35644 -0.35643 l 0.28764,-0.17777 0.28763,-0.17777 0.28603,0.28603 0.28603,0.28603 -0.63981,0.6309 -0.63981,0.6309 -0.57792,0.30356 -0.57792,0.30356 -0.48041,-0.004 -0.48042,-0.004 z m -10.19353,-3.15274 0.16089,-0.5069 -0.31543,-0.19494 -0.31543,-0.19495 0.48753,-0.35649 0.48752,-0.35648 h -0.18965 -0.18966 l 0.43132,-0.83408 0.43132,-0.83408 0.77521,0.82948 0.77522,0.82948 -0.47107,0.71893 -0.47106,0.71894 -0.0866,-0.44975 -0.0866,-0.44976 h -0.37748 -0.37747 l -0.19183,-0.0198 -0.19182,-0.0198 -0.10708,0.32126 -0.10709,0.32126 0.26355,-0.16288 0.26355,-0.16289 0.47324,0.52293 0.47324,0.52293 h -0.30559 -0.30559 v -0.25628 -0.25628 l -0.39536,0.15171 -0.39535,0.15171 0.14639,0.23686 0.14638,0.23686 h -0.29802 -0.29803 z m 1.99144,-0.28685 v -0.26458 h 0.26459 0.26458 v -0.39688 -0.39687 h 0.26458 0.26459 v -0.54478 -0.54478 l 0.25302,0.15638 0.25303,0.15638 -0.14569,0.45454 -0.1457,0.45455 0.25647,-0.35898 0.25647,-0.35897 0.16968,0.27455 0.16968,0.27454 -0.2689,0.16619 -0.2689,0.16619 -0.26458,-0.16352 -0.26458,-0.16352 v 0.25815 0.25815 l 0.19843,0.11097 0.19844,0.11098 -0.34074,-0.0845 -0.34075,-0.0845 -0.15058,0.39241 -0.15058,0.39242 h -0.23628 -0.23628 z m 4.35856,-1.56523 0.16089,-0.5069 -0.27607,-0.17062 -0.27606,-0.17061 0.29262,-0.54676 0.29261,-0.54676 -0.3198,-0.19765 -0.31981,-0.19765 0.45521,-0.69474 0.45521,-0.69474 h 0.0962 0.0962 l -0.29502,0.6475 -0.29502,0.64751 1.08253,1.0401 1.08254,1.04009 -0.1552,0.1552 -0.15519,0.15519 -0.7328,-0.78446 -0.7328,-0.78447 h -0.15843 -0.15843 v 0.54478 0.54479 l 0.26458,-0.16353 0.26459,-0.16352 v 0.26459 0.26458 l -0.2689,0.16619 -0.2689,0.16619 0.15222,0.2463 0.15222,0.2463 h -0.29802 -0.29803 z m -1.27536,-0.50917 -0.70195,-0.73268 v -0.18396 -0.18396 h 0.38857 0.38858 l -0.16895,0.44028 -0.16896,0.44028 0.27419,-0.16946 0.27419,-0.16945 0.44947,0.49666 0.44947,0.49666 -0.24133,0.14915 -0.24133,0.14915 z m -2.54562,-0.10841 -0.008,-0.46302 h 0.26458 0.26459 v -0.43179 -0.43179 l 0.55934,-0.90505 0.55935,-0.90504 0.0993,0.0993 0.0993,0.0993 -0.32796,0.70626 -0.32795,0.70627 -0.19844,0.002 -0.19844,0.002 v 0.47859 0.4786 l -0.38846,0.51359 -0.38846,0.51359 z m 0.78534,-0.0793 v -0.14543 l 0.40814,-0.78926 0.40815,-0.78926 0.29339,0.18133 0.2934,0.18133 -0.43696,0.31951 -0.43695,0.31951 v 0.43385 0.43386 h -0.26459 -0.26458 z m 1.80148,-1.17355 -0.70815,-0.90484 0.17473,-0.27715 0.17473,-0.27715 0.10103,0.51119 0.10103,0.51118 0.49461,-0.64347 0.49461,-0.64348 0.006,0.46302 0.006,0.46302 h -0.29698 -0.29698 l 0.31883,0.38416 0.31883,0.38417 -0.0899,0.46709 -0.09,0.4671 z m 3.53559,-0.29414 -0.34647,-0.55478 -0.39526,0.48864 -0.39525,0.48864 0.14874,-0.39687 0.14875,-0.39688 0.16332,-0.46302 0.16332,-0.46302 h 0.23372 0.23373 l -0.0662,-0.29766 -0.0661,-0.29765 0.35271,-0.1286 0.35272,-0.1286 -0.42566,0.82313 -0.42566,0.82313 h 0.41929 0.41928 l -0.16352,0.26458 -0.16352,0.26459 h 0.42811 0.4281 l -0.16352,0.26458 -0.16352,0.26458 h -0.18533 -0.18532 z m 1.04184,-0.34142 -0.86865,-0.89622 0.28758,-0.17773 0.28758,-0.17773 0.0313,0.21405 0.0313,0.21405 -0.0313,0.19844 -0.0313,0.19844 0.3091,-0.0661 0.30909,-0.0662 0.31551,0.60513 0.3155,0.60512 0.43079,-0.65747 0.43079,-0.65747 -0.23904,-0.14774 -0.23905,-0.14774 -0.11186,0.33238 -0.11186,0.33238 -0.43699,-0.36071 -0.43699,-0.36071 0.14499,-0.2346 0.145,-0.23461 h 0.24066 0.24067 l -0.16896,0.44028 -0.16895,0.44028 0.30955,-0.19131 0.30955,-0.19131 v -0.38126 -0.38126 h 0.25628 0.25628 l -0.16896,0.44028 -0.16895,0.44028 0.30955,-0.19131 0.30955,-0.19131 v 0.30552 0.30552 l -0.45392,0.76842 -0.45393,0.76843 h -0.15563 -0.15563 z m 85.431511,17.58279 v -0.51134 l 0.52916,-0.16795 0.52917,-0.16795 v -1.68634 -1.68635 l -0.26458,-0.16352 -0.26459,-0.16352 v -0.61345 -0.61345 l 0.37993,-0.31531 0.37993,-0.31531 -0.10278,0.81208 -0.10277,0.81208 h 0.26763 0.26763 l -0.13045,-0.21107 -0.13045,-0.21107 0.20608,-0.33344 0.20607,-0.33344 0.70068,0.17586 0.70068,0.17586 -0.14608,0.23636 -0.14608,0.23636 h 0.2802 0.2802 v -14.80105 -14.80105 l -0.26458,-0.16353 -0.26459,-0.16352 v -0.63023 -0.63022 l 0.26459,-0.16353 0.26458,-0.16352 v -12.68437 -12.68439 l -1.52135,-0.0294 -1.52136,-0.0294 -0.92604,-0.0493 -0.92604,-0.0493 -5.29491,-0.21989 -5.2949,-0.21989 -0.38021,0.76161 -0.38022,0.76161 -0.59373,0.82256 -0.59372,0.82257 0.14814,0.56649 0.14814,0.5665 h -0.18054 -0.18055 l -0.47515,-0.25429 -0.47516,-0.2543 0.0619,0.58502 0.0619,0.58503 0.0338,0.46302 0.0338,0.46302 0.46303,0.0307 0.46302,0.0307 -0.49282,0.12674 -0.49282,0.12674 0.16978,1.06175 0.16978,1.06174 0.002,3.70333 0.002,3.70332 -0.28683,0.34561 -0.28683,0.34561 0.22412,0.13852 0.22412,0.13851 -0.0373,0.87723 -0.0373,0.87723 -0.0417,0.44519 -0.0417,0.44519 -0.58297,0.18503 -0.58298,0.18503 -0.34307,0.34307 -0.34306,0.34307 3.3e-4,1.54025 3.4e-4,1.54025 -0.29613,2.1193 -0.29613,2.1193 0.52581,1.18799 0.52582,1.18799 0.33009,1.08993 0.33009,1.08992 0.42749,-0.0316 0.42748,-0.0316 0.038,1.5875 0.038,1.5875 0.30224,1.5875 0.30223,1.5875 0.24812,3.57188 0.24811,3.57187 0.2845,2.38125 0.28449,2.38125 0.26647,2.77813 0.26646,2.77812 0.15271,3.50573 0.1527,3.50573 h 6.05477 6.05477 z m -6.41615,-55.77585 -1.52135,-0.0955 v -0.207 -0.207 l 1.52135,0.11224 1.52135,0.11224 0.79376,0.2164 0.79375,0.21639 -0.79375,-0.0262 -0.79376,-0.0262 z m -6.90495,-0.53208 -0.12316,-0.19844 2.53006,0.0633 2.53006,0.0633 0.13512,0.13512 0.13513,0.13513 h -2.54203 -2.54202 z m 4.58985,-2.99218 v -0.2802 l -0.30547,0.18879 -0.30546,0.18879 0.18879,-0.30547 0.18878,-0.30546 h 0.51356 0.51355 v 0.39688 0.39687 h -0.39688 -0.39687 z m 1.18795,-0.78245 -0.16618,-0.2689 -0.28719,0.17749 -0.28718,0.17749 0.16927,-0.27387 0.16926,-0.27388 0.65211,-0.12466 0.65211,-0.12465 0.12884,0.33575 0.12884,0.33575 -0.4018,0.15419 -0.40181,0.15419 h -0.095 -0.095 z m -54.769571,59.33713 -0.19241,-0.46302 -0.35199,-1.12309 -0.352,-1.12309 -0.37893,-0.86128 -0.37893,-0.86129 -0.3223,-0.92604 -0.32231,-0.92605 -0.21906,-0.52916 -0.21905,-0.52917 -0.68029,-1.96333 -0.68028,-1.96333 -0.004,-0.81479 -0.004,-0.8148 -0.26017,-0.39687 -0.26016,-0.39688 0.165,0.8599 0.16499,0.85989 h -0.23151 -0.23151 l -0.0275,-0.59531 -0.0275,-0.59531 -0.74308,-1.98438 -0.74308,-1.98437 -1.14657,-2.24896 -1.14657,-2.24896 -0.5504,-0.66146 -0.5504,-0.66146 0.15288,0.79375 0.15288,0.79375 0.27739,1.45521 0.27739,1.45521 0.24142,1.45521 0.24141,1.45521 0.4069,2.38125 0.40689,2.38125 0.26701,1.51386 0.26701,1.51387 -0.0572,0.20592 -0.0572,0.20593 0.43099,1.32292 0.43098,1.32291 0.20592,1.5875 0.20592,1.5875 0.0401,0.39688 0.0401,0.39687 0.0392,0.45272 0.0392,0.45272 2.3151,0.0882 2.31511,0.0882 0.62362,0.0544 0.62362,0.0544 z m 3.95819,-0.35347 -0.14572,-0.23578 0.42755,0.16406 0.42756,0.16407 -0.18272,-1.68845 -0.18271,-1.68845 -0.16496,-2.91042 -0.16495,-2.91042 -0.85989,-0.0829 -0.8599,-0.0829 v 0.28135 0.28135 h -1.56355 -1.56355 l 0.34075,1.25677 0.34075,1.25677 0.58528,1.45521 0.58527,1.45521 0.37039,1.08606 0.37039,1.08606 0.39751,0.95136 0.3975,0.95137 0.79536,-0.27726 0.79536,-0.27727 z m 36.332191,0.28732 h 0.92241 l -0.19996,-3.10885 -0.19995,-3.10886 -0.055,-8.33437 -0.055,-8.33438 -0.30552,-1.71979 -0.30551,-1.71979 -0.002,-1.34496 -0.002,-1.34497 -0.14249,-0.14249 -0.14249,-0.14249 -2.30491,1.22509 -2.30491,1.22508 -1.19062,0.3763 -1.19063,0.3763 -1.05833,0.45612 -1.05833,0.45611 -1.32292,0.45013 -1.32293,0.45013 -0.66145,0.29027 -0.66146,0.29026 -0.23932,0.1195 -0.23932,0.11951 0.19534,-0.31607 0.19534,-0.31607 -0.74977,0.17706 -0.74977,0.17705 -0.25136,0.23043 -0.25135,0.23042 -0.5424,0.008 -0.54239,0.008 -0.45891,0.34847 -0.458906,0.34848 0.172276,0.17228 0.17227,0.17227 h -0.573256 -0.57326 v 0.22292 0.22292 l -0.92605,0.49871 -0.92604,0.4987 v 0.16195 0.16195 l 0.67391,0.30705 0.67391,0.30705 h 0.51672 0.51672 v 0.39688 0.39687 h -0.26459 -0.26458 v -0.25628 -0.25628 l -0.39688,0.1523 -0.39687,0.15229 v 0.36857 0.36857 h -0.30868 -0.30868 l 0.15866,0.15866 0.15866,0.15866 0.97521,-0.32185 0.9752,-0.32184 0.229086,0.36162 0.2291,0.36162 0.004,0.86165 0.004,0.86165 -0.661456,0.57513 -0.66145,0.57513 v 0.70655 0.70655 l -0.28378,0.81404 -0.28378,0.81404 -0.82891,0.28896 -0.82891,0.28896 -0.61158,0.40073 -0.61158,0.40072 0.26255,0.49057 0.26254,0.49057 -0.69102,0.69102 -0.69103,0.69103 h -0.46069 -0.46069 l -0.32937,0.39687 -0.32938,0.39688 h 0.21526 0.21526 l -0.43664,0.33072 -0.43664,0.33073 -0.0552,1.49911 -0.0552,1.4991 -0.61809,0.28162 -0.6181,0.28163 -0.32721,-0.52396 -0.32722,-0.52395 h -0.17645 -0.17645 l -0.0906,1.45556 -0.0906,1.45557 0.28826,-3.6e-4 0.28826,-3.6e-4 0.352,-0.7276 0.35199,-0.72761 0.10436,0.45059 0.10436,0.45059 0.4958,0.15736 0.49581,0.15737 0.0825,0.69456 0.0825,0.69456 0.31722,0.10409 0.31722,0.1041 0.60882,-0.69562 0.60882,-0.69562 0.16713,-0.71099 0.16714,-0.71099 0.0313,0.7114 0.0313,0.71139 1.1492,0.17233 1.1492,0.17234 0.62008,-0.09 0.62009,-0.09 -0.44683,-0.44458 -0.44683,-0.44458 0.28364,-0.74604 0.28365,-0.74605 -0.0847,-0.13229 -0.0847,-0.13229 0.7276,-0.0267 0.72761,-0.0267 v 0.62856 0.62856 l 0.727596,0.28738 0.7276,0.28738 1.45521,0.35811 1.45521,0.3581 1.52135,0.009 1.52137,0.009 v 0.2 0.19999 l 0.7276,0.31178 0.72761,0.31178 1.5875,0.28373 1.5875,0.28373 1.32291,0.0957 1.32292,0.0957 1.16141,-0.0975 1.1614,-0.0975 z m -47.584501,-1.19805 -0.25691,-1.05091 -0.16043,-0.92604 -0.16044,-0.92604 -0.0311,-1.5875 -0.0311,-1.5875 -0.33073,-0.34963 -0.33073,-0.34963 v -0.69277 -0.69278 l -0.28501,-1.60343 -0.28502,-1.60343 -0.23202,-1.32291 -0.23202,-1.32292 -0.2718,-1.5875 -0.2718,-1.5875 -0.40127,-2.49097 -0.40126,-2.49097 -0.10578,-0.10578 -0.10578,-0.10578 -0.95308,0.1788 -0.95307,0.1788 v 0.36363 0.36363 l 0.26089,1.12828 0.26089,1.12828 0.57459,2.37094 0.57459,2.37095 0.21887,0.27489 0.21886,0.27488 0.66544,0.83195 0.66545,0.83194 -0.008,0.49097 -0.008,0.49098 -0.37744,0.49852 -0.37744,0.49852 0.16376,2.12366 0.16377,2.12366 0.48667,0.48667 0.48668,0.48668 v 1.04271 1.04272 l 0.26458,0.16352 0.26458,0.16352 v 1.25674 1.25673 l 0.33073,0.41701 0.33073,0.41701 0.39688,0.1265 0.39687,0.12651 0.0515,-0.0374 0.0515,-0.0374 z m 15.15276,-3.71557 0.44838,-4.2145 0.0154,-0.59532 0.0154,-0.59531 h -0.29075 -0.29074 l -0.83374,0.36855 -0.83373,0.36855 -0.49261,0.16367 -0.4926,0.16366 0.15678,1.12143 0.15679,1.12143 0.16135,3.17291 0.16135,3.1729 0.10959,0.17731 0.10958,0.17732 0.72556,-0.19405 0.72556,-0.19404 z m 2.55267,2.63803 0.57239,-1.17815 v -0.50647 -0.50648 l 0.24108,-0.14899 0.24108,-0.14899 -0.0606,-0.9911 -0.0606,-0.9911 -0.21692,-0.79375 -0.21693,-0.79375 -0.26049,-0.33073 -0.2605,-0.33073 h -0.38069 -0.38069 l 0.14213,1.25677 0.14213,1.25677 -0.20978,-0.66146 -0.20977,-0.66146 -0.16886,1.32292 -0.16886,1.32292 -0.17691,2.1666 -0.17691,2.16661 0.5187,-0.13564 0.51869,-0.13564 z m -22.04591,-7.34452 -0.44327,-1.88926 -0.17703,-0.64334 -0.17703,-0.64334 -0.26458,0.11417 -0.26458,0.11417 0.0331,0.52917 0.0331,0.52917 0.25976,1.19062 0.25976,1.19063 0.50085,1.14023 0.50086,1.14024 0.0911,-0.4416 0.0911,-0.44159 z m 24.16019,-0.89708 0.27325,-0.85989 h -0.26254 -0.26255 l -1.30648,0.42733 -1.30649,0.42733 v 0.64662 0.64662 l 0.22157,-0.13694 0.22157,-0.13694 0.90291,0.75661 0.90291,0.75661 0.1713,-0.83373 0.1713,-0.83372 z m 1.71447,0.33073 0.14762,-1.5875 -0.21548,0.79375 -0.21548,0.79375 -0.0313,0.904 -0.0313,0.90399 0.0992,-0.11024 0.0992,-0.11025 z m -14.6118,-1.19062 h 0.50752 v -0.2126 -0.2126 l -1.30141,-0.70288 -1.30142,-0.70288 0.22214,0.77457 0.22214,0.77457 0.18,0.29124 0.18,0.29124 0.39175,-0.15033 0.39175,-0.15033 z m 4.19803,-1.94742 1.17697,-0.35188 0.11183,-0.3355 0.11183,-0.33549 0.2527,0.36066 0.2527,0.36067 -0.11936,-0.39687 -0.11936,-0.39688 -0.33078,0.0772 -0.33077,0.0772 -0.45809,-0.41457 -0.45809,-0.41456 0.12518,-0.65481 0.12517,-0.6548 h -0.29543 -0.29542 l -0.004,0.46302 -0.004,0.46302 -0.25648,-0.39688 -0.25648,-0.39687 -0.004,0.4474 -0.004,0.44741 -0.26155,0.16165 -0.26156,0.16165 0.16948,-0.47677 0.16948,-0.47676 0.38979,-0.45432 0.38979,-0.45432 -0.14042,-0.537 -0.14043,-0.53699 1.0319,0.165 1.0319,0.16501 0.35651,-0.29587 0.35651,-0.29588 0.14819,0.1482 0.14819,0.14819 1.53351,-0.28348 1.53352,-0.28349 0.71329,-0.68338 0.7133,-0.68338 0.28403,-1.10185 0.28403,-1.10186 0.1102,-0.52916 0.11021,-0.52917 0.0307,0.59531 0.0307,0.59532 h 0.29173 0.29174 l 1.2955,-0.72761 1.29549,-0.7276 2.7e-4,-0.32394 2.7e-4,-0.32393 0.7276,-0.37842 0.72761,-0.37843 0.62871,-0.54826 0.6287,-0.54827 -0.69485,-0.26418 -0.69485,-0.26418 v -0.14402 -0.14401 l 0.7276,0.1549 0.7276,0.15491 1.124475,0.14926 1.12448,0.14926 v 0.35743 0.35742 l -0.7276,0.15672 -0.727605,0.15672 -0.92604,0.49013 -0.92604,0.49013 -1.38906,0.73638 -1.38906,0.73638 v 0.20931 0.20931 h -0.39688 -0.39687 v 0.26459 0.26458 h 0.38748 0.38749 l 1.22286,-0.68271 1.22285,-0.68272 0.13361,0.13361 0.13361,0.13361 -0.17428,0.5491 -0.17428,0.54911 h -0.35682 -0.35681 l -0.85178,1.07545 -0.85177,1.07546 0.30038,0.30038 0.30037,0.30038 v -0.39275 -0.39275 l 0.77765,-0.45936 0.77765,-0.45937 0.16622,-0.52372 0.16623,-0.52372 h 0.31445 0.31446 l 0.35135,-0.79375 0.35135,-0.79375 h 0.35265 0.35265 l 0.13419,0.33073 0.1342,0.33073 0.21858,-0.26459 0.218575,-0.26458 0.59172,-0.33073 0.59173,-0.33073 h 0.42576 0.42577 l 0.8346,-0.58256 0.83459,-0.58257 0.132286,-0.14599 0.13229,-0.146 0.79375,-0.0867 0.79375,-0.0867 0.52917,-0.32426 0.52916,-0.32426 1.19063,-0.34557 1.19062,-0.34557 0.70232,-0.4993 0.7023,-0.4993 h 0.75561 0.75561 l 0.71335,-0.66146 0.71335,-0.66145 h 0.54072 0.54071 l 0.003,-0.19844 0.003,-0.19844 1.03897,-0.49764 1.03897,-0.49765 0.72729,-0.75912 0.72729,-0.75913 h 0.23686 0.23686 l 1.30114,-1.29432 1.30114,-1.29431 v -0.28388 -0.28387 l -0.51178,-0.27389 -0.51177,-0.2739 h -0.17173 -0.17174 l 0.11859,0.33073 0.11859,0.33073 -0.25727,0.49877 -0.25727,0.49876 -0.20722,-0.33528 -0.20722,-0.33529 -0.1656,0.52176 -0.1656,0.52176 -0.72322,0.3731 -0.72322,0.37309 -0.60987,0.59784 -0.60988,0.59785 -0.86763,0.36252 -0.86763,0.36252 -0.63917,0.62713 -0.63916,0.62714 -0.79375,0.0931 -0.79375,0.0931 -0.52916,0.27726 -0.52917,0.27725 -0.13229,0.18747 -0.13229,0.18747 -2.17074,0.69896 -2.17072,0.69897 h -0.16 -0.15999 l 0.16352,-0.26458 0.16352,-0.26459 h 0.40742 0.40742 l 0.96603,-0.42758 0.96603,-0.42758 1.58751,-0.80819 1.5875,-0.8082 0.52916,-0.28558 0.52917,-0.28558 0.13229,-0.13476 0.13229,-0.13477 1.19063,-0.76484 1.19062,-0.76483 1.78594,-1.31959 1.78594,-1.31959 v -0.19776 -0.19775 l -1.91823,0.11063 -1.91823,0.11063 -0.83514,0.22764 -0.83514,0.22763 -0.32815,-0.30257 -0.32816,-0.30257 0.18672,0.33073 0.18673,0.33073 h -0.40759 -0.40759 l 0.0984,-1.65364 0.0984,-1.65365 0.033,-0.66146 0.033,-0.66146 0.28549,0.39688 0.28549,0.39687 -0.1719,-0.52284 -0.17191,-0.52284 0.17482,-1.63247 0.17483,-1.63246 0.30285,0.0461 0.30285,0.0461 0.33073,0.20661 0.33073,0.20662 0.004,0.57969 0.004,0.5797 0.25648,-0.39687 0.25648,-0.39688 0.0354,0.26458 0.0354,0.26459 -0.0379,0.2181 -0.0379,0.21811 0.25958,-0.16044 0.25959,-0.16043 -0.13533,-0.35266 -0.13533,-0.35266 0.50035,-0.89563 0.50036,-0.89564 0.50642,-0.004 0.50643,-0.004 0.30589,-0.19464 0.30589,-0.19465 -0.13239,-0.50625 -0.13239,-0.50625 0.51932,-0.27793 0.51931,-0.27793 0.15577,0.15577 0.15576,0.15576 -0.15778,-1.02497 -0.15778,-1.02497 -0.22778,-0.44563 -0.22778,-0.44562 -0.001,-0.61271 -0.001,-0.61271 -0.60644,1.00176 -0.60643,1.00176 -0.16826,-0.16826 -0.16826,-0.16826 0.23473,-0.56891 0.23474,-0.56892 0.55102,-2.2855 0.55103,-2.2855 0.52977,-1.09651 0.52978,-1.09651 -0.14109,-0.22828 -0.14109,-0.22829 0.37998,-0.14581 0.37998,-0.14582 -0.0333,-0.47722 -0.0333,-0.47722 0.71349,-1.12448 0.71349,-1.12448 h -0.17142 -0.17142 l -0.59788,0.64513 -0.59789,0.64512 -0.15181,-0.15181 -0.15181,-0.15181 1.10101,-1.56959 1.10101,-1.5696 0.50384,-0.26964 0.50384,-0.26965 1.62805,0.19902 1.62805,0.19903 -0.61234,0.15504 -0.61234,0.15505 0.80802,0.77413 0.80801,0.77412 0.13514,-0.13513 0.13514,-0.13514 0.0564,-2.09453 0.0564,-2.09453 -0.22684,-0.92605 -0.22683,-0.92604 0.19343,0.17748 0.19343,0.17747 0.26452,1.01315 0.26451,1.01315 -0.0559,1.05834 -0.0559,1.05833 -0.0333,1.16659 -0.0333,1.16658 0.31203,0.106 0.31203,0.106 0.23966,-1.14029 0.23965,-1.1403 -0.39572,-0.46464 -0.39573,-0.46464 0.18916,-0.18916 0.18915,-0.18915 0.18405,0.25692 0.18405,0.25692 0.61957,0.34812 0.61958,0.34813 0.37644,-0.48042 0.37645,-0.48041 -0.07,0.39687 -0.07,0.39688 1.29118,0.082 1.29118,0.082 -0.17808,-0.46408 -0.17809,-0.46409 0.49524,0.44818 0.49524,0.44819 h 0.30159 0.30159 l -0.14396,-0.46302 -0.14397,-0.46302 0.29771,0.46302 0.29771,0.46302 h 0.51602 0.51602 l -0.004,-0.59531 -0.004,-0.59531 -0.25648,0.39687 -0.25648,0.39688 -0.004,-0.33073 -0.004,-0.33073 h -0.39688 -0.39687 v -0.30055 -0.30055 l 1.22755,0.16826 1.22755,0.16825 h 1.18413 1.18413 l -0.42971,0.65582 -0.42971,0.65581 0.59772,0.12417 0.59771,0.12417 1.51564,0.10121 1.51564,0.1012 0.29081,-0.88119 0.29082,-0.88119 h 0.54105 0.54104 l -0.25876,0.33073 -0.25877,0.33073 -0.14969,0.61042 -0.14968,0.61042 0.30595,-0.10198 0.30595,-0.10198 0.24067,-0.83917 0.24067,-0.83917 0.55704,0.004 0.55704,0.004 0.39687,0.25648 0.39688,0.25648 -0.26459,0.006 -0.26458,0.006 -0.30584,0.65939 -0.30583,0.6594 h 0.78775 0.78776 l 0.39644,-0.39644 0.39643,-0.39643 -0.0846,-0.59576 -0.0846,-0.59575 -1.5875,-0.0681 -1.5875,-0.0681 -0.59531,-0.13537 -0.59531,-0.13537 v -0.25955 -0.25954 h 0.52916 0.52917 v 0.3175 0.3175 l 0.3175,-0.3175 0.3175,-0.3175 h 0.89052 0.89052 l 0.51177,0.27389 0.51177,0.27389 v -0.40618 -0.40618 h -1.42213 -1.42214 l -0.82682,-0.16537 -0.82682,-0.16536 v -0.23151 -0.23151 h 0.50711 0.50712 l 0.1342,0.33073 0.1342,0.33073 0.25137,-0.35852 0.25136,-0.35851 1.35644,0.0939 1.35644,0.0939 -1.6e-4,-0.19844 -1.7e-4,-0.19844 h -0.62838 -0.62839 l -0.82682,-0.16536 -0.82682,-0.16537 v -0.23151 -0.23151 l 1.52135,-0.0457 1.52136,-0.0457 -3.04271,-0.18403 -3.04271,-0.18403 -1.65365,-0.0348 -1.65364,-0.0348 v -0.41249 -0.41249 l 0.29472,0.18214 0.29471,0.18215 2.08654,-0.0445 2.08653,-0.0445 0.004,0.34103 0.004,0.34103 0.25246,-0.39688 0.25246,-0.39687 0.47109,0.26458 0.47109,0.26459 1.52136,-0.0794 1.52135,-0.0794 v -0.25138 -0.25138 h -2.11667 -2.11666 v -0.39688 -0.39687 h 0.67707 0.67707 l -0.18672,0.33073 -0.18672,0.33073 0.33957,-0.31398 0.33956,-0.31398 1.28675,0.15239 1.28675,0.1524 v -0.30144 -0.30144 h -1.32292 -1.32291 v -0.43053 -0.43054 l 1.32291,0.12711 1.32292,0.12712 v -0.21125 -0.21125 l -1.23609,-0.0806 -1.23609,-0.0806 -0.10887,-0.33073 -0.10888,-0.33073 1.41111,-0.0313 1.41111,-0.0313 -1.25677,-0.26192 -1.25677,-0.26193 v -0.23596 -0.23596 l 1.25677,-0.0364 1.25677,-0.0364 -1.25677,-0.27249 -1.25677,-0.2725 v -0.22024 -0.22024 h 1.19063 1.19062 v -0.26458 -0.26458 h -1.19062 -1.19063 v -0.2808 -0.28079 l 1.19063,0.17854 1.19062,0.17855 v -0.26046 -0.26046 l -2.18281,-0.17565 -2.18281,-0.17564 -1.52136,-0.15728 -1.52135,-0.15728 v -0.22045 -0.22046 l 1.65364,0.1391 1.65365,0.13909 2.05087,0.0494 2.05088,0.0494 -3.6e-4,-0.18223 -3.5e-4,-0.18222 -1.12448,-0.13988 -1.12448,-0.13988 -1.45521,-0.13449 -1.4552,-0.1345 -1.12448,-0.006 -1.12448,-0.006 v -0.2845 -0.2845 l 1.65364,0.16395 1.65365,0.16395 0.92604,0.0118 0.92604,0.0118 1.12448,-0.0236 1.12448,-0.0236 v -0.26458 -0.26458 h -1.85208 -1.85209 v -0.28453 -0.28452 l 0.72761,0.048 0.7276,0.048 1.12448,-0.028 1.12448,-0.028 v -0.26458 -0.26459 h -1.05833 -1.05834 v -0.26458 -0.26458 h 1.05834 1.05833 v -1.71979 -1.7198 H 92.98378 42.97753 v 0.37784 0.37784 l 1.38906,0.14387 1.38907,0.14387 3.0427,0.29484 3.04271,0.29483 1.98438,0.34077 1.98437,0.34077 -2.3151,0.0333 -2.31511,0.0333 v 10.14656 10.14655 l -2.57968,0.17083 -2.57969,0.17083 -1.52136,0.001 -1.52135,0.001 v 5.98395 5.98395 l 1.78594,-0.22926 1.78594,-0.22926 1.78593,0.0443 1.78594,0.0443 v -0.2768 -0.2768 l 1.27036,0.16852 1.27037,0.16852 1.23708,-0.16956 1.23708,-0.16956 -0.11047,-0.17875 -0.11047,-0.17875 2.24286,0.0154 2.24286,0.0154 0.20196,-0.32674 0.20196,-0.32674 4.35247,-0.40506 4.35248,-0.40506 2.24896,-0.26034 2.24896,-0.26034 3.27789,-0.26136 3.2779,-0.26137 2.14606,0.12999 2.14606,0.12999 2.97657,0.30655 2.97656,0.30655 v 3.13207 3.13207 l -1.78594,0.0271 -1.78594,0.0271 0.92605,0.25026 0.92604,0.25026 0.26458,0.001 0.26458,0.001 1.12448,-0.18129 1.12448,-0.1813 v 0.26274 0.26273 l 0.66146,-0.12645 0.66146,-0.12645 v -0.26204 -0.26205 l 0.39687,0.1523 0.39688,0.15229 v -0.32398 -0.32398 l 0.78803,-0.34882 0.78803,-0.34882 0.54507,0.173 0.54507,0.173 0.686434,1.03727 0.68644,1.03727 h 0.0604 0.0604 l -0.2894,-1.12448 -0.28939,-1.12448 -0.22561,-0.16187 -0.22562,-0.16187 0.0226,-0.16886 0.0226,-0.16885 v -0.52917 -0.52917 H 95.67376 95.18869 v -0.39687 -0.39688 h 0.16757 0.16757 l 0.3175,0.3175 0.317504,0.3175 v -0.35798 -0.35798 l 0.52917,0.61013 0.52916,0.61013 v 0.47307 0.47307 l 0.26459,0.16352 0.26458,0.16352 v -0.51647 -0.51648 l 0.45604,-0.17499 0.45604,-0.175 0.29068,0.39752 0.29067,0.39753 0.44132,-0.51542 0.441306,-0.51542 0.46561,0.0307 0.46561,0.0307 -0.43586,0.11577 -0.43587,0.11577 -0.186636,0.58114 -0.18664,0.58114 -0.0794,0.31495 -0.0794,0.31494 -0.30156,0.91375 -0.30156,0.91374 0.54042,0.95412 0.540406,0.95413 0.47654,0.85989 0.47655,0.8599 0.34045,1.16662 0.34046,1.16663 0.37363,0.37363 0.37362,0.37362 v 1.02699 1.02698 l -0.24627,0.60777 -0.24627,0.60776 -0.1628,0.75611 -0.1628,0.75612 -0.71541,-0.15935 -0.71541,-0.15934 -3.032636,-0.39834 -3.032653,-0.39833 h -0.0762 -0.0762 v -0.39687 -0.39688 h -0.35075 -0.35076 l -0.61374,-0.6533 -0.61375,-0.6533 -0.20784,0.12845 -0.20784,0.12845 -0.16619,-0.2689 -0.16619,-0.2689 1.0078,-0.0186 1.0078,-0.0186 -0.48348,-0.19048 -0.48348,-0.19048 -1.69899,0.0106 -1.69898,0.0106 -0.11175,-0.26459 -0.11175,-0.26458 -0.0209,1.12448 -0.0209,1.12448 0.59531,0.0304 0.59531,0.0304 -0.92604,0.21405 -0.92604,0.21404 -1.05834,0.30171 -1.05833,0.30171 -1.11134,0.23712 -1.11135,0.23713 -0.5067,0.31644 -0.5067,0.31644 0.12755,0.48775 0.12755,0.48776 0.43216,0.008 0.43216,0.008 -0.46302,0.35148 -0.46302,0.35148 v 0.43386 0.43385 h -0.26458 -0.26458 v 0.51672 0.51671 l -0.30706,0.67391 -0.30705,0.67391 h -0.22211 -0.22212 v 0.24356 0.24356 l 0.79606,0.17484 0.79606,0.17485 -0.12659,0.20483 -0.1266,0.20483 0.64857,-0.12398 0.64856,-0.12398 0.73249,0.20019 0.73249,0.20019 -0.66145,0.20022 -0.66146,0.20023 -0.75202,0.0264 -0.75202,0.0264 -0.67272,-0.52916 -0.67273,-0.52917 h -0.66678 -0.66679 l 0.43788,-0.48386 0.43789,-0.48385 v -0.97494 -0.97495 l -0.33073,-0.53365 -0.33073,-0.53365 0.31405,-0.19567 0.31406,-0.19567 0.53795,-1.25499 0.53795,-1.25499 -0.236,-0.62072 -0.23599,-0.62072 -0.83876,-0.16775 -0.83876,-0.16775 -0.1346,-0.51472 -0.13461,-0.51473 -0.62647,0.71141 -0.62647,0.71141 -0.008,-0.31758 -0.008,-0.31759 0.33073,-0.21158 0.33073,-0.21159 0.32644,-0.58485 0.32644,-0.58485 -0.16888,-0.47348 -0.16889,-0.47348 0.67341,0.7611 0.6734,0.7611 0.29049,-0.17953 0.29049,-0.17953 -0.14447,0.37647 -0.14447,0.37648 0.41844,0.16057 0.41844,0.16057 0.24146,0.60117 0.24145,0.60118 0.0168,-0.7073 0.0168,-0.70731 -0.67849,-0.80634 -0.67849,-0.80634 0.87693,-0.36954 0.87693,-0.36955 1.1622,0.10367 1.1622,0.10366 -0.30001,-0.36148 -0.30001,-0.36149 0.16419,-0.16419 0.16419,-0.16418 -0.62951,-0.24066 -0.6295,-0.24065 -0.92775,-0.29224 -0.92774,-0.29225 -1.01318,0.16442 -1.01318,0.16442 -0.22512,0.55701 -0.22511,0.55701 -0.0168,-0.72761 -0.0168,-0.7276 h -0.24618 -0.24618 l -0.0846,0.57866 -0.0845,0.57866 -0.39687,-0.38022 -0.39688,-0.38023 -0.26458,-0.0147 -0.26458,-0.0148 -0.79375,-0.18789 -0.79375,-0.1879 -1.12279,-0.2589 -1.12279,-0.2589 -1.08144,0.4327 -1.08143,0.43271 0.29104,0.17987 0.29105,0.17988 -0.73266,0.37772 -0.73265,0.37771 -0.19036,0.26501 -0.19037,0.265 -0.53365,-0.33072 -0.53365,-0.33073 h -0.15149 -0.1515 l 0.16352,0.26458 0.16352,0.26458 -1.53697,0.001 -1.53697,0.001 -0.99218,0.27555 -0.99219,0.27554 v 0.22237 0.22236 l 0.80763,0.6251 0.80762,0.62509 0.64758,0.58268 0.64759,0.58268 v 0.15172 0.15172 l -0.81834,-0.42318 -0.81834,-0.42318 -0.14557,0.14557 -0.14558,0.14558 0.50089,0.18827 0.50089,0.18826 0.30886,0.41253 0.30885,0.41252 -0.27269,0.32856 -0.27268,0.32857 -0.28519,-0.17626 -0.28519,-0.17625 -1.47077,-0.0715 -1.47077,-0.0715 -1.5875,-0.29437 -1.5875,-0.29438 -0.92604,-0.23697 -0.92604,-0.23698 -1.98438,-0.15688 -1.98437,-0.15689 -1.45521,-0.2735 -1.45521,-0.2735 -1.65364,-0.13308 -1.65365,-0.13308 v 0.28716 0.28716 h -0.78995 -0.78996 l -1.19442,0.31946 -1.19442,0.31946 v 4.17846 4.17845 h 0.38443 0.38442 l 0.60776,-0.23479 0.60777,-0.23478 1.4552,-0.31899 1.45521,-0.31899 0.92604,-0.30471 0.92605,-0.30471 0.21858,-0.26599 0.21858,-0.266 0.12492,0.30293 0.12493,0.30292 0.71483,-0.23312 0.71482,-0.23313 1.57237,-0.35741 1.57236,-0.35742 0.41201,-1.16759 0.41201,-1.16759 0.26459,-0.42718 0.26458,-0.42717 0.90579,-0.46325 0.90579,-0.46325 1.21088,0.006 1.21087,0.006 0.74353,0.28906 0.74352,0.28905 -0.18909,0.30596 -0.18909,0.30596 0.31417,-0.19417 0.31417,-0.19417 0.97521,0.57539 0.97521,0.57539 0.89155,-0.14468 0.89154,-0.14467 -0.1413,0.36822 -0.1413,0.36822 0.79103,0.34654 0.79104,0.34654 -0.0778,0.78552 -0.0778,0.78551 0.66146,0.34431 0.66146,0.3443 0.8599,-0.14962 0.85989,-0.14962 v 0.38409 0.3841 l -0.57054,-0.1492 -0.57054,-0.1492 0.20074,0.3248 0.20074,0.32481 0.56824,0.23054 0.56824,0.23054 -0.79375,-0.034 -0.79375,-0.034 -0.74284,-0.50851 -0.74284,-0.5085 -0.16115,0.16115 -0.16116,0.16116 h 0.26466 0.26466 l 1.05259,0.99219 1.05259,0.99218 0.54549,0.79375 0.54548,0.79375 0.7461,1.43393 0.74609,1.43393 0.10315,-0.30945 0.10315,-0.30945 h 0.60502 0.60503 l 0.33196,1.25677 0.33196,1.25677 0.30033,0.92605 0.30033,0.92604 0.49292,0.81833 0.49292,0.81832 0.69511,0.43141 0.69511,0.4314 1.19063,0.003 1.19062,0.003 z m 7.83891,-11.77849 -0.14882,-0.24079 0.41062,-0.98275 0.41062,-0.98275 0.1363,0.13631 0.1363,0.1363 -0.41246,0.7976 -0.41245,0.7976 0.31377,0.10458 0.31376,0.10459 -0.29941,0.18505 -0.29942,0.18505 z m 8.578915,-1.12628 v -0.22906 l 0.19843,-0.01 0.19844,-0.01 1.05834,-0.14994 1.05833,-0.14995 -0.18795,0.19355 -0.18795,0.19355 -1.06882,0.19544 -1.06882,0.19545 z m -27.688895,-0.794 0.13231,-0.43264 -0.39192,-0.55955 -0.39192,-0.55954 h -0.51416 -0.51416 v -0.54656 -0.54656 l -0.2739,-0.51177 -0.27389,-0.51177 h 0.39118 0.39118 l 0.41188,0.58803 0.41188,0.58804 v 0.3871 0.3871 l 0.55462,0.59036 0.55463,0.59037 -0.31002,0.48502 -0.31002,0.48502 z m 3.08265,-3.28891 v -0.14969 l 0.27389,-0.51177 0.27389,-0.51177 0.45371,0.0186 0.45371,0.0186 -0.52916,0.22739 -0.52917,0.22739 0.36313,0.0186 0.36312,0.0186 -0.32937,0.39688 -0.32938,0.39687 h -0.23219 -0.23218 z m 4.18971,-0.3154 -0.44049,-0.0942 -0.13811,-0.35991 -0.13812,-0.35992 0.3652,-0.14014 0.36519,-0.14014 -0.12301,-0.74165 -0.12302,-0.74166 0.25282,0.38425 0.25283,0.38424 -0.13045,0.21107 -0.13045,0.21107 h 0.38246 0.38246 l 0.11003,0.74965 0.11002,0.74965 -0.27843,-0.009 -0.27844,-0.009 z m -2.17681,-1.0498 -0.16082,-0.16081 v -0.35278 -0.35278 h 0.51355 0.51355 l 0.1308,0.21163 0.13079,0.21163 -0.48353,0.30196 -0.48353,0.30197 z m 16.11105,-0.60178 -0.79375,-0.20198 0.79375,-0.0161 0.79375,-0.016 1.05834,0.21891 1.05833,0.21891 -1.05833,-8.8e-4 -1.05834,-8.8e-4 z m 9.833681,-7.84931 -0.17639,-0.17639 0.0186,-0.8158 0.0186,-0.8158 0.22739,0.52917 0.22739,0.52917 0.0186,-0.74322 0.0186,-0.74322 -0.23991,0.14827 -0.23991,0.14827 0.13848,-0.52953 0.13847,-0.52953 h 0.23373 0.23372 v 1.5875 1.5875 h -0.22048 -0.22049 z m -9.075911,-3.84566 -0.21539,-0.34358 0.0854,-0.52916 0.0854,-0.52917 0.27116,-0.33073 0.27116,-0.33073 -0.36312,-0.0186 -0.36313,-0.0186 0.97747,-0.35929 0.97747,-0.35929 0.74232,0.2229 0.74232,0.2229 -1.12447,0.0227 -1.12448,0.0227 v 0.26458 0.26459 h 0.26458 0.26458 l -0.004,0.46302 -0.004,0.46302 -0.22371,-0.35292 -0.22371,-0.35291 -0.16997,0.44294 -0.16997,0.44293 0.13023,0.21073 0.13024,0.21073 -0.37041,0.30741 -0.3704,0.30741 z m 9.533281,-1.45498 0.10613,-1.11141 -0.26667,-0.0889 -0.26666,-0.0889 0.39498,-0.32781 0.39499,-0.32781 0.11005,0.33748 0.11005,0.33748 -0.3445,1.19063 -0.3445,1.19062 z m 8.80988,-0.4761 0.14762,-1.5875 0.0992,-0.11024 0.0992,-0.11024 -0.0313,0.90399 -0.0313,0.90399 -0.21548,0.79375 -0.21547,0.79375 z m -5.47489,-0.41426 v -0.28198 l 0.26112,-0.48791 0.26112,-0.48791 0.59877,0.14664 0.59879,0.14665 0.33073,0.25876 0.33073,0.25877 v -0.27493 -0.27494 l -0.30253,-0.10084 -0.30252,-0.10084 0.30184,-0.564 0.30184,-0.564 -0.59463,-0.48811 -0.59464,-0.48811 -0.0475,-0.25816 -0.0475,-0.25816 -0.42631,-0.92604 -0.42632,-0.92604 0.0973,0.85989 0.0973,0.8599 h -0.25472 -0.25473 l 0.16554,-1.20774 0.16554,-1.20774 -0.2716,-1.21194 -0.2716,-1.21193 0.6766,-1.0224 0.67659,-1.0224 0.16285,-1.18813 0.16286,-1.18814 h -0.68181 -0.68181 l -0.17777,-0.28763 -0.17776,-0.28763 -0.53508,0.13992 -0.53507,0.13993 -0.79021,-0.79021 -0.79021,-0.7902 0.17891,-0.17891 0.1789,-0.1789 0.21655,0.35038 0.21655,0.35039 0.51843,-0.27746 0.51843,-0.27745 0.36639,-0.47747 0.36639,-0.47746 -0.2297,0.19432 -0.2297,0.19433 -0.29074,-0.38864 -0.29075,-0.38863 -0.59531,0.15902 -0.59531,0.15902 v 0.35771 0.35772 l -0.39688,-0.1523 -0.39687,-0.15229 v -0.19157 -0.19157 l 0.66146,-0.354 0.66145,-0.354 v -0.25685 -0.25685 l -0.46302,-0.35149 -0.46302,-0.35148 0.42202,-0.008 0.42201,-0.008 0.50403,0.5604 0.50403,0.56039 0.52779,0.19701 0.5278,0.19701 0.72897,-0.25412 0.72899,-0.25412 v -0.76787 -0.76787 h -0.4252 -0.42518 l 0.14544,-0.37901 0.14544,-0.37901 0.16579,-1.53921 0.1658,-1.53922 -0.97489,-0.65032 -0.97488,-0.65032 -1.0812,0.0431 -1.08119,0.0431 -0.31996,-0.26554 -0.31996,-0.26554 -0.1794,0.29028 -0.1794,0.29028 -0.33822,-0.2807 -0.338206,-0.28069 -0.32966,0.39722 -0.32967,0.39723 -0.21632,-0.1337 -0.21633,-0.13369 -0.14905,0.24117 -0.14905,0.24118 0.41212,0.15815 0.41213,0.15814 -0.17336,0.2805 -0.17335,0.28049 0.56885,0.49336 0.568846,0.49337 -0.478406,0.27766 -0.47841,0.27767 1.719776,-0.11304 1.71979,-0.11305 -0.7276,0.27606 -0.7276,0.27607 v 0.26036 0.26037 l 0.59531,-0.18251 0.59531,-0.1825 0.30718,-0.24505 0.30717,-0.24505 0.17146,0.27743 0.17146,0.27743 h -0.41249 -0.41249 v 0.44219 0.44219 l 0.41411,0.45759 0.41412,0.45758 -0.22612,0.13975 -0.22611,0.13974 -1.15386,-0.77493 -1.15385,-0.77494 h -0.22477 -0.22477 l -0.004,0.59531 -0.004,0.59532 -0.233816,-0.36929 -0.23383,-0.36928 -0.3896,0.1495 -0.3896,0.14951 -0.53488,-0.72347 -0.53488,-0.72347 -0.49129,-1.40953 -0.49128,-1.40954 -0.883119,-0.37245 -0.88312,-0.37245 0.18005,-0.44977 0.18005,-0.44976 0.1445,-1.52136 0.14451,-1.52135 h 0.22783 0.227839 v -0.41396 -0.41396 l 0.79375,-0.66789 0.79375,-0.6679 v -0.51828 -0.51828 l 0.66146,-0.61302 0.66146,-0.61302 v -0.30039 -0.30039 l 0.19843,-0.0179 0.19844,-0.0179 0.844876,-0.11056 0.84488,-0.11057 1.13949,-0.44396 1.1395,-0.44396 1.98437,-0.0666 1.98439,-0.0666 0.89879,0.423 0.8988,0.42299 1.03284,1.01239 1.03284,1.01239 0.64547,1.3864 0.64546,1.3864 0.003,2.4557 0.003,2.4557 -0.40362,0.15488 -0.40363,0.15489 0.29635,0.35708 0.29635,0.35708 -0.11572,0.33963 -0.11571,0.33962 0.66122,1.05245 0.66123,1.05244 0.35349,0.35349 0.35349,0.35349 0.21623,-0.13364 0.21623,-0.13365 -0.0437,-1.54295 -0.0438,-1.54295 0.40908,-0.38213 0.40907,-0.38213 -0.1826,0.47585 -0.1826,0.47585 0.39682,0.56654 0.39682,0.56654 v -0.57242 -0.57242 l 0.2689,-0.16619 0.2689,-0.16619 -0.17543,-0.31245 -0.17542,-0.31244 0.36954,0.3638 0.36955,0.3638 -0.33073,0.12127 -0.33073,0.12126 v 0.68998 0.68998 l 0.35649,-0.48752 0.35649,-0.48753 0.21356,0.34555 0.21355,0.34554 -0.3716,-0.21199 -0.37161,-0.21198 0.3638,0.36954 0.3638,0.36955 0.12127,-0.33073 0.12126,-0.33073 h 0.37483 0.37483 v -0.26459 -0.26458 h -0.66146 -0.66146 v -0.26962 -0.26963 l 0.66445,0.16677 0.66445,0.16676 -0.16359,-0.4263 -0.16359,-0.42631 h -0.26867 -0.26868 l 0.35441,-0.46302 0.3544,-0.46302 -0.2297,0.19432 -0.2297,0.19433 -0.34847,-0.45891 -0.34848,-0.45891 -0.004,-0.26458 -0.004,-0.26459 0.25648,0.39688 0.25648,0.39687 0.004,-0.87551 0.004,-0.87551 0.22891,0.14147 0.2289,0.14147 -0.0733,0.6679 -0.0733,0.66789 h 0.12789 0.1279 l 0.44412,-0.44822 0.44412,-0.44821 -0.46302,0.17533 -0.46302,0.17533 v -0.2158 -0.2158 l 0.53084,-0.61206 0.53085,-0.61207 -0.14836,-0.14836 -0.14835,-0.14836 -0.24615,0.38922 -0.24615,0.38921 -0.004,-0.32142 -0.004,-0.32142 0.51178,-0.27389 0.51177,-0.2739 h 0.1653 0.1653 l -0.19115,0.3093 -0.19116,0.30929 -0.0628,0.6829 -0.0628,0.68289 -0.0262,1.38906 -0.0263,1.38906 h -0.28019 -0.2802 l 0.18878,-0.30546 0.18879,-0.30546 -0.28062,0.17343 -0.28063,0.17344 0.12964,0.49575 0.12965,0.49576 -0.55136,1.14118 -0.55136,1.14117 v 0.38819 0.38818 l -0.48385,-0.43788 -0.48386,-0.43788 h -0.22291 -0.22292 l -0.50343,-0.4556 -0.50342,-0.45559 0.0509,0.25716 0.0509,0.25716 -0.0313,0.99218 -0.0313,0.99219 h -0.79375 -0.79375 l -0.52917,-0.52917 -0.52917,-0.52916 h -0.39687 -0.39688 v 0.64584 0.64584 l -0.29416,0.18181 -0.29417,0.1818 -0.23095,-0.36463 -0.23095,-0.36462 -0.004,0.33073 -0.004,0.33073 h -0.26458 -0.26458 v -1.3073 -1.30731 l -0.22618,-0.13978 -0.22617,-0.13978 -0.0512,1.93326 -0.0512,1.93327 0.37262,0.30925 0.37262,0.30925 -0.12553,0.65669 -0.12554,0.6567 -0.26072,-0.16114 -0.26073,-0.16114 0.24305,0.49495 0.24305,0.49495 -0.064,0.92604 -0.064,0.92605 -0.0204,0.19843 -0.0204,0.19844 h -0.66145 -0.66146 v 0.24689 0.24688 l 0.74639,-0.0212 0.74639,-0.0212 0.34161,-0.77175 0.34161,-0.77176 0.38095,0.14618 0.38095,0.14619 -0.14174,-0.22934 -0.14174,-0.22934 0.73201,-0.1464 0.73202,-0.1464 0.28337,-0.74571 0.28338,-0.74571 0.19499,0.45191 0.19498,0.45191 -0.47184,1.06945 -0.47184,1.06944 h -0.21366 -0.21367 v 0.67252 0.67252 l -0.56807,0.58425 -0.56808,0.58425 0.21208,-0.37161 0.21209,-0.37161 -0.30978,0.19146 -0.30978,0.19145 0.16781,0.27153 0.16782,0.27153 -0.2718,0.57008 -0.2718,0.57009 -0.19723,0.52916 -0.19723,0.52917 -0.11075,-0.46302 -0.11074,-0.46302 h -0.18193 -0.18193 l -1.05544,0.92097 -1.05544,0.92096 0.33073,0.005 0.33072,0.005 v 0.52917 0.52917 h -0.22854 -0.22855 l 0.0451,1.52135 0.0451,1.52135 0.21827,0.4799 0.21828,0.47989 -0.2937,0.64459 -0.29369,0.64458 h -1.46088 -1.46089 z m 0.78131,-14.93803 0.39041,-0.39041 h -0.71815 -0.71816 v 0.2802 0.28019 l -0.20135,-0.12444 -0.20136,-0.12445 -0.50133,0.36659 -0.50133,0.36658 1.03043,-0.13193 1.03043,-0.13192 z m 4.51036,-7.94579 v -0.38212 h -0.23627 -0.23628 l -0.15058,0.39241 -0.15058,0.39242 -0.38299,-0.14697 -0.38299,-0.14697 -0.18451,0.58134 -0.18451,0.58133 0.35905,0.23135 0.35904,0.23135 0.59531,-0.67601 0.59531,-0.67601 z m -55.694791,17.6133 1.05834,-0.23784 0.6394,-0.0153 0.63941,-0.0153 -0.13179,0.13179 -0.13179,0.13179 -1.56595,0.1213 -1.56595,0.1213 z m 36.65788,-1.08046 0.57828,-0.81212 0.64758,-0.24622 0.64758,-0.24621 2.0333,0.051 2.033295,0.051 -1.719785,0.0828 -1.7198,0.0829 -0.58997,0.13446 -0.58998,0.13446 -0.80821,0.79005 -0.80821,0.79005 h -0.14118 -0.14119 z m 11.363991,0.085 v -0.55069 l -2.05052,-0.16792 -2.050526,-0.16791 -0.66145,-0.0796 -0.66146,-0.0796 2.70694,-0.0396 2.706936,-0.0396 0.1691,0.67378 0.16911,0.67378 -0.16407,0.16406 -0.16406,0.16407 z m 1.01455,-0.46158 -0.17607,-0.17772 0.098,-1.36733 0.098,-1.36733 -0.21147,0.99511 -0.21148,0.99511 -0.20722,0.19551 -0.20723,0.19552 0.11497,-0.82407 0.11497,-0.82407 -2.52861,-0.17359 -2.528596,-0.17359 -7.276037,-0.3949 -7.27605,-0.3949 -2.91041,-0.24654 -2.91042,-0.24655 -1.71979,-0.29707 -1.71979,-0.29708 -1.5875,-0.22575 -1.5875,-0.22574 3.70416,0.11869 3.70417,0.1187 4.10104,0.25191 4.10104,0.25191 5.15938,0.27915 5.159367,0.27916 3.2412,0.18925 3.241196,0.18925 9.4e-4,-0.39688 9.3e-4,-0.39687 0.5138,-0.84265 0.51379,-0.84264 -0.31634,-0.10576 -0.31635,-0.10576 0.7055,-0.13516 0.7055,-0.13516 -0.26426,0.68669 -0.26426,0.68669 -0.26995,1.4552 -0.26996,1.45521 -0.17128,1.01589 -0.17129,1.01588 z m -46.521861,-5.23891 0.13128,-0.11963 3.9026,-0.18021 3.9026,-0.18022 -2.3e-4,0.21267 -2.4e-4,0.21267 -4.03364,0.0872 -4.03364,0.0872 z m 56.815361,-3.22972 0.20133,-0.52917 0.39438,-0.59531 0.39437,-0.59531 0.53167,0.0179 0.53167,0.0179 -0.59532,0.28711 -0.59531,0.28711 -0.006,0.158 -0.006,0.15801 -0.52618,0.66146 -0.52618,0.66146 z m 23.61696,-1.44071 v -0.25009 l -1.25677,-0.0991 -1.25677,-0.0991 1.80483,-0.0477 1.80484,-0.0477 -0.39688,0.39688 -0.39687,0.39687 h -0.15119 -0.15119 z m -10.58334,-0.80825 -0.39687,-0.25648 0.99219,-0.004 0.99218,-0.004 v 0.26458 0.26458 l -0.59531,-0.004 -0.59531,-0.004 z m 2.11667,-0.52917 -2.24896,-0.16599 0.26459,-0.0533 0.26458,-0.0533 -0.39688,-0.25648 -0.39687,-0.25648 0.99219,-0.004 0.99218,-0.004 v 0.19844 0.19844 l 1.91823,0.0323 1.91823,0.0323 3.10886,0.0328 3.10885,0.0328 v 0.26564 0.26564 l -3.63802,-0.0493 -3.63802,-0.0493 z m -0.79375,-1.05833 -2.77812,-0.161 0.92604,-0.0558 0.92604,-0.0558 -0.39688,-0.25648 -0.39687,-0.25648 0.94809,-0.004 0.94809,-0.004 0.14429,0.14429 0.1443,0.1443 2.3472,0.10365 2.3472,0.10365 2.57968,0.004 2.57969,0.004 v 0.27756 0.27755 l -3.77031,-0.0518 -3.77031,-0.0518 z m 1.45521,-1.05833 -3.70417,-0.13229 0.92604,-0.1826 0.92605,-0.1826 2.51354,-0.0158 2.51354,-0.0158 0.38921,0.25013 0.38921,0.25012 -0.12463,0.0805 -0.12462,0.0805 z m 4.23333,0 -0.16352,-0.26459 h 3.19062 3.19061 v 0.26459 0.26458 h -3.02709 -3.0271 z m -10.10679,-1.2262 0.1567,-0.1567 4.77661,-0.13813 4.77661,-0.13813 v 0.29278 0.29278 l -4.93331,0.002 -4.93331,0.002 z m 11.562,-0.89047 v -0.26458 h 1.71979 1.71979 v 0.26458 0.26458 h -1.71979 -1.71979 z m -8.86354,-0.26458 0.16352,-0.26459 h 1.70418 1.70417 v 0.26459 0.26458 h -1.86769 -1.8677 z m 3.83646,-0.0139 v -0.27845 l 1.59897,0.0577 1.59898,0.0577 0.13643,0.22075 0.13643,0.22075 h -1.73541 -1.7354 z m -8.67635,-0.74456 -0.34197,-0.77966 0.1716,-0.6837 0.1716,-0.6837 -0.42494,-0.16306 -0.42494,-0.16307 v -0.25189 -0.25189 l 0.24832,0.15347 0.24832,0.15347 0.26437,-0.46858 0.26436,-0.46859 0.21492,0.26459 0.21492,0.26458 -0.1323,1.92885 -0.13229,1.92884 z m 14.82791,0.0355 -1.12448,-0.10128 v -0.27768 -0.27767 l 0.41852,0.16059 0.41851,0.1606 h 1.30128 1.30127 v 0.26459 0.26458 l -0.59531,-0.0462 -0.59531,-0.0462 z m -9.59115,-0.33382 0.39688,-0.25487 1.38906,0.0291 1.38906,0.0291 v 0.22979 0.22978 l -1.78593,-0.004 -1.78594,-0.004 z m 3.57647,-0.009 0.16811,-0.27201 1.56729,0.047 1.5673,0.047 v 0.22498 0.22498 h -1.73541 -1.7354 z m -2.92488,-0.92703 -0.78388,-0.34548 1.12448,-0.0215 1.12448,-0.0215 v 0.23627 0.23628 l -0.3406,0.1307 -0.34061,0.1307 z m 3.18487,0.1407 -0.16352,-0.26458 h 1.60312 1.60311 v 0.26458 0.26459 h -1.43959 -1.4396 z m 3.30729,0 v -0.26458 h 2.38125 2.38125 v 0.26458 0.26459 h -2.38125 -2.38125 z m -2.91041,-1.03074 -0.66146,-0.18424 0.39687,-0.12011 0.39688,-0.12011 3.90977,0.0798 3.90976,0.0798 -0.15507,0.2509 -0.15507,0.25091 -3.49011,-0.0264 -3.49011,-0.0264 z m -3.70417,-0.29217 -0.39687,-0.25648 0.99218,-0.004 0.99219,-0.004 v 0.26459 0.26458 l -0.59531,-0.004 -0.59531,-0.004 z m -2.66909,-0.72152 0.63821,-0.12028 -0.37362,-0.23651 -0.37362,-0.23651 0.46302,-0.004 0.46302,-0.004 v 0.24701 0.24701 l 0.7276,0.11022 0.72761,0.11022 -1.45521,0.004 -1.45521,0.004 z m 9.54826,-0.0444 v -0.23674 l 2.3996,-0.0323 2.39959,-0.0323 -0.16625,0.269 -0.16626,0.26901 h -2.23334 -2.23334 z m -6.74688,-0.29244 -0.52916,-0.22739 0.99218,-0.0186 0.99219,-0.0186 v 0.26458 0.26459 l -0.46302,-0.0186 -0.46302,-0.0186 z m 3.23445,-0.033 0.29758,-0.29757 1.54128,0.26361 1.54128,0.26362 -1.83886,0.034 -1.83885,0.034 z m -5.47574,-0.75042 -0.38922,-0.24615 0.227,-0.21282 0.227,-0.21282 0.11812,0.33072 0.11811,0.33073 1.10243,-0.004 1.10244,-0.004 -0.39688,-0.25648 -0.39687,-0.25648 0.99218,-0.004 0.99219,-0.004 v 0.22996 0.22997 l -0.99219,0.16399 -0.99218,0.164 -0.66146,-0.001 -0.66146,-0.001 z m 10.31108,-0.0718 v -0.20312 h 2.51355 2.51354 v 0.25913 0.25912 l -2.51354,-0.056 -2.51355,-0.056 z m -6.08541,-0.2366 v -0.2311 h 1.70417 1.70418 l 0.1666,0.26956 0.16659,0.26955 -1.87077,-0.0384 -1.87077,-0.0385 z m -2.11667,-1.02485 -0.39687,-0.25648 1.12447,-0.004 1.12448,-0.004 v 0.26459 0.26458 l -0.7276,-0.004 -0.7276,-0.004 z m 2.2669,0.029 -0.14558,-0.23555 1.84976,-0.0282 1.84975,-0.0282 v 0.26371 0.26371 h -1.70417 -1.70418 z m -2.00232,-1.08737 -0.39687,-0.25648 0.99219,-0.004 0.99218,-0.004 v 0.26458 0.26459 l -0.59531,-0.004 -0.59531,-0.004 z m 3.175,0 v -0.26458 h 1.19063 1.19062 v 0.26458 0.26459 h -1.19062 -1.19063 z m 5.74879,-0.9847 0.85399,-0.10628 0.99809,0.10414 0.99809,0.10414 -1.85208,0.002 -1.85208,0.002 z m -1.92239,-0.88366 -0.11799,-0.1909 0.85778,-0.0963 0.85777,-0.0963 1.52136,0.0921 1.52135,0.092 v 0.24788 0.24788 l -2.26114,-0.0528 -2.26114,-0.0528 z m -2.83421,-0.17512 0.8599,-0.10671 0.85989,0.10671 0.8599,0.10671 h -1.71979 -1.71979 z m -42.478851,-0.39068 -0.3175,-0.3175 v -0.74084 -0.74083 h 0.26458 0.26458 v 0.74083 0.74084 l 0.3175,0.3175 0.3175,0.3175 h -0.26458 -0.26458 z m 4.49791,0 -0.3175,-0.3175 0.008,-1.07157 0.008,-1.07156 0.22262,0.39688 0.22261,0.39687 0.1782,0.99219 0.17821,0.99219 h -0.0914 -0.0914 z m 43.008021,-0.40118 -0.7276,-0.11022 v -0.22037 -0.22037 l 1.21246,-0.0964 1.21245,-0.0964 0.17661,0.31324 0.17661,0.31324 0.92604,0.11108 0.92604,0.11108 -1.5875,0.003 -1.5875,0.003 z m -3.35138,-0.17096 0.11024,-0.0959 1.12448,-0.14352 1.12448,-0.14352 v 0.23941 0.23941 h -1.23473 -1.23472 z m -71.594221,62.96799 -0.3945,-1.51459 v -0.53187 -0.53187 l -0.26458,0.16352 -0.26459,0.16352 v 0.7562 0.7562 l 0.53582,1.25001 0.53582,1.25 0.12326,-0.12326 0.12327,-0.12327 z m 2.58988,0.46678 -0.0583,-1.02951 -0.25605,-1.05833 -0.25604,-1.05834 -0.33794,-1.66457 -0.33794,-1.66458 -0.53831,0.0771 -0.53831,0.0771 -0.0864,0.75576 -0.0864,0.75576 0.29548,-0.18261 0.29548,-0.18262 -0.16124,0.64243 -0.16123,0.64242 0.66372,2.28942 0.66372,2.28941 0.17262,0.27929 0.17261,0.2793 0.30649,-0.10894 0.30648,-0.10894 z m 25.82385,1.3e-4 0.10093,-0.085 0.49815,0.2666 0.49816,0.26661 -0.0699,-0.32783 -0.0699,-0.32783 1.05834,-0.34863 1.05833,-0.34863 0.57008,-0.29212 0.57009,-0.29212 0.26209,0.16198 0.26208,0.16198 0.15172,-0.39536 0.15171,-0.39535 0.33903,0.004 0.33903,0.004 -0.39687,0.28549 -0.39688,0.28549 0.52917,-0.19127 0.52917,-0.19128 0.599215,-0.12986 0.59922,-0.12985 0.1653,-0.26747 0.1653,-0.26746 -1.558265,0.12315 -1.55827,0.12315 -1.81993,0.87257 -1.81993,0.87257 -2.11005,-0.17597 -2.11005,-0.17598 0.40535,0.40535 0.40535,0.40535 h 0.41578 0.41577 v 0.25797 0.25797 l 0.8599,-0.16368 0.85989,-0.16368 z m -29.60984,-5.13554 -0.32452,-0.20056 0.18181,-0.29417 0.1818,-0.29416 h -0.27189 -0.2719 l 0.1523,-0.39688 0.15229,-0.39687 h -0.26203 -0.26203 l -0.13848,0.52953 -0.13847,0.52953 0.28487,-0.17606 0.28487,-0.17606 -0.17072,0.44489 -0.17072,0.44489 0.45649,0.53615 0.45648,0.53616 0.0922,-0.44292 0.0922,-0.44291 z m 2.12423,-2.90721 -0.19707,-1.07766 -0.15449,-0.15449 -0.15449,-0.15449 -0.40828,0.15668 -0.40829,0.15667 v 0.80206 0.80205 h 0.52917 0.52916 v 0.2802 0.2802 l -0.26458,-0.16353 -0.26458,-0.16352 v 0.4218 0.4218 l 0.49525,-0.26505 0.49526,-0.26506 z m -2.70436,0.16762 -0.27387,-0.89237 -0.49511,0.12948 -0.49511,0.12947 v 0.089 0.089 l 0.30705,0.67391 0.30705,0.67391 h 0.46193 0.46194 z m 8.72612,0.006 0.0515,-0.62183 -0.66767,-0.30421 -0.66766,-0.30421 h -0.13112 -0.13113 l 0.73889,0.92603 0.73888,0.92604 h 0.008 l 0.008,1e-5 z m -2.98599,-3.02547 -1.30462,-1.24749 0.81163,0.92604 0.81162,0.92604 0.37347,0.43634 0.37347,0.43633 0.11952,-0.11489 0.11953,-0.11488 z m -6.90031,-1.59845 0.13514,-0.21867 -0.15038,-0.57508 -0.15039,-0.57508 h -0.34013 -0.34014 l -0.2767,0.79375 -0.2767,0.79375 h 0.63208 0.63208 z m 2.27734,-0.57508 v -0.26458 h -0.24295 -0.24294 l -0.41852,-0.1606 -0.41851,-0.1606 v 0.42518 0.42518 h 0.66146 0.66146 z m 23.43379,-2.90213 0.2563,-0.2563 1.03141,-0.16391 1.0314,-0.16392 0.58306,-0.22168 0.58306,-0.22168 -0.0773,-0.70439 -0.0773,-0.70438 -0.12764,-0.12765 -0.12765,-0.12764 -1.81132,0.43941 -1.81132,0.4394 -0.7276,0.30536 -0.7276,0.30535 v 0.32398 0.32399 l 0.44281,-0.16992 0.4428,-0.16993 -0.17519,0.45656 -0.1752,0.45655 0.26156,-0.16165 0.26155,-0.16165 v 0.2802 0.2802 h 0.34396 0.34396 z m -22.26603,-2.48599 -0.13854,-0.36104 -0.71305,-0.35808 -0.71305,-0.35807 -0.19844,-0.0967 -0.19843,-0.0967 v 0.33194 0.33195 l 0.43788,0.48385 0.43788,0.48386 h 0.61215 0.61215 z m 31.73935,-2.9856 -0.15787,-0.62899 0.30341,-0.36558 0.30341,-0.36559 -0.0754,-0.35858 -0.0754,-0.35858 -0.52068,-0.47792 -0.52067,-0.47792 0.37137,-0.22952 0.37137,-0.22952 -0.31142,-0.37524 -0.31142,-0.37524 0.13639,-0.13639 0.13639,-0.13639 -0.40036,-0.33227 -0.40037,-0.33228 -0.92895,0.17427 -0.92894,0.17427 v 0.38489 0.38488 h -0.33661 -0.33661 l 0.0385,1.52136 0.0385,1.52135 0.0335,0.29404 0.0335,0.29404 0.61736,-0.11802 0.61736,-0.11801 v 0.44284 0.44285 l -0.73568,-0.10797 -0.73568,-0.10798 0.13393,0.21671 0.13394,0.21671 0.4474,0.0264 0.44741,0.0264 -0.66146,0.18817 -0.66146,0.18818 1.5875,0.38501 1.5875,0.38502 0.45905,-0.50318 0.45905,-0.50318 z m 19.656781,-0.17118 v -0.34282 l -0.60425,-0.05 -0.60425,-0.05 -0.18629,0.30142 -0.18628,0.30141 0.30546,-0.18878 0.30547,-0.18879 v 0.2802 0.2802 h 0.48507 0.48507 z m 4.50569,-0.1433 0.40603,0.33698 -0.10629,-0.52074 -0.10629,-0.52075 0.39603,-0.30174 0.39604,-0.30175 -0.31229,-0.6854 -0.31229,-0.6854 0.45586,-0.24396 0.45586,-0.24397 0.3132,-1.15014 0.3132,-1.15014 0.16834,-1.03133 0.16835,-1.03133 -1.2761,0.16466 -1.27611,0.16466 -0.66146,0.14598 -0.66145,0.14598 0.52916,-0.24696 0.52917,-0.24696 1.5875,-0.43005 1.5875,-0.43004 0.88514,-0.2822 0.88515,-0.28221 1.19754,0.17958 1.19753,0.17958 -0.14208,-1.67468 -0.14209,-1.67468 -0.097,-0.39687 -0.097,-0.39688 -0.514,-0.86406 -0.514,-0.86406 -0.73425,-0.325 -0.73424,-0.32501 -0.004,-0.66302 -0.004,-0.66302 -0.25648,0.39688 -0.25648,0.39687 -0.004,0.59532 -0.004,0.59531 h -0.28989 -0.28988 l -0.81623,0.5812 -0.81622,0.5812 0.19969,-0.38276 0.19968,-0.38277 -0.41649,0.5136 -0.4165,0.51359 -0.009,-0.24901 -0.009,-0.24901 -0.51297,0.6155 -0.51297,0.61549 -0.24425,-0.15095 -0.24425,-0.15096 -0.15259,0.39765 -0.15259,0.39764 -0.70005,0.31896 -0.70004,0.31896 0.12425,1.93602 0.12424,1.93602 0.4913,0.35925 0.4913,0.35924 -0.26991,1.63204 -0.26991,1.63204 0.21901,0.13535 0.219,0.13536 -0.15222,0.2463 -0.15222,0.2463 h 0.78106 0.78105 l 0.14713,0.3834 0.14712,0.3834 -0.3834,-0.14712 -0.3834,-0.14713 v 0.4408 0.4408 l 0.26458,-0.16353 0.26459,-0.16352 v 0.42811 0.4281 l -0.29417,-0.1818 -0.29416,-0.1818 -0.21052,0.34063 -0.21053,0.34063 0.14724,0.38368 0.14723,0.38369 0.24652,-0.44051 0.24652,-0.44051 z m -3.40437,-2.33441 0.57437,-0.87622 v -0.2531 -0.2531 l -0.52256,0.10063 -0.52255,0.10064 -0.58567,0.54563 -0.58567,0.54563 h -0.19264 -0.19265 l -0.13653,-0.33073 -0.13653,-0.33073 -0.18018,0.59234 -0.18018,0.59233 -0.16836,-0.10154 -0.16835,-0.10155 -0.33798,0.3657 -0.33797,0.36569 1.54954,-0.0427 1.54954,-0.0427 z m -31.680481,-0.0237 0.55953,-0.46303 0.63412,-0.98693 0.63412,-0.98692 v -0.53443 -0.53442 h -0.48507 -0.48507 l -0.19444,-0.19444 -0.19444,-0.19444 1.27482,-0.3033 1.27482,-0.3033 -1.05833,-0.0611 -1.05834,-0.0611 1.37079,-0.30104 1.37079,-0.30104 0.19467,-0.19843 0.19466,-0.19844 -0.7717,-0.0264 -0.77171,-0.0264 0.66007,-0.18366 0.66007,-0.18367 0.0782,-0.40633 0.0783,-0.40632 -1.0336,-0.30968 -1.03361,-0.30967 h -4.7452 -4.7452 l -0.71214,0.33073 -0.71214,0.33072 -0.002,0.19844 -0.002,0.19844 h 0.29289 0.29289 l -0.14079,0.3669 -0.1408,0.36691 0.80534,0.82372 0.80534,0.82372 h -0.30102 -0.30102 l 0.18065,0.71974 0.18064,0.71974 0.54294,0.93391 0.54294,0.9339 0.40594,0.32232 0.40593,0.32231 0.66146,0.0125 0.66146,0.0125 0.39688,0.25648 0.39687,0.25648 1.38604,0.004 1.38604,0.004 z m 6.29828,-0.29225 0.5378,-0.75526 -0.65208,0.12465 -0.65207,0.12465 -0.0209,-0.49387 -0.0209,-0.49386 -0.13346,0.33073 -0.13345,0.33073 h -1.03628 -1.03629 v 0.21401 0.21401 l 0.33073,0.41701 0.33073,0.41701 0.39688,0.14184 0.39687,0.14184 0.5773,0.0209 0.57729,0.0209 z m 24.831581,-1.88215 0.30399,-0.48676 -0.4322,0.0634 -0.43219,0.0634 -0.36708,0.55286 -0.36708,0.55285 0.49528,-0.12952 0.49529,-0.12952 z m 2.23009,-9.26883 h 0.21156 l 0.16924,-1.05834 0.16923,-1.05833 h 0.23077 0.23077 v -0.29501 -0.29502 l -0.65215,0.42731 -0.65215,0.4273 -0.34004,-9.9e-4 -0.34004,-9.8e-4 0.83103,-0.50674 0.83103,-0.50673 0.19423,-0.31428 0.19423,-0.31427 0.22746,0.35897 0.22746,0.35898 0.004,0.8599 0.004,0.85989 h 0.21846 0.21847 l 0.6214,-0.66146 0.62141,-0.66145 h 0.61534 0.61534 v -0.52917 -0.52917 h 0.26458 0.26458 v -0.56156 -0.56156 l -0.3775,0.31329 -0.37749,0.3133 -1.06129,0.0147 -1.06128,0.0146 -0.14705,0.38322 -0.14706,0.38321 0.56064,-0.17794 0.56063,-0.17794 -0.18104,0.29293 -0.18104,0.29293 h -0.51355 -0.51355 v -0.52917 -0.52916 h -0.26458 -0.26459 v -0.28832 -0.28832 l 0.47354,-0.43929 0.47354,-0.43928 -0.11846,0.0639 -0.11847,0.0639 -0.3386,-0.28101 -0.33859,-0.28101 -0.43831,0.84758 -0.4383,0.84758 0.31778,0.1964 0.31779,0.1964 -0.27024,0.16702 -0.27023,0.16701 -0.10868,-0.32605 -0.10868,-0.32604 -0.70767,1.20754 -0.70767,1.20754 v 0.32531 0.32531 l 0.59532,-0.16382 0.59531,-0.16382 -0.52485,0.41881 -0.52484,0.4188 -0.0385,0.76607 -0.0385,0.76607 0.54712,-0.50972 0.54711,-0.50971 z m 2.0699,-4.49792 v -0.26458 h 0.51355 0.51355 l 0.16353,-0.26459 0.16352,-0.26458 h -0.43454 -0.43454 l 0.11279,-0.33073 0.11279,-0.33073 0.56866,0.0824 0.56866,0.0824 -0.16266,-0.4239 -0.16267,-0.4239 -0.56288,0.37374 -0.56288,0.37375 v 0.3646 0.3646 l -0.66146,0.46128 -0.66146,0.46128 0.46302,0.002 0.46302,0.002 z m -0.90198,-2.11667 h 0.13946 l -0.18879,0.30547 -0.18878,0.30546 0.30546,-0.18879 0.30546,-0.18878 v -0.45076 -0.45075 l 0.66146,-0.49673 0.66146,-0.49674 v -0.22752 -0.22752 h -0.33408 -0.33407 l -0.52582,0.70513 -0.52582,0.70514 -0.26458,0.29335 -0.26459,0.29335 -0.0465,0.25828 -0.0465,0.25829 -0.16873,0.52917 -0.16874,0.52916 0.42217,-0.7276 0.42216,-0.72761 z m 8.14355,-2.44739 0.15954,-0.59531 0.004,-0.29989 0.004,-0.29988 -0.66146,-0.12645 -0.66146,-0.12645 v 0.19482 0.19482 l 0.16537,0.82683 0.16536,0.82682 h 0.33294 0.33295 z m 7.5751,-2.31511 v -0.52916 h -0.63315 -0.63315 l -0.14237,0.371 -0.14237,0.37101 0.15816,0.15816 0.15815,0.15816 h 0.61737 0.61736 z"
       id="path6" /></g></svg>
