<?xml version="1.0" encoding="UTF-8" standalone="no"?>
<!-- Created with Inkscape (http://www.inkscape.org/) -->

<svg
   width="101.6mm"
   height="84.666656mm"
   viewBox="0 0 101.6 84.666656"
   version="1.1"
   id="svg1"
   xml:space="preserve"
   xmlns="http://www.w3.org/2000/svg"
   xmlns:svg="http://www.w3.org/2000/svg"><defs
     id="defs1" /><g
     id="layer1"
     transform="translate(-3.4000014,-142.59776)"><path
       style="fill:#ffffff;fill-opacity:1"
       d="M 3.4000015,184.93108 V 142.59775 H 54.200001 105 v 42.33333 42.33333 H 54.200001 3.4000015 Z m 65.2398775,40.87735 -0.401613,-0.75042 0.477395,-0.3042 0.477395,-0.30421 0.459457,0.1687 0.459456,0.16871 0.86346,-0.56576 0.86346,-0.56577 v 0.78319 0.78318 l 1.499306,-0.22612 1.499305,-0.22612 2.101232,0.0214 2.101232,0.0214 0.240576,0.38926 0.240577,0.38926 0.427415,-0.26416 0.427416,-0.26415 -0.400386,0.74812 -0.400386,0.74813 h 12.359634 12.35963 v -5.99722 -5.99722 h -0.85254 -0.85255 l -0.17893,-0.44097 -0.17893,-0.44098 -0.35275,0.50649 -0.35274,0.50648 -0.55217,-0.45826 -0.55217,-0.45826 0.15698,-0.25401 0.15699,-0.25401 h -0.51365 -0.513647 v 0.25284 0.25283 l -0.79375,0.22371 -0.79375,0.2237 0.851891,0.71482 0.851891,0.71482 0.471025,-0.18075 0.47103,-0.18075 v 0.33063 0.33064 l 0.56987,-0.21869 0.56988,-0.21868 -0.26092,0.84712 -0.26093,0.84711 -0.0656,0.08 -0.0656,0.08 -3.418348,0.96079 -3.418345,0.9608 v 0.45848 0.45847 h -0.352778 -0.352778 v -0.28019 -0.28019 l -6.438194,-0.0256 -6.438194,-0.0256 -5.115278,-0.24661 -5.115278,-0.24662 -4.204191,-0.5036 -4.204192,-0.5036 -1.356546,0.36528 -1.356547,0.36528 0.392462,0.73333 0.392462,0.73332 -0.387974,-0.23978 -0.387974,-0.23978 v 0.72637 0.72638 h -0.341706 -0.341705 l 0.20306,-0.52917 0.20306,-0.52917 h -0.390521 -0.390521 l -0.02236,0.79375 -0.02236,0.79375 -0.343154,-0.85891 -0.343154,-0.85891 0.178055,-0.46401 0.178055,-0.464 -0.253512,0.001 -0.253511,0.001 -3.175,0.52503 -3.175,0.52504 -1.608459,0.49477 -1.608459,0.49477 -3.975581,0.45393 -3.975581,0.45394 -0.288878,-0.46741 -0.288879,-0.46742 -0.728694,0.19056 -0.728694,0.19056 -0.346977,-0.41809 -0.346977,-0.41808 -0.106966,-2.27598 -0.106966,-2.27599 -0.617361,-0.1176 -0.617361,-0.1176 -0.0054,1.70156 -0.0054,1.70156 -0.278985,0.43933 -0.278985,0.43932 -2.802419,-3.2102 -2.802418,-3.21021 -0.327169,-0.58051 -0.327169,-0.58051 -0.441095,-0.35278 -0.441095,-0.35277 -2.230347,-2.95996 -2.230348,-2.95996 -0.881944,-1.25106 -0.881944,-1.25106 -0.121698,0.83986 -0.121698,0.83987 0.650865,0.49861 0.650864,0.49862 -1.16206,-0.15545 -1.16206,-0.15545 -0.206053,0.3334 -0.206053,0.3334 0.38471,0.23777 0.38471,0.23776 -0.184839,0.70682 -0.184839,0.70683 -0.772036,0.34807 -0.772036,0.34806 -0.949335,-0.34325 -0.949336,-0.34325 -0.18354,-0.73128 -0.183539,-0.73128 -0.753065,-0.80832 -0.753064,-0.80832 0.427576,-1.03226 0.427576,-1.03226 0.335886,0.20759 0.335886,0.20759 -0.196398,0.5118 -0.196398,0.51181 0.372787,-0.2304 0.372787,-0.23039 -0.172871,-0.4505 -0.172872,-0.45049 0.318193,-0.3182 0.318192,-0.31819 -0.362342,-1.31229 -0.362342,-1.3123 h -0.446259 -0.446242 l -0.706478,-0.9693 -0.706479,-0.97014 -1.585905,-2.29305 -1.585904,-2.29306 -3.5065985,-5.46805 -3.5065985,-5.46806 -0.1007141,3.63213 -0.100714,3.63212 0.676392,0.95399 0.6763921,0.95398 0.8877107,1.5875 0.8877106,1.5875 1.6002304,0.29851 1.6002303,0.29852 0.690813,1.46537 0.690813,1.46538 -2.779913,0.10239 -2.7799132,0.10239 0.1457939,0.77956 0.1457939,0.77955 0.026215,0.41644 0.026215,0.41643 0.7770183,0.11273 0.7770183,0.11273 2.0452038,3.67979 2.045204,3.67978 v 0.12856 0.12857 l -1.322917,-0.22318 -1.3229164,-0.22318 -0.5881243,-0.16008 -0.5881243,-0.16008 0.1961048,0.74991 0.1961048,0.7499 0.4971629,0.19078 0.497163,0.19078 0.4675135,-0.63936 0.467513,-0.63936 0.244866,0.7715 0.244866,0.77151 h 0.866857 0.866856 l 0.961454,1.63211 0.961454,1.63212 2.38125,3.71462 2.38125,3.71462 v 0.29771 0.2977 h -1.403972 -1.403972 l -1.330056,-0.51251 -1.330055,-0.51252 -2.075355,-0.36612 -2.075355,-0.36611 -0.3940895,-0.47984 -0.3940896,-0.47983 -1.2680212,-0.93459 -1.2680212,-0.93459 H 5.3951747 4.1055571 v 1.05834 1.05833 h 0.7055555 0.7055556 v 0.329 0.32901 l -0.7055556,0.22393 -0.7055555,0.22394 v 3.15123 3.15122 H 36.573524 69.041491 Z m -2.298541,0.0926 0.220724,-0.35714 -0.624781,-0.36373 -0.62478,-0.36373 0.764897,-0.0107 0.764897,-0.0107 0.56202,-0.21566 0.56202,-0.21567 -0.187201,0.48784 -0.187202,0.48784 -0.735659,0.45943 -0.735659,0.45942 z m -2.874207,-0.64497 0.624075,-0.16263 0.434259,0.1757 0.434258,0.1757 -1.058333,-0.0131 -1.058334,-0.0131 z m 27.171835,-1.43123 -0.227779,-0.61736 -0.374062,-0.24896 -0.374062,-0.24897 0.73766,0.0556 0.737661,0.0556 -0.180318,0.68954 -0.180319,0.68954 0.462856,-0.28606 0.462856,-0.28606 -0.251716,0.40728 -0.251716,0.40729 h -0.166641 -0.166641 z m 2.278395,-1.38016 0.440973,-0.17794 0.440972,0.17794 0.440972,0.17794 h -0.881944 -0.881945 z m -63.335701,-2.59617 -1.447288,-1.4187 -2.665796,-3.88192 -2.665797,-3.88191 v -0.16744 -0.16744 h 0.529167 0.529166 v 0.44543 0.44544 l 0.881945,0.66231 0.881944,0.66231 v 0.80313 0.80313 l 0.285953,0.1176 0.285953,0.11759 1.365601,2.2274 1.365601,2.2274 1.021346,0.8594 1.021347,0.85941 h 0.48128 0.481279 l 0.218029,0.35278 0.218029,0.35278 H 31.699183 31.028948 Z M 5.8694459,219.54458 v -0.3115 l 1.0340257,0.052 1.0340256,0.052 0.2594929,0.25949 0.2594928,0.2595 H 7.1629644 5.8694459 Z m 30.4076621,-2.33434 0.01307,-1.05833 0.162626,0.62407 0.162626,0.62408 -0.175698,0.43426 -0.175698,0.43426 z m -8.888218,-2.03969 -0.529167,-0.42975 v -1.29334 -1.29333 l 0.283765,-0.28395 0.283765,-0.28395 0.318479,0.51531 0.318479,0.51531 -0.08328,0.53281 -0.08328,0.5328 -0.275197,0.44098 -0.275198,0.44097 0.241306,0.39044 0.241306,0.39044 0.269239,-0.43564 0.269239,-0.43563 0.392219,0.2424 0.39222,0.24241 v 0.33195 0.33196 l -0.617361,-0.0112 -0.617361,-0.0112 z m -7.430647,-2.92608 -0.461484,-0.55606 0.506482,-0.32049 0.506482,-0.32049 0.264584,-0.005 0.264583,-0.005 v 0.32338 0.32338 l -0.440972,0.17794 -0.440972,0.17793 0.440972,0.0279 0.440972,0.0279 v 0.35278 0.35278 h -0.309582 -0.309582 z m -0.825888,-1.77628 -0.218133,-0.56845 0.56202,0.21567 0.56202,0.21567 h 0.147537 0.147536 v 0.35277 0.35278 h -0.491424 -0.491423 z m 2.442659,-1.63145 -0.604868,-1.02396 0.202457,-0.20245 0.202457,-0.20246 0.227443,0.5927 0.227443,0.59271 0.970856,0.50205 0.970857,0.50205 0.221116,-0.22112 0.221115,-0.22111 v 0.35278 0.35277 h -1.017003 -1.017004 z m 17.211683,10.77308 -0.773026,-0.15016 -0.140655,-1.12471 -0.140655,-1.12471 -0.05646,1.32292 -0.05646,1.32292 0.970139,-0.0481 0.970139,-0.048 z m 0.609351,-2.2147 0.32926,0.52068 0.0054,-0.61736 0.0054,-0.61736 H 39.45389 39.171668 l -0.423334,0.42333 -0.423333,0.42333 0.02236,0.54681 0.02236,0.5468 0.348532,-0.87345 0.348532,-0.87345 z M 62.666667,200.828 v -16.91141 l -0.748173,0.0564 -0.748173,0.0564 -0.635397,1.42103 -0.635397,1.42102 -0.556708,1.28804 -0.556707,1.28803 v 0.23209 0.23209 l 0.351711,-0.21737 0.351711,-0.21737 -0.329188,0.86583 -0.329189,0.86583 0.188356,0.18836 0.188356,0.18835 0.494677,-0.18982 0.494677,-0.18983 v 0.58773 0.58773 l 0.352778,-0.21803 0.352777,-0.21802 v 0.37359 0.3736 h 0.301745 0.301745 l 0.367796,-1.14653 0.367797,-1.14652 0.01365,2.64583 0.01365,2.64583 -0.305695,-0.75765 -0.305694,-0.75765 -0.375999,-0.23238 -0.376,-0.23238 -0.325578,0.81364 -0.325578,0.81364 -0.252255,0.70556 -0.252256,0.70556 -0.143796,1.19222 -0.143795,1.19223 -0.512085,0.99026 -0.512084,0.99026 -0.410858,0.25393 -0.410857,0.25392 0.198933,-0.76072 0.198932,-0.76072 h -0.31975 -0.319751 v 0.52917 0.52916 h -0.373598 -0.373598 l 0.218029,-0.35277 0.218029,-0.35278 h -0.373598 -0.373598 v -1.25554 -1.25554 l -0.352777,0.21803 -0.352778,0.21803 0.01122,-0.63819 0.01122,-0.63818 0.517947,-0.68478 0.517947,-0.68479 v -0.65895 -0.65895 l -0.352778,0.21803 -0.352777,0.21803 -0.02479,-0.46179 -0.0248,-0.4618 -0.279977,0.70556 -0.279977,0.70555 -0.05889,5.70509 -0.0589,5.70509 0.301428,0.18629 0.301427,0.18629 0.07092,-1.83443 0.07092,-1.83444 0.386898,-0.97014 0.386897,-0.97014 h 0.530465 0.530465 l -0.225798,1.12899 -0.225798,1.12899 -0.354197,0.21891 -0.354197,0.2189 0.865184,0.46304 0.865184,0.46303 0.817241,0.0843 0.817242,0.0843 0.176389,0.0453 0.176389,0.0453 0.05705,0.96989 0.05705,0.96989 -0.364827,0.44098 -0.364827,0.44097 H 59.427652 59.09725 l 0.251716,-0.40729 0.251716,-0.40728 -0.407285,0.25171 -0.407285,0.25172 v 0.86113 0.86112 h -0.352778 -0.352778 l -0.0054,-0.61736 -0.0054,-0.61736 -0.259181,0.35278 -0.259181,0.35277 -0.617362,0.10366 -0.617361,0.10366 -0.04178,-0.45644 -0.04178,-0.45643 0.05052,-0.29081 0.05052,-0.2908 -0.367273,0.22698 -0.367273,0.22699 0.171922,0.27818 0.171922,0.27817 -0.330853,1.15362 -0.330854,1.15362 0.356243,0.66565 0.356243,0.66564 1.443386,0.96499 1.443385,0.96499 0.914443,0.60797 0.914444,0.60798 0.208449,-0.2552 0.20845,-0.25519 0.388271,-1.76389 0.388271,-1.76389 0.01088,-2.9512 0.01088,-2.95121 0.1944,-0.1944 0.194401,-0.1944 v 6.23241 6.23241 h 0.176388 0.176389 z m -4.586111,10.71698 v -0.54999 l 0.358533,0.22159 0.358532,0.22158 -0.202963,0.3284 -0.202964,0.3284 h -0.155569 -0.155569 z m -1.015066,-0.48161 -0.465467,-0.28767 0.138338,-0.66329 0.138338,-0.66328 0.454122,0.82397 0.454122,0.82396 -0.126993,0.12699 -0.126994,0.127 z m 2.602566,-0.0267 -0.218028,-0.35278 h 0.373597 0.373598 v 0.35278 0.35278 h -0.155569 -0.155569 z m -0.176389,-1.60832 v -0.54999 l 0.358533,0.22159 0.358532,0.22158 -0.202963,0.32841 -0.202964,0.3284 h -0.155569 -0.155569 z m 2.116667,-9.65975 v -0.33195 l 0.352778,-0.21803 0.352778,-0.21803 v 0.54999 0.54998 h -0.352778 -0.352778 z m -2.116667,-10.95697 v -0.35277 h 0.373598 0.373598 l -0.218029,0.35277 -0.218029,0.35278 H 59.647236 59.491667 Z M 43.26389,216.10871 v -0.48597 h 1.5875 1.5875 v -0.3736 -0.37359 l -0.336554,0.208 -0.336554,0.208 -0.93169,-0.23384 -0.931689,-0.23384 0.474493,-0.33465 0.474494,-0.33466 -1.011624,0.22206 -1.011623,0.22205 -0.718682,-0.63449 -0.718681,-0.63449 0.62435,0.97014 0.62435,0.97013 -0.657934,0.0107 -0.657934,0.0107 0.584552,0.34122 0.584551,0.34122 -0.204756,0.79458 -0.204756,0.79458 0.590343,-0.48417 0.590344,-0.48417 z m -4.7625,-0.13319 -0.218029,-0.35278 -0.596541,0.005 -0.596541,0.005 0.529166,0.34197 0.529167,0.34197 0.285403,0.005 0.285404,0.005 z m 2.550289,-0.21314 -0.213136,-0.21313 -0.463021,0.18528 -0.463021,0.18529 0.676157,0.0279 0.676158,0.0279 z m 7.337011,-0.47701 -0.208507,-0.33737 -0.517869,0.19873 -0.517869,0.19872 v 0.13865 0.13864 h 0.726376 0.726375 z m 17.276588,-2.83763 0.705556,-0.30319 h -0.529167 -0.529166 l -0.705556,0.30319 -0.705555,0.30319 h 0.529166 0.529167 z m -27.573539,-0.84465 0.553439,-0.84466 -0.694753,0.18168 -0.694753,0.18169 -0.191711,0.31019 -0.191711,0.3102 -1.125708,0.005 -1.125708,0.005 -0.529166,0.34197 -0.529167,0.34198 1.987899,0.005 1.9879,0.005 z m -31.3490876,0.12496 -0.2267676,-0.36692 0.8233088,0.13909 0.8233089,0.1391 -0.4452913,-0.15166 -0.4452913,-0.15165 0.1475327,-0.23788 0.1475327,-0.23789 -1.7307136,0.12224 -1.7307136,0.12225 v 0.49512 0.49511 H 5.537488 6.969419 Z m 34.2281826,0.11984 -0.705555,-0.16522 -0.440972,-0.56684 -0.440973,-0.56683 v 0.34965 0.34965 l 0.423334,0.42333 0.423333,0.42333 0.723194,-0.0409 0.723195,-0.0409 z m 1.940278,0.10843 v -0.13865 l -0.529167,-0.20306 -0.529166,-0.20306 v 0.34171 0.3417 h 0.529166 0.529167 z m 1.234722,-0.21413 0.218029,-0.35278 h -0.373598 -0.373597 v 0.35278 0.35277 h 0.155569 0.155569 z m 22.489583,-0.58642 -0.440972,-0.17794 -0.440972,0.17794 -0.440972,0.17794 h 0.881944 0.881944 z m 33.20049,-0.64831 -0.20306,-0.52916 h -0.100902 -0.100903 l -0.20306,0.52916 -0.20306,0.52917 h 0.507023 0.507025 z m 0.963843,-0.31291 -0.40608,-0.4893 1.09551,-0.92181 1.09551,-0.92181 h -0.16313 -0.16313 l -1.01047,0.52699 -1.01046,0.527 -0.970139,0.002 -0.970139,0.002 v 0.35278 0.35278 h 0.893017 0.893011 l 0.20307,0.52917 0.20306,0.52916 h 0.35823 0.35823 z m -0.73864,-2.03894 v -0.29398 h -0.529165 -0.529167 v 0.29398 0.29398 h 0.529167 0.529165 z m 4.09369,-0.90399 -0.21313,-0.21314 -0.21172,0.21172 -0.21171,0.21171 0.2763,0.44707 0.2763,0.44707 0.14855,-0.44565 0.14855,-0.44564 z m -84.879799,-0.0955 v -0.35278 h -0.155569 -0.155569 l -0.218028,0.35278 -0.218029,0.35277 h 0.373598 0.373597 z m 19.943162,0.0182 -0.170473,-0.27584 -1.263632,-0.20505 -1.263632,-0.20506 -0.538402,0.2066 -0.538403,0.20661 0.443804,0.27428 0.443804,0.27429 h 1.528703 1.528704 z m 2.105449,-0.0182 -0.218029,-0.35278 h -0.705555 -0.705556 l 0.218029,0.35278 0.218029,0.35277 h 0.705555 0.705556 z m 60.325618,-0.97014 -0.0622,-1.32292 0.33857,-0.44097 0.33856,-0.44097 h -0.2664 -0.2664 l -0.65142,0.75109 -0.65142,0.75109 0.16704,0.27027 0.16704,0.27028 -0.60277,0.23131 -0.602784,0.23131 0.869384,0.47662 0.86939,0.47662 0.2078,0.0346 0.20779,0.0346 z m -66.499229,0.61736 v -0.35278 h -0.373598 -0.373597 l 0.218028,0.35278 0.218029,0.35278 h 0.155569 0.155569 z m 14.463889,0.21958 v -0.13319 l -0.617361,-0.48417 -0.617361,-0.48417 0.484168,0.61736 0.484167,0.61737 h 0.133194 0.133193 z m -20.203877,-0.43272 -0.213137,-0.21314 -0.463021,0.18529 -0.463021,0.18529 0.676158,0.0279 0.676157,0.0279 z m 25.460471,-4.80862 -0.05789,-4.55139 -0.377318,0.37732 -0.377319,0.37732 -0.01717,1.40952 -0.01717,1.40953 -0.275655,0.001 -0.275655,0.001 -0.174519,-0.45479 -0.174518,-0.45479 -0.696354,-0.0524 -0.696355,-0.0525 0.0076,0.24266 0.0076,0.24266 1.138893,0.52917 1.138893,0.52916 0.01707,1.76389 0.01707,1.76389 -0.142231,0.43895 -0.142231,0.43894 -0.404007,-0.24208 -0.404006,-0.24208 0.435371,0.53809 0.435371,0.53809 h 0.546177 0.546176 z m -34.301803,3.87523 0.276987,-0.44097 0.08205,-1.23198 0.08205,-1.23198 -0.332812,0.52643 -0.332811,0.52642 -0.0054,-0.5084 -0.0054,-0.5084 -0.555328,0.68479 -0.555328,0.68478 0.187032,-0.38217 0.187032,-0.38218 H 19.11418 18.631617 l 0.29917,0.78688 0.299169,0.78687 -0.231844,0.23185 -0.231844,0.23184 0.51895,0.32819 0.51895,0.3282 0.243763,0.005 0.243764,0.005 z m 14.228542,-0.26458 v -0.35278 h -0.352777 -0.352778 v 0.35278 0.35277 h 0.352778 0.352777 z m 56.268055,0.0892 -0.705556,-0.15771 -0.335138,-0.31853 -0.335139,-0.31854 0.687916,-0.0406 0.687917,-0.0406 0.617361,0.0628 0.617361,0.0628 v -0.52124 -0.52124 l -2.617618,-0.2453 -2.617619,-0.24529 -0.469187,0.18734 -0.469187,0.18735 1.184271,0.0279 1.184271,0.0279 -0.20306,0.52916 -0.20306,0.52917 0.169218,0.44097 0.169218,0.44098 1.671793,0.0353 1.671794,0.0353 z M 6.8034044,204.9286 6.944387,204.78762 6.721951,204.20796 6.4995149,203.6283 H 5.302536 4.1055571 v 0.9281 0.9281 l 1.2784323,-0.20746 1.2784323,-0.20746 z m 46.1432526,-0.2721 -0.20652,-0.33416 -0.334156,0.20652 -0.334156,0.20652 0.20652,0.33416 0.20652,0.33416 0.334155,-0.20652 0.334156,-0.20652 z m -6.843142,-0.47807 -0.421766,-0.50819 -0.41518,0.15955 -0.415179,0.15955 0.119593,-1.72875 0.119594,-1.72874 0.820996,0.0489 0.820996,0.0489 -0.01765,0.17639 -0.01765,0.17638 0.270437,1.16031 0.270437,1.16031 0.394119,-0.13067 0.394119,-0.13067 0.107399,-2.43055 0.107399,-2.43056 0.148659,-0.14866 0.148659,-0.14866 0.552643,0.45866 0.552643,0.45865 0.411295,-0.4113 0.411295,-0.41129 -1.131802,-0.42721 -1.131801,-0.4272 v -1.05949 -1.05949 l -0.54851,0.78311 -0.54851,0.78311 -1.127185,-0.54532 -1.127184,-0.54532 0.970139,0.75208 0.970139,0.75207 v 1.49912 1.49912 l -0.79375,-0.0582 -0.79375,-0.0582 -0.222845,-1.02936 -0.222844,-1.02935 -0.08818,0.35277 -0.08818,0.35278 -0.244995,-1.23472 -0.244995,-1.23472 -0.05747,3.29061 -0.05747,3.2906 -0.171946,0.27822 -0.171947,0.27821 0.675007,0.61088 0.675007,0.61087 0.350631,-0.2167 0.350632,-0.2167 0.221585,0.35853 0.221585,0.35853 h 0.198765 0.198764 z m 4.568708,0.1346 v -0.37359 l 0.321809,0.19888 0.32181,0.19889 -0.09545,-0.61904 -0.09545,-0.61904 0.333676,-0.21628 0.333675,-0.21629 -0.12323,-0.84205 -0.123229,-0.84205 -0.642342,0.95271 -0.642342,0.95271 -0.09873,0.89937 -0.09873,0.89938 h 0.304266 0.304266 z M 40.08889,203.76465 v -0.13635 h -1.255542 -1.255542 l 0.181676,0.29396 0.181677,0.29396 1.073865,-0.15761 1.073866,-0.15761 z m 55.738888,-1.68611 v -2.25531 l -0.440972,-0.1697 -0.440973,-0.1697 0.120587,1.6949 0.120586,1.6949 -0.768678,-0.20101 -0.768678,-0.20102 0.118925,-1.71492 0.118925,-1.71493 -0.04511,2.2e-4 -0.04511,2.2e-4 -1.277805,-0.5339 -1.277805,-0.5339 v 0.31926 0.31927 l 0.881944,0.22136 0.881945,0.22135 v 2.10893 2.10894 l 1.146527,0.5014 1.146528,0.5014 0.264584,0.0288 0.264583,0.0288 z m -57.855555,1.04141 v -0.15557 l -0.352778,-0.21803 -0.352777,-0.21803 v 0.3736 0.3736 h 0.352777 0.352778 z m 7.649321,-0.61613 -0.185286,-0.46302 -0.02785,0.67616 -0.02785,0.67615 0.213137,-0.21313 0.213137,-0.21314 z m 3.527708,-0.54968 -0.546533,-0.54654 0.07453,0.49299 0.07453,0.49299 0.319251,0.51179 0.319251,0.51179 0.152748,-0.45825 0.152749,-0.45824 z m -29.874251,0.81303 v -0.15557 l -0.352777,-0.21802 -0.352778,-0.21803 v 0.37359 0.3736 h 0.352778 0.352777 z m 14.977937,-1.22756 -0.337659,-0.32984 -1.199909,0.50912 -1.199909,0.50913 0.221245,0.22124 0.221245,0.22125 0.537692,-0.44625 0.537691,-0.44624 v 0.26278 0.26278 l 0.529167,-0.43917 0.529167,-0.43917 v 0.32542 0.32542 l -0.351518,0.42459 -0.351518,0.42459 0.600982,-0.5279 0.600982,-0.52791 z m 9.168719,0.64745 -0.20652,-0.33416 -0.334156,0.20652 -0.334156,0.20652 0.20652,0.33416 0.20652,0.33415 0.334156,-0.20652 0.334156,-0.20652 z m -24.920343,-1.21393 -0.197483,-0.19748 -0.240871,0.63257 -0.240871,0.63258 0.438354,-0.43509 0.438355,-0.4351 z m 13.251616,0.35395 0.206192,-0.53733 -0.697616,0.37335 -0.697616,0.37336 v 0.16397 0.16398 h 0.491423 0.491424 z m -5.422373,-0.87378 -0.529167,-0.34198 h -0.352778 -0.352777 l 0.529166,0.34198 0.529167,0.34197 h 0.352778 0.352777 z m 4.586111,-0.48597 v -0.1332 l -0.537243,-0.44587 -0.537242,-0.44587 0.222208,0.57907 0.222208,0.57906 h 0.315034 0.315035 z m 8.819444,-2.27746 v -1.5875 l -0.157058,0.15706 -0.157057,0.15706 -0.321399,1.43044 -0.321399,1.43044 h 0.478456 0.478457 z m 5.885432,0.93339 -0.185286,-0.46302 -0.02785,0.67616 -0.02785,0.67616 0.213137,-0.21314 0.213137,-0.21313 z m 50.012206,0.44987 -0.335139,-0.32184 -2.204861,-0.88817 -2.204861,-0.88817 v 0.1445 0.14451 l 1.499306,0.76593 1.499305,0.76594 0.881945,0.26924 0.881944,0.26925 0.15875,0.0303 0.15875,0.0303 z m -43.045865,-3.22637 0.53006,0.43991 0.452833,-0.15287 0.452834,-0.15288 -1.146528,-0.59509 -1.146528,-0.59509 -0.0418,-0.78469 -0.0418,-0.78469 0.06327,-0.46715 0.06327,-0.46714 -0.417448,-0.503 -0.417449,-0.50299 -0.397776,0.005 -0.397777,0.005 0.529167,0.34197 0.529167,0.34197 -0.440973,0.005 -0.440972,0.005 v 0.3736 0.3736 l 0.378822,-0.23412 0.378821,-0.23413 -0.455811,0.72987 -0.455811,0.72987 -0.893149,-0.18605 -0.893149,-0.18606 0.705555,0.43309 0.705556,0.43309 0.233005,0.35265 0.233005,0.35266 -0.192993,1.26499 -0.192992,1.265 1.09376,-1.02392 1.09376,-1.02392 z m -23.883428,0.86563 -0.213136,-0.21314 -0.463021,0.18528 -0.463021,0.18529 0.676157,0.0279 0.676158,0.0279 z m 60.15596,-0.34836 1.322917,-0.20608 v -0.49079 -0.49078 l -2.240391,0.1803 -2.240391,0.18031 -0.889769,-0.33829 -0.889769,-0.33829 -2.514284,-0.24775 -2.514285,-0.24775 v 1.2773 1.27731 l 4.321528,-0.1747 4.321527,-0.1747 z m 2.734028,-0.67323 -0.43917,-0.52917 H 90.802498 90.44972 l 0.439169,0.52917 0.439169,0.52917 h 0.352778 0.352778 z m 7.755709,-0.79375 0.0054,-0.44097 h -0.308681 -0.30868 v 0.91961 0.9196 l 0.303278,-0.47863 0.303279,-0.47864 z m -63.959166,0.19844 -0.185285,-0.46302 -0.02785,0.67615 -0.02785,0.67616 0.213137,-0.21314 0.213136,-0.21313 z m 61.318734,0.41892 0.218029,-0.35278 h -0.373598 -0.373597 v 0.35278 0.35278 h 0.155569 0.155569 z m -62.914375,-1.45311 -0.138576,-1.45311 0.482032,-0.33764 0.482031,-0.33763 -0.440972,-0.17893 -0.440972,-0.17893 v -1.38171 -1.38172 h 0.309582 0.309582 l 0.337027,0.44098 0.337027,0.44097 -0.03966,1.05833 -0.03966,1.05833 -0.197317,0.35278 -0.197316,0.35278 0.467116,0.88194 0.467117,0.88195 0.04858,-0.52917 0.04858,-0.52916 -0.05854,-1.67044 -0.05854,-1.67044 0.544326,0.20887 0.544327,0.20888 v -0.39052 -0.39052 h -0.529167 -0.529166 v -1.59991 -1.59992 l 0.696343,0.37268 0.696342,0.37267 0.0046,2.72654 0.0046,2.72655 0.112002,0.60715 0.112002,0.60715 0.207187,0.20719 0.207186,0.20718 -0.08619,-1.28633 -0.08619,-1.28633 0.487547,-0.18709 0.487546,-0.18709 -0.496482,-0.39925 -0.496483,-0.39925 0.171933,-1.32291 0.171932,-1.32292 h 0.447375 0.447375 l 0.36865,0.4442 0.368649,0.44419 -0.177844,1.31969 -0.177845,1.3197 0.293363,-7e-4 0.293363,-7e-4 0.07883,-1.11922 0.07883,-1.11922 0.450342,-0.28579 0.450342,-0.28579 -0.352778,-0.0472 -0.352778,-0.0472 -0.176389,0.0128 -0.176389,0.0128 0.123865,-1.75894 0.123864,-1.75893 0.405302,0.1666 0.405303,0.1666 0.617361,0.24797 0.617361,0.24798 v -2.3896 -2.38959 l -0.246662,0.24666 -0.246661,0.24666 0.09486,1.54252 0.09486,1.54252 -1.171112,-0.0547 -1.171113,-0.0547 -0.108478,1.49931 -0.108478,1.4993 h -0.127252 -0.127253 l -0.558019,-0.21413 -0.55802,-0.21413 v -1.5875 -1.5875 l 0.529167,0.20306 0.529167,0.20306 v -0.35278 -0.35278 l -0.529167,-0.20306 -0.529167,-0.20306 v -0.8442 -0.8442 H 37.266668 36.91389 v 0.72638 0.72637 l -0.352778,-0.21803 -0.352778,-0.21803 v 0.3736 0.3736 h 0.352778 0.352778 v 1.62524 1.62525 l -0.55802,-0.21414 -0.558019,-0.21413 h -0.361668 -0.361668 l 0.196166,-0.5112 0.196166,-0.5112 -0.534914,0.20527 -0.534913,0.20526 0.37649,0.37649 0.376491,0.37649 v 1.34056 1.34055 h -0.147536 -0.147536 l -0.55802,-0.21413 -0.558019,-0.21413 v -0.903 -0.903 l -0.159827,0.15983 -0.159826,0.15983 -0.230718,3.51494 -0.230717,3.51494 -0.35094,0.21941 -0.350941,0.21942 0.81998,0.57433 0.819979,0.57434 h 0.01902 0.01902 z m -12.359904,0.3007 -0.438354,-0.43509 0.240871,0.63258 0.240871,0.63257 0.197483,-0.19748 0.197484,-0.19748 z m 73.225696,-0.51657 -0.162627,-0.62407 -0.01307,1.05833 -0.01307,1.05833 0.175698,-0.43426 0.175698,-0.43425 z m -74.325398,0.0844 -0.384632,-0.46345 0.279307,-0.15288 0.279307,-0.15288 -0.440972,0.1075 -0.440972,0.1075 v -0.3417 -0.34171 l 1.146528,-0.0248 1.146528,-0.0248 -0.643467,-0.25356 -0.643466,-0.25356 0.0561,-0.33901 0.0561,-0.339 0.365974,-0.44097 0.365974,-0.44098 h -0.711008 -0.711008 l -0.210091,0.54749 -0.210091,0.54749 0.403244,-0.24922 0.403244,-0.24922 -0.251716,0.40729 -0.251716,0.40728 h -0.567143 -0.567143 l 0.24625,0.24625 0.246249,0.24625 -0.804814,0.48368 -0.804815,0.48367 0.625363,-0.19276 0.625362,-0.19275 0.668156,0.66816 0.668156,0.66815 -0.235185,0.26235 -0.235185,0.26234 0.458102,-0.26435 0.458103,-0.26436 z m 67.554537,0.17349 -0.218029,-0.35278 h 0.362526 0.362526 l -0.216723,-0.56477 -0.216723,-0.56477 0.492378,-0.3327 0.492378,-0.33271 -2.116666,0.22082 -2.116667,0.22082 -0.676137,0.18992 -0.676137,0.18991 1.153556,0.48504 1.153556,0.48503 0.232563,-0.14373 0.232564,-0.14373 0.877517,0.48571 0.877518,0.48572 0.109014,0.0125 0.109015,0.0125 z m -56.014908,-3.08195 -0.147432,-0.97499 -0.0048,1.76389 -0.0048,1.76388 0.152248,-0.7889 0.152247,-0.78889 z m 24.617686,2.02362 0.218029,-0.35278 H 56.337487 55.96389 v 0.35278 0.35278 h 0.155569 0.155569 z m 34.219444,0 -0.218028,-0.35278 0.285403,-0.0358 0.285403,-0.0358 1.411111,-0.12211 1.411111,-0.12211 1.134153,-0.20854 1.134152,-0.20854 0.216095,-0.34965 0.216094,-0.34965 -2.937747,0.23839 -2.937747,0.23838 -0.705555,0.27895 -0.705556,0.27896 0.440972,0.0224 0.440973,0.0224 v 0.52917 0.52916 h 0.373597 0.373598 z m 7.032241,-0.3905 -0.241343,-0.39051 1.190662,0.21322 1.190662,0.21322 -0.705555,-0.32709 -0.705556,-0.32709 -0.617361,-0.0248 -0.617361,-0.0248 v 0.52917 0.52917 h 0.373598 0.373597 z m -50.034499,-2.07895 0.182377,-0.88194 0.334458,-0.61736 0.334458,-0.61736 -0.429426,-0.68762 -0.429425,-0.68762 -0.455508,0.37803 -0.455508,0.37804 v 1.84816 1.84817 l -0.970139,-0.15437 -0.970139,-0.15437 0.881944,0.72171 0.881945,0.72172 0.456293,-0.60662 0.456293,-0.60662 z m 6.842537,1.36947 v -0.35277 l -0.352778,0.21803 -0.352778,0.21802 v 0.35278 0.35278 l 0.352778,-0.21803 0.352778,-0.21803 z m -14.816667,0.23885 v -0.15557 l -0.352778,-0.21803 -0.352777,-0.21802 v 0.37359 0.3736 h 0.352777 0.352778 z m 47.261002,-2.51966 0.01122,-0.73495 0.264583,-0.26442 0.264583,-0.26442 0.02197,-1.38188 0.02197,-1.38188 h -0.262779 -0.26278 l -0.223936,-0.70555 -0.223935,-0.70556 h -0.286834 -0.286834 l -0.05931,3.79236 -0.05931,3.79236 0.535084,-0.70555 0.535084,-0.70556 z m -43.556835,0.55856 -0.218029,-0.35277 -0.420152,0.005 -0.420153,0.005 0.529167,0.34197 0.529167,0.34197 0.109014,0.005 0.109014,0.005 z m 36.865277,-1.41951 v -1.02511 L 79.6,187.40052 l -0.705555,-0.3776 v 0.214 0.214 l 0.529166,0.52917 0.529167,0.52916 v 0.32758 0.32758 h -0.32691 -0.326911 l -0.161333,-0.61736 -0.161334,-0.61736 -0.04092,0.94074 -0.04092,0.94074 0.440972,0.15818 0.440972,0.15818 0.264584,-0.1496 0.264583,-0.1496 z m -35.179761,-0.80906 0.171135,-1.12281 -0.08408,-0.0965 -0.08408,-0.0965 -0.579659,0.22243 -0.579659,0.22244 v 1.1859 1.18591 l 0.492607,-0.18903 0.492608,-0.18903 z m 5.164252,1.42319 -0.146991,-0.0998 -0.705555,-0.51753 -0.705556,-0.51754 0.484168,0.61736 0.484168,0.61736 h 0.368379 0.368378 z m -39.359977,-1.50289 -0.208899,-0.54438 -0.168132,0.16814 -0.168133,0.16813 0.232534,0.37625 0.232535,0.37625 h 0.144497 0.144497 z m 9.644252,-3.75509 -0.185286,-0.46302 -0.02785,0.67615 -0.02785,0.67616 0.213136,-0.21314 0.213137,-0.21313 z m 60.69257,-0.63941 -0.05315,-0.70556 H 80.747236 80.28073 l 0.377602,0.70556 0.377602,0.70555 h 0.142052 0.142052 z m -36.241109,-1.21396 -0.002,-0.37354 -1.48331,-0.0575 -1.483309,-0.0575 0.956139,0.58015 0.956138,0.58015 0.01122,0.53565 0.01122,0.53565 0.517948,-0.68479 0.517947,-0.68478 z m -38.1935477,-0.0575 -0.2131366,-0.21314 -0.4630208,0.18529 -0.4630209,0.18528 0.6761574,0.0279 0.6761574,0.0279 z m 0.8194245,-1.35229 -0.4208443,-0.50708 -1.4457851,0.0661 -1.445785,0.0661 -0.1462423,0.44097 -0.1462423,0.44097 h 2.0128716 2.0128717 z m 22.4188232,-0.87434 0.510457,0.42364 0.213452,-0.21345 0.213452,-0.21345 -0.899613,-0.4099 -0.899612,-0.40989 0.09065,-0.39706 0.09065,-0.39707 -0.147969,0.26458 -0.147968,0.26459 h -0.676158 -0.676157 l 0.04804,0.97013 0.04804,0.97014 0.155547,-0.81408 0.155547,-0.81408 0.413772,0.13616 0.413772,0.13616 0.154696,0.85431 0.154695,0.85431 0.137123,-0.81434 0.137122,-0.81435 z m 8.783685,0.3231 -0.218029,-0.35278 -0.596541,0.005 -0.596541,0.005 0.529166,0.34197 0.529167,0.34198 0.285403,0.005 0.285403,0.005 z m 15.19677,-1.32292 -0.07707,-1.32292 -0.265911,-0.92214 -0.26591,-0.92214 0.819947,-0.21957 0.819948,-0.21957 0.461792,-0.005 0.461792,-0.005 -0.251716,0.40729 -0.251715,0.40728 0.413039,-0.25527 0.413039,-0.25527 -0.183992,-0.29771 -0.183992,-0.2977 -1.497457,-0.2412 -1.497456,-0.2412 -4.938889,-1.17839 -4.938889,-1.17839 -3.175,-0.57783 -3.175,-0.57784 -2.64583,-0.67291 -2.645834,-0.67287 -3.787434,-0.88818 -3.787435,-0.88818 H 23.68965 23.508335 v 0.88195 0.88194 l 0.264583,-0.0662 0.264583,-0.0662 1.438893,0.26343 1.438893,0.26343 1.341845,0.4613 1.341846,0.4613 -1.722405,0.2778 -1.722405,0.2778 1.234722,0.34466 1.234722,0.34466 5.291667,1.69799 5.291666,1.69798 6.35,1.98562 6.35,1.98561 0.881945,0.29926 0.881944,0.29927 0.228585,0.0279 0.228585,0.0278 z m 42.306007,0.57351 0.705555,-0.30109 -2.400166,0.16939 -2.400166,0.16939 0.25047,-0.40527 0.250469,-0.40527 -0.848914,0.22715 -0.848915,0.22714 -2.293056,0.0529 -2.293055,0.0529 0.798982,0.15357 0.798982,0.15357 -0.222453,0.35993 -0.222453,0.35994 4.009582,-0.25654 4.009582,-0.25653 z m -15.441378,0.18349 -0.213136,-0.21313 -0.463021,0.18528 -0.463021,0.18529 0.676158,0.0279 0.676157,0.0279 z M 5.9576404,179.4058 5.5166682,179.22787 5.0756959,179.4058 4.6347237,179.58374 h 0.8819445 0.8819444 z m 33.6464316,-2.07105 -0.198594,-0.51753 h -0.384669 -0.38467 l 0.272405,0.44076 0.272405,0.44076 -0.06595,1.05854 -0.06595,1.05855 0.376808,-0.98178 0.376809,-0.98177 z m 4.718151,1.42275 v -0.52917 h -0.341706 -0.341706 l 0.203061,0.52917 0.20306,0.52916 h 0.138646 0.138645 z m 59.647917,0.0343 -0.4107,-0.49486 0.41809,-0.13937 0.41809,-0.13936 -0.43605,-0.81476 -0.43604,-0.81476 0.38546,-0.38546 0.38545,-0.38546 v -3.0673 -3.06729 l -1.15482,0.26045 -1.15483,0.26046 -0.76226,0.40795 -0.76226,0.40795 h -1.081522 -1.081526 l -0.0054,0.44097 -0.0054,0.44097 -0.304671,-0.48089 -0.304672,-0.48089 -0.142464,0.42739 -0.142464,0.4274 -1.716986,0.19353 -1.716986,0.19352 0.250066,-0.40461 0.250066,-0.40462 H 93.96712 93.47593 l -0.250213,0.25022 -0.250212,0.25021 -1.395343,-0.10075 -1.395343,-0.10074 0.213391,0.55609 0.213392,0.55609 h 0.55022 0.550219 l -0.244276,0.24427 -0.244276,0.24428 -0.665952,0.10163 -0.665951,0.10163 -1.088847,-1.24013 -1.088846,-1.24012 v 0.73293 0.73294 l 1.267675,2.36614 1.267674,2.36615 0.284314,0.29963 0.284314,0.29962 0.759641,-0.2411 0.75964,-0.2411 -0.421622,-0.50802 -0.421623,-0.50803 0.215349,-0.21535 0.215348,-0.21534 1.032097,0.42751 1.032098,0.4275 1.625047,-0.24369 1.625048,-0.24369 v 0.52513 0.52512 l 1.102431,0.22049 1.10243,0.22048 h 0.767516 0.76751 l 0.94953,0.44098 0.94952,0.44097 0.003,0.25351 0.003,0.25351 -0.52916,-0.20306 -0.52917,-0.20306 v 0.39052 0.39052 h 1.27792 1.27792 z m -12.728473,-3.7593 v -0.3736 l 0.352778,0.21803 0.352777,0.21803 v 0.15557 0.15557 h -0.352777 -0.352778 z m -64.656757,3.04638 -0.980369,-0.34673 0.186619,-0.48633 0.186619,-0.48632 0.01122,-0.76489 0.01122,-0.7649 0.517947,0.68479 0.517947,0.68478 v -0.57282 -0.57282 l -0.687553,-0.21822 -0.687554,-0.21822 0.100568,-0.42291 0.100569,-0.42291 -0.147969,0.26458 -0.147968,0.26458 h -0.499769 -0.499768 l 0.02785,0.61736 0.02785,0.61736 0.177936,-0.44097 0.177936,-0.44097 h 0.36983 0.369829 l -0.194687,1.4515 -0.194687,1.4515 0.677404,0.17714 0.677404,0.17715 v 0.33245 0.33246 l 0.440972,-0.27495 0.440972,-0.27495 z m 53.961633,-0.26948 -0.185285,-0.46302 -0.02785,0.67615 -0.02785,0.67616 0.213136,-0.21314 0.213137,-0.21313 z M 7.5096977,177.4112 7.703986,177.21691 7.4714516,176.84066 7.2389173,176.46441 H 5.6722372 4.1055571 v 0.75144 0.75143 l 1.6049262,-0.1809 1.6049262,-0.1809 z m 61.2883953,-0.0998 5.809471,-0.24535 -0.499687,-0.49969 -0.499687,-0.49968 -0.321693,0.19881 -0.321694,0.19882 -3.473373,-0.70217 -3.473374,-0.70217 -0.478715,-0.003 -0.478716,-0.003 0.20306,0.52916 0.203061,0.52917 -2.193789,0.0366 -2.19379,0.0366 -2.469444,0.0305 -2.469444,0.0305 1.058333,0.28164 1.058333,0.28165 1.940278,0.48716 1.940278,0.48716 0.42556,-0.11338 0.42556,-0.11338 z m -37.271414,-0.002 -0.213136,-0.21314 -0.463021,0.18529 -0.463021,0.18528 0.676158,0.0279 0.676157,0.0278 z m 44.253229,-1.19798 0.134571,-1.41111 h -0.450295 -0.450295 v 1.41111 1.41111 h 0.315724 0.315724 z m 1.648746,0 0.08326,-1.41111 h -0.367069 -0.367069 v 1.41111 1.41111 h 0.283807 0.283807 z m 11.400991,0.95114 -0.381746,-0.45998 -0.344644,-0.86294 -0.344643,-0.86294 -0.02236,1.32292 -0.02236,1.32291 h 0.748751 0.748752 z m -8.270942,-3.32754 -0.147432,-0.97499 -0.0048,1.76389 -0.0048,1.76389 0.152247,-0.7889 0.152247,-0.7889 z m -6.603147,1.29725 v -0.33192 H 73.602778 73.25 v 0.54999 0.54999 l 0.352778,-0.21803 0.352778,-0.21803 z m 8.357068,-0.94928 -0.161334,-0.61736 v 1.23472 1.23472 l 0.161334,-0.61736 0.161333,-0.61736 z m -54.125542,-0.88194 -0.134276,-0.26459 h -0.26112 -0.26112 l 0.172218,1.32292 0.172219,1.32292 0.223177,-1.05834 0.223178,-1.05833 z m 31.561819,1.99172 -0.213136,-0.21314 -0.463021,0.18529 -0.463021,0.18529 0.676157,0.0279 0.676158,0.0279 z m -32.816061,-1.98761 -0.153421,-0.79786 -0.0071,1.41111 -0.0071,1.41111 0.160541,-0.61325 0.160541,-0.61325 z m 39.514752,-0.88121 -0.147432,-0.97499 -0.0048,1.76389 -0.0048,1.76389 0.152247,-0.7889 0.152248,-0.7889 z m 12.437669,0.10944 -0.343594,-0.34359 0.03032,1.39347 0.03032,1.39347 0.313272,-1.04988 0.313272,-1.04988 z m -10.693289,0.76766 -0.177936,-0.44098 v 0.88195 0.88194 l 0.177936,-0.44097 0.177936,-0.44097 z m 3.527778,0 -0.177937,-0.44098 v 0.88195 0.88194 l 0.177937,-0.44097 0.177936,-0.44097 z m -46.90861,-0.52246 -0.162627,-0.62407 -0.01307,1.05833 -0.01307,1.05834 0.175698,-0.43426 0.175698,-0.43426 z m 1.054849,0.19173 -0.185286,-0.46302 -0.02785,0.67615 -0.02785,0.67616 0.213137,-0.21313 0.213136,-0.21314 z m 39.808624,0.13427 -0.197483,-0.19748 -0.435092,0.43836 -0.435093,0.43835 0.632576,-0.24087 0.632576,-0.24087 z m -46.819764,-0.0651 3.284014,-0.003 -0.218028,-0.35277 -0.218029,-0.35278 h -1.213902 -1.213903 v -0.70556 -0.70555 h 0.529167 0.529167 v -0.27584 -0.27583 l -0.887796,-0.0735 -0.887795,-0.0735 0.220484,0.87848 0.220483,0.87847 h -0.263936 -0.263936 l -0.45094,-0.61736 -0.45094,-0.61736 -3.598764,-0.12257 -3.598764,-0.12256 0.225838,0.36541 0.225839,0.36542 -1.3303035,0.11909 -1.330303,0.11909 1.9402775,0.95276 1.940278,0.95276 1.763889,-0.1651 1.763889,-0.16511 z m 38.883053,-0.88501 0.07112,-0.70555 -0.04062,-1.14653 -0.04062,-1.14653 h -0.352777 -0.352778 v 2.18723 2.18722 l 0.322277,-0.33514 0.322277,-0.33514 z m 19.553977,0.90632 0.202964,-0.3284 -0.358533,-0.22158 -0.358532,-0.22159 v 0.54999 0.54999 h 0.155569 0.155569 z m 4.682022,-0.59029 -0.213137,-0.21313 -0.463021,0.18528 -0.46302,0.18529 0.676157,0.0278 0.676157,0.0279 z m -8.023747,-1.28616 0.0054,-0.26459 H 73.602778 73.25 l 0.0054,0.79375 0.0054,0.79375 0.341974,-0.52916 0.341974,-0.52917 z m -4.188244,-0.36602 -0.392465,-0.39246 v 0.54092 0.54093 l 0.257234,0.25723 0.257234,0.25724 0.135231,-0.4057 0.135232,-0.40569 z m 12.556502,-1.0451 -0.152883,-0.79375 v 1.5875 1.5875 l 0.152883,-0.79375 0.152883,-0.79375 z m -14.035151,1.05833 -0.02785,-0.79375 -0.177936,0.44097 -0.177936,0.44098 -0.764352,0.0352 -0.764352,0.0352 0.881944,0.28244 0.881945,0.28245 0.08819,0.0352 0.08819,0.0352 z m -8.791594,-1.14653 v -0.48752 l -0.352777,-0.21803 -0.352778,-0.21803 v 0.92358 0.92359 l 0.352778,-0.21803 0.352777,-0.21803 z m 10.583334,0 v -0.52916 h -0.352778 -0.352778 v 0.52916 0.52917 h 0.352778 0.352778 z m 1.618684,-0.79196 -0.207573,-0.20757 -0.219971,0.21997 -0.219971,0.21997 0.274566,0.63257 0.274566,0.63258 0.152978,-0.64497 0.152979,-0.64498 z m 3.561192,0.19665 -0.185286,-0.46302 -0.02785,0.67616 -0.02785,0.67616 0.213137,-0.21314 0.213136,-0.21314 z m -55.744691,-0.43725 v -0.5034 l -0.646759,-0.16913 -0.646759,-0.16913 v 0.15825 0.15825 l 0.440972,0.50086 0.440972,0.50086 0.205787,0.0134 0.205787,0.0134 z m 41.392592,0.15062 v -0.35278 l -0.617361,0.005 -0.617361,0.005 0.529167,0.34198 0.529167,0.34197 0.08819,0.005 0.08819,0.005 z m 30.928221,-0.20597 0.214411,-0.55874 0.277828,0.44953 0.277827,0.44954 5.845891,0.021 5.845894,0.021 8e-4,-12.7882 7.9e-4,-12.78819 -17.727079,0.0352 -17.727083,0.0352 0.881945,0.24094 0.881944,0.24094 0.321569,0.72029 0.321569,0.72029 1.029937,0.59111 1.029936,0.5911 h 0.500578 0.500578 v 0.87895 0.87896 l 0.670355,0.41864 0.670356,0.41865 -0.168465,0.43901 -0.168466,0.43901 0.644638,0.6599 0.644637,0.6599 0.484168,0.6021 0.484168,0.6021 -0.411356,0.49566 -0.411357,0.49565 1.104192,0.55084 1.104191,0.55085 0.858302,-0.56238 0.858301,-0.56238 1.316085,0.2107 1.316084,0.21071 0.585714,0.71629 0.585715,0.71628 h 0.399889 0.399889 l -0.05726,0.44098 -0.05726,0.44097 0.0418,2.35963 0.0418,2.35964 1.499305,0.21655 1.499306,0.21656 1.628202,0.0696 1.628203,0.0696 -0.16664,0.44097 -0.166641,0.44097 h 0.369701 0.369702 l 0.191711,-0.31019 0.191711,-0.3102 0.684659,-0.17904 0.684659,-0.17904 -0.177356,0.46218 -0.177356,0.46218 0.732917,0.39225 0.732917,0.39224 v 0.51676 0.51675 H 94.240287 93.71112 v 0.52917 0.52917 h -0.529166 -0.529167 l -0.705556,-0.70556 -0.705555,-0.70555 -0.0054,0.26458 -0.0054,0.26458 -0.259181,-0.35334 -0.259182,-0.35334 -1.058333,-0.48157 -1.058333,-0.48157 -0.617362,-0.3146 -0.617361,-0.31461 v 0.33123 0.33123 l -0.719529,0.11273 -0.719529,0.11273 0.03024,0.35278 0.03024,0.35278 0.83198,-0.10903 0.83198,-0.10902 0.230904,0.3736 0.230903,0.37361 h 1.284458 1.284457 l -0.369315,0.36932 -0.369315,0.36931 -1.410816,0.0563 -1.410815,0.0563 0.03388,0.97992 0.03388,0.97991 0.352778,-0.0675 0.352778,-0.0675 0.984567,0.25988 0.984567,0.25989 -0.191962,0.3106 -0.191961,0.3106 0.215277,0.561 0.215276,0.561 h 0.855273 0.855273 z m 1.527335,-0.11295 v -0.42828 l -0.323061,0.19967 -0.32306,0.19966 0.390633,-1.0349 0.390632,-1.03491 1.078955,0.56015 1.078956,0.56015 -0.529167,0.16556 -0.529166,0.16555 -0.617361,0.53781 -0.617361,0.53781 z m -2.910417,-2.38416 0.440972,-0.17794 0.440972,0.17794 0.440973,0.17793 h -0.881945 -0.881944 z m -51.064583,2.33983 -1.940277,-0.27253 -5.644445,0.0226 -5.644444,0.0226 1.940278,0.22458 1.940277,0.22457 5.644445,0.0254 5.644444,0.0254 z m 3.615972,0.12961 -0.440972,-0.17793 -0.440972,0.17793 -0.440972,0.17794 h 0.881944 0.881945 z m 30.000783,-0.37995 -2.19019,-0.12487 -2.395922,0.12375 -2.395921,0.12374 4.586111,0.001 4.586111,0.001 z m 8.275606,-0.33514 -0.617361,-0.16134 -0.617361,0.16134 -0.617362,0.16133 h 1.234723 1.234722 z m -23.753158,-0.67651 0.558019,-0.21414 v -0.33585 -0.33585 l -0.352778,0.21802 -0.352777,0.21803 v -0.37359 -0.3736 l -0.440973,0.0882 -0.440972,0.0882 0.103659,-0.61736 0.103659,-0.61736 h -0.683276 -0.683277 l -0.203061,0.52916 -0.20306,0.52917 0.18579,0.48416 0.185789,0.48416 -0.902417,-0.17251 -0.902417,-0.17251 v -0.29412 -0.29412 l 0.577484,-0.32318 0.577483,-0.32317 -1.10665,-0.16243 -1.10665,-0.16242 v 0.46807 0.46807 h -0.348619 -0.348618 l 0.08404,-0.75486 0.08404,-0.75487 -0.529166,-0.15394 -0.529167,-0.15393 0.526218,0.36494 0.526217,0.36495 -0.379032,0.37903 -0.379033,0.37903 -0.574728,-0.22054 -0.574728,-0.22055 -0.213591,-0.67296 -0.213591,-0.67297 h -0.329005 -0.329005 v 0.55236 0.55236 l 0.38136,0.71258 0.38136,0.71258 -0.187214,0.18721 -0.187213,0.18721 -0.552101,-1.18756 -0.552102,-1.18757 0.181566,0.64621 0.181566,0.64622 v 0.65435 0.65435 l 1.146528,0.14228 1.146528,0.14229 3.057953,0.0565 3.057952,0.0565 z m -31.997007,-0.6543 0.27586,-0.30302 -0.500923,0.29082 -0.500923,0.29082 0.225268,-0.58704 0.225268,-0.58704 h -0.341706 -0.341706 v 0.35278 0.35278 h -1.058333 -1.058334 v -0.31975 -0.31976 l -0.735377,0.19231 -0.735378,0.19231 0.470794,0.29843 0.470795,0.29843 -0.949319,0.005 -0.949319,0.005 -0.251716,-0.40729 -0.251716,-0.40728 0.407285,0.25172 0.407285,0.25171 v -0.41474 -0.41474 l -0.79375,0.21271 -0.79375,0.21272 -0.705556,0.0317 -0.705555,0.0317 1.234722,0.47988 1.234722,0.47988 2.722751,-0.0839 2.722752,-0.0839 z m 1.60857,-0.19394 0.607568,-0.70958 v -0.18049 -0.18049 l -0.881945,0.57787 -0.881944,0.57787 v 0.31221 0.3122 h 0.274376 0.274376 z m 17.188123,0.21817 v -0.49143 l -0.529167,-0.20306 -0.529166,-0.20306 v 0.29761 0.29761 l -1.087213,0.21744 -1.087212,0.21745 -0.61788,-0.33068 -0.61788,-0.33068 v 0.51011 0.51011 h 2.234259 2.234259 z m 3.527778,-0.34626 v -0.83769 l -1.411111,0.69816 -1.411111,0.69817 v 0.13952 0.13952 h 1.411111 1.411111 z m 19.20875,0.51439 -0.335139,-0.3233 -0.529167,-0.0842 -0.529167,-0.0842 -0.881944,0.38519 -0.881944,0.38518 1.746249,0.0224 1.74625,0.0224 z m 3.626261,0.11015 -0.213136,-0.21313 -0.463021,0.18528 -0.463021,0.18529 0.676157,0.0279 0.676158,0.0279 z m 1.954341,-0.0183 -0.434258,-0.17569 -0.624075,0.16262 -0.624075,0.16263 1.058333,0.0131 1.058334,0.0131 z m -36.078241,-0.53507 v -0.26972 l 0.617361,0.1986 0.617361,0.19859 -0.526236,-0.37137 -0.526235,-0.37138 -0.763823,0.19171 -0.763823,0.1917 -0.760964,-0.40725 -0.760964,-0.40726 -0.533503,0.44277 -0.533504,0.44277 -0.284674,-0.46061 -0.284675,-0.46062 -0.383266,0.65969 -0.383266,0.65968 -0.01613,-0.52916 -0.01613,-0.52917 -0.347376,0.52917 -0.347376,0.52916 -0.264583,-0.36458 -0.264584,-0.36458 -0.936451,0.0118 -0.936452,0.0118 0.1449,0.23446 0.144899,0.23445 -0.44317,0.19405 -0.44317,0.19406 4.497917,-0.0595 4.497916,-0.0595 z m 24.46603,-0.005 -0.757582,-0.36261 -0.593817,0.33232 -0.593818,0.33231 1.351399,0.0303 1.351399,0.0303 z m 8.455696,-0.0309 0.415774,-0.44938 0.102106,-0.4743 0.102106,-0.47431 -0.895856,0.22484 -0.895856,0.22485 v -0.23241 -0.23241 l 0.617361,-0.46865 0.617361,-0.46864 -0.487788,-0.0112 -0.487787,-0.0112 -0.634691,0.73181 -0.634691,0.7318 -0.713572,-0.11444 -0.713572,-0.11445 -0.01603,0.26459 -0.01603,0.26458 0.264584,0.0418 0.264583,0.0418 0.695856,0.4874 0.695857,0.48739 h 0.652258 0.652259 z m -53.559226,-0.25619 0.218029,-0.35278 h -0.352778 -0.352777 l -0.218029,0.35278 -0.218029,0.35278 h 0.352778 0.352778 z m 43.712921,-0.88194 -0.221354,-0.88195 h 0.332226 0.332225 v -0.52916 -0.52917 h -0.327008 -0.327008 l -0.178124,0.68114 -0.178123,0.68115 -0.506081,-0.1942 -0.50608,-0.1942 0.421079,0.92416 0.421079,0.92417 h 0.479262 0.479261 z m 20.573479,-0.0368 -0.213137,-0.21314 -0.46302,0.18529 -0.463021,0.18528 0.676157,0.0279 0.676158,0.0279 z M 17.86389,164.46997 v -0.35278 h -0.155569 -0.155569 l -0.218028,0.35278 -0.218029,0.35277 h 0.373598 0.373597 z m 11.684731,-0.5909 -0.374387,-0.64383 -0.01073,0.55857 -0.01073,0.55856 0.235185,0.23519 0.235185,0.23518 0.14993,-0.14992 0.149929,-0.14993 z m 35.44785,-0.0191 -0.213137,-0.21314 -0.211715,0.21171 -0.211714,0.21172 0.276303,0.44707 0.276302,0.44706 0.148549,-0.44564 0.148548,-0.44565 z m 6.489641,-0.17062 v -0.27771 h -0.902765 -0.902764 l 0.204155,0.33033 0.204155,0.33033 0.698609,-0.0526 0.69861,-0.0526 z m -31.044444,-0.25689 v -0.33195 l -0.352778,-0.21803 -0.352778,-0.21803 v 0.54999 0.54998 h 0.352778 0.352778 z m 41.916649,-5.39537 -0.112483,-2.74118 0.352777,-0.14761 0.352778,-0.14762 -0.90652,-0.0279 -0.906521,-0.0279 -0.802301,0.92273 -0.8023,0.92272 -1.195132,-0.19394 -1.195131,-0.19394 -0.181726,0.29404 -0.181725,0.29403 -1.999628,-0.13889 -1.999628,-0.13889 -0.647333,-0.58583 -0.647332,-0.58583 v -0.43998 -0.43998 l -1.068845,-0.3726 -1.068845,-0.3726 -0.518655,-0.51866 -0.518655,-0.51865 v -0.38671 -0.38671 l -0.899125,-0.34184 -0.899125,-0.34185 -2.011292,-0.32181 -2.011292,-0.32182 -1.665902,0.37795 -1.665903,0.37794 -1.918146,-0.42926 -1.918147,-0.42927 -0.844548,-0.77559 -0.844548,-0.77559 -0.931598,-0.49006 -0.931599,-0.49006 -1.518971,0.2763 -1.518971,0.27631 -1.5875,0.0115 -1.5875,0.0115 -2.645833,-0.98201 -2.645833,-0.98201 -0.352778,-0.28203 -0.352778,-0.28203 -1.675694,-0.24946 -1.675695,-0.24946 v 0.35424 0.35423 l -1.234722,0.21499 -1.234722,0.21498 -1.234722,0.21499 -1.234722,0.21498 v -0.39137 -0.39137 l -0.264584,0.0785 -0.264583,0.0785 -0.970139,-0.6482 -0.970139,-0.64819 v -0.86219 -0.86219 l 0.352778,0.21803 0.352778,0.21803 v -0.37359 -0.3736 h -12.7 -12.6999999 v 8.75717 8.75717 l 2.9104166,-0.0306 2.9104166,-0.0306 0.3527777,-0.19348 0.352778,-0.19349 0.705555,0.0734 0.705556,0.0734 1.5875,0.08 1.5875,0.08 0.617361,-0.25749 0.617361,-0.2575 v 0.31174 0.31174 l 2.677233,-0.21898 2.677233,-0.21898 3.408184,0.11921 3.408183,0.11921 v 0.0317 0.0318 l 2.116667,0.0793 2.116667,0.0793 0.624651,-0.30157 0.624652,-0.30157 0.431947,0.26696 0.431947,0.26696 4.058679,-0.0927 4.058679,-0.0927 1.5875,-0.0333 1.5875,-0.0333 6.614117,0.13987 6.614117,0.13987 4.66e-4,0.25352 4.66e-4,0.25351 0.503427,-0.19319 0.503427,-0.19318 -0.20622,0.78859 -0.20622,0.78858 0.408349,-0.25237 0.408348,-0.25237 0.0054,-0.77293 0.0054,-0.77293 0.259182,0.35277 0.259181,0.35278 1.058333,0.0704 1.058334,0.0704 2.116666,0.2094 2.116667,0.2094 1.940278,0.1266 1.940278,0.1266 v 0.0665 0.0665 l 3.392726,0.15418 3.392726,0.15418 1.89894,0.67097 1.898941,0.67097 0.112483,-1.46828 0.112484,-1.46828 z m -28.511094,4.84539 v -0.52917 h -0.572362 -0.572363 l 0.439169,0.52917 0.43917,0.52916 h 0.133193 0.133193 z m 38.933129,0 -0.203061,-0.52917 H 92.3 92.022709 l -0.20306,0.52917 -0.203061,0.52916 H 92.3 92.983412 Z"
       id="path2" /></g></svg>
