<?xml version="1.0" encoding="UTF-8" standalone="no"?>
<!-- Created with Inkscape (http://www.inkscape.org/) -->

<svg
   width="101.6mm"
   height="84.666656mm"
   viewBox="0 0 101.6 84.666656"
   version="1.1"
   id="svg1"
   xml:space="preserve"
   xmlns="http://www.w3.org/2000/svg"
   xmlns:svg="http://www.w3.org/2000/svg"><defs
     id="defs1" /><g
     id="layer1"
     transform="translate(-106.89451,-142.59776)"><path
       style="fill:#ffffff;fill-opacity:1"
       d="m 106.89451,184.93108 v -42.33333 h 50.8 50.8 v 42.33333 42.33333 h -50.8 -50.8 z m 100.81403,35.05584 -0.096,-6.57194 -0.88194,-0.56767 -0.88194,-0.56768 0.45811,0.58182 0.4581,0.58181 -0.31381,0.19394 -0.31381,0.19395 -0.76165,-1.0302 -0.76166,-1.03019 v -0.24947 -0.24947 l 0.22281,0.2228 0.2228,0.22281 1.01192,-1.08327 1.01192,-1.08326 0.0441,0.2137 0.0441,0.2137 0.0441,0.32338 0.0441,0.32338 0.26459,0.26458 0.26458,0.26458 v -3.55354 -3.55355 l -0.76072,0.19893 -0.76072,0.19893 0.25238,-0.40834 0.25237,-0.40835 -0.81457,0.002 -0.81457,0.002 -0.95279,0.62834 -0.95278,0.62835 -1.25207,-0.0416 -1.25208,-0.0415 v 0.29282 0.29282 h -1.36996 -1.36997 l -0.17833,-0.68192 -0.17832,-0.68192 0.80646,0.30662 0.80646,0.30662 0.21266,-0.21267 0.21266,-0.21266 v -1.79562 -1.79561 l -0.31626,-1.10273 -0.31625,-1.10273 3.22668,-0.40439 3.22667,-0.40439 1.14652,-0.20551 1.14654,-0.2055 v -1.72397 -1.72463 h -0.38767 -0.38765 l -1.11165,-0.51577 -1.11165,-0.51576 -2.52616,-0.90041 -2.52615,-0.9004 -3.47085,0.38702 -3.47086,0.38702 -0.1766,0.19551 -0.1766,0.1955 0.3897,0.1404 0.3897,0.1404 -0.16625,0.86963 -0.16623,0.86964 h -0.52808 -0.52808 l 0.15533,-1.05833 0.15533,-1.05834 h -0.99723 -0.99724 v -0.54998 -0.54999 l 0.30181,0.18653 0.30182,0.18654 -0.16695,-0.8733 -0.16694,-0.87329 0.45869,-0.55268 0.45868,-0.55268 0.0377,-1.92305 0.0377,-1.92305 -0.80625,-0.75743 -0.80624,-0.75743 -0.26162,0.26162 -0.26162,0.26162 -0.004,4.36861 -0.004,4.36861 -1.94028,0.10426 -1.94028,0.10426 0.10366,0.61736 0.10366,0.61736 -1.16199,-0.005 -1.16199,-0.005 0.52916,-0.36271 0.52917,-0.36271 -0.87213,0.10353 -0.87212,0.10353 -0.30094,1.52851 -0.30094,1.52851 0.2003,0.52197 0.2003,0.52197 1.50193,-0.20924 1.50193,-0.20924 4.93889,-0.10774 4.93889,-0.10773 -0.59171,0.1395 -0.59172,0.13951 0.35433,1.01644 0.35433,1.01643 0.76655,0.10917 0.76655,0.10916 0.11879,0.83997 0.11879,0.83996 -0.22485,1.19851 -0.22484,1.19851 -3.24533,-0.0898 -3.24533,-0.0898 -0.3953,-2.47782 -0.39529,-2.47783 -0.0457,2.55764 -0.0457,2.55764 0.0882,0.005 0.0882,0.005 1.40342,0.48842 1.40342,0.48841 -2.10897,0.22638 -2.10898,0.22637 -2.29306,0.39589 -2.29305,0.39588 0.3761,0.12651 0.3761,0.12651 3.67617,-0.51381 3.67617,-0.51382 0.63577,0.68243 0.63578,0.68243 1.30918,0.0325 1.30917,0.0325 2.46945,-0.0197 2.46944,-0.0197 1.19325,0.21162 1.19325,0.21163 -0.58331,0.32644 -0.58331,0.32643 0.17359,0.28087 0.17359,0.28087 -0.31533,1.09948 -0.31533,1.09948 0.23736,-0.0327 0.23735,-0.0327 0.35278,0.042 0.35278,0.042 0.0509,0.88169 0.0509,0.8817 h -0.33628 -0.33628 l 0.21803,-0.35278 0.21803,-0.35278 h -0.54999 -0.54998 v 0.27771 0.2777 l -0.76201,0.0574 -0.76201,0.0574 -0.2374,0.38412 -0.2374,0.38413 -0.96384,-0.36645 -0.96383,-0.36645 h -0.84791 -0.8479 l 0.16872,0.44097 0.16872,0.44097 -1.32632,-0.0215 -1.32632,-0.0215 -0.98436,-0.28494 -0.98435,-0.28495 -0.60315,0.52495 -0.60314,0.52494 -0.52917,0.19457 -0.52917,0.19457 0.79375,0.0279 0.79375,0.0279 v 0.36824 0.36824 l 0.44097,-0.0711 0.44098,-0.0711 0.70555,0.26402 0.70556,0.26402 0.81669,0.39268 0.81669,0.39268 0.30295,-0.49018 0.30295,-0.49018 0.46786,0.35838 0.46786,0.35839 1.4993,-0.0377 1.49931,-0.0377 v 0.23285 0.23284 l 0.70555,0.18451 0.70556,0.18451 v 0.69538 0.69539 l -0.52917,0.43917 -0.52916,0.43917 v -0.43917 -0.43917 l -0.44098,0.34997 -0.44097,0.34998 -1.41111,0.26664 -1.41111,0.26664 -4.93549,0.10496 -4.9355,0.10495 -0.50173,-0.41379 -0.50174,-0.41379 -0.12926,0.38349 -0.12925,0.38349 -1.66546,-0.3327 -1.66546,-0.33269 -1.37029,0.005 -1.37029,0.005 -0.29354,0.47333 -0.29354,0.47333 -2.21673,-0.0711 -2.21672,-0.0711 -3.39922,-0.40463 -3.39922,-0.40462 0.0478,-11.87151 0.0478,-11.87151 -0.11775,-6.70277 -0.11776,-6.70278 -0.19348,-0.82727 -0.19349,-0.82727 -0.29144,0.47156 -0.29144,0.47156 0.20213,0.80537 0.20214,0.80536 -1.16038,-0.0884 -1.16037,-0.0884 -0.14417,0.43251 -0.14417,0.43251 -0.41158,2.5e-4 -0.41157,2.5e-4 -0.0509,0.8817 -0.0509,0.88169 h 0.31546 0.31546 v 0.3736 0.3736 l -0.34874,-0.21553 -0.34874,-0.21554 0.21041,0.54832 0.21041,0.54832 -0.83181,0.69299 -0.83181,0.69299 -0.48507,0.0117 -0.48507,0.0117 0.20421,-1.02105 0.20421,-1.02105 -0.68928,0.18025 -0.68928,0.18025 v 5.83849 5.83848 l -0.19844,-0.19844 -0.19843,-0.19843 v -4.80487 -4.80486 l -0.81216,-0.87633 -0.81215,-0.87633 h -0.58036 -0.58036 l -0.59317,0.69277 -0.59317,0.69277 -0.49307,-0.40921 -0.49308,-0.40922 0.0732,0.5102 0.0732,0.51019 -0.0418,1.04574 -0.0418,1.04573 -0.61736,-0.61752 -0.61736,-0.61752 0.52917,-0.33462 0.52917,-0.33462 -0.44098,-0.005 -0.44097,-0.005 v -0.52916 -0.52917 h 0.3736 0.3736 l -0.21803,-0.35278 -0.21803,-0.35277 h 0.3736 0.37359 v -0.35278 -0.35278 l -0.61736,-0.005 -0.61736,-0.005 0.47055,-0.29828 0.47055,-0.29828 -0.57706,-0.22145 -0.57707,-0.22144 0.21553,0.34874 0.21553,0.34874 h -0.44102 -0.44103 l 0.55432,0.44097 0.55433,0.44097 -0.43412,1.01356 -0.43411,1.01357 -0.22035,-1.10176 -0.22035,-1.10176 h -0.38242 -0.38242 l 0.21803,0.35278 0.21803,0.35278 h -0.3736 -0.3736 v 0.70555 0.70556 h -0.52916 -0.52917 v -0.54927 -0.54999 l -0.35278,0.21803 -0.35277,0.21803 v -1.47018 -1.47017 l 0.9666,0.2426 0.96661,0.2426 0.26271,0.41301 0.26272,0.413 0.005,-0.41537 0.005,-0.41537 -0.92341,-0.72635 -0.92341,-0.72635 -0.31131,0.1924 -0.31131,0.1924 v -0.35278 -0.35277 l 0.35277,-0.21803 0.35278,-0.21803 -0.0409,-0.77293 -0.0409,-0.77293 -0.16764,0.65009 -0.16764,0.6501 -0.67303,-0.17601 -0.67304,-0.176 -0.17709,0.28654 -0.17709,0.28654 -0.69651,-0.18214 -0.69651,-0.18214 -0.21397,-1.28405 -0.21397,-1.28404 -0.11965,-0.35278 -0.11965,-0.35278 -0.0279,1.52734 -0.0279,1.52733 -1.00212,-0.2201 -1.00212,-0.2201 -0.42418,0.5111 -0.42419,0.51111 0.2501,1.00388 0.2501,1.00389 -0.54931,-0.45232 -0.54931,-0.45232 -0.15751,-1.07316 -0.1575,-1.07316 0.64794,0.16944 0.64795,0.16945 0.25561,-0.40786 0.25561,-0.40785 0.0438,-0.35278 0.0438,-0.35278 0.0537,-1.00838 0.0537,-1.00838 0.97014,0.22004 0.97014,0.22005 -0.68479,-0.53458 -0.68479,-0.53458 -0.54993,-0.0155 -0.54994,-0.0155 -1.23472,-0.4424 -1.23472,-0.4424 0.12224,1.69261 0.12224,1.6926 h -0.57562 -0.57563 l -0.95773,-0.60351 -0.95772,-0.60352 0.61736,0.71949 0.61736,0.71949 v 1.11875 1.11875 h -0.14754 -0.14753 l -0.55802,-0.21413 -0.55802,-0.21414 -0.0616,-1.63795 -0.0616,-1.63795 -0.13413,1.4808 -0.13414,1.48079 -0.5098,-0.19562 -0.50978,-0.19562 v 0.20697 0.20696 l 1.41111,0.7199 1.41112,0.71989 v 1.22755 1.22756 h -0.70556 -0.70555 l -0.0409,-0.97014 -0.0409,-0.97014 -0.16018,0.61138 -0.16018,0.61137 -0.64643,-0.0986 -0.64644,-0.0987 -0.56357,-0.46772 -0.56358,-0.46773 v -0.66236 -0.66236 h -0.35277 -0.35278 v 0.59972 0.59972 l -0.37848,-0.37847 -0.37847,-0.37847 0.13202,-1.1914 0.13203,-1.19139 0.33464,0.76647 0.33465,0.76646 0.63847,-0.46801 0.63847,-0.46801 -0.37389,-0.23108 -0.37389,-0.23107 v -1.20283 -1.20284 l 0.61737,0.22515 0.61736,0.22513 -0.61736,-0.70495 -0.61737,-0.70496 v -1.13957 -1.13957 l 0.44098,0.22337 0.44097,0.22337 -0.65141,-0.53092 -0.65141,-0.53093 -2.80996,-0.90635 -2.80995,-0.90635 -0.2428,-2.7e-4 -0.2428,-2.7e-4 0.0642,1.49957 0.0642,1.49958 0.0239,0.63819 0.024,0.63818 0.38322,-0.23684 0.38322,-0.23685 -0.0695,0.83339 -0.0695,0.83338 0.0391,0.97014 0.0391,0.97013 h 0.32691 0.32691 l 0.16133,-0.61735 0.16134,-0.61736 0.0409,0.77293 0.0409,0.77293 0.35278,0.21802 0.35278,0.21803 v -0.54998 -0.55 h 0.35278 0.35277 v 1.23473 1.23472 h 0.32935 0.32935 l 0.14696,-0.97013 0.14696,-0.97014 0.0529,1.11713 0.0529,1.11713 -0.44097,0.17893 -0.44098,0.17893 0.43035,0.30569 0.43034,0.30569 0.0853,2.5687 0.0853,2.56871 0.27812,0.17189 0.27812,0.17189 0.0342,-1.16735 0.0342,-1.16734 -0.0612,-1.32292 -0.0612,-1.32292 h 0.35674 0.35674 l 0.0193,4.05695 0.0193,4.05694 h -0.34904 -0.34905 v 0.49088 0.49088 l 2.91041,2.38358 2.91042,2.38358 -0.0882,0.30054 -0.0882,0.30054 h 0.6296 0.6296 l 1.04609,0.87843 1.0461,0.87844 3.32475,2.67475 3.32475,2.67475 1.61414,1.10435 1.61413,1.10435 0.389,0.38057 0.38899,0.38056 2.63397,2.01746 2.63396,2.01746 h 0.38723 0.38722 l 0.1176,0.32166 0.11759,0.32167 3.15127,2.41236 3.15127,2.41236 0.11853,0.37259 0.11853,0.37259 -1.77049,0.45376 -1.77049,0.45376 v 0.53976 0.53977 l 0.49776,-0.41311 0.49776,-0.4131 0.24329,0.39365 0.24329,0.39365 -0.72215,0.18885 -0.72216,0.18885 -0.15436,0.58116 -0.15436,0.58115 -0.0409,-1.32291 -0.0409,-1.32292 h -0.34561 -0.34561 l -2.91759,0.545 -2.91758,0.545 -1.94027,0.52505 -1.94028,0.52505 -3.5161,0.51149 -3.5161,0.51149 -0.30029,-0.30029 -0.3003,-0.3003 -0.0249,-1.89861 -0.0249,-1.8986 0.049,-0.58285 0.049,-0.58285 1.05833,-0.36894 1.05833,-0.36894 0.0409,2.3629 0.0409,2.3629 0.1486,-0.55124 0.1486,-0.55124 1.21953,-0.44099 1.21953,-0.44099 0.35484,0.2193 0.35483,0.2193 v -0.35607 -0.35606 l -0.61736,-0.35958 -0.61736,-0.35958 0.97014,-0.0107 0.97014,-0.0107 v -0.52917 -0.52916 h 1.20532 1.20532 l 0.14842,0.44097 0.14842,0.44097 0.58204,-0.48044 0.58205,-0.48044 0.50446,0.19358 0.50446,0.19358 0.22717,-0.59199 0.22718,-0.592 -0.74061,-0.5997 -0.7406,-0.59971 -2.63237,-0.44231 -2.63237,-0.44232 v -0.23989 -0.23989 l 1.05833,-0.21166 1.05833,-0.21167 v -0.37296 -0.37297 l -0.79375,-0.30542 -0.79375,-0.30542 -2.38746,0.15605 -2.38747,0.15605 -0.77783,-0.54482 -0.77784,-0.54481 h 0.76323 0.76323 l 0.19324,-0.31268 0.19324,-0.31267 -0.70158,-0.18346 -0.70159,-0.18347 v 0.31975 0.31975 h -0.49977 -0.49977 l -0.11759,0.32316 -0.1176,0.32316 -2.56705,0.15662 -2.56705,0.15662 -0.22578,0.22578 -0.22577,0.22577 h -0.64676 -0.64676 v 0.35278 0.35277 h 0.35278 0.35278 v 0.331 0.331 l -0.97014,-0.0664 -0.97013,-0.0664 -0.46617,-0.44097 -0.46617,-0.44097 h -0.44159 -0.44159 l -1.3853,-1.73724 -1.38529,-1.73723 -3.88056,-4.94485 -3.88055,-4.94485 -0.44319,1.12583 -0.44319,1.12584 0.12919,-1.62171 0.12918,-1.62169 -0.59951,-0.3744 -0.5995,-0.3744 -0.43954,0.27165 -0.43954,0.27165 0.0566,0.23396 0.0566,0.23396 -0.12977,0.38931 -0.12977,0.3893 -0.86683,-1.72104 -0.86683,-1.72104 -0.26458,-0.11759 -0.26458,-0.1176 v -0.53751 -0.53751 l -0.50254,0.19284 -0.50255,0.19285 -0.63316,-0.94885 -0.63315,-0.94885 0.0928,-0.44098 0.0928,-0.44097 h -0.36824 -0.36824 v -0.37808 -0.37797 l -0.44098,-0.46075 -0.44097,-0.46074 -0.52917,-0.78961 -0.52916,-0.78961 -0.61736,-0.80856 -0.61736,-0.80857 v -0.27439 -0.2744 l -0.76705,-0.81649 -0.76705,-0.81649 h 0.61443 0.61443 l -0.23179,-0.73031 -0.23179,-0.73031 0.76701,-0.20058 0.76701,-0.20057 -0.4708,-0.29844 -0.47079,-0.29843 -1.10879,-0.005 -1.10878,-0.005 -0.21413,0.55802 -0.21414,0.55802 0.015,3.76351 0.015,3.76351 1.52216,2.46944 1.52215,2.46945 1.40538,0.10574 1.40539,0.10573 0.74384,1.39357 0.74385,1.39357 h -2.8282 -2.8282 l 0.22448,0.70729 0.22449,0.7073 -0.55349,0.21239 -0.55349,0.2124 v 0.30396 0.30396 l 0.52916,-0.20306 0.52917,-0.20306 v 0.35601 0.35601 l 1.09784,0.38271 1.09783,0.38271 -0.23454,0.61119 -0.23453,0.61119 0.24248,-0.24248 0.24248,-0.24248 1.2194,2.01712 1.2194,2.01712 0.48523,0.92977 0.48522,0.92977 -1.3111,-0.15574 -1.3111,-0.15573 -0.44097,-0.14561 -0.44097,-0.14561 v 0.85847 0.85847 l 0.76582,0.40985 0.76582,0.40986 0.42561,-0.58205 0.4256,-0.58206 0.18666,0.71378 0.18666,0.71377 h 0.88619 0.8862 l 0.75913,1.22829 0.75912,1.22828 -0.222,0.35921 -0.22201,0.35921 h 0.34442 0.34442 l 0.59968,1.57023 0.59967,1.57023 0.66423,0.60111 0.66422,0.60113 v 0.43674 0.43674 l 0.52917,0.20306 0.52916,0.20306 v 0.58533 0.58533 l -1.41101,-0.22563 -1.41102,-0.22564 -1.55294,-0.52723 -1.55295,-0.52724 -0.52961,0.20323 -0.52962,0.20323 -1.42137,-0.72513 -1.42138,-0.72513 -0.22115,-0.35782 -0.22114,-0.35782 h 0.3736 0.37359 v -0.35278 -0.35277 l -1.4993,0.005 -1.49931,0.005 -0.79375,0.21272 -0.79375,0.21271 v 4.72136 4.72135 h 50.10223 50.10223 z m -66.15996,-1.54196 v -1.23472 l 0.16133,0.61736 0.16133,0.61736 -0.16133,0.61737 -0.16133,0.61736 z m 1.05834,0 v -1.23472 l 0.16133,0.61736 0.16133,0.61736 -0.16133,0.61737 -0.16133,0.61736 z m -5.33919,-0.49262 -0.74633,-0.79444 0.26724,-0.26726 0.26726,-0.26725 -0.68423,-0.50032 -0.68424,-0.50032 0.86118,0.005 0.86118,0.005 0.79375,0.21271 0.79375,0.21272 v 1.15583 1.15584 l -0.49162,0.18865 -0.49161,0.18865 z m 0.009,-1.71812 -0.43835,-0.43509 0.24087,0.63258 0.24087,0.63257 0.19748,-0.19748 0.19749,-0.19748 z m 2.48137,1.15241 v -0.88194 l 0.17794,0.44097 0.17795,0.44097 -0.17795,0.44097 -0.17794,0.44098 z m 0.0325,-2.01286 -0.79374,-0.15288 0.002,-0.24005 0.002,-0.24004 1.72097,-1.86759 1.72096,-1.86758 1.30445,1.51481 1.30445,1.51481 0.32459,0.59563 0.32459,0.59563 -1.56623,0.23487 -1.56623,0.23487 -0.46303,-0.1853 -0.46302,-0.18528 0.77157,-0.0279 0.77157,-0.0279 -0.20686,-1.32291 -0.20686,-1.32293 -0.21558,-0.60616 -0.21558,-0.60617 -0.67274,2.10548 -0.67275,2.10547 -0.20555,-0.048 -0.20555,-0.048 z m -9.31809,-1.61152 -0.20048,-0.97856 0.32894,-0.20329 0.32893,-0.20331 0.087,0.12353 0.087,0.12352 -0.21545,1.05833 -0.21546,1.05834 z m 3.76185,-0.25616 -0.21803,-0.35278 h 0.37359 0.3736 v 0.35278 0.35277 h -0.15557 -0.15557 z m 70.31302,-0.24099 0.46302,-0.1853 0.21313,0.21315 0.21314,0.21314 -0.67616,-0.0279 -0.67616,-0.0279 z m -46.02914,-4.34514 v -2.64582 l 0.13838,1.32292 0.13838,1.32291 -0.13838,1.32292 -0.13838,1.32292 z m -2.32347,0.0751 -0.97014,-0.59134 v -1.50579 -1.50579 h 0.47449 0.47449 l 0.60589,0.6695 0.60589,0.6695 -0.11024,1.42763 -0.11024,1.42764 z m -35.68335,-1.75084 -0.62445,-1.32292 0.66512,0.70556 0.66511,0.70555 0.2357,0.61737 0.2357,0.61736 h -0.27637 -0.27636 z m 1.0641,-0.0882 -0.56462,-1.41112 h -0.68759 -0.68759 l -0.14164,-0.26458 -0.14164,-0.26458 0.26204,-0.88195 0.26205,-0.88194 0.0352,0.75601 0.0352,0.756 0.55802,0.21414 0.55801,0.21413 h 0.16836 0.16836 l -0.25172,-0.40728 -0.25172,-0.40728 0.37032,0.22887 0.37032,0.22887 0.19871,-0.51781 0.1987,-0.51781 -0.60271,-0.38259 -0.60271,-0.38258 0.50396,0.12967 0.50397,0.12966 0.37019,0.58688 0.37019,0.58687 -0.62643,0.45806 -0.62643,0.45806 0.45783,1.05073 0.45783,1.05074 0.44097,0.0353 0.44098,0.0353 0.37359,0.0529 0.3736,0.0529 -0.21803,0.35278 -0.21803,0.35278 h -0.64643 -0.64643 z m 0.71321,-0.88195 -0.20306,-0.52917 h 0.3417 0.34171 v 0.52917 0.52917 h -0.13865 -0.13864 z m 30.53113,0.1 -0.41745,-0.41745 v -0.47943 -0.47943 l 0.35278,0.21803 0.35278,0.21803 v -0.22241 -0.22241 l -0.50558,-0.50558 -0.50558,-0.50558 -0.14712,0.97175 -0.14712,0.97175 -0.0529,-1.4993 -0.0528,-1.49931 h 0.48597 0.48597 l 0.38013,0.45803 0.38013,0.45803 0.0871,1.29339 0.0871,1.2934 -0.18298,0.18297 -0.18297,0.18298 z m -28.28689,-1.84302 v -0.54998 h 0.35277 0.35278 v 0.33195 0.33196 l -0.35278,0.21803 -0.35277,0.21803 z m 31.48541,-0.27499 -0.79375,-0.38281 v -1.70998 -1.70998 h 0.27429 0.27428 l 0.78405,0.54917 0.78405,0.54917 v 1.5675 1.56749 l -0.26458,-0.0239 -0.26459,-0.0239 z m -6.35,-0.3238 -0.44097,-0.44508 v -0.47943 -0.47944 l 0.44097,0.25785 0.44098,0.25785 -0.61737,-0.70578 -0.61736,-0.70578 v -0.41319 -0.41319 h 0.30959 0.30958 l 0.41873,0.50454 0.41874,0.50455 -0.11096,1.28109 -0.11095,1.28109 z m -1.11867,-0.86254 0.0279,-0.67615 0.18528,0.46302 0.18529,0.46302 -0.21314,0.21313 -0.21313,0.21314 z m 49.24344,-0.73495 -0.23518,-0.23519 v -1.20532 -1.20532 l 0.44097,0.14486 0.44097,0.14486 0.10948,1.29565 0.10949,1.29564 h -0.31528 -0.31527 z m -44.98017,-0.42719 -0.47138,-0.29879 0.11859,-0.84234 0.1186,-0.84233 -0.44097,0.0882 -0.44097,0.0882 v -0.88194 -0.88194 h 0.50834 0.50836 l 0.21803,0.35277 0.21803,0.35278 h -0.37361 -0.3736 v 0.35278 0.35277 h 0.52917 0.52916 v 1.23472 1.23474 l -0.0882,-0.005 -0.0882,-0.005 z m -6.32279,-0.48415 -0.35417,-0.44098 -0.14216,-1.27842 -0.14216,-1.27842 0.63779,0.39648 0.63778,0.39648 -0.0772,1.32291 -0.0772,1.32292 h -0.0642 -0.0642 z m -2.46625,-1.49477 -0.79375,-0.34823 v -1.32745 -1.32746 h 0.48597 0.48597 l 0.41874,0.50455 0.41873,0.50455 -0.11095,1.17114 -0.11096,1.17116 z m 5.54955,-0.36538 -0.44588,-0.53724 0.57907,0.2222 0.57906,0.2222 v 0.31504 0.31504 h -0.13319 -0.13319 z m 6.92209,0.008 -0.66934,-0.50665 -0.3008,0.18591 -0.30082,0.18591 v -1.78471 -1.78471 h 0.50836 0.50835 l 0.17915,0.28988 0.17915,0.28988 -0.48246,0.92994 -0.48246,0.92994 0.66607,-0.41597 0.66608,-0.41597 0.14629,-0.53927 0.14629,-0.53926 0.0409,1.85208 0.0409,1.85209 -0.0882,-0.0112 -0.0882,-0.0112 z m 1.97283,-0.35286 0.0131,-1.05833 0.16262,0.62406 0.16263,0.62408 -0.1757,0.43426 -0.1757,0.43426 z m -8.80003,-0.43758 -0.44097,-0.15038 v -0.52059 -0.52059 l 0.35278,0.21803 0.35278,0.21803 v -0.3736 -0.37361 h -0.28223 -0.28222 l -0.42333,0.42334 -0.42333,0.42333 v -0.9525 -0.95249 l 0.26458,0.0112 0.26458,0.0112 0.6437,0.4879 0.64369,0.4879 -0.11453,0.85658 -0.11452,0.85658 z m -8.55486,-2.07959 v -1.51763 l 0.52917,0.20306 0.52917,0.20306 v 1.31457 1.31458 h -0.52917 -0.52917 z m 55.91528,1.09365 -1.05833,-0.50976 0.88193,0.21254 0.88194,0.21254 0.33514,0.31313 0.33514,0.31313 -0.15875,-0.0159 -0.15875,-0.0159 z m -51.32918,-3.81038 v -3.84799 l 0.79375,0.52686 0.79374,0.52686 0.10616,1.65485 0.10614,1.65486 -0.72351,-0.38721 -0.7235,-0.38721 v 0.32745 0.32745 l 0.52917,0.20305 0.52915,0.20306 v 1.52297 1.52298 h -0.70554 -0.70556 z m 7.11526,3.18917 -0.37947,-0.45724 0.0586,-0.77749 0.0586,-0.77749 h 0.2777 0.27771 v -0.35278 -0.35277 h -0.32338 -0.32338 l -0.35433,0.97013 -0.35432,0.97014 -0.0279,-1.50744 -0.0279,-1.50744 0.88194,0.57788 0.88194,0.57787 v 0.77081 0.77082 l -0.44097,0.47509 -0.44097,0.47508 0.44097,-0.24896 0.44097,-0.24896 v 0.54999 0.54998 h -0.13319 -0.13319 z m -13.33474,-0.32256 -0.27101,-0.4385 -0.12406,-1.33114 -0.12407,-1.33113 h 0.32751 0.3275 l 0.34953,0.44097 0.34952,0.44097 0.0227,1.1404 0.0227,1.1404 -0.30463,0.18827 -0.30464,0.18827 z m 4.3674,-0.66073 -0.61736,-0.67615 v -1.41112 -1.41111 l 0.26458,0.0112 0.26459,0.0112 0.61736,0.46865 0.61736,0.46864 v 1.6368 1.63681 l -0.26459,-0.0294 -0.26458,-0.0294 z m -6.23912,-0.82025 -0.50648,-0.61522 0.50353,-0.31121 0.50353,-0.3112 -0.43802,-0.43802 -0.43802,-0.43802 v -0.47947 -0.47943 l 0.35853,0.22159 0.35853,0.22158 -0.18434,0.29827 -0.18434,0.29827 0.3832,0.12773 0.38321,0.12774 -0.11643,1.19629 -0.11642,1.19628 z m 11.53079,0.2537 -0.61736,-0.16133 v -1.73802 -1.73802 h 0.33524 0.33525 l 0.31383,0.56077 0.31382,0.56077 0.32107,-0.0316 0.32106,-0.0316 -0.0353,0.35277 -0.0353,0.35277 -0.0529,1.05834 -0.0529,1.05833 -0.26458,-0.0409 -0.26458,-0.0409 z m 7.35766,-0.82562 -0.66803,-0.67409 -0.30211,0.18671 -0.30211,0.18671 v -1.78471 -1.78471 l 0.44098,0.0112 0.44097,0.0112 0.70555,0.56541 0.70556,0.56541 -0.64684,-0.22409 -0.64684,-0.22409 0.16177,0.44121 0.16177,0.44122 0.39687,-0.0882 0.39688,-0.0882 v 1.5875 1.5875 l -0.0882,-0.021 -0.0882,-0.021 z m 0.0271,-1.46679 -0.18528,-0.46302 -0.0279,0.67616 -0.0279,0.67616 0.21313,-0.21314 0.21314,-0.21314 z m -14.81498,1.32293 -0.63927,-0.48466 0.11011,-1.43422 0.1101,-1.43423 0.40816,0.25496 0.40816,0.25495 0.18421,1.67515 0.18421,1.67516 -0.0632,-0.0112 -0.0632,-0.0112 z m 21.27677,-0.19845 v -0.35278 h 0.3736 0.3736 l -0.21803,0.35278 -0.21803,0.35278 h -0.15557 -0.15557 z m -27.16388,-1.78471 v -1.43193 l 0.35277,0.21803 0.35278,0.21803 v 1.2139 1.2139 h -0.35278 -0.35277 z m 25.92916,1.07916 -0.21803,-0.35278 h 0.3736 0.3736 v 0.35278 0.35277 h -0.15557 -0.15557 z m -1.23472,-0.35278 V 193.045 h 0.3736 0.3736 l -0.21803,0.35278 -0.21803,0.35278 h -0.15557 -0.15557 z m -9.13536,-1.18687 0.31592,-1.10153 v -0.97247 -0.97246 h 0.19958 0.19958 l 0.68236,0.36519 0.68236,0.36519 v 1.43644 1.43644 l -0.52916,-0.20306 -0.52917,-0.20306 v 0.30056 0.30056 l -0.66869,0.17487 -0.6687,0.17487 z m -11.70719,0.7459 -0.0287,-0.0882 -0.07,-0.94292 -0.07,-0.94291 0.26964,0.16665 0.26964,0.16664 -0.0715,0.86446 -0.0716,0.86447 h -0.0994 -0.0994 z m 4.35019,-0.52656 -0.79375,-0.52964 v -1.54447 -1.54447 l 0.26458,0.0112 0.26459,0.0112 0.63808,0.4838 0.63809,0.48379 -0.10892,1.5791 -0.10892,1.57909 z m -9.88852,-0.79023 -0.0299,-1.0522 0.30463,-0.18828 0.30463,-0.18827 0.23398,0.37858 0.23397,0.37859 -0.21632,0.86189 -0.21632,0.86189 h -0.29237 -0.29237 z m 3.75808,-0.0943 -0.045,-0.0882 -0.0837,-0.80492 -0.0837,-0.80491 0.19664,0.19665 0.19665,0.19664 0.10628,0.69646 0.10629,0.69647 h -0.17417 -0.17418 z m 3.65362,-0.56471 -0.44834,-0.27979 0.15754,-0.85657 0.15755,-0.85657 0.0262,-0.68792 0.0262,-0.68791 0.37541,0.3754 0.3754,0.37541 -0.11081,1.44887 -0.11082,1.44887 z m 7.76849,0.0251 -0.79375,-0.12678 v -1.56296 -1.56297 h 0.32392 0.32392 l 0.55801,0.21413 0.55802,0.21414 v 0.33585 0.33585 l -0.44097,-0.26492 -0.44096,-0.26493 0.50648,0.62377 0.50648,0.62378 -0.50648,0.32589 -0.50648,0.32589 0.51894,0.33359 0.51895,0.3336 -0.16617,0.12142 -0.16617,0.12142 z m -13.22918,-0.27947 -0.26457,-0.26861 v -1.42287 -1.42287 l 0.37683,0.37685 0.37685,0.37684 -0.11227,1.31464 -0.11226,1.31463 z m 24.42986,-0.15102 v -0.35277 h 0.35278 0.35278 v 0.35277 0.35278 h -0.35278 -0.35278 z m -3.64173,-0.26458 -0.28047,-0.44097 h -0.64614 -0.64613 l -0.13275,-1.14653 -0.13274,-1.14653 0.12002,-0.61736 0.12002,-0.61736 h 0.62501 0.62501 l 0.54099,0.61736 0.541,0.61736 -0.22668,1.5875 -0.22667,1.5875 z m -0.28394,-3.29107 -0.48388,-0.29906 -0.23988,0.60444 -0.23987,0.60444 -0.0248,0.33201 -0.0248,0.33201 0.53459,-0.68479 0.53458,-0.68478 -0.18391,1.05833 -0.18391,1.05833 0.39787,-1.01094 0.39789,-1.01094 z m -22.26712,2.58552 -0.12888,-0.26459 -0.0949,-1.14653 -0.0949,-1.14652 h 0.55576 0.55575 v 1.41111 1.41111 h -0.33196 -0.33196 z m 2.90946,-0.4618 v -0.37359 l 0.35277,0.21802 0.35278,0.21803 v 0.15557 0.15557 h -0.35278 -0.35277 z m 8.46666,-1.4027 v -1.7763 l 0.70556,0.3776 0.70555,0.3776 v 1.3987 1.3987 h -0.70555 -0.70556 z m -5.9717,1.42352 -0.0706,-0.17639 -0.11827,-1.21546 -0.11828,-1.21546 0.34039,0.60825 0.34039,0.60824 -0.15154,0.78361 -0.15155,0.7836 z m 4.11962,-0.84386 -0.61736,-0.46864 v -0.25089 -0.25089 l 0.52917,-0.52917 0.52916,-0.52917 -0.005,-0.41577 -0.005,-0.41577 -0.29828,0.47055 -0.29829,0.47055 -0.21441,-0.55875 -0.21441,-0.55874 h 0.44754 0.44754 l 0.42333,0.42333 0.42334,0.42333 v 1.34056 1.34056 l -0.26459,-0.0112 -0.26458,-0.0112 z m -6.17361,-0.12289 -0.44097,-0.15038 v -1.20532 -1.20532 h 0.36385 0.36386 l 0.19162,0.49936 0.19163,0.49937 -0.11451,0.85633 -0.1145,0.85634 z m 23.72786,-0.0973 0.22159,-0.35853 0.3284,0.20296 0.3284,0.20296 v 0.15557 0.15557 h -0.54999 -0.54998 z m -25.67419,-1.54039 0.16069,-0.8406 -0.386,-0.23856 -0.386,-0.23856 v 0.71531 0.7153 l -0.44097,-0.16918 -0.44097,-0.16919 0.061,-1.14266 0.061,-1.14266 0.0384,-0.17639 0.0384,-0.17639 0.42976,0.52917 0.42975,0.52916 h 0.52917 0.52916 l 0.10949,1.32292 0.10949,1.32292 h -0.50154 -0.50154 z m 26.55258,0.79689 v -0.20068 l 0.555,-1.11253 0.55501,-1.11254 h 0.13948 0.13948 l -0.22394,0.61736 -0.22394,0.61737 -0.47054,0.69585 -0.47055,0.69586 z m -20.70956,-1.91451 -0.0355,-1.25265 0.34482,0.11494 0.34483,0.11495 -0.0265,0.25576 -0.0264,0.25576 v 0.88195 0.88194 h -0.28287 -0.28286 z m -2.05746,0.27711 -0.36562,-0.25918 -0.10231,-1.32219 -0.10232,-1.3222 0.55614,0.21341 0.55613,0.21341 v 1.37337 1.37337 l -0.0882,-0.005 -0.0882,-0.005 z m 6.62744,-0.25771 -0.44098,-0.50086 v -1.24961 -1.24961 l 0.26459,0.005 0.26458,0.005 0.52917,0.34197 0.52916,0.34198 -0.52916,0.0108 -0.52917,0.0108 0.43994,0.27936 0.43995,0.27937 0.13114,1.12634 0.13114,1.12634 -0.39469,-0.0134 -0.3947,-0.0134 z m -2.46945,-1.46983 -0.44097,-0.17794 v -1.23119 -1.23119 l 0.60058,0.11566 0.60058,0.11566 0.12874,1.32131 0.12873,1.32133 -0.28834,-0.0279 -0.28835,-0.0279 z m -35.29541,-0.54247 -0.42334,-0.42334 v -0.28222 -0.28222 h 0.50724 0.50725 l -0.0532,0.70555 -0.0532,0.70556 h -0.0308 -0.0308 z m 54.63785,-0.13523 0.0279,-0.67616 0.18528,0.46302 0.18529,0.46302 -0.21314,0.21314 -0.21314,0.21313 z m -24.06718,-2.36886 0.12805,-1.34271 0.57856,0.10953 0.57855,0.10952 0.10733,1.28386 0.10734,1.28385 -0.81394,-0.0507 -0.81393,-0.0507 z m 2.1671,-2.77583 v -1.35231 h 0.52917 0.52917 v 1.35231 1.35231 h -0.52917 -0.52917 z m -8.11389,0.0588 v -1.05833 h 0.35278 0.35278 v 1.05833 1.05833 h -0.35278 -0.35278 z m -1.09107,0.52917 -0.19417,-0.35278 0.20913,-1.05834 0.20913,-1.05833 0.19417,0.35278 0.19417,0.35278 -0.20913,1.05833 -0.20913,1.05834 z m -1.37837,-1.60832 v -1.07916 l 0.35278,0.21803 0.35277,0.21803 v 0.86112 0.86113 h -0.35277 -0.35278 z m 2.46944,-1.91945 v -1.23473 h 0.35278 0.35278 v 1.23473 1.23472 h -0.35278 -0.35278 z m -1.03353,-0.44097 0.0248,-1.32293 0.30319,0.70555 0.30319,0.70556 0.0248,0.61736 0.0248,0.61736 h -0.35278 -0.35278 z m -1.43591,-0.44098 v -1.05838 h 0.35278 0.35277 v 1.05833 1.05834 h -0.35277 -0.35278 z m -1.73604,-0.20578 0.0279,-0.67617 0.18529,0.46302 0.18528,0.46302 -0.21313,0.21315 -0.21314,0.21313 z m 40.36521,42.89188 0.70555,-0.30318 -0.94932,-0.0248 -0.94932,-0.0248 -0.21803,0.35276 -0.21802,0.35278 0.46179,-0.0248 0.46179,-0.0248 z m -57.67917,-1.41111 v -0.35278 h -0.35278 -0.35278 v 0.35278 0.35278 h 0.35278 0.35278 z m 64.8707,-0.2092 0.13598,-0.12156 -0.57695,-0.88054 -0.57695,-0.88054 v -0.48603 -0.48601 l -1.2208,-0.65746 -1.22079,-0.65744 -0.13091,0.16092 -0.13091,0.16092 -0.59656,0.88194 -0.59656,0.88195 0.19112,-1.23473 0.19111,-1.23472 -0.33472,0.70556 -0.33473,0.70555 -0.0248,-0.46179 -0.0248,-0.46179 -0.26458,0.16453 -0.26458,0.16452 0.11952,-2.08398 0.11953,-2.08399 h -0.38411 -0.38411 v 1.76389 1.76389 l -0.79375,0.0418 -0.79375,0.0418 -0.52917,-0.0311 -0.52916,-0.0311 1.05833,0.53554 1.05833,0.53554 -0.78078,-0.15701 -0.78078,-0.15702 -0.45394,0.55031 -0.45393,0.5503 1.99919,-0.23358 1.9992,-0.23359 0.34,0.96978 0.34001,0.96978 0.3678,-0.92203 0.3678,-0.92202 0.55619,-0.21343 0.55619,-0.21343 0.52916,0.20306 0.52917,0.20306 v 1.19698 1.19698 h -0.35278 -0.35277 v 0.37359 0.3736 l 0.35277,-0.21803 0.35278,-0.21803 v 0.39737 0.39738 l 0.79375,-0.24399 0.79375,-0.24399 z m 1.05971,-2.31876 0.0385,-2.52797 -0.13864,0.14672 -0.13865,0.14671 -0.16339,2.19653 -0.16339,2.19654 0.18472,0.18471 0.18472,0.18472 h 0.0788 0.0788 z m -6.53617,1.64602 0.20306,-0.52917 h -0.34171 -0.3417 v 0.52917 0.52916 h 0.13864 0.13865 z m -59.39424,-1.5875 v -0.70556 h -0.35278 -0.35278 v 0.70556 0.70555 h 0.35278 0.35278 z m -0.19008,-1.27828 0.42526,-0.1632 v -0.52983 -0.52984 l -1.96967,0.10405 -1.96968,0.10404 -0.11857,0.83836 -0.11858,0.83837 1.66298,-0.24938 1.66299,-0.24938 z m 62.98452,-1.19117 v -0.35277 h -0.88194 -0.88195 v 0.35277 0.35278 h 0.88195 0.88194 z m -4.7625,-0.70555 0.21803,-0.35278 h -0.35278 -0.35277 l -0.21803,0.35278 -0.21803,0.35278 h 0.35278 0.35277 z m -32.54375,-0.32579 0.26459,-0.027 v -0.52917 -0.52915 h -0.3736 -0.3736 l 0.21803,0.35276 0.21803,0.35278 h -0.51224 -0.51225 l -0.22243,-0.57965 -0.22244,-0.57966 -0.2003,0.2003 -0.20029,0.2003 0.22185,0.69898 0.22184,0.69898 0.60412,-0.11624 0.60411,-0.11624 z m 4.14514,-1.11538 v -0.30058 l -0.61736,0.1986 -0.61736,0.19859 0.51576,-0.3649 0.51576,-0.3649 3.0946,0.0913 3.09459,0.0913 0.40977,-0.25325 0.40976,-0.25325 -1.09218,-0.56479 -1.09219,-0.56479 h -1.42863 -1.42863 v -0.33679 -0.33679 l 1.23472,-0.23164 1.23473,-0.23164 v -0.28411 -0.28412 l -0.44098,-0.17794 -0.44097,-0.17793 0.99096,-0.0279 0.99096,-0.0279 -0.21803,-0.35277 -0.21803,-0.35278 h -0.68473 -0.68474 v -0.28878 -0.28877 l -1.14653,-0.60407 -1.14653,-0.60407 0.81392,0.15953 0.81391,0.15954 -0.38431,-0.46306 -0.38431,-0.46306 -1.55782,-0.23361 -1.55782,-0.23361 0.18245,-0.5985 0.18244,-0.59849 -0.51111,0.85608 -0.51111,0.85608 -0.76291,0.0562 -0.76292,0.0562 -0.19286,-0.31205 -0.19286,-0.31205 -0.56548,0.4581 -0.56548,0.4581 0.26493,-0.44097 0.26493,-0.44097 h -1.25554 -1.25555 v 0.37655 0.37655 l -0.62996,-0.19994 -0.62996,-0.19995 v 0.71759 0.71759 l 0.7808,0.19597 0.78079,0.19596 0.63202,-0.35369 0.63202,-0.3537 1.01382,0.52427 1.01382,0.52427 0.22158,-0.22159 0.22159,-0.22158 -0.51895,-0.3282 -0.51895,-0.32819 0.23573,-0.005 0.23573,-0.005 0.61589,-0.23634 0.61589,-0.23634 -0.25508,0.41273 -0.25508,0.41272 h 0.3736 0.37359 v -0.31163 -0.31163 l 0.70556,-0.18451 0.70555,-0.18451 v 0.3575 0.35749 l 0.54749,-0.21009 0.54749,-0.21009 -0.2244,0.36309 -0.2244,0.36308 -0.76129,-0.24162 -0.7613,-0.24163 0.51094,0.61565 0.51094,0.61564 0.0689,0.46915 0.0688,0.46915 -0.49436,-0.1897 -0.49437,-0.18971 v 0.36112 0.36112 l 0.40569,0.13524 0.4057,0.13523 -0.15686,0.47058 -0.15686,0.47059 -0.61841,-0.61842 -0.61841,-0.61841 -0.24723,0.24723 -0.24723,0.24723 0.63791,0.46645 0.63792,0.46647 -0.34205,0.2114 -0.34206,0.21139 -0.561,-0.21528 -0.561,-0.21527 v -0.66782 -0.66781 h -0.52917 -0.52916 v 0.28222 0.28223 l 0.42333,0.42333 0.42333,0.42333 h -0.59751 -0.5975 l 0.10628,0.69647 0.10629,0.69646 0.27368,0.27368 0.27367,0.27367 -0.11759,-0.40569 -0.11759,-0.40569 0.35277,-0.0462 0.35278,-0.0463 0.10953,0.87115 0.10953,0.87117 0.59602,0.12358 0.59603,0.12357 0.79375,-0.14295 0.79375,-0.14295 z m -7.40833,-6.31994 v -0.35278 h 0.52917 0.52916 v 0.35278 0.35277 h -0.52916 -0.52917 z m 1.5875,-0.70556 0.21803,-0.35278 h 0.15557 0.15557 v 0.35278 0.35278 h -0.3736 -0.3736 z m 37.92361,7.40833 v -0.35276 h -0.35278 -0.35278 v 0.35276 0.35278 h 0.35278 0.35278 z m -29.98611,-0.35276 v -0.35278 h -0.35278 -0.35278 v 0.35278 0.35276 h 0.35278 0.35278 z m -8.93859,-1.14654 -0.17793,-0.44096 v 0.88193 0.88195 l 0.17793,-0.44098 0.17794,-0.44097 z m 33.98581,0.79375 v -0.35278 h -0.35278 -0.35277 v 0.35278 0.35278 h 0.35277 0.35278 z m 5.99722,-0.35278 v -0.70555 h -0.13524 -0.13524 l -0.18451,0.70555 -0.18451,0.70556 h 0.31975 0.31975 z m -43.45979,-0.5385 -0.19749,-0.19748 -0.24087,0.63257 -0.24087,0.63258 0.43835,-0.43509 0.43836,-0.4351 z m 18.94174,0.5385 -0.21803,-0.35278 h -0.33196 -0.33196 v 0.35278 0.35278 h 0.54999 0.54999 z m 23.60971,-0.74827 -0.19874,-0.32157 -0.3284,0.20296 -0.32841,0.20297 v 0.32088 0.32089 l 0.52714,-0.20229 0.52714,-0.20228 z m 3.97155,-0.0234 -0.18528,-0.46302 -0.0279,0.67616 -0.0279,0.67616 0.21313,-0.21314 0.21314,-0.21314 z m 3.43169,0.11711 0.18653,-0.30182 -0.87127,0.16655 -0.87127,0.16656 v 0.13526 0.13526 h 0.68474 0.68473 z m -46.89765,-0.98775 0.69586,-0.47433 h -0.58685 -0.58684 l -0.2085,0.33737 -0.2085,0.33738 -0.47235,-0.18126 -0.47234,-0.18126 -0.19552,0.50952 -0.19552,0.50951 0.76736,-0.1913 0.76735,-0.1913 z m 48.51664,0.0548 V 205.745 h -0.29398 -0.29398 v 0.52917 0.52917 h 0.29398 0.29398 z m -46.21389,-0.17639 V 205.745 l -0.3175,0.0882 -0.3175,0.0882 0.0529,-0.35277 0.0529,-0.35278 0.26458,0.0882 0.26458,0.0882 v -0.35278 -0.35278 l -0.79375,-0.0409 -0.79375,-0.0409 0.61736,-0.16133 0.61737,-0.16133 -2.5e-4,-0.23872 -2.5e-4,-0.23871 -0.86899,-0.0501 -0.869,-0.0501 0.0755,0.40286 0.0755,0.40286 -0.59075,-0.0976 -0.59076,-0.0975 -0.1992,0.32231 -0.19919,0.3223 0.43717,-0.0157 0.43718,-0.0157 0.76072,0.0556 0.76073,0.0556 -0.18451,0.70555 -0.18451,0.70556 h 0.7467 0.7467 z m 34.06826,-0.15119 0.50397,-0.50397 v -1.61269 -1.6127 h -0.35278 -0.35278 v 0.70555 0.70556 l -0.97013,0.0529 -0.97014,0.0528 0.97014,0.14697 0.97013,0.14696 v 0.85851 0.85851 h -0.50835 -0.50834 l -0.21803,0.35278 -0.21803,0.35278 h 0.57518 0.57519 z m 7.09844,-0.81223 -0.16263,-0.62408 -0.0131,1.05834 -0.0131,1.05833 0.17569,-0.43426 0.1757,-0.43426 z m -3.0667,0.25787 0.52917,-0.34198 -0.52917,0.0194 -0.52916,0.0194 -0.70555,0.30319 -0.70555,0.30318 0.70555,0.0194 0.70555,0.0194 z m -63.73862,-0.26459 0.15578,-0.26458 -0.29998,-0.79375 -0.29999,-0.79375 h -1.24609 -1.24609 v 1.05834 1.05833 h 1.3903 1.39029 z m 71.74421,-1.05162 -0.16263,-0.62407 -0.0131,1.05833 -0.0131,1.05834 0.17569,-0.43426 0.1757,-0.43426 z m -50.40755,0.37124 -0.59781,-0.15757 0.22289,-0.59526 0.22288,-0.59526 -0.59521,0.48417 -0.59522,0.48417 v 0.30958 0.30959 l 0.97013,-0.0409 0.97014,-0.0409 z m -2.57719,-0.46614 0.21803,-0.35278 h -0.3736 -0.3736 v 0.35278 0.35277 h 0.15557 0.15557 z m 48.04455,-1.32292 -0.16132,-0.61736 v 1.23472 1.23472 l 0.16132,-0.61736 0.16134,-0.61736 z m 2.83628,1.46256 -0.21314,-0.21314 -0.46302,0.18529 -0.46302,0.18528 0.67616,0.0279 0.67616,0.0279 z m -6.4597,-0.35378 0.55802,-0.21413 -0.0279,-0.93239 -0.0279,-0.9324 -0.34772,0.95032 -0.34773,0.95032 -0.56424,-0.21652 -0.56425,-0.21652 0.25508,0.41273 0.25508,0.41273 h 0.12672 0.12671 z m 34.07191,-1.07915 v -0.51224 l -0.44097,0.2766 -0.44096,0.27659 -0.61736,-0.10156 -0.61737,-0.10157 v 0.34909 0.34909 l 0.61737,0.13714 0.61736,0.13715 0.44096,-0.14902 0.44097,-0.14903 z m -78.84583,0.23495 0.21803,-0.35278 h -0.3736 -0.3736 v 0.35278 0.35278 h 0.15557 0.15557 z m 2.82222,-0.33971 0.70556,-0.29011 -0.52917,-0.18914 -0.52917,-0.18913 -0.7793,0.0631 -0.77931,0.0631 -0.10264,-0.35278 -0.10264,-0.35278 0.99148,-0.11368 0.99147,-0.11369 0.50783,0.42147 0.50784,0.42146 v -0.35317 -0.35318 l -1.14653,-0.425 -1.14653,-0.42501 -0.65171,-0.34779 -0.65172,-0.34779 -0.22001,0.22001 -0.22002,0.22001 0.45181,0.27923 0.45181,0.27924 -0.903,0.59166 -0.90299,0.59166 v 0.35137 0.35137 l 0.84346,-0.2117 0.84345,-0.21169 0.2357,0.38136 0.23569,0.38136 0.59654,-0.0248 0.59655,-0.0248 z m 37.92361,-0.0131 v -0.35277 h -0.35278 -0.35277 v 0.35277 0.35278 h 0.35277 0.35278 z m 21.3798,-2.3739 -0.21313,-0.21313 -0.21172,0.21171 -0.21171,0.21172 0.2763,0.44706 0.2763,0.44707 0.14855,-0.44564 0.14855,-0.44565 z m -82.78158,-0.007 -0.0628,-0.61736 0.0406,-0.46179 0.0406,-0.46179 0.35278,0.21803 0.35277,0.21803 v -0.3736 -0.3736 h -0.70555 -0.70556 l 0.005,0.44097 0.005,0.44098 0.21271,0.79375 0.21272,0.79375 h 0.15742 0.15742 z m 26.44388,0.0421 0.14349,-0.12325 -0.92587,-0.85807 -0.92587,-0.85807 -0.71692,-0.22754 -0.71693,-0.22754 v 0.38528 0.38528 l 0.88195,0.33532 0.88194,0.33531 v 0.36151 0.36151 h -0.35278 -0.35277 v 0.3595 0.3595 l 0.97013,-0.23274 0.97014,-0.23274 z m 1.09124,-0.1714 v -0.39393 l 0.70604,0.18464 0.70604,0.18463 -0.1977,-0.31988 -0.19769,-0.31987 h -0.55986 -0.55986 l 0.95163,-0.88195 0.95164,-0.88194 0.42279,-0.0248 0.4228,-0.0248 -0.70556,-0.30319 -0.70555,-0.30319 -0.28541,-0.0248 -0.2854,-0.0248 0.19333,0.31281 0.19332,0.3128 -0.52528,0.43595 -0.52528,0.43594 -0.0279,-0.48416 -0.0279,-0.48417 -0.17793,0.44097 -0.17794,0.44097 h -0.87938 -0.87937 l 0.82058,1.03882 0.82058,1.03881 0.26458,0.0195 0.26459,0.0195 z m 34.86087,-1.15188 0.11226,-1.3694 -0.37685,-0.37685 -0.37684,-0.37684 v 1.48167 1.48166 h -0.50835 -0.50834 l -0.23475,0.37983 -0.23475,0.37984 1.00768,-0.11525 1.00768,-0.11525 z m 3.23913,0.84024 0.52916,-0.34197 -0.77293,-0.005 -0.77293,-0.005 -0.21803,0.35277 -0.21803,0.35278 0.4618,-0.005 0.46179,-0.005 z m -34.925,-0.35277 v -0.35278 l -0.26459,0.005 -0.26458,0.005 -0.52917,0.34197 -0.52916,0.34198 0.79375,0.005 0.79375,0.005 z m -14.89752,-1.34497 0.13965,-0.41892 h -0.403 -0.403 l 0.19941,0.32264 0.19941,0.32265 -0.3638,0.18006 -0.36379,0.18006 0.42774,-0.0838 0.42774,-0.0838 z m 1.36597,0.11024 -0.52917,-0.52916 h -0.24478 -0.24478 l 0.43916,0.52916 0.43917,0.52917 h 0.33478 0.33478 z m 2.78116,-0.10825 -0.19748,-0.19749 -0.4351,0.43836 -0.43509,0.43835 0.63258,-0.24087 0.63257,-0.24087 z m 41.44205,0.10825 v -0.52916 h -0.31503 -0.31504 l -0.20306,0.52916 -0.20306,0.52917 h 0.5181 0.51809 z m -40.21666,-0.52916 v -0.35278 h -0.35278 -0.35278 v 0.35278 0.35277 h 0.35278 0.35278 z m 4.58611,0.12708 v -0.22569 l -0.61736,-0.50279 -0.61737,-0.5028 0.69466,0.3448 0.69466,0.34479 0.93631,-0.48418 0.93631,-0.48419 0.16232,0.16232 0.16232,0.16232 v -0.48076 -0.48077 l -0.73496,0.18524 -0.73495,0.18524 -0.26458,0.38372 -0.26459,0.38372 -0.26458,-0.37851 -0.26458,-0.37851 -0.64292,-0.23758 -0.64292,-0.23759 -0.76819,0.42721 -0.76819,0.4272 -0.26459,0.0566 -0.26458,0.0566 -0.57236,0.0441 -0.57237,0.0441 0.47128,0.56785 0.47127,0.56785 0.13049,-0.39146 0.13049,-0.39146 h 0.65533 0.65534 l 0.22159,0.35853 0.22158,0.35854 0.3284,-0.20297 0.3284,-0.20296 v 0.3736 0.37359 h 0.52917 0.52917 z m 40.21666,-0.55148 v -0.62703 l -0.70555,0.60411 -0.70556,0.60412 v 0.0761 0.0761 l 0.70556,-0.0532 0.70555,-0.0531 z m -51.74091,-0.13123 -0.21322,-0.55564 0.66526,0.11466 0.66526,0.11466 v -0.51073 -0.51072 l -1.52081,-0.0382 -1.5208,-0.0382 -0.19029,0.30789 -0.19029,0.30789 0.47637,-0.0654 0.47638,-0.0654 0.46474,0.0418 0.46475,0.0418 -0.22394,0.70556 -0.22393,0.70555 h 0.54187 0.54186 z m -3.06947,-1.03774 -0.16972,-0.4423 0.53401,-0.76242 0.53402,-0.76242 -0.17503,-0.45613 -0.17503,-0.45613 1.1137,-0.64746 1.11371,-0.64747 0.25918,-0.37934 0.25918,-0.37935 v 0.35278 0.35277 l -0.25918,0.35278 -0.25918,0.35278 -0.68456,0.37798 -0.68456,0.37798 -0.13859,0.41577 -0.13858,0.41578 h 1.26113 1.26113 l 0.44062,0.70554 0.44063,0.70556 h 0.5619 0.5619 l 0.21088,-0.21088 0.21088,-0.21088 -0.18983,-0.49467 -0.18982,-0.49468 h -0.30397 -0.30396 l 0.20306,0.52917 0.20306,0.52916 h -0.39052 -0.39052 v -0.32392 -0.32393 l -0.21413,-0.55802 -0.21414,-0.55802 h 0.49949 0.49948 l 0.68479,-0.52337 0.68479,-0.52336 -0.78111,-0.22003 -0.78111,-0.22003 0.52695,-0.52695 0.52696,-0.52695 0.87926,0.22068 0.87926,0.22068 0.21549,-0.56155 0.21548,-0.56154 -0.41431,-0.41431 -0.41431,-0.41431 -0.24989,0.36175 -0.2499,0.36175 -1.05833,0.0322 -1.05833,0.0322 -1.70774,0.80358 -1.70775,0.80359 -1.11448,1.13159 -1.11448,1.13159 -0.45488,0.57838 -0.45488,0.57838 h 0.33562 0.33563 l -0.0917,0.83489 -0.0917,0.83488 0.67183,-0.17569 0.67183,-0.17569 z m -11.47738,-1.12958 -0.36578,-0.62844 -0.0107,0.91134 -0.0107,0.91134 0.26459,0.26684 0.26458,0.26683 0.11193,-0.54973 0.11192,-0.54973 z m 1.37665,1.33266 v -0.33196 l -0.35278,-0.21803 -0.35277,-0.21803 v 0.54999 0.54998 h 0.35277 0.35278 z m 17.63889,-0.7472 v -0.3736 l 0.35278,0.21803 0.35278,0.21803 v -0.3736 -0.3736 h -0.635 -0.635 l -0.42334,-0.42333 -0.42333,-0.42333 v 0.27013 0.27014 l 0.36519,0.68236 0.36519,0.68237 h 0.34037 0.34036 z m -4.77756,-0.70911 -0.20297,-0.3284 h -0.32088 -0.32089 l 0.20228,0.52714 0.20229,0.52714 0.32156,-0.19874 0.32157,-0.19873 z m 8.30534,0.22158 v -0.15557 l -0.35278,-0.21802 -0.35278,-0.21803 v 0.37359 0.3736 h 0.35278 0.35278 z m 39.77569,-0.44038 -0.61736,-0.16134 -0.61736,0.16134 -0.61736,0.16133 h 1.23472 1.23472 z m 3.16765,-0.32274 -0.21313,-0.21314 -0.46302,0.18529 -0.46302,0.18528 0.67615,0.0279 0.67616,0.0279 z m -55.29014,-0.2956 v -0.15557 l -0.35278,-0.21803 -0.35278,-0.21802 v 0.37359 0.3736 h 0.35278 0.35278 z m 9.17222,-1.27636 v -0.33196 h -0.52917 -0.52916 v 0.29398 0.29398 l 0.22559,0.2256 0.22559,0.22559 0.30358,-0.18761 0.30357,-0.18762 z m 46.91944,-0.88194 v -0.90277 l -0.31966,0.19756 -0.31966,0.19756 0.18442,0.70521 0.18442,0.7052 h 0.13524 0.13524 z m -45.50833,0.0208 v -0.52917 h -0.35278 -0.35278 v 0.52917 0.52916 h 0.35278 0.35278 z m 1.05833,-0.17639 v -0.35278 h -0.35277 -0.35278 v 0.35278 0.35277 h 0.35278 0.35277 z m 55.73889,-0.39052 v -0.31504 h -0.32392 -0.32393 l -0.5876,0.22548 -0.5876,0.22549 0.43856,0.27104 0.43856,0.27105 0.47297,-0.1815 0.47296,-0.18149 z m 1.76389,-4.078 v -4.8213 l -0.20285,0.20285 -0.20285,0.20285 -0.11213,3.8247 -0.11212,3.82469 0.17683,0.79375 0.17683,0.79375 h 0.13815 0.13814 z m -3.52778,1.64629 v -1.41111 h 0.68474 0.68473 l 0.16952,-0.27429 0.16952,-0.27429 -1.648,0.01 -1.64801,0.01 -0.1126,1.37521 -0.11261,1.3752 0.46538,0.29509 0.46539,0.29509 0.44097,0.005 0.44097,0.005 z m -1.00263,-0.35277 v -0.88195 l 0.17794,0.44097 0.17793,0.44098 -0.17793,0.44097 -0.17794,0.44097 z m -67.49271,-3.43959 -0.0565,-4.85069 -0.14469,1.1788 -0.14469,1.17879 -0.73213,-0.64963 -0.73213,-0.64963 0.40601,0.7741 0.40601,0.77411 0.35088,0.21685 0.35088,0.21686 v 1.03751 1.03752 h -0.34606 -0.34606 l -0.21396,-0.97014 -0.21397,-0.97014 -0.11566,-0.35278 -0.11566,-0.35278 0.0462,1.66157 0.0462,1.66156 0.27127,-0.42684 0.27127,-0.42684 0.0472,0.35278 0.0472,0.35277 -0.0505,0.29081 -0.0505,0.2908 0.36152,-0.22343 0.36152,-0.22343 -0.0409,1.16735 -0.0409,1.16735 -0.16133,-0.61736 -0.16133,-0.61736 h -0.3061 -0.30609 l -0.21335,0.34522 -0.21336,0.34522 0.78805,1.06589 0.78804,1.06589 h 0.11005 0.11004 z m 10.70351,4.22253 0.33858,-0.33858 -0.87159,0.0957 -0.87158,0.0957 -0.78472,0.24906 -0.78472,0.24906 -0.29406,-0.47579 -0.29405,-0.47579 0.21004,-0.88488 0.21004,-0.88487 -0.92984,1.05833 -0.92985,1.05833 -4.3e-4,-0.97014 -4.3e-4,-0.97014 h -0.39282 -0.39282 l 0.1526,1.03971 0.1526,1.0397 -0.32839,-0.20296 -0.32839,-0.20295 -0.30793,0.48617 -0.30794,0.48617 -0.005,-1.6757 -0.005,-1.67569 0.44097,-0.005 0.44097,-0.005 -0.52916,-0.33703 -0.52917,-0.33704 -0.2107,1.48052 -0.2107,1.48052 0.16921,0.64707 0.16921,0.64708 3.34365,-0.16606 3.34364,-0.16606 z m 44.30834,-0.0218 0.45122,-0.28634 -0.0873,-1.14619 -0.0873,-1.14619 -0.27569,-0.17039 -0.2757,-0.17039 -0.0374,0.46179 -0.0374,0.4618 0.0613,0.9444 0.0613,0.9444 -0.99403,0.14927 -0.99403,0.14927 0.88195,0.0475 0.88194,0.0474 z m -42.83922,-0.60002 -0.20889,-0.54438 -0.16814,0.16814 -0.16813,0.16813 0.23253,0.37625 0.23254,0.37624 h 0.1445 0.14449 z m 5.87549,0.38882 v -0.15557 l -0.35278,-0.21803 -0.35277,-0.21803 v 0.3736 0.37359 h 0.35277 0.35278 z m -5.07748,-1.44215 0.0762,-0.51895 H 128.03 127.70844 l 0.0418,-0.26459 0.0418,-0.26458 -0.0418,-0.27699 -0.0418,-0.277 -0.74813,0.40039 -0.74813,0.40038 0.2241,-0.36257 0.22407,-0.36258 -0.67101,-0.21297 -0.67099,-0.21297 0.27538,-1.22105 0.2754,-1.22105 -0.31507,0.19472 -0.31507,0.19472 v -0.54999 -0.54998 h -0.52916 -0.52917 l -0.048,-0.97014 -0.048,-0.97014 -0.16215,0.88194 -0.16215,0.88195 -0.36217,0.44097 -0.36217,0.44097 h 0.39597 0.39597 v 1.23472 1.23473 h -0.58795 -0.58797 l 0.25022,0.25021 0.2502,0.25021 1.44555,-0.10437 1.44555,-0.10437 -0.20489,0.53392 -0.20488,0.53392 0.5082,0.42177 0.50819,0.42177 v -0.39598 -0.39597 h 0.52917 0.52917 v 0.76435 0.76435 l 0.24539,-0.24539 0.2454,-0.2454 z m -4.09474,-2.959 v -1.08773 h 0.5526 0.5526 l -0.11163,0.94293 -0.11163,0.94294 -0.44097,0.1448 -0.44097,0.14479 z m 50.09444,2.61644 v -1.23473 h -0.37237 -0.37238 l 0.16367,1.14653 0.16367,1.14653 0.0323,0.0882 0.0323,0.0882 h 0.17638 0.17639 z m -5.29166,0.52916 v -0.35278 h -0.15557 -0.15557 l -0.21803,0.35278 -0.21803,0.35278 h 0.3736 0.3736 z m 10.73687,0.037 0.19518,-0.31581 -0.50917,-0.19539 -0.50917,-0.19539 0.19616,0.5112 0.19617,0.51121 h 0.11782 0.11783 z m -67.32509,-7.33371 -0.87681,-0.9456 0.12498,-0.20222 0.12497,-0.20221 -2.08413,-0.0479 -2.08413,-0.048 v 1.19634 1.19633 h 1.88149 1.88148 l 0.2297,-0.2297 0.2297,-0.2297 -0.61132,-0.44701 -0.61133,-0.44701 0.29565,-0.29343 0.29565,-0.29342 0.84858,1.05833 0.84857,1.05833 0.002,0.83695 0.002,0.83694 -0.59688,-0.48416 -0.59689,-0.48417 0.23389,0.39074 0.23388,0.39075 -0.33089,1.15377 -0.3309,1.15376 0.55349,0.74855 0.5535,0.74854 -0.16832,-1.66929 -0.16832,-1.66928 0.30872,0.1908 0.30872,0.1908 0.0725,1.83126 0.0726,1.83126 0.11759,-3.08738 0.11758,-3.08738 z m -3.4722,-0.698 0.44097,-0.17794 0.44097,0.17794 0.44098,0.17794 h -0.88195 -0.88194 z m 86.28302,7.27846 0.7649,-0.0107 -0.64292,-0.37388 -0.64291,-0.37388 -0.87082,0.21856 -0.87082,0.21857 0.2265,0.36648 0.2265,0.36649 0.52234,-0.20044 0.52233,-0.20044 z m 12.58295,-0.36287 v -0.33195 h -0.35278 -0.35277 v 0.54998 0.54999 l 0.35277,-0.21803 0.35278,-0.21803 z m -85.17802,-5.51 -0.15374,-3.71853 -0.19662,-0.19662 -0.19662,-0.19662 0.0224,4.7331 0.0224,4.73311 0.328,-0.81796 0.328,-0.81795 z m 46.51798,4.96469 0.55599,-0.21335 -0.18566,-0.30041 -0.18566,-0.3004 -0.51787,0.19872 -0.51787,0.19873 v 0.31503 0.31504 h 0.14754 0.14753 z m 15.4243,-0.67989 0.92954,-0.22119 0.22406,-1.40119 0.22406,-1.40119 -0.53359,-0.53358 -0.53359,-0.53359 -1.14917,0.11074 -1.14918,0.11075 -0.11436,1.19773 -0.11437,1.19772 0.46714,0.32844 0.46715,0.32843 -0.44098,0.17893 -0.44097,0.17893 v 0.52354 0.52354 l 0.61736,-0.1834 0.61736,-0.18341 z m -63.73905,-0.49349 0.20297,-0.3284 -0.35853,-0.22158 -0.35854,-0.22159 v 0.54999 0.54998 h 0.15557 0.15557 z m 37.12134,-0.4433 -0.18529,-0.46302 -0.0279,0.67616 -0.0279,0.67616 0.21313,-0.21314 0.21314,-0.21314 z m 49.1479,-0.46302 v -0.52917 h 0.35277 0.35278 v -0.49057 -0.49057 l -1.19238,-0.1392 -1.19239,-0.13921 0.0767,0.52246 0.0767,0.52246 0.41015,0.13671 0.41015,0.13672 v 0.49977 0.49977 h 0.35278 0.35278 z m -95.60278,-0.33196 v -0.50834 l -0.35278,-0.21803 -0.35278,-0.21803 v 0.72637 0.72638 h 0.35278 0.35278 z m 68.34334,0.29521 -0.21313,-0.21313 -0.46302,0.18528 -0.46302,0.18529 0.67615,0.0279 0.67616,0.0279 z m -58.91388,-0.35277 -0.21314,-0.21314 -0.46302,0.18528 -0.46302,0.18529 0.67615,0.0279 0.67616,0.0279 z m 35.02054,-0.49242 v -0.35278 h -0.3736 -0.3736 l 0.21803,0.35278 0.21803,0.35277 h 0.15557 0.15557 z m 1.23472,-0.70556 -0.21803,-0.35278 h -0.52916 -0.52917 l 0.21803,0.35278 0.21803,0.35278 h 0.52916 0.52917 z m 22.75417,-0.56691 v -0.13864 h -0.52917 -0.52917 v 0.3417 0.34171 l 0.52917,-0.20306 0.52917,-0.20306 z m -54.24348,-0.65714 0.16656,-0.87126 -0.30182,0.18653 -0.30182,0.18653 v 0.68474 0.68473 h 0.13527 0.13526 z m 81.95221,-0.21243 0.23136,-0.37435 -0.12352,-0.10702 -0.12352,-0.10701 -0.88194,0.87426 -0.88195,0.87427 0.77411,-0.3929 0.7741,-0.3929 z m -20.36732,-6.63179 0.0185,-5.69006 h -0.32857 -0.32857 l 0.0303,6.61458 0.0303,6.61458 0.27975,-0.92452 0.27974,-0.92452 z m -72.44245,5.46606 0.5427,0.20825 v -3.38914 -3.38913 l 2.20487,-0.005 2.20486,-0.005 2.99861,-0.218 2.99861,-0.218 0.15312,-0.13609 0.15313,-0.1361 -1.12326,-0.42398 -1.12327,-0.42399 -0.005,-1.24557 -0.005,-1.24558 -0.34198,0.52917 -0.34197,0.52917 -0.005,-0.79375 -0.005,-0.79375 h 0.35277 0.35278 v -0.66443 -0.66443 l -0.97014,-0.19038 -0.97014,-0.19037 -0.29962,0.29012 -0.29963,0.29013 0.23683,0.74619 0.23683,0.74619 0.32738,-0.20233 0.32738,-0.20232 v 0.73879 0.73877 l -0.70556,-0.3776 -0.70555,-0.3776 -0.048,0.80616 -0.048,0.80617 -0.15289,-0.79375 -0.15288,-0.79375 h -0.32824 -0.32824 l -0.0352,0.61736 -0.0352,0.61737 -0.28245,-0.88195 -0.28245,-0.88194 -0.0406,0.70555 -0.0406,0.70556 -0.3241,-0.51232 -0.3241,-0.51233 0.17393,-0.28142 0.17393,-0.28143 h -0.3736 -0.37359 v 0.90276 0.90277 l -0.32679,-0.20197 -0.32679,-0.20196 0.27584,-0.96539 0.27584,-0.96538 -1.18377,-0.0265 -1.18378,-0.0265 0.005,0.73202 0.005,0.73203 0.34197,-0.52917 0.34197,-0.52917 0.005,0.42016 0.005,0.42015 -0.39044,0.24131 -0.39044,0.2413 0.47863,0.30328 0.47864,0.30328 -0.5602,0.005 -0.5602,0.005 -0.0483,-1.28465 -0.0483,-1.28466 -0.18526,-0.18525 -0.18525,-0.18526 -0.0417,0.85255 -0.0417,0.85255 -0.2693,-1.05834 -0.2693,-1.05833 -0.0417,1.75129 -0.0417,1.75129 -0.61736,-0.64706 -0.61736,-0.64706 0.44097,-0.16349 0.44097,-0.16349 v -0.95386 -0.95386 l -0.61736,-0.0468 -0.61736,-0.0469 0.12224,1.73567 0.12225,1.73567 h 0.33955 0.33955 l -0.21803,0.35277 -0.21803,0.35278 h -0.81104 -0.81105 l 0.008,0.79375 0.008,0.79375 -0.0578,1.8266 -0.0578,1.82659 -1.94028,-0.20025 -1.94028,-0.20026 v 1.32182 1.32182 l 0.50412,-0.19344 0.50411,-0.19345 1.231,-0.23094 1.23101,-0.23094 0.46543,-1.11266 0.46543,-1.11267 -0.11328,-0.35277 -0.11328,-0.35278 0.29398,0.29398 0.29398,0.29398 v 0.38218 0.38217 l 0.35278,0.11732 0.35278,0.11732 0.0535,-0.92377 0.0535,-0.92377 -0.67086,-0.17543 -0.67085,-0.17544 v -0.73496 -0.73497 l 0.42333,0.42333 0.42333,0.42334 h 0.28223 0.28222 v -0.52917 -0.52917 h 0.33602 0.33601 l -0.12873,1.01723 -0.12874,1.01723 0.67466,-0.17643 0.67467,-0.17643 v 0.91202 0.91202 l -0.61736,-0.22514 -0.61737,-0.22513 0.68578,0.78055 0.68578,0.78056 -0.5619,-0.21562 -0.5619,-0.21562 -0.23289,0.37682 -0.23289,0.37683 h 0.72637 0.72638 v 0.87088 0.87087 l -0.58704,-0.22527 -0.58704,-0.22527 0.24002,0.38835 0.24001,0.38836 -0.35853,0.22158 -0.35853,0.22159 0.0224,0.59654 0.0224,0.59654 0.31687,-0.78788 0.31688,-0.78787 z m 6.9809,-8.58798 -0.44097,-0.15749 v -0.52498 -0.52496 l 0.57116,0.57116 0.57117,0.57116 -0.1302,0.1113 -0.13019,0.11129 z m 0.97014,-0.0987 v -0.35278 h 0.35278 0.35277 v 0.35278 0.35277 h -0.35277 -0.35278 z m -8.08604,-1.26412 0.0279,-0.67616 0.18529,0.46302 0.18528,0.46302 -0.21313,0.21314 -0.21314,0.21313 z m 68.28346,10.61273 -0.20306,-0.52917 h 1.20283 1.20283 l 0.18625,-0.30134 0.18624,-0.30135 -1.70883,0.0139 -1.70882,0.0139 v 0.81663 0.81663 h 0.52281 0.52281 z m 2.42063,0.17639 0.21803,-0.35278 h -1.07915 -1.07916 v 0.35278 0.35277 h 0.86113 0.86112 z m -72.50989,-1.60445 -0.42511,-0.51222 h 0.39597 0.39598 v -0.5181 -0.51809 l -0.49437,0.18971 -0.49438,0.18971 0.0864,0.41658 0.0864,0.41658 0.30357,1.05833 0.30357,1.05834 0.1335,-0.63431 0.13351,-0.63431 z m 35.06652,0.1454 0.21855,-0.92988 -0.73004,-0.19091 -0.73004,-0.19091 0.20426,0.53228 0.20425,0.53228 v 0.92365 0.92365 l 0.30724,-0.33514 0.30723,-0.33514 z m 2.31719,-0.0403 0.0248,-0.26458 -0.79375,0.0279 -0.79375,0.0278 0.44098,0.17793 0.44097,0.17794 0.0248,0.76435 0.0248,0.76435 0.30319,-0.70555 0.30318,-0.70556 z m 46.50327,0.94227 4.6743,-0.248 v -0.25688 -0.25688 l -1.14653,-0.18377 -1.14652,-0.18378 -4.10862,-0.0547 -4.10862,-0.0547 -0.96665,0.24261 -0.96664,0.24262 0.84193,0.65668 0.84193,0.65668 0.70555,-0.15598 0.70556,-0.15598 z m -71.5257,-0.1277 v -0.33196 l -0.3284,-0.20296 -0.3284,-0.20296 -0.23645,0.38258 -0.23645,0.38258 -0.49348,-0.18937 -0.49348,-0.18936 v 0.3417 0.34171 h 1.05833 1.05833 z m 32.37363,-1.89209 -0.17853,-2.22405 2.51148,0.6608 2.51148,0.66079 0.44097,0.0345 0.44097,0.0345 v 0.24335 0.24336 l 0.97014,0.0343 0.97014,0.0343 1.94028,-0.0186 1.94028,-0.0186 4.67454,-0.22966 4.67455,-0.22966 -2.4e-4,0.61736 -2.4e-4,0.61736 h 0.35277 0.35278 l 0.0348,-0.79375 0.0348,-0.79375 0.0534,-0.85081 0.0534,-0.85081 0.38218,-0.12912 0.38217,-0.12913 v 1.60906 1.60906 l 0.36444,0.36444 0.36444,0.36444 0.17374,-1.80808 0.17373,-1.80808 0.40257,-0.40256 0.40256,-0.40257 v 1.83444 1.83445 h 0.35278 0.35278 v -3.175 -3.175 h -0.33043 -0.33042 l -0.11055,1.14364 -0.11054,1.14363 -0.5988,0.11338 -0.5988,0.11338 0.20398,-1.25702 0.20399,-1.25701 h -0.39894 -0.39893 l -0.0374,0.44097 -0.0374,0.44097 0.064,0.97014 0.064,0.97014 h -0.55575 -0.55576 v -0.91134 -0.91135 l -0.44097,0.15648 -0.44097,0.15649 0.0914,0.7966 0.0914,0.79661 -0.9031,-0.17264 -0.9031,-0.17264 -0.20257,1.01284 -0.20256,1.01284 h -0.30869 -0.30868 v -0.52917 -0.52917 h -0.33195 -0.33196 l -0.22159,0.35854 -0.22158,0.35853 -0.33416,-0.20652 -0.33415,-0.20652 0.14511,-0.24021 0.14512,-0.2402 -0.4704,-0.43458 -0.4704,-0.43457 -0.23439,0.73849 -0.23438,0.7385 -0.4824,-0.4824 -0.4824,-0.4824 0.20851,-0.79734 0.2085,-0.79733 0.39835,0.0475 0.39834,0.0475 0.37987,-0.0418 0.37988,-0.0418 -0.15533,-1.05834 -0.15533,-1.05833 h 0.70279 0.7028 l 0.43838,-1.05833 0.43837,-1.05834 h 0.48637 0.48637 v -0.35277 -0.35278 h 0.90571 0.90572 l -0.19211,0.61736 -0.1921,0.61736 0.30615,0.48758 0.30616,0.48759 0.23773,-0.74901 0.23772,-0.74901 -0.21998,-0.35594 -0.21998,-0.35593 1.52013,-0.0312 1.52013,-0.0312 1.72049,-0.13123 1.72049,-0.13123 0.18702,-0.18702 0.18703,-0.18702 -9.13946,0.18178 -9.13946,0.18177 -7.48494,0.11423 -7.48493,0.11423 -0.11665,-0.34996 -0.11665,-0.34996 -0.7537,0.40337 -0.75369,0.40336 h -0.83458 -0.83459 l -0.47508,-0.44097 -0.47509,-0.44097 0.28331,0.49654 0.2833,0.49655 -0.84891,-0.27087 -0.84891,-0.27087 -3.69308,-0.15322 -3.69307,-0.15322 -0.23158,-0.3747 -0.23158,-0.37469 -0.19785,0.32013 -0.19786,0.32014 -1.52194,0.0667 -1.52193,0.0667 -2.38125,0.21583 -2.38125,0.21584 v -0.60816 -0.60817 l -0.47867,0.39725 -0.47866,0.39726 -1.19703,-0.20737 -1.19703,-0.20737 0.52916,0.37707 0.52917,0.37709 -0.97014,0.005 -0.97014,0.005 0.005,0.61736 0.005,0.61736 0.21372,0.79761 0.21373,0.79761 0.92798,0.22117 0.92799,0.22118 0.35278,0.25578 0.35277,0.25578 6.52639,2.0443 6.52639,2.04431 0.77824,0.5039 0.77823,0.5039 0.35794,-0.22121 0.35793,-0.22122 1.06869,0.55265 1.06869,0.55264 v -0.21065 -0.21065 l 0.55761,0.55761 0.55761,0.55761 0.3287,-0.20315 0.32871,-0.20315 3.6116,1.11714 3.61161,1.11714 0.35278,0.11325 0.35277,0.11325 0.48927,0.0279 0.48928,0.0279 z m 19.83748,-2.16485 v -0.50835 l 0.30358,-0.18762 0.30357,-0.18762 0.20129,0.20129 0.20128,0.20129 -0.18982,0.49468 -0.18983,0.49467 h -0.31503 -0.31504 z m -17.02152,-0.2082 0.79375,-0.31905 v -0.36415 -0.36414 h -0.3736 -0.3736 l 0.22677,0.36691 0.22677,0.36692 -0.82331,-0.19441 -0.82331,-0.1944 -6.17361,-1.42851 -6.17361,-1.42851 -5.11528,-1.04651 -5.11528,-1.04652 -1.76389,-0.4959 -1.76389,-0.4959 7.49653,-0.0238 7.49653,-0.0238 v 0.34405 0.34404 l 0.85042,-0.32333 0.85042,-0.32333 1.4301,0.14228 1.43009,0.14227 0.22011,-0.35614 0.22011,-0.35614 3.49659,0.0602 3.4966,0.0602 v 0.99108 0.99107 l -0.70555,0.22394 -0.70556,0.22393 0.0279,1.47554 0.0279,1.47553 0.17205,-0.4233 0.17205,-0.42331 0.82382,0.31322 0.82383,0.31322 0.51167,-1.55423 0.51167,-1.55422 -0.31687,0.19583 -0.31687,0.19584 0.13131,-0.98055 0.13132,-0.98053 0.41405,-0.13803 0.41405,-0.13802 v 0.95454 0.95454 l 0.52917,-0.43916 0.52916,-0.43917 v -0.48597 -0.48598 h 0.35278 0.35278 v 0.51811 0.51809 l 0.52916,-0.20306 0.52917,-0.20306 v -0.49142 -0.49143 l 0.79375,-0.003 0.79375,-0.003 1.94028,-0.21524 1.94028,-0.21524 -0.63657,0.4922 -0.63656,0.4922 0.23334,0.60805 0.23333,0.60806 h 0.31503 0.31504 v -0.70556 -0.70556 h 0.35278 0.35277 v 0.69884 0.69883 l -0.8876,0.22278 -0.88761,0.22277 -0.69954,-0.18293 -0.69954,-0.18294 -0.21656,0.3504 -0.21656,0.3504 0.3926,0.39259 0.39259,0.3926 v -0.42334 -0.42333 h 0.52917 0.52916 v 0.88195 0.88194 h -0.32338 -0.32338 l -0.14594,-0.43782 -0.14594,-0.43783 -0.55049,0.5505 -0.5505,0.5505 0.29144,0.52079 0.29145,0.52078 -0.29052,0.47007 -0.29052,0.47007 -0.37681,-0.23288 -0.37681,-0.23289 0.18834,-0.49081 0.18834,-0.49081 -0.64472,-0.31405 -0.64472,-0.31405 -1.50017,0.0432 -1.50016,0.0432 -0.0414,0.33199 -0.0414,0.33199 -0.30178,0.79374 -0.30179,0.79375 h 1.82572 1.82571 l -0.42333,-0.42334 -0.42334,-0.42333 v -0.4586 -0.45861 h 0.65664 0.65663 l -0.17879,0.93528 -0.17879,0.93527 1.46244,-0.19615 1.46243,-0.19615 v 0.49559 0.4956 l -4.49792,-0.0224 -4.49791,-0.0224 z m 6.2243,-3.36988 0.21437,-0.55864 -0.41916,0.13972 -0.41917,0.13972 -0.13964,0.41892 -0.13964,0.41893 h 0.34443 0.34444 z m -9.92847,-1.0861 -0.44097,-0.17794 -0.44098,0.17794 -0.44097,0.17793 h 0.88195 0.88194 z m -2.65318,-2.09617 -0.21314,-0.21313 -0.46302,0.18528 -0.46302,0.18529 0.67616,0.0279 0.67615,0.0279 z m 1.59485,-0.0205 -0.44098,-0.17793 -0.44097,0.17793 -0.44097,0.17794 h 0.88194 0.88195 z m 7.32013,5.36974 v -0.50835 l 0.35278,-0.21803 0.35278,-0.21803 0.33737,0.20851 0.33737,0.20851 -0.19872,0.51787 -0.19873,0.51787 h -0.49142 -0.49143 z m 5.83185,0.0522 -0.27456,-0.63258 0.21997,-0.21997 0.21997,-0.21997 0.20757,0.20757 0.20757,0.20758 -0.15297,0.64498 -0.15298,0.64497 z m 1.49014,-0.42576 0.1686,-0.88194 h 0.27053 0.27052 l 0.1686,0.88194 0.16859,0.88195 h -0.60771 -0.60772 z m -10.84976,-1.7639 v -0.88195 h 0.35277 0.35278 v 0.88195 0.88194 h -0.35278 -0.35277 z m 10.93611,-0.33196 V 171.567 l 0.35278,-0.21803 0.35277,-0.21802 v 0.72637 0.72638 h -0.35277 -0.35278 z m 1.66167,-0.19721 0.18451,-0.70555 h 0.31163 0.31163 v 0.70555 0.70556 h -0.49614 -0.49614 z m 1.77976,-1.94028 0.1686,-0.88194 h 0.31165 0.31165 v 0.88194 0.88195 h -0.48025 -0.48024 z m -1.81619,-0.0289 -0.21413,-0.55802 v -0.14753 -0.14754 h 0.52917 0.52916 v 0.70556 0.70555 h -0.31503 -0.31504 z m -40.14417,-1.09408 0.46303,-0.18528 0.21313,0.21314 0.21314,0.21313 -0.67616,-0.0279 -0.67616,-0.0279 z m 39.51111,-0.35277 0.46303,-0.18529 0.21313,0.21314 0.21314,0.21313 -0.67616,-0.0279 -0.67616,-0.0279 z m -7.55491,11.58867 0.18169,-0.29398 h -0.49813 -0.49813 l 0.18169,0.29398 0.18169,0.29398 h 0.13475 0.13475 z m -38.00486,-1.1446 v -1.08581 l -0.29455,0.52632 -0.29454,0.52632 0.21469,0.55949 0.2147,0.55948 h 0.0798 0.0799 z m 54.35717,0.84262 -0.61736,-0.16133 -0.61736,0.16133 -0.61736,0.16134 h 1.23472 1.23472 z m 27.52904,-18.36584 0.10056,-18.07986 h -21.39862 -21.39862 l 0.39993,0.48188 0.39992,0.48188 3.03382,-0.15529 3.03382,-0.15529 1.15494,1.26091 1.15495,1.2609 h 0.51581 0.5158 l 0.75953,0.65875 0.75954,0.65874 v 0.39959 0.39959 h 0.32824 0.32824 l 0.11273,0.77198 0.11273,0.77199 1.41111,0.7412 1.41111,0.7412 -0.0841,1.09257 -0.0841,1.09258 0.72764,0.19028 0.72765,0.19028 0.19135,0.73174 0.19135,0.73174 h 0.31164 0.31163 v -0.70556 -0.70556 h 0.49977 0.49977 l 0.1351,-0.4053 0.1351,-0.4053 1.21721,0.23996 1.21722,0.23995 0.9184,0.80948 0.9184,0.80948 0.25893,4.20478 0.25893,4.20478 0.41017,0.26636 0.41017,0.26637 -0.36971,0.26458 -0.3697,0.26458 -0.0522,0.83177 -0.0522,0.83176 0.72998,0.19089 0.72997,0.19089 -0.83723,0.46415 -0.83723,0.46415 1.36612,0.0125 1.36611,0.0125 -0.36155,0.44098 -0.36156,0.44097 -0.075,0.70555 -0.0751,0.70556 0.0406,0.63818 0.0406,0.63818 0.44097,-0.24896 0.44097,-0.24896 -0.44097,0.47508 -0.44097,0.47509 0.005,0.37042 0.005,0.37041 0.34198,-0.52916 0.34197,-0.52917 0.005,0.97014 0.005,0.97014 h 0.34605 0.34606 l 0.22135,0.88194 0.22136,0.88195 h 0.31453 0.31453 v 0.46265 0.46264 l 0.70556,0.75733 0.70556,0.75732 v 0.36753 0.36753 h 0.89741 0.8974 l -0.0573,-0.44097 -0.0573,-0.44098 0.0418,-0.64837 0.0418,-0.64836 1.49931,0.23575 1.49931,0.23575 1.14652,0.39529 1.14653,0.39529 v 0.31966 0.31965 l 0.54749,-0.21009 0.54749,-0.2101 -0.21553,0.34874 -0.21553,0.34874 h 0.35277 0.35278 l 0.19756,-0.31966 0.19756,-0.31966 0.71638,0.18734 0.71637,0.18733 0.36505,0.6821 0.36504,0.68209 1.12309,-0.1088 1.12309,-0.1088 z m -16.80181,8.73125 v -0.88195 l 0.17794,0.44097 0.17793,0.44098 -0.17793,0.44097 -0.17794,0.44097 z m 4.00124,0 -0.21803,-0.35278 h 0.3736 0.3736 v 0.35278 0.35277 h -0.15557 -0.15557 z m -70.84025,7.85601 -0.16262,-0.62407 -0.0131,1.05833 -0.0131,1.05834 0.1757,-0.43426 0.1757,-0.43426 z m 60.24227,0.30404 0.20928,-0.65939 -0.005,-1.1927 -0.005,-1.19269 -0.004,-1.14652 -0.004,-1.14653 h 0.35257 0.35256 l 0.011,0.44097 0.011,0.44097 0.155,2.25324 0.15501,2.25324 0.18681,0.18681 0.18681,0.1868 v -5.17407 -5.17407 h -0.35278 -0.35278 v 1.96245 1.96245 l -0.79375,-0.11037 -0.79375,-0.11037 v 3.09953 3.09952 l -0.52916,0.33466 -0.52917,0.33466 0.76998,0.005 0.76997,0.005 z m -72.13381,-0.83992 0.005,-0.26458 h -0.35277 -0.35278 l 0.005,0.79375 0.005,0.79375 0.34198,-0.52917 0.34197,-0.52916 z m 57.77688,0.90415 -0.61325,-0.16055 -0.79786,0.15343 -0.79787,0.15342 1.41112,0.007 1.41111,0.007 z m 21.99722,-0.37498 0.0409,-0.61736 0.16133,0.61736 0.16133,0.61736 h 0.52412 0.52412 l -0.28,-0.44097 -0.28,-0.44097 -0.0131,-0.17639 -0.0131,-0.17639 -0.69783,-1.67087 -0.69784,-1.67086 -0.44097,-0.17015 -0.44097,-0.17014 0.0248,0.95906 0.0248,0.95907 0.30799,-0.70555 0.308,-0.70556 -0.0249,1.41111 -0.0249,1.41111 0.0449,0.79375 0.0449,0.79375 h 0.35277 0.35278 z m -52.87027,-2.29306 -0.12895,-0.26458 h -0.25309 -0.25309 l 0.167,1.4993 0.16701,1.49931 0.21504,-1.23472 0.21504,-1.23472 z m -1.37467,-0.34737 0.40541,-0.25918 -0.61736,-0.005 -0.61736,-0.005 0.048,1.14652 0.048,1.14653 0.16392,-0.88194 0.16391,-0.88194 z m -2.35956,0.34737 -0.17794,-0.44097 v 0.88194 0.88195 l 0.17794,-0.44097 0.17793,-0.44098 z m 40.2754,-1.80313 0.11599,-0.59814 1.20693,-1.17216 1.20693,-1.17215 v -0.1878 -0.1878 l -0.67404,-0.17626 -0.67404,-0.17627 -0.21715,1.15753 -0.21715,1.15753 -0.8727,0.21903 -0.8727,0.21904 v 0.90462 0.90462 l 0.44097,-0.14683 0.44098,-0.14682 z m -67.08651,-1.01909 -0.17794,-0.44097 v 0.88194 0.88195 l 0.17794,-0.44098 0.17793,-0.44097 z m 1.41846,0.37483 -0.18529,-0.46302 -0.0279,0.67615 -0.0279,0.67616 0.21314,-0.21314 0.21313,-0.21313 z m -0.85598,-2.4474 0.33754,-0.22049 -1.0078,0.007 -1.0078,0.007 0.44097,0.15473 0.44097,0.15473 0.0279,0.58796 0.0279,0.58796 0.20144,-0.52916 0.20143,-0.52917 z m 73.76756,0.22049 0.20306,-0.52917 h -0.33288 -0.33289 l 0.21167,-1.05833 0.21166,-1.05834 h -0.39972 -0.39972 l 0.06,1.5875 0.06,1.5875 h 0.25784 0.25783 z m -71.11998,-0.41878 -0.61325,-0.16054 -0.79787,0.15342 -0.79786,0.15342 1.41111,0.007 1.41111,0.007 z m 72.40352,-1.06289 v -1.30528 l -0.3975,0.39751 -0.39751,0.3975 0.22784,0.90777 0.22784,0.90778 h 0.16966 0.16967 z m 5.17253,0.15875 -0.17794,-0.44097 v 0.88194 0.88195 l 0.17794,-0.44098 0.17793,-0.44097 z m -80.84336,-1.32292 -0.21803,-0.35277 h -0.35278 -0.35278 l 0.21803,0.35277 0.21803,0.35278 h 0.35278 0.35278 z m 78.78019,-5.11918 0.11075,-5.11905 -0.22272,-0.70171 -0.22271,-0.70172 h -0.4298 -0.4298 v -0.70556 -0.70555 h 0.298 0.298 l -0.21802,-0.35278 -0.21803,-0.35278 h -0.75968 -0.75968 l -0.71881,0.87889 -0.7188,0.87888 -3.34316,0.18527 -3.34316,0.18527 -1.24295,-1.22972 -1.24296,-1.22971 -1.44511,-1.42193 -1.44512,-1.42194 h -0.28473 -0.28473 l -1.91555,-0.90621 -1.91555,-0.9062 -1.08155,0.37704 -1.08155,0.37703 h -1.11924 -1.11923 l -1.59033,-0.54188 -1.59032,-0.54188 -1.31421,-1.2396 -1.31422,-1.23961 -0.59789,0.16319 -0.59789,0.16318 -1.41111,0.26804 -1.41111,0.26803 -0.23519,0.0273 -0.23518,0.0274 -0.23234,0.23234 -0.23234,0.23235 -0.94359,-0.27767 -0.94358,-0.27767 -1.1443,-0.66023 -1.1443,-0.66024 -0.002,-0.26457 -0.002,-0.26458 h -0.52916 -0.52917 v -0.32902 -0.329 l -0.7203,-0.22862 -0.7203,-0.22861 0.21491,-0.67711 0.2149,-0.6771 h -0.37655 -0.37655 v 0.35278 0.35278 h -1.05833 -1.05834 v -0.35278 -0.35278 h -0.90276 -0.90277 l 0.20512,0.33188 0.20511,0.33189 -1.27793,-0.20738 -1.27793,-0.20738 -0.31207,0.49286 -0.31207,0.49286 -0.005,-0.46179 -0.005,-0.46179 -0.35278,0.21803 -0.35277,0.21803 v -0.37361 -0.3736 h -14.81794 -14.81667 v 10.68271 10.68271 l 1.6757,0.50275 1.67569,0.50274 0.44097,0.0722 0.44098,0.0722 v -0.34676 -0.34676 l 0.58043,0.58043 0.58043,0.58044 0.30797,-0.46704 0.30797,-0.46704 0.33996,0.57468 0.33997,0.57469 2.84806,-0.0944 2.84805,-0.0944 0.2033,-0.2033 0.20329,-0.20329 0.74737,0.42856 0.74736,0.42856 h 10.23056 10.23055 l 16.22778,0.2539 16.22778,0.25391 5.46806,-0.25391 5.46805,-0.2539 0.19886,-2.99861 0.19886,-2.99861 0.0928,0.35276 0.0928,0.35278 0.0738,1.41112 0.0738,1.41111 0.0755,2.02848 0.0755,2.02847 0.26459,-7e-5 0.26458,-7e-5 z m -7.80065,3.13252 -0.22277,-0.22277 0.34852,-0.65123 0.34853,-0.65124 -0.53733,0.2062 -0.53733,0.20619 v 0.30396 0.30397 l -0.58703,-0.22527 -0.58704,-0.22527 0.28601,0.50092 0.28602,0.50093 -0.47509,-0.44098 -0.47509,-0.44097 0.34967,-0.34967 0.34967,-0.34967 1.74908,-0.32676 1.74908,-0.32677 0.1374,0.1374 0.1374,0.1374 -0.88276,0.33562 -0.88276,0.33563 -0.20468,0.53339 -0.20468,0.5334 0.42115,0.17133 0.42115,0.17133 -0.38217,0.0279 -0.38218,0.0279 z m 2.9274,-0.30639 v -0.52917 h 0.34171 0.3417 l -0.20306,0.52917 -0.20306,0.52916 h -0.13864 -0.13865 z m -7.05555,-0.52917 -0.52917,-0.34197 0.97014,-0.005 0.97014,-0.005 v 0.35278 0.35277 l -0.44097,-0.005 -0.44098,-0.005 z m 8.73125,0.11914 0.44097,-0.17793 0.44097,0.17793 0.44097,0.17794 h -0.88194 -0.88195 z m -49.82986,-0.82469 -0.21803,-0.35278 h 0.37359 0.3736 v 0.35278 0.35277 h -0.15557 -0.15557 z m -11.79021,-0.55857 0.0279,-0.67616 0.18529,0.46302 0.18528,0.46303 -0.21313,0.21313 -0.21314,0.21314 z m 55.00548,0.20579 0.52917,-0.34198 h 0.35278 0.35278 l -0.52917,0.34198 -0.52917,0.34197 h -0.35278 -0.35277 z m -61.86368,-0.52917 0.20306,-0.52917 h 0.25624 0.25624 v 0.52917 0.52917 h -0.4593 -0.4593 z m 9.68042,-0.0294 0.0279,-0.67616 0.18529,0.46302 0.18529,0.46303 -0.21314,0.21313 -0.21314,0.21314 z m 23.78465,0.20579 -0.21803,-0.35278 h 0.54999 0.54999 v 0.35278 0.35278 h -0.33196 -0.33196 z m -31.81614,-0.22629 -0.41893,-0.17059 0.68351,-0.6835 0.68351,-0.68351 h 0.35277 0.35278 v 0.31503 0.31504 l -0.60747,0.23311 -0.60748,0.23311 0.51928,0.3284 0.51928,0.32839 -0.52916,-0.0224 -0.52917,-0.0225 z m 2.51039,-0.78723 v -0.7274 l 0.89454,-0.35153 0.89455,-0.35152 1.13666,0.095 1.13666,0.095 0.24505,0.24505 0.24505,0.24505 -0.21171,0.21171 -0.21172,0.21171 -0.46423,-0.28691 -0.46423,-0.28691 -1.02846,0.10788 -1.02846,0.10788 -0.57185,0.7062 -0.57185,0.70621 z m 20.54436,0.15565 -0.19155,-0.49917 1.08953,-0.37982 1.08953,-0.37981 h 0.4435 0.4435 l -0.19195,0.734 -0.19194,0.73399 -0.60687,-0.1587 -0.60687,-0.1587 -0.54266,0.3037 -0.54267,0.30369 z m 29.6241,-0.0241 -0.20306,-0.52917 0.60628,0.005 0.60629,0.005 0.47056,0.29829 0.47055,0.29828 -0.5876,0.22548 -0.5876,0.22548 h -0.28618 -0.28618 z m -44.20484,-0.69004 v -0.51364 l 0.29974,0.18524 0.29973,0.18525 -0.20296,0.3284 -0.20296,0.3284 h -0.0968 -0.0968 z m 7.64352,0.16087 -0.52917,-0.34197 0.35278,0.0194 0.35278,0.0194 0.70556,0.30319 0.70555,0.30319 -0.52917,0.0194 -0.52916,0.0194 z m 52.97237,-4.93888 v -0.88195 l 0.17794,0.44097 0.17793,0.44098 -0.17793,0.44097 -0.17794,0.44097 z m -73.78626,8.66387 v -0.15557 l -0.35278,-0.21803 -0.35277,-0.21803 v 0.3736 0.3736 h 0.35277 0.35278 z m -2.99861,-0.54999 -0.21803,-0.35277 -0.59654,0.005 -0.59654,0.005 0.52917,0.34197 0.52916,0.34197 0.28541,0.005 0.2854,0.005 z m 42.82984,-22.42752 0.15025,-0.15025 h -1.64629 -1.6463 v 0.29986 0.29986 l 1.49604,-0.1496 1.49604,-0.14961 z"
       id="path3" /></g></svg>
