<?xml version="1.0" encoding="UTF-8" standalone="no"?>
<!-- Created with Inkscape (http://www.inkscape.org/) -->

<svg
   width="101.59999mm"
   height="84.666664mm"
   viewBox="0 0 101.59999 84.666664"
   version="1.1"
   id="svg1"
   xml:space="preserve"
   xmlns="http://www.w3.org/2000/svg"
   xmlns:svg="http://www.w3.org/2000/svg"><defs
     id="defs1" /><g
     id="layer1"
     transform="translate(-35.804879,-44.026217)"><path
       style="fill:#ffffff;fill-opacity:1"
       d="M 35.80488,86.35955 V 44.026217 h 50.8 50.8 v 42.333333 42.33333 h -50.8 -50.8 z m 17.19792,41.38279 v -0.1568 l -0.99219,-1.2616 -0.99219,-1.2616 -0.92604,-0.64955 -0.92604,-0.64955 -1.64057,-0.48353 -1.64058,-0.48353 -1.63767,0.1485 -1.63768,0.1485 -0.18514,0.29956 -0.18514,0.29957 -0.59321,0.0447 -0.5932,0.0447 -0.24194,0.45206 -0.24193,0.45206 0.15965,0.41604 0.15965,0.41604 0.30242,0.0313 0.30242,0.0313 0.19844,-0.0313 0.19844,-0.0313 v 0.34587 0.34587 l 0.69983,0.84476 0.69983,0.84475 h 4.85642 4.85642 z m -10.23475,-2.65176 -0.14062,-0.36645 0.13923,-0.36283 0.13923,-0.36283 0.71405,-0.17921 0.71405,-0.17921 0.1668,0.1668 0.1668,0.1668 -0.51317,0.37524 -0.51318,0.37524 h 0.52682 0.52682 l 0.292,-0.292 0.292,-0.292 0.45134,0.25258 0.45133,0.25258 -0.49198,0.19051 -0.49198,0.19051 -1.14446,0.21536 -1.14446,0.21536 z m 25.78123,2.21324 -0.39305,-0.59531 -1.67344,-1.12448 -1.67344,-1.12448 h -0.86058 -0.86058 l -0.15638,0.25303 -0.15638,0.25302 -0.35426,-0.13594 -0.35425,-0.13594 -0.14729,0.38382 -0.14728,0.38381 -1.79164,-0.0879 -1.79163,-0.0879 -0.74106,0.43776 -0.74106,0.43775 v 0.29736 0.29736 l -0.66145,0.30138 -0.66146,0.30138 v 0.27026 0.27025 h 6.77914 6.77915 z m 25.055228,0.10342 0.156121,-0.49189 -0.185138,-0.5003 -0.185137,-0.50029 -0.248967,-0.16721 -0.248966,-0.16721 0.533316,-0.53331 0.533316,-0.53332 -0.832816,-0.4413 -0.832815,-0.44131 -2.248958,0.0835 -2.248959,0.0835 0.05567,0.26458 0.05566,0.26459 0.539647,0.0846 0.539647,0.0845 0.03133,0.31233 0.03133,0.31232 -0.03133,0.19844 -0.03133,0.19844 h 0.225949 0.225948 l 0.713725,0.66146 0.713725,0.66145 h 0.233122 0.233122 l 0.167951,0.52917 0.167951,0.52917 h 0.890382 0.890383 z m 35.303642,-0.13534 -0.63139,-0.62722 -1.24226,-0.5634 -1.24225,-0.5634 h -0.18219 -0.18219 l 1.15986,1.16122 1.15986,1.16122 0.89597,0.0294 0.89598,0.0294 z M 64.8792,114.678 l 1.12855,-0.30388 -0.4445,-0.67841 -0.44451,-0.6784 0.26919,0.16637 0.26919,0.16637 0.35201,-0.79525 0.35201,-0.79525 h 0.30398 0.30398 l 0.16611,0.43289 0.16612,0.43289 0.49621,-0.44907 0.49621,-0.44906 0.12177,0.3469 0.12177,0.34691 -0.0838,-1.05834 -0.0838,-1.05833 -0.1436,-1.01107 -0.1436,-1.01107 -0.25759,-0.48132 -0.2576,-0.48132 0.41723,-1.22448 0.41722,-1.22449 0.5123,-0.27417 0.5123,-0.27418 -0.0445,-2.03603 -0.0445,-2.03604 -0.19103,-0.529163 -0.19103,-0.529166 -0.17607,-0.727604 -0.17608,-0.727604 h 0.40192 0.40191 v -0.08516 -0.08516 l -0.41825,-1.227499 -0.41825,-1.227499 0.0875,-0.454386 0.0875,-0.454386 0.46302,0.463026 0.46302,0.463027 v -0.466344 -0.466343 l 0.38846,0.51359 0.38846,0.513591 0.008,-0.206936 0.008,-0.206935 -0.41756,-0.98369 -0.41756,-0.983689 -0.21768,-1.190625 -0.21767,-1.190625 -0.55431,-1.389062 -0.55432,-1.389063 h 0.26351 0.2635 v 0.49677 0.49677 l 0.39688,0.329377 0.39687,0.329377 v 0.613446 0.613447 l 0.2716,0.167858 0.2716,0.167858 -0.0713,0.310778 -0.0713,0.310777 0.30433,1.058334 0.30433,1.058333 0.42139,1.478463 0.4214,1.478463 v 0.704349 0.70435 h 0.2926 0.29259 l -0.14427,-2.050521 -0.14427,-2.050521 -0.15847,-0.926041 -0.15846,-0.926042 0.50552,0.926042 0.50552,0.926041 0.18511,1.521354 0.18512,1.521355 0.1794,-4.83e-4 0.1794,-4.82e-4 -0.0884,1.563322 -0.0884,1.563321 0.44104,0.67311 0.44104,0.67311 -0.0994,0.47603 -0.0994,0.47603 0.805075,0.40704 0.805071,0.40704 -0.03675,0.45286 -0.03675,0.45285 h 0.235185 0.235186 l 0.02734,-0.46302 0.02734,-0.46302 0.263522,0.99219 0.263521,0.99219 h 0.386207 0.386206 l -0.173608,0.2809 -0.173608,0.2809 -0.651678,0.24777 -0.651678,0.24777 0.181286,0.29332 0.181285,0.29333 0.227459,-0.35898 0.227459,-0.35897 0.0041,0.46302 0.0041,0.46302 h 0.266992 0.266991 l 0.847282,0.80971 0.847282,0.8097 -0.333047,0.20584 -0.333048,0.20583 0.385791,0.32018 0.38579,0.32018 0.994004,0.1613 0.994004,0.16131 -0.199155,-0.50484 -0.199155,-0.50484 -0.147705,-0.92604 -0.147705,-0.92604 -0.623535,-1.13387 -0.623536,-1.13386 v -0.38749 -0.38749 h -0.368567 -0.368568 l -0.123984,-0.33073 -0.123985,-0.33073 0.209372,-0.52916 0.209373,-0.52917 0.01706,-1.45521 0.01706,-1.455207 -0.266289,-1.5875 -0.266288,-1.5875 -0.126176,-1.259896 -0.126176,-1.259896 -0.411953,-1.915104 -0.411953,-1.915104 -0.246105,-1.435713 -0.246105,-1.435713 -0.240546,-0.151787 -0.240547,-0.151786 -0.783774,-1.455209 -0.783774,-1.455208 -1.29338,-0.238472 -1.29338,-0.238473 -1.51595,0.313114 -1.51595,0.313114 -1.13356,0.57809 -1.13357,0.578089 -1.10286,0.868623 -1.10286,0.868623 h -0.30182 -0.30182 l 0.17369,0.281028 0.17368,0.281028 -1.15025,1.032605 -1.15026,1.032605 -0.59531,0.580362 -0.59532,0.580362 v 0.238287 0.238286 l 0.26459,-0.163521 0.26458,-0.163522 -0.008,0.214053 -0.008,0.214052 -0.38846,0.513591 -0.38846,0.51359 v -0.180272 -0.180271 l -0.52917,0.453086 -0.52916,0.453087 v 0.470365 0.470366 h -0.52917 -0.52917 v 0.264583 0.264583 h -0.67707 -0.67707 l 0.16619,0.268899 0.16619,0.2689 0.20808,-0.128601 0.20808,-0.128601 -0.12785,0.668797 -0.12785,0.668798 -0.39773,-0.152624 -0.39773,-0.152624 -0.95756,0.727754 -0.95755,0.727754 -0.59531,0.638784 -0.59532,0.638785 v 0.529512 0.529512 l -0.56461,1.548517 -0.56462,1.54852 h -0.22913 -0.22914 v 0.26459 0.26458 l -0.52916,0.52917 -0.52917,0.52916 v 0.38757 0.38756 l 0.52917,0.28321 0.52916,0.2832 v 1.38713 1.38713 l 1.44661,1.28858 1.4466,1.28858 -0.1393,0.2254 -0.1393,0.22539 h 0.27089 0.27089 l 0.27389,-0.51177 0.27389,-0.51177 v -0.95905 -0.95905 l 0.24554,0.15174 0.24553,0.15175 0.15028,-0.47348 0.15027,-0.47348 0.99326,-1.02344 0.99325,-1.02344 0.98693,-0.62359 0.98693,-0.62358 1.26202,0.0215 1.26203,0.0215 -1.37052,0.4279 -1.37053,0.4279 -0.28513,0.62579 -0.28512,0.62579 0.26659,-0.16476 0.26659,-0.16476 v 0.12901 0.129 l -0.38233,0.38233 -0.38233,0.38233 0.68529,0.82719 0.68528,0.8272 h 0.33373 0.33373 l -0.1492,-0.57054 -0.1492,-0.57054 0.37241,0.23282 0.37241,0.23282 0.39619,0.007 0.39619,0.007 0.0169,0.39687 0.0169,0.39688 -0.22142,0.29983 -0.22142,0.29983 0.43716,0.16775 0.43717,0.16776 0.3291,-0.27314 0.32911,-0.27313 0.62954,0.5135 0.62955,0.51349 -0.46698,0.18177 -0.46697,0.18178 -0.52495,-0.13728 -0.52495,-0.13728 -0.14192,0.22964 -0.14192,0.22963 -0.58595,-0.21648 -0.58594,-0.21649 -0.33073,0.11635 -0.33073,0.11636 v -0.28666 -0.28663 h -0.39688 -0.39687 v -0.20094 -0.20094 l -0.5499,-0.34342 -0.5499,-0.34341 -0.35767,0.29683 -0.35766,0.29684 0.10621,0.5515 0.10621,0.5515 0.47062,0.42552 0.47063,0.42552 0.74005,0.32883 0.74006,0.32884 h 0.51671 0.51672 v -0.26459 -0.26458 h 0.2802 0.2802 l -0.16352,0.26458 -0.16353,0.26459 h 0.67708 0.67707 v 0.26458 0.26458 h -0.66146 -0.66146 v -0.27068 -0.27068 l -0.66145,0.4334 -0.66146,0.43341 v -0.29502 -0.29501 h -0.39688 -0.39687 v 0.26458 0.26459 l -0.46302,0.004 -0.46302,0.004 0.36066,0.2285 0.36067,0.2285 -0.75754,0.27881 -0.75754,0.2788 0.59233,0.18018 0.59234,0.18018 -0.13334,0.21575 -0.13334,0.21574 0.7905,-0.10004 0.79049,-0.10005 0.16831,0.27233 0.16831,0.27233 1.64102,-0.12986 1.64103,-0.12985 z m -11.79931,-7.35681 -1.11354,-0.72102 -0.0109,-0.19843 -0.0109,-0.19844 h 0.28306 0.28306 l 1.17215,0.80646 1.17215,0.80646 v 0.11958 0.11958 l -0.33073,-0.007 -0.33073,-0.007 z m 10.29457,-8.314558 -0.3175,-0.3175 v -0.416137 -0.416138 l -0.88906,-1.349972 -0.88906,-1.349972 -0.18911,-0.753476 -0.18911,-0.753477 0.48286,0.44212 0.48286,0.44212 0.62666,1.270487 0.62667,1.270487 0.2166,0.529167 0.2166,0.529167 0.16675,0.595312 0.16675,0.595312 h -0.0972 -0.0972 z M 67.2118,97.06686 66.73643,96.413716 h 0.43248 0.43248 l -0.15554,-1.058333 -0.15555,-1.058334 -0.15953,-1.124479 -0.15952,-1.124479 0.35796,0.343563 0.35796,0.343562 0.0474,2.500708 0.0474,2.500709 -0.0474,-0.0083 -0.0474,-0.0083 z m -2.66593,-4.426432 -0.15876,-0.592337 -0.004,-0.330729 -0.004,-0.330729 h 0.23455 0.23456 l 0.1182,0.805399 0.11821,0.805399 -0.19039,0.117667 -0.19038,0.117666 z m 2.56301,-1.253795 -0.2827,-0.661459 -0.26035,-1.124479 -0.26035,-1.124479 h 0.0832 0.0832 l 0.55234,1.248665 0.55234,1.248665 -0.0924,0.537273 -0.0924,0.537272 z M 47.44655,114.45637 v -0.21361 l 0.85989,0.10128 0.8599,0.10127 2.71198,0.14133 2.71198,0.14132 v -0.39295 -0.39295 l -0.66187,-1.49659 -0.66186,-1.49659 -0.39647,-0.15214 -0.39647,-0.15214 -0.0186,-0.43471 -0.0186,-0.43472 -0.18138,0.45753 -0.18138,0.45753 -0.52763,-0.78749 -0.52763,-0.7875 -0.67468,-7.6e-4 -0.67469,-7.6e-4 -0.35632,0.33073 -0.35631,0.33072 0.16819,-0.30075 0.16819,-0.30075 -0.4435,-0.3607 -0.4435,-0.36071 0.15321,0.41005 0.1532,0.41006 -0.69898,-0.0549 -0.69897,-0.0549 -0.52917,-0.17836 -0.52917,-0.17835 0.46762,0.38485 0.46762,0.38486 -0.18664,0.49664 -0.18664,0.49664 -0.41327,0.32231 -0.41327,0.32232 0.31573,0.008 0.31572,0.008 0.41188,-0.58804 0.41188,-0.58804 v 0.43411 0.4341 l 0.15319,0.39921 0.15319,0.39921 -0.51358,-0.1343 -0.51358,-0.13431 -0.16575,0.43194 -0.16574,0.43193 0.26155,-0.16165 0.26155,-0.16164 v 0.31022 0.31023 l 0.74699,-0.10963 0.74699,-0.10964 -0.11638,0.60877 -0.11637,0.60878 0.49386,0.008 0.49387,0.008 -0.46836,0.27267 -0.46836,0.27267 -0.58997,-0.19516 -0.58998,-0.19516 -0.39687,-0.0414 -0.39688,-0.0414 -0.63027,-0.20541 -0.63027,-0.20541 0.36569,-0.23565 0.36569,-0.23566 -0.39308,-0.25258 -0.39307,-0.25259 -0.21006,0.37536 -0.21006,0.37535 -0.60958,-0.23176 -0.60958,-0.23176 -0.24788,0.17513 -0.24788,0.17514 -0.30765,0.70121 -0.30764,0.7012 0.15869,0.15869 0.15869,0.15869 h 2.46944 2.46945 z m 62.00978,-0.77859 -0.17739,-0.72761 -0.74801,-1.09774 -0.74802,-1.09775 -1.06401,-0.84271 -1.06402,-0.84272 v -0.34224 -0.34225 l -0.39687,-0.32938 -0.39688,-0.32937 v -0.46592 -0.46591 l -0.46302,-0.16245 -0.46302,-0.16245 -0.87258,-0.64434 -0.87258,-0.64433 -0.31804,-0.11389 -0.31805,-0.11389 0.19655,-0.21073 0.19655,-0.21072 1.3248,-0.004 1.32481,-0.004 v -2.318 -2.317992 l -0.28438,-0.744829 -0.28438,-0.744828 0.32305,-3.704167 0.32306,-3.704166 0.22591,-0.251354 0.2259,-0.251355 v 0.333115 0.333115 l 0.26098,-0.161291 0.26097,-0.161291 -0.0976,0.740989 -0.0976,0.740988 -0.43123,2.419217 -0.43123,2.419218 0.27796,1.296042 0.27795,1.296042 -0.077,2.304007 -0.077,2.30402 h 0.21697 0.21698 l -0.16745,0.59531 -0.16746,0.59531 0.27755,-0.39687 0.27754,-0.39688 -0.13076,-0.92604 -0.13076,-0.92604 0.22297,0.515 0.22297,0.51499 0.17107,-0.64729 0.17107,-0.64729 0.6895,1.01107 0.6895,1.01107 -0.15994,1.62682 -0.15994,1.62681 -0.2593,0.25931 -0.2593,0.2593 v 0.21167 0.21166 h 1.45521 1.4552 v -0.38126 -0.38126 l 0.30317,-0.18737 0.30318,-0.18737 -0.17132,0.68258 -0.17132,0.68258 0.75731,-0.2172 0.75731,-0.21719 0.63219,-0.34344 0.63219,-0.34345 0.88044,0.0719 0.88044,0.0719 -0.38612,-0.61735 -0.38613,-0.61735 -0.44767,-1.5875 -0.44767,-1.5875 -0.35146,-0.79375 -0.35146,-0.79375 -0.45427,-2.483659 -0.45427,-2.483654 -0.61273,-1.881971 -0.61273,-1.88197 -0.52184,-1.322917 -0.52184,-1.322917 -0.3553,-0.926041 -0.3553,-0.926042 -0.26459,-0.314924 -0.26458,-0.314925 -0.63306,-0.8757 -0.63305,-0.875701 -1.02412,-0.727604 -1.02413,-0.727604 h -0.239 -0.239 l -0.0931,-0.279395 -0.0931,-0.279394 -2.24402,-0.654319 -2.244025,-0.654319 -0.396875,-0.10282 -0.396875,-0.10282 -1.322917,-0.707315 -1.322917,-0.707315 -0.435581,-0.388993 -0.43558,-0.388992 -0.119606,0.346904 -0.119605,0.346903 0.272882,0.608384 0.272882,0.608383 -0.313008,0.86561 -0.313009,0.865609 -0.0013,0.37809 -0.0013,0.378091 -0.936702,1.019927 -0.936702,1.019928 -0.494421,-0.129294 -0.494422,-0.129294 -0.133105,0.508993 -0.133105,0.508993 -0.654601,-0.164294 -0.654601,-0.164295 -0.164998,0.266973 -0.164999,0.266973 0.533009,0.16917 0.533009,0.16917 v 0.447693 0.447692 l -0.510299,0.318687 -0.510298,0.318686 -0.145257,-0.321187 -0.145256,-0.321188 0.192534,2.116666 0.192534,2.116667 -0.02806,2.248958 -0.02806,2.248959 -0.336893,1.455208 -0.336894,1.455206 -0.06936,3.918 -0.06936,3.918 -0.160994,0.16099 -0.160994,0.161 v 0.88194 0.88195 l 0.595313,0.043 0.595312,0.043 0.973725,0.0625 0.973725,0.0625 0.02648,-0.43622 0.02648,-0.43622 0.05813,-1.05834 0.05813,-1.05833 h 0.18756 0.187561 l 0.606189,-0.82144 0.60619,-0.82144 0.831944,-0.69991 0.831944,-0.69992 h 0.409212 0.409211 l 0.144669,-0.23408 0.144668,-0.23407 0.828565,-0.12161 0.828565,-0.12161 -0.626889,0.49146 -0.626889,0.49146 0.529166,-0.15575 0.529167,-0.15575 -0.463021,0.29771 -0.463021,0.2977 v 0.25144 0.25144 h 0.529167 0.529167 v 0.26458 0.26458 h -0.368568 -0.368568 l -0.152295,0.39688 -0.152295,0.39687 h 0.300377 0.300376 l -0.154943,0.15495 -0.154944,0.15494 0.547589,0.62978 0.547588,0.62978 0.231272,-0.14293 0.231271,-0.14293 -0.03789,0.2181 -0.03789,0.2181 0.03133,0.33073 0.03133,0.33073 0.46302,0.008 0.463021,0.008 -0.478265,0.27822 -0.478265,0.27821 0.690335,0.63978 0.690333,0.63978 h 0.15564 0.15564 l 0.37951,0.46302 0.37952,0.46302 -0.15227,-0.30605 -0.15228,-0.30605 0.53365,0.13955 0.53366,0.13955 0.17157,0.27761 0.17157,0.27761 -0.44028,-0.16895 -0.44028,-0.16895 v 0.19264 0.19263 l 0.52917,0.33047 0.52917,0.33047 v -0.29922 -0.29922 l 0.33073,0.26571 0.33073,0.26571 1.25039,-0.0259 1.25039,-0.0259 0.13564,-0.35347 0.13564,-0.35347 -0.30243,0.18692 -0.30244,0.18691 0.18879,-0.30546 0.18879,-0.30546 h 0.38126 0.38126 v 0.92604 0.92604 h 1.59254 1.59254 z m -18.236333,-5.41036 0.185551,-1.64005 0.367198,-0.67506 0.367198,-0.67505 0.01059,0.59531 0.01059,0.59531 h -0.264583 -0.264583 l 0.03133,0.19844 0.03133,0.19844 -0.03133,1.52135 -0.03133,1.52136 h -0.298759 -0.298758 z m 8.878633,-0.71916 v -0.50711 l -0.330729,-0.11812 -0.330729,-0.11812 0.23466,-0.23466 0.23466,-0.23466 0.118118,0.33073 0.11812,0.33073 h 0.37482 0.37483 v 0.11065 0.11065 l -0.1606,0.41852 -0.1606,0.41851 h -0.23627 -0.23628 z m -0.45068,-5.77673 0.113629,-2.579689 0.199165,-0.72653 0.199166,-0.726529 -0.591228,-0.478745 -0.591225,-0.478746 0.313545,-2.763475 0.313545,-2.763475 -0.126296,-1.322917 -0.126296,-1.322916 -0.171267,-1.719792 -0.171268,-1.719791 -0.117154,-0.661459 -0.117153,-0.661458 0.518377,0.926042 0.518377,0.926041 0.01109,-0.181213 0.01109,-0.181213 -0.258035,-0.678683 -0.258034,-0.678682 h 0.240205 0.240205 l 0.131795,0.46302 0.131797,0.463021 10e-4,1.099483 0.001,1.099483 0.27053,1.017183 0.27054,1.017184 0.17888,1.852084 0.17888,1.852083 0.38982,1.719792 0.38982,1.719791 -0.002,0.626888 -0.003,0.626888 0.51596,0.134926 0.51595,0.134925 -0.0856,0.428812 -0.0856,0.428811 -0.84766,-0.0022 -0.84765,-0.0022 -0.25977,0.66368 -0.25978,0.66368 -0.12408,1.322916 -0.12408,1.32292 -0.0186,0.85989 -0.0187,0.8599 h -0.282152 -0.282155 z m 7.23929,1.13107 -0.48743,-0.49009 0.15875,-0.81658 0.15875,-0.81659 -0.52947,0.79375 -0.52947,0.79375 -0.002,-1.67569 -0.002,-1.675698 0.33073,0.108599 0.33073,0.108599 0.0823,0.692689 0.0823,0.692691 0.37847,-0.14523 0.37847,-0.14524 0.15121,0.39406 0.15121,0.39406 -0.0828,1.1385 -0.0828,1.1385 z m -17.10736,-2.34013 v -0.917139 l 0.406891,-0.156139 0.40689,-0.156138 0.1432,0.373172 0.1432,0.373174 -0.08707,0.61185 -0.08707,0.61185 -0.463021,0.0883 -0.463021,0.0883 z m 15.88088,-2.6274 0.006,-0.859896 0.51741,-0.661458 0.51741,-0.661458 -0.29333,0.926041 -0.29333,0.926042 -0.0315,0.595312 -0.0315,0.595313 h -0.19843 -0.19844 z m -11.838883,-7.334969 -0.852795,-0.519971 -0.123339,-0.603519 -0.123338,-0.60352 -0.112863,-0.733919 -0.112862,-0.733919 0.26394,-0.163124 0.263939,-0.163123 0.226022,0.403878 0.226021,0.403877 0.968405,0.181674 0.968405,0.181674 0.159797,-0.223061 0.159796,-0.223061 0.727604,-0.319671 0.727605,-0.319672 v 0.634764 0.634763 l -0.800196,0.175753 -0.800196,0.175752 0.04175,0.308291 0.04175,0.308291 -0.200671,0.859896 -0.200672,0.859895 -0.297656,-9.89e-4 -0.297656,-9.89e-4 z m 1.584788,-6.555656 0.05406,-1.653645 h 0.306268 0.306268 l 0.152296,0.396875 0.152295,0.396875 h -0.25628 -0.256279 l -0.0186,0.727604 -0.0186,0.727604 -0.237751,0.529167 -0.237751,0.529166 z m 22.154465,29.913495 v -0.44745 l 0.3646,0.49862 0.3646,0.49862 0.41609,-0.41609 0.41609,-0.41608 0.18394,-0.73289 0.18394,-0.73288 -0.26495,0.16375 -0.26495,0.16375 0.10539,-0.58731 0.10539,-0.58731 -0.87122,-0.95415 -0.87121,-0.95415 -0.57792,-0.30262 -0.57792,-0.30262 h -0.51825 -0.51825 l -0.20261,0.46302 -0.2026,0.46302 0.0641,0.26459 0.064,0.26458 -0.19614,-0.19614 -0.19615,-0.19614 -0.35507,0.29468 -0.35507,0.29469 v -0.34108 -0.34108 l -0.18405,0.18405 -0.18405,0.18405 -0.0571,0.38921 -0.0571,0.38922 h 0.24117 0.24118 v 0.41249 0.41249 l -0.26459,-0.16352 -0.26458,-0.16352 v 0.12626 0.12627 l -0.17725,0.46192 -0.17726,0.46192 0.30955,-0.19131 0.30954,-0.19131 v 0.28019 0.2802 h 0.39688 0.39687 v 0.28348 0.28349 l 0.39688,0.39687 0.39687,0.39688 v -0.14267 -0.14266 l 0.59532,0.23928 0.59531,0.23929 0.59531,0.0168 0.59531,0.0168 z m 17.4625,-0.56988 v -0.75275 l -0.46302,-0.40056 -0.46302,-0.40057 -0.59568,-0.14493 -0.59568,-0.14493 0.17606,0.28487 0.17606,0.28487 -0.45758,-0.17559 -0.45758,-0.17559 0.18089,0.59365 0.18089,0.59364 0.40094,0.45679 0.40094,0.45678 0.22922,-0.14167 0.22923,-0.14167 v 0.2802 0.2802 h 0.52916 0.52917 z m -46.738112,-4.07591 0.166846,-1.38906 0.0023,-1.70429 0.0023,-1.70428 0.301825,-2.97712 0.301826,-2.977113 -0.436507,-0.919871 -0.436508,-0.919871 -0.171202,-0.856013 -0.171203,-0.856013 0.305884,0.189047 0.305885,0.189046 0.0094,0.579698 0.0094,0.579698 0.347278,0.626359 0.347278,0.626359 0.181187,-0.472165 0.181186,-0.472164 -0.273257,-0.273257 -0.273257,-0.273257 V 96.10452 95.901157 l 0.396875,0.152295 0.396875,0.152295 v -0.840956 -0.840956 l -0.396875,-0.396875 -0.396875,-0.396875 -0.05307,-1.634747 -0.05307,-1.634747 0.05514,-0.96796 0.05514,-0.96796 -0.531242,0.138923 -0.531242,0.138923 v 0.212145 0.212146 l -0.987689,0.610425 -0.987689,0.610425 -0.392367,0.05759 -0.392368,0.05759 -0.339735,-0.281955 -0.339735,-0.281956 v 0.190012 0.190011 l 0.453921,0.768427 0.453921,0.768427 h 0.182396 0.182396 l 0.657788,1.124479 0.657789,1.12448 0.690269,2.814109 0.69027,2.814109 v 0.427039 0.42703 h -0.231511 -0.23151 l -0.165538,-0.859892 -0.165539,-0.859896 -0.815731,-2.645833 -0.815731,-2.645833 -0.308574,-0.636374 -0.308575,-0.636374 -0.07721,0.394637 -0.07721,0.394637 0.293891,1.167779 0.29389,1.167778 0.12034,0.661459 0.120341,0.661458 -0.376648,-0.79375 -0.376647,-0.79375 -0.484186,-1.637047 -0.484186,-1.637047 -0.175355,0.28373 -0.175354,0.283729 -0.293023,-0.547517 -0.293023,-0.547518 -0.0073,-0.348123 -0.0073,-0.348124 -0.911474,-0.661458 -0.911475,-0.661458 -0.0073,-0.330729 -0.0073,-0.33073 -0.859896,-0.0033 -0.859896,-0.0033 -0.595312,-0.919056 -0.595312,-0.919056 v -0.370543 -0.370544 l -1.151264,-0.172643 -1.151264,-0.172643 -0.73011,-0.915732 -0.730111,-0.915732 -0.301438,0.0041 -0.301438,0.0041 0.283882,0.194386 0.283882,0.194386 0.196217,0.529166 0.196218,0.529167 -0.03968,0.10271 -0.03968,0.102711 0.240768,0.161873 0.240767,0.161873 0.549281,1.058333 0.549281,1.058333 0.438834,0.999027 0.438833,0.999027 -0.156131,0.491924 -0.15613,0.491925 0.254452,0.625715 0.254452,0.625715 0.147207,0.661459 0.147207,0.661458 0.598708,0.762853 0.598709,0.762853 0.60684,0.649764 0.606841,0.649764 -0.821896,-0.180519 -0.821895,-0.180518 0.18594,1.01686 0.18594,1.01686 0.227057,0.611233 0.227057,0.611234 0.234824,-0.145129 0.234824,-0.14513 0.134562,0.703917 0.134562,0.703915 -0.51171,0.98174 -0.51171,0.98174 0.457349,0.95907 0.45735,0.95907 0.435123,-0.1381 0.435122,-0.1381 v 0.40071 0.4007 h -0.236101 -0.236101 l 0.163522,0.26459 0.163521,0.26458 h -0.255428 -0.255428 l 0.129808,0.49639 0.129807,0.49638 0.705318,0.36351 0.705318,0.36351 0.303282,0.40242 0.303281,0.40241 1.189052,0.59384 1.189052,0.59384 0.326001,0.39281 0.326001,0.39281 h 0.372782 0.372782 l 0.152295,0.39687 0.152296,0.39688 h 0.596296 0.596297 z m -2.017643,-1.95832 -0.137972,-0.72176 0.220718,-0.54511 0.220717,-0.54512 0.01677,0.47864 0.01677,0.47863 0.264584,-0.16352 0.264583,-0.16352 v 0.24995 0.24996 l -0.3641,0.7018 -0.364099,0.7018 z m -4.80029,-1.05611 -0.166827,-0.43474 0.11858,-0.11858 0.118581,-0.11858 0.549917,0.17453 0.549918,0.17454 -0.378788,0.37879 -0.378788,0.37879 h -0.122883 -0.122883 z m 3.48365,-1.89212 -0.727605,-0.0895 v -1.27704 -1.27703 l -0.396875,-0.1523 -0.396875,-0.15229 v -0.2822 -0.2822 l 0.541832,0.28998 0.541832,0.28998 0.246637,0.71152 0.246638,0.71152 0.410417,0.76344 0.410417,0.76344 -0.07441,0.0361 -0.07441,0.0361 z m -2.170181,-3.29553 0.176275,-0.46302 h -0.292891 -0.292891 v -0.52917 -0.529164 h 0.2359 0.235901 l 0.175621,0.699734 0.17562,0.69972 -0.294904,0.29246 -0.294905,0.29246 z m -2.003566,-1.852083 0.0016,-1.389063 -0.06366,-1.521208 -0.06366,-1.521209 0.172555,-1.45e-4 0.172555,-1.46e-4 0.290466,0.833232 0.290466,0.833232 v 2.077184 2.077186 h -0.400951 -0.400951 z m 44.658152,10.791003 -0.12468,-0.65223 0.218,-0.0754 0.21801,-0.0754 -1.04869,-0.5725 -1.0487,-0.5725 -0.16043,0.25958 -0.16043,0.25958 0.56967,0.14897 0.56967,0.14897 -0.0821,0.56083 -0.0821,0.56082 0.39892,0.32232 0.39892,0.32231 0.22928,0.008 0.22928,0.008 z m -40.897926,-0.40611 -0.696504,-0.79375 h -0.594392 -0.594393 l -1.06648,-0.55588 -1.066481,-0.55588 v -0.12341 -0.1234 l 0.595312,0.16382 0.595313,0.16382 -0.513591,-0.41058 -0.51359,-0.41057 h -0.248633 -0.248632 l 0.189912,0.99219 0.189912,0.99218 -0.0066,0.46303 -0.0066,0.46302 h 0.271875 0.271875 l 0.475106,-0.58674 0.475106,-0.58673 0.424287,0.35213 0.424287,0.35213 -0.134943,0.21834 -0.134943,0.21834 0.468585,0.2728 0.468586,0.2728 0.836023,0.008 0.836022,0.008 z M 122.8528,86.094966 v -0.264583 h -0.36857 -0.36857 l -0.16683,-0.434744 -0.16682,-0.434745 -0.15022,0.150222 -0.15023,0.150222 0.17428,0.549106 0.17428,0.549106 h 0.51134 0.51134 z M 58.62995,81.861633 58.17686,81.332466 h -0.32977 -0.32977 l 0.14652,0.381813 0.14651,0.381813 0.4405,0.116662 0.44049,0.116662 0.19585,0.03069 0.19584,0.03069 z m 33.605299,-5.546522 0.135836,-0.519438 -0.362184,-0.300587 -0.362185,-0.300586 -0.338105,0.358043 -0.338106,0.358043 -0.363126,0.461982 -0.363126,0.461982 h 0.92758 0.92758 z m 4.952965,-0.821307 v -0.282413 l 0.595312,0.182985 0.595313,0.182986 -0.65469,-0.708434 -0.65469,-0.708433 -0.319325,0.436703 -0.319325,0.436703 0.142426,0.371158 0.142427,0.371158 h 0.236276 0.236276 z M 76.192316,73.934819 75.484872,72.8658 h -0.134637 -0.134637 l 0.371498,0.595312 0.371498,0.595313 0.178414,0.765875 0.178415,0.765874 0.292168,-0.292168 0.292168,-0.292168 z m 22.574089,0.535875 0.273892,-0.511773 V 73.809236 73.65955 h -0.338466 -0.338466 l -0.371187,-0.514995 -0.371188,-0.514996 -0.216388,0.133735 -0.216388,0.133736 v -0.280198 -0.280199 h 0.280198 0.280198 l -0.177769,-0.287637 -0.17777,-0.287637 -0.261487,0.261487 -0.261486,0.261486 0.18008,0.819901 0.180081,0.8199 h 0.375852 0.375853 v 0.529167 0.529167 h 0.255274 0.255274 z m -8.62981,-0.147323 0.394513,-0.394513 0.09245,0.277363 0.09246,0.277363 0.453128,-0.173882 0.453128,-0.173882 -0.269047,-0.502718 -0.269047,-0.502719 h 0.355614 0.355615 l 0.51359,0.388461 0.513591,0.38846 1.25677,0.0084 1.256771,0.0084 V 73.651217 73.37833 l -0.396875,-0.152295 -0.396875,-0.152296 v -0.236276 -0.236275 h 0.41249 0.41249 l -0.149555,-0.241986 -0.149555,-0.241985 0.30926,-0.103087 0.30926,-0.103086 0.05875,-0.400262 0.05875,-0.400261 -0.535976,0.01773 -0.535976,0.01773 -0.73607,0.727604 -0.736071,0.727605 h -0.814103 -0.814102 l -0.529167,-0.529167 -0.529167,-0.529167 h -0.24356 -0.243561 l -0.177415,-0.807765 -0.177415,-0.807765 -0.306629,0.101325 -0.306628,0.101326 -0.07857,1.938449 -0.07857,1.93845 0.136415,0.35549 0.136414,0.35549 h 0.253988 0.253989 z M 94.053269,68.1033 h 0.759948 l -0.167614,-1.048201 -0.167614,-1.0482 0.211923,-0.473154 0.211923,-0.473153 0.04892,-0.466999 0.04892,-0.466999 -0.69167,-0.154846 -0.691669,-0.154847 -0.981039,-0.245246 -0.981039,-0.245247 -0.738186,0.133859 -0.738187,0.133858 -0.265149,0.359287 -0.26515,0.359286 -0.602723,0.321076 -0.602723,0.321076 0.144018,0.233026 0.144018,0.233026 -0.297147,0.183647 -0.297147,0.183647 0.308712,0.190795 0.308712,0.190794 -0.806101,0.02292 -0.806101,0.02292 -0.272429,0.16837 -0.272429,0.168371 0.152222,0.246301 0.152223,0.246301 h 0.53245 0.532451 l 0.444122,0.446368 0.444122,0.446368 0.08455,-0.57866 0.08455,-0.57866 h 0.228352 0.228352 l 0.147708,0.465388 0.147708,0.465387 0.597726,0.310013 0.597725,0.310013 1.161408,-0.113942 1.161407,-0.113942 z M 46.25715,57.298358 l -0.17493,-0.696953 -0.24044,0.429651 -0.24045,0.429651 0.32254,0.889526 0.32254,0.889526 0.0928,-0.622224 0.0928,-0.622224 z m -1.72222,-1.432037 10e-4,-0.198437 -0.33073,-0.03683 -0.33073,-0.03683 -1.10113,-0.02932 -1.10113,-0.02932 0.25387,0.306922 0.25388,0.306922 1.17679,-0.04234 1.17678,-0.04234 z m 73.68569,-1.486512 0.18979,-0.626616 -0.35849,0.117854 -0.3585,0.117854 -0.0865,0.773346 -0.0865,0.773345 0.25521,-0.264583 0.2552,-0.264584 z M 96.287437,54.039503 96.476224,53.73404 96.18981,53.911054 95.903395,54.088068 95.725819,53.528577 95.548244,52.969085 94.45,52.484522 l -1.098245,-0.484564 -1.455208,0.05623 -1.455208,0.05623 -0.529167,0.337723 -0.529167,0.337723 1.018232,-0.164368 1.018232,-0.164367 -0.173951,0.281458 -0.173951,0.281459 0.478636,0.03133 0.478636,0.03133 0.240336,-0.0453 0.240337,-0.0453 0.222684,0.344695 0.222684,0.344696 0.25035,-0.38946 0.25035,-0.38946 0.174833,0.455606 0.174832,0.455606 h 0.749828 0.749827 l 0.163522,0.264583 0.163521,0.264583 h 0.233354 0.233353 z m 0.504552,-4.627776 0.435324,-0.435323 -0.350279,-0.222084 -0.350279,-0.222083 -0.463021,-0.0041 -0.46302,-0.0041 v 0.388571 0.388571 l 0.396875,-0.152295 0.396875,-0.152295 v 0.270842 0.270842 l -0.33073,0.133452 -0.330729,0.133452 0.311831,0.02089 0.31183,0.02089 z m -26.484929,-2.191449 0.0563,-0.812811 h -0.60619 -0.6062 l 0.44002,0.92272 0.44001,0.922719 0.10991,-0.109909 0.10991,-0.109908 z m -24.97718,-1.46496 v -0.387566 l -0.55757,-0.298403 -0.55757,-0.298404 -0.27788,0.277881 -0.27789,0.277881 0.33869,0.408089 0.33868,0.408088 h 0.49677 0.49677 z"
       id="path7" /></g></svg>
