<?xml version="1.0" encoding="UTF-8" standalone="no"?>
<!-- Created with Inkscape (http://www.inkscape.org/) -->

<svg
   width="101.59999mm"
   height="84.666664mm"
   viewBox="0 0 101.59999 84.666664"
   version="1.1"
   id="svg1"
   xml:space="preserve"
   xmlns="http://www.w3.org/2000/svg"
   xmlns:svg="http://www.w3.org/2000/svg"><defs
     id="defs1" /><g
     id="layer1"
     transform="translate(-23.537901,-53.34912)"><path
       style="fill:#ffffff;fill-opacity:1"
       d="m 23.537901,95.682452 v -42.33333 h 50.8 50.799999 v 42.33333 42.333338 h -50.799999 -50.8 z m 51.639062,41.101698 0.483854,-0.43788 0.493749,0.44684 0.493748,0.44684 4.93021,-0.0297 4.93021,-0.0297 -0.0073,-0.17774 -0.0073,-0.17774 -0.929599,-0.66146 -0.929599,-0.66145 -0.518326,-0.98165 -0.518326,-0.98165 v -0.52409 -0.52409 l -0.270852,-0.1674 -0.270852,-0.16739 -1.250502,0.47176 -1.250502,0.47176 -1.41593,0.73835 -1.41593,0.73835 h -0.766882 -0.766883 v -0.23218 -0.23219 l 0.330729,-0.26743 0.330729,-0.26742 1.92376,-0.5399 1.923759,-0.5399 1.104927,-0.81257 1.104926,-0.81257 h 0.309071 0.30907 l 0.630993,-0.48413 0.630994,-0.48413 0.463021,-0.16903 0.463021,-0.16902 v 0.24948 0.24949 l -0.79375,0.41046 -0.79375,0.41047 v 0.2709 0.2709 l 0.859896,0.87804 0.859896,0.87804 0.602626,0.18733 0.602627,0.18733 0.760298,-0.8139 0.760297,-0.8139 h 0.234522 0.234522 l 1.303024,-1.32292 1.303024,-1.32291 h 0.286979 0.286979 l 1.033435,-1.05834 1.033435,-1.05833 h 0.343178 0.343178 v 1.59804 1.59804 l -0.504491,0.98165 -0.504492,0.98165 -1.546029,1.38663 -1.546029,1.38664 -0.992188,0.84486 -0.992187,0.84486 v 0.2159 0.2159 l 6.945311,-0.001 6.945308,-10e-4 1.79683,-0.62915 1.79683,-0.62916 0.47297,-0.42802 0.47296,-0.42803 0.50833,-0.004 0.50833,-0.004 1.19063,-0.41171 1.19062,-0.4117 0.66146,-0.62004 0.66146,-0.62003 2.51354,-0.97654 2.51354,-0.97654 0.74554,-0.38519 0.74555,-0.38519 0.28997,0.0967 0.28998,0.0967 -0.90322,0.53041 -0.90323,0.53041 -2.73594,1.17494 -2.73593,1.17494 -0.37292,0.71446 -0.37292,0.71447 v 0.6422 0.6422 l 0.36381,0.30193 0.36381,0.30194 6.18463,-0.0711 6.18462,-0.0711 0.0719,-5.09934 0.0719,-5.09933 -0.39606,-0.15198 -0.39607,-0.15199 0.39033,-0.75481 0.39033,-0.75482 v -4.09635 -4.09635 l -0.52506,-0.16665 -0.52506,-0.16665 -1.11369,-0.0154 -1.11369,-0.0154 0.71271,-0.37342 0.71271,-0.37343 v -0.23937 -0.23937 l 0.8599,-0.0829 0.85989,-0.0829 V 84.702212 54.275122 l -35.32187,8.1e-4 -35.321873,8e-4 -4.63021,0.19118 -4.63021,0.19119 -1.5875,0.29535 -1.5875,0.29536 -2.24896,0.21107 -2.24895,0.21107 -1.4025,0.44031 -1.40249,0.4403 -2.16938,2.09142 -2.16938,2.09141 -0.85256,0.80494 -0.85256,0.80494 -0.42801,1.52118 -0.428,1.52117 -0.61614,1.99604 -0.61614,1.99603 -0.69317,1.30368 -0.69317,1.30367 0.0763,8.47425 0.0763,8.47425 0.63344,1.28678 0.63345,1.28678 1.21023,0.7675 1.21023,0.76751 0.21295,0.38053 0.21296,0.38054 -0.54269,0.29043 -0.54268,0.29044 0.15532,0.25131 0.15531,0.2513 h 0.51356 0.51355 v -0.39687 -0.39688 h 0.39687 0.39688 v 0.36448 0.36448 l 0.39687,0.32938 0.39688,0.32938 0.35627,-0.29568 0.35627,-0.29568 1.06339,0.10243 1.06339,0.10242 0.26952,-0.16987 0.26953,-0.16988 0.0968,-0.50027 0.0967,-0.50027 1.19877,-0.30399 1.19877,-0.304 0.58701,-0.41116 0.58702,-0.41116 1.35601,-1.5627 1.35602,-1.5627 0.47535,-0.22955 0.47535,-0.22956 0.15538,-0.6191 0.15539,-0.61911 0.65077,-0.70219 0.65077,-0.70219 0.17647,-0.56582 0.17648,-0.56581 0.56292,-0.56857 0.56292,-0.56857 0.36507,-1.01893 0.36507,-1.01893 0.4915,-0.63099 0.4915,-0.631 v -0.32879 -0.3288 l 0.41389,-0.34349 0.41388,-0.3435 -0.16069,-0.64025 -0.1607,-0.64025 0.22832,-0.30543 0.22832,-0.30542 0.35812,-1.13518 0.35813,-1.13518 0.32613,0.12515 0.32614,0.12515 0.42173,-0.46601 0.42173,-0.46601 v -0.20882 -0.20882 l 0.79375,-0.90403 0.79375,-0.90403 v -0.48337 -0.48336 l 0.79375,-1.75058 0.79375,-1.75058 v -0.48784 -0.48785 l 0.44037,-1.3039 0.44037,-1.3039 0.97338,-0.95166 0.97339,-0.95167 0.14891,-0.56942 0.14891,-0.56943 -0.23975,-0.14817 -0.23974,-0.14817 v -0.24897 -0.24897 h 0.78444 0.78444 l 0.2832,-0.52917 0.2832,-0.52916 h 0.63295 0.63294 l 0.49032,-0.62335 0.49032,-0.62334 1.05024,-0.33643 1.05024,-0.33643 0.76294,-0.39898 0.762945,-0.39897 0.956848,-0.2357 0.956849,-0.2357 0.835694,-0.0968 0.835695,-0.0968 0.785793,0.83132 0.785793,0.83131 0.573473,1.75762 0.573473,1.75762 -0.163176,0.65015 -0.163176,0.65014 1.204333,0.3372 1.204334,0.33719 0.290775,0.35036 0.290776,0.35036 0.926784,0.30587 0.926785,0.30587 1.433301,-0.17908 1.433301,-0.17908 v -1.2682 -1.26819 l 0.551643,-0.7013 0.551642,-0.7013 0.257776,-0.93359 0.257777,-0.93359 1.129602,-1.17892 1.129601,-1.17892 h 0.799407 0.799406 l 1.135932,0.8599 1.135933,0.85989 0.429266,0.26459 0.429267,0.26458 1.054186,0.77873 1.054187,0.77873 0.727604,0.65984 0.727604,0.65983 v 0.24339 0.24339 l -0.388402,-0.14905 -0.388402,-0.14904 -0.130155,0.2106 -0.130155,0.21059 0.518557,0.96752 0.518557,0.96751 v 0.42614 0.42614 l -0.371008,-0.14236 -0.371008,-0.14237 -0.14885,0.14885 -0.148849,0.14885 0.264583,0.49437 0.264583,0.49438 h 0.255275 0.255274 v -0.39687 -0.39688 l 0.330729,0.001 0.330729,10e-4 1.66579,1.48597 1.665791,1.48597 0.165287,-0.16528 0.165288,-0.16529 -0.539583,-0.59427 -0.539584,-0.59427 -0.186629,-0.79375 -0.186628,-0.79375 -0.555674,-0.59531 -0.555674,-0.59531 h 0.277658 0.277658 l 1.312673,1.91822 1.312673,1.91823 0.167507,0.46362 0.167507,0.46362 1.595714,2.38949 1.59572,2.3895 0.41077,0.98334 0.41077,0.98335 0.70537,0.73643 0.70538,0.73642 1.153438,0.67596 1.15344,0.67597 -0.1448,0.1448 -0.14481,0.14481 -0.6604,-0.43272 -0.66041,-0.43271 h -0.390568 -0.39057 l -0.1443,0.23348 -0.1443,0.23349 0.56523,0.71857 0.565228,0.71857 -0.34238,0.2116 -0.342378,0.21161 0.18202,1.13831 0.182028,1.13832 0.22062,0.27771 0.22062,0.27771 0.98117,2.24742 0.98117,2.24742 0.30796,0.19592 0.30796,0.19593 0.99635,0.004 0.99636,0.004 1.03887,-0.32424 1.03887,-0.32423 0.27988,-0.61426 0.27987,-0.61426 v -0.74562 -0.74562 l -0.54837,-0.69714 -0.54837,-0.69713 h 0.44693 0.44692 l -0.12845,-0.67195 -0.12845,-0.67194 0.28205,0.094 0.28205,0.094 0.58637,1.04095 0.58637,1.04095 0.19878,1.19062 0.19879,1.19063 -0.0478,1.19062 -0.0477,1.19063 -0.14849,0.79419 -0.14849,0.79419 0.88028,0.37565 0.88029,0.37565 0.50393,0.15905 0.50394,0.15905 0.0252,0.81143 0.0252,0.81144 -1.05833,-0.48087 -1.05834,-0.48087 -0.82749,-0.006 -0.8275,-0.006 -0.33148,0.3994 -0.33148,0.39941 0.13986,1.04273 0.13986,1.04273 -0.3038,0.12874 -0.3038,0.12875 0.51359,0.41349 0.51359,0.4135 h 0.4583 0.4583 l 0.81405,0.68498 0.81405,0.68497 v 0.3317 0.33169 l 0.92903,0.50031 0.92903,0.50032 0.51698,-0.32286 0.51699,-0.32286 0.93523,0.5518 0.93524,0.5518 v 0.50303 0.50303 h 0.39008 0.39008 l 0.41782,-0.80798 0.41783,-0.80798 0.44886,0.0649 0.44887,0.0649 0.62194,-0.20928 0.62195,-0.20928 0.26636,0.26635 0.26635,0.26636 -0.55757,0.2984 -0.55757,0.2984 v 0.78444 0.784438 h -0.23373 -0.23372 l -0.14616,0.46303 -0.14616,0.46302 -0.58398,0.96738 -0.58399,0.96737 0.16181,0.42169 0.16182,0.42168 h 0.42006 0.42005 l 0.52173,-1.17946 0.52174,-1.17947 0.38943,0.14944 0.38943,0.14944 v 0.37911 0.37911 l -0.54762,1.07343 -0.54763,1.07343 0.13378,0.13378 0.13378,0.13378 1.67061,-0.79287 1.67062,-0.79286 0.13229,0.12705 0.13229,0.12706 -0.66145,0.49503 -0.66146,0.49504 -0.70331,0.54052 -0.7033,0.54052 h -0.42118 -0.42117 v 1.19063 1.19062 h -0.26103 -0.26104 l -0.40101,-0.95976 -0.40102,-0.95976 -1.05231,0.16827 -1.05231,0.16827 -1.65908,1.03143 -1.65908,1.03143 -1.12447,0.98507 -1.12448,0.98507 v -0.53837 -0.53838 l -1.02749,0.13782 -1.02748,0.13781 -0.95689,-0.3158 -0.95689,-0.3158 v -0.25455 -0.25455 l 2.18281,0.0365 2.18281,0.0365 0.72761,-0.28406 0.7276,-0.28406 v -0.53571 -0.53572 h -1.4726 -1.47261 l -0.48315,0.25858 -0.48316,0.25858 -0.78587,-0.39205 -0.78588,-0.39204 -1.27145,-0.23753 -1.27146,-0.23754 -0.62397,0.2843 -0.62397,0.2843 0.0863,0.28514 0.0863,0.28514 1.24345,0.60041 1.24345,0.60042 v 0.25948 0.25948 h -0.14079 -0.14079 l -0.94985,-0.39688 -0.94986,-0.39687 h -0.85272 -0.85272 l -0.46108,0.50948 -0.46107,0.50948 0.0893,0.44391 0.0893,0.44392 1.32291,0.51716 1.32292,0.51716 2.36086,0.36886 2.36086,0.36887 0.2038,-0.12596 0.2038,-0.12595 1.45272,0.92929 1.45272,0.9293 0.15865,0.25668 0.15864,0.25669 -1.24241,-0.54958 -1.24242,-0.54957 -1.3733,0.1614 -1.3733,0.16141 -0.45538,-0.50319 -0.45538,-0.50319 -1.6341,-0.18068 -1.63409,-0.18069 -0.72494,-0.35058 -0.72494,-0.35059 -0.862558,-0.18335 -0.86256,-0.18334 -0.46302,-0.40844 -0.46302,-0.40843 v -0.31918 -0.31918 l 0.6479,0.12386 0.64791,0.12385 0.68995,-0.74447 0.689948,-0.74446 -0.16621,-0.67285 -0.1662,-0.67285 -0.708628,-0.67845 -0.70863,-0.67844 -0.43769,-0.82021 -0.43769,-0.82021 -0.6588,-0.43167 -0.65881,-0.43166 -0.95179,-0.15446 -0.951785,-0.15445 -0.428836,0.3559 -0.428836,0.3559 0.159602,1.46429 0.159602,1.46429 -0.391526,-0.50957 -0.391526,-0.50957 -0.170592,-1.28598 -0.170591,-1.28598 -0.427659,-0.22115 -0.427659,-0.22115 -1.219833,-0.17678 -1.219834,-0.17679 -0.88209,-0.65078 -0.88209,-0.65079 h -0.345472 -0.345472 l -0.489215,-0.46302 -0.489214,-0.46302 -1.074739,-0.992188 -1.074739,-0.99219 h -0.259387 -0.259387 l -0.03184,4.913918 -0.03184,4.91391 -0.388215,0.75073 -0.388214,0.75072 -0.336296,0.11547 -0.336296,0.11547 -0.792003,-0.22386 -0.792004,-0.22386 -0.398621,0.007 -0.398622,0.007 0.98392,0.85274 0.983921,0.85274 0.874922,0.70178 0.874921,0.70179 0.629016,1.51762 0.629016,1.51761 -0.503483,0.95291 -0.503483,0.9529 -0.91087,1.01722 -0.910869,1.01723 -1.734964,0.87335 -1.734964,0.87335 -1.852083,0.26562 -1.852083,0.26561 -1.368502,0.0415 -1.368502,0.0414 -0.978914,-0.40901 -0.978914,-0.40902 -0.695293,-0.008 -0.695292,-0.008 -1.322916,-0.65076 -1.322917,-0.65077 -0.310429,-0.002 -0.310429,-0.002 -0.749997,-0.59531 -0.749997,-0.59531 -0.527074,-0.2904 -0.527079,-0.2904 -0.35389,-1.03252 -0.3539,-1.03251 0.12945,-1.51124 0.12945,-1.51123 0.952054,-1.16185 0.952049,-1.16185 v -0.17119 -0.17119 h -0.49677 -0.496769 l -0.329377,0.39688 -0.329377,0.39687 h -0.60293 -0.60292 l -0.54638,0.92605 -0.54638,0.92604 h -0.35304 -0.35303 l -0.76639,-1.21246 -0.76639,-1.21245 -0.64497,-0.50734 -0.64497,-0.50734 h -0.99435 -0.99434 l -0.1523,-0.39687 -0.15229,-0.39688 h -0.81036 -0.81036 l -0.15231,0.46303 -0.15232,0.46302 -0.37094,0.83877 -0.37093,0.83877 -0.16754,0.8377 -0.16754,0.83769 -0.63017,0.28712 -0.63016,0.28712 -0.15586,0.62099 -0.15586,0.62099 0.1353,0.59042 0.13529,0.59043 0.934,2.08934 0.934,2.08933 0.23272,0.15962 0.23273,0.15962 0.38359,0.56268 0.38359,0.56268 1.17165,0.97889 1.17165,0.97888 0.91024,-0.17076 0.91023,-0.17076 0.74743,0.3096 0.74744,0.3096 0.41587,0.6347 0.41588,0.6347 h 0.23017 0.23018 l 0.16698,-0.43514 0.16697,-0.43514 -0.40325,-0.44559 -0.40325,-0.44559 v -0.30989 -0.3099 h 0.30575 0.30576 l 0.86721,0.66146 0.86722,0.66146 h 0.43985 0.439852 l 0.702281,0.35039 0.702282,0.35038 1.128424,0.58583 1.128424,0.58582 1.649701,0.11497 1.649701,0.11496 0.924295,0.27174 0.924295,0.27174 h 1.644584 1.644585 l 2.061329,-0.30489 2.061328,-0.30489 2.111274,-0.9017 2.111273,-0.90171 0.931435,-0.56209 0.931435,-0.5621 0.765617,-0.62746 0.765617,-0.62747 0.260119,0.26012 0.26012,0.26012 -0.599975,1.01156 -0.599975,1.01155 -0.822637,0.73984 -0.822636,0.73985 -0.98693,0.64922 -0.986929,0.64922 h -0.807366 -0.807506 l -0.98369,0.43367 -0.983689,0.43367 -1.5875,0.24701 -1.5875,0.247 -1.455208,-0.0451 -1.455209,-0.0451 -0.79375,-0.0956 -0.79375,-0.0956 -1.322916,-0.16249 -1.322917,-0.16249 -0.661458,-0.28066 -0.661458,-0.28066 -0.661459,-0.26458 -0.661458,-0.26459 -0.577464,-0.26434 -0.577463,-0.26434 -0.394202,0.15127 -0.394202,0.15127 -0.08667,0.61149 -0.08667,0.6115 -1.366878,-0.0885 -1.36688,-0.0885 0.1441,1.14682 0.1441,1.14681 0.49517,0.54622 0.49518,0.54622 v 0.80977 0.80977 l -0.16895,0.84474 -0.16895,0.84475 -0.64767,0.42437 -0.64768,0.42437 -1.23389,0.18927 -1.2339,0.18927 -0.66208,-0.33989 -0.66209,-0.33989 -0.47056,-0.51997 -0.47057,-0.51997 -0.16363,-1.38163 -0.16364,-1.38164 -0.48965,-0.30579 -0.48966,-0.3058 v -0.23791 -0.23792 l -0.38553,-0.29375 -0.38554,-0.29375 -0.17804,-2.02751 -0.17804,-2.0275 0.57662,-0.80978 0.57662,-0.80979 -0.2716,-0.50749 -0.2716,-0.50749 -1.52738,-0.88838 -1.52738,-0.88837 -0.2022,-0.0896 -0.2022,-0.0896 -0.39402,0.94302 -0.39402,0.94302 -0.7267,0.36884 -0.72669,0.36885 -1.23334,0.17934 -1.23334,0.17935 -0.15296,0.39862 -0.15297,0.39863 0.58723,0.84545 0.58723,0.84545 1.26209,1.50046 1.2621,1.50046 v 0.5606 0.5606 l -0.50102,0.98165 -0.50101,0.98164 -0.49117,0.42279 -0.49118,0.42279 -1.26358,0.34111 -1.26359,0.34111 -0.14021,0.22686 -0.14021,0.22687 -0.48276,0.25837 -0.48276,0.25836 -0.60132,-0.52152 -0.60133,-0.52153 h -0.49181 -0.49181 l 0.16724,-1.04584 0.16724,-1.04584 -0.15842,-0.6312 -0.15843,-0.63121 -1.06402,-0.4798 -1.06402,-0.47981 v -0.26021 -0.2602 l -0.67509,-0.62565 -0.67509,-0.62566 h -0.49752 -0.49752 l -0.5652,0.79375 -0.5652,0.79375 h -0.47875 -0.47875 l -0.29687,0.35771 -0.29687,0.35771 0.28111,0.80641 0.28112,0.80641 0.44638,0.16303 0.44638,0.16302 0.63512,0.37075 0.63512,0.37075 0.32998,0.95984 0.32998,0.95984 -0.34164,1.29507 -0.34163,1.29508 0.14823,0.14823 0.14824,0.14824 h 18.65434 18.654338 z m 25.899257,-3.49955 -0.91064,-0.1636 -0.859378,-1.433 -0.85937,-1.43299 0.38774,-0.74982 0.38775,-0.74982 h 0.34907 0.34908 l 0.478888,0.52917 0.47889,0.52916 h 1.10861 1.10861 l 0.5034,-0.55625 0.5034,-0.55626 0.72375,-0.37426 0.72375,-0.37427 0.41633,-0.80507 0.41632,-0.80508 0.94186,-1.04253 0.94186,-1.04253 h 0.49838 0.49838 v 1.46575 1.46575 l -0.52227,1.02373 -0.52227,1.02373 -1.06523,1.23078 -1.06523,1.23078 v 0.2291 0.22909 l -1.48718,0.68086 -1.48718,0.68085 -0.56334,-0.0348 -0.56334,-0.0348 z m 19.04459,-3.72473 0.91605,-0.78299 0.46302,-0.0108 0.46302,-0.0108 v 0.12275 0.12276 l -0.98746,0.67099 -0.98746,0.671 h -0.39161 -0.39161 z m -6.93253,-0.78957 -0.96942,-0.18881 -0.64421,-0.4221 -0.64421,-0.42211 -0.33038,-1.17998 -0.33037,-1.17999 0.31064,-0.58045 0.31065,-0.58045 0.31044,0.13319 0.31044,0.13318 1.32789,0.57547 1.3279,0.57546 1.09148,-0.29391 1.09148,-0.2939 0.16402,-0.65347 0.16401,-0.65347 0.794,-0.81226 0.794,-0.81225 0.26063,0.16107 0.26063,0.16108 -0.004,0.71199 -0.004,0.71199 -0.3825,0.66146 -0.3825,0.66146 -0.33224,0.66145 -0.33225,0.66146 -0.67042,0.92604 -0.67042,0.92605 -0.39687,0.32231 -0.39688,0.32231 -0.52916,-0.022 -0.52917,-0.022 z m -24.39456,-4.38207 -0.151712,-0.39536 0.164914,-0.46302 0.164913,-0.46302 0.885116,-1.10286 0.885116,-1.10286 v -1.87938 -1.87937 l 0.644586,-0.29369 0.644586,-0.2937 0.479893,0.20959 0.479893,0.20959 0.661459,0.0613 0.661458,0.0613 0.264583,0.0598 0.264584,0.0598 0.734223,-0.0313 0.73421,-0.0313 0.16581,-0.82901 0.1658,-0.82901 0.49953,-0.13063 0.49953,-0.13063 0.38084,-0.91148 0.38084,-0.91149 0.2852,0.17626 0.28519,0.17626 -0.0614,0.96726 -0.0614,0.96727 0.0463,0.7276 0.0463,0.7276 h 0.47029 0.4703 l 0.521888,-0.35156 0.52189,-0.35156 2.31133,-1.24774 2.31133,-1.24773 -0.14138,0.36842 -0.14138,0.36843 -0.71474,0.52357 -0.71474,0.52358 -2.38125,1.27663 -2.381248,1.27663 -0.8599,0.63476 -0.85989,0.63475 v 0.33391 0.33391 l -0.81168,0.77711 -0.81169,0.7771 -1.768002,0.0312 -1.768006,0.0312 -0.329966,0.0349 -0.329967,0.0349 -1.059096,0.95683 -1.059095,0.95683 v 0.35048 0.35047 l -0.236859,0.14638 -0.23686,0.14639 z m 6.710852,0.01 v -0.12394 l 1.4585,-1.07746 1.4585,-1.07746 2.576398,-0.7659 2.57639,-0.7659 1.19062,-0.43464 1.19063,-0.43463 1.71979,-1.13037 1.71979,-1.13036 0.86285,-0.44477 0.86285,-0.44477 0.32528,-0.52084 0.32527,-0.52085 h 0.5849 0.58491 l 1.49785,-0.39014 1.49786,-0.39014 1.43822,-1.22871 1.43821,-1.2287 0.16761,0.1676 0.1676,0.1676 -0.89181,0.92012 -0.89182,0.92012 -0.5453,0.16466 -0.54531,0.16466 -0.5311,0.48455 -0.53109,0.48455 -1.0488,0.34494 -1.0488,0.34494 -0.8848,1.71979 -0.8848,1.71979 -0.37328,0.38113 -0.37328,0.38112 -0.18373,-0.18373 -0.18373,-0.18373 0.57431,-0.61132 0.57431,-0.61133 v -0.71055 -0.71055 h -0.3052 -0.3052 l -1.46901,0.69495 -1.469,0.69495 -0.49396,0.62797 -0.49396,0.62796 h -0.33826 -0.33827 l -1.28978,0.68579 -1.28977,0.68578 -1.54254,0.24842 -1.54254,0.24842 -1.241988,0.4186 -1.24198,0.41861 -1.13775,0.76386 -1.13774,0.76386 h -0.11903 -0.11902 z m 17.617078,-13.59832 -0.14124,-0.22852 1.38239,-0.16606 1.38239,-0.16605 0.52917,0.006 0.52916,0.006 -0.51359,0.38846 -0.51359,0.38846 h -1.25673 -1.25673 z m 9.17198,-12.668878 -0.33073,-0.11128 v -0.24254 -0.24253 h 0.64584 0.64585 l 0.14493,0.2345 0.14493,0.2345 -0.46005,0.11931 -0.46004,0.11931 z m -2.13401,-4.09265 -0.23581,-0.86933 0.23511,-0.46302 0.2351,-0.46302 h 0.25527 0.25528 v 1.17501 1.17501 l -0.25458,0.15734 -0.25457,0.15733 z m -10.07178,-6.26841 -0.36569,-0.23161 0.57007,-0.18093 0.57007,-0.18093 0.78477,0.17236 0.78477,0.17236 0.15094,0.24423 0.15094,0.24423 -1.14009,-0.004 -1.1401,-0.004 z m -7.57182,-7.69779 -0.47889,-0.52917 h 0.39688 0.39687 l 0.47889,0.52917 0.47889,0.52917 h -0.39687 -0.39688 z m -73.087319,56.727248 0.15816,-0.15815 -0.14237,-0.37101 -0.14237,-0.37101 h -0.34026 -0.34026 l -0.14237,0.37101 -0.14237,0.37101 0.15816,0.15815 0.15816,0.15816 h 0.30868 0.30868 z m 28.50503,-6.78965 v -0.33323 l -0.53993,-0.33719 -0.53992,-0.33719 -0.28982,0.17911 -0.28981,0.17912 0.6313,0.48542 0.63131,0.48542 0.19844,0.006 0.19843,0.006 z m 1.85209,-1.21479 v -0.75427 l -0.29242,-0.83881 -0.29241,-0.83882 -0.50384,-0.26965 -0.50383,-0.26964 -0.24577,0.6464 -0.24576,0.64641 -0.2809,0.17361 -0.28091,0.1736 v 0.23114 0.23114 l 0.50287,0.1596 0.50286,0.15961 0.16364,0.65197 0.16363,0.65198 h 0.65642 0.65642 z m -3.175,-2.80199 v -1.17501 l -0.27618,-0.17068 -0.27617,-0.17069 -0.38529,0.31976 -0.38528,0.31976 v 0.84955 0.84954 l 0.17639,0.17639 0.17639,0.17639 h 0.48507 0.48507 z m -17.72709,-0.53522 v -0.56988 l -0.38846,-0.51359 -0.38846,-0.51359 -0.008,-0.20499 -0.008,-0.20498 0.6738,-0.25618 0.6738,-0.25618 -0.17433,-0.99404 -0.17433,-0.99405 -0.43332,-0.63242 -0.43332,-0.63243 -0.17286,-0.29361 -0.17285,-0.29362 -0.33694,-1.13787 -0.33693,-1.13787 -0.30558,-0.41789 -0.30557,-0.4179 -1.00911,-0.16403 -1.00911,-0.16402 0.0969,-0.26459 0.0969,-0.26458 0.32473,0.0746 0.32473,0.0746 0.29064,-0.54306 0.29064,-0.54306 -0.16014,-0.25911 -0.16015,-0.25912 h -0.74582 -0.74582 l -0.94986,-0.39687 -0.94985,-0.39688 h -0.14079 -0.14079 v 0.46458 0.46458 l -0.7657,0.33893 -0.76569,0.33893 -0.2761,0.71784 -0.27609,0.71785 -0.16876,0.8549 -0.16876,0.8549 1.03174,-0.14431 1.03174,-0.14431 0.3435,0.41389 0.34349,0.41389 h 0.33707 0.33707 l 0.82116,0.93525 0.82116,0.93524 v 0.60308 0.60308 l 1.16004,0.86918 1.16005,0.86919 0.32003,1.62738 0.32004,1.62739 0.11294,0.36674 0.11293,0.36675 0.52365,-0.4739 0.52365,-0.4739 z m -12.67861,-3.47492 0.35077,-0.42265 -0.034,-1.45378 -0.034,-1.45378 -0.14565,-0.14565 -0.14565,-0.14565 -0.40327,0.33469 -0.40327,0.33468 v 0.74574 0.74574 l -0.26458,0.16352 -0.26458,0.16352 v 0.60175 0.60174 l 0.17639,0.17639 0.17638,0.17639 h 0.32039 0.32038 z m 15.58498,-0.71114 -0.004,-0.32142 -0.23383,-0.36928 -0.23383,-0.36928 -0.42358,0.16254 -0.42358,0.16254 v 0.62566 0.62567 l 0.16708,0.16708 0.16708,0.16708 0.49438,-0.26458 0.49438,-0.26459 z m -1.91418,-4.50679 0.59531,-0.87446 v -0.52006 -0.52007 l -0.41187,-0.58804 -0.41188,-0.58804 h -0.88236 -0.88235 l -0.16221,0.6463 -0.16221,0.6463 0.32223,0.74276 0.32223,0.74277 0.37089,0.59531 0.37089,0.59531 0.16801,-0.002 0.16801,-0.002 z m 6.8861,-4.46021 0.31121,-0.3112 -0.29346,-0.35359 -0.29346,-0.3536 0.46485,-1.47786 0.46484,-1.47786 -0.52368,-0.52368 -0.52368,-0.52368 -1.08786,0.29293 -1.08786,0.29293 -0.23673,0.42301 -0.23673,0.42301 -0.18452,-0.29856 -0.18452,-0.29856 h -0.94047 -0.94047 l 0.18334,1.25677 0.18334,1.25677 0.46016,0.79375 0.46016,0.79375 0.64331,-0.0918 0.64332,-0.0918 0.47879,-0.50937 0.4788,-0.50938 0.26684,0.16493 0.26685,0.16492 -0.12965,0.33787 -0.12965,0.33787 0.29682,0.29682 0.29682,0.29683 h 0.29105 0.29104 z m -7.09385,-1.2589 0.2739,-0.51177 -0.004,-0.61271 -0.004,-0.6127 -0.26556,-0.39688 -0.26556,-0.39687 -0.38337,0.502 -0.38337,0.502 0.13123,0.21233 0.13122,0.21232 -0.53657,0.28717 -0.53658,0.28717 v 0.36552 0.36551 l 0.33073,0.13346 0.33073,0.13345 0.45371,0.0209 0.45371,0.0209 z m 10.46434,-0.55301 0.16752,-0.27104 -0.17446,-0.7943 -0.17446,-0.79429 -0.5066,0.64404 -0.50661,0.64405 v 0.42129 0.42128 h 0.51355 0.51355 z m -16.27586,-2.32188 v -0.21167 l -0.3175,-0.3175 -0.3175,-0.3175 h -0.20236 -0.20235 l -0.28321,0.52917 -0.2832,0.52916 h 0.80306 0.80306 z m 67.858039,-1.46987 0.49044,-0.35861 -0.16166,-0.42127 -0.16165,-0.42127 -1.09867,-0.29584 -1.098668,-0.29584 -0.1323,0.13231 -0.1323,0.1323 0.719578,0.94342 0.71958,0.94342 h 0.18261 0.18261 z m 10.90041,-2.32449 0.36391,-0.30202 -0.16199,-0.51038 -0.16198,-0.51038 0.55289,-0.14458 0.55289,-0.14458 v -0.3131 -0.3131 l -0.3175,-0.3175 -0.3175,-0.3175 h -0.22543 -0.22543 l -0.27405,0.78612 -0.27404,0.78611 -0.83667,0.15646 -0.83668,0.15645 -0.73341,0.08 -0.73342,0.08 -0.51712,0.46798 -0.51711,0.46799 0.1637,0.26486 0.16369,0.26487 1.98567,-0.16786 1.98567,-0.16785 z m -5.36967,-1.19943 1.62059,-0.70754 0.24153,-0.20867 0.24152,-0.20867 -0.77069,-0.30264 -0.77069,-0.30263 -2.11667,-0.01 -2.11666,-0.01 -0.98292,0.19797 -0.98292,0.19796 -0.31822,0.38344 -0.31822,0.38343 0.55306,0.55307 0.55306,0.55306 1.01266,0.20509 1.01266,0.20508 0.76066,-0.11111 0.76065,-0.11111 z m -69.724639,-1.24249 0.36087,-0.75294 -0.40459,-0.40459 -0.40459,-0.40458 -0.87944,0.51362 -0.87945,0.51363 -0.0777,0.40349 -0.0777,0.40349 0.606,0.2951 0.60601,0.29509 0.39486,-0.0547 0.39486,-0.0547 z m 79.775289,-1.09268 0.15229,-0.39688 h -0.50524 -0.50525 l -0.14072,0.22768 -0.14071,0.22768 0.1692,0.1692 0.16919,0.16919 h 0.32447 0.32447 z m -8.02787,-0.53556 0.33468,-0.403268 -0.18942,-0.18941 -0.18941,-0.18942 -1.32874,-0.41612 -1.32875,-0.41612 -0.74655,0.10957 -0.74655,0.10957 -0.16234,0.64682 -0.16234,0.646818 0.156,0.25241 0.15601,0.25242 h 1.93636 1.93636 z M 87.302484,99.360302 v -0.29104 l -0.980767,-0.96573 -0.980766,-0.96573 -0.102005,0.48918 -0.102005,0.48918 0.735397,0.76759 0.735398,0.76759 h 0.347374 0.347374 z m 6.130729,-0.14684 0.483854,-0.43788 v -0.45985 -0.45985 l -0.330729,-0.12584 -0.330729,-0.12583 -0.538353,0.20022 -0.538352,0.20022 -0.351144,0.4231 -0.351144,0.42311 0.153588,0.40024 0.153589,0.40024 h 0.582783 0.582783 z m 11.464057,-0.88141 v -0.39325 l -0.49746,-0.0958 -0.49746,-0.0958 -0.22609,0.35676 -0.22609,0.35676 -0.004,0.21601 -0.004,0.21601 0.7276,-0.0837 0.72761,-0.0837 z m -13.758328,-1.34496 v -0.63579 l -0.428811,-0.0826 -0.428812,-0.0826 -0.135896,0.51966 -0.135896,0.51967 0.290202,0.2902 0.290203,0.29021 0.274505,-0.0915 0.274505,-0.0915 z m -3.374917,-0.66295 -0.136446,-1.21054 0.366619,-0.14069 0.366619,-0.14068 v -0.37687 -0.37687 l -0.400244,-0.15359 -0.400245,-0.15359 -0.41179,0.34176 -0.411791,0.34175 0.180827,1.34149 0.180827,1.34149 0.117656,0.19844 0.117657,0.19844 h 0.283378 0.283378 z m -41.853674,-2.3397 0.51318,-0.37525 -0.19842,-0.19842 -0.19842,-0.19842 -0.66106,0.35379 -0.66106,0.35379 v 0.21987 0.21988 h 0.3463 0.34631 z m 11.22963,-0.52619 v -0.31566 l -0.3175,-0.3175 -0.3175,-0.31749 h -0.47625 -0.47625 v -0.26459 -0.26458 h -0.26458 -0.26458 v 0.33343 0.33343 l 0.66367,0.71575 0.66368,0.71574 0.39466,-0.15144 0.39465,-0.15144 z m 28.905732,-0.72668 0.463021,-0.24259 v -0.28323 -0.28322 l -0.691585,-0.82191 -0.691585,-0.8219 0.337624,-0.11254 0.337624,-0.11254 0.508321,0.69781 0.50832,0.69781 h 0.242516 0.242515 v -0.45042 -0.45043 l -0.845653,-0.87249 -0.845652,-0.87249 h -0.344973 -0.344972 v 0.52917 0.52916 h -0.248968 -0.248969 l -0.163521,-0.26458 -0.163522,-0.26458 h -0.248968 -0.248969 v 1.56586 1.56586 l 0.165839,0.43216 0.165839,0.43217 0.826349,-0.17725 0.826348,-0.17725 z m 9.090539,-0.687 0.35149,-0.46302 0.008,-0.19843 0.008,-0.19844 -0.33073,0.004 -0.330732,0.004 -0.369284,0.23383 -0.369283,0.23383 0.162542,0.42358 0.162542,0.42358 h 0.177573 0.177573 z m 10.667858,-0.23411 0.54837,-0.69714 v -0.33915 -0.33914 l -0.33073,-0.11927 -0.33073,-0.11927 -0.7193,0.41395 -0.71931,0.41394 -0.15499,0.4039 -0.15499,0.4039 0.46185,0.33771 0.46184,0.33771 h 0.19481 0.19481 z m -5.58676,-0.54005 0.61174,-0.38404 -0.11033,-0.31387 -0.11032,-0.31386 -0.746498,0.0835 -0.7465,0.0835 -0.7471,0.38634 -0.74711,0.38635 v 0.40207 0.40207 l 0.99219,-0.17398 0.99219,-0.17398 z m -40.431529,-0.33531 v -0.51417 l -0.49121,-0.34573 -0.49121,-0.34573 -0.19953,-0.63138 -0.19952,-0.63137 -0.91404,-1.22071 -0.91404,-1.22071 -0.34337,-0.39687 -0.34337,-0.39688 -0.82355,-0.65323 -0.82354,-0.65324 -0.54574,-0.20188 -0.54574,-0.20189 -0.15095,0.39338 -0.15096,0.39338 0.17519,0.99091 0.17519,0.99091 0.14475,1.27197 0.14476,1.27197 1.69986,0.77855 1.69985,0.77855 h 0.22556 0.22556 l 0.31635,0.38117 0.31634,0.38117 0.70824,0.10835 0.70824,0.10836 0.19844,0.0396 0.19844,0.0396 z m 2.44334,-1.8292 -0.0338,-1.82412 -0.58302,-1.80466 -0.58303,-1.80467 0.32433,-2.92461 0.32433,-2.92462 0.35133,-1.45521 0.35134,-1.45521 0.0162,-1.8074 0.0161,-1.80741 0.2698,-0.83842 0.269798,-0.83843 0.529508,-2.24896 0.529507,-2.24896 0.863704,-0.73584 0.863705,-0.73585 0.151087,-2.04228 0.151088,-2.04228 -0.249631,-0.33073 -0.24963,-0.33073 -0.827499,9.9e-4 -0.827499,9.9e-4 -0.802319,0.48928 -0.802319,0.48927 -1.34372,1.30882 -1.34372,1.30882 -0.75061,1.17748 -0.75062,1.17748 -0.87284,1.71979 -0.87285,1.71979 -8.1e-4,0.34596 -8.2e-4,0.34596 -0.68913,1.24154 -0.68912,1.24154 -0.20637,0.26458 -0.20636,0.26459 -0.17083,0.80054 -0.17083,0.80054 -0.90625,1.713 -0.90625,1.713 -0.55559,1.18052 -0.55559,1.18052 0.14456,0.57594 0.14455,0.57594 0.87468,0.75708 0.87469,0.75708 0.77511,0.52917 0.77511,0.52917 1.59371,1.7074 1.5937,1.70739 1.21282,1.24055 1.21282,1.24055 0.35288,0.88851 0.35288,0.88851 0.26194,0.34195 0.26195,0.34194 0.27083,-0.27084 0.27084,-0.27084 z m 29.482034,1.92961 0.15877,-0.41374 -0.293693,-0.64459 -0.293693,-0.64458 h -0.402548 -0.402547 v 0.74083 0.74083 l 0.3175,0.3175 0.3175,0.3175 h 0.21997 0.219971 z m 3.551447,-1.81737 1.21327,-0.64413 1.23412,-1.2518 1.23412,-1.2518 v -1.49778 -1.49778 l -0.68369,-1.95687 -0.68369,-1.95687 -1.43298,-2.15363 -1.432975,-2.15363 v -0.25513 -0.25513 l -0.665657,-0.62536 -0.665658,-0.62535 -0.706626,-1.2067 -0.706626,-1.20671 -0.611345,-0.66146 -0.611345,-0.66146 -1.125225,-1.41386 -1.125226,-1.41387 -0.849966,-1.09968 -0.849966,-1.09967 -0.737534,-1.11482 -0.737534,-1.11482 -0.210427,-0.01 -0.210426,-0.01 0.170884,0.99219 0.170884,0.99219 0.558349,1.19062 0.55835,1.19063 0.213295,1.32291 0.213295,1.32292 0.356867,3.0599 0.356868,3.0599 0.278274,0.51996 0.278275,0.51996 0.279826,1.8441 0.279825,1.8441 0.520652,2.77812 0.520653,2.77813 0.260899,0.85883 0.260899,0.85883 0.589923,0.86096 0.589923,0.86096 0.802379,0.85856 0.80238,0.85857 0.544701,-0.39529 0.544702,-0.39528 z m -6.322964,0.57748 0.111382,-0.59532 -0.158613,-0.66145 -0.158612,-0.66146 h -0.384947 -0.384946 l -0.0842,0.87718 -0.0842,0.87718 0.315033,0.37959 0.315033,0.37959 h 0.201342 0.201342 z m 9.024634,-0.87114 0.47538,-0.65022 h -0.36311 -0.36311 l -0.5777,0.61494 -0.57771,0.61494 0.16058,0.16058 0.16058,0.16058 0.30486,-0.1253 0.30486,-0.12531 z m -46.647771,-0.90513 0.28238,-1.04866 -0.36348,-0.86957 -0.36349,-0.86957 -0.46649,-0.38688 -0.46649,-0.38689 -0.38885,0.51918 -0.38885,0.51918 0.17248,1.5783 0.17248,1.5783 0.12832,0.20764 0.12833,0.20763 h 0.63565 0.63564 z m 48.950529,0.65179 v -0.39688 h -0.364478 -0.36448 l -0.32938,0.39688 -0.32937,0.39687 h 0.69385 0.693858 z m -13.469101,-0.99219 0.307853,-0.59531 0.660571,-0.54386 0.66057,-0.54386 -0.0071,-0.64677 -0.0071,-0.64676 -0.568976,-4.10104 -0.568976,-4.10105 -0.49539,-1.98437 -0.495391,-1.98438 -0.258618,-1.5875 -0.258619,-1.5875 -0.436911,-1.71979 -0.436912,-1.71979 -0.432267,-1.5875 -0.432266,-1.5875 -0.47963,-0.92212 -0.479629,-0.92213 v -0.1906 -0.19061 l -0.681023,-1.00393 -0.681022,-1.00394 -0.393381,-0.22058 -0.393382,-0.22058 -0.414685,0.15913 -0.414685,0.15913 0.132097,1.17196 0.132097,1.17196 -0.491202,0.80772 -0.491203,0.80772 0.591423,0.006 0.591424,0.006 0.396875,0.82985 0.396875,0.82986 0.9251,0.2889 0.925101,0.28889 0.168928,1.45521 0.168928,1.45521 0.151022,9.11832 0.151021,9.11832 0.907575,0.80355 0.907576,0.80356 0.154175,0.46302 0.154174,0.46302 h 0.263579 0.263578 z m 13.204511,-0.75591 v -0.50086 h -0.232178 -0.23219 l -0.31976,0.38528 -0.31976,0.38529 0.16355,0.26462 0.16354,0.26461 0.3884,-0.14904 0.388398,-0.14904 z m -4.437578,-13.17428 -0.11259,-0.76718 -0.895952,-0.86838 -0.895949,-0.86839 -0.181396,0.18139 -0.181396,0.1814 0.574308,0.61132 0.574307,0.61132 v 0.31727 0.31727 l 0.328228,0.52557 0.32823,0.52558 h 0.2874 0.28741 z"
       id="path8" /></g></svg>
