<?xml version="1.0" encoding="UTF-8" standalone="no"?>
<!-- Created with Inkscape (http://www.inkscape.org/) -->

<svg
   width="101.59999mm"
   height="84.666672mm"
   viewBox="0 0 101.59999 84.666672"
   version="1.1"
   id="svg1"
   xml:space="preserve"
   xmlns="http://www.w3.org/2000/svg"
   xmlns:svg="http://www.w3.org/2000/svg"><defs
     id="defs1" /><g
     id="layer1"
     transform="translate(-23.537903,-158.35449)"><path
       style="fill:#ffffff;fill-opacity:1"
       d="m 23.537902,200.68781 v -42.33333 h 50.8 50.799998 v 42.33333 42.33334 h -50.799998 -50.8 z m 10.2526,41.35721 -0.46302,-0.121 v -0.23488 -0.23487 l 0.57906,-0.53948 0.57906,-0.53947 h 0.20548 0.20549 l 0.92737,-0.81424 0.92736,-0.81424 0.27247,0.1684 0.27246,0.16839 v 0.51596 0.51596 l -0.75302,0.78797 -0.75303,0.78797 -0.1559,-0.15591 -0.15591,-0.1559 -0.60515,0.42386 -0.60515,0.42386 H 79.306114 124.34415 V 200.68781 159.14823 H 74.337902 24.331652 v 22.75028 22.75027 l 0.8412,-0.51156 0.84121,-0.51157 0.22692,0.14025 0.22692,0.14024 -1.06813,0.77375 -1.06812,0.77374 v 4.76085 4.76084 h 0.79375 0.79375 l 0.0313,-0.8599 0.0313,-0.8599 0.18184,0.79375 0.18184,0.79375 0.24988,-0.0417 0.24987,-0.0417 0.39688,-0.0558 0.39687,-0.0558 0.66146,0.0398 0.66146,0.0398 -0.46762,0.35485 -0.46761,0.35484 0.15522,0.40452 0.15523,0.40452 0.70927,-0.0865 0.70926,-0.0865 1.24595,-0.14561 1.24596,-0.1456 -0.12715,0.32418 -0.12715,0.32419 -1.64797,0.0581 -1.64797,0.0581 -1.05834,-0.29681 -1.05833,-0.2968 -1.12448,-0.18236 -1.12448,-0.18236 v 13.31951 13.31951 l 4.96094,-0.0307 4.96094,-0.0307 z m 55.220476,-1.38684 0.152222,-0.2463 -0.269615,-0.16663 -0.269614,-0.16663 0.252915,-0.47258 0.252915,-0.47257 -0.305116,-0.30512 -0.305116,-0.30512 0.185208,-0.0331 0.185208,-0.0331 0.198438,-0.0371 0.198437,-0.0371 0.312673,-0.19884 0.312673,-0.19884 -0.396516,0.79483 -0.396517,0.79484 0.168272,0.27227 0.168271,0.27227 0.312447,-0.18209 0.312447,-0.18209 -0.504028,0.57465 -0.504028,0.57464 h -0.106899 -0.1069 z m -3.732748,-0.73222 -0.833629,-0.41552 -0.27315,-0.5995 -0.273149,-0.59949 0.12888,-0.12888 0.128881,-0.12889 1.11019,0.5446 1.110191,0.54459 0.396875,0.18156 0.396875,0.18156 0.08555,0.43467 0.08555,0.43466 -0.614713,-0.0169 -0.614713,-0.0169 z m 4.934672,-0.46594 v -0.16278 l 1.256771,-1.22558 1.25677,-1.22559 -0.08819,-0.2859 -0.08819,-0.28589 0.199014,0.19901 0.199015,0.19902 0.538468,-0.4636 0.538468,-0.4636 -0.793084,0.98618 -0.793083,0.98618 -1.112976,0.95267 -1.112975,0.95266 z m -32.78635,-0.63112 -0.27545,-0.51468 0.32517,-0.25566 0.32517,-0.25565 1.02501,-0.15769 1.024999,-0.1577 0.541831,-0.47433 0.541831,-0.47433 -0.223252,0.39687 -0.223253,0.39688 0.519076,-0.45374 0.519075,-0.45373 0.05658,0.74254 0.05658,0.74255 -0.464029,0.40326 -0.464029,0.40326 -0.79375,0.19551 -0.79375,0.19551 -0.711179,0.1179 -0.71118,0.11791 z m 45.376108,-1.29785 -0.19844,-0.19844 -0.17639,-0.006 -0.17639,-0.006 -1.65364,-0.78772 -1.653648,-0.78771 v -0.47175 -0.47175 l 0.378722,-0.14533 0.378723,-0.14533 0.761793,0.56322 0.76179,0.56321 0.69591,0.0742 0.69592,0.0742 0.41253,0.34236 0.41253,0.34237 v 0.36448 0.36448 h -0.30868 -0.30868 l 0.13969,0.13969 0.1397,0.1397 0.7643,-0.27353 0.76429,-0.27353 -0.51359,0.39842 -0.51359,0.39841 h -0.3022 -0.30221 z m -58.242448,-0.43913 -0.51008,-0.37297 0.47247,-0.52207 0.47246,-0.52206 1.17767,-0.44976 1.17767,-0.44976 v -0.25831 -0.25832 l 0.26458,0.16352 0.26459,0.16352 v -0.29909 -0.2991 l 0.37888,0.37888 0.37887,0.37888 -0.0941,0.49991 -0.094,0.49992 -0.0516,0.13229 -0.0516,0.13229 0.0534,0.26459 0.0534,0.26458 -0.19901,-0.19901 -0.19902,-0.19902 -0.41834,0.35999 -0.41835,0.35998 -0.89938,0.30205 -0.89938,0.30205 h -0.17453 -0.17453 z m -12.09382,-3.76123 -0.69007,-0.36157 -0.18288,-0.57622 -0.18289,-0.57622 0.46828,-0.34242 0.46828,-0.34241 0.203,0.12546 0.20301,0.12547 0.0888,-0.25858 0.0887,-0.25858 0.66146,-0.12028 0.66146,-0.12029 0.34634,-0.0197 0.34634,-0.0197 -0.14759,-0.23881 -0.14759,-0.23881 0.82383,-0.28718 0.82383,-0.28719 0.23419,0.14474 0.23419,0.14473 v 0.85853 0.85852 l -0.8599,0.82155 -0.85989,0.82156 -0.94541,0.25444 -0.94542,0.25444 z m 40.416302,-0.97389 -1.5875,-0.22117 -0.24766,-0.24209 -0.24766,-0.24209 2.893493,0.008 2.893493,0.008 1.322917,-0.26172 1.322917,-0.26173 1.455208,-0.51616 1.455208,-0.51615 0.529167,-0.18161 0.529167,-0.18161 -0.596725,0.52872 -0.596725,0.52873 -1.844684,0.70489 -1.844684,0.70489 -1.924216,0.18153 -1.924216,0.18152 z m 40.613546,0.16192 -0.66146,-0.11161 -0.83111,-0.38028 -0.83111,-0.38027 -0.16975,-0.44237 -0.16975,-0.44236 0.23914,-0.23914 0.23914,-0.23914 1.02238,0.54797 1.02239,0.54796 h 0.73982 0.73983 l 0.16254,0.42358 0.16254,0.42358 -0.36928,0.23383 -0.36928,0.23383 -0.13229,-0.032 -0.1323,-0.032 z m -67.742788,-5.32378 -0.40632,-0.46457 v -0.5558 -0.5558 l 0.3481,0.13358 0.3481,0.13358 0.52124,-0.601 0.52125,-0.601 v 0.20517 0.20518 l 0.38528,-0.31976 0.38529,-0.31976 0.24507,0.15146 0.24508,0.15147 0.74604,-0.58684 0.74604,-0.58683 -0.18286,0.29587 -0.18287,0.29588 0.39397,0.32696 0.39396,0.32696 v 0.2471 0.2471 l -0.82501,0.75353 -0.82501,0.75353 0.15191,0.24579 0.15191,0.2458 -0.31909,0.0483 -0.31909,0.0482 -1.05833,0.12023 -1.05833,0.12023 z m 44.988616,-0.45678 v -0.20001 l 0.90186,-0.87588 0.901859,-0.87587 0.14817,0.38612 0.14817,0.38613 h 0.458096 0.458095 l -0.251354,0.22847 -0.251354,0.22847 -0.79375,0.27364 -0.79375,0.27363 -0.463021,0.18766 -0.463021,0.18766 z m -20.662063,-1.17297 -1.744355,-0.48253 -1.166061,-0.5903 -1.166062,-0.59031 -0.691324,-0.4868 -0.691324,-0.4868 -0.210991,0.19062 -0.210991,0.19062 0.184977,-0.32208 0.184978,-0.32207 -0.539433,-0.33688 -0.539433,-0.33688 v -0.29258 -0.29258 l -0.4136,-0.82909 -0.4136,-0.82908 0.118795,-0.75376 0.118795,-0.75377 0.419132,-0.81051 0.419132,-0.81051 1.000152,-0.78697 1.000152,-0.78696 0.574176,-0.17874 0.574176,-0.17874 0.484157,-0.11354 0.484157,-0.11355 1.058334,-0.27715 1.058333,-0.27714 1.190625,-0.18605 1.190625,-0.18604 0.926042,0.0111 0.926041,0.0111 1.569802,0.1984 1.569802,0.1984 1.142178,0.63767 1.142177,0.63767 v -0.15845 -0.15845 l 0.992187,0.74548 0.992188,0.74549 0.595674,0.67498 0.595675,0.67498 0.437525,0.92016 0.437526,0.92016 -0.04017,1.02507 -0.04017,1.02507 -0.795384,1.00425 -0.795385,1.00426 -1.297079,0.83233 -1.297079,0.83234 -1.678695,0.34672 -1.678695,0.34672 -2.116667,0.0186 -2.116667,0.0186 z m 10.164629,-5.20772 0.174094,-0.17409 -0.297393,-0.35834 -0.297392,-0.35833 -0.358857,0.29782 -0.358858,0.29783 0.144994,0.2346 0.144993,0.23461 h 0.337163 0.337163 z m 12.033907,4.15333 -0.860958,-0.40736 0.02972,-0.59531 0.02972,-0.59531 0.0294,-0.12056 0.0294,-0.12055 1.075439,0.37943 1.075438,0.37944 0.181333,-0.0256 0.181332,-0.0256 0.529167,0.0397 0.529166,0.0396 0.508225,0.69669 0.508224,0.6967 -0.321377,-0.19862 -0.321377,-0.19862 -0.35417,0.29393 -0.35417,0.29394 -0.816774,-0.0622 -0.816774,-0.0622 z m 5.000172,-1.06394 0.126862,-0.48512 0.476579,-0.12463 0.476578,-0.12463 -0.05999,0.40872 -0.05999,0.40871 -0.543455,0.20103 -0.543454,0.20104 z m -50.457481,-4.76738 0.39688,-0.25648 0.46302,-0.004 0.46302,-0.004 v -0.57017 -0.57018 l 0.52365,0.4739 0.52365,0.4739 0.15827,-0.41243 0.15826,-0.41244 0.44257,-0.15472 0.44256,-0.15472 -0.83858,0.77294 -0.83857,0.77295 0.15507,0.15507 0.15506,0.15507 h -0.30868 -0.30868 v -0.25794 -0.25803 l -0.67868,0.25803 -0.67868,0.25804 -0.31351,-0.004 -0.3135,-0.004 z m 12.679889,-2.31704 -0.641339,-0.72567 v -1.3414 -1.34141 l -1.05834,0.19901 -1.05833,0.19901 -1.19063,-0.40159 -1.19062,-0.40159 -1.32292,-0.0879 -1.32291,-0.0879 -0.39688,-0.14645 -0.39687,-0.14645 -0.74244,-0.12511 -0.74244,-0.12511 -0.51433,0.51434 -0.51434,0.51433 v 0.38126 0.38126 l -0.24406,0.15084 -0.24407,0.15085 0.26661,-0.96558 0.26661,-0.96558 -0.35327,-0.22393 -0.35327,-0.22393 0.6952,-0.004 0.69521,-0.004 0.31976,-0.38529 0.31976,-0.38528 -0.17069,-0.27617 -0.17068,-0.27618 h 0.79621 0.79622 l 0.29771,-0.46302 0.29771,-0.46302 -0.15833,0.50045 -0.15832,0.50044 0.33678,-0.27835 0.33679,-0.27836 1.71979,-0.43175 1.71979,-0.43175 0.36675,-0.12659 0.36674,-0.12658 -0.4739,-0.52365 -0.47389,-0.52365 h -0.32347 -0.32348 l -0.33351,-0.40187 -0.33352,-0.40186 0.49956,0.21685 0.49956,0.21685 1.36017,0.66443 1.36017,0.66442 0.93091,-0.10868 0.930909,-0.10868 0.138969,-0.53142 0.13897,-0.53141 -0.231178,-0.60805 -0.231178,-0.60804 -1.537412,-0.57333 -1.53742,-0.57333 -0.54368,-0.50765 -0.54369,-0.50764 -2.03994,-0.52173 -2.03995,-0.52173 -0.45908,0.1619 -0.45907,0.1619 -0.59778,0.53817 -0.59777,0.53817 0.15961,0.50288 0.15961,0.50289 -1.41392,-0.16906 -1.41392,-0.16907 -1.04813,0.5438 -1.04813,0.54379 h -0.40896 -0.40895 l -1.4347,1.17688 -1.43469,1.17687 -0.21894,-0.13531 -0.21895,-0.13531 -0.15163,0.39515 -0.15164,0.39516 -0.81425,0.28385 -0.81424,0.28385 0.47348,-0.52319 0.47348,-0.52319 0.42812,-0.14352 0.42813,-0.14352 0.45267,-0.91235 0.45268,-0.91235 -0.18969,-0.11723 -0.18968,-0.11723 -0.65987,0.58928 -0.65986,0.58927 -0.61452,0.68071 -0.61452,0.68072 -0.0536,0.35937 -0.0536,0.35938 -0.81398,1.19063 -0.81398,1.19062 -0.15064,0.39688 -0.15065,0.39687 -0.0209,-0.42237 -0.0209,-0.42237 0.45363,-0.90055 0.45363,-0.90054 0.0523,-0.33199 0.0523,-0.33199 -0.24567,0.15183 -0.24568,0.15184 0.17903,0.31244 0.17903,0.31245 -0.22252,-0.20214 -0.22251,-0.20214 -0.68925,0.66034 -0.68925,0.66035 v -0.52435 -0.52435 h 0.37524 0.37524 l 1.61858,-1.75802 1.61859,-1.75802 0.0933,-0.24167 0.0933,-0.24166 -0.49017,-0.55134 -0.49017,-0.55134 0.60828,0.36822 0.60829,0.3682 1.20572,-1.27107 1.20571,-1.27107 -0.4498,-0.49703 -0.4498,-0.49702 -0.33787,0.12966 -0.33787,0.12965 -0.15813,-0.41208 -0.15813,-0.41208 h -0.55061 -0.55061 l -0.80974,0.41873 -0.80973,0.41873 0.2122,-0.35259 0.21221,-0.35258 -0.40587,0.32844 -0.40586,0.32843 -0.19614,-0.19614 -0.19614,-0.19615 0.0882,0.39688 0.0882,0.39687 0.60877,0.8599 0.60878,0.8599 h -0.39282 -0.39281 l -1.67117,1.31369 -1.67117,1.31369 -0.46302,0.45239 -0.46302,0.4524 v 0.59955 0.59955 l -0.27347,0.16901 -0.27346,0.16901 0.80263,0.91414 0.80263,0.91415 v 0.16409 0.16409 l -0.48385,-0.43788 -0.48386,-0.43788 h -0.3031 -0.3031 l -0.41046,0.79375 -0.41047,0.79375 h -0.28609 -0.2861 l 0.14149,0.36871 0.14148,0.36871 -0.59325,0.55733 -0.59325,0.55733 h -0.18471 -0.1847 l 0.67706,-1.07254 0.67707,-1.07253 0.0731,-0.92784 0.0731,-0.92784 -0.69218,-0.13844 -0.69218,-0.13843 -0.0374,-0.49697 -0.0374,-0.49696 0.73245,0.14649 0.73245,0.14649 0.0339,-0.35499 0.0339,-0.35498 0.31451,-1.41261 0.31451,-1.4126 0.33321,-0.12787 0.33321,-0.12786 -0.20279,-0.70849 -0.20279,-0.70849 0.68976,-0.66313 0.68977,-0.66313 0.62698,0.0904 0.62699,0.0904 -0.97105,0.99444 -0.97104,0.99444 -0.0416,0.55218 -0.0416,0.55217 -0.20966,-0.12957 -0.20966,-0.12958 v 0.2802 0.2802 h 0.26458 0.26459 v 0.54187 0.54188 l 1.12448,-0.7812 1.12448,-0.7812 0.90716,-0.94652 0.90716,-0.94652 -0.35656,-0.66624 -0.35656,-0.66624 h -0.36147 -0.36148 l 0.2832,-0.52917 0.28321,-0.52917 h -0.58379 -0.58379 l -0.48386,0.43789 -0.48385,0.43788 v -0.27556 -0.27556 l -0.83902,-0.12315 -0.83903,-0.12314 -0.66336,0.34416 -0.66336,0.34415 -0.22899,-0.14153 -0.229,-0.14153 -0.38192,0.31697 -0.38191,0.31696 -0.36801,-0.14122 -0.368,-0.14121 -0.29683,0.29682 -0.29682,0.29682 v -0.29571 -0.29562 l 1.18272,-0.45168 1.18272,-0.45169 0.53681,0.14038 0.53681,0.14038 0.14817,-0.23975 0.14817,-0.23974 h 0.50053 0.50052 l 1.3205,-0.28319 1.32049,-0.2832 -0.15983,-0.41652 -0.15984,-0.41653 0.44978,-0.32888 0.44977,-0.32888 -0.076,-0.35078 -0.0761,-0.35078 0.57903,-0.26385 0.57902,-0.26385 0.12058,-0.46108 0.12057,-0.46108 2.66843,-1.74837 2.66843,-1.74838 -0.0259,-0.18221 -0.0259,-0.18221 0.0644,-0.19844 0.0644,-0.19844 0.0559,-0.19843 0.0559,-0.19844 0.20389,-0.46302 0.2039,-0.46302 h 0.38418 0.38418 l -0.0833,-0.19844 -0.0833,-0.19844 1.15992,-1.1705 1.15993,-1.1705 -0.28408,0.5308 -0.28408,0.53081 -0.41132,0.34136 -0.41132,0.34137 v 0.28128 0.28128 l -0.58909,0.62705 -0.58909,0.62706 0.41788,-0.16036 0.41788,-0.16035 1.22955,-1.42418 1.22954,-1.42417 v -0.24124 -0.24123 l 0.50279,-0.45502 0.50279,-0.45502 0.13389,-0.51203 0.1339,-0.51203 h -0.24811 -0.24812 l -0.14445,0.37642 -0.14444,0.37641 -0.42773,0.16414 -0.42773,0.16413 0.44819,-0.49524 0.44818,-0.49524 v -0.18286 -0.18286 l 0.67567,-1.07033 0.67567,-1.07033 0.55643,-0.97493 0.55643,-0.97494 0.29065,-0.52916 0.29065,-0.52917 0.25705,-0.39688 0.25706,-0.39687 0.86158,-2.11667 0.86158,-2.11666 0.004,-0.43063 0.004,-0.43062 0.35388,-0.2937 0.35388,-0.29369 0.0349,-0.92933 0.0349,-0.92933 h -0.21705 -0.21705 l 0.28985,-0.92604 0.28984,-0.92604 h 0.1933 0.19329 l -0.25803,0.67868 -0.25804,0.67869 0.006,0.18121 0.006,0.18121 0.50686,-0.65973 0.50687,-0.65973 0.17702,0.46129 0.17701,0.4613 -0.16402,0.33073 -0.16402,0.33073 -0.65804,1.16609 -0.65803,1.16609 v 0.60262 0.60262 l -0.29579,0.74483 -0.29579,0.74483 -0.2051,0.85803 -0.20509,0.85803 0.2363,-0.14604 0.2363,-0.14604 v 0.21878 0.21878 l -0.68869,1.0135 -0.68869,1.0135 -0.0583,0.30469 -0.0583,0.30469 -0.44365,1.0245 -0.44366,1.02449 v 0.1453 0.14529 l 0.46302,0.52133 0.46302,0.52134 -0.54614,-0.335 -0.54614,-0.335 -0.77678,0.73767 -0.77677,0.73767 0.32993,-0.19069 0.32993,-0.19069 -0.25724,0.67658 -0.25723,0.67658 h 0.52262 0.52261 v -0.26448 -0.26459 h 0.29698 0.29698 l -0.3472,0.41836 -0.34721,0.41836 0.35732,0.57383 0.35731,0.57383 -0.42329,-0.34977 -0.42329,-0.34978 -0.53356,1.01123 -0.53357,1.01123 -0.0199,-0.52916 -0.0199,-0.52917 -0.60971,0.99158 -0.60971,0.99158 -0.16318,-0.16318 -0.16318,-0.16318 0.38427,-0.38428 0.38428,-0.38427 v -0.29863 -0.29862 l -1.14329,1.57429 -1.14328,1.57429 -0.4568,0.70037 -0.4568,0.70036 -0.12872,0.70989 -0.12873,0.70988 0.2736,-0.16909 0.2736,-0.16909 v 0.28019 0.2802 h -0.62045 -0.62045 l -0.39346,0.46302 -0.39347,0.46302 -0.71251,1.39689 -0.71251,1.39688 1.39184,-0.7053 1.39185,-0.7053 -0.33565,0.40443 -0.33565,0.40443 -0.75979,0.31471 -0.75978,0.31472 -0.14882,0.56908 -0.14882,0.56909 0.22929,0.22928 0.22928,0.22929 0.55964,-0.17763 0.55964,-0.17762 -0.13743,-0.22238 -0.13744,-0.22238 0.67072,0.0736 0.67072,0.0736 1.6033,-0.75824 1.6033,-0.75824 h 0.14093 0.14093 l -0.32938,0.39687 -0.32937,0.39688 h 0.28767 0.28767 l 0.30029,-0.5611 0.30029,-0.56109 -0.29098,0.17983 -0.29098,0.17984 v -0.66146 -0.66146 l -0.26459,-0.16352 -0.26458,-0.16352 v -0.40016 -0.40016 l 0.41577,0.41578 0.41578,0.41577 h 0.1417 0.1417 l -0.14228,-0.37077 -0.14228,-0.37078 0.42441,0.0623 0.42441,0.0623 0.0431,0.58427 0.043,0.58427 -0.19621,0.12127 -0.19622,0.12127 0.30575,0.65972 0.30576,0.65973 0.88434,-0.0885 0.88435,-0.0885 0.22267,-0.36029 0.22268,-0.36029 -0.13839,-0.22392 -0.13839,-0.22392 -0.43947,0.33486 -0.43946,0.33485 0.19614,-0.23152 0.19614,-0.23151 -0.32843,-0.40587 -0.32843,-0.40586 0.31446,0.18865 0.31447,0.18864 0.2728,-0.46858 0.2728,-0.46859 0.008,0.60362 0.008,0.60361 0.38017,0.14589 0.38017,0.14588 -0.15414,0.40168 -0.15414,0.40169 0.33809,0.20895 0.3381,0.20896 -0.56412,0.17904 -0.56413,0.17905 v 0.51134 0.51133 h 1.43959 1.4396 l 0.14166,-0.22922 0.14167,-0.22922 -0.47825,-0.43281 -0.47825,-0.43282 -0.19095,0.19095 -0.19095,0.19095 0.16457,-0.42888 0.16458,-0.42888 0.54581,-0.14274 0.54581,-0.14273 -0.14256,-0.54516 -0.14256,-0.54517 0.20573,0.12715 0.20574,0.12716 0.15052,0.75259 0.15051,0.7526 1.03884,0.31124 1.03883,0.31124 h 0.25756 0.25756 l 0.30705,-0.6739 0.30706,-0.67391 v -0.52986 -0.52985 l -0.40367,-0.78062 -0.40367,-0.78061 h -0.39008 -0.39008 V 196.19 195.92541 h 0.35586 0.35587 l 0.47325,0.52293 0.47324,0.52293 0.29537,-0.17684 0.29537,-0.17684 -0.28872,0.38151 -0.28871,0.38152 0.17915,0.66146 0.17916,0.66146 -0.23197,0.64094 -0.23197,0.64094 0.13479,0.35124 0.13478,0.35125 h 0.619195 0.619193 l 0.464994,-0.34001 0.464995,-0.34001 0.147675,-1.101 0.147675,-1.101 -0.892829,-0.38949 -0.892829,-0.38949 0.877725,-0.0216 0.877726,-0.0216 -0.18299,-0.59531 -0.18299,-0.59531 0.204572,0.19375 0.204571,0.19375 0.299132,0.6 0.299131,0.6 h 0.653645 0.653644 l -0.09391,-2.77813 -0.09391,-2.77812 -0.369113,-0.71447 -0.369112,-0.71446 v -2.218 -2.218 l 0.187659,-0.18766 0.18766,-0.18766 -0.07389,-1.02341 -0.07389,-1.0234 0.44792,-1.28043 0.44792,-1.28043 0.04146,-0.52917 0.04146,-0.52916 0.231485,-0.37161 0.231484,-0.37161 -0.266403,0.16465 -0.266403,0.16464 0.05985,-1.68252 0.05985,-1.68252 0.183955,-0.29764 0.183956,-0.29765 0.312447,0.17542 0.312447,0.17543 -0.330729,-0.35632 -0.330729,-0.35631 v -0.60319 -0.60319 l 0.437918,-1.12983 0.437918,-1.12984 0.372006,-0.43558 0.372006,-0.43558 -0.346903,-0.12666 -0.346904,-0.12665 0.328051,-0.3479 0.328051,-0.34789 0.342718,-0.0503 0.342717,-0.0503 -0.104089,0.8916 -0.10409,0.89161 0.452212,0.17353 0.452211,0.17353 0.190767,-0.30867 0.190767,-0.30867 0.569462,0.0869 0.569462,0.0869 0.184135,0.18414 0.184135,0.18413 0.550287,-0.35841 0.550287,-0.35842 0.451462,0.0678 0.451462,0.0678 0.308539,-0.37177 0.308539,-0.37176 h -0.268672 -0.268673 l -0.15992,-0.41675 -0.15992,-0.41674 0.859217,0.0722 0.859216,0.0722 0.31702,0.23323 0.31702,0.23323 -0.12571,-0.69325 -0.125709,-0.69325 0.734731,0.45725 0.734732,0.45725 0.463021,0.38828 0.46302,0.38828 v 0.20305 0.20306 l -0.88793,0.29304 -0.887931,0.29305 -0.716793,-0.27253 -0.716794,-0.27252 h -0.104761 -0.10476 l -0.509945,0.54736 -0.509946,0.54736 0.137536,0.52594 0.137535,0.52593 0.368225,-0.1413 0.368226,-0.1413 -0.271422,0.50716 -0.271421,0.50715 0.30618,0.18923 0.306179,0.18923 -0.182823,-0.29581 -0.182822,-0.29582 0.556521,-0.55652 0.556521,-0.55652 -0.268799,-0.32388 -0.268799,-0.32388 0.578489,-0.0436 0.578488,-0.0436 -0.32881,0.20321 -0.32881,0.20322 0.993604,-0.0166 0.993604,-0.0166 0.337285,-0.21803 0.337284,-0.21803 -0.03789,0.2181 -0.03789,0.21811 0.03133,0.34634 0.03133,0.34635 0.2689,-0.16619 0.268899,-0.16619 -0.140924,-0.22802 -0.140923,-0.22802 0.335045,-0.19299 0.335045,-0.193 -0.196142,0.21652 -0.196142,0.21651 0.328434,0.40586 0.328433,0.40586 -0.371609,-0.22396 -0.37161,-0.22396 0.196728,0.31831 0.196727,0.31831 0.328765,-0.27285 0.328766,-0.27285 -0.05031,0.45844 -0.05031,0.45844 -0.29546,0.72761 -0.29546,0.7276 h -0.154456 -0.154455 l 0.185178,-0.33073 0.185177,-0.33073 -0.497843,0.47003 -0.497843,0.47002 -0.02796,1.64664 -0.02796,1.64665 0.115216,0.21128 0.115217,0.21129 0.349764,-0.29028 0.349765,-0.29028 0.196727,0.31831 0.196727,0.31831 -0.305463,-0.18878 -0.305464,-0.18879 v 0.13068 0.13068 l 0.247625,0.65131 0.247626,0.6513 -0.349255,0.47764 -0.349254,0.47763 -1.022758,0.0128 -1.022758,0.0128 -9.2e-5,0.37165 -9.2e-5,0.37165 -0.464281,0.0681 -0.464281,0.0681 0.151834,-0.24567 0.151834,-0.24567 0.312447,0.17542 0.312447,0.17542 -0.324478,-0.35006 -0.324477,-0.35006 -0.597005,0.50968 -0.597004,0.50969 0.358566,-0.46302 0.358566,-0.46302 h -0.398842 -0.398842 l -0.454749,-0.69404 -0.454749,-0.69403 0.292028,0.18048 0.292027,0.18048 v -0.4281 -0.42811 l -0.219462,0.13564 -0.219462,0.13563 0.03355,-0.4554 0.03355,-0.4554 0.16245,-0.26285 0.16245,-0.26285 -0.307267,-0.40074 -0.307267,-0.40074 -0.264583,0.0108 -0.264584,0.0108 -0.264583,0.15815 -0.264583,0.15815 -0.634061,-0.0547 -0.63406,-0.0547 0.501769,0.37419 0.501768,0.37419 -0.0571,0.21877 -0.0571,0.21877 0.586267,-0.14612 0.586268,-0.14612 -0.661459,0.59029 -0.661458,0.59029 0.295369,-0.14621 0.295368,-0.14621 0.498382,0.56841 0.498381,0.5684 -0.330729,-0.19338 -0.330729,-0.19339 v 0.58579 0.58579 l 0.529166,-0.47889 0.529167,-0.47889 v 0.30559 0.30559 h -0.233725 -0.233724 l -0.138311,0.5289 -0.138312,0.52891 0.24406,0.15083 0.24406,0.15084 -0.175423,0.31245 -0.175423,0.31245 0.367333,-0.34175 0.367333,-0.34175 -0.350701,-0.21674 -0.350702,-0.21675 0.391393,-0.15019 0.391393,-0.15019 -0.05313,0.76743 -0.05313,0.76743 -0.177393,0.17739 -0.177392,0.1774 -0.379714,-0.31514 -0.379714,-0.31513 -0.174129,0.28175 -0.174129,0.28174 -0.213532,-0.13197 -0.213532,-0.13197 0.06755,0.79386 0.06755,0.79386 -0.43105,0.25179 -0.431051,0.25179 0.132292,0.0298 0.132292,0.0298 0.727604,0.11959 0.727604,0.11959 v -0.27364 -0.27363 h 0.396875 0.396875 v -0.26462 -0.26458 h -0.309896 -0.309895 l -0.428058,0.38739 -0.428059,0.38738 0.01848,-0.77034 0.01848,-0.77034 0.182012,-0.18201 0.182012,-0.18201 -0.108802,0.56496 -0.108803,0.56497 h 0.249392 0.249391 v -0.39687 -0.39688 h 0.396875 0.396875 l -0.06615,0.23813 -0.06615,0.23812 0.198438,0.0265 0.198437,0.0265 h 0.164689 0.164688 l -0.363126,-0.46302 -0.363126,-0.46302 0.439466,0.34358 0.439466,0.34357 0.171461,-0.27743 0.171462,-0.27743 -0.214052,-0.0313 -0.214053,-0.0313 -0.230896,0.0421 -0.230897,0.0421 0.164751,-0.42933 0.164751,-0.42934 v -0.11065 -0.11066 h 0.372105 0.372104 l -0.15005,0.5738 -0.150051,0.57379 0.430931,-0.16536 0.430931,-0.16537 0.16432,0.26588 0.16432,0.26588 0.439466,-0.34358 0.439465,-0.34358 -0.343576,0.43947 -0.343577,0.43946 0.279299,0.17262 0.2793,0.17262 0.163114,-0.42507 0.163113,-0.42507 0.524254,0.47445 0.524254,0.47444 0.104514,-0.0661 0.104514,-0.0662 v 0.13229 0.13229 l -0.0041,0.33073 -0.0041,0.33073 -0.238773,-0.37728 -0.238773,-0.37729 -0.523394,-0.0799 -0.523393,-0.0799 -0.333819,0.40223 -0.333818,0.40223 0.276502,0.2765 0.276503,0.2765 2.609471,0.0879 2.609472,0.0879 2.116666,0.0253 2.116667,0.0253 0.350869,0.22245 0.350869,0.22245 0.0018,1.55944 0.0018,1.55943 -0.105955,4.63021 -0.105955,4.63021 0.249397,0.52917 0.249398,0.52916 0.55828,0.61241 0.55828,0.6124 -0.723635,-0.27513 -0.723635,-0.27512 -0.01403,0.45647 -0.01403,0.45647 -0.129173,5.68855 -0.129173,5.68854 -0.113073,0.33073 -0.113074,0.33073 -2.323408,-0.007 -2.323408,-0.007 -1.072657,-0.24781 -1.072658,-0.2478 -2.102342,-0.11544 -2.102343,-0.11544 -2.38125,0.38748 -2.38125,0.38747 -1.553026,0.0127 -1.553026,0.0127 -0.22886,-0.36124 -0.228859,-0.36124 -0.0077,-0.79375 -0.0077,-0.79375 -0.165068,-0.61646 -0.165067,-0.61646 -0.885892,1.01333 -0.885891,1.01334 0.125499,0.34447 0.1255,0.34447 -0.230454,-0.14243 -0.230455,-0.14243 -0.656742,0.5166 -0.656743,0.51659 -0.328275,0.79253 -0.328276,0.79252 0.587225,0.95015 0.587225,0.95015 -0.11644,0.11644 -0.11644,0.11644 z m -0.773639,-4.05561 0.396879,-0.10964 0.286765,-0.39687 0.286765,-0.39688 0.157936,-0.43692 0.157936,-0.43692 -0.351864,0.0516 -0.351863,0.0516 -0.357424,0.28711 -0.35742,0.28712 -1.08592,0.54689 -1.08593,0.54689 -1.27123,-0.38258 -1.27123,-0.38258 -0.55326,0.002 -0.55326,0.002 0.71623,0.37365 0.71623,0.37366 0.4744,0.1308 0.47439,0.1308 1.5875,-0.0657 1.5875,-0.0657 z m -0.68035,-1.45145 0.41577,-0.41578 v -0.35695 -0.35696 l -0.7995,-0.1756 -0.7995,-0.17559 -1.11873,0.18449 -1.11873,0.18449 -0.38152,0.30081 -0.38151,0.30082 0.19682,-0.3277 0.19682,-0.3277 -0.41062,0.12926 -0.41061,0.12926 -0.44205,0.14133 -0.44206,0.14132 0.90508,0.50495 0.90507,0.50495 1.63475,0.0152 1.63474,0.0152 z m 5.07097,-5.66965 -0.148753,-3.04271 -0.0043,-0.73073 -0.0043,-0.73073 -1.124479,0.1668 -1.124479,0.1668 -0.615538,0.59017 -0.615538,0.59017 0.4171,0.99826 0.417101,0.99826 0.0017,0.95988 0.0017,0.95987 0.792077,0.45072 0.792078,0.45071 v 0.48856 0.48856 l -0.23694,0.25135 -0.23694,0.25135 0.256629,0.66146 0.256629,0.66146 0.662496,-0.79375 0.662495,-0.79375 z m -19.52001,0.13229 0.30138,-0.66146 h 0.27026 0.27025 v -0.24939 -0.24939 l -0.53016,0.1021 -0.53016,0.1021 -0.26359,0.16291 -0.26359,0.1629 v 0.26459 0.26458 l 0.26459,-0.16352 0.26458,-0.16352 v 0.2802 0.2802 h -0.26458 -0.26459 v 0.26458 0.26458 h 0.22212 0.22211 z m -1.67595,-0.46302 1.1804,-0.59531 0.007,-0.31758 0.007,-0.31759 0.43402,-0.24289 0.43402,-0.24289 -0.18505,-0.29942 -0.18506,-0.29942 h -0.26458 -0.26458 l 0.16352,0.26458 0.16352,0.26458 -0.16396,0.2653 -0.16397,0.2653 -0.47299,-0.25314 -0.47299,-0.25314 -0.83387,0.86034 -0.83387,0.86033 v 0.31813 0.31814 h 0.13526 0.13526 z m 17.767765,-0.79375 -0.155826,-1.38906 -0.0064,-0.0661 -0.0064,-0.0661 h -0.367564 -0.36756 l -0.56851,0.46302 -0.56851,0.46302 0.96625,0.99219 0.966243,0.99219 h 0.132075 0.132074 z m -13.105185,-0.5887 0.0116,-0.25797 -0.22898,-0.0763 -0.22898,-0.0763 -0.51847,0.40643 -0.51847,0.40644 0.73583,-0.0721 0.73583,-0.0721 z m 9.63952,-0.68473 0.15322,-0.24792 -0.47863,-0.0305 -0.47864,-0.0305 -0.52916,0.0533 -0.52917,0.0533 -0.21987,0.21022 -0.21987,0.21022 1.07445,0.0148 1.07444,0.0148 z m 1.72689,-0.25723 0.51177,-0.2739 v -0.24596 -0.24597 l -0.52647,-0.28175 -0.52647,-0.28176 -0.66878,0.4382 -0.66878,0.4382 0.3016,0.36342 0.30161,0.36341 h 0.38187 0.38188 z m -11.75261,-0.55201 0.35813,-0.29723 v -0.18809 -0.18809 l -0.46302,-0.0272 -0.46302,-0.0272 -0.55122,0.1094 -0.55121,0.1094 v 0.34885 0.34884 l 0.6561,0.0543 0.65611,0.0543 z m 10.14407,-0.62492 0.32574,-0.39249 -0.7333,-0.2788 -0.7333,-0.2788 -0.25663,0.25663 -0.25663,0.25663 0.15912,0.41466 0.15912,0.41466 h 0.50507 0.50508 z m -6.73275,-0.4343 0.17844,-0.56219 -0.32219,-0.19913 -0.32218,-0.19912 -0.504,0.1318 -0.50401,0.1318 -0.15161,0.24532 -0.15161,0.24531 0.14743,0.38421 0.14743,0.3842 h 0.65194 0.65193 z m -10.31038,-0.26205 0.14467,-0.23408 h 0.51355 0.51355 v -0.79375 -0.79375 l -0.46302,-0.008 -0.46302,-0.008 0.46302,-0.26969 0.46302,-0.26968 v -0.53385 -0.53385 l -0.58539,0.1858 -0.5854,0.1858 0.78383,-0.67463 0.78384,-0.67463 -0.19133,-0.19179 -0.19133,-0.19179 -0.60242,0.43669 -0.60242,0.43669 -0.96995,0.64791 -0.96994,0.64792 -0.19542,0.31618 -0.19541,0.31619 0.30546,-0.18879 0.30547,-0.18879 v 0.15946 0.15945 l -0.66664,0.71606 -0.66663,0.71606 0.0727,0.38527 0.0727,0.38527 0.65664,0.15501 0.65663,0.15501 0.73428,-0.10776 0.73427,-0.10777 z m 22.848369,-0.40221 0.840658,-0.16813 -0.07998,-0.92955 -0.07998,-0.92956 -0.455738,-0.28543 -0.455739,-0.28543 -0.256692,0.25863 -0.256692,0.25864 -0.251632,1.12448 -0.251633,1.12448 h 0.203386 0.203386 z m -19.620219,-3.2465 0.5684,-0.76879 -0.35966,0.0528 -0.35965,0.0528 -0.42357,0.35153 -0.42356,0.35153 v 0.36448 0.36448 h 0.21482 0.21483 z m 0.66754,-1.65424 0.57246,-0.30637 0.33618,-0.33619 0.33619,-0.33619 v -0.17926 -0.17926 l 0.79375,-1.00219 0.79375,-1.00219 v -0.26026 -0.26026 l 0.40327,-0.33468 0.40327,-0.33469 -0.13639,-0.13639 -0.13639,-0.13639 0.32844,-0.4089 0.32843,-0.40889 -0.71929,0.51684 -0.71929,0.51685 -0.008,0.313 -0.008,0.313 -1.67837,1.70333 -1.67836,1.70334 -0.16542,0.43106 -0.16541,0.43106 h 0.27368 0.27367 z m 22.068344,-10.78408 -0.0082,-0.94809 0.327631,0.0727 0.32763,0.0727 -0.175513,-0.28399 -0.175513,-0.28399 -0.331518,0.27514 -0.331518,0.27514 -0.231517,-0.19615 -0.231516,-0.19614 0.334854,0.43947 0.334854,0.43946 -0.260595,0.16106 -0.260595,0.16106 0.03615,0.47986 0.03615,0.47986 h 0.3087 0.3087 z m 7.222323,0.76094 v -0.28505 l -0.219463,0.13563 -0.219462,0.13564 0.03768,-0.51151 0.03768,-0.5115 0.224198,-0.20383 0.224199,-0.20383 -0.179027,0.31245 -0.179027,0.31245 0.250617,0.15489 0.250617,0.15489 0.144334,-0.23354 0.144335,-0.23354 -0.462825,-0.41885 -0.462824,-0.41885 -0.363241,0.22449 -0.36324,0.2245 0.15105,0.39363 0.151051,0.39363 -0.553999,-0.14487 -0.553998,-0.14488 0.173888,0.45315 0.173888,0.45314 -0.208039,-0.12857 -0.20804,-0.12858 -0.331208,0.2047 -0.331209,0.2047 1.336029,0.0473 1.336029,0.0473 z m -6.666462,-7.42715 -0.257901,-0.16188 v -0.20542 -0.20542 l 0.353327,-0.25298 0.353328,-0.25297 -0.463021,0.14894 -0.463021,0.14895 v -0.20336 -0.20337 l 0.198437,-0.25324 0.198438,-0.25324 -0.374147,0.31934 -0.374146,0.31934 0.351511,0.42354 0.351512,0.42355 -0.569702,0.14898 -0.569701,0.14898 0.147598,0.23882 0.147598,0.23882 0.246301,-0.15223 0.246301,-0.15222 v 0.29063 0.29063 l 0.367595,-0.34116 0.367595,-0.34116 z m 5.136857,-2.84701 -0.147821,-0.38522 0.375692,0.21811 0.375692,0.21812 -0.205256,-0.22563 -0.205255,-0.22562 -0.478252,-0.073 -0.478251,-0.073 v 0.38848 0.38849 l 0.418924,0.008 0.418923,0.008 -0.458908,0.34847 -0.458908,0.34848 0.168164,0.16816 0.168163,0.16817 0.327458,-0.44783 0.327457,-0.44782 z m -5.084978,0.33782 -0.132292,-0.23936 -0.198438,0.0661 -0.198437,0.0662 v -0.29698 -0.29698 l -0.409399,0.33977 -0.409399,0.33977 0.312567,0.19318 0.312567,0.19318 0.427561,-0.0627 0.427561,-0.0627 z m -26.069934,36.92088 -0.17734,-0.28694 -0.40754,0.15639 -0.40753,0.15639 0.34639,-0.41738 0.34639,-0.41738 0.55093,-0.29345 0.55093,-0.29346 -0.32444,0.39357 -0.32443,0.39357 0.28134,0.28134 0.28134,0.28135 -0.26935,0.16647 -0.26936,0.16647 z m 63.739488,-1.79276 0.67076,-0.67076 0.70778,0.32248 0.70779,0.32249 -0.16395,0.16395 -0.16394,0.16394 -1.21461,0.18433 -1.2146,0.18434 z m 5.65597,0.54554 -1.78594,-0.0862 v -0.276 -0.27599 l 1.65365,0.13924 1.65364,0.13923 0.52917,0.0904 0.52916,0.0904 0.21859,-0.2723 0.21858,-0.27231 -0.10026,0.37265 -0.10026,0.37264 -0.5152,0.0322 -0.5152,0.0322 z m 4.29948,-0.24335 v -0.34779 h 0.41427 0.41426 l 0.48399,0.25902 0.48399,0.25903 0.32477,-0.39132 0.32476,-0.39131 h 0.36448 0.36448 v 0.51823 0.51824 l -1.5875,-0.0382 -1.5875,-0.0382 z m -85.725008,-0.32191 v -0.2387 l 0.83546,-0.29124 0.83546,-0.29124 -0.47959,0.52994 -0.47959,0.52994 h -0.35587 -0.35587 z m 72.950148,-1.20706 -0.736316,-0.38398 0.156616,0.25341 0.15662,0.25342 h -0.500686 -0.500685 l -0.198437,-0.19844 -0.198438,-0.19844 -0.176388,-0.0229 -0.176389,-0.0228 -0.463021,-0.20389 -0.463021,-0.2039 v -0.23627 -0.23628 h 0.425182 0.425183 l -0.152295,-0.39687 -0.152296,-0.39688 h 0.356175 0.356174 l 0.336372,-0.4053 0.336371,-0.4053 -0.698552,0.26558 -0.698552,0.26559 -0.399173,-0.15317 -0.399172,-0.15318 v -0.17997 -0.17998 l 0.463021,-0.0546 0.46302,-0.0546 0.513691,-0.0679 0.513691,-0.0679 0.280059,0.53051 0.280059,0.5305 0.771337,0.85856 0.77134,0.85856 h 0.37519 0.37519 l -0.10473,0.31419 -0.10473,0.31419 -0.24805,0.081 -0.24805,0.081 z m -50.705938,-3.22013 -0.54837,-0.69714 v -0.22676 -0.22676 l 1.12448,0.43453 1.12448,0.43452 0.26458,0.24144 0.26458,0.24144 -0.7498,-0.28313 -0.74981,-0.28312 -0.25523,0.15774 -0.25523,0.15774 0.30983,0.37332 0.30983,0.37332 h -0.14549 -0.14548 z m 42.049543,-0.49741 -0.661458,-0.3742 0.71038,-0.009 0.71038,-0.009 0.744828,-0.30731 0.744828,-0.30731 0.198438,0.0427 0.198437,0.0427 v -0.30868 -0.30868 l 0.184047,0.18405 0.184048,0.18405 0.05731,0.39047 0.05731,0.39048 -0.252947,-0.15633 -0.252947,-0.15633 -0.376389,0.31238 -0.376389,0.31237 -0.339625,-0.11438 -0.339625,-0.11438 -0.264583,0.34065 -0.264584,0.34065 z m -2.762433,-1.2163 -0.692806,-0.82336 0.304808,-0.36727 0.304808,-0.36727 h -0.29698 -0.29698 v -0.41892 -0.41893 l 0.323431,0.10781 0.323431,0.10781 0.158224,0.64185 0.158224,0.64184 0.75486,-0.0561 0.754859,-0.0561 1.137393,-1.11627 1.137393,-1.11627 -0.269967,-0.32529 -0.269968,-0.32529 0.845226,-0.96266 0.845226,-0.96266 -0.237187,0.0443 -0.237187,0.0442 -0.515937,-0.0313 -0.515938,-0.0313 0.328518,-0.32852 0.328517,-0.32851 0.207056,0.33502 0.207056,0.33503 0.972552,-0.66 0.972551,-0.65999 v 0.41721 0.41721 l 0.463021,-0.18311 0.463021,-0.18311 0.926041,-0.12415 0.926042,-0.12416 -0.750995,0.43196 -0.750996,0.43195 0.143461,0.14346 0.14346,0.14346 1.19668,-0.17945 1.196681,-0.17945 0.161239,-0.26089 0.16124,-0.26089 -0.317166,-0.38215 -0.317159,-0.38216 0.453375,-0.17397 0.45338,-0.17398 0.19077,0.30867 0.19076,0.30867 0.57987,-0.0885 0.57987,-0.0885 0.31391,-0.31391 0.31391,-0.31392 h 0.25577 0.25576 l -0.17409,0.1741 -0.1741,0.17409 0.29469,0.35507 0.29468,0.35508 -0.62771,0.004 -0.62771,0.004 0.39457,0.24945 0.39456,0.24945 0.002,0.45838 0.002,0.45838 0.87108,0.50963 0.87108,0.50963 0.47503,-0.42991 0.47504,-0.4299 0.46574,0.51464 0.46574,0.51463 -0.151,0.24433 -0.151,0.24432 1.04328,0.47045 1.04328,0.47046 0.39544,0.43695 0.39543,0.43694 -0.82578,0.0629 -0.82579,0.0629 -1.00992,-0.69988 -1.00993,-0.69988 -0.79443,0.1166 -0.79442,0.1166 0.29756,-0.35854 0.29756,-0.35854 -0.71597,0.27221 -0.71597,0.27222 0.15173,-0.24551 0.15173,-0.2455 -0.2689,-0.16619 -0.2689,-0.16618 v -0.51356 -0.51355 h -0.24618 -0.24619 l -0.0845,0.56652 -0.0845,0.56651 -0.59207,0.21751 -0.59207,0.21751 0.0629,-0.321 0.0629,-0.32101 -0.52916,0.0578 -0.52917,0.0578 -0.396876,-0.14288 -0.396875,-0.14287 0.51359,-0.37798 0.513591,-0.37798 h 0.7588 0.75879 l -0.17095,-0.27661 -0.17096,-0.27661 -1.27578,0.0582 -1.275784,0.0582 0.101131,0.52513 0.101131,0.52513 -0.455946,0.34631 -0.455947,0.34631 -0.218378,0.008 -0.218378,0.008 0.08609,-0.83057 0.08609,-0.83058 -1.14603,-0.3385 -1.14603,-0.3385 -0.507616,0.50762 -0.507616,0.50761 v 0.28936 0.28935 l 0.529167,0.13838 0.529167,0.13838 v 0.29078 0.29079 l 1.256771,1.3181 1.25677,1.3181 -0.422859,-0.31589 -0.422859,-0.31589 -0.481852,0.53244 -0.481852,0.53244 0.507836,0.38425 0.507836,0.38425 -0.264583,-3.9e-4 -0.264583,-3.8e-4 -0.638334,-0.53147 -0.638334,-0.53147 0.638334,-0.44986 0.638334,-0.44986 0.218104,0.0707 0.218104,0.0707 -0.170241,-0.27546 -0.17024,-0.27545 -0.21094,0.13037 -0.210941,0.13036 -0.432813,-0.47825 -0.432813,-0.47825 0.187461,-0.18746 0.18746,-0.18746 -0.583758,-0.15266 -0.583758,-0.15266 v -0.36601 -0.36602 H 94.608425 94.24198 l -0.461207,0.72761 -0.461207,0.7276 -1.090577,0.98091 -1.090577,0.9809 -0.277812,0.0113 -0.277813,0.0113 -0.313887,0.31389 -0.313887,0.31389 0.434269,0.47986 0.43427,0.47987 h -0.413863 -0.414362 z m 12.569458,-6.43168 -0.33055,-0.39829 -0.691,0.45276 -0.691,0.45276 0.78141,0.15246 0.78141,0.15245 0.24014,-0.20692 0.24014,-0.20693 z m 8.71381,5.93974 v -0.20742 l 0.38528,-0.31975 0.38529,-0.31976 0.28049,0.17335 0.28049,0.17335 -0.13249,0.21436 -0.13248,0.21437 -0.53329,0.13946 -0.53329,0.13946 z m -72.890368,-0.27599 0.16585,-0.26837 1.04039,-0.53076 1.04038,-0.53076 v 0.10251 0.10251 l -1.05266,0.69661 -1.05266,0.69662 h -0.15358 -0.15358 z m 63.365368,0.0611 v -0.23854 l 0.9156,-0.49308 0.91559,-0.49308 0.12835,0.12835 0.12835,0.12835 -0.22588,0.3655 -0.22589,0.36549 -0.49198,0.0362 -0.49199,0.0362 -0.32607,0.20152 -0.32608,0.20153 z m -12.110547,-3.7864 0.568393,-0.7688 h 0.314721 0.314721 l 0.361051,0.43504 0.361051,0.43504 -0.5736,-0.18205 -0.5736,-0.18205 -0.254485,0.45473 -0.254485,0.45474 -0.41608,0.0611 -0.416081,0.0611 z m -4.029038,-1.00507 v -0.23628 l 0.418515,-0.1606 0.418514,-0.1606 0.441382,0.008 0.441381,0.008 -0.513591,0.38846 -0.51359,0.38846 h -0.346305 -0.346306 z m 2.267929,-0.52678 -0.145436,-0.23532 0.408389,-0.33893 0.408388,-0.33894 0.51621,0.57207 0.51621,0.57207 -0.306586,-0.25073 -0.306587,-0.25073 -0.472576,0.25291 -0.472577,0.25292 z m -43.542932,-0.3266 -0.92604,-0.1636 0.68812,-0.0348 0.68813,-0.0348 0.82761,-0.28851 0.82761,-0.28851 0.23528,0.0901 0.23529,0.0901 -0.82498,0.39688 -0.82497,0.39687 z m 8.20209,-0.62183 v -0.65316 l -0.37757,0.14489 -0.37757,0.14489 0.14776,-0.56504 0.14775,-0.56503 0.41342,0.15865 0.41341,0.15864 -0.4847,-0.53559 -0.4847,-0.53559 0.27634,-0.33569 0.27633,-0.3357 0.1871,-1.25677 0.18709,-1.25677 h 0.23455 0.23454 l -0.0186,0.33073 -0.0186,0.33073 -0.21274,0.52917 -0.21275,0.52916 0.28811,0.52917 0.28812,0.52917 0.0424,0.46302 0.0424,0.46302 0.0331,0.26458 0.0331,0.26459 h 0.44097 0.44097 l -0.15434,0.15434 -0.15434,0.15434 -0.11367,-0.0882 -0.11368,-0.0882 -0.43754,0.36312 -0.43754,0.36313 v 0.49677 0.49677 h -0.26458 -0.26458 z m 36.732983,0.12398 -0.440973,-0.48507 0.154918,-0.15491 0.154917,-0.15492 0.484493,0.43846 0.484492,0.43846 v -0.1907 -0.19069 l -0.280671,-0.52444 -0.28067,-0.52443 -0.711517,-0.28346 -0.711517,-0.28346 0.331981,-0.12322 0.331982,-0.12322 0.767944,0.64619 0.767943,0.64618 1.11846,0.17885 1.118459,0.17885 0.449497,-0.40679 0.449498,-0.40679 v 0.38633 0.38634 l -0.211833,-0.13092 -0.211832,-0.13092 -0.336882,0.53943 -0.336882,0.53944 h -0.493829 -0.493829 l 0.166656,-0.4343 0.166656,-0.4343 -0.361131,0.29971 -0.36113,0.29971 -0.13639,-0.13639 -0.13639,-0.13639 -0.334683,0.40327 -0.334684,0.40327 -0.166041,-0.0221 -0.16604,-0.022 z m -40.605473,-1.45369 -0.15171,-0.39535 -0.22081,0.13646 -0.2208,0.13647 -1.14054,-0.19537 -1.14053,-0.19537 0.92604,-0.14106 0.92605,-0.14105 4.7e-4,-0.52563 4.8e-4,-0.52563 0.46254,-0.0891 0.46255,-0.0891 v -0.37748 -0.37747 h 0.26458 0.26458 v 0.35586 0.35587 l 0.53561,0.48472 0.5356,0.48471 -0.0943,0.28278 -0.0943,0.28277 -0.5075,10e-4 -0.50749,0.001 0.0367,0.46302 0.0368,0.46302 h -0.1112 -0.1112 z m 51.497486,-7.55953 v -0.54656 l -0.259737,-0.48533 -0.259738,-0.48532 0.392029,-0.15044 0.39203,-0.15044 v 1.18233 1.18232 H 99.60561 99.473318 Z m -22.180436,-10.03309 -0.568756,-0.76928 0.302977,-0.18725 0.302976,-0.18725 -0.165065,0.26708 -0.165065,0.26708 0.751363,-0.0278 0.751363,-0.0278 -0.140167,-0.39687 -0.140168,-0.39688 0.205732,0.18562 0.205731,0.18563 0.06824,0.80192 0.06824,0.80193 -0.23613,-0.14594 -0.236131,-0.14593 0.177488,-0.28718 0.177488,-0.28719 -0.309779,0.19146 -0.30978,0.19145 0.140923,0.22802 0.140924,0.22802 -0.226824,0.14019 -0.226823,0.14018 z m -0.143719,-1.94178 -0.12981,-0.4964 -0.323273,0.19979 -0.323272,0.1998 0.191454,-0.30978 0.191455,-0.30978 0.24327,0.15035 0.24327,0.15035 -0.129261,-0.41062 -0.129261,-0.41062 -0.163868,-0.46302 -0.163868,-0.46302 -0.07093,-0.74 -0.07093,-0.74 -0.477973,-0.52816 -0.477974,-0.52815 0.416653,0.15988 0.416654,0.15989 0.331985,-0.8761 0.331986,-0.87611 0.05658,-0.61426 0.05657,-0.61426 0.619708,-0.57636 0.619707,-0.57637 -0.332983,0.44532 -0.332983,0.44532 0.679164,0.44501 0.679165,0.445 v 0.27825 0.27825 l -0.154944,-0.15494 -0.154943,-0.15494 -0.638807,0.55543 -0.638806,0.55544 v 0.1921 0.1921 l 0.473425,-0.12381 0.473424,-0.1238 0.471904,0.52145 0.471904,0.52145 0.760676,-0.21816 0.760676,-0.21816 0.29579,0.3564 0.29579,0.35641 -0.255749,0.92624 -0.255749,0.92625 0.172184,0.19255 0.172183,0.19256 -0.335045,-0.193 -0.335045,-0.19299 0.15035,-0.24327 0.150349,-0.24327 -0.432801,0.16608 -0.432801,0.16608 0.31984,0.19767 0.319841,0.19768 v 0.68672 0.68672 l 0.297656,-0.16628 0.297656,-0.16628 -0.324433,0.35002 -0.324434,0.35002 0.316427,0.4164 0.316427,0.4164 -0.661333,-0.5867 -0.661334,-0.5867 -0.313945,0.50271 -0.313946,0.50271 -1.051908,-0.0416 -1.051908,-0.0416 z m -22.260801,-4.94539 -0.16619,-0.2689 -0.20673,0.12777 -0.20674,0.12777 0.0513,-0.71877 0.0513,-0.71876 0.0414,-0.21405 0.0414,-0.21406 0.2463,0.15223 0.2463,0.15222 0.19146,-0.30978 0.19145,-0.30978 -0.30546,0.18879 -0.30547,0.18878 v -0.29423 -0.29424 l 0.61877,-0.9106 0.61877,-0.91059 0.2174,0.19703 0.2174,0.19703 -0.18436,-0.32108 -0.18436,-0.32108 0.47267,-0.50961 0.47267,-0.50961 0.8885,-0.9465 0.8885,-0.94649 0.566708,-0.17234 0.566711,-0.17234 0.396875,-0.32536 0.396875,-0.32537 0.529166,-0.18244 0.529167,-0.18245 -0.736642,0.60525 -0.736642,0.60525 -1.147487,0.92604 -1.147491,0.92605 -0.31701,0.48878 -0.31702,0.48879 0.15167,0.15166 0.15167,0.15167 0.66041,-0.62043 0.660417,-0.62042 v 0.44223 0.44223 l -0.862517,0.99295 -0.86252,0.99295 -0.85728,1.23388 -0.85727,1.23388 v 0.28747 0.28748 h -0.24896 -0.24897 z m 0.83123,-1.34408 -0.0348,-0.15777 0.36312,-0.43754 0.36313,-0.43754 h -0.13855 -0.13855 l 0.7666,-0.82065 0.7666,-0.82065 -0.15553,-0.25165 -0.15553,-0.25165 -0.30648,0.10216 -0.30648,0.10216 v 0.30868 0.30868 l -0.26458,0.0225 -0.26459,0.0225 -0.30341,0.25181 -0.30342,0.25181 0.12776,0.48854 0.12775,0.48853 -0.41965,0.81152 -0.41965,0.81151 v 0.20431 0.2043 l 0.36554,-0.52189 0.36555,-0.5219 z m 12.408158,-0.22688 -0.143634,-0.2324 0.263976,-0.69431 0.263976,-0.69431 0.531667,0.28454 0.531667,0.28454 v 0.3451 0.34509 l -0.65201,0.29708 -0.652009,0.29708 z m 16.726041,-5.42309 -1.522652,-1.64469 h 0.386534 0.386535 l -0.136268,0.22049 -0.136268,0.22048 0.875511,0.0307 0.875511,0.0307 -0.487472,0.12571 -0.487472,0.12571 0.553618,0.38777 0.553617,0.38777 v 0.29867 0.29868 l 0.575287,0.61236 0.575288,0.61237 -0.244558,-0.031 -0.244558,-0.031 z m -17.477191,0.44705 -0.47901,-0.10823 0.04528,-0.57283 0.04528,-0.57283 -0.02929,-0.33073 -0.02929,-0.33073 h -0.352778 -0.352778 v -0.79375 -0.79375 h 0.1552 0.155199 l 0.742177,0.78634 0.742176,0.78634 0.146021,0.89981 0.14602,0.89982 -0.227598,0.11938 -0.227598,0.11938 z m 11.182561,-0.35034 -0.384801,-0.25284 0.624624,-0.52379 0.624624,-0.5238 h 0.191055 0.191055 l -0.04115,0.55854 -0.04115,0.55853 -0.38973,0.2181 -0.38973,0.21811 z"
       id="path7" /></g></svg>
