<?xml version="1.0" encoding="UTF-8" standalone="no"?>
<!-- Created with Inkscape (http://www.inkscape.org/) -->

<svg
   width="101.59999mm"
   height="84.666672mm"
   viewBox="0 0 101.59999 84.666672"
   version="1.1"
   id="svg1"
   xml:space="preserve"
   xmlns="http://www.w3.org/2000/svg"
   xmlns:svg="http://www.w3.org/2000/svg"><defs
     id="defs1" /><g
     id="layer1"
     transform="translate(-46.991872,-142.85719)"><path
       style="fill:#ffffff;fill-opacity:1"
       d="m 46.99187,185.19053 v -42.33334 h 50.799995 50.799995 v 42.33334 42.33333 H 97.791865 46.99187 Z m 1.5875,41.1427 v -0.39687 h 0.264583 0.264584 v -0.62776 -0.62776 l 1.135657,-1.04682 1.135658,-1.04681 1.444029,-0.66013 1.44403,-0.66013 2.180565,-0.90644 2.180565,-0.90644 0.0022,-2.13332 0.0022,-2.13331 0.825173,-0.7771 0.825172,-0.77711 -0.181544,0.59532 -0.181543,0.59531 h 0.421253 0.421253 l 0.256621,-0.67496 0.25662,-0.67497 2.581102,0.16528 2.581102,0.16527 0.318384,0.0998 0.318385,0.0998 0.806094,-0.70734 0.806095,-0.70734 v -0.48078 -0.48079 l 0.530031,-1.03895 0.530031,-1.03895 0.510908,-0.27343 0.510908,-0.27343 h 0.703266 0.703266 l 0.672726,-0.52916 0.672727,-0.52917 h 0.699267 0.699267 l 0.449574,-0.52506 0.449574,-0.52507 1.061122,-0.16968 1.061123,-0.16968 -0.140783,-0.56202 -0.140782,-0.56203 -0.05434,-2.24917 -0.05434,-2.24918 0.463021,0.46324 0.463021,0.46323 h 0.910427 0.910427 l 0.130448,0.21107 0.130449,0.21108 -0.243074,0.38424 -0.243074,0.38424 -0.0041,-0.46302 -0.0041,-0.46302 h -0.15119 -0.151191 l -0.396875,0.39687 -0.396875,0.39688 0.439785,0.43978 0.439785,0.43979 0.236521,-0.37364 0.23652,-0.37364 0.0041,0.7276 0.0041,0.72761 0.463021,0.0227 0.463021,0.0227 -0.752824,0.22571 -0.752824,0.2257 -0.653463,-0.24845 -0.653462,-0.24844 h -0.207095 -0.207095 l -0.02257,0.79375 -0.02257,0.79375 h 0.213622 0.213622 l 1.067677,-0.3767 1.067678,-0.3767 0.13788,0.13788 0.13788,0.13788 0.330074,-0.52853 0.330073,-0.52853 0.353087,0.13549 0.353087,0.13549 0.412594,-0.34242 0.412595,-0.34242 1.502265,-0.63312 1.502265,-0.63312 0.529167,-0.0786 0.529166,-0.0786 0.132292,-0.0741 0.132292,-0.0741 0.264583,-0.0615 0.264583,-0.0615 0.438534,-0.0305 0.438534,-0.0305 0.09063,-1.43364 0.09063,-1.43364 -0.132292,0.01 -0.132292,0.01 -0.383646,-0.0313 -0.383645,-0.0313 0.296824,-0.29682 0.296824,-0.29682 -0.139923,-0.36464 -0.139924,-0.36463 h 0.308506 0.308506 L 88.663643,197.891 88.500122,197.62642 H 87.98657 87.473018 l -6.03e-4,0.33073 -6.03e-4,0.33073 -0.807155,0.0289 -0.807154,0.0289 0.143268,-0.37335 0.143269,-0.37335 -0.261552,0.16165 -0.261553,0.16164 v 0.38126 0.38126 h -0.233739 -0.233739 l -0.126446,0.66146 -0.126445,0.66146 h 0.492476 0.492476 v 0.23373 0.23372 l -0.595312,0.16738 -0.595313,0.16738 0.484591,0.28557 0.48459,0.28557 0.478308,-0.12508 0.478309,-0.12508 0.324652,0.20065 0.324652,0.20065 -0.287318,0.49452 -0.287317,0.49453 -0.008,-0.46302 -0.008,-0.46302 H 86.282485 85.88561 l -0.03069,0.46302 -0.03069,0.46302 -0.121,-0.46302 -0.121,-0.46302 h -0.245183 -0.245183 v 0.38857 0.38857 l -0.376417,-0.14444 -0.376418,-0.14445 -0.167891,-0.43751 -0.167891,-0.43752 0.309664,-0.10322 0.309663,-0.10322 -0.302046,-0.18668 -0.302047,-0.18667 -0.309457,-1.66403 -0.309458,-1.66402 -2.924163,0.18506 -2.924164,0.18506 -0.251354,0.24246 -0.251354,0.24246 h 0.283684 0.283684 l 0.165536,1.0352 0.165536,1.0352 0.141047,0.48616 0.141047,0.48615 -0.335457,-0.66146 -0.335458,-0.66146 -0.268039,-0.33991 -0.268038,-0.33991 -0.330729,-0.3688 -0.33073,-0.36879 v -0.26787 -0.26787 l -0.240706,-0.14876 -0.240707,-0.14877 -0.435957,0.1673 -0.435958,0.16729 0.133996,0.34919 0.133996,0.34919 -0.515665,0.16366 -0.515665,0.16367 -0.0186,2.03269 -0.0186,2.03269 -0.203123,-0.51952 -0.203123,-0.51952 -0.217105,0.7841 -0.217106,0.78411 -0.0242,0.39687 -0.0242,0.39688 -3.307291,1.13918 -3.307292,1.13919 -1.322917,0.35964 -1.322916,0.35964 -2.248959,0.83236 -2.248958,0.83236 -3.96875,1.32857 -3.96875,1.32857 -1.918229,-0.093 -1.918229,-0.093 v 7.61191 7.61192 h 0.396875 0.396875 z m 92.26955,-0.0544 0.10633,-0.31903 -0.59386,0.11437 -0.59386,0.11436 -0.33229,-0.27577 -0.33228,-0.27577 -0.92051,0.25416 -0.92051,0.25416 -0.15604,-0.43518 -0.15604,-0.43518 -0.15417,-0.33073 -0.15417,-0.33073 h 0.6835 0.68351 v 0.26458 0.26459 h -0.41249 -0.41249 l 0.13185,0.21333 0.13184,0.21333 0.94974,-0.11088 0.94973,-0.11088 -0.26992,-0.32523 -0.26992,-0.32524 0.14994,-0.14993 0.14993,-0.14994 -0.48296,-0.13437 -0.48296,-0.13438 -0.53382,0.0566 -0.53381,0.0566 -0.3078,0.19022 -0.30779,0.19023 -0.16886,-0.27321 -0.16886,-0.27322 -0.25028,0.15469 -0.25028,0.15468 -2.68084,-5.50818 -2.68084,-5.50818 -0.1855,0.52742 -0.1855,0.52741 -0.43697,-0.845 -0.43697,-0.84501 0.009,-0.34387 0.009,-0.34387 0.52036,0.62463 0.52037,0.62462 v -0.179 -0.17899 l -0.28488,-0.5323 -0.28487,-0.53229 -0.35052,0.1345 -0.35051,0.13451 -0.14787,-0.56545 -0.14787,-0.56545 -0.15956,0.15956 -0.15956,0.15956 2.40775,5.64972 2.40775,5.64972 0.28096,0.56053 0.28095,0.56054 -0.10643,0.4978 -0.10643,0.49779 -0.61666,-1.19062 -0.61667,-1.19063 -0.1822,-0.13229 -0.18219,-0.13229 -0.20276,-0.52917 -0.20276,-0.52916 -0.11967,-0.62741 -0.11966,-0.6274 -0.54397,-1.06626 -0.54397,-1.06627 -0.18936,0.30639 -0.18936,0.30639 -0.62005,-1.52314 -0.62006,-1.52314 -0.52869,-1.14968 -0.52869,-1.14968 0.37172,-0.23533 0.37171,-0.23533 -0.42067,-0.004 -0.42067,-0.004 -0.35635,-1.07973 -0.35634,-1.07974 -0.67819,0.15963 -0.6782,0.15962 -2.51354,0.38455 -2.51354,0.38455 -0.27857,-0.36973 -0.27857,-0.36972 -1.70581,-0.44894 -1.7058,-0.44894 -1.38906,-0.006 -1.38906,-0.006 v -0.63928 -0.63927 l 0.19843,0.12347 0.19844,0.12348 -0.0887,-1.69536 -0.0887,-1.69536 -2.42482,-0.009 -2.42482,-0.009 -7.69509,-0.48781 -7.695079,-0.48781 -0.538353,-0.28812 -0.538353,-0.28811 -0.181064,0.18106 -0.181064,0.18106 0.161481,-0.42081 0.161482,-0.42081 -0.412081,-0.15813 -0.412081,-0.15813 v 0.14301 0.14302 l 0.726648,1.23774 0.726648,1.23774 0.03403,0.19844 0.03403,0.19844 0.03307,0.30868 0.03307,0.30868 0.174094,-0.17409 0.174093,-0.1741 0.335643,0.27856 0.335642,0.27856 2.599118,0.14663 2.599121,0.14664 0.992185,1.08327 0.99218,1.08328 v 0.10504 0.10505 l -0.39687,-0.1523 -0.39688,-0.15229 0.004,0.45471 0.004,0.45472 0.16231,0.60589 0.1623,0.60589 0.49554,-0.44846 0.49554,-0.44846 0.0412,1.95924 0.0411,1.95923 -0.0585,0.64196 -0.0585,0.64196 -0.41505,0.81325 -0.41506,0.81325 -2.173255,3.30729 -2.173268,3.30729 -0.43833,0.79375 -0.438331,0.79375 -0.428852,0.59678 -0.428852,0.59678 22.963808,-0.0676 22.96382,-0.0676 z m -81.01485,-7.77602 -0.223961,0.37161 0.323501,-0.19994 0.323502,-0.19993 -0.149381,-0.38928 -0.14938,-0.38928 0.276909,-0.51741 0.27691,-0.51741 0.251308,0.15532 0.251308,0.15531 v -0.29802 -0.29803 l -0.529166,0.16795 -0.529167,0.16795 v -0.59109 -0.5911 l -0.184047,0.18405 -0.184047,0.18405 -0.06207,0.45536 -0.06207,0.45536 -0.160332,1.03254 -0.160332,1.03253 0.457243,-0.37108 0.457242,-0.37107 z m 3.514223,-0.54932 -0.08455,-0.57459 -0.309516,-0.10185 -0.309516,-0.10185 0.09083,0.478 0.09083,0.478 0.02024,0.19844 0.02024,0.19843 h 0.282985 0.282985 z m 84.284757,-0.0969 0.15614,-0.40689 -0.41076,-0.15762 -0.41076,-0.15763 -2.29676,-2.36788 -2.29675,-2.36788 -0.11025,-0.11031 -0.11024,-0.11032 h 0.26566 0.26565 l 2.03131,2.00513 2.0313,2.00512 0.28284,-0.0943 0.28283,-0.0943 -3.09625,-2.96918 -3.09624,-2.96917 h 0.40621 0.4062 l 0.0882,0.19844 0.0882,0.19843 1.98438,1.69561 1.98437,1.69561 0.58092,0.61752 0.58092,0.61751 0.14292,-0.23123 0.14291,-0.23124 -1.09689,-0.89126 -1.09689,-0.89127 -1.87114,-1.76739 -1.87114,-1.76738 -0.3239,0.26881 -0.3239,0.26881 -0.27617,-0.17068 -0.27618,-0.17069 v 0.31106 0.31106 l -0.55352,-0.14475 -0.55352,-0.14475 0.48556,0.57691 0.48557,0.57691 0.39868,0.43856 0.39869,0.43856 0.52917,0.67369 0.52916,0.67368 0.46302,0.0122 0.46302,0.0122 -0.0313,0.19844 -0.0313,0.19843 0.0313,0.32161 0.0313,0.32161 0.76745,0.78508 0.76744,0.78508 0.14869,-0.14869 0.1487,-0.14869 0.30741,0.6747 0.30742,0.67471 0.37477,-0.14381 0.37476,-0.14381 -0.067,0.2309 -0.067,0.2309 0.33011,0.59531 0.3301,0.59531 h 0.35926 0.35926 z m -81.062014,-0.2121 v -0.3544 l 0.673908,-0.30706 0.673908,-0.30705 h 0.111538 0.111538 l -0.152295,0.39688 -0.152295,0.39687 h 0.119592 0.119592 l 0.456184,-0.50408 0.456184,-0.50407 -0.827294,0.0573 -0.827294,0.0573 -0.14245,-0.23049 -0.142449,-0.23049 -0.393075,0.47885 -0.393074,0.47886 0.140417,-0.44955 0.140416,-0.44955 -0.388404,0.14905 -0.388404,0.14904 0.115539,0.69738 0.115538,0.69738 0.02176,0.0661 0.02176,0.0662 h 0.264583 0.264583 z m 2.703003,-2.81561 -0.119185,-0.81206 -0.365867,0.30365 -0.365867,0.30364 0.0041,0.29833 0.0041,0.29833 0.25648,-0.39687 0.25648,-0.39688 0.0041,0.74322 0.0041,0.74322 0.220469,-0.13626 0.22047,-0.13625 z m 30.899071,-2.90515 v -0.27483 h -0.204405 -0.20442 l -0.50343,0.93481 -0.50343,0.93482 -0.41663,-0.0392 -0.41663,-0.0393 -0.23084,0.0305 -0.23083,0.0305 0.35211,0.42427 0.35211,0.42427 1.0032,-1.07548 1.003195,-1.07548 z m 47.60296,2.0275 -0.11025,-0.0789 -1.45521,-1.13646 -1.4552,-1.13646 1.31567,1.21538 1.31567,1.21538 h 0.24978 0.24978 z m -0.26459,-2.13381 -0.11024,-0.0961 -2.12915,-1.70724 -2.12915,-1.70725 -0.38439,-0.19919 -0.38439,-0.19919 0.92604,0.84164 0.92604,0.84164 1.55046,1.16086 1.55046,1.16085 h 0.14728 0.14729 z m -66.334969,-0.51828 0.09952,0.48205 0.300416,-1.15651 0.300416,-1.15651 -0.602228,-0.60223 -0.602229,-0.60223 -0.965268,0.30213 -0.965269,0.30212 v 0.36044 0.36045 l 0.383401,-0.14713 0.3834,-0.14712 -0.147124,0.3834 -0.147125,0.3834 0.226745,0.0338 0.226745,0.0338 0.61295,0.0632 0.61295,0.0632 -0.282221,-0.28222 -0.282221,-0.28222 v -0.47625 -0.47625 h 0.272888 0.272887 l 0.144367,0.37621 0.144366,0.37622 0.07234,0.48368 0.07234,0.48368 -0.489592,0.34573 -0.489592,0.34574 0.0084,0.31572 0.0084,0.31573 0.365395,-0.48205 0.365396,-0.48205 z m 2.405443,-0.88802 -0.1342,-0.34972 h 0.248674 0.248674 l -0.03445,-0.46767 -0.03445,-0.46768 -0.201526,-0.32607 -0.201527,-0.32608 h 0.280198 0.280198 l 0.03133,0.33073 0.03133,0.33073 -0.03133,0.19843 -0.03133,0.19844 h 0.282413 0.282413 l -0.157541,0.49637 -0.157541,0.49637 0.602732,0.19963 0.602732,0.19963 0.482876,0.0626 0.482876,0.0626 -0.131254,-0.56014 -0.131253,-0.56014 -0.321354,-2.0479 -0.321354,-2.0479 -0.357867,-0.29701 -0.357866,-0.297 -0.163147,0.42515 -0.163147,0.42516 -0.277739,-0.17165 -0.27774,-0.17166 0.142107,0.23932 0.142106,0.23932 -0.23128,0.61231 -0.231279,0.61231 -0.308452,-0.19063 -0.308451,-0.19064 0.16886,1.23197 0.16886,1.23197 h -0.259522 -0.259521 v -0.6306 -0.6306 l -0.512079,-0.13391 -0.51208,-0.13391 -0.162285,0.42291 -0.162285,0.42291 0.574321,0.43321 0.574322,0.43321 -0.429124,0.16467 -0.429124,0.16467 v 0.30528 0.30529 l 0.361771,-0.30024 0.36177,-0.30025 0.332085,0.40014 0.332085,0.40014 h -0.29698 -0.296981 v 0.26682 0.26683 l 0.502767,-0.31398 0.502767,-0.31399 z m -27.895541,-2.01071 0.360169,-0.0147 -0.132919,-1.17925 -0.132919,-1.17925 -0.346908,-0.2144 -0.346909,-0.2144 -0.263199,0.16266 -0.263199,0.16267 -1.244025,-0.066 -1.244025,-0.066 -0.105608,1.40726 -0.105608,1.40726 0.100672,0.42848 0.100672,0.42849 1.631819,-0.52402 1.631819,-0.52401 z m -4.990376,0.46001 v -0.38652 h -0.48507 -0.485069 l -0.186394,-0.1864 -0.186393,-0.18639 -0.651454,-0.0872 -0.651454,-0.0872 9.8e-5,0.60436 9.7e-5,0.60437 1.322819,0.0558 1.32282,0.0558 z m 39.364044,-0.005 0.588038,-0.41188 0.03069,0.47803 0.03069,0.47802 0.128396,-0.50143 0.128396,-0.50142 0.233736,0.36913 0.233735,0.36914 -0.01712,-1.45521 -0.01712,-1.45521 -0.4446,-1.5875 -0.4446,-1.5875 h -0.568654 -0.568653 l -0.222345,-0.24059 -0.222344,-0.2406 0.529166,0.19013 0.529167,0.19012 -0.302324,-0.30477 -0.302323,-0.30477 -0.540178,0.28909 -0.540179,0.2891 h -0.442588 -0.442588 l -1.625327,0.77541 -1.625326,0.77542 -0.743526,0.28242 -0.743525,0.28242 0.163828,0.26508 0.163828,0.26508 -0.346345,0.0313 -0.346344,0.0314 -0.35707,-0.049 -0.35707,-0.049 -0.965846,0.45851 -0.965847,0.4585 -1.322917,0.62711 -1.322916,0.6271 0.529166,-0.11191 0.529167,-0.1119 0.506424,-0.20727 0.506425,-0.20727 -0.189437,0.30651 -0.189437,0.30652 0.409097,-0.15699 0.409097,-0.15698 -0.138182,-0.22359 -0.138183,-0.22358 0.563626,-0.30165 0.563626,-0.30164 0.502483,0.1314 0.502483,0.1314 -0.17606,-0.28487 -0.176061,-0.28487 0.454021,0.17423 0.45402,0.17422 -0.182862,-0.29588 -0.182863,-0.29588 0.367558,0.13155 0.367558,0.13154 0.785829,-0.42794 0.785828,-0.42795 0.520833,-0.46302 0.520832,-0.46303 h 0.230308 0.230309 l -0.175594,0.28412 -0.175593,0.28412 0.617715,-0.35027 0.617715,-0.35026 0.269868,-0.29375 0.269867,-0.29376 0.476763,-0.16623 0.476762,-0.16624 -0.189917,0.3073 -0.189918,0.30729 0.631922,-0.44262 0.631923,-0.44261 h 0.23657 0.236571 l -0.134548,0.51451 -0.134549,0.51451 0.543199,0.0808 0.543198,0.0808 -0.956501,0.45294 -0.956501,0.45293 0.148424,-0.38679 0.148425,-0.38679 h -0.557474 -0.557474 l -0.485868,0.48587 -0.485869,0.48587 0.618451,0.7709 0.618452,0.77091 -0.117322,0.31259 -0.117321,0.3126 0.484984,-0.0934 0.484985,-0.0934 0.158105,0.79053 0.158105,0.79052 0.26466,-0.16357 0.26466,-0.16357 -0.157568,0.41062 -0.157569,0.41062 h 0.366311 0.366311 z m 26.583349,-0.0226 0.46302,-0.13037 v -0.28137 -0.28137 l -0.99219,0.164 -0.99219,0.16399 -0.33073,0.003 -0.33073,0.003 v 0.4179 0.41789 l 0.8599,-0.17306 0.8599,-0.17307 z m -59.228463,-0.84324 0.135576,-0.21937 1.533684,-0.33857 1.533684,-0.33857 1.239674,-0.5004 1.239674,-0.50039 0.61241,0.0215 0.612409,0.0215 -0.79375,0.36345 -0.79375,0.36345 0.396875,-0.008 0.396875,-0.008 0.926042,-0.35662 0.926041,-0.35661 -0.529166,-0.0307 -0.529167,-0.0307 0.661458,-0.35495 0.661459,-0.35494 0.892996,-0.19192 0.892997,-0.19192 -0.181008,0.29288 -0.181007,0.29287 h -0.425357 -0.425357 l 0.158661,0.15866 0.158661,0.15866 0.92941,-0.30673 0.92941,-0.30673 -0.128907,-0.33593 -0.128907,-0.33593 1.069308,-0.32037 1.069308,-0.32037 -0.0041,-0.58469 -0.0041,-0.58469 -0.249514,-0.39467 -0.249515,-0.39466 -0.328517,0.32852 -0.328518,0.32851 h -0.227281 -0.227282 l 0.161649,-0.26155 0.161648,-0.26155 -0.410617,0.15757 -0.410617,0.15757 v 0.58905 0.58905 h -0.396875 -0.396875 v -0.61736 -0.61736 h -0.388571 -0.388571 l 0.152295,0.39688 0.152296,0.39687 h -0.277276 -0.277276 l -0.157557,-0.25493 -0.157557,-0.25493 0.538817,-0.53882 0.538817,-0.53882 -0.0041,-0.33073 -0.0041,-0.33073 -0.194386,0.26459 -0.194386,0.26458 -0.463021,0.0221 -0.463021,0.022 -0.516596,0.0441 -0.516597,0.0441 0.07831,0.72761 0.07831,0.7276 -0.338134,0.64428 -0.338133,0.64429 -0.187508,-0.74709 -0.187507,-0.74709 -0.06064,-0.55865 -0.06064,-0.55866 -0.05054,-0.26458 -0.05054,-0.26458 -0.245575,0.61231 -0.245574,0.61231 -0.266821,-0.16491 -0.266822,-0.1649 v 0.27189 0.2719 l -0.370112,-0.14203 -0.370112,-0.14202 -0.192127,0.31086 -0.192128,0.31087 -0.224012,-0.35897 -0.224011,-0.35898 0.159411,0.99219 0.159412,0.99218 h -0.299202 -0.299202 v 0.25628 0.25628 l 0.442809,-0.16992 0.442809,-0.16992 -0.508955,0.53313 -0.508955,0.53313 -0.202753,-0.1086 -0.202753,-0.10861 0.152222,-0.2463 0.152223,-0.2463 h -0.428105 -0.428105 l 0.152222,0.2463 0.152223,0.2463 -0.233539,0.14434 -0.233538,0.14433 -0.473243,-0.52292 -0.473243,-0.52293 h 0.702466 0.702465 v -0.95689 -0.95688 l -0.661458,0.12644 -0.661459,0.12645 v -0.2279 -0.22789 h 0.705556 0.705556 l -0.183208,-0.18321 -0.183207,-0.1832 -0.513162,-0.0783 -0.513162,-0.0783 -0.207624,-0.0317 -0.207624,-0.0317 -0.595312,0.19177 -0.595313,0.19177 v 0.18264 0.18265 l 0.727605,0.3057 0.727604,0.30569 -0.529167,-0.11629 -0.529167,-0.11628 -0.346072,0.21749 -0.346072,0.2175 0.182627,0.72765 0.182628,0.72764 0.19277,-0.31191 0.19277,-0.3119 0.160809,0.41906 0.160808,0.41905 h -0.346102 -0.346101 l -0.312303,0.68543 -0.312303,0.68544 -0.143362,0.90206 -0.143362,0.90207 h 0.529872 0.529872 z m 4.393569,-0.74846 0.926042,-0.36307 -0.764531,0.15059 -0.764531,0.15059 -0.822969,0.37984 -0.822969,0.37984 0.661458,-0.16736 0.661459,-0.16736 z m 54.740304,0.28916 0.10385,-0.1023 -0.33469,-0.40327 -0.33468,-0.40327 h -0.35617 -0.35618 l 0.1523,0.39688 0.15229,0.39687 -0.35903,0.0313 -0.35904,0.0313 -0.19844,-0.0313 -0.19844,-0.0313 v 0.29403 0.29403 l 0.99219,-0.18533 0.99219,-0.18534 z m -66.911137,-0.41207 v -0.56156 l -0.41704,0.34611 -0.41704,0.34612 -0.230032,-0.3722 -0.230032,-0.3722 -0.179364,0.17936 -0.179364,0.17937 0.156674,0.40828 0.156674,0.40829 h 0.669762 0.669762 z m 1.058334,-1.5551 v -0.52917 h -0.496094 -0.496094 l -0.826823,-0.16536 -0.826823,-0.16536 v 0.32596 0.32596 l 0.396875,-0.15229 0.396875,-0.1523 v 0.52087 0.52086 h 0.926042 0.926042 z m 3.500406,-0.43512 1.550748,-0.43511 -0.08157,-0.42355 -0.08157,-0.42356 -1.051604,0.0906 -1.051605,0.0906 -0.730946,0.37798 -0.730946,0.37799 v 0.21369 0.21369 l 0.176389,0.17639 0.176389,0.17639 h 0.136982 0.136983 z m 64.128757,-0.24845 -0.16078,-0.41898 0.33091,0.12133 0.33091,0.12133 -0.0661,0.29765 -0.0661,0.29766 h 0.26458 0.26458 v -0.26459 -0.26458 h 0.39688 0.39687 v -0.26458 -0.26459 l -0.99218,-0.0186 -0.99219,-0.0186 0.52917,-0.22739 0.52916,-0.22739 -1.05833,0.005 -1.05833,0.005 -1.32292,0.17645 -1.32292,0.17646 0.39688,0.26338 0.39687,0.26339 1.5875,0.29275 1.5875,0.29275 0.0945,0.038 0.0944,0.038 z m -8.78102,-0.53536 0.41852,-0.1606 v -0.87569 -0.87568 l -0.33073,-0.11131 -0.33073,-0.11132 0.31287,-0.37934 0.31287,-0.37935 -0.0483,-1.25118 -0.0483,-1.25117 -0.20675,-1e-5 h -0.20674 l -0.15358,0.40024 -0.15359,0.40025 0.29062,0.35017 0.29061,0.35017 -1.98081,-0.0252 -1.98081,-0.0252 v 0.59774 0.59775 h 0.7001 0.70009 l -0.70009,0.64883 -0.7001,0.64882 v 0.5418 0.5418 l 1.91823,0.0485 1.91823,0.0485 -2.11666,0.16754 -2.11667,0.16755 1.89659,0.0485 1.89659,0.0485 z m 3.8581,-0.10625 0.39688,-0.25874 -1.32292,0.16778 -1.32292,0.16777 -0.11024,0.095 -0.11024,0.095 1.03628,-0.004 1.03629,-0.004 z m -63.070046,-0.26232 h 0.363803 v -0.3994 -0.3994 l -1.199859,0.0999 -1.199859,0.1 -0.149552,0.14955 -0.149552,0.14955 0.190874,0.30884 0.190875,0.30884 0.794734,-0.15894 0.794734,-0.15895 z m 54.008066,0.0718 -0.99219,-0.10378 -0.99218,0.10378 -0.99219,0.10379 h 1.98437 1.98438 z m -32.264617,-0.53636 0.609856,-0.13189 -0.09339,-0.95857 -0.09339,-0.95856 -0.318028,0.0265 -0.318028,0.0265 -0.396875,0.0397 -0.396875,0.0397 v 0.37211 0.3721 l 0.595312,-0.14352 0.595313,-0.14351 -0.264583,0.27489 -0.264584,0.2749 -0.529166,0.0945 -0.529167,0.0945 -0.08943,0.62985 -0.08943,0.62985 0.486303,-0.20355 0.486303,-0.20356 z m 29.511477,0.29202 2.81929,-0.1725 v -2.31305 -2.31305 l -0.59531,0.0147 -0.59532,0.0147 -0.46302,-0.20327 -0.46302,-0.20326 v 0.78537 0.78536 l -0.70358,-0.13449 -0.70358,-0.1345 0.439,-0.321 0.43899,-0.321 -0.004,-0.5 -0.004,-0.5 -0.23382,-0.36928 -0.23383,-0.36929 -0.42358,0.16254 -0.42358,0.16255 v 2.90663 2.90663 l -1.785935,0.0926 -1.785934,0.0926 0.951024,0.0518 0.95103,0.0518 z m 0.9672,-3.78794 v -0.25628 l 0.39688,0.15229 0.39687,0.1523 v -0.28459 -0.28459 l 0.39688,0.1523 0.39687,0.15229 v 0.23628 0.23627 h -0.79375 -0.79375 z m -48.452489,3.43489 0.627709,-0.004 -0.334176,-0.40265 -0.334177,-0.40266 -0.907425,0.0611 -0.907426,0.0611 -0.129326,0.20926 -0.129327,0.20925 0.177768,0.28763 0.177767,0.28764 0.565452,-0.15173 0.565451,-0.15173 z m 44.951154,-0.33434 0.0264,-0.33073 0.0351,-2.34175 0.0351,-2.34175 -0.0836,-0.0832 -0.0836,-0.0832 -1.10575,-0.16472 -1.105744,-0.16472 -0.275272,0.47301 -0.275273,0.473 -0.008,-0.33073 -0.008,-0.33073 h -0.425269 -0.425183 l 0.149044,0.38841 0.149044,0.3884 -0.298264,0.18434 -0.298263,0.18433 0.640548,0.2669 0.640548,0.2669 -0.585372,0.1035 -0.585371,0.10351 0.01295,1.68732 0.01295,1.68733 0.704713,0.10801 0.704713,0.10802 1.212671,0.0396 1.21268,0.0396 z m -5.229906,-0.73083 v -0.52595 h -1.984375 -1.984375 v 0.37848 0.37847 l 0.595313,0.0846 0.595312,0.0846 1.389063,0.0629 1.389062,0.0629 z m -31.529195,-0.43397 0.617679,-0.16539 -0.353096,-0.22382 -0.353096,-0.22383 -0.46302,-0.004 -0.463021,-0.004 v 0.39687 0.39688 l 0.198437,-0.004 0.198438,-0.004 z m 57.948586,-0.2446 0.0934,-0.0782 0.61333,0.23318 0.61332,0.23319 0.42955,-0.65557 0.42954,-0.65557 -0.0589,-1.13864 -0.0589,-1.13863 -1.27572,0.12258 -1.27572,0.12258 -5.9e-4,-0.36439 -6e-4,-0.36439 1.91882,0.0623 1.91883,0.0623 -0.64159,-0.26931 -0.64159,-0.26931 -0.72932,0.11494 -0.72932,0.11494 -0.16718,-0.16719 -0.16719,-0.16718 -1.04159,-0.03 -1.0416,-0.03 v 0.22315 0.22314 l 0.59532,0.008 0.59531,0.008 -0.46302,0.35149 -0.46302,0.35148 v 0.31718 0.31717 l -0.29407,-0.18174 -0.29406,-0.18174 0.19202,1.42289 0.19203,1.4229 0.11825,0.19941 0.11826,0.19941 0.71139,-0.17048 0.71139,-0.17049 z m -0.11652,-1.19146 0.0525,-0.75779 0.18378,-0.18378 0.18379,-0.18379 v 0.33699 0.33699 l 0.41062,-0.15757 0.41061,-0.15757 -0.14768,0.23895 -0.14768,0.23896 0.26023,0.0887 0.26023,0.0887 -0.75941,0.43445 -0.75942,0.43445 z m 12.32629,1.30711 v -0.30156 l -0.46302,-0.35149 -0.46302,-0.35148 0.52917,-0.05 0.52916,-0.05 -1.32291,-0.15687 -1.32292,-0.15687 -0.59531,0.097 -0.59532,0.097 v 0.58651 0.58652 l 0.17639,0.17639 0.17639,0.17639 h 1.6757 1.67569 z m -62.706244,-0.49219 0.396875,-0.25648 -0.294039,-0.004 -0.294039,-0.004 0.123343,-0.7276 0.123343,-0.7276 -0.439619,0.59531 -0.43962,0.59531 h -0.381872 -0.381872 v 0.39688 0.39687 l 0.595313,-0.004 0.595312,-0.004 z m 24.077083,-1.19387 v -1.37858 l -0.630444,0.12051 -0.630445,0.12052 -0.17892,-0.2895 -0.178921,-0.2895 h 0.41249 0.41249 v -0.26458 -0.26459 h -0.529166 -0.529167 l -0.03133,0.72761 -0.03133,0.7276 0.03133,0.19844 0.03133,0.19844 H 91.75055 91.530064 v -0.81703 -0.81703 l -0.374827,-0.23282 -0.374826,-0.23283 -0.08874,0.25775 -0.08874,0.25776 -0.241985,-0.14956 -0.241985,-0.14956 v 0.95728 0.95727 l -0.216709,-0.13394 -0.216708,-0.13393 0.120968,0.84592 0.120968,0.84593 0.255767,0.16504 0.255767,0.16505 1.692057,-0.007 1.692056,-0.007 z m -21.541902,0.6647 h 0.375236 v -0.23812 -0.23813 h -0.907585 -0.907585 l 0.147978,0.38562 0.147977,0.38563 0.384372,-0.1475 0.384372,-0.1475 z m -3.064347,-1.05833 v -0.52917 h -0.529167 -0.529167 l 0.06615,0.33073 0.06615,0.33073 0.264583,0.19439 0.264584,0.19438 0.198437,0.004 0.198438,0.004 z m 39.00957,0.11096 0.4182,-0.41821 -0.15033,-0.24325 -0.15034,-0.24325 -0.31512,0.004 -0.31511,0.004 -0.36928,0.23383 -0.36929,0.23383 0.16254,0.42358 0.16255,0.42357 h 0.25399 0.25398 z m -55.67832,-2.12916 0.661458,-0.0161 0.918004,-0.18748 0.918004,-0.18747 0.105944,-0.10595 0.105943,-0.10594 -0.17604,-0.93838 -0.176041,-0.93838 h -0.283439 -0.283439 l 0.128197,0.67062 0.128196,0.67061 -0.139154,-0.13915 -0.139153,-0.13915 -0.355074,0.29468 -0.355073,0.29469 v -0.27297 -0.27297 l -1.066906,0.51547 -1.066905,0.51547 -0.256011,-0.15822 -0.256011,-0.15823 v 0.22729 0.22728 l 0.316025,0.31602 0.316026,0.31603 0.146995,-0.20582 0.146996,-0.20581 z m -3.864344,-1.00177 -0.161021,-0.41962 H 48.154187 47.78562 v 0.39688 0.39687 h 0.264583 0.264584 l 0.008,0.46303 0.008,0.46302 0.256959,-0.44029 0.25696,-0.44028 z m 88.200274,0.69342 0.46302,-0.47447 0.34585,-0.43076 0.34585,-0.43076 -0.55238,0.14445 -0.55238,0.14446 -0.38878,0.55506 -0.38878,0.55506 v 0.20571 0.20571 h 0.13229 0.13229 z m -79.717033,-0.56557 0.152211,-0.24628 0.711532,0.12903 0.711532,0.12902 0.63678,-0.15982 0.63678,-0.15982 -0.458078,-0.50617 -0.458078,-0.50617 -0.166934,0.0208 -0.166934,0.0208 -0.992187,-0.0313 -0.992188,-0.0313 v -0.38857 -0.38857 l -0.419059,0.16081 -0.419059,0.16081 0.352913,0.22371 0.352913,0.22371 -0.330729,0.004 -0.330729,0.004 v 0.47625 0.47625 l 0.3175,0.3175 0.3175,0.3175 h 0.196052 0.196052 z m 73.697763,-0.0339 v -0.2802 l -0.26458,0.16352 -0.26459,0.16352 v -0.22392 -0.22392 l -0.79375,-0.0605 -0.79375,-0.0605 v 0.29964 0.29965 l 0.52891,-0.13831 0.5289,-0.13831 0.14817,0.23974 0.14817,0.23974 h 0.38126 0.38126 z m -79.771868,-0.24897 -0.163522,-0.26459 1.140094,-0.0417 1.140094,-0.0417 0.330729,0.0123 0.330729,0.0123 v -0.36748 -0.36748 h -1.402291 -1.402292 l -0.261433,-0.26143 -0.261432,-0.26143 -0.04369,0.57997 -0.04369,0.57997 0.284601,0.34292 0.284601,0.34292 h 0.115509 0.11551 z m 12.435416,-0.33196 0.264583,-0.26335 -0.330729,-0.12127 -0.330729,-0.12127 v -0.6111 -0.6111 l -0.389218,-0.14936 -0.389218,-0.14936 -0.385633,0.38564 -0.385633,0.38563 h -0.828264 -0.828264 l 0.181809,0.29417 0.181808,0.29417 1.289015,-0.17099 1.289015,-0.17099 v 0.40598 0.40599 H 61.676245 60.48562 v 0.22049 0.22048 l 0.166622,0.16663 0.166621,0.16662 1.222441,-0.15682 1.222441,-0.15683 z m 48.895322,-0.19721 h 0.9474 l 0.15942,0.25795 0.15942,0.25794 1.24526,-0.16221 1.24526,-0.1622 0.3103,-0.24348 0.3103,-0.24347 0.11669,0.61076 0.11668,0.61075 -0.0129,-2.11666 -0.0129,-2.11667 -0.0972,1.39094 -0.0972,1.39093 -0.51527,-0.27576 -0.51528,-0.27577 -0.51146,0.27373 -0.51147,0.27373 0.0227,-0.79732 0.0227,-0.79731 -0.15457,-0.15457 -0.15456,-0.15456 -0.67245,0.48902 -0.67244,0.48902 0.10539,0.30079 0.10538,0.30078 -0.46171,-0.12074 -0.46171,-0.12074 -0.34464,0.41527 -0.34464,0.41527 h -0.21307 -0.21307 l 0.14564,-1.41111 0.14564,-1.41111 h -0.42934 -0.42934 v 0.30695 0.30695 l -0.7913,-0.11613 -0.7913,-0.11614 -0.25027,0.62498 -0.25026,0.62498 -0.0168,-0.46302 -0.0168,-0.46302 h -1.07395 -1.07394 l 0.14493,0.2345 0.14493,0.23451 -0.46684,0.12208 -0.46685,0.12208 -0.0666,0.87334 -0.0665,0.87335 2.52335,-0.15055 2.52334,-0.15054 -0.15051,0.24353 -0.15051,0.24353 0.18829,0.30467 0.1883,0.30467 0.31951,-0.43696 0.31951,-0.43696 z m 15.7953,0.6831 v -0.11065 l 0.1606,-0.41852 0.1606,-0.41851 h -0.4408 -0.4408 l 0.16352,0.26458 0.16352,0.26458 h -0.40418 -0.40419 l 0.15419,-0.4018 0.15419,-0.40181 -0.70888,0.26951 -0.70889,0.26952 -1.10725,0.0227 -1.10726,0.0227 0.79375,0.24604 0.79375,0.24604 0.46302,-0.11172 0.46302,-0.11171 v 0.23981 0.23981 h 0.92605 0.92604 z m -78.516749,-0.32971 -0.332378,-0.134 0.116482,-0.18847 0.116482,-0.18848 -0.243074,-0.38424 -0.243073,-0.38424 -0.0041,0.33577 -0.0041,0.33577 -0.661459,-0.16602 -0.661458,-0.16601 v 0.15252 0.15253 l 0.727604,0.39473 0.727604,0.39473 0.396875,-0.0103 0.396875,-0.0103 z m 73.584109,-0.21787 0.15106,-0.39366 0.17592,-1.32614 0.17591,-1.32614 h -0.56325 -0.56325 v 1.7198 1.71979 h 0.23627 0.23628 z m -56.624962,-0.18159 0.33256,-0.31066 -0.394454,-0.87027 -0.394455,-0.87026 -0.346148,0.28728 -0.346148,0.28728 v -0.27671 -0.2767 l -0.79375,0.39598 -0.79375,0.39597 v 0.24015 0.24014 l 1.190625,-0.1632 1.190625,-0.16319 v 0.4561 0.45609 l -1.058333,-0.1788 -1.058334,-0.17881 v 0.42013 0.42013 h 1.069501 1.0695 z m 34.458792,-0.30578 0.96072,0.10587 0.32724,-0.27159 0.32724,-0.27159 0.14892,0.14892 0.14892,0.14891 0.17811,-0.81092 0.1781,-0.81093 -0.41751,-0.41752 -0.41752,-0.41751 v 0.15119 0.15119 l -0.0188,0.19844 -0.0188,0.19843 -0.39792,0.22269 -0.39793,0.22269 -0.17093,-0.17093 -0.17093,-0.17093 0.387,-0.23918 0.387,-0.23918 -0.32851,-0.32851 -0.32852,-0.32852 v 0.44979 0.44979 h -0.52917 -0.52916 l -0.008,-0.7276 -0.008,-0.72761 -0.30612,0.52917 -0.306115,0.52917 -0.61188,0.48222 -0.61188,0.48223 v 0.25468 0.25469 l 0.51178,-0.27389 0.51177,-0.27389 h 0.14968 0.14969 v 0.23374 0.23374 l -0.66777,0.12765 -0.66778,0.12765 -0.14824,-0.23986 -0.14824,-0.23986 -0.57305,0.15409 -0.57304,0.15409 0.66145,-0.38878 0.66146,-0.38878 -0.39687,-0.14311 -0.39688,-0.14312 -0.50532,0.0578 -0.505317,0.0578 -0.624217,0.6124 -0.624216,0.61239 0.125699,0.20339 0.125699,0.20339 0.826925,-0.12137 0.826927,-0.12137 0.65626,0.35122 0.65626,0.35122 0.51378,-0.32086 0.51378,-0.32086 -0.0323,0.20127 -0.0323,0.20127 0.0394,0.39687 0.0394,0.39688 0.2497,-0.4273 0.249685,-0.4273 z m 4.34755,-0.24346 0.003,-0.8599 0.164,-0.99218 0.164,-0.99219 h -0.2992 -0.2992 v 0.38756 0.38757 l -0.48864,0.26151 -0.48863,0.26151 -0.28547,-0.28547 -0.28547,-0.28547 0.0763,0.69473 0.0763,0.69472 h -0.2282 -0.2282 v 0.39688 0.39687 h 0.2802 0.2802 l -0.1399,0.22637 -0.1399,0.22636 0.65345,-0.12492 0.65345,-0.12491 v 0.29543 0.29542 h 0.26458 0.26459 z m 15.34292,0.39193 v -0.48454 l -0.3175,-0.3175 -0.3175,-0.3175 h -0.44385 -0.44385 l -0.32658,0.39351 -0.32658,0.39351 0.13206,0.34415 0.13207,0.34416 0.95587,0.0644 0.95586,0.0644 z m -45.885461,-0.35772 0.143784,-0.23265 h 1.159395 1.159395 l 0.163521,-0.26458 0.163522,-0.26459 -0.743219,-0.0464 -0.743219,-0.0464 -1.119599,-0.0369 -1.119599,-0.0369 -0.181269,-0.18127 -0.181269,-0.18127 0.507118,-0.0201 0.507118,-0.0201 1.813067,0.0387 1.813068,0.0387 -0.177704,-0.28753 -0.177704,-0.28753 -0.275882,0.1705 -0.275883,0.17051 -0.175539,-0.28403 -0.175539,-0.28403 -0.964322,0.21749 -0.964322,0.21749 -0.697987,-0.13343 -0.697986,-0.13342 0.143347,-0.37356 0.143347,-0.37356 -0.301705,-0.48311 -0.301706,-0.4831 -0.487754,0.12755 -0.487754,0.12755 0.0039,0.0353 0.0039,0.0353 0.500712,1.5875 0.500712,1.5875 0.752162,-0.0599 0.752162,-0.0599 -0.595312,0.2498 -0.595313,0.24979 v 0.11604 0.11605 l 0.53329,-0.13946 0.53329,-0.13946 z m -5.348016,-0.10036 0.152295,-0.39687 h -0.520862 -0.520863 v 0.25628 0.25628 l -0.370112,-0.14203 -0.370113,-0.14202 -0.174669,0.28262 -0.174669,0.28262 h 0.913349 0.913349 z m 25.422564,-1.59106 0.137578,-1.58394 -0.302819,0.87504 -0.302819,0.87503 -0.783702,0.15674 -0.783701,0.15674 0.760172,0.35879 0.760172,0.35879 -0.79375,-0.15336 -0.79375,-0.15335 -0.09817,-0.27496 -0.09817,-0.27496 -0.228504,0.36067 -0.228504,0.36067 -0.0041,-0.33297 -0.0041,-0.33298 -0.529166,0.33047 -0.529167,0.33047 5.52e-4,0.1348 5.53e-4,0.13479 1.355904,0.0468 1.355903,0.0468 0.283961,0.28396 0.28396,0.28396 0.202,-0.202 0.202,-0.202 z m -22.607827,1.33579 v -0.38757 l -0.542816,-0.2905 -0.542815,-0.29051 -0.581664,0.11287 -0.581664,0.11288 0.727604,0.036 0.727605,0.036 v 0.26458 0.26459 h -0.264584 -0.264583 v 0.26458 0.26458 h 0.661458 0.661459 z m 8.254999,-0.1416 h 1.005417 v -0.2808 -0.28079 l -1.159342,0.17385 -1.159343,0.17386 -0.179189,-0.28994 -0.179189,-0.28993 0.743219,-0.0216 0.743219,-0.0216 -0.852464,-0.37302 -0.852465,-0.37301 0.153168,-0.39915 0.153168,-0.39915 h 0.25189 0.251891 l -0.163521,0.26458 -0.163522,0.26458 h 0.544782 0.544781 l 0.0041,-0.33072 0.0041,-0.33073 0.256481,0.39687 0.25648,0.39688 v -0.26459 -0.26458 l -0.223524,-0.35261 -0.223525,-0.35261 -0.896903,0.088 -0.896903,0.088 -0.132292,1.19063 -0.132292,1.19062 0.386816,0.45985 0.386816,0.45985 0.261414,-0.26141 0.261413,-0.26141 z m 9.334547,-1.23438 0.155702,-1.36667 -0.535274,0.13998 -0.535273,0.13998 0.174796,0.30065 0.174796,0.30065 -0.613302,-0.52917 -0.613303,-0.52917 -0.115684,0.33073 -0.115685,0.33073 h -1.0519 -1.051899 l 0.156001,0.25242 0.156001,0.25241 -0.170854,0.68074 -0.170854,0.68074 -0.342852,-0.28455 -0.342852,-0.28454 -0.182341,0.29504 -0.182341,0.29503 0.147007,0.14701 0.147008,0.14701 2.061908,0.12163 2.061908,0.12163 0.115044,0.11504 0.115044,0.11504 0.201748,-0.20284 0.201749,-0.20285 z m -2.971318,1.04765 -0.595312,-0.11466 v -0.24618 -0.24618 h 0.629061 0.629062 l 0.308388,-0.37159 0.308387,-0.37158 -0.937449,0.21143 -0.937449,0.21143 v -0.34025 -0.34026 l 1.256771,0.0637 1.256771,0.0637 0.335903,0.0399 0.335904,0.0399 -0.125832,0.69392 -0.125832,0.69392 -0.158312,0.15831 -0.158312,0.15831 -0.184051,-0.25692 -0.184052,-0.25692 -0.330729,-0.0661 -0.330729,-0.0661 v 0.26458 0.26459 l -0.198438,-0.036 -0.198437,-0.036 z m -2.307944,-0.144 0.201168,-0.59531 0.0315,-0.31206 0.0315,-0.31205 0.166286,-0.16629 0.166286,-0.16629 -0.119984,-0.45882 -0.119985,-0.45882 -0.759887,-0.0579 -0.759887,-0.0579 -0.151634,0.24535 -0.151634,0.24534 0.288457,1.34503 0.288457,1.34503 h 0.344091 0.344092 z m -15.617576,-0.19844 0.529167,-0.22739 -0.859896,-0.0583 -0.859896,-0.0583 -0.308681,-0.0265 -0.30868,-0.0265 -0.110243,0.33073 -0.110243,0.33072 0.749652,-0.0186 0.749653,-0.0186 z m 7.011458,-1.5875 v -0.26458 h 0.38126 0.38126 l 0.138044,-0.22336 0.138043,-0.22336 -1.357328,0.0478 -1.357329,0.0478 -0.06461,0.44018 -0.06461,0.44018 h 0.90263 0.90263 z m 36.031384,-3.13569 0.0842,-2.28827 -0.14779,-2.51354 -0.14779,-2.51354 -0.0506,1.12448 -0.0506,1.12448 h -0.23956 -0.23956 l 0.13735,-2.24636 0.13735,-2.24635 -0.60438,-0.22358 -0.60439,-0.22358 -4.12205,0.0575 -4.12205,0.0574 0.99334,-0.22945 0.99335,-0.22945 3.83556,-0.07 3.83555,-0.07 0.0101,0.52917 0.0101,0.52916 0.37375,-0.85989 0.37374,-0.8599 4.97371,-0.0523 4.97371,-0.0523 -2.91041,-0.15998 -2.91042,-0.15998 3.42635,-0.0523 3.42636,-0.0523 -0.25136,-0.2378 -0.25135,-0.23779 -1.98438,-0.16646 -1.98437,-0.16646 -3.11412,-0.15294 -3.11413,-0.15293 -0.38001,0.31538 -0.38002,0.31538 -0.27617,-0.17068 -0.27618,-0.17068 v 0.53279 0.53279 l -0.85989,0.13078 -0.8599,0.13077 -6.91252,0.15599 -6.912514,0.15598 -0.146095,-0.73779 -0.146095,-0.73779 0.04716,-4.05866 0.04716,-4.05867 -1.5875,0.15138 -1.5875,0.15139 -3.175,0.17357 -3.175,0.17358 -0.396875,0.0613 -0.396875,0.0613 -0.437157,-0.22569 -0.437157,-0.2257 0.172574,1.51683 0.172574,1.51682 v 3.20078 3.20078 l 2.116666,-0.0217 2.116667,-0.0217 2.579687,0.062 2.579688,0.062 v 0.39687 0.39688 h -1.987502 -1.987502 l 0.16674,1.04273 0.16674,1.04273 -0.282141,0.80935 -0.282141,0.80936 h 2.102903 2.102903 v 4.10104 4.10104 l 1.785937,0.0126 1.78594,0.0126 6.085405,0.14363 6.08542,0.14364 0.0581,0.0562 0.0581,0.0562 0.91604,-0.10695 0.91605,-0.10694 z m -17.269382,-1.94192 -0.02341,-3.52135 0.03249,-2.36828 0.03249,-2.36828 0.05707,-0.013 0.05707,-0.013 2.645837,0.1472 2.645825,0.1472 -2.447395,0.0512 -2.447392,0.0512 v 5.54063 5.54064 l -0.264583,0.16352 -0.264583,0.16352 z m 16.467222,0.38126 -0.0396,-3.24115 0.19843,-2e-4 0.19844,-2.1e-4 -0.0745,2.57989 -0.0745,2.5799 -0.0843,0.66145 -0.0843,0.66146 z m -15.014399,-2.4474 v -4.10104 l 0.09018,2.05052 0.09018,2.05052 -0.09018,2.05052 -0.09018,2.05052 z m 1.401874,3.50285 -0.740592,-0.10092 0.07939,-3.75148 0.07939,-3.75149 6.283597,-0.0709 6.2836,-0.0709 v 0.6442 0.6442 l -0.33073,0.13345 -0.33073,0.13345 0.33073,0.0209 0.33073,0.0209 v 3.175 3.175 l -2.57969,-0.004 -2.57969,-0.004 0.38425,-0.24308 0.38424,-0.24307 0.22876,0.14138 0.22877,0.14139 -0.0594,-0.35728 -0.0594,-0.35728 0.20233,-0.46302 0.20233,-0.46303 h 0.37709 0.3771 l 0.22755,-0.59531 0.22756,-0.59531 0.18901,0.72578 0.18902,0.72577 0.23636,-0.14608 0.23636,-0.14607 v -0.63754 -0.63754 l 0.46302,0.14894 0.46302,0.14895 -0.26458,-0.2234 -0.26458,-0.22339 -0.27883,-0.50604 -0.27883,-0.50603 -0.44878,-0.0659 -0.44877,-0.0659 -0.0313,0.30732 -0.0313,0.30732 0.0313,0.19844 0.0313,0.19844 h -0.2802 -0.2802 l 0.16352,0.26458 0.16352,0.26458 h -0.40418 -0.40419 l 0.11537,0.33073 0.11537,0.33073 -0.62301,0.76068 -0.623,0.76067 -2.34494,-0.002 -2.34494,-0.002 -0.13229,0.1916 -0.13229,0.19159 -0.793747,0.1237 -0.79375,0.1237 z m 1.80247,-1.12733 0.12759,-0.20644 -0.92546,0.0262 -0.92547,0.0262 v 0.1901 0.1901 l 0.33073,0.11128 0.33073,0.11127 0.46715,-0.12116 0.46714,-0.12117 z m 4.626655,-0.15048 v -0.38956 l 0.39688,-0.1523 0.39687,-0.15229 v -0.36857 -0.36857 h -0.50711 -0.50712 l -0.13345,0.33073 -0.13346,0.33073 -0.0209,-0.46302 -0.0209,-0.46302 h 0.38858 0.38857 l -0.15912,-0.41466 -0.15912,-0.41466 -0.27316,0.27316 -0.27316,0.27316 -0.31964,-0.43713 -0.31964,-0.43713 -0.18365,0.57863 -0.18365,0.57863 h -0.19502 -0.19503 l -0.0645,1.09252 -0.0645,1.09252 0.51262,-0.13405 0.51261,-0.13405 0.34738,0.2147 0.34739,0.21469 0.21107,-0.13045 0.21107,-0.13044 z m -3.0427,-1.43129 -0.16353,-0.26458 0.47864,-0.0307 0.47864,-0.0307 -0.438,-0.11618 -0.438,-0.11618 -0.17802,-0.70928 -0.17802,-0.70928 -0.25702,0.45928 -0.25703,0.45928 h -0.500395 -0.50041 l -0.1744,0.28218 -0.1744,0.28219 0.19501,0.18084 0.19501,0.18083 0.11811,-0.33073 0.11812,-0.33073 h 0.25815 0.25815 l -0.14639,0.23686 -0.14638,0.23686 0.378255,0.14515 0.37826,0.14515 0.1285,-0.31586 0.12849,-0.31587 0.0209,0.46302 0.0209,0.46303 h 0.2802 0.2802 z m -9.921874,-4.73285 v -1.05768 l 1.337367,0.0104 1.337368,0.0104 -0.0806,0.96668 -0.0806,0.96667 -1.256771,0.0807 -1.256771,0.0806 z m -5.595675,-5.17614 -0.09287,-1.51939 0.198438,-0.12225 0.198437,-0.12226 v -0.67824 -0.67824 l 0.358926,0.29788 0.358926,0.29788 1.29472,0.26392 1.29472,0.26391 1.190625,0.12195 1.190625,0.12194 1.632268,0.0637 1.632268,0.0637 0.08752,1.36997 0.08752,1.36997 -1.719791,0.16202 -1.719792,0.16202 -2.711979,0.002 -2.711979,0.002 -0.0041,-0.33073 -0.0041,-0.33073 -0.233811,0.36925 -0.233812,0.36926 z m -0.171154,-3.99154 0.07829,-2.10676 1.5875,-0.0189 1.5875,-0.0189 -1.47977,0.0966 -1.47977,0.0966 -0.02947,1.87252 -0.02947,1.87252 -0.156551,0.15655 -0.156552,0.15655 z m 31.166823,18.27815 v -1.44322 l -0.99219,-0.15887 -0.99218,-0.15886 -0.42545,-0.0831 -0.42544,-0.0831 -0.43445,0.24313 -0.43446,0.24313 v 1.2922 1.29219 l 0.72761,0.11023 0.7276,0.11022 1.12448,0.0396 1.12448,0.0396 z m -3.30391,0.43236 -0.13567,-0.13567 0.008,-0.55122 0.008,-0.55121 0.32231,0.39687 0.32232,0.39688 0.9643,0.0836 0.9643,0.0837 0.27822,-0.74512 0.27823,-0.74511 -0.0402,0.99714 -0.0402,0.99714 -1.39742,-0.0457 -1.39741,-0.0457 z m 10.43835,0.2345 0.27389,-0.51177 v -0.1653 -0.1653 l -0.25231,0.15593 -0.25231,0.15594 -0.0927,-1.79397 -0.0927,-1.79397 -0.0518,2.18282 -0.0518,2.18281 -1.78593,-0.0457 -1.78594,-0.0457 1.71979,-0.16215 1.71979,-0.16215 -0.44336,-0.20982 -0.44337,-0.20982 -2.12637,0.0869 -2.12637,0.0869 -0.0793,-1.71979 -0.0793,-1.71979 -0.1291,2.18343 -0.12911,2.18343 2.96726,-6.2e-4 2.96725,-6.2e-4 z m 2.91973,0.14123 v -0.37055 l -0.92957,0.0864 -0.92956,0.0864 0.14429,-0.23346 0.14428,-0.23346 0.45455,0.14569 0.45455,0.1457 -0.388,-0.27441 -0.388,-0.27441 -0.33961,0.28185 -0.3396,0.28185 v 0.21621 0.21621 l 0.99219,0.10379 0.99219,0.10379 0.0661,0.0445 0.0661,0.0445 z m 1.58345,0.0554 0.004,0.34634 0.29283,-0.18098 0.29283,-0.18098 -0.35898,-0.22746 -0.35898,-0.22746 -0.59531,-0.004 -0.59531,-0.004 v 0.2802 0.2802 l 0.2463,-0.15222 0.2463,-0.15223 0.18365,0.29715 0.18365,0.29715 0.22745,-0.35898 0.22746,-0.35898 z m -74.677138,-0.2802 -0.112788,-0.33073 -0.636865,0.0965 -0.636864,0.0965 -1.852083,0.19831 -1.852084,0.19831 2.601736,0.0359 2.601736,0.0359 z m 40.285357,-0.69453 v -0.76068 l 0.165365,-0.82682 0.165364,-0.82683 h -1.885156 -1.885156 v 1.44072 1.44071 l 1.256771,0.0991 1.256771,0.0991 0.46302,0.0477 0.463021,0.0477 z m -37.835298,0.29765 1.17e-4,-0.19843 3.37332,-0.0283 3.37332,-0.0283 2.53559,-0.0679 2.53559,-0.0679 0.0049,-0.30075 0.0049,-0.30076 0.205042,-2.64584 0.205042,-2.64583 0.05247,-0.7276 0.05247,-0.72761 0.0463,-1.81538 0.0463,-1.81537 1.210758,0.27706 1.210759,0.27706 0.213363,-0.34523 0.213363,-0.34523 0.176647,-1.88677 0.176648,-1.88676 0.136852,-0.46302 0.136852,-0.46302 H 71.52041 71.142395 l 0.09927,0.7276 0.09927,0.7276 -0.247082,-0.52916 -0.247082,-0.52917 0.132816,1.45521 0.132815,1.45521 -0.301897,-0.39688 -0.301896,-0.39687 0.17117,1.12448 0.17117,1.12448 -0.883152,-0.0264 -0.883152,-0.0264 0.661458,-0.22542 0.661459,-0.22542 -0.886849,0.0534 -0.886849,0.0533 0.0082,-0.26458 0.0082,-0.26459 -0.380177,-0.21275 -0.380176,-0.21276 -0.262488,0.16223 -0.262488,0.16222 v -0.3085 -0.30851 l -0.43041,0.16516 -0.430411,0.16517 -0.297193,-0.23309 -0.297194,-0.23308 -0.463021,-0.0306 -0.463021,-0.0306 -0.666283,-0.0386 -0.666284,-0.0386 -0.12773,-0.20668 -0.12773,-0.20667 -0.499042,0.13051 -0.499043,0.1305 -0.162416,-0.2628 -0.162415,-0.26279 -0.570277,0.14913 -0.570276,0.14913 0.206765,-0.33455 0.206766,-0.33456 -0.859951,0.18888 -0.859952,0.18888 0.178545,-0.28889 0.178545,-0.2889 -0.848043,0.16961 -0.848043,0.16961 0.165426,-0.26766 0.165425,-0.26767 -0.664578,0.12705 -0.664577,0.12704 0.165466,0.16546 0.165466,0.16547 0.242535,0.0331 0.242535,0.0331 0.463021,0.0371 0.46302,0.0371 -0.396875,0.25649 -0.396875,0.25648 h 0.264584 0.264583 l 0.388001,-0.2454 0.388002,-0.2454 0.317646,0.26362 0.317647,0.26363 0.925463,0.052 0.925464,0.052 -0.308195,0.37224 -0.308195,0.37225 1.276685,-0.14355 1.276685,-0.14355 0.143073,0.37284 0.143072,0.37284 0.829201,-0.003 0.829201,-0.003 0.540829,0.053 0.540829,0.053 0.473196,0.44925 0.473196,0.44925 -1.12347,-0.25242 -1.123471,-0.25243 -0.419721,0.0922 -0.419721,0.0922 1.229065,0.19551 1.229065,0.19551 0.156384,0.58326 0.156385,0.58325 -0.03795,1.85209 -0.03795,1.85208 -0.195223,-1.32292 -0.195222,-1.32291 0.0817,3.57187 0.0817,3.57188 -0.200215,-1.32292 -0.200214,-1.32292 -0.04157,1.38907 -0.04157,1.38906 h -5.767705 -5.767705 l 0.104462,-0.89479 0.104462,-0.89479 -0.313724,-0.1939 -0.313723,-0.19389 0.10599,1.69428 0.105991,1.69427 0.198049,0.32045 0.198049,0.32045 h 0.248969 0.248968 z m -0.163639,-1.07668 0.497937,-0.21151 5.316865,-0.072 5.316865,-0.072 0.270614,-0.14957 0.270615,-0.14957 -0.333864,0.35945 -0.333865,0.35945 -5.751552,0.0736 -5.751552,0.0736 z m 34.336908,-0.23615 0.09015,-1.53144 -0.08415,-0.87656 -0.08415,-0.87656 -2.790431,0.0828 -2.790432,0.0828 0.16953,-1.64932 0.16953,-1.64931 0.252738,-0.59964 0.252738,-0.59964 -0.15796,1.88171 -0.157959,1.88171 2.434314,0.19043 2.434314,0.19043 0.08113,-0.0878 0.08114,-0.0878 -0.140516,-3.10886 -0.140515,-3.10885 h -2.476637 -2.476637 v 1.19062 1.19063 h -0.476649 -0.47665 l -6.037558,-0.40989 -6.037558,-0.4099 -0.383858,-0.38385 -0.383858,-0.38386 -0.708705,0.0186 -0.708705,0.0186 0.529166,0.21288 0.529167,0.21288 0.198437,-0.1148 0.198438,-0.1148 v 0.26459 0.26458 l -0.233366,0.14423 -0.233367,0.14423 -0.184568,1.72347 -0.184568,1.72347 -0.574253,0.0313 -0.574253,0.0313 0.79375,0.20198 0.79375,0.20197 -1.058333,0.0609 -1.058334,0.0609 1.289286,0.24658 1.289286,0.24657 0.114931,-0.11493 0.11493,-0.11493 0.222491,-2.21175 0.22249,-2.21176 0.01532,2.77813 0.01533,2.77812 0.07776,1.85208 0.07776,1.85209 2.778125,0.13229 2.778124,0.13229 6.259846,0.0762 6.259845,0.0762 z m -4.14818,0.22745 -0.127291,-0.12729 v -0.76883 -0.76884 l 1.406122,0.0651 1.406122,0.0651 0.31367,-0.19386 0.31367,-0.19386 -0.02637,0.47864 -0.02637,0.47863 -0.172064,0.5543 -0.172063,0.5543 -1.394064,-0.008 -1.394063,-0.008 z m -13.356457,-1.92298 v -1.88388 l 1.57835,0.11416 1.578351,0.11417 0.144572,-0.37675 0.144572,-0.37675 0.390831,0.32437 0.390831,0.32436 -0.137016,0.22169 -0.137015,0.2217 1.055757,0.31631 1.055757,0.31631 2.391463,-0.24399 2.391463,-0.24399 -0.0036,0.93278 -0.0036,0.93277 -0.159538,0.59531 -0.159537,0.59531 h -5.260808 -5.260808 z m 11.83907,1.55316 -0.123795,-0.33073 0.194662,-1.19063 0.194662,-1.19062 0.03312,1.52135 0.03312,1.52135 h -0.103984 -0.103984 z m -2.986766,-3.85097 -0.193001,-0.87439 -0.35703,0.137 -0.35703,0.13701 0.324356,-0.51938 0.324357,-0.51938 h 0.348845 0.348845 l -0.163521,0.26459 -0.163522,0.26458 0.610928,0.004 0.610927,0.004 -0.384242,0.24308 -0.384242,0.24307 -0.277217,-0.15725 -0.277216,-0.15726 0.217112,0.23749 0.217112,0.23748 0.444346,0.003 0.444347,0.003 -0.0913,0.52916 -0.0913,0.52917 -0.121524,0.12463 -0.121524,0.12463 -0.218169,-0.35301 -0.21817,-0.353 -0.139583,0.36067 -0.139583,0.36066 z m 4.580231,-2.63133 -0.122859,-1.78593 0.02655,-0.0448 0.02655,-0.0448 1.719131,-0.071 1.719131,-0.071 0.04173,1.83557 0.04173,1.83558 -0.208864,-0.79375 -0.208863,-0.79375 -0.03131,0.8599 -0.0313,0.85989 h -1.424385 -1.424386 z m 2.50861,0.0728 0.463021,-0.19559 v -0.50086 -0.50085 h -0.529166 -0.529167 v 0.38126 0.38126 l -0.261553,0.16164 -0.261552,0.16165 0.178799,-0.47676 0.178799,-0.47676 -0.446413,0.36312 -0.446413,0.36313 v 0.34643 0.34643 l 0.595312,-0.0793 0.595313,-0.0793 z m -17.95736,6.93863 0.110534,-0.59531 -0.0087,-1.19063 -0.0087,-1.19062 -0.207027,0.52917 -0.207027,0.52916 -0.157523,0.49282 -0.157523,0.49282 -0.362845,-0.30113 -0.362846,-0.30114 -0.158965,0.41426 -0.158965,0.41425 0.458796,-0.0768 0.458795,-0.0768 0.08187,0.57485 0.08187,0.57485 -0.611033,0.11672 -0.611033,0.11672 0.854855,0.036 0.854855,0.036 z m 54.359252,-0.66104 0.0423,-0.99218 0.11819,-0.59532 0.11818,-0.59531 h -0.24939 -0.2494 l -0.0242,0.19844 -0.0242,0.19844 -0.0621,1.05833 -0.0621,1.05833 0.11458,0.33073 0.11458,0.33073 h 0.0606 0.0606 z m -71.466222,-1.71979 -0.106712,-0.85989 v 1.71979 1.71979 l 0.106712,-0.8599 0.106712,-0.85989 z m -2.602324,0.80014 0.205059,-0.55432 0.180023,0.46913 0.180022,0.46913 0.393744,-0.32678 0.393745,-0.32678 v -0.36448 -0.36448 h -1.424364 -1.424364 l -0.126446,0.66146 -0.126446,0.66146 h 0.227893 0.227893 v 0.40619 0.40618 l 0.544091,-0.29119 0.544091,-0.29119 z m 65.467506,-1.23967 -0.1539,-1.29942 0.2849,-0.81724 0.28489,-0.81724 -1.90447,0.0209 -1.90446,0.0209 0.26458,0.11122 0.26458,0.11122 -0.0905,1.38925 -0.0905,1.38924 -0.24019,0.25136 -0.24019,0.25135 v 0.34396 0.34396 h 1.83961 1.83962 z m -2.73159,-0.81724 v -1.05833 h 1.19063 1.19062 v 1.05833 1.05833 h -1.19062 -1.19063 z m -19.663468,-0.59531 0.05883,-2.05052 H 92.38603 90.709838 l -0.159538,0.59531 -0.159537,0.59531 -0.0036,1.53345 -0.0036,1.53344 1.780514,-0.0782 1.780514,-0.0782 z m -2.437535,0.7276 -0.123988,-0.39687 -0.129261,-0.41062 -0.129261,-0.41062 0.306516,0.18944 0.306516,0.18944 -0.168951,-0.44028 -0.168951,-0.44028 h 0.933709 0.93371 l -0.08212,0.97174 -0.08212,0.97173 -0.367558,0.12093 -0.367558,0.12092 0.18344,-0.29681 0.183441,-0.29682 -0.239483,-0.42793 -0.239482,-0.42793 -0.172571,0.44971 -0.172571,0.44971 0.148765,0.24071 0.148765,0.24071 H 91.978342 91.68984 Z m 30.832253,0.22523 -0.92604,-0.0827 -2.15844,-0.0713 -2.15844,-0.0713 0.12354,0.19844 0.12353,0.19844 2.96095,-0.0445 2.96095,-0.0445 z m -66.801349,-2.7135 -0.0059,-2.62056 -0.198437,0.12264 -0.198438,0.12263 v 2.07941 2.07942 l 0.160599,0.41851 0.160599,0.41852 h 0.04377 0.04377 z m -2.651766,1.81464 -1.322917,-0.20605 -1.322916,0.0117 -1.322917,0.0117 0.926042,0.19493 0.926041,0.19492 1.719792,-5.2e-4 1.719791,-5.3e-4 z m 70.898845,-2.48269 -0.009,-2.75799 0.18325,0.11325 0.18324,0.11325 -0.14131,-0.54035 -0.1413,-0.54035 -0.29704,0.0981 -0.29704,0.0982 -0.14665,2.75694 -0.14665,2.75695 -0.10108,-2.64583 -0.10108,-2.64584 -0.14915,2.24896 -0.14914,2.24896 -1.92865,0.0488 -1.92865,0.0488 0.0766,-2.16544 0.0766,-2.16543 1.32292,-0.15687 1.32291,-0.15687 -0.79375,-0.0909 -0.79375,-0.0909 -0.82221,-0.0444 -0.82222,-0.0444 -0.15742,2.7799 -0.15743,2.7799 -0.21098,0.21199 -0.21099,0.21199 0.0827,-3.22338 0.0827,-3.22338 -0.11199,0.12675 -0.11198,0.12675 -0.16687,3.24114 -0.16688,3.24115 3.37121,-7.3e-4 3.3712,-7.3e-4 z m 1.92201,-0.61399 -0.10378,-0.99219 v 1.98438 1.98437 l 0.10378,-0.99218 0.10379,-0.99219 z m -72.017566,0.52917 -0.0072,-1.78594 0.191354,-2.38125 0.191354,-2.38125 -0.238836,0.92604 -0.238835,0.92604 -0.203427,2.51355 -0.203427,2.51354 -0.04789,0.19843 -0.04789,0.19844 -0.03307,0.27409 -0.03307,0.27409 -2.381249,-0.17976 -2.38125,-0.17976 v 0.26392 0.26392 l 2.043945,0.0541 2.043945,0.0541 0.116819,0.11682 0.116818,0.11682 h 0.55961 0.559609 z m 6.681462,0.008 0.287268,-0.85178 -0.446426,0.23715 -0.446427,0.23715 -0.46302,0.1433 -0.463021,0.1433 0.02089,0.33904 0.02089,0.33903 0.133452,-0.33073 0.133452,-0.33073 h 0.374827 0.374826 v 0.57327 0.57326 l 0.09301,-0.11024 0.09301,-0.11025 z m 1.54678,0.25646 0.178071,-0.7276 0.282575,-0.18421 0.282576,-0.1842 -0.458975,-0.17613 -0.458976,-0.17612 -0.393505,0.32658 -0.393506,0.32658 v 0.58496 0.58497 l 0.176389,0.17639 0.176389,0.17639 h 0.215445 0.215446 z m 7.321394,-2.94429 0.315825,-0.38291 -0.396875,0.13026 -0.396875,0.13026 -0.0229,1.831 -0.0229,1.83099 0.103954,-1.57835 0.103954,-1.57834 z m 47.59131,1.02545 0.0849,-2.38185 -2.05052,6e-4 -2.05053,6.1e-4 v 0.26459 0.26458 h 1.85882 1.85881 l -0.047,1.43862 -0.047,1.43862 -0.22025,0.34732 -0.22025,0.34731 -0.0437,-1.05833 -0.0437,-1.05833 -0.11023,0.7276 -0.11022,0.72761 h -0.86235 -0.86234 l -0.62141,0.66145 -0.62141,0.66146 h 2.01172 2.01172 z m -32.972017,-0.58419 0.05965,-0.40644 0.140027,-3.53928 0.140027,-3.53927 0.173814,-0.44378 0.173815,-0.44378 -0.08707,-0.61455 -0.08707,-0.61456 -0.859896,0.003 -0.859896,0.003 v -0.1625 -0.1625 l -2.711979,-0.32064 -2.711979,-0.32065 -1.058333,-0.0873 -1.058334,-0.0873 -0.396874,-0.13718 -0.396875,-0.13719 -1.058334,-0.14337 -1.058333,-0.14337 0.468586,0.26936 0.468585,0.26937 -0.157523,0.25488 -0.157523,0.25488 0.218104,-0.0379 0.218104,-0.0379 0.396875,0.0354 0.396875,0.0354 -0.343253,0.21774 -0.343253,0.21774 0.343253,0.262 0.343253,0.262 3.571875,0.31238 3.571875,0.31237 0.998695,0.16555 0.998694,0.16555 -0.119917,0.42734 -0.119918,0.42735 -0.182143,3.27 -0.182144,3.26999 -1.754967,-0.17777 -1.754967,-0.17778 -1.195386,-0.0889 -1.195387,-0.0889 -1.133342,-0.30518 -1.133343,-0.30518 -0.146974,-0.383 -0.146974,-0.38301 h -0.254106 -0.254105 l 0.158006,0.49783 0.158006,0.49784 -0.338614,0.13048 -0.338614,0.13048 0.04431,-1.48821 0.04431,-1.48821 -0.113993,0.66146 -0.113992,0.66145 -0.163497,1.19063 -0.163498,1.19062 -0.119599,-0.33073 -0.119599,-0.33072 h -0.209462 -0.209462 v 0.62796 0.62796 l 1.885156,0.15929 1.885156,0.15929 3.307292,0.17289 3.307292,0.17288 0.102964,0.0909 0.102964,0.0909 0.536652,-0.0819 0.536652,-0.0819 z m -0.828822,-3.25166 0.175671,-3.175 0.146525,-1.1 0.146524,-1.1 -0.489392,-0.10376 -0.489391,-0.10377 0.686326,-0.14072 0.686327,-0.14071 -0.07856,0.68302 -0.07856,0.68303 -0.296142,3.70122 -0.296143,3.70123 -0.144424,0.13523 -0.144425,0.13523 z m 33.080789,2.57969 0.12691,-0.33073 h -1.31461 -1.31462 v 0.33073 0.33073 h 1.1877 1.1877 z m 23.31068,-1.40244 0.29715,-0.24661 0.15677,0.15676 0.15677,0.15677 0.74493,-0.71422 0.74493,-0.71423 -0.52917,0.2528 -0.52917,0.2528 -0.83457,0.43465 -0.83457,0.43466 h -0.40659 -0.40658 l -0.1533,0.24804 -0.15329,0.24804 0.72477,-0.13143 0.72478,-0.13143 z m -66.64768,-0.1367 0.15912,-0.41466 -0.299715,-0.29971 -0.299715,-0.29972 -0.02637,0.38365 -0.02637,0.38364 -0.211836,-0.66145 -0.211836,-0.66146 -0.02637,0.57969 -0.02637,0.5797 0.268899,0.16619 0.268899,0.16619 -0.152222,0.2463 -0.152223,0.2463 h 0.288503 0.288502 z m 47.12328,0.22561 -0.72287,-0.10977 -0.86463,0.10707 -0.86464,0.10707 1.5875,0.003 1.5875,0.003 z m -10.31085,-1.26871 0.0788,-0.0668 0.0535,-4.28769 0.0535,-4.28769 -2.24896,0.14899 -2.24895,0.14898 -4.17929,0.16693 -4.179284,0.16692 0.059,2.81585 0.059,2.81584 0.11228,1.40908 0.11228,1.40907 6.124684,-0.18631 6.12468,-0.1863 z m -11.323675,-2.18026 -1.1e-4,-1.25677 2.182915,0.0565 2.18292,0.0565 0.83074,-0.12914 0.83074,-0.12914 0.13944,-0.53321 0.13944,-0.53321 0.74961,0.17934 0.74961,0.17933 0.35633,0.28175 0.35634,0.28175 0.25212,-0.45052 0.25213,-0.45052 h 0.64831 0.64831 v 1.6821 1.6821 l -1.62631,0.16998 -1.62631,0.16998 h -3.53307 -3.533055 z m 6.285205,0.39688 -0.10899,-0.33073 -1.36827,-0.08 -1.36827,-0.08 v 0.4107 0.41071 h 1.47726 1.47726 z m -24.508281,1.38906 0.03307,-0.26458 0.03307,-0.45802 0.03307,-0.45802 -0.661459,-0.005 -0.661458,-0.005 0.06575,-0.61068 0.06575,-0.61068 -0.287238,0.17752 -0.287237,0.17752 0.142182,0.56546 0.142182,0.56545 -0.358315,-0.47886 -0.358315,-0.47885 -0.175974,0.28473 -0.175974,0.28473 -0.257064,-0.15887 -0.257064,-0.15887 0.154092,-0.57305 0.154091,-0.57305 -0.372616,0.63557 -0.372617,0.63556 0.125588,0.48025 0.125588,0.48025 0.434429,0.33939 0.434429,0.3394 -0.396875,-0.51256 -0.396875,-0.51256 0.463021,0.17353 0.46302,0.17352 v -0.20315 -0.20315 l 0.939437,0.10968 0.939437,0.10967 -0.451277,0.49866 -0.451277,0.49865 h 0.570173 0.570174 z m -12.222502,-0.87551 -0.0186,-0.5797 -0.22739,0.52917 -0.227391,0.52916 -0.02265,-0.39687 -0.02265,-0.39688 -0.232133,0.36654 -0.232133,0.36654 -0.75546,-0.18961 -0.755461,-0.1896 0.184469,0.18446 0.184468,0.18447 0.873323,0.19153 0.873322,0.19152 0.198437,-0.10552 0.198438,-0.10551 z m -1.360756,-2.69945 0.340439,-1.31983 -0.141623,-0.97027 -0.141623,-0.97026 0.311806,-0.10394 0.311805,-0.10393 -0.15936,-0.41529 -0.15936,-0.41529 -1.256026,-0.42797 -1.256027,-0.42797 -0.112601,0.1126 -0.112601,0.1126 0.178493,0.81267 0.178492,0.81267 h 0.259175 0.259176 l -0.160319,-0.2594 -0.160318,-0.2594 0.804489,0.45784 0.804489,0.45784 -0.0019,0.52916 -0.0019,0.52917 -0.165386,0.61768 -0.165387,0.61768 -0.223824,-0.3531 -0.223824,-0.35309 -0.0041,0.32242 -0.0041,0.32243 -0.370112,-0.14203 -0.370112,-0.14202 -0.177337,0.28693 -0.177337,0.28694 -0.24817,-0.15338 -0.248169,-0.15337 -0.158731,0.41364 -0.15873,0.41365 h -0.236276 -0.236276 v -0.27565 -0.27565 l -0.540722,-0.58039 -0.540723,-0.5804 0.276139,-0.0921 0.276139,-0.0921 v -0.65502 -0.65502 l 0.309547,0.19131 0.309546,0.19131 -0.16581,-0.4321 -0.16581,-0.43209 0.357136,-0.68838 0.357136,-0.68838 0.139698,0.34946 0.139698,0.34947 0.02089,-0.56321 0.02089,-0.56322 -0.727604,-0.27894 -0.727604,-0.27894 -0.661459,-0.18817 -0.661458,-0.18816 -0.646527,-0.42273 -0.646527,-0.42273 -0.742536,-0.0373 -0.742535,-0.0374 -0.03964,0.69665 -0.03964,0.69664 -0.110223,-0.7276 -0.110223,-0.72761 h -0.3793 -0.379301 l -0.0463,0.92604 -0.0463,0.92605 -0.0463,0.76409 -0.0463,0.76409 -0.160423,0.41806 -0.160424,0.41806 0.253028,0.15638 0.253028,0.15638 0.03307,-0.2802 0.03307,-0.2802 0.03307,-0.24253 0.03307,-0.24254 0.198438,-0.19843 0.198437,-0.19844 0.02089,-0.68351 0.02089,-0.68351 0.140157,0.35085 0.140157,0.35084 -0.299699,1.10437 -0.2997,1.10436 -0.05134,0.7276 -0.05134,0.72761 h -0.184827 -0.184827 l -0.133452,-0.33073 -0.133453,-0.33073 -0.02089,0.46302 -0.02089,0.46302 h 0.225101 0.225102 l 0.767086,-0.26331 0.767086,-0.2633 0.77651,0.21158 0.77651,0.21159 0.104647,0.31394 0.104647,0.31394 -0.881157,-0.16793 -0.881157,-0.16793 0.162638,0.17859 0.162637,0.17859 0.498821,0.11846 0.498821,0.11845 2.645833,0.78125 2.645833,0.78124 0.396875,-0.0512 0.396875,-0.0512 z m -5.614664,-1.68849 -0.164188,-0.26566 0.309998,-1.27034 0.309997,-1.27034 0.224101,-0.28893 0.2241,-0.28893 -0.196142,-0.21651 -0.196142,-0.21651 0.303883,0.17373 0.303883,0.17373 -0.0393,1.7831 -0.0393,1.78309 -0.438352,0.0846 -0.438352,0.0846 z m -0.826513,-1.69253 -0.17608,-0.45885 0.178826,-1.1925 0.178826,-1.1925 0.197364,0.12198 0.197364,0.12198 0.05126,1.13991 0.05126,1.13992 -0.251373,0.38946 -0.251373,0.38946 z m -0.889833,-0.13724 -0.02089,-0.34634 -0.281458,0.17395 -0.281459,0.17395 0.186799,-1.01823 0.186799,-1.01824 0.197101,-0.52916 0.197102,-0.52917 0.188923,0.97799 0.188923,0.97799 -0.270477,0.7418 -0.270477,0.7418 z m -5.558867,3.71978 -0.140055,-0.99219 -0.08907,0.87212 -0.08908,0.87212 -0.445346,-0.13041 -0.445346,-0.1304 -1.058333,-0.14113 -1.058333,-0.14113 1.190625,0.36563 1.190625,0.36563 0.542183,0.026 0.542184,0.026 z m 61.607566,-0.0854 -0.3748,-0.23724 0.28084,-0.004 0.28084,-0.004 0.56488,-0.52627 0.56489,-0.52627 1.53552,-0.7057 1.53553,-0.70569 0.3055,-0.003 0.30551,-0.003 -0.13538,-0.35278 -0.13537,-0.35278 -1.62534,-0.0264 -1.62534,-0.0264 0.66146,-0.18424 0.66146,-0.18425 -0.41408,-0.15917 -0.41408,-0.15917 -1.76888,0.0391 -1.76888,0.0391 1.5e-4,-0.19843 1.4e-4,-0.19844 2.71198,-0.0536 2.71198,-0.0536 -3.30729,-0.15732 -3.30729,-0.15733 2.71198,-0.0536 2.71198,-0.0536 4.4e-4,-0.19844 4.5e-4,-0.19843 -3.57232,0.0805 -3.57232,0.0805 0.004,0.58099 0.004,0.58099 0.26053,-0.39687 0.26053,-0.39688 0.23527,0.36507 0.23527,0.36506 0.82307,-0.1208 0.82306,-0.1208 v 0.21876 0.21876 h -0.70247 -0.70246 l 0.41572,0.46302 0.41572,0.46302 -0.14027,0.72391 -0.14027,0.72391 0.16294,0.86852 0.16293,0.86851 1.36649,0.0379 1.36649,0.0379 z m -43.257796,-4.52089 0.12999,-0.70368 -0.346433,-0.13294 -0.346434,-0.13293 0.101785,0.92364 0.101785,0.92365 -0.289992,-0.17923 -0.289992,-0.17922 0.185788,0.99033 0.185787,0.99033 -0.329497,-0.20364 -0.329497,-0.20364 0.181607,0.82685 0.181607,0.82686 -0.484043,0.0186 -0.484044,0.0186 0.529167,0.20951 0.529167,0.2095 0.321629,-1.74946 0.32163,-1.74945 z m -19.089188,1.0344 0.139929,-1.38907 -0.172412,-0.17441 -0.172411,-0.17442 -1.389063,-0.40663 -1.389062,-0.40664 0.0039,1.24251 0.0039,1.24251 0.326829,-0.64056 0.326829,-0.64057 0.297041,-0.0979 0.297041,-0.0979 0.156032,0.59667 0.156031,0.59666 -0.23997,0.14831 -0.239971,0.14831 0.05892,0.39033 0.05892,0.39032 0.206612,0.33073 0.206612,0.33073 h 0.612181 0.612181 z m 17.597781,-1.02505 0.08268,-0.42972 -0.454856,-0.17455 -0.454857,-0.17454 -0.215539,0.33969 -0.215539,0.33969 -0.0041,0.2946 -0.0041,0.29461 0.59177,-0.03 0.59177,-0.03 z m -1.429892,-1.04752 0.171107,-0.94809 H 68.88707 68.549838 l 0.09814,1.02912 0.09814,1.02912 0.06798,-0.081 0.06798,-0.081 z m 38.528255,-0.0251 0.39687,-0.25166 -1.69246,0.1494 -1.69245,0.1494 h -2.49035 -2.490335 l 0.13894,0.22481 0.13894,0.22481 3.646985,-0.12255 3.64698,-0.12255 z m -54.235224,-3.54572 0.306456,-1.47619 -0.129138,-0.12914 -0.129137,-0.12914 -0.189286,1.14231 -0.189286,1.14231 -0.243167,0.46302 -0.243166,0.46302 h 0.255134 0.255134 z m 6.556893,0.62858 0.07896,-0.40689 -0.541716,-0.14166 -0.541715,-0.14166 -0.146106,0.2364 -0.146107,0.23641 0.344281,0.38941 0.34428,0.38941 0.264583,-0.0773 0.264583,-0.0773 z m 32.464792,0.0601 6.085414,-0.26815 1.12448,0.11323 1.124475,0.11323 v -0.21399 -0.21399 l 2.05052,-0.0395 2.05052,-0.0395 4.49792,-0.39813 4.49792,-0.39814 0.99218,0.081 0.99219,0.081 v -0.0515 -0.0515 l -0.15419,-0.40181 -0.15419,-0.4018 -0.37497,0.14389 -0.37498,0.14389 -0.008,-0.49133 -0.008,-0.49133 -0.26969,0.46302 -0.26968,0.46303 h -0.78061 -0.7806 l -0.008,-0.33073 -0.008,-0.33073 -0.35148,0.46302 -0.35148,0.46302 h -0.69844 -0.69843 l -0.008,-0.46302 -0.008,-0.46302 -0.35149,0.46302 -0.35148,0.46302 h -0.69844 -0.69843 l -0.006,-0.46302 -0.006,-0.46302 -0.48169,0.62634 -0.48168,0.62635 -0.57077,-0.18116 -0.57076,-0.18115 v -0.19045 -0.19045 l -0.59198,-0.0446 -0.59198,-0.0446 0.39354,0.24882 0.39354,0.24882 -0.13229,0.0223 -0.13229,0.0223 -0.71173,0.0943 -0.71172,0.0943 0.14472,-0.37714 0.14472,-0.37713 h -0.29289 -0.29289 v 0.39688 0.39687 h -0.39688 -0.39687 v -0.28434 -0.28434 l -3.373435,0.14203 -3.373437,0.14203 -0.346344,0.01 -0.346344,0.01 0.152222,0.2463 0.152223,0.2463 -0.298481,0.18447 -0.29848,0.18447 -0.168857,-0.25163 -0.168856,-0.25163 -0.456023,-0.16815 -0.456024,-0.16815 -0.205435,0.35122 -0.205434,0.35123 -0.595313,0.18478 -0.595312,0.18478 v -0.4147 -0.41471 h -0.264584 -0.264583 v 0.39688 0.39687 h -0.785446 -0.785446 l 0.152295,-0.39687 0.152295,-0.39688 H 90.41336 90.12047 v 0.39688 0.39687 H 89.309605 88.50024 l 0.163521,-0.26458 0.163522,-0.26458 h -0.280198 -0.280199 v 0.39687 0.39688 h -0.822057 -0.822058 l 0.152296,-0.39688 0.152295,-0.39687 h -0.25628 -0.256279 v 0.39687 0.39688 h -0.396875 -0.396875 l -0.05487,-6.81302 -0.05487,-6.81303 -0.143571,6.39468 -0.143571,6.39468 -0.198437,0.19786 -0.198438,0.19785 -0.0041,-0.37482 -0.0041,-0.37483 -0.260539,0.39688 -0.260538,0.39687 -0.158356,-0.577 -0.158356,-0.57701 -0.370804,0.14229 -0.370804,0.14229 v -0.40956 -0.40957 l -0.305464,-0.18879 -0.305463,-0.18879 0.188787,0.30547 0.188787,0.30546 h -0.280199 -0.280198 v -0.51355 -0.51355 l -0.234503,-0.14493 -0.234503,-0.14493 -0.137707,0.52659 -0.137707,0.52659 1.5572,1.09232 1.5572,1.09231 -0.167537,0.27108 -0.167537,0.27108 0.305464,-0.18878 0.305463,-0.18879 v 0.28524 0.28524 l 0.595313,-0.13242 0.595312,-0.13241 z m 49.469299,-2.51203 -0.18891,-2.01595 -0.13229,0.13229 -0.1323,0.13229 0.18891,2.01595 0.18891,2.01595 0.1323,-0.13229 0.13229,-0.13229 z M 81.652286,162.7224 v -0.24294 l -0.160599,-0.41852 -0.160599,-0.41851 h -0.251891 -0.251891 l 0.163522,0.26458 0.163521,0.26459 h -0.251515 -0.251515 l -0.193596,-0.72761 -0.193596,-0.7276 -0.121719,0.33073 -0.121719,0.33073 h -0.25815 -0.258149 l 0.130448,-0.21107 0.130449,-0.21107 -0.267269,-0.38425 -0.267268,-0.38424 -0.134747,0.33238 -0.134746,0.33238 -0.241986,-0.14956 -0.241985,-0.14955 v -0.51356 -0.51355 h -0.242535 -0.242534 l -0.127563,0.33073 -0.127563,0.33073 -0.335587,-0.91251 -0.335586,-0.91252 -0.191218,0.51564 -0.191218,0.51564 -0.277403,-0.7019 -0.277402,-0.7019 -0.325867,-0.2014 -0.325866,-0.2014 0.16895,0.44028 0.168951,0.44028 h -0.255521 -0.25552 l -0.376051,-0.8599 -0.376051,-0.85989 -0.02158,0.49542 -0.02158,0.49541 -0.396875,-0.32937 -0.396875,-0.32938 v -0.33208 -0.33208 l -0.402932,-0.33441 -0.402932,-0.3344 0.167808,0.4373 0.167807,0.4373 -0.426334,-0.1636 -0.426333,-0.1636 v -0.318 -0.318 l -0.418475,-0.51359 -0.418474,-0.51359 0.154071,0.48513 0.154071,0.48513 -0.330909,-0.10748 -0.330909,-0.10747 -0.450313,-0.90682 -0.450312,-0.90682 -0.01271,0.48507 -0.01271,0.48507 -0.330729,-0.10729 -0.330729,-0.10728 -0.465103,-0.9731 -0.465103,-0.9731 h -0.14804 -0.148039 l 0.175159,0.55188 0.175158,0.55187 -0.554204,-0.2966 -0.554203,-0.2966 v -0.33699 -0.337 l -0.410575,-0.51359 -0.410575,-0.51359 0.170947,0.61776 0.170946,0.61776 -0.686413,-0.44975 -0.686414,-0.44976 v -0.31587 -0.31588 l -0.410575,-0.51359 -0.410574,-0.51359 0.174587,0.62924 0.174588,0.62923 -0.682029,-0.49694 -0.682029,-0.49695 -0.313568,-0.92182 -0.313567,-0.92183 -0.205028,0.52495 -0.205029,0.52495 -0.05463,-0.79375 -0.05463,-0.79375 -0.114663,0.59532 -0.114662,0.59531 h -0.250462 -0.250461 l -0.441599,-0.92604 -0.441598,-0.92604 h -0.207276 -0.207275 l 0.152295,0.39687 0.152295,0.39688 -0.226745,-0.009 -0.226745,-0.009 -0.588905,-0.49144 -0.588906,-0.49144 -0.06269,-0.82267 -0.06269,-0.82268 h -0.20151 -0.20151 l -0.410464,-0.79375 -0.410464,-0.79375 h -1.829674 -1.829674 l -0.153351,0.24813 -0.153351,0.24813 1.162416,0.79976 1.162415,0.79976 0.148836,-0.14883 0.148835,-0.14884 0.612423,0.42896 0.612422,0.42896 -0.0078,0.19334 -0.0078,0.19334 0.318597,-0.0732 0.318597,-0.0732 0.193124,0.31248 0.193123,0.31248 -0.346344,-0.21406 -0.346344,-0.21405 0.191455,0.30978 0.191454,0.30978 0.238621,-0.14747 0.23862,-0.14748 7.258825,5.15085 7.258825,5.15085 3.79521,2.77365 3.795209,2.77365 0.198438,0.0239 0.198437,0.0239 z m 34.290084,-4.71799 0.0157,-4.96094 -0.17028,2.24896 -0.17027,2.24896 -0.0912,-0.52917 -0.0912,-0.52917 0.0386,-0.52916 0.0386,-0.52917 -0.26263,0.44206 -0.26264,0.44207 0.25858,0.68012 0.25858,0.68011 -0.14982,0.46532 -0.14983,0.46532 0.28549,-0.39687 0.28549,-0.39688 0.004,0.31512 0.004,0.31511 -0.26556,0.16412 -0.26555,0.16412 0.11935,0.5791 0.11935,0.5791 0.16524,1.52135 0.16525,1.52136 h 0.0525 0.0525 z m -0.79647,-4.28992 -0.0135,-1.57794 -0.16044,0.32117 -0.16044,0.32117 0.0478,0.79375 0.0478,0.79375 0.0413,0.46302 0.0413,0.46302 h 0.0848 0.0848 z m -13.64987,-3.9895 10.18646,-1.05476 0.79375,-0.2257 0.79375,-0.2257 -2.11667,0.10543 -2.11666,0.10544 -2.91042,0.26493 -2.91042,0.26493 -3.968745,0.39215 -3.968747,0.39214 -3.439584,0.40521 -3.439583,0.40521 -0.926042,0.24648 -0.926041,0.24647 2.38125,-0.13373 2.38125,-0.13374 z m -7.143744,-0.39428 3.307289,-0.37516 6.244545,-0.66741 6.24455,-0.66742 1.40819,-0.26705 1.40819,-0.26706 0.15247,-0.15928 0.15247,-0.15928 -1.12448,0.12644 -1.12448,0.12644 v -0.89134 -0.89133 h 0.42518 0.42519 l -0.1439,-0.37498 -0.14389,-0.37497 0.36669,-0.14072 0.3667,-0.14071 -0.1302,0.3393 -0.13021,0.33931 h 0.40826 0.40826 v -0.13351 -0.13351 l -0.43788,-0.48385 -0.43788,-0.48386 -12.989715,0.036 -12.989724,0.036 0.577657,0.11234 0.577657,0.11235 -0.03788,0.50295 -0.03789,0.50294 -0.495384,-0.0756 -0.495385,-0.0756 -0.225366,-0.36465 -0.225367,-0.36465 0.130449,-0.21107 0.130448,-0.21107 h -2.442985 -2.442986 l 0.537578,0.59532 0.537577,0.59531 1.653041,1.98437 1.653042,1.98438 0.302897,-0.0882 0.302898,-0.0882 -0.189128,0.18913 -0.189129,0.18913 0.28174,0.52643 0.281739,0.52644 2.420931,-0.17951 2.42093,-0.1795 z m 4.085419,-2.03581 0.48475,-0.27129 1.352935,-0.0717 1.35293,-0.0717 -0.52916,0.19968 -0.52917,0.19968 -1.308515,0.14331 -1.30852,0.14331 z m -16.174812,-1.06445 -0.247937,-0.33073 -0.865026,-1.12448 -0.865026,-1.12448 h -0.262809 -0.262809 l 1.243223,1.45521 1.243224,1.45521 h 0.132548 0.132549 z"
       id="path8" /></g></svg>
