<?xml version="1.0" encoding="UTF-8" standalone="no"?>
<!-- Created with Inkscape (http://www.inkscape.org/) -->

<svg
   width="101.6mm"
   height="84.666672mm"
   viewBox="0 0 101.6 84.666672"
   version="1.1"
   id="svg1"
   xml:space="preserve"
   xmlns="http://www.w3.org/2000/svg"
   xmlns:svg="http://www.w3.org/2000/svg"><defs
     id="defs1" /><g
     id="layer1"
     transform="translate(-46.991864,-45.212023)"><path
       style="fill:#ffffff;fill-opacity:1"
       d="m 46.991862,87.545362 v -42.33334 h 50.8 50.799998 v 42.33334 42.333328 h -50.799998 -50.8 z m 4.36578,40.694118 -0.0977,-0.77198 0.355626,-0.13647 0.355625,-0.13647 0.16121,-0.64231 0.16121,-0.64231 h 0.363526 0.363527 l 0.158731,-0.41365 0.158731,-0.41364 0.2178,0.13461 0.217803,0.1346 0.908546,-0.32597 0.908546,-0.32597 0.867667,-0.46414 0.867666,-0.46414 0.268403,0.16589 0.268403,0.16588 0.325626,-0.27025 0.325627,-0.27024 1.184137,-0.39157 1.184138,-0.39158 0.529167,-0.12401 0.529166,-0.12402 -0.79375,-0.0348 -0.79375,-0.0347 -0.396875,-0.26171 -0.396875,-0.26172 1.791464,0.10905 1.791465,0.10905 0.406564,-0.40657 0.406565,-0.40656 -0.139204,-0.36276 -0.139204,-0.36276 h 0.256279 0.25628 v 0.28348 0.28348 l 0.377237,-0.37723 0.377237,-0.37724 0.08578,-0.89254 0.08578,-0.89254 0.332737,0.73857 0.332737,0.73856 -0.332737,-0.19993 -0.332737,-0.19994 0.386888,0.4763 0.386888,0.47629 -0.448921,0.32826 -0.448921,0.32826 0.172275,0.17228 0.172277,0.17227 -0.639409,0.008 -0.63941,0.008 0.396875,0.23097 0.396875,0.23097 0.79375,0.0536 0.79375,0.0536 0.191889,-0.028 0.191889,-0.028 -0.264773,-0.6964 -0.264773,-0.69641 0.149102,-0.46978 0.149101,-0.46977 0.424673,-0.16297 0.424672,-0.16296 0.132126,0.13213 0.132126,0.13212 -0.334684,0.40327 -0.334683,0.40327 h 0.27221 0.27221 l -0.146588,0.59531 -0.146587,0.59532 0.191274,-0.17426 0.191273,-0.17426 0.773834,0.22194 0.773834,0.22193 v -0.45778 -0.45778 l 0.31309,-0.31309 0.31309,-0.31309 -0.15875,-0.15875 -0.158749,-0.15875 -0.529167,0.52916 -0.529167,0.52917 -0.15434,-0.15434 -0.15434,-0.15434 v -0.46874 -0.46874 l 0.79375,-0.86905 0.79375,-0.86904 v -0.83111 -0.83111 l 0.992187,0.0302 0.992188,0.0302 -0.07775,-0.46302 -0.07774,-0.46302 h 0.644749 0.64475 l 0.160599,-0.41852 0.160599,-0.41851 v -0.52958 -0.52957 l -0.330729,0.11858 -0.330729,0.11859 -0.456957,-0.23489 -0.456957,-0.2349 -0.535231,0.53523 -0.53523,0.53523 v -0.39687 -0.39688 h -0.251068 -0.251068 l -0.818357,1.71472 -0.818356,1.71471 -1.17925,0.81134 -1.179249,0.81135 -0.911864,-0.25178 -0.911864,-0.25178 -0.08061,0.94642 -0.08061,0.94641 -0.330909,0.10871 -0.330909,0.1087 0.160779,-0.41898 0.160779,-0.41898 h -0.271251 -0.271251 l -0.376094,-0.14432 -0.376093,-0.14432 0.02372,1.1097 0.02372,1.1097 -0.317299,0.11052 -0.3173,0.11053 0.226973,-0.79141 0.226972,-0.7914 -0.0941,-0.0941 -0.0941,-0.0941 -0.148781,-0.84451 -0.148781,-0.8445 0.465499,0.16601 0.465499,0.16601 0.33073,0.25591 0.330729,0.2559 v -0.41306 -0.41306 l -1.190625,-0.17854 -1.190625,-0.17855 v -0.21607 -0.21607 l -0.842372,0.24159 -0.842372,0.24159 -0.127767,-0.12777 -0.127767,-0.12777 0.156493,-0.15649 0.156493,-0.15649 1.938125,0.0166 1.938125,0.0166 -0.396875,-0.25297 -0.396875,-0.25296 0.463021,-0.004 0.463021,-0.004 v 0.39688 0.39687 h 0.513551 0.513552 l 0.167858,-0.2716 0.167858,-0.2716 0.44307,0.0732 0.443069,0.0732 0.170039,0.23425 0.170038,0.23424 0.644498,-0.16175 0.644497,-0.16176 0.319849,-0.702 0.31985,-0.70199 0.162478,0.16248 0.162479,0.16248 0.356782,-0.6877 0.356782,-0.6877 v -0.36663 -0.36663 h 0.227893 0.227893 l -0.111538,-0.59531 -0.111537,-0.59531 1.333874,-0.60617 1.333874,-0.60616 0.203416,-0.0208 0.203416,-0.0208 0.595313,-0.22634 0.595312,-0.22634 v 0.12933 0.12934 l -0.320713,0.51354 -0.320714,0.51354 0.182028,0.18203 0.182028,0.18203 0.409663,-0.33999 0.409663,-0.33999 -0.126087,-0.12609 -0.126086,-0.12608 0.397801,-0.3978 0.397801,-0.3978 0.912516,0.14808 0.912517,0.14808 v -0.38024 -0.38024 h 0.520863 0.520862 l -0.166149,0.43297 -0.166149,0.43298 0.372891,-0.13067 0.37289,-0.13067 0.680383,0.47584 0.680382,0.47583 0.489234,1.08493 0.489235,1.08493 0.318332,-0.12216 0.318333,-0.12215 0.342484,0.63993 0.342484,0.63994 -0.191174,0.19117 -0.191174,0.19118 -0.235811,-0.38155 -0.235811,-0.38155 -0.150383,0.15038 -0.150383,0.15038 0.559462,0.71124 0.559462,0.71124 0.48031,-0.15244 0.48031,-0.15244 0.170173,0.27534 0.170174,0.27535 -0.610928,0.0209 -0.610927,0.0209 0.736332,0.26866 0.736333,0.26865 0.454292,-0.19925 0.454293,-0.19926 0.203362,0.0436 0.203362,0.0436 0.288884,-0.63403 0.288884,-0.63403 0.636224,-0.3405 0.636224,-0.34049 0.366065,-0.7338 0.366066,-0.73379 -0.303911,-0.12878 -0.30391,-0.12878 0.529166,-0.42753 0.529167,-0.42753 0.0872,0.56343 0.0872,0.56342 0.397462,-0.15252 0.397462,-0.15252 h 0.39085 0.39085 l -0.13961,-0.22589 -0.13961,-0.22589 0.672989,-0.30664 0.672988,-0.30663 0.244757,0.15127 0.244757,0.15126 v -0.28019 -0.2802 h 0.264583 0.264583 l 0.490615,-0.49062 0.490614,-0.49061 -0.358526,-0.68427 -0.358525,-0.68427 0.269102,-0.16632 0.269102,-0.16631 -0.131045,-0.21204 -0.131044,-0.21203 -0.377783,-1.42333 -0.377782,-1.42333 -0.197066,-0.4938 -0.197066,-0.4938 0.578778,0.30975 0.578778,0.30976 0.155872,0.77936 0.155872,0.77936 h 0.166923 0.166922 l 0.352012,0.79525 0.352011,0.79524 0.219145,-0.13543 0.219145,-0.13544 0.110801,0.33237 0.110801,0.33238 1.830026,0.032 1.830028,0.0319 0.985388,0.0342 0.98539,0.0342 0.40811,0.78919 0.40811,0.78919 0.16606,1.21158 0.16607,1.21158 -1.16269,-0.16829 -1.16269,-0.16829 -1.521358,-0.14449 -1.52135,-0.14448 5.55e-4,-0.16664 5.55e-4,-0.16664 -1.722673,0.0888 -1.722673,0.0888 -0.725278,0.72281 -0.725277,0.72281 -1.322917,0.76606 -1.322917,0.76605 -0.08874,0.2099 -0.08874,0.20989 -0.218758,-0.1352 -0.218759,-0.1352 0.08882,0.46428 0.08882,0.46429 0.02024,0.19843 0.02024,0.19844 h 0.295442 0.295442 l -0.13838,-0.52917 -0.13838,-0.52916 h 0.239813 0.239813 v 0.26458 0.26458 h 0.235186 0.235185 l -0.03675,-0.43769 -0.03675,-0.4377 0.727604,-0.20088 0.727605,-0.20088 v 0.22938 0.22938 l 1.124479,-0.0361 1.124479,-0.0362 0.926042,0.18583 0.926041,0.18582 -0.529166,-0.25422 -0.529167,-0.25422 0.57701,-0.17379 0.57701,-0.17378 0.132422,-0.34508 0.132421,-0.34509 -0.398323,-0.48874 -0.398323,-0.48873 0.133582,0.2758 0.133583,0.27581 -0.513492,0.0387 -0.513492,0.0387 0.42028,-0.42028 0.42028,-0.42028 1.051908,0.53421 1.051908,0.53421 -0.609637,0.19494 -0.609637,0.19494 0.472153,0.12541 0.472154,0.1254 0.626769,0.62677 0.626768,0.62677 -0.30517,0.12568 -0.305174,0.12568 0.396874,0.30968 0.39688,0.30969 -0.43716,-0.13902 -0.437151,-0.13902 -0.155864,0.15586 -0.155863,0.15586 0.328434,0.40587 0.328434,0.40586 -0.33073,-0.1987 -0.330729,-0.19869 v 0.5161 0.51609 l -0.702507,0.17632 -0.702506,0.17632 -0.189094,-0.30596 -0.189093,-0.30596 -0.497463,0.11668 -0.497462,0.11668 0.691437,0.28593 0.691437,0.28593 0.137721,0.52664 0.137721,0.52665 -0.532793,0.13933 -0.532793,0.13933 0.14153,0.36882 0.141531,0.36882 -0.657495,0.84012 -0.657494,0.84013 -0.277747,-0.17166 -0.277747,-0.17166 0.117008,0.35102 0.117007,0.35103 0.295529,0.0985 0.295529,0.0985 1.0856,-1.40488 1.0856,-1.40489 0.606134,-0.66146 0.606134,-0.66146 1.202195,-1.5875 1.202188,-1.5875 0.8289,-0.63489 0.82891,-0.63488 0.0146,-0.42345 0.0146,-0.42345 0.71296,-0.56039 0.71297,-0.5604 -0.003,2.41248 -0.003,2.41248 -0.8405,1.45521 -0.84049,1.45521 -1.00844,1.37308 -1.008438,1.37308 -0.92604,1.51266 -0.926041,1.51267 -0.71582,1.083 -0.715821,1.083 23.18889,0.0676 23.18889,0.0676 0.17838,-0.28864 0.17839,-0.28864 0.22839,0.0425 0.22838,0.0424 0.0948,-0.28443 0.0948,-0.28443 h -0.24241 -0.24254 v -0.39687 -0.39688 h 0.22049 0.22049 v -0.38126 -0.38126 l -0.30955,-0.19131 -0.30955,-0.19131 0.16895,0.44028 0.16895,0.44028 h -0.24066 -0.24066 l -0.14078,-0.22779 -0.14078,-0.22778 -1.6773,-0.13464 -1.67729,-0.13464 -0.77723,-0.42073 -0.77723,-0.42073 0.23084,-0.0106 0.23083,-0.0106 -0.30959,-0.37304 -0.3096,-0.37303 0.56121,-0.39309 0.56122,-0.39309 -0.28402,-0.17553 -0.28401,-0.17553 v -0.88838 -0.88838 l 0.2623,-0.0882 0.2623,-0.0882 0.0584,-0.70853 0.0584,-0.70853 0.20846,0.12883 0.20845,0.12884 0.0313,-0.34635 0.0313,-0.34634 -0.0463,-0.24323 -0.0463,-0.24322 0.41778,0.34672 0.41777,0.34673 -0.15609,0.49181 -0.1561,0.49181 h 0.18524 0.18523 l 0.49983,-0.57631 0.49983,-0.5763 0.32495,0.35054 0.32496,0.35054 -0.33073,-0.18672 -0.33073,-0.18673 v 0.2802 0.2802 l 0.19844,-0.0186 0.19844,-0.0186 0.47284,-0.18675 0.47284,-0.18675 -1.1343,-1.48758 -1.1343,-1.48758 -2.64583,-3.33503 -2.64584,-3.33503 -0.74075,0.12918 -0.74076,0.12918 0.18682,-0.30228 0.18681,-0.30228 -0.57054,0.1492 -0.57054,0.1492 v -0.27067 -0.27067 l -0.52916,0.13838 -0.52917,0.13838 v -0.21789 -0.21789 l -1.36906,-0.29361 -1.36906,-0.29361 -0.21439,0.33783 -0.21439,0.33784 -0.0354,-0.26459 -0.0354,-0.26458 0.0221,-0.17073 0.0221,-0.17072 -0.98295,-0.17411 -0.98295,-0.17411 -0.46302,-0.13602 -0.46303,-0.13601 v 1.34074 1.34075 h 0.36448 0.36448 l 0.31283,0.37694 0.31284,0.37694 -0.87575,0.37664 -0.87575,0.37664 -1.32292,0.43835 -1.32291,0.43836 -0.46302,-0.001 -0.46302,-10e-4 v -0.16927 -0.16927 l 0.4626,-0.33826 0.46261,-0.33827 -0.19163,-0.19163 -0.19163,-0.19162 -0.36355,0.30171 -0.36354,0.30172 -1.29649,-0.27947 -1.2965,-0.27946 -0.92604,-0.19733 -0.92604,-0.19734 1.05632,-0.20811 1.05631,-0.20811 0.1889,-0.11674 0.1889,-0.11675 -0.15768,-0.41091 -0.15769,-0.41092 -0.95524,0.16891 -0.95524,0.16892 -0.48015,0.14145 -0.48016,0.14145 -0.25491,0.57205 -0.25491,0.57204 0.11491,-0.59505 0.11492,-0.59505 -0.23975,-0.14817 -0.23974,-0.14817 v -1.4276 -1.4276 l -0.9243,-0.1734 -0.92431,-0.17341 -0.72934,0.18014 -0.72934,0.18013 0.33103,-0.33652 0.33102,-0.33652 1.25648,0.0698 1.25647,0.0698 0.31629,0.41114 0.31629,0.41114 2.82776,0.50725 2.82776,0.50724 0.1049,-0.1049 0.1049,-0.1049 0.0583,-0.82952 0.0583,-0.82952 0.25723,-5.2e-4 0.25724,-5.3e-4 -0.52182,-0.49971 -0.52182,-0.4997 -2.64583,-0.13247 -2.64583,-0.13247 0.52916,0.21671 0.52917,0.2167 -0.61093,0.0186 -0.61092,0.0186 0.16352,0.26458 0.16352,0.26459 h -0.36839 -0.3684 l -0.0485,-0.33073 -0.0485,-0.33073 -0.0617,-0.70565 -0.0617,-0.70565 -0.19844,-0.19834 -0.19844,-0.19835 v -0.24879 -0.24879 l 0.3937,0.15107 0.3937,0.15108 -0.063,-0.32121 -0.063,-0.3212 0.71128,-0.0821 0.71129,-0.0821 -0.0498,-0.89427 -0.0498,-0.89427 -1.24458,-0.17122 -1.24458,-0.17121 -0.25786,0.15936 -0.25786,0.15937 -0.11517,-0.59924 -0.11518,-0.59923 -0.036,1.25677 -0.036,1.25677 -0.33073,0.004 -0.33073,0.004 0.3469,0.21999 0.3469,0.22 0.0864,1.29207 0.0864,1.29207 -0.5311,0.46062 -0.53109,0.46061 -0.504,-0.26973 -0.50399,-0.26972 0.0885,-2.50076 0.0885,-2.50075 h -0.21427 -0.21428 v -0.35356 -0.35278 h -0.38217 -0.38218 l 0.0514,0.28664 0.0515,0.28663 -0.45454,-0.0353 -0.45454,-0.0353 -0.64484,-0.16185 -0.64484,-0.16184 0.14478,0.55362 0.14477,0.55362 -0.55458,-0.34634 -0.55459,-0.34635 -0.10481,-0.67155 -0.10481,-0.671558 -0.0396,1.367008 -0.0396,1.36702 -0.33073,0.15434 -0.33073,0.15434 0.33073,0.15434 0.33073,0.15434 v 1.41671 1.41672 l -0.46302,-0.036 -0.46303,-0.036 v -2.79183 -2.79182 l -0.0953,-0.456508 -0.0953,-0.4565 -0.83074,-0.12466 -0.83074,-0.12467 -1.32292,-0.12657 -1.32291,-0.12657 0.0625,1.501488 0.0625,1.50149 -0.23082,-0.52917 -0.23081,-0.52917 -0.12005,0.92604 -0.12004,0.92605 -0.0423,-1.40468 -0.0423,-1.404678 -0.29002,0.179238 -0.29002,0.17924 0.10729,-0.494348 0.1073,-0.49436 0.31501,0.0662 0.31502,0.0661 v -0.41956 -0.41957 l 2.51256,0.0888 2.51256,0.0888 9.8e-4,0.33073 9.8e-4,0.33073 h 0.2802 0.2802 l -0.15946,-0.25801 -0.15946,-0.25801 5.3093,0.005 5.3093,0.005 0.27009,-0.16693 0.2701,-0.16694 0.38528,0.31977 0.38529,0.31976 -2.5e-4,-0.36313 -2.4e-4,-0.36313 2.69,0.0555 2.69,0.0555 0.21109,0.34142 0.21109,0.34142 0.45936,-0.45924 0.45936,-0.45925 v -0.92596 -0.92596 l 0.20762,0.32687 0.20761,0.32686 0.004,-0.30909 0.004,-0.30908 0.15725,-0.48467 0.15725,-0.48466 -0.25871,0.36261 -0.25871,0.3626 -0.10555,-1.10674 -0.10554,-1.10675 1.33148,0.13696 1.33149,0.13697 1.5875,0.0159 1.5875,0.0159 -0.39687,0.25648 -0.39688,0.25648 0.73591,0.004 0.73591,0.004 0.14649,-0.38177 0.1465,-0.38177 0.59717,0.22704 0.59716,0.22704 0.37252,-0.0192 0.37251,-0.0192 1.68195,0.0417 1.68195,0.0417 -0.14904,0.3884 -0.14904,0.38841 0.23474,0.14508 0.23475,0.14508 0.14522,-0.23498 0.14522,-0.23497 0.10179,-1.22191 0.10179,-1.22191 -0.36102,-0.29962 -0.36102,-0.29962 v 0.42927 0.42927 h -0.22049 -0.22048 l -0.19507,-0.19506 -0.19506,-0.19506 -0.44435,-0.003 -0.44434,-0.003 -0.0292,-0.57722 -0.0291,-0.57722 -0.48112,-0.48111 -0.48113,-0.48112 0.45513,-0.0877 0.45513,-0.0877 -0.16112,-0.50765 -0.16112,-0.50764 0.34856,-0.004 0.34856,-0.004 -0.66146,-0.34111 -0.66146,-0.34112 -0.0887,0.21437 -0.0887,0.21438 -0.25358,-0.15672 -0.25357,-0.15672 -0.32574,0.27034 -0.32573,0.27033 -0.711,0.0952 -0.71101,0.0952 -0.18639,0.1864 -0.1864,0.18639 h -0.24879 -0.24879 l 0.14904,-0.3884 0.14904,-0.3884 -0.22859,-0.14128 -0.22859,-0.14128 -0.61975,0.24833 -0.61975,0.24832 0.33073,0.0168 0.33073,0.0168 v 0.55748 0.55747 l 0.38039,-0.14597 0.38039,-0.14597 0.11519,0.58068 0.11519,0.58069 0.19674,-0.59532 0.19674,-0.59531 h 0.23372 0.23372 v 0.52917 0.52916 h 0.26457 0.26458 v -0.63325 -0.63315 l 0.39687,-0.15229 0.39688,-0.1523 0.0186,0.32243 0.0186,0.32242 0.24532,-0.52917 0.24531,-0.52916 -0.14777,0.83771 -0.14777,0.83771 0.47917,0.30675 0.47917,0.30674 -0.45602,-0.14128 -0.45602,-0.14128 -0.26674,0.45203 -0.26674,0.45204 -0.20328,-0.29814 -0.20328,-0.29813 -0.92604,-0.025 -0.92604,-0.025 -0.99219,-0.001 -0.99219,-10e-4 v -0.43413 -0.43412 l -0.52916,0.13838 -0.52917,0.13838 0.004,-2.9518 0.004,-2.95179 0.23605,0.37288 0.23605,0.37288 -0.14675,0.42087 -0.14675,0.42087 0.35644,-0.33073 0.35644,-0.33073 h 0.20336 0.20337 l -0.16259,0.42371 -0.1626,0.42371 0.5004,-0.0964 0.5004,-0.0964 -0.0907,-1.05495 -0.0907,-1.05494 -0.23322,-0.14448 -0.23322,-0.14448 1.78039,0.0946 1.78039,0.0946 -0.37362,-0.25679 -0.37362,-0.2568 0.6382,-0.12028 0.63821,-0.12028 -0.8158,-0.036 -0.8158,-0.036 -0.13689,0.13689 -0.1369,0.13689 -2.42074,0.10461 -2.42075,0.1046 v -0.41789 -0.41788 l 0.15479,0.15478 0.15478,0.15479 0.77679,-0.27079 0.77678,-0.27079 0.44214,0.35854 0.44213,0.35854 -0.19869,-0.33073 -0.1987,-0.33073 0.61093,-0.0221 0.61093,-0.0221 0.66146,-0.0767 0.66145,-0.0767 0.4668,0.24238 0.4668,0.24239 -0.0699,-0.32735 -0.0699,-0.32735 0.79375,-0.15716 0.79375,-0.15715 -0.66145,-0.18467 -0.66146,-0.18467 -0.92604,0.0277 -0.92605,0.0277 0.79375,0.22325 0.79375,0.22326 -1.38164,-0.1304 -1.38164,-0.1304 -1.74664,0.17895 -1.74663,0.17895 0.35015,0.222 0.35015,0.22201 -0.46302,0.004 -0.46302,0.004 v -0.92604 -0.92604 h -3.4076 -3.40761 l -0.27406,2.3151 -0.27406,2.3151 0.0488,-2.05052 0.0488,-2.05052 h -2.15321 -2.15322 l 0.0906,4.16719 0.0906,4.16719 -0.2014,2.4647 -0.2014,2.46471 1.99433,-0.18427 1.99433,-0.18426 0.19439,-0.29607 0.19439,-0.29606 -0.032,1.85208 -0.032,1.85208 -0.11113,-0.56834 -0.11113,-0.56834 -0.5352,-0.13996 -0.5352,-0.13996 0.13252,0.34533 0.13251,0.34533 -0.29682,0.29683 -0.29682,0.29682 h -0.16069 -0.16068 l 0.0549,-0.79375 0.055,-0.79375 h -0.26353 -0.26353 l -0.76844,0.54718 -0.76845,0.54719 v -0.16062 -0.16061 l -0.59531,0.55659 -0.59532,0.55659 -0.0788,-1.45537 -0.0788,-1.45537 -0.45032,-0.11856 -0.45032,-0.11855 0.69676,-0.0307 0.69676,-0.0307 0.14097,-0.72761 0.14097,-0.7276 0.0177,-2.77813 0.0177,-2.77812 0.0118,-3.20033 0.0118,-3.20032 3.76292,-0.17215 3.76292,-0.17214 2.0159,-9.7e-4 2.01591,-9.7e-4 0.16399,-0.99218 0.164,-0.99219 0.003,-4.0349 0.003,-4.03489 -4.29948,-0.0416 -4.29947,-0.0416 1.32291,-0.16384 1.32292,-0.16385 -1.12828,-0.21536 -1.12828,-0.21536 -1.64985,0.0543 -1.64984,0.0543 -2.51354,-0.0345 -2.51355,-0.0345 0.39688,-0.25648 0.39687,-0.25648 2.11667,-0.008 2.11667,-0.008 0.39687,-0.25903 0.39688,-0.25902 -1.65299,0.0807 -1.65298,0.0807 -0.33139,-0.21041 -0.33139,-0.21041 1.12448,-0.0371 1.12448,-0.0371 0.26458,-0.0662 0.26458,-0.0661 0.46302,-0.0498 0.46303,-0.0498 -0.59532,-0.23929 -0.59531,-0.23929 v -0.0967 -0.0967 l 0.46302,-0.0412 0.46302,-0.0412 0.71234,-0.021 0.71235,-0.021 -0.15919,-0.44489 -0.15919,-0.44489 0.21625,0.19614 0.21625,0.19615 0.33152,-0.27514 0.33152,-0.27514 0.17146,0.27744 0.17146,0.27743 h 0.23521 0.2352 l -0.27252,-0.78177 -0.27253,-0.78178 0.12331,-0.475 0.1233,-0.47499 0.0307,0.69929 0.0307,0.6993 0.40299,0.15464 0.403,0.15465 -0.25297,-0.47268 -0.25296,-0.47267 0.0869,-6.99585 0.0869,-6.99585 -0.21373,1.32292 -0.21374,1.32291 -0.0232,1.78594 -0.0232,1.78594 h -0.19844 -0.19844 l -0.0463,-0.66146 -0.0463,-0.66146 -0.0463,-0.98517 -0.0463,-0.98517 -0.3346,0.45759 -0.3346,0.45759 0.19714,1.07803 0.19713,1.07803 -0.20727,-0.21972 -0.20727,-0.21972 -0.1497,-0.52917 -0.1497,-0.52916 0.12143,2.05981 0.12143,2.05982 -0.39972,0.15339 -0.39973,0.15339 0.46846,0.43263 0.46846,0.43262 0.0671,0.33356 0.0671,0.33356 -0.5105,-0.31881 -0.51051,-0.31882 -0.68106,0.31031 -0.68107,0.31032 v -0.25892 -0.25891 h -0.39687 -0.39688 l -0.036,0.72761 -0.036,0.7276 -0.11817,-0.62212 -0.11818,-0.62213 -0.78348,0.11499 -0.78348,0.11499 -0.12496,-0.20218 -0.12496,-0.20219 0.2689,-0.16619 0.2689,-0.16619 v -0.28465 -0.28465 l -0.5389,0.6851 -0.5389,0.6851 -0.40933,-0.15707 -0.40932,-0.15707 0.35291,-0.24791 0.35291,-0.2479 -0.39575,0.10796 -0.39575,0.10796 -0.001,0.43839 -0.001,0.43839 -0.26459,-0.0632 -0.26458,-0.0632 0.0664,-0.4822 0.0664,-0.4822 -0.41553,0.41553 -0.41553,0.41553 -0.51079,-0.27337 -0.51079,-0.27337 v -0.25527 -0.25527 l 0.33073,-0.0186 0.33073,-0.0186 -0.52917,-0.21288 -0.52917,-0.21288 -0.26458,0.15767 -0.26458,0.15768 -0.47219,0.0735 -0.47219,0.0735 0.2689,-0.50246 0.26891,-0.50246 -0.4159,-0.1596 -0.41591,-0.15959 -0.28159,0.17403 -0.28159,0.17403 0.18879,-0.30547 0.18879,-0.30546 -0.47864,-0.0168 -0.47863,-0.0168 0.64016,-0.25588 0.64016,-0.25588 0.27265,0.27265 0.27265,0.27265 h 0.21167 0.21167 v -0.50699 -0.50699 l 0.79135,-0.35028 0.79135,-0.35029 -0.46063,-0.18246 -0.46062,-0.18246 0.49133,-0.0186 0.49133,-0.0186 -0.15229,-0.39688 -0.1523,-0.39687 h 0.38857 0.38857 v -0.23628 -0.23627 l -0.39391,-0.15116 -0.39392,-0.15116 0.25508,-0.6709 0.25507,-0.6709 -0.98564,-0.0445 -0.98564,-0.0445 1.05834,-0.12445 1.05833,-0.12444 -0.66146,-0.19153 -0.66146,-0.19154 0.39688,-0.13751 0.39687,-0.13751 1.13518,-0.34167 1.13518,-0.34166 -0.13143,-0.34252 -0.13144,-0.34252 0.31917,-0.20691 0.31918,-0.20691 2.22762,-0.26458 2.22762,-0.26459 0.11246,-0.33951 0.11246,-0.33951 -1.61684,0.0485 -1.61684,0.0485 -0.13684,-0.13684 -0.13684,-0.13684 1.62899,-0.1843 1.62899,-0.1843 -0.14183,-1.05744 -0.14183,-1.05744 0.22307,-0.77782 0.22308,-0.77781 H 80.575476 47.785613 v 0.68035 0.68036 l 0.377976,0.37798 0.377977,0.37797 h 0.179498 0.179497 l -0.157568,-0.41061 -0.157568,-0.41062 0.261552,0.16165 0.261553,0.16165 v 0.38126 0.38126 h -0.343958 -0.343959 l -0.333175,-0.33073 -0.333176,-0.33073 0.176275,0.46302 0.176275,0.46302 h 0.459852 0.459852 l 0.438459,-0.48449 0.438459,-0.48449 -0.157113,-0.15712 -0.157113,-0.15711 0.394428,0.0579 0.394427,0.0579 0.43478,0.36084 0.434781,0.36083 0.306286,-0.30629 0.306287,-0.30628 h 0.227281 0.227282 l -0.121897,0.19844 -0.121897,0.19843 0.736569,0.0266 0.736569,0.0266 0.437228,0.37028 0.437229,0.37028 0.369255,0.33119 0.369255,0.33119 0.67053,-0.25493 0.670529,-0.25494 0.182539,0.29536 0.182538,0.29535 -0.287181,-0.17749 -0.287182,-0.17749 -0.154889,0.25062 -0.15489,0.25062 0.257344,0.15905 0.257343,0.15904 -0.156331,0.45454 -0.156331,0.45455 0.424055,-0.52917 0.424056,-0.52916 0.0084,0.4101 0.0084,0.41011 -0.330729,0.34988 -0.33073,0.34989 0.628961,-0.32429 0.628961,-0.32428 0.213477,0.34541 0.213477,0.34541 -0.157498,0.27722 -0.157498,0.27722 0.670308,-0.60967 0.670307,-0.60967 0.160242,0.41759 0.160242,0.41758 0.601178,0.24146 0.601177,0.24146 -0.460431,0.0168 -0.460432,0.0168 0.460432,0.53774 0.460431,0.53774 0.03307,0.25601 0.03307,0.25601 0.03307,0.28019 0.03307,0.2802 0.292831,-0.18098 0.292831,-0.18098 -0.358976,-0.24573 -0.358977,-0.24573 0.529166,0.0826 0.529167,0.0826 0.08595,0.74842 0.08595,0.74843 0.57551,-0.48421 0.575511,-0.48422 -0.641433,0.72571 -0.641433,0.72572 h 0.326318 0.326319 l -0.119783,0.19843 -0.119782,0.19844 1.141565,0.55737 1.141566,0.55736 0.122398,-0.46805 0.122399,-0.46805 -0.762922,0.0966 -0.762921,0.0965 v -0.36226 -0.36225 l -0.311427,-0.10381 -0.311429,-0.10381 0.195194,-0.31583 0.195193,-0.31583 0.518578,0.27753 0.518578,0.27754 0.325261,-0.19532 0.325261,-0.19532 -0.343577,0.42411 -0.343577,0.42411 0.211285,0.12158 0.211285,0.12158 0.463021,-0.0746 0.463021,-0.0746 v 0.18825 0.18826 l -0.330729,0.34989 -0.330729,0.34988 0.565716,-0.29044 0.565717,-0.29044 0.123433,0.6457 0.123432,0.6457 -0.292274,0.13219 -0.292274,0.13218 1.190625,-0.10332 1.190625,-0.10333 -0.463021,0.13206 -0.463021,0.13206 -0.0041,0.31133 -0.0041,0.31133 -0.271978,-0.39687 -0.271977,-0.39688 0.06784,0.79391 0.06784,0.79391 -0.220617,0.35697 -0.220618,0.35696 0.561096,-0.30029 0.561095,-0.30028 v 0.42179 0.4218 l 0.2689,-0.16619 0.268899,-0.16618 -0.152223,-0.24631 -0.152222,-0.2463 h 0.248099 0.248099 l 0.326113,0.78731 0.326114,0.78731 0.493781,-0.26426 0.493781,-0.26427 -0.173184,0.46915 -0.173183,0.46914 -0.207183,0.14138 -0.207183,0.14139 0.508823,0.31776 0.508823,0.31777 -0.150809,-0.39301 -0.15081,-0.393 h 0.308506 0.308506 l -0.163522,-0.26458 -0.163521,-0.26459 0.214052,0.004 0.214053,0.004 0.264583,0.19439 0.264583,0.19439 0.07775,0.46302 0.07774,0.46302 h -0.291797 -0.291797 l 0.163522,-0.26459 0.163521,-0.26458 h -0.311057 -0.311056 l 0.128552,0.49159 0.128553,0.49158 -0.247184,0.5006 -0.247184,0.50061 0.360492,-0.44032 0.360492,-0.44031 0.979623,0.30662 0.979623,0.30661 v 0.19984 0.19985 l 0.03989,0.19843 0.03989,0.19844 0.423131,0.31053 0.423131,0.31054 0.396875,-0.34216 0.396875,-0.34215 0.396875,-0.13229 0.396875,-0.13229 0.46302,0.40335 0.463021,0.40336 v -0.30559 -0.30559 H 75.55111 75.270912 l 0.163521,-0.26458 0.163522,-0.26459 0.182822,0.008 0.182823,0.008 0.508224,0.6967 0.508225,0.6967 -0.351465,-0.21722 -0.351465,-0.21722 0.16081,0.63669 0.16081,0.63668 -0.383715,-0.51359 -0.383716,-0.51359 v 0.30685 0.30685 l -0.463021,-0.16293 -0.46302,-0.16293 0.264583,0.28065 0.264583,0.28065 0.661459,0.089 0.661458,0.089 -0.06615,-0.33073 -0.06615,-0.33073 h 0.220486 0.220486 l 0.174094,0.1741 0.174093,0.17409 -0.299991,0.36147 -0.299991,0.36146 0.169995,0.17 0.169995,0.16999 v -0.32429 -0.3243 l 0.264583,0.16352 0.264583,0.16353 v -0.28037 -0.2802 h 0.514209 0.514208 l 0.454339,0.76914 0.454339,0.76913 0.35285,-0.1354 0.352849,-0.1354 -0.144513,-0.23383 -0.144514,-0.23382 0.410617,0.15756 0.410616,0.15757 v 0.24145 0.24145 l 0.666849,-0.12092 0.666849,-0.12092 -0.153297,0.24804 -0.153297,0.24804 0.346344,0.0305 0.346344,0.0305 0.463021,-0.0471 0.463021,-0.0471 v 0.26338 0.26339 l 0.595312,0.20254 0.595313,0.20254 0.198437,-0.0524 0.198438,-0.0524 v 0.19981 0.19981 l 1.602828,-0.0174 1.602829,-0.0174 0.132578,0.21451 0.132578,0.21452 1.108864,0.0416 1.108864,0.0416 -1.322916,0.18145 -1.322917,0.18145 1.852083,0.0456 1.852084,0.0456 -0.396875,0.25648 -0.396875,0.25648 2.513541,0.035 2.513542,0.035 -1.5875,0.34186 -1.5875,0.34186 -2.645833,0.43478 -2.645834,0.43478 -1.5875,0.0523 -1.5875,0.0523 0.08964,0.89375 0.08964,0.89375 -0.883387,-0.15106 -0.883388,-0.15106 -5.357812,-0.72313 -5.357812,-0.72312 v -0.58415 -0.58414 l -1.455209,-0.59063 -1.455208,-0.59062 v -0.23122 -0.23122 l -1.785938,-0.81956 -1.785937,-0.81956 -3.571875,-1.59779 -3.571875,-1.59779 -0.883905,-0.37699 -0.883905,-0.377 0.137275,0.22212 0.137276,0.22212 -0.380952,3.29719 -0.380952,3.2972 -0.423748,3.12297 -0.423748,3.12298 0.09612,0.0922 0.09612,0.0922 3.175,0.72045 3.175,0.72046 2.116667,0.50315 2.116667,0.50315 0.839303,0.15661 0.839304,0.15661 0.113241,-0.75888 0.11324,-0.75888 0.03964,0.8682 0.03964,0.8682 -0.366489,0.14063 -0.366488,0.14064 -6.41949,-1.35806 -6.419489,-1.35805 -0.191468,0.3098 -0.191468,0.30981 -2.812081,-0.60005 -2.812081,-0.60005 -0.106223,0.1103 -0.106224,0.1103 -0.289963,2.38125 -0.289962,2.38125 0.03626,1.32291 0.03626,1.32292 0.192264,-1.98437 0.192264,-1.98438 0.193582,-1.65364 0.193582,-1.65365 h 0.316106 0.316106 l -0.460254,4.29948 -0.460253,4.29948 -0.10059,0.7276 -0.100591,0.72761 1.343239,0.0287 1.343239,0.0287 1.5875,0.21275 1.5875,0.21275 -2.972084,-0.0471 -2.972084,-0.0471 -0.13677,0.35642 -0.13677,0.35642 v 2.40371 2.4037 l 0.110321,-0.11032 0.110321,-0.11032 0.09902,-2.30388 0.09902,-2.30387 0.187538,-0.18754 0.187538,-0.18754 0.09746,0.11024 0.09746,0.11025 -0.163607,2.84437 -0.163607,2.84438 0.264583,0.0264 0.264583,0.0265 2.374577,-0.0477 2.374577,-0.0477 0.174188,-0.10765 0.174187,-0.10766 0.159893,-1.39256 0.159893,-1.39255 0.180401,-3.96875 0.180402,-3.96875 0.04145,-0.79375 0.04145,-0.79375 0.04605,-1.52136 0.04605,-1.52135 h 0.229942 0.229941 l -0.10956,2.71198 -0.10956,2.71198 -0.14036,2.64583 -0.14036,2.64583 -0.139626,2.15628 -0.139627,2.15627 3.268459,-0.0829 3.268459,-0.0829 3.50573,-0.0607 3.505729,-0.0607 0.04847,-1.88038 0.04847,-1.88038 -0.02363,-0.52916 -0.02363,-0.52917 1.628811,0.11939 1.628811,0.11939 -1.190625,0.14519 -1.190625,0.1452 0.09553,0.20284 0.09553,0.20284 -0.171694,1.25237 -0.171694,1.25236 -0.143293,0.72761 -0.143293,0.7276 h 0.795874 0.795874 l 0.415773,-0.41577 0.415774,-0.41578 v -1.55102 -1.55103 l -0.727604,-0.11022 -0.727604,-0.11023 0.959115,-0.0396 0.959114,-0.0396 0.165365,0.82683 0.165364,0.82682 v 1.42214 1.42213 h 6.209405 6.209404 l -0.151712,0.39536 -0.151712,0.39535 -0.254668,-0.15739 -0.254667,-0.15739 -0.137304,0.52505 -0.137304,0.52505 -0.506346,-0.13242 -0.506346,-0.13241 v -0.23372 -0.23373 h -0.544781 -0.544782 l 0.198696,0.33073 0.198695,0.33073 -0.381518,-0.30666 -0.381518,-0.30665 -1.190625,-0.0812 -1.190625,-0.0813 0.06603,0.99875 0.06602,0.99876 -0.263468,-0.16283 -0.263469,-0.16284 -0.565961,-0.10899 -0.565961,-0.10899 -0.140589,-0.14059 -0.140589,-0.14059 h 0.705555 0.705556 v -0.24897 -0.24897 l -0.292831,-0.18098 -0.292831,-0.18098 0.358977,-0.22746 0.358976,-0.22746 -2.84427,-0.004 -2.844271,-0.004 -0.0403,0.46302 -0.0403,0.46303 -0.0382,0.39687 -0.0382,0.39688 -0.384517,-0.0921 -0.384518,-0.0921 -0.661458,-0.11403 -0.661458,-0.11402 -0.344471,-0.12161 -0.344471,-0.12161 0.161648,0.26155 0.161648,0.26155 0.579698,0.008 0.579698,0.008 -0.489516,0.37086 -0.489516,0.37085 0.152472,0.24671 0.152472,0.2467 0.733919,-0.13298 0.733919,-0.13298 -0.217112,0.23124 -0.217112,0.23123 -0.443662,0.003 -0.443663,0.003 -6.84e-4,0.5028 -6.84e-4,0.5028 0.611421,0.0933 0.61142,0.0933 -0.164014,-0.26538 -0.164015,-0.26538 h 0.563716 0.563717 l -0.08508,-0.64926 -0.08508,-0.64925 0.264584,0.0539 0.264583,0.0539 -0.08011,0.24034 -0.08011,0.24033 0.344696,0.24283 0.344696,0.24283 -0.33073,0.13419 -0.330729,0.1342 v 0.21314 0.21313 l 0.463021,-0.0368 0.463021,-0.0367 -0.06615,0.33073 -0.06615,0.33074 h 0.211667 0.211667 l 0.311306,-0.31131 0.311306,-0.31131 -0.110906,0.5759 -0.110906,0.57589 h 1.043141 1.043142 v -0.27614 -0.27618 l 0.330729,0.0429 0.330729,0.043 0.79375,-0.0499 0.79375,-0.0499 -0.509822,-0.19973 -0.509821,-0.19972 0.424331,-0.16283 0.424331,-0.16283 0.326719,0.39367 0.326719,0.39368 0.217741,-0.34326 0.217741,-0.34325 0.0041,0.44544 0.0041,0.44546 0.727604,0.0873 0.727604,0.0873 0.471094,-0.26815 0.471094,-0.26815 0.252459,0.39688 0.252458,0.39687 0.0041,-0.49133 0.0041,-0.49133 0.388402,0.14904 0.388402,0.14905 0.15638,-0.25303 0.15638,-0.25303 -1.272386,-0.0209 -1.272386,-0.0209 0.396875,-0.13237 0.396875,-0.13236 0.396875,-0.1513 0.396875,-0.15129 0.37871,-0.076 0.378709,-0.076 0.453404,0.24266 0.453403,0.24265 0.300177,-0.36169 0.300176,-0.36169 0.904522,0.204 0.904522,0.20401 1.27048,-0.12142 1.27048,-0.12141 -0.292118,0.21851 -0.292119,0.21852 0.506435,0.52604 0.506434,0.52605 -0.176478,-0.45991 -0.176477,-0.45989 h 2.144974 2.144974 l 0.191823,-0.0198 0.191823,-0.0198 0.076,0.228 0.076,0.228 -2.004687,0.0294 -2.004686,0.0294 -0.159316,0.15931 -0.159317,0.15933 0.507118,0.0314 0.507118,0.0314 0.33439,-0.0438 0.334389,-0.0438 0.555882,0.38935 0.555881,0.38936 0.393203,-0.15089 0.393203,-0.15088 0.237887,0.36928 0.237887,0.369278 0.162365,-0.592328 0.162366,-0.59234 0.234503,0.14493 0.234503,0.14493 v -0.41249 -0.4125 l 0.727604,0.008 0.727604,0.008 -0.433522,0.32991 -0.433523,0.32993 0.63196,0.29823 0.631964,0.29824 v -0.23138 -0.23139 l 0.42583,0.16341 0.42584,0.16341 -0.49198,0.28083 -0.49199,0.280838 -0.513096,0.0826 -0.513101,0.0826 -0.05634,0.0602 -0.05634,0.0602 -0.09202,0.66146 -0.09202,0.66146 0.330729,-0.0661 0.330729,-0.0662 v 0.23151 0.23151 h -0.682221 -0.682219 l -0.209056,-0.56224 -0.209056,-0.56224 0.125832,-0.33073 0.125833,-0.33073 -0.359037,-0.0179 -0.359036,-0.0179 -0.877635,-0.11415 -0.877635,-0.114148 0.16786,0.528878 0.167861,0.52888 h -0.251555 -0.251554 l -0.13838,-0.52916 -0.13838,-0.529168 h -0.402747 -0.402746 l -0.415774,0.415768 -0.415774,0.41578 v 0.36967 0.36967 l -0.396875,-0.15229 -0.396875,-0.1523 v -0.63065 -0.633148 l -0.330729,-0.0209 -0.330729,-0.0209 0.330729,-0.13345 0.330729,-0.13345 v -0.50712 -0.50713 h -1.058333 -1.058333 v 0.23629 0.23627 l 0.396875,0.1523 0.396875,0.15229 v 0.22505 0.22505 l -1.177583,-0.0694 -1.177582,-0.0694 -0.163164,0.514078 -0.163164,0.51409 h -0.262369 -0.262368 l 0.184735,0.2989 0.184736,0.29891 -0.367558,-0.1223 -0.367558,-0.1223 -0.132292,-0.73839 -0.132292,-0.738388 -2.579788,-0.0335 -2.579788,-0.0335 -0.06605,0.1896 -0.06604,0.18959 -1.785961,0.075 -1.785961,0.075 -0.008,-0.264574 -0.008,-0.26459 -0.270858,0.465114 -0.270857,0.46511 0.162226,0.26249 0.162226,0.26249 h -0.295813 -0.295813 l 0.198696,0.33073 0.198695,0.33073 -0.447664,-0.36313 -0.447664,-0.36312 -0.03307,0.42927 -0.03307,0.42927 -0.06615,0.26459 -0.06615,0.26458 -0.03307,0.57326 -0.03307,0.57327 -0.15875,-0.15875 -0.15875,-0.15875 v -0.94368 -0.94369 H 72.355492 71.84277 l 0.07616,-0.7276 0.07616,-0.727604 H 71.598215 71.20134 l -0.155841,1.322914 -0.155841,1.32292 -0.202613,0.4615 -0.202612,0.4615 -0.254048,-0.15701 -0.254047,-0.15701 0.04522,-0.70136 0.04523,-0.70137 -0.02804,-0.34635 -0.02804,-0.34634 -0.236859,0.14639 -0.236859,0.14638 -0.166244,-0.43322 -0.166244,-0.43323 0.152906,-0.1529 0.152906,-0.15291 0.246145,0.38922 0.246146,0.38921 0.0041,-0.31512 0.0041,-0.31511 -0.252416,-0.156 -0.252415,-0.155994 -0.673626,0.169064 -0.673626,0.16907 -0.0186,1.36038 -0.0186,1.36038 -0.227391,-0.52917 -0.22739,-0.52916 -0.0186,0.61092 -0.0186,0.61093 -0.253028,-0.15638 -0.253028,-0.15638 0.150337,-0.39177 0.150337,-0.39177 -0.291889,-0.35171 -0.291888,-0.3517 0.196142,-0.21212 0.196142,-0.21212 -0.703104,0.44928 -0.703104,0.44928 -0.172407,-0.27896 -0.172406,-0.27897 h -0.277276 -0.277276 l 0.13612,0.35473 0.136119,0.35472 -0.236052,0.37288 -0.236053,0.37289 -0.02265,-0.39688 -0.02265,-0.39687 -0.227391,0.52916 -0.227391,0.52917 -0.0186,-0.72761 -0.0186,-0.7276 h 0.264583 0.264583 v -0.42927 -0.42928 l -0.396875,0.32938 -0.396875,0.32938 -0.03133,-0.36313 -0.03133,-0.36312 0.02255,-0.17209 0.02255,-0.17208 -1.115694,0.13937 -1.115694,0.13936 -0.264583,0.25174 -0.264584,0.25175 1.058334,-0.15572 1.058333,-0.15573 -0.529167,0.24883 -0.529166,0.24883 0.727604,0.0186 0.727604,0.0186 v 0.2856 0.28561 l -0.826851,-0.18161 -0.82685,-0.1816 0.181007,0.29287 0.181007,0.29288 H 61.82432 61.279538 l -0.0313,1.25677 -0.0313,1.25677 -0.201975,-0.79375 -0.201975,-0.79375 -0.0313,1.16858 -0.0313,1.16857 -0.103017,-0.11024 -0.103018,-0.11024 -0.128896,-1.19063 -0.128896,-1.19062 -0.193269,-0.46303 -0.193268,-0.46302 -0.567006,6.2e-4 -0.567005,6.3e-4 -0.881071,0.75305 -0.881072,0.75305 0.43695,0.43695 0.436949,0.43695 -0.217336,0.0313 -0.217336,0.0313 -0.198438,-0.0313 -0.198437,-0.0313 v 0.41578 0.41577 l -0.337029,0.31183 -0.337029,0.31183 -0.324429,0.0662 -0.32443,0.0661 0.03133,-0.19843 0.03133,-0.19844 -0.03133,-0.36157 -0.03133,-0.36158 -0.663772,0.12689 -0.663772,0.12689 0.280259,-0.33769 0.280259,-0.33769 0.129347,-0.71331 0.129346,-0.7133 -1.246275,0.15263 -1.246275,0.15263 -0.215299,0.3393 -0.215298,0.3393 -0.0041,0.19653 -0.0041,0.19653 1.058333,-0.0415 1.058334,-0.0415 v -0.26531 -0.26531 l 0.174766,0.17477 0.174767,0.17477 -0.493284,0.54507 -0.493283,0.54507 -0.805962,-0.0804 -0.805963,-0.0804 -0.09002,0.79289 -0.09002,0.79289 -0.213634,0.13315 -0.213634,0.13316 -0.30392,2.50375 -0.303919,2.50375 -0.120031,0.12003 -0.12003,0.12003 v -2.57325 -2.57325 l -0.330729,0.18672 -0.330729,0.18672 0.330729,-0.35631 0.330729,-0.35632 v -0.61107 -0.61106 l -1.199859,0.0999 -1.199859,0.1 -0.103389,0.10339 -0.10339,0.10339 -0.189761,3.24423 -0.18976,3.24422 0.631742,-0.2337 0.631742,-0.23369 0.728975,0.25412 0.728976,0.25412 v 0.23571 0.2357 l -1.322917,-0.1473 -1.322917,-0.14731 v 0.28259 0.28259 l 1.521354,0.008 1.521355,0.008 -0.468592,0.27281 -0.468591,0.2728 -0.518032,0.0998 -0.518033,0.0998 -0.15347,-0.24832 -0.153471,-0.24832 h -0.38126 -0.38126 v 7.94707 7.94707 l 1.834865,-0.0463 1.834865,-0.0463 z m 86.121718,-10.00246 0.39687,-0.25648 -0.34634,-0.004 -0.34634,-0.004 0.14955,-0.24199 0.14956,-0.24198 -0.72926,-0.2663 -0.72925,-0.26629 0.45472,-0.0209 0.45471,-0.0209 -0.16358,-0.42629 -0.16359,-0.4263 -0.82029,-0.3571 -0.8203,-0.35709 0.45471,-0.0104 0.45472,-0.0104 -0.15229,-0.39687 -0.1523,-0.39688 h -0.36857 -0.36856 v -0.33846 -0.33847 l -0.515,-0.37119 -0.51499,-0.37118 0.13373,-0.21639 0.13374,-0.21639 h -0.58888 -0.58888 l 0.1595,-0.1595 0.15951,-0.15951 -0.71072,-0.61485 -0.71072,-0.61485 0.47573,-0.18487 0.47573,-0.18487 0.31802,0.39586 0.31802,0.39587 1.59866,2.08472 1.59865,2.08471 1.00357,1.38906 1.00356,1.38906 -0.75014,-0.004 -0.75014,-0.004 z m -8.17437,-4.77085 -1.08605,-2.12501 v -0.23147 -0.23146 l 0.53755,0.14057 0.53754,0.14057 0.25526,0.47695 0.25526,0.47695 -0.15734,0.41001 -0.15734,0.41001 0.68746,1.22998 0.68745,1.22998 v 0.099 0.099 h -0.23687 -0.23687 z m -57.501713,1.71282 -0.147611,-0.14761 0.134373,-0.51385 0.134375,-0.51384 h 0.218109 0.218109 l 0.148765,0.2407 0.148765,0.24071 -0.161456,0.42075 -0.161459,0.42075 h -0.192179 -0.192177 z m 14.504461,-2.81787 -0.122684,-0.60639 -0.149559,-0.89216 -0.149558,-0.89216 0.396713,0.32924 0.396712,0.32925 v -0.42927 -0.42928 h 0.200938 0.200939 l 0.325895,0.52184 0.325893,0.52184 -0.325308,0.73493 -0.325309,0.73494 -0.325995,0.3418 -0.325994,0.34181 z m 40.727372,-0.19638 -0.40367,-0.78061 v -0.33064 -0.33064 l 0.2692,0.2692 0.2692,0.26921 0.2415,0.84204 0.2415,0.84205 h -0.10703 -0.10703 z m -48.939055,-1.28953 -0.513513,-0.10477 0.87462,-0.36775 0.87462,-0.36775 h 0.225904 0.225901 l -0.15813,0.41208 -0.15813,0.41208 -0.345639,-0.13264 -0.345637,-0.13263 -0.08324,0.19307 -0.08324,0.19308 z m 7.915425,-1.54595 -0.418612,-0.41861 0.08023,-0.50667 0.08023,-0.50667 0.264584,-0.004 0.264583,-0.003 0.08847,0.477 0.08847,0.47699 0.38233,0.29944 0.382332,0.29944 -0.396995,0.15234 -0.396994,0.15234 z m -26.024342,-5.05405 -0.03069,-0.33577 -0.595312,0.13996 -0.595313,0.13997 -0.389212,-0.25283 -0.389213,-0.25283 0.226998,-0.21282 0.226998,-0.21283 0.113569,0.31709 0.113569,0.31708 0.645076,-0.29392 0.645077,-0.29391 0.154562,0.15456 0.154562,0.15456 -0.124988,0.48373 -0.124989,0.48373 z m 41.696362,-3.69762 -0.13881,-0.726088 0.13783,-0.223 0.13782,-0.223 0.2733,0.2733 0.27331,0.27331 0.75451,-0.1509 0.7545,-0.1509 0.39462,0.3275 0.39462,0.327498 -0.15614,0.25265 -0.15614,0.25264 -0.37011,-0.14203 -0.37012,-0.14202 v 0.38857 0.38857 h -0.15119 -0.15119 l -0.44412,-0.44413 -0.44412,-0.44413 -0.0855,0.44413 -0.0856,0.44413 h -0.21434 -0.21434 z m 15.68753,-3.530158 v -0.7433 l 0.81676,0.28473 0.81676,0.28472 1.82907,-0.13087 1.82907,-0.13087 -0.0307,0.69228 -0.0307,0.69228 -0.121,-0.46302 -0.121,-0.46302 h -0.49662 -0.49662 l -0.25994,0.46302 -0.25993,0.46302 -0.1784,-0.46302 -0.17839,-0.46302 h -0.74983 -0.74982 l -0.144,0.23299 -0.144,0.23299 -0.66537,0.12719 -0.66536,0.1272 z m -21.99581,-0.0432 -0.03539,-0.0662 -0.0422,-1.1004 -0.04219,-1.10039 2.260402,0.0734 2.260398,0.0734 0.0745,0.37452 0.0745,0.37451 -1.79434,-0.009 -1.794328,-0.009 0.077,0.36319 0.077,0.36319 -0.399217,-0.1532 -0.399222,-0.15319 -0.15638,0.25303 -0.156379,0.25302 h 0.280197 0.280199 v 0.26459 0.26458 h -0.264584 -0.264582 z m 10.35414,-1.15666 v -0.90869 l 0.99219,0.12085 0.99218,0.12084 1.52136,0.0189 1.52135,0.0189 v 0.3912 0.39121 l -0.70659,-0.32195 -0.70659,-0.32194 -0.10921,0.32761 -0.1092,0.32762 h -0.52274 -0.52273 l 0.16352,-0.26458 0.16352,-0.26458 h -0.39687 -0.39688 l -0.16619,0.26889 -0.16618,0.2689 -0.22243,-0.13746 -0.22242,-0.13747 -0.46756,0.17942 -0.46755,0.17942 0.49565,0.17386 0.49566,0.17387 -0.58115,0.15197 -0.58114,0.15197 z m 13.00442,0.2513 0.25521,-0.31005 -0.80898,0.1275 -0.80898,0.12749 v -0.25883 -0.25883 l -0.1606,-0.41851 -0.1606,-0.41852 h 3.20331 3.2033 v 0.23628 0.23628 l -0.39687,0.15229 -0.39688,0.1523 v 0.40518 0.40517 h -0.37523 -0.37524 l -0.46192,0.17726 -0.46191,0.17725 0.22648,-0.37569 0.22648,-0.37569 -0.40513,0.32783 -0.40513,0.32783 -1.07627,-0.0632 -1.07626,-0.0633 z m -28.614834,-0.0877 v -0.26373 h 1.571885 1.571885 l 0.121972,0.19844 0.121972,0.19844 -1.693857,0.0653 -1.693857,0.0653 z m -11.1125,-0.31267 v -0.22854 l 2.120889,0.0385 2.120889,0.0385 0.137806,0.22298 0.137806,0.22297 -2.258695,-0.033 -2.258695,-0.033 z m 21.431244,-0.21564 v -0.52917 h 0.52917 0.52917 v 0.15119 0.15119 l -0.37798,0.37798 -0.37798,0.37798 h -0.15119 -0.15119 z m 3.86567,0.31184 -0.12003,-0.19421 -1.07347,0.0143 -1.07346,0.0143 -0.12034,-0.31361 -0.12035,-0.31361 1.10693,0.074 1.10693,0.074 0.59531,0.0342 0.59531,0.0342 v 0.23627 0.23628 l -0.3884,0.14904 -0.3884,0.14904 z m -14.131912,-0.90919 0.120963,-0.63278 -0.613835,0.28433 -0.613835,0.28434 -0.0021,0.23083 -0.0021,0.23084 -0.33073,-0.26374 -0.330729,-0.26374 -0.81336,-0.11288 -0.81336,-0.11288 -0.321551,0.34422 -0.32155,0.34423 h -0.386444 -0.386443 v -0.39688 -0.39687 h -0.388571 -0.388571 l 0.144184,-0.37574 0.144184,-0.37574 4.519464,0.1529 4.519464,0.1529 0.456193,0.45619 0.456193,0.45619 -0.167207,0.25831 -0.167208,0.25831 -2.217044,0.0552 -2.217043,0.0552 z m 12.056922,-0.38815 0.86463,-0.10707 0.72287,0.10977 0.72286,0.10976 -1.5875,-0.003 -1.5875,-0.003 z m 14.58919,-2.65252 -0.0243,-2.05052 -0.0419,-1.65332 -0.0418,-1.65331 0.19844,-3.3e-4 0.19843,-3.3e-4 v 3.70416 3.70417 h -0.13229 -0.13229 z m 7.26431,1.39058 -0.15171,-0.39536 -0.27774,0.17166 -0.27774,0.17165 0.20058,-0.32454 0.20058,-0.32454 0.0387,-1.67991 0.0387,-1.67991 -2.77813,-0.16643 -2.77812,-0.16643 -0.52917,-0.0829 -0.52917,-0.0829 3.36185,-0.036 3.36185,-0.036 0.0913,-1.91823 0.0913,-1.91823 0.0705,3.3073 0.0705,3.30729 0.0482,1.12468 0.0482,1.12468 -0.0744,-2e-4 -0.0744,-2e-4 z m 4.73239,0.20261 0.99218,-0.10378 0.99219,0.10378 0.99219,0.10379 h -1.98438 -1.98437 z m -10.2355,-0.30874 -0.11756,-0.19021 0.0961,-0.51405 0.0961,-0.51405 0.0202,-0.7276 0.0202,-0.7276 h 1.85209 1.85208 v 1.43186 1.43186 h -1.8509 -1.85089 z m 6.82222,-1.87977 v -2.24896 l 0.10128,1.12448 0.10128,1.12448 -0.10128,1.12448 -0.10128,1.12448 z m -74.834235,0.59531 0.736624,-0.7276 0.115746,0.33221 0.115746,0.3322 0.497823,-0.59679 0.497824,-0.59679 0.0088,0.99219 0.0088,0.99219 h -1.358996 -1.358996 z m 23.611055,0.2675 -1.521354,-0.0955 v -1.03063 -1.03063 l 1.25677,-0.0991 1.256772,-0.0991 -1.272387,-0.0477 -1.272385,-0.0477 0.141654,-0.2292 0.141655,-0.22921 1.48102,0.11684 1.481021,0.11683 0.14359,-0.54909 0.143591,-0.54909 h 0.233725 0.233724 v 0.52917 0.52916 h 0.280198 0.280199 l -0.163522,0.26459 -0.163521,0.26458 h 0.380093 0.380093 l 0.317072,0.38205 0.317072,0.38205 0.707512,-0.2827 0.707512,-0.2827 0.529167,-0.21783 0.529167,-0.21783 1.256771,-0.0819 1.25677,-0.0819 v 1.39097 1.39097 l -1.521354,-0.004 -1.521354,-0.004 -0.926042,-0.32889 -0.926041,-0.32888 -0.348332,-0.22279 -0.348333,-0.22279 -0.158785,0.15878 -0.158786,0.15879 h 0.264583 0.264583 v 0.39687 0.39688 l -1.080382,-0.05 -1.080381,-0.05 z m 0.595312,-0.70888 v -0.37523 l -0.160599,-0.41852 -0.160598,-0.41851 h -0.251891 -0.251891 l 0.149554,0.24199 0.149556,0.24198 -0.313834,0.10461 -0.313833,0.10461 0.171589,0.44716 0.171589,0.44715 h 0.405179 0.405179 z m 12.283508,0.45573 0.06585,-0.44868 0.263324,-0.0878 0.263324,-0.0878 0.771892,0.40253 0.771891,0.40253 -0.595312,0.002 -0.595313,0.002 v -0.28348 -0.28348 l -0.415773,0.41577 -0.415774,0.41577 h -0.08998 -0.08998 z m 19.92951,-0.29392 -0.7276,-0.0863 v -0.38861 -0.38861 l 0.52916,0.28321 0.52917,0.2832 v -0.18692 -0.18691 l -0.46302,-0.52933 -0.46302,-0.52934 0.33073,0.19339 0.33073,0.19339 v -0.2802 -0.2802 h 0.24782 0.24782 l 0.0829,0.82222 0.0829,0.82222 0.74123,-0.68993 0.74124,-0.68993 -0.21207,-0.0313 -0.21207,-0.0313 -0.19844,0.0313 -0.19843,0.0313 v -0.26458 -0.26458 h 0.24294 0.24294 l 0.37152,-0.14257 0.37153,-0.14257 -0.15145,1.12419 -0.15144,1.12419 -0.79375,0.14544 -0.79375,0.14545 z m -50.905561,-0.45535 -0.155102,-0.40419 0.153052,-2.0432 0.153052,-2.0432 0.01035,-0.75592 0.01036,-0.75591 0.388402,0.14905 0.388401,0.14904 0.173838,-0.28128 0.173838,-0.28127 0.227459,0.35898 0.227459,0.35897 0.0041,-0.7276 0.0041,-0.72761 H 57.55968 57.279481 l 0.188787,0.30547 0.188787,0.30546 -0.293908,-0.18164 -0.293908,-0.18165 0.138509,-0.36095 0.13851,-0.36095 -0.613086,-0.45688 -0.613086,-0.45688 0.494594,0.16866 0.494594,0.16865 -0.142504,-0.59912 -0.142504,-0.59912 -0.184511,-0.59532 -0.184511,-0.59531 0.758463,0.0313 0.758462,0.0313 0.79375,0.22159 0.79375,0.22159 -0.859895,-0.0748 -0.859896,-0.0748 v 0.22706 0.22706 l 0.419059,0.16081 0.419059,0.16081 -0.352913,0.23279 -0.352914,0.23279 0.498747,0.38099 0.498746,0.381 1.129652,0.1694 1.129652,0.1694 0.951289,-0.34399 0.951289,-0.34399 v -0.22705 -0.22705 l 0.264584,0.16353 0.264583,0.16352 v -0.23586 -0.23585 l -1.124479,-0.26801 -1.124479,-0.26801 0.926041,0.10042 0.926042,0.10042 0.744638,0.14801 0.744637,0.14801 -1.104509,1.05069 -1.104509,1.0507 -0.433878,-0.16795 -0.433879,-0.16794 -0.715792,-0.14448 -0.715793,-0.14447 -0.342541,0.37351 -0.342541,0.37351 -0.432309,0.81576 -0.43231,0.81575 0.204291,0.33055 0.204291,0.33055 0.277185,-0.17131 0.277185,-0.17131 0.181146,1.20797 0.181146,1.20797 -0.200389,0.18621 -0.200389,0.18622 -0.118667,-0.33238 -0.118667,-0.33238 -0.286949,0.17735 -0.286948,0.17734 0.16378,-0.4268 0.16378,-0.42681 -0.373328,0.14326 -0.373329,0.14326 -0.150219,0.4733 -0.150218,0.4733 -0.504785,0.58202 -0.504785,0.58202 0.144073,0.37545 0.144072,0.37544 -0.491328,0.004 -0.491329,0.004 0.396875,0.25648 0.396875,0.25648 -0.471324,0.004 -0.471325,0.004 z m 5.610523,0.064 0.130539,-0.34017 h 0.479856 0.479856 l 0.317775,0.34017 0.317774,0.34018 h -0.928169 -0.92817 z m -3.520583,-0.13071 -0.595314,-0.0951 v -0.20517 -0.20517 l 0.497406,-0.45015 0.497406,-0.45015 0.176929,0.70495 0.17693,0.70494 -0.07902,0.0455 -0.07902,0.0455 z m 55.699531,0.0146 0.86463,-0.10706 0.72287,0.10976 0.72286,0.10977 -1.5875,-0.003 -1.5875,-0.003 z m -13.76308,-0.25521 -0.46302,-0.121 v -0.24518 -0.24519 h -0.77485 -0.77485 l -0.415768,-0.41577 -0.41578,-0.41577 v -1.31964 -1.31963 l 0.2463,0.15222 0.24631,0.15222 0.16734,-0.27076 0.167338,-0.27077 -0.413638,-0.15873 -0.41365,-0.15873 v -1.03003 -1.03002 l 0.72761,-0.002 0.727598,-0.002 5.19147,-0.14525 5.19148,-0.14524 0.15803,0.41184 0.15804,0.41183 -0.1523,0.39688 -0.15229,0.39687 h 0.3241 0.32411 l -0.15397,1.52136 -0.15397,1.52135 -0.01,0.0661 -0.01,0.0661 h -0.36857 -0.36857 l -0.17574,-0.45797 -0.17574,-0.45798 0.27973,-0.0932 0.27972,-0.0932 v -0.50711 -0.50712 h -0.23627 -0.23628 l -0.16306,0.42494 -0.16307,0.42494 -0.62997,-0.15811 -0.62997,-0.15812 -0.17104,0.91176 -0.17105,0.91176 -0.38714,-0.14856 -0.38715,-0.14856 -0.0331,0.42518 -0.0331,0.42519 -0.0662,0.26458 -0.0661,0.26458 -0.0331,0.26459 -0.0331,0.26458 -0.7276,-0.0179 -0.72761,-0.0179 0.58196,-0.28115 0.58196,-0.28115 -0.0528,-0.75875 -0.0528,-0.75875 -0.23542,-5.3e-4 -0.23541,-5.2e-4 -0.37652,-0.46302 -0.37652,-0.46303 -0.14239,0.34476 -0.1424,0.34475 -0.34859,-0.47672 -0.34859,-0.47673 -0.18253,0.72728 -0.18254,0.72729 -0.16976,-0.004 -0.16975,-0.004 -0.36463,-0.23095 -0.36462,-0.23095 0.18318,-0.2964 0.18319,-0.29641 -0.61231,-0.2347 -0.61231,-0.2347 -0.25135,0.23694 -0.25136,0.23694 h -0.45842 -0.45842 l -0.17198,0.54186 -0.17198,0.54187 0.31884,0.38417 0.31884,0.38418 h 0.36448 0.36447 v 0.29921 0.2992 l 0.89298,-0.14491 0.89298,-0.14491 -0.0331,0.44102 -0.0331,0.44102 -0.26458,0.19438 -0.26459,0.19439 -0.39687,-0.0266 -0.39688,-0.0266 z m -6.6254,-0.26751 0.584487,-0.11324 0.08987,-2.03354 0.08987,-2.03354 0.05325,2.18282 0.05325,2.18281 -0.727604,-0.036 -0.727604,-0.036 z m 20.44988,-1.53448 v -0.92604 h 0.21167 0.21167 v 0.92604 0.92604 h -0.21167 -0.21167 z m -49.904152,0.28129 -0.145886,-0.38017 -0.374978,0.14389 -0.374978,0.14389 v -0.3921 -0.39211 l -0.595313,-0.0231 -0.595312,-0.0231 -0.529166,-0.12198 -0.529168,-0.12198 -0.343958,-0.0202 -0.343958,-0.0202 0.129067,-1.12448 0.129066,-1.12448 0.01645,-0.19844 0.01645,-0.19844 h 0.264583 0.264584 v 1.19063 1.19062 h 0.368567 0.368569 l 0.160598,-0.41851 0.160599,-0.41852 v -0.53992 -0.53992 l 0.431286,0.35793 0.431285,0.35794 -0.182852,-0.83252 -0.182852,-0.83252 0.460722,-0.25783 0.460721,-0.25784 0.415324,0.81521 0.415325,0.8152 0.396874,0.12493 0.396876,0.12493 -0.363127,-0.4399 -0.363125,-0.43991 h 0.312595 0.312596 l -0.188787,-0.30546 -0.188787,-0.30546 0.305463,0.18878 0.305464,0.18879 v 1.01186 1.01186 l -0.595312,0.19185 -0.595313,0.19186 -0.330729,-0.0403 -0.330729,-0.0403 v 0.40343 0.40343 l 0.661458,0.16602 0.661458,0.16602 v 0.50048 0.50048 h -0.272887 -0.272887 z m 56.446692,0.18921 0.85399,-0.10627 0.99809,0.10413 0.99809,0.10414 -1.85208,0.002 -1.85209,0.002 z m -71.365451,-0.3382 v -0.26459 h 2.116667 2.116666 v 0.26459 0.26458 h -2.116666 -2.116667 z m 16.06292,-0.79375 0.13838,-0.52917 h 0.205418 0.205417 l 0.160599,0.41851 0.160599,0.41852 v 0.11065 0.11065 h -0.504396 -0.504397 z m 22.242511,0.33509 1.131472,-0.10162 0.985195,0.10337 0.985193,0.10337 -2.116666,-0.002 -2.116667,-0.002 z m 37.85903,-0.26895 -0.0355,-0.46302 0.0574,-1.10105 0.0574,-1.10105 -0.28158,-0.52615 -0.28159,-0.52614 0.39203,-0.15044 0.39203,-0.15044 v 2.24066 2.24065 h -0.13229 -0.13229 z m -56.320711,-1.91827 v -0.79375 h 0.264584 0.264582 l 0.0036,0.19844 0.0036,0.19844 0.159537,0.59531 0.159538,0.59531 h -0.427735 -0.427732 z m 17.360296,-0.24431 -0.156555,-0.94631 -0.0029,-0.8599 -0.0029,-0.85989 h 0.923452 0.923452 l -0.455841,0.53238 -0.45584,0.53238 -0.197592,-0.46624 -0.197592,-0.46623 0.06071,1.19062 0.06071,1.19063 0.311831,0.33073 0.31183,0.33073 h 0.283482 0.283481 l 0.0041,-0.33073 0.0041,-0.33073 0.246145,0.38921 0.246147,0.38921 -0.130834,0.13084 -0.130834,0.13083 -0.885938,0.0294 -0.885939,0.0294 z m 32.645955,0.19454 v -0.56759 l 0.16379,0.16379 0.16379,0.16379 0.36537,-0.36538 0.36538,-0.36537 v -0.28349 -0.28348 h -0.21167 -0.21166 l -0.3175,0.3175 -0.3175,0.3175 v -1.24354 -1.24354 h 1.8867 1.8867 l -0.164,0.99219 -0.164,0.99218 -0.003,0.8599 -0.003,0.8599 h -0.28241 -0.28242 l 0.16795,-0.52917 0.16796,-0.52917 h -0.25156 -0.25155 l -0.13838,-0.52916 -0.13838,-0.52917 h -0.23997 -0.23997 l -0.35381,0.90172 -0.35381,0.90173 -0.62162,0.28323 -0.62161,0.28322 z m -27.575819,-0.40888 1.131471,-0.10162 0.985195,0.10337 0.985194,0.10337 -2.116667,-0.002 -2.116667,-0.002 z m -42.097792,-0.2469 -0.176389,-0.17639 v -1.39171 -1.39171 l 0.463021,-0.121 0.463021,-0.121 -0.463021,-0.0307 -0.463021,-0.0307 0.03069,-0.99219 0.03069,-0.99219 0.121,0.46302 0.121,0.46302 h 0.253709 0.253709 l 0.231765,-0.59531 0.231764,-0.59531 -0.372582,-0.29375 -0.372582,-0.29375 v -0.16927 -0.16927 h 0.383851 0.383852 l 1.351418,0.28982 1.351418,0.28983 -0.133898,0.70236 -0.133899,0.70236 -0.173016,1.91823 -0.173016,1.91823 h -0.313325 -0.313326 v -0.50974 -0.50974 l 0.207886,0.12848 0.207887,0.12848 v -0.6182 -0.6182 l -0.442616,-0.63193 -0.442615,-0.63192 0.309769,0.19145 0.309769,0.19145 -0.08868,-0.81007 -0.08868,-0.81006 -0.175345,-0.17535 -0.175346,-0.17534 v 0.30868 0.30868 l 0.0056,0.13749 0.0056,0.1375 -0.3363,0.3639 -0.336299,0.3639 -0.132292,-0.0783 -0.132292,-0.0783 -0.02025,1.82588 -0.02025,1.82587 0.417125,0.004 0.417125,0.004 -0.396874,0.25648 -0.396875,0.25648 -0.551215,0.004 -0.551215,0.004 z m 20.495803,-0.17869 -0.294685,-0.35507 0.196142,-0.23152 0.196142,-0.23151 -0.463021,0.3544 -0.46302,0.3544 v -0.69385 -0.69386 h 0.661458 0.661458 v 0.92604 0.92605 h -0.0999 -0.09989 z m 44.633458,-0.61726 -0.44331,-0.11721 0.0743,-0.71199 0.0743,-0.71201 0.86793,-0.0856 0.86792,-0.0856 -0.16462,0.61476 -0.16462,0.61476 -0.004,0.33073 -0.004,0.33073 -0.33073,-0.0307 -0.33073,-0.0307 z m -22.920548,-0.54902 0.01888,-0.46302 -0.195925,-0.46302 -0.195926,-0.46302 h 0.529167 0.529167 l 0.152295,0.39687 0.152294,0.39688 h 0.272888 0.272888 v -0.39688 -0.39687 h 0.264583 0.264583 v 0.52917 0.52916 H 93.16165 92.764776 v 0.39688 0.39687 h -0.645015 -0.645015 z m -14.074687,-0.25928 -5.68854,-0.38748 -0.207131,-0.36319 -0.207131,-0.36319 -1.314223,-0.17434 -1.314224,-0.17434 v -0.19633 -0.19634 l 1.234513,0.23063 1.234515,0.23063 0.05935,-0.0663 0.05935,-0.0663 0.280195,-1.98437 0.280196,-1.98438 -0.117003,2.27101 -0.117004,2.27101 0.328883,0.0363 0.328884,0.0363 5.790495,0.41293 5.790495,0.41294 0.06719,-0.0744 0.06719,-0.0744 0.185626,-2.77813 0.185627,-2.77812 0.202516,-2.24896 0.202516,-2.24896 0.09964,2.51354 0.09964,2.51354 -0.03188,1.25677 -0.03188,1.25678 h 4.732758 4.732758 v 0.26458 0.26458 l -2.050521,0.0305 -2.05052,0.0305 -0.521043,-0.0569 -0.521043,-0.0569 -2.190936,0.18251 -2.190937,0.1825 v 1.16687 1.16688 l -0.859895,-0.0351 -0.859896,-0.0351 z m 3.504082,-2.64838 -0.332378,-0.1141 0.130964,-0.2119 0.130965,-0.21191 -0.526815,-0.13776 -0.526814,-0.13777 -0.226806,0.40528 -0.226804,0.40528 -0.137035,-0.71685 -0.137035,-0.71685 0.498739,0.13042 0.498738,0.13042 0.328746,-0.45619 0.328746,-0.45619 0.474431,-0.17709 0.47443,-0.17709 -0.317544,-0.59334 -0.317544,-0.59333 -0.17626,0.50247 -0.176259,0.50248 -0.443648,-0.63339 -0.443648,-0.6334 -0.02701,0.52189 -0.02701,0.52189 -0.275848,-0.85989 -0.275847,-0.8599 h -0.185876 -0.185877 l -0.287108,0.59532 -0.287109,0.59531 -0.01791,-0.32243 -0.01791,-0.32242 -0.440278,0.16895 -0.440279,0.16895 0.19131,-0.30955 0.19131,-0.30954 h -0.267051 -0.267051 l -0.272889,0.46302 -0.27289,0.46302 -0.265373,-0.39688 -0.265372,-0.39687 -0.0041,0.99219 -0.0041,0.99218 h -0.242535 -0.242535 l -0.09485,-0.28455 -0.09485,-0.28456 -0.719119,0.18049 -0.719118,0.18049 0.146078,0.23636 0.146078,0.23636 h -0.280198 -0.280198 v -0.66146 -0.66146 l 0.198437,0.0596 0.198438,0.0596 0.68736,-0.65492 0.687361,-0.65492 -0.114097,-0.33073 -0.114097,-0.33073 h -0.211676 -0.211676 l -0.138665,0.53026 -0.138666,0.53026 -0.426458,-0.16365 -0.426458,-0.16365 0.173233,-1.35879 0.173232,-1.3588 0.03271,-0.0465 0.03271,-0.0465 4.230925,0.50399 4.230924,0.504 0.06615,0.005 0.06615,0.005 v 1.20624 1.20624 l -0.309547,-0.19131 -0.309546,-0.19131 0.186216,0.48527 0.186216,0.48527 -0.33969,0.21554 -0.339691,0.21554 0.330729,0.004 0.330729,0.004 v 1.19062 1.19063 h -0.396875 -0.396875 l -0.02637,-0.33073 -0.02637,-0.33073 -0.172064,0.55452 -0.172064,0.55452 z m -4.940444,-0.27054 -0.151138,-0.15114 v -0.22048 -0.22049 l 0.595313,-0.0104 0.595313,-0.0104 -0.859897,-0.37375 -0.859895,-0.37374 v -0.1043 -0.10431 l 0.992187,0.057 0.992187,0.057 0.326829,0.6298 0.326829,0.6298 0.03523,-0.79375 0.03523,-0.79375 -0.03133,-0.19844 -0.03133,-0.19844 0.859896,0.004 0.859895,0.004 -0.314176,0.19978 -0.314177,0.19977 -0.283028,0.74442 -0.283029,0.74442 0.140466,0.22728 0.140466,0.22728 -1.310352,-0.0101 -1.310352,-0.0102 z m -6.999,-1.18742 0.0313,-1.12448 0.167133,-0.69456 0.167134,-0.69455 0.595313,0.22301 0.595312,0.22301 -0.0029,0.60383 -0.0029,0.60384 -0.164,0.99219 -0.163997,0.99219 h -0.62684 -0.62684 z m 27.207339,-2.21589 -0.01345,-3.40651 -0.143513,-1.12448 -0.143516,-1.12448 h 0.382724 0.38271 l 0.17112,2.0243 0.17112,2.02429 v 2.21731 2.2173 l 6.111123,-0.0264 6.11113,-0.0264 0.36061,-0.13838 0.36061,-0.13837 0.006,-4.0941 0.006,-4.0941 0.15282,-0.24727 0.15282,-0.24727 h 0.24897 0.24896 v 4.63021 4.63021 h -6.44921 -6.449218 l -0.826825,0.16536 -0.82682,0.16537 z m -9.902217,2.33235 -0.13851,-0.13851 v -1.80799 -1.80798 h 0.115067 0.115069 l 0.646341,0.24573 0.64634,0.24574 2.744321,0.30072 2.744321,0.30071 0.859896,0.43976 0.859896,0.43975 v 0.86588 0.86587 H 93.30225 91.723054 l 0.152295,-0.39687 0.152294,-0.39688 0.699298,-0.008 0.699297,-0.008 -0.466594,-0.27168 -0.466594,-0.27169 -1.103324,-0.13298 -1.103323,-0.13299 -0.339897,-0.44718 -0.339897,-0.44718 -0.0084,0.23084 -0.0084,0.23083 -0.396875,-0.32938 -0.396874,-0.32937 v 0.25288 0.25288 l -0.396876,0.0441 -0.396875,0.0441 -0.789663,0.0441 -0.789664,0.0441 0.484544,0.33939 0.484543,0.33939 0.63585,-0.0334 0.635849,-0.0334 0.396875,-0.27116 0.396875,-0.27116 -0.308455,0.34861 -0.308456,0.34862 -0.617586,0.32171 -0.617587,0.32172 0.05648,0.2801 0.05648,0.2801 -0.645574,0.12341 -0.645575,0.12341 z m -33.872884,-0.84407 0.158596,-0.25661 -0.806901,0.16138 -0.806904,0.16138 v -0.29104 -0.29104 l -0.79375,0.15875 -0.79375,0.15875 v -0.38565 -0.38564 l 2.372567,0.40535 2.372568,0.40535 -0.05746,0.0415 -0.05746,0.0415 -0.873049,0.16631 -0.873048,0.16632 z m 70.055469,0.0957 0.15494,-0.25069 -1.76771,0.0938 -1.7677,0.0937 0.35506,-0.24532 0.35505,-0.24532 -0.71212,-0.13613 -0.71212,-0.13613 -0.5252,0.13734 -0.5252,0.13734 0.3531,0.22383 0.35309,0.22382 -2.72026,0.004 -2.72027,0.004 0.0644,-0.95587 0.0644,-0.95586 0.30377,-0.11657 0.30377,-0.11657 0.76462,-0.1 0.76462,-0.1 0.61472,-0.0182 0.61471,-0.0182 -0.0957,-0.46302 -0.0957,-0.46302 0.78913,-0.59532 0.78912,-0.59531 h 0.0965 0.0965 l -0.16352,0.26459 -0.16352,0.26458 h 0.27089 0.27088 l 0.28321,-0.52917 0.2832,-0.52916 h 0.46694 0.46694 l 0.3175,-0.3175 0.3175,-0.3175 v 0.21661 0.21661 l 0.85989,-0.65195 0.8599,-0.65194 0.72123,-0.1353 0.72122,-0.1353 -0.10805,0.82199 -0.10806,0.82198 -0.0179,0.47864 -0.0179,0.47864 -0.33073,-0.18673 -0.33073,-0.18672 0.33073,0.35632 0.33073,0.35631 v 1.91585 1.91584 l -0.30547,0.18879 -0.30546,0.18878 z m -2.82602,-1.52204 0.55445,-0.0794 0.34119,-0.21087 0.34119,-0.21087 -0.63106,-0.34979 -0.63106,-0.34979 -0.43825,-0.009 -0.43825,-0.009 0.13838,0.52916 0.13838,0.52917 h -0.17167 -0.17168 l -0.23929,-0.59531 -0.23928,-0.59532 -0.0168,0.46303 -0.0168,0.46302 h -0.42928 -0.42927 l 0.32938,-0.39688 0.32938,-0.39687 h -0.56157 -0.56156 v 0.11065 0.11065 l 0.1606,0.41852 0.1606,0.41851 h 0.36857 0.36856 v 0.29544 0.29544 l 0.59532,-0.1752 0.59531,-0.17521 z m -21.14785,1.25001 -0.17639,-0.17639 v -0.22049 -0.22049 l 0.99218,0.004 0.99219,0.004 -0.30562,0.19449 -0.30561,0.19448 2.11016,-0.0272 2.11017,-0.0272 -0.34934,0.2215 -0.34934,0.2215 -2.27101,0.004 -2.27101,0.004 z m 7.08052,-0.57243 1.30379,-0.44181 0.10732,-0.33073 0.10732,-0.33073 h -0.43453 -0.43454 l 0.15872,0.25683 0.15873,0.25682 -0.67169,0.16859 -0.67168,0.16858 -0.41424,-0.15896 -0.41424,-0.15895 0.16281,-0.26343 0.1628,-0.26342 -0.41062,0.15757 -0.41061,0.15757 v -0.27532 -0.27531 l -0.72761,-0.1271 -0.7276,-0.12709 1.10222,0.0482 1.10222,0.0482 -0.13281,-0.2149 -0.13281,-0.2149 0.31976,-0.38528 0.31975,-0.38529 h 0.49453 0.49453 l 0.33047,0.52917 0.33047,0.52917 h 0.20094 0.20094 v -0.34396 -0.34396 l 0.28689,-0.28689 0.2869,-0.2869 0.50685,0.13255 0.50686,0.13254 v 1.55664 1.55664 l -2.18282,-0.0212 -2.18281,-0.0212 z m -5.40483,-0.33896 v -0.29403 l -0.92604,0.17372 -0.92604,0.17373 v -0.49706 -0.49706 h 1.17898 1.17899 l -0.17144,0.28663 -0.17144,0.28664 0.38226,-0.30886 0.38227,-0.30885 0.52842,0.4106 0.52841,0.41059 -0.45536,-0.15665 -0.45536,-0.15664 -0.38564,0.38563 -0.38563,0.38563 h -0.15119 -0.15119 z m -38.01432,-0.31056 -0.138666,-0.22437 0.138846,-0.13885 0.138847,-0.13884 0.549106,0.17427 0.549106,0.17428 v 0.23031 0.23031 l -0.549287,-0.0414 -0.549286,-0.0414 z m -2.334636,-0.34122 -1.5875,-0.3635 -1.086605,-0.33754 -1.086605,-0.33753 0.0609,-0.92604 0.0609,-0.92604 0.573651,-5.01601 0.573652,-5.016 0.105794,-0.1058 0.105795,-0.10579 1.338443,0.6049 1.338444,0.6049 v 0.23303 0.23304 l 0.264583,-0.16352 0.264583,-0.16352 v 0.29581 0.29581 l 0.241986,-0.14955 0.241985,-0.14956 0.08874,0.20917 0.08874,0.20918 2.577226,1.16195 2.577226,1.16195 -0.105242,0.10524 -0.105243,0.10524 -0.831561,-0.43001 -0.831562,-0.43002 -0.549076,0.17427 -0.549077,0.17427 0.20883,-0.33789 0.208827,-0.33789 -0.454019,0.17422 -0.454021,0.17422 0.136924,-0.22154 0.136924,-0.22155 -0.845625,-0.024 -0.845623,-0.024 0.851031,0.41217 0.851033,0.41216 -0.161724,0.26168 -0.161724,0.26167 0.595434,-0.18898 0.595434,-0.18898 -0.207844,0.35907 -0.207845,0.35908 0.206209,-0.18584 0.206209,-0.18584 0.365378,0.36538 0.365376,0.36537 v 0.38747 0.38747 l -0.396874,0.15229 -0.396876,0.1523 v -0.36027 -0.36027 l -0.418515,-0.1606 -0.418514,-0.1606 h -0.126267 -0.126267 l 0.139899,0.22637 0.1399,0.22636 -0.653452,-0.12492 -0.65345,-0.12491 v -0.24936 -0.24935 l -0.264584,0.16352 -0.264583,0.16352 -0.0041,-0.47863 -0.0041,-0.47864 -0.215539,0.33969 -0.215538,0.33969 -0.439846,-0.16878 -0.439844,-0.16878 0.06412,-0.79059 0.06412,-0.79058 -1.307269,-0.4984 -1.307271,-0.4984 -0.04327,0.0597 -0.04327,0.0597 -0.293641,1.98437 -0.293641,1.98438 -0.158241,1.5875 -0.15824,1.5875 -0.131798,0.7047 -0.131797,0.7047 0.479012,0.13808 0.479013,0.13809 1.925569,0.55967 1.925568,0.55966 -0.14556,0.23552 -0.14556,0.23552 0.865825,-0.0833 0.865824,-0.0833 -0.46302,0.11738 -0.463021,0.11737 v 0.37847 0.37847 l -0.198438,-0.0266 -0.198437,-0.0266 z m 10.256454,-1.03857 -1.649795,-0.52917 0.02684,-0.66146 0.02684,-0.66145 0.115631,0.43514 0.115632,0.43514 1.208777,0.30438 1.208777,0.30437 0.143856,-0.14385 0.143857,-0.14386 0.32346,-1.78629 0.32346,-1.78628 0.02562,2.11666 0.02562,2.11667 -0.194386,0.26458 -0.194386,0.26459 z m -6.653887,-0.7276 -0.03069,-0.46303 h -0.297657 -0.297656 l 0.170326,-0.85162 0.170325,-0.85163 0.261513,-0.26151 0.261512,-0.26151 0.398922,0.39892 0.398923,0.39892 -0.168443,0.84221 -0.168443,0.84222 -0.212345,-0.13124 -0.212346,-0.13123 -0.121623,0.46626 -0.121624,0.46626 z m 60.294309,-2.29671 v -2.09826 l -0.59532,-0.11466 -0.59531,-0.11467 0.72761,-0.036 0.7276,-0.036 v 2.24896 2.24896 h -0.13229 -0.13229 z m -58.481185,1.03276 -0.605737,-0.52535 0.151347,-0.15135 0.151346,-0.15134 0.65175,-0.0715 0.651749,-0.0715 v 0.62627 0.62626 l -0.197358,0.12198 -0.19736,0.12197 z m 4.312153,0.26514 -0.590906,-0.23765 0.127886,-0.40703 0.127885,-0.40704 0.139571,-0.43748 0.139574,-0.43749 0.384566,0.50363 0.384565,0.50363 0.265561,-0.39687 0.26556,-0.39687 0.0041,0.46302 0.0041,0.46302 h -0.282412 -0.282413 l 0.167951,0.52916 0.167951,0.52917 -0.216267,-0.0168 -0.216267,-0.0168 z m -8.416536,-0.27675 -0.175132,-0.28337 0.174804,-1.16567 0.174803,-1.16568 0.220284,-0.13614 0.220285,-0.13614 0.167167,0.89108 0.167168,0.89107 -0.263899,0.69411 -0.263899,0.69411 h -0.123226 -0.123224 z m -1.949734,-1.96559 -0.03113,-0.52917 -0.28549,0.39688 -0.285491,0.39687 0.199914,-0.52916 0.199915,-0.52917 -0.01467,-0.59531 -0.01468,-0.59532 h 0.244898 0.244898 l 0.114956,0.33073 0.114957,0.33073 -0.228469,0.92604 -0.228469,0.92604 z m 52.567642,-1.64696 0.86463,-0.10707 0.72287,0.10977 0.72286,0.10976 -1.5875,-0.003 -1.5875,-0.003 z m -52.590674,-1.83568 v -0.26354 l -0.565773,0.021 -0.565774,0.021 -0.07246,-0.46428 -0.07246,-0.46429 0.241357,0.14917 0.241356,0.14917 0.02089,-0.47864 0.02089,-0.47863 0.145928,0.39687 0.145929,0.39688 0.404825,0.46464 0.404825,0.46464 -0.174767,0.17477 -0.174767,0.17477 z m 54.704294,-4.75524 -0.27751,-0.60907 -0.23021,0.14228 -0.23021,0.14228 0.15222,0.2463 0.15223,0.2463 h -0.30851 -0.30851 l 0.1606,-0.41852 0.1606,-0.41851 v -0.4061 -0.40609 l 0.52917,0.13838 0.52917,0.13838 v -0.20895 -0.20896 l -0.52917,-0.13838 -0.52917,-0.13838 v -0.29766 -0.29765 l 0.42963,-0.16487 0.42963,-0.16486 0.24809,0.44331 0.24809,0.44332 0.24832,-0.15347 0.24833,-0.15347 v 0.41249 0.41249 h -0.26459 -0.26458 v 0.2802 0.28019 l 0.27433,-0.16954 0.27433,-0.16954 -0.0609,0.90358 -0.0609,0.90358 h -0.37153 -0.37153 z m -41.079507,-0.36311 -0.164776,-0.26661 0.401092,-0.40109 0.401092,-0.4011 0.267926,0.50063 0.267927,0.50062 -0.16708,0.16708 -0.16708,0.16708 h -0.337163 -0.337162 z m -1.549317,-1.18777 -0.127752,-0.33291 0.827563,0.0651 0.827562,0.0651 0.07867,0.236 0.07867,0.236 -0.778476,0.0318 -0.778478,0.0318 z m 38.898624,-0.0472 -0.1741,-0.17409 v -0.35278 -0.35278 h 0.38126 0.38126 l 0.145,0.23461 0.14499,0.2346 -0.35216,0.29227 -0.35216,0.29227 z m -35.179635,-5.91799 -0.462726,-0.54042 -0.275342,0.17017 -0.275342,0.17017 -0.143637,-0.54927 -0.143637,-0.54927 -0.896888,-0.16825 -0.896888,-0.16826 v -0.54382 -0.54382 l -0.16708,0.16708 -0.167079,0.16708 -0.550722,-0.29473 -0.550721,-0.29474 0.58551,-0.2166 0.58551,-0.21659 -0.02089,-0.33926 -0.02089,-0.33925 -0.133453,0.33073 -0.133452,0.33073 h -0.258149 -0.25815 l 0.163522,-0.26459 0.163521,-0.26458 h -0.624156 -0.624157 l -0.370886,0.33073 -0.370885,0.33073 0.315673,-0.42122 0.315674,-0.42122 -0.169981,-0.16998 -0.16998,-0.16998 -0.316505,0.43284 -0.316503,0.43285 -0.213558,-0.34555 -0.213559,-0.34554 0.305464,0.18878 0.305464,0.18879 v -0.30888 -0.30888 l -0.727605,0.15047 -0.727604,0.15048 0.332378,-0.14439 0.332378,-0.14439 -0.174821,-0.28287 -0.174821,-0.28286 0.287182,0.17749 0.287181,0.17748 0.151878,-0.24574 0.151878,-0.24575 -0.596616,0.0758 -0.596617,0.0758 -0.264584,0.0647 -0.264582,0.0647 -0.374828,-0.0313 -0.374826,-0.0313 0.179606,-0.1796 0.179607,-0.17961 -1.174182,-0.68576 -1.174181,-0.68576 -0.548828,-0.69772 -0.548828,-0.69772 v -0.18502 -0.18501 l 0.379781,0.14574 0.379781,0.14573 0.08878,-0.26635 0.08878,-0.26635 2.111124,-0.12081 2.111123,-0.12082 1.719792,0.005 1.719792,0.005 1.180179,0.13227 1.180179,0.13228 0.473267,-0.15021 0.473268,-0.15021 -0.261071,-0.48782 -0.261071,-0.48781 0.988874,0.061 0.988875,0.061 0.67485,0.28565 0.67485,0.28566 0.648066,-0.11063 0.648067,-0.11064 0.661458,0.52823 0.661458,0.52823 -0.595312,0.006 -0.595313,0.006 v 0.2929 0.29289 l 0.463021,-0.19062 0.463021,-0.19062 0.529167,-0.14815 0.529166,-0.14816 -0.363126,0.44276 -0.363126,0.44275 h 0.577179 0.577178 l -0.188328,0.30473 -0.188328,0.30472 0.487866,0.35674 0.487867,0.35674 H 81.867528 81.45248 l -0.303733,0.36597 -0.303734,0.36598 0.447871,0.17186 0.447871,0.17187 0.273257,-0.27326 0.273257,-0.27326 0.277813,0.004 0.277812,0.004 -0.396875,0.25648 -0.396875,0.25648 0.363126,0.004 0.363126,0.004 -0.309827,0.37332 -0.309828,0.37332 0.283986,0.17552 0.283987,0.17551 -0.0727,-0.3504 -0.0727,-0.35039 h 0.507118 0.507118 l 0.110303,0.33091 0.110303,0.33091 -0.462386,-0.17744 -0.462388,-0.17743 0.181261,0.29328 0.18126,0.29329 -0.468587,0.2728 -0.468584,0.2728 0.463021,0.008 0.46302,0.008 v 0.39688 0.39688 h 0.264583 0.264584 v 0.38372 0.38373 l 0.463021,0.26969 0.463021,0.26968 -0.264585,0.0121 -0.264582,0.0121 0.396874,0.25648 0.396875,0.25648 -0.888783,0.004 -0.888785,0.004 -1.468181,-1.44495 -1.468183,-1.44495 -0.192641,0.11906 -0.19264,0.11906 -0.137603,-0.52619 -0.137602,-0.52619 -0.355499,0.004 -0.3555,0.004 0.396875,0.25648 0.396876,0.25648 -0.661459,0.008 -0.661458,0.008 0.396875,0.25648 0.396875,0.25648 -0.215832,0.004 -0.215831,0.004 -0.459883,-0.24612 -0.459882,-0.24613 -0.38262,0.27108 -0.382619,0.27108 0.49248,-0.16025 0.49248,-0.16025 -0.146887,0.38278 -0.146886,0.38279 0.315865,0.12849 0.315866,0.1285 -0.454718,0.0209 -0.454716,0.0209 0.173525,0.46302 0.173526,0.46302 -0.4295,-0.34909 -0.4295,-0.34909 -0.541724,0.28992 -0.541723,0.28993 0.06179,0.58833 0.06179,0.58834 0.264583,0.19438 0.264584,0.19439 -0.330731,0.004 -0.330728,0.004 v 0.39687 0.39688 h -0.205782 -0.205782 z m 2.062248,-0.7868 -0.166189,-0.2689 -0.218577,0.13508 -0.218577,0.13509 -0.175157,-0.45645 -0.175158,-0.45646 0.27311,-0.091 0.273111,-0.091 0.138906,0.0198 0.138907,0.0198 0.02609,0.19844 0.02609,0.19844 0.247801,0.46302 0.247802,0.46302 h -0.125987 -0.125984 z m -24.002965,71.835398 -0.653651,-0.6061 -0.347121,0.21453 -0.347123,0.21454 0.418524,0.41852 0.418524,0.41853 0.109221,-0.32767 0.10922,-0.32766 0.353248,0.66005 0.353247,0.66005 0.119782,-0.35935 0.119781,-0.35934 z m 90.248712,-0.0986 0.57509,-0.49877 -0.37746,-0.14484 -0.37745,-0.14484 -0.42231,0.46665 -0.42232,0.46664 0.17697,0.17697 0.17697,0.17697 h 0.0477 0.0477 z m -1.55246,-2.43995 v -0.29289 l 0.39688,0.1523 0.39687,0.15229 v -0.25628 -0.25628 l -0.59531,-0.0186 -0.59531,-0.0186 0.52916,-0.22739 0.52917,-0.22739 -0.55838,-0.0186 -0.55839,-0.0186 -1.2937,-0.15365 -1.2937,-0.15364 0.66146,0.54464 0.66146,0.54463 0.44741,0.006 0.4474,0.006 0.16352,0.26458 0.16353,0.26458 h 0.24896 0.24897 z m -3.96875,-0.36857 -0.32937,-0.39687 h -0.36448 -0.36448 v 0.39687 0.39688 h 0.69385 0.69386 z m -57.325328,-2.32467 -0.11717,-0.86946 0.543126,-0.62623 0.543127,-0.62623 v -0.10964 -0.10963 l -0.509529,0.16172 -0.50953,0.16171 -0.221877,-0.39647 -0.221876,-0.39647 -0.37606,0.23242 -0.37606,0.23242 0.347303,0.41847 0.347302,0.41847 -0.162494,1.01619 -0.162495,1.01619 0.173005,0.173 0.173006,0.17301 h 0.323696 0.323697 z m 3.566774,-0.32116 0.301381,-0.66146 -0.192764,0.004 -0.192766,0.004 -0.283883,0.19438 -0.283882,0.19439 -0.170834,0.46302 -0.170835,0.46302 h 0.346101 0.346102 z M 76.889779,121.705 v -0.50086 l -0.396875,-0.15229 -0.396874,-0.1523 v 0.23464 0.23464 l 0.160598,0.41852 0.160599,0.41851 h 0.236276 0.236276 z m 70.837831,-4.01434 0.0237,-3.98603 -0.43963,-0.15886 -0.43962,-0.15887 -1.61393,-1.27023 -1.61392,-1.27024 -0.37045,-0.45626 -0.37045,-0.45626 2.35759,1.77196 2.35759,1.77196 0.15595,-0.16493 0.15595,-0.16494 -0.49703,-0.29969 -0.49702,-0.2997 -1.82208,-1.38906 -1.82207,-1.38907 h -0.2245 -0.22451 l -0.25936,-2.71198 -0.25935,-2.71197 -0.0805,2.11666 -0.0805,2.11667 -0.0629,1.05833 -0.0629,1.05834 -0.1908,0.46302 -0.1908,0.46302 h -0.26868 -0.26867 l 0.29469,-0.35508 0.29468,-0.35507 -0.17812,-0.17812 -0.17813,-0.17813 -0.0923,-2.17878 -0.0923,-2.17878 -0.10212,-0.66146 -0.10213,-0.66146 -0.0221,-0.19844 -0.022,-0.19843 -0.46302,0.0209 -0.46302,0.0209 0.36066,0.14344 0.36067,0.14343 -0.36067,0.23255 -0.36066,0.23256 0.39687,0.25651 0.39688,0.25651 -0.32631,0.52657 -0.32631,0.52656 0.4586,0.26721 0.4586,0.26721 -0.34634,0.008 -0.34635,0.008 0.16352,0.26459 0.16352,0.26458 -0.34634,0.008 -0.34634,0.008 0.51359,0.38846 0.51359,0.38846 -0.3813,0.0209 -0.3813,0.0209 0.36067,0.14343 0.36066,0.14343 -0.34365,0.21239 -0.34365,0.21239 0.2638,0.35089 0.2638,0.3509 -0.0378,0.26458 -0.0378,0.26459 -0.20113,0.70999 -0.20112,0.70999 -0.3923,-0.15054 -0.39229,-0.15054 0.15701,-0.6256 0.15702,-0.6256 h -0.26963 -0.26962 l -0.028,0.33073 -0.028,0.33073 0.0452,0.79375 0.0452,0.79375 1.8192,1.85209 1.8192,1.85208 0.61106,0.70398 0.61105,0.70397 1.71979,1.87385 1.7198,1.87384 0.019,0.002 0.019,0.002 z m -69.406492,2.59697 -0.144081,-0.46302 0.348558,-0.0313 0.348558,-0.0313 -0.79375,-0.16965 -0.79375,-0.16966 -0.03002,-0.59279 -0.03002,-0.59279 h 0.228458 0.228458 v -0.42927 -0.42927 l -0.396875,0.32937 -0.396874,0.32938 v 0.52118 0.52119 l 0.529166,0.67272 0.529167,0.67273 0.0041,0.55963 0.0041,0.55963 0.254492,-0.39687 0.254491,-0.39688 z m -6.71778,-2.97026 -0.334603,-0.40318 H 71.00612 70.743503 l 0.433404,0.66146 0.433404,0.66146 h -0.127684 -0.127684 l -0.672164,-0.7249 -0.672167,-0.7249 v 0.44111 0.44112 l 0.721724,0.5677 0.721725,0.56771 0.24194,-0.54221 0.241939,-0.5422 z m 5.307399,-0.74116 0.947,-0.33002 -0.09979,-0.29937 -0.09979,-0.29937 -0.582626,0.14152 -0.582627,0.14152 -0.507884,0.4257 -0.507886,0.42571 0.174125,-0.47676 0.174126,-0.47676 -0.263422,0.1628 -0.263422,0.1628 -0.158008,-0.41176 -0.158008,-0.41176 -0.613937,0.15409 -0.613938,0.15409 0.07239,-0.35441 0.07239,-0.35441 0.204941,-0.47443 0.204941,-0.47443 -0.179364,-0.17937 -0.179364,-0.17936 -0.252592,0.38921 -0.252592,0.38921 0.06854,0.66146 0.06854,0.66146 0.606823,0.0861 0.606823,0.0861 -0.161632,0.50926 -0.161632,0.50925 0.745434,-0.004 0.745434,-0.004 z m -1.346087,-1.77172 0.394663,-0.24951 -0.339534,-0.33954 -0.339535,-0.33953 -0.249515,0.39466 -0.249514,0.39467 -0.0041,0.19843 -0.0041,0.19844 0.198436,-0.004 0.198438,-0.004 z m 43.43894,-4.17415 -0.23814,-0.46302 0.11859,-0.33073 0.11858,-0.33073 h -0.55121 -0.55122 v 0.37524 0.37523 l 0.1606,0.41852 0.1606,0.41851 h 0.51017 0.51017 z m 3.72525,-0.25356 -0.33073,-0.12127 v -0.49881 -0.49882 l -0.39688,0.1523 -0.39687,0.1523 v 0.61375 0.61375 l 0.46302,0.106 0.46302,0.106 0.26458,-0.25197 0.26459,-0.25196 z m -6.17383,-0.91253 -0.26093,-0.48756 h -0.51156 -0.51155 l 0.15229,0.39688 0.1523,0.39687 h -0.55748 -0.55747 v 0.36017 0.36017 l 1.17766,-0.26949 1.17767,-0.26948 z m 23.2522,-0.24037 -0.0592,-0.77635 h -0.28747 -0.28747 l 0.10786,0.92392 0.10787,0.92392 0.23876,-0.14757 0.23876,-0.14756 z m -16.87993,-1.83949 0.39687,-0.012 -0.51359,-0.38846 -0.51359,-0.38846 h -0.75249 -0.75249 l 0.29655,0.55411 0.29654,0.5541 0.57266,-0.15362 0.57266,-0.15361 z m 16.55571,-1.77578 -0.40012,-0.73296 0.0348,1.25452 0.0348,1.25452 0.36531,-0.52156 0.36532,-0.52157 z m -16.63909,-0.19434 -0.0897,-0.27403 -0.83952,-0.0829 -0.83952,-0.0829 v 0.30965 0.30966 l 0.39688,-0.1523 0.39687,-0.1523 v 0.19959 0.19958 h 0.53232 0.53232 z m -7.27698,-0.20819 -0.61348,-0.29521 0.12569,-0.48063 0.12569,-0.48063 h -0.37211 -0.3721 v 0.79375 0.79375 l 0.8599,-0.0179 0.85989,-0.0179 z m 30.28815,-0.33266 0.30591,-0.65956 -0.13995,-0.53516 -0.13995,-0.53517 -0.35598,0.46919 -0.35599,0.46918 -0.008,0.72761 -0.008,0.7276 0.19843,-0.002 0.19844,-0.002 z m -25.63977,0.17594 0.33073,-0.0414 -0.0662,-0.33073 -0.0661,-0.33072 0.88231,0.0861 0.8823,0.0861 0.39607,-0.48295 0.39606,-0.48294 -0.16818,0.52916 -0.16819,0.52917 0.42021,-0.41537 0.42022,-0.41536 0.0715,-1.8803 0.0715,-1.8803 -2.26333,-0.172298 -2.26332,-0.17229 -0.39688,-0.0456 -0.39687,-0.0456 -0.0842,1.322908 -0.0842,1.32292 -0.95063,0.7276 -0.95063,0.72761 h 0.30719 0.30719 l 0.52917,-0.52917 0.52916,-0.52917 v 1.16858 1.16858 l 0.33073,0.11221 0.33073,0.11221 0.66146,-0.0487 0.66146,-0.0487 z m 23.87864,-0.96746 v -0.89481 l -0.26458,-0.16352 -0.26458,-0.16352 v 1.22185 1.22186 l 0.26458,-0.16352 0.26458,-0.16353 z m -11.55644,0.46302 0.12089,-0.46302 -0.0369,-0.79375 -0.0369,-0.79375 -1.91823,-0.0777 -1.91823,-0.0777 v 1.18464 1.18464 l 0.72761,0.11022 0.7276,0.11023 1.10665,0.0396 1.10665,0.0396 z m -81.954465,-0.12954 0.12545,-0.12545 -0.162285,-0.42291 -0.162286,-0.42291 -0.556857,0.51879 -0.556858,0.5188 -0.266043,-0.26605 -0.266043,-0.26604 h -0.343958 -0.343958 v 0.43129 0.43128 l 1.203694,-0.13567 1.203695,-0.13568 z m 76.838105,-1.22799 0.004,-0.89452 -0.99219,0.164 -0.99218,0.164 -0.72761,0.003 -0.7276,0.003 v 0.63669 0.63669 l 0.49268,-0.12884 0.49268,-0.12884 0.18301,0.47693 0.18301,0.47692 0.22156,-0.35849 0.22155,-0.35848 0.61101,0.42797 0.61102,0.42797 0.20748,-0.32666 0.20748,-0.32665 z m -72.113802,-0.97647 0.415774,-0.41577 v -0.0968 -0.0968 l -0.992187,0.15012 -0.992188,0.15011 -0.264583,0.26429 -0.264583,0.26428 0.749773,-0.17706 0.749773,-0.17705 -0.170076,0.27519 -0.170074,0.27518 h 0.261298 0.261301 z m 86.863032,-2.15801 -0.10414,-0.998088 -0.002,1.852078 -0.002,1.85209 0.10627,-0.854 0.10627,-0.85399 z m -3.49772,0.98197 0.16619,-0.2689 0.22315,0.13791 0.22314,0.13791 -0.0737,-0.67142 -0.0737,-0.671428 -0.16772,-0.16772 -0.16773,-0.16773 v 0.46928 0.469278 l -0.36463,-0.13992 -0.36463,-0.13993 -0.29683,0.29683 -0.29682,0.29682 v 0.34396 0.34396 h 0.51355 0.51355 z m -84.669329,-0.95255 0.79375,-0.160358 0.44143,-0.3889 0.441431,-0.38889 -0.537952,-0.91177 -0.537952,-0.91176 -0.345142,0.28645 -0.345142,0.28644 -0.285746,-0.47769 -0.285747,-0.4777 -0.330924,0.42001 -0.330923,0.42002 -0.463021,-0.001 -0.463021,-10e-4 v -0.49509 -0.49508 l 0.699852,0.0762 0.699851,0.0762 0.101531,-0.28748 0.10153,-0.28748 -1.487456,0.20185 -1.487456,0.20185 -0.151773,0.15178 -0.151773,0.15177 h 0.705555 0.705556 v 0.24897 0.24897 l -0.264583,0.16352 -0.264584,0.16352 v -0.2802 -0.2802 h -0.503747 -0.503747 l 0.52587,1.38398 0.525871,1.383978 0.133571,0.21612 0.133571,0.21612 0.968785,-0.14626 0.968785,-0.14627 z m 82.838349,0.20158 -0.13975,-0.22613 0.6533,-0.613748 0.65331,-0.61374 v -0.21847 -0.21846 h -0.27661 -0.27661 l -0.64944,0.64943 -0.64943,0.64944 v 0.408898 0.4089 h 0.41249 0.41249 z m -86.410224,-0.14889 v -0.11036 l -0.519763,-1.212558 -0.519766,-1.21256 h -0.803152 -0.803152 v 1.32292 1.322918 h 1.322917 1.322917 z m 58.208334,-0.418808 v -0.26458 l -1.38907,0.0313 -1.38906,0.0313 0.79375,0.20197 0.79375,0.20198 0.59531,0.0313 0.59532,0.0313 z m -49.786174,-0.26864 0.441381,-0.004 0.329574,-0.20928 0.329574,-0.20929 -0.434638,-1.10648 -0.434638,-1.10648 -1.085561,0.16037 -1.085561,0.16036 0.529168,-0.44964 0.529166,-0.44965 -0.484661,0.15389 -0.48466,0.15389 h -0.728014 -0.728013 l -0.03064,0.46302 -0.03064,0.46302 0.301953,1.01788 0.301952,1.01787 1.073653,-0.16173 1.073652,-0.16174 -0.396875,0.2933 -0.396875,0.2933 0.48466,-0.15725 0.484661,-0.15725 z m 2.425756,-0.03 v -0.29867 l 1.389064,0.15464 1.389061,0.15463 -0.341771,-0.14627 -0.341774,-0.14628 0.324759,-0.39131 0.324759,-0.39131 -0.272977,-0.17828 -0.272977,-0.17827 -0.16154,-0.66146 -0.161538,-0.66145 -0.38947,-0.52917 -0.389468,-0.52917 -0.20253,0.52917 -0.202531,0.52917 -0.39278,0.39687 -0.392781,0.39688 -0.08505,-0.0661 -0.08504,-0.0661 h -0.551216 -0.551215 l 0.112789,0.33073 0.112789,0.33072 0.570717,-0.0828 0.570719,-0.0828 v 0.28122 0.28121 h -0.492476 -0.492477 l 0.126446,0.66146 0.126446,0.66146 h 0.36603 0.366031 z m 72.355338,0.0474 0.15531,-0.2513 -0.53657,-0.28717 -0.53658,-0.28717 -0.006,0.20775 -0.006,0.20774 -0.48598,-0.63203 -0.48597,-0.63204 -1.10954,-0.0398 -1.10955,-0.0398 -0.28308,0.34109 -0.28307,0.34109 0.23083,0.004 0.23083,0.004 -0.38921,0.24615 -0.38921,0.24614 0.19989,0.19989 0.19988,0.19989 1.20139,0.0549 1.2014,0.0549 0.15651,0.15651 0.15651,0.15651 h 0.86633 0.86633 z m -5.51862,-0.4077 0.29402,-0.09 0.14708,-0.56243 0.14707,-0.56242 -0.48497,0.15392 -0.48497,0.15392 -0.17017,-0.27534 -0.17018,-0.27535 h -0.51355 -0.51355 v 0.37918 0.37918 l -0.78942,-0.0224 -0.78943,-0.0224 0.4587,-0.34832 0.45869,-0.34832 -0.66146,-0.006 -0.66146,-0.006 -0.31134,0.67107 -0.31135,0.67108 0.47251,-0.14997 0.47251,-0.14997 0.45633,0.17511 0.45634,0.17511 -0.30917,0.19108 -0.30917,0.19107 1.41146,-0.11552 1.41147,-0.11553 z m -63.088453,-0.11234 0.08819,-0.24216 1.757919,-0.14252 1.757919,-0.14252 0.887915,-0.38749 0.887915,-0.38748 -0.330729,-0.0216 -0.330729,-0.0216 v -0.34413 -0.34412 l -0.33073,-0.71215 -0.330729,-0.71214 -0.179538,-0.002 -0.17954,-0.002 -0.361967,0.36197 -0.361968,0.36197 -0.586815,0.18625 -0.586814,0.18624 0.156292,0.31168 0.156291,0.31168 -0.549324,-0.62462 -0.549325,-0.62462 v -0.39688 -0.39687 l -0.515456,0.62462 -0.515457,0.62462 0.14944,-0.59531 0.14944,-0.59531 h -0.295443 -0.295442 l 0.06615,0.33073 0.06615,0.33073 -0.727604,-0.0762 -0.727604,-0.0762 v 0.41193 0.41193 l 0.661458,-0.16602 0.661458,-0.16601 v 0.29326 0.29327 h -0.529166 -0.529167 v 0.39687 0.39688 l 0.595313,0.0307 0.595312,0.0307 -0.424056,0.11349 -0.424057,0.1135 0.124172,0.64956 0.124171,0.64956 h 0.343982 0.343982 z m 70.997993,-0.28863 0.48036,-0.53078 -0.12459,-0.12459 -0.12458,-0.12458 -0.57935,0.40579 -0.57935,0.40579 v 0.24958 0.24958 h 0.22358 0.22357 z m 5.8808,-3.76869 -0.10128,-1.12447 v 2.24895 2.24896 l 0.10128,-1.12448 0.10128,-1.12448 z m 3.9452,0.6773 -0.13497,-0.13497 -0.28219,0.1744 -0.28218,0.1744 v 0.6242 0.62421 l 0.18812,0.48466 0.18813,0.48466 0.22903,-1.1483 0.22903,-1.14829 z m -84.164503,0.69416 0.174401,-0.28218 -0.10319,-0.10319 -0.10319,-0.10319 -1.180075,0.36767 -1.180075,0.36768 1.108864,0.0177 1.108864,0.0177 z m 77.312273,-1.15875 0.0648,-0.91071 -0.28086,-0.17359 -0.28087,-0.17358 -0.13612,0.13612 -0.13613,0.13613 0.28674,0.53577 0.28673,0.53577 -0.26961,0.16663 -0.26962,0.16663 0.15223,0.2463 0.15222,0.2463 0.18282,-5.3e-4 0.18282,-5.3e-4 z m -0.13242,-2.65979 0.12639,-0.66115 -0.34222,-0.46333 -0.34222,-0.46333 0.0133,1.12448 0.0133,1.12448 h 0.20255 0.20254 z m 2.59818,-5.15969 -0.26424,-1.4552 0.1236,1.69245 0.1236,1.69246 0.0544,2.01171 0.0544,2.01171 0.0862,-2.24896 0.0862,-2.24896 z m 4.13122,4.76902 0.0777,-0.50902 -0.26276,-0.16239 -0.26275,-0.1624 -0.15873,0.41365 -0.15873,0.41364 0.16682,0.43475 0.16683,0.43474 0.17698,-0.17698 0.17698,-0.17698 z m -0.0472,-2.25547 v -1.01424 l -0.29777,-0.0993 -0.29777,-0.0993 -0.10413,0.60637 -0.10413,0.60638 0.0916,0.61056 0.0916,0.61056 0.31033,-0.10344 0.31032,-0.10344 z m -6.87065,-0.57263 -0.008,-0.96951 -0.28291,-0.0949 -0.28292,-0.0949 0.006,1.06445 0.006,1.06444 h 0.28522 0.28521 z m -1.70949,-3.99569 -0.26731,-0.45877 -0.008,0.33073 -0.008,0.33073 h -0.24518 -0.24518 l -0.121,-0.46302 -0.121,-0.46302 -0.0307,0.4474 -0.0307,0.44741 0.26458,0.16352 0.26458,0.16352 0.0313,0.5797 0.0313,0.5797 0.2171,-0.79375 0.2171,-0.79375 -0.0272,1.32292 -0.0273,1.32291 0.0973,1.05834 0.0973,1.05833 0.0892,-2.18706 0.0892,-2.18707 z m 3.30737,2.73513 0.37798,-0.37798 v -0.0949 -0.0949 l -0.53488,-0.0403 -0.53489,-0.0403 0.15363,0.24857 0.15362,0.24857 h -0.2802 -0.2802 v 0.26459 0.26458 h 0.28349 0.28348 z m -1.65096,-1.25182 0.14944,-0.57146 -0.34868,-0.66548 -0.34868,-0.66548 -0.0248,1.23694 -0.0248,1.23694 h 0.22406 0.22407 z m 1.49977,-0.61086 v -0.65315 l -0.41906,0.16081 -0.41905,0.1608 0.35291,0.22372 0.35291,0.22371 -0.33073,0.004 -0.33073,0.004 v 0.26458 0.26458 h 0.39688 0.39687 z m -3.63802,-1.91866 -0.33073,-0.11811 v -0.33814 -0.33814 l -0.7276,0.11632 -0.7276,0.11632 0.39687,-0.3051 0.39688,-0.30509 -1.05773,0.17637 -1.05773,0.17637 -0.1329,0.20969 -0.13289,0.2097 -0.52917,0.15258 -0.52917,0.15258 1.85944,-0.0824 1.85944,-0.0824 0.35006,0.37475 0.35007,0.37475 0.17175,-0.18592 0.17174,-0.18592 z m 1.96065,-0.008 -0.12553,-0.46302 -0.15405,-0.69624 -0.15405,-0.69624 1.38623,-0.5942 1.38623,-0.5942 0.63139,-0.62779 0.6314,-0.62778 h 0.4526 0.4526 l 0.61014,-0.52917 0.61013,-0.52917 h 0.38081 0.3808 l 0.67273,-0.52916 0.67272,-0.52917 h -0.41694 -0.41694 l -0.17215,0.27855 -0.17216,0.27855 -0.28994,-0.0967 -0.28995,-0.0966 -0.47956,0.47956 -0.47955,0.47955 h -0.24519 -0.24518 l -0.121,-0.46302 -0.121,-0.46302 -0.0307,0.60186 -0.0307,0.60186 -0.7276,0.27664 -0.72761,0.27663 -0.0756,-0.0281 -0.0756,-0.028 -0.44753,0.44753 -0.44753,0.44753 -0.13833,-0.57974 -0.13833,-0.57974 0.13229,-2.23563 0.13229,-2.23564 -0.30664,-0.41845 -0.30663,-0.41844 -0.22253,-0.0485 -0.22253,-0.0485 0.0383,-0.34002 0.0383,-0.34001 -0.36903,0.30627 -0.36902,0.30626 v -0.84176 -0.84177 l 0.26458,0.16353 0.26459,0.16352 v -0.42811 -0.4281 l -0.33073,0.19869 -0.33073,0.1987 0.38688,-0.4763 0.38689,-0.47629 -0.39727,-0.3021 -0.39728,-0.3021 -0.0578,-0.79375 -0.0578,-0.79375 -0.2606,-0.79375 -0.2606,-0.79375 0.12357,1.98438 0.12357,1.98437 -0.25602,-0.52916 -0.25602,-0.52917 0.11711,1.19062 0.1171,1.19063 0.0135,1.2143 0.0135,1.2143 0.63021,0.28714 0.63021,0.28715 0.0422,2.68815 0.0422,2.68815 -0.28656,-0.17711 -0.28657,-0.1771 0.11086,-1.10207 0.11085,-1.10208 -0.22561,-0.59531 -0.2256,-0.59531 h -0.26781 -0.26779 l 0.0628,1.58744 0.0628,1.58744 0.19844,6e-5 0.19844,6e-5 v 0.35105 0.35105 l -0.79375,-0.1165 -0.79375,-0.1165 v 0.28631 0.28631 l 0.3621,-0.13895 0.3621,-0.13895 0.16345,0.61027 0.16345,0.61028 0.004,0.99219 0.004,0.99219 h 0.41471 0.4147 z m -2.68825,-1.99693 0.26458,-0.21715 -1.12448,0.0888 -1.12448,0.0888 v -0.20543 -0.20543 l -0.99218,0.036 -0.99219,0.036 0.59531,0.11466 0.59531,0.11467 v 0.24375 0.24375 l 1.05834,-0.13297 1.05833,-0.13298 v 0.31179 0.3118 l 0.19844,-0.23946 0.19844,-0.23946 z m 0.75714,-0.31817 -0.1523,-0.39687 -1.09617,0.0396 -1.09617,0.0396 0.79375,0.113 0.79375,0.11301 0.25135,0.24423 0.25136,0.24422 h 0.20336 0.20336 z m -7.01936,-0.39273 0.88154,0.0153 -0.18361,-0.29707 -0.1836,-0.29708 1.55103,0.14821 1.55103,0.1482 -0.66146,-0.25246 -0.66146,-0.25247 1.61049,0.13526 1.61049,0.13527 0.44003,-0.16886 0.44003,-0.16885 v -0.63315 -0.63316 l -0.8599,-0.004 -0.85989,-0.004 0.27343,-0.19438 0.27344,-0.19439 -0.009,-0.33073 -0.009,-0.33073 -0.26458,-0.0225 -0.26459,-0.0225 -0.33073,-0.27448 -0.33072,-0.27448 v 0.2573 0.25729 l -0.8599,-0.0265 -0.8599,-0.0265 0.0661,-0.33073 0.0661,-0.33073 h -0.26449 -0.26459 v -0.66133 -0.66146 h -0.24701 -0.24701 l -0.11022,0.72761 -0.11022,0.7276 -0.049,-0.92604 -0.049,-0.92604 -0.36428,0.65814 -0.36429,0.65814 0.1495,0.24189 0.1495,0.2419 -0.44507,0.32544 -0.44508,0.32545 0.40465,0.15528 0.40466,0.15528 v 0.39687 0.39688 l -0.33073,-0.1011 -0.33073,-0.10109 -0.8599,-0.14857 -0.85989,-0.14857 v 0.52255 0.52255 l 0.59531,-0.006 0.59531,-0.007 1.05833,-0.22969 1.05834,-0.22968 1.38906,-0.16984 1.38906,-0.16983 v 0.2543 0.25429 l -0.46302,0.121 -0.46302,0.121 0.92604,0.0611 0.92604,0.0611 -1.05833,0.21891 -1.05833,0.21891 -1.05834,-0.003 -1.05833,-0.003 0.52917,-0.22565 0.52916,-0.22566 -2.18281,0.15117 -2.18281,0.15118 -0.0313,-1.95745 -0.0313,-1.95744 -0.19256,-0.79375 -0.19256,-0.79375 0.0908,3.175 0.0908,3.175 -0.23256,-0.69634 -0.23256,-0.69631 -0.19209,-3.45353 -0.19209,-3.45354 1.02074,-0.19761 1.02073,-0.19761 -0.66146,-0.19024 -0.66146,-0.19023 -0.39687,-0.008 -0.39688,-0.008 0.51953,0.20312 0.51952,0.20312 -0.73705,0.18499 -0.73706,0.18499 0.0694,1.30691 0.0694,1.30691 -0.18256,0.18256 -0.18256,0.18257 0.004,0.28663 0.004,0.28663 0.28125,-0.39687 0.28126,-0.39688 -0.16071,3.05706 -0.16071,3.05707 0.13703,0.13702 0.13702,0.13703 1.39202,-0.22312 1.39202,-0.22313 z m 11.68618,-3.97287 v -2.11667 l -0.19844,-6.2e-4 -0.19844,-6.2e-4 0.0863,2.11729 0.0863,2.11729 h 0.11215 0.11214 z m -87.153246,-1.47674 -0.178404,-1.74132 0.315418,0.19494 0.315419,0.19493 -0.160122,-1.56246 -0.160121,-1.56247 0.232556,0.52916 0.232556,0.52917 0.0186,-1.22846 0.0186,-1.22847 -0.420752,-0.16146 -0.420751,-0.16145 -0.281587,0.17403 -0.281588,0.17403 0.214546,-0.34714 0.214545,-0.34715 -0.57054,0.1492 -0.57054,0.1492 v -0.26812 -0.26812 l -0.388402,0.14905 -0.388401,0.14904 -0.159047,-0.25734 -0.159048,-0.25735 -0.246301,0.15222 -0.246301,0.15223 v -0.30851 -0.3085 l -0.416534,0.15983 -0.416534,0.15984 -0.396114,-0.39611 -0.396115,-0.39612 h -0.377977 -0.377976 l 0.02089,0.46302 0.02089,0.46303 0.133452,-0.33073 0.133452,-0.33073 h 0.265791 0.265791 l -0.155888,0.99218 -0.155888,0.99219 -0.272557,3.01235 -0.272558,3.01234 0.13287,0.13287 0.132871,0.13287 2.190547,0.46589 2.190548,0.46588 0.499558,0.0269 0.499558,0.0269 z m -1.945193,0.23602 0.463021,-0.121 v -0.21687 -0.21688 l -0.420751,-0.16146 -0.420751,-0.16145 -0.245024,0.15143 -0.245022,0.15143 0.152222,0.2463 0.152223,0.2463 h -0.758795 -0.758796 l -0.476693,-0.34856 -0.476693,-0.34857 0.150637,-1.56966 0.150637,-1.56966 0.04573,-0.66146 0.04573,-0.66146 0.163608,0.92304 0.163607,0.92303 0.469931,0.0899 0.469932,0.0899 -0.03824,-0.21916 -0.03824,-0.21917 0.03133,-0.46302 0.03133,-0.46302 h 0.229873 0.229873 l -0.121652,1.05316 -0.121652,1.05316 0.384051,0.38405 0.38405,0.38405 0.481132,-0.0706 0.481132,-0.0706 0.198626,-0.5067 0.198625,-0.5067 0.01498,0.92604 0.01498,0.92604 -0.159537,0.59531 -0.159538,0.59532 -0.564454,-0.0307 -0.564453,-0.0307 z m 0.992188,-4.42656 v -0.64016 l -1.367218,-0.45412 -1.367217,-0.45412 -0.455961,0.28476 -0.455961,0.28475 0.134246,-0.51336 0.134246,-0.51336 h 0.24934 0.249339 l -0.163521,-0.26458 -0.163522,-0.26458 0.346344,0.0205 0.346344,0.0205 1.31615,0.46309 1.316149,0.46309 0.09249,1.1039 0.09249,1.10391 H 53.22917 53.077304 Z m 91.272651,-2.21482 -0.28745,-0.45227 0.14306,2.77812 0.14306,2.77813 0.0635,1.5875 0.0635,1.5875 0.0809,-3.91335 0.0809,-3.91335 z m -4.32872,2.96567 -0.1606,-0.41852 v -1.16898 -1.16899 h -0.23362 -0.23363 l 0.0723,0.8599 0.0723,0.85989 0.029,0.72761 0.029,0.7276 h 0.29289 0.2929 z m -7.56893,-1.16062 1.98437,-0.49858 -0.4466,-0.0195 -0.4466,-0.0195 -1.80115,0.41771 -1.80115,0.41772 -0.11145,0.11145 -0.11145,0.11145 0.37482,-0.0111 0.37483,-0.0111 z m 10.16617,-2.6542 -0.17986,-1.98438 -0.0622,-0.59773 -0.0623,-0.59773 0.33272,0.27613 0.33273,0.27614 0.40682,-0.40682 0.40682,-0.40682 0.17453,0.54992 0.17454,0.54992 0.73558,-0.73558 0.73559,-0.73559 -0.22291,-0.77723 -0.22291,-0.77723 0.14423,-0.23337 0.14423,-0.23337 -0.17292,-0.7873 -0.17292,-0.78729 h -0.40627 -0.40628 l 0.46826,0.7276 0.46826,0.7276 -0.53873,-0.47561 -0.53872,-0.47561 -0.94982,1.10964 -0.94982,1.10965 -0.47064,-0.35646 -0.47064,-0.35647 -0.33185,-0.39581 -0.33185,-0.39582 0.14016,1.44116 0.14017,1.44117 0.1241,0.4023 0.12409,0.40231 0.152,1.58207 0.15199,1.58207 0.0726,0.66146 0.0726,0.66145 0.0414,0.33298 0.0414,0.33297 0.54281,-0.33297 0.54282,-0.33298 z m 3.56579,0.7276 0.0264,-0.46302 h -0.26459 -0.26458 l 0.0264,1.12448 0.0264,1.12448 0.21183,-0.66146 0.21184,-0.66146 z m -92.705307,-0.71254 -0.163172,-0.51411 0.409926,-2.16095 0.409925,-2.16096 v -0.11867 -0.11868 l 0.228127,0.14099 0.228127,0.14099 -0.02969,-0.5884 -0.02969,-0.5884 -0.595312,-0.0845 -0.595313,-0.0846 v -0.27448 -0.27449 l -0.396875,0.1523 -0.396875,0.15229 v -0.25628 -0.25628 l -0.198437,0.0313 -0.198437,0.0313 -0.444122,-0.0313 -0.444122,-0.0313 -0.415774,-0.41577 -0.415773,-0.41577 v 0.36262 0.36262 l 0.930153,0.33635 0.930153,0.33635 -0.177284,0.28685 -0.177283,0.28685 0.299995,-0.18541 0.299996,-0.18541 0.492524,0.26359 0.492523,0.26359 -0.343096,1.66688 -0.343096,1.66687 -0.141123,0.56393 -0.141122,0.56392 -0.656289,0.12546 -0.656288,0.12546 0.157419,-0.25471 0.157418,-0.25471 -0.595434,0.18899 -0.595434,0.18898 0.163906,-0.26521 0.163906,-0.2652 -0.353203,-0.13554 -0.353203,-0.13553 -0.365219,0.22571 -0.36522,0.22572 0.129023,0.12902 0.129023,0.12903 1.979981,0.80405 1.979982,0.80404 0.08397,0.007 0.08398,0.007 z m 94.243857,-2.85933 -0.14331,-2.05052 -0.16233,-0.66146 -0.16234,-0.66146 -0.13672,-1.30064 -0.13673,-1.30064 -0.15762,-0.25504 -0.15762,-0.25504 0.36756,0.12107 0.36755,0.12107 0.15396,1.5669 0.15396,1.56691 0.0445,-1.65365 0.0445,-1.65365 h -0.23981 -0.23981 l 0.0695,-0.46302 0.0695,-0.46302 -0.11372,0.33073 -0.11372,0.33073 h -0.24519 -0.24518 v -0.68976 -0.68977 l 0.42633,0.1636 0.42633,0.1636 -0.16175,-0.42152 -0.16175,-0.42151 v -0.37524 -0.37523 h -0.24939 -0.24939 l 0.10703,0.59531 0.10704,0.59531 -0.38681,-0.51359 -0.38681,-0.51359 v -0.4786 -0.47859 h -0.31515 -0.31516 l 0.51359,-0.41147 0.51359,-0.41147 -0.583,0.2819 -0.58301,0.2819 0.11816,2.18009 0.11816,2.18009 0.21548,1.32292 0.21548,1.32291 0.3603,-0.0811 0.3603,-0.0811 -0.37552,0.4626 -0.37551,0.46259 0.33073,-0.1987 0.33073,-0.19869 0.0313,0.34634 0.0313,0.34634 -0.0313,0.19844 -0.0313,0.19844 h 0.2282 0.2282 l -0.0726,0.66146 -0.0726,0.66146 h 0.18987 0.18987 l 0.0139,0.59531 0.0139,0.59531 0.0375,0.72761 0.0375,0.7276 h 0.16629 0.16629 z m -91.416421,-0.94964 0.125652,-1.54496 -0.18825,0.35433 -0.188249,0.35433 -0.160226,1.71979 -0.160226,1.7198 0.222824,-0.52917 0.222824,-0.52917 z m 88.603871,-6.04473 -0.28079,-0.80548 0.17,-0.27507 0.17,-0.27507 -0.30643,0.18939 -0.30644,0.18938 0.14925,0.59466 0.14925,0.59466 0.0961,0.51361 0.0961,0.5136 0.0599,0.52917 0.0599,0.52917 0.11203,-0.74628 0.11202,-0.74627 z m -30.37405,-9.73641 0.13946,-0.53329 -0.17366,1.7e-4 -0.17367,1.6e-4 0.0917,-1.32308 0.0917,-1.32308 h -0.42241 -0.42241 v 1.17501 1.17501 l 0.2291,0.14159 0.2291,0.14159 -0.13517,0.7071 -0.13517,0.7071 0.27101,-0.1675 0.27101,-0.16749 z"
       id="path9" /></g></svg>
