<?xml version="1.0" encoding="UTF-8" standalone="no"?>
<!-- Created with Inkscape (http://www.inkscape.org/) -->

<svg
   width="101.6mm"
   height="84.666672mm"
   viewBox="0 0 101.6 84.666672"
   version="1.1"
   id="svg1"
   xml:space="preserve"
   xmlns="http://www.w3.org/2000/svg"
   xmlns:svg="http://www.w3.org/2000/svg"><defs
     id="defs1" /><g
     id="layer1"
     transform="translate(-47.763559,-27.171991)"><path
       style="fill:#ffffff;fill-opacity:1"
       d="M 47.763559,69.505327 V 27.171991 H 98.563555 149.36355 V 69.505327 111.83866 H 98.563555 47.763559 Z m 23.018746,29.50104 v -0.66146 h 0.239407 0.239406 l -0.146774,-1.12448 -0.146774,-1.12448 -0.29107,-0.21858 -0.29107,-0.21858 0.330729,-0.1342 0.330729,-0.13419 -0.0041,-2.02848 -0.0041,-2.02847 -0.206533,-0.32512 -0.206534,-0.32512 -0.384727,0.46337 -0.384727,0.46336 -0.07316,0.43712 -0.07316,0.43711 0.2716,0.16786 0.271601,0.16786 v -0.3243 -0.32429 l 0.153432,0.15343 0.153433,0.15343 -0.399618,0.61827 -0.399617,0.61827 -0.04095,1.45521 -0.04096,1.45521 0.05563,0.19844 0.05563,0.19843 0.06615,0.26459 0.06615,0.26458 0.03307,1.05833 0.03307,1.05834 h 0.396875 0.396874 z m -0.533218,-11.29533 0.0041,-0.71198 -0.264584,-0.16353 -0.264583,-0.16352 0.0041,1.27239 0.0041,1.27238 0.25648,-0.39687 0.25648,-0.39688 z m 22.390974,-0.0999 -0.159273,-0.41506 1.784612,0.0544 1.784612,0.0544 -0.06998,-0.36698 -0.06998,-0.36699 0.36373,0.46302 0.36373,0.46302 h 0.301561 0.301561 l 0.02089,-0.33073 0.02089,-0.33073 0.133453,0.33073 0.133452,0.33073 0.837847,-0.036 0.837847,-0.036 -0.595313,-0.11466 -0.595313,-0.11466 v -0.3454 -0.3454 l 0.79375,-0.15875 0.79375,-0.15875 v -0.40349 -0.40349 l 0.992193,-0.0307 0.99218,-0.0307 -0.52916,-0.11021 -0.52917,-0.1102 -1.058335,-0.24105 -1.058333,-0.24105 -0.727604,-0.15226 -0.727604,-0.15226 v -0.25954 -0.25955 h 0.396875 0.396875 v -0.23208 -0.23208 l 1.190625,0.1342 1.190621,0.1342 v -0.29899 -0.299 h 0.80937 0.80936 l -0.19869,0.33073 -0.1987,0.33073 0.44626,-0.36195 0.44625,-0.36196 0.53058,0.13875 0.53057,0.13875 v -0.46603 -0.46602 l -1.80577,-0.15139 -1.805774,-0.15139 -1.104643,-0.47856 -1.104643,-0.47857 v -0.33446 -0.33446 h -0.500859 -0.500859 l -0.152295,0.39688 -0.152295,0.39687 h -0.423009 -0.423008 l 0.167951,-0.52917 0.167951,-0.52916 h -0.260364 -0.260364 l -0.118046,0.33073 -0.118045,0.33073 -0.740121,-0.66146 -0.740121,-0.66146 0.166356,0.46302 0.166354,0.46302 h -0.256279 -0.25628 v 0.39688 0.39687 h -0.79375 -0.79375 v 0.29544 0.29544 l -0.529166,-0.13838 -0.529167,-0.13838 v 0.12492 0.12492 l 0.29098,0.5437 0.290981,0.5437 -0.29285,-0.18099 -0.292849,-0.18099 -0.136567,0.35589 -0.136568,0.35589 0.402275,1.04994 0.402274,1.04994 -0.147696,-0.83771 -0.147696,-0.83771 0.453901,-0.25402 0.453901,-0.25401 -0.168707,-0.43964 -0.168707,-0.43965 0.430675,-0.16526 0.430674,-0.16527 0.358615,0.49044 0.358615,0.49043 v 0.21401 0.21402 l -0.595314,0.008 -0.595312,0.008 0.438231,0.33335 0.43823,0.33336 -0.283327,0.51812 -0.283327,0.51813 -0.249297,0.16536 -0.249297,0.16537 0.281275,0.17384 0.281276,0.17383 -0.138773,0.36164 -0.138774,0.36164 0.320983,0.19838 0.320982,0.19838 -0.135967,-0.71127 -0.135968,-0.71127 0.270775,0.0903 0.270775,0.0903 0.218205,0.58986 0.218205,0.58987 -0.655958,0.29887 -0.655957,0.29888 v 0.17802 0.17801 l 0.176388,0.17639 0.17639,0.17639 h 0.248794 0.248793 z m 3.277659,-4.16223 v -0.71437 l -0.04733,-0.19844 -0.04733,-0.19844 0.454619,-0.0875 0.454619,-0.0876 -0.176865,0.74901 -0.176865,0.74901 -0.230423,0.25136 -0.230424,0.25135 z m -7.444754,1.89631 0.625038,0.0808 -0.184794,-0.299 -0.184794,-0.29901 0.291926,-0.35175 0.291926,-0.35175 -0.165164,-0.43041 -0.165164,-0.43041 h 0.425182 0.425183 v -0.29289 -0.29289 l -0.396875,0.1523 -0.396875,0.15229 v -0.19499 -0.195 l -0.727604,-0.45112 -0.727604,-0.45112 0.529166,-0.0155 0.529167,-0.0155 0.463021,-0.35148 0.463021,-0.35148 v -0.17431 -0.17431 l -0.727605,0.17807 -0.727604,0.17807 -0.168856,0.25774 -0.168856,0.25774 -0.311861,-0.19274 -0.31186,-0.19274 0.04904,0.35728 0.04904,0.35728 -0.03135,0.37483 -0.03135,0.37483 -0.174094,-0.1741 -0.174093,-0.17409 -0.358008,0.29712 -0.358007,0.29712 0.436216,0.31897 0.436216,0.31897 -0.114365,0.34309 -0.114364,0.34309 -0.468218,-0.46821 -0.468218,-0.46822 -0.277437,0.27743 -0.277438,0.27744 0.170628,0.27608 0.170628,0.27609 0.431805,-0.1657 0.431806,-0.1657 -0.191066,0.30915 -0.191065,0.30915 0.610683,-0.0657 0.610682,-0.0658 -0.08768,0.62423 -0.08768,0.62424 0.35226,-0.2192 0.35226,-0.21919 z m -18.484412,-4.59506 v -1.4552 h -0.198437 -0.198438 v 1.4552 1.45521 h 0.198438 0.198437 z m 33.053466,0.15926 0.90659,-0.17486 0.0975,-0.29259 0.0975,-0.29258 -0.93797,-0.10951 -0.93798,-0.1095 v 0.21145 0.21146 h -0.39687 -0.39688 v -0.39687 -0.39688 h -0.2802 -0.28019 l 0.16164,0.26155 0.16165,0.26156 -0.38385,-0.1473 -0.38385,-0.1473 -0.17512,0.28333 -0.17511,0.28334 -0.517034,-0.27671 -0.517035,-0.27671 -0.150262,0.39158 -0.150263,0.39158 -0.401177,-0.15395 -0.401178,-0.15394 0.345046,0.5525 0.345045,0.55251 1.731678,-0.14865 1.73167,-0.14865 z m -33.15653,-3.3535 -0.144911,-0.37763 h -0.446186 -0.446186 l 0.480357,0.53079 0.480357,0.53079 -0.174767,0.17476 -0.174766,0.17477 v -0.35278 -0.35278 l -0.169995,0.17 -0.169995,0.16999 0.368432,0.44693 0.368433,0.44693 0.08707,-0.59207 0.08707,-0.59206 z m 15.394099,0.56748 1.377715,0.1252 v -0.5417 -0.5417 l -0.678683,-0.25804 -0.678682,-0.25803 h -0.111948 -0.111948 l 0.06303,0.58727 0.06303,0.58728 -0.992188,-0.0784 -0.992187,-0.0784 v 0.44954 0.44955 l 0.342076,-0.2839 0.342076,-0.2839 z m 20.769771,-3.92167 0.71215,-0.33073 0.002,-0.17687 0.002,-0.17686 -1.65365,-0.5313 -1.65365,-0.53129 -1.49592,-0.41632 -1.49593,-0.41632 h -0.641062 -0.641059 l 0.116973,0.79699 0.116973,0.79699 0.240634,0.14872 0.240634,0.14872 -0.0727,-0.3504 -0.0727,-0.3504 0.360457,0.0761 0.36046,0.0761 0.34551,-0.47251 0.34552,-0.47252 0.19162,0.19163 0.19163,0.19163 -0.33468,0.40327 -0.33469,0.40327 h 0.30529 0.30528 l 0.15229,-0.39688 0.1523,-0.39687 h 0.2032 0.20321 v 0.67248 0.67248 l 0.16977,0.16978 0.16977,0.16977 0.31309,-0.31309 0.3131,-0.31309 h 0.34395 0.34396 v 0.29289 0.29289 l -0.39687,-0.15229 -0.39688,-0.1523 v 0.21218 0.21219 l 0.17639,0.17639 0.17639,0.17638 h 0.96149 0.96148 z m -27.995366,-1.7789 0.119693,-0.19367 -0.348373,-0.47642 -0.348372,-0.47643 -0.279966,0.80311 -0.279965,0.80311 0.508645,-0.13302 0.508644,-0.13301 z m 33.648196,-7.06493 -0.12573,-0.12573 -1.13739,-0.13067 -1.13739,-0.13067 -0.27583,-0.1564 -0.27584,-0.1564 0.21856,0.23893 0.21855,0.23893 1.10436,0.28144 1.10436,0.28144 0.21604,-0.10757 0.21604,-0.10757 z m -11.55114,-2.73169 v -1.5875 l -0.198433,-4.8e-4 -0.198437,-4.8e-4 0.08965,1.58798 0.08965,1.58798 h 0.10879 0.10879 z m -27.378257,-5.56619 0.157409,-0.25469 h -2.015605 -2.015605 l 0.139306,0.2254 0.139306,0.2254 1.71889,0.0293 1.71889,0.0293 z m 5.356379,-0.10503 0.149661,-0.14966 -2.359202,0.0348 -2.359201,0.0348 0.926042,0.16668 0.926041,0.16669 1.283499,-0.0519 1.283499,-0.0519 z m 11.029966,-0.0924 -1.599208,-0.0797 0.106801,-0.91483 0.106801,-0.91483 h -0.277915 -0.277916 l -0.149555,0.24199 -0.149555,0.24198 0.332378,0.11867 0.332378,0.11866 -0.218282,0.23246 -0.218282,0.23246 -0.288336,-0.51523 -0.288336,-0.51523 -0.185924,0.51743 -0.185923,0.51744 0.56025,0.32135 0.560249,0.32135 -3.307292,0.063 -3.307292,0.063 3.278261,0.14481 3.278261,0.14481 1.748822,-0.12992 1.748823,-0.12992 z m 31.364882,0.14113 -5e-5,-0.19844 -0.46302,-0.007 -0.46302,-0.007 -5.68854,-0.006 -5.68855,-0.006 -5.82083,0.0593 -5.82083,0.0593 1.852083,0.15172 1.852087,0.15171 h 10.12036 10.12036 z m 16.63576,-0.055 -0.12113,-0.12113 -8.00128,-0.0467 -8.00128,-0.0467 -0.16787,0.16786 -0.16786,0.16787 h 8.29028 8.29027 z m -24.90404,-2.42441 0.59531,-0.37707 v -0.37946 -0.37945 l -1.25677,0.0913 -1.25677,0.0913 -0.19844,0.0297 -0.19843,0.0297 v 0.41892 0.41892 l -0.33073,-0.11564 -0.33073,-0.11564 0.0777,-0.43557 0.0777,-0.43558 h -0.54077 -0.54076 l -0.0302,0.19844 -0.0302,0.19844 -0.0821,0.67272 -0.082,0.67272 1.76586,-0.10332 1.76587,-0.10331 z m -56.025522,-0.39317 v -0.50086 l -1.65364,0.0209 -1.65365,0.0209 0.33238,0.134 0.33238,0.134 -0.17482,0.28287 -0.174819,0.28286 0.317049,-0.19595 0.31705,-0.19595 0.31914,0.25889 0.319141,0.25889 0.529169,0.11193 0.52916,0.11193 0.330731,-0.11176 0.33073,-0.11177 z m 4.04095,0.0112 -0.13391,-0.51208 h -1.55665 -1.55664 v 0.40599 0.40598 l 1.32292,-0.17549 1.32292,-0.17549 v 0.42266 0.42266 l 0.36763,-0.14108 0.36764,-0.14107 z m 17.815485,0.39232 -0.160599,-0.41852 v -0.24294 -0.24294 h -3.408725 -3.408724 l -0.145342,0.55579 -0.145342,0.55578 -0.282392,-0.17452 -0.282391,-0.17453 v -0.35296 -0.35295 l -0.369618,-0.14183 -0.369618,-0.14184 -0.12167,0.63648 -0.12167,0.63647 0.13851,0.13851 0.13851,0.13851 h 4.349835 4.349835 z m 5.347079,-0.30909 -0.08372,-0.7276 h -0.79375 -0.79375 l -0.08372,0.7276 -0.08372,0.7276 h 0.96119 0.96119 z m 3.752739,-0.0661 v -0.79375 h -0.255275 -0.255274 l -0.291806,0.54524 -0.291806,0.54525 -0.312815,-0.10967 -0.312816,-0.10968 0.07718,-0.50171 0.07718,-0.50172 -0.271565,0.39687 -0.271564,0.39688 -0.0041,0.46302 -0.0041,0.46302 h 1.058333 1.058334 z m 7.093018,0.0438 -0.08156,-0.70522 h -1.852083 -1.852084 l 0.07774,0.46302 0.07774,0.46302 h -0.408474 -0.408473 v -0.52918 -0.52917 h -0.529167 -0.529166 v 0.76535 0.76535 l 2.793539,0.006 2.79354,0.006 z m 7.838711,0.49195 0.67869,-0.25804 v -0.53571 -0.53572 h -2.38125 -2.381253 v 0.48507 0.48507 l -0.174093,0.1741 -0.174094,0.17409 -0.355073,-0.29468 -0.355073,-0.29469 v 0.25288 0.25289 l 0.176389,0.17639 0.176389,0.17638 h 2.055345 2.055343 z m 4.11827,-0.53572 v -0.79375 h -0.26458 -0.26459 v 0.52917 0.52917 h -0.52916 -0.52917 v 0.26458 0.26458 h 0.79375 0.79375 z m 12.04785,0.36645 0.65215,-0.42731 v -0.38401 -0.38402 l -0.72761,0.0837 -0.7276,0.0837 0.0777,0.46302 0.0777,0.46302 h -0.38907 -0.38908 l -0.121,-0.46302 -0.121,-0.46302 -0.0307,0.7276 -0.0307,0.7276 h 0.53848 0.53848 z m 4.41988,-0.22794 0.12526,-0.65524 -0.13851,-0.13851 -0.13851,-0.13851 h -0.7562 -0.7562 l -0.25804,0.67869 -0.25803,0.67868 v 0.11507 0.11506 h 1.02749 1.02749 z m 3.11144,-0.13851 v -0.79375 h -0.39688 -0.39687 v 0.52917 0.52917 h -0.39688 -0.39687 v 0.26458 0.26458 h 0.79375 0.79375 z m 5.13333,0.22147 0.40085,-0.57229 -0.13688,-0.22146 -0.13687,-0.22147 h -0.26056 -0.26057 l 0.0777,0.43558 0.0777,0.43557 -0.33073,0.11564 -0.33073,0.11564 v -0.55121 -0.55122 h -0.39687 -0.39688 v 0.79375 0.79375 h 0.64646 0.64645 z m 14.31354,0.32777 0.52917,-0.0282 -0.39688,-0.26053 -0.39687,-0.26053 0.39687,-0.26054 0.39688,-0.26053 -0.39688,-0.0355 -0.39687,-0.0355 -0.52917,-0.009 -0.52917,-0.009 -2.57968,0.0403 -2.57969,0.0403 v 0.39688 0.39687 h -0.39688 -0.39687 v -0.39687 -0.39688 l -0.19844,-0.0213 -0.19844,-0.0213 -1.3985,-0.0705 -1.39851,-0.0705 -0.18134,0.29019 -0.18134,0.29018 -0.0707,0.45388 -0.0707,0.45387 5.22247,-0.099 5.22246,-0.099 z m -65.748956,-0.80466 v -0.48879 l -0.519705,0.13591 -0.519705,0.13591 0.05668,0.30234 0.05668,0.30235 0.251951,0.18098 0.251951,0.18097 0.21107,-0.13044 0.211071,-0.13045 z m -15.240126,-0.009 0.26471,-0.26472 h -1.50813 -1.50812 v 0.22049 0.22049 l 0.14958,0.14958 0.14959,0.14958 1.09383,-0.10535 1.09382,-0.10536 z m -8.04321,-3.0441 v -1.98312 l -1.25677,0.009 -1.25677,0.009 -0.53633,0.32136 -0.53633,0.32135 0.032,0.79375 0.032,0.79375 -0.14947,0.26458 -0.14948,0.26459 -0.0694,0.44519 -0.0694,0.44519 0.59094,0.0973 0.59093,0.0973 1.38906,0.0516 1.38906,0.0516 z m -2.38125,0.57452 v -0.39687 l -0.33073,-0.14664 -0.33073,-0.14665 0.44829,0.0585 0.44828,0.0584 0.3938,-0.52916 0.3938,-0.52917 0.32725,0.32266 0.32725,0.32267 -0.50788,0.2065 -0.50787,0.2065 v 0.37483 0.37483 l -0.33073,0.11024 -0.33073,0.11024 z m 10.84792,-0.40857 v -1.81969 l -0.40138,-0.33311 -0.40138,-0.33312 -3.13195,0.12899 -3.13195,0.12899 -0.30313,0.18734 -0.30313,0.18735 v 1.83647 1.83646 h 3.83646 3.83646 z m 1.532872,-0.38762 0.07766,-2.06927 -0.47454,0.0906 -0.474537,0.0906 -0.0777,2.06927 -0.0777,2.06927 0.47454,-0.0906 0.474538,-0.0906 z m 4.287961,0.60241 v -1.60489 l -0.273893,-0.51178 -0.273892,-0.51177 H 69.58237 69.194804 v 2.11667 2.11666 h 0.661459 0.661458 z m 7.353317,-0.44563 -0.07728,-2.05052 -3.175,-0.0436 -3.175,-0.0436 -0.330729,0.27442 -0.330729,0.27441 v 1.81969 1.81968 h 3.583005 3.583004 z m 2.076852,0.19844 0.326785,-1.71979 0.01631,-0.33073 0.01632,-0.33073 h -0.507527 -0.507527 l -0.418515,0.1606 -0.418514,0.1606 v 1.97447 1.97447 l 0.582942,-0.0845 0.582942,-0.0846 z m 3.629014,0.22577 0.169983,-1.62631 v -0.49036 -0.49035 H 83.37832 83.009752 l -0.160599,0.41851 -0.160599,0.41852 -0.01161,0.57367 -0.01161,0.57368 -0.350778,0.98257 -0.350779,0.98257 0.141906,0.14191 0.141906,0.1419 h 0.579669 0.57967 z m 3.291894,1.40014 0.343786,-0.21807 -0.0792,-1.8284 -0.0792,-1.8284 h -0.396875 -0.396875 l -0.07728,2.05052 -0.07728,2.05052 0.209567,-0.004 0.209567,-0.004 z m 2.90849,-1.82435 -0.07728,-2.05052 h -0.396875 -0.396875 l -0.134909,1.69828 -0.134908,1.69827 0.352245,0.35225 0.352245,0.35224 h 0.256815 0.256814 z m 4.288349,1.63093 v -0.41963 l -0.452206,-1.69707 -0.452205,-1.69708 H 91.87581 90.590395 l 0.167951,0.52917 0.167951,0.52917 h -0.282413 -0.282413 v 1.5875 1.5875 h 1.852083 1.852083 z m 8.995833,-0.46952 v -0.88915 l 0.16963,-1.23758 0.16963,-1.23759 -2.61703,0.0762 -2.617021,0.0762 -0.07728,2.05052 -0.07728,2.05052 h 2.524671 2.52467 z m 3.38706,-0.9561 0.0798,-1.67093 -0.14905,-0.38839 -0.14904,-0.3884 -0.39374,0.32678 -0.39375,0.32678 v 1.6433 1.6433 l 0.18191,0.1819 0.1819,0.1819 0.28112,-0.0927 0.28112,-0.0927 z m 2.90792,-0.20531 -0.0773,-2.05052 h -0.39687 -0.39688 l -0.16486,1.85209 -0.16486,1.85208 0.11433,0.19844 0.11433,0.19843 h 0.52468 0.52468 z m 4.26166,0.73683 0.28173,-1.3137 -0.16285,-0.81425 -0.16285,-0.81426 -1.75061,0.0774 -1.7506,0.0774 -0.0773,2.05052 -0.0773,2.05053 h 1.70899 1.709 z m 3.21992,0.71838 0.0182,-0.59531 0.0946,-0.71469 0.0946,-0.71468 -0.19725,-0.73755 -0.19725,-0.73755 -0.26399,0.79077 -0.26399,0.79078 0.11044,1.25677 0.11043,1.25677 h 0.23794 0.23794 z m 2.36316,0.13229 1.3e-4,-0.46302 0.52903,-1.3919 0.52904,-1.3919 v -0.26174 -0.26175 h -1.13771 -1.13771 l -0.3175,0.3175 -0.3175,0.3175 v 1.79917 1.79916 h 0.92604 0.92604 z m 3.85251,-0.52916 0.20737,-0.99219 -0.0126,-0.33073 -0.0126,-0.33073 -0.0331,-0.79375 -0.0331,-0.79375 h -0.22837 -0.22836 l -0.4718,1.52135 -0.4718,1.52136 -0.21933,0.59531 -0.21933,0.59531 h 0.75776 0.75775 z m 2.86115,0.16536 0.16537,-0.82682 v -1.28985 -1.28984 h -0.39184 -0.39183 l -0.1357,0.59531 -0.13571,0.59532 -0.0961,1.38281 -0.0961,1.38281 0.13854,0.13854 0.13855,0.13854 h 0.3197 0.31971 z m 4.0791,-1.22083 -0.0773,-2.04765 -0.48151,-0.092 -0.48152,-0.092 0.0549,1.94119 0.0549,1.94119 0.11151,0.19844 0.1115,0.19844 h 0.39239 0.39239 z m 1.5832,0.20342 0.0739,-1.70488 -0.12957,-0.33765 -0.12956,-0.33765 -0.4069,0.15614 -0.40689,0.15614 v 1.97547 1.97546 l 0.46256,-0.0891 0.46256,-0.0891 z m 6.5133,1.42572 0.1606,-0.41852 v -1.01947 -1.01946 l -0.25803,-0.67869 -0.25804,-0.67868 h -1.05243 -1.05243 l -0.67391,0.30705 -0.67391,0.30706 v 0.50231 0.50231 l -0.21868,-0.13515 -0.21867,-0.13515 0.0475,1.14021 0.0475,1.14022 0.18679,0.30224 0.18679,0.30223 h 1.80816 1.80816 z m 8.04274,-1.65097 -0.0769,-2.03156 h -3.57187 -3.57188 l -0.0773,2.05306 -0.0773,2.05305 3.72613,-0.0215 3.72613,-0.0215 z m 1.63881,0.12295 -0.004,-1.62534 -0.21774,-0.34325 -0.21774,-0.34326 -0.27619,0.34326 -0.2762,0.34325 -0.0305,1.54766 -0.0305,1.54767 0.14012,0.22672 0.14012,0.22671 0.3884,-0.14904 0.3884,-0.14904 z m -31.88719,-1.77211 -0.15457,-0.25011 h -0.24707 -0.24706 l 0.0444,1.12448 0.0444,1.12448 0.35721,-0.87437 0.35721,-0.87438 z m -51.518652,-1.12562 0.33073,-0.21405 v -1.83647 -1.83647 h -3.84805 -3.84805 l 0.0777,1.91823 0.0777,1.91823 1.45521,0.13229 1.45521,0.1323 h 1.98438 1.98437 z m 5.834063,0.0288 0.3175,-0.3175 v -1.81757 -1.81756 l -0.595313,0.0846 -0.595312,0.0845 -0.07728,2.05052 -0.07728,2.05052 h 0.355088 0.355088 z m 7.395104,-0.0867 0.330729,-0.10838 v -1.99268 -1.99268 l -2.976562,0.004 -2.976563,0.004 -0.595312,0.15954 -0.595313,0.15953 v 1.72591 1.72591 l 0.422821,0.30918 0.422821,0.30917 2.818325,-0.0972 2.818325,-0.0972 z m 34.924995,0.1432 0.8599,-0.004 v -0.51355 -0.51355 l -0.2345,-0.14493 -0.23451,-0.14493 -0.20249,0.59234 -0.2025,0.59233 -0.11144,-0.89354 -0.11144,-0.89354 0.28386,-0.28385 0.28385,-0.28386 -0.004,-0.27781 -0.004,-0.27781 -0.25648,0.39687 -0.25648,0.39688 -0.004,-0.8599 -0.004,-0.8599 h -1.19062 -1.19063 l -0.0256,0.72761 -0.0256,0.7276 0.0497,1.05834 0.0497,1.05833 0.28818,0.34912 0.28817,0.34913 0.54765,-0.14708 0.54765,-0.14707 z m -59.994262,-0.37711 v -0.37346 l 0.44867,0.0658 0.44868,0.0658 0.10254,0.30761 0.102541,0.30761 h 1.15926 1.15927 l 0.2383,-0.46302 0.2383,-0.46302 0.0423,-1.52135 0.0423,-1.52136 -2.45413,0.0186 -2.45413,0.0186 -0.52916,0.22739 -0.52917,0.22739 0.52917,0.045 0.52916,0.045 -0.66145,0.20179 -0.66146,0.2018 0.46302,0.19701 0.46302,0.19702 v 0.36857 0.36857 h 0.2802 0.2802 l -0.17147,0.27743 -0.17146,0.27743 -0.36173,-0.30021 -0.36173,-0.30021 -0.27617,0.17068 -0.27617,0.17069 v 0.21952 0.21953 l 0.94815,0.17787 0.94816,0.17788 -0.1461,0.38073 -0.14611,0.38074 h 0.38858 0.388571 z m 13.75833,-1.61091 v -1.98437 h -0.505667 -0.505663 l -0.0896,1.6081 -0.0897,1.6081 0.21159,0.37627 0.21158,0.37628 h 0.383732 0.383728 z m 14.311223,0 0.425413,-1.85208 -0.290714,-0.19439 -0.290713,-0.19438 -0.992188,-0.004 -0.992187,-0.004 v 1.94028 1.94027 l 0.188536,0.18854 0.188535,0.18853 0.668953,-0.0783 0.668952,-0.0783 z m 9.236693,0.52687 0.132292,-1.32062 -0.09812,-0.74084 -0.09812,-0.74085 -0.431048,0.0819 -0.431048,0.0819 -0.14966,1.84958 -0.149661,1.84958 0.108184,0.21309 0.108183,0.21308 0.438352,-0.0831 0.438352,-0.0831 z m 2.250926,0.7299 -0.05143,-0.7276 -0.04141,-1.38906 -0.04141,-1.38907 h -0.793751 -0.79375 v 1.94028 1.94028 l 0.176388,0.17639 0.17639,0.17639 h 0.710206 0.710208 z m 3.04074,-0.43471 v -1.16232 l -0.396874,-0.15229 -0.396875,-0.1523 v 1.31461 1.31462 h 0.396875 0.396874 z m 8.55815,0.57647 0.1532,-0.58584 -0.30947,-0.19127 -0.30948,-0.19127 -0.0501,-1.27341 -0.0501,-1.2734 -2.54088,-0.0757 -2.540884,-0.0757 v 1.94986 1.94985 l 0.176389,0.17639 0.176389,0.17639 h 2.570876 2.57088 z m 16.57727,0.18897 v -0.39687 h -0.30134 -0.30133 l 0.14395,-1.5875 0.14395,-1.5875 h -0.88183 -0.88184 l 0.1536,1.48821 0.1536,1.48822 -0.44287,0.24784 -0.44286,0.24783 0.15347,0.24833 0.15348,0.24832 h 1.17501 1.17501 z m 9.73502,-1.65645 0.0777,-1.91542 h -0.54075 -0.54076 v 2.00377 2.00378 l 0.46302,-0.0883 0.46302,-0.0884 z m 4.45684,0.7226 0.0975,-1.08293 -0.26554,0.16411 -0.26554,0.16411 v 1.08682 1.08681 l 0.16799,-0.16799 0.168,-0.16799 z m 3.57932,1.0716 0.0882,-0.25913 -0.0887,-1.72525 -0.0887,-1.72524 -0.83732,0.002 -0.83732,0.002 -0.0576,1.24456 -0.0576,1.24456 -0.54561,0.73797 -0.54561,0.73798 h 1.44108 1.44108 z m 8.10343,-1.79139 0.0777,-1.91823 h -3.71576 -3.71576 l -0.0256,0.7276 -0.0256,0.72761 0.0506,1.05786 0.0506,1.05786 0.12759,0.20645 0.12759,0.20644 3.48546,-0.0737 3.48545,-0.0737 z m 1.50976,0.0477 v -1.82642 l -0.46302,-0.0892 -0.46302,-0.0892 v 1.82738 1.82739 l 0.1819,0.1819 0.1819,0.1819 0.28112,-0.0937 0.28112,-0.0937 z m -16.53646,0.30464 v -1.43356 l 0.1606,-0.41852 0.1606,-0.41851 h -0.42518 -0.42518 v 1.85208 1.85208 h 0.26458 0.26458 z m -34.277757,0.2617 -0.514948,-0.38012 -0.09218,0.41357 -0.09218,0.41356 0.354551,0.21912 0.354551,0.21912 0.252574,-0.25257 0.252575,-0.25257 z m -46.984735,-1.99131 0.37087,-0.38507 -0.30875,-0.10291 -0.30875,-0.10292 -0.38814,0.14895 -0.38815,0.14894 0.0179,1.00049 0.0179,1.00049 0.30812,-0.66145 0.30811,-0.66146 z m 47.660413,0.25277 v -0.79375 h -0.396875 -0.396875 v 0.37523 0.37524 l 0.1606,0.41851 0.160599,0.41852 h 0.236276 0.236275 z m -27.072542,-2.100274 0.311833,-0.413271 0.179496,0.46302 0.179495,0.463025 h 2.566957 2.566956 l 0.51284,-0.375 0.512841,-0.375 0.331479,0.275103 0.331479,0.275107 V 42.269932 41.42817 l 0.264583,0.163522 0.264584,0.163521 v 0.828705 0.828709 l 0.356488,-0.48753 0.356488,-0.487527 0.188293,0.304665 0.188294,0.304662 h 0.374711 0.374712 l -0.24678,-0.649077 -0.24678,-0.64908 0.380673,-1.461502 0.380673,-1.461502 0.467968,-0.998272 0.467968,-0.998272 0.859896,-0.378478 0.859896,-0.378478 v -0.659022 -0.659022 l -0.459509,-0.507751 -0.459508,-0.507751 0.477127,-0.348884 0.477126,-0.348883 -0.05328,-0.212924 -0.05328,-0.212924 0.443649,-0.274192 0.443648,-0.274191 0.451911,0.556953 0.45191,0.556954 0.463021,0.162347 0.463021,0.162346 v 0.376872 0.376871 l -0.379781,0.145736 -0.379781,0.145735 -0.129243,-0.315865 -0.129242,-0.315866 -0.27776,0.396875 -0.277759,0.396875 0.412624,0.08992 0.412623,0.08992 -0.176513,0.703287 -0.176514,0.703286 0.187343,-0.187342 0.187343,-0.187343 0.755725,0.390801 0.755727,0.390801 0.357199,0.723126 0.357199,0.723125 0.351335,1.5875 0.351335,1.5875 0.221986,0.251354 0.221986,0.251355 v 0.740833 0.740829 h 0.661459 0.661458 v -0.39687 -0.396876 h 0.22868 0.228681 l 0.39819,-0.992187 0.398191,-0.992188 -0.117513,1.058334 -0.117512,1.058333 0.681266,0.305834 0.681267,0.30584 0.0036,-0.17355 0.0036,-0.17354 0.170357,-0.636687 0.170357,-0.636686 -0.306261,0.18928 -0.306261,0.18928 v -0.215799 -0.215799 l 0.247578,-0.863254 0.247578,-0.863254 -0.229296,0.141712 -0.229296,0.141713 -0.167305,-0.270705 -0.167305,-0.270705 0.572399,-0.803859 0.572398,-0.803859 0.767249,-0.15345 0.767249,-0.153449 v -0.304838 -0.304931 l -0.411877,-0.588038 -0.411878,-0.588038 h 0.248727 0.248728 l 0.13838,-0.529167 0.13838,-0.529166 h 0.380638 0.380638 l 0.478889,0.529166 0.47889,0.529167 h 0.377916 0.377917 l -0.110972,0.330729 -0.110972,0.330729 -0.506389,0.01236 -0.50639,0.01236 0.06972,0.32909 0.06972,0.329089 -0.266043,0.497105 -0.266042,0.497104 0.328616,0.137014 0.328615,0.137014 -0.507459,0.409013 -0.507459,0.409013 -0.295165,-0.244965 -0.295165,-0.244965 -0.339662,0.209923 -0.339663,0.209923 0.235898,0.899422 0.235899,0.899421 0.432773,-0.79375 0.432776,-0.79375 0.04805,0.396875 0.04805,0.396875 0.02869,0.661458 0.02869,0.661459 h 0.685969 0.68597 l 0.463459,0.383833 0.463461,0.383834 0.466357,-0.618263 0.466357,-0.618263 0.204048,0.330156 0.204048,0.330157 -0.284514,0.175839 -0.284515,0.17584 0.246566,0.389891 0.246566,0.389896 0.0041,-0.228871 0.0041,-0.228867 0.652149,0.427308 0.65215,0.4273 h 1.705197 1.70519 l 0.3066,-1.817734 0.3066,-1.817736 0.90793,-0.88 0.90793,-0.88 V 37.421449 36.92679 l -0.26074,-0.487203 -0.26075,-0.487203 0.46478,-0.573974 0.46478,-0.573974 0.72018,0.180753 0.72018,0.180754 -0.14608,0.236359 -0.14608,0.23636 h 0.31106 0.31106 l -0.14174,0.463021 -0.14173,0.46302 -0.28138,0.908196 -0.28139,0.908195 0.28577,-0.285769 0.28577,-0.285768 0.76017,0.435907 0.76017,0.435906 0.58526,1.137544 0.58526,1.137544 0.22941,-0.40994 0.22942,-0.40994 0.31758,-0.0026 0.31758,-0.0026 0.92604,-1.053138 0.92605,-1.053138 0.20156,-0.0026 0.20156,-0.0026 -0.17153,1.124479 -0.17154,1.124479 -0.29461,0.396875 -0.29461,0.396875 0.46302,-0.363126 0.46302,-0.363126 v 0.29698 0.29698 h 0.2833 0.2833 l -0.0498,-1.521354 -0.0498,-1.521354 0.17842,-0.428372 0.17842,-0.428373 -0.0812,-1.389716 -0.0812,-1.389717 0.42207,-0.271393 0.42207,-0.271393 0.70241,0.176294 0.70241,0.176294 v 0.788709 0.788709 h -0.26458 -0.26459 l -0.004,-0.330729 -0.004,-0.33073 -0.2454,0.388002 -0.24539,0.388001 0.22031,0.273457 0.2203,0.273457 -0.004,0.720272 -0.004,0.720271 -0.49609,0.157454 -0.49609,0.157454 v 0.36343 0.363431 l 0.24198,0.149555 0.24199,0.149555 0.15529,-0.332378 0.15528,-0.332377 -0.14643,1.00154 -0.14643,1.001541 0.33147,0.916689 0.33148,0.916688 h 0.22494 0.22493 l 0.3695,-0.884352 0.36951,-0.884353 -0.14928,-0.570856 -0.14928,-0.570856 h -0.34397 -0.34397 l -0.11536,-0.330729 -0.11537,-0.330729 0.12162,-0.330729 0.12163,-0.330729 h 0.22797 0.22797 l -0.16615,0.432977 -0.16615,0.432977 0.37289,-0.130725 0.37289,-0.130725 -0.0367,-0.434544 -0.0368,-0.434544 h 0.21736 0.21736 l 0.18578,0.595313 0.18578,0.595312 0.27183,0.174427 0.27183,0.174426 -0.43389,0.4339 -0.4339,0.4339 0.31821,0.509549 0.31822,0.509549 -0.3241,0.324104 -0.32411,0.324104 v 0.337163 0.337164 l 0.81834,0.423178 0.81834,0.42318 0.14332,-0.14332 0.14332,-0.14331 -0.3324,-0.802477 -0.3324,-0.802473 0.27178,-0.33049 0.27177,-0.33049 0.44772,-1.545651 0.44772,-1.54565 0.90021,-0.37613 0.9002,-0.376129 v -0.508392 -0.508391 l -0.26292,-0.691532 -0.26292,-0.691531 0.51149,-0.54902 0.51149,-0.54902 0.70539,0.177042 0.7054,0.177043 0.13523,0.517118 0.13523,0.517118 h 0.26415 0.26415 l -0.4273,0.652149 -0.42731,0.65215 v 0.406184 0.406183 h -0.21366 -0.21366 l -0.44631,1.011581 -0.44631,1.011581 -0.058,1.634253 -0.058,1.634252 h -0.34032 -0.34033 v 0.370687 0.370685 l 0.90633,-0.0257 0.90633,-0.0257 0.13205,-0.808015 0.13205,-0.808018 0.0309,-1.973289 0.0309,-1.97329 0.12021,-0.12021 0.12021,-0.12021 0.67633,0.308154 0.67632,0.308154 0.39582,0.947317 0.39581,0.947317 0.34995,-0.290436 0.34996,-0.290436 0.57539,0.467006 0.57539,0.467007 0.0438,0.588411 0.0438,0.588412 0.35786,0.137324 0.35786,0.137324 -0.15715,0.254284 -0.15716,0.254284 0.16907,0.673626 0.16907,0.673624 h 0.50048 0.50049 l -0.0661,-0.33073 -0.0662,-0.330726 0.46302,0.03675 0.46302,0.03675 v -0.485593 -0.485593 l 0.9319,-1.590046 0.9319,-1.590046 0.72175,-0.349345 0.72174,-0.349344 -0.092,-0.654473 -0.092,-0.654472 -0.30491,-0.373756 -0.30491,-0.373756 0.33073,-0.111313 0.33073,-0.111313 v -0.390798 -0.390798 l 0.93157,0.08212 0.93156,0.08212 0.0103,0.264584 0.0103,0.264583 0.51338,0.189912 0.51338,0.189911 v 0.252757 0.252757 l -0.8141,0.814102 -0.8141,0.814103 h 0.37111 0.3711 l 0.55175,0.595312 0.55175,0.595313 0.0528,0.661458 0.0528,0.661458 -0.0624,0.198438 -0.0624,0.198437 -0.0331,0.79375 -0.0331,0.79375 h 0.0445 0.0445 l 0.41851,-0.160599 0.41852,-0.160599 v -0.368548 -0.368567 h 0.16809 0.1681 l 0.62682,0.676351 0.62682,0.676351 0.26342,-0.162799 0.26341,-0.1628 v 0.412487 0.41249 h 2.88211 2.88211 l 0.1523,-0.39687 0.15229,-0.396877 h 0.27289 0.27289 v 0.416277 0.41627 l 0.46302,-0.0883 0.46302,-0.0883 0.082,-0.573392 0.082,-0.573395 0.38099,-0.316194 0.38099,-0.316195 v -3.274794 -3.274895 l -0.33073,-0.02089 -0.33073,-0.02089 0.33073,-0.133452 0.33073,-0.133452 v -3.285243 -3.285243 h -17.08124 -17.08124 l 0.15222,0.246301 0.15223,0.246301 -0.30904,0.190996 -0.30904,0.190996 -0.31976,-0.437297 -0.31976,-0.437297 H 90.515184 67.576133 l 0.163522,0.264584 0.163521,0.264583 h -0.403181 -0.40318 l -0.264584,0.494378 -0.264583,0.494379 0.16708,0.16708 0.16708,0.16708 H 66.56482 66.227832 l 0.166656,0.434298 0.166656,0.434299 -0.402932,-0.334404 -0.402932,-0.334404 v -0.388213 -0.388213 l 0.595312,-0.482657 0.595313,-0.482656 -0.150939,-0.151665 -0.150939,-0.151666 -1.07504,0.790591 -1.07503,0.79059 -0.14528,0.555546 -0.14528,0.555546 -0.30544,-0.188773 -0.30544,-0.188774 0.13753,-0.525937 0.13754,-0.525936 -0.28999,-0.636452 -0.28999,-0.636451 -1.82251,0.04896 -1.82251,0.04896 -0.13487,0.218221 -0.13487,0.218221 -0.5954,-0.149437 -0.59541,-0.149437 -0.30637,0.672417 -0.30637,0.672418 -0.40493,-0.155384 -0.40492,-0.155384 v 0.425183 0.425182 h -0.36448 -0.36448 l -0.35153,0.423567 -0.35152,0.423566 -0.0519,0.353324 -0.0519,0.353325 0.80735,0.281442 0.80734,0.281443 h 0.10843 0.10842 l -0.19131,-0.309547 -0.19131,-0.309546 0.42319,0.162391 0.42318,0.162391 0.1285,-0.315865 0.1285,-0.315866 0.0209,0.577483 0.0209,0.577483 -0.52916,0.167951 -0.52917,0.167951 -0.0313,0.312899 -0.0313,0.3129 0.0422,0.230896 0.0421,0.230897 -0.4077,-0.156447 -0.40769,-0.156447 v 0.284587 0.284587 l -0.36463,-0.139924 -0.36464,-0.139923 -0.26447,0.264475 -0.26448,0.264475 -0.95839,0.216153 -0.95839,0.216152 v -0.192623 -0.192622 l 0.18405,-0.184047 0.18404,-0.184048 0.0765,-0.455362 0.0765,-0.455363 0.1728,-1.389062 0.17281,-1.389063 h -0.5656 -0.56559 V 29.68554 29.024082 l -0.198441,0.0041 -0.19844,0.0041 -0.29507,0.194386 -0.295069,0.194386 -0.198311,0.661458 -0.19831,0.661458 -0.74824,0.698847 -0.74823,0.698847 0.072,1.153237 0.0721,1.153236 0.20568,0.463021 0.20568,0.46302 h -0.41018 -0.410179 l -0.41188,0.588039 -0.41187,0.588038 v 0.221326 0.221327 l 0.26458,-0.163521 0.26458,-0.163522 v 0.264584 0.264583 l -0.27063,0.167258 -0.27063,0.167259 0.0518,2.104497 0.0518,2.104496 0.27176,-0.271765 0.27177,-0.271765 h 0.21166 0.21167 v 0.309895 0.309896 l -0.41883,0.462797 -0.41882,0.462798 0.57952,0.310149 0.57952,0.31015 0.30012,-0.30011 0.30011,-0.30011 -0.36242,-0.223985 -0.36241,-0.223984 0.18897,-0.305755 0.18896,-0.305755 -0.31976,-0.385285 -0.31975,-0.385285 h 0.26612 0.26612 l 0.15547,-0.463021 0.15547,-0.46302 0.33841,-0.508256 0.33841,-0.508255 0.389529,-0.483932 0.38953,-0.483932 h 0.33807 0.33808 v 0.529166 0.529167 h -0.529169 -0.52917 v 0.520863 0.520863 l 0.44028,-0.168951 0.44028,-0.168951 -0.20959,0.339128 -0.209591,0.339127 0.354101,0.21885 0.35411,0.218849 -0.48459,0.535465 -0.48459,0.535465 0.14952,0.389635 0.14951,0.389635 -0.31586,0.114644 -0.31587,0.11465 1.25338,0.19656 1.253379,0.19657 0.612711,-0.15378 0.6127,-0.15378 0.77975,-0.794446 0.77975,-0.794447 0.19844,-0.0074 0.19843,-0.0073 0.002,0.330729 0.002,0.330729 0.87446,0.595313 0.87446,0.595312 h 2.96019 2.96019 l -0.0662,-0.29766 -0.0661,-0.297652 0.33073,-0.121268 0.33073,-0.121267 v 0.418927 0.41892 h 0.40342 0.403424 l 0.254975,-0.670636 0.254975,-0.670636 -0.03894,-0.18926 -0.03895,-0.189259 0.193387,-0.529167 0.193386,-0.529167 0.206369,-0.396875 0.206369,-0.396875 0.543928,-0.08136 0.543928,-0.08136 0.176259,0.802504 0.17626,0.802504 -0.167512,0.271038 -0.167512,0.271039 h 0.383093 0.383092 l -0.01228,0.330729 -0.01228,0.33073 0.04168,0.587011 0.04168,0.58701 0.463021,-0.17374 0.463021,-0.17374 z m -21.32176,-2.232908 -0.37244,-0.451749 0.30188,-0.301876 0.30188,-0.301877 0.15808,0.15808 0.15808,0.158081 -0.0875,0.595545 -0.0875,0.595545 z M 95.91772,40.69775 v -0.195453 l 0.367442,-0.502507 0.367442,-0.502506 -0.132317,-0.344814 -0.132318,-0.344813 0.36588,0.140401 0.365881,0.140401 0.343369,0.549823 0.34337,0.549822 -0.114691,0.114691 -0.11469,0.11469 -0.829684,0.23795 -0.829684,0.23795 z m -41.225602,-0.525139 -0.34748,-0.220352 -0.13916,-0.900075 -0.13917,-0.900076 -0.41426,-0.46302 -0.41426,-0.463021 0.23945,0.0036 0.23944,0.0036 0.58045,0.15565 0.58044,0.15565 0.081,0.568341 0.081,0.568342 0.85866,-0.03888 0.85865,-0.03888 -0.146659,0.237315 -0.146671,0.237315 h -0.425359 -0.42536 l 0.16708,0.16708 0.16708,0.16708 -0.26458,0.494378 -0.26459,0.494379 -0.18912,-0.0041 -0.189131,-0.0041 z m 1.60441,-5.245075 -0.066,-0.876469 h 0.84651 0.84651 l -0.25136,0.238901 -0.25135,0.238902 -0.52917,0.127281 -0.52917,0.127282 0.7193,0.03069 0.71931,0.03069 -0.14177,0.369428 -0.14176,0.369429 -0.57754,0.110166 -0.57754,0.110166 z m 56.819112,7.786728 v -0.597219 l -1.16623,0.09275 -1.16623,0.09275 -0.13192,0.504465 -0.13192,0.504467 h 1.29815 1.29815 z m -28.460237,-5.664707 0.171558,-0.573385 -0.54416,0.142301 -0.54416,0.142301 -0.145247,0.235014 -0.145246,0.235014 0.176563,0.556302 0.176563,0.556302 0.341286,-0.360232 0.341285,-0.360232 z"
       id="path15" /></g></svg>
