<?xml version="1.0" encoding="UTF-8" standalone="no"?>
<!-- Created with Inkscape (http://www.inkscape.org/) -->

<svg
   width="101.6mm"
   height="84.666656mm"
   viewBox="0 0 101.6 84.666656"
   version="1.1"
   id="svg1"
   xml:space="preserve"
   xmlns="http://www.w3.org/2000/svg"
   xmlns:svg="http://www.w3.org/2000/svg"><defs
     id="defs1" /><g
     id="layer1"
     transform="translate(-44.788205,-140.17291)"><path
       style="fill:#ffffff;fill-opacity:1"
       d="M 44.788208,182.50623 V 140.1729 H 95.588204 146.3882 v 42.33333 42.33333 H 95.588204 44.788208 Z m 22.224996,41.24669 v -0.29289 l 0.406891,0.15614 0.40689,0.15614 0.153624,-0.40034 0.153624,-0.40034 -0.560514,-0.48613 -0.560515,-0.48613 v -0.1674 -0.16741 h 0.689766 0.689766 l -0.135374,0.35278 -0.135373,0.35278 h 0.371649 0.371649 v -0.22049 -0.22048 h 0.534208 0.534207 l -0.147387,-0.59532 -0.147388,-0.59531 0.788891,-0.8599 0.78889,-0.85989 h -0.126686 -0.126686 l 0.279721,-0.52266 0.279721,-0.52267 -0.733433,-0.16089 -0.733433,-0.1609 -0.330729,-0.10188 -0.330729,-0.10189 v -1.35564 -1.35563 l 0.529167,-0.67273 0.529166,-0.67272 v -0.22891 -0.2289 h -0.661458 -0.661458 v -0.57448 -0.57448 l -0.37269,-0.4177 -0.37269,-0.41771 -0.09033,-3.77044 -0.09033,-3.77045 0.198438,1.3e-4 0.198437,1.3e-4 v -0.54478 -0.54478 l -0.23151,0.14308 -0.231511,0.14308 v -0.65663 -0.65663 h 0.195127 0.195127 l -0.07095,-0.64635 -0.07095,-0.64634 -0.180027,-0.29129 -0.180027,-0.29129 0.228032,-0.31914 0.228033,-0.31914 -0.06328,-1.98437 -0.06328,-1.98438 -0.06536,-1.50279 -0.06536,-1.50279 -0.142754,0.0128 -0.142754,0.0128 -0.230834,-0.0313 -0.230835,-0.0313 0.329377,-0.39688 0.329377,-0.39687 h -0.270522 -0.270521 l -0.9525,-0.9525 -0.9525,-0.9525 v -0.22734 -0.22735 l -0.725678,-1.2014 -0.725678,-1.20141 H 64.038584 63.83822 v 0.39687 0.39688 h -0.388571 -0.388571 l 0.173737,0.46302 0.173737,0.46302 0.413272,0.30934 0.413271,0.30934 0.01228,0.6819 0.01228,0.6819 -0.185037,-0.19749 -0.185036,-0.19749 -0.127282,-0.52917 -0.127281,-0.52917 -0.03069,0.8923 -0.03069,0.89229 -0.409882,-0.34017 -0.409881,-0.34017 0.111008,0.6385 0.111009,0.6385 -0.201895,0.52917 -0.201892,0.52917 -0.20754,-0.52917 -0.20754,-0.52917 -0.28388,-0.19438 -0.28388,-0.19439 -0.34635,-0.004 -0.34634,-0.004 0.20745,0.33073 0.20745,0.33073 -0.0811,0.49194 -0.0811,0.49194 0.25614,-0.1583 0.25613,-0.1583 0.32696,0.39396 0.32696,0.39397 h -0.24815 -0.24814 l 0.069,1.12448 0.069,1.12447 0.0145,0.19844 0.0144,0.19844 h 2.101055 2.101051 l 0.163522,0.26458 0.163521,0.26459 h -2.661448 -2.661451 v -0.27619 -0.27618 l -0.33073,0.0429 -0.33073,0.0429 -0.31132,-0.0314 -0.31133,-0.0313 -0.11814,-0.46302 -0.11813,-0.46302 0.0326,0.8622 0.0326,0.86219 0.33073,-0.12629 0.33073,-0.12629 0.004,0.32243 0.004,0.32242 0.25648,-0.39687 0.25648,-0.39688 0.004,0.44098 0.004,0.44097 0.33073,0.11872 0.33073,0.11872 -0.59531,0.52967 -0.59532,0.52968 v 0.1674 0.16741 h 0.33546 0.33546 l 0.98727,-0.67087 0.987268,-0.67087 0.510143,0.27302 0.510143,0.27302 0.116897,-0.46205 0.116897,-0.46205 0.199972,0.8599 0.199972,0.8599 h 0.218363 0.218364 l 0.269684,-0.46302 0.269685,-0.46303 0.008,0.43472 0.008,0.43471 -0.392415,0.15058 -0.392414,0.15059 0.17758,0.47303 0.17758,0.47304 0.412856,0.3091 0.412856,0.30909 -0.131876,0.12877 -0.131876,0.12878 -0.529166,0.0913 -0.529167,0.0913 0.07774,-0.46302 0.07774,-0.46302 h -0.263034 -0.263035 l -0.293087,0.46302 -0.293087,0.46302 -0.121236,-0.26458 -0.121236,-0.26458 -0.252751,-0.39688 -0.25275,-0.39687 -0.47055,0.29486 -0.47056,0.29486 -0.01,0.49921 -0.01,0.4992 -0.19824,0.32076 -0.19824,0.32077 0.56527,0.56527 0.56528,0.56528 0.291041,-0.29105 0.291042,-0.29104 h 0.466941 0.466941 l 0.283201,-0.52916 0.283202,-0.52917 h 0.519857 0.519858 v 0.16927 0.16927 l -0.437297,0.31976 -0.437297,0.31976 0.188329,0.30472 0.188328,0.30472 0.579698,0.004 0.579697,0.004 0.389892,0.24657 0.389892,0.24656 0.1686,-0.2728 0.168601,-0.2728 0.152405,0.39716 0.152406,0.39717 -0.380169,0.14588 -0.380168,0.14588 v -0.24797 -0.24798 l -0.416558,0.15985 -0.416558,0.15985 0.158474,0.63141 0.158473,0.63141 -0.46952,0.15047 -0.46952,0.15047 -0.592742,0.28393 -0.592742,0.28392 -0.531737,-0.48121 -0.531737,-0.48122 v -0.52055 -0.52056 l 0.463021,0.35036 0.463021,0.35037 -0.310054,-0.35021 -0.310053,-0.35021 0.139923,-0.36463 0.139923,-0.36464 h -0.174099 -0.1741 l -0.397929,0.95238 -0.397928,0.95238 0.454418,0.33228 0.454419,0.33227 -0.163726,0.42667 -0.163725,0.42666 0.293908,0.18164 0.293908,0.18165 -0.188787,-0.30546 -0.188787,-0.30547 h 0.516475 0.516474 l 0.144872,0.37753 0.144872,0.37753 -0.401314,0.33306 -0.401313,0.33306 -0.25545,-0.37986 -0.255451,-0.37986 0.07718,0.50172 0.07718,0.50172 -0.330729,0.11564 -0.330729,0.11564 v -0.7276 -0.72761 l -0.09484,0.11025 -0.09484,0.11024 -0.148171,0.96178 -0.148172,0.96177 0.573743,-0.10879 0.573743,-0.10879 -0.595313,0.31193 -0.595312,0.31192 v 0.37206 0.37206 l 0.246301,-0.15222 0.246301,-0.15223 0.127988,0.20709 0.127989,0.20709 -0.638873,0.3015 -0.638869,0.3015 v -0.23969 -0.23969 l -0.46302,0.004 -0.46303,0.004 0.32675,0.20753 0.32674,0.20754 0.1557,0.91289 0.1557,0.91289 -0.54859,-0.62462 -0.54859,-0.62463 v 0.4715 0.4715 l 0.43789,0.48385 0.43788,0.48386 h 2.223563 2.223566 l -0.163521,0.26458 -0.163522,0.26459 H 64.615715 63.04383 v 0.39687 0.39688 l 0.661459,0.0425 0.661458,0.0425 1.193789,0.0236 1.193789,0.0236 0.110359,0.39687 0.11036,0.39688 0.08491,2.24896 0.08491,2.24895 -0.79375,-0.0544 -0.79375,-0.0544 0.525431,0.39377 0.525431,0.39376 -0.07794,0.85124 -0.07793,0.85123 -0.140669,0.48216 -0.14067,0.48216 -0.439118,-0.16711 -0.439117,-0.1671 0.330729,0.33318 0.330729,0.33317 v 0.47625 0.47625 h 0.529167 0.529166 z m 0.372684,-3.22291 -0.156417,-0.49283 0.15645,-0.15645 0.15645,-0.15645 v 0.4027 0.4027 l 0.859896,0.28056 0.859895,0.28055 -0.859929,-0.034 -0.859929,-0.034 z m -3.547684,-11.03967 v -0.26119 h 1.367014 1.367014 l -0.136697,0.13669 -0.136698,0.1367 -1.230316,0.12449 -1.230317,0.12449 z m 1.49182,-2.51015 -0.152295,-0.39688 h 0.288676 0.288676 l -0.329377,-0.39687 -0.329377,-0.39688 h 0.407632 0.407633 l 0.418514,-0.1606 0.418515,-0.1606 v 0.4603 0.46029 l -0.569651,0.49406 -0.56965,0.49405 h -0.0635 -0.0635 z m 0.88943,-7.54063 v -0.26458 H 65.778482 65.33751 l 0.110243,-0.0943 0.110243,-0.0943 0.926042,-0.16563 0.926041,-0.16562 -0.458908,0.35222 -0.458908,0.35221 0.172276,0.17228 0.172276,0.17228 h -0.30868 -0.308681 z m -2.579687,-7.33649 0.992187,-0.10378 0.992188,0.10378 0.992187,0.10379 h -1.984375 -1.984376 z m 57.962083,31.5813 -1.63532,-0.30002 -0.21677,-0.2375 -0.21677,-0.2375 0.59532,0.14658 0.59531,0.14659 v -0.19835 -0.19835 l -2.54224,-0.27072 -2.54224,-0.27072 -0.16974,-0.27284 -0.16974,-0.27283 -2.50375,-0.30392 -2.50376,-0.30392 -0.12003,-0.12003 -0.12003,-0.12003 0.63941,-0.0348 0.63941,-0.0348 -0.92604,-0.178 -0.92604,-0.17801 2.18281,-0.21158 2.18281,-0.21157 v -0.19908 -0.19907 l -0.7276,0.006 -0.72761,0.006 -1.85208,-0.30669 -1.85208,-0.3067 -5.95313,-0.54057 -5.953121,-0.54057 -9.128125,-0.21676 -9.128125,-0.21676 -0.926042,0.0712 -0.926041,0.0712 -1.738939,0.0227 -1.738939,0.0227 -0.708457,1.08208 -0.708457,1.08208 v 0.34275 0.34276 l -0.331679,0.75798 -0.331679,0.75798 -0.492501,0.7276 -0.4925,0.72761 h -0.249769 -0.249768 l 0.163521,-0.26459 0.163522,-0.26458 h -0.353689 -0.353689 l -0.447262,0.52236 -0.447262,0.52237 27.442106,-0.0239 27.442105,-0.0239 z m -46.104966,-3.32661 -0.379862,-0.24037 0.311421,-0.37524 0.31142,-0.37523 -0.174093,-0.1741 -0.174094,-0.17409 h 0.308681 0.30868 v 0.37523 0.37524 l 0.160599,0.41851 0.1606,0.41852 -0.226745,-0.004 -0.226745,-0.004 z m -11.136896,-2.00939 -0.321994,-0.38797 h -0.336171 -0.336171 l -0.145337,0.37874 -0.145338,0.37874 0.527066,-0.1015 0.527066,-0.1015 0.167688,0.43698 0.167687,0.43699 0.108749,-0.32625 0.108749,-0.32625 z m -7.02571,-0.54857 0.41851,-0.1606 v -0.49024 -0.49024 l -1.05833,-0.31708 -1.05834,-0.31709 v -0.25356 -0.25356 l 0.50992,0.13334 0.50991,0.13335 -0.29246,-0.64188 -0.29246,-0.64187 -0.32373,0.12422 -0.32373,0.12423 -0.17114,-0.91225 -0.17114,-0.91226 0.16479,-0.26664 0.16479,-0.26664 -0.2181,0.0379 -0.21811,0.0379 -0.34634,-0.0313 -0.34634,-0.0313 0.18878,-0.30547 0.18879,-0.30546 -0.33089,0.2045 -0.3309,0.20451 0.1119,0.76241 0.1119,0.76242 h -0.10537 -0.10536 l -0.39688,-0.39687 -0.39687,-0.39688 h -0.51027 -0.51027 v 0.37211 0.3721 l 0.49931,-0.13057 0.4993,-0.13057 0.17777,0.28763 0.17777,0.28764 h -0.29778 -0.29777 l 0.0837,0.7276 0.0837,0.7276 0.62376,0.006 0.62376,0.006 0.44984,0.8699 0.44984,0.86989 0.64619,0.35455 0.64619,0.35455 0.1768,0.0259 0.1768,0.0259 z m 5.02789,-0.29491 -0.4555,-0.4555 -0.60385,-0.31328 -0.60384,-0.31327 0.13885,0.36183 0.13884,0.36183 0.50473,0.1602 0.50472,0.16019 v 0.24675 0.24676 h 0.41578 0.415771 z m -14.50498,-0.74946 0.0725,-0.51483 -0.34884,0.4708 -0.34883,0.4708 -0.16172,-0.42142 -0.16171,-0.42142 -0.30653,0.18944 -0.30654,0.18945 0.49241,0.36006 0.4924,0.36005 0.25217,-0.084 0.25216,-0.0841 z m 78.490382,-1.67537 -0.0646,-0.28536 0.64043,-0.16074 0.64044,-0.16074 0.4517,-0.49913 0.45171,-0.49913 0.20455,0.12642 0.20455,0.12641 -0.13848,-0.52953 -0.13847,-0.52953 h -2.87956 -2.87956 v 0.11065 0.11065 l -0.16949,0.44169 -0.16949,0.44169 1.35511,-0.10803 1.3551,-0.10803 0.33574,0.20907 0.33574,0.20908 -0.33073,0.53365 -0.33073,0.53365 v 0.39194 0.39194 l 0.59531,-0.23063 0.59532,-0.23063 z m -66.650672,-0.23591 -0.12302,-0.47041 0.89418,-0.32334 0.89417,-0.32334 h 0.56092 0.56091 l 0.16352,-0.26458 0.163523,-0.26458 h -1.306133 -1.30614 l -0.33937,0.40891 -0.33937,0.40892 -0.35448,-0.13603 -0.35449,-0.13603 v 0.1333 0.13329 l 0.42731,0.65215 0.4273,0.65215 h 0.0771 0.0771 z m -1.72615,-1.78107 -0.10174,-0.10175 -0.89348,-0.1574 -0.89347,-0.15741 0.36268,0.43699 0.36267,0.43699 0.0971,-0.29123 0.0971,-0.29123 0.42995,0.42995 0.42995,0.42994 0.10552,-0.31655 0.10551,-0.31656 z m -6.13725,-0.28987 1.0245,-0.42468 0.0976,-0.0919 0.0977,-0.0919 -0.40948,-0.40947 -0.40947,-0.40948 h -0.45275 -0.45276 l -0.35989,0.46302 -0.3599,0.46302 -0.37148,-0.47885 -0.37147,-0.47885 -0.15617,0.25269 -0.15617,0.25269 0.41212,0.15815 0.41213,0.15815 -0.16468,0.26645 -0.16468,0.26645 0.16352,0.26458 0.16353,0.26459 h 0.21665 0.21666 z m -4.92863,-0.72184 v -0.61736 l -0.46302,-0.004 -0.46302,-0.004 -0.17937,0.27548 -0.17938,0.27548 0.44396,0.33755 0.44396,0.33754 0.19844,0.008 0.19843,0.008 z m 81.598652,-0.33814 0.1636,-0.42634 -0.33983,0.13041 -0.33983,0.1304 -0.52052,-1.16895 -0.52053,-1.16895 -2.11921,0.0758 -2.11921,0.0758 -0.08,1.38906 -0.08,1.38906 h 2.89594 2.89594 z m 4.78781,-0.89658 -0.79375,-0.52568 -0.20775,-0.002 -0.20775,-0.002 0.28321,0.52917 0.2832,0.52916 0.71829,-0.002 0.7183,-0.002 z m -85.326032,-0.79714 0.22436,-0.36303 -0.43736,-0.31981 -0.43736,-0.31981 -0.35265,0.50348 -0.35266,0.50348 0.14867,0.24056 0.14867,0.24055 0.41699,-0.0612 0.41698,-0.0612 z m 79.237632,-2.01357 0.45474,-0.69403 -0.28105,0.1737 -0.28105,0.1737 0.1197,-0.93488 0.11969,-0.93487 h -2.37963 -2.37963 v 1.45521 1.45521 h 2.08624 2.08624 z m 3.83944,0.42946 v -0.26459 h -0.29698 -0.29698 l 0.33868,-0.40809 0.33869,-0.40808 -0.30629,-0.30629 -0.30629,-0.30629 v 0.58209 0.58208 h -0.27501 -0.27502 l 0.34116,0.38681 0.34116,0.38681 0.19844,0.0101 0.19844,0.0101 z m 5.42979,-1.31348 -0.13508,-0.21858 0.35864,-0.13762 0.35864,-0.13762 0.14423,-0.55156 0.14424,-0.55156 h -0.23981 -0.23982 -0.19843 -0.19844 v 0.33073 0.33073 l -0.6975,0.0263 -0.6975,0.0263 -0.42698,0.16385 -0.42698,0.16384 v 0.26634 0.26634 l 0.67868,-0.25803 0.67868,-0.25804 h 0.27567 0.27567 l -0.14237,0.37101 -0.14237,0.37101 0.15097,0.15096 0.15096,0.15097 0.232,-0.14338 0.23199,-0.14338 z m -86.921452,-1.49564 v -0.46566 l -0.54267,0.58248 -0.54266,0.58248 0.16266,0.26319 0.16265,0.26319 0.38001,-0.38001 0.38001,-0.38001 z m 91.678772,0.78629 0.43532,-0.43532 -0.35028,-0.22208 -0.35028,-0.22209 -0.46302,-0.004 -0.46302,-0.004 v 0.23981 0.23982 l 0.59532,-0.12716 0.59531,-0.12716 -0.46302,0.37953 -0.46302,0.37954 v 0.16927 0.16927 h 0.24568 0.24568 z M 50.873618,205.8112 v -0.24294 l -0.16319,-0.42527 -0.16319,-0.42527 -0.36924,0.30644 -0.36924,0.30645 0.30025,0.36177 0.30024,0.36177 h 0.23219 0.23218 z m 85.031182,-0.35382 -0.0324,-0.40894 0.72558,-0.14511 0.72558,-0.14512 0.14191,-0.54266 0.1419,-0.54265 h -0.40041 -0.40041 l 0.15229,0.39687 0.1523,0.39688 -0.58701,0.0417 -0.58701,0.0417 -0.3397,-0.0138 -0.3397,-0.0138 0.15909,0.50127 0.1591,0.50126 -0.34856,0.0313 -0.34856,0.0313 -0.2181,-0.0379 -0.21811,-0.0379 0.14076,0.22775 0.14075,0.22774 0.60652,-0.0505 0.60651,-0.0505 z m -5.56838,-0.21502 -0.2738,-0.27379 0.11995,-0.62746 0.11995,-0.62745 0.50221,0.0967 0.50222,0.0967 v -0.2494 -0.24939 h -0.52916 -0.52917 v -0.47625 -0.47625 l -0.33073,-0.35644 -0.33073,-0.35644 0.46302,0.16293 0.46302,0.16293 v -0.25628 -0.25628 l 0.46302,-0.004 0.46302,-0.004 -0.39687,-0.26054 -0.39688,-0.26053 0.39688,-0.2578 0.39687,-0.25779 0.0846,0.52238 0.0846,0.52238 h 1.5691 1.5691 v -0.26458 -0.26459 h -0.76289 -0.76289 l -0.13438,-0.51384 -0.13437,-0.51385 0.14761,-0.14761 0.14761,-0.14761 h 0.78052 0.78051 l -0.13517,-0.51687 -0.13516,-0.51687 0.34999,-0.47532 0.34999,-0.47532 0.18801,0.48521 0.18801,0.4852 0.16162,-0.24709 0.16161,-0.2471 0.79375,-0.28337 0.79375,-0.28336 -1.4552,-0.054 -1.45521,-0.054 1.19062,-0.22459 1.19063,-0.22458 3.30729,0.0258 3.30729,0.0258 0.33577,-0.0327 0.33577,-0.0327 -0.15701,-0.6256 -0.15702,-0.62559 0.41656,-0.15985 0.41656,-0.15985 v -0.40518 -0.40518 l 0.46302,-0.0313 0.46302,-0.0313 -0.79375,-0.16973 -0.79375,-0.16973 v -0.26198 -0.26199 l 0.74333,-0.0852 0.74334,-0.0852 -0.0819,-0.70852 -0.0819,-0.70851 -7.00463,-0.0776 -7.00463,-0.0776 -1.72143,0.26801 -1.72143,0.268 -0.25654,-0.25655 -0.25655,-0.25654 h -2.46062 -2.46063 v 1.45521 1.45521 h 2.52916 2.52916 l -0.16353,0.26458 -0.16352,0.26458 h -2.36563 -2.36564 v 1.45521 1.45521 h 3.70417 3.70417 v 0.26458 0.26459 h -3.70417 -3.70417 v 1.4552 1.45521 h 2.38125 2.38125 v 0.26459 0.26458 h -2.38125 -2.38125 v 1.4269 1.4269 l 0.33073,0.11224 0.33073,0.11224 2.1528,-0.11059 2.15281,-0.11058 -0.19278,-0.70095 -0.19278,-0.70095 0.26526,-0.59531 0.26526,-0.59532 h 0.22211 0.22211 v 0.39688 0.39687 h 0.25628 0.25628 l -0.15645,0.4077 -0.15644,0.40769 0.23089,-0.0394 0.2309,-0.0394 0.59234,0.19099 0.59233,0.19099 -0.14286,0.23116 -0.14287,0.23116 0.34428,0.37353 0.34428,0.37353 0.11465,-0.11001 0.11466,-0.11002 z m 0.17678,-6.06738 v -0.26458 h 0.23982 0.23981 l -0.13838,-0.52917 -0.13838,-0.52917 h 0.26458 0.26459 l 0.1532,0.58585 0.1532,0.58584 -0.32078,0.20386 -0.32078,0.20385 -0.19844,0.004 -0.19844,0.004 z m 5.41294,-2.62801 0.15251,-0.24675 0.79288,0.0225 0.79288,0.0225 0.17266,-0.17266 0.17266,-0.17266 -0.50712,-0.0313 -0.50712,-0.0313 -0.19843,0.0313 -0.19844,0.0313 v -0.26458 -0.26459 h 1.07395 1.07395 l -0.1498,-0.24238 -0.1498,-0.24238 0.26598,-0.69958 0.26598,-0.69958 0.28311,0.17497 0.28312,0.17498 -0.14202,0.37011 -0.14203,0.37011 h 0.28459 0.28458 l -0.15229,0.39688 -0.1523,0.39687 h 0.26481 0.2648 l 0.2231,-0.59531 0.2231,-0.59531 -0.43006,-0.17984 -0.43006,-0.17984 0.8882,-0.0186 0.8882,-0.0186 -0.15229,0.39688 -0.1523,0.39687 h 0.49882 0.49881 l 0.10021,0.30063 0.10021,0.30063 0.59137,-0.36677 0.59137,-0.36678 0.22448,0.36067 0.22449,0.36067 0.12809,-0.36067 0.1281,-0.36067 0.19501,0.18084 0.19501,0.18083 -0.1744,0.28219 -0.1744,0.28218 h -0.51356 -0.51355 v 0.17761 0.1776 l 0.43788,0.48386 0.43789,0.48385 h -4.15767 -4.15766 z m 5.48906,-0.51583 0.18636,-0.16345 -1.77386,0.11041 -1.77387,0.11041 0.79375,0.17852 0.79375,0.17851 0.79375,-0.12547 0.79375,-0.12548 z m -92.538792,8.19169 0.15069,-0.24382 -0.79653,-0.39736 -0.79653,-0.39736 v 0.15732 0.15733 l 0.43788,0.48385 0.43788,0.48386 h 0.20797 0.20796 z m 46.314921,-0.3138 0.264583,-0.16075 2.616398,0.0668 2.6164,0.0668 -0.35811,-0.22132 -0.35811,-0.22132 -2.319208,-0.18143 -2.319213,-0.18143 0.137326,-0.2222 0.137326,-0.22219 0.783492,0.15669 0.783491,0.1567 v -0.42995 -0.42994 h -0.500859 -0.50086 l -0.166827,-0.43475 -0.166827,-0.43474 0.132949,-0.13295 0.132949,-0.13295 1.786659,0.0491 1.786662,0.0492 -0.5794,-0.5398 -0.579403,-0.53979 h -0.496133 -0.496133 l -0.15434,-0.15434 -0.15434,-0.15434 0.515386,-0.51539 0.515386,-0.51538 0.781187,-0.15624 0.78119,-0.15624 -0.13217,-0.21385 -0.13217,-0.21385 -1.517181,-0.16999 -1.517184,-0.16999 -0.396875,-0.13091 -0.396875,-0.1309 0.464034,-0.2605 0.464034,-0.26051 0.991174,0.0622 0.991173,0.0622 0.99219,-0.21022 0.99219,-0.21022 v -0.57909 -0.5791 l -0.33073,-0.35057 -0.33073,-0.35057 0.33545,-0.12285 0.33546,-0.12284 0.39215,-0.39215 0.39215,-0.39215 v -0.32969 -0.32969 l -1.3706,-0.24672 -1.37059,-0.24673 -0.115232,-0.35644 -0.115236,-0.35644 0.958838,0.12922 0.95884,0.12921 0.13038,-0.21095 0.13037,-0.21096 0.54387,0.14223 0.54387,0.14222 -0.147,0.38307 -0.147,0.38307 0.85964,-0.20154 0.85964,-0.20154 1.19062,-0.0593 1.19063,-0.0593 0.32242,-0.0247 0.32243,-0.0247 -0.16511,-0.43027 -0.16511,-0.43027 -1.57425,0.16454 -1.57424,0.16455 0.17154,-0.44705 0.17155,-0.44704 -0.49524,0.44819 -0.49524,0.44818 h -0.17761 -0.1776 v -0.39687 -0.39688 h 0.26458 0.26459 v -0.39687 -0.39688 h -0.26459 -0.26458 v -0.39687 -0.39688 h -0.59781 -0.59782 l -0.34989,0.56027 -0.3499,0.56027 -0.9103,-0.14772 -0.910304,-0.14772 0.18901,0.31505 0.189009,0.31506 -0.381518,-0.30219 -0.381518,-0.30219 -1.421969,0.11574 -1.421968,0.11573 0.150334,-0.39176 0.150334,-0.39177 -0.315866,-0.12849 -0.315865,-0.1285 0.315114,-0.0209 0.315114,-0.0209 0.157274,0.25448 0.157273,0.25447 0.652091,-0.24792 0.652092,-0.24793 0.03133,0.19189 0.03133,0.19189 -0.03133,0.19844 -0.03133,0.19843 h 0.264583 0.264584 v -0.23218 -0.23219 l -0.396875,-0.32938 -0.396875,-0.32937 v -0.23219 -0.23219 h 0.396875 0.396875 l 0.0088,-0.46302 0.0088,-0.46302 0.518946,0.62287 0.518946,0.62288 -0.127898,0.20694 -0.127898,0.20694 0.592337,0.15876 0.592333,0.15876 0.33073,0.004 0.33073,0.004 v -0.23373 -0.23372 l -0.52917,-0.13838 -0.52916,-0.13838 -1.2e-4,-0.48779 -1.1e-4,-0.4878 2.48936,0.0355 2.48936,0.0355 0.30155,0.18636 0.30155,0.18637 0.36231,-0.13903 0.3623,-0.13903 0.14714,0.38344 0.14714,0.38344 -0.58826,-0.14579 -0.58826,-0.14579 -0.2985,0.48419 -0.29849,0.48418 0.49113,0.60652 0.49113,0.60652 0.79955,-0.56933 0.79955,-0.56933 v -0.19549 -0.19549 l 0.72761,-0.3052 0.7276,-0.3052 -0.8599,0.14285 -0.85989,0.14286 v -0.23269 -0.23269 l 0.27963,-0.27963 0.27964,-0.27964 -2.33016,-1.00402 -2.33015,-1.00403 -0.92605,-0.23986 -0.92604,-0.23986 -1.85208,-0.38098 -1.852083,-0.38098 -1.190625,0.0248 -1.190625,0.0248 -0.431514,0.11484 -0.431514,0.11485 -0.160691,0.80345 -0.160691,0.80346 -0.297272,-0.18373 -0.297272,-0.18372 -0.230951,0.36463 -0.23095,0.36462 -0.0041,-0.58701 -0.0041,-0.58701 0.396875,0.1523 0.396875,0.15229 v -0.29289 -0.29289 l -0.463021,-0.0186 -0.463021,-0.0186 0.529167,-0.20914 0.529166,-0.20914 -1.129607,-0.19326 -1.129607,-0.19326 -1.383934,0.20575 -1.383935,0.20575 -0.218104,-0.0559 -0.218104,-0.0559 0.149045,0.24116 0.149045,0.24116 -0.436989,0.3607 -0.436988,0.36071 -0.111314,-0.33073 -0.111313,-0.33073 h -0.491503 -0.491503 l -0.166189,0.2689 -0.166189,0.2689 -0.228019,-0.14092 -0.228019,-0.14093 -0.177336,0.28694 -0.177337,0.28694 -0.361149,-0.13859 -0.361149,-0.13858 0.154591,0.84815 0.15459,0.84815 0.630196,0.94026 0.630197,0.94027 v 0.99358 0.99358 l -0.253028,-0.15638 -0.253028,-0.15638 0.16667,-0.43434 0.16667,-0.43433 -0.442809,0.16992 -0.442809,0.16992 v -0.23845 -0.23845 l -0.500599,-0.15888 -0.5006,-0.15889 -0.165207,-0.58655 -0.165207,-0.58655 -0.392527,0.5136 -0.392526,0.51359 v -0.4254 -0.4254 l -0.33073,-0.1474 -0.330729,-0.14741 0.79375,0.0467 0.79375,0.0468 0.496739,-0.28151 0.496739,-0.2815 -0.290256,-0.49978 -0.290255,-0.49978 -0.008,0.46303 -0.008,0.46302 H 82.8708 82.588822 l -0.511772,-0.2739 -0.511773,-0.27389 v -0.28358 -0.28358 l 0.383401,0.14712 0.3834,0.14713 -0.145265,-0.37856 -0.145265,-0.37855 -0.502719,0.26904 -0.502718,0.26905 v 0.14672 0.14672 l 0.583338,0.47236 0.583338,0.47235 h -0.71563 -0.71563 v -0.49609 -0.49609 h -0.249391 -0.249392 l 0.107413,0.55775 0.107414,0.55775 -0.389621,0.38962 -0.38962,0.38962 0.148466,0.24022 0.148465,0.24023 -0.410617,-0.15757 -0.410617,-0.15757 v 0.23997 0.23998 l 0.3175,0.3175 0.3175,0.3175 h -0.3175 -0.3175 v -0.25712 -0.25628 l -0.399158,0.15317 -0.399159,0.15317 -0.158691,0.63228 -0.158691,0.63227 h -0.337333 -0.337334 l -0.13838,0.52917 -0.13838,0.52916 h 0.180942 0.180941 l 0.616833,-0.43204 0.616832,-0.43205 0.231738,0.3659 0.231737,0.3659 0.02196,-0.39687 0.02196,-0.39688 0.291982,0.60624 0.291982,0.60623 0.35157,-0.13491 0.351569,-0.13491 v 0.23423 0.23423 l -0.278991,0.093 -0.278992,0.093 -0.06613,0.45056 -0.06613,0.45056 -0.184047,0.18404 -0.184047,0.18405 v 0.23337 0.23336 l 1.435375,-0.12308 1.435376,-0.12309 0.149094,0.38853 0.149093,0.38853 -0.261552,-0.16165 -0.261553,-0.16164 v 0.23006 0.23006 l -1.101344,-0.016 -1.101345,-0.016 -0.111329,0.33073 L 79.669096,196 h 0.94809 0.94809 v 0.26458 0.26459 l -0.0064,0.19843 -0.0064,0.19844 -0.478636,-0.028 -0.478637,-0.028 -0.04851,0.29261 -0.04851,0.29262 -0.06678,0.79375 -0.06678,0.79375 -0.625214,-0.0692 -0.625215,-0.0692 0.319235,0.38465 0.319234,0.38466 0.840192,0.0814 0.840192,0.0814 -1.125259,0.68273 -1.125258,0.68272 0.164402,0.16441 0.164403,0.1644 -1.088877,-0.0609 -1.088877,-0.0609 0.162799,0.53666 0.162798,0.53665 0.325364,0.39688 0.325363,0.39687 0.138882,0.39688 0.138883,0.39687 h 8.169563 8.169563 z m -5.825095,-1.28757 0.159259,-0.25769 2.436043,0.1537 2.436043,0.15369 0.110243,0.10399 0.110243,0.104 h -2.705546 -2.705545 z m -8.326062,-10.23119 0.0041,-0.22675 0.194386,-0.26458 0.194386,-0.26459 0.584761,-0.0199 0.584761,-0.0199 0.134539,0.3506 0.134539,0.3506 h -0.499223 -0.499223 l -0.418515,0.1606 -0.418514,0.1606 z m 15.870948,-0.78878 -0.926041,-0.33414 0.542396,-0.0149 0.542395,-0.0149 0.3175,-0.3175 0.3175,-0.3175 v 0.34581 0.3458 l 0.388402,-0.14904 0.388402,-0.14904 0.148176,0.23975 0.14817,0.23975 -0.470427,0.23007 -0.470431,0.23006 z m -11.269794,-1.79726 0.025,-1.16867 0.240857,-0.22039 0.240857,-0.2204 -0.208609,0.36031 -0.208608,0.36031 0.332378,0.20542 0.332378,0.20542 -0.225732,0.36031 -0.225731,0.36031 0.07617,0.46303 0.07617,0.46302 h -0.240071 -0.240072 z m 3.041783,-0.20061 0.171822,-0.84012 0.333691,-0.11123 0.333691,-0.11123 -0.123742,0.6824 -0.123742,0.68239 -0.166219,0.26895 -0.166219,0.26895 h -0.215552 -0.215552 z m 1.801717,0.30953 0.138749,-0.53057 -0.325609,-0.39234 -0.325609,-0.39233 0.441879,-0.16957 0.441879,-0.16956 -0.146737,-0.38239 -0.146737,-0.38239 0.377216,-0.37722 0.377216,-0.37722 h 0.415774 0.415773 v 0.52917 0.52917 h -0.223878 -0.223878 v 1.07423 1.07423 l 0.223878,-0.34663 0.223878,-0.34663 0.230936,0.35805 0.230935,0.35805 0.562815,-0.30121 0.562814,-0.30121 v 0.43985 0.43984 l -1.330835,-0.12787 -1.330835,-0.12788 -0.139988,0.2265 -0.139988,0.22651 h -0.224198 -0.224198 z m 2.192961,-1.81981 v -0.23373 l 0.525981,-0.13754 0.525981,-0.13755 0.26122,-0.68706 0.261221,-0.68706 h 0.271132 0.271132 v 0.26458 0.26458 H 94.518272 94.24209 l 0.05333,0.33073 0.05333,0.33073 -0.202329,0.46302 -0.202329,0.46302 H 93.310941 92.67779 Z m -7.473691,-0.88839 -0.109456,-0.32837 0.333091,-0.33309 0.333092,-0.33309 h 0.258589 0.258589 l -0.305836,0.65939 -0.305836,0.65939 -0.176389,0.002 -0.176389,0.002 z m -20.175267,16.20336 -0.163521,-0.26458 h 0.529166 0.529167 l 0.163522,-0.26458 0.163521,-0.26459 h -0.79375 -0.79375 l -0.163521,0.26459 -0.163522,0.26458 0.163522,0.26458 0.163521,0.26459 h 0.264583 0.264584 z m 72.363541,-1.33614 v -0.27782 l -1.06323,0.10633 -1.06324,0.10632 -0.17149,0.17149 -0.17149,0.17149 h 1.23473 1.23472 z m -86.830082,-0.9491 -0.0855,-0.43316 -0.58689,-0.21666 -0.5869,-0.21666 -0.18159,0.29383 -0.18159,0.29382 0.25727,-0.159 0.25727,-0.159 0.37118,0.51499 0.37119,0.515 h 0.22558 0.22557 z m 87.899112,0.15637 0.38618,-0.24427 h -1.32292 -1.32292 l -0.33915,0.2152 -0.33915,0.21521 1.27589,0.0291 1.27589,0.0291 z m 0.73848,-0.91336 0.13277,-0.13277 h -2.42535 -2.42535 l -3.7e-4,0.19844 -3.8e-4,0.19844 2.29295,-0.0657 2.29296,-0.0657 z m -78.542562,-1.75555 0.006,-0.16758 -0.48132,-0.12587 -0.48132,-0.12587 0.0183,0.88512 0.0183,0.88511 0.45714,-0.59167 0.45714,-0.59167 z m 79.513172,0.93555 -0.52916,-0.086 -1.38923,-0.0764 -1.38923,-0.0764 1.7e-4,0.19844 1.6e-4,0.19844 1.91823,-0.036 1.91823,-0.036 z m -87.973952,-3.00491 v -0.27661 h -0.547 -0.54699 l 0.16795,0.52917 0.16795,0.52917 h -0.4064 -0.4064 l 0.14778,0.38511 0.14778,0.3851 0.63766,-0.63766 0.63767,-0.63767 z m 1.58529,-1.08137 -0.39467,-0.25357 0.39688,-0.26942 0.39687,-0.26943 -0.46302,-0.27289 -0.46302,-0.27289 v -0.26705 -0.26705 l 0.26459,0.16352 0.26458,0.16352 v -0.2802 -0.28019 l -0.19844,0.004 -0.19844,0.004 -0.35904,0.2275 -0.35904,0.2275 0.21303,0.62834 0.21302,0.62835 -0.0617,0.22629 -0.0617,0.22628 0.31557,0.38024 0.31557,0.38024 0.28682,-0.28681 0.28681,-0.28682 z m 53.269242,-0.0551 0.64221,-0.59532 h -0.87051 -0.87052 l -0.18763,0.18703 -0.18762,0.18703 0.15667,0.40828 0.15668,0.40829 h 0.25925 0.25926 z m -46.531552,-1.39098 0.0289,-0.65954 h -0.18778 -0.18777 l -0.121,-0.46302 -0.121,-0.46303 -0.0271,0.66146 -0.0271,0.66146 0.16228,0.60581 0.16229,0.6058 0.1447,-0.14469 0.14469,-0.1447 z m 47.102922,-1.61615 0.45344,-0.69203 -0.43258,-0.43245 -0.43257,-0.43246 -0.23655,0.38262 -0.23655,0.38262 0.25543,0.47728 0.25543,0.47728 h -0.4218 -0.4218 l 0.16352,0.26458 0.16352,0.26458 h 0.21854 0.21854 z M 49.021538,191.3698 v -0.39687 h 0.36603 0.36603 l 0.13896,-0.72693 0.13896,-0.72693 -0.29889,-0.18473 -0.29889,-0.18472 0.20281,-0.20281 0.20281,-0.20281 0.51354,0.32071 0.51354,0.32072 h 0.10758 0.10757 l 0.15984,-0.41654 0.15984,-0.41653 -0.36462,-0.36462 -0.36461,-0.36462 -0.16379,0.16379 -0.16379,0.16379 v -0.43266 -0.43267 l 0.39687,0.15229 0.39688,0.1523 v -0.54186 -0.54186 l -0.26156,-0.16165 -0.26155,-0.16165 0.15757,0.41062 0.15757,0.41062 h -0.26459 -0.26458 l -0.12745,-0.33213 -0.12744,-0.33212 0.3033,-0.28333 0.30331,-0.28333 0.32518,0.1084 0.32518,0.10839 -0.15437,-0.40228 -0.15437,-0.40227 -0.44112,0.16512 -0.44113,0.16512 0.39688,-0.51256 0.39687,-0.51256 0.37082,-0.29034 0.37081,-0.29034 -0.23852,-0.11378 -0.23852,-0.11379 -1.32292,0.16412 -1.32292,0.16413 0.8599,0.0416 0.8599,0.0416 v 0.28241 0.28242 l -0.49784,-0.15801 -0.49783,-0.15801 -0.14692,0.38287 -0.14692,0.38286 0.38017,0.14588 0.38017,0.14589 v 0.38041 0.38041 l -0.52445,-0.13715 -0.52445,-0.13715 -0.26083,0.68603 -0.26083,0.68603 -0.42503,-0.1631 -0.42503,-0.16309 0.15702,-0.6256 0.15701,-0.6256 h -0.6948 -0.69481 l 0.1523,-0.39688 0.15229,-0.39687 h -0.10235 -0.10234 l -0.41852,-0.1606 -0.41851,-0.1606 v 0.95435 0.95435 h 0.28019 0.2802 l -0.15347,0.24832 -0.15347,0.24832 0.46859,0.2728 0.46858,0.2728 -0.59531,0.008 -0.59531,0.008 v 1.05834 1.05833 h 0.26103 0.26103 l 0.37343,-0.89374 0.37343,-0.89374 0.30918,-0.19109 0.30919,-0.19109 0.13218,0.13219 0.13218,0.13218 -0.54748,0.51005 -0.54748,0.51006 0.0543,0.65629 0.0543,0.65629 0.53356,-0.0153 0.53356,-0.0153 0.10287,0.52917 0.10288,0.52917 0.26851,0.33073 0.26851,0.33073 h 0.23218 0.23219 z m 81.448492,-1.31445 -0.0891,-1.72937 0.19844,5.6e-4 0.19844,5.5e-4 v 1.60159 1.60159 l 7.41773,-0.0691 7.41774,-0.0691 -0.0432,-2.19392 -0.0432,-2.19391 h -1.02452 -1.02451 v -0.26459 -0.26458 h 1.05833 1.05834 l 3e-5,-6.01927 3e-5,-6.01927 -21.8943,-0.0388 -21.89431,-0.0388 -1.98437,-0.0549 -1.984375,-0.0549 -0.169721,1.54899 -0.169721,1.54899 -0.02872,2.3151 -0.02872,2.3151 1.190627,0.0472 1.19062,0.0472 0.58541,0.0189 0.58541,0.0189 0.1977,-0.79375 0.19769,-0.79375 0.16242,-1.52493 0.16243,-1.52493 0.19541,0.12078 0.19542,0.12077 -0.24525,1.99416 -0.24524,1.99416 0.15994,0.41679 0.15993,0.41678 1.25734,-0.0807 1.25734,-0.0807 0.3323,-1.85208 0.3323,-1.85209 0.13908,-0.3686 0.13908,-0.3686 0.148,0.14801 0.14801,0.148 -0.44225,2.16831 -0.44225,2.1683 0.22187,0.21334 0.22187,0.21333 1.20321,0.17607 1.2032,0.17607 0.45857,-1.94024 0.45858,-1.94024 0.2524,-0.39687 0.2524,-0.39688 -4.9e-4,0.39688 -4.8e-4,0.39687 -0.5201,1.98438 -0.5201,1.98437 -0.004,0.0537 -0.005,0.0537 0.99219,0.27554 0.99219,0.27555 0.43184,10e-4 0.43184,0.001 0.73895,-2.3151 0.73896,-2.31511 0.0968,0.41872 0.0968,0.41872 -0.64911,2.04405 -0.64911,2.04406 0.70439,0.26845 0.70439,0.26846 0.67366,0.13533 0.67367,0.13532 0.89958,-2.33739 0.89959,-2.33738 0.0888,0.40614 0.0888,0.40615 -0.8022,1.94535 -0.80219,1.94534 v 0.19225 0.19225 l 1.21308,0.46328 1.21308,0.46328 0.22693,-0.2289 0.22693,-0.2289 0.83544,-1.98437 0.83543,-1.98437 0.2381,-0.25136 0.23809,-0.25135 v 0.39764 0.39764 l -1.06629,2.20496 -1.06629,2.20495 0.0741,0.0636 0.0741,0.0636 1.13355,0.5717 1.13355,0.57169 0.24038,-0.14856 0.24038,-0.14856 1.12847,-2.22432 1.12846,-2.22431 0.1819,0.11242 0.1819,0.11241 -1.269,2.38697 -1.269,2.38696 1.19008,0.69744 1.19008,0.69743 0.23484,-0.37092 0.23485,-0.37093 0.004,0.27781 0.004,0.27782 -0.30629,0.30628 -0.30629,0.30629 0.37243,0.45888 0.37244,0.45887 -0.33073,-0.19869 -0.33073,-0.1987 v 0.49789 0.49788 l 3.99172,0.0559 3.99173,0.0559 z m -1.27974,0.91758 -0.39688,-0.25648 0.29766,-0.004 0.29765,-0.004 v -0.66146 -0.66145 l -0.29765,-0.004 -0.29766,-0.004 0.29106,-0.19438 0.29105,-0.19439 0.15108,-0.39687 0.15108,-0.39688 0.0209,1.52136 0.0209,1.52135 -0.0662,-0.004 -0.0661,-0.004 z m -1.20953,-0.49249 v -0.52805 l 0.27404,0.0472 0.27403,0.0472 -0.049,-0.66145 -0.049,-0.66146 0.13453,0.46302 0.13453,0.46302 h 0.23688 0.23688 l -0.15667,0.40829 -0.15668,0.40828 -0.13959,-0.13959 -0.13959,-0.13959 -0.30019,0.41054 -0.30019,0.41054 z m -2.81283,-0.83043 0.12426,-0.39688 -0.0189,-0.46302 -0.0189,-0.46302 h 0.53477 0.53477 l -0.12127,-0.33073 -0.12126,-0.33073 -0.27256,0.0578 -0.27256,0.0578 -0.14909,-0.38851 -0.14908,-0.38851 h 0.24066 0.24067 l 0.16352,0.26458 0.16352,0.26458 h 0.64584 0.64585 l -0.004,0.46302 -0.004,0.46302 -0.26053,-0.39687 -0.26054,-0.39688 -0.2401,0.37289 -0.2401,0.37288 0.14027,0.36554 0.14027,0.36554 -0.2309,-0.0421 -0.23089,-0.0422 -0.35904,0.0313 -0.35904,0.0313 0.15757,0.41062 0.15757,0.41062 -0.23896,-0.14769 -0.23895,-0.14768 -0.11153,0.20009 -0.11152,0.20008 z m -1.72418,-1.25677 0.10552,-0.19844 0.99701,-1.66916 0.997,-1.66916 0.14142,0.14141 0.14141,0.14142 -0.32507,0.39167 -0.32506,0.39168 0.19595,0.31706 0.19595,0.31705 -0.28029,-0.17323 -0.28029,-0.17323 -0.69778,1.19069 -0.69779,1.19068 h -0.13675 -0.13676 z m 15.27154,-1.70031 v -0.2345 l 0.91669,0.0617 0.91669,0.0617 0.18574,-0.18574 0.18574,-0.18574 h -0.82224 -0.82223 l -0.16352,-0.26459 -0.16352,-0.26458 1.0078,0.0313 1.0078,0.0313 0.79375,0.20197 0.79375,0.20198 -0.7276,0.0313 -0.7276,0.0313 v 0.29289 0.29289 l 0.3884,-0.14905 0.3884,-0.14904 0.16227,0.26256 0.16227,0.26256 -1.7413,-0.0479 -1.74129,-0.0479 z m -11.64115,-3.31679 -5.2e-4,-0.32075 1.45651,0.0174 1.45652,0.0174 0.1466,0.2372 0.1466,0.2372 -0.47864,0.0368 -0.47863,0.0368 -1.12397,0.0293 -1.12396,0.0293 z m 11.64115,-3.21757 v -0.23103 l 1.20039,-0.0241 1.20039,-0.0241 -0.15767,0.25512 -0.15768,0.25512 h -1.04272 -1.04271 z m 3.12208,-0.0865 0.3175,-0.3175 v -0.21166 -0.21167 h -0.64584 -0.64585 l -0.1744,-0.28219 -0.1744,-0.28218 0.19501,-0.18084 0.19501,-0.18083 0.11812,0.33073 0.11811,0.33073 h 0.63941 0.63941 v 0.66146 0.66145 h -0.44979 -0.44979 z m -72.784346,8.33671 0.121521,-0.31517 -1.234389,-2.26452 -1.234389,-2.26452 -0.441594,0.008 -0.441594,0.008 -0.727604,0.6404 -0.727604,0.64041 v 0.1606 0.16059 l 0.264583,-0.16352 0.264584,-0.16352 v 0.41249 0.41249 h -0.27958 -0.27958 l 0.679159,1.12448 0.679158,1.12448 0.195734,-0.044 0.195734,-0.044 0.03851,0.64504 0.03851,0.64504 0.323889,0.39026 0.323888,0.39026 1.059767,-0.59444 1.059768,-0.59444 z m -10.903456,-1.20126 -0.43388,-0.60024 0.0847,0.66146 0.0847,0.66146 0.26458,0.3047 0.26459,0.30469 0.0846,-0.36592 0.0846,-0.36591 z m 2.43907,0.77175 -0.32231,-0.57824 -0.26458,-0.19438 -0.26459,-0.19439 -0.19843,-0.004 -0.19844,-0.004 v 0.26458 0.26458 l 0.33073,-0.0661 0.33073,-0.0661 -0.0154,0.54283 -0.0154,0.54284 0.46997,0.0354 0.46996,0.0354 z m 10.66844,-0.45132 1.047793,-0.53455 v -0.0899 -0.0899 l -1.058334,-2.29076 -1.058333,-2.29076 v -0.3127 -0.3127 l 0.244954,0.25135 0.244954,0.25136 0.978537,2.24895 0.978536,2.24896 0.05854,0.0694 0.05854,0.0694 1.231513,-0.54476 1.231513,-0.54475 v -0.23535 -0.23535 l -0.79375,-2.06134 -0.79375,-2.06134 v -0.20447 -0.20447 h 0.201653 0.201653 l 0.787731,2.27249 0.787731,2.27249 0.168205,0.10395 0.168204,0.10396 1.223662,-0.41694 1.223661,-0.41695 v -0.32566 -0.32566 l -0.661458,-1.94477 -0.661458,-1.94476 v -0.21825 -0.21824 h 0.204095 0.204096 l 0.732318,2.40558 0.732318,2.40558 0.452649,-0.17515 0.452649,-0.17515 0.750344,-0.15138 0.750345,-0.15139 0.125285,-0.32648 0.125286,-0.32649 -0.426548,-1.68641 -0.426548,-1.68641 -0.136182,-0.46303 -0.136183,-0.46302 h 0.259848 0.259848 l 0.465882,2.05052 0.465881,2.05053 0.192768,0.22598 0.192768,0.22598 1.022973,-0.17283 1.022973,-0.17283 0.29544,-0.18545 0.29544,-0.18544 -0.361484,-1.71979 -0.361484,-1.71979 -0.0055,-0.63941 -0.0055,-0.63941 0.155155,0.15515 0.155156,0.15516 0.440157,2.20405 0.440157,2.20404 0.198437,-0.0661 0.198438,-0.0661 0.859895,-0.004 0.859896,-0.004 0.346048,-0.21947 0.346047,-0.21947 -0.311707,-2.35617 -0.311708,-2.35616 -0.275503,-0.17432 -0.275503,-0.17431 -0.0247,-1.06169 -0.0247,-1.06169 -0.138906,-0.1389 -0.138906,-0.13891 -1.05044,-0.0182 -1.05044,-0.0182 -4.14217,-0.005 -4.14217,-0.005 -1.804357,0.28825 -1.804358,0.28825 -0.14154,0.22901 -0.141539,0.22902 -0.724954,0.18195 -0.724954,0.18195 v 0.36819 0.3682 h -0.280198 -0.280198 l 0.152222,0.2463 0.152223,0.2463 -0.281747,0.17413 -0.281747,0.17413 0.329348,0.39684 0.329348,0.39684 -0.514938,-0.0897 -0.514938,-0.0897 0.03675,0.46302 0.03675,0.46302 h -0.235186 -0.235185 v -0.38126 -0.38126 l -0.282279,-0.17446 -0.282279,-0.17446 0.08384,0.48957 0.08384,0.48958 -0.342059,-0.0699 -0.34206,-0.0699 0.309413,0.57814 0.309413,0.57815 -0.456091,0.3335 -0.456092,0.3335 -0.369638,-0.14184 -0.369638,-0.14185 0.138182,-0.22358 0.138183,-0.22358 -0.519183,-0.27786 -0.519183,-0.27786 -0.215832,0.008 -0.215831,0.008 0.46302,0.26969 0.463021,0.26968 v 0.23421 0.23421 l 0.296856,0.74483 0.296855,0.74483 0.06951,0.73085 0.06951,0.73084 -0.213016,0.13165 -0.213015,0.13165 1.103419,2.23402 1.103419,2.23401 0.341269,0.0123 0.34127,0.0123 z m -9.72573,-1.92352 0.131,-0.3414 -0.86979,-0.27224 -0.86979,-0.27224 0.13394,0.34905 0.13394,0.34906 h 0.36857 0.36857 v 0.26458 0.26458 h 0.23628 0.23627 z m -13.16998,-0.86809 -0.52788,-0.39891 0.39559,-0.25009 0.39558,-0.25008 -0.47863,-0.004 -0.47864,-0.004 0.16352,-0.26459 0.16353,-0.26458 h 0.82223 0.82223 l -0.13154,-0.13154 -0.13155,-0.13155 -0.7063,-0.0585 -0.7063,-0.0585 v -0.20687 -0.20688 h 1.05833 1.05833 v -0.21876 -0.21876 l -0.79375,0.1165 -0.79375,0.1165 v -0.29462 -0.29461 h 0.44098 0.44097 l -0.14833,-0.14833 -0.14833,-0.14832 0.63609,-0.63609 0.63609,-0.63609 0.39418,0.15127 0.39419,0.15126 v 0.39942 0.39943 l -0.52917,-0.13838 -0.52917,-0.13838 3.9e-4,0.30596 3.9e-4,0.30596 1.12409,0.0411 1.12409,0.0411 -0.46302,-0.12663 -0.46302,-0.12663 v -0.26182 -0.26181 l 0.59531,0.0828 0.59531,0.0828 -0.0265,-0.33073 -0.0265,-0.33073 -0.0397,-0.42994 -0.0397,-0.42995 -0.81893,0.16378 -0.81893,0.16379 -0.13797,-0.52759 -0.13797,-0.52759 h -0.20348 -0.20348 l -0.74577,0.38691 -0.74576,0.38691 -0.0742,-0.0742 -0.0742,-0.0742 0.50062,-0.98193 0.50061,-0.98192 -0.0671,-0.45524 -0.0671,-0.45523 -1.09137,-0.0287 -1.09136,-0.0286 0.14035,0.22709 0.14035,0.22709 h -0.33312 -0.33311 l 0.3175,0.3175 0.3175,0.3175 v 0.19409 0.1941 l -0.70716,0.0837 -0.70717,0.0837 -0.039,0.54952 -0.039,0.54952 0.68001,-0.0877 0.68002,-0.0877 -0.33073,0.15556 -0.33073,0.15556 v 0.60855 0.60855 l 0.59531,0.18845 0.59531,0.18846 -0.7276,0.29035 -0.7276,0.29036 v 0.47809 0.47809 h 0.52916 0.52917 v 0.2992 0.2992 l -0.92604,-0.15027 -0.92604,-0.15028 v 0.23234 0.23233 l 0.2689,0.16619 0.26889,0.16619 -0.15222,0.2463 -0.15222,0.2463 h 0.66393 0.66392 l 0.21159,0.36738 0.21158,0.36738 0.52917,0.1311 0.52916,0.13109 0.1323,0.0223 0.13229,0.0223 z m 3.73733,-1.5149 0.15587,-0.15587 -0.88891,-0.2558 -0.88891,-0.25581 0.5797,-0.0239 0.57969,-0.0239 0.16352,-0.26458 0.16353,-0.26459 h -0.80937 -0.80936 v 0.52917 0.52917 l -0.33073,0.004 -0.33073,0.004 0.3591,0.22754 0.3591,0.22753 0.77082,-0.0606 0.77081,-0.0606 z m 39.594819,-1.24437 h 0.529374 l -0.191381,-3.77021 -0.191381,-3.77022 -0.04419,-0.039 -0.04419,-0.039 -1.907596,-0.15151 -1.907596,-0.15151 -0.107981,0.19037 -0.107981,0.19038 0.473343,3.83646 0.473343,3.83646 0.02088,0.1021 0.02088,0.10211 1.227553,-0.16825 1.227554,-0.16826 z m 5.535138,-4.14903 0.114489,-3.75215 -0.546741,-0.14684 -0.546741,-0.14683 -1.918229,-0.004 -1.918229,-0.004 0.0029,0.0661 0.0029,0.0661 0.384237,1.26635 0.384237,1.26634 -0.254809,-0.15748 -0.25481,-0.15748 v 0.42811 0.4281 l 0.278402,-0.17206 0.278402,-0.17206 -0.06123,2.22166 -0.06123,2.22167 0.220584,0.35691 0.220584,0.35691 -0.305464,-0.18879 -0.305464,-0.18878 v 0.2686 0.26861 l 1.91823,0.0777 1.918229,0.0777 0.167669,-0.26459 0.167669,-0.26458 z m -34.128773,1.30119 0.341447,0.0697 -0.07606,-0.36046 -0.07606,-0.36046 0.472931,-0.36779 0.472931,-0.3678 -0.419663,0.14461 -0.419664,0.14461 0.03531,-0.47934 0.03531,-0.47934 0.201527,-0.32608 0.201527,-0.32608 h -0.41249 -0.41249 v 0.26459 0.26458 h -0.309895 -0.309901 l -0.4177,-0.37728 -0.41771,-0.37727 -0.0555,0.77415 -0.0555,0.77415 h 0.26955 0.26954 l -0.17417,0.28182 -0.17417,0.28182 -0.5414,-0.48026 -0.5414,-0.48025 0.29377,0.56052 0.29377,0.56052 -0.16707,0.16708 -0.16708,0.16708 h 0.44097 0.44097 l -0.0313,0.19844 -0.0313,0.19844 0.0313,0.20775 0.0313,0.20774 0.51845,-0.27746 0.518446,-0.27747 z m -10.638764,-0.45945 -0.32937,-0.39687 -0.29834,0.004 -0.29833,0.004 0.39688,0.25648 0.39687,0.25648 -0.44097,0.004 -0.44097,0.004 -0.11812,-0.33073 -0.11812,-0.33072 -0.227,0.21282 -0.22699,0.21282 0.38921,0.24615 0.38921,0.24614 0.62771,0.004 0.62771,0.004 z m 15.447508,-0.91068 0.295203,-0.38152 -0.330729,0.19869 -0.330729,0.1987 v -0.12627 -0.12626 l 0.160599,-0.41852 0.160599,-0.41851 h 0.405545 0.405545 l 0.351483,0.46302 0.351483,0.46302 0.0084,-0.28645 0.0084,-0.28645 -1.058333,-0.8505 -1.058333,-0.8505 v 0.26144 0.26144 l 0.254473,0.15727 0.254473,0.15727 -0.254473,0.66932 -0.254473,0.66932 0.02089,0.71038 0.02089,0.71038 0.14693,-0.39688 0.146929,-0.39687 z m 1.912262,-1.56084 -0.558726,-0.0903 -0.464642,-0.41522 -0.464643,-0.41523 -0.145903,0.1459 -0.145903,0.14591 0.772703,0.55021 0.772703,0.55021 0.168572,-0.16857 0.168572,-0.16857 0.0186,0.50712 0.0186,0.50712 0.2094,-0.52917 0.2094,-0.52917 z m -2.922881,-2.51239 0.379781,0.14574 v -0.26459 -0.26458 l -0.396875,-0.1523 -0.396875,-0.15229 v 0.28459 0.28458 l -0.396875,-0.15229 -0.396875,-0.1523 v 0.23423 0.23423 l 0.330729,0.11466 0.330729,0.11465 0.08324,-0.21003 0.08324,-0.21004 z m 78.696443,-0.83692 v -0.39688 l -5.75468,-0.0231 -5.75469,-0.0231 -20.90209,-0.007 -20.902078,-0.007 -7.06461,0.07 -7.064611,0.07 -0.136981,0.35697 -0.136982,0.35696 h 33.858362 33.85836 z m -78.93495,-0.51207 -0.145735,-0.37978 0.278732,-0.0929 0.278732,-0.0929 -0.468537,-0.3872 -0.468538,-0.3872 0.138252,0.7276 0.138251,0.7276 h -0.360185 -0.360184 v -0.30868 -0.30868 l -0.158786,0.15879 -0.158786,0.15878 0.174401,0.28219 0.1744,0.28219 h 0.54186 0.541859 z m 6.806799,-0.89068 -0.144155,-0.72078 22.179384,-0.0561 22.179382,-0.0561 13.95677,-0.007 13.95677,-0.007 v -1.45521 -1.45521 h -0.36684 -0.36685 l -0.13394,-0.85989 -0.13394,-0.8599 0.2362,-0.25135 0.23621,-0.25136 v -1.74625 -1.74625 l -0.3175,-0.3175 -0.3175,-0.3175 0.3175,-0.3175 0.3175,-0.3175 v -1.63447 -1.63448 l -0.39547,-0.32821 -0.39547,-0.32821 -0.53031,0.13868 -0.53031,0.13868 -0.0995,-0.1736 -0.0994,-0.17359 0.21288,-0.52917 0.21288,-0.52917 0.0186,0.46302 0.0186,0.46302 h 0.47625 0.47625 l 0.3175,-0.3175 0.3175,-0.3175 v -0.47625 -0.47625 h 0.26458 0.26459 v -7.01145 -7.01146 H 96.994322 48.394191 l -0.58975,0.55404 -0.58974,0.55403 -0.29652,-0.55403 -0.29651,-0.55404 h -0.52385 -0.52386 l 0.0701,7.73906 0.0701,7.73906 3.10406,0.0329 3.10406,0.0329 0.30448,-0.36687 0.30448,-0.36688 0.38758,0.32166 0.38757,0.32166 0.50336,0.0768 0.50337,0.0768 0.004,-0.46136 0.004,-0.46136 0.25071,0.39688 0.25072,0.39687 2.85409,0.15336 2.85408,0.15335 -3.43958,0.055 -3.43958,0.055 -3.96875,0.0562 -3.96875,0.0562 -0.081,1.57647 -0.081,1.57648 0.15218,0.60634 0.15218,0.60633 h 3.70743 3.70743 l 0.15528,-0.40465 0.15528,-0.40465 0.29944,0.39465 0.29943,0.39466 1.5875,0.0923 1.5875,0.0923 -1.66195,0.05 -1.66194,0.05 -0.15528,0.40465 -0.15528,0.40465 -0.30166,-0.41253 -0.30165,-0.41254 -3.70195,0.074 -3.70195,0.074 -0.0769,2.18281 -0.0768,2.18281 2.45809,0.05 2.4581,0.05 -2.38125,0.14844 -2.38125,0.14844 -0.0771,1.88452 -0.0771,1.88451 0.51942,0.13583 0.51942,0.13584 1.21129,-0.13653 1.21128,-0.13653 v 0.31222 0.31222 l 1.08605,-0.1086 1.08605,-0.10861 0.18081,-0.29256 0.18082,-0.29257 0.73841,0.38309 0.7384,0.3831 0.44213,-0.069 0.44212,-0.069 0.35898,-0.22385 0.35897,-0.22386 -0.35897,-0.22746 -0.35898,-0.22746 -2.05052,-0.004 -2.05052,-0.004 v -0.21167 -0.21166 l 0.33073,-0.35632 0.33073,-0.35631 -0.31838,0.17909 -0.31838,0.17909 -0.54152,-0.46366 -0.54151,-0.46366 v -0.16962 -0.16962 l 1.25677,0.03 1.25677,0.03 -0.0727,0.35039 -0.0727,0.3504 0.33728,-0.21811 0.33728,-0.2181 0.39688,-0.027 0.39687,-0.027 0.46303,-0.0392 0.46302,-0.0392 0.004,-0.46302 0.004,-0.46302 0.19439,0.29506 0.19438,0.29507 0.62845,0.1963 0.62844,0.1963 -0.18104,-0.29293 -0.18104,-0.29293 h 0.22133 0.22133 l 0.57756,0.40454 0.57757,0.40455 0.73808,-0.17958 0.73807,-0.17958 -0.39687,0.51731 -0.39688,0.51731 0.72761,-0.74645 0.7276,-0.74645 v 0.43345 0.43344 l 0.35303,-0.29298 0.35303,-0.29299 0.97872,-0.12531 0.97871,-0.1253 -0.17795,0.28793 -0.17795,0.28793 0.36756,-0.12104 0.36756,-0.12103 0.0816,-1.10995 0.0816,-1.10994 0.27068,0.16728 0.27068,0.16729 1.896627,0.19969 1.896628,0.1997 -1.785938,0.0359 -1.785937,0.0359 v 0.35587 0.35586 l -0.51132,0.46274 -0.51133,0.46275 0.12966,0.33787 0.12965,0.33787 -0.41208,0.15813 -0.41208,0.15813 v 0.30529 0.30528 l 0.39687,-0.32938 0.39688,-0.32937 v 0.26602 0.26602 l 0.8599,-0.0723 0.859891,-0.0723 0.180036,-0.029 0.180035,-0.029 0.08455,-0.55073 0.08455,-0.55074 0.45193,0.77122 0.451931,0.77123 -0.451931,0.0476 -0.45193,0.0476 -0.502681,0.01 -0.502681,0.01 0.618398,0.43315 0.618398,0.43314 0.09541,-0.28622 0.09541,-0.28622 0.543563,0.14214 0.543563,0.14215 0.260452,-0.36867 0.260453,-0.36867 -0.130473,0.59531 -0.130473,0.59531 h 0.76898 0.76898 v 0.26459 0.26458 h 0.396875 0.396874 v -0.26458 -0.26459 h 0.47625 0.47625 l 0.3175,-0.3175 0.3175,-0.3175 0.3175,0.3175 0.3175,0.3175 h 0.608542 0.608542 l 0.03133,0.46302 0.03133,0.46303 -0.03133,0.19843 -0.03133,0.19844 h 0.427719 0.42772 l -0.128894,-0.67426 -0.128894,-0.67427 0.428779,0.0839 0.428778,0.0839 0.02697,0.52424 0.02697,0.52424 0.03918,0.21405 0.03917,0.21405 0.255917,-0.15816 0.255917,-0.15817 z m 3.53033,-3.86372 -0.467617,-0.35484 0.165195,-0.43049 0.165195,-0.43049 h 0.47922 0.479219 l 0.366355,-0.14059 0.366354,-0.14058 -0.109079,0.93433 -0.109078,0.93434 -0.434073,-0.008 -0.434074,-0.008 z m 3.817905,0.13927 -0.353878,-0.22431 0.09015,-0.63154 0.09015,-0.63153 0.644259,0.0719 0.644259,0.0719 0.125468,0.12547 0.125469,0.12546 -0.30189,0.66258 -0.30189,0.66258 -0.20411,-0.004 -0.20411,-0.004 z m 10.770802,0.17825 -0.03412,-0.0781 -0.04432,-0.72761 -0.04432,-0.7276 h 0.724895 0.724896 l 0.405792,0.57935 0.405792,0.57935 -0.06006,0.047 -0.06006,0.047 -0.992188,0.17938 -0.992187,0.17939 z m 8.170054,-0.24566 0.33073,-0.33518 v -0.47625 -0.47625 h 0.81132 0.81133 l -0.0837,0.7276 -0.0837,0.72761 -1.05834,0.0838 -1.05833,0.0838 z m 9.9658,-0.0309 0.15417,-0.33073 0.16332,-0.46302 0.16332,-0.46302 h 0.6306 0.6306 v 0.37797 0.37798 l -0.41577,0.41577 -0.41577,0.41578 h -0.53232 -0.53232 z m 2.38729,-0.0867 -0.11611,-0.37633 -0.12399,-0.39688 -0.12399,-0.39687 h 0.78545 0.78545 v 0.6306 0.6306 l -0.54536,0.14261 -0.54535,0.14261 z m 3.90121,-0.31019 0.0837,-0.7276 0.8599,-0.0829 0.85989,-0.0829 v 0.39474 0.39474 l -0.41577,0.41577 -0.41577,0.41578 h -0.52785 -0.52784 z m -12.53487,-0.29286 -0.11094,-0.75588 0.25714,-2.02806 0.25713,-2.02805 -0.70539,-0.73627 -0.70539,-0.73627 -0.0431,-1.17615 -0.0431,-1.17614 -0.15531,1.4552 -0.15531,1.45521 0.19843,0.0882 0.19844,0.0882 v 1.17274 1.17275 l -0.329,1.05416 -0.32901,1.05417 h -0.81727 -0.81727 l 0.0771,-1.38906 0.0771,-1.38906 0.18563,-0.92605 0.18563,-0.92604 0.0905,-0.39687 0.0905,-0.39688 -0.29981,-1.12504 -0.29981,-1.12504 0.30959,-2.41406 0.30959,-2.41407 0.37663,-0.72831 0.37662,-0.72831 0.45166,-0.17332 0.45165,-0.17331 0.21209,0.33969 0.21209,0.33969 -0.14326,-1.91823 -0.14327,-1.91823 h 0.15077 0.15076 l 0.52917,0.52917 0.52916,0.52916 h -0.39687 -0.39688 v 0.37483 0.37483 l 0.29029,0.0968 0.29029,0.0968 -0.30768,1.14262 -0.30768,1.14262 0.11668,0.11668 0.11668,0.11667 0.57792,-0.87099 0.57793,-0.87098 -0.16907,0.85989 -0.16907,0.8599 h 0.28561 0.2856 v 0.62097 0.62098 l 0.52917,0.61013 0.52917,0.61014 0.002,-0.23893 0.002,-0.23892 0.40299,0.77278 0.40299,0.77277 -0.23642,0.23642 -0.23642,0.23643 -0.43279,-0.43279 -0.43278,-0.43278 v -0.50096 -0.50096 l -0.52917,-0.2832 -0.52916,-0.2832 v 0.95425 0.95425 l 0.42621,0.42621 0.42622,0.42622 -0.40648,0.29723 -0.40648,0.29722 -0.0245,1.83735 -0.0245,1.83735 -0.0108,1.70008 -0.0108,1.70009 -0.24904,0.46533 -0.24904,0.46533 v 0.13211 0.13212 l 0.72761,0.11022 0.7276,0.11022 -0.75845,0.0396 -0.75845,0.0396 0.12645,0.66146 0.12645,0.66145 h -0.19787 -0.19786 z m -0.76924,-10.81964 0.0264,-0.59531 h -0.21514 -0.21515 l -0.031,1.25677 -0.031,1.25677 0.21981,-0.66146 0.21981,-0.66145 z m 17.22429,10.91407 v -0.66146 h 0.79375 0.79375 v -0.26459 -0.26458 h -0.62411 -0.62411 l 0.0661,-2.3151 0.0661,-2.31511 -0.17295,-0.46276 -0.17296,-0.46277 -0.89439,2.77787 -0.8944,2.77787 h -1.02046 -1.02046 v -0.22316 -0.22316 l 0.53875,-1.56278 0.53875,-1.56277 0.0317,-0.81833 0.0317,-0.81832 -0.19888,-0.32179 -0.19888,-0.32179 0.0214,-1.37343 0.0213,-1.37343 -0.31328,-1.26693 -0.31329,-1.26693 0.46822,-1.77578 0.46821,-1.77577 0.31202,-0.31332 0.31201,-0.31332 0.66231,-0.162 0.66231,-0.162 0.0792,1.44498 0.0792,1.44498 -0.42553,1.46378 -0.42553,1.46378 -0.36949,-0.14178 -0.36948,-0.14179 -0.2657,0.16421 -0.2657,0.16421 0.14904,0.38841 0.14905,0.3884 1.09617,-0.0264 1.09617,-0.0264 -0.66146,-0.19401 -0.66146,-0.19402 1.19063,-0.19581 1.19062,-0.19582 0.45113,-0.12702 0.45113,-0.12702 -0.21788,-0.58125 -0.21788,-0.58126 -0.0448,-2.05052 -0.0448,-2.05052 h 0.21572 0.21572 l 0.56709,0.3972 0.56709,0.39721 0.17422,0.79319 0.17421,0.7932 0.6417,-0.16105 0.6417,-0.16106 -0.13662,1.08732 -0.13662,1.08732 0.59843,0.0307 0.59842,0.0307 -0.52257,0.13247 -0.52257,0.13247 -0.32891,0.43215 -0.32891,0.43216 -0.008,0.21405 -0.008,0.21405 0.21183,-0.13092 0.21184,-0.13092 0.31324,1.10749 0.31324,1.1075 0.1224,0.74714 0.12241,0.74714 -0.2405,0.63256 -0.24049,0.63255 0.23091,0.14271 0.2309,0.14271 -0.0885,0.46197 -0.0885,0.46197 -0.0388,0.39687 -0.0388,0.39688 -0.22739,-0.52917 -0.22739,-0.52917 -0.0186,1.07156 -0.0186,1.07157 -0.32851,0.32851 -0.32852,0.32852 0.39466,0.27853 0.39467,0.27852 -0.48066,-0.15571 -0.48065,-0.15571 0.16775,1.32137 0.16775,1.32138 h -0.28241 -0.28241 v -0.66145 -0.66146 h -0.52917 -0.52916 v 0.38756 0.38757 l -0.51178,0.27389 -0.51177,0.27389 h -0.54656 -0.54656 z m 3.175,-3.3073 v -2.11666 l -0.46302,-0.0307 -0.46302,-0.0307 0.46302,-0.121 0.46302,-0.121 -0.0209,-0.7082 -0.0209,-0.7082 -0.134,0.33237 -0.134,0.33238 -0.24199,-0.14955 -0.24198,-0.14956 -0.004,0.34634 -0.004,0.34635 -0.21313,-0.33578 -0.21312,-0.33578 -0.37814,0.70981 -0.37814,0.7098 0.33073,0.11104 0.33073,0.11105 v 1.96232 1.96233 h 0.66146 0.66146 z m 5.26744,3.24115 0.19459,-0.7276 0.44398,0.022 0.44399,0.0221 0.99219,0.0481 0.99218,0.0481 -0.28388,0.19439 -0.28388,0.19438 -0.18642,0.50364 -0.18642,0.50363 -0.34704,-0.47461 -0.34704,-0.47461 -0.16654,0.434 -0.16654,0.43399 h -0.64688 -0.64688 z m -51.560228,-1.45521 0.0093,-0.33073 0.367003,-1.7122 0.367003,-1.71221 -0.127329,-0.20602 -0.12733,-0.20603 h 1.274292 1.274293 l -0.0947,-1.19062 -0.09469,-1.19063 h -0.522173 -0.522173 l -0.443373,1.05565 -0.443372,1.05564 -0.16564,0.003 -0.16564,0.003 0.354783,-1.65365 0.354783,-1.65364 0.0093,-0.46302 0.0093,-0.46302 h -0.661458 -0.661459 v -0.26459 -0.26458 h 0.200185 0.200184 l 0.832255,0.23869 0.832255,0.23869 0.119965,-0.62756 0.119965,-0.62756 -0.197351,0.12197 -0.197352,0.12197 -0.17153,-0.91433 -0.171531,-0.91434 0.04567,-1.96956 0.04567,-1.96956 1.01658,-0.45842 1.01658,-0.45841 -0.08117,-0.74146 -0.08117,-0.74147 -0.358521,-0.43199 -0.358521,-0.43199 0.266869,-0.17827 0.266869,-0.17827 0.220085,-0.52917 0.220085,-0.52917 0.109077,0.45436 0.109078,0.45436 0.908309,0.1704 0.90831,0.1704 v 0.2188 0.21881 l -0.727605,-0.0498 -0.727604,-0.0498 v 1.30301 1.303 l -0.871991,0.35634 -0.871992,0.35633 0.167166,0.27048 0.167165,0.27048 -0.325065,0.39168 -0.325064,0.39168 0.169995,0.16999 0.169995,0.17 v -0.30868 -0.30868 h 0.239813 0.239813 l -0.130473,0.59531 -0.130473,0.59531 0.283483,-0.39687 0.283484,-0.39688 0.03063,-0.79375 0.03063,-0.79375 0.245307,1.04723 0.245308,1.04723 0.316444,0.19558 0.316444,0.19557 0.201369,-0.31676 0.20137,-0.31676 0.02082,-0.66146 0.02082,-0.66146 0.233311,0.57916 0.233311,0.57916 0.05663,1.74918 0.05663,1.74918 0.503954,0.26971 0.503953,0.26971 0.446108,-0.33633 0.446108,-0.33633 -0.330729,0.37088 -0.330729,0.37089 v 0.23371 0.23372 l 0.323431,-0.10781 0.323431,-0.10781 0.179362,-0.64185 0.179362,-0.64184 0.02637,0.64063 0.02637,0.64062 0.422794,0.46718 0.422794,0.46719 -0.216916,0.3474 -0.216916,0.3474 -0.0965,0.39687 -0.0965,0.39688 -0.06619,0.79375 -0.06619,0.79375 -0.203829,0.62845 -0.203829,0.62844 0.262674,-0.16234 0.262675,-0.16234 0.124667,0.65215 0.124668,0.65216 -0.1439,0.1439 -0.1439,0.1439 -0.03859,0.52378 -0.03859,0.52377 h 0.220366 0.220367 v 0.39688 0.39687 h -0.246181 -0.246182 l -0.114662,0.59532 -0.114662,0.59531 -0.03603,-1.89903 -0.03603,-1.89902 -0.661458,-0.52031 -0.661459,-0.5203 -0.0362,-1.41713 -0.0362,-1.41713 -0.194425,1.71979 -0.194426,1.7198 0.116373,0.30396 0.116372,0.30397 -0.282621,0.17467 -0.282621,0.17467 v 1.72094 1.72094 l -0.836164,-0.0829 -0.836163,-0.0829 0.05983,-2.20557 0.05983,-2.20556 -0.480433,0.0909 -0.480433,0.091 -0.235758,1.21712 -0.235759,1.21712 -0.748673,-0.8223 -0.748674,-0.8223 -0.0078,1.25677 -0.0078,1.25677 h -0.29698 -0.296981 l 0.303734,0.36597 0.303733,0.36598 -0.425268,0.16319 -0.425268,0.16319 h -0.110652 -0.110652 z m 7.548218,-8.03056 -0.159261,-0.63454 h -0.552433 -0.552434 l 0.160599,0.41851 0.1606,0.41852 v 0.50752 0.50753 h 0.396875 0.396875 l 0.03603,0.33073 0.03603,0.33073 0.118188,-0.62222 0.118189,-0.62223 z m -3.110568,-2.75121 -0.04375,-1.5875 h -0.217221 -0.217222 l 0.03133,0.19844 0.03133,0.19844 -0.03133,0.47863 -0.03133,0.47864 -0.305463,-0.18879 -0.305464,-0.18879 0.191454,0.30978 0.191454,0.30978 0.312447,-0.18739 0.312447,-0.1874 -0.315594,0.39039 -0.315594,0.39039 0.23199,0.37537 0.231991,0.37537 -0.130449,0.21107 -0.130449,0.21107 h 0.276589 0.276588 z m 9.730582,9.32656 -0.453096,-1.78593 -0.238091,-0.44416 -0.238091,-0.44415 0.237155,-0.085 0.237154,-0.085 0.08403,-1.03045 0.08403,-1.03046 -0.353556,-0.12368 -0.353556,-0.12368 0.08622,1.00071 0.08622,1.00072 -0.292833,0.0976 -0.292833,0.0976 -0.167432,-0.83716 -0.167431,-0.83716 v -1.26153 -1.26154 l -0.396875,-0.15229 -0.396875,-0.1523 v -0.24812 -0.24811 l 0.568205,0.14859 0.568205,0.14859 -0.136048,-1.20702 -0.136049,-1.20702 0.22525,-0.3554 0.22525,-0.35541 0.0041,0.8599 0.0041,0.85989 h 0.245182 0.245183 l 0.123647,-0.46302 0.123647,-0.46302 0.173921,0.52926 0.173921,0.52925 0.649703,0.30661 0.649703,0.30661 0.369796,-0.52796 0.369797,-0.52795 0.554416,0.29671 0.554417,0.29672 v 0.38756 0.38757 h -0.425183 -0.425182 l 0.151077,0.3937 0.151077,0.3937 -0.288134,-0.063 -0.288134,-0.063 -0.121268,0.33072 -0.121267,0.33073 h 0.388079 0.388079 l 0.127705,0.66805 0.127704,0.66804 -0.477017,-0.1514 -0.477016,-0.1514 -0.104533,1.00471 -0.104533,1.00471 -0.04448,-1.13278 -0.04448,-1.13278 -0.423578,-0.16255 -0.423578,-0.16254 -0.233829,0.36929 -0.233829,0.36928 -0.0041,1.32632 -0.0041,1.32632 0.576878,0.26118 0.576878,0.26118 0.329035,0.92604 0.329035,0.92604 0.02013,-0.74965 0.02013,-0.74965 0.33073,0.11024 0.330729,0.11024 v 0.50712 0.50712 l 0.595312,0.55951 0.595313,0.5595 -0.01677,0.76341 -0.01677,0.76341 -0.239287,-0.59531 -0.239286,-0.59531 h -0.242251 -0.24225 l -0.13838,0.52916 -0.138381,0.52917 h -1.043833 -1.043834 z m 20.514386,1.56609 -0.62996,-0.0906 0.15051,-1.45826 0.1505,-1.45827 -0.2416,-0.63546 -0.2416,-0.63546 h 1.31637 1.31637 l 0.028,-0.59531 0.028,-0.59531 -0.0533,-0.79375 -0.0533,-0.79375 -0.37713,-0.2147 -0.37714,-0.2147 0.17176,-0.2779 0.17175,-0.27791 -0.36463,-0.23095 -0.36462,-0.23095 -0.22712,-0.004 -0.22712,-0.004 0.17545,0.7276 0.17546,0.72761 0.43296,0.33073 0.43297,0.33073 h -0.346 -0.346 l 0.12938,0.67681 0.12938,0.67681 -0.36312,-0.13934 -0.36312,-0.13934 v 0.38857 0.38857 h -0.48728 -0.48729 l -0.3233,-1.07908 -0.3233,-1.07908 0.41371,-0.6314 0.41371,-0.6314 v -0.40619 -0.40618 h 2.13228 2.13229 l -0.14817,0.23974 -0.14817,0.23975 -0.47007,-0.12293 -0.47006,-0.12292 0.14544,1.73331 0.14545,1.73332 -0.27043,0.0997 -0.27043,0.0997 0.30122,0.51289 0.30122,0.5129 -1.17849,-0.0153 -1.17848,-0.0153 -0.072,1.50901 -0.072,1.50901 0.21763,0.34307 0.21763,0.34308 0.0125,-0.39688 0.0125,-0.39687 0.38846,-0.51359 0.38846,-0.5136 v 1.05221 1.05221 l -0.46302,-0.008 -0.46302,-0.008 z m 17.26715,-1.46514 0.16385,-1.56763 v -0.60325 -0.60325 l 0.46302,-0.0943 0.46302,-0.0943 -0.83983,-0.37768 -0.83983,-0.37767 0.1506,-1.79638 0.1506,-1.79637 -0.50139,-0.008 -0.5014,-0.008 0.47886,-0.36306 0.47885,-0.36306 -0.26092,-0.16126 -0.26093,-0.16126 0.20837,-0.72652 0.20836,-0.72651 0.85317,-1.38659 0.85318,-1.38658 h 0.2872 0.2872 l 0.45985,-0.41616 0.45985,-0.41616 -0.23934,-0.83455 -0.23934,-0.83454 0.14888,-0.46909 0.14888,-0.46908 h 0.26237 0.26237 l -0.14903,0.24113 -0.14903,0.24114 1.05946,0.179 1.05945,0.17899 v 0.24133 0.24132 h -0.26458 -0.26458 v 0.39688 0.39687 h -0.26459 -0.26458 v -0.26458 -0.26458 h -0.38857 -0.38857 l 0.10189,0.33073 0.10189,0.33073 0.15479,0.70914 0.1548,0.70915 -0.59572,0.0846 -0.59572,0.0846 -0.0916,0.64879 -0.0916,0.6488 0.42213,-0.35033 0.42212,-0.35033 -0.1652,0.82601 -0.16521,0.82601 h 0.37291 0.3729 l 0.51275,-0.85989 0.51275,-0.8599 0.0935,0.46626 0.0935,0.46626 0.31071,-0.18833 0.3107,-0.18834 -0.76295,1.00753 -0.76294,1.00754 0.36607,0.23184 0.36607,0.23185 0.33073,0.004 0.33073,0.004 v 0.21167 0.21166 l -0.33073,0.3446 -0.33073,0.3446 1.08752,-0.0967 1.08751,-0.0967 -0.0103,1.85555 -0.0103,1.85555 -0.0971,-1.65365 -0.0971,-1.65364 h -1.04625 -1.04624 v 1.09934 1.09934 l -0.48386,-0.43788 -0.48385,-0.43789 h -0.70677 -0.70677 v 1.5875 1.5875 l 0.85989,0.008 0.8599,0.008 -0.52917,0.30229 -0.52916,0.3023 -0.39688,0.54955 -0.39687,0.54956 -0.0256,0.26458 -0.0256,0.26458 -0.19072,0.43578 -0.19072,0.43578 0.0492,0.35797 0.0492,0.35797 -0.0314,0.33493 -0.0314,0.33494 -0.82531,-0.0629 -0.82531,-0.0629 z m 4.39719,-7.54027 v -0.22942 l -0.99625,-0.65928 -0.99624,-0.65928 -0.61311,0.2268 -0.6131,0.2268 -0.70576,-0.15324 -0.70575,-0.15325 0.35333,0.24942 0.35332,0.24942 -0.006,0.235 -0.006,0.235 0.51253,-0.063 0.51252,-0.063 v 0.23669 0.23669 l 0.46302,-0.11172 0.46302,-0.11172 0.79375,0.24604 0.79375,0.24604 0.19844,0.0228 0.19844,0.0227 z m -69.729321,8.67731 -0.175131,-0.28337 0.176247,-1.1753 0.176248,-1.1753 -0.166853,-0.52571 -0.166852,-0.5257 h -0.511337 -0.511333 v -0.23982 -0.23981 l 0.540409,0.14132 0.540414,0.14132 -0.07739,-2.20539 -0.07739,-2.2054 -0.661458,-0.18328 -0.66146,-0.18328 0.52917,-0.0577 0.529165,-0.0577 0.198437,0.0313 0.198438,0.0313 v -0.28348 -0.28348 l 0.355087,0.35509 0.355088,0.35509 0.300507,0.5615 0.300508,0.5615 0.04868,1.37534 0.04868,1.37533 -0.366129,0.22628 -0.366129,0.22628 0.438899,0.16843 0.4389,0.16842 -0.143893,0.37498 -0.143893,0.37497 h 0.292891 0.292891 v 0.36448 0.36448 l -0.408916,0.33937 -0.408916,0.33937 0.13448,0.35045 0.13448,0.35045 -0.509461,0.27265 -0.509462,0.27266 0.150747,0.39284 0.150746,0.39284 H 63.749844 63.60486 Z m 42.411091,-4.07793 -0.72761,-0.6404 v -1.44626 -1.44626 l 0.1606,-0.41852 0.1606,-0.41851 h 0.39943 0.39942 l -0.14384,0.55006 -0.14385,0.55007 0.37757,-0.14489 0.37757,-0.14488 v 1.56358 1.56358 l -0.27743,0.17146 -0.27743,0.17146 0.30983,0.37332 0.30983,0.37332 -0.0985,-0.008 -0.0985,-0.008 z m -18.794704,-4.18489 -0.172544,-0.44965 0.152295,-0.39687 0.152295,-0.39688 h 0.236276 0.236276 v 0.2802 0.2802 l 0.264583,-0.16352 0.264584,-0.16352 v 0.41249 0.41249 h -0.374827 -0.374826 l -0.105784,0.31735 -0.105784,0.31735 z m 27.129074,-0.88946 -0.33073,-0.13345 v -0.50712 -0.50712 h 0.23416 0.23415 l 0.4334,0.66146 0.43341,0.66146 -0.33683,-0.0209 -0.33683,-0.0209 z m -36.909372,-0.50521 -0.198437,-0.2015 0.008,-0.8158 0.008,-0.8158 0.273943,0.47063 0.273942,0.47063 -0.08355,0.54667 -0.08355,0.54668 z m -13.692187,-0.75411 v -0.3863 l 0.264583,-0.16352 0.264584,-0.16353 v 0.2802 0.2802 h 0.573263 0.573264 l -0.110243,0.0951 -0.110243,0.0951 -0.727604,0.17456 -0.727604,0.17455 z m 42.399479,-0.58709 -0.59531,-0.64286 v -0.40493 -0.40494 l -0.2653,-0.49572 -0.2653,-0.49571 0.28197,-0.17427 0.28197,-0.17427 0.47189,0.42706 0.47189,0.42705 0.32238,0.98793 0.32238,0.98793 0.13715,0.33073 0.13715,0.33072 -0.35278,-0.0279 -0.35278,-0.0279 z m -23.084896,0.36884 v -0.10939 l 0.664602,-1.5663 0.664603,-1.5663 -0.05954,0.79391 -0.05954,0.79391 0.185712,0.30049 0.185713,0.30049 -0.533785,0.13958 -0.533786,0.13959 0.07374,0.32044 0.07374,0.32044 -0.330729,0.12127 -0.330729,0.12127 z m 8.204295,-3.10273 -0.394663,-0.24952 0.262371,-0.25682 0.262372,-0.25682 0.624624,0.51039 0.624624,0.51038 -0.492332,-0.004 -0.492333,-0.004 z m 0.485033,-0.99916 -0.04192,-0.46302 0.0388,-0.46302 0.0388,-0.46302 -0.459901,-0.004 -0.459902,-0.004 0.291057,-0.19439 0.291056,-0.19438 0.151076,-0.39688 0.151076,-0.39687 0.02089,0.46302 0.02089,0.46302 h 0.529166 0.529167 v 0.26458 0.26458 h -0.384305 -0.384305 l 0.100455,0.79375 0.100455,0.79375 H 91.86477 91.619454 Z m 20.195668,-0.73316 -0.0627,-0.9316 -0.24158,-0.63541 -0.24158,-0.6354 0.36797,-0.30539 0.36797,-0.30539 0.58916,0.0865 0.58915,0.0865 0.10892,0.33073 0.10891,0.33072 h -0.30553 -0.30553 l -0.41368,0.41369 -0.41369,0.41369 0.27955,0.5785 0.27956,0.5785 -0.0234,0.46302 -0.0234,0.46302 h -0.2987 -0.2987 z m 7.98086,0.75463 0.17696,-0.17696 -0.38406,-0.42439 -0.38407,-0.42439 0.2512,-0.39083 0.25121,-0.39083 0.16237,0.59233 0.16236,0.59234 0.2609,-0.16125 0.2609,-0.16124 -0.30029,0.5611 -0.30029,0.56109 h -0.16708 -0.16708 z m -0.38643,-2.13813 -0.0331,-0.0661 -0.0331,-0.24253 -0.0331,-0.24254 -0.19614,-0.19614 -0.19614,-0.19614 0.29468,-0.35508 0.29468,-0.35507 h 0.40029 0.40028 l 0.59029,0.63693 0.59028,0.63692 -0.16307,0.22607 -0.16307,0.22606 -0.85989,-0.003 -0.8599,-0.003 z m -57.741552,22.31228 0.0368,-0.63995 -0.66337,-0.16649 -0.66336,-0.16649 -0.15955,0.15955 -0.15956,0.15956 0.38922,0.24614 0.38921,0.24615 -0.23084,0.004 -0.23083,0.004 0.32938,0.39688 0.32937,0.39687 0.29834,-1.9e-4 0.29833,-1.8e-4 z m -5.14373,-1.95216 0.21211,-0.2121 h -0.90896 -0.90895 l 0.11913,0.19275 0.11912,0.19275 -0.46694,0.11327 -0.46695,0.11327 1.04467,-0.0939 1.04466,-0.0939 z"
       id="path14" /></g></svg>
