<?xml version="1.0" encoding="UTF-8" standalone="no"?>
<!-- Created with Inkscape (http://www.inkscape.org/) -->

<svg
   width="101.59999mm"
   height="84.666672mm"
   viewBox="0 0 101.59999 84.666672"
   version="1.1"
   id="svg1"
   xml:space="preserve"
   xmlns="http://www.w3.org/2000/svg"
   xmlns:svg="http://www.w3.org/2000/svg"><defs
     id="defs1" /><g
     id="layer1"
     transform="translate(-41.570367,-146.44325)"><path
       style="fill:#ffffff;fill-opacity:1"
       d="m 41.570369,188.77659 v -42.33334 h 50.799999 50.800002 v 42.33334 42.33333 H 92.370368 41.570369 Z m 47.574547,38.1841 0.08184,-0.57194 -0.544861,0.14248 -0.54486,0.14249 v 0.51771 0.51771 l 0.463021,-0.0882 0.463021,-0.0883 z m -2.992256,-1.40702 -0.163521,-0.26458 h 0.280198 0.280198 l 0.0041,0.33072 0.0041,0.33073 0.25648,-0.39687 0.256481,-0.39688 0.0081,0.39688 0.0081,0.39687 0.25648,-0.39687 0.25648,-0.39688 0.0041,0.31554 0.0041,0.31554 0.463021,-0.10152 0.463021,-0.10151 0.8718,-0.34267 0.871799,-0.34267 0.248628,0.39323 0.248628,0.39323 0.0041,-0.46302 0.0041,-0.46302 -1.389062,-0.0293 -1.389063,-0.0293 -0.661458,0.0521 -0.661458,0.052 0.264583,-0.26291 0.264583,-0.26292 1.5875,-0.14267 1.5875,-0.14266 0.17013,-0.014 0.17013,-0.014 0.164011,-0.42741 0.164011,-0.4274 -0.808811,0.11871 -0.808811,0.1187 -0.129293,-0.2092 -0.129293,-0.2092 0.868546,-0.46538 0.868547,-0.46539 -0.926042,-0.14957 -0.926041,-0.14958 0.79375,-0.30146 0.79375,-0.30146 -0.79375,-0.0377 -0.79375,-0.0377 0.595312,-0.23929 0.595313,-0.23928 v -0.2575 -0.25749 l -0.253028,-0.15638 -0.253028,-0.15638 0.149043,-0.3884 0.149044,-0.3884 H 89.488544 88.93107 v -0.26459 -0.26458 h 0.251082 0.251083 l -0.386925,-0.92604 -0.386925,-0.92604 h 0.168239 0.16824 l -0.250171,-0.33073 -0.25017,-0.33073 -0.03037,-0.59532 -0.03037,-0.59531 h 0.213303 0.213302 l 0.141059,-0.99219 0.141059,-0.99218 0.188608,-0.46808 0.188609,-0.46807 -0.7799,0.4476 -0.779899,0.4476 -0.02859,0.68193 -0.02859,0.68193 -0.09604,0.45537 -0.09604,0.45536 -0.206096,0.20609 -0.206095,0.2061 -0.308681,0.007 -0.30868,0.007 -0.322315,-0.40366 -0.322314,-0.40366 -0.03975,0.92604 -0.03975,0.92604 0.0214,0.16866 0.02141,0.16865 -0.236091,0.8232 -0.23609,0.8232 0.397209,0.39721 0.397208,0.39721 -0.878794,0.008 -0.878795,0.008 0.513591,0.38846 0.51359,0.38846 h -0.43183 -0.431829 l -0.174401,0.28218 -0.174401,0.28219 0.150245,0.15025 0.150245,0.15024 2.191353,0.19101 2.191354,0.191 -2.182813,0.038 -2.182812,0.038 v 0.24518 0.24518 l 0.463021,0.121 0.46302,0.121 -0.926041,0.0571 -0.926042,0.0571 0.529167,0.17207 0.529166,0.17206 v 0.39688 0.39687 l 0.363189,-0.077 0.363188,-0.077 -0.167751,0.43715 -0.167752,0.43716 0.391403,-0.1502 0.391402,-0.15019 0.131995,0.21357 0.131996,0.21357 -1.047237,0.34562 -1.047236,0.34562 -6.021598,-0.1713 -6.021598,-0.1713 -3.704167,-0.39705 -3.704167,-0.39706 -1.455208,-0.25825 -1.455208,-0.25825 -0.576968,-0.14146 -0.576968,-0.14145 -0.08449,-0.59487 -0.08449,-0.59488 -0.706907,-0.0817 -0.706908,-0.0817 0.142454,0.54475 0.142454,0.54474 h 0.410113 0.410114 l -0.134663,0.13466 -0.134663,0.13467 -2.206302,-0.41853 -2.206302,-0.41853 -1.341153,-0.50975 -1.341153,-0.50975 -0.33073,-1.3e-4 -0.330729,-1.4e-4 v 0.232 0.232 l 1.256771,0.53957 1.256771,0.53957 2.116666,0.57048 2.116667,0.57047 2.116667,0.36837 2.116666,0.36836 4.101042,0.4212 4.101042,0.42119 4.630208,0.20945 4.630208,0.20946 2.859886,0.0402 2.859885,0.0402 z m 0.945658,-2.10454 -0.351994,-0.21755 0.165629,-0.26799 0.165628,-0.26799 0.926602,0.0263 0.926602,0.0263 v 0.36107 0.36106 l -0.463021,-0.0762 -0.463021,-0.0762 -0.277216,0.17437 -0.277216,0.17438 z m 4.4783,1.83996 v -0.26459 h 0.926042 0.926042 v 0.26459 0.26458 h 0.412489 0.41249 l -0.163521,-0.26458 -0.163522,-0.26459 h 1.089564 1.089563 l -0.189379,0.30642 -0.189378,0.30642 4.208659,-0.1826 4.208663,-0.1826 4.63021,-0.3968 4.6302,-0.39679 2.38125,-0.37889 2.38125,-0.37889 2.11667,-0.397 2.11667,-0.39699 2.51354,-0.64178 2.51354,-0.64179 1.52511,-0.67771 1.52511,-0.6777 0.22999,-0.60821 0.22999,-0.60821 -0.0961,-0.10487 -0.0961,-0.10486 -0.99757,0.65807 -0.99757,0.65807 -1.53128,0.57127 -1.53128,0.57128 h -0.36562 -0.36563 l 0.26234,-0.9501 0.26233,-0.95009 -0.13069,-0.34058 -0.1307,-0.34059 0.29683,-0.29682 0.29682,-0.29682 h -0.34836 -0.34836 l 0.13832,-0.52891 0.13831,-0.5289 -0.22819,-0.14103 -0.22819,-0.14103 0.16509,-0.43022 0.16509,-0.43021 -0.9704,0.15747 -0.97039,0.15747 v -0.24795 -0.24794 h 0.61736 0.61736 l 0.17409,-0.1741 0.1741,-0.17409 -0.32844,-0.39574 -0.32843,-0.39574 0.0715,-0.0944 0.0715,-0.0944 -0.43724,-0.84553 -0.43725,-0.84554 0.16356,-1.99596 0.16355,-1.99596 0.39748,-1.45521 0.39748,-1.45521 0.003,-1.11085 0.003,-1.11084 -0.66145,-0.71373 -0.66146,-0.71372 v 0.32104 0.32105 l -0.52998,-0.16821 -0.52998,-0.16821 -0.39606,0.39607 -0.39607,0.39606 v 0.25262 0.25263 l -0.51711,0.13523 -0.51712,0.13523 -0.18015,0.71778 -0.18015,0.71777 0.36654,0.23214 0.36654,0.23213 0.54239,0.004 0.5424,0.004 0.3175,0.3175 0.3175,0.3175 v 0.22728 0.22729 l -0.30317,-0.18737 -0.30317,-0.18737 0.20164,0.76706 0.20164,0.76707 0.001,0.52917 0.001,0.52916 -0.032,0.99478 -0.032,0.99478 -0.52916,0.45308 -0.52917,0.45309 v 0.47037 0.47036 h 0.24518 0.24519 l 0.14068,-0.46302 0.14069,-0.46302 -0.0755,0.8599 -0.0755,0.85989 h 0.20291 0.20291 l -0.0551,0.71681 -0.0551,0.71681 -0.65666,0.18286 -0.65666,0.18286 0.8158,0.0264 0.8158,0.0264 0.1595,0.15949 0.1595,0.1595 -0.26331,0.69253 -0.2633,0.69254 0.45868,0.33539 0.45868,0.33539 0.6109,-0.11078 0.6109,-0.11077 0.30327,-0.18744 0.30328,-0.18743 -0.12116,0.36756 -0.12115,0.36756 -1.01352,0.13229 -1.01352,0.13229 -0.0838,0.92604 -0.0838,0.92604 -0.0101,0.58792 -0.0101,0.58792 -0.45944,0.23701 -0.45945,0.23702 -1.32291,0.30501 -1.32292,0.30501 -4.10104,0.53312 -4.10104,0.53312 -2.11667,0.24304 -2.11667,0.24305 -4.6302,0.27202 -4.630212,0.27203 -3.108854,0.0345 -3.108854,0.0345 v 0.36704 0.36705 h 0.264583 0.264583 z m 4.7625,-6.61222 v -0.31105 l -0.330729,0.12127 -0.330729,0.12127 0.06615,0.29765 0.06615,0.29766 h -0.264584 -0.264583 v 0.56485 0.56484 l 0.529167,-0.67272 0.529166,-0.67273 z m -35.787895,-1.52372 0.06315,-1.12448 h -1.15678 -1.15678 l -0.123912,0.6482 -0.123912,0.6482 0.357651,0.13725 0.35765,0.13724 v 0.42194 0.42195 l 0.859896,-0.0829 0.859896,-0.0829 z m 30.223231,-0.92604 0.0084,-0.99219 H 90.090537 89.39822 l 0.173448,0.59531 0.173448,0.59531 0.157041,0.86254 0.157042,0.86254 0.353413,-0.46567 0.353413,-0.46566 z m 1.820385,0.20821 0.09218,-0.47553 -0.356762,-0.22609 -0.356763,-0.22609 0.330729,-0.004 0.33073,-0.004 v -0.23981 -0.23981 l -0.529167,0.13838 -0.529167,0.13838 v 0.71879 0.71879 l 0.181901,0.18191 0.181901,0.1819 0.28112,-0.0936 0.28112,-0.0936 z m -31.790925,-1.59728 -0.150276,-0.92604 0.446386,-0.004 0.446386,-0.004 -0.299824,-0.19439 -0.299824,-0.19438 -0.303407,-2.24896 -0.303407,-2.24896 -0.07476,-0.87977 -0.07476,-0.87976 -0.380339,-0.24066 -0.38034,-0.24066 0.410104,-0.004 0.410104,-0.004 0.330729,-0.33073 0.330729,-0.33073 h 0.285229 0.285228 l 0.329475,-0.52916 0.329474,-0.52917 -0.661782,-0.92604 -0.661782,-0.92604 0.171183,0.7276 0.171182,0.72761 h -0.269624 -0.269624 v -1.05834 -1.05833 l -0.727604,0.0112 -0.727605,0.0112 -0.622248,0.97375 -0.622248,0.97376 0.145512,0.93327 0.145512,0.93328 0.539406,2.51354 0.539406,2.51354 0.0035,0.93927 0.0035,0.93927 -0.3175,0.3175 -0.3175,0.3175 h 0.169518 0.169518 l -0.367644,0.70864 -0.367643,0.70863 0.134365,0.21741 0.134366,0.21741 h 1.209629 1.209628 z m 36.858121,-1.97811 v -0.19746 l -0.727604,0.11706 -0.727604,0.11706 -0.396875,0.12973 -0.396875,0.12973 0.49409,0.36372 0.494091,0.36372 0.630389,-0.41305 0.630388,-0.41305 z m -4.018002,-0.49694 0.975294,-0.50555 1.132355,-0.47166 1.132356,-0.47167 0.747621,-0.55157 0.747621,-0.55158 -5.71e-4,-0.13229 -5.71e-4,-0.13229 0.184659,-0.58181 0.18466,-0.58181 0.355879,0.13656 0.355879,0.13656 0.381912,-0.54525 0.381913,-0.54526 0.17471,0.1747 0.1747,0.17471 0.0331,-0.30868 0.0331,-0.30868 0.0371,-0.19844 0.0371,-0.19844 0.22088,-0.34833 0.22088,-0.34833 -0.12729,-0.12729 -0.12728,-0.12729 -0.36223,0.34676 -0.36223,0.34676 -0.735076,0.47059 -0.735077,0.47058 -0.229573,-0.14188 -0.229573,-0.14188 -0.755141,0.39384 -0.755142,0.39384 0.242535,0.002 0.242535,0.002 -0.139695,0.13969 -0.139694,0.1397 -0.69333,-0.26361 -0.69333,-0.2636 -0.278715,0.52078 -0.278716,0.52079 h -0.599232 -0.599233 l -0.3175,0.3175 -0.3175,0.3175 v 0.47625 0.47625 H 92.89952 92.634937 l 0.06615,0.23649 0.06615,0.23649 -0.780954,0.67767 -0.780954,0.67767 -0.277379,-0.2302 -0.277379,-0.23021 v 0.61449 0.61449 l 1.009081,-0.10038 1.009081,-0.10039 z m -9.665335,-0.89838 -0.25438,-0.33073 0.161708,-1.78429 0.161709,-1.78428 -1.990246,-0.66367 -1.990246,-0.66367 -1.553855,-0.93708 -1.553855,-0.93708 -0.137158,0.13716 -0.137159,0.13716 1.161847,1.51315 1.161847,1.51316 1.369991,1.43139 1.36999,1.43139 0.255931,-0.15817 0.255931,-0.15818 0.150001,0.3909 0.15,0.39089 0.40689,-0.15613 0.406891,-0.15614 v 0.40313 0.40313 l 0.330729,0.13346 0.330729,0.13345 0.09854,0.0209 0.09854,0.0209 z m 4.952087,0.0661 v -0.26458 h 0.396875 0.396875 v -0.55748 -0.55747 l 0.364879,0.14002 0.364879,0.14002 -0.07129,-0.83932 -0.07129,-0.83931 -0.02901,-0.2205 -0.029,-0.22049 -0.930855,-0.90399 -0.930855,-0.90398 h -0.376447 -0.376447 l -0.163521,0.26458 -0.163522,0.26459 h -0.396875 -0.396875 l 0.163522,-0.26459 0.163521,-0.26458 h -0.494553 -0.494554 l -0.843978,0.82514 -0.843978,0.82515 v 0.85364 0.85364 l 0.463021,0.41571 0.463021,0.41572 1.322916,-0.34605 1.322917,-0.34606 0.241962,0.22654 0.241963,0.22654 0.06672,0.6047 0.06672,0.6047 0.02205,0.0661 0.02205,0.0662 h 0.264584 0.264583 z m 0.595312,-5.78572 0.198438,-0.0351 v -0.36857 -0.36857 l -0.418515,-0.1606 -0.418514,-0.16059 h -2.06672 -2.066719 l -0.139924,0.36463 -0.139923,0.36463 0.280143,0.28015 0.280144,0.28014 2.146576,-0.0805 2.146577,-0.0805 z m 0.114165,-3.54161 0.432217,-0.43222 -0.430169,-1.13949 -0.43017,-1.1395 -0.405261,-2.34976 -0.405261,-2.34976 v -0.9007 -0.90069 l -0.532874,0.28519 -0.532875,0.28518 -0.922334,-0.17303 -0.922333,-0.17303 v 0.74112 0.74113 l -0.286137,1.60342 -0.286137,1.60343 -0.375321,1.51736 -0.375322,1.51736 v 0.75365 0.75364 l 0.140331,0.14034 0.140331,0.14033 2.37955,-0.0459 2.379549,-0.0459 z m -2.664533,-0.6794 -0.134203,-0.21714 -0.0085,-3.35473 -0.0085,-3.35473 h 0.259364 0.259364 v 3.57187 3.57188 H 87.226577 87.1099 Z m 37.218761,-0.0377 0.13583,-0.51943 -0.36956,-0.30671 -0.36956,-0.30671 v -0.31866 -0.31865 l -0.80964,0.11883 -0.80964,0.11883 0.13148,0.34262 0.13147,0.34261 -0.44631,0.19476 -0.44632,0.19477 -0.32777,0.0256 -0.32777,0.0256 -0.0691,0.26199 -0.0691,0.26198 0.79375,0.16973 0.79375,0.16973 0.96133,0.0313 0.96133,0.0313 z m -63.646869,-0.27431 -0.03986,-0.52916 -0.539008,-0.0186 -0.539008,-0.0186 0.529166,-0.22739 0.529167,-0.22739 -0.674687,-0.0186 -0.674688,-0.0186 -0.3175,0.3175 -0.3175,0.3175 v 0.47625 0.47625 h 1.04189 1.04189 z m -0.173061,-2.81181 1.039559,-0.16624 v -0.89222 -0.89223 h -0.264584 -0.264583 v 0.54478 0.54479 l -0.264583,-0.16353 -0.264584,-0.16352 v -3.27606 -3.27606 l 0.277431,-0.17146 0.277431,-0.17146 -0.288283,-0.34737 -0.288284,-0.34736 -0.713012,-0.17895 -0.713012,-0.17895 0.461377,-0.2582 0.461377,-0.2582 0.262488,0.16222 0.262487,0.16223 v -0.2802 -0.2802 l -0.330729,-0.0209 -0.330729,-0.0209 0.330729,-0.13346 0.330729,-0.13345 v -0.22496 -0.22496 l -0.679838,-0.0837 -0.679839,-0.0837 0.547547,-0.58425 0.547547,-0.58425 v -0.12578 -0.12578 l -0.727604,-0.13005 -0.727604,-0.13005 1.322916,0.0902 1.322917,0.0902 2.955388,0.32387 2.955388,0.32386 0.149853,0.55828 0.149854,0.55828 0.0036,0.67469 0.0036,0.67469 0.3175,0.3175 0.3175,0.3175 h 0.47625 0.47625 v -0.25628 -0.25628 l -0.4494,0.17245 -0.449401,0.17245 0.646809,-0.90836 0.646809,-0.90836 -0.06512,-0.0661 -0.06512,-0.0662 v -0.24443 -0.24443 l 2.182812,0.0893 2.182813,0.0893 2.579687,0.0537 2.579687,0.0537 v 0.23365 0.23365 l -0.330729,0.004 -0.330729,0.004 0.36561,0.23156 0.365611,0.23156 -0.184048,0.98106 -0.184048,0.98105 0.281458,-0.17395 0.281459,-0.17395 v -0.38126 -0.38126 h 0.557474 0.557474 l -0.149044,0.3884 -0.149043,0.38841 0.265875,0.16432 0.265876,0.16432 -0.309828,0.37332 -0.309828,0.37332 h 0.275341 0.27534 l 0.418515,0.1606 0.418514,0.16059 v -0.43348 -0.43349 l 0.396875,-0.15229 0.396875,-0.1523 0.0041,-0.567 0.0041,-0.56701 0.256481,-0.39687 0.25648,-0.39688 0.0041,0.32243 0.0041,0.32242 0.408298,-0.15668 0.408297,-0.15668 -0.408875,-0.4518 -0.408874,-0.4518 0.11421,-0.11421 0.114211,-0.11421 1.191305,0.0947 1.191304,0.0948 -0.131909,0.34375 -0.131909,0.34374 0.7452,0.27161 0.7452,0.27161 -0.992187,0.0209 -0.992188,0.0209 v 0.4054 0.4054 l 0.595313,0.23929 0.595312,0.23928 -0.610927,0.0168 -0.610927,0.0168 0.130832,0.21169 0.130832,0.21169 2.225292,0.0697 2.225291,0.0697 0.02387,-0.83971 0.02388,-0.83971 -0.481562,-0.12593 -0.481562,-0.12593 0.132412,-0.50635 0.132413,-0.50634 h -0.560026 -0.560025 l -0.03741,0.33073 -0.03741,0.33072 0.02496,0.59532 0.02496,0.59531 h -0.252133 -0.252134 v -0.93457 -0.93457 l -0.595312,-0.23928 -0.595313,-0.23929 0.661459,-0.0461 0.661458,-0.0461 0.570042,0.0449 0.570041,0.0449 0.144868,-0.2344 0.144868,-0.23441 1.394402,0.17889 1.394403,0.17889 0.356982,-0.35699 0.356983,-0.35698 h -2.135565 -2.135566 v -0.25628 -0.25628 l -0.440278,0.16895 -0.440279,0.16895 0.19131,-0.30954 0.19131,-0.30955 h -0.229628 -0.229629 l -0.51359,0.38846 -0.513591,0.38846 -1.521354,0.008 -1.521354,0.008 -0.02089,-0.33073 -0.02089,-0.33073 -0.126801,0.31078 -0.126802,0.31077 -3.490331,-0.14763 -3.490331,-0.14764 -0.305,-0.24033 -0.305,-0.24033 -0.09738,0.29214 -0.09738,0.29213 -0.693706,-0.26374 -0.693706,-0.26375 -0.557562,0.1458 -0.557562,0.14581 v -0.29544 -0.29544 h 0.30868 0.308681 l -0.174767,-0.17477 -0.174767,-0.17477 -0.520394,0.47095 -0.520395,0.47095 -1.134873,-0.16727 -1.134873,-0.16727 -2.666732,-0.10906 -2.666732,-0.10907 -1.698893,-0.29046 -1.698893,-0.29047 -0.595313,-0.1313 -0.595312,-0.1313 v 0.40192 0.40192 h -0.396875 -0.396875 v 0.92604 0.92604 l 0.330729,0.0209 0.330729,0.0209 -0.321055,0.13022 -0.321055,0.13023 0.434735,1.08651 0.434735,1.08651 -0.30528,2.2681 -0.30528,2.26811 -0.322081,1.76796 -0.322082,1.76796 0.317263,0.69631 0.317263,0.69632 0.41363,-0.41363 0.41363,-0.41363 z m 19.21837,-9.73884 -0.429244,-0.42924 0.149357,-0.38922 0.149357,-0.38922 0.17013,0.0186 0.17013,0.0186 0.443013,0.17984 0.443013,0.17984 -0.333256,0.62003 -0.333256,0.62002 z m 44.79202,9.08168 v -0.722 l -0.69139,-2.86545 -0.69139,-2.86545 0.20719,-1.5875 0.2072,-1.5875 0.0212,-1.85908 0.0212,-1.85907 -0.38081,-0.40717 -0.3808,-0.40716 -2.39732,0.57515 -2.39732,0.57515 -1.65284,0.18278 -1.65284,0.18278 0.0653,-0.59751 0.0653,-0.59752 -0.46302,-0.0964 -0.46302,-0.0964 -0.003,0.35013 -0.003,0.35013 -1.01242,0.48473 -1.01243,0.48474 -0.77048,-0.0879 -0.77048,-0.0879 v -1.19062 -1.19063 l 1.57814,0.0943 1.57814,0.0943 0.56058,0.21313 0.56057,0.21313 0.0671,-0.43971 0.0671,-0.4397 0.0205,-1.45521 0.0205,-1.45521 -0.20537,-1.45521 -0.20538,-1.45521 -0.19772,-0.26458 -0.19773,-0.26458 -0.17089,-0.8998 -0.17089,-0.89979 -0.55701,-1.21687 -0.55702,-1.21688 -0.6313,-1.34749 -0.6313,-1.34749 -0.55064,-0.63688 -0.55064,-0.63688 -0.91617,-0.99219 -0.91618,-0.99219 h 0.14937 0.14937 l -0.86334,-0.94875 -0.86334,-0.94874 -1.01458,-1.89553 -1.01458,-1.89552 -0.60846,-0.79375 -0.60846,-0.79375 -1.42264,-1.47286 -1.42264,-1.47285 -2.116663,-1.11813 -2.116666,-1.11813 -1.444651,-0.38558 -1.444651,-0.38558 -1.862641,0.003 -1.86264,0.003 -1.322917,0.35719 -1.322917,0.35719 -1.719791,1.0073 -1.719792,1.00731 -1.432621,1.21205 -1.432622,1.21206 -1.023753,1.29189 -1.023754,1.29189 0.09014,0.0901 0.09014,0.0901 2.101655,-0.90012 2.101655,-0.90012 1.546641,-0.15756 1.54664,-0.15757 0.390488,-0.39049 0.390487,-0.39048 h 0.226786 0.226786 l 0.433468,-0.43347 0.433468,-0.43347 1.834389,-0.13125 1.834389,-0.13125 v -0.59351 -0.59351 l 0.371678,-0.30846 0.371678,-0.30847 0.180745,1.06982 0.180745,1.06982 h 0.344595 0.344594 l 1.881108,0.92966 1.881107,0.92967 v 0.1465 0.14649 l -0.463021,-0.13037 -0.463021,-0.13036 -0.926041,-0.16713 -0.926042,-0.16713 1.25599,0.80883 1.25599,0.80884 h 0.365259 0.365259 l 0.294684,0.35507 0.294685,0.35507 -0.14393,0.14393 -0.143929,0.14393 0.675392,0.53127 0.675391,0.53126 v 0.27345 0.27344 l 0.697141,0.54837 0.69714,0.54837 h -0.1674 -0.16739 l 0.92011,0.97549 0.92011,0.97549 0.16388,-0.16387 0.16388,-0.16388 -0.75205,-1.38177 -0.75205,-1.38176 -1.42556,-1.41422 -1.425556,-1.41423 h 0.184392 0.184392 l 0.577918,0.29776 0.577914,0.29776 0.71948,0.768 0.71947,0.768 0.008,0.12487 0.008,0.12486 0.11098,-0.0661 0.11097,-0.0661 0.61663,0.5689 0.61663,0.5689 0.51245,0.093 0.51245,0.093 0.21934,0.84646 0.21935,0.84647 0.23906,0.14775 0.23906,0.14775 0.38997,-0.38998 0.38998,-0.38997 0.3163,0.85056 0.31631,0.85057 0.36641,0.69047 0.36642,0.69048 -0.18381,0.18381 -0.1838,0.1838 0.32057,0.19812 0.32058,0.19813 0.53596,2.0956 0.53596,2.0956 -0.0567,0.84273 -0.0568,0.84272 0.35667,0.42976 0.35666,0.42975 0.12838,5.11301 0.12838,5.11301 -0.63103,0.15362 -0.63103,0.15362 -2.57969,0.18486 -2.57969,0.18486 v -0.31645 -0.31644 l -0.27868,0.17223 -0.27868,0.17224 -0.97809,0.11206 -0.97809,0.11206 -3.369111,0.21207 -3.369114,0.21206 -0.180712,0.18071 -0.180712,0.18071 0.171154,0.17116 0.171154,0.17115 2.512704,-0.0234 2.512704,-0.0234 0.16192,0.26199 0.161919,0.26199 0.307174,-0.24657 0.307174,-0.24656 3.042706,-0.16614 3.04271,-0.16613 2.07336,-0.15939 2.07337,-0.15939 0.2498,0.24981 0.24981,0.2498 -0.25588,0.64017 -0.25588,0.64016 -0.0168,-0.48192 -0.0168,-0.48192 -0.39687,0.39688 -0.39688,0.39687 v 0.28348 0.28349 h 0.26458 0.26459 l 0.0209,0.46302 0.0209,0.46302 0.12794,-0.31419 0.12794,-0.3142 0.46711,0.44649 0.46711,0.44648 -0.1145,0.32921 -0.11449,0.32921 -0.23686,-0.14639 -0.23686,-0.14638 v 0.28019 0.2802 h 0.36815 0.36814 l 0.46833,-1.12448 0.46833,-1.12448 0.055,-1.00174 0.055,-1.00174 0.10123,-0.10123 0.10123,-0.10123 0.72706,-0.18248 0.72706,-0.18248 v 0.49702 0.49702 l -0.53695,1.97906 -0.53695,1.97905 -0.29586,0.79375 -0.29585,0.79375 -0.91946,1.37236 -0.91945,1.37235 -0.19897,1.0089 -0.19896,1.00889 -0.20084,0.52917 -0.20084,0.52917 0.81955,-0.92604 0.81955,-0.92605 1.04146,-1.98437 1.04146,-1.98438 0.82022,-2.46245 0.82023,-2.46244 v -0.8639 -0.86389 l 2.57968,-0.37782 2.57969,-0.37783 h 0.52923 0.52917 l 0.19438,-0.26458 0.19439,-0.26459 0.004,0.36313 0.004,0.36313 0.44019,-0.36313 0.44019,-0.36313 -0.30794,0.57799 -0.30793,0.57799 0.24752,0.65104 0.24752,0.65103 0.34783,0.13915 0.34783,0.13915 -0.59532,0.0209 -0.59531,0.0209 0.004,0.46302 0.004,0.46302 0.2275,0.35904 0.2275,0.35905 0.62835,-0.19348 0.62834,-0.19347 -0.19375,0.20457 -0.19375,0.20457 -0.6,0.30124 -0.6,0.30124 0.10016,3.6281 0.10017,3.6281 h -0.2986 -0.2986 l -0.0454,-3.37344 -0.0454,-3.37344 -0.18842,3.43959 -0.18842,3.43958 -0.19311,0.5921 -0.19311,0.5921 0.36074,0.10651 0.36075,0.10651 1.32292,0.40242 1.32291,0.40242 0.33073,-0.42399 0.33073,-0.424 z m -50.725084,-3.86118 -0.131529,-0.34276 h -0.236276 -0.236276 v -0.41249 -0.41249 l -0.241018,0.14895 -0.241017,0.14896 0.08848,0.46197 0.08848,0.46197 0.02024,0.18199 0.02024,0.182 0.500097,-0.0377 0.500097,-0.0377 z m -3.514497,-0.49067 v -0.38126 h -0.246754 -0.246754 l -0.160193,-0.50472 -0.160193,-0.50473 -0.382932,-0.14694 -0.382931,-0.14695 0.232242,0.45323 0.232242,0.45323 0.294178,0.74253 0.294179,0.74252 0.263458,-0.16282 0.263458,-0.16283 z m 6.242973,0.10703 0.188787,-0.30547 -0.305463,0.18879 -0.305464,0.18879 v -0.38419 -0.38418 l 0.43289,-0.16611 0.43289,-0.16612 -0.488515,-0.5398 -0.488515,-0.53981 0.306242,-0.18926 0.306242,-0.18927 -0.214053,-0.34635 -0.214052,-0.34634 -0.235002,0.005 -0.235002,0.005 0.08599,-0.41544 0.08599,-0.41545 -0.438363,0.16821 -0.438363,0.16822 H 74.57754 74.290499 l 0.16708,0.16708 0.16708,0.16708 -0.264583,0.49438 -0.264584,0.49438 h 0.406184 0.406185 v 0.39687 0.39688 H 74.60227 74.29668 l 0.403357,0.46302 0.403357,0.46302 -0.132092,0.36756 -0.132091,0.36755 0.245395,-0.15166 0.245395,-0.15166 0.384242,0.24307 0.384242,0.24308 0.05053,0.004 0.05053,0.004 z m 32.534118,-1.7032 0.36787,-0.28886 0.0728,-0.87297 0.0728,-0.87297 -0.27013,-0.0968 -0.27014,-0.0968 -0.32518,1.39866 -0.32517,1.39867 0.0307,0.38912 0.0307,0.38913 0.12392,-0.52917 0.12392,-0.52916 z m -22.240633,0.68574 -0.163522,-0.26458 h -0.79375 -0.79375 l 0.163522,0.26458 0.163521,0.26459 h 0.79375 0.79375 z m 0.132291,-0.92604 v -0.39687 h -1.058333 -1.058333 v 0.39687 0.39688 h 1.058333 1.058333 z m 2.116667,0 v -0.39687 H 88.165342 87.3999 l -0.152295,0.39687 -0.152296,0.39688 h 0.917738 0.917738 z m 12.869955,-6.48229 h 0.39044 l -0.18879,0.30546 -0.18878,0.30547 0.29391,-0.18165 0.2939,-0.18164 -0.15019,-0.39141 -0.1502,-0.3914 0.42634,0.1636 0.42633,0.1636 0.004,-0.49133 0.004,-0.49133 0.22746,0.35898 0.22746,0.35898 0.19199,-0.31064 0.19198,-0.31064 -0.55579,-0.14534 -0.55578,-0.14534 0.004,-0.43217 0.004,-0.43216 0.24614,0.38921 0.24615,0.38922 0.20516,-0.20516 0.20516,-0.20517 -0.38921,-0.24614 -0.38922,-0.24615 -1.69465,-0.004 -1.694652,-0.004 0.447261,0.49422 0.447261,0.49422 -0.869275,0.20263 -0.869275,0.20264 -0.264583,-0.0522 -0.264583,-0.0522 0.587963,0.59741 0.587963,0.59741 0.198124,-0.19812 0.198125,-0.19813 -0.389213,-0.26894 -0.389212,-0.26894 0.859896,0.10521 0.8599,0.10522 v -0.23438 -0.23437 l 0.26458,0.16352 0.26458,0.16352 0.0209,0.71199 0.0209,0.71199 0.13346,-0.33073 0.13345,-0.33073 z m -27.017889,-0.0928 0.521893,-0.3574 0.738425,-0.17952 0.738425,-0.17952 -0.176186,-0.28508 -0.176185,-0.28507 -0.201929,0.32673 -0.20193,0.32672 -0.294164,-0.1818 -0.294165,-0.1818 v -0.24897 -0.24897 h 0.661458 0.661459 l 0.03133,0.33073 0.03133,0.33073 -0.03379,0.2058 -0.03379,0.2058 0.397809,0.15265 0.397809,0.15265 -0.116798,0.18899 -0.116799,0.18898 0.777077,-0.11405 0.777077,-0.11405 -0.146362,-0.23682 -0.146362,-0.23681 0.412126,-0.15815 0.412125,-0.15815 -0.146387,-0.23686 -0.146387,-0.23686 h -0.491503 -0.491503 l -0.136357,0.33073 -0.136357,0.33073 -0.647299,-0.70499 -0.647299,-0.70499 -0.627455,-0.0888 -0.627455,-0.0888 0.07774,-0.46302 0.07774,-0.46302 -0.606911,-0.0307 -0.606911,-0.0307 0.501425,-0.1284 0.501424,-0.1284 -0.369133,-0.23373 -0.369132,-0.23374 0.661458,-0.0354 0.661458,-0.0354 0.232243,0.0426 0.232243,0.0426 -0.136475,-0.52188 -0.136475,-0.52189 0.207878,-0.87845 0.207878,-0.87845 0.02708,0.71261 0.02708,0.7126 0.588039,0.41188 0.588038,0.41187 h 0.21731 0.21731 l -0.04295,-0.33073 -0.04295,-0.33073 0.03135,-0.48242 0.03135,-0.48242 0.463021,0.0951 0.463021,0.0951 -0.07774,0.45343 -0.07775,0.45343 h 0.131864 0.131864 l 0.648295,-0.59532 0.648296,-0.59531 0.422064,-0.34116 0.422064,-0.34116 v -0.40206 -0.40206 l -0.264583,0.16352 -0.264583,0.16353 v -0.2802 -0.2802 l 0.330729,-0.004 0.330729,-0.004 -0.316763,-0.20137 -0.316762,-0.20137 0.246565,-0.38989 0.246565,-0.3899 0.0041,0.46303 0.0041,0.46302 0.463021,0.004 0.463021,0.004 -0.379862,0.24037 -0.379861,0.24036 0.346112,0.41704 0.346113,0.41704 h 0.339708 0.339708 l -0.125726,-0.59531 -0.125725,-0.59531 0.295934,0.46302 0.295935,0.46302 h 0.243132 0.243133 l -0.153166,-0.39914 -0.153165,-0.39915 0.62449,0.24143 0.62449,0.24142 -0.06297,0.28049 -0.06297,0.28049 0.446469,-0.17133 0.44647,-0.17132 -0.342866,-0.11429 -0.342865,-0.11429 0.835593,-0.7632 0.835594,-0.76319 h 0.322136 0.322136 l 0.381402,-0.52917 0.381402,-0.52917 h 0.735341 0.73534 v 0.26459 0.26458 h 0.236276 0.236276 l 0.126541,-0.33073 0.12654,-0.33073 -0.958129,-0.0707 -0.958129,-0.0707 -0.08819,-0.26 -0.08819,-0.26001 H 87.5859 87.343365 v 0.50086 0.50086 l -0.441118,0.16927 -0.441118,0.16928 -0.273257,-0.27326 -0.273257,-0.27326 h 0.28081 0.280809 l -0.126445,-0.66146 -0.126446,-0.66145 h -0.120346 -0.120346 l -0.377976,0.37797 -0.377977,0.37798 v 0.28348 0.28348 H 84.9465 84.666302 l 0.188787,-0.30546 0.188787,-0.30546 -0.305464,0.18878 -0.305464,0.18879 v 0.24897 0.24897 h 0.48507 0.485069 l 0.147613,0.14761 0.147612,0.14761 -0.133596,0.51087 -0.133595,0.51087 -0.275384,-0.17019 -0.275383,-0.1702 0.188787,0.30546 0.188787,0.30547 h -0.828264 -0.828263 l -0.412092,-0.41209 -0.412091,-0.4121 -0.414071,0.1589 -0.414072,0.15889 0.489194,-0.54055 0.489194,-0.54055 h 0.355868 0.355867 v -0.21558 -0.21558 l 0.940146,-0.44833 0.940145,-0.44832 -0.174823,-0.28287 -0.174824,-0.28287 0.862099,0.0869 0.862099,0.0869 0.128473,-0.37289 0.128473,-0.37289 -0.446719,0.17143 -0.446719,0.17142 0.165985,-0.26857 0.165985,-0.26857 0.310778,0.0384 0.310777,0.0384 0.62771,-0.0314 0.627709,-0.0314 -0.363126,-0.44766 -0.363126,-0.44766 0.314956,0.18894 0.314957,0.18895 0.48937,-0.52528 0.48937,-0.52527 0.03913,0.51941 0.03913,0.51941 h -0.24814 -0.24814 l 0.529167,0.52916 0.529166,0.52917 h 0.496094 0.496094 l 0.822528,0.16451 0.822529,0.1645 -0.128856,0.20849 -0.128856,0.2085 0.158008,0.41176 0.158007,0.41176 0.912869,-0.0343 0.912868,-0.0343 -0.308516,-0.19067 -0.308516,-0.19068 0.09839,-0.24332 0.0984,-0.24333 0.661458,0.34112 0.661459,0.34112 -0.396875,0.0133 -0.396875,0.0133 0.578851,0.32185 0.578852,0.32185 -1.234352,0.0478 -1.234351,0.0478 -0.0947,0.2841 -0.0947,0.28411 -0.308131,-0.18473 -0.308131,-0.18473 0.350074,0.43194 0.350073,0.43194 0.420934,-0.16153 0.420934,-0.16153 -0.19131,0.30955 -0.19131,0.30954 -0.447406,0.004 -0.447406,0.004 0.396875,0.25648 0.396875,0.25648 0.20411,0.004 0.20411,0.004 0.30138,-0.66146 0.301381,-0.66146 h 0.519094 0.519094 l -0.294685,0.35508 -0.294684,0.35507 0.174093,0.17409 0.174093,0.1741 h -0.481979 -0.481979 l 0.438459,0.48449 0.438459,0.48449 -0.164104,0.16411 -0.164105,0.1641 -0.82866,-0.12868 -0.82866,-0.12868 1.190625,0.52363 1.190625,0.52364 -0.513591,0.0148 -0.51359,0.0148 0.487703,0.35662 0.487702,0.35662 -0.595883,0.59588 -0.595883,0.59588 0.231201,0.2312 0.231202,0.23121 0.985882,-0.15999 0.985882,-0.15999 v -0.22996 -0.22997 h 0.388571 0.388571 l -0.161089,0.41979 -0.161089,0.4198 0.500122,-0.0534 0.500122,-0.0534 0.330729,0.0305 0.330729,0.0305 v 0.2802 0.2802 l -0.246301,-0.15222 -0.246301,-0.15223 -0.145182,0.23491 -0.145182,0.23491 1.780546,0.0739 1.780545,0.0739 1.05833,0.02 1.05834,0.02 -0.0658,-0.60447 -0.0657,-0.60447 0.27157,0.16784 0.27158,0.16785 -0.0474,-1.45172 -0.0474,-1.45172 -0.32268,0.12383 -0.32269,0.12382 -0.15641,-0.40762 -0.15642,-0.40762 -0.45283,0.17377 -0.45282,0.17376 0.14192,-0.37666 0.14191,-0.37667 0.19695,-0.62844 0.19694,-0.62845 -0.29292,0.18104 -0.29293,0.18104 v 0.56647 0.56647 l -0.30028,-0.30028 -0.30027,-0.30027 0.55414,-1.06314 0.55414,-1.06314 -0.38616,0.14818 -0.38616,0.14818 v -0.29289 -0.29289 l -0.59531,-0.0239 -0.59531,-0.0239 0.85989,-0.24829 0.8599,-0.24829 v -0.25702 -0.25701 h -0.22789 -0.2279 l 0.13473,-0.70478 0.13473,-0.70478 -0.41411,0.1589 -0.4141,0.15891 -0.14588,-0.38017 -0.14589,-0.38017 h 0.38857 0.38857 v -0.52916 -0.52917 l -0.19843,0.0641 -0.19844,0.0641 -0.65419,-0.46096 -0.65418,-0.46097 h 0.33907 0.33907 l -0.16352,-0.26458 -0.16352,-0.26459 h 0.29581 0.29581 l -0.16396,-0.2653 -0.16396,-0.26529 -0.51311,0.2746 -0.51311,0.27461 v -0.37678 -0.37679 l 0.33073,0.0368 0.33072,0.0367 0.0435,-0.23501 0.0435,-0.235 0.35333,-0.25298 0.35333,-0.25297 -0.44368,0.14152 -0.44367,0.14152 -0.32136,-0.3872 -0.321347,-0.38721 0.500447,0.17395 0.50044,0.17394 -0.52916,-0.42406 -0.529172,-0.42405 -0.396875,-0.0125 -0.396875,-0.0125 0.365688,-0.23161 0.365688,-0.23161 -0.561758,-0.17829 -0.561758,-0.1783 -0.307831,0.19025 -0.307831,0.19025 0.177014,-0.28641 0.177014,-0.28642 -0.533009,-0.16917 -0.533008,-0.16917 -0.529167,0.16796 -0.529167,0.16795 v -0.24198 -0.24199 l 0.595313,-0.30181 0.595312,-0.30182 -0.529166,0.0456 -0.529167,0.0456 -0.872541,-0.20489 -0.87254,-0.2049 0.309625,-0.37307 0.309625,-0.37308 h -0.305285 -0.305284 l -0.152295,0.39688 -0.152295,0.39687 h -0.400964 -0.400965 l 0.329377,0.39688 0.329377,0.39687 h 0.443853 0.443854 l 0.311204,0.3112 0.311205,0.31121 -0.290685,0.35025 -0.290685,0.35026 -0.430624,0.0209 -0.430624,0.0209 0.330729,0.13346 0.33073,0.13345 -0.0088,0.44097 -0.0088,0.44097 -0.515706,-0.61887 -0.515705,-0.61887 0.392216,-0.39221 0.392216,-0.39222 v -0.13032 -0.13032 l -0.851326,0.0831 -0.851325,0.0831 -0.353737,-0.72761 -0.353736,-0.7276 h -0.267976 -0.267976 l 0.167951,0.52916 0.167951,0.52917 -0.613142,0.0307 -0.613142,0.0307 0.463021,0.121 0.463021,0.121 v 0.24519 0.24518 l 0.46302,0.0209 0.463021,0.0209 -0.339625,0.13641 -0.339625,0.13642 -0.35979,-0.2986 -0.359791,-0.2986 -0.821939,-0.10402 -0.821938,-0.10402 v 0.24531 0.24532 l -0.463021,0.004 -0.463021,0.004 0.339691,0.21554 0.33969,0.21554 -0.187519,0.48867 -0.18752,0.48867 -0.202898,-0.50982 -0.202898,-0.50982 -0.179658,0.59947 -0.179658,0.59948 -0.659933,-0.71208 -0.659933,-0.71208 -0.432599,-0.0319 -0.432598,-0.0319 -0.06615,-0.18626 -0.06615,-0.18625 v -0.26459 -0.26458 l 0.463021,-0.0264 0.463021,-0.0264 -0.661458,-0.19619 -0.661459,-0.19619 -0.330729,0.25496 -0.330729,0.25496 v -0.17584 -0.17584 l -1.141409,0.66891 -1.14141,0.66891 -0.329474,-0.32703 -0.329474,-0.32702 0.175418,0.46079 0.175419,0.46079 -0.427696,0.16412 -0.427696,0.16412 -0.405232,-0.33631 -0.405233,-0.33631 -0.403128,0.57554 -0.403128,0.57555 -0.871684,-0.0961 -0.871683,-0.0961 -0.624416,-0.43736 -0.624417,-0.43736 h 0.761337 0.761337 l -0.437882,-0.48385 -0.437882,-0.48386 v -0.39243 -0.39243 l 0.727604,-0.53636 0.727604,-0.53637 1.058333,-0.48187 1.058334,-0.48187 0.800489,-0.74563 0.800489,-0.74564 2.771386,-0.29127 2.771386,-0.29126 0.570083,-0.27479 0.570084,-0.27478 0.339884,0.21006 0.339883,0.21006 1.603575,0.0485 1.603574,0.0485 -0.638204,-0.11909 -0.638204,-0.11909 0.346004,-0.21384 0.346004,-0.21384 -0.766134,-0.37687 -0.766133,-0.37688 -0.529166,0.0998 -0.529167,0.0998 0.38946,-0.26457 0.38946,-0.26458 -0.38946,-0.13055 -0.38946,-0.13055 -1.165908,-0.14628 -1.165908,-0.14628 -0.396111,0.32875 -0.396111,0.32874 -0.02548,-0.0847 -0.02548,-0.0847 -0.744828,0.28318 -0.744829,0.28318 H 85.05201 84.647173 l -1.407325,0.77235 -1.407325,0.77235 -0.139291,-0.13929 -0.139291,-0.13929 -1.465315,0.83837 -1.465315,0.83837 -0.155834,0.25214 -0.155834,0.25215 -1.025489,0.52316 -1.025489,0.52317 -0.901517,0.92826 -0.901516,0.92826 h -0.48039 -0.480391 l 0.176967,0.17697 0.176966,0.17697 -0.432813,0.47825 -0.432813,0.47825 -0.226192,-0.13979 -0.226192,-0.1398 0.151402,0.39455 0.151402,0.39455 -0.570417,0.3468 -0.570416,0.3468 -0.377766,0.8922 -0.377766,0.89221 0.0084,0.16613 0.0084,0.16612 0.36306,-0.47885 0.36306,-0.47886 0.184187,0.29802 0.184186,0.29802 -0.396653,0.31313 -0.396653,0.31313 -0.169771,0.57304 -0.16977,0.57305 0.275345,0.17017 0.275346,0.17017 -0.0041,0.31512 -0.0041,0.31511 -0.25648,-0.39687 -0.25648,-0.39688 -0.0041,0.41537 -0.0041,0.41537 -0.795406,0.89091 -0.795405,0.89091 0.332384,0.21102 0.332385,0.21103 -0.309707,0.004 -0.309706,0.004 -0.172903,0.78722 -0.172903,0.78722 -0.288835,-0.0596 -0.288835,-0.0596 -0.209028,0.92604 -0.209029,0.92604 -0.06579,0.8599 -0.06579,0.85989 H 67.750466 67.58051 l 0.0643,0.95962 0.0643,0.95961 0.358171,0.22696 0.358172,0.22696 -0.359037,0.004 -0.359036,0.004 0.152295,0.39688 0.152295,0.39687 h -0.288676 -0.288676 l 0.323566,0.38988 0.323566,0.38987 0.902378,0.16929 0.902378,0.16928 0.144984,0.23459 0.144984,0.23459 h 0.725219 0.725218 l 0.347238,0.33073 0.347238,0.33073 -0.165863,-0.55121 -0.165864,-0.55122 h 0.389323 0.389323 l 0.135374,0.35278 0.135373,0.35278 h 0.22775 0.22775 l -0.02101,-0.58706 -0.02101,-0.58705 0.529167,-0.0592 0.529167,-0.0592 -0.463021,0.1365 -0.463021,0.1365 v 0.26302 0.26301 l 0.529167,-0.16795 0.529166,-0.16795 v 0.4147 0.41471 h -0.396875 -0.396875 v 0.26458 0.26458 h 0.205712 0.205712 z m -3.579149,-3.49467 v -0.41249 l 0.253821,0.15687 0.253821,0.15687 0.518444,-0.32377 0.518445,-0.32378 0.418359,0.34721 0.41836,0.34721 v 0.23218 0.23219 h -0.383728 -0.383728 l -0.269685,-0.46302 -0.269685,-0.46302 -0.008,0.46302 -0.008,0.46302 H 71.73296 71.203793 Z m 26.789062,-1.61478 -0.859896,-0.96608 v -0.4877 -0.4877 l 0.463021,0.0209 0.463021,0.0209 -0.323878,0.13116 -0.323878,0.13117 0.417069,0.63653 0.417069,0.63653 0.484727,-0.25942 0.484728,-0.25942 0.215831,0.008 0.215832,0.008 -0.427606,0.24987 -0.427606,0.24987 0.127721,0.66813 0.127721,0.66813 -0.09699,-0.001 -0.09699,-0.001 z m -18.93006,-1.55292 -0.475373,-0.65314 0.21079,0.008 0.210789,0.008 0.463021,0.35148 0.463021,0.35148 v 0.30156 0.30156 l -0.198438,-0.008 -0.198437,-0.008 z m -2.181467,-0.14179 -0.174528,-0.28239 0.555788,-0.14534 0.555788,-0.14534 v -0.20287 -0.20286 l 0.595313,-0.14999 0.595312,-0.14999 -0.458908,0.34373 -0.458908,0.34373 0.172276,0.17227 0.172276,0.17228 -0.639409,0.0264 -0.63941,0.0264 0.661458,0.21183 0.661458,0.21184 -0.711989,0.0264 -0.711989,0.0264 z m 18.783545,-0.49052 0.148467,-0.24022 -0.332378,-0.15245 -0.332378,-0.15245 0.595313,0.14768 0.595312,0.14768 v -0.28241 -0.28241 h 0.529167 0.529167 l 0.0041,0.33073 0.0041,0.33072 0.201369,-0.31676 0.201369,-0.31676 0.34593,0.2138 0.34593,0.21379 -0.452594,0.17368 -0.452595,0.17368 -0.36334,-0.30155 -0.363339,-0.30154 -0.03133,0.23083 -0.03133,0.23083 0.01261,0.14228 0.01261,0.14228 -0.657265,0.0544 -0.657265,0.0544 z m -17.561025,-2.71076 -0.02089,-0.44098 0.33073,-0.13345 0.330729,-0.13345 -0.410104,-0.0209 -0.410105,-0.0209 -0.350572,0.33073 -0.350573,0.33073 0.121488,-0.39687 0.121489,-0.39688 0.946769,-0.0275 0.946769,-0.0275 -0.137451,0.35819 -0.13745,0.35819 h -0.346519 -0.346519 l -0.133452,0.33073 -0.133452,0.33073 z m 4.372351,-1.47879 0.556781,-0.5426 0.704258,0.0406 0.704259,0.0406 -0.451714,0.33073 -0.451713,0.33073 h -0.324666 -0.324665 l -0.484661,0.17131 -0.48466,0.17132 z m -10.388526,-2.82828 0.174453,-0.45462 v -0.24294 -0.24294 l 0.463021,0.004 0.463021,0.004 -0.264583,0.19439 -0.264584,0.19438 v 0.37483 0.37482 l -0.37289,0.1243 -0.372891,0.1243 z m 4.438479,-1.40352 -0.03069,-0.33073 h -0.396875 -0.396875 v -0.26459 -0.26458 h 1.192868 1.192867 l -0.319783,0.51205 -0.319782,0.51206 -0.239874,-0.14826 -0.239874,-0.14825 0.358977,-0.22745 0.358976,-0.22746 -0.44362,-0.004 -0.44362,-0.004 -0.121,0.46302 -0.121,0.46303 z m 15.565254,-1.80338 -0.244036,-0.29404 0.856857,0.0339 0.856857,0.0339 0.454972,0.2601 0.454972,0.26011 h -1.067793 -1.067793 z m -10.77578,16.45209 0.189959,-0.29507 -0.216026,-0.0748 -0.216026,-0.0748 -0.717458,0.27278 -0.717458,0.27278 0.17048,0.27584 0.170479,0.27584 0.573046,-0.17872 0.573046,-0.17871 z m -20.430583,-0.55965 0.329377,-0.39688 h -0.693855 -0.693855 v 0.22049 0.22049 l 0.176389,0.17638 0.176389,0.17639 h 0.188089 0.188089 z m 18.123958,-0.8158 v -0.50712 l -0.727604,-0.0267 -0.727604,-0.0267 v 0.13816 0.13816 l 0.443708,0.49029 0.443708,0.49029 0.283896,-0.0946 0.283896,-0.0946 z m 6.813021,0.1747 0.198437,-0.0204 v -0.26458 -0.26459 h -1.058333 -1.058333 l -2e-5,0.33073 -1.9e-5,0.33073 0.859915,-0.0458 0.859915,-0.0458 z m -0.08006,-1.8063 0.275544,-0.99219 0.0015,-0.17366 0.0015,-0.17367 -0.529166,0.13838 -0.529167,0.13838 v -0.29544 -0.29544 h -0.396875 -0.396875 v 0.28019 0.2802 l -0.280416,-0.1733 -0.280416,-0.17331 0.478853,-0.37212 0.478854,-0.37213 -0.436258,0.15098 -0.436258,0.15098 -0.174669,-0.28262 -0.17467,-0.28262 h -0.396875 -0.396875 l 0.18104,0.29293 0.181041,0.29292 -0.556962,-0.17677 -0.556961,-0.17677 -0.46836,0.27267 -0.46836,0.27268 1.256771,0.008 1.256771,0.008 v 0.23627 0.23628 l -0.441867,0.16956 -0.441868,0.16956 -0.215539,-0.33969 -0.21554,-0.33969 -0.0041,0.3555 -0.0041,0.3555 0.529167,0.13838 0.529167,0.13838 v 0.23372 0.23373 h 0.396875 0.396875 v 0.27311 0.2731 l 0.595312,0.23929 0.595313,0.23929 0.186001,0.0168 0.186001,0.0168 z m 1.072245,-1.82105 v -0.1674 l -0.56965,-0.49405 -0.569651,-0.49406 H 85.483113 85.29141 l -0.329377,0.39687 -0.329377,0.39688 0.429272,0.0331 0.429272,0.0331 0.242534,0.0331 0.242535,0.0331 0.198438,0.19844 0.198437,0.19844 h 0.220486 0.220486 z m 1.646372,-5.65343 h 0.470295 v -0.26458 -0.26458 l -0.595313,0.008 -0.595312,0.008 -0.513202,0.70329 -0.513202,0.7033 0.638219,-0.44703 0.63822,-0.44703 z m 16.345292,-1.86769 v -0.2802 l 0.29293,0.18104 0.29293,0.18104 -0.14807,-0.49616 -0.14807,-0.49615 -0.17354,-0.72761 -0.17354,-0.7276 h -0.19504 -0.19504 l 0.0331,0.59531 0.0331,0.59532 0.20621,0.33072 0.20622,0.33073 h -0.2361 -0.2361 v 0.39688 0.39687 h 0.22049 0.22048 z m -16.466197,-5.39189 0.05338,-0.645 -0.519502,-0.16489 -0.519502,-0.16488 -0.46836,0.27267 -0.46836,0.27268 0.460779,0.008 0.460779,0.008 0.33047,0.52916 0.33047,0.52917 h 0.143231 0.143231 z m 0.701412,-1.03692 -0.166827,-0.43475 h -0.251891 -0.251891 l 0.136268,-0.22048 0.136268,-0.22049 h -0.332253 -0.332254 l -0.03654,0.48507 -0.03654,0.48507 h 0.512723 0.512723 v 0.30868 0.30868 l 0.13852,-0.13852 0.138519,-0.13852 z m 4.123121,-2.39081 v -0.36857 l -0.396875,-0.1523 -0.396875,-0.15229 -0.427921,0.16421 -0.427922,0.16421 0.626359,0.34727 0.626359,0.34728 0.198438,0.009 0.198437,0.009 z"
       id="path9" /></g></svg>
