<?xml version="1.0" encoding="UTF-8" standalone="no"?>
<!-- Created with Inkscape (http://www.inkscape.org/) -->

<svg
   width="101.59999mm"
   height="84.666672mm"
   viewBox="0 0 101.59999 84.666672"
   version="1.1"
   id="svg1"
   xml:space="preserve"
   xmlns="http://www.w3.org/2000/svg"
   xmlns:svg="http://www.w3.org/2000/svg"><defs
     id="defs1" /><g
     id="layer1"
     transform="translate(-41.570371,-52.478175)"><path
       style="fill:#ffffff;fill-opacity:1"
       d="m 41.570372,94.811518 v -42.33334 h 50.799999 50.799999 v 42.33334 42.333322 H 92.370371 41.570372 Z m 47.763866,38.888282 0.3903,-0.32392 v -0.49221 -0.49221 l -2.079989,0.0894 -2.079989,0.0894 -0.301261,0.18619 -0.301261,0.18619 v 0.24052 0.24052 l 0.727604,0.38384 0.727604,0.38385 1.263347,-0.0839 1.263346,-0.0839 z m 10.576758,-2.11715 5.556254,-0.26973 4.25,-0.3976 4.25001,-0.39761 2.36457,-0.37803 2.36458,-0.37802 3.175,-0.65161 3.175,-0.65161 2.17222,-0.69204 2.17221,-0.69205 0.77267,-0.65016 0.77267,-0.65016 0.13913,-0.53204 0.13913,-0.53204 -0.20864,-0.12895 -0.20865,-0.12895 -0.66814,0.52557 -0.66815,0.52556 -0.22285,-0.004 -0.22285,-0.004 0.39688,-0.25648 0.39687,-0.25648 -1.0078,-0.004 -1.0078,-0.004 0.16222,0.26249 0.16223,0.26249 -0.27467,0.46511 -0.27468,0.46512 -0.16738,-0.59531 -0.16738,-0.59532 h -0.7912 -0.79119 l 0.13992,-0.36463 0.13992,-0.36463 -0.21181,-0.23068 -0.21182,-0.23068 -0.17061,-0.96149 -0.17062,-0.96149 0.37316,-0.14319 0.37316,-0.1432 -0.1332,0.50937 -0.13321,0.50937 h 0.42774 0.42773 v -0.39687 -0.39688 h 0.26458 0.26459 v 0.26459 0.26458 h 0.66146 0.66145 v -0.23077 -0.23076 l -1.0861,-0.17389 -1.08611,-0.17367 -0.76598,-0.39611 -0.76597,-0.3961 v -0.39008 -0.39008 h -0.24407 -0.24406 l -0.31785,-0.96308 -0.31784,-0.96308 0.16849,-1.61661 0.1685,-1.6166 0.39027,-1.45521 0.39028,-1.45521 0.003,-1.30586 0.003,-1.30587 -0.5621,-0.59833 -0.56211,-0.59833 0.42981,-0.42981 0.42981,-0.4298 v -0.291 -0.291 l -0.43174,-0.47707 -0.43175,-0.47707 0.43175,-0.65893 0.43174,-0.65893 v -0.9185 -0.91849 l -0.66111,-2.72884 -0.66112,-2.728832 -3.4e-4,-0.97497 -3.4e-4,-0.97496 0.2845,-0.74483 0.28451,-0.74483 -0.006,-1.51144 -0.006,-1.51145 -0.17688,-0.94283 -0.17688,-0.94284 -0.29999,0.24782 -0.29999,0.24781 -1.60004,0.41388 -1.60003,0.41388 -1.94381,0.27569 -1.94381,0.27568 -0.36109,-0.51552 -0.36108,-0.51552 -0.59299,-0.11436 -0.59298,-0.11436 0.71163,-0.036 0.71163,-0.036 0.0821,-0.99218 0.0821,-0.99219 -0.31975,-2.24896 -0.31974,-2.24896 -1.06376,-2.86664 -1.06375,-2.86665 -0.91842,-1.49898 -0.91842,-1.49898 -1.88097,-2.11666 -1.88098,-2.11667 -1.24107,-2.22507 -1.24106,-2.22506 -1.98438,-2.01918 -1.98437,-2.01919 -1.665686,-0.97715 -1.665686,-0.97715 -1.641606,-0.44986 -1.641606,-0.44987 -2.248958,0.018 -2.248958,0.018 -1.289172,0.44924 -1.289171,0.44924 -1.829546,1.09584 -1.829546,1.09585 -1.697578,1.72693 -1.697579,1.72693 -0.581184,0.75362 -0.581183,0.75362 0.305784,0.18899 0.305785,0.18898 -1.126014,0.61827 -1.126013,0.61826 -1.257383,0.88653 -1.257383,0.88653 h -0.233635 -0.233635 l -1.567424,1.67558 -1.567424,1.67558 -0.347095,0.83796 -0.347094,0.83796 h -0.218469 -0.218469 l -1.20464,2.52653 -1.20464,2.52654 v 0.33096 0.33097 l -0.225577,0.25135 -0.225577,0.25136 -0.301979,1.19062 -0.301978,1.19063 -0.06776,1.78453 -0.06776,1.78454 -0.264584,0.01 -0.264583,0.01 0.474072,0.35956 0.474071,0.35956 -1.003238,0.28758 -1.003238,0.28758 0.707352,-0.0858 0.707353,-0.0858 0.14893,0.55475 0.148931,0.55475 0.0036,0.8682 0.0036,0.8682 -0.397152,0.1524 -0.397152,0.1524 -3.169373,-0.43154 -3.169373,-0.43154 -0.46837,-0.17558 -0.468371,-0.17558 0.363126,0.44642 0.363126,0.44641 h -0.262362 -0.262361 l -0.15104,0.93075 -0.15104,0.93075 0.507298,1.47449 0.507297,1.47448 -0.279516,2.02654 -0.279517,2.026532 -0.338753,1.46253 -0.338754,1.46252 0.123883,0.84407 0.123883,0.84407 0.351181,0.29145 0.351182,0.29146 0.528685,-0.28295 0.528685,-0.28294 h 0.165301 0.165301 l -0.164677,0.26645 -0.164676,0.26645 0.404253,0.15513 0.404254,0.15513 0.788254,-0.56129 0.788254,-0.56128 -0.3849,-1.24936 -0.384901,-1.24935 -0.256943,-3.258772 -0.256944,-3.25876 -0.138667,-0.22437 -0.138668,-0.22437 0.332378,-0.13474 0.332378,-0.13475 -0.396875,-0.28067 -0.396875,-0.28068 0.287859,-0.004 0.287858,-0.004 0.03622,-0.96349 0.03622,-0.96349 0.07691,-0.0769 0.07691,-0.0769 2.112552,0.24874 2.112552,0.24874 0.551215,0.12417 0.551216,0.12418 0.02739,0.33676 0.02739,0.33675 0.09942,0.67265 0.09942,0.67265 0.199667,0.32307 0.199666,0.32307 0.02247,0.79022 0.02247,0.79022 h 0.268417 0.268416 l -0.174094,0.17409 -0.174093,0.17409 0.234093,0.28893 0.234092,0.28893 0.557362,1.00023 0.557362,1.000242 v 0.35159 0.35159 l 0.923474,1.16172 0.923473,1.16171 0.0026,0.20073 0.0026,0.20073 0.726311,0.8576 0.726311,0.85761 1.566027,1.53699 1.566027,1.537 0.7889,0.40795 0.788899,0.40796 -0.360293,0.22267 -0.360293,0.22268 0.735863,0.27977 0.735863,0.27977 h 0.511943 0.511942 v 0.23628 0.23628 l 0.366928,0.1408 0.366928,0.1408 -0.134231,-0.5133 -0.134232,-0.5133 0.459542,0.17634 0.459542,0.17634 -0.311478,-0.582 -0.311477,-0.582 -0.579198,0.14257 -0.579199,0.14256 0.349289,-0.15808 0.349289,-0.15809 -0.536644,-0.37588 -0.536644,-0.37588 0.149517,-0.38963 0.149516,-0.38964 h 0.368568 0.368568 v -0.42061 -0.42061 l 0.595312,-0.49663 0.595312,-0.49663 0.495418,-0.009 0.495418,-0.009 -0.350366,-0.46302 -0.350365,-0.46302 0.370885,0.33073 0.370885,0.33073 h 0.47625 0.47625 l 0.0041,-0.33073 0.0041,-0.33073 0.240367,0.37986 0.240366,0.37986 0.394935,-0.32777 0.394934,-0.32776 0.123706,0.47707 0.123705,0.47707 0.03474,-0.79375 0.03474,-0.79375 0.256481,0.39688 0.25648,0.39687 0.0041,0.46302 0.0041,0.46302 -0.463021,0.0209 -0.463021,0.0209 0.33073,0.13345 0.330729,0.13346 v 1.29407 1.29407 l 0.727604,0.37468 0.727604,0.37468 0.341161,-0.36789 0.341161,-0.36788 h 0.635411 0.635412 l 0.163522,0.26458 0.163521,0.26458 h -0.271894 -0.271894 l 0.151816,0.39563 0.151817,0.39563 -1.218454,-0.16701 -1.218454,-0.167 v 0.43283 0.43284 H 84.829975 84.4331 v 0.51355 0.51355 l 0.309163,0.19108 0.309162,0.19107 1.340798,0.10749 1.340797,0.10749 0.135978,0.151 0.135977,0.151 -1.386582,-0.15661 -1.386582,-0.1566 -0.276373,0.51641 -0.276373,0.5164 h -0.353098 -0.353098 l -1.592423,-0.50871 -1.592424,-0.50872 -1.021732,-0.50541 -1.021731,-0.50542 -1.272505,-0.72294 -1.272504,-0.72295 0.449468,0.87718 0.449469,0.87718 1.83374,2.11667 1.83374,2.11667 1.744588,1.12448 1.744587,1.12447 h 0.184581 0.18458 l -0.09215,-0.7276 -0.09214,-0.7276 0.652965,2.51354 0.652965,2.51354 0.001,0.66146 0.001,0.66146 -0.326713,1.08131 -0.326713,1.0813 -0.340492,-0.11442 -0.340492,-0.11442 0.121762,0.67147 0.121762,0.67148 -0.310436,0.14757 -0.310437,0.14758 0.360668,0.16432 0.360667,0.16432 -0.301549,0.18637 -0.301549,0.18637 -0.05912,0.83643 -0.05912,0.83643 -0.342139,0.13187 -0.342139,0.13187 0.275993,0.5157 0.275993,0.5157 v 0.14672 0.14672 l -0.595312,0.0272 -0.595313,0.0272 -4.630208,-0.0421 -4.630208,-0.0421 -3.704167,-0.38178 -3.704166,-0.38178 -1.385234,-0.21385 -1.385235,-0.21385 -0.166711,-0.16672 -0.166711,-0.16671 0.295951,-0.84896 0.295951,-0.84897 -0.484631,0.43859 -0.484631,0.43858 h -0.193218 -0.193219 l 0.163521,-0.26458 0.163522,-0.26459 -0.478636,-0.0277 -0.478636,-0.0277 1.058333,-0.33742 1.058334,-0.33742 -0.06972,-0.30702 -0.06972,-0.30701 0.249694,-0.46656 0.249695,-0.46656 -0.24207,-0.38262 -0.242071,-0.38261 -0.04435,0.39687 -0.04435,0.39688 -0.05142,0.26458 -0.05142,0.26458 -0.200589,0.4615 -0.200589,0.46151 -0.237575,-0.14683 -0.237574,-0.14683 0.277534,-0.51858 0.277534,-0.51858 -0.160142,-0.25911 -0.160142,-0.25912 h -0.550529 -0.550529 l -0.351483,0.46302 -0.351483,0.46302 -0.0084,-0.46302 -0.0084,-0.46302 h -0.283482 -0.283482 l 0.396875,-0.39687 0.396874,-0.39688 h 0.166806 0.166805 l -0.163521,0.26458 -0.163522,0.26459 0.346344,-0.004 0.346344,-0.004 0.595313,-0.15954 0.595312,-0.15953 0.0041,-0.56446 0.0041,-0.56445 0.243074,0.38424 0.243074,0.38424 -0.130449,0.21107 -0.130448,0.21107 h 0.314817 0.314817 l -0.163999,-0.99218 -0.163998,-0.99219 -0.0027,-0.26458 -0.0027,-0.26459 -1.389227,0.0517 -1.389227,0.0517 1.317116,-0.26634 1.317116,-0.26635 0.07817,-0.0782 0.07817,-0.0782 -0.166827,-0.43474 -0.166827,-0.43475 h -0.79784 -0.797839 l 0.329377,-0.39687 0.329377,-0.39688 h -0.29698 -0.29698 v -0.26458 -0.26458 h 0.273109 0.273109 l 0.251748,0.59531 0.251747,0.59531 -0.161494,-1.05833 -0.161494,-1.05833 -0.363363,-0.41771 -0.363362,-0.41771 0.0015,-1.0375 0.0015,-1.0375 0.29935,-1.5875 0.29935,-1.5875 0.003,-0.7021 0.003,-0.70211 -0.569785,-0.72436 -0.569784,-0.72436 0.295736,-0.35634 0.295737,-0.35634 -0.360528,-0.11993 -0.360528,-0.11994 -0.529166,-0.11709 -0.529167,-0.11709 0.661458,-0.0347 0.661459,-0.0347 0.367268,-0.23259 0.367269,-0.23258 -0.367269,-0.434 -0.367268,-0.43401 -0.349628,-0.38769 -0.349628,-0.38769 h -0.677671 -0.677671 l -0.494055,0.56965 -0.494056,0.56965 v 0.0702 0.0702 l 0.1606,0.41851 0.160599,0.41852 0.699296,0.0168 0.699297,0.0168 -0.595312,0.23929 -0.595313,0.23928 v 0.37301 0.373 l -0.396875,0.32938 -0.396875,0.32938 v 1.09382 1.09383 l 0.270326,0.9243 0.270326,0.92429 0.366829,2.0851 0.366829,2.08509 -0.650621,2.14824 -0.65062,2.14824 -0.108499,0.79375 -0.108498,0.79375 0.367318,2.11385 0.367318,2.11384 -0.04974,0.0497 -0.04973,0.0497 -1.981556,-0.34697 -1.981556,-0.34697 -1.058333,-0.45986 -1.058333,-0.45985 -0.463021,-0.23452 -0.463021,-0.23453 v 0.24331 0.2433 l 0.809862,0.68146 0.809862,0.68145 2.298992,0.67688 2.298992,0.67688 0.79375,0.23436 0.79375,0.23436 2.645833,0.39973 2.645834,0.39974 3.042708,0.30294 3.042708,0.30294 3.571875,0.2019 3.571875,0.20191 8.334375,0.0394 8.334375,0.0394 z m -8.874286,-0.88674 -0.132688,-0.13269 0.06043,-2.99304 0.06043,-2.99304 0.04172,-0.79375 0.04172,-0.79375 0.183808,0.93867 0.183807,0.93867 -0.07643,1.31029 -0.07643,1.31028 0.135527,0.6101 0.135527,0.6101 1.115728,-0.0809 1.115727,-0.0809 -0.02524,-0.63469 -0.02524,-0.63468 0.355967,0.48682 0.355968,0.48681 0.03133,-0.24901 0.03133,-0.249 -0.03133,-0.19844 -0.03133,-0.19844 h 0.246753 0.246754 l 0.171492,0.54033 0.171493,0.54032 -0.176919,1.04718 -0.176919,1.04717 -0.175182,-0.004 -0.175181,-0.004 -0.264583,-0.19439 -0.264583,-0.19438 -0.264584,-0.48346 -0.264583,-0.48345 -0.198438,0.0204 -0.198437,0.0204 h -0.613456 -0.613456 l -0.383905,0.81063 -0.383905,0.81062 z m 6.080331,-0.85339 -0.297629,-0.76747 -0.285584,-1.69182 -0.285585,-1.69182 0.563773,-1.0863 0.563773,-1.08631 0.398637,-1.76324 0.398637,-1.76325 -0.378278,-1.41175 -0.378277,-1.41176 1.265901,-1.19062 1.265902,-1.19063 0.907389,-0.74121 0.90738,-0.74122 -0.39688,0.1856 -0.39687,0.18559 1.35378,-1.30752 1.35378,-1.30752 0.43895,-0.84884 0.43895,-0.84884 h 0.22796 0.22796 l 1.41889,-1.4317 1.4189,-1.4317 0.85528,-1.01569 0.85528,-1.01569 0.86451,-1.12245 0.86451,-1.12245 0.59531,-0.77148 0.59531,-0.77148 v -0.22775 -0.22775 l 0.75784,-1.847072 0.75783,-1.84707 0.21966,-0.52917 0.21965,-0.52917 0.27928,-1.7096 0.27929,-1.70961 2.11666,-0.32366 2.11667,-0.32366 0.7276,-0.14293 0.72761,-0.14293 v 0.63279 0.6328 l 0.33073,0.13345 0.33073,0.13345 -0.33073,0.0209 -0.33073,0.0209 v 0.24519 0.24518 l 0.46302,0.121 0.46302,0.121 -0.46302,0.0307 -0.46302,0.0307 v 0.79375 0.79375 h 0.25803 0.25804 l -0.25804,0.67868 -0.25803,0.67869 v 2.7571 2.757102 l -0.32632,1.22007 -0.32632,1.22007 0.85966,0.7681 0.85966,0.76811 h -0.53334 -0.53334 v 0.26458 0.26458 l 0.33073,0.0179 0.33073,0.0179 -0.59532,0.28711 -0.59531,0.28711 v 0.46245 0.46245 l 0.99219,0.26352 0.99219,0.26352 -0.57586,0.0273 -0.57585,0.0273 -0.67413,1.38907 -0.67414,1.38906 0.6626,2.24896 0.6626,2.24896 -0.10278,1.19062 -0.10278,1.19062 0.22377,0.78022 0.22377,0.78023 -0.29115,0.17994 -0.29114,0.17994 0.36067,0.14343 0.36067,0.14343 -0.59532,0.0209 -0.59531,0.0209 v 0.25144 0.25144 l 0.46302,0.26968 0.46302,0.26969 -0.66146,0.0121 -0.66145,0.0121 0.39687,0.25648 0.39688,0.25648 0.92604,0.0249 0.92604,0.0249 -0.34177,0.13713 -0.34178,0.13714 0.30803,0.37114 0.30802,0.37115 h -0.26867 -0.26867 l -0.13077,-0.34077 -0.13077,-0.34078 -0.62514,0.0274 -0.62515,0.0274 -0.0857,0.23693 -0.0857,0.23693 0.4826,0.21077 0.4826,0.21077 -0.85989,-0.0885 -0.8599,-0.0885 v 0.21876 0.21875 h 0.26458 0.26459 v 0.39688 0.39687 l -0.33073,0.0313 -0.33073,0.0314 -0.39688,-0.0379 -0.39687,-0.0379 0.46302,0.28432 0.46302,0.28432 v 1.32759 1.3276 l -0.49422,-0.15686 -0.49422,-0.15686 -0.6964,0.26478 -0.69641,0.26477 v 0.3911 0.39111 l -1.12448,-5.4e-4 -1.12448,-5.4e-4 -2.38125,0.01 -2.38125,0.01 -0.39687,0.26791 -0.39688,0.2679 0.37312,0.24025 0.37312,0.24025 -1.43145,0.15234 -1.43145,0.15233 -1.5875,0.13273 -1.5875,0.13273 -3.23254,0.17601 -3.232541,0.17601 z m -2.630003,-3.39769 v -0.64584 l -0.289499,-0.17892 -0.2895,-0.17892 0.118753,-0.62121 0.118753,-0.62122 -0.27373,-0.0912 -0.27373,-0.0912 0.219856,-0.5133 0.219856,-0.5133 0.06411,-0.29795 0.06411,-0.29795 0.181537,-0.82653 0.181537,-0.82653 h -0.294915 -0.294915 l 0.286128,-0.53464 0.286128,-0.53463 -0.160143,-0.25912 -0.160142,-0.25911 h -0.434176 -0.434177 l 0.286669,-0.28667 0.286669,-0.28667 1.419894,-0.64319 1.419893,-0.64319 -0.661458,0.5271 -0.661459,0.5271 -0.165901,0.006 -0.165902,0.006 -0.06487,3.50573 -0.06487,3.50573 -0.03381,0.85989 -0.03381,0.8599 h -0.198438 -0.198437 z m -3.556184,-5.1496 -0.179213,-0.28997 h -0.778135 -0.778135 v -0.40618 -0.40619 l 0.534635,0.28613 0.534634,0.28613 0.259116,-0.16014 0.259115,-0.16015 v -0.24896 -0.24897 h -0.809365 -0.809365 l 0.122719,-0.19844 0.122719,-0.19844 1.017375,0.0147 1.017375,0.0147 -0.08011,0.35791 -0.08011,0.35791 0.344695,0.21312 0.344696,0.21311 -0.431714,0.43183 -0.431714,0.43184 z m -0.280275,-5.44934 v -1.19063 h 0.198438 0.198437 v -0.26458 -0.26459 h -0.42061 -0.42061 l -0.496629,-0.59531 -0.496629,-0.59531 -0.0088,-0.30868 -0.0088,-0.30868 -0.330729,-0.13345 -0.330729,-0.13346 0.567005,-0.0209 0.567005,-0.0209 0.121624,-0.33073 0.121624,-0.33073 -0.115365,-0.33073 -0.115366,-0.33073 h -0.498814 -0.498814 l 0.144217,-0.37582 0.144216,-0.37582 -0.615541,-0.11732 -0.615541,-0.11731 0.850586,-0.036 0.850587,-0.036 0.273893,-0.51177 0.273892,-0.51178 v -0.79025 -0.79025 l -0.514814,-2.2037 -0.514814,-2.20371 -0.177418,-1.88359 -0.177419,-1.883602 0.299673,-0.1852 0.299674,-0.18521 -0.152223,-0.2463 -0.152222,-0.2463 h 0.22338 0.22338 l 0.06089,-1.45521 0.06089,-1.45521 -0.599388,-0.0209 -0.599389,-0.0209 0.33073,-0.13345 0.330729,-0.13346 v -0.50711 -0.50712 l 0.859896,0.0168 0.859895,0.0168 -0.661458,0.2737 -0.661458,0.2737 0.644185,0.24825 0.644185,0.24825 0.345305,-0.13251 0.345306,-0.13251 0.159897,0.63709 0.159897,0.63708 -0.16259,0.26307 -0.162591,0.26308 0.732994,-0.12613 0.732995,-0.12614 0.496154,-0.15025 0.496155,-0.15025 -0.18104,0.29293 -0.181041,0.29293 h -0.645843 -0.645843 v 0.29544 0.29544 l 0.529531,-0.13847 0.529532,-0.13848 -0.135896,0.21989 -0.135896,0.21988 0.46626,0.13329 0.46626,0.1333 -1.058333,-0.11611 -1.058333,-0.11612 0.495435,0.21612 0.495435,0.21611 -0.446159,0.44616 -0.446158,0.44616 0.173407,0.28058 0.173408,0.28058 0.306482,-0.11051 0.306483,-0.11051 0.463021,0.23814 0.463021,0.23814 v -0.43449 -0.43449 l -0.388402,0.14904 -0.388402,0.14905 -0.15638,-0.25303 -0.15638,-0.25303 h 0.544782 0.544782 l 0.198437,-0.003 0.198438,-0.003 0.03042,0.54093 0.03042,0.54093 0.204238,0.19006 0.204238,0.19007 0.118118,-0.33073 0.118117,-0.33073 h 0.415834 0.415833 l -0.445402,0.49216 -0.445402,0.492162 0.238071,0.63232 0.238072,0.63232 -0.127843,0.85684 -0.127842,0.85685 0.406,0.1558 0.406001,0.1558 -0.526493,0.52649 -0.526492,0.52649 -0.491367,0.037 -0.491366,0.037 0.244566,0.45698 0.244566,0.45697 -0.0041,0.21583 -0.0041,0.21584 -0.25648,-0.39688 -0.25648,-0.39687 v 0.39687 0.39688 l 0.194386,0.29063 0.194386,0.29063 0.590732,-0.0476 0.590733,-0.0476 -0.297707,0.35872 -0.297707,0.35871 0.104265,0.10427 0.104266,0.10426 0.489099,-0.35764 0.4891,-0.35764 -0.181053,-0.29295 -0.181053,-0.29294 -0.5069,0.16088 -0.5069,0.16088 v -0.35801 -0.358 h 0.529166 0.529167 v 0.1913 0.1913 l 1.124479,-0.0212 1.124479,-0.0212 -0.330729,-0.11655 -0.330729,-0.11656 v -0.25184 -0.25185 l 0.513109,0.27461 0.51311,0.27461 0.149997,-0.2427 0.149998,-0.2427 -0.332378,-0.12182 -0.332378,-0.12182 0.369545,-0.3638 0.369545,-0.3638 -0.186722,0.33073 -0.186723,0.33073 h 0.311057 0.311057 l -0.134526,-0.51443 -0.134527,-0.51443 0.800353,-0.17579 0.800356,-0.17579 -0.324954,-0.20083 -0.324951,-0.20083 0.692425,-0.17379 0.69243,-0.17379 -0.27972,-0.52266 -0.27972,-0.52266 h 0.3775 0.3775 l 0.16602,-0.66146 0.16601,-0.66146 h 0.42423 0.42423 l -0.36312,-0.447662 -0.36313,-0.44767 0.33073,0.1987 0.33073,0.1987 v -0.2802 -0.2802 l -0.46302,-0.0168 -0.46302,-0.0168 0.59531,-0.23929 0.59531,-0.23928 v -0.27311 -0.27311 h 0.34375 0.34375 l -0.10526,-0.90162 -0.10526,-0.90161 0.46205,-0.0906 0.46205,-0.0906 -0.71167,-0.84517 -0.71166,-0.84517 0.80168,0.39993 0.80169,0.39994 0.25973,0.44523 0.25973,0.44524 0.0418,-0.13229 0.0418,-0.1323 0.0624,-0.59531 0.0624,-0.59531 -0.2946,-0.008 -0.29461,-0.008 0.51359,-0.38846 0.51359,-0.38846 -0.3813,-0.004 -0.3813,-0.004 0.39688,-0.25648 0.39687,-0.25648 -0.26458,-0.0304 -0.26458,-0.0304 0.66146,-0.1864 0.66145,-0.1864 0.35966,0.35509 0.35966,0.35509 -0.12852,0.67229 -0.12851,0.67228 0.43031,0.15829 0.43032,0.15828 0.17142,0.25577 0.17141,0.25578 -0.27503,0.82186 -0.27502,0.82186 -0.35941,0.4177 -0.35941,0.41771 v 0.58279 0.58278 l -0.41902,0.16079 -0.41901,0.16079 -0.21118,0.558512 -0.21118,0.55851 0.2328,0.44465 0.23279,0.44464 -0.34138,0.34911 -0.34138,0.3491 -0.35165,0.8599 -0.35166,0.85989 h -0.23248 -0.23248 l 0.042,0.19844 0.042,0.19844 -0.19968,0.52916 -0.19968,0.52917 -0.10504,0.3475 -0.10504,0.3475 -0.20323,-0.1256 -0.20322,-0.1256 -0.4216,0.30828 -0.4216,0.30828 -0.20432,0.66045 -0.20432,0.66044 -0.3714,0.39687 -0.3714,0.39688 -0.52111,0.6358 -0.521124,0.63579 v 0.2241 0.2241 h -0.292891 -0.29289 l 0.16408,-0.46302 0.164081,-0.46302 -0.466502,0.54997 -0.466503,0.54997 -1.190625,0.91349 -1.190625,0.91349 -1.058333,0.56332 -1.058333,0.56332 -1.521355,0.43939 -1.521354,0.43939 v 1.17185 1.17185 h -0.198437 -0.198438 z m 2.655794,-10.2526 0.179697,-0.72761 h -0.293266 -0.293266 l -0.03017,0.19844 -0.03017,0.19844 -0.08936,0.76775 -0.08936,0.76776 0.233095,-0.23859 0.233095,-0.23859 z m -1.886643,0.55551 0.173838,0.28127 0.388401,-0.14904 0.388402,-0.14905 v -0.50086 -0.50085 h -0.236276 -0.236276 l -0.174832,0.4556 -0.174833,0.45561 -0.246298,-0.38946 -0.246299,-0.38946 -0.0041,0.34634 -0.0041,0.34634 -0.261552,-0.16164 -0.261553,-0.16165 0.166081,0.4328 0.166082,0.4328 0.19469,-0.31501 0.19469,-0.31502 z m -14.077692,1.57438 -0.3175,-0.3175 v -0.3462 -0.3462 l 0.529167,0.33047 0.529166,0.33047 v 0.33323 0.33323 h -0.211666 -0.211667 z m 17.541875,-2.59291 -0.163522,-0.26459 0.143783,-0.23264 0.143784,-0.23265 0.533026,-0.13939 0.533027,-0.13939 0.179399,0.29028 0.1794,0.29027 -0.313076,0.10436 -0.313077,0.10436 0.149555,0.24198 0.149555,0.24199 h -0.184884 -0.184884 l -0.360546,-0.46302 -0.360547,-0.46302 0.161248,0.46302 0.161249,0.46302 h -0.144985 -0.144984 z m -13.890625,-1.32292 -0.396875,-0.25648 0.348559,-0.004 0.348558,-0.004 -0.158006,-0.49783 -0.158006,-0.49784 0.449003,-0.1723 0.449003,-0.17229 0.246798,0.24679 0.246799,0.2468 -0.533576,0.53358 -0.533577,0.53358 0.154341,0.15433 0.15434,0.15435 -0.110243,-0.004 -0.110243,-0.004 z m 27.590332,-0.81315 -0.30693,-0.81315 0.33941,0.28169 0.33942,0.28169 0.17409,-0.1741 0.17409,-0.17409 v 0.70555 0.70556 h -0.20657 -0.20658 z m -25.021162,-0.50977 0.138381,-0.52916 -0.626172,-0.008 -0.626171,-0.008 0.505666,-0.29355 0.505666,-0.29355 0.452567,0.28263 0.452568,0.28263 0.285065,-0.28506 0.285065,-0.28507 -0.03998,0.63476 -0.03998,0.63476 -0.277277,0.19438 -0.277277,0.19439 -0.43825,0.004 -0.438251,0.004 z m 0.240626,-1.27167 -0.197503,-0.31956 0.4088,-0.15688 0.408799,-0.15687 -0.269047,-0.50272 -0.269047,-0.502712 h 0.520646 0.520646 l 0.178435,0.562202 0.178435,0.56219 -0.34641,0.2141 -0.34641,0.21409 -0.188472,-0.11648 -0.188472,-0.11648 -0.106449,0.31934 -0.106448,0.31935 z m 1.891296,-4.211752 0.864635,-0.10706 0.722865,0.10976 0.722866,0.10977 -1.5875,-0.003 -1.5875,-0.003 z m 20.17779,-5.29835 -0.008,-0.33073 h -0.66146 -0.66146 v -0.2802 -0.28019 l 0.21163,0.13079 0.21162,0.13079 0.33708,-0.53974 0.33707,-0.53974 -0.32271,0.19944 -0.3227,0.19945 0.16778,-0.66847 0.16777,-0.66847 -0.82372,-0.16475 -0.82372,-0.16474 -1.48828,-0.0472 -1.48828,-0.0471 2.64583,-0.15129 2.64584,-0.15128 0.66146,0.3291 0.66145,0.3291 -0.53615,0.002 -0.53616,0.002 0.0988,1.03597 0.0988,1.03598 -0.2822,0.48538 -0.2822,0.48538 z m 4.48987,-2.44739 v -0.26459 l 0.85989,0.0313 0.8599,0.0313 0.79375,0.20198 0.79375,0.20197 -1.65365,0.0313 -1.65364,0.0313 z m -15.611015,-0.8599 5.96e-4,-0.19844 2.844271,0.0445 2.844268,0.0445 -0.926039,0.0817 -0.926042,0.0817 -1.918825,0.0723 -1.918825,0.0723 z m -6.402987,-0.39549 2.195375,-0.0893 2.037958,0.0899 2.037958,0.09 -4.233333,-6.1e-4 -4.233333,-6.1e-4 z m 15.568652,-6.05975 0.14292,-0.56827 -0.29449,-0.55026 -0.29449,-0.55026 0.37692,0.14464 0.37693,0.14464 0.13037,0.49857 0.13038,0.49857 -0.35573,0.47531 -0.35573,0.47532 z m -8.371319,-16.23278 -1.190625,-0.4996 -0.714457,-0.0148 -0.714457,-0.0148 -0.25836,-0.46302 -0.25836,-0.46302 -2.599058,-0.13229 -2.599058,-0.1323 0.926042,-0.42995 0.926041,-0.42996 0.79375,-0.15486 0.79375,-0.15485 -0.330729,0.14384 -0.330729,0.14384 v 0.34929 0.34929 l 1.323081,0.0917 1.323081,0.0917 -1.64e-4,-0.4917 -1.65e-4,-0.49171 0.691168,0.17347 0.691169,0.17348 1.623936,0.78426 1.623936,0.78426 -0.429195,-0.11402 -0.429194,-0.11401 -1.290597,-0.18212 -1.290598,-0.18212 1.322917,0.71206 1.322917,0.71206 0.251354,0.24253 0.251354,0.24252 -0.119063,-0.0148 -0.119062,-0.0148 z m -34.460654,23.61406 0.108918,-0.33073 h -0.815798 -0.815799 v 0.22049 0.22049 l 0.18755,0.18754 0.18755,0.18755 0.51933,-0.0773 0.51933,-0.0773 z m 61.257673,-0.299 0.25222,-0.25221 h -1.23559 -1.2356 l 0.31058,0.37422 0.31057,0.37421 0.6728,-0.122 0.67281,-0.122 z"
       id="path10" /></g></svg>
