<?xml version="1.0" encoding="UTF-8" standalone="no"?>
<!-- Created with Inkscape (http://www.inkscape.org/) -->

<svg
   width="101.6mm"
   height="84.666672mm"
   viewBox="0 0 101.6 84.666672"
   version="1.1"
   id="svg1"
   xml:space="preserve"
   xmlns="http://www.w3.org/2000/svg"
   xmlns:svg="http://www.w3.org/2000/svg"><defs
     id="defs1" /><g
     id="layer1"
     transform="translate(-54.199998,-59.126845)"><path
       style="fill:#ffffff;fill-opacity:1"
       d="M 54.199997,101.46017 V 59.126844 H 104.99999 155.8 v 42.333326 42.33334 H 104.99999 54.199997 Z m 17.065625,41.10871 -0.529167,-0.41405 -2.248958,0.14931 -2.248958,0.14931 -0.79375,0.25041 -0.79375,0.25041 3.571874,0.0143 3.571875,0.0143 z m 6.503931,0.16629 h 0.242944 v -0.25803 -0.25804 l -0.661459,0.25149 -0.661458,0.25149 v -0.65491 -0.65491 h 0.281977 0.281978 l 0.495715,0.2653 0.495716,0.26529 0.155122,-0.25099 0.155121,-0.25099 -0.964108,-0.2662 -0.964108,-0.26621 -0.499494,-0.45203 -0.499495,-0.45204 -0.08405,0.10862 -0.08405,0.10862 0.11504,1.29102 0.115041,1.29102 0.240059,-0.36498 0.240058,-0.36498 0.283608,0.48218 0.283606,0.48217 0.394651,-0.15145 0.39465,-0.15144 z m 34.883137,-0.0846 0.38639,-0.31227 -0.17769,0.29674 -0.17769,0.29674 1.67132,0.0362 1.67132,0.0362 0.57225,-0.49631 0.57224,-0.4963 v -0.2997 -0.29969 l 0.46302,-0.0313 0.46302,-0.0313 0.21811,0.0379 0.2181,0.0379 -0.16757,-0.27114 -0.16757,-0.27114 0.34634,-0.0313 0.34634,-0.0313 0.15925,0.0183 0.15925,0.0183 -0.12469,-0.6523 -0.1247,-0.65231 -0.27795,-0.17178 -0.27796,-0.17179 0.15278,0.39813 0.15277,0.39812 -0.26506,0.37289 -0.26506,0.37288 0.13657,-0.43078 0.13658,-0.43078 -0.27054,-0.27054 -0.27055,-0.27054 0.58884,-0.18689 0.58883,-0.18689 0.1654,0.22675 0.16541,0.22675 0.59531,0.063 0.59532,0.063 v -0.26146 -0.26146 h 0.59781 0.59781 l 0.32394,-0.51871 0.32394,-0.51871 -0.13939,-0.36323 -0.13939,-0.36324 h 0.41965 0.41965 l -0.13213,0.3443 -0.13212,0.34431 0.19811,0.12243 0.1981,0.12244 0.041,-0.54371 0.0409,-0.5437 -0.3829,-0.38291 -0.38291,-0.3829 v -0.39581 -0.39581 l 0.5623,0.17847 0.5623,0.17847 -0.16669,-0.2697 -0.16668,-0.26971 0.46428,0.0751 0.46428,0.0751 0.32007,-0.25415 0.32008,-0.25416 -0.14288,0.61887 -0.14289,0.61886 -0.0229,0.33955 -0.0228,0.33955 -0.2734,-0.2734 -0.2734,-0.27341 h -0.50865 -0.50865 l 0.32938,0.39688 0.32938,0.39687 h 0.47872 0.47872 l -0.0732,0.68663 -0.0732,0.68663 -0.37176,0.23536 -0.37177,0.23536 0.59532,0.004 0.59531,0.004 v 0.25628 0.25628 l -0.3864,-0.14828 -0.38641,-0.14828 -1.46568,1.26538 -1.46568,1.26538 v 0.21412 0.21412 h 0.39688 0.39687 v 0.26458 0.26458 h -0.1776 -0.17761 l -0.42375,-0.38349 -0.42375,-0.38349 -0.39083,0.27616 -0.39083,0.27616 0.52916,-0.17293 0.52917,-0.17292 -0.26458,0.25457 -0.26459,0.25458 -0.52916,0.13489 -0.52917,0.13489 2.30078,-0.0254 2.30079,-0.0254 -0.1499,-0.24255 -0.1499,-0.24254 0.5437,0.29098 0.5437,0.29098 h 6.5153 6.5153 l -0.16352,-0.26459 -0.16352,-0.26458 h 0.2802 0.28019 v 0.26458 0.26459 h 8.46667 8.46667 l -0.004,-2.57969 -0.004,-2.57969 -0.19439,0.29682 -0.19438,0.29681 -1.78891,-0.24211 -1.78891,-0.24211 -1.26713,0.2303 -1.26713,0.23031 -0.38355,-0.17714 -0.38354,-0.17714 -0.52917,-0.26852 -0.52916,-0.26852 -0.0922,-0.46899 -0.0922,-0.46898 0.97809,0.18349 0.9781,0.18349 -0.17395,-0.28146 -0.17395,-0.28146 h 1.19333 1.19333 l 1.52371,0.39688 1.5237,0.39687 h 0.73816 0.73817 v -0.63941 -0.63941 l -0.33073,-0.15434 -0.33073,-0.15434 0.33073,-0.15434 0.33073,-0.15434 v -0.56003 -0.56004 l -0.3175,0.3175 -0.3175,0.3175 -0.5424,-0.0264 -0.5424,-0.0264 0.66146,-0.21831 0.66146,-0.2183 -0.92604,-0.004 -0.92604,-0.004 -0.39688,-0.0577 -0.39687,-0.0577 -0.62362,0.0417 -0.62362,0.0417 0.15229,0.39687 0.1523,0.39688 h -0.37296 -0.37296 l -0.18419,-0.29804 -0.1842,-0.29804 -1.5257,0.13834 -1.52569,0.13835 -0.27601,-0.27602 -0.27602,-0.27601 -1.97906,-0.12701 -1.97907,-0.12701 -0.69167,0.1736 -0.69167,0.1736 0.15872,0.25683 0.15873,0.25682 h -0.54468 -0.54478 v -0.24897 -0.24896 l 0.2689,-0.16619 0.2689,-0.16619 -0.14402,-0.23303 -0.14402,-0.23302 0.56885,-0.30444 0.56884,-0.30444 2.9443,0.15796 2.94429,0.15797 1.56466,0.17227 1.56465,0.17228 -0.16355,-0.42622 -0.16356,-0.42622 0.85758,-0.16088 0.85758,-0.16089 0.65174,0.06 0.65174,0.06 0.85989,-0.0412 0.8599,-0.0412 V 96.168514 59.920594 H 104.99809 54.989931 l 0.006,30.66594 0.006,30.665936 0.98808,-0.099 0.98808,-0.099 2.513542,-0.25996 2.513541,-0.25996 4.994162,-0.17446 4.994162,-0.17446 -0.306137,-0.18921 -0.306137,-0.1892 3.608804,0.12239 3.608805,0.1224 0.231931,-0.36622 0.231933,-0.36621 0.0041,-1.01749 0.0041,-1.01749 -0.571254,-0.80225 -0.571253,-0.80225 -0.122252,-1.2723 -0.122251,-1.27229 0.693505,-1.39169 0.693505,-1.39168 5.67e-4,-0.54336 5.68e-4,-0.54337 0.785686,-1.4905 0.785685,-1.4905 0.523765,-2.34596 0.523765,-2.34596 0.39334,-1.11116 0.393341,-1.111166 0.339298,-0.60863 0.339298,-0.60862 0.33461,-0.92604 0.33461,-0.92604 0.004,-0.3088 0.004,-0.30879 0.52452,-1.22366 0.524521,-1.22365 1.129125,0.6196 1.129126,0.61961 1.719791,0.48167 1.719792,0.48168 0.859897,0.25325 0.859894,0.25325 v 0.37636 0.37635 h 0.264584 0.264583 v -0.26052 -0.26053 l 1.632058,0.17058 1.632059,0.17059 -0.181602,-0.47325 -0.181601,-0.47325 0.767634,0.15353 0.767634,0.15353 0.692326,0.17376 0.692325,0.17376 v -0.29327 -0.29326 h 0.79375 0.793754 v 0.54806 0.54807 l 0.33073,0.31183 0.33072,0.31183 0.52917,-0.0124 0.52917,-0.0124 -0.0727,-0.33804 -0.0727,-0.33803 0.27545,0.17024 0.27545,0.17024 -0.15035,0.24327 -0.15034,0.24327 0.41061,-0.15757 0.41062,-0.15757 v 0.27399 0.27399 l 0.34854,0.34963 0.34854,0.34963 0.29916,0.8599 0.29915,0.859886 -0.29467,0.84528 -0.29466,0.84528 0.30843,0.10281 0.30843,0.10281 v 0.25841 0.25841 l 0.91964,1.20442 0.91964,1.20442 0.32414,0.89637 0.32413,0.89637 0.14528,1.9e-4 0.14529,1.9e-4 0.0374,0.64914 0.0374,0.64914 0.56162,0.71398 0.56161,0.71398 -0.15763,0.15763 -0.15763,0.15763 -0.34405,-0.47052 -0.34405,-0.47052 -0.12125,0.82617 -0.12126,0.82617 0.33848,0.12989 0.33848,0.12989 0.16914,0.77007 0.16913,0.77007 0.41378,0.23156 0.41378,0.23156 0.44392,-0.11609 0.44393,-0.11609 0.32519,0.39183 0.32519,0.39183 -1.07128,-0.14369 -1.07128,-0.14368 0.004,0.23327 0.004,0.23328 0.25648,0.39687 0.25648,0.39688 0.004,-0.33073 0.004,-0.33073 h 0.24676 0.24675 l 0.18295,0.59531 0.18295,0.59531 0.49634,0.47333 0.49634,0.47333 v 1.56219 1.56219 l -0.54109,0.37899 -0.54109,0.379 0.39525,0.15167 0.39525,0.15167 0.1678,-0.52867 0.1678,-0.52868 2.29315,0.0376 2.29314,0.0376 2.64583,-0.20377 2.64584,-0.20376 1.25677,0.0313 1.25677,0.0313 v -0.22734 -0.22735 l 0.15725,-0.48466 0.15725,-0.48466 -0.2664,0.37505 -0.26641,0.37505 -1.4122,0.0697 -1.4122,0.0697 1.44505,-0.51085 1.44505,-0.51086 0.14245,-0.004 0.14245,-0.004 -0.27876,-0.19439 -0.27876,-0.19438 -1.56393,-1.98438 -1.56393,-1.98437 -0.73578,-0.79375 -0.73577,-0.79375 -0.001,-0.17954 -10e-4,-0.17954 -0.3324,-0.34963 -0.33241,-0.34963 -0.65978,-0.81273 -0.65978,-0.81274 -0.66146,-0.88281 -0.66146,-0.88281 -0.26756,-0.28883 -0.26757,-0.28883 -1.97841,-2.51354 -1.97841,-2.51354 -0.26757,-0.28883 -0.26757,-0.28883 -0.66145,-0.877546 -0.66146,-0.87754 -0.26459,-0.28883 -0.26458,-0.28883 -1.09214,-1.45521 -1.09214,-1.45521 -0.49536,-0.57303 -0.49536,-0.57303 -0.44548,-0.53399 -0.44548,-0.53399 -0.48056,-0.74069 -0.48056,-0.7407 -0.52546,-0.52983 -0.52546,-0.52983 -0.40922,0.0693 -0.40923,0.0693 -1.020757,-1.19751 -1.020763,-1.19751 h -0.226966 -0.227368 v 0.38126 0.38126 l -0.287637,0.17777 -0.287637,0.17777 -0.307676,-0.32752 -0.307675,-0.32752 0.323213,-0.11876 0.323212,-0.11877 -0.630721,-0.63072 -0.63072,-0.63072 -0.594413,-1.05761 -0.594413,-1.05762 -0.950162,-0.37709 -0.950163,-0.37709 -1.190625,-0.18248 -1.190625,-0.18248 -0.926041,-0.2718 -0.926042,-0.2718 -1.719791,-0.66427 -1.719792,-0.66427 -1.5875,-0.91609 -1.5875,-0.91608 -0.396875,-0.20656 -0.396875,-0.20656 -0.08617,-0.72634 -0.08617,-0.72634 0.879924,0.18989 0.879923,0.18989 0.08819,0.23241 0.08819,0.2324 h 0.263557 0.263557 l -0.181607,-0.82685 -0.181606,-0.82685 0.274593,0.16971 0.274594,0.16971 0.166189,-0.2689 0.166189,-0.2689 h 0.224198 0.224198 l -0.113948,0.46302 -0.113948,0.46302 1.589979,0.92604 1.589978,0.92604 0.0039,0.13828 0.0039,0.13827 0.859896,0.41994 0.859896,0.41995 0.661458,0.28686 0.661458,0.28686 1.389063,0.17194 1.389062,0.17194 v 0.23975 0.23976 h 0.30348 0.303479 l 1.130112,0.92604 1.130111,0.92604 h 0.169524 0.169523 l -0.184037,-0.33073 -0.184038,-0.33073 0.998879,0.99891 0.998879,0.99891 0.693892,0.4099 0.693895,0.40989 0.32773,0.69446 0.32774,0.69447 0.004,0.54256 0.004,0.54257 0.25648,0.39687 0.25648,0.39688 0.004,-0.50243 0.004,-0.50242 1.25676,1.35786 1.25678,1.35786 1.05833,1.21299 1.05833,1.21298 0.74198,0.842 0.74198,0.84199 0.84552,1.02327 0.84552,1.02326 0.26459,0.29965 0.26458,0.29965 0.37544,0.72761 0.37544,0.7276 h 0.30745 0.30746 l 0.37544,0.727606 0.37544,0.7276 0.66146,0.74176 0.66146,0.74176 0.99218,1.04418 0.99219,1.04417 0.0123,0.19844 0.0122,0.19844 1.03384,0.79375 1.03383,0.79375 0.0123,0.28911 0.0122,0.28911 1.51509,1.56298 1.51509,1.56297 0.66772,0.81899 0.66772,0.819 0.66146,0.87655 0.66146,0.87655 0.34963,0.35498 0.34963,0.35497 h -0.28388 -0.28348 v 0.29543 0.29543 l 0.68635,-0.13121 0.68635,-0.1312 0.26546,0.7615 0.26547,0.76151 0.23881,-0.1476 0.2388,-0.14759 v 0.3626 0.3626 l 0.54267,0.58248 0.54266,0.58248 -0.14615,0.23649 -0.14616,0.23648 0.50688,-0.13255 0.50688,-0.13255 0.29655,0.5541 0.29654,0.5541 h -0.16255 -0.16256 l 1.01314,1.01713 1.01315,1.01714 0.70229,0.80425 0.70229,0.80425 0.10105,0.49372 0.10105,0.49372 0.45343,-0.0778 0.45343,-0.0777 v 0.38957 0.38958 l 0.3419,0.34963 0.3419,0.34963 0.35517,0.86837 0.35517,0.86838 -0.1679,0.16791 -0.16791,0.1679 v -0.38727 -0.38728 l -1.04654,-1.02192 -1.04654,-1.02192 -0.38117,0.31634 -0.38117,0.31635 -0.56291,-0.91081 -0.56291,-0.91081 -0.76774,-0.61123 -0.76774,-0.61122 0.15341,-0.24821 0.15341,-0.24822 -0.26829,0.16581 -0.26829,0.16581 -1.40137,-0.69833 -1.40137,-0.69833 -2.40612,-0.0219 -2.40612,-0.0219 -1.6601,0.86889 -1.6601,0.8689 -0.58886,-0.0751 -0.58885,-0.0751 v 0.15986 0.15986 l -0.87579,0.73692 -0.87578,0.73692 -0.57942,0.0616 -0.57943,0.0616 -0.59531,0.0338 -0.59532,0.0338 0.0661,0.33073 0.0662,0.33073 -0.7276,0.0837 -0.72761,0.0837 v -0.31047 -0.31046 l 0.4135,0.15867 0.41349,0.15867 -0.0828,-0.83759 -0.0828,-0.83759 -0.33734,-0.0667 -0.33735,-0.0667 0.2712,0.1345 0.2712,0.13449 v 0.50712 0.50712 h -0.26458 -0.26459 l 0.0661,-0.19844 0.0661,-0.19843 -0.26458,-0.0695 -0.26458,-0.0695 -0.0305,0.54252 -0.0305,0.54252 0.55239,0.38691 0.55239,0.38691 h -0.30456 -0.30455 l -0.45878,0.45878 -0.45878,0.45877 -0.28773,0.0301 -0.28772,0.0301 -0.33073,0.0403 -0.33073,0.0403 v 0.35278 0.35278 h -0.42958 -0.42959 l -2.81156,1.43316 -2.81156,1.43315 -0.0882,0.19844 -0.0882,0.19844 h -0.37482 -0.37483 v -0.39183 -0.39184 l -0.64053,-0.16076 -0.640531,-0.16076 -0.483948,0.11877 -0.483948,0.11877 0.859582,0.32731 0.859582,0.3273 -0.147593,0.23881 -0.147592,0.23881 h 0.412489 0.412489 v 0.26459 0.26458 h -0.368566 -0.368568 l -0.152295,-0.39688 -0.152295,-0.39687 h -0.376711 -0.376872 l -0.138119,0.35993 -0.138118,0.35993 -1.24583,0.14043 -1.245829,0.14042 -0.165714,0.24655 -0.165713,0.24655 -0.479791,0.17727 -0.479791,0.17727 0.130503,0.21115 0.130502,0.21116 -0.907483,-0.10594 -0.907482,-0.10595 v 0.40938 0.40938 l -0.463021,-0.0189 -0.463021,-0.0189 -0.439116,0.18676 -0.439118,0.18675 -0.15615,-0.49198 -0.15615,-0.49199 -0.03508,-1.52189 -0.03508,-1.5219 -0.295689,0.1044 -0.295689,0.10439 0.114923,1.03045 0.114922,1.03046 0.01737,1.05833 0.01737,1.05833 -0.926041,0.0608 -0.926042,0.0608 0.574438,-0.24303 0.574438,-0.24302 -0.35117,-1.40531 -0.351171,-1.40532 -0.173333,-1.25677 -0.173334,-1.25677 H 85.783707 83.0044 l -0.511773,0.2739 -0.511772,0.27389 v 0.35732 0.35732 l -0.395245,0.75785 -0.395245,0.75785 -0.0016,0.46302 -0.0016,0.46302 H 80.92299 80.658407 v 0.40059 0.40058 l -0.595313,0.9162 -0.595312,0.91619 -0.396875,-0.06 -0.396875,-0.06 -0.08246,0.71452 -0.08246,0.71452 0.290204,0.54225 0.290204,0.54225 h 1.755795 1.755795 l 0.431557,-0.39055 0.431558,-0.39055 0.515317,-0.0854 0.515318,-0.0854 0.570093,-0.31361 0.570093,-0.3136 1.017407,-0.0107 1.017407,-0.0107 1.124479,-0.0467 1.12448,-0.0467 v -0.31467 -0.31467 l 0.951652,-0.1111 0.951653,-0.1111 0.232424,0.61132 0.232423,0.61132 h 0.672681 0.672682 l 0.899308,0.92604 0.899309,0.92604 h 0.319039 0.319039 l -0.353139,0.42551 -0.353139,0.4255 0.503603,0.36825 0.503604,0.36824 h 0.226647 0.226647 l 0.582679,0.64027 0.582679,0.64027 0.463021,0.55338 0.463021,0.55338 v 0.12624 0.12624 l 0.462846,0.54057 0.462846,0.54056 6.213006,-0.0268 6.21302,-0.0268 z m 2.99317,-0.65509 0.14588,-0.55785 -0.19857,-0.0788 -0.19856,-0.0788 -0.16507,-1.05833 -0.16507,-1.05833 0.23733,0.52916 0.23733,0.52917 0.15662,0.49047 0.15663,0.49048 0.39464,-0.15144 0.39465,-0.15144 v 0.25628 0.25628 h -0.26459 -0.26458 v 0.38126 0.38126 l -0.30626,0.18928 -0.30626,0.18928 z m 24.01455,-2.93583 -0.39687,-0.2319 -0.72314,-0.33757 -0.72314,-0.33756 -0.52257,-0.48685 -0.52257,-0.48685 h -0.22507 -0.22508 l -0.51359,-0.37731 -0.51359,-0.37732 0.52917,0.0466 0.52916,0.0466 0.16713,0.22954 0.16712,0.22953 1.12812,0.13031 1.12812,0.13031 -0.13739,-0.52538 -0.13739,-0.52538 1.32767,-0.15724 1.32767,-0.15724 0.22646,0.13995 0.22645,0.13996 v 0.24897 0.24897 h -0.44097 -0.44097 l 0.19843,0.19843 0.19844,0.19844 0.17639,0.0222 0.17639,0.0222 0.67233,0.281 0.67233,0.28099 0.33271,0.40089 0.3327,0.40088 -0.29255,0.1808 -0.29255,0.18081 -0.58019,0.0883 -0.5802,0.0883 -0.92604,0.14931 -0.92604,0.14931 z m -18.60795,-0.49837 0.30975,-0.19703 0.19613,-0.78146 0.19614,-0.78145 0.1856,0.51952 0.18561,0.51952 -0.29462,0.19439 -0.29461,0.19438 0.26458,0.008 0.26458,0.008 -0.39687,0.25648 -0.39688,0.25648 h -0.26458 -0.26458 z m -0.88469,-0.7209 0.0772,-0.52917 0.31501,0.0661 0.31502,0.0661 0.004,-0.46302 0.004,-0.46303 0.25648,0.39688 0.25648,0.39687 0.004,0.19844 0.004,0.19844 h -0.50711 -0.50712 l -0.14968,0.33073 -0.14967,0.33073 z m 5.20514,-1.16898 v -0.50753 l 0.15248,-0.39734 0.15247,-0.39733 0.6126,0.11109 0.6126,0.11108 0.20437,-0.72758 0.20437,-0.72758 -0.05,-0.2181 -0.0499,-0.2181 0.24854,0.1536 0.24854,0.15361 0.134,-0.33238 0.134,-0.33238 0.0209,0.46303 0.0209,0.46302 h 0.24117 0.24117 l -0.0543,-0.37019 -0.0543,-0.37018 -0.37727,-0.48971 -0.37727,-0.48972 0.67308,0.59774 0.67308,0.59773 0.16621,-0.16621 0.16621,-0.16621 -0.38428,-0.38428 -0.38427,-0.38427 0.0168,-0.44412 0.0168,-0.44413 0.27799,0.66146 0.27799,0.66146 0.10795,-0.28207 0.10794,-0.28208 0.9119,0.0718 0.9119,0.0718 0.15622,-0.25276 0.15621,-0.25276 h -0.32429 -0.3243 l 0.19844,-0.19844 0.19844,-0.19844 0.30868,-0.006 0.30868,-0.006 -0.0897,-0.509 -0.0897,-0.509 0.42039,0.3489 0.4204,0.34889 0.004,-0.49541 0.004,-0.49542 0.22507,0.35511 0.22507,0.35512 0.53823,-0.33613 0.53823,-0.33613 -0.15086,-0.39312 -0.15085,-0.39312 0.30954,0.19131 0.30955,0.19131 v 0.18745 0.18744 l -1.16973,1.22073 -1.16974,1.22072 -0.81775,0.36197 -0.81774,0.36197 -0.13832,0.43581 -0.13832,0.4358 0.0405,0.22584 0.0405,0.22583 -0.0313,0.35942 -0.0313,0.35941 -0.66076,-0.16584 -0.66077,-0.16584 -1.3533,0.93091 -1.3533,0.9309 h -0.36728 -0.36719 z m -46.30208,-1.17602 v -0.43312 l 0.198437,-0.008 0.198438,-0.008 1.852083,-0.14088 1.852084,-0.14089 1.437655,-0.24775 1.437656,-0.24775 h 1.025355 1.025355 l -0.181543,0.29374 -0.181544,0.29374 -0.87602,-0.14215 -0.87602,-0.14216 -0.323358,0.38962 -0.323358,0.38962 -0.399477,-0.15329 -0.399478,-0.1533 -0.156323,0.25294 -0.156324,0.25294 -2.576809,0.18915 -2.576809,0.18915 z m 47.55187,-1.8558 -0.20064,-0.49664 0.41331,-0.30223 0.41332,-0.30222 0.0445,-0.5902 0.0445,-0.5902 h 0.32495 0.32496 l 0.18878,0.30546 0.18879,0.30547 -0.3077,-0.19017 -0.3077,-0.19017 -0.23128,0.61231 -0.23128,0.61231 0.14211,0.23932 0.1421,0.23931 -0.28655,-0.17709 -0.28654,-0.1771 -0.0875,0.59924 -0.0875,0.59923 z m 20.23718,-1.36457 -0.34116,-0.38775 h 1.06876 1.06877 v 0.26458 0.26458 h -0.37524 -0.37523 l -0.35237,0.12317 -0.35237,0.12317 z m -12.68583,-0.25129 -0.327,-0.37072 0.38849,-0.38848 0.38848,-0.38849 0.53795,0.14068 0.53794,0.14067 0.165,0.26697 0.165,0.26697 -0.36228,-0.12076 -0.36228,-0.12076 -0.40216,0.47232 -0.40215,0.47232 z m 15.92653,-0.15407 -0.1744,-0.28218 0.13986,-0.13987 0.13987,-0.13987 0.87881,0.19492 0.87882,0.19492 -0.52917,0.20854 -0.52916,0.20854 -0.31512,0.0186 -0.31511,0.0186 z m -62.9047,-0.67679 -0.18755,-0.18755 v -0.50264 -0.50265 l 0.727604,0.0837 0.727604,0.0837 v 0.52917 0.52917 l -0.540054,0.0773 -0.540055,0.0773 z m 29.77651,-0.62562 -0.85989,-0.52429 v -0.24016 -0.24017 l 0.41851,-0.1606 0.41852,-0.1606 0.1768,0.008 0.17679,0.008 -0.47079,0.35717 -0.4708,0.35717 0.41839,0.16055 0.4184,0.16056 -0.16165,-0.26156 -0.16165,-0.26155 h 0.2613 0.2613 l 0.4182,0.41821 0.41821,0.4182 -0.15034,0.24325 -0.15034,0.24326 -0.0505,-9.9e-4 -0.0505,-9.9e-4 z m 16.33803,-1.18354 v -0.33091 l 0.75947,0.0282 0.75946,0.0282 -0.10113,0.26459 -0.10114,0.26458 -0.65833,0.0382 -0.65833,0.0382 z m -72.561986,-9.33184 1.12448,-0.10128 1.124479,0.10128 1.124479,0.10128 h -2.248958 -2.248959 z m 5.56512,-0.26622 1.397931,-0.0975 1.247902,0.0987 1.247901,0.0987 -2.645833,-0.001 -2.645833,-0.001 z M 55.25833,118.40479 v -0.28896 l 0.72712,-0.27645 0.72712,-0.27645 0.443819,-0.40166 0.443819,-0.40165 0.45771,0.0893 0.457711,0.0893 0.06785,0.46382 0.06785,0.46383 -0.704311,0.15608 -0.704311,0.15608 -0.529166,0.12869 -0.529167,0.12869 -0.463021,0.12913 -0.463021,0.12913 z m 64.29836,-10.66076 -0.622,-1.12449 -0.79925,-0.9256 -0.79924,-0.9256 0.43852,-0.0845 0.43853,-0.0845 0.41757,0.3486 0.41757,0.34859 0.66379,0.62241 0.66379,0.62241 -0.16285,0.74147 -0.16285,0.74146 0.28007,0.1731 0.28008,0.17309 v 0.24897 0.24897 h -0.21587 -0.21586 z m -6.35406,-7.01146 -0.62404,-0.72761 -1.84482,-2.052946 -1.84482,-2.05296 -0.20269,-1.25434 -0.20268,-1.25433 -0.17925,-0.52917 -0.17925,-0.52916 0.28549,0.39687 0.28549,0.39688 0.0354,-0.52917 0.0354,-0.52917 -0.0344,-0.20762 -0.0344,-0.20762 -0.0707,-0.45384 -0.0707,-0.45383 -0.24718,-0.39672 -0.24718,-0.39671 0.0678,-0.79391 0.0678,-0.79391 -0.20989,0.26458 -0.20988,0.26458 -0.33073,0.0662 -0.33073,0.0661 v -0.88911 -0.88911 l -0.15671,-1.16141 -0.15671,-1.16141 1.01661,-0.43534 1.0166,-0.43535 0.19844,0.12023 0.19844,0.12023 v 0.38126 0.38126 h -0.22211 -0.22212 l -0.28659,0.62901 -0.28659,0.629 0.29704,0.29704 0.29704,0.29704 -0.29704,0.29704 -0.29704,0.29704 0.28281,0.6207 0.28281,0.62071 0.25229,-0.15593 0.25229,-0.15592 -0.31737,0.59302 -0.31738,0.59303 0.3253,-0.20105 0.32531,-0.20105 -0.13209,0.36756 -0.13209,0.36756 0.42849,0.5085 0.4285,0.5085 -0.31245,-0.18209 -0.31245,-0.18209 -0.14766,0.23892 -0.14766,0.23892 0.44475,0.36071 0.44475,0.36071 -0.21991,-0.36506 -0.21991,-0.36505 0.36756,0.13354 0.36756,0.13355 -0.0645,0.29265 -0.0645,0.29265 0.62201,0.40756 0.62202,0.40756 -0.11164,0.58963 -0.11164,0.58963 0.24501,0.65913 0.245,0.65913 -0.42632,0.35268 -0.42632,0.35268 0.33073,-0.16753 0.33073,-0.16752 v 0.2361 0.2361 l -0.17409,0.17409 -0.1741,0.1741 -0.35507,-0.29469 -0.35507,-0.29468 v 0.27493 0.27493 l 0.7276,0.26574 0.72761,0.26575 -0.47864,0.0209 -0.47864,0.0209 0.16619,0.2689 0.16619,0.26889 0.25286,-0.15627 0.25286,-0.15627 -0.0379,0.2181 -0.0379,0.2181 0.0313,0.3129 0.0313,0.3129 0.52917,0.16795 0.52917,0.16796 v 0.64362 0.64363 l 0.19843,0.002 0.19844,0.002 0.45072,0.792076 0.45071,0.79208 h -0.0723 -0.0723 z m -2.77677,-5.880966 -0.1787,-0.56304 -0.37463,0.31091 -0.37462,0.31091 v 0.21279 0.21278 l 0.46302,0.10299 0.46302,0.103 0.0903,-0.0636 0.0903,-0.0636 z m -9.01569,-10.03114 0.14558,-0.23554 -0.92371,-0.43833 -0.92371,-0.43833 v -0.0658 -0.0658 l 0.88117,-0.0593 0.88118,-0.0593 0.29175,0.64033 0.29175,0.64033 -0.15869,0.15869 -0.15869,0.15868 h -0.2361 -0.2361 z m 5.72518,-4.93941 -0.0187,-0.54474 0.38846,-0.51359 0.38846,-0.51359 0.0391,-0.52917 0.0391,-0.52916 0.11156,0.41401 0.11157,0.41402 -0.52044,1.17348 -0.52044,1.17349 z m -16.213071,-0.24755 -0.342074,-0.39738 -0.754639,-0.82011 -0.75464,-0.8201 0.248534,-0.24853 0.248534,-0.24854 0.770689,0.31064 0.770688,0.31065 1.122659,0.18613 1.122659,0.18613 0.410856,-0.42079 0.410856,-0.4208 0.325548,-0.47742 0.325549,-0.47742 0.432089,0.1658 0.432089,0.16581 -0.222162,0.77464 -0.222162,0.77463 h 0.146219 0.146219 l -0.294685,0.35507 -0.294684,0.35508 0.152657,0.15265 0.152656,0.15266 -0.485681,0.2498 -0.485682,0.2498 -1.510009,0.16949 -1.510009,0.16949 z m 12.307721,-1.88896 -0.13349,-0.34785 0.40368,-0.40368 0.40367,-0.40367 h 0.40016 0.40016 l 0.18879,-0.30546 0.18878,-0.30547 -0.37161,0.22396 -0.3716,0.22396 0.36312,-0.44766 0.36313,-0.44766 h 0.2478 0.2478 l -0.18879,0.30546 -0.18878,0.30546 0.33038,-0.20418 0.33038,-0.20419 -0.12052,-0.63044 -0.12052,-0.63045 h 0.34129 0.34128 l 0.41578,-0.41577 0.41577,-0.41578 v 0.41578 0.41577 h -0.23981 -0.23982 l 0.13612,0.5205 0.13611,0.5205 0.36828,0.30565 0.36829,0.30565 v -0.29131 -0.29131 l 0.65316,0.2976 0.65316,0.2976 -0.13961,0.2259 -0.13961,0.22589 h 0.31106 0.31105 l -0.14999,-0.59531 -0.14999,-0.59532 0.34674,0.46302 0.34674,0.46303 0.5,0.0209 0.5,0.0209 -0.39215,0.15392 -0.39216,0.15393 -0.35459,0.35459 -0.35459,0.35459 -0.70846,-0.17347 -0.70847,-0.17346 -0.0882,-0.22365 -0.0882,-0.22365 h -0.25408 -0.25409 l -0.71335,0.66146 -0.71335,0.66146 h -0.21676 -0.21675 l 0.16352,-0.26458 0.16352,-0.26459 h -0.42811 -0.4281 l 0.14521,0.23495 0.1452,0.23495 -0.81555,0.1197 -0.81556,0.1197 z m 6.97347,-1.86076 -0.17639,-0.17639 v -0.2361 -0.2361 l 0.23471,0.14506 0.23471,0.14506 -0.0363,-0.46017 -0.0363,-0.46018 0.46017,0.0363 0.46018,0.0363 -0.14506,-0.23471 -0.14506,-0.23471 h 0.2802 0.28019 v -0.54655 -0.54656 l -0.26589,-0.49684 -0.2659,-0.49683 0.55403,0.1067 0.55404,0.10669 -0.32054,-0.38621 -0.32053,-0.38622 0.36312,-0.0313 0.36313,-0.0313 0.19844,0.0313 0.19844,0.0313 v -0.42519 -0.42518 l -0.41062,0.15757 -0.41062,0.15757 0.14452,-0.23383 0.14451,-0.23383 -0.40582,-0.15572 -0.40581,-0.15573 -0.55327,0.32644 -0.55328,0.32644 -0.12032,-0.33238 -0.12032,-0.33238 -0.21731,0.13431 -0.21731,0.1343 0.12152,-0.46471 0.12153,-0.46471 -0.53982,-0.57942 -0.53981,-0.57943 -0.56866,0.10952 -0.56867,0.10951 -0.53841,0.47124 -0.53841,0.47123 0.15946,-0.27584 0.15946,-0.27583 0.17163,-1.17937 0.17163,-1.17938 0.0357,-0.46302 0.0357,-0.46302 h 0.19586 0.19587 l 0.62997,0.62998 0.62998,0.62997 1.59492,1.15597 1.59492,1.15596 0.58238,0.39687 0.58239,0.39688 1.15786,1.10505 1.15787,1.10505 -0.38125,0.31641 -0.38124,0.31641 v 0.36447 0.36448 h -0.51134 -0.51134 l -0.16961,0.53441 -0.16962,0.5344 -0.50087,-0.60055 -0.50087,-0.60055 -0.009,0.33073 -0.009,0.33073 -0.19844,-0.0313 -0.19843,-0.0313 -0.24794,0.0313 -0.24794,0.0313 0.70103,0.73172 0.70104,0.73173 -0.91612,-0.0431 -0.91611,-0.0431 v 0.2374 0.23741 h -0.35278 -0.35278 z m -2.26237,-5.64694 -0.0307,-0.66396 0.50026,-0.31242 0.50027,-0.31242 -0.13425,0.51336 -0.13425,0.51336 h -0.21432 -0.21432 l -0.121,0.46302 -0.121,0.46302 z M 78.541663,139.50888 v -0.78025 l -0.330729,-0.33014 -0.330729,-0.33014 -0.595049,-0.15529 -0.595049,-0.15529 -0.148476,0.24024 -0.148477,0.24024 0.67738,0.25754 0.677379,0.25754 v 0.16969 0.1697 l -0.529166,-0.13838 -0.529167,-0.13838 v 0.17708 0.17707 l 0.578196,0.26118 0.578196,0.26117 0.11264,0.35272 0.112639,0.35272 -0.809988,-0.41887 -0.809988,-0.41886 h -0.145431 -0.145431 v 0.23154 0.23154 l 0.85302,0.41312 0.85302,0.41313 0.337605,-0.28018 0.337605,-0.28019 z m -20.108333,0.31726 2.513542,-0.29979 4.27559,-0.64455 4.27559,-0.64454 2.07441,-0.0313 2.07441,-0.0313 0.79375,-0.20198 0.79375,-0.20197 -1.984375,-0.0499 -1.984375,-0.0499 0.529166,-0.22739 0.529167,-0.22739 1.389063,-0.0186 1.389062,-0.0186 v -0.26458 -0.26458 h -0.12737 -0.127371 l -7.214817,1.06305 -7.214817,1.06305 -2.711979,0.43091 -2.711979,0.43091 v 0.37595 0.37595 l 0.463021,-0.13183 0.463021,-0.13182 z m 0.529167,-1.96273 3.307292,-0.63554 2.645833,-0.30319 2.645833,-0.30319 2.079749,-0.38274 2.079749,-0.38274 h 1.56482 1.564821 l 0.231429,-0.60871 0.231429,-0.6087 -0.136085,-0.71188 -0.136085,-0.71189 0.318383,-1.78826 0.318383,-1.78827 0.107762,-0.40329 0.107763,-0.40329 -3.901476,0.31632 -3.901475,0.31631 -6.248726,0.81458 -6.248727,0.81458 h -0.299711 -0.299711 v 0.55785 0.55785 l 0.595313,-0.14619 0.595312,-0.14618 1.455208,-0.1669 1.455209,-0.16691 0.529166,-0.23037 0.529167,-0.23037 4.42222,-0.56668 4.422221,-0.56668 0.869446,0.18597 0.869446,0.18596 0.321833,0.25905 0.321834,0.25904 0.339625,-0.12155 0.339625,-0.12156 0.463021,0.23814 0.46302,0.23814 v -0.26558 -0.26559 l 0.396875,0.15229 0.396875,0.1523 v 0.26994 0.26994 l -1.25677,-0.13392 -1.256771,-0.13392 -0.506425,-0.20929 -0.506424,-0.20929 0.219099,0.35451 0.219099,0.35451 -0.420934,-0.16153 -0.420934,-0.16153 -0.316325,0.38115 -0.316325,0.38115 -0.827499,0.005 -0.827499,0.005 -2.38125,0.39588 -2.38125,0.39589 -2.778125,0.27129 -2.778125,0.27128 -1.124479,0.14975 -1.124479,0.14975 v 0.50137 0.50138 l 0.330729,0.0209 0.330729,0.0209 -0.330729,0.13345 -0.330729,0.13345 v 0.18941 0.1894 l 0.924764,-0.10796 0.924764,-0.10796 0.456883,0.17532 0.456884,0.17533 -0.351562,0.21727 -0.351562,0.21728 0.274835,0.16986 0.274835,0.16986 2.3331,-0.41061 2.333101,-0.4106 3.948716,-0.53054 3.948717,-0.53055 0.350762,0.1346 0.350763,0.1346 v 0.26358 0.26358 l -0.463021,0.24447 -0.463021,0.24448 -4.956441,0.70927 -4.956441,0.70927 -0.26908,-0.1663 -0.269079,-0.1663 v 0.25279 0.25279 l -2.248959,0.33459 -2.248958,0.33459 v 0.35428 0.35427 l 0.330729,-0.001 0.330729,-0.001 z m 7.165798,-3.95503 0.110244,-0.0955 1.5875,-0.14763 1.587499,-0.14762 -0.661458,0.21679 -0.661458,0.2168 -1.036285,0.0264 -1.036285,0.0264 z m 17.440452,4.35093 v -0.24254 l -0.33073,-0.11536 -0.330729,-0.11537 -0.330729,0.12162 -0.330729,0.12163 v 0.23627 0.23628 h 0.661458 0.661459 z m 26.668003,-16.99917 -0.26122,-0.74934 -0.30496,0.17317 -0.30495,0.17318 -0.33777,0.26162 -0.33777,0.26163 0.60235,0.30821 0.60236,0.30821 0.30159,0.006 0.30159,0.006 z m 16.53758,-0.34478 -0.47537,-0.65314 -0.72761,-0.008 -0.7276,-0.008 v 0.26458 0.26459 l 0.46302,0.009 0.46302,0.009 0.66146,0.37812 0.66146,0.37813 0.0785,0.009 0.0785,0.009 z m -2.6382,-0.96581 -0.56062,-0.56062 -1.4164,0.36218 -1.4164,0.36219 1.71979,0.15277 1.71979,0.15277 0.25723,0.0457 0.25724,0.0457 z m -21.75955,-0.49771 -0.49923,-0.39687 -0.17949,-0.8599 -0.17949,-0.8599 h -0.25473 -0.25473 l -0.42062,-0.33073 -0.42062,-0.33072 -0.962609,-0.92605 -0.962609,-0.92604 -0.788415,-0.50802 -0.788416,-0.50803 -1.024576,-1.15687 -1.024578,-1.15687 -0.264832,0.0883 -0.264831,0.0883 -0.562675,0.95102 -0.562674,0.95102 -0.769508,1.02248 -0.769508,1.02247 -1.29253,1.00526 -1.292531,1.00525 -0.236745,0.62269 -0.236745,0.62269 -0.285219,0.17628 -0.28522,0.17627 0.132903,0.21504 0.132902,0.21504 3.377143,-0.0942 3.377142,-0.0942 1.719792,-0.0314 1.719791,-0.0314 0.661459,0.2649 0.661458,0.26491 1.649891,-0.0419 1.64989,-0.0419 z"
       id="path11" /></g></svg>
