<?xml version="1.0" encoding="UTF-8" standalone="no"?>
<!-- Created with Inkscape (http://www.inkscape.org/) -->

<svg
   width="101.6mm"
   height="84.666672mm"
   viewBox="0 0 101.6 84.666672"
   version="1.1"
   id="svg1"
   xml:space="preserve"
   xmlns="http://www.w3.org/2000/svg"
   xmlns:svg="http://www.w3.org/2000/svg"><defs
     id="defs1" /><g
     id="layer1"
     transform="translate(-54.199998,-149.16647)"><path
       style="fill:#ffffff;fill-opacity:1"
       d="M 54.199999,191.49981 V 149.16648 H 105 155.8 v 42.33333 42.33334 H 105 54.199999 Z m 47.456091,41.14271 0.1523,-0.39687 h 0.51807 0.51807 l 0.12464,0.46302 0.12465,0.46302 -0.0145,-1.37669 -0.0145,-1.37669 -0.37693,-0.14464 -0.37693,-0.14465 0.12479,0.92602 0.12479,0.92602 h -0.47845 -0.47844 l -0.41851,0.1606 -0.41852,0.1606 v -0.30444 -0.30444 l -0.66146,-0.71335 -0.661457,-0.71335 v -0.36583 -0.36583 l 0.396875,0.32938 0.396872,0.32937 0.0186,-0.62771 0.0186,-0.62771 0.21288,0.52917 0.21288,0.52917 -0.14006,0.23932 -0.14007,0.23931 0.33505,-0.20707 0.33504,-0.20707 0.23095,0.36463 0.23095,0.36463 0.004,-0.29834 0.004,-0.29833 -0.39687,-0.32937 -0.39688,-0.32938 v -0.26262 -0.26261 l 0.65215,0.4273 0.65215,0.42731 h 0.30629 0.30629 l -0.32938,-0.39688 -0.32937,-0.39687 h -0.39688 -0.39687 l 0.34611,-0.41704 0.34611,-0.41705 -0.37986,-0.24036 -0.37986,-0.24037 -0.17954,-0.004 -0.17954,-0.004 -0.41577,0.41577 -0.415776,0.41578 v 0.29518 0.29519 l -0.793941,-0.76065 -0.793942,-0.76064 -0.528975,0.56779 -0.528975,0.56779 v 0.54853 0.54853 l 0.37958,0.14566 0.37958,0.14566 0.987315,1.43354 0.987314,1.43354 h 0.72147 0.72146 z m 31.91891,0.13229 v -0.26458 h 0.54478 0.54478 l -0.15742,0.25471 -0.15742,0.25472 1.46343,-0.0175 1.46344,-0.0175 -0.14662,-0.23724 -0.14662,-0.23723 h -0.38126 -0.38126 v -0.21143 -0.21143 l -0.95491,-0.34531 -0.95491,-0.3453 -0.93347,-0.63346 -0.93347,-0.63347 -0.98621,-0.26556 -0.98621,-0.26556 -0.8689,0.17378 -0.86891,0.17378 0.45805,0.33494 0.45805,0.33493 -0.58676,0.31403 -0.58676,0.31402 0.24688,0.17 0.24688,0.17 0.0385,0.61531 0.0385,0.61531 -0.3158,-0.24852 -0.31579,-0.24852 -0.39687,-0.0168 -0.39688,-0.0168 -1.32292,-0.16911 -1.32291,-0.16911 -0.39688,-0.14311 -0.39687,-0.1431 0.52916,-0.21759 0.52917,-0.21759 -0.59531,-0.0186 -0.59531,-0.0186 v 0.22415 0.22415 l -0.59532,0.28711 -0.59531,0.28711 1.33615,0.0179 1.33614,0.0179 0.25136,0.2389 0.25135,0.2389 0.52917,0.12728 0.52916,0.12728 3.24115,0.0307 3.24115,0.0307 z m -2.71198,-1.77701 -0.72761,-0.11022 v -0.3793 -0.3793 h 0.51027 0.51027 l 0.41577,0.41577 0.41578,0.41578 v 0.11339 0.11339 l -0.19844,-0.0396 -0.19844,-0.0396 z m 8.81828,1.71087 0.0209,-0.33073 0.13345,0.33073 0.13346,0.33073 h 1.61534 1.61534 l -0.568,-0.52917 -0.56799,-0.52917 h -0.2129 -0.21291 l -0.26118,-0.57622 -0.26118,-0.57621 -1.25165,-0.85556 -1.25166,-0.85556 -0.53428,0.13972 -0.53428,0.13972 v -0.29545 -0.29544 h -0.2958 -0.2958 l -0.96097,-0.84617 -0.96097,-0.84617 0.0608,-0.19604 0.0608,-0.19604 -0.45765,-0.11609 -0.45765,-0.11609 -1.16995,-0.0201 -1.16996,-0.0201 1.02227,0.84264 1.02227,0.84264 0.61071,-0.08 0.61071,-0.08 v 0.30015 0.30015 l -0.46303,-0.0784 -0.46302,-0.0784 -0.0661,0.1941 -0.0661,0.1941 v 0.27113 0.27114 l 0.66146,0.25148 0.66146,0.25149 v 0.28896 0.28896 l 0.5623,-0.17847 0.5623,-0.17846 -0.20424,0.35907 -0.20424,0.35908 0.35631,-0.33073 0.35632,-0.33073 h 0.35957 0.35958 l -0.16353,0.26458 -0.16352,0.26459 h 0.51239 0.51238 l 0.34612,0.41704 0.34611,0.41704 -0.37986,0.23837 -0.37986,0.23838 -0.46303,-0.14408 -0.46302,-0.14408 v 0.30718 0.30719 l 0.52917,0.13838 0.52917,0.13838 v 0.23372 0.23373 h 0.66145 0.66146 z m 0.85527,-0.78819 -0.2147,-0.33629 -0.79375,-0.44635 -0.79375,-0.44635 -6.8e-4,-0.3474 -6.9e-4,-0.3474 -0.39619,-0.0356 -0.39619,-0.0356 -0.26458,-0.0491 -0.26459,-0.0491 0.52917,-0.21103 0.52917,-0.21103 0.98159,1.02338 0.98159,1.02338 h 0.40747 0.40747 v 0.24896 0.24897 l -0.24832,0.15347 -0.24832,0.15348 z m -13.42677,-1.88062 0.37978,0.14573 v -0.43347 -0.43347 l -0.91856,0.0619 -0.91857,0.0619 0.44878,0.49589 0.44877,0.49589 0.09,-0.27002 0.09,-0.27002 z m -22.40523,-1.8206 -0.25236,-0.47153 h -0.23966 -0.23966 l -0.16352,0.26458 -0.16352,0.26459 h 0.40594 0.40594 l -0.25803,0.67868 -0.25804,0.67868 0.006,0.18121 0.006,0.18122 0.50175,-0.65295 0.50175,-0.65294 z m -1.15978,0.32222 -0.47889,-0.52917 h 0.30559 0.30559 v -0.35216 -0.35217 l -0.66651,-0.3567 -0.6665,-0.35671 0.33578,-0.2222 0.33577,-0.2222 -0.52916,-0.41052 -0.52917,-0.41052 0.0661,-0.24591 0.0662,-0.24591 h -0.23373 -0.23372 l -0.13838,-0.52916 -0.13838,-0.52917 -0.3555,0.0209 -0.3555,0.0209 0.33073,0.13345 0.33073,0.13345 v 0.53543 0.53542 l -0.41103,-0.15772 -0.41102,-0.15773 -0.564907,0.52629 -0.564908,0.5263 0.512911,0.0313 0.512914,0.0314 0.28736,-0.033 0.28737,-0.033 0.50638,1.05693 0.50639,1.05694 0.22674,0.003 0.22675,0.003 -0.14609,0.3807 -0.14609,0.3807 0.71309,0.10883 0.7131,0.10882 0.23944,0.0396 0.23945,0.0397 z m 3.45655,-0.73268 -0.15808,-0.15808 -0.30188,0.30187 -0.30187,0.30188 0.37243,0.45175 0.37243,0.45175 0.0875,-0.59555 0.0875,-0.59554 z m 5.40699,-0.30676 v -0.51026 l -0.39687,-0.39688 -0.39688,-0.39687 v -0.1279 -0.12789 l 0.65409,0.0718 0.65408,0.0718 -0.12656,-0.20479 -0.12657,-0.20479 0.33237,-0.13789 0.33238,-0.13789 -0.59679,-0.52363 -0.59678,-0.52362 0.26005,-0.0887 0.26006,-0.0887 -0.77104,-0.44112 -0.77105,-0.44113 0.1439,0.37498 0.14389,0.37498 h -0.28458 -0.28459 l 0.14229,0.3708 0.14229,0.37081 0.51086,0.13359 0.51087,0.1336 v 0.40237 0.40238 l -0.801,-0.10137 -0.80099,-0.10137 0.40412,0.40412 0.40412,0.40412 v 0.10509 0.10509 l -0.39688,-0.1523 -0.39687,-0.15229 v 0.44079 0.4408 l 0.25753,-0.15916 0.25753,-0.15917 0.46273,0.54043 0.46273,0.54042 h 0.20578 0.20578 z m 1.58345,-0.085 -0.004,-0.59531 -0.25648,-0.39688 -0.25648,-0.39687 -0.0335,0.33073 -0.0335,0.33073 v 0.52916 0.52917 l 0.0294,0.13229 0.0294,0.13229 h 0.26459 0.26458 z m 15.34988,0.0378 v -0.29289 l 0.41062,0.15757 0.41062,0.15756 -0.16165,-0.26155 -0.16165,-0.26155 h 0.29759 0.2976 l 0.51177,0.27389 0.51177,0.27389 v -0.27389 -0.27389 l -0.33073,-0.004 -0.33073,-0.004 0.39688,-0.28549 0.39687,-0.2855 -0.45602,0.14627 -0.45603,0.14626 -0.21311,-0.38081 -0.21311,-0.38081 -0.89336,-0.17867 -0.89336,-0.17867 0.18905,0.30588 0.18905,0.30589 h -0.52917 -0.52917 l -0.18878,0.30546 -0.18879,0.30547 0.25195,-0.15572 0.25195,-0.15571 0.38424,0.24307 0.38425,0.24308 -1.19063,0.008 -1.19062,0.008 0.39687,0.26006 0.39688,0.26007 0.7276,-0.15285 0.7276,-0.15284 v 0.2856 0.28561 h 0.39688 0.39687 z m -23.54791,-1.20642 v -0.35277 h -0.36602 -0.36601 l -0.13832,-0.52891 -0.13831,-0.5289 0.19155,-0.11838 0.19155,-0.11839 0.37119,0.515 0.37119,0.51499 h 0.25909 0.25909 l -0.3175,-0.3175 -0.3175,-0.3175 v -0.47625 -0.47625 l -0.55661,-0.5566 -0.5566,-0.55661 -0.30329,-0.0649 -0.30329,-0.0649 -0.47444,-0.20494 -0.47443,-0.20494 -0.15507,0.15507 -0.15507,0.15507 0.6295,0.28699 0.62951,0.28699 0.0392,0.66557 0.0392,0.66558 -0.43607,-0.37328 -0.43606,-0.37327 -0.46391,-0.16454 -0.4639,-0.16454 0.41795,0.63786 0.41795,0.63787 0.70741,0.0818 0.70741,0.0818 v 0.39688 0.39687 l -0.48066,-0.0397 -0.48066,-0.0397 0.14525,0.14524 0.14524,0.14525 0.6,0.30703 0.6,0.30704 0.33073,0.006 0.33073,0.006 z m -8.891332,-0.13315 -0.19131,-0.30955 0.440279,0.16895 0.440278,0.16895 v -0.38857 -0.38857 h -0.211667 -0.211666 l -0.289095,0.28909 -0.289094,0.2891 -0.623718,-0.3276 -0.623718,-0.32759 0.504028,0.56767 0.504028,0.56766 h 0.371482 0.371483 z m 10.991012,-1.01337 h 0.2088 l -0.0726,-0.66146 -0.0726,-0.66146 h 0.35796 0.35796 l 0.16353,0.26458 0.16352,0.26459 h -0.30851 -0.3085 l 0.15229,0.39687 0.1523,0.39688 h -0.22798 -0.22797 l -0.13395,0.34907 -0.13395,0.34908 0.83325,-0.0618 0.83325,-0.0618 0.19843,-0.0227 0.19844,-0.0227 v -0.2802 -0.28019 l -0.33073,0.16752 -0.33073,0.16753 0.43523,-0.35919 0.43522,-0.3592 -0.33935,-0.46408 -0.33934,-0.46409 -0.22817,0.0661 -0.22817,0.0661 -0.56887,-0.31595 -0.56886,-0.31595 -0.1994,0.45818 -0.19941,0.45817 0.0573,0.46302 0.0573,0.46303 h -0.25916 -0.25917 l -0.13345,-0.33073 -0.13345,-0.33073 -0.0209,0.4101 -0.0209,0.41011 0.33073,0.333 0.33073,0.33301 0.0855,-0.41238 0.0855,-0.41238 z m 23.03573,-0.39688 v -0.92604 H 130.66458 130.4 v 0.74965 0.74965 l 0.17639,0.17639 0.17638,0.17639 h 0.0882 0.0882 z m -12.43541,-0.66146 v -0.26458 h -0.36602 -0.36602 l -0.18095,-0.59531 -0.18096,-0.59532 -0.14164,0.34604 -0.14163,0.34604 0.46503,0.51386 0.46503,0.51386 h 0.22358 0.22358 z m -8.00832,-1.0807 0.14423,-0.55153 0.22383,0.3531 0.22382,0.35309 0.004,-0.47462 0.004,-0.47462 -0.33073,0.0533 -0.33073,0.0533 -0.4615,-0.20175 -0.4615,-0.20174 0.11499,-0.18606 0.11499,-0.18607 -1.08597,-0.0641 -1.08597,-0.0641 0.34536,0.41613 0.34535,0.41613 0.45446,-0.14424 0.45446,-0.14424 0.33191,0.39993 0.33192,0.39994 0.23461,-0.14499 0.2346,-0.145 v 0.41249 0.41249 h -0.26234 -0.26234 l -0.33047,-0.52916 -0.33047,-0.52917 h -0.20094 -0.20094 l 0.0662,0.33073 0.0661,0.33073 0.52917,0.32135 0.52916,0.32135 0.22321,0.009 0.22321,0.009 z m 11.60546,-0.28309 0.18878,-0.30547 -0.35042,0.21658 -0.35043,0.21657 0.15658,-0.40803 0.15658,-0.40804 -0.31005,-0.32656 -0.31006,-0.32657 0.66146,0.17467 0.66146,0.17466 -0.46512,-0.29154 -0.46511,-0.29153 -0.25094,0.15508 -0.25093,0.15509 0.12074,0.3884 0.12073,0.3884 0.12399,0.39687 0.12399,0.39688 h 0.12498 0.12498 z m -4.81468,-1.32559 -0.10868,-0.17584 0.20009,-0.11152 0.20009,-0.11153 -0.33073,0.0806 -0.33073,0.0806 v -0.19014 -0.19013 h -0.7749 -0.77489 l 0.35916,0.39688 0.35917,0.39687 h 0.65505 0.65504 z m 8.0967,-0.38163 v -0.42519 l 0.38542,0.1479 0.38541,0.1479 -0.31864,-0.69934 -0.31864,-0.69935 -0.0925,0.51361 -0.0924,0.51361 -0.2389,0.25135 -0.2389,0.25136 v 0.21166 0.21167 h 0.26458 0.26458 z m -9.75709,-1.17803 -0.0998,-0.38117 -0.0104,-0.31934 -0.0104,-0.31934 -0.34431,-0.13212 -0.3443,-0.13213 -0.15905,0.25735 -0.15905,0.25734 -0.31244,-0.1951 -0.31245,-0.1951 -0.45934,-0.0716 -0.45934,-0.0716 0.58652,0.67456 0.58653,0.67456 0.0933,-0.27991 0.0933,-0.27991 0.44097,0.0209 0.44098,0.0209 -0.31587,0.1285 -0.31587,0.12849 0.15072,0.39277 0.15072,0.39277 0.42973,-0.0948 0.42973,-0.0948 z m 10.27386,-3.04194 -0.31698,-0.38193 0.23084,-0.0313 0.23083,-0.0313 0.19844,0.0313 0.19844,0.0313 v -0.11066 -0.11065 l -0.15799,-0.41171 -0.15799,-0.41172 -0.33627,0.33627 -0.33627,0.33627 -0.16716,0.52667 -0.16716,0.52667 0.54913,0.0414 0.54912,0.0414 z m -3.82406,-1.44027 -0.16352,-0.26458 0.34634,-0.0313 0.34635,-0.0313 0.19844,0.0313 0.19843,0.0313 v -0.23373 -0.23372 l -0.52916,-0.13838 -0.52917,-0.13838 v 0.41311 0.41311 l -0.5029,-0.45511 -0.5029,-0.45512 -0.19944,0.3227 -0.19944,0.3227 0.25827,-0.15962 0.25827,-0.15962 0.44148,0.51561 0.44148,0.51562 h 0.1505 0.15049 z m 10.00769,-1.91823 -0.21,-0.33073 -0.0371,-0.19843 -0.0371,-0.19844 -0.0331,-0.25628 -0.0331,-0.25628 -0.39688,0.1523 -0.39687,0.15229 v -0.22964 -0.22963 l -0.93878,-1.05544 -0.93879,-1.05545 -1.09188,-1.5875 -1.09188,-1.5875 -0.16489,-0.13229 -0.1649,-0.13229 -0.63938,-0.92604 -0.63938,-0.92604 -0.67079,-0.69733 -0.67079,-0.69733 -0.83202,-1.02246 -0.83202,-1.02247 -0.62319,-0.67519 -0.62319,-0.67519 -1.05833,-1.27237 -1.05833,-1.27236 v -0.23525 -0.23526 l -0.26459,-0.0188 -0.26458,-0.0189 -0.47235,-0.42747 -0.47235,-0.42747 0.11419,-0.2976 0.1142,-0.2976 -0.49586,-0.64514 -0.49586,-0.64514 -0.006,0.27782 -0.006,0.27781 0.3175,0.3175 0.3175,0.3175 h -0.3175 -0.3175 v -0.25977 -0.25977 l -0.85989,-0.89134 -0.8599,-0.89134 -1.56388,-1.77685 -1.56388,-1.77685 -0.68508,-0.74376 -0.68507,-0.74377 -0.52917,-0.63609 -0.52917,-0.63608 -0.37485,-0.46882 -0.37485,-0.46882 -0.33668,-1.63951 -0.33669,-1.63952 -0.30528,-1.05833 -0.30528,-1.05834 -0.26137,-1.71979 -0.26136,-1.71979 -0.11864,-0.60613 -0.11864,-0.60614 -0.22505,0.13909 -0.22506,0.1391 -0.42864,1.3105 -0.42865,1.31051 v 0.35626 0.35626 l -0.77399,0.4572 -0.77398,0.45721 -0.94137,-0.99547 -0.94136,-0.99547 0.16276,-0.51683 0.16276,-0.51683 -0.45806,0.45806 -0.45806,0.45806 0.35701,0.45221 0.357,0.45221 0.48599,0.5326 0.486,0.5326 0.83692,1.02199 0.83692,1.02199 0.79375,0.84266 0.79375,0.84267 1.04315,1.31034 1.04315,1.31035 1.00737,1.01255 1.00737,1.01256 v 0.23509 0.2351 l 0.72761,0.75461 0.7276,0.75461 0.66146,0.88206 0.66146,0.88206 1.45521,1.51636 1.45521,1.51636 2.11636,2.57574 2.11636,2.57575 0.42008,0.29962 0.42008,0.29961 0.98484,1.37617 0.98485,1.37617 0.51361,0.16302 0.51361,0.16301 v 0.25792 0.25792 l 0.26949,0.31956 0.26948,0.31956 0.55381,0.66146 0.5538,0.66146 0.96264,1.19027 0.96265,1.19027 0.33246,0.35172 0.33247,0.35171 0.29956,0.55974 0.29957,0.55975 0.94128,1.01734 0.94128,1.01735 0.41107,0.51544 0.41106,0.51544 0.34635,0.004 0.34634,0.004 z m -69.935811,-4.82309 3.307292,-0.15159 5.688541,-0.12068 5.688542,-0.12068 0.992187,-0.005 0.992188,-0.005 v -0.42541 -0.42542 l -2.579688,0.17032 -2.579687,0.17031 -7.011458,0.25819 -7.011459,0.25819 -1.130929,0.16491 -1.13093,0.1649 -0.164089,0.2655 -0.164089,0.2655 0.898143,-0.15648 0.898144,-0.15649 z m 81.227081,0.10536 -0.39688,-0.27787 0.60827,0.17157 0.60827,0.17156 0.71465,-0.471 0.71465,-0.47101 -0.66146,-0.17071 -0.66146,-0.17072 -0.25339,0.14019 -0.25339,0.14019 -0.62561,0.0667 -0.62562,0.0667 0.34984,-0.42388 0.34984,-0.42389 -0.38981,0.12886 -0.3898,0.12886 -0.0423,0.84021 -0.0423,0.8402 0.69664,-0.004 0.69665,-0.004 z m -41.97284,-1.03956 -0.2282,-0.22088 -5.693155,-0.18795 -5.693156,-0.18794 -0.358512,0.43198 -0.358512,0.43198 4.067292,0.009 4.067293,0.009 1.984375,0.15084 1.984375,0.15084 0.12678,0.12097 0.12678,0.12097 0.10142,-0.30427 0.10143,-0.30427 z m 53.61451,-28.70468 V 149.96023 H 105 54.993749 v 24.07708 24.07709 l 1.918229,0.0508 1.918229,0.0508 0.661459,-0.0209 0.661458,-0.021 5.027083,0.21515 5.027083,0.21516 1.087099,-0.20265 1.087099,-0.20266 0.484825,0.35451 0.484825,0.35452 h 0.229629 0.229628 l -0.163521,-0.26459 -0.163522,-0.26458 h 0.280199 0.280198 l 0.03135,0.33073 0.03135,0.33073 -0.0565,0.39687 -0.0565,0.39688 -0.06927,0.0724 -0.06927,0.0724 -0.433225,-0.16625 -0.433224,-0.16624 0.146387,-0.23686 0.146387,-0.23686 h -0.41249 -0.41249 v 0.39687 0.39688 h 0.374826 0.374827 l 0.119771,0.33073 0.119772,0.33073 0.53516,-0.31513 0.53516,-0.31512 1.600845,0.48469 1.600844,0.4847 0.204946,-0.16957 0.204945,-0.16957 -0.364797,0.47554 -0.364797,0.47555 -0.217742,-0.34326 -0.217741,-0.34325 -0.0041,0.1768 -0.0041,0.1768 -0.164751,0.42933 -0.164751,0.42934 0.230897,-0.077 0.230897,-0.077 0.07041,0.20124 0.07041,0.20123 -0.408171,0.62295 -0.408172,0.62295 0.255292,0.67147 0.255293,0.67147 0.280903,0.17361 0.280904,0.17361 0.03135,-1.00781 0.03135,-1.0078 -0.05167,-0.3687 -0.05167,-0.3687 0.218756,-0.16047 0.218756,-0.16046 0.595313,-1.14948 0.595312,-1.14949 v -0.66175 -0.66176 l 0.472667,-0.7023 0.472667,-0.70231 0.300821,-0.92604 0.300821,-0.92604 0.44771,-2.11667 0.44771,-2.11666 0.763177,-1.62533 0.763177,-1.62533 v -0.40957 -0.40958 l 0.264583,-0.16352 0.264584,-0.16353 0.0083,-0.57969 0.0083,-0.5797 0.645823,-1.31885 0.645823,-1.31885 -0.698048,-0.5566 -0.698048,-0.5566 0.303092,-0.18732 0.303092,-0.18733 1.129921,0.29425 1.129922,0.29425 1.250242,0.40369 1.250243,0.40368 0.337257,-0.13563 0.337258,-0.13562 -0.488323,-0.0209 -0.488323,-0.0209 -0.711236,-0.50644 -0.711235,-0.50645 -0.973828,-0.18269 -0.973827,-0.18269 -0.306407,-0.3692 -0.306407,-0.3692 h 0.38595 0.385951 l 0.437357,-1.81203 0.437358,-1.81203 0.574919,-1.29682 0.57492,-1.29682 0.117613,0.34928 0.117613,0.34929 0.391604,-0.55909 0.391603,-0.55909 -0.305829,-0.3685 -0.30583,-0.36851 -0.841613,-0.18426 -0.841614,-0.18427 -1.3338,-0.85243 -1.333801,-0.85244 -0.981304,-0.46566 -0.981303,-0.46566 v -0.87554 -0.87554 l 0.814103,-0.81411 0.814102,-0.8141 0.310377,-5.6e-4 0.310376,-5.6e-4 2.054234,-1.05777 2.054234,-1.05778 h 0.350661 0.350661 l 0.979207,1.05834 0.979207,1.05833 h 0.346156 0.346156 l -0.230616,-1.47062 -0.230617,-1.47063 0.151879,-0.24574 0.151879,-0.24575 1.179349,-0.81141 1.179349,-0.81141 0.266676,0.16481 0.266675,0.16482 -0.152222,0.2463 -0.152223,0.2463 h 0.41249 0.41249 v 0.23151 0.23151 l 0.853763,0.17075 0.853762,0.17075 0.730829,-0.54032 0.73083,-0.54033 0.663775,0.1666 0.663774,0.1666 0.408877,-0.1569 0.408876,-0.1569 -0.289268,-0.54051 -0.289268,-0.5405 -0.317454,0.17852 -0.317454,0.17852 0.298184,-0.32378 0.298184,-0.32377 1.090874,0.32684 1.09088,0.32683 v 0.27665 0.27665 l -1.22544,2.52574 -1.225435,2.52575 -0.251954,0.16161 -0.251953,0.16162 0.401965,0.15425 0.401965,0.15425 0.129243,-0.31587 0.129242,-0.31586 0.266548,0.38307 0.266547,0.38308 0.186952,-0.77995 0.18696,-0.77995 0.19161,-0.26459 0.19162,-0.26458 0.17914,-0.74882 0.17914,-0.74882 0.55623,-1.27387 0.55623,-1.27387 0.95701,-0.15303 0.957,-0.15303 1.08073,-0.70076 1.08072,-0.70075 0.30609,-0.84648 0.30609,-0.84647 v -0.46189 -0.46189 l -0.66146,-0.86722 -0.66146,-0.86722 v -0.42243 -0.42243 l 0.29417,-0.1818 0.29416,-0.18181 0.16886,0.24146 0.16886,0.24146 0.79375,0.6077 0.79375,0.6077 0.934,0.83838 0.93401,0.83839 1.68095,1.13544 1.68094,1.13544 -0.17031,-0.85157 -0.17031,-0.85156 -0.0634,-0.0496 -0.0634,-0.0495 -2.07421,-1.2049 -2.0742,-1.2049 0.6831,-0.44758 0.6831,-0.44759 0.39044,0.14983 0.39044,0.14983 0.15638,-0.25303 0.15638,-0.25303 h -0.28244 -0.28244 l 0.24751,-0.46302 0.24752,-0.46302 0.1433,-0.46302 0.1433,-0.46302 h 0.93435 0.93434 l 0.006,0.33073 0.006,0.33073 1.02881,0.7276 1.02882,0.7276 h 0.38026 0.38026 l 0.61014,0.52917 0.61013,0.52917 h -0.20517 -0.20517 l 0.30697,0.36988 0.30697,0.36988 0.10604,0.5506 0.10603,0.55059 -0.26555,0.16413 -0.26556,0.16412 0.43135,0.47663 0.43134,0.47663 -0.28613,0.17684 -0.28614,0.17685 0.15035,0.24327 0.15035,0.24327 -0.45402,-0.17423 -0.45402,-0.17422 0.20883,0.33789 0.20883,0.33789 -0.62845,-0.15819 -0.62844,-0.1582 0.33073,0.1519 0.33073,0.1519 v 0.39254 0.39254 l -1.14004,-0.93417 -1.14003,-0.93417 -0.42989,0.50208 -0.4299,0.50208 1.15145,1.06137 1.15145,1.06137 -0.37527,0.31144 -0.37527,0.31145 v 0.36448 0.36447 h -0.66146 -0.66146 v 0.61089 0.61089 l -0.35862,0.49044 -0.35861,0.49043 -0.45915,-0.17619 -0.45916,-0.1762 -0.74443,0.53008 -0.74443,0.53008 h -0.182 -0.18201 l -0.65393,0.51438 -0.65393,0.51439 -0.37999,-0.14582 -0.37999,-0.14581 v 0.81506 0.81506 l -0.9226,1.89574 -0.9226,1.89573 -0.73104,0.95553 -0.73105,0.95553 -0.0753,0.52917 -0.0753,0.52917 -0.005,0.49292 -0.005,0.49293 0.16233,0.16233 0.16233,0.16234 0.90026,-1.05214 0.90026,-1.05213 0.01,-0.19974 0.01,-0.19973 0.60125,-1.25548 0.60124,-1.25547 0.36715,-1.12448 0.36714,-1.12448 h 0.22612 0.22613 l 0.5245,0.8599 0.52451,0.85989 0.14752,0.92604 0.14751,0.92605 0.25013,0.45943 0.25013,0.45943 v 0.53843 0.53843 l -0.66146,0.30138 -0.66146,0.30138 v 0.2065 0.20649 l 0.22971,0.14197 0.22971,0.14197 0.1764,1.395 0.17639,1.395 0.56578,1.19063 0.56578,1.19062 0.18952,0.52917 0.18952,0.52917 0.41526,1.5875 0.41525,1.5875 0.15109,0.97066 0.15108,0.97067 0.78245,1.54287 0.78244,1.54288 0.003,0.43799 0.003,0.43798 0.8599,1.01722 0.8599,1.01722 0.89332,0.0875 0.89332,0.0875 0.59472,0.57391 0.59472,0.57391 0.68681,0.4941 0.6868,0.4941 0.16442,0.51803 0.16441,0.51802 0.12764,-0.12764 0.12765,-0.12764 -0.39246,-0.75893 -0.39246,-0.75893 0.96826,0.0436 0.96826,0.0436 0.66146,0.17801 0.66146,0.17802 2.91042,0.10328 2.91041,0.10329 v 0.0467 0.0467 l 0.66146,0.0848 0.66146,0.0848 1.32292,0.26746 1.32291,0.26746 0.79375,0.14891 0.79375,0.14892 1.45521,0.26171 1.45521,0.26171 1.38428,0.30244 1.38428,0.30244 0.1549,0.48806 0.15491,0.48805 h 0.52916 0.52917 l -0.16088,-0.5069 -0.16089,-0.5069 0.2092,-0.11774 0.2092,-0.11774 0.76918,0.32415 0.76917,0.32415 -0.35011,0.11671 -0.35011,0.1167 0.40081,0.37441 0.4008,0.37441 -0.13394,0.51221 -0.13395,0.51221 0.30627,-0.18928 0.30626,-0.18928 v 0.44488 0.44489 l 0.39687,-0.32938 0.39688,-0.32937 v -0.23219 -0.23219 h -0.39688 -0.39687 v -0.36018 -0.36019 l 0.62905,0.12026 0.62906,0.12025 -0.12148,0.90139 -0.12147,0.90139 h 0.26412 0.26412 l 0.0968,-0.29029 0.0968,-0.29028 1.10474,0.29747 1.10474,0.29748 0.15311,0.24774 0.15312,0.24775 -0.55784,0.55783 -0.55784,0.55784 -0.58693,-0.68306 -0.58694,-0.68307 -0.3311,0.33111 -0.33111,0.3311 -0.1944,-0.31455 -0.1944,-0.31455 -0.38989,0.24656 -0.3899,0.24657 0.47864,0.004 0.47864,0.004 -0.14877,0.24071 -0.14876,0.2407 0.16729,0.43596 0.16729,0.43596 0.37648,-0.14447 0.37647,-0.14447 -0.16165,0.26156 -0.16165,0.26155 h -0.41348 -0.41366 l 0.33937,0.40892 0.33937,0.40891 0.37179,-0.14267 0.37178,-0.14266 -0.16231,0.51138 -0.1623,0.51139 0.52448,0.2807 0.52449,0.2807 h 0.42989 0.42988 l -0.1987,-0.33073 -0.19869,-0.33073 0.41981,0.34001 0.41982,0.34001 0.35858,-0.0754 0.35857,-0.0754 v 0.52917 0.52917 l 0.39688,0.32231 0.39687,0.32232 0.34963,0.008 0.34963,0.008 0.36097,-0.36097 0.36096,-0.36097 -0.30049,-0.30049 -0.30049,-0.30049 h 0.29586 0.29586 l 0.4407,0.16911 0.4407,0.16911 -0.35291,0.22372 -0.35292,0.22371 0.66146,0.0242 0.66146,0.0242 0.92604,0.35661 0.92604,0.35662 0.0662,0.0201 0.0661,0.0201 z m -94.748987,25.43392 0.301224,-0.36296 -0.86414,-0.18189 -0.86414,-0.1819 -1.414662,-0.2392 -1.414662,-0.23919 -0.503567,-0.15983 -0.503567,-0.15982 v 0.94387 0.94387 h 2.481145 2.481145 z m 35.309941,-1.60232 -0.753664,-0.90694 -0.235415,-0.0191 -0.235415,-0.0191 -0.351483,0.46302 -0.351483,0.46302 -0.0084,0.24901 -0.0084,0.24901 0.396875,-0.51359 0.396875,-0.51359 0.330729,0.41608 0.330729,0.41608 0.529167,0.30348 0.529167,0.30348 0.09221,0.008 0.0922,0.008 z m 11.780146,-6.26336 -0.36298,-0.22993 0.58701,-0.004 0.58701,-0.004 -0.15765,-0.41083 -0.15765,-0.41083 1.37223,0.0957 1.37222,0.0957 0.1327,-0.21472 0.1327,-0.21471 0.47833,0.25599 0.47832,0.25599 0.16708,-0.16708 0.16708,-0.16708 0.0209,0.50712 0.0209,0.50711 0.12904,-0.31747 0.12903,-0.31748 0.70459,0.26788 0.70459,0.26789 0.19977,0.31417 0.19977,0.31418 -7.6e-4,-0.26458 -7.7e-4,-0.26459 -0.72279,-0.89132 -0.72278,-0.89133 -1.32292,-1.64112 -1.32292,-1.64113 -0.66146,-0.87625 -0.66145,-0.87626 -0.41338,-0.47714 -0.41337,-0.47714 -0.51267,-0.6997 -0.51267,-0.69969 -0.39687,-0.47242 -0.39688,-0.47241 -0.66146,-0.86429 -0.66145,-0.86429 -0.39688,-0.47162 -0.39687,-0.47162 -0.39688,-0.4854 -0.39687,-0.48541 -0.48372,-0.74977 -0.48372,-0.74978 -0.52396,0.47417 -0.52395,0.47418 -0.41695,-0.263 -0.41694,-0.263 -0.478828,-1.18109 -0.478828,-1.18108 -0.01478,0.48918 -0.01478,0.48918 0.419118,0.96603 0.419118,0.96603 0.24234,0.45943 0.24234,0.45943 v 0.27923 0.27924 l 0.52917,0.56799 0.52916,0.568 v 0.34698 0.34699 h -0.53847 -0.53848 l 0.26378,0.49288 0.26378,0.49287 0.74408,0.30821 0.74407,0.3082 0.72124,1.19408 0.72125,1.19407 v 0.89321 0.89321 l -0.31721,0.10574 -0.31721,0.10574 0.63923,0.9085 0.63923,0.90849 0.34916,0.35935 0.34916,0.35935 0.97887,1.70195 0.97888,1.70195 0.10199,-0.30596 0.10198,-0.30596 z m -8.117072,-11.54611 -0.345763,-0.12313 -0.646425,-0.64642 -0.646425,-0.64643 0.0041,0.21046 0.0041,0.21047 0.194386,0.26904 0.194386,0.26904 0.661458,0.42964 0.661459,0.42964 0.132291,-0.13959 0.132292,-0.13959 z m 1.952952,-6.48516 -0.0873,-0.85989 -0.19332,-0.72761 -0.19331,-0.7276 h -0.35989 -0.359884 l 0.152294,0.39688 0.1523,0.39687 h 0.23627 0.23628 l 0.004,0.59531 0.004,0.59532 0.15954,0.59531 0.15953,0.59531 h 0.0888 0.0888 z m -10.920605,-8.75837 -0.211585,-0.35785 -0.678093,-0.79423 -0.678093,-0.79424 -0.719227,-0.47125 -0.719226,-0.47126 -0.19018,0.19091 -0.190181,0.19091 0.529167,0.44024 0.529167,0.44025 0.0809,0.52917 0.0809,0.52916 0.712847,0.57555 0.712847,0.57555 0.264583,0.25141 0.264583,0.2514 0.211585,-0.36393 0.211585,-0.36394 z m -1.666793,-2.9444 v -0.39183 l -0.67378,-0.16911 -0.67378,-0.16911 -0.14002,0.14002 -0.14002,0.14002 0.747654,0.39286 0.747654,0.39285 0.06615,0.0281 0.06615,0.0281 z m 27.516668,-9.14878 v -0.2802 l -0.23686,0.14639 -0.23686,0.14639 -0.20202,-0.4615 -0.20202,-0.4615 0.0609,-0.26459 0.0609,-0.26458 -0.33373,0.32805 -0.33372,0.32805 -0.0608,0.41432 -0.0608,0.41432 0.34473,-0.2861 0.34473,-0.28611 0.15489,0.40363 0.15488,0.40363 h 0.27289 0.27289 z"
       id="path12" /></g></svg>
