<?xml version="1.0" encoding="UTF-8" standalone="no"?>
<!-- Created with Inkscape (http://www.inkscape.org/) -->

<svg
   width="101.59999mm"
   height="84.666664mm"
   viewBox="0 0 101.59999 84.666664"
   version="1.1"
   id="svg1"
   xml:space="preserve"
   xmlns="http://www.w3.org/2000/svg"
   xmlns:svg="http://www.w3.org/2000/svg"><defs
     id="defs1" /><g
     id="layer1"
     transform="translate(-48.685216,-60.463968)"><path
       style="fill:#ffffff;fill-opacity:1"
       d="M 48.685213,102.7973 V 60.46397 h 50.8 50.799997 v 42.33333 42.33333 h -50.799997 -50.8 z m 9.215105,40.98465 0.34656,-0.55493 0.151663,0.15166 0.151662,0.15167 -0.346148,0.41708 -0.346147,0.41708 3.814173,-0.18127 3.814173,-0.18127 0.33073,-0.26182 0.330729,-0.26181 v -0.37762 -0.37761 l 0.388702,-0.75167 0.388702,-0.75167 -1.482788,0.75833 -1.482785,0.75832 -0.228832,-0.14142 -0.228832,-0.14143 v -0.36144 -0.36143 l 1.105043,-0.61514 1.105043,-0.61513 0.101643,-0.31277 0.101644,-0.31277 -0.875958,-0.097 -0.875957,-0.097 0.529167,-0.20952 0.529166,-0.20951 0.575142,-0.27451 0.575141,-0.2745 0.157504,-0.62755 0.157503,-0.62754 0.656418,-0.0397 0.656417,-0.0397 0.33073,-0.0265 0.330729,-0.0265 0.264583,-0.299 0.264583,-0.29899 0.709609,-0.16455 0.709608,-0.16455 0.168117,0.52969 0.168117,0.52969 0.974358,0.0305 0.974358,0.0305 0.467679,-0.0479 0.467678,-0.0479 1.459601,0.42431 1.4596,0.42432 0.24967,-0.1543 0.249671,-0.15431 1.341099,0.39827 1.341099,0.39826 2.501222,-1.28135 2.501222,-1.28135 v 0.2623 0.2623 l 0.727605,-0.19782 0.727604,-0.19782 0.79375,0.0452 0.79375,0.0453 0.07883,0.2281 0.07883,0.2281 0.51648,-0.13507 0.516481,-0.13506 v -1.81461 -1.81461 l -0.859896,0.15819 -0.859896,0.15819 -1.665228,0.52334 -1.665228,0.52334 -1.112897,-0.12196 -1.112897,-0.12197 -1.256771,0.78432 -1.25677,0.78432 v 0.36929 0.36929 h -0.264584 -0.264583 v -0.26458 -0.26458 h -0.364478 -0.364478 l -0.317093,-0.38208 -0.317092,-0.38207 0.535827,-0.33463 0.535827,-0.33463 -0.283528,-0.34163 -0.283529,-0.34163 h -1.158228 -1.158228 v -0.22048 -0.22049 l 0.198437,-0.19998 0.198438,-0.19998 0.02355,-1.10089 0.02355,-1.10089 0.571765,-1.45147 0.571765,-1.45147 v -0.84802 -0.84802 l 0.264583,-0.16352 0.264584,-0.16352 v 1.85048 1.85047 l -0.264846,0.6966 -0.264845,0.69659 0.169995,1.06309 0.169995,1.06309 0.425579,0.12894 0.42558,0.12893 0.459431,0.24527 0.45943,0.24527 h 0.384851 0.38485 l 0.163234,-0.26412 0.163235,-0.26412 -0.412203,-0.5885 -0.412203,-0.5885 v -0.4703 -0.47029 h 0.272887 0.272887 l 0.152296,0.39687 0.152295,0.39688 h 0.236276 0.236276 v -2.86941 -2.86941 l -0.522928,-0.47324 -0.522927,-0.47325 0.151241,-0.24471 0.15124,-0.24471 0.830928,0.1825 0.830927,0.1825 0.312877,0.42789 0.312876,0.42788 0.219174,-0.21917 0.219173,-0.21918 -0.991291,-0.90845 -0.99129,-0.90845 v -0.27033 -0.27033 l 0.595312,0.30517 0.595313,0.30518 0.960595,0.91761 0.960595,0.9176 0.560759,-0.6019 0.560759,-0.60191 v -0.33137 -0.33137 l -0.315114,-0.19475 -0.315115,-0.19475 -0.103809,0.31143 -0.10381,0.31145 h -0.466111 -0.466111 l -0.483039,-0.53375 -0.483039,-0.53376 -1.457037,-0.78916 -1.457036,-0.78917 h -0.217599 -0.217598 v 0.50712 0.50712 l 0.330729,0.15727 0.33073,0.15728 -0.592114,-0.10962 -0.592114,-0.10962 -1.016581,1.23117 -1.016581,1.23116 -0.212144,0.36194 -0.212145,0.36193 -0.251742,0.96098 -0.251743,0.96098 -0.261543,1.32292 -0.261545,1.32292 -0.139738,1.42323 -0.139739,1.42324 0.329605,0.2037 0.329607,0.20371 -0.162542,0.42358 -0.162542,0.42358 h -1.207233 -1.207233 l -0.154987,-0.40389 -0.154986,-0.40389 -1.176855,-0.68968 -1.176855,-0.68968 -1.371833,0.16355 -1.371835,0.16356 -0.529167,0.0701 -0.529166,0.0701 -0.285529,0.36422 -0.285529,0.36423 -0.556973,-0.29808 -0.556973,-0.29808 h -0.202602 -0.202602 l 0.317499,0.3175 0.3175,0.3175 v 0.21166 0.21167 H 64.29563 63.766463 v 0.24675 0.24676 l -0.595312,0.18542 -0.595313,0.18541 -2.077565,1.02194 -2.077566,1.02194 -0.218236,-0.13488 -0.218236,-0.13488 -0.319691,-0.9885 -0.319691,-0.9885 -0.508751,-1.01181 -0.508751,-1.01182 -0.381485,0.31661 -0.381486,0.3166 v 0.34243 0.34243 l -0.306496,0.10217 -0.306496,0.10216 -0.09799,0.64749 -0.09799,0.64749 -0.918428,1.38499 -0.918427,1.38499 v 0.16819 0.16818 l -0.727605,1.15079 -0.727604,1.1508 -0.471971,0.16097 -0.471971,0.16097 -0.520217,0.55839 -0.520216,0.55838 v 1.14074 1.14073 h 4.037397 4.037397 z m 17.610996,-7.75989 -0.159799,-0.41643 0.159799,-0.41643 0.159799,-0.41642 0.463821,0.0893 0.463821,0.0893 v 0.65421 0.65422 l -0.463821,0.0893 -0.463821,0.0893 z m 29.559256,7.88219 -0.89694,-0.39286 -0.26345,0.26344 -0.26345,0.26345 -0.36879,-0.36879 -0.36879,-0.36878 0.17743,-0.73869 0.17742,-0.73868 -0.63262,0.56059 -0.63263,0.56059 -0.76865,0.18236 -0.76865,0.18236 -0.20337,-0.32906 -0.20337,-0.32906 -0.41391,0.34351 -0.413909,0.34352 -0.16373,-0.42668 -0.16373,-0.42667 h -0.377876 -0.377877 l -0.627649,-0.41125 -0.627649,-0.41125 -0.172407,0.27896 -0.172407,0.27896 h -0.220661 -0.220661 l -0.165164,-0.43041 -0.165164,-0.43041 0.281996,-0.33979 0.281996,-0.33978 -0.2793,-0.17262 -0.279299,-0.17262 -0.164566,0.42886 -0.164565,0.42885 -0.345639,-0.13264 -0.345638,-0.13263 -0.09677,0.2903 -0.09677,0.29029 -0.689578,-0.45183 -0.689578,-0.45183 -0.17957,0.29055 -0.17957,0.29055 0.329065,0.3965 0.329064,0.3965 -0.268016,0.26802 -0.268016,0.26801 -0.680256,-0.17073 -0.680257,-0.17073 -0.457354,-0.50537 -0.457355,-0.50538 h -0.223576 -0.223576 v 0.47625 0.47625 l -0.285026,0.28503 -0.285026,0.28503 -0.971745,-0.22395 -0.971745,-0.22394 -0.445928,0.13653 -0.445929,0.13653 -0.596016,-0.80615 -0.596016,-0.80616 H 85.44339 85.259422 l -0.180957,0.59531 -0.180957,0.59532 -0.136534,-0.33073 -0.136533,-0.33073 h -0.34243 -0.342429 l -0.339593,0.40918 -0.339594,0.40919 -0.684991,-0.77074 -0.684991,-0.77073 -0.275477,-0.4699 -0.275477,-0.46991 -3.164106,-0.20719 -3.164106,-0.2072 -0.997499,-0.18746 -0.997499,-0.18745 0.166675,0.43434 0.166675,0.43435 -0.175637,0.93623 -0.175637,0.93622 -0.603457,0.27496 -0.603457,0.27495 -0.458242,0.77574 -0.458243,0.77574 -0.842256,-0.46755 -0.842257,-0.46756 -0.08819,-0.19844 -0.08819,-0.19844 h -0.325326 -0.325325 l -0.714664,0.74595 -0.714664,0.74595 0.173569,0.17357 0.173569,0.17356 19.343156,-0.0134 19.343152,-0.0134 z m -26.040956,-1.59033 -0.181902,-0.1819 v -0.50447 -0.50447 l 0.463021,0.0892 0.463021,0.0892 v 0.5035 0.50349 l -0.281119,0.0937 -0.281121,0.0937 z m 31.832686,1.72752 V 143.746 l -0.52979,0.13854 -0.5298,0.13855 -0.24616,-0.43842 -0.24616,-0.43841 -0.85557,0.50399 -0.85558,0.50398 0.17329,-0.45158 0.17329,-0.45158 -0.26232,0.16212 -0.26231,0.16212 -0.72685,0.37916 -0.72684,0.37915 2.4474,0.002 2.4474,0.002 z m 17.52851,-1.22591 -0.10982,-1.52135 -0.39534,-2.24896 -0.39535,-2.24896 -0.19702,-2.51354 -0.19703,-2.51354 -0.71419,-1.71293 -0.7142,-1.71292 -0.83527,-0.86178 -0.83527,-0.86178 -0.85657,-0.28269 -0.85657,-0.2827 -1.01459,-0.0391 -1.01459,-0.0392 -1.52649,0.97832 -1.52649,0.97832 h -0.44124 -0.44124 l 0.76046,-0.79375 0.76046,-0.79375 -0.38023,0.004 -0.38023,0.004 -0.26458,0.19439 -0.26458,0.19438 -0.31393,0.56483 -0.31394,0.56482 0.14636,0.55966 0.14635,0.55965 h -0.29544 -0.29544 v 0.26458 0.26459 h 0.79375 0.79375 v 0.2359 0.2359 l -0.68948,0.17305 -0.68947,0.17304 -0.5673,-0.37054 -0.5673,-0.37054 -0.59531,0.26661 -0.59531,0.26661 v 0.22415 0.22415 h 0.5154 0.5154 l -0.27814,0.79789 -0.27814,0.79788 -0.4956,0.34714 -0.4956,0.34713 -0.68775,1.50223 -0.68775,1.50224 -0.49172,0.26316 -0.49173,0.26316 h -0.42626 -0.42626 l 0.17376,-0.99218 0.17375,-0.99219 0.3674,-0.29375 0.36741,-0.29375 v -0.27326 -0.27325 l -0.43036,-0.16514 -0.43036,-0.16515 0.17531,-1.32159 0.17532,-1.3216 0.14681,-0.38257 0.1468,-0.38257 -0.67158,-0.16856 -0.67159,-0.16856 -0.4108,-0.62696 -0.4108,-0.62696 v -0.40619 -0.40618 h 0.16926 0.16927 l 0.32763,0.44805 0.32762,0.44805 0.42839,-0.42839 0.42839,-0.42839 -0.15984,-0.41654 -0.15984,-0.41653 h -0.62384 -0.62384 l -0.28613,-0.53464 -0.28613,-0.53463 0.17267,-0.27938 0.17266,-0.27938 -0.56998,-0.53102 -0.56999,-0.53103 -0.6652,0.43586 -0.66521,0.43586 0.0995,0.29838 0.0995,0.29837 0.8423,0.41237 0.84231,0.41236 -0.0721,0.39688 -0.0721,0.39687 -0.85328,-0.003 -0.85327,-0.003 v 1.21832 1.21832 l 0.51931,0.46997 0.51931,0.46997 0.39826,-0.15282 0.39825,-0.15283 0.17791,0.28787 0.17792,0.28787 -0.43403,0.24289 -0.43402,0.24289 0.009,0.58216 0.009,0.58217 0.37813,0.66146 0.37812,0.66146 0.009,1.72973 0.009,1.72974 1.30315,1.28355 1.30314,1.28356 1.27654,-0.73917 1.27654,-0.73917 1.05834,-0.81349 1.05833,-0.8135 1.40573,-1.3998 1.40573,-1.39979 0.2249,0.13899 0.22489,0.13899 0.18157,1.07473 0.18158,1.07472 -0.39456,0.31295 -0.39456,0.31296 -0.18905,1.98437 -0.18905,1.98438 0.002,0.99218 0.002,0.99219 h -0.17543 -0.17541 l -0.31074,-0.59531 -0.31074,-0.59531 -0.54361,-1.14142 -0.54361,-1.14142 -0.23749,0.14678 -0.23749,0.14678 -0.14897,0.86234 -0.14897,0.86235 -0.17488,0.8599 -0.17487,0.85989 h -0.21251 -0.2125 l -0.1348,-0.33072 -0.13479,-0.33073 -0.55624,0.66145 -0.55624,0.66146 -0.26637,0.46302 -0.26636,0.46302 h 8.03472 8.03472 z m -4.4473,-10.00024 -0.18038,-1.20285 0.14466,-0.14466 0.14465,-0.14465 0.43002,0.83156 0.43002,0.83156 -0.16376,0.51594 -0.16375,0.51594 h -0.23054 -0.23054 z m 11.78962,11.26531 v -0.25627 l -0.39008,0.14968 -0.39007,0.14969 -0.39902,-0.39902 -0.39902,-0.39902 -0.51552,0.13481 -0.51552,0.13481 -0.14229,0.3708 -0.14229,0.3708 h 1.4469 1.44691 z m 3.04985,0.003 -0.15638,-0.25303 -0.39177,0.15033 -0.39177,0.15034 -0.3999,-0.33189 -0.3999,-0.33188 -0.15239,0.15239 -0.1524,0.15239 0.1744,0.28219 0.1744,0.28218 h 0.92605 0.92604 z m 5.53406,-0.73916 -0.11407,-0.99219 0.46143,0.99084 0.46144,0.99084 2.221,0.001 2.221,10e-4 -0.15128,-2.00027 -0.15128,-2.00028 -0.29292,-0.35294 -0.29291,-0.35294 0.35125,-0.35876 0.35126,-0.35876 0.0731,-4.69636 0.0731,-4.69635 h -0.41526 -0.41526 v 0.26458 0.26458 h -0.26458 -0.26458 v -0.21987 -0.21987 l 0.63168,-0.33807 0.63167,-0.33806 -0.0364,-0.6325 -0.0364,-0.6325 -0.19843,-1.9e-4 -0.19844,-1.9e-4 v 0.40919 0.40918 l -0.79208,0.45071 -0.79208,0.45072 -0.002,0.48149 -0.002,0.4815 -0.80859,1.17525 -0.80859,1.17525 -0.28813,0.8568 -0.28813,0.85679 -0.2007,0.26458 -0.20069,0.26459 -0.19154,1.54742 -0.19153,1.54743 0.32412,1.09841 0.32411,1.0984 0.2388,0.45943 0.23879,0.45943 v 0.25013 0.25012 l -0.71064,-0.0758 -0.71065,-0.0758 -0.1968,-0.5015 -0.1968,-0.50149 -0.0186,0.55561 -0.0186,0.55562 -0.79132,1.09237 -0.79131,1.09238 -0.69229,0.17376 -0.69229,0.17375 -0.2218,-0.35888 -0.2218,-0.35887 -0.17317,0.17317 -0.17317,0.17317 0.1744,0.28219 0.1744,0.28218 h 2.08441 2.08442 z m 4.11609,-7.04453 v -0.36381 l -0.16537,-0.82682 -0.16536,-0.82682 0.23151,0.002 0.23151,0.002 0.33073,0.71214 0.33073,0.71214 v 0.47681 0.47642 H 148.83 148.43313 Z m -97.773866,3.12055 0.447409,-0.68284 -0.170189,-0.44164 -0.17019,-0.44165 -0.29373,0.52917 -0.293729,0.52917 -0.390358,0.29059 -0.390357,0.29059 0.188328,0.30472 0.188329,0.30472 h 0.218538 0.218539 z m 93.171486,-0.88313 -0.17263,-1.30138 -0.27519,-0.7894 -0.27519,-0.7894 -0.44616,0.0862 -0.44616,0.0862 -0.0773,0.0202 -0.0773,0.0203 0.70367,1.20071 0.70366,1.20072 -0.15673,0.78366 -0.15673,0.78366 h 0.42435 0.42434 z m -6.36358,-0.57376 0.17776,-0.28763 0.48222,0.1261 0.48222,0.12611 0.13936,-0.36318 0.13937,-0.36317 0.44942,0.17245 0.44942,0.17246 -0.14113,-0.53967 -0.14113,-0.53967 0.50255,-0.36221 0.50255,-0.36222 -0.13721,-0.66409 -0.13721,-0.6641 0.51092,-0.66016 0.51091,-0.66015 0.53945,1.18932 0.53945,1.18932 0.006,-1.12448 0.006,-1.12448 -0.33073,-0.0112 -0.33073,-0.0112 -0.60343,-0.94543 -0.60344,-0.94542 0.1705,-0.53721 0.17051,-0.53722 -1.07964,0.17264 -1.07965,0.17265 -1.13326,-0.39475 -1.13326,-0.39475 -1.48688,-0.004 -1.48689,-0.004 -1.65736,0.52946 -1.65736,0.52947 -0.894,0.55252 -0.89399,0.55251 -0.26336,0.49209 -0.26336,0.4921 0.38284,0.87332 0.38283,0.87332 0.15621,0.73843 0.15621,0.73842 0.25683,-0.15872 0.25683,-0.15873 v -0.93248 -0.93247 l 0.33073,0.10892 0.33072,0.10891 0.0846,0.57459 0.0846,0.57459 h 0.13129 0.13128 l 0.49765,-0.26633 0.49764,-0.26633 0.21257,0.33883 0.21256,0.33883 0.75056,0.47781 0.75056,0.47781 0.15374,-0.15374 0.15374,-0.15374 0.104,-1.52105 0.10399,-1.52105 0.42095,-0.99218 0.42095,-0.99219 h 0.35165 0.35166 l 0.12036,0.59531 0.12036,0.59531 0.14298,1.44131 0.14299,1.44132 -0.43307,0.47854 -0.43308,0.47854 0.1369,0.13689 0.1369,0.1369 0.40867,-0.15682 0.40867,-0.15682 0.18619,-0.57701 0.18619,-0.57701 -0.0445,-0.46302 -0.0445,-0.46303 h 0.21757 0.21757 l 0.3463,0.55452 0.3463,0.55451 -0.39653,0.43816 -0.39653,0.43816 -0.2938,0.77274 -0.2938,0.77275 0.13479,0.35125 0.13478,0.35125 h 0.38957 0.38956 z m 1.70554,-2.3582 v -0.26458 h -0.41249 -0.41249 l 0.16619,-0.2689 0.16619,-0.2689 0.21858,0.13509 0.21857,0.13509 0.18652,-0.4615 0.18652,-0.4615 0.23859,0.61974 0.2386,0.61975 -0.14842,0.24015 -0.14842,0.24015 h -0.24897 -0.24897 z m -80.056634,-1.52392 0.147772,-0.46559 1.391412,-0.63416 1.391412,-0.63417 1.143818,-0.5443 1.143819,-0.5443 0.123948,-0.20056 0.123948,-0.20055 -0.446178,-0.68095 -0.446179,-0.68096 -0.424713,0.0831 -0.424714,0.0831 0.08177,0.69742 0.08177,0.69743 -0.301351,0.18624 -0.301352,0.18625 -0.393834,-0.56228 -0.393833,-0.56227 -0.247196,0.15277 -0.247195,0.15278 0.265299,0.49571 0.265299,0.49572 v 0.25609 0.2561 l -0.859896,0.33844 -0.859896,0.33844 -0.575434,-0.0549 -0.575435,-0.0549 -0.167785,0.27148 -0.167784,0.27148 h -0.513552 -0.513552 v 0.23232 0.23231 l 0.595313,0.41527 0.595312,0.41527 0.180608,0.0139 0.180608,0.0139 z m 36.04718,-2.07746 0.419353,-0.64002 v -0.65661 -0.65661 l -0.307096,-0.37002 -0.307096,-0.37003 -0.976393,0.29966 -0.976391,0.29967 -0.726205,0.79715 -0.726204,0.79715 -0.0078,0.27782 -0.0078,0.27781 0.302059,0.30206 0.302061,0.30206 1.296035,-0.01 1.296036,-0.01 z m -28.482258,-0.24004 0.333496,-0.40183 -0.474397,-0.52421 -0.474399,-0.5242 h -0.223576 -0.223577 v 0.50752 0.50753 l 0.1606,0.41852 0.160599,0.41851 h 0.203879 0.203879 z m 22.137301,-0.44361 0.269776,-0.34517 0.502214,-1.44029 0.502214,-1.44029 0.595313,-0.59821 0.595313,-0.5982 v -0.83885 -0.83885 l 0.755165,0.15103 0.755164,0.15103 0.280116,-0.28011 0.280115,-0.28011 0.353781,0.2283 0.353783,0.2283 h 0.661459 0.661458 l -0.08308,0.59711 -0.08308,0.59712 0.479958,0.17668 0.479957,0.17668 0.211585,0.35068 0.211584,0.35068 h 0.220579 0.220576 l 0.154646,-0.59136 0.154646,-0.59137 0.339234,0.4221 0.339234,0.42211 0.461325,0.16031 0.461327,0.16031 0.168739,-1.05525 0.168742,-1.05524 0.229828,-0.14204 0.229831,-0.14205 v -0.64558 -0.64584 h 0.264579 0.26459 l 0.009,0.46302 0.009,0.46302 0.50403,0.60445 0.50403,0.60446 0.6527,-0.16382 0.6527,-0.16382 0.54182,-0.57674 0.54183,-0.57675 -1.11205,0.004 -1.11204,0.004 0.0783,-0.74118 0.0783,-0.74117 0.52956,-0.94284 0.52956,-0.94284 -3.650556,0.10282 -3.650558,0.10283 -1.322916,0.67521 -1.322917,0.67521 -1.058333,0.6021 -1.058333,0.6021 -0.481795,0.42802 -0.481795,0.42802 -0.642685,1.40505 -0.642683,1.40506 v 0.37612 0.37613 l -0.369901,1.40197 -0.369901,1.40197 -0.05831,0.26458 -0.05831,0.26459 0.03133,0.20774 0.03133,0.20775 0.48478,-0.25945 0.484782,-0.25944 z m -32.989336,-1.68225 v -0.3261 l -0.418515,-0.1606 -0.418514,-0.1606 h -0.242945 -0.242942 v 0.78808 0.78808 l 0.661458,-0.30138 0.661458,-0.30138 z m -2.011356,-0.0109 0.118987,-0.31007 -0.917147,-0.81198 -0.917147,-0.81199 -0.374548,0.14373 -0.374549,0.14373 -0.172053,-0.68551 -0.172054,-0.68552 h -0.368192 -0.368192 v -0.26458 -0.26459 h -0.396875 -0.396875 l 0.0084,1.25678 0.0084,1.25677 0.370857,-0.48952 0.370856,-0.48951 0.282188,0.1744 0.282187,0.1744 v 0.45468 0.45468 l 0.401918,0.57382 0.401918,0.57382 1.046453,-0.0417 1.046452,-0.0417 z m 93.007673,-0.92129 0.8141,-0.81411 v -0.50881 -0.50882 h -0.23628 -0.23627 l -0.1523,0.39688 -0.15229,0.39687 h -0.39587 -0.39587 l -0.29151,-0.54468 -0.29151,-0.54469 0.15838,-0.72108 0.15838,-0.72109 -0.74881,-0.83872 -0.74881,-0.83872 -0.3032,0.80326 -0.3032,0.80327 0.25022,0.65813 0.25022,0.65813 -0.15532,0.61883 -0.15531,0.61883 1.01478,0.94315 1.01478,0.94315 0.0458,0.007 0.0458,0.007 z m -43.9534,-0.0326 0.3175,-0.3175 v -0.21167 -0.21166 h -0.40518 -0.40518 l -0.16654,-0.434 -0.16654,-0.43399 -0.3522,0.48165 -0.35219,0.48166 0.43575,0.48151 0.43576,0.4815 h 0.17066 0.17066 z m 10.90083,-0.88769 v -0.61123 l -0.52916,-0.16795 -0.52917,-0.16795 v -0.34665 -0.34665 l -0.3895,-0.32326 -0.3895,-0.32325 -0.40425,0.40425 -0.40425,0.40425 v 0.25518 0.25517 l 0.40207,0.15429 0.40208,0.15429 0.55434,0.93954 0.55434,0.93954 0.3665,-0.30417 0.3665,-0.30417 z m -45.559409,-0.24357 0.298445,-0.65502 -0.448534,-0.78152 -0.448534,-0.78153 -0.799629,0.14632 -0.799629,0.14632 -0.330729,0.41475 -0.330729,0.41475 v 0.33998 0.33999 l 0.992188,0.52379 0.992187,0.52379 0.288261,0.0117 0.288258,0.0117 z m 2.617957,-0.12998 0.136088,-0.5204 0.516592,-0.16396 0.516591,-0.16396 -0.170546,-0.83699 -0.170546,-0.83699 -0.306908,-0.7276 -0.306909,-0.72761 h -0.223731 -0.22373 l -0.48249,0.59531 -0.482489,0.59532 0.274038,0.33073 0.274038,0.33072 h -0.532881 -0.53288 l -0.161407,0.6431 -0.161407,0.6431 0.258467,0.67982 0.258468,0.67982 h 0.692776 0.692777 z m 61.888562,-0.009 h 0.58502 l 0.68498,-0.81405 0.68497,-0.81405 v -0.64116 -0.64116 h -0.38126 -0.38126 l -0.16352,0.26459 -0.16352,0.26458 h -0.51355 -0.51355 v -0.66146 -0.66146 h -0.10509 -0.10508 l -0.82096,0.72038 -0.82096,0.72038 v 0.33795 0.33796 h -0.44218 -0.44219 l -0.48548,-0.43935 -0.48547,-0.43935 -0.149,0.149 -0.14901,0.14901 0.30635,0.49053 0.30635,0.49054 1.23334,0.82864 1.23334,0.82864 0.25135,-0.23508 0.25135,-0.23508 z m -1.22003,-1.67569 v -0.35278 l 0.15816,-0.15816 0.15816,-0.15816 0.37101,0.14237 0.37101,0.14237 v 0.36857 0.36856 h -0.52917 -0.52917 z m -70.645152,0.30183 1.269769,-1.37385 -0.410823,-0.627 -0.410824,-0.62699 0.759427,0.0826 0.759426,0.0826 0.09182,-0.44675 0.09182,-0.44675 -0.525799,-0.5258 -0.525798,-0.5258 0.143515,-0.5488 0.143515,-0.54881 h 0.350401 0.350401 l 0.163522,-0.26458 0.163521,-0.26458 -0.175819,-0.28448 -0.175819,-0.28448 -0.656269,0.61521 -0.656269,0.61521 -0.484834,1.06252 -0.484833,1.06253 -0.683068,0.73704 -0.683068,0.73705 v 0.27925 0.27926 l 0.393003,-0.15081 0.393003,-0.15081 -0.326856,0.58553 -0.326859,0.58552 -0.330728,0.21158 -0.330729,0.21159 v 0.47192 0.47192 l 0.176389,0.17639 0.176389,0.17639 h 0.246356 0.246356 z m 12.779051,0.14969 0.165835,-0.16584 -0.41657,-0.80555 -0.416569,-0.80556 -0.245521,0.43872 -0.245521,0.43872 0.285077,0.53268 0.285078,0.53267 h 0.211177 0.211176 z m 43.644061,-0.95864 0.43117,-0.33073 -0.32888,-1.2644 -0.32888,-1.2644 -0.16107,0.16107 -0.16107,0.16108 -0.91987,-1.00376 -0.91987,-1.00375 -0.45146,0.37467 -0.45145,0.37467 -0.70214,0.0126 -0.70214,0.0126 -0.0845,0.59531 -0.0846,0.59531 h 0.39607 0.39608 l 0.55596,0.70679 0.55596,0.70678 -0.26627,0.26627 -0.26627,0.26627 0.98628,0.46074 0.98629,0.46073 0.54474,0.0214 0.54474,0.0214 z m -60.91962,-0.40962 v -0.21166 l -0.210571,-0.25136 -0.210571,-0.25135 -0.335164,-0.99065 -0.335164,-0.99064 0.168812,-0.27314 0.168811,-0.27315 0.310778,0.0625 0.310777,0.0625 0.599238,-0.3315 0.599238,-0.33151 0.153749,0.47443 0.153749,0.47443 0.11004,0.36053 0.11004,0.36053 0.406267,-0.33717 0.406268,-0.33718 -0.223843,-0.15564 -0.223843,-0.15565 -0.336186,-1.15024 -0.336186,-1.15024 0.139219,-0.13922 0.139219,-0.13921 0.442144,0.16966 0.442144,0.16967 -0.149515,0.92135 -0.149515,0.92135 h 0.247948 0.247949 v -0.64584 -0.64584 l 0.264584,-0.16352 0.264583,-0.16352 0.0041,-0.71199 0.0041,-0.71199 0.215539,-0.33969 0.21554,-0.33969 0.415795,0.15955 0.415795,0.15956 0.140555,0.53748 0.140556,0.53749 0.282392,-0.17453 0.282392,-0.17453 v -0.81358 -0.81359 l 0.306463,-1.02288 0.306464,-1.02288 h 0.495812 0.495812 l 0.211458,0.57162 0.211457,0.57162 0.146922,-0.38287 0.146923,-0.38287 -0.649394,-1.09962 -0.649394,-1.09962 -0.312824,0.1282 -0.312824,0.12819 -0.926042,1.24558 -0.926042,1.24559 -1.653646,1.62801 -1.653645,1.62801 v 0.29033 0.29032 h 0.280198 0.280198 l -0.163521,0.26459 -0.163522,0.26458 h -0.524092 -0.524092 l -1.047793,0.53455 -1.047793,0.53454 v 0.36319 0.36319 l -0.371355,0.1425 -0.371356,0.1425 -0.581768,-0.15213 -0.581769,-0.15214 -0.217336,0.35166 -0.217335,0.35166 -0.390476,-0.32407 -0.390475,-0.32406 0.141582,-1.05558 0.141582,-1.05557 -0.829605,0.72797 -0.829606,0.72796 v 0.84866 0.84865 l 0.816478,-0.23416 0.816477,-0.23417 0.440293,0.22041 0.440294,0.22041 1.715778,0.57301 1.715778,0.57302 0.215598,0.38525 0.215599,0.38525 h 0.251436 0.251436 z m 10.850659,-0.66068 1.193368,-0.60555 0.356234,-0.22016 0.356234,-0.22017 -0.358977,-0.22746 -0.358978,-0.22746 -0.46302,-0.004 -0.463021,-0.004 v 0.39688 0.39687 h -0.27613 -0.276131 l -0.713353,0.66146 -0.713353,0.66146 0.26188,-10e-4 0.261879,-0.001 z m 64.357151,-0.93961 0.46302,-0.38672 v -0.46652 -0.46652 l -0.1606,-0.41851 -0.1606,-0.41852 h -0.5074 -0.50741 l -0.26201,0.68914 -0.26202,0.68915 -0.66329,-0.16648 -0.66329,-0.16647 -0.15995,0.41683 -0.15996,0.41684 0.59121,0.62931 0.5912,0.62931 0.69904,-0.29706 0.69904,-0.29706 z m 8.92969,0.16353 v -0.55886 l 0.46229,-0.51083 0.4623,-0.51083 -0.64001,0.0931 -0.64001,0.0931 -0.24412,0.73634 -0.24412,0.73633 0.15538,0.40491 0.15538,0.40492 0.26646,-0.16468 0.26645,-0.16467 z m -16.52321,-0.75426 0.17677,-0.28602 0.61638,0.1547 0.61638,0.1547 0.16412,-0.26555 0.16412,-0.26556 h 0.5356 0.5356 l -0.1129,-0.33072 -0.1129,-0.33073 -0.90133,0.0192 -0.90134,0.0192 -0.40616,0.18568 -0.40617,0.18568 -0.57496,-0.53566 -0.57496,-0.53565 h -0.15266 -0.15267 l 0.30121,0.56281 0.30121,0.56282 -0.32364,0.20002 -0.32365,0.20002 0.49477,0.28745 0.49476,0.28745 0.18283,0.008 0.18282,0.008 z m -38.973176,-1.40298 -0.185991,-0.29537 -0.09238,0.46626 -0.09238,0.46626 -0.248875,-0.15381 -0.248876,-0.15382 0.152223,-0.2463 0.152222,-0.2463 h -0.41249 -0.412489 v 0.27575 0.27575 l 0.330729,0.36098 0.330729,0.36098 0.456782,-0.40751 0.456781,-0.4075 z m 36.424336,0.46551 0.11024,-0.0994 -0.14713,-0.14714 -0.14713,-0.14713 -1.41832,0.0846 -1.41832,0.0846 0.92604,0.30048 0.92604,0.30047 0.52917,-0.13856 0.52917,-0.13856 z m 7.38181,-0.697 0.0837,-0.72534 h -0.53113 -0.53112 l -0.16499,0.26695 -0.16498,0.26695 0.17197,0.54185 0.17198,0.54185 0.44041,-0.0835 0.44042,-0.0834 z m 14.32863,-0.8666 -0.26367,-0.3177 0.40014,-0.33208 0.40014,-0.33209 v -0.31835 -0.31836 l -0.66146,-0.62141 -0.66146,-0.62141 v -0.39485 -0.39485 l -0.18633,0.18634 -0.18634,0.18633 -0.0121,0.71766 -0.0121,0.71766 -0.7276,-0.0498 -0.72761,-0.0498 v 0.40496 0.40495 l 0.52556,0.66814 0.52557,0.66815 -0.15519,0.25109 -0.15518,0.25109 0.46582,0.34061 0.46582,0.34061 0.61482,-0.53458 0.61483,-0.53459 z m -67.963209,-0.89454 0.891857,-0.42111 0.100499,-0.52832 0.100499,-0.52831 0.529981,-0.74683 0.529981,-0.74683 -0.614897,-1.23755 -0.614897,-1.23754 -1.098619,-1.49704 -1.098619,-1.49704 -0.432269,0.50485 -0.432268,0.50486 h 0.526577 0.526577 v 0.39687 0.39688 H 73.82063 73.556046 v 0.39687 0.39688 h 0.264584 0.264583 v 0.52916 0.52917 h 0.548065 0.548066 l 0.357287,0.35729 0.357286,0.35728 0.08684,0.48613 0.08684,0.48613 -0.821965,0.17374 -0.821965,0.17375 -0.325268,-0.52084 -0.325268,-0.52084 -1.167871,0.16008 -1.167871,0.16007 v -0.39181 -0.39181 h -0.223822 -0.223821 l 0.07591,0.99218 0.07591,0.99219 0.01562,0.74543 0.01562,0.74544 0.560471,-0.17789 0.56047,-0.17789 -0.118808,0.35643 -0.118809,0.35642 0.550526,0.27047 0.550525,0.27047 0.260855,0.88346 0.260854,0.88345 0.299037,-0.73159 0.299037,-0.73159 z m -2.626354,-1.52196 0.08555,-0.4411 0.330728,-0.11012 0.330729,-0.11012 v 0.55122 0.55121 H 72.87519 72.458913 Z m 10.272005,2.9095 v -0.35174 h -0.396874 -0.396876 v -0.43385 -0.43385 l -0.463021,-0.35149 -0.463021,-0.35148 -0.337278,-0.008 -0.337277,-0.008 -0.264773,0.69641 -0.264772,0.6964 0.152005,0.47893 0.152006,0.47892 1.309941,-0.0298 1.30994,-0.0298 z m 35.452538,0.24357 -0.002,-0.19843 -0.36222,-0.6942 -0.36223,-0.6942 0.43585,0.11398 0.43585,0.11397 0.6313,-0.67199 0.63131,-0.67199 -0.98672,-0.9306 -0.98673,-0.9306 h -0.62539 -0.6254 l -0.61253,0.25263 -0.61254,0.25263 -0.62673,0.49981 -0.62673,0.49981 0.33561,0.63662 0.33561,0.63663 0.28371,0.1842 0.2837,0.18421 -0.44431,0.17049 -0.4443,0.1705 -0.86618,-0.80951 -0.86617,-0.80952 -0.21213,0.21213 -0.21214,0.21214 0.17438,0.45441 0.17437,0.45441 0.76035,0.15207 0.76034,0.15207 v 0.23151 0.23151 h 1.5551 1.5551 l 0.32938,0.39688 0.32938,0.39687 h 0.23218 0.23219 z m 31.22246,-1.01226 v -1.11049 l -0.84532,-0.12406 -0.84531,-0.12407 -0.4776,0.12489 -0.4776,0.1249 v 0.44556 0.44556 l 0.32213,0.68259 0.32213,0.68259 1.00079,-0.0185 1.00078,-0.0185 z m -70.23971,0.66994 0.170685,-0.27617 -0.334236,-0.40273 -0.334237,-0.40273 -0.801364,-0.4144 -0.801363,-0.4144 -0.09985,0.29955 -0.09985,0.29956 h -0.374826 -0.374826 v 0.28241 0.28241 l 0.508349,-0.16134 0.508349,-0.16134 0.48384,0.66436 0.483838,0.66437 0.447406,0.008 0.447405,0.008 z m 15.479979,-0.88455 0.222236,-0.23469 -0.75427,-0.95594 -0.75427,-0.95593 0.07269,-1.13776 0.07269,-1.13775 0.727143,-0.75898 0.727146,-0.75897 -0.17681,-0.28608 -0.17681,-0.28609 h -0.630228 -0.630228 l -0.124446,-0.20135 -0.124443,-0.20136 0.323529,-0.44245 0.323529,-0.44245 1.165937,-0.0838 1.165937,-0.0838 0.398253,-0.7126 0.398255,-0.7126 -0.227614,-0.21344 -0.227613,-0.21344 -0.105611,0.29321 -0.10561,0.29321 -0.358702,0.49055 -0.358703,0.49056 -0.431326,-0.35797 -0.431328,-0.35797 0.09994,-1.48413 0.09994,-1.48413 -0.116165,0.33073 -0.116165,0.33073 h -0.207281 -0.207279 l 0.06205,-2.05334 0.06205,-2.05335 -0.561842,-0.4238 -0.561842,-0.4238 -0.571561,0.21144 -0.571559,0.21143 -0.332771,1.53811 -0.33277,1.5381 0.07101,0.66146 0.07101,0.66146 0.239529,0.0882 0.239527,0.0882 v 0.29163 0.29162 l -0.544681,0.57979 -0.544684,0.57979 0.743121,0.18719 0.74312,0.18719 -0.631374,0.51231 -0.631373,0.51231 0.42878,0.4738 0.428778,0.47379 -0.246304,0.85882 -0.246306,0.85882 0.127025,0.33102 0.127025,0.33102 -0.53038,0.61153 -0.530379,0.61153 0.258365,0.48276 0.258364,0.48276 0.244878,0.15134 0.244878,0.15135 0.166189,-0.2689 0.166189,-0.2689 h 0.19156 0.191559 l -0.0337,0.7276 -0.0337,0.72761 0.487986,0.34573 0.487987,0.34573 v 0.26596 0.26595 l 0.463021,0.6209 0.463021,0.62089 0.09183,-0.43883 0.09183,-0.43883 z m 31.608691,0.44407 0.52917,-0.14465 0.33499,-0.41949 0.33499,-0.4195 0.79667,0.30071 0.79667,0.30071 0.43492,-0.66377 0.43491,-0.66376 -0.37595,-0.23923 -0.37595,-0.23922 -0.33073,0.12951 -0.33073,0.12951 -0.39688,0.1606 -0.39687,0.1606 -0.0375,-0.49133 -0.0375,-0.49132 -0.0287,-0.60944 -0.0287,-0.60943 -0.72475,-0.4423 -0.72475,-0.44231 -0.37133,0.39028 -0.37134,0.39028 -0.18511,0.61608 -0.18511,0.61608 0.48745,-0.0803 0.48744,-0.0803 0.33073,0.20745 0.33073,0.20745 v 0.48524 0.48525 l -0.38988,0.14961 -0.38988,0.14961 -0.20543,-0.35123 -0.20544,-0.35123 -0.54999,-0.17039 -0.55,-0.1704 0.11701,0.7972 0.117,0.79719 h -0.4269 -0.4269 v 0.48507 0.48507 l 0.15221,0.15221 0.1522,0.15221 0.83998,-0.26182 0.83998,-0.26183 z m -61.44178,-0.93699 -0.142663,-1.25677 h -0.220866 -0.220864 l -0.274608,0.51311 -0.274608,0.51311 0.281619,0.17405 0.281619,0.17405 0.255666,0.67245 0.255666,0.67245 0.100851,-0.10284 0.100851,-0.10284 z m 41.00438,-1.26911 0.72926,-0.9137 0.25887,0.39687 0.25888,0.39688 0.0125,0.79375 0.0125,0.79375 0.38846,-0.51359 0.38846,-0.51359 v -0.59527 -0.59528 l 0.26458,-0.16352 0.26459,-0.16352 v -0.51644 -0.51643 l 0.55155,-1.17338 0.55155,-1.17338 -0.17201,-0.60968 -0.17201,-0.60967 0.26753,0.38921 0.26753,0.38922 0.18915,-0.18916 0.18916,-0.18915 -0.4751,-0.52497 -0.47509,-0.52498 0.19092,-4.10685 0.19093,-4.10686 h -0.42021 -0.4202 l -0.93714,-1.30443 -0.93714,-1.30443 -0.76393,-0.16778 -0.76393,-0.16779 -0.2682,-0.32317 -0.26821,-0.323161 -4.55365,0.0726 -4.55366,0.0726 -0.135311,0.135311 -0.135312,0.13531 h -0.444062 -0.444062 l -0.415495,0.46302 -0.415495,0.46302 -0.177229,0.95543 -0.17723,0.95543 0.551717,0.14428 0.551717,0.14428 v 0.42164 0.42165 h 0.211667 0.211667 l 0.3175,-0.3175 0.3175,-0.3175 v -0.60854 -0.60854 h 0.264583 0.264583 v 0.24294 0.24294 l 0.150106,0.39117 0.150105,0.39117 -0.811563,0.83022 -0.811564,0.83022 v 0.61635 0.61635 l 1.053695,0.73021 1.053696,0.73021 -0.135749,0.21965 -0.135749,0.21965 0.16907,0.67362 0.169069,0.67363 h 0.235901 0.2359 v -0.45902 -0.45903 l 0.727604,-1.53745 0.727604,-1.53745 1.186867,0.11892 1.18687,0.11893 0.77156,-0.39899 0.77155,-0.39899 0.23754,0.42446 0.23753,0.42445 h 0.55183 0.55182 l 0.61302,-0.66146 0.61302,-0.66145 h 0.27722 0.27722 l -0.0108,0.33072 -0.0108,0.33073 -0.783,0.91605 -0.783,0.91605 0.006,0.27458 0.006,0.27457 1.05269,0.74477 1.05268,0.74476 v 0.35647 0.35648 l -1.03952,1.80918 -1.03952,1.80918 -0.17452,0.70664 -0.17453,0.70663 0.58823,0.79562 0.58822,0.79562 -0.15786,0.41137 -0.15786,0.41137 -0.77942,-0.15588 -0.77942,-0.15589 -0.28898,0.53997 -0.28898,0.53997 v 0.24139 0.24139 l 0.99218,1.02388 0.99219,1.02388 0.13229,-0.92949 0.13229,-0.92949 z m -9.328224,-11.34974 v -0.24958 l 0.53748,-0.37646 0.53748,-0.37647 0.247493,-0.86296 0.247492,-0.86295 -0.246497,-0.46059 -0.246497,-0.46058 0.16708,-0.16708 0.16708,-0.16708 h 0.323831 0.323831 l 0.125411,0.99219 0.125412,0.99218 -0.691777,1.11482 -0.691777,1.11482 -0.463021,0.01 -0.463021,0.01 z m -44.833374,12.29662 0.383375,-0.91754 v -0.14079 -0.14079 h -0.897735 -0.897734 l -0.164331,-0.42824 -0.164331,-0.42824 0.372401,-0.7465 0.3724,-0.74649 -0.148759,-0.14876 -0.14876,-0.14876 -0.484492,0.43846 -0.484493,0.43846 v 0.88503 0.88504 h 0.387566 0.387566 l 0.273893,0.51177 0.273892,0.51177 v 0.54656 0.54656 h 0.278084 0.278084 z m 32.397958,0.25764 v -0.33363 l 0.402848,-0.33434 0.402849,-0.33433 -0.156095,-0.49182 -0.156095,-0.49181 h 0.282413 0.282413 v -0.42927 -0.42927 l -0.404711,0.33588 -0.40471,0.33588 -0.653623,-0.29781 -0.653623,-0.29781 v -0.79943 -0.79942 H 82.401758 81.72247 l 0.177124,0.55807 0.177124,0.55807 0.06988,1.22787 0.06988,1.22787 0.280882,0.69456 0.280881,0.69457 0.680568,-0.1301 0.680568,-0.1301 z m 53.26728,-0.89476 0.44313,-1.0044 v -0.17567 -0.17568 h -0.36447 -0.36448 l -0.30198,-0.36386 -0.30197,-0.36386 -1.11949,-0.17026 -1.11948,-0.17027 -0.82535,-0.43348 -0.82535,-0.43348 -0.45654,0.17519 -0.45654,0.17519 -0.13803,0.52783 -0.13803,0.52783 h -0.11198 -0.11197 l -1.03725,-0.52916 -1.03725,-0.52917 h -0.14284 -0.14283 v 0.34412 0.34413 l 0.33073,0.71214 0.33073,0.71215 0.66146,0.005 0.66146,0.005 2.77548,1.0225 2.77548,1.0225 0.28711,-0.11018 0.28711,-0.11017 z m -40.81447,0.48702 0.511773,-0.27389 v -0.51986 -0.51986 h 0.354405 0.354405 l 0.320592,-0.70362 0.320592,-0.70362 -0.251448,-0.15627 -0.251448,-0.15628 -0.09282,-0.64073 -0.09282,-0.64073 -0.307191,-0.10108 -0.30719,-0.10107 -0.552706,0.59326 -0.552705,0.59326 v 0.69094 0.69094 l -0.3175,0.3175 -0.3175,0.3175 h -0.494266 -0.494267 l 0.5652,0.79375 0.5652,0.79375 h 0.263961 0.263961 z m 12.94719,-0.78444 v -0.52917 h -0.11065 -0.11066 l -0.41851,-0.16059 -0.41851,-0.1606 v 0.30405 0.30406 l 0.33072,0.37565 0.33073,0.37564 0.19844,0.0101 0.19844,0.0101 z m 36.90937,0 0.16352,-0.26458 h -0.40318 -0.40318 l -0.2832,-0.52917 -0.2832,-0.52917 h -0.38757 -0.38756 v 0.26459 0.26458 h 0.24675 0.24676 l 0.16795,0.52917 0.16795,0.52916 h 0.49572 0.49572 z m -57.477605,-1.28593 -0.06303,-0.56615 0.32761,-0.0313 0.32761,-0.0313 0.19626,0.0306 0.196261,0.0306 0.531343,-0.45495 0.531344,-0.45495 v -0.33808 -0.33807 h -0.251436 -0.251436 l -0.257886,0.46082 -0.257886,0.46081 -0.196234,-0.19623 -0.196233,-0.19623 v -0.76853 -0.76852 l -0.418924,0.13169 -0.418923,0.1317 0.661458,-0.55212 0.661458,-0.55212 -0.595312,-0.16483 -0.595313,-0.16483 -0.03135,-0.29987 -0.03135,-0.29987 0.04295,-0.33073 0.04295,-0.33072 h -0.229518 -0.229519 l -0.2451,0.99218 -0.245101,0.99219 -0.598232,0.0849 -0.598232,0.0849 -0.398768,0.77113 -0.398768,0.77114 -0.656646,0.1648 -0.656646,0.16481 v 0.37323 0.37324 l 0.623423,-0.15647 0.623423,-0.15647 0.43491,0.43491 0.434911,0.43491 v 0.24568 0.24569 h 0.645843 0.645844 l 0.172153,0.27855 0.172153,0.27855 0.306483,-0.10928 0.306482,-0.10928 z m 23.576065,0.45993 0.65149,-0.29684 0.1511,-0.56306 0.1511,-0.56306 0.004,-0.28826 0.004,-0.28826 -0.69186,-0.31523 -0.69186,-0.31523 -0.49877,0.1583 -0.49876,0.1583 v 0.36343 0.36343 l 0.2653,0.16397 0.2653,0.16396 -0.29262,0.54676 -0.29261,0.54675 0.35804,0.22689 0.35805,0.22688 0.0537,0.004 0.0537,0.004 z m -10.19054,-0.88998 0.0933,-0.48152 -0.43873,-0.24552 -0.43873,-0.24552 -0.2441,-0.64204 -0.2441,-0.64204 -0.20425,0.0439 -0.20425,0.0439 -0.47443,-0.20698 -0.474436,-0.20698 -0.09752,0.0988 -0.09752,0.0988 0.143539,0.74731 0.14354,0.74731 0.626847,0.23833 0.62685,0.23833 v 0.38137 0.38138 l 0.33072,0.13229 0.33073,0.13229 0.26459,-0.066 0.26458,-0.066 z m 21.52368,0.034 0.45034,-0.34221 -0.13702,-0.52398 -0.13702,-0.52398 -0.77635,-0.29303 -0.77634,-0.29304 -0.002,-0.486 -0.002,-0.48601 -0.65096,-0.30185 -0.65096,-0.30186 -0.30541,0.368 -0.30542,0.36801 h 0.4099 0.40989 l 0.41625,0.8344 0.41626,0.8344 v 0.25261 0.25262 l -0.66146,-0.16602 -0.66146,-0.16601 v 0.26962 0.26963 h 0.49677 0.49677 l 0.32938,0.39687 0.32937,0.39687 0.43063,-0.008 0.43062,-0.008 z m 24.71512,-1.00762 -0.17086,-0.61771 -0.9159,-1.02947 -0.9159,-1.02946 -0.40276,0.33426 -0.40276,0.33426 v 0.50507 0.50507 l -0.39687,0.1523 -0.39688,0.15229 v 0.37512 0.37512 l 0.67869,0.25803 0.67868,0.25804 h 0.11507 0.11506 v -0.51356 -0.51355 l 0.26459,-0.16352 0.26458,-0.16352 v 0.4218 0.4218 l 0.4377,0.66801 0.43771,0.66802 0.39035,-0.39035 0.39035,-0.39035 z m -80.33109,0.0936 v -0.74386 l -0.552705,-0.59326 -0.552706,-0.59326 -0.30719,0.10075 -0.307191,0.10076 -0.08457,0.71601 -0.08457,0.71602 0.613737,0.51154 0.613737,0.51155 0.33073,0.009 0.330729,0.009 z m 74.48021,-0.79771 0.79375,-0.41619 -0.39688,-0.0862 -0.39687,-0.0862 -0.0738,-1.75568 -0.0738,-1.75568 -0.45533,-0.35162 -0.45532,-0.35162 -0.52916,0.0635 -0.52917,0.0635 0.0898,0.66146 0.0898,0.66146 0.0425,2.04672 0.0425,2.04673 0.52916,-0.16202 0.52917,-0.16201 z m -71.30521,-1.18352 v -0.24269 l -0.694923,0.17441 -0.694924,0.17442 0.157453,-0.41032 0.157453,-0.41031 h -0.372957 -0.372956 l -0.181407,0.29352 -0.181404,0.29352 0.753639,0.64758 0.753638,0.64758 0.338195,-0.4625 0.338192,-0.46251 z m 14.346651,0.0236 -0.07314,-0.43338 0.536161,-0.17017 0.536161,-0.17017 v -0.37905 -0.37904 l -0.198438,-0.001 -0.198437,-10e-4 -1.322917,0.45475 -1.322916,0.45474 -0.07237,0.0379 -0.07237,0.0379 0.16089,0.41927 0.160891,0.41928 0.572942,0.11437 0.572941,0.11436 0.396875,-0.0423 0.396875,-0.0423 z m 60.265849,-1.99842 v -0.89197 l -0.47884,0.15198 -0.47884,0.15197 -0.84408,-0.9534 -0.84408,-0.9534 v -0.76824 -0.76825 h -0.14968 -0.14969 l -0.51177,0.27389 -0.51177,0.27389 v 0.36405 0.36405 l 0.79383,0.66796 0.79383,0.66796 0.25603,0.67342 0.25603,0.67342 0.4715,-0.17851 0.47149,-0.17851 -0.67118,0.91117 -0.67118,0.91117 0.26819,0.58902 0.26819,0.58903 0.86601,-0.83937 0.86601,-0.83936 z m -80.86034,1.4015 0.39849,-0.60817 -0.364078,-0.49409 -0.364077,-0.49409 -0.553864,0.59086 -0.553865,0.59086 0.162712,0.64829 0.162713,0.6483 0.35674,-0.13689 0.35674,-0.1369 z m 52.28534,-0.27344 -0.32938,-0.39687 -0.29833,-0.006 -0.29833,-0.006 -0.66146,-0.5174 -0.66146,-0.5174 -0.5797,-0.006 -0.57969,-0.006 -0.16353,-0.26459 -0.16352,-0.26458 h -0.66789 -0.66789 l 0.1063,0.31891 0.10631,0.31891 1.17251,0.59968 1.17252,0.59968 0.52916,0.0115 0.52917,0.0115 0.39688,0.25649 0.39687,0.25648 0.49542,0.004 0.49542,0.004 z m -60.010943,-0.85988 0.446348,-0.38258 0.281256,0.17383 0.281256,0.17382 v -0.2812 -0.28121 l 0.856999,0.0671 0.857,0.0672 0.264074,-0.59532 0.264074,-0.59531 h 0.201843 0.201843 l 0.529167,-0.52916 0.529166,-0.52917 v -3.62063 -3.62063 l -0.563091,-1.16319 -0.563091,-1.16319 -0.384984,-0.14774 -0.384985,-0.14773 -0.573278,0.58273 -0.573279,0.58273 0.396875,-0.083 0.396875,-0.0829 0.08525,0.89127 0.08525,0.89127 -0.315787,0.76237 -0.315786,0.76238 h -0.232484 -0.232484 v -0.38126 -0.38126 l 0.264584,-0.16352 0.264583,-0.16352 v -0.29509 -0.29509 l -0.697753,0.64143 -0.697753,0.64143 -0.105228,-0.29227 -0.105227,-0.29228 -0.652228,0.12469 -0.652228,0.12468 v -0.67669 -0.67669 l -0.282186,-0.1744 -0.282186,-0.1744 -0.165515,0.16552 -0.165515,0.16551 -0.147611,3.04931 -0.147612,3.04932 1.512415,-0.0752 1.512414,-0.0752 0.2548,0.26029 0.254801,0.26029 0.179078,0.72514 0.179079,0.72514 -0.383394,0.14712 -0.383395,0.14713 -0.90144,0.0601 -0.901441,0.0601 -0.330729,0.20774 -0.330729,0.20774 v 0.77814 0.77813 h -0.396875 -0.396875 v 0.24518 0.24519 l 0.46302,0.10286 0.463021,0.10286 0.396875,-0.12368 0.396875,-0.12367 z m 14.502609,0.46301 v -0.26458 l -0.46302,-4.2e-4 -0.463021,-4.1e-4 0.926041,-0.51039 0.926042,-0.51038 0.661458,-0.30272 0.661459,-0.30272 -0.463021,-0.34013 -0.463021,-0.34013 v -0.43385 -0.43385 l 0.330729,-0.0399 0.330729,-0.0399 1.272404,-0.064 1.272404,-0.064 0.182805,-0.18525 0.182804,-0.18524 -0.08101,-3.07855 -0.08101,-3.07854 -0.503242,-0.46884 -0.503241,-0.46884 h -0.423553 -0.423553 l 0.15638,-0.25303 0.15638,-0.25303 0.424504,0.1629 0.424504,0.1629 -0.120245,-0.36074 -0.120245,-0.36073 -0.825088,-0.2138 -0.825088,-0.21381 -0.166932,-0.52595 -0.166933,-0.52596 h -0.49299 -0.492991 l -0.94138,0.59531 -0.941381,0.59531 -0.179126,0.66146 -0.179126,0.66146 -0.412737,0.30468 -0.412737,0.30468 -0.101522,2.01042 -0.101521,2.01043 h 0.395364 0.395364 l 0.44741,0.68283 0.447409,0.68284 -0.144092,0.3755 -0.144093,0.3755 h -0.509163 -0.509163 l -0.160599,0.41851 -0.1606,0.41851 v 0.21209 0.21208 l 0.529167,0.13838 0.529167,0.13838 v 0.55394 0.55394 h -0.815799 -0.815798 l 0.108598,0.33073 0.108599,0.33073 0.7072,0.0837 0.7072,0.0837 v 0.51159 0.51159 h 0.661458 0.661458 z m 1.092194,-5.11858 -0.34214,-0.41225 0.08799,-0.45381 0.08799,-0.4538 0.750755,-0.25013 0.750755,-0.25013 0.264433,0.26443 0.264433,0.26444 -0.761043,0.85175 -0.761042,0.85176 z m -0.845313,-2.84378 -0.547497,-0.76889 h -0.378859 -0.378858 v -0.35278 -0.35278 l 0.16708,-0.16708 0.16708,-0.16708 0.473034,0.25316 0.473035,0.25316 0.118234,-0.32861 0.118235,-0.32862 -0.126051,-0.82626 -0.126051,-0.82625 0.333882,-0.20635 0.333882,-0.20635 0.356737,0.48786 0.356736,0.48787 v -0.57974 -0.57973 h 0.238701 0.2387 l 0.276703,0.79375 0.276703,0.79375 h 0.54293 0.54293 v 0.34717 0.34718 l -0.511235,1.05814 -0.511235,1.05813 -0.94366,0.28962 -0.943659,0.28962 z m 53.416373,6.4091 0.0851,-0.88746 0.521,-0.13625 0.52101,-0.13624 -0.0927,-0.27814 -0.0927,-0.27814 -0.41002,-0.25863 -0.41001,-0.25863 -1.64897,0.36582 -1.64896,0.36582 -0.37297,0.72125 -0.37297,0.72125 0.8602,0.39407 0.86019,0.39408 0.66146,0.11425 0.66146,0.11425 0.39687,-0.0349 0.39688,-0.0349 z m -39.375754,-1.28165 v -0.34009 h -0.412004 -0.412004 l -1.241642,0.30055 -1.241641,0.30056 -0.231983,0.20924 -0.231982,0.20924 0.16977,0.67642 0.169771,0.67642 1.715857,-0.84613 1.715858,-0.84613 z m -18.345342,1.1944 0.572366,-0.27643 -0.704657,-0.60864 -0.704658,-0.60864 -0.749331,0.76347 -0.749331,0.76347 0.170234,0.27544 0.170233,0.27545 0.711389,-0.15385 0.711389,-0.15385 z m 35.852896,-0.46135 0.55209,-0.51435 -0.14723,-0.3837 -0.14724,-0.38369 -0.87894,-0.65305 -0.87894,-0.65305 -1.27035,-0.30821 -1.270338,-0.30821 -0.278008,0.17182 -0.278008,0.17181 -0.369878,0.88525 -0.369879,0.88524 v 0.24414 0.24413 l 0.859896,0.1352 0.859895,0.1352 1.32292,0.39926 1.32291,0.39925 0.2095,0.0237 0.20951,0.0237 z m -49.997236,-0.54608 -0.07822,-0.33495 0.572079,-0.60895 0.572079,-0.60895 -1.649209,0.38473 -1.649209,0.38474 -0.432145,0.2524 -0.432146,0.25241 0.529167,0.0165 0.529167,0.0165 0.454026,0.34491 0.454027,0.3449 0.604307,-0.0546 0.604306,-0.0546 z m 27.41927,-2.00816 0.60358,-0.42276 -0.04483,-0.56943 -0.04483,-0.56942 0.02929,-0.34634 0.02929,-0.34635 0.264583,0.16352 0.264583,0.16353 v 0.6242 0.6242 l 0.169112,0.4407 0.169112,0.4407 0.223712,-0.35291 0.223711,-0.35292 0.0041,-1.24646 0.0041,-1.24646 -0.519986,-0.48445 -0.519987,-0.48444 -0.07533,-3.03159 -0.07533,-3.031601 -0.529166,0.0913 -0.529167,0.0913 -0.08003,0.0769 -0.08003,0.0769 -0.102918,2.532211 -0.102917,2.53221 -0.289562,0.54105 -0.289562,0.54105 -0.09408,1.83637 -0.09408,1.83638 0.147665,0.14766 0.147665,0.14767 h 0.293906 0.293906 z m 58.463326,0.10527 0.3175,-0.3175 v -0.21167 -0.21167 h -0.52917 -0.52916 v 0.52917 0.52917 h 0.21166 0.21167 z m -1.66687,-1.2928 v -0.90325 l 1.01677,0.0807 1.01678,0.0807 -0.16653,-0.26945 -0.16653,-0.26945 0.56328,-0.56328 0.56328,-0.56328 0.50816,0.13289 0.50817,0.13289 0.25377,-0.47417 0.25377,-0.47418 0.4421,-0.16965 0.44209,-0.16964 0.1053,0.10529 0.10529,0.1053 -0.63613,0.76083 -0.63612,0.76082 -0.17926,0.57305 -0.17926,0.57305 0.27535,0.17017 0.27534,0.17017 v -0.38163 -0.38163 l 0.54888,-0.14354 0.54889,-0.14353 1.49532,0.38948 1.49533,0.38948 1.5254,-0.47524 1.52541,-0.47524 0.002,-0.31233 0.002,-0.31233 -0.56702,-0.0846 -0.56701,-0.0845 0.0533,-2.57903 0.0533,-2.57903 -0.64975,0.24703 -0.64974,0.24703 -0.12453,-0.12453 -0.12454,-0.12453 -1.68861,-0.0201 -1.68861,-0.0201 -1.19062,0.57069 -1.19063,0.57069 -1.84278,0.97989 -1.84278,0.97989 -0.23332,0.92605 -0.23332,0.92604 -0.13111,1.09628 -0.13111,1.09628 0.3069,0.57344 0.30689,0.57344 0.31282,-0.10502 0.31281,-0.10502 z m 6.01927,-4.38577 -0.33073,-0.13345 v -0.34397 -0.34396 l 0.50685,-0.13255 0.50686,-0.13254 0.26622,0.26621 0.26622,0.26622 -0.13993,0.36464 -0.13992,0.36463 -0.30242,-0.0209 -0.30242,-0.0209 z m -57.104443,-0.92873 -0.07586,-1.065061 -0.11327,-0.11327 -0.113269,-0.11326 -0.167927,1.225161 -0.167927,1.22516 0.164056,0.26545 0.164056,0.26544 0.193002,-0.31228 0.193002,-0.31228 z m 27.883033,-0.55308 -0.0812,-1.121081 -0.35494,0.62317 -0.35495,0.623171 0.17945,0.95658 0.17946,0.95659 0.25668,-0.45867 0.25669,-0.45867 z m -57.165049,-7.335181 0.330729,-0.004 v -0.40518 -0.40518 l -0.330729,-0.10189 -0.330729,-0.10189 -0.733415,-0.16089 -0.733414,-0.16089 -0.156082,0.40675 -0.156082,0.40674 0.341847,0.4119 0.341847,0.4119 0.547649,-0.14707 0.54765,-0.14708 z m 19.248437,-0.004 0.529167,-0.008 -0.295601,-0.19439 -0.295602,-0.19439 -0.162244,-10.9802 -0.162245,-10.98021 -0.0052,-4.69636 -0.0052,-4.69635 h -2.220651 -2.220651 l -0.161457,0.42075 -0.161458,0.42075 0.156342,0.25297 0.156343,0.25297 0.175245,9.2924 0.175245,9.29241 0.33073,0.11009 0.330729,0.110091 v 0.4915 0.49151 l -0.264584,0.16352 -0.264583,0.16352 v 0.48524 0.48525 l 0.33827,0.1298 0.33827,0.12981 -0.02186,1.16282 -0.02186,1.16282 -0.210348,0.34035 -0.210347,0.34035 0.163155,0.86969 0.163155,0.86969 -0.399883,0.76679 -0.399883,0.76678 -0.0016,0.57368 -0.0016,0.57367 -0.149379,0.38928 -0.14938,0.38927 -0.456337,-0.11933 -0.456337,-0.11934 -0.47389,0.52365 -0.473891,0.52364 2.443876,0.0191 2.443875,0.0191 0.150358,0.15036 0.150357,0.15035 0.535895,-0.144 0.535894,-0.144 z m 49.768492,-0.57213 0.12824,-0.20751 -0.0157,-14.05129 -0.0157,-14.05128 -0.41505,-0.80262 -0.41504,-0.802619 -0.24494,0.24494 -0.24493,0.24493 -0.16048,8.0537 -0.16047,8.05369 -0.12864,6.43497 -0.12864,6.434959 -0.39618,0.15203 -0.39618,0.15203 -0.23184,-0.36929 -0.23184,-0.36928 0.11665,-0.39687 0.11665,-0.39688 0.14205,-3.88689 0.14206,-3.88689 -0.26869,-0.16605 -0.26869,-0.16606 -0.59137,0.70723 -0.59137,0.70722 -1.25677,1.430291 -1.25677,1.43029 v 0.23239 0.23238 l -0.33073,-0.0342 -0.33073,-0.0342 -1.36227,0.20143 -1.36228,0.20144 -0.45101,0.68833 -0.45101,0.68834 0.26794,0.56288 0.26794,0.56287 0.13531,0.43 0.1353,0.42999 1.27437,-0.0344 1.27436,-0.0344 0.0952,-0.52792 0.0952,-0.52792 0.23891,-0.25135 0.2389,-0.25136 v 0.72093 0.72092 l 0.7276,0.30067 0.72761,0.30066 0.74948,0.10686 0.74949,0.10685 0.83801,0.51605 0.83802,0.51604 1.13991,-0.0543 1.13991,-0.0543 z m 12.01165,-0.55191 6e-5,-0.19844 -0.99218,-0.0392 -0.99219,-0.0392 -0.39688,-0.027 -0.39687,-0.027 -0.303,-0.19692 -0.30301,-0.19691 -0.14179,0.36948 -0.14178,0.36949 0.16198,0.16198 0.16198,0.16198 1.6718,-0.07 1.67181,-0.07 z m -58.850616,-1.02311 0.148085,-0.2396 -0.02524,-6.28792 -0.02524,-6.28791 -0.126878,-2.6388 -0.126877,-2.63881 -0.103881,-3.47447 -0.103881,-3.47447 -0.290621,-0.54303 -0.290621,-0.54303 v -0.60326 -0.60325 l -0.454643,0.45464 -0.454642,0.454641 -0.0084,13.02966 -0.0084,13.02966 -0.204258,0.40442 -0.204259,0.404419 1.065813,-0.10164 1.065813,-0.10164 z m 14.400682,-0.0783 v -0.35914 l -0.437067,-1.3533 -0.437067,-1.353299 h -0.259307 -0.259308 l -0.824979,0.50502 -0.82498,0.50501 -1.718195,0.560159 -1.718195,0.56017 -0.706296,-0.15513 -0.706295,-0.15513 -0.183511,0.57819 -0.18351,0.57819 0.267898,0.16541 0.267898,0.1654 3.861457,0.0588 3.861457,0.0588 z m 34.708364,-0.94907 0.90172,-1.19063 0.5835,-0.0845 0.5835,-0.0846 v -0.24618 -0.24618 h 0.42773 0.42774 l -0.15954,-0.59532 -0.15954,-0.59531 -0.004,-12.76614 -0.004,-12.76615 h -1.98437 -1.98438 l 0.003,1.78594 0.003,1.78593 -0.0243,12.96459 -0.0243,12.96458 0.0211,0.22049 0.0211,0.22048 0.23457,-0.0882 0.23457,-0.0882 z m 9.64241,0.85401 0.56224,-0.45714 0.46038,-0.7276 0.46038,-0.7276 h 0.50378 0.50378 l -0.15602,-0.62162 -0.15602,-0.62162 0.82623,-0.34224 0.82624,-0.34224 -0.1521,-0.39634 -0.15209,-0.39634 0.40898,-0.62418 0.40898,-0.62417 h 0.25848 0.25848 v 0.66976 0.66976 l 0.38811,0.14893 0.38811,0.14893 0.64191,-0.74626 0.64191,-0.74627 0.73307,0.3906 0.73307,0.39059 0.11104,-0.33073 0.11105,-0.33073 h 0.47881 0.47881 l 0.13992,0.36463 0.13993,0.36464 -0.28491,0.2849 -0.28491,0.28491 0.76861,-0.20551 0.7686,-0.20552 0.0688,-12.35027 0.0688,-12.35028 h -8.17719 -8.1772 l -0.16953,3.77031 -0.16953,3.77031 -0.14526,4.10105 -0.14525,4.10104 0.0312,0.92604 0.0312,0.92604 0.0549,4.29948 0.0549,4.29948 h 0.32533 0.32533 l 1.02779,-0.53571 1.02778,-0.53571 0.43557,0.16714 0.43557,0.16714 v 0.68607 0.68607 l 0.30869,-0.30868 0.30868,-0.30868 v -0.81348 -0.81348 l 0.41892,0.0832 0.41892,0.0832 v 0.94501 0.94501 l 0.33642,0.40574 0.33642,0.40575 -0.25575,0.67267 -0.25575,0.67267 -0.54369,-0.14218 -0.54369,-0.14218 v -0.2394 -0.23939 l -0.66146,-0.30138 -0.66146,-0.30138 v -0.61899 -0.61899 h -0.23626 -0.23628 l -0.16779,0.43726 -0.16779,0.437251 0.2923,0.88566 0.29229,0.88566 0.4425,0.0193 0.4425,0.0193 0.79375,0.49049 0.79375,0.49049 0.13229,0.0135 0.1323,0.0135 z m 0.001,-2.77224 -0.15954,-0.59531 -0.004,-0.19844 -0.004,-0.19844 h 0.66146 0.66146 v 0.11507 0.11507 l -0.25803,0.67868 -0.25804,0.67868 h -0.24027 -0.24027 z m 2.17433,-1.30966 -0.43703,-0.34399 0.0402,-1.05833 0.0402,-1.05833 0.26458,0.057 0.26458,0.057 0.20652,0.99397 0.20652,0.99397 -0.0742,0.35135 -0.0742,0.35135 z m -5.07141,-0.64896 -0.1801,-0.1801 v -0.84093 -0.84094 l 0.48386,-0.43788 0.48385,-0.43788 h 0.57448 0.57448 v 0.97013 0.97014 l -0.18009,-0.18009 -0.1801,-0.18009 -0.69814,0.66886 -0.69815,0.66887 z m 6.96365,-1.88518 v -0.47037 l -0.55101,-0.47179 -0.55101,-0.47179 -0.64542,0.42289 -0.64541,0.42289 -0.42332,-0.2369 -0.42331,-0.2369 0.62028,-0.43446 0.62028,-0.43446 h 0.42264 0.42264 l 0.8414,0.75121 0.84141,0.7512 v 0.43942 0.43942 h -0.26458 -0.26459 z m -76.613238,5.97993 0.419265,-0.84044 -0.149961,-0.47249 -0.149961,-0.47248 0.28855,-0.53916 0.28855,-0.53916 h 0.477345 0.477345 l 0.804498,-0.88409 0.804499,-0.88408 0.296348,-0.55373 0.296347,-0.55373 v -0.15473 -0.15473 l -0.661459,0.16602 -0.661458,0.16602 0.0031,-0.22713 0.0031,-0.22712 1.31985,-1.30572 1.31985,-1.30572 0.02831,-0.54636 0.02831,-0.54636 -0.09445,-6.48229 -0.09445,-6.4823 0.01405,-2.97656 0.01405,-2.97656 H 60.274856 49.479031 v 1.00542 1.00541 l 0.289095,0.2891 0.289094,0.28909 -0.289094,0.54018 -0.289095,0.54018 0.0041,11.98979 0.0041,11.98979 0.194386,-0.26459 0.194386,-0.26458 0.477102,-0.37481 0.477101,-0.37481 1.24269,-0.25097 1.242691,-0.25096 1.314662,-0.0477 1.314662,-0.0477 0.470208,-1.3109 0.470208,-1.3109 0.0011,-0.55466 0.0011,-0.55466 0.425616,-0.85317 0.425616,-0.85317 0.566571,-0.21198 0.566572,-0.21197 0.940088,-0.29671 0.940089,-0.29671 1.176578,0.33857 1.176578,0.33857 0.515239,0.95273 0.515239,0.95273 -0.366103,1.15438 -0.366104,1.15438 -0.479865,0.70231 -0.479864,0.7023 v 0.43048 0.43048 l -0.396875,0.1523 -0.396875,0.15229 v 0.21576 0.21575 l 0.902577,0.29788 0.902578,0.29788 0.968344,0.91327 0.968345,0.91326 h 0.09407 0.09407 z m -15.461647,-26.01464 -0.348101,-0.41944 0.278183,-0.27818 0.278182,-0.27818 0.491125,0.0946 0.491125,0.0946 v 0.52192 0.52192 l -0.421207,0.0811 -0.421206,0.0811 z m 34.138773,26.30082 0.139927,-0.21367 -0.03025,-1.40198 -0.03025,-1.40197 -0.590419,-1.71979 -0.59042,-1.7198 -0.379151,-0.74904 -0.37915,-0.74905 v -0.64832 -0.64832 l -0.396875,-0.15229 -0.396875,-0.1523 v -0.50916 -0.50917 l 0.393044,-0.15082 0.393044,-0.15083 -0.536581,-0.43618 -0.536581,-0.43618 -0.09451,-1.40155 -0.09451,-1.40155 0.739579,-1.38594 0.739579,-1.38594 0.335845,-1.12095 0.335845,-1.12095 -0.572795,-0.53364 -0.572794,-0.53364 -0.03047,-0.32042 -0.03047,-0.32042 0.04968,-0.52917 0.04968,-0.52917 0.428233,-0.33072 0.428233,-0.33073 h 0.717776 0.717776 l 0.01326,-3.04271 0.01326,-3.04271 -2.170666,3.7e-4 -2.170666,3.7e-4 -0.07616,14.44639 -0.07616,14.44639 0.281267,0.3389 0.281266,0.33891 1.779271,-0.13929 1.779271,-0.13928 z m 60.122512,-0.30564 0.59173,-0.33073 0.59531,-0.50914 0.59531,-0.50915 v -0.35075 -0.35075 h -0.50048 -0.50049 l -0.16601,-0.66146 -0.16602,-0.66146 h -0.24392 -0.24393 l -0.15638,0.25303 -0.15638,0.25303 -0.32827,-0.12597 -0.32826,-0.12597 -0.50247,0.86513 -0.50246,0.86512 -0.3661,0.2198 -0.36609,0.21979 0.31165,0.37552 0.31166,0.37552 h 0.36447 0.36448 v 0.26458 0.26459 h 0.40047 0.40046 z m -43.45779,-3.77032 0.22949,-0.52916 0.28033,-1.40209 0.28032,-1.40208 v -0.64013 -0.64014 l -0.3808,0.14613 -0.38081,0.14613 -0.3443,-0.55131 -0.34429,-0.5513 h -0.30455 -0.30455 l -0.157602,0.62794 -0.157603,0.62794 0.155712,2.21633 0.155713,2.21633 0.42946,0.48332 0.42946,0.48332 0.0923,-0.35103 0.0923,-0.35103 z m -40.561992,-0.89626 0.32489,-0.42665 0.0084,-0.19844 0.0084,-0.19844 h -0.842843 -0.842843 l -0.589746,-0.55403 -0.589746,-0.55404 -0.250272,0.48789 -0.250272,0.48789 0.339976,0.8091 0.339975,0.8091 1.009581,-0.11786 1.009581,-0.11787 z m 55.110472,-0.55894 v -0.79375 h -0.39688 -0.39687 v 0.37523 0.37524 l 0.1606,0.41851 0.1606,0.41852 h 0.23627 0.23628 z m 2.91041,-0.14284 v -0.40741 l 0.5272,-1.0334 0.5272,-1.03339 -0.26262,-0.16231 -0.26261,-0.1623 -0.26458,0.16352 -0.26459,0.16352 v 0.29806 0.29807 l -0.54893,0.5843 -0.54893,0.58431 0.34799,0.55723 0.34799,0.55722 h 0.20095 0.20094 z m -5.29166,-0.388889 0.13229,-0.190761 0.59531,-0.18578 0.59532,-0.185789 0.0256,-0.577481 0.0256,-0.57748 -0.0446,-0.97421 -0.0446,-0.9742 0.29282,-0.547149 0.29283,-0.54715 h 0.53335 0.53334 l 0.89295,-0.97471 0.89295,-0.97471 0.38845,0.32239 0.38845,0.32238 0.4249,-0.42491 0.42491,-0.4249 -0.004,1.27566 -0.004,1.27567 -0.24235,-0.38307 -0.24236,-0.38308 -0.32166,0.70597 -0.32166,0.70597 0.36502,0.43983 0.36503,0.43983 0.17667,-0.63043 0.17666,-0.63043 0.0264,0.97657 0.0264,0.97657 0.21931,0.13554 0.2193,0.13554 0.97132,-0.80065 0.97132,-0.80064 v -0.36841 -0.3684 l 0.8599,-0.97894 0.85989,-0.97893 0.0799,-8.42298 0.0799,-8.42298 h -1.98613 -1.98615 l -0.16595,0.99219 -0.16595,0.99218 -0.0897,0.26459 -0.0897,0.26458 -0.0209,-1.25677 -0.0209,-1.25677 h -15.875 -15.875004 v 0.50753 0.50752 l -0.154188,0.40181 -0.154188,0.40181 -0.308833,-0.11421 -0.308833,-0.11421 -0.409233,1.2973 -0.409232,1.2973 0.05017,1.28101 0.05017,1.28101 0.191014,0.86232 0.191014,0.86232 -0.327366,0.39445 -0.327366,0.39446 0.329377,0.39687 0.329377,0.39688 H 86.3292 86.072971 l -0.171571,3.38995 -0.171571,3.38995 0.329257,0.70903 0.329258,0.70902 0.201472,0.002 0.201472,0.002 0.790715,1.72642 0.790716,1.72641 v 0.25796 0.25796 h 0.615337 0.615338 l 0.621408,-0.66146 0.621407,-0.66146 h 0.480805 0.480803 l 0.330471,-0.52916 0.330469,-0.52917 h 0.189059 0.189059 l 1.797817,-0.82247 1.797817,-0.82246 0.661459,-0.30202 0.661458,-0.30201 0.454218,-0.52917 0.454219,-0.52916 0.0088,-0.33073 0.0088,-0.33073 h -0.680358 -0.680357 l -0.377976,-0.37798 -0.377976,-0.37797 v -0.15119 -0.15119 h 0.500859 0.50086 l 0.160364,-0.4179 0.160362,-0.4179 -0.16563,-0.70658 -0.16563,-0.70658 -0.712526,-0.79375 -0.712525,-0.79375 -0.461993,-0.74496 -0.461992,-0.74495 1.480484,-1.42251 1.480485,-1.4225 0.521357,-0.16548 0.521358,-0.16547 v -0.24675 -0.24676 l 1.124481,0.001 1.12448,0.001 1.00516,0.27913 1.00515,0.27913 0.29409,0.64544 0.29408,0.64544 h 0.21181 0.2118 l 0.53948,0.57905 0.53947,0.57906 v 0.50791 0.50791 l -0.5952,1.29741 -0.5952,1.29741 -0.42298,0.13425 -0.42298,0.13425 -0.3147,0.69068 -0.31469,0.69068 0.40683,0.44955 0.40684,0.44954 v 0.17761 0.1776 h -0.52917 -0.52917 v 0.62929 0.62928 l 1.38907,1.05306 1.38906,1.05306 1.0536,0.69891 1.05361,0.6989 h 0.17486 0.17485 l 0.16152,-0.42089 0.16151,-0.4209 -0.52086,-0.73148 -0.52087,-0.73148 0.0881,-0.98228 0.0881,-0.98227 0.29951,-0.29951 0.29952,-0.29952 0.004,-0.80698 0.004,-0.80698 0.19439,-0.26458 0.19438,-0.26459 0.59172,-0.33072 0.59173,-0.33073 h 0.27472 0.27472 l 0.24961,0.65652 0.24961,0.65653 0.80218,-0.16043 0.80217,-0.16044 v 0.39755 0.39756 l -0.44067,0.36312 -0.44068,0.36313 -0.90298,1.40878 -0.90299,1.40877 0.14473,0.37716 0.14473,0.37716 h 0.40518 0.40518 v 0.26459 0.26458 h -0.39688 -0.39687 v 0.54412 0.54413 l 0.8599,-0.47798 0.85989,-0.47798 0.21159,-0.33073 0.21158,-0.33073 h 0.38373 0.38373 v 0.47928 0.47928 l -0.52917,0.56799 -0.52917,0.56799 v 0.27565 0.27565 h 0.29698 0.29698 l -0.29068,0.35025 -0.29069,0.35025 0.32444,0.32769 0.32443,0.32768 -0.46302,0.26125 -0.46302,0.26125 v 0.26343 0.26342 l 0.99219,-0.18244 0.99218,-0.18245 z m 6.17243,-14.54958 0.001,-5.68855 0.15909,3.21654 0.1591,3.21653 -0.16051,2.47201 -0.16051,2.47201 z m -2.46826,13.23747 v -0.25628 l -0.34722,0.13324 -0.34721,0.13323 -0.35896,-0.670701 -0.35895,-0.67071 h -0.21987 -0.21988 v 0.26155 0.26156 l 0.45568,0.532191 0.45567,0.532199 h 0.47037 0.47037 z m -31.910556,-2.45876 0.274127,-0.434581 -0.182685,-0.18269 -0.182685,-0.18268 -0.403269,0.33468 -0.403269,0.33468 v 0.38653 0.38653 l 0.311826,-0.10395 0.311827,-0.10394 z M 84.13938,78.74853 v -0.50086 l -0.396875,-0.1523 -0.396875,-0.15229 v 0.23464 0.23464 l 0.160599,0.41851 0.160599,0.41852 h 0.236276 0.236276 z m 15.081249,-4.93872 v -0.38126 h -0.242943 -0.242944 l -0.451441,-0.17323 -0.45144,-0.17323 0.458742,0.70012 0.458742,0.70013 0.235642,-0.14563 0.235642,-0.14564 z m -14.291551,-0.84428 -0.0041,-0.99219 -0.25648,0.39688 -0.25648,0.39687 -0.0041,0.59532 -0.0041,0.59531 h 0.264583 0.264583 z m 15.762162,-1.41398 0.17892,-0.2895 0.5783,0.110559 0.57831,0.11055 0.31672,-0.33906 0.31672,-0.339049 v -0.223001 -0.223 l -0.33073,-0.71214 -0.33073,-0.71215 -0.42609,-0.002 -0.42609,-0.002 -1.226111,-0.16806 -1.22611,-0.16806 -0.409984,0.98123 -0.409983,0.98123 0.161786,0.50974 0.161787,0.50975 h 0.224705 0.224705 l 0.108989,-0.32697 0.10899,-0.32696 0.640663,0.44538 0.640663,0.44538 0.18282,0.0139 0.18283,0.0139 z"
       id="path13" /></g></svg>
