<?xml version="1.0" encoding="UTF-8" standalone="no"?>
<!-- Created with Inkscape (http://www.inkscape.org/) -->

<svg
   width="101.59999mm"
   height="84.666656mm"
   viewBox="0 0 101.59999 84.666656"
   version="1.1"
   id="svg1"
   xml:space="preserve"
   xmlns="http://www.w3.org/2000/svg"
   xmlns:svg="http://www.w3.org/2000/svg"><defs
     id="defs1" /><g
     id="layer1"
     transform="translate(-47.213174,-151.48498)"><path
       style="fill:#ffffff;fill-opacity:1"
       d="m 47.213176,193.8183 v -42.33333 h 50.8 50.799994 v 42.33333 42.33333 h -50.799994 -50.8 z m 80.157814,40.28281 -0.19648,-1.25677 -0.17919,-2.10213 -0.17919,-2.10213 -0.24627,-0.46016 -0.24627,-0.46016 v -1.07573 -1.07573 h 0.26458 0.26459 v 0.48969 0.48968 l 0.29046,0.83323 0.29047,0.83323 h 0.23366 0.23366 l 0.15923,-0.63441 0.15922,-0.6344 0.70571,0.36819 0.70571,0.3682 0.19844,0.002 0.19844,0.002 v -0.43788 -0.43789 l 0.52916,0.47889 0.52917,0.47889 v 0.76105 0.76104 l 0.3868,0.14844 0.38681,0.14843 0.19171,0.57087 0.19171,0.57087 -0.0616,0.54409 -0.0616,0.54409 0.54139,0.68827 0.54139,0.68826 v 0.289 0.28899 l -0.19843,-0.002 -0.19844,-0.002 -0.6251,-0.79135 -0.62509,-0.79135 h -0.2348 -0.2348 v 0.66146 0.66146 h -0.27619 -0.27618 l 0.0777,0.44834 0.0778,0.44834 -0.6,0.306 -0.59999,0.306 -0.17171,0.1717 -0.1717,0.1717 h 4.37334 4.37334 l -0.071,-0.64634 -0.0709,-0.64634 -0.187,-0.30256 -0.18699,-0.30256 0.84796,-0.87487 0.84795,-0.87487 -0.30128,-0.56295 -0.30128,-0.56294 0.13561,-0.21943 0.13562,-0.21942 0.11679,-1.16417 0.11679,-1.16417 0.385,-0.89335 0.385,-0.89335 0.19811,0.32056 0.19812,0.32056 0.381,1.63112 0.381,1.63113 -0.0184,0.46302 -0.0184,0.46302 -0.0614,0.81236 -0.0614,0.81236 -0.46302,0.25912 -0.46302,0.25912 v 0.64831 0.64831 h -0.25529 -0.25528 l -0.30233,-0.56491 -0.30233,-0.56491 -0.23209,0.36647 -0.2321,0.36648 -0.004,0.7276 -0.004,0.7276 h 4.89479 4.8948 v -8.56588 -8.56589 l -0.82625,-0.16525 -0.82624,-0.16524 0.30992,-0.37344 0.30993,-0.37344 -0.25356,-0.1567 -0.25355,-0.15671 -0.42075,0.16146 -0.42075,0.16146 v 0.26867 0.26867 l -0.39688,-0.32937 -0.39687,-0.32938 v -0.41615 -0.41614 l -0.70832,-0.73932 -0.70831,-0.73933 0.18194,-0.18194 0.18194,-0.18194 0.53783,0.57729 0.53784,0.5773 0.94689,0.39564 0.94689,0.39563 h 0.6512 0.65119 l -0.10714,-0.33072 -0.10715,-0.33073 -1.09423,-0.3523 -1.09422,-0.3523 -0.94596,-1.04706 -0.94595,-1.04706 -0.23113,0.14285 -0.23114,0.14285 0.14617,0.55893 0.14616,0.55893 -0.56788,-0.30392 -0.56787,-0.30392 v -0.38095 -0.38095 l -0.8599,0.15627 -0.8599,0.15627 0.72761,-0.70276 0.7276,-0.70276 0.008,-0.32002 0.008,-0.32002 0.29739,0.51252 0.29738,0.51252 0.88126,-1.04169 0.88126,-1.04168 0.004,0.44412 0.004,0.44412 0.46134,0.46134 0.46134,0.46134 0.26626,0.52378 0.26627,0.52377 0.46302,0.2892 0.46302,0.2892 0.46302,-0.29158 0.46302,-0.29158 0.074,-3.49929 0.074,-3.49928 -0.65696,-0.51676 -0.65696,-0.51677 -0.80608,-1.19438 -0.80608,-1.19439 v -0.40281 -0.40282 l 0.69256,0.54477 0.69255,0.54476 0.20526,-0.12685 0.20526,-0.12686 0.16556,0.65963 0.16556,0.65963 h 0.39183 0.39184 v -8.90764 -8.90764 l -0.16737,0.16737 -0.16737,0.16736 0.0454,2.12569 0.0454,2.12569 h -0.13239 -0.1324 l -0.28498,-1.05833 -0.28498,-1.05834 h -0.26269 -0.26269 l -0.15171,0.39536 -0.15171,0.39535 -0.23686,-0.14638 -0.23686,-0.14639 v -0.79597 -0.79596 l 0.5622,0.17843 0.5622,0.17844 0.2275,-0.35904 0.2275,-0.35905 0.004,-0.73613 0.004,-0.73613 -0.56799,-0.21011 -0.56798,-0.21011 -0.0754,-0.7074 -0.0754,-0.70741 h 0.23091 0.23092 l 0.16352,0.26459 0.16353,0.26458 h 0.64584 0.64584 v -16.00883 -16.00729 h -12.1365 -12.13666 l -0.20779,1.65364 -0.20779,1.65365 -0.0742,-0.39688 -0.0742,-0.39687 -0.16532,-1.25677 -0.16532,-1.25677 h -19.1356 -19.135592 l -0.197384,1.52135 -0.197385,1.52136 -0.07976,1.01836 -0.07976,1.01836 -0.150213,0.15021 -0.150213,0.15022 v -2.68993 -2.68993 h -3.836458 -3.836459 l -0.0221,1.52135 -0.0221,1.52136 -0.09828,8.03583 -0.09828,8.03583 -0.144204,0.1442 -0.144204,0.1442 -0.05014,-5.79878 -0.05014,-5.79878 0.07984,-2.54431 0.07984,-2.5443 -0.186814,-1.3583 -0.186815,-1.3583 H 61.608156 48.006942 l 0.03069,15.27968 0.03069,15.27969 0.127282,-0.52917 0.127281,-0.52916 0.238902,-0.25136 0.238901,-0.25135 v -0.46064 -0.46063 l 0.276174,-0.17069 0.276173,-0.17068 0.398677,0.33087 0.398677,0.33087 0.137077,-0.52418 0.137078,-0.52419 0.818682,0.12016 0.818683,0.12016 0.330286,-0.4517 0.330286,-0.45169 0.290222,0.48148 0.290221,0.48148 0.762677,-0.88141 0.762677,-0.88141 0.183472,0.29686 0.183471,0.29686 0.503894,-0.15993 0.503894,-0.15992 0.646297,0.69736 0.646297,0.69737 0.481188,-0.27288 0.481189,-0.27287 0.604187,-0.65257 0.604187,-0.65256 -0.781414,0.29495 -0.781413,0.29495 -0.415173,-0.34457 -0.415173,-0.34456 0.144994,-0.2346 0.144993,-0.23461 h 0.795529 0.795529 l 0.511773,-0.27389 0.511773,-0.27389 v -0.59923 -0.59924 l -0.3175,-0.3175 -0.3175,-0.3175 h -0.749138 -0.749137 l -0.162542,-0.42358 -0.162542,-0.42357 0.361621,-0.2235 0.361621,-0.22349 -0.184381,-0.18438 -0.184381,-0.18438 -0.337123,0.26407 -0.337123,0.26407 -0.610719,0.14977 -0.610718,0.14976 0.08155,-0.41971 0.08155,-0.41972 0.821521,-0.45877 0.821521,-0.45877 0.354644,0.21918 0.354644,0.21918 1.243162,-0.14723 1.243162,-0.14724 0.458096,0.69915 0.458095,0.69914 -0.174693,1.09247 -0.174693,1.09247 -0.519917,0.73016 -0.519917,0.73015 -3.23e-4,0.22374 -3.23e-4,0.22374 -0.625774,0.72761 -0.625773,0.7276 h -0.299945 -0.299945 v 0.65315 0.65316 l 0.396875,-0.1523 0.396875,-0.15229 v -0.23628 -0.23627 h 0.396875 0.396875 v 0.25628 0.25628 l 0.463021,-0.14895 0.46302,-0.14895 -0.361958,0.25831 -0.361959,0.25832 0.586854,0.58685 0.586855,0.58686 0.302059,-0.30206 0.302059,-0.30206 -0.394663,-0.24952 -0.394663,-0.24951 0.286632,-0.004 0.286632,-0.004 0.970139,0.97014 0.970138,0.97014 v 0.36839 0.36839 l -0.234604,-0.14499 -0.234604,-0.14499 -0.326959,0.39396 -0.32696,0.39396 h -0.48746 -0.487461 l -0.263103,0.49161 -0.263104,0.49161 0.716815,0.34689 0.716815,0.34688 1.014678,0.0848 1.014678,0.0848 0.520479,-0.27855 0.520479,-0.27855 -0.07995,-0.57862 -0.07995,-0.57861 0.522163,0.0913 0.522162,0.0913 0.608073,0.65612 0.608072,0.65612 3.103098,-0.17923 3.103099,-0.17922 0.329208,-0.26863 0.329209,-0.26862 0.669294,0.12794 0.669293,0.12794 0.13445,-0.21754 0.134451,-0.21755 0.388401,0.14905 0.388402,0.14904 v -0.29289 -0.29289 h -0.396875 -0.396875 v -0.26458 -0.26459 h 0.390775 0.390776 l 0.442632,0.67554 0.442632,0.67555 1.415551,-0.17687 1.415551,-0.17686 v 0.29507 0.29507 h -0.564616 -0.564616 l -0.966473,0.28956 -0.966472,0.28957 0.0266,1.42505 0.0266,1.42505 0.168707,0.1687 0.168707,0.16871 -0.126233,0.69637 -0.126232,0.69637 -0.09844,1.45521 -0.09844,1.45521 -0.02705,0.99218 -0.02705,0.99219 H 77.67379 77.44274 l -0.009,-2.18281 -0.009,-2.18281 -0.02453,-2.05053 -0.02453,-2.05052 h -0.374826 -0.374827 l -0.08819,-0.26368 -0.08819,-0.26367 -4.768388,-0.10757 -4.768388,-0.10756 -0.480335,0.35123 -0.480335,0.35123 0.17682,1.80595 0.17682,1.80595 0.390877,0.86604 0.390877,0.86603 0.240589,-0.14869 0.240589,-0.14869 -0.147908,-0.73954 -0.147908,-0.73954 0.818033,-0.68833 0.818032,-0.68833 v -0.19468 -0.19469 l 0.414242,-0.45773 0.414242,-0.45773 0.942941,0.26036 0.942941,0.26035 0.477784,-0.12494 0.477784,-0.12494 0.511527,0.35829 0.511527,0.35828 0.14873,-0.14873 0.14873,-0.14873 0.878213,0.4888 0.878214,0.4888 0.263409,0.39688 0.263408,0.39687 0.306607,1.58751 0.306608,1.5875 -0.119471,2.77812 -0.11947,2.77813 -0.111512,0.33073 -0.111513,0.33072 -0.206741,-6.7e-4 -0.206741,-6.7e-4 -0.04712,-1.78527 -0.04712,-1.78526 -0.118689,-1.67394 -0.118689,-1.67393 -0.297213,-0.29721 -0.297212,-0.29721 v -0.38927 -0.38927 l -0.437882,-0.48386 -0.437882,-0.48386 h -0.602622 -0.602621 l -0.167951,-0.52916 -0.167951,-0.52917 h -0.757574 -0.757574 l -0.941381,0.59531 -0.94138,0.59532 -0.16483,0.59869 -0.164831,0.59869 -0.409739,0.2293 -0.409738,0.2293 -0.156043,1.79455 -0.156043,1.79454 -0.363126,-0.43972 -0.363126,-0.43973 h -0.33617 -0.336171 l -0.160599,0.41852 -0.160599,0.41851 v 0.50753 0.50753 h 0.396875 0.396875 v 0.23415 0.23415 l -0.631132,0.41354 -0.631133,0.41353 -0.160558,-0.16056 -0.160558,-0.16056 0.164367,-1.76852 0.164367,-1.76852 -0.193532,-3.6134 -0.193531,-3.6134 h -0.898937 -0.898937 v 1.98446 1.98437 h -0.234553 -0.234553 l -0.181256,-0.85989 -0.181255,-0.8599 -0.139199,-1.26129 -0.139198,-1.26129 -0.531523,-0.28446 -0.531522,-0.28447 -1.228574,0.15574 -1.228575,0.15573 -0.396875,0.009 -0.396875,0.009 -2.124654,-0.17139 -2.124654,-0.17138 -0.476146,0.89052 -0.476146,0.89052 0.08726,1.17007 0.08726,1.17006 0.320971,0.1055 0.320971,0.10551 0.170733,-0.68026 0.170733,-0.68025 h 0.337333 0.337333 l 0.159538,0.59531 0.159537,0.59531 0.0036,0.55863 0.0036,0.55862 -0.700782,-0.13396 -0.700782,-0.13397 0.228012,0.36894 0.228013,0.36893 -0.06689,0.79391 -0.06689,0.79391 -0.142821,0.7276 -0.14282,0.7276 h -0.235996 -0.235995 l -0.248286,-0.85989 -0.248286,-0.8599 -0.04246,1.45521 -0.04246,1.45521 -0.22739,0.52917 -0.227391,0.52916 -0.02815,-0.13229 -0.02815,-0.13229 -0.152051,-4.36563 -0.152051,-4.36562 -0.257925,-0.48796 -0.257926,-0.48795 -0.507137,0.13262 -0.507136,0.13262 -0.227346,-0.40625 -0.227346,-0.40624 -0.181141,0.29309 -0.181141,0.29309 0.315068,0.58871 0.315068,0.58871 -0.182192,4.48816 -0.182193,4.48815 -0.232672,0.41576 -0.232672,0.41576 0.04589,-0.8956 0.04589,-0.89559 -0.595312,-0.0494 -0.595313,-0.0494 v 3.82463 3.82464 l 0.408089,-0.33868 0.408088,-0.33869 -0.275797,-0.27579 -0.275796,-0.2758 v -1.27 -1.27 h 0.264583 0.264583 v 0.40887 0.40886 l 0.895742,-0.16804 0.895741,-0.16804 0.209437,0.33887 0.209436,0.33888 -0.311428,0.10381 -0.311428,0.10381 v 0.37482 0.37483 h 0.669763 0.669762 l 0.160475,0.41819 0.160475,0.41819 0.525343,-0.13738 0.525343,-0.13738 0.703962,0.52046 0.703962,0.52046 1.049312,0.10953 1.049312,0.10952 0.330729,0.0153 0.330729,0.0152 v 0.5044 0.50439 l 0.529167,-0.13838 0.529166,-0.13838 v -0.20286 -0.20287 l 0.545025,-0.14253 0.545025,-0.14252 -0.171911,-0.91637 -0.171912,-0.91636 0.258265,-0.15962 0.258264,-0.15961 0.146463,0.56007 0.146463,0.56008 0.611222,-0.14482 0.611221,-0.14481 0.661458,-0.17661 0.661459,-0.1766 -0.372951,0.2631 -0.37295,0.26309 0.347649,0.88434 0.34765,0.88433 0.405769,0.33012 0.40577,0.33012 0.608415,-0.57157 0.608415,-0.57158 -0.293676,-0.35386 -0.293677,-0.35386 h 0.426153 0.426152 l -0.06303,-0.57488 -0.06303,-0.57489 1.272134,-0.40238 1.272134,-0.40238 0.622779,0.77883 0.62278,0.77883 -0.373559,0.21158 -0.373559,0.21159 v 0.35133 0.35133 l -0.361771,0.30024 -0.36177,0.30025 -0.332085,-0.40014 -0.332085,-0.40014 H 65.622225 65.04608 l -0.3175,0.3175 -0.3175,0.3175 v 1.04952 1.04951 l -0.727604,0.77994 -0.727605,0.77995 -1.442453,1.42491 -1.442453,1.42492 h -0.318714 -0.318714 l 0.125916,0.4815 0.125916,0.48151 -0.41527,0.34464 -0.415269,0.34464 v 0.24984 0.24984 l -0.661458,0.86722 -0.661459,0.86722 v 0.20141 0.20142 l -0.650405,0.77296 -0.650405,0.77296 0.1634,0.42582 0.163399,0.42581 -0.37289,-0.12346 -0.37289,-0.12346 -0.304521,-0.64025 -0.304521,-0.64024 -0.269363,-1.18192 -0.269363,-1.18191 0.252464,-0.47173 0.252463,-0.47174 h 0.369737 0.369736 l 0.160368,0.50528 0.160367,0.50527 0.361153,0.29973 0.361153,0.29973 0.708662,-2.12792 0.708663,-2.12792 h 0.32223 0.32223 l 0.292868,0.29287 0.292868,0.29287 0.477589,-0.75589 0.477589,-0.75589 1.134543,-1.15929 1.134543,-1.1593 v -0.53725 -0.53725 l -0.672612,-1.14773 -0.672611,-1.14772 H 61.228458 60.97856 l -1.059874,0.7276 -1.059873,0.72761 -0.168941,0.61912 -0.168941,0.61911 -2.180521,2.22516 -2.18052,2.22515 h -0.297601 -0.297601 l -0.99295,0.88731 -0.99295,0.88732 -0.859896,-0.005 -0.859895,-0.005 0.009,-0.28664 0.009,-0.28663 0.511211,-1.05833 0.511212,-1.05833 0.009,-0.86557 0.009,-0.86557 -0.62264,-0.28369 -0.62264,-0.2837 0.07155,-0.90172 0.07155,-0.90172 -0.624495,-0.15674 -0.624495,-0.15674 -0.279621,0.17282 -0.279621,0.17281 v 1.39859 1.39859 l 0.529167,0.47889 0.529167,0.47889 v 0.49074 0.49075 l -0.529167,0.45309 -0.529167,0.45309 v 1.33276 1.33276 l 0.529167,0.33047 0.529167,0.33047 0.487055,-0.30417 0.487056,-0.30417 0.902007,0.17353 0.902007,0.17353 0.359042,0.22766 0.359043,0.22766 -0.178435,0.5622 -0.178435,0.56219 -0.445191,-1.3e-4 -0.445191,-1.3e-4 -1.391901,-0.52904 -1.3919,-0.52903 h -0.261745 -0.261746 v 0.3099 0.30989 l 0.463021,0.52872 0.463021,0.52872 -0.463021,-0.16885 -0.463021,-0.16885 v 1.60396 1.60397 l 0.529167,0.13838 0.529167,0.13838 v 0.40299 0.403 l 0.40137,0.29375 0.401371,0.29375 -0.247239,1.32271 -0.247238,1.32271 0.06003,0.06 0.06003,0.06 2.693596,-1.64574 2.693596,-1.64574 -0.167793,-0.52867 -0.167794,-0.52867 0.425714,0.35331 0.425714,0.35331 0.803076,-0.57184 0.803076,-0.57184 v -0.24657 -0.24656 l 0.46302,-0.002 0.463021,-0.002 1.521354,-1.21009 1.521355,-1.21009 v -0.74755 -0.74754 l 0.529166,0.13838 0.529167,0.13838 v -0.29544 -0.29545 h 0.529166 0.529167 v -0.26199 -0.26199 l 0.469294,0.40182 0.469294,0.40182 -0.101043,1.05954 -0.101044,1.05954 -0.500542,-0.15886 -0.500542,-0.15887 v 0.29401 0.29401 l -0.463021,-0.0777 -0.463021,-0.0777 -0.08455,0.59531 -0.08455,0.59531 h 0.174429 0.174429 l 0.522432,-0.59531 0.522432,-0.59531 0.142288,0.34557 0.142288,0.34557 0.495619,0.46174 0.495619,0.46174 1.089887,0.58175 1.089888,0.58175 h 0.371872 0.371871 v -0.38126 -0.38126 l 0.266452,-0.16468 0.266452,-0.16467 0.168978,0.44035 0.168977,0.44034 -0.236992,0.17174 -0.236992,0.17173 -0.339692,0.60608 -0.339693,0.60607 0.15687,0.25382 0.15687,0.25382 0.315114,-0.008 0.315115,-0.008 0.485948,-0.66717 0.485948,-0.66716 -0.145366,-0.37882 -0.145367,-0.37882 0.501396,-0.26834 0.501395,-0.26834 0.171549,-0.5405 0.17155,-0.54051 0.526788,0.1672 0.526789,0.1672 0.510206,-0.46173 0.510205,-0.46173 v 0.57847 0.57848 l -0.396875,0.1523 -0.396875,0.15229 v 0.36857 0.36857 h 0.355868 0.355868 l 0.397651,-0.46302 0.39765,-0.46302 0.342195,-1.26747 0.342196,-1.26747 0.491786,-0.26319 0.491786,-0.2632 v 0.20859 0.20859 l -0.544131,1.85124 -0.544132,1.85124 -0.1558,2.57969 -0.155801,2.57968 h -0.350097 -0.350098 l 0.162929,-0.46302 0.162929,-0.46302 -0.344956,0.31925 -0.344956,0.31924 -0.686172,-0.48313 -0.686173,-0.48313 -1.077056,-0.5449 -1.077056,-0.5449 -1.105757,0.14831 -1.105756,0.14831 v -0.419 -0.419 l -1.190625,-0.81917 -1.190625,-0.81917 v -0.0948 -0.0948 l 0.53329,0.13946 0.53329,0.13946 0.143783,0.23265 0.143784,0.23264 0.447406,-0.0108 0.447405,-0.0109 -1.084122,-0.98133 -1.084123,-0.98134 -0.719022,-0.38465 -0.719023,-0.38465 -0.18123,0.27883 -0.18123,0.27883 -0.395752,0.1275 -0.395753,0.12749 -0.0011,0.50749 -0.0011,0.50749 -0.330729,-0.0265 -0.330729,-0.0264 -0.534207,-0.0397 -0.534208,-0.0397 0.173361,-0.69072 0.17336,-0.69072 -0.63134,0.18388 -0.631341,0.18388 -0.71689,0.50684 -0.716891,0.50684 h -0.26215 -0.262149 l -0.211585,0.34626 -0.211585,0.34626 -1.294818,0.97666 -1.294819,0.97665 h -0.239169 -0.239169 l -0.613019,0.66146 -0.613019,0.66146 h -0.424533 -0.424534 l -1.038208,0.54115 -1.038209,0.54114 -0.135335,0.71563 -0.135334,0.71562 -0.407244,1.42351 -0.407244,1.42352 -0.0096,3.00826 -0.0096,3.00825 h 39.775025 39.775026 z m -62.386108,0.16356 0.289556,-0.96093 1.150624,-1.27119 1.150623,-1.27118 -0.123099,-0.1231 -0.123099,-0.1231 -1.446941,0.96071 -1.446941,0.96072 -0.149992,-0.24269 -0.149992,-0.2427 1.196069,-0.82291 1.196069,-0.82292 0.03047,-0.31802 0.03047,-0.31802 -0.03823,-0.41066 -0.03823,-0.41065 2.322864,0.0887 2.322865,0.0887 1.190625,0.11815 1.190625,0.11815 2.513541,0.36931 2.513542,0.36931 1.481908,-0.6153 1.481908,-0.6153 1.229858,-0.0794 1.229859,-0.0794 2.12e-4,-0.14043 2.13e-4,-0.14043 0.776817,-0.29322 0.776816,-0.29321 0.526157,0.36853 0.526156,0.36853 0.692142,-0.26315 0.692143,-0.26315 -0.07689,-2.18528 -0.07689,-2.18527 -0.46302,0.0367 -0.463021,0.0367 v -0.20433 -0.20432 l 0.475674,-0.12439 0.475674,-0.12439 0.315714,-1.05377 0.315715,-1.05376 0.791297,-1.16781 0.791296,-1.16781 0.0048,-0.85989 0.0048,-0.8599 h 0.248968 0.248969 l 0.167784,0.27148 0.167785,0.27148 0.707726,-0.073 0.707726,-0.073 0.08723,0.764 0.08723,0.764 -0.417962,-0.16038 -0.417961,-0.16039 v 0.39911 0.39911 l -0.522269,1.02373 -0.522268,1.02373 -1.065232,1.23078 -1.065231,1.23078 v 1.18284 1.18284 l 0.408286,0.15667 0.408286,0.15667 0.187026,-0.18737 0.187027,-0.18738 -0.01933,-1.30052 -0.01933,-1.30052 h 0.231264 0.231264 l 0.386925,0.92605 0.386925,0.92604 h 0.380875 0.380875 l 0.673908,-0.30706 0.673907,-0.30705 v -0.3261 -0.32609 l 0.457974,-0.17575 0.457973,-0.17574 0.09379,0.28138 0.09379,0.28137 0.250104,-0.15457 0.250103,-0.15457 -0.177463,-0.94596 -0.177462,-0.94596 0.632365,0.16923 0.632365,0.16923 0.463021,0.004 0.463021,0.004 v 0.37483 0.37482 l -0.33073,0.11812 -0.330729,0.11812 0.132292,0.13761 0.132292,0.1376 0.844032,0.18074 0.844031,0.18074 0.41225,-0.79721 0.412251,-0.7972 0.0819,-0.53643 0.0819,-0.53644 0.18321,-0.1832 0.1832,-0.18321 v -0.18963 -0.18963 l -0.53458,-0.13979 -0.534579,-0.1398 0.116666,-0.94062 0.116666,-0.94061 0.168946,-0.27337 0.168951,-0.27336 h 0.33294 0.33294 l 0.46844,1.48606 0.468428,1.48606 0.50593,0.1323 0.50592,0.1323 v 0.24027 0.24028 l -0.62537,0.23776 -0.625378,0.23777 -0.16007,0.41714 -0.16007,0.41715 0.15728,0.40986 0.15728,0.40987 0.427708,-0.0824 0.42772,-0.0824 0.34718,-0.72436 0.34718,-0.72437 h 0.49268 0.49268 l 0.11097,0.19843 0.11098,0.19844 -0.0889,-0.33073 -0.0889,-0.33073 -0.15635,-0.38579 -0.15635,-0.3858 0.66052,-0.16578 0.66051,-0.16578 0.15728,-0.5729 0.15729,-0.5729 0.25766,0.39687 0.25765,0.39688 -0.58838,0.44873 -0.58838,0.44874 0.3394,0.34045 0.33939,0.34045 0.15449,-0.59075 0.15448,-0.59075 h 0.3131 0.3131 l 0.3175,0.3175 0.3175,0.3175 0.006,0.67469 0.006,0.67469 0.52336,1.15337 0.52335,1.15337 0.004,2.28621 0.004,2.28621 0.16148,0.60273 0.16148,0.60274 0.56251,-0.17538 0.56252,-0.17537 0.17442,-0.27183 0.17443,-0.27183 0.42088,0.42088 0.42089,0.42089 v 0.20411 0.2041 l -0.3175,-0.3175 -0.3175,-0.3175 h -0.21167 -0.21166 v 0.49677 0.49677 l 0.39687,0.32938 0.39688,0.32938 -0.004,0.8275 -0.004,0.8275 -0.23209,0.36647 -0.2321,0.36647 -0.29302,-0.54751 -0.29302,-0.54752 v -0.52492 -0.52492 l -0.1606,-0.41852 -0.1606,-0.41851 h -0.23628 -0.23627 l -0.0209,0.46302 -0.0209,0.46302 -0.26629,-0.72925 -0.2663,-0.72926 -0.24198,0.14956 -0.24199,0.14955 -0.0107,0.44741 -0.0108,0.44741 -0.76539,0.89495 -0.7654,0.89496 -0.41448,-0.15905 -0.41448,-0.15905 v -0.40518 -0.40518 h -0.52916 -0.52917 l -0.0338,-0.19843 -0.0338,-0.19844 -0.11221,-0.66146 -0.11221,-0.66146 -0.0747,-0.64122 -0.0747,-0.64123 -0.83767,-0.90471 -0.83767,-0.90472 v -0.2493 -0.24931 l 0.42731,-0.65215 0.4273,-0.65215 h -0.39899 -0.399 l -0.15058,0.39242 -0.15059,0.39241 -0.473028,-0.17737 -0.47304,-0.17737 0.34909,0.4295 0.34909,0.4295 -0.29225,0.54608 -0.29226,0.54608 h 0.52286 0.522858 l 0.15035,0.24326 0.15034,0.24326 -0.950208,0.3136 -0.95021,0.3136 0.15906,0.63376 0.15907,0.63377 h -0.38302 -0.383014 l -0.413745,-0.41374 -0.413744,-0.41375 -0.285154,0.17624 -0.285154,0.17623 -0.195233,0.52777 -0.195233,0.52776 -0.800777,-0.67381 -0.800776,-0.67381 -0.572949,0.14983 -0.57295,0.14983 v 0.36602 0.36601 h -0.177604 -0.177604 l -0.500007,-0.4525 -0.500007,-0.4525 -0.254684,0.38636 -0.254685,0.38635 -0.598998,-0.7276 -0.598997,-0.72761 h -0.421945 -0.420685 l -0.325717,0.39247 -0.325716,0.39246 0.58192,0.9966 0.58192,0.9966 -0.950059,-0.9118 -0.950058,-0.9118 v -0.34497 -0.34497 H 88.239158 87.99019 l -0.190128,0.30763 -0.190128,0.30763 -0.166964,0.81685 -0.166964,0.81685 -0.579797,0.0298 -0.579797,0.0298 -0.355962,0.29542 -0.355963,0.29543 -0.574847,-0.77753 -0.574847,-0.77752 v -0.67217 -0.67217 h -0.7813 -0.781301 l -0.673907,0.30705 -0.673908,0.30705 v 0.19381 0.19381 l 0.396875,0.15229 0.396875,0.1523 v 0.40517 0.40518 H 81.897063 81.656 l -0.722014,-0.85989 -0.722015,-0.8599 -3.071818,-0.18193 -3.071818,-0.18193 -0.991469,-0.17766 -0.99147,-0.17766 -0.700446,0.1758 -0.700447,0.1758 0.302853,0.30285 0.302854,0.30286 v 0.60854 0.60854 l -0.46302,0.46582 -0.463021,0.46583 -0.552326,0.70583 -0.552326,0.70584 -0.692897,-0.6425 -0.692898,-0.64249 h -0.531157 -0.531158 l -1.058065,1.12448 -1.058065,1.12448 z m 20.838864,-4.52918 0.0186,-0.19844 H 85.31318 84.784013 v 0.13588 0.13588 l 0.327613,0.5246 0.327612,0.52459 0.182958,-0.46204 0.182958,-0.46203 z m 20.341724,-0.53221 0.0886,-0.45998 h -0.38542 -0.38541 l -0.14241,0.54457 -0.14241,0.54458 0.43924,-0.0846 0.43924,-0.0846 z m -14.243594,-1.20122 0.0059,-0.34436 -0.656501,0.70838 -0.656501,0.70838 0.165193,0.26729 0.165194,0.26728 0.485424,-0.6313 0.485425,-0.6313 z m 11.786164,-0.0725 0.17428,-0.5491 -0.17808,-0.17809 -0.17808,-0.17808 -0.37524,0.51318 -0.37525,0.51317 v 0.21401 0.21402 h 0.37905 0.37904 z m 5.41763,5.46534 v -0.64002 l 0.38335,-0.74904 0.38336,-0.74905 0.12613,-0.43337 0.12614,-0.43338 2.26863,-1.37032 2.26864,-1.37032 0.0191,-0.31297 0.0191,-0.31297 0.90694,-0.75366 0.90694,-0.75367 v 0.53961 0.53961 l -0.23089,0.1427 -0.23089,0.1427 0.0118,1.98819 0.0118,1.9882 -0.19216,0.19216 -0.19217,0.19217 -0.24919,-0.38922 -0.24918,-0.38921 0.0585,-0.39687 0.0585,-0.39688 -0.20745,-0.33073 -0.20744,-0.33073 h -0.61754 -0.61753 l -0.1606,0.41852 -0.1606,0.41851 v 1.02108 1.02108 l -0.23686,0.14639 -0.23686,0.14638 -0.15978,-0.41638 -0.15978,-0.41638 0.16074,-0.64043 0.16074,-0.64043 -0.35942,0.0127 -0.35941,0.0127 -0.92604,0.45211 -0.92604,0.4521 -0.13916,1.18883 -0.13915,1.18884 -0.20719,0.33073 -0.20719,0.33073 h -0.24897 -0.24897 z m 27.78125,-1.4352 v -0.52652 l -0.23851,-0.0882 -0.23852,-0.0882 0.42117,-0.38821 0.42118,-0.3882 -0.17436,0.45435 -0.17435,0.45435 h 0.54026 0.54027 l -0.0886,0.45999 -0.0886,0.45998 -0.45998,0.0886 -0.45999,0.0886 z m 5.14054,-5.18168 -0.16121,-0.64231 -0.34948,-0.13411 -0.34948,-0.13411 0.14552,-1.60483 0.14553,-1.60483 h -0.30134 -0.30133 v 0.39688 0.39687 h -0.24896 -0.24897 l -0.17659,-0.28572 -0.17659,-0.28573 0.55785,-0.39074 0.55785,-0.39073 v -0.25462 -0.25462 l -0.66146,0.16601 -0.66146,0.16602 v -0.56716 -0.56716 l 0.41684,-0.63618 0.41685,-0.63618 0.3769,0.14463 0.37691,0.14463 v -0.29289 -0.29289 h 0.37905 0.37904 l 0.1672,0.5268 0.1672,0.5268 -0.16498,0.26695 -0.16499,0.26695 0.47864,0.0419 0.47863,0.0419 0.46302,-0.0388 0.46302,-0.0388 v 0.29386 0.29386 l 0.38529,-0.31976 0.38528,-0.31976 0.27618,0.17069 0.27617,0.17068 v 0.34026 0.34025 l -0.49252,0.44572 -0.49252,0.44573 -0.4652,1.11664 -0.46519,1.11663 -0.21233,0.52917 -0.21232,0.52917 -0.15792,0.7276 -0.15791,0.7276 h -0.25451 -0.2545 z m -65.344122,-0.43362 -0.1744,-0.28219 0.09264,-0.0485 0.09264,-0.0485 0.591722,-0.33073 0.591722,-0.33073 h 0.368069 0.368068 l 0.338683,-0.40809 0.338684,-0.40809 0.274805,0.27481 0.274806,0.2748 -0.514947,0.38945 -0.514946,0.38945 -0.434713,0.008 -0.434714,0.008 -0.152295,0.39688 -0.152295,0.39687 h -0.389564 -0.389564 z m 32.951502,-1.02512 v -1.3073 l -0.27841,-0.17207 -0.27842,-0.17207 0.08,-1.89406 0.08,-1.89407 -0.22692,-0.66146 -0.22692,-0.66146 1.12929,1.19063 1.12929,1.19062 0.42054,-0.0883 0.42055,-0.0883 -0.33073,0.33961 -0.33073,0.33961 v 0.34396 0.34396 h 0.52917 0.52916 v 0.24897 0.24896 l -0.30743,0.19001 -0.30743,0.19 -0.46258,-0.57126 -0.46259,-0.57127 h -0.26729 -0.2673 l -0.17824,0.81152 -0.17824,0.81152 0.4218,0.46609 0.4218,0.46608 v 0.42658 0.42657 l -0.26458,0.16352 -0.26458,0.16352 v 0.51355 0.51355 h -0.26459 -0.26458 z m -51.438,0.0223 -0.157329,-0.25457 1.14266,-0.55315 1.142659,-0.55315 h 0.181048 0.181048 v 0.21558 0.21558 l -0.992187,0.50512 -0.992188,0.50512 -0.174191,0.087 -0.174191,0.087 z m 23.127586,-0.55466 -0.396875,-0.25774 v -0.26285 -0.26284 l -0.518697,-0.37928 -0.518697,-0.37928 -0.02276,-3.00555 -0.02276,-3.00554 0.0945,-0.19916 0.0945,-0.19915 0.51311,0.27461 0.51311,0.27461 v 0.41587 0.41587 l 0.418514,-0.1606 0.418515,-0.1606 h 0.115693 0.115693 l -0.161377,-0.64297 -0.161377,-0.64298 0.553211,0.14467 0.553211,0.14467 v 0.47941 0.47941 l 0.439324,0.43932 0.439323,0.43932 0.23332,-0.41692 0.23332,-0.41691 -0.275769,-0.51528 -0.275768,-0.51528 v -0.14969 -0.14968 h 0.559197 0.559196 l -0.116498,-0.79375 -0.116497,-0.79375 h 0.165842 0.165843 l 0.31309,0.31309 0.313091,0.31309 0.154091,-0.15409 0.154091,-0.15409 -0.250112,-1.0189 -0.250112,-1.01889 0.05643,-0.77164 0.05643,-0.77163 0.543275,-0.20097 0.543275,-0.20097 -0.133259,0.50958 -0.133259,0.50958 h 0.427733 0.427734 v -0.52916 -0.52917 h 0.264583 0.264584 v -0.39687 -0.39688 h -0.264584 -0.264583 v -0.38187 -0.38187 l -0.579349,-0.4058 -0.57935,-0.40579 0.168495,-0.16849 0.168494,-0.1685 0.85156,0.66645 0.85156,0.66644 0.463521,-0.28947 0.463522,-0.28947 1.146294,0.49856 1.146295,0.49857 0.585797,0.67593 0.585797,0.67594 0.0095,0.31132 0.0095,0.31133 0.463021,0.121 0.46302,0.121 -0.595312,0.0307 -0.595313,0.0307 v 0.26458 0.26458 h -0.396875 -0.396875 v 0.23249 0.23248 l -0.859895,0.31876 -0.859896,0.31875 -0.529167,0.28502 -0.529167,0.28502 0.388453,-0.4699 0.388453,-0.4699 -0.517706,0.0997 -0.517706,0.0997 -0.07792,0.52613 -0.07792,0.52613 -0.757469,1.71979 -0.757469,1.71979 -0.577015,2.43982 -0.577015,2.43981 0.150877,0.24412 0.150877,0.24413 -0.990472,0.39322 -0.990472,0.39322 -1.058333,0.1668 -1.058333,0.16679 z m -6.408755,-0.45473 0.338119,-0.13592 -0.171773,-0.96768 -0.171774,-0.96767 0.261687,0.26458 0.261687,0.26459 0.160665,0.85989 0.160665,0.8599 -0.588698,-0.0209 -0.588698,-0.0209 z m -11.406523,-0.79245 -0.176389,-0.17639 0.0059,-0.68351 0.0059,-0.6835 0.5174,0.66145 0.5174,0.66146 0.0059,0.19844 0.0059,0.19844 h -0.352778 -0.352778 z m 62.412822,-0.29343 -0.14755,-0.14754 v -0.3673 -0.36729 l -0.50176,-1.10996 -0.50176,-1.10997 -0.39487,-0.95411 -0.39487,-0.95411 0.13373,-0.69953 0.13372,-0.69954 h -0.3748 -0.3748 l -0.27442,0.27442 -0.27441,0.27441 -0.77069,-0.31232 -0.77069,-0.31232 -0.66146,-0.0384 -0.66146,-0.0384 0.0661,-0.3206 0.0661,-0.32061 h -0.24896 -0.24897 l -0.16619,0.2689 -0.16619,0.2689 -0.25915,-0.16016 -0.25915,-0.16017 0.31395,-0.37828 0.31394,-0.37828 -0.47439,-0.52421 -0.4744,-0.5242 h -0.20575 -0.20574 l -0.18019,0.56772 -0.18019,0.56772 -0.69754,0.61454 -0.69753,0.61455 -0.25034,0.008 -0.25034,0.008 0.86062,-0.88794 0.86063,-0.88795 -0.69995,-0.83184 -0.69996,-0.83185 0.35425,-0.0313 0.35425,-0.0312 1.65285,-0.0349 1.65285,-0.0349 8e-4,0.18728 7.9e-4,0.18728 1.16195,0.68095 1.16195,0.68095 0.1362,0.52083 0.1362,0.52083 h 0.38063 0.38064 l 0.47889,-0.52917 0.47889,-0.52916 h 0.23518 0.23517 l -0.0429,0.33073 -0.043,0.33073 0.0314,0.2776 0.0314,0.2776 0.92604,-0.10811 0.92604,-0.10811 v 0.45413 0.45413 l -0.39687,-0.1523 -0.39688,-0.15229 v 0.52086 0.52086 h 0.289 0.289 l 0.67272,0.52917 0.67273,0.52916 h 0.58477 0.58477 l 0.47889,0.52917 0.47889,0.52917 -0.23945,0.0281 -0.23944,0.0281 -0.52444,0.038 -0.52443,0.038 -0.0905,0.46428 -0.0905,0.46428 0.61495,0.25165 0.61496,0.25166 -0.91957,-0.0545 -0.91958,-0.0545 -0.006,0.32417 -0.007,0.32417 -0.84464,0.77146 -0.84464,0.77146 z m -63.185585,-2.65421 -0.421401,-0.84472 h 0.193735 0.193734 l 0.420433,0.33073 0.420432,0.33073 -0.192766,0.51398 -0.192766,0.51399 z m 67.271375,0.34248 v -0.13572 l 1.45521,-0.68901 1.4552,-0.68901 v -0.2336 -0.23361 l -0.7276,-0.009 -0.7276,-0.009 1.04771,-0.4954 1.04772,-0.49541 0.076,-1.13529 0.076,-1.1353 0.26532,-0.26532 0.26533,-0.26532 v -0.18336 -0.18336 l -0.41074,-0.15762 -0.41074,-0.15761 -0.6476,0.42432 -0.64759,0.42432 v -0.67349 -0.67348 l -0.59261,-0.0845 -0.59261,-0.0846 -0.0791,-0.52916 -0.0791,-0.52917 -0.12703,-0.59531 -0.12703,-0.59532 h -0.86809 -0.86808 l -0.29435,0.29435 -0.29435,0.29435 -0.27001,-0.0959 -0.27001,-0.0959 0.44787,-0.92604 0.44788,-0.92604 0.38589,-0.58586 0.3859,-0.58587 0.66986,0.15365 0.66986,0.15366 1.85208,0.61001 1.85209,0.61002 0.43755,0.17146 0.43756,0.17146 0.81921,-1.19069 0.81922,-1.19069 v -0.35261 -0.35261 l -0.59531,-0.31579 -0.59532,-0.31579 -0.46302,-0.17468 -0.46302,-0.17468 v -0.4827 -0.48269 l -0.31239,-0.19307 -0.31239,-0.19306 -0.38134,0.57432 -0.38134,0.57433 -0.29846,-0.0173 -0.29845,-0.0173 -0.6614,-0.72324 -0.6614,-0.72324 -0.72766,0.36301 -0.72767,0.36301 v 0.36188 0.36188 l -0.26165,0.16171 -0.26165,0.16171 -0.91583,-0.43459 -0.91583,-0.43458 -0.78171,0.17169 -0.7817,0.17169 -0.1731,-0.28008 -0.17309,-0.28007 -0.5797,0.008 -0.5797,0.008 -0.51359,0.38846 -0.51359,0.38846 h -0.21401 -0.21401 v -0.39332 -0.39333 l -0.92605,-0.38692 -0.92604,-0.38693 v -0.52329 -0.52328 l -0.77532,-0.38678 -0.77532,-0.38678 -0.61368,0.65323 -0.61369,0.65324 0.72755,0.52998 0.72755,0.52998 v 0.21166 0.21166 l -0.55218,0.1444 -0.55218,0.14439 0.0914,0.48178 0.0914,0.48177 0.68811,0.0801 0.68812,0.0801 0.28123,0.58133 0.28122,0.58133 0.15032,0.69733 0.15032,0.69733 -0.41272,0.34252 -0.41271,0.34252 0.12585,0.48124 0.12585,0.48124 -0.20967,0.12958 -0.20966,0.12958 -0.14489,-0.55407 -0.14489,-0.55407 -0.34821,0.11475 -0.34821,0.11474 -0.0861,0.5861 -0.0861,0.5861 -0.57539,-0.17839 -0.5754,-0.17946 -0.19439,-0.29507 -0.19439,-0.29507 -0.004,-0.33903 -0.004,-0.33904 0.39688,-0.15229 0.39687,-0.1523 v -0.77807 -0.77808 l -0.66146,-0.61302 -0.66145,-0.61302 v -0.38858 -0.38858 l -0.17697,-0.17697 -0.17697,-0.17697 -0.41834,0.36227 -0.41835,0.36227 -1.13117,0.17167 -1.13117,0.17168 -0.16396,-0.46722 -0.16396,-0.46722 -0.5029,-0.40713 -0.5029,-0.40714 -0.0792,-0.74251 -0.0792,-0.74252 -0.37176,-0.23536 -0.37177,-0.23536 -0.33072,-0.004 -0.33073,-0.004 v 0.36857 0.36857 l -0.37202,0.14276 -0.37202,0.14275 -0.42173,-0.46601 -0.42173,-0.46601 v -0.38339 -0.38338 l 0.48847,-0.41825 0.48848,-0.41824 0.636,0.33249 0.636,0.33249 2.47643,0.83577 2.47642,0.83578 0.12844,-0.12845 0.12845,-0.12844 -0.16833,-0.76637 -0.16832,-0.76636 -0.58446,0.0198 -0.58446,0.0198 -0.0333,-5.68854 -0.0333,-5.68854 0.20515,-0.92604 0.20516,-0.92605 0.0266,0.84429 0.0266,0.84428 0.26458,0.16352 0.26458,0.16352 v -1.45524 -1.45521 l -0.26458,-0.16352 -0.26459,-0.16352 v -1.41129 -1.41128 l -0.37695,-0.14465 -0.37696,-0.14466 -3.65794,0.0941 -3.65794,0.0941 -0.51019,0.20097 -0.5102,0.20097 -2.79709,-0.0688 -2.7971,-0.0688 -2.381249,-0.096 -2.38125,-0.096 -5.275918,-0.0202 -5.275918,-0.0202 -0.336728,0.33703 -0.336728,0.33703 -0.121394,3.04271 -0.121394,3.04271 -0.02065,0.7276 -0.02065,0.7276 h -0.396875 -0.396875 v -0.24253 -0.24254 l 0.297709,-0.0992 0.297708,-0.0992 -0.19686,-0.8963 -0.196861,-0.8963 -0.356056,0.64276 -0.356056,0.64276 -0.0094,0.90399 -0.0094,0.904 -0.181888,-0.18189 -0.181888,-0.18189 -0.0522,-2.17731 -0.0522,-2.17732 -0.288164,-1.06094 -0.288165,-1.06094 0.05924,-1.58489 0.05924,-1.58489 -2.228011,-0.13229 -2.22801,-0.1323 -0.122516,-0.37085 -0.122517,-0.37085 0.630735,0.2096 0.630735,0.2096 1.504383,0.11775 1.504382,0.11775 0.479993,-0.27918 0.479992,-0.27918 -1.140094,-0.008 -1.140094,-0.008 0.163522,-0.26459 0.163521,-0.26458 h 0.919736 0.919735 l 0.62765,-0.41125 0.627649,-0.41125 0.172407,0.27896 0.172406,0.27896 -0.163521,0.26458 -0.163522,0.26458 h 0.280199 0.280198 v -0.26458 -0.26458 h 0.273109 0.273109 l 0.189912,0.46302 0.189911,0.46302 0.661459,0.0527 0.661458,0.0527 0.926042,0.0274 0.926041,0.0274 1.719792,-0.0801 1.719792,-0.0801 -0.07278,0.44138 -0.07278,0.44138 5.866005,-0.021 5.866002,-0.021 0.32704,0.44725 0.32704,0.44726 0.16081,-0.41906 0.16081,-0.41906 4.55546,0.0485 4.55546,0.0485 0.0996,-0.29871 0.0996,-0.29871 h 1.06868 1.06869 l -0.29469,0.35507 -0.29468,0.35508 0.17409,0.17409 0.17409,0.17409 h 1.8236 1.8236 l -0.14199,-0.22991 -0.14204,-0.22983 -1.08414,-0.17336 -1.08414,-0.17337 0.10791,-0.32441 0.10792,-0.32441 0.77192,-0.14198 0.77193,-0.14197 0.59531,0.10667 0.59531,0.10667 v 0.36604 0.36603 h 0.34396 0.34396 l 0.31125,-0.31125 0.31124,-0.31125 0.49011,0.44354 0.49011,0.44354 h 0.26019 0.2602 l 1.13356,0.54768 1.13357,0.54767 0.35773,-0.13727 0.35774,-0.13728 1.62054,0.30137 1.62054,0.30138 0.23708,-0.38105 0.23707,-0.38104 0.53365,0.33073 0.53365,0.33073 h 0.42991 0.42992 l -0.18576,-0.99018 -0.18576,-0.99017 -0.14191,-0.22961 -0.14191,-0.22961 -0.8924,0.14481 -0.89241,0.14482 v -0.23233 -0.23234 l 0.27535,-0.17017 0.27535,-0.17017 -0.13977,-0.44076 -0.13977,-0.44075 0.63842,-0.79375 0.63843,-0.79375 0.33725,0.33073 0.33724,0.33073 h 0.46311 0.4631 l 0.26125,-0.46302 0.26125,-0.46303 0.32277,0.31952 0.32276,0.31952 -0.33868,0.40808 -0.33868,0.40809 0.23083,0.0313 0.23084,0.0313 0.19843,-0.0313 0.19844,-0.0313 v 0.37074 0.37074 l -0.92604,0.54638 -0.92604,0.54638 v 0.4058 0.4058 l 0.46302,0.48535 0.46302,0.48536 0.31151,0.53862 0.31152,0.53862 -1.43102,0.033 -1.43101,0.033 -1.39404,0.48058 -1.39404,0.48059 -0.0894,0.61605 -0.0894,0.61605 0.52749,-0.13794 0.5275,-0.13794 0.75251,0.49613 0.75252,0.49614 0.19844,0.002 0.19844,0.002 v -0.39687 -0.39688 h 0.27657 0.27657 l -0.16274,0.86749 -0.16274,0.86749 0.68669,0.74095 0.6867,0.74096 0.48414,-0.59789 0.48413,-0.59788 0.14181,1.43684 0.1418,1.43683 -0.18957,0.34745 -0.18957,0.34745 -0.2855,-0.34745 -0.28551,-0.34745 -0.11109,-0.66145 -0.11109,-0.66146 -0.16578,0.39687 -0.16578,0.39688 -0.28784,1.12448 -0.28785,1.12448 h -0.48811 -0.48811 l -0.19183,-0.59523 -0.19184,-0.59531 -0.20459,0.79375 -0.20459,0.79375 -0.0683,-0.13229 -0.0683,-0.13229 -0.0572,-0.99219 -0.0572,-0.99219 h 0.35879 0.35879 v -0.37904 -0.37905 l -0.50285,-0.1596 -0.50286,-0.1596 -0.16364,-0.65198 -0.16363,-0.65198 h -0.25955 -0.25954 v 0.52917 0.52916 h -0.26458 -0.26459 v -0.52916 -0.52917 h -0.36856 -0.36857 l -0.1593,-0.41512 -0.15929,-0.41512 -0.59662,0.18849 -0.59661,0.1885 -0.35314,0.50177 -0.35313,0.50178 -0.55365,0.5158 -0.55366,0.51581 0.18732,0.18733 0.18733,0.18732 0.78561,-0.46407 0.78561,-0.46407 -0.008,0.34569 -0.008,0.34568 -0.38846,0.51359 -0.38846,0.51359 v 0.20025 0.20025 l 0.80725,-0.28141 0.80726,-0.28141 0.16288,0.16288 0.16288,0.16289 h -0.30868 -0.30868 v 0.35587 0.35586 l 0.48386,0.43789 0.48385,0.43788 h 0.70677 0.70677 v 0.24568 0.24569 l -0.41537,0.41537 -0.41538,0.41538 -0.64639,0.16223 -0.64639,0.16224 -0.39984,-0.33183 -0.39983,-0.33184 -0.17273,0.17273 -0.17273,0.17273 0.4867,0.35588 0.48669,0.35588 -0.15798,0.41171 -0.15799,0.41171 0.71031,-0.2136 0.71031,-0.2136 0.46302,-0.18816 0.46302,-0.18815 v -0.45839 -0.45839 l 0.69565,-0.31696 0.69565,-0.31696 0.11663,0.11663 0.11663,0.11663 -0.5477,1.1336 -0.54769,1.1336 v 0.0826 0.0826 l 0.85989,0.0209 0.8599,0.0209 -0.33073,0.13346 -0.33073,0.13345 v 0.37483 0.37482 h -0.18396 -0.18396 l -0.70673,-0.67709 -0.70672,-0.67708 -0.56452,0.95679 -0.56453,0.9568 v 0.24946 0.24945 h 0.24295 0.24294 l 0.41852,-0.16059 0.41851,-0.1606 v -0.36857 -0.36857 h 0.26458 0.26459 v 0.8232 0.82319 l 0.87076,-0.16335 0.87077,-0.16336 1.017,1.0415 1.017,1.04151 -0.13796,0.48147 -0.13795,0.48147 -0.19062,0.46302 -0.19062,0.46302 h 0.30639 0.3064 l 0.38344,-0.91771 0.38344,-0.91771 0.34928,0.13403 0.34927,0.13403 0.67625,-1.26684 0.67625,-1.26684 -0.13388,-0.36756 -0.13387,-0.36756 0.33521,0.20717 0.33521,0.20718 0.48698,-0.63337 0.48698,-0.63336 0.006,0.70658 0.006,0.70658 0.7873,0.17292 0.78729,0.17292 0.27104,-0.16751 0.27104,-0.16752 v 0.14791 0.14791 l -0.52917,0.52916 -0.52917,0.52917 h -0.24958 -0.24958 l -0.38939,-0.55594 -0.3894,-0.55595 -0.37842,0.72224 -0.37842,0.72223 0.28971,0.61388 0.2897,0.61387 0.46311,0.12111 0.46311,0.1211 v 0.26996 0.26995 l -0.46302,0.12273 -0.46302,0.12273 1.32291,-0.1406 1.32292,-0.14061 0.10862,-0.0934 0.10862,-0.0934 -0.41623,-0.46464 -0.41622,-0.46464 0.32937,-0.79375 0.32937,-0.79375 0.32681,1.72176 0.32682,1.72176 -0.28244,0.74286 -0.28243,0.74286 v 0.27604 0.27604 l 0.68735,-0.17251 0.68736,-0.17252 -0.12052,0.34227 -0.12052,0.34227 -0.43454,-0.0367 -0.43455,-0.0367 -0.002,0.69821 -0.002,0.69821 -0.40154,0.76999 -0.40155,0.76999 0.53547,0.56998 0.53547,0.56997 v 0.47428 0.47428 l -0.33073,-0.1243 -0.33073,-0.12429 -0.57397,-0.17965 -0.57398,-0.17966 -0.17071,0.53786 -0.17071,0.53785 0.16499,0.26695 0.16498,0.26695 h 0.22957 0.22957 l 0.11372,-0.33072 0.11372,-0.33073 -0.12191,0.52916 -0.1219,0.52917 -0.13366,0.8599 -0.13365,0.85989 h -0.23563 -0.23564 v -0.38757 -0.38756 l -0.51177,-0.27389 -0.51177,-0.2739 h -0.14981 -0.14969 v 0.28306 0.28306 l -0.79375,1.15368 -0.79375,1.15367 v 0.94452 0.94451 l 0.7276,0.0209 0.72761,0.0209 -0.39688,0.15108 -0.39687,0.15107 -0.19439,0.29106 -0.19438,0.29106 -0.004,0.19843 -0.004,0.19844 h 0.66145 0.66146 v -0.41627 -0.41628 l 0.46302,0.0883 0.46302,0.0883 0.0846,0.59261 0.0846,0.59261 h 0.43139 0.43139 l -0.31767,0.31767 -0.31767,0.31767 -0.90619,-0.32768 -0.90619,-0.32768 -1.9601,-0.0228 -1.9601,-0.0228 -0.55573,0.29742 -0.55572,0.29741 h -0.14969 -0.14969 z m 3.04271,-8.04432 v -0.37483 l -0.74415,-0.24804 -0.74414,-0.24805 -0.13719,0.13719 -0.13719,0.13719 0.30392,0.56789 0.30392,0.56788 0.57741,-0.0822 0.57742,-0.0822 z m -9.00495,-9.02795 -0.44046,-0.4867 0.42322,-0.60424 0.42323,-0.60423 v -0.56012 -0.56012 l 0.66146,-0.30138 0.66145,-0.30138 v -0.35643 -0.35642 l -0.59531,-0.54488 -0.59531,-0.54488 -0.56398,-0.17059 -0.56398,-0.17058 -0.14261,0.37164 -0.14262,0.37165 -0.74861,0.15299 -0.74862,0.15298 -1.05833,0.22724 -1.05833,0.22725 0.0754,0.34219 0.0754,0.34219 -0.30626,0.36903 -0.30626,0.36902 h 0.40096 0.40097 l 0.20232,0.46303 0.20233,0.46302 -0.0533,0.33073 -0.0533,0.33072 h 0.37804 0.37804 l 0.43538,0.66448 0.43538,0.66447 0.58724,-0.1471 0.58724,-0.14711 0.52625,0.38521 0.52625,0.38521 0.21859,-0.13509 0.21859,-0.1351 z m -8.06473,-9.33211 0.004,-1.0078 -0.26458,0.16352 -0.26459,0.16352 0.004,1.24116 0.004,1.24115 0.25648,-0.39687 0.25648,-0.39688 z m 7.52943,-0.14205 0.0928,-1.36369 h -0.3575 -0.35749 l -0.1734,0.9243 -0.17341,0.92431 0.17606,0.70146 0.17606,0.70147 0.26208,-0.26208 0.26208,-0.26208 z m -39.655365,-5.96699 0.159261,-0.63454 -0.08807,-0.6015 -0.08807,-0.6015 -0.330729,-0.10892 -0.330729,-0.10892 v 1.34496 1.34497 h 0.259543 0.259542 z m 54.600925,31.21341 -0.53529,-1.21011 -0.45063,-0.028 -0.45064,-0.028 -0.79375,0.0503 -0.79375,0.0503 0.2976,-0.30667 0.2976,-0.30666 1.02462,-0.35225 1.02462,-0.35225 0.20291,0.1254 0.20292,0.12541 0.52538,1.02984 0.52539,1.02984 v 0.5241 0.52409 l -0.27085,0.16739 -0.27084,0.16739 z m 1.51249,-0.75709 -0.18603,-0.7376 0.23271,-0.41584 0.23272,-0.41583 0.15481,0.40344 0.15482,0.40345 -0.20149,0.74999 -0.2015,0.75 z m -88.54176,-0.32073 v -0.39687 h -0.538476 -0.538476 l 0.299721,-0.56004 0.299722,-0.56003 0.34265,0.3616 0.34265,0.36159 0.178517,0.59532 0.178518,0.59531 H 51.728923 51.44651 Z m 49.50087,-0.41259 -0.63767,-0.53457 0.2408,-0.20717 0.24079,-0.20717 1.38967,-0.9729 1.38968,-0.97289 h 0.26397 0.26397 v 0.24897 0.24897 l -0.28262,0.17467 -0.28262,0.17467 0.13685,0.35663 0.13686,0.35664 -0.3834,-0.14712 -0.3834,-0.14713 v 0.23674 0.23674 l -0.72761,0.84475 -0.7276,0.84475 z m 11.57075,-0.27083 -0.97317,-0.49346 -0.45218,-0.76547 -0.45218,-0.76548 -0.88975,-0.34911 -0.88976,-0.34912 -0.006,-1.07509 -0.006,-1.0751 -0.5174,-0.66146 -0.5174,-0.66145 -0.006,-0.15597 -0.006,-0.15597 0.70362,-0.32059 0.70362,-0.32059 0.18999,0.30741 0.18999,0.30741 -0.11825,0.45221 -0.11826,0.45222 0.46481,0.37839 0.46481,0.37839 -0.1714,-0.45746 -0.17139,-0.45747 0.33603,-0.79918 0.33603,-0.79919 0.48108,0.35177 0.48107,0.35177 -0.6291,1.11593 -0.62911,1.11592 0.52917,0.39579 0.52916,0.39579 0.52917,0.36237 0.52917,0.36237 -0.48259,0.36447 -0.48258,0.36447 0.33838,0.74266 0.33838,0.74267 0.80566,-0.11751 0.80566,-0.1175 0.66146,0.1976 0.66146,0.19761 -0.59531,0.0264 -0.59531,0.0264 v 0.52916 0.52917 l -0.19844,-0.0288 -0.19844,-0.0288 z m -1.40693,-2.62574 0.16468,-0.26645 -0.43391,-0.16651 -0.43392,-0.16651 -0.23776,-0.62537 -0.23777,-0.62537 -0.33728,0.0209 -0.33727,0.0209 0.33072,0.13346 0.33073,0.13345 v 0.22531 0.22531 l 0.25804,0.67868 0.25803,0.67868 h 0.25552 0.25552 z m 16.20458,0.50012 -0.99219,-0.50241 v -0.3948 -0.39479 l 0.19844,0.01 0.19844,0.01 0.76816,0.62808 0.76816,0.62807 0.42246,-0.15796 0.42247,-0.15796 -0.36313,0.44641 -0.36313,0.44641 -0.0337,-0.0288 -0.0337,-0.0288 z m 13.96286,0.19832 -0.52307,-0.29969 -0.29668,-0.37115 -0.29669,-0.37116 -0.33307,0.20585 -0.33306,0.20585 0.1935,-0.62845 0.19351,-0.62844 0.0565,-0.0673 0.0565,-0.0673 0.8365,0.4173 0.83649,0.4173 0.16427,0.6545 0.16427,0.6545 -0.0979,0.0889 -0.0979,0.0889 z m -68.797756,-0.72003 -0.79375,-0.24255 -0.727604,0.15403 -0.727604,0.15403 v -0.65418 -0.65417 l -0.396875,-0.1523 -0.396875,-0.15229 -0.396875,0.15229 -0.396875,0.1523 v -0.29289 -0.29289 h 0.79375 0.79375 v -0.21605 -0.21604 l -1.785937,-0.32665 -1.785938,-0.32665 -1.119451,-0.28404 -1.119452,-0.28403 -0.231397,-0.29775 -0.231396,-0.29775 -0.139768,-0.57249 -0.139768,-0.57249 0.481341,-0.12588 0.481341,-0.12587 0.125352,0.32666 0.125352,0.32666 2.868298,0.32357 2.868298,0.32356 0.436975,4e-4 0.436976,4e-4 0.144753,0.55354 0.144753,0.55353 -0.250999,0.469 -0.251,0.469 v 0.28197 0.28198 h 0.519921 0.51992 l 1.229935,0.41757 1.229934,0.41758 0.760927,-0.72902 0.760927,-0.72901 0.166948,0.16695 0.166947,0.16695 -0.890535,1.12439 -0.890535,1.12439 -0.0868,-0.45073 -0.0868,-0.45074 h -0.13179 -0.13179 l -0.396875,0.39688 -0.396875,0.39687 -0.179539,-0.0227 -0.179539,-0.0227 z m 9.143898,-1.0789 -0.544939,-0.58492 v -0.19441 -0.19442 l 0.79375,0.39598 0.79375,0.39597 v 0.22959 0.22959 l -0.248811,0.15377 -0.248811,0.15378 z m 43.023118,0.13222 -0.17639,-0.17639 v -0.32409 -0.3241 l 0.69268,-0.17385 0.69267,-0.17385 0.12312,0.12312 0.12312,0.12312 -0.55121,0.55122 -0.55122,0.55121 h -0.0882 -0.0882 z m -19.05067,-0.73187 -0.15912,-0.41466 h -0.39586 -0.39587 l -0.2739,-0.51177 -0.27389,-0.51177 v -0.41427 -0.41427 h 0.24518 0.24519 l 0.0923,0.46302 0.0923,0.46302 0.51503,-0.59531 0.51502,-0.59531 h 0.33808 0.33807 v 0.43385 0.43385 l -0.45303,0.33127 -0.45304,0.33127 0.36245,0.43671 0.36244,0.43672 -0.27115,0.27116 -0.27116,0.27115 z m -31.797252,-0.15626 -0.167345,-0.27077 0.348609,-0.78756 0.34861,-0.78757 h 0.205667 0.205668 l 0.314587,0.69045 0.314587,0.69044 -0.503121,0.36789 -0.50312,0.36789 h -0.198399 -0.198399 z m -11.767131,-0.49166 -0.923038,-0.16361 -0.08855,-0.46302 -0.08855,-0.46302 h 1.095128 1.095127 l 0.559456,0.29941 0.559456,0.29941 -0.495128,0.36205 -0.495128,0.36204 -0.147868,-0.0348 -0.147868,-0.0348 z m 31.859988,-0.7617 -0.283883,-0.19566 -0.169285,-0.45899 -0.169286,-0.45898 0.461554,-0.24702 0.461553,-0.24701 0.785365,0.17683 0.785364,0.17684 0.02101,0.59531 0.02101,0.59531 h -0.46239 -0.462389 l -0.352369,0.12951 -0.352369,0.12952 z m 8.089085,-0.0634 -0.39687,-0.25648 -2.572118,-0.004 -2.572126,-0.004 -0.225029,-0.8599 -0.225028,-0.85989 1.077359,-0.1323 1.077359,-0.13229 -0.06555,-0.26458 -0.06555,-0.26458 0.895035,-0.0275 0.89503,-0.0275 0.609468,-0.56781 0.60947,-0.56781 h 0.18162 0.18162 l 0.16507,-0.82531 0.16506,-0.82531 -0.83962,-0.96063 -0.83962,-0.96062 -0.946008,-0.45405 -0.946023,-0.45404 -0.890754,-0.009 -0.890755,-0.009 0.135063,0.51649 0.135063,0.51648 -0.302642,0.10698 -0.302641,0.10699 -0.617516,-0.22848 -0.617515,-0.22849 -0.212401,0.13127 -0.212402,0.13127 -0.326959,-0.39396 -0.326959,-0.39396 h -0.518819 -0.518818 l 0.110879,-0.33073 0.110879,-0.33073 0.95624,-0.009 0.95624,-0.009 0.109955,-0.12351 0.109955,-0.1235 0.700377,-1.12448 0.700377,-1.12448 h 0.658126 0.658125 l 2.362393,0.7597 2.36239,0.75971 0.28346,-0.28346 0.28345,-0.28345 v -0.34396 -0.34396 h 0.2802 0.2802 l -0.18181,0.29417 -0.1818,0.29416 0.34958,0.21605 0.34958,0.21606 -0.34294,0.74655 -0.34295,0.74655 -0.48851,1.23259 -0.48851,1.23259 0.66093,0.71316 0.66094,0.71317 -0.11209,0.3032 -0.11209,0.30321 -0.3638,-0.0984 -0.36381,-0.0984 -0.41251,-0.11769 -0.4125,-0.11768 -0.3151,0.69155 -0.31509,0.69156 v 0.43942 0.43941 l 0.95641,0.97946 0.95642,0.97946 -0.17828,0.28847 -0.17828,0.28846 -0.18283,-0.004 -0.18282,-0.004 z m -25.059687,-2.18157 -1.114901,-0.80954 -0.406453,0.33733 -0.406453,0.33732 v -0.37786 -0.37787 l 0.639601,-0.86693 0.639602,-0.86693 -0.680156,-1.36729 -0.680156,-1.36728 -0.753196,-1.10601 -0.753195,-1.106 v -0.25534 -0.25534 l 2.050521,-1.03409 2.050521,-1.03409 1.104806,-0.3524 1.104807,-0.3524 0.375164,0.14396 0.375164,0.14396 0.30375,1.54554 0.30375,1.54554 0.597529,1.24649 0.59753,1.24649 0.661458,0.0143 0.661458,0.0143 0.396875,0.25648 0.396875,0.25648 -0.46561,0.004 -0.465611,0.004 -0.453086,0.52916 -0.453087,0.52917 h -0.205782 -0.205782 v -0.50086 -0.50086 l -0.347499,-0.13334 -0.347498,-0.13335 -0.776981,0.14447 -0.77698,0.14447 -0.183303,0.28242 -0.183303,0.28243 0.294837,0.35526 0.294836,0.35525 0.06885,0.64581 0.06885,0.6458 H 79.87116 79.492335 v 0.26458 0.26459 h 0.418923 0.418924 l -0.111562,0.33073 -0.111562,0.33073 h -0.628727 -0.628728 l -0.300681,0.59999 -0.300681,0.6 -0.105557,0.10305 -0.105558,0.10305 z m 1.099095,-1.95069 0.173851,-0.69268 -0.166801,-0.1668 -0.166801,-0.1668 -0.357069,0.48832 -0.35707,0.48832 0.142426,0.37116 0.142427,0.37116 h 0.207593 0.207593 z m 5.175181,2.39933 v -0.14543 l 0.386323,-0.74707 0.386323,-0.74706 -0.165837,-0.16584 -0.165837,-0.16584 h 0.308681 0.30868 v 0.54657 0.54656 l -0.273892,0.51177 -0.273892,0.51177 h -0.255275 -0.255274 z m -14.833447,-1.06541 -0.346158,-0.4171 -0.810718,0.14814 -0.810718,0.14814 -0.331865,-0.21038 -0.331865,-0.21038 0.916162,-0.35948 0.916161,-0.35947 0.147872,-0.38535 0.147873,-0.38535 -0.291926,-0.35175 -0.291926,-0.35175 0.151159,-0.24458 0.15116,-0.24458 0.645117,-0.12332 0.645116,-0.12333 0.14147,0.54099 0.141471,0.54098 -0.276475,0.33313 -0.276474,0.33313 0.419839,0.59941 0.419839,0.5994 v 0.4703 0.47029 H 69.073698 68.70922 Z m 73.909108,-0.18638 -0.5325,-0.58715 0.12611,-0.99219 0.12612,-0.99219 -0.88884,-0.0307 -0.88884,-0.0307 0.51813,-0.13162 0.51814,-0.13161 0.55261,-0.36208 0.55261,-0.36209 0.87761,0.80158 0.87761,0.80157 -0.75773,-0.18211 -0.75773,-0.18212 0.19614,0.21132 0.19614,0.21131 -0.26685,0.32154 -0.26686,0.32154 0.16517,0.43041 0.16516,0.43041 h 0.23628 0.23627 v 0.38126 0.38126 l -0.22612,0.13975 -0.22612,0.13975 z m -34.27098,-1.02697 -0.7276,-0.26574 v -0.52602 -0.52601 l 0.37798,-0.37798 0.37797,-0.37798 h 0.12448 0.12448 l 0.55588,1.06649 0.55588,1.06648 v 0.12414 0.12414 l -0.33073,-0.0209 -0.33073,-0.0209 z m -47.290212,-0.55237 0.0041,-0.59531 0.246146,-0.38922 0.246145,-0.38921 0.171856,0.17186 0.171856,0.17185 -0.178492,0.81267 -0.178492,0.81267 h -0.243561 -0.243561 z m 4.493865,0.35237 v -0.24295 l -0.185707,-0.48394 -0.185706,-0.48394 0.722346,0.4733 0.722347,0.4733 0.254079,-0.15703 0.254079,-0.15703 -0.157568,0.41061 -0.157568,0.41062 h -0.633151 -0.633151 z m 32.014583,-0.50671 v -0.74965 l 0.145338,-0.14534 0.145339,-0.14534 0.646347,0.29968 0.646352,0.29968 0.002,0.27781 0.002,0.27781 -0.317505,0.3175 -0.3175,0.3175 h -0.47625 -0.47625 z m -4.581253,-0.0696 -0.145054,-0.55468 0.142502,-0.37136 0.142503,-0.37136 h 0.456762 0.456762 l 0.174093,0.1741 0.174094,0.17409 -0.292087,0.35194 -0.292086,0.35195 0.448858,0.17224 0.448857,0.17224 -0.352913,0.22371 -0.352913,0.22371 -0.432162,0.004 -0.432163,0.004 z m -10.054591,-4.83821 -0.140375,-0.36581 0.971964,-0.43841 0.971963,-0.43842 1.058333,-0.93414 1.058334,-0.93414 -0.873049,0.14688 -0.873048,0.14689 0.171146,-0.27692 0.171145,-0.27692 0.635757,-0.24172 0.635757,-0.24171 0.0041,-0.73415 0.0041,-0.73416 0.236053,0.37288 0.236052,0.37289 -0.140998,0.36743 -0.140997,0.36743 0.425173,0.31802 0.425174,0.31802 0.768467,1.5875 0.768466,1.5875 -0.117736,0.19844 -0.117737,0.19843 h -0.488781 -0.488782 l 0.130572,-0.4993 0.130571,-0.49931 -0.221487,-0.13185 -0.221488,-0.13185 -1.322917,0.38997 -1.322916,0.38998 -0.459431,0.24118 -0.459431,0.24118 h -0.636741 -0.636741 z m 50.530978,-0.33974 -0.17639,-0.17639 v -0.61736 -0.61736 h -0.39687 -0.39688 v 0.41249 0.41249 l -0.26458,-0.16352 -0.26458,-0.16353 v -0.62744 -0.62744 l -0.59261,-0.0846 -0.59261,-0.0845 -0.0955,-0.50086 -0.0955,-0.50086 0.57549,0.15049 0.57549,0.1505 0.5258,-0.5258 0.5258,-0.52581 0.57904,0.0824 0.57904,0.0824 0.0857,0.74839 0.0857,0.7484 0.34422,-0.13209 0.34423,-0.13209 v 0.65604 0.65603 l -0.61242,0.40127 -0.61242,0.40127 0.14463,0.37691 0.14463,0.37691 h -0.1165 -0.1165 z m -72.672217,-0.45181 v -0.099 l 0.413568,-1.15775 0.413568,-1.15774 -0.1829,-3.63802 -0.1829,-3.63802 h -0.223103 -0.223103 l -0.217176,-0.83811 -0.217175,-0.83811 -0.385702,-0.18956 -0.385702,-0.18957 -0.742175,-0.34775 -0.742174,-0.34775 -0.843275,0.3183 -0.843274,0.3183 -0.458806,-0.59652 -0.458806,-0.59653 0.08082,-0.26458 0.08082,-0.26458 1.301975,-0.13701 1.301975,-0.137 0.303005,-0.19221 0.303005,-0.1922 0.158147,0.41212 0.158147,0.41213 0.306591,-0.18948 0.30659,-0.18949 0.290591,0.37479 0.290591,0.37479 0.752587,0.48185 0.752587,0.48185 -0.128573,0.49167 -0.128573,0.49166 0.51335,0.46458 0.51335,0.46458 0.0034,2.65931 0.0034,2.65931 0.04989,1.10089 0.04989,1.10088 0.182865,0.18441 0.182866,0.18441 -0.295455,0.4731 -0.295454,0.4731 0.441289,0.44128 0.441288,0.44129 0.248331,-0.15347 0.24833,-0.15348 0.167344,0.27077 0.167344,0.27077 -0.440348,0.16897 -0.440348,0.16898 -0.226863,-0.36707 -0.226863,-0.36707 -0.328517,0.32851 -0.328518,0.32852 h -0.740833 -0.740833 z m 43.819417,-0.77642 -0.49828,-0.31517 -0.63973,-0.62087 -0.63972,-0.62087 0.0824,-0.24731 0.0824,-0.24731 1.12172,0.82492 1.12172,0.82492 v 0.37399 0.37398 l -0.0661,-0.0155 -0.0661,-0.0156 z m 4.0007,-0.50134 -0.13311,-0.87217 0.1376,-1.38223 0.1376,-1.38224 0.24923,0.15404 0.24924,0.15403 -0.13029,1.97694 -0.1303,1.97694 -0.12342,0.12342 -0.12343,0.12343 z m -54.897721,0.14316 -0.330729,-0.13338 v -0.36873 -0.36873 l 0.595312,-0.37131 0.595313,-0.37131 1.245259,-0.15731 1.245259,-0.15732 0.160573,0.25981 0.160573,0.25982 -0.396938,0.15232 -0.396939,0.15231 0.132606,0.34557 0.132606,0.34556 -1.009208,0.11889 -1.009208,0.11888 -0.396875,0.15415 -0.396875,0.15415 z m 13.167132,-0.21662 -0.344102,-0.41462 0.104392,-0.10439 0.104391,-0.10439 0.749977,-0.18823 0.749976,-0.18824 -0.08906,0.62705 -0.08906,0.62704 -0.421206,0.0802 -0.421206,0.0802 z m 72.491719,-0.0476 v -0.16359 l 0.46302,-0.37793 0.46302,-0.37792 -0.7276,0.15536 -0.72761,0.15536 0.008,-0.33577 0.008,-0.33577 0.35149,-0.46302 0.35148,-0.46303 h 0.2707 0.2707 l 0.13314,0.46303 0.13313,0.46302 0.17253,0.41589 0.17253,0.41589 -0.67168,0.30604 -0.67168,0.30604 z m 3.47905,-0.80965 -0.30405,-0.56812 v -0.68109 -0.6811 l 0.46302,0.24751 0.46302,0.24752 0.46302,0.1433 0.46302,0.1433 v 0.27289 0.27288 h -0.4054 -0.4054 l -0.21659,0.58551 -0.2166,0.58551 z m -60.893631,-0.0706 v -0.30553 l 0.409474,-0.40947 0.409475,-0.40948 0.17648,0.17648 0.17648,0.17648 -0.274128,0.43458 -0.274128,0.43459 -0.311826,0.10394 -0.311827,0.10394 z m 28.741761,-0.33388 -0.15954,-0.59531 4.4e-4,-0.79375 4.4e-4,-0.79375 0.25648,-0.39688 0.25648,-0.39687 0.004,1.78594 0.004,1.78593 h -0.10143 -0.10143 z m 1.11117,0 -0.10667,-0.59531 0.17681,-0.79375 0.17682,-0.79375 0.0313,1.38906 0.0313,1.38906 h -0.10145 -0.10145 z m 2.08979,0.43526 -0.19272,-0.19272 v -2.46945 -2.46944 h 0.22979 0.22978 l 0.13062,2.0352 0.13061,2.0352 -0.16768,0.62697 -0.16768,0.62696 z m -25.592721,-1.92803 v -1.64721 l 0.224038,0.13846 0.224039,0.13846 -0.04685,1.33157 -0.04685,1.33156 -0.177187,0.17719 -0.177187,0.17718 z m -20.372916,0.50068 0.283201,-0.52916 h 0.23966 0.239659 l 0.155317,0.25131 0.155317,0.2513 -0.519183,0.27786 -0.519183,0.27786 h -0.158995 -0.158995 z m 43.931427,-3.35782 -0.0106,-1.10886 0.24554,-0.15175 0.24553,-0.15175 0.16563,0.52186 0.16564,0.52186 -0.40058,0.73875 -0.40057,0.73876 z m -27.880039,0.5356 -0.176389,-0.17639 v -0.48507 -0.48507 h 0.396875 0.396875 v 0.66146 0.66146 H 84.034356 83.81387 Z m 2.869204,-0.34369 -0.165067,-0.52008 0.278053,-1.00127 0.278054,-1.00128 0.0015,-0.85989 0.0015,-0.8599 h 0.32079 0.32079 l 0.595736,-0.7276 0.595737,-0.72761 0.0095,0.73415 0.0095,0.73416 -0.661458,0.25148 -0.661459,0.25149 v 0.68741 0.68741 l 0.463021,-0.0861 0.463021,-0.0861 0.246199,-0.83463 0.246198,-0.83464 1.672031,-1.09929 1.67203,-1.0993 v -0.13494 -0.13494 l -0.396875,-0.39688 -0.396875,-0.39687 v -0.67087 -0.67086 l 0.418515,0.1606 0.418515,0.1606 h 0.110652 0.110652 v 0.40342 0.40342 l 0.66756,0.25381 0.667561,0.25381 -0.179133,0.73183 -0.179132,0.73183 -0.289991,0.19566 -0.28999,0.19566 -0.333865,-0.12241 -0.333864,-0.12242 -0.724469,0.30865 -0.724469,0.30864 -0.463021,0.38672 -0.463021,0.38672 v 0.74344 0.74343 l -0.529166,0.2832 -0.529167,0.28321 v 1.04902 1.04902 h -0.396875 -0.396875 v 0.26459 0.26458 h -0.643629 -0.643628 z m 23.677325,-1.19971 v -1.45521 h 0.26458 0.26458 v 1.45521 1.45521 h -0.26458 -0.26458 z m 24.7751,-1.39503 -0.16303,-0.98622 -0.003,-1.90323 -0.003,-1.90322 0.58454,-0.40943 0.58453,-0.40942 -0.31995,-0.31996 -0.31995,-0.31995 v -0.60244 -0.60245 l 0.6507,-0.42635 0.65071,-0.42636 0.87065,0.18424 0.87065,0.18424 0.55121,0.5053 0.55122,0.50529 0.61024,-0.0708 0.61024,-0.0708 0.11147,0.31305 0.11147,0.31304 -0.87605,0.008 -0.87605,0.008 -1.23475,0.0761 -1.23474,0.0761 -0.19012,0.19014 -0.19012,0.19015 -0.0838,0.93433 -0.0838,0.93434 h 0.2576 0.25761 l 0.30138,-0.66146 0.30138,-0.66146 h 0.22211 0.22212 v 0.39688 0.39687 h 0.23218 0.23219 l 0.32938,-0.39687 0.32937,-0.39688 h 0.26459 0.26458 l -0.31976,0.38529 -0.31976,0.38528 0.17069,0.27618 0.17068,0.27617 h 0.24897 0.24897 l 0.008,-0.59531 0.008,-0.59531 0.39891,0.52787 0.39891,0.52788 0.25008,-0.39559 0.25008,-0.39558 0.004,0.46302 0.004,0.46302 h 0.26459 0.26458 v -0.39687 -0.39688 h 0.26458 0.26459 v 0.52917 0.52916 h 0.22415 0.22415 l 0.28711,-0.59531 0.28711,-0.59531 0.0179,0.46302 0.0179,0.46302 h 0.26458 0.26458 v -0.36756 -0.36757 l 0.51039,-0.62462 0.51038,-0.62462 0.30882,0.30326 0.30881,0.30326 -0.4467,0.94134 -0.44669,0.94134 -0.3952,0.32798 -0.39519,0.32799 -1.27647,0.0289 -1.27647,0.029 -0.42063,0.34909 -0.42063,0.34909 v -0.36563 -0.36562 l -0.50214,-0.31359 -0.50213,-0.31359 -0.13455,0.51453 -0.13456,0.51452 -0.3555,0.006 -0.3555,0.006 -0.39687,0.85417 -0.39688,0.85417 h -0.39687 -0.39688 l -0.69395,0.85394 -0.69395,0.85393 z m 2.2124,-2.99265 v -0.55121 l -0.33073,0.11012 -0.33073,0.11012 -0.0856,0.44109 -0.0855,0.4411 h 0.41627 0.41628 z m -26.88193,1.67165 -0.29129,-0.19439 -0.1377,-0.66146 -0.1377,-0.66146 -0.19462,-0.46302 -0.19463,-0.46302 h 0.3012 0.30119 l 0.16704,0.46302 0.16705,0.46302 0.48611,0.70231 0.48611,0.7023 v 0.15759 0.1576 l -0.33073,-0.004 -0.33073,-0.004 z m 22.04306,-1.0204 -0.18822,-0.18823 v -0.74965 -0.74965 h 0.23628 0.23628 l 0.15218,0.39658 0.15218,0.39658 -0.20024,0.54129 -0.20024,0.5413 z m -27.65695,-1.06332 -0.25962,-0.46391 -2.20926,0.0465 -2.209258,0.0465 -0.92604,-0.23186 -0.926045,-0.23187 0.793755,-0.0608 0.79375,-0.0609 0.661448,-0.0741 0.66146,-0.0741 1.5875,-0.0452 1.5875,-0.0452 0.74518,0.0208 0.74518,0.0208 -0.0837,0.7072 -0.0837,0.7072 -0.30925,0.10144 -0.30925,0.10143 z m -28.622931,-0.74089 v -0.64584 l 0.282187,-0.1744 0.282186,-0.1744 0.09132,0.0926 0.09132,0.0926 -0.139772,0.7276 -0.139772,0.72761 H 76.286489 76.05275 Z m 32.676041,0.24234 -0.26458,-0.0971 -1.1392,-0.293 -1.13919,-0.293 -0.44096,-0.515 -0.44097,-0.51501 h -2.36654 -2.36655 l 0.17371,-0.17371 0.17372,-0.17371 2.55672,-0.0363 2.55672,-0.0363 0.42252,0.41946 0.42252,0.41946 1.12144,0.51819 1.12144,0.51819 0.003,0.19844 0.003,0.19844 -0.0661,-0.0209 -0.0662,-0.0209 z m 30.43245,-4.6149 -0.13938,-0.22551 0.14851,-0.38699 0.1485,-0.387 -0.62676,0.11981 -0.62675,0.11981 -0.3303,-0.39797 -0.33029,-0.39798 0.61097,-0.93788 0.61097,-0.93788 0.7827,-0.17375 0.78271,-0.17375 0.11519,0.34555 0.11518,0.34556 0.68961,0.65245 0.68961,0.65244 -0.82937,-0.1584 -0.82937,-0.15841 -0.16613,0.83064 -0.16612,0.83063 0.2416,0.24161 0.24161,0.24161 0.17641,-0.5558 0.1764,-0.5558 h 0.64363 0.64363 v -0.39688 -0.39687 l 0.19843,0.008 0.19844,0.008 0.88516,0.80483 0.88515,0.80483 -0.16765,0.16765 -0.16765,0.16765 -0.76663,-0.28937 -0.76662,-0.28937 -0.13122,0.34193 -0.13121,0.34193 -1.33479,0.0103 -1.3348,0.0103 z m -12.68329,-0.44342 -0.16683,-0.43475 0.17475,-0.16056 0.17474,-0.16057 0.11812,0.33073 0.11811,0.33073 h 0.50712 0.50712 v 0.26458 0.26458 h -0.63315 -0.63315 z m -25.75281,-0.81592 -0.33073,-0.11635 v -1.01739 -1.01738 l 0.39688,-0.39688 0.39687,-0.39687 v -0.53084 -0.53085 l -0.27957,-0.73533 -0.27958,-0.73534 0.17811,-1.66314 0.17811,-1.66313 h 0.2029 0.2029 l 0.16996,0.59531 0.16996,0.59531 0.37963,-0.86545 0.37963,-0.86545 -0.15016,-0.39132 -0.15017,-0.39132 h -0.36857 -0.36856 l -0.018,-0.19844 -0.018,-0.19844 -0.0482,-1.12468 -0.0482,-1.12467 0.0676,2e-4 0.0676,2e-4 2.35722,1.5875 2.35722,1.5875 h 0.37849 0.37848 l 0.43789,0.48385 0.43788,0.48385 v 0.82976 0.82975 l 0.52916,0.2832 0.52917,0.2832 v 0.24165 0.24164 l 0.62565,0.67509 0.62566,0.67509 h 0.18506 0.18507 l 1.2672,-1.37814 1.26721,-1.37814 0.32384,0.98126 0.32385,0.98127 h 0.58802 0.58802 l 0.3175,-0.3175 0.3175,-0.3175 v -0.63059 -0.63059 l 0.32411,0.10804 0.32411,0.10803 -0.0786,1.08892 -0.0786,1.08892 -1.10675,1.1402 -1.10675,1.14019 -0.92467,1.12395 -0.92468,1.12395 -0.85664,0.28456 -0.85664,0.28456 -1.52461,-0.20225 -1.52461,-0.20225 0.47766,-0.104 0.47766,-0.104 -0.0977,-0.293 -0.0977,-0.29299 -0.96025,-0.7772 -0.96026,-0.7772 -0.41193,0.15807 -0.41193,0.15807 v 0.74914 0.74914 l 0.28435,0.28434 0.28435,0.28435 -0.89778,0.16842 -0.89778,0.16843 -0.79727,-0.27794 -0.79728,-0.27793 -0.63981,0.23697 -0.63982,0.23696 z m 3.32327,-5.94493 0.0821,-0.70877 -0.7116,-0.46626 -0.7116,-0.46626 -0.495,0.61129 -0.495,0.6113 v 0.48228 0.48228 l 0.7276,0.11278 0.72761,0.11279 0.39687,-0.0313 0.39688,-0.0313 z m -9.210244,5.59004 -0.926042,-0.22847 -0.30671,0.10574 -0.30671,0.10574 -0.60144,-1.83456 -0.60144,-1.83456 h -0.37694 -0.37694 l -1.688547,0.80587 -1.688548,0.80586 -1.325841,0.15703 -1.325842,0.15703 v -0.42475 -0.42476 l -0.445879,-0.93502 -0.445879,-0.93501 h -0.480163 -0.480163 l -0.0041,-0.99219 -0.0041,-0.99219 -0.246298,0.38946 -0.246299,0.38946 -0.181657,-0.47339 -0.181657,-0.47339 0.299716,-0.29971 0.299715,-0.29972 v -0.37227 -0.37226 l -0.363946,0.13966 -0.363946,0.13966 -0.297512,-0.65297 -0.297512,-0.65297 v -0.26775 -0.26775 l 0.256813,0.15872 0.256813,0.15872 0.812887,-0.42036 0.812887,-0.42036 0.246668,-0.64878 0.246667,-0.64879 h 0.273248 0.273247 l 0.990072,2.13462 0.990072,2.13462 0.786075,-0.15533 0.786075,-0.15532 0.227471,-0.40647 0.22747,-0.40646 0.375517,0.31165 0.375517,0.31165 v -0.31733 -0.31734 l 0.732745,-0.73274 0.732745,-0.73275 0.983362,-0.32453 0.983361,-0.32454 0.129161,-0.20899 0.129161,-0.20899 1.197441,-0.33526 1.197441,-0.33526 v -0.18773 -0.18773 l 0.656415,-0.29908 0.656415,-0.29908 0.269626,0.5038 0.269627,0.5038 0.01121,1.40646 0.01121,1.40645 0.320413,2.16245 0.320413,2.16245 0.594421,0.63273 0.59441,0.63273 v 0.18138 0.18139 h -0.39687 -0.39688 v 1.03943 1.03944 l -0.41577,0.41577 -0.415774,0.41578 -1.10558,-0.0271 -1.105581,-0.0271 z m 2.012937,-6.53038 0.351483,-0.46303 0.0084,-1.38906 0.0084,-1.38906 h -0.141111 -0.141112 l -0.917222,0.91722 -0.917222,0.91722 v 0.28272 0.28271 l 0.427305,0.65215 0.427304,0.65215 h 0.271131 0.271132 z m 48.787057,5.24756 v -0.81579 h 0.33947 0.33947 l -0.0312,0.71304 -0.0312,0.71305 -0.30826,0.10275 -0.30825,0.10275 z m -61.786531,-1.62948 -0.174279,-0.54911 0.170836,-0.17083 0.170836,-0.17084 0.246145,0.38921 0.246146,0.38921 0.0041,0.33073 0.0041,0.33073 h -0.246754 -0.246754 z m -27.995407,-2.00854 -0.176389,-0.17638 v -0.80023 -0.80022 l 0.38846,0.51359 0.388461,0.51359 0.0084,0.46302 0.0084,0.46302 h -0.220486 -0.220486 z m 61.736108,-0.10133 v -0.27772 l 0.3743,-0.72382 0.37431,-0.72382 0.68403,-0.36609 0.68403,-0.36608 v -0.21987 -0.21988 h 0.39687 0.39688 v 0.13588 0.13589 l -0.33073,0.59172 -0.33073,0.59172 -0.77951,0.8599 -0.7795,0.85989 h -0.34498 -0.34497 z m 5.18658,-5.87389 0.0272,-1.38901 0.047,-0.66146 0.047,-0.66146 0.22099,0.39688 0.221,0.39687 -0.12855,1.65365 -0.12855,1.65364 -0.16664,-5e-5 -0.16664,-5e-5 z m -41.290779,0.44337 -0.464113,-0.70832 0.358636,-0.227 0.358637,-0.227 0.264583,0.0826 0.264584,0.0826 0.08855,0.6051 0.08855,0.60511 -0.247653,0.24765 -0.247653,0.24765 z m 1.79967,-1.84379 -0.156674,-0.40829 0.158584,-0.15858 0.158584,-0.15859 0.400355,0.33227 0.400356,0.33226 -0.144993,0.23461 -0.144994,0.2346 h -0.257272 -0.257272 z m -2.533396,-0.30535 -0.109338,-0.21241 -0.04315,-0.71449 -0.04315,-0.71449 0.260534,-0.16102 0.260535,-0.16102 v -0.5055 -0.50551 l 0.529166,-0.94214 0.529167,-0.94213 v -0.51732 -0.51733 l 0.324715,-1.21407 0.324715,-1.21407 -0.609883,-0.46004 -0.609883,-0.46003 0.417459,-0.34646 0.41746,-0.34646 v -0.33445 -0.33445 l 0.775035,-0.11375 0.775035,-0.11375 0.33185,0.62006 0.331849,0.62007 -0.25412,0.72043 -0.254119,0.72042 h -0.522036 -0.522035 l -0.305161,1.45521 -0.305161,1.45521 0.14081,1.25677 0.140809,1.25677 h -0.298669 -0.29867 v 0.79375 0.79375 h -0.246181 -0.246182 l -0.08455,0.57459 -0.08455,0.57459 -0.306483,0.10083 -0.306483,0.10084 z m 3.235844,-9.34458 0.396875,-0.26054 -0.396875,-0.26053 -0.396875,-0.26053 h -0.132292 -0.132291 l -0.364626,0.23095 -0.364627,0.23095 0.181804,0.29417 0.181804,0.29416 0.315114,-0.004 0.315114,-0.004 z m 15.345833,8.73387 -0.66146,-0.21041 0.6993,-0.0264 0.699298,-0.0264 0.13116,-0.34181 0.13117,-0.34182 -0.397808,-0.51808 -0.3978,-0.51808 -0.12398,0.33073 -0.12398,0.33073 h -0.47472 -0.474719 l -0.346113,-0.41704 -0.346113,-0.41704 0.328109,-0.20279 0.328108,-0.20278 0.856858,0.052 0.856848,0.052 0.55493,0.29699 0.55492,0.29698 -0.34005,0.98916 -0.34006,0.98916 -0.22622,0.0476 -0.226218,0.0476 z m -16.127906,-1.89475 0.01168,-0.35278 0.375154,-1.32292 0.375155,-1.32292 -0.0561,1.5666 -0.0561,1.5666 -0.330729,0.1091 -0.330729,0.10909 z m 17.715404,-1.55218 v -0.33815 l 0.64645,-0.84754 0.64645,-0.84754 -0.14814,-0.5665 -0.14814,-0.5665 h 0.41212 0.41211 l 0.18833,-0.30472 0.18833,-0.30472 -0.48787,-0.35674 -0.48786,-0.35673 h 0.57973 0.57974 v 0.50752 0.50753 l 0.14751,0.3844 0.14751,0.3844 -0.36075,0.36484 -0.36075,0.36485 -0.17533,0.46302 -0.17533,0.46302 h -0.40518 -0.40518 v 0.36448 0.36448 l -0.39687,0.32937 -0.39688,0.32938 z m -2.116668,-1.5943 v -0.14787 l 0.35089,-0.47987 0.35089,-0.47987 0.590198,0.18732 0.5902,0.18732 -0.0848,0.44042 -0.0848,0.44041 h -0.856268 -0.85627 z m -1.537127,-0.44745 0.08917,-0.46302 h 0.389628 0.389628 l 0.08917,0.46302 0.08917,0.46302 h -0.567968 -0.567967 z m -2.07818,-0.21622 -0.15912,-0.41466 0.310733,-0.31073 0.310733,-0.31073 0.249514,0.39466 0.249514,0.39466 0.0041,0.33073 0.0041,0.33073 H 95.75601 95.350832 Z m 27.733695,-4.07003 -0.0413,-3.02948 0.30192,0.30192 0.30191,0.30191 -0.2606,2.72757 -0.26061,2.72756 z m 7.65021,-4.04812 -0.0186,-2.57969 h 0.26458 0.26459 l -0.0186,2.05052 -0.0186,2.05052 -0.22739,0.52917 -0.22739,0.52917 z m -58.879077,67.10759 0.65215,-0.42731 v -0.63102 -0.63103 h -0.24538 -0.24538 l -0.54837,0.69714 -0.54837,0.69714 v 0.36119 0.36119 h 0.1416 0.141601 z m -0.93535,-1.82996 v -0.40518 l -0.408286,-0.15667 -0.408286,-0.15668 -0.153567,0.15357 -0.153567,0.15357 0.156674,0.40828 0.156674,0.40829 h 0.405179 0.405179 z m -22.265155,-34.28101 -0.35672,-0.22142 -0.07807,2.17412 -0.07807,2.17411 0.193531,0.66146 0.19353,0.66146 0.241256,-2.61415 0.241255,-2.61416 z m 4.144398,-0.94547 0.435916,-1.14143 0.508046,0.27189 0.508045,0.2719 v 0.49118 0.49117 l 0.643097,0.16141 0.643096,0.1614 0.745966,-0.30576 0.745966,-0.30576 1.190625,-0.0531 1.190625,-0.0531 0.743219,-0.0384 0.743219,-0.0384 -0.166189,-0.2689 -0.166189,-0.2689 -0.246301,0.15222 -0.246301,0.15222 v -0.28019 -0.2802 h 0.396875 0.396875 l -0.0041,-0.19844 -0.0041,-0.19844 -0.256471,-0.39687 -0.256472,-0.39688 -0.811221,0.8599 -0.811221,0.8599 h -0.383464 -0.383464 v -0.39688 -0.39687 h 0.399117 0.399117 l -0.326346,-0.52257 -0.326346,-0.52256 -0.25798,0.25798 -0.257979,0.25798 h -0.19993 -0.19993 l 0.37098,-1.05147 0.370979,-1.05147 -0.262014,-0.16193 -0.262015,-0.16194 -0.385285,0.31976 -0.385285,0.31976 v 0.51434 0.51435 l -0.727604,-0.0837 -0.727604,-0.0837 -0.08332,-0.58596 -0.08332,-0.58596 0.690158,-0.17322 0.690159,-0.17322 -0.09972,-0.29915 -0.09972,-0.29916 h -0.63941 -0.63941 l -0.0085,0.39688 -0.0085,0.39687 -0.520647,1.11765 -0.520647,1.11766 -0.232847,0.007 -0.232847,0.007 0.141214,-1.25285 0.141214,-1.25285 -0.515216,1.05441 -0.515217,1.05441 0.119059,0.46302 0.119058,0.46302 -0.173667,0.0157 -0.173668,0.0157 -2.05635,0.019 -2.05635,0.019 -0.144405,0.23366 -0.144405,0.23365 0.807875,0.85613 0.807875,0.85613 1.308814,0.019 1.308815,0.0189 z"
       id="path12" /></g></svg>
