<?xml version="1.0" encoding="UTF-8" standalone="no"?>
<!-- Created with Inkscape (http://www.inkscape.org/) -->

<svg
   width="101.6mm"
   height="84.666672mm"
   viewBox="0 0 101.6 84.666672"
   version="1.1"
   id="svg1"
   xml:space="preserve"
   xmlns="http://www.w3.org/2000/svg"
   xmlns:svg="http://www.w3.org/2000/svg"><defs
     id="defs1" /><g
     id="layer1"
     transform="translate(-45.495801,-50.650382)"><path
       style="fill:#ffffff;fill-opacity:1"
       d="M 45.4958,92.98372 V 50.65038 H 96.295799 147.0958 v 42.33334 42.33333 H 96.295799 45.4958 Z m 25.625205,38.3674 7.475171,-3.19001 2.433666,-0.93459 2.433665,-0.93458 2.943033,-1.03311 2.943034,-1.03311 2.08405,-0.81232 2.08405,-0.81231 0.529167,-0.24616 0.529166,-0.24615 3.175,-1.2086 3.175003,-1.2086 1.29205,-0.52164 1.29206,-0.52164 h 0.31102 0.31102 l 0.51359,-0.41147 0.51359,-0.41147 -0.52917,0.24871 -0.52916,0.24872 -1.44348,0.19507 -1.44349,0.19506 -0.7033,0.51998 -0.703311,0.51998 -1.878994,-0.0893 -1.878994,-0.0893 -0.07526,0.52917 -0.07526,0.52916 -0.926042,-0.0482 -0.926041,-0.0482 0.48299,0.13758 0.48299,0.13758 -0.439474,0.48561 -0.439474,0.48561 -0.89022,-0.14446 -0.89022,-0.14446 -0.170107,0.67776 -0.170107,0.67776 -1.232147,0.30413 -1.232148,0.30413 -1.455208,0.0889 -1.455209,0.0889 -1.653645,0.14115 -1.653646,0.14115 v -0.38793 -0.38794 l -0.517134,0.32296 -0.517134,0.32295 -0.170819,-0.17082 -0.170818,-0.17082 0.1744,-0.28218 0.174401,-0.28219 h 0.613447 0.613446 l 0.350853,-0.42275 0.350852,-0.42275 0.806024,0.12277 0.806023,0.12276 0.330729,-0.11894 0.33073,-0.11894 v -0.37482 -0.37483 h 0.405179 0.405178 l 0.152296,0.39688 0.152295,0.39687 h 0.370809 0.37081 l -0.332971,-0.59531 -0.332971,-0.59531 -0.24757,-0.17828 -0.24757,-0.17827 0.361378,-0.43543 0.361379,-0.43544 0.481504,0.12592 0.481504,0.12591 v -0.23981 -0.23981 h -0.396875 -0.396875 v -0.42691 -0.4269 l 0.805399,0.11821 0.805399,0.1182 0.136257,-0.22047 0.136258,-0.22046 h 1.027103 1.027104 l 0.163521,0.26458 0.163522,0.26458 h -0.544782 -0.544781 v 0.24676 0.24675 l 0.529166,0.16795 0.529167,0.16795 v 0.23078 0.23079 l -0.971735,0.0821 -0.971736,0.0821 -0.120923,0.36756 -0.120923,0.36756 0.276706,-0.17102 0.276705,-0.17101 0.691558,0.26293 0.691558,0.26293 0.249265,-0.65562 0.249264,-0.65561 -0.140075,-0.36503 -0.140076,-0.36503 0.407621,-0.15642 0.40762,-0.15642 -0.155211,-0.40447 -0.155211,-0.40447 -1.026197,-0.30746 -1.026198,-0.30746 0.451281,-0.32998 0.45128,-0.32998 0.493066,0.34535 0.493065,0.34536 0.735256,-0.21087 0.735256,-0.21087 0.366163,0.2319 0.366163,0.2319 2.034905,0.004 2.034906,0.004 0.163522,-0.26459 0.163521,-0.26458 0.579698,-0.008 0.5797,-0.008 -0.500544,-0.37892 -0.500541,-0.37892 -0.293209,-0.10561 -0.293209,-0.10561 0.132292,-0.13129 0.132292,-0.1313 0.727604,-0.17455 0.727605,-0.17455 v 0.39889 0.39889 l 0.40966,0.47845 0.40967,0.47846 1.68997,-0.17492 1.68997,-0.17492 0.43281,-0.4328 0.4328,-0.4328 h 0.23738 0.23738 l -0.1523,0.39687 -0.15229,0.39688 h 0.45349 0.45349 l -0.1523,0.39687 -0.15229,0.39688 h 0.11863 0.11864 l 0.99754,-0.37433 0.99754,-0.37433 0.76012,-0.16804 0.76012,-0.16804 -0.40268,-0.31753 -0.40267,-0.31753 -0.17684,-0.59531 -0.17684,-0.59531 h 0.92826 0.92826 l 0.19475,0.31511 0.19475,0.31512 -0.24528,0.0861 -0.24528,0.0861 -0.39688,0.26028 -0.39687,0.26029 0.33839,0.21879 0.3384,0.21879 -0.86757,0.4258 -0.86756,0.4258 -0.52916,0.20652 -0.52917,0.20652 1.12448,0.0901 1.12448,0.0901 v 0.24007 0.24006 l -0.54898,0.2938 -0.54897,0.2938 -1.00246,-0.16936 -1.00247,-0.16937 -0.41404,0.41404 -0.41403,0.41404 h -0.26144 -0.26143 l -0.0883,0.26504 -0.0884,0.26504 -0.91982,-0.2638 -0.91983,-0.2638 -0.42893,0.13613 -0.42894,0.13614 -0.28427,0.62392 -0.28428,0.62392 0.29704,0.29704 0.29704,0.29704 -0.31391,0.31391 -0.31391,0.31391 -0.5731,0.0875 -0.5731,0.0875 -0.46138,-0.41755 -0.46138,-0.41754 -0.115638,0.3469 -0.115634,0.3469 h -1.429595 -1.429595 l -0.348731,0.72761 -0.348732,0.7276 h -0.594104 -0.594104 l -0.3175,-0.3175 -0.3175,-0.3175 -0.309435,0.30944 -0.309434,0.30943 0.640163,0.25588 0.640164,0.25588 -0.396875,0.0411 -0.396875,0.0411 -0.79375,0.0418 -0.79375,0.0418 v 0.39688 0.39687 l 0.489572,-0.0838 0.489573,-0.0838 -0.174459,0.28228 -0.174458,0.28228 H 92.7083 92.062457 v -0.66146 -0.66146 H 91.78411 91.505763 l -0.26962,0.77343 -0.26962,0.77343 -0.794996,-0.27713 -0.794995,-0.27714 -0.274401,0.2744 -0.2744,0.2744 0.177769,0.28764 0.17777,0.28764 h 0.38126 0.38126 v 0.15119 0.15119 l -0.377976,0.37797 -0.377976,0.37798 h -0.166806 -0.166805 l 0.14799,-0.23945 0.147989,-0.23946 -1.078352,0.10387 -1.078353,0.10387 -0.22482,0.13894 -0.224821,0.13895 -0.681285,-0.31041 -0.681285,-0.31042 -0.661458,0.30138 -0.661459,0.30138 v 0.30266 0.30265 l 0.365867,-0.30364 0.365868,-0.30365 0.121072,0.82492 0.121073,0.82492 -0.3594,0.13792 -0.3594,0.13791 -0.740349,-0.30666 -0.740348,-0.30666 -0.719547,0.27357 -0.719548,0.27357 -0.13896,-0.36212 -0.138959,-0.36212 -1.029445,0.49737 -1.029445,0.49737 h -0.356739 -0.35674 l -0.320053,0.32006 -0.320054,0.32005 0.567466,0.3037 0.567465,0.3037 -0.300328,0.18561 -0.300329,0.18561 v -0.28019 -0.2802 l -0.992187,0.0209 -0.992188,0.0209 0.330729,0.13346 0.330729,0.13345 v 0.35278 0.35277 l 0.33073,0.11812 0.330729,0.11812 -0.196816,0.21099 -0.196815,0.21099 -0.525826,-0.47587 -0.525826,-0.47586 -0.376529,0.31249 -0.37653,0.31249 -0.706064,-0.17721 -0.706064,-0.17721 0.08544,0.49655 0.08544,0.49654 -0.642055,0.0907 -0.642055,0.0907 -0.567328,0.37173 -0.567329,0.37173 -1.235637,0.11582 -1.235637,0.11583 -0.310009,0.1916 -0.310009,0.19159 -0.816846,0.19528 -0.816845,0.19528 2.132981,0.0271 2.132982,0.0271 1.96806,-0.51089 1.96806,-0.51088 2.116666,-0.40319 2.116667,-0.40319 3.042708,-0.68509 3.042709,-0.68509 2.116666,-0.38033 2.116667,-0.38034 0.463021,-0.005 0.463021,-0.005 v 0.21558 0.21558 l -0.859896,0.45169 -0.859896,0.4517 -0.877968,0.55826 -0.877968,0.55826 -1.590943,0.0315 -1.590943,0.0315 -0.366885,0.50175 -0.366884,0.50174 0.139431,0.2256 0.139432,0.22561 h 1.268739 1.26874 l 3.676583,-2.34117 3.676583,-2.34117 0.859895,-0.44375 0.859896,-0.44375 v 0.23898 0.23898 l -0.413884,0.34349 -0.413884,0.3435 0.152673,0.60829 0.152672,0.6083 -0.995559,0.92553 -0.995559,0.92553 -0.33073,0.007 -0.330729,0.007 v -0.22357 -0.22358 l 0.529167,-0.47889 0.529167,-0.47889 v -0.24562 -0.24563 l -0.33073,0.12127 -0.330729,0.12127 0.06378,0.29056 0.06378,0.29057 -0.730319,-0.14606 -0.730319,-0.14606 -0.85241,0.81461 -0.852411,0.8146 H 88.656126 88.15541 l -0.141782,0.54218 -0.141781,0.54217 1.235402,-0.1582 1.235402,-0.15821 1.719792,-0.38408 1.719791,-0.38408 4.365625,-1.04722 4.365621,-1.04722 1.98438,-0.3948 1.98437,-0.39479 1.95523,-0.40377 1.95522,-0.40376 0.6096,-0.39943 0.60959,-0.39942 0.78871,0.15774 0.7887,0.15774 1.07825,-0.99763 1.07824,-0.99763 v -0.35438 -0.35437 h 0.37524 0.37523 l 0.417,0.16001 0.41699,0.16002 -0.14638,0.23686 -0.14639,0.23686 -0.4474,0.008 -0.44741,0.008 -0.82038,1.1163 -0.82038,1.1163 -0.17367,0.48951 -0.17367,0.48952 -1.18876,-0.0945 -1.18877,-0.0945 -9e-5,0.1342 -1e-4,0.1342 -1.387,0.0586 -1.387,0.0586 -0.29572,0.40441 -0.29571,0.40442 h -0.44216 -0.44216 l -0.14588,0.38017 -0.14589,0.38017 -0.34821,-0.13362 -0.34822,-0.13363 -0.17582,0.28449 -0.17583,0.28449 0.41365,0.15873 0.41364,0.15873 v 0.36857 0.36857 h -0.51602 -0.51601 l -0.21159,-0.34168 -0.21158,-0.34168 -1.05834,-0.31752 -1.05833,-0.31752 -0.69263,0.50897 -0.69262,0.50897 -0.25177,-0.25177 -0.25177,-0.25177 -1.06025,0.37408 -1.060257,0.37408 -0.722392,-0.1381 -0.722392,-0.13809 -0.526147,0.56475 -0.526147,0.56475 2.062563,-0.0477 2.062562,-0.0477 0.30717,-0.23161 0.30718,-0.23161 0.17146,0.27743 0.17146,0.27743 h 3.86494 3.86494 l -0.19058,-0.19058 -0.19058,-0.19058 -0.91185,0.0786 -0.91185,0.0786 v -0.41715 -0.41715 h 0.63982 0.63982 l 0.41851,-0.16059 0.41852,-0.1606 v -0.62485 -0.62485 l 0.41906,0.16081 0.41906,0.16081 -0.35292,0.22739 -0.35291,0.2274 0.85924,-0.16487 0.85924,-0.16486 0.3818,0.31687 0.38181,0.31687 -0.13434,0.35008 -0.13434,0.35009 -0.65,0.12425 -0.65,0.12426 -0.14159,-0.2291 -0.14159,-0.22911 h -0.24897 -0.24897 v 0.26459 0.26458 h 0.39688 0.39687 v 0.26458 0.26459 h 1.15464 1.15464 l 0.74601,-1.07649 0.74601,-1.07649 0.54675,0.17181 0.54674,0.17181 0.55355,0.13379 0.55356,0.13379 0.37713,-0.37713 0.37714,-0.37714 0.72963,-0.13948 0.72963,-0.13948 0.2245,0.40117 0.2245,0.40116 1.29018,0.0594 1.29018,0.0594 0.46302,0.19376 0.46302,0.19376 v 0.36957 0.36958 l -0.7276,-0.0672 -0.7276,-0.0671 -0.0675,0.26458 -0.0675,0.26459 2.58104,0.0317 2.58103,0.0317 -0.79375,-0.11822 -0.79375,-0.11821 -0.24014,-0.23301 -0.24014,-0.23301 0.34399,-0.41449 0.34399,-0.41448 -0.1636,-0.1636 -0.1636,-0.1636 -0.41229,0.34217 -0.41229,0.34217 -0.65244,-0.34918 -0.65244,-0.34917 v -0.35217 -0.35217 h 0.39688 0.39687 v 0.26459 0.26458 h 0.39688 0.39687 v -0.26458 -0.26459 h 0.39688 0.39687 v 0.26459 0.26458 h 0.49692 0.49689 l 0.363,0.52944 0.36301,0.52944 0.98806,0.0659 0.98806,0.0659 -0.062,0.37628 -0.062,0.37628 1.52144,0.10814 1.52145,0.10814 0.16051,-0.41827 0.16051,-0.41828 0.43471,0.008 0.43471,0.008 0.51359,0.38846 0.51359,0.38846 h 6.27113 6.27112 l 0.1606,-0.41852 0.1606,-0.41851 v -1.15235 -1.15235 l -0.99219,0.14778 -0.99219,0.14779 -0.26458,0.32409 -0.26458,0.32408 -0.79375,0.40318 -0.79375,0.40318 -1.32135,0.19254 -1.32134,0.19255 -0.86209,0.0801 -0.8621,0.0801 -0.15685,-0.2538 -0.15686,-0.2538 -0.76108,0.16716 -0.76108,0.16716 -0.78388,-0.46305 -0.78388,-0.46305 -0.41423,0.34378 -0.41422,0.34378 v -0.28198 -0.28198 l 0.50218,-0.35174 0.50219,-0.35175 h -1.0098 -1.00981 l 0.11506,0.18617 0.11506,0.18617 -0.21539,0.13311 -0.21538,0.13312 -0.38424,-0.23905 -0.38425,-0.23906 0.33073,-0.53365 0.33073,-0.53364 v -0.66505 -0.66505 l -0.33073,-0.0313 -0.33073,-0.0313 -0.19843,0.0313 -0.19844,0.0313 v -0.26459 -0.26458 h 0.14283 0.14283 l 0.98165,0.53194 0.98165,0.53194 0.39687,0.28242 0.39688,0.28242 0.74604,-0.28565 0.74604,-0.28566 -0.4602,-0.46019 -0.46019,-0.4602 -0.11001,0.33001 -0.11001,0.33002 -0.24198,-0.14956 -0.24199,-0.14955 v -0.38781 -0.38781 l 0.70455,-0.26787 0.70454,-0.26786 0.27442,0.27441 0.27441,0.27442 h 0.63331 0.63331 l 0.13838,0.52916 0.13839,0.52917 h 0.35286 0.35287 l 0.21159,-0.35808 0.21158,-0.35807 0.39688,-0.13847 0.39687,-0.13847 -0.70934,-0.18901 -0.70935,-0.18902 0.0385,-0.51158 0.0385,-0.51157 0.34008,0.1388 0.34008,0.1388 0.42766,0.17242 0.42765,0.17241 -0.30467,-0.56929 -0.30467,-0.56929 h -0.37034 -0.37035 l -0.71859,0.27321 -0.71859,0.27321 -0.6069,-0.57015 -0.6069,-0.57015 -0.65989,0.16562 -0.65989,0.16562 -0.16551,-0.26779 -0.1655,-0.26779 0.61231,-0.24558 0.61231,-0.24557 -0.7717,-0.0168 -0.77171,-0.0168 0.19837,-0.19844 0.19837,-0.19844 2.17847,-0.0444 2.17847,-0.0444 0.90841,-0.5521 0.9084,-0.55209 0.79375,-0.39213 0.79375,-0.39214 0.79375,-0.66368 0.79375,-0.66368 0.27861,-10e-4 0.2786,-0.001 1.11046,-0.81664 1.11046,-0.81664 v -1.16773 -1.16774 l -0.46303,0.002 -0.46302,0.002 -0.75821,0.49988 -0.75822,0.49987 0.55978,0.17767 0.55978,0.17767 v 0.24675 0.24676 l -0.33073,-0.002 -0.33073,-0.002 -0.71812,-0.37464 -0.71813,-0.37464 -0.67314,0.5295 -0.67314,0.52949 -2.70978,1.06522 -2.70977,1.06522 -0.28893,0.23447 -0.28893,0.23446 -0.15698,-0.15698 -0.15698,-0.15699 -0.60515,0.42387 -0.60515,0.42386 h -0.71976 -0.71975 l -0.94558,0.5579 -0.94557,0.5579 -0.35736,-0.29658 -0.35736,-0.29658 -0.32596,0.39276 -0.32597,0.39276 0.42315,0.42315 0.42315,0.42315 v 0.24569 0.24568 h -0.21847 -0.21846 l -0.61831,-0.65815 -0.6183,-0.65816 -0.35049,0.29088 -0.35049,0.29088 -0.34518,-0.13246 -0.34518,-0.13246 -0.50251,0.36745 -0.50251,0.36744 -0.54474,0.008 -0.54474,0.008 -0.51359,0.38846 -0.51359,0.38846 -0.67704,-0.004 -0.67703,-0.004 -0.38946,-0.2463 -0.38946,-0.2463 0.38946,-0.10916 0.38946,-0.10917 0.92604,-0.27253 0.92604,-0.27253 2.77813,-0.85177 2.77812,-0.85176 1.98438,-0.65833 1.98437,-0.65832 1.19063,-0.3999 1.19062,-0.39989 0.92604,-0.39872 0.92605,-0.39872 3.17499,-1.58134 3.175,-1.58134 0.8599,-0.52657 0.8599,-0.52658 v -1.45146 -1.45145 l -0.59532,0.17683 -0.59531,0.17684 -0.29375,0.37016 -0.29375,0.37016 h -0.6073 -0.6073 l 0.76876,-0.66114 0.76876,-0.66113 -0.33073,-3.2e-4 -0.33073,-3.3e-4 v -0.25797 -0.25797 l 0.79375,0.15875 0.79375,0.15875 v -0.54662 -0.54662 l 0.22251,-0.13752 0.22251,-0.13752 -0.0241,-1.7739 -0.0241,-1.77391 -0.30828,-0.10313 -0.30828,-0.10313 -0.17864,0.56286 -0.17865,0.56287 -0.39685,-0.15229 -0.39685,-0.15228 -0.25794,0.15942 -0.25794,0.15941 0.45062,0.49794 0.45063,0.49794 -0.33349,0.40183 -0.3335,0.40184 h -0.23219 -0.23219 v -0.66146 -0.66145 h -0.28241 -0.28241 l 0.15951,-0.50258 0.15951,-0.50258 -0.67085,-0.52769 -0.67085,-0.52769 v -1.67818 -1.67818 l -0.98587,1.45168 -0.98588,1.45167 0.0583,0.19379 0.0583,0.19379 -0.59376,0.12968 -0.59376,0.12968 -0.89982,0.0734 -0.89981,0.0734 -0.11442,-0.33073 -0.11442,-0.33072 h 0.58361 0.58361 l -0.2859,-0.3445 -0.28591,-0.3445 0.14644,-0.55997 0.14643,-0.55998 -0.23381,-0.41779 -0.23381,-0.4178 -1.02568,1.37386 -1.02568,1.37387 0.29337,0.0978 0.29337,0.0978 -0.15425,0.40196 -0.15425,0.40197 -0.18526,-0.29975 -0.18525,-0.29975 -0.94215,1.14977 -0.94215,1.14977 0.10956,0.78144 0.10955,0.78144 -0.21456,-0.48867 -0.21456,-0.48867 -0.35067,0.42252 -0.35066,0.42253 h -0.37825 -0.37824 l -0.2767,0.79375 -0.2767,0.79375 h -0.53736 -0.53736 l -1.05134,0.94982 -1.05133,0.94982 -0.55848,-0.14605 -0.55847,-0.14604 -0.45611,0.41277 -0.45611,0.41277 -0.3043,-0.18808 -0.30431,-0.18807 0.28763,-0.28764 0.28764,-0.28763 v -0.21167 -0.21167 h -0.49689 -0.4969 l -0.39523,0.59531 -0.39523,0.59532 -3.14608,0.0284 -3.14608,0.0284 -0.61506,0.19521 -0.61505,0.19521 -0.4936,-0.52981 -0.4936,-0.52981 1.29524,-1.21155 1.29524,-1.21154 0.74276,0.0946 0.74277,0.0946 -0.39687,-0.12875 -0.39688,-0.12875 -0.18762,-0.29823 -0.18762,-0.29824 -1.003,0.9402 -1.00301,0.9402 -0.92604,0.65437 -0.92604,0.65438 -0.74743,0.32513 -0.74743,0.32513 -0.26236,-0.16215 -0.26236,-0.16214 -0.31313,0.39665 -0.31312,0.39665 -0.66146,0.17569 -0.66146,0.17569 0.97925,-0.87658 0.97926,-0.87657 0.74054,-0.60782 0.74053,-0.60782 -0.55538,0.31579 -0.55538,0.3158 -0.75373,-0.18918 -0.75374,-0.18917 0.34517,-0.21333 0.34518,-0.21334 -0.29283,-0.18097 -0.29283,-0.18098 v -0.25401 -0.25401 l 0.61495,0.15434 0.61494,0.15434 0.3528,-0.4251 0.3528,-0.42509 -0.24014,-0.19936 -0.24014,-0.19936 -0.99323,-0.3361 -0.99322,-0.33609 -0.48403,0.15362 -0.48404,0.15363 -0.0308,0.3269 -0.0308,0.32689 -0.0794,0.52917 -0.0794,0.52916 0.42773,-0.0696 0.42772,-0.0696 0.31877,0.38408 0.31877,0.38409 -1.06856,0.32015 -1.06856,0.32015 0.13925,0.2253 0.13924,0.2253 h -0.27215 -0.27215 l -0.92457,-0.51931 -0.92458,-0.5193 -0.15742,0.25472 -0.15742,0.25472 h 0.28019 0.2802 v 0.26458 0.26459 h -0.37904 -0.37905 l -0.16624,-0.5238 -0.16625,-0.52379 -0.18231,0.045 -0.18232,0.045 -0.85989,-0.20372 -0.85989,-0.20372 v -0.21271 -0.21272 l 0.68779,-0.13148 0.68779,-0.13148 0.50283,0.1315 0.50283,0.13149 v 0.32795 0.32794 l 1.34692,-0.26632 1.34692,-0.26632 -1.60834,-0.68779 -1.60834,-0.6878 -0.003,-0.49786 -0.003,-0.49786 1.00349,0.1346 1.0035,0.13459 0.56934,-0.46102 0.56934,-0.46102 2.06519,0.36152 2.06518,0.36152 0.36053,-0.13568 0.36053,-0.13568 -0.32678,-0.39374 -0.32678,-0.39375 h -2.48114 -2.48115 v 0.26459 0.26458 h -0.34698 -0.34699 l -0.56799,-0.52917 -0.568,-0.52916 h -0.25781 -0.25782 l -0.16795,0.52916 -0.16795,0.52917 h -0.20575 -0.20575 l -0.47888,-0.52917 -0.47889,-0.52916 h -0.58806 -0.58805 l -0.29372,0.35391 -0.29372,0.35391 0.59205,0.27087 0.59205,0.27087 0.99219,0.42927 0.99219,0.42927 v 0.29972 0.29973 l -0.59532,-0.17521 -0.59531,-0.17521 -0.53979,-0.0778 -0.53979,-0.0778 -0.76142,-0.49891 -0.76143,-0.4989 -1.01389,-0.0632 -1.01388,-0.0632 v 0.23287 0.23288 l -4.369775,0.0151 -4.36977,0.0151 -0.507627,0.27168 -0.507628,0.27167 h -0.281977 -0.281977 v -0.39687 -0.39688 h -0.513552 -0.513552 l -0.128867,0.20851 -0.128866,0.20851 -2.377721,-0.0101 -2.37772,-0.0101 -0.289395,0.46302 -0.289395,0.46302 h 1.722034 1.722034 v 0.50328 0.50329 l 0.79375,0.2767 0.79375,0.2767 v 0.22617 0.22616 l -3.373438,-0.0221 -3.373437,-0.022 0.769974,0.0959 0.769975,0.0959 0.594588,0.38959 0.594587,0.38959 0.16036,-0.25947 0.16036,-0.25947 0.757235,0.21718 0.757234,0.21717 3.274094,0.0832 3.274093,0.0832 2.513541,-0.0333 2.513542,-0.0333 2.910416,-0.005 2.91042,-0.005 1.25677,-0.0253 1.25677,-0.0253 v 0.39196 0.39196 l -3.9026,0.11941 -3.90261,0.11942 -1.129457,0.18669 -1.129457,0.18669 -0.325751,-0.26808 -0.325751,-0.26809 -2.116667,-0.0753 -2.116666,-0.0753 0.07274,0.33493 0.07275,0.33492 -0.601912,-0.0598 -0.601913,-0.0598 -0.79375,0.3329 -0.79375,0.3329 -0.709423,0.21261 -0.709424,0.21262 -0.481201,-0.353 -0.481202,-0.35299 -0.463021,0.41768 -0.46302,0.41769 v -0.30559 -0.30559 H 84.52218 84.125305 v 0.38126 0.38126 l 0.264583,0.16352 0.264583,0.16352 v 0.48116 0.48115 l -0.396875,0.32938 -0.396875,0.32938 v 0.3823 0.38231 l 0.546094,-0.17332 0.546093,-0.17333 -0.08307,0.48623 -0.08307,0.48622 0.610779,0.0866 0.610778,0.0866 -0.08431,0.44259 -0.08431,0.44259 -0.607173,0.0865 -0.607173,0.0865 -0.36386,-0.30198 -0.36386,-0.30198 -0.292344,0.54625 -0.292344,0.54625 h -1.994395 -1.993965 l -0.396875,0.39688 -0.396875,0.39687 h -0.245684 -0.245685 v -0.26458 -0.26458 h -1.313608 -1.313607 l -0.274608,0.5131 -0.274608,0.51311 0.268876,0.16618 0.268876,0.16617 3.105277,0.24049 3.105277,0.2405 2.431781,0.006 2.431781,0.006 0.146387,0.23686 0.146387,0.23686 -0.416995,0.16001 -0.416995,0.16002 h -1.565861 -1.56586 v 0.24253 0.24254 l 0.330729,0.1228 0.330729,0.1228 -0.79375,0.32107 -0.79375,0.32107 -0.661458,0.13388 -0.661458,0.13387 -1.020651,0.046 -1.02065,0.046 -0.756365,0.75636 -0.756366,0.75637 -1.001109,0.031 -1.001109,0.031 -0.349104,0.3302 -0.349103,0.33021 -0.447463,-0.23948 -0.447462,-0.23947 -0.724788,0.13855 -0.724788,0.13855 v -0.28042 -0.28043 l 0.58203,-0.40767 0.58203,-0.40767 0.630579,0.41318 0.630579,0.41317 0.353258,-0.48311 0.353258,-0.48311 -0.146882,-0.13271 -0.146881,-0.13271 -0.121799,0.34178 -0.121798,0.34177 -0.375846,-0.31193 -0.375845,-0.31192 -1.312465,0.15544 -1.312465,0.15544 -0.383728,-0.38372 -0.383728,-0.38373 H 69.5834 68.762448 l -0.152295,0.39687 -0.152296,0.39688 h -0.255174 -0.255175 l -0.333092,0.33309 -0.333091,0.33309 0.0968,0.2904 0.0968,0.2904 -1.299925,0.15396 -1.299924,0.15396 -0.561552,-0.14685 -0.561552,-0.14685 v -0.37106 -0.37106 l -0.664894,0.16688 -0.664894,0.16688 -0.327293,-0.25086 -0.327294,-0.25086 -1.719791,0.0429 -1.719792,0.0429 -0.650007,-0.49804 -0.650006,-0.49804 -0.606765,0.15229 -0.606764,0.15229 9.89e-4,-0.20348 9.9e-4,-0.20348 0.528177,-0.86629 0.528178,-0.86629 -1.87e-4,-0.19204 -1.87e-4,-0.19205 -0.645745,-0.0372 -0.645744,-0.0372 -0.544694,1.15879 -0.544693,1.15878 v 0.26747 0.26747 h 0.529166 0.529167 l -0.06615,0.33073 -0.06615,0.33073 h 0.396875 0.396875 l 0.529167,0.556 0.529167,0.556 0.463021,0.1633 0.46302,0.1633 v 0.56224 0.56224 l 0.529167,0.13838 0.529167,0.13838 v 0.26834 0.26835 l -0.990108,-0.16068 -0.990109,-0.16067 -0.08091,-0.24273 -0.08091,-0.24274 -0.516481,0.13507 -0.51648,0.13506 v 0.23372 0.23373 l 0.330729,0.0314 0.330729,0.0314 0.330729,-0.0429 0.330729,-0.043 v 0.40847 0.40848 h -0.608541 -0.608542 l -0.3175,0.3175 -0.3175,0.3175 v -0.38615 -0.38615 l -0.519377,-0.32435 -0.519377,-0.32436 0.137466,0.35823 0.137467,0.35823 -0.504054,0.13182 -0.504054,0.13181 -0.152452,0.58298 -0.152452,0.58297 1.236854,-0.0421 1.236854,-0.0421 0.348559,0.0235 0.348559,0.0235 -0.157337,0.49573 -0.157336,0.49572 3.658274,0.0424 3.658273,0.0424 z m -7.898122,1.71025 v -0.44677 l 0.410738,0.15761 0.410738,0.15762 0.581449,-0.3661 0.58145,-0.3661 0.523265,0.19524 0.523265,0.19524 -0.638789,0.34187 -0.638789,0.34187 -0.876664,0.11814 -0.876663,0.11814 z m -3.205468,-1.38234 -0.03047,-0.72761 0.0471,-0.46302 0.0471,-0.46302 h -0.482153 -0.482153 l -0.323938,-0.51871 -0.323938,-0.5187 0.166078,-0.43279 0.166078,-0.4328 0.788746,0.15775 0.788747,0.15775 h 0.363802 0.363802 v 0.37297 0.37297 l 1.852083,0.31239 1.852084,0.3124 v 0.24068 0.24067 h -0.740834 -0.740833 l -0.251354,0.2325 -0.251354,0.23249 -1.058334,0.1742 -1.058333,0.1742 0.358977,-0.24133 0.358977,-0.24133 -0.310434,-0.19185 -0.310434,-0.19186 -0.165604,0.1656 -0.165605,0.1656 -0.07972,0.52235 -0.07972,0.52235 h 0.262924 0.262923 v 0.39688 0.39687 H 60.44475 60.047875 Z m 51.248125,0.31321 -0.48221,-0.3526 0.40949,-0.4095 0.40949,-0.40949 0.39608,0.15199 0.39608,0.15199 0.12634,0.32926 0.12635,0.32926 -0.4497,0.28084 -0.44971,0.28085 z m 4.32395,-0.31321 -0.0209,-0.46302 -0.13345,0.33073 -0.13345,0.33072 h -0.37483 -0.37482 v -0.35075 -0.35075 l 0.64461,-0.60558 0.64461,-0.60558 -0.14631,0.55946 -0.1463,0.55945 h 0.56003 0.56002 v 0.52917 0.52917 h -0.52916 -0.52917 z m 9.81047,0.0872 v -0.41793 h 0.49893 0.49892 l 0.72442,-0.37584 0.72443,-0.37583 -1.42179,-0.72309 -1.42178,-0.72309 -0.79375,-0.20632 -0.79375,-0.20632 -1.6954,-0.64092 -1.6954,-0.64092 -0.34175,-0.46736 -0.34174,-0.46736 -0.42915,0.42915 -0.42915,0.42915 h -0.24569 -0.24568 l 4.3e-4,-0.19844 4.4e-4,-0.19844 5.23215,-5.35814 5.23214,-5.35814 0.45337,0.52949 0.45337,0.5295 h 0.26718 0.26717 v -0.26458 -0.26458 h 0.26458 0.26459 v 0.66145 0.66146 h -0.39688 -0.39687 v 0.26459 0.26458 h -0.66146 -0.66146 v -0.38126 -0.38126 l -0.29293,-0.18104 -0.29293,-0.18104 0.19076,0.60103 0.19077,0.60104 -0.54426,-0.14233 -0.54426,-0.14232 -0.45438,0.50209 -0.45439,0.50208 0.17247,0.17247 0.17248,0.17248 -0.29469,0.35507 -0.29468,0.35507 h 0.64579 0.64579 l 0.98222,0.87384 0.98221,0.87383 -0.14821,0.14821 -0.14822,0.14822 -1.18281,-0.0985 -1.18281,-0.0985 v 0.27366 0.27366 l -0.72761,0.29536 -0.7276,0.29536 -0.92604,-0.062 -0.92604,-0.062 -0.13188,-0.12926 -0.13188,-0.12927 0.51318,-0.37524 0.51317,-0.37524 h 0.74318 0.74318 v -0.23456 -0.23455 l -0.78613,-0.11538 -0.78614,-0.11538 -2.02419,2.08161 -2.0242,2.08162 0.0983,0.0846 0.0984,0.0846 2.24895,0.86855 2.24896,0.86856 1.60826,0.62247 1.60826,0.62248 h 0.73162 0.73161 l 0.1419,0.54264 0.14191,0.54263 0.75937,-0.16678 0.75936,-0.16679 v 0.4262 0.42621 l -0.39687,0.15229 -0.39688,0.1523 v 0.23627 0.23628 h 0.54479 0.54478 l -0.15925,0.25767 -0.15926,0.25768 -0.98084,-0.052 -0.98084,-0.052 -1.78594,0.2123 -1.78594,0.2123 z m -25.17723,-0.91565 0.35506,-0.22504 -0.692103,-0.13231 -0.692101,-0.1323 -0.141592,0.2291 -0.141592,0.2291 h -1.027103 -1.027104 l -0.166189,-0.2689 -0.166188,-0.2689 -0.246301,0.15223 -0.246301,0.15222 -0.284288,-0.1757 -0.284288,-0.1757 0.696848,-0.36153 0.696847,-0.36153 0.498681,0.31143 0.498682,0.31143 0.498654,-0.45127 0.498655,-0.45128 h 0.62184 0.621843 l 0.81253,-0.24464 0.81254,-0.24464 2.64583,-0.43434 2.64583,-0.43435 1.43319,-0.24706 1.43319,-0.24705 h 0.99859 0.99859 l 0.16353,-0.26459 0.16352,-0.26458 h 0.35123 0.35123 l 0.11143,0.75923 0.11143,0.75923 -1.86734,0.16779 -1.86734,0.16778 -1.71979,0.40202 -1.71979,0.40202 -0.77952,0.12705 -0.77952,0.12705 -1.60173,0.41632 -1.60173,0.41632 -0.45943,0.24426 -0.45943,0.24426 -0.20203,-0.004 -0.202026,-0.004 z m -32.176714,-2.19772 0.104731,-0.3142 0.719796,-0.23993 0.719796,-0.23993 0.417945,0.16038 0.417945,0.16038 -0.326778,0.39374 -0.326779,0.39375 h -0.915693 -0.915694 z m 27.9852,-0.10642 v -0.15603 l 0.595312,-0.50453 0.595312,-0.50453 2.283609,-1.45989 2.283611,-1.45989 0.38124,0.14629 0.38124,0.1463 0.31284,-0.6866 0.31284,-0.6866 0.26345,0.16283 0.26346,0.16282 v 0.48487 0.48487 l 0.72761,0.20407 0.7276,0.20408 0.39687,-0.0468 0.39688,-0.0469 0.99219,-0.30318 0.99218,-0.30319 0.0397,-0.22223 0.0397,-0.22223 0.0265,-0.31838 0.0265,-0.31838 -1.05833,-0.0903 -1.05833,-0.0903 -0.79375,-0.0915 -0.79375,-0.0915 -0.12876,-0.029 -0.12876,-0.029 1.44095,-0.97039 1.44095,-0.9704 1.80157,0.30894 1.80158,0.30894 h 1.05342 1.05342 l 0.008,0.33072 0.008,0.33073 0.2779,-0.47769 0.27789,-0.47768 0.6401,-0.24337 0.6401,-0.24337 v -0.50487 -0.50487 l -0.7225,-0.13812 -0.72251,-0.13811 -1.98947,0.13917 -1.98947,0.13918 0.47496,-0.49493 0.47497,-0.49492 h 1.08735 1.08735 l 0.10766,-0.79375 0.10766,-0.79375 0.19001,-0.19311 0.19002,-0.19312 1.71188,0.2828 1.71189,0.28281 0.52916,0.0674 0.52917,0.0674 0.58532,0.18829 0.58532,0.18828 0.6053,-0.328 0.60531,-0.328 1.17267,-0.18119 1.17266,-0.18119 0.8959,0.24737 0.8959,0.24737 0.32156,-0.26687 0.32156,-0.26687 0.38579,0.23844 0.38579,0.23843 -0.33081,0.3308 -0.3308,0.3308 -2.21027,-0.0764 -2.21028,-0.0764 -0.1384,0.52928 -0.13841,0.52928 0.65919,0.16544 0.65919,0.16545 0.58318,-0.38211 0.58317,-0.38211 1.29146,0.14556 1.29146,0.14557 1.13462,-1.29688 1.13461,-1.29688 0.005,0.39851 0.005,0.39851 -1.49275,1.4409 -1.49274,1.44089 -1.08694,-0.0263 -1.08694,-0.0263 0.7276,0.12264 0.7276,0.12265 v 0.24701 0.24701 h -2.08428 -2.08427 l -0.32938,-0.39687 -0.32937,-0.39688 h -0.49677 -0.49677 l -0.004,0.33073 -0.004,0.33073 -0.26053,-0.39687 -0.26054,-0.39688 -0.25356,0.39466 -0.25357,0.39467 -0.29464,-0.29464 -0.29464,-0.29464 -0.64035,0.29685 -0.64036,0.29685 -0.002,0.19844 -0.002,0.19844 h 0.26459 0.26458 v 0.26458 0.26458 h -0.39688 -0.39687 v 0.62839 0.62838 l -0.16537,0.82683 -0.16536,0.82682 h 0.77911 0.77911 l 0.57688,0.66347 0.57688,0.66347 v 0.1051 0.1051 l -1.12448,-0.13811 -1.12448,-0.1381 -0.29375,-0.36588 -0.29375,-0.36588 h -0.27952 -0.27951 l -0.11047,-0.33073 -0.11047,-0.33073 -1.30064,0.0211 -1.30064,0.0211 -0.98843,0.18867 -0.98842,0.18867 0.0345,0.18715 0.0345,0.18716 -0.50069,1.10294 -0.50069,1.10294 -0.92664,0.12765 -0.92664,0.12765 -2.77813,0.29871 -2.77812,0.29871 -1.154926,0.26376 -1.154926,0.26377 -0.32199,-0.26723 -0.32199,-0.26723 -0.507459,0.38398 -0.507458,0.38398 -0.198438,0.008 -0.198437,0.008 z m -3.439584,-1.16702 v -0.20784 l 0.418515,-0.1606 0.418514,-0.1606 h 0.752907 0.752907 l 0.54837,-0.69714 0.548371,-0.69714 v -0.36119 -0.36119 h -0.286632 -0.286632 l 0.121267,-0.33073 0.121267,-0.33073 0.297657,0.0661 0.297656,0.0662 v -0.26458 -0.26459 h 0.47625 0.47625 l 0.251354,0.2469 0.251354,0.24691 1.037881,0.0838 1.037881,0.0838 0.08747,0.26721 0.08747,0.26721 -2.087652,1.38076 -2.087649,1.38077 -1.617393,-0.0228 -1.617393,-0.0228 z m 19.116148,-0.98735 -1.12448,-0.10128 v -0.1565 -0.15649 l 0.91051,-0.88428 0.91051,-0.88428 0.41241,0.15825 0.4124,0.15826 v 0.5059 0.5059 l -0.69595,-0.17468 -0.69596,-0.17467 0.12105,0.36807 0.12104,0.36807 0.7072,0.0837 0.7072,0.0837 v 0.24701 0.24701 l -0.33073,-0.0462 -0.33072,-0.0462 z m 12.10468,-1.79895 v -0.40518 l 0.40829,-0.15667 0.40829,-0.15668 0.15858,0.15859 0.15858,0.15858 -0.33468,0.40327 -0.33468,0.40327 h -0.23219 -0.23219 z m -5.08595,-0.27128 0.58804,-0.41188 v -0.2652 -0.26519 l -0.23461,0.14499 -0.2346,0.145 -0.32696,-0.39397 -0.32696,-0.39396 h -0.35617 -0.35618 l 0.12983,0.33832 0.12982,0.33832 -0.33656,0.4505 -0.33657,0.45049 -0.31024,-0.19645 -0.31024,-0.19645 0.21701,-0.9231 0.21701,-0.92309 0.0311,0.26459 0.0311,0.26458 0.24207,-0.38262 0.24207,-0.38262 -0.25543,-0.47727 -0.25543,-0.47728 0.20775,0.008 0.20774,0.008 0.45891,0.34847 0.45891,0.34848 -0.17228,0.17228 -0.17227,0.17227 h 0.87482 0.87483 l 0.29375,-0.38971 0.29375,-0.3897 1.14665,-0.13982 1.14664,-0.13981 -0.10543,0.33108 -0.10543,0.33109 -0.57819,0.26117 -0.5782,0.26118 v 0.36282 0.36282 l -0.63807,-0.16015 -0.63807,-0.16014 0.0718,0.65448 0.0718,0.65448 -0.61509,0.40302 -0.61509,0.40303 h -0.33277 -0.33276 z m 3.23387,0.0243 v -0.38757 l 0.51311,-0.2746 0.51311,-0.27461 0.18877,0.30543 0.18877,0.30544 -0.48787,0.35674 -0.48786,0.35674 h -0.21402 -0.21401 z m 8.50025,-2.73214 -0.32025,-0.10675 0.28847,-0.34759 0.28848,-0.34759 -0.29411,-0.18177 -0.2941,-0.18177 -0.49353,0.44665 -0.49354,0.44664 -0.50034,-0.1588 -0.50034,-0.15881 -0.56255,-0.76089 -0.56255,-0.7609 0.84549,-0.19779 0.8455,-0.19779 0.32773,0.0462 0.32774,0.0462 0.50571,-0.27065 0.50571,-0.27065 0.15874,0.41367 0.15874,0.41367 v 0.0923 0.0922 l -0.59531,0.11466 -0.59531,0.11466 0.77669,0.036 0.7767,0.036 0.59278,-0.55689 0.59278,-0.55689 0.28417,0.17563 0.28417,0.17563 v 0.38126 0.38126 h 0.3721 0.37211 l -0.13131,-0.50212 -0.13131,-0.50212 0.29768,-0.55622 0.29768,-0.55621 h 0.5051 0.50511 l 0.72051,0.61976 0.72052,0.61977 -0.16829,0.43857 -0.1683,0.43857 h -0.61919 -0.61919 l -0.51359,0.38846 -0.51359,0.38846 -0.53937,0.008 -0.53937,0.008 -0.93736,0.47789 -0.93736,0.4779 z m -27.43093,-1.13463 -0.11315,-0.18307 0.72452,-0.13858 0.72452,-0.13858 0.37018,0.20706 0.37017,0.20707 -0.98155,0.11459 -0.98155,0.11459 z m -17.967394,-2.07738 -0.152222,-0.2463 0.275355,-0.17018 0.275354,-0.17018 0.787295,0.17292 0.787294,0.17292 v 0.24356 0.24356 h -0.910426 -0.910427 z m 46.214624,-0.82047 -0.32072,-0.51354 v -0.68982 -0.68982 l 0.52917,-0.13838 0.52917,-0.13838 v -0.33362 -0.33362 l 0.43741,-0.36302 0.43742,-0.36302 0.32567,-0.77454 0.32567,-0.77454 0.54488,-0.0401 0.54489,-0.0401 -0.27507,0.51399 -0.27508,0.51398 0.47894,0.88933 0.47893,0.88933 0.34025,0.13056 0.34025,0.13057 v -0.75714 -0.75714 l 0.41852,-0.1606 0.41851,-0.16059 h 0.38354 0.38354 l 0.16529,0.43073 0.16528,0.43073 -0.57601,0.43449 -0.57602,0.43449 0.16541,0.82701 0.1654,0.82701 0.78372,0.15674 0.78373,0.15675 -0.14351,0.2322 -0.14352,0.23221 -0.66777,-0.12765 -0.66777,-0.12765 v -0.25268 -0.25267 l -0.59532,0.0583 -0.59531,0.0583 -0.46302,-0.19994 -0.46302,-0.19994 v -0.63315 -0.63315 h -0.24253 -0.24254 l -0.11812,0.33073 -0.11811,0.33073 -0.23466,-0.23466 -0.23466,-0.23466 0.33072,-0.11812 0.33073,-0.11812 v -0.50712 -0.50711 h -0.33265 -0.33266 l -0.78508,1.25677 -0.78508,1.25677 -0.007,0.43911 -0.007,0.43911 -0.14231,0.14417 -0.1423,0.14417 z m 8.80741,-0.16649 -0.52917,-0.11025 -0.59531,-0.12703 -0.59531,-0.12703 v -0.25955 -0.25954 h 0.7717 0.7717 l 0.10021,-0.30063 0.10021,-0.30063 0.58936,0.36678 0.58936,0.36677 -0.0722,0.37495 -0.0722,0.37495 -0.26458,0.0557 -0.26459,0.0557 z m -15.74271,-0.8245 -1.45521,-0.0734 -0.39687,-0.15344 -0.39688,-0.15345 0.52917,-0.21759 0.52917,-0.21759 0.92604,-0.009 0.92604,-0.009 0.63106,0.3498 0.63105,0.34979 -0.23418,0.10385 -0.23418,0.10385 z m 5.03762,-0.44308 -0.31884,-0.38417 0.18979,-0.60801 0.18979,-0.60801 0.36124,-0.5219 0.36123,-0.52189 0.0403,0.3896 0.0403,0.3896 0.0328,0.26459 0.0328,0.26458 0.17868,0.28481 0.17868,0.28482 -0.15038,0.57508 -0.15039,0.57508 h -0.33362 -0.33362 z m 10.5728,-1.86646 -0.66146,-0.35693 0.46302,-0.17973 0.46302,-0.17973 0.36463,0.13992 0.36464,0.13993 0.23068,-0.21008 0.23067,-0.21008 1.19063,-0.15451 1.19062,-0.15451 -1.14985,0.51749 -1.14986,0.51748 -0.22295,-0.13779 -0.22294,-0.13778 -0.2147,0.38162 -0.21469,0.38163 z m -41.289002,-1.18095 -0.410876,-0.24051 -0.703599,-0.0942 -0.703598,-0.0942 -0.208442,-0.22315 -0.208442,-0.22314 1.587499,0.17891 1.5875,0.17892 0.387426,0.387 0.387424,0.387 -0.652007,-0.008 -0.652009,-0.008 z m -3.888603,-0.33091 -0.595313,-0.28711 v -0.22415 -0.22415 h 0.247359 0.247359 l 0.678683,0.25803 0.678683,0.25803 v 0.27114 0.27113 l -0.33073,-0.0179 -0.330729,-0.0179 z m 7.309585,-0.0121 -0.369,-0.369 -0.33972,0.11324 -0.33972,0.11324 -0.6501,-0.16317 -0.650108,-0.16316 v -0.39184 -0.39183 h 1.131828 1.13182 l 0.47869,0.55907 0.47869,0.55907 -0.25169,0.25169 -0.25169,0.25169 z m -11.694376,-0.21943 -0.482186,-0.28709 -0.603013,0.15135 -0.603014,0.15135 -0.167567,-0.16757 -0.167567,-0.16757 0.696411,-0.3613 0.69641,-0.3613 1.418103,0.32969 1.418103,0.3297 -0.08837,0.27014 -0.08837,0.27013 -0.773374,0.0648 -0.773374,0.0648 z m 44.270726,-0.703 v -0.29886 l 0.25303,-0.15638 0.25303,-0.15638 -0.14905,-0.3884 -0.14904,-0.3884 h 0.68976 0.68977 v 0.26458 0.26458 h -0.25428 -0.25427 l -0.53948,0.57906 -0.53947,0.57906 z m 5.29167,0.0718 v -0.12728 l 0.85186,-1.72748 0.85185,-1.72748 0.27262,0.0892 0.27262,0.0892 0.0829,0.83952 0.0829,0.83952 h -0.4112 -0.41121 l -0.59774,0.92277 -0.59775,0.92277 -0.19843,0.003 -0.19844,0.003 z m -48.286459,-0.53596 -0.79375,-0.37344 1.058333,0.0553 1.058333,0.0553 -0.0463,0.25797 -0.0463,0.25797 -0.218281,0.0601 -0.218281,0.0601 z m 24.209369,22.62366 v -0.52917 h -0.25143 -0.25144 l -0.23831,0.42584 -0.23831,0.42584 -0.16169,-0.42138 -0.1617,-0.42137 -0.40689,0.15613 -0.40689,0.15614 v 0.36857 0.36857 h 1.05833 1.05833 z m 3.82592,0.16009 0.71141,-0.36909 -0.28766,-0.17778 -0.28766,-0.17778 -0.76134,0.37981 -0.76135,0.37981 -0.42332,-0.49441 -0.42332,-0.4944 h -0.53175 -0.53176 v 0.38126 0.38126 l 0.24199,0.14956 0.24198,0.14955 0.12317,-0.33238 0.12316,-0.33237 0.4853,0.46302 0.48529,0.46302 h 0.44223 0.44223 z m 23.08668,-2.18397 0.10124,-0.30409 -1.37882,-0.18964 -1.37881,-0.18963 -0.63076,-0.63076 -0.63075,-0.63075 h -0.11196 -0.11196 l 0.13933,0.3631 0.13933,0.3631 -0.63471,0.12133 -0.63472,0.12133 -0.57125,-0.21132 -0.57126,-0.21132 v 0.25102 0.25101 l 0.72761,0.15792 0.7276,0.15792 0.52917,0.22465 0.52917,0.22465 0.79375,0.24943 0.79375,0.24944 1.0364,-0.0316 1.0364,-0.0317 z m -88.560511,-1.31425 v -0.36604 h -0.680858 -0.680859 l 0.09639,-0.46302 0.09639,-0.46302 0.559083,0.0585 0.559083,0.0585 0.148504,-0.38699 0.148504,-0.387 -1.006924,0.0395 -1.006923,0.0394 -0.266815,-0.1649 -0.266816,-0.1649 -0.02273,0.79957 -0.02273,0.79957 0.378083,0.14509 0.378084,0.14508 -0.164669,0.26644 -0.164669,0.26644 0.315585,0.19505 0.315584,0.19504 0.644354,-0.12318 0.644354,-0.12317 z m 92.026851,-1.34667 -0.087,-0.45147 -1.04563,-0.21725 -1.04564,-0.21725 -0.37183,0.14268 -0.37182,0.14269 0.31359,0.37786 0.3136,0.37786 0.5761,0.11214 0.5761,0.11215 0.61471,0.036 0.61471,0.036 z m -94.011226,-1.6858 -1.058333,-0.19995 -0.757805,-0.29153 -0.757804,-0.29154 0.162492,0.42345 0.162492,0.42345 -4.82e-4,0.1768 -4.82e-4,0.1768 1.654128,-0.10877 1.654128,-0.10876 z m 91.446496,-0.18744 2.46912,0.0757 0.0841,-0.42585 0.0841,-0.42585 -0.73984,-0.28617 -0.73985,-0.28617 -2.35222,-0.15215 -2.35222,-0.15215 -0.62434,-0.1567 -0.62434,-0.1567 v 0.69014 0.69014 h 0.54478 0.54478 l -0.16165,0.26155 -0.16165,0.26156 0.41062,-0.15757 0.41062,-0.15757 v 0.45758 0.45758 l 0.36941,-0.30659 0.36941,-0.30658 z m -66.073945,-0.47729 0.161458,-0.42075 -0.148765,-0.24071 -0.148765,-0.24071 H 76.947771 76.41639 l 0.167422,0.5275 0.167423,0.52751 -0.414176,-0.15894 -0.414177,-0.15893 v 0.29289 0.29289 h 0.765443 0.765443 z m -11.195703,-0.373 h 0.242944 v -0.23151 -0.23151 l -0.83601,-0.1672 -0.83601,-0.16721 -0.127735,0.12774 -0.127735,0.12773 0.344677,0.41531 0.344676,0.41531 0.376125,-0.14433 0.376124,-0.14433 z m 5.942908,-0.51655 -0.408297,-0.45116 v -0.40979 -0.40979 l -0.37332,-0.30983 -0.37332,-0.30983 -0.18892,0.30568 -0.18892,0.30568 -0.251653,-0.35898 -0.251653,-0.35897 0.107013,0.39687 0.107013,0.39688 0.574588,0.0845 0.574588,0.0846 v 0.73125 0.73125 l 0.158159,0.15816 0.158159,0.15816 0.38243,-0.14675 0.38243,-0.14675 z m 2.17139,-0.20213 -0.727604,-0.11022 v -0.64388 -0.64389 h -0.676417 -0.676417 l 0.46888,0.79375 0.468879,0.79375 0.935142,-0.0396 0.935141,-0.0396 z m 71.76823,-0.74852 v -0.67345 l -0.99219,0.17938 -0.99219,0.17938 -0.11024,0.0972 -0.11024,0.0972 h 0.67724 0.67725 l 0.1523,0.39687 0.15229,0.39688 h 0.27289 0.27289 z m -2.11667,-1.46105 v -0.28241 l 0.52917,0.16795 0.52916,0.16795 0.52917,-0.16795 0.52917,-0.16795 v -0.22136 -0.22135 l -1.30049,-0.0101 -1.30049,-0.0101 -0.13649,0.35568 -0.13649,0.35569 0.15816,0.15816 0.15816,0.15816 h 0.22048 0.22049 z m -83.075112,-1.52852 0.0041,-0.43802 0.2224,0.35079 0.2224,0.35079 1.123245,0.15066 1.123246,0.15066 0.228401,-0.36916 0.228401,-0.36916 0.737006,-0.0254 0.737006,-0.0254 2.039367,-0.43764 2.039366,-0.43764 h 1.217394 1.217395 l -0.163522,-0.26458 -0.163521,-0.26459 1.140094,-0.0305 1.140094,-0.0305 0.529166,0.0497 0.529167,0.0497 0.293752,0.37766 0.293752,0.37766 h 0.698435 0.698436 v -0.26458 -0.26458 h -0.264583 -0.264584 v -0.51356 -0.51355 l 0.281819,-0.17417 0.281819,-0.17418 -0.455117,-0.5029 -0.455118,-0.50289 h -0.569882 -0.569881 l -0.513591,-0.38847 -0.51359,-0.38846 -0.564468,-0.008 -0.564468,-0.008 -0.123842,0.64783 -0.123842,0.64784 0.278206,0.2782 0.278206,0.27821 h -0.194518 -0.194517 l -0.652149,-0.42731 -0.65215,-0.4273 v 0.69189 0.69189 l -0.330729,-0.002 -0.330729,-0.002 -0.330729,-0.71215 -0.330729,-0.71214 v -0.34412 -0.34413 h -0.529167 -0.529167 v -0.38757 -0.38756 l -0.511772,-0.2739 -0.511773,-0.27389 -0.348123,0.006 -0.348123,0.006 0.609776,0.46918 0.609777,0.46919 -0.477485,0.4267 -0.477485,0.42669 -1.5875,0.17118 -1.5875,0.17118 -1.306659,0.28833 -1.306658,0.28833 -0.880412,0.51946 -0.880412,0.51945 -0.901151,-0.16905 -0.901152,-0.16906 -0.168538,0.2727 -0.168539,0.2727 h -0.663238 -0.663237 l -0.49086,-0.2627 -0.490859,-0.2627 -0.946955,-0.15049 -0.946955,-0.1505 v 0.23332 0.23333 l 0.968814,0.77518 0.968813,0.77519 0.652071,0.39687 0.652072,0.39688 1.95099,0.0411 1.95099,0.0411 z m 11.902198,-0.0411 v -0.26458 h -0.79375 -0.79375 v 0.26458 0.26459 h 0.79375 0.79375 z m -25.54574,-2.29151 -0.484566,-0.35432 H 46.635855 46.28955 v 0.25143 0.25144 l 0.44704,0.25018 0.44704,0.25017 0.383831,-0.14729 0.38383,-0.14729 z m 47.288173,-0.77479 -0.60031,-0.42048 -0.401373,0.15402 -0.401373,0.15402 0.164676,0.26646 0.164676,0.26645 h 0.837007 0.837006 z m 4.7159,-0.25216 0.661461,-0.38929 -1.037884,0.0679 -1.037881,0.0679 -0.108647,0.33073 -0.108646,0.33073 0.485069,-0.009 0.485069,-0.009 z m -16.168084,-1.04315 0.368374,-0.36279 -0.897541,-0.13709 -0.897541,-0.1371 -1.199053,-0.13357 -1.199054,-0.13356 -0.632136,0.31776 -0.632136,0.31775 -0.103745,0.3147 -0.103745,0.3147 1.141185,0.11426 1.141184,0.11425 1.322917,-0.11327 1.322917,-0.11326 z m -6.872714,-0.82136 0.110243,-0.10869 -0.124137,-0.12414 -0.124137,-0.12414 -0.978294,0.15876 -0.978294,0.15875 v 0.25941 0.25941 l 0.992188,-0.18533 0.992187,-0.18533 z m -3.749301,-0.17484 -0.11128,-0.33073 -0.770664,0.0743 -0.770665,0.0742 0.51359,-0.40497 0.513591,-0.40498 h 0.500646 0.500645 l -0.104877,-0.31463 -0.104876,-0.31463 -0.676574,-0.50513 -0.676573,-0.50514 -0.497369,0.11667 -0.49737,0.11666 0.727604,0.29968 0.727605,0.29967 v 0.23874 0.23874 l -0.396875,0.32937 -0.396875,0.32938 -0.03307,-0.16469 -0.03307,-0.16469 -0.03307,-0.3271 -0.03307,-0.32711 -0.463021,-0.0892 -0.463021,-0.0892 v 0.31229 0.31229 l -0.396875,-0.15229 -0.396875,-0.1523 v 0.25124 0.25124 l 0.661459,0.16602 0.661458,0.16601 v 0.24443 0.24442 l 0.595312,0.23929 0.595313,0.23929 0.485069,0.0168 0.48507,0.0168 z m 6.824937,-0.48062 0.1744,-0.28219 -0.152391,-0.15239 -0.152392,-0.15239 -0.337123,0.27381 -0.337124,0.27382 -0.529166,0.13007 -0.529167,0.13007 0.844281,0.0307 0.844281,0.0307 z m 3.875795,-1.17303 -0.10811,-0.92604 H 82.48962 81.705918 l 0.396875,0.39688 0.396875,0.39687 h 0.283482 0.283482 v 0.26459 0.26458 l -0.46302,0.0186 -0.463021,0.0186 0.529166,0.22739 0.529167,0.22739 0.145309,0.0186 0.145309,0.0186 z m 4.566763,0.36464 0.251354,-0.23234 h 1.021032 1.021031 l -0.170173,-0.27535 -0.170173,-0.27535 -0.519597,0.16492 -0.519597,0.16491 -0.367265,-0.3048 -0.367266,-0.30481 -0.479933,0.24783 -0.479934,0.24782 -0.896147,0.0185 -0.896147,0.0185 -0.258195,0.2582 -0.258195,0.25819 0.157974,0.25561 0.157974,0.25561 1.260951,-0.13251 1.260952,-0.1325 z m -9.161641,-0.41175 -0.08555,-0.444 -0.78045,-0.20871 -0.78045,-0.20872 -0.134037,0.13404 -0.134037,0.13403 0.583758,0.15266 0.583758,0.15266 v 0.36601 0.36602 h 0.416275 0.416276 z m 39.056316,-0.50338 0.41821,-0.41821 -0.15034,-0.24325 -0.15034,-0.24325 -0.18282,0.008 -0.18282,0.008 -0.52788,0.39891 -0.52788,0.39891 0.39559,0.25008 0.39558,0.25009 0.0473,0.004 0.0473,0.004 z m -49.328321,-0.60044 v -0.20627 l -0.926041,-0.44159 -0.926042,-0.4416 v 0.50927 0.50927 l -0.330729,0.20844 -0.330729,0.20844 0.79375,0.15716 0.79375,0.15715 0.46302,-0.227 0.463021,-0.227 z m 55.408571,0.32888 0.41851,-0.1606 v -0.36857 -0.36857 h -2.35961 -2.35961 l -0.45462,-0.17445 -0.45461,-0.17445 0.12291,0.37289 0.12292,0.37289 1.83141,0.29937 1.83142,0.29937 0.44138,0.0314 0.44138,0.0314 z m 3.59351,-3.27899 v -0.26458 h -2.24896 -2.24896 v 0.26458 0.26459 h 2.24896 2.24896 z m -6.01927,-1.27187 0.46302,-0.39764 v -0.40537 -0.40537 l -0.79375,0.76046 -0.79375,0.76046 v 0.2307 0.2307 l 0.33073,-0.18816 0.33073,-0.18815 z m -61.846352,-0.15887 1.322916,-0.35927 1.058334,-0.53305 1.058333,-0.53305 0.396875,-0.13855 0.396875,-0.13856 -0.885198,-0.0209 -0.885198,-0.0209 -0.781151,0.55623 -0.781152,0.55623 -0.8994,-0.16873 -0.8994,-0.16873 -0.972292,0.40625 -0.972291,0.40625 h -0.496855 -0.496855 v 0.24701 0.24701 l 0.727605,0.11549 0.727604,0.1155 0.529166,-0.10448 0.529167,-0.10449 z m 34.649117,0.39069 0.152222,-0.2463 -0.257344,-0.15905 -0.257343,-0.15904 0.132777,-0.34602 0.132777,-0.34601 -0.34277,-0.27049 -0.34277,-0.27049 -0.688325,-0.16396 -0.688324,-0.16395 -0.162599,0.1626 -0.162599,0.1626 0.655007,0.51522 0.655007,0.51523 -0.14861,0.24046 -0.14861,0.24045 -0.647661,-0.42436 -0.647661,-0.42436 v -0.47043 -0.47043 l -0.371008,-0.14237 -0.371008,-0.14237 -0.158159,0.15816 -0.158158,0.15816 0.0021,0.41892 0.0021,0.41892 0.72554,0.36192 0.72554,0.36191 0.926042,0.35408 0.926041,0.35408 0.182823,0.0116 0.182822,0.0116 z m -4.001486,-0.66039 0.144872,-0.37754 -0.315002,-0.24744 -0.315002,-0.24745 -0.711389,-0.16974 -0.711389,-0.16975 -0.164122,0.26556 -0.164121,0.26555 h 0.415079 0.41508 l 0.453086,0.52917 0.453087,0.52917 h 0.177475 0.177474 z m 11.817991,-0.45693 v -0.24049 l -0.35125,-0.13478 -0.35124,-0.13479 -0.77324,0.30783 -0.773226,0.30783 0.793746,0.33994 0.79375,0.33994 0.33073,-0.27249 0.33073,-0.27249 z m 28.56469,-0.53835 0.53948,-0.57906 v -0.34698 -0.34699 h -0.79375 -0.79375 v 0.74966 0.74965 l 0.17639,0.17639 0.17638,0.17639 h 0.0779 0.0779 z m -29.60657,-0.61157 v -0.26458 l -0.66968,-0.0837 -0.669688,-0.0837 v 0.43202 0.43202 l 0.669688,-0.0837 0.66968,-0.0837 z m 43.28335,-0.66146 h 0.35645 l 0.0209,-0.33073 0.0209,-0.33073 0.13345,0.33073 0.13345,0.33073 h 0.26143 0.26144 l 0.31852,-0.33073 0.31852,-0.33073 0.0759,-1.65396 0.0758,-1.65396 -0.67556,-0.25685 -0.67555,-0.25684 -0.39917,0.15318 -0.39918,0.15317 v 0.25189 0.2519 l -0.26458,-0.16353 -0.26458,-0.16352 -0.008,-0.5797 -0.008,-0.57969 -0.41962,0.52916 -0.41961,0.52917 0.16363,-1.90034 0.16363,-1.90034 -0.52589,-0.16691 -0.52589,-0.16691 -1.26023,0.20222 -1.26023,0.20222 -0.1323,0.017 -0.13229,0.017 -0.30015,0.1911 -0.30015,0.1911 -0.31004,1.78922 -0.31003,1.78922 -0.095,0.47212 -0.095,0.47212 1.23438,-0.075 1.23437,-0.075 0.50992,-0.46044 0.50991,-0.46045 0.1231,0.1231 0.12311,0.12311 -0.33469,0.40327 -0.33468,0.40327 h 0.56156 0.56157 l -0.0661,-0.33073 -0.0661,-0.33073 0.35858,0.0754 0.35858,0.0754 0.41291,-0.34002 0.41291,-0.34001 -0.17572,0.70571 -0.17573,0.70571 0.24234,0.088 0.24234,0.088 -0.14795,0.76217 -0.14796,0.76217 -0.49171,0.12858 -0.49172,0.12859 v 0.11215 0.11214 l 0.59086,0.79918 0.59086,0.79918 0.24332,-0.54531 0.24333,-0.54531 z m -65.932164,-3.53149 0.487527,-0.35648 -0.277105,-0.17126 -0.277105,-0.17126 -0.622873,0.51894 -0.622873,0.51895 0.412452,0.009 0.412451,0.009 z m -16.261387,-3.17129 v -0.352769 h -0.79375 -0.79375 v 0.201079 0.20109 l 0.463021,0.121 0.463021,0.121 0.330729,0.0307 0.330729,0.0307 z m 68.519701,-1.905069 -0.322,-0.38798 h -0.23218 -0.23219 v 0.38373 0.38372 l 0.46302,0.26128 0.46302,0.26128 0.0912,-0.25702 0.0912,-0.25703 z m -42.458243,-0.1234 0.163522,-0.26458 -0.875511,0.004 -0.875511,0.004 -0.396875,0.25648 -0.396875,0.256481 1.108865,0.004 1.108864,0.004 z m 0.859896,-1.05542 0.595313,-0.003 v -0.28561 -0.2856 l -0.854705,0.18772 -0.854705,0.18773 0.348316,-0.4197 0.348316,-0.41969 -0.159385,-0.2579 -0.159386,-0.25789 0.286444,-0.17703 0.286445,-0.17703 h 0.909234 0.909233 l 0.142376,-0.23037 0.142375,-0.23037 -0.738425,-0.16192 -0.738425,-0.16192 -0.721756,-0.22691 -0.721755,-0.22691 -0.153755,0.24878 -0.153756,0.24879 h -0.76091 -0.760911 l -0.678683,0.25803 -0.678682,0.25804 v 0.39097 0.39097 l 0.300832,0.66026 0.300833,0.66026 0.559063,0.12132 0.559063,0.12133 0.926042,-0.10476 0.926042,-0.10477 z m -27.699035,-1.70334 -0.323922,-0.3903 -1.181212,-0.17714 -1.181213,-0.177131 -0.151567,0.15157 -0.151567,0.15156 0.392509,0.39251 0.392508,0.39251 1.160344,0.0831 1.160343,0.0831 0.103849,-0.0598 0.103849,-0.0597 z m 5.40789,0.37751 -0.163522,-0.26458 h -0.778135 -0.778135 v 0.26458 0.26459 h 0.941657 0.941656 z m 17.476747,-0.023 0.17777,-0.28764 -0.228301,-0.22117 -0.2283,-0.221181 -0.733472,0.1439 -0.733471,0.143911 0.302847,0.36491 0.302848,0.36491 h 0.481155 0.481155 z m -26.538726,-0.15218 -0.33073,-0.13345 v -0.39044 -0.390441 l -0.246301,0.15222 -0.246301,0.15222 -0.166189,-0.26889 -0.166188,-0.2689 h -0.513552 -0.513552 v 0.66145 0.66146 l 1.256771,-0.0209 1.256771,-0.0209 z m 84.986851,-1.78135 0.71141,-0.36908 -0.2886,-0.17837 -0.28861,-0.17837 0.16995,-0.27497 0.16995,-0.27498 0.64568,0.75628 0.64569,0.75628 -0.17137,-0.79321 -0.17136,-0.7932 -0.10056,-0.10057 -0.10056,-0.10056 -1.51021,-0.16456 -1.51021,-0.16457 -0.11341,-0.34226 -0.11341,-0.34227 0.65849,0.16527 0.65848,0.165269 0.15286,-0.24734 0.15286,-0.24733 -0.66832,-0.30451 -0.66832,-0.30451 -0.6463,0.16222 -0.6463,0.16221 -0.6599,-0.16563 -0.65991,-0.16563 0.0298,-0.19378 0.0298,-0.19379 -0.0313,-0.46302 -0.0313,-0.46302 h -0.42518 -0.42519 l 0.15638,0.4075 0.15637,0.40751 -0.4588,-0.0768 -0.45879,-0.0768 0.0719,0.34792 0.0719,0.34792 -0.86563,-0.0833 -0.86562,-0.0833 0.0786,-0.46656 0.0786,-0.46656 -0.40777,-0.15647 -0.40777,-0.15648 0.1416,-0.2291 0.14159,-0.229099 -0.68663,-0.17234 -0.68663,-0.17233 -1.37471,0.18099 -1.37471,0.18099 -0.59532,0.0116 -0.59531,0.0116 v 0.2366 0.23659 h -0.33324 -0.33323 l -0.36918,0.59114 -0.36917,0.59114 -0.19203,-0.525 -0.19203,-0.52499 0.40627,-0.46302 0.40628,-0.46302 h -0.43788 -0.43789 l -0.1975,-0.005 -0.19751,-0.005 -0.0529,0.68845 -0.0529,0.68844 -0.31539,0.38002 -0.31538,0.38002 -0.95555,-0.17191 -0.95555,-0.17191 -0.30717,-0.24293 -0.30717,-0.24293 -0.17147,0.27743 -0.17146,0.27743 -1.10886,-10e-4 -1.10887,-0.001 -0.99218,-0.27554 -0.99219,-0.27555 v -0.25214 -0.25215 h -0.51355 -0.51355 l -0.17216,-0.27855 -0.17215,-0.27855 -0.30648,0.11051 -0.30649,0.1105 -0.49088,-0.25305 -0.49088,-0.25305 -0.91142,0.17098 -0.91141,0.17099 0.17565,0.55343 0.17565,0.55343 -0.62544,-0.201581 -0.62543,-0.20158 -0.59531,0.0258 -0.59532,0.0258 -0.46302,0.001 -0.46302,0.001 -4.22936,-0.1479 -4.22937,-0.1479 -0.2024,-0.31189 -0.20241,-0.31188 -0.23788,0.36928 -0.23788,0.36929 -0.42358,-0.16254 -0.42358,-0.16255 V 88.75879 88.4859 l 0.59532,-0.004 0.59531,-0.004 -0.39688,-0.2545 -0.39687,-0.25449 -0.49605,0.15457 -0.49606,0.15456 -0.20711,-0.33511 -0.20712,-0.33512 -0.752036,0.30436 -0.752041,0.30437 -3.109499,-0.0763 -3.109498,-0.0763 -0.263939,0.26394 -0.263939,0.26394 v 0.23269 0.23269 l 0.826802,-0.18159 0.826801,-0.1816 0.202762,0.32807 0.202762,0.32808 1.273308,0.10943 1.273308,0.10943 0.340049,0.28221 0.340048,0.28222 -0.151548,0.24521 -0.151547,0.245209 0.617482,-0.1347 0.617481,-0.13469 0.529167,-0.0387 0.529166,-0.0387 0.610931,0.0305 0.61092,0.0305 -0.18737,0.30317 -0.18737,0.30317 0.674,-0.16916 0.67399,-0.16916 0.75453,0.39353 0.75454,0.39353 1.5875,0.008 1.58749,0.008 2.64584,0.26699 2.64583,0.26699 2.11667,0.12608 2.11666,0.12608 0.59532,0.13431 0.59531,0.13431 0.008,0.45798 0.008,0.45798 0.27086,-0.46512 0.27085,-0.46511 -0.14747,-0.23861 -0.14747,-0.23861 0.16146,-0.42076 0.16146,-0.42075 h 0.61513 0.61514 l 0.52724,0.74045 0.52724,0.74044 4.7163,0.34868 4.71629,0.34867 0.79375,0.0354 0.79375,0.0354 0.005,-0.65882 0.005,-0.65881 0.42592,-0.082 0.42592,-0.082 0.16457,0.65569 0.16456,0.65569 1.3888,0.14196 1.38879,0.14197 1.92145,0.15796 1.92145,0.15796 -0.0694,-0.87623 -0.0694,-0.87624 -0.66146,-0.1769 -0.66146,-0.1769 1.19063,0.0666 1.19062,0.0666 0.45559,0.94998 0.45559,0.949981 0.27202,0.16811 0.27201,0.16812 v -0.280201 -0.2802 h 0.29289 0.29289 l -0.15229,0.39688 -0.1523,0.396871 h 0.22604 0.22603 z m -68.943568,-0.71405 -0.631304,-0.47824 -0.102553,0.29459 -0.102553,0.2946 0.472261,0.34532 0.472261,0.34533 0.261596,-0.16168 0.261596,-0.16167 z m -6.319846,0.0404 v -0.24896 l -0.289973,-0.17922 -0.289973,-0.17921 -0.428182,0.42818 -0.428182,0.42818 h 0.718155 0.718155 z m -18.25625,-1.33424 1.455209,-0.47618 1.919275,-0.18788 1.919275,-0.18789 0.14686,-0.23763 0.146861,-0.23762 0.976573,-0.008 0.976572,-0.008 -0.483785,-0.2813 -0.483786,-0.28131 -1.897464,0.21424 -1.897465,0.21424 -0.264583,0.016 -0.264583,0.016 -0.33073,0.20706 -0.330729,0.20706 -0.241985,-0.14956 -0.241985,-0.14955 -0.104577,0.31373 -0.104577,0.31373 -0.812976,0.0563 -0.812976,0.0563 -1.08942,0.18406 -1.08942,0.18405 v 0.51095 0.510951 l 0.727604,-0.16168 0.727604,-0.16169 z m 2.366992,-2.50065 0.315118,-0.37969 -0.756966,0.0215 -0.756965,0.0215 -0.58409,-0.31259 -0.584089,-0.3126 0.0041,0.20775 0.0041,0.20774 0.194386,0.30013 0.194386,0.30012 0.529167,0.1322 0.529167,0.13221 0.298332,0.0307 0.298332,0.0307 z m 7.625772,-0.41405 -0.33047,-0.52917 h -0.316787 -0.316786 l 0.03986,0.52917 0.03986,0.52916 h 0.607396 0.607396 z m 65.84697,0.13229 0.1523,-0.39688 h 0.50085 0.50086 v -0.27677 -0.27678 l -1.12448,0.0548 -1.12447,0.0548 -0.62662,-0.20264 -0.62662,-0.20265 0.11707,0.3512 0.11706,0.3512 0.64185,0.16301 0.64184,0.16301 -0.0661,0.30731 -0.0661,0.3073 h 0.40518 0.40517 z m -59.700151,-0.23628 v -0.36857 l -0.420751,-0.16145 -0.420752,-0.16146 -0.240707,0.14876 -0.240706,0.14877 v 0.38126 0.38126 h 0.661458 0.661458 z m 18.894549,-0.84978 0.416995,-0.16002 -0.146387,-0.23685 -0.146387,-0.23686 h -0.481155 -0.481155 l -0.329377,0.39687 -0.329377,0.39688 h 0.539924 0.539924 z m 4.609623,-0.0719 0.35313,-0.22385 -1.411464,0.11658 -1.411463,0.11657 -0.264583,0.0904 -0.264584,0.0904 1.322917,0.0168 1.322917,0.0168 z M 73.012466,87.81593 v -0.14079 l -0.441092,-0.98369 -0.441091,-0.98369 -0.156144,0.92605 -0.156144,0.92604 0.398798,0.179841 0.398798,0.17984 0.198437,0.0186 0.198438,0.0186 z m 65.997304,-0.62668 0.14728,-0.23831 0.95335,0.0886 0.95335,0.0886 0.13281,0.13281 0.13281,0.13281 0.63426,-0.24114 0.63425,-0.24114 0.71035,0.27007 0.71035,0.27008 0.21197,-0.37878 0.21197,-0.37877 0.92493,-0.17351 0.92493,-0.17352 -0.0241,-6.86809 -0.0241,-6.86808 h -0.78041 -0.7804 l 0.17924,-0.29002 0.17924,-0.29002 -0.49436,0.10172 -0.49435,0.10172 0.0325,0.42739 0.0325,0.42739 -0.77631,-0.27062 -0.77631,-0.27063 0.13646,-0.3556 0.13646,-0.35561 -0.64942,-0.51084 -0.64942,-0.51083 v -0.16036 -0.16036 h 0.66146 0.66145 l 6.6e-4,0.19844 6.7e-4,0.19844 1.71913,0.0245 1.71913,0.0246 v -0.35528 -0.35527 h -0.52918 -0.52917 v -0.28935 -0.28936 l 0.52917,-0.13838 0.52917,-0.13838 -0.01,-0.29987 -0.01,-0.29987 -0.98255,-0.760251 -0.98254,-0.76025 1.05833,0.1587 1.05833,0.15869 -0.51743,-0.21474 -0.51743,-0.21475 0.51743,-0.32353 0.51743,-0.32354 -0.33073,-0.13898 -0.33073,-0.13899 v -0.37482 -0.37483 h -0.66145 -0.66146 v -0.38757 -0.38756 l -0.51,-0.27295 -0.51,-0.27294 -0.41434,0.159 -0.41434,0.15899 -0.23791,-0.62296 -0.23791,-0.62297 0.52273,-0.56957 0.52273,-0.56957 -0.35267,0.0404 -0.35267,0.0404 v -0.26458 -0.26459 l 0.5176,0.0727 0.5176,0.0727 0.20723,0.32417 0.20722,0.32418 -0.13544,0.36782 -0.13543,0.36781 0.53509,0.37479 0.53509,0.3748 v 0.35356 0.35357 l 0.41852,0.16059 0.41851,0.1606 h 0.37524 0.37523 l -0.004,-0.59531 -0.004,-0.59531 -0.24053,0.38012 -0.24053,0.38013 -0.81274,-0.87005 -0.81274,-0.87004 0.14734,-0.2384 0.14734,-0.2384 0.49394,0.26435 0.49394,0.26435 0.41604,-0.15965 0.41604,-0.15965 v -0.31785 -0.31786 l -1.07684,0.055 -1.07684,0.055 -0.1328,-0.34606 -0.13279,-0.34605 -0.77498,-0.32101 -0.77497,-0.32101 -0.38505,0.31956 -0.38505,0.31956 -0.27617,-0.17068 -0.27617,-0.17069 v -0.41433 -0.41433 l -0.78349,0.1567 -0.78349,0.15669 -0.15817,-0.25591 -0.15817,-0.25592 h 0.67708 0.67707 v -0.25797 -0.25797 l 0.8599,0.15756 0.85989,0.15755 -0.92604,-0.81487 -0.92604,-0.81488 -0.57367,-0.0108 -0.57368,-0.0108 -0.41851,0.1606 -0.41852,0.1606 v 0.46846 0.46846 l -0.40326,0.33468 -0.40327,0.33469 -0.18438,-0.18438 -0.18439,-0.18439 0.34526,-0.21337 0.34525,-0.21338 -0.44355,-0.1702 -0.44354,-0.17021 -0.13388,0.51195 -0.13388,0.51195 -0.43695,-0.16726 -0.43695,-0.16726 -0.42017,-0.51799 -0.42017,-0.51798 -0.30743,0.19 -0.30744,0.19001 v 0.49793 0.49794 l -0.23303,0.14402 -0.23303,0.14403 0.43147,0.89351 0.43147,0.89352 1.94778,0.15053 1.94779,0.15053 0.51856,0.55662 0.51857,0.55662 -0.11494,0.32144 -0.11495,0.32145 0.36737,0.72761 0.36737,0.7276 h -0.24933 -0.24933 l -0.0882,-0.23336 -0.0882,-0.23337 -1.10453,-0.18339 -1.10453,-0.1834 -0.29384,0.54905 -0.29384,0.54905 -0.98288,-0.0186 -0.98288,-0.0186 -0.39688,-0.17984 -0.39687,-0.17984 -0.0276,-1.05833 -0.0276,-1.05834 -0.33137,-1.65364 -0.33136,-1.65365 h -0.63319 -0.63319 l 0.007,0.7276 0.007,0.72761 0.27181,1.1795 0.27181,1.1795 0.42066,0.88646 0.42065,0.88646 -0.24896,0.24897 -0.24897,0.24896 -1.04528,0.04 -1.04528,0.04 -0.59531,-0.18998 -0.59532,-0.18997 5.6e-4,-0.1806 5.6e-4,-0.18061 -2.77868,0.0832 -2.77869,0.0832 v -0.28161 -0.28161 h -0.52923 -0.52917 v 0.26459 0.26458 h -0.47625 -0.47625 l -0.3175,0.3175 -0.3175,0.3175 V 65.7977 65.49334 l 0.46302,-0.26968 0.46303,-0.26969 -1.33615,-0.008 -1.33615,-0.008 -0.25135,0.25074 -0.25135,0.25074 -3.09152,-0.42982 -3.09151,-0.42982 -0.39721,0.32966 -0.39721,0.32965 -0.1738,0.79134 -0.17381,0.79133 -0.7031,0.26732 -0.70309,0.26732 0.49174,0.2752 0.49175,0.27521 1.02961,-0.16465 1.0296,-0.16464 0.0313,0.46615 0.0313,0.46615 0.17623,-0.79375 0.17623,-0.79375 0.52007,0.0736 0.52007,0.0736 0.26459,0.0661 0.26458,0.0661 0.3331,0.20808 0.33309,0.20807 0.51327,-0.1629 0.51326,-0.1629 0.56916,0.56915 0.56916,0.56916 -0.29104,0.29105 -0.29104,0.29104 0.004,0.27781 0.004,0.27781 0.22746,-0.35898 0.22745,-0.35897 0.17619,0.28507 0.17619,0.28508 -0.642,0.16113 -0.642,0.16113 0.12898,0.49321 0.12898,0.49322 0.56364,0.081 0.56364,0.081 0.0594,0.79375 0.0594,0.79375 0.14874,0.59531 0.14874,0.59531 h 0.28431 0.28432 l 0.13838,-0.52916 0.13838,-0.52917 h 0.23939 0.2394 l 0.30138,0.66146 0.30138,0.66146 h 0.22212 0.22211 v 0.52916 0.52917 h -0.36857 -0.36857 l -0.13419,0.34972 -0.1342,0.34971 0.56891,0.36201 0.56891,0.36201 -0.92604,0.24753 -0.92604,0.24753 -0.99219,0.0329 -0.99219,0.0329 v 0.33073 0.33073 l 0.33073,0.0338 0.33073,0.0338 0.54027,0.0598 0.54028,0.0598 0.56681,0.30334 0.56681,0.30335 h 0.16752 0.16751 l -0.16088,-0.5069 -0.16089,-0.5069 0.22184,-0.1371 0.22183,-0.1371 0.27793,0.18098 0.27793,0.18098 0.17918,1.14698 0.17919,1.14698 -0.80048,-0.17581 -0.80047,-0.17582 v 0.28561 0.2856 h -0.64584 -0.64585 l -0.16619,0.2689 -0.16618,0.2689 -0.19141,-0.1183 -0.19141,-0.11829 -1.13801,-0.13074 -1.13801,-0.13074 -1.36164,0.21524 -1.36163,0.21525 -0.46398,-0.32499 -0.46398,-0.32498 0.14411,-0.14412 0.14412,-0.14411 -0.80726,-0.28141 -0.80726,-0.28141 v 0.52739 0.52739 l -0.9217,-0.17291 -0.92171,-0.17291 -0.2526,0.66438 -0.2526,0.66439 -0.2587,0.15989 -0.2587,0.15989 -0.7498,-0.30759 -0.74981,-0.30758 -1.40816,-0.063 -1.40816,-0.063 -0.57622,-0.51454 -0.57621,-0.51454 -1.0061,-0.60215 -1.00611,-0.60215 -0.16085,0.16085 -0.16085,0.16085 0.48036,0.53079 0.48036,0.53079 h -0.14335 -0.14305 l -0.75785,-0.39359 -0.75785,-0.3936 -0.08819,0.26131 -0.08819,0.2613 H 99.184175 98.94164 v -0.55748 -0.55747 l 0.371158,0.14242 0.371158,0.14243 0.488734,-0.35894 0.48874,-0.35893 -0.705912,-0.26956 -0.705913,-0.26955 -0.788737,0.29772 -0.788736,0.29771 -0.655029,-0.42919 -0.655028,-0.42919 -0.520444,0.48487 -0.520444,0.48486 -0.703315,-0.13445 -0.703315,-0.13444 v -0.47355 -0.47356 l 0.529167,0.13838 0.529166,0.13838 v -0.41842 -0.41843 l 0.526445,-0.28174 0.526446,-0.28175 1.1272,0.49803 1.127201,0.49803 0.463021,0.16298 0.46302,0.16298 -0.0191,-0.58701 -0.0191,-0.58701 -0.902332,-0.74964 -0.902332,-0.74964 -0.823114,0.18079 -0.823114,0.18079 -0.564048,0.64871 -0.564049,0.64871 -0.60763,-0.1525 -0.60763,-0.15251 -0.159172,0.4148 -0.159172,0.41479 -0.486622,-0.44038 -0.486622,-0.44039 -0.406729,0.15608 -0.406729,0.15608 v 0.40517 0.40518 h -0.276573 -0.276572 l 0.182445,-0.99218 0.182445,-0.99219 0.254666,-0.16537 0.254667,-0.16536 -0.297147,-0.18365 -0.297146,-0.18364 0.134335,-0.21736 0.134336,-0.21736 -0.682143,-0.44696 -0.682143,-0.44696 -0.130772,0.13077 -0.130772,0.13078 0.28602,0.53443 0.28602,0.53443 v 0.18276 0.18276 l -0.79375,-0.15875 -0.79375,-0.15875 v 0.25797 0.25797 h 0.29698 0.296981 l -0.316325,0.38114 -0.316325,0.38115 -0.372685,-0.14301 -0.372685,-0.14301 0.269047,-0.50272 0.269047,-0.50272 -0.340038,0.004 -0.340038,0.004 -0.570851,0.15314 -0.570851,0.15314 -0.124324,0.47541 -0.124324,0.47542 0.166008,0.23311 0.166008,0.23311 0.680056,0.29801 0.680055,0.29801 0.263669,-0.41801 0.263668,-0.418 0.57763,0.57763 0.577631,0.57763 v 0.44745 0.44744 l -0.362941,-0.49635 -0.36294,-0.49635 -1.290705,0.46302 -1.290706,0.46302 -0.741303,0.40269 -0.741303,0.40268 -0.352813,-0.13538 -0.352814,-0.13539 -0.557779,0.6415 -0.55778,0.64151 h -0.495235 -0.495235 l -0.673636,0.52988 -0.673636,0.52988 -0.45864,-0.176 -0.458639,-0.17599 -0.334215,0.45706 -0.334215,0.45707 -0.459971,-0.0833 -0.459972,-0.0834 -0.102292,0.29068 -0.102292,0.29068 0.489446,0.60444 0.489447,0.60444 0.56019,-0.29981 0.560191,-0.2998 h 0.54656 0.546561 v 0.54116 0.54115 l -0.859896,-0.10732 -0.859896,-0.10732 0.44065,0.1108 0.44065,0.1108 0.159228,0.41494 0.159227,0.41494 -0.250518,0.30186 -0.250518,0.30186 0.500561,0.65679 0.50056,0.6568 0.398689,-0.56224 0.398689,-0.56224 0.66962,-0.0496 0.669621,-0.0496 0.727604,-0.009 0.727604,-0.009 0.859896,-0.11901 0.859896,-0.11901 v -0.27149 -0.27149 l -0.377977,-0.37798 -0.377976,-0.37798 h -0.315879 -0.315879 l 0.329377,-0.39687 0.329377,-0.39688 h 0.232187 0.232186 v 0.39688 0.39687 h 0.661459 0.661458 v -0.26458 -0.26458 h 0.396875 0.396875 v 0.26458 0.26458 h 0.507725 0.507725 l 0.749046,-0.37461 0.749046,-0.37461 1.842001,-0.27271 1.842002,-0.27272 0.349623,0.29016 0.349622,0.29016 -0.09772,0.29102 -0.09772,0.29102 1.425071,0.8599 1.42507,0.85989 h 0.383625 0.383625 v -0.26458 -0.26458 h 0.778135 0.778133 l 0.14499,0.2346 0.145,0.2346 -0.3587,0.2977 -0.358694,0.29769 -0.630578,-0.0693 -0.630578,-0.0693 v 0.39687 0.39688 l 1.410878,-0.0762 1.410872,-0.0762 -0.16972,0.27462 -0.16972,0.27461 h 0.1653 0.1653 l 0.51178,-0.27389 0.51177,-0.27389 V 85.30176 84.7819 h 0.51355 0.51355 l 0.16352,-0.26458 0.16352,-0.26458 h 0.76499 0.76499 l 0.26125,0.46302 0.26125,0.46302 0.33398,-0.33073 0.33398,-0.33073 h 0.71878 0.71879 l 0.10426,0.31277 0.10426,0.31278 2.57364,-0.0121 2.57365,-0.0121 0.26387,0.49304 0.26387,0.493041 h 1.31361 1.3136 v -0.52917 -0.52916 h 0.24897 0.24897 l 0.16352,0.26458 0.16352,0.26458 h 0.89153 0.89153 l 0.41577,-0.41577 0.41578,-0.415771 v -0.36237 -0.362359 l 0.29278,-0.18095 0.29278,-0.18095 1.00848,0.33283 1.00848,0.33283 0.13194,0.50453 0.13194,0.504529 0.68346,-0.17154 0.68347,-0.171539 v 0.372639 0.37264 l -0.3175,0.3175 -0.3175,0.3175 h 0.26045 0.26046 l 0.47974,-0.81214 0.47975,-0.81215 0.39563,0.15182 0.39563,0.15181 0.63688,0.15985 0.63688,0.15985 v 0.2359 0.2359 h -0.38127 -0.38126 l -0.16352,-0.26479 -0.16352,-0.26458 h -0.24897 -0.24897 v 0.21143 0.21143 l 0.97998,0.35437 0.97998,0.35436 0.1004,-0.30121 0.10041,-0.30121 h 0.25815 0.25815 l -0.17942,0.29029 -0.17941,0.2903 1.68515,-0.0848 1.68516,-0.0848 0.27721,0.17391 0.27722,0.17391 0.38424,-0.24307 0.38424,-0.243079 -0.33073,-0.004 -0.33073,-0.004 0.002,-0.33073 0.002,-0.33073 1.48876,-0.0734 1.48876,-0.0734 0.61681,0.40415 0.6168,0.40415 h 0.53848 0.53847 v -0.26458 -0.26459 h 0.547 0.547 l -0.16608,0.52326 -0.16607,0.52325 0.34668,0.39273 0.34668,0.39272 0.18282,0.0101 0.18283,0.0101 z m -8.9796,-1.613779 -0.16352,-0.26458 h 0.52917 0.52916 l 0.16353,-0.26458 0.16352,-0.26459 h 0.29886 0.29885 l -0.56799,0.52917 -0.56799,0.52917 h -0.26004 -0.26003 z m -47.048105,-1.69083 -0.163408,-0.42583 h -0.405179 -0.405179 v -0.26459 -0.26458 l 0.463021,0.004 0.463021,0.004 0.361509,0.22903 0.361509,0.22902 -0.255943,0.45734 -0.255942,0.45735 z m 13.780199,-1.537551 0.124419,-0.475779 h 0.366016 0.366016 v 0.51272 0.51272 l -0.490435,-0.0369 -0.490435,-0.0369 z m 8.992386,0.0322 -0.46302,-0.26968 v -0.38373 -0.38373 h 0.4703 0.47029 l 0.59247,0.41498 0.59246,0.41498 -0.15233,0.24648 -0.15234,0.24648 -0.4474,-0.008 -0.44741,-0.008 z m -24.408691,-0.5094 -0.165287,-0.26744 1.141418,-0.523689 1.141417,-0.52369 0.497039,-0.33406 0.497038,-0.33407 0.120323,0.33073 0.120323,0.330729 h 0.242534 0.242535 v -0.529169 -0.52916 h 0.402547 0.402548 l 0.306081,-0.67178 0.306081,-0.671771 0.41585,0.0922 0.415851,0.0922 -0.06615,0.31501 -0.06614,0.31502 h 0.143354 0.143355 l 0.567994,-0.52917 0.567994,-0.52916 h 0.316126 0.316126 l 0.138311,0.5289 0.138311,0.5289 -0.239744,0.14817 -0.239744,0.14817 v 0.2242 0.2242 l 0.550497,-0.14396 0.550497,-0.14396 -0.134317,-0.51363 -0.134317,-0.51363 0.443716,0.18321 0.443716,0.18321 0.46302,0.13313 0.463021,0.13314 v 0.24264 0.24264 l -0.799085,0.78113 -0.799086,0.78113 -0.676508,0.1698 -0.676508,0.16979 -0.615844,-0.32959 -0.615844,-0.32959 -0.289813,0.17911 -0.289812,0.17912 v 0.38126 0.38126 H 86.75297 86.470557 l 0.160884,-0.5069 0.160884,-0.5069 -0.29295,-0.18106 -0.29295,-0.18105 -0.338104,0.46239 -0.338104,0.46238 -0.659061,-0.16541 -0.65906,-0.16542 -0.600756,0.55969 -0.600756,0.55969 -0.202911,-0.32831 -0.20291,-0.32832 -0.546758,0.29261 -0.546757,0.29262 z M 98.941632,81.4882 v -0.383109 l 0.727604,0.235479 0.727604,0.23548 0.52917,0.11694 0.52916,0.11694 -1.25677,0.0307 -1.256768,0.0307 z m -4.144668,-1.92327 -0.837377,-0.10503 -0.157801,-0.41123 -0.157802,-0.411219 0.634175,0.15917 0.634175,0.15916 0.347083,-0.4182 0.347082,-0.41821 0.34465,0.47133 0.34465,0.47134 v 0.3463 0.34631 l -0.330729,-0.0423 -0.330729,-0.0423 z m 29.583906,-0.69455 -0.59747,-0.635979 0.65076,-0.124411 0.65077,-0.1244 0.47415,0.26535 0.47416,0.265351 0.0895,-0.26841 0.0895,-0.2684 0.65614,0.125419 0.65614,0.12543 0.15825,0.25605 0.15824,0.25604 -0.2283,0.21062 -0.2283,0.210611 -1.203,0.171349 -1.20299,0.17136 z m 11.48649,-0.94136 -0.14717,-0.23812 h 0.92457 0.92456 l -0.14717,0.23812 -0.14717,0.238131 h -0.63022 -0.63023 z M 91.004132,77.53654 v -0.36603 l 0.661459,-0.12645 0.661458,-0.12645 v 0.17498 0.17498 l -0.3175,0.3175 -0.3175,0.3175 h -0.343958 -0.343959 z m 45.066668,-1.1105 -0.16048,-0.41819 -0.50431,0.13188 -0.50432,0.13188 -0.71597,-0.37352 -0.71596,-0.37351 0.7276,-0.002 0.7276,-0.002 v -0.26459 -0.26458 h 0.95435 0.95435 l -0.15229,0.39687 -0.1523,0.39688 h 0.37296 0.37295 l 0.1664,-0.26924 0.1664,-0.26924 0.69175,0.54413 0.69175,0.54413 0.74497,-0.16362 0.74496,-0.16362 v 0.27361 0.27362 l -0.92721,0.17395 -0.9272,0.17394 -0.65099,-0.42654 -0.65098,-0.42654 h -0.1416 -0.1416 v 0.39688 0.39687 h -0.40518 -0.40518 z m -6.96667,-0.0889 V 76.0946 l 0.19844,-0.11098 0.19844,-0.11097 -0.33303,0.0815 -0.33303,0.0815 -0.67508,-0.25667 -0.67508,-0.25666 0.17807,-0.28814 0.17808,-0.28813 0.2733,0.27331 0.27331,0.2733 0.71709,-0.14341 0.71709,-0.143419 0.17122,0.44621 0.17123,0.44621 -0.14876,0.2407 -0.14877,0.24071 h -0.38126 -0.38126 z m -2.55015,-0.9481 -0.1523,-0.39687 h -0.36857 -0.36856 v -0.39688 -0.39687 h 0.64584 0.64584 l 0.14956,0.24199 0.14955,0.24198 -0.33237,0.134 -0.33238,0.134 0.33073,0.0209 0.33073,0.0209 v 0.39687 0.39688 h -0.27289 -0.27289 z m 13.23403,-0.78107 -0.14744,-0.38421 0.17135,-0.27725 0.17136,-0.27726 h 0.78644 0.78643 l 0.14969,-0.39007 0.14969,-0.39008 0.33627,0.33627 0.33627,0.33627 0.18502,0.58297 0.18503,0.58298 h -0.28241 -0.28241 v -0.55748 -0.55747 l -0.46302,0.20467 -0.46303,0.20466 -0.74242,-0.0346 -0.74242,-0.0346 0.16494,0.51968 0.16494,0.51968 h -0.15843 -0.15842 z m -2.4818,-0.54184 v -0.39688 h 0.63278 0.63277 l 0.17632,-0.7025 0.17632,-0.70251 -0.34607,-0.2232 -0.34607,-0.22321 -0.39688,0.0694 -0.39687,0.0694 v 0.384839 0.38485 l -0.55951,0.603721 -0.55951,0.60372 h -0.29837 -0.29838 l -0.65445,-0.56904 -0.65444,-0.56903 0.1271,-0.20567 0.12711,-0.20567 -0.59915,-0.20321 -0.59915,-0.203211 -0.33073,0.0635 -0.33073,0.0635 v -0.21254 -0.21253 l 0.5169,-0.32281 0.5169,-0.32281 0.15303,0.24761 0.15303,0.24761 0.40111,-0.15393 0.40112,-0.15392 0.34377,0.47014 0.34378,0.47015 0.17116,-0.27694 0.17116,-0.27694 -0.41213,-0.15815 -0.41212,-0.15815 0.17261,-0.2793 0.17262,-0.279301 0.33767,0.28024 0.33766,0.28024 0.71265,-0.36973 0.71266,-0.36973 -0.0817,-0.22839 -0.0817,-0.22839 0.79375,-0.0171 0.79375,-0.0171 0.98522,0.24595 0.98521,0.24595 -0.29748,0.55586 -0.29749,0.55587 -0.38928,-0.58628 -0.38927,-0.58628 h -0.49689 -0.4969 v 0.141601 0.1416 l 0.41826,0.63835 0.41826,0.63835 0.0907,0.47682 0.0907,0.47682 0.0202,0.11907 0.0202,0.11906 0.3175,-0.3175 0.3175,-0.3175 0.41011,0.009 0.4101,0.009 -0.64628,0.537901 -0.64627,0.5379 -0.4782,-0.12506 -0.47821,-0.12505 v 0.5044 0.50439 h -0.79375 -0.79375 z M 135.9833,73.14009 V 72.8755 h 0.52086 0.52086 l -0.14848,-0.38692 -0.14847,-0.38693 -0.63697,0.41736 -0.63697,0.41735 v 0.23416 0.23415 h 0.26458 0.26459 z m -7.49962,0.57448 -0.43788,-0.48386 v -0.1776 -0.17761 h 0.52916 0.52917 v -0.39687 -0.39688 h -0.64584 -0.64585 l -0.14817,0.23975 -0.14817,0.23974 -0.5289,-0.13831 -0.5289,-0.13831 v -0.23373 -0.23372 h -0.29289 -0.29289 l 0.15229,0.39687 0.1523,0.39688 h -0.82243 -0.82242 l -0.33802,-0.46239 -0.33802,-0.46227 0.25532,-0.30764 0.25532,-0.307639 -0.60065,-0.42072 -0.60066,-0.42071 h -0.34831 -0.34831 l 0.53948,0.579059 0.53947,0.57905 -0.002,0.14855 -0.002,0.14855 -0.67878,0.31498 -0.67878,0.31499 -0.37749,-0.14486 -0.37749,-0.14485 v 0.29289 0.29289 h 0.34396 0.34396 l 0.32766,0.327661 0.32766,0.32766 0.38376,0.003 0.38375,0.003 -0.0632,0.26458 -0.0632,0.26458 -0.49374,-0.0685 -0.49373,-0.0685 -0.7204,-0.60618 -0.72041,-0.60618 0.40712,-0.61316 0.40712,-0.613149 -0.48873,-0.357371 -0.48873,-0.35737 -0.23724,0.14663 -0.23724,0.14662 -0.64983,-0.42578 -0.64982,-0.42578 v -0.39078 -0.39077 h 0.25144 0.25143 l 0.21159,0.35068 0.21158,0.350681 0.47149,0.173429 0.4715,0.17343 0.24956,-0.656399 0.24956,-0.65641 h 0.28853 0.28853 l 0.51177,0.2739 0.51177,0.27389 v -0.27389 -0.2739 h 0.50753 0.50753 l 0.41851,0.160599 0.41851,0.1606 v 0.23628 0.23627 h -0.54478 -0.54479 l 0.16353,0.26459 0.16352,0.26458 h 0.54477 0.54476 l 0.90404,0.79375 0.90403,0.79375 h 0.38767 0.38766 v -0.24675 -0.24676 l -0.54309,-0.17237 -0.5431,-0.17237 0.31586,-0.38059 0.31585,-0.38058 0.61481,0.40283 0.61481,0.40284 h 0.40618 0.40618 v 0.26458 0.26459 h 0.34631 0.3463 l 0.51359,0.41057 0.5136,0.41058 -0.59532,-0.16382 -0.59531,-0.16383 v 0.27311 0.2731 l 0.49612,0.26552 0.49611,0.26551 0.14058,0.53754 0.14057,0.53755 h -0.19881 -0.19881 l -0.47888,-0.52896 -0.47889,-0.52916 h -0.3737 -0.3737 l 0.16795,0.52916 0.16795,0.52917 h -0.2414 -0.24141 z m 4.85378,-0.0453 v -0.26458 h -0.36856 -0.36857 l -0.16683,-0.43474 -0.16683,-0.43475 0.13213,-0.13212 0.13213,-0.13213 0.36146,0.29999 0.36147,0.29999 0.17409,-0.17409 0.1741,-0.17409 v 0.70555 0.70556 h -0.13229 -0.1323 z m -9.65876,-0.79537 -0.48035,-0.53079 0.17309,-0.17309 0.17308,-0.17308 0.53085,0.61206 0.53084,0.61207 v 0.0918 0.0918 h -0.22357 -0.22358 z m 7.34366,-1.30636 -0.59531,-0.49663 v -0.26627 -0.26627 l -0.33073,-0.13345 -0.33073,-0.13345 0.35603,-0.0209 0.35603,-0.0209 0.76845,0.54718 0.76845,0.54719 v 0.37885 0.37886 l -0.19844,-0.009 -0.19844,-0.009 z m 1.16858,-0.98507 -0.17639,-0.17639 0.008,-0.55122 0.008,-0.55121 0.26968,0.46302 0.26969,0.46302 h 0.38372 0.38373 v 0.26458 0.26459 h -0.48507 -0.48507 z m 8.30058,-1.19642 -0.53947,-0.57906 v -0.34698 -0.34699 l -0.72761,-0.0419 -0.7276,-0.0419 -0.50963,0.0471 -0.50962,0.0471 -0.87944,-0.29024 -0.87944,-0.29024 v -0.20306 -0.20306 l 0.51021,-0.46173 0.5102,-0.46173 0.61428,0.18853 0.61427,0.18852 0.31,0.24739 0.30999,0.24739 0.56714,-0.34592 0.56713,-0.34592 0.50063,0.61067 0.50064,0.61067 0.54046,-0.28925 0.54047,-0.28925 0.59531,0.32511 0.59531,0.32512 0.41498,0.0149 0.41497,0.0149 0.8394,0.66146 0.83939,0.66146 0.002,0.19843 0.002,0.19844 h -0.67707 -0.67707 l 0.16352,0.26458 0.16352,0.26459 h -0.39615 -0.39616 l 0.0498,-0.71724 0.0498,-0.71723 -0.41906,-0.0875 -0.41905,-0.0874 0.0222,0.60625 0.0222,0.60624 -0.59532,-0.021 -0.59531,-0.021 v 0.21944 0.21945 h -0.38657 -0.38657 z m -20.9092,-0.47332 -0.28002,-0.52321 0.4297,0.16489 0.4297,0.16489 0.2083,-0.33704 0.2083,-0.33703 0.28452,0.17584 0.28451,0.17584 -0.51952,0.51951 -0.51951,0.51952 h -0.12299 -0.12298 z m -71.261861,16.46436 1.263896,-1.78594 0.288949,-0.26459 0.28895,-0.26458 1.865035,-2.51354 1.865035,-2.51354 0.295064,-0.56934 0.295065,-0.56935 -0.544876,0.14249 -0.544876,0.14249 -0.230437,0.60609 -0.230437,0.6061 -0.469523,0.54836 -0.469524,0.54837 h -0.308675 -0.308676 l 0.03675,0.44754 0.03675,0.44755 -0.529167,0.28006 -0.529167,0.28005 -0.08935,0.51359 -0.08935,0.51358 -1.393575,1.86767 -1.393575,1.86766 -0.465729,0.72761 -0.465729,0.7276 h 0.281645 0.281645 z m 20.939311,-2.20762 0.08376,-0.90124 -0.348346,0.46546 -0.348346,0.46547 -1.641191,0.0733 -1.641191,0.0733 -0.188844,0.18885 -0.188843,0.18884 0.771701,0.028 0.771701,0.028 0.727604,-0.048 0.727605,-0.048 v 0.28286 0.28287 l 0.595312,-0.0893 0.595313,-0.0893 z m -15.432965,-0.40998 0.400244,0.15359 V 82.6485 82.383921 l -0.400244,-0.153591 -0.400244,-0.15359 -0.393506,0.32658 -0.393506,0.32658 v 0.26458 0.26459 l 0.393506,-0.32658 0.393506,-0.32658 z m 6.485661,-0.0944 V 82.13592 H 59.959688 59.60691 l -0.158158,0.15816 -0.158159,0.158161 0.142369,0.37101 0.142369,0.371 h 0.368568 0.368567 z m 7.408333,-0.23628 v -0.23628 l -0.443849,-0.17032 -0.44385,-0.17032 -0.406597,0.4066 -0.406597,0.4066 h 0.850447 0.850446 z m 1.058334,-0.42518 v -0.39688 h -0.529167 -0.529167 v 0.22049 0.22049 l 0.176389,0.17638 0.176389,0.17639 h 0.352778 0.352778 z m -2.869712,-3.30729 0.79375,-0.79375 -0.21879,-0.0215 -0.21879,-0.0215 -0.661458,-0.0707 -0.661459,-0.0706 -0.463021,-0.20075 -0.46302,-0.20076 v 0.40314 0.40313 l 0.312184,0.10406 0.312185,0.104071 -0.182358,0.47521 -0.182359,0.47522 -0.725139,-0.16839 -0.725138,-0.16839 0.396875,0.26856 0.396875,0.26857 0.747956,0.004 0.747957,0.004 z m 48.113459,0.56002 v -0.23372 l -0.59531,-0.15954 -0.59531,-0.15954 -0.23084,-0.004 -0.23083,-0.004 0.32937,0.39687 0.32938,0.39688 h 0.49677 0.49677 z m -50.417879,-0.80073 0.148765,-0.24071 -0.161457,-0.42075 -0.161458,-0.42075 h -0.236276 -0.236276 v 0.66146 0.661461 h 0.248969 0.248968 z m 15.626328,-0.0257 0.164676,-0.266449 -0.421421,-0.16171 -0.42142,-0.16172 0.470796,-0.35717 0.470797,-0.35716 -0.396875,-0.0266 -0.396875,-0.0266 -0.727604,-0.096 -0.727604,-0.096 v 0.24654 0.24653 h 0.264583 0.264584 v 0.66146 0.66146 h 0.645843 0.645844 z m 26.866181,-0.504629 -0.29533,-0.55183 h -0.23966 -0.23966 l -0.15233,0.24648 -0.15233,0.246479 0.58377,0.408891 0.58378,0.408899 0.10354,-0.10355 0.10355,-0.10355 z m -55.442335,-0.0227 -0.167951,-0.52917 h 0.282413 0.282413 v -0.26458 -0.26459 h -0.693856 -0.693855 l 0.329377,0.39688 0.329377,0.39687 h -0.197085 -0.197085 l 0.329377,0.39688 0.329377,0.39687 h 0.117724 0.117724 z m 26.193749,-1.05834 -0.163521,-0.26458 h 0.41249 0.412489 l -0.0083,-0.19844 -0.0083,-0.19844 -0.586998,-0.42086 -0.586998,-0.42086 -0.727604,-0.17949 -0.727604,-0.17949 v 0.40846 0.40847 l 0.661458,0.25148 0.661459,0.25149 v 0.40342 0.40343 h 0.41249 0.41249 z m 2.778125,-1.05833 0.610134,-0.52917 h 0.18163 0.18163 l 0.307053,-0.6739 0.307053,-0.67391 v -0.18043 -0.18042 l -0.595312,0.59768 -0.595313,0.59769 -0.635796,0.52123 -0.635797,0.52123 -0.422537,0.004 -0.422537,0.004 0.396875,0.25648 0.396875,0.25648 0.157954,0.004 0.157954,0.004 z m 15.472665,-1.13739 0.523707,-0.269101 0.355088,-0.355089 0.355087,-0.35509 h 0.759237 0.759236 l 0.163521,-0.26458 0.163522,-0.26458 h -0.280198 -0.280199 v -0.30156 -0.30157 l 0.437297,-0.31975 0.437297,-0.31976 -0.188328,-0.30473 -0.188329,-0.30472 H 97.65367 97.190688 l -0.51359,-0.38846 -0.513591,-0.38846 0.463021,-0.008 0.463021,-0.008 v -0.38126 -0.38126 l -0.277431,-0.17146 -0.277431,-0.171459 0.283298,-0.341351 0.283299,-0.34136 -0.667326,-0.12757 -0.667326,-0.127559 v 0.32155 0.32155 L 95.117807,69.795 94.468983,70.49509 h -0.441906 -0.441905 l 0.325738,0.39249 0.325737,0.392491 -0.705749,0.268329 -0.70575,0.26832 -1.026466,0.16414 -1.026466,0.16414 -0.140322,0.36567 -0.140321,0.36567 h 0.66877 0.668769 l -0.162559,0.26303 -0.162559,0.26303 0.69898,0.91641 0.69898,0.91641 0.837027,-0.15837 0.837026,-0.15837 z m -1.648186,-0.62534 -0.330729,-0.13345 v -0.37483 -0.37482 h 0.396875 0.396875 v 0.110649 0.11065 l 0.160599,0.41852 0.160599,0.41851 -0.226745,-0.0209 -0.226745,-0.0209 z m 0.903993,-1.58866 -0.176389,-0.17639 v -0.16133 -0.16133 l 1.058334,0.10093 1.058333,0.10092 v 0.2368 0.23679 H 95.413854 94.53191 Z m -29.766842,0.44071 -1.412328,-1.31392 -0.351298,0.3513 -0.351297,0.3513 0.598047,0.69599 0.598047,0.69599 0.636412,0.25449 0.636412,0.25449 0.529167,0.0121 0.529167,0.0121 z m 12.813992,0.89649 0.636878,-0.15984 v -0.24094 -0.24095 l -0.632962,0.15887 -0.632961,0.15886 -0.822247,-0.4252 -0.822247,-0.4252 v -0.25779 -0.25779 h 0.381261 0.38126 l 0.163521,0.26459 0.163522,0.26458 h 0.403308 0.403309 l -0.106191,-0.31857 -0.106191,-0.31858 -0.775754,-0.20192 -0.775753,-0.20192 -0.35619,-0.80984 -0.356189,-0.80984 0.142025,-0.37011 0.142025,-0.37011 -0.315002,-0.24745 -0.315002,-0.24744 -0.727604,-0.173821 -0.727604,-0.17381 v -0.52413 -0.52413 h -0.242535 -0.242535 l -0.09324,0.27973 -0.09324,0.27972 -0.428284,-0.16434 -0.428283,-0.16435 -0.208409,-0.84298 -0.20841,-0.84298 -0.102627,0.85989 -0.102628,0.8599 h -0.263435 -0.263435 l 0.163522,0.26458 0.163521,0.26458 h 0.894812 0.894812 l 0.163522,0.26459 0.163521,0.26458 h -0.677073 -0.677073 v 0.25415 0.25415 l 0.330729,0.27103 0.330729,0.27103 0.831944,0.66544 0.831944,0.66545 h 0.292535 0.292535 v 0.37483 0.37482 l -0.302524,0.10084 -0.302524,0.10085 0.293127,0.54771 0.293127,0.54771 0.809392,0.16188 0.809392,0.16188 0.160189,0.41745 0.160189,0.41744 0.387313,-0.14862 0.387312,-0.14863 z M 59.310095,73.13686 59.193122,72.339871 58.946196,72.18726 l -0.246925,-0.15261 0.309828,-0.37332 0.309827,-0.37332 -0.27448,-0.33073 -0.274481,-0.33072 -0.0225,-0.19844 -0.0225,-0.19844 -0.198437,0.0661 -0.198438,0.0661 0.03978,0.34892 0.03978,0.34892 -0.370509,-0.14218 -0.370508,-0.14218 v 0.3016 0.30159 l 0.446333,0.49319 0.446333,0.49319 -0.592157,0.58598 -0.592157,0.58597 0.179289,-0.47646 0.179288,-0.47646 -0.738427,0.18533 -0.738427,0.18534 0.167492,-0.43648 0.167492,-0.43648 -0.851592,0.036 -0.851592,0.036 0.615541,0.11731 0.615541,0.11731 -0.134727,0.3511 -0.134727,0.35109 0.709811,0.274471 0.709811,0.27447 0.529166,0.11644 0.529167,0.11644 0.549489,0.0307 0.549488,0.0307 z m 29.312787,0.0457 v -0.22212 l -0.673907,-0.30705 -0.673908,-0.30705 h -0.129152 -0.129151 l 0.283202,0.529159 0.283201,0.52917 h 0.519858 0.519857 z m -7.276041,-1.36539 0.163521,-0.26458 h -0.694903 -0.694903 l 0.151298,-0.4767 0.151297,-0.4767 -0.927217,-0.0263 -0.927218,-0.0263 v 0.2667 0.2667 l 0.396875,-0.15229 0.396875,-0.1523 v 0.24783 0.24783 l 0.727604,0.39473 0.727604,0.39474 0.182823,0.0106 0.182822,0.0106 z m 2.354245,-0.565 0.659353,-0.30043 0.138543,-0.36103 0.138543,-0.36104 H 84.258262 83.879 l -0.290006,-0.54188 -0.290006,-0.54188 -0.490786,0.15577 -0.490787,0.15577 -0.170173,-0.27535 -0.170173,-0.275351 H 81.43521 80.893351 l 0.149044,-0.388399 0.149043,-0.3884 -0.233003,-0.144 -0.233004,-0.14401 -0.09673,0.46626 -0.09673,0.46626 0.267002,0.72761 0.267001,0.7276 h 0.206577 0.206576 V 69.8328 69.435919 l 0.33073,0.009 0.330729,0.009 0.661458,0.37813 0.661458,0.37812 -0.396875,0.0134 -0.396875,0.0134 -0.395586,0.25009 -0.395586,0.25008 0.527878,0.39891 0.527878,0.39891 0.0537,0.008 0.0537,0.008 z m 13.207056,-4.09779 -0.132584,-0.34551 0.571887,-0.80314 0.571887,-0.803141 H 97.372149 96.824965 V 64.938 64.673421 h 0.381873 0.381872 l 0.384253,-0.5486 0.384253,-0.5486 0.175532,0.28402 0.175531,0.28401 h 0.513551 0.513552 v 0.41249 0.412489 l 0.239606,-0.148079 0.239602,-0.14809 -0.305748,-0.65921 -0.305752,-0.659221 -1.190625,-0.002 -1.190625,-0.002 v -0.66145 -0.66146 h 0.217337 0.217336 l 0.416425,0.41642 0.416425,0.41643 0.193705,-0.31343 0.193705,-0.31342 -0.125291,-0.47911 -0.125292,-0.47912 -0.895924,0.14539 -0.895923,0.14539 -0.149979,-0.39084 -0.149979,-0.39084 -0.780751,-0.0222 -0.780752,-0.0222 v 0.23758 0.23758 l 0.589853,0.31568 0.589853,0.31568 0.336189,0.33619 0.336188,0.33619 v 0.15119 0.15119 h -0.544781 -0.544782 l 0.163522,0.26458 0.163521,0.26458 h -0.529166 -0.529167 l -0.163521,-0.26458 -0.163522,-0.26458 h -0.260567 -0.260567 l 0.07628,0.33219 0.07628,0.33219 -0.593852,0.59385 -0.593852,0.59385 h -0.264583 -0.264584 v 0.39688 0.39687 h 0.778135 0.778135 l 0.144931,0.2345 0.144931,0.23451 -0.526191,0.1376 -0.526191,0.1376 v 0.59494 0.59495 l 0.490903,-0.44426 0.490904,-0.44426 0.435138,0.16697 0.435139,0.16698 v 0.21423 0.21423 l -0.33073,0.13587 -0.330729,0.13588 1.23236,-0.0235 1.23236,-0.0235 z m -27.764314,-0.56273 -0.174553,-0.7276 0.235658,0.22048 0.235658,0.22049 v 0.30505 0.30506 l 0.463021,0.0892 0.463021,0.0892 v -0.26837 -0.26837 l -0.264584,-0.16352 -0.264583,-0.16352 v -0.48411 -0.4841 l -0.859896,-0.15897 -0.859896,-0.15898 -0.79375,0.21559 -0.79375,0.215599 1.102239,0.69696 1.102238,0.69696 0.170147,0.27531 0.170148,0.2753 h 0.121717 0.121718 z m 9.548272,-0.0661 h 0.349168 l 0.176788,-0.4607 0.176789,-0.4607 -0.574668,-0.46534 -0.574668,-0.46534 h -0.219657 -0.219656 l -0.155317,0.25131 -0.155318,0.251309 0.564983,0.30237 0.564983,0.30237 -0.292989,0.29298 -0.292989,0.29299 0.03069,0.5424 0.03069,0.5424 0.121,-0.46303 0.121,-0.46302 z m -5.323963,0.33073 0.122318,-0.19843 -0.308695,-0.75456 -0.308696,-0.75455 -0.607947,0.49229 -0.607947,0.49228 0.176789,0.46071 0.176788,0.4607 h 0.617536 0.617536 z m 8.571427,-0.561191 0.06356,-0.0341 -0.453087,-0.52917 -0.453086,-0.52916 H 80.87227 80.647589 l -0.420886,0.42088 -0.420886,0.42089 0.302239,0.18679 0.302239,0.1868 0.732858,-0.0444 0.732858,-0.0444 z m -9.456265,-1.51764 v -0.36873 h -0.368567 -0.368568 l -0.142369,0.371001 -0.142369,0.37101 0.139929,0.13993 0.139929,0.13993 0.371007,-0.14237 0.371008,-0.14237 z m 7.9375,-0.352949 v -0.51355 l -0.282186,-0.174399 -0.282187,-0.1744 -0.173172,0.17317 -0.173172,0.17317 0.389213,0.24615 0.389212,0.24614 -0.661458,0.0226 -0.661458,0.0226 0.529166,0.22739 0.529167,0.22739 0.198438,0.0186 0.198437,0.0186 z m -10.220609,-0.20195 0.186336,-0.18633 0.694307,-0.0121 0.694308,-0.0121 0.111544,-0.330729 0.111545,-0.33073 h -1.858517 -1.858517 l -0.149555,0.24199 -0.149555,0.24198 0.729252,0.2663 0.729253,0.26629 0.286632,0.0209 0.286632,0.0209 z m 3.870609,-0.0474 v -0.23372 l 0.572678,-0.14976 0.572678,-0.149759 -0.326455,-0.39335 -0.326455,-0.39336 0.262737,-0.49093 0.262738,-0.49093 -0.04594,-0.51817 -0.04594,-0.51817 -0.396875,-0.42714 -0.396875,-0.42714 -0.589884,-0.30687 -0.589883,-0.30686 -0.682668,0.171339 -0.682669,0.171331 0.159459,0.41555 0.159459,0.415539 -0.514286,-0.465419 -0.514285,-0.46542 -0.174174,0.28181 -0.174174,0.28182 h -0.592927 -0.592926 l -0.3175,-0.3175 -0.3175,-0.3175 v 0.4498 0.44979 h -0.702466 -0.702465 l 0.472776,0.52241 0.472776,0.52241 0.543735,0.17258 0.543734,0.17257 -0.496907,0.36335 -0.496906,0.36334 h -0.214014 -0.214013 v -0.24423 -0.24423 l -0.81598,-0.81598 -0.815979,-0.81598 -0.282436,0.17456 -0.282436,0.17455 0.47612,0.34815 0.476119,0.34815 -0.766766,0.32397 -0.766767,0.32397 0.765041,0.10243 0.765041,0.10243 0.223095,-0.35191 0.223095,-0.35192 0.0041,0.39938 0.0041,0.39937 0.554511,0.3463 0.554512,0.3463 0.437762,-0.39617 0.437762,-0.39617 1.124393,0.1083 1.124393,0.10831 0.01677,-0.32552 0.01677,-0.32551 0.239286,0.59531 0.239287,0.59531 h 0.537692 0.537693 v 0.50712 0.50712 l 0.330729,0.13345 0.330729,0.13345 0.198438,0.0209 0.198437,0.0209 z m 3.463313,-0.39914 -0.305648,-0.36828 -0.520499,-0.13612 -0.520499,-0.13611 v 0.0886 0.0886 l 0.415774,0.41577 0.415773,0.41577 h 0.410373 0.410373 z m 24.139128,-2.13216 -0.0465,-0.251479 -0.54879,-0.20301 -0.54879,-0.203011 v 0.53904 0.53904 l 0.59531,-0.0845 0.59531,-0.0845 z m 13.75297,-0.92803 -0.4626,-0.54028 h -0.20578 -0.20578 v 0.396881 0.39687 h -0.26459 -0.26458 v 0.26459 0.26458 h 0.51355 0.51355 l 0.18452,0.29856 0.18452,0.29856 0.2349,-0.41974 0.2349,-0.41973 z m -38.361686,0.418011 0.139923,-0.364641 -0.265682,-0.26568 -0.265682,-0.26568 -0.774756,0.3865 -0.774756,0.386501 0.150687,0.24381 0.150688,0.24382 h 0.749827 0.749828 z m 21.931065,-1.16151 0.432633,-0.732391 -0.282316,-0.52438 -0.282315,-0.52438 -0.06751,-0.0845 -0.06751,-0.0845 -1.150238,0.303869 -1.150238,0.30387 -0.992188,0.28598 -0.992187,0.28599 v 0.33248 0.33247 l -0.33073,0.12985 -0.330729,0.12984 1.029223,-0.0746 1.029223,-0.0746 0.240695,-0.4301 0.240695,-0.4301 h 0.383728 0.383728 v 0.16927 0.16927 l -0.463021,0.35148 -0.463021,0.35148 0.661458,0.0125 0.661459,0.0125 0.396875,0.25648 0.396875,0.25648 0.141391,0.004 0.141391,0.004 z m -1.641457,-0.43883 v -0.41628 h 0.551215 0.551216 l -0.11012,0.33073 -0.110119,0.330729 -0.441096,0.0855 -0.441096,0.0856 z m -9.525958,0.46662 0.132418,-0.13241 -0.488322,-0.35707 -0.488322,-0.35707 -0.371158,0.14242 -0.371158,0.14243 v 0.52954 0.52954 l 0.727062,-0.18248 0.727062,-0.18248 z m -8.361334,-0.58764 0.501249,-0.19671 -0.765833,-0.60368 -0.765832,-0.60369 -0.08852,0.43758 -0.08852,0.43757 0.146364,0.38142 0.146365,0.38142 0.206741,-0.0186 0.206742,-0.0186 z m 2.012292,-0.66368 v -0.36841 l -1.310692,-0.99955 -1.310691,-0.99954 0.149929,-0.2426 0.14993,-0.24259 0.287637,0.28764 0.287637,0.28764 h 0.47625 0.47625 v 0.24356 0.24356 l 0.795951,0.17482 0.79595,0.17482 0.253074,0.47287 0.253074,0.47287 -0.129706,0.12971 -0.129707,0.12971 0.932766,-0.29195 0.932765,-0.291951 v -0.464429 -0.46443 h 0.500484 0.500483 l 0.170753,0.68034 0.170753,0.68033 0.850118,-0.18334 0.850117,-0.18335 0.08819,-0.2324 0.08819,-0.23241 h 0.259166 0.259166 l -0.08278,0.57072 -0.08278,0.57072 0.298131,0.10192 0.29813,0.10192 0.163942,-0.42722 0.163941,-0.42723 -0.269698,-0.50393 -0.269699,-0.50394 -0.523102,-0.27995 -0.523103,-0.27996 v -0.25528 -0.25527 h 0.926041 0.926042 v -0.24253 -0.24254 l -0.330729,-0.11894 -0.330729,-0.11894 -0.874209,0.13383 -0.874208,0.13384 0.16463,-0.764551 0.16463,-0.76454 -0.371191,0.45381 -0.371191,0.45381 -0.295627,-0.29562 -0.295626,-0.29563 -0.291019,0.63556 -0.291019,0.63557 -1.830458,0.44422 -1.830458,0.44422 -0.84292,-0.787409 -0.842919,-0.7874 -0.375221,0.14398 -0.37522,0.14399 -0.408663,-0.40866 -0.408663,-0.40867 -0.49772,0.45043 -0.49772,0.45043 v 0.35363 0.35363 l 0.529167,0.33047 0.529166,0.33047 v 0.42364 0.42364 l 1.088223,0.32604 1.088223,0.32604 0.133261,0.50959 0.133261,0.50959 h 0.366016 0.366016 z m 52.652078,-0.55762 v -0.39688 l 0.33073,-0.0313 0.33073,-0.0314 0.33073,0.0429 0.33073,0.0429 v -0.34483 -0.34483 l -0.56036,-0.34995 -0.56036,-0.34995 -0.28631,0.286309 -0.2863,0.286301 h 0.50648 0.50649 l -0.44029,0.4403 -0.44029,0.44029 -0.40672,-0.33755 -0.40672,-0.33754 -0.66489,0.16687 -0.6649,0.16688 v 0.21288 0.21288 l 0.99219,0.27781 0.99219,0.27781 0.19844,0.0334 0.19843,0.0334 z M 95.378092,57.26513 h 0.214582 l 0.485476,0.43935 0.485476,0.43935 0.179177,-0.17918 0.179176,-0.17918 -0.326387,-0.32632 -0.326387,-0.32631 H 94.95962 93.650034 l -3.4e-5,0.19843 -3.4e-5,0.19844 h 0.396875 0.396875 l 0.0084,0.33073 0.0084,0.33073 0.351483,-0.46302 0.351483,-0.46302 z m 41.669068,-2.25396 0.44407,-0.40188 1.2031,-0.0948 1.2031,-0.0948 0.27361,-0.169099 0.27361,-0.1691 0.15736,0.25461 0.15735,0.25461 1.05155,-0.0419 1.05155,-0.0419 v -0.18005 -0.18006 l -0.41851,-0.1606 -0.41852,-0.1606 h -0.79051 -0.79051 l 0.0846,-0.58446 0.0845,-0.58447 0.66007,-0.15474 0.66007,-0.15474 0.0869,-0.45142 0.0869,-0.45142 h -0.26837 -0.26837 l -0.14465,0.23405 -0.14465,0.23405 -1.19646,-0.0807 -1.19646,-0.0807 0.15048,0.24349 0.15049,0.24349 h 0.51355 0.51355 v 0.50979 0.50979 l -0.74768,0.37299 -0.74767,0.37299 -0.5091,-0.18655 -0.50909,-0.18656 -1.5875,0.005 -1.5875,0.005 0.7484,0.11235 0.7484,0.112359 -0.15609,0.40675 -0.15609,0.40675 0.41718,-0.16008 0.41718,-0.16009 -0.16742,0.5275 -0.16743,0.5275 h 0.19544 0.19543 z m 7.66739,-1.15477 v -0.49831 l 0.59075,-0.15448 0.59075,-0.15448 -0.32617,-0.32617 -0.32617,-0.32617 -0.3112,0.31121 -0.31121,0.3112 -0.35025,-0.29068 -0.35025,-0.29069 v -0.49677 -0.49677 l -0.72761,0.004 -0.7276,0.004 0.26483,0.19438 0.26482,0.19439 0.61363,1.25677 0.61363,1.25677 h 0.24602 0.24603 z"
       id="path14" /></g></svg>
