<?xml version="1.0" encoding="UTF-8" standalone="no"?>
<!-- Created with Inkscape (http://www.inkscape.org/) -->

<svg
   width="101.59999mm"
   height="84.666679mm"
   viewBox="0 0 101.59999 84.666679"
   version="1.1"
   id="svg1"
   xml:space="preserve"
   xmlns="http://www.w3.org/2000/svg"
   xmlns:svg="http://www.w3.org/2000/svg"><defs
     id="defs1" /><g
     id="layer1"
     transform="translate(-28.217852,-130.74081)"><path
       style="fill:#ffffff;fill-opacity:1"
       d="m 28.217851,173.07416 v -42.33334 h 50.799999 50.79999 v 42.33334 42.33333 H 79.01785 28.217851 Z m 62.101619,39.72332 4.749769,-1.90444 0.233731,-2.0643 0.233732,-2.06431 0.254958,-2.37401 0.254959,-2.37401 -0.579608,-0.22242 -0.579608,-0.22241 -0.81965,0.53705 -0.819649,0.53706 -2.244976,2.30923 -2.244975,2.30924 -2.642226,1.27179 -2.642226,1.2718 -1.029679,0.7332 -1.029679,0.7332 -0.266845,-0.43177 -0.266844,-0.43176 -0.932766,0.86446 -0.932766,0.86445 -1.850719,0.41484 -1.85072,0.41483 -1.763888,0.36844 -1.763889,0.36845 -0.366056,0.30255 -0.366057,0.30256 -5.05056,-4.52612 -5.050561,-4.52612 0.02287,-0.3056 0.02287,-0.30559 1.160411,-0.21815 1.16041,-0.21814 -0.440972,-0.0464 -0.440972,-0.0464 v -0.35278 -0.35278 h 0.864732 0.864732 l 2.031608,0.52917 2.031608,0.52917 h 1.182513 1.182512 l 1.767779,0.57821 1.767779,0.57821 4.648507,-0.23457 4.648507,-0.23457 2.133594,-0.26163 2.133594,-0.26162 1.570573,-1.23935 1.570572,-1.23936 1.966096,-1.31211 1.966096,-1.3121 h 0.415154 0.415154 v -0.41886 -0.41878 l 1.055626,1.01135 1.055627,1.01136 -0.472258,0.55395 -0.472257,0.55395 -0.46349,3.08464 -0.463489,3.08464 0.638036,2.1073 0.638037,2.10729 0.283809,-0.17541 0.283809,-0.1754 0.810358,1.42696 0.810359,1.42695 13.367484,-0.0283 13.36749,-0.0283 1.03534,-1.03535 1.03535,-1.03534 h 0.50203 0.50203 v -0.71273 -0.71272 l -1.34336,0.68533 -1.34336,0.68533 -0.42859,-0.68629 -0.4286,-0.68628 0.31512,-0.60924 0.31511,-0.60924 -0.27503,-2.25942 -0.27502,-2.25942 -0.22596,-7.26558 -0.22595,-7.26558 0.32095,0.52917 0.32095,0.52917 0.4331,2.27197 0.43311,2.27197 1.1093,3.0197 1.10931,3.01969 0.1181,-0.78693 0.1181,-0.78692 -0.91063,-2.63833 -0.91062,-2.63833 -0.71852,-3.45391 -0.71852,-3.45391 -0.33327,-3.99596 -0.33327,-3.99596 -1.55069,-3.94154 -1.55069,-3.94154 -1.26866,-3.9487 -1.26866,-3.9487 -0.31488,-2.81442 -0.31488,-2.81442 0.27102,-1.35077 0.27101,-1.35077 0.4153,-1.82318 0.4153,-1.82318 0.46067,-0.17677 0.46067,-0.17678 -0.12127,-1.70421 -0.12128,-1.70421 -0.19921,-1.23473 -0.19921,-1.23472 2.39442,-0.0975 2.39442,-0.0975 0.43234,-0.57546 0.43234,-0.57547 -0.60873,-0.46233 -0.60873,-0.46233 -0.46179,-0.0112 -0.46179,-0.0112 0.21803,0.35278 0.21803,0.35278 h -0.50679 -0.50679 l -0.43917,-0.52917 -0.43917,-0.52916 h -0.26844 -0.26844 l -0.18419,0.70436 -0.1842,0.70436 -0.94538,-0.0782 -0.94538,-0.0782 -0.30086,-0.56214 -0.30085,-0.56215 0.1068,-0.68134 0.1068,-0.68133 1.98804,0.10812 1.98804,0.10812 v -0.38378 -0.38377 l -0.54737,-0.21005 -0.54737,-0.21004 0.2323,-1.05768 0.23231,-1.05767 -0.47868,-0.30331 -0.47869,-0.3033 0.61737,-0.005 0.61736,-0.005 v -0.56691 -0.56691 l 0.52916,0.20306 0.52917,0.20306 v -0.31793 -0.31794 l -0.7496,-0.23791 -0.7496,-0.23791 -0.26929,0.43572 -0.26929,0.43573 -0.3512,-0.21706 -0.3512,-0.21705 -2.05043,0.67644 -2.05042,0.67644 -0.58983,-0.31566 -0.58982,-0.31567 -0.22544,-1.12721 -0.22545,-1.12721 -0.21593,0.21594 -0.21594,0.21594 -0.54438,-0.54439 -0.54438,-0.54438 0.43104,-0.2664 0.43104,-0.2664 -0.92548,-0.60639 -0.92548,-0.6064 -0.77126,-0.0653 -0.77127,-0.0653 -2.19041,-1.14652 -2.19041,-1.14653 -7.863759,0.0229 -7.863756,0.0229 1.852083,0.72992 1.852084,0.72992 v 0.39605 0.39606 l -0.366392,1.23239 -0.366391,1.2324 -0.472469,2.64583 -0.472468,2.64583 0.175976,0.29994 0.175975,0.29994 1.633023,-0.1809 1.633023,-0.1809 1.04145,-0.402 1.041449,-0.402 -0.66674,0.73674 -0.66674,0.73673 -1.566082,0.69276 -1.566081,0.69275 h -0.639891 -0.639892 l -0.198353,0.32094 -0.198353,0.32094 0.182722,0.47617 0.182722,0.47617 1.494117,0.79137 1.494117,0.79137 0.264583,-9.8e-4 0.264583,-9.8e-4 v -0.52917 -0.52916 h -0.490084 -0.490085 l -0.832832,-0.69382 -0.832832,-0.69382 0.176389,-0.007 0.176389,-0.006 2.009399,0.62741 2.009399,0.62741 -0.686482,0.42872 -0.686483,0.42871 -0.01103,0.43799 -0.01103,0.43798 -0.852107,1.73981 -0.852107,1.73981 0.212251,0.34343 0.212252,0.34343 0.131875,1.1967 0.131875,1.1967 -0.907189,1.80617 -0.90719,1.80618 0.180408,0.47013 0.180408,0.47014 h 0.540239 0.540238 v 1.53282 1.53283 l 0.70431,0.63739 0.70431,0.63739 -0.390926,0.47104 -0.390926,0.47103 0.215117,0.8571 0.215117,0.85709 1.553624,0.59333 1.553623,0.59334 0.73788,-0.23419 0.73787,-0.2342 -0.20589,0.53655 -0.20589,0.53655 0.85279,0.85279 0.85279,0.85279 0.76643,0.97436 0.76643,0.97436 v 1.16927 1.16926 l -1.04339,0.98802 -1.0434,0.98802 -0.88272,1.23472 -0.88272,1.23473 -0.767187,1.41111 -0.767195,1.41111 -1.008691,1.15634 -1.008691,1.15633 -0.714891,1.4013 -0.714891,1.40131 h -0.552352 -0.552351 l -1.821729,1.88045 -1.821729,1.88045 -0.881944,0.67719 -0.881944,0.67718 -1.543862,1.86607 -1.543861,1.86606 -0.982813,0.50824 -0.982812,0.50823 -3.117771,0.36565 -3.11777,0.36566 -2.116667,0.34865 -2.116666,0.34865 -1.234723,0.24758 -1.234722,0.24759 -4.129616,0.0152 -4.129617,0.0152 -0.456494,-0.59819 -0.456495,-0.59819 -1.5875,0.0759 -1.5875,0.0759 -0.408865,-0.53102 -0.408865,-0.53102 -1.178635,-0.0296 -1.178635,-0.0296 -1.0015,-0.28609 -1.001501,-0.28609 -1.368056,0.4515 -1.368057,0.4515 0.196085,0.38836 0.196085,0.38837 -1.270859,-1.32292 -1.270859,-1.32291 H 48.44951 48.229556 l -2.67466,-2.38125 -2.67466,-2.38125 -3.798608,-3.65744 -3.798607,-3.65744 0.226088,-0.36582 0.226087,-0.36582 -0.394647,0.24391 -0.394647,0.2439 -0.832161,-1.33592 -0.83216,-1.33593 -0.227739,-0.61736 -0.227738,-0.61736 h -0.478745 -0.478744 l -0.766781,-0.8162 -0.76678,-0.8162 0.969869,-0.90896 0.96987,-0.90896 5.291667,-3.9465 5.291666,-3.9465 0.135425,-0.37906 0.135425,-0.37906 -0.840981,0.25544 -0.84098,0.25544 -0.529166,0.008 -0.529167,0.008 -1.16783,0.52271 -1.16783,0.52271 -0.192052,0.50048 -0.192053,0.50048 -0.278846,-0.17234 -0.278846,-0.17233 -0.216329,0.56374 -0.216328,0.56374 -0.544515,-0.20895 -0.544516,-0.20895 0.166501,0.26941 0.166502,0.2694 -2.529429,1.57392 -2.529429,1.57391 -0.184668,0.005 -0.184669,0.005 -0.749869,0.70556 -0.749869,0.70555 0.0441,5.30707 0.0441,5.30706 0.896865,-0.13163 0.896865,-0.13163 0.988094,0.91573 0.988094,0.91574 0.382903,-0.23665 0.382904,-0.23665 -0.226928,0.36718 -0.226929,0.36718 0.700648,0.18322 0.700647,0.18322 0.331357,0.82703 0.331357,0.82702 0.02236,-0.61736 0.02236,-0.61736 h 0.373598 0.373598 l -0.218029,0.35278 -0.218029,0.35277 h 0.549987 0.549986 v 0.35278 0.35278 l 0.617361,0.0409 0.617362,0.0409 -0.617362,0.16133 -0.617361,0.16134 v 0.30313 0.30314 l 0.69839,0.22166 0.698389,0.22166 -0.08103,0.41948 -0.08103,0.41947 0.665259,-0.11466 0.66526,-0.11466 -0.213216,0.55563 -0.213215,0.55563 h 0.439693 0.439693 l 0.555071,0.61737 0.555072,0.61736 1.534185,1.23472 1.534184,1.23472 1.605118,1.48604 1.605118,1.48605 0.705555,-0.20941 0.705556,-0.20941 0.945372,-0.66566 0.945372,-0.66566 0.215377,0.34849 0.215377,0.34849 -1.337138,0.59614 -1.337138,0.59615 -0.176389,0.0492 -0.176389,0.0492 -0.813259,0.27721 -0.813259,0.27721 0.107704,1.27902 0.107703,1.27901 0.81457,0.19033 0.81457,0.19032 -0.109014,0.22754 -0.109015,0.22755 0.672037,0.74259 0.672038,0.74259 h 0.282771 0.282772 l 1.514635,1.4265 1.514636,1.4265 0.53143,0.30382 0.53143,0.30381 1.368265,-0.47039 1.368265,-0.47039 1.451694,1.34176 1.451694,1.34177 3.323605,2.86636 3.323605,2.86637 h 9.741903 9.741904 z m 30.05106,-41.22263 -0.36148,-0.44097 -0.37903,-1.41111 -0.37903,-1.41111 -1.61211,-0.74286 -1.6121,-0.74286 -1.2428,-1.90297 -1.2428,-1.90298 0.15157,-1.70197 0.15157,-1.70198 0.71715,-0.94386 0.71715,-0.94386 0.91961,0.0664 0.91961,0.0664 v -0.50738 -0.50739 h 0.54132 0.54132 l -0.21779,1.67569 -0.2178,1.6757 0.73071,3.56308 0.73071,3.56308 0.88302,2.34595 0.88301,2.34594 h -0.13016 -0.13017 z m -36.061013,-5.90903 0.377602,-0.70555 H 84.392484 84.09785 l -0.444234,0.44097 -0.444234,0.44097 0.240719,-0.63218 0.240719,-0.63218 0.573931,0.0554 0.573932,0.0554 0.479216,-0.0406 0.479217,-0.0406 -0.206697,-0.82354 -0.206697,-0.82355 1.009616,-0.96727 1.009615,-0.96727 0.268766,-1.47238 0.268765,-1.47237 -0.08343,-0.52917 -0.08343,-0.52917 -0.451294,-0.52916 -0.451294,-0.52917 0.153009,-0.42074 0.153009,-0.42073 -1.25973,-0.23633 -1.259729,-0.23633 -1.517304,0.22754 -1.517304,0.22753 v 1.68248 1.68249 l 0.690306,0.052 0.690307,0.052 -0.377803,-0.3778 -0.377802,-0.37781 0.190019,-0.49518 0.19002,-0.49518 0.487968,0.40498 0.487968,0.40497 v 0.65819 0.65819 l -1.380476,0.22075 -1.380476,0.22075 -0.16977,0.6492 -0.16977,0.6492 0.855932,0.56083 0.855932,0.56083 -0.210485,0.34057 -0.210484,0.34057 1.035661,0.59439 1.03566,0.59439 -0.704843,0.57075 -0.704843,0.57074 0.244976,0.77185 0.244976,0.77186 h 0.492982 0.492982 z m -33.161111,-11.1125 0.439169,-0.52916 h -0.395973 -0.395974 v -0.54999 -0.54999 l 0.352778,0.21803 0.352778,0.21803 v -0.3736 -0.37359 h -0.331958 -0.331958 l -0.218029,0.35277 -0.218028,0.35278 h -0.320886 -0.320886 l 0.184027,-0.47957 0.184028,-0.47956 0.851193,-0.45555 0.851194,-0.45554 -0.166872,-0.27001 -0.166873,-0.27001 0.354641,-0.93277 0.354641,-0.93278 0.340571,0.21049 0.340571,0.21048 0.806617,-0.80662 0.806618,-0.80661 -0.08819,-0.26459 -0.08819,-0.26458 h 0.390521 0.390521 l -0.214132,0.52917 -0.214132,0.52916 -0.225858,0.55972 -0.225857,0.55973 0.66683,-0.0712 0.666829,-0.0712 0.45234,0.0406 0.452341,0.0406 0.319048,0.79375 0.319049,0.79375 0.02718,-1.23473 0.02718,-1.23472 0.212717,-0.79375 0.212717,-0.79375 h -0.570312 -0.570311 v -0.35278 -0.35277 l -0.264584,0.0418 -0.264583,0.0418 -0.529167,-0.053 -0.529166,-0.053 0.684787,-0.51795 0.684787,-0.51795 h -0.420217 -0.420204 v -0.52915 -0.52917 h 0.190443 0.190443 l 1.308863,0.6592 1.308862,0.6592 1.731655,0.25275 1.731654,0.25275 0.825984,0.31404 0.825985,0.31404 v 0.64777 0.64776 l 0.724823,0.77801 0.724824,0.77801 0.509899,-0.5099 0.509898,-0.5099 v -0.16044 -0.16045 l -0.705555,-0.1845 -0.705556,-0.18451 v -0.56219 -0.5622 l 0.440973,-0.0224 0.440972,-0.0224 -0.76906,-0.30991 -0.76906,-0.30992 -0.237575,-1.58426 -0.237575,-1.58426 -0.492671,-0.18906 -0.49267,-0.18905 v 0.49727 0.49728 l 0.352778,0.21803 0.352777,0.21802 v 0.25462 0.25462 l -1.146527,0.43385 -1.146528,0.43386 -0.4241,-0.57726 -0.424099,-0.57725 -0.987012,0.19148 -0.987011,0.19147 -0.975798,-0.19235 -0.975798,-0.19236 0.398409,-0.48005 0.398409,-0.48005 0.275173,0.17006 0.275174,0.17007 0.27189,-0.9677 0.271889,-0.9677 -0.07229,-0.30786 -0.0723,-0.30787 0.508832,0.19526 0.508831,0.19526 0.171221,-0.65475 0.171222,-0.65475 -0.487862,0.18721 -0.487861,0.18721 0.20554,-1.18375 0.20554,-1.18374 0.123586,-0.41178 0.123587,-0.41177 -0.535745,-0.20559 -0.535744,-0.20558 h -0.295895 -0.295895 l -0.232449,1.05833 -0.232449,1.05834 H 56.038445 55.3401 l 0.232892,0.37682 0.232892,0.37683 0.464111,-0.17809 0.46411,-0.1781 -0.159095,1.30057 -0.159096,1.30058 -0.426816,0.97014 -0.426815,0.97013 h -0.497726 -0.497726 l 0.584613,-0.64599 0.584612,-0.64598 -0.235954,-0.23596 -0.235955,-0.23595 h -0.331725 -0.331725 l 0.203061,0.52916 0.20306,0.52917 h -0.341706 -0.341706 v -0.46119 -0.46119 l -0.970139,0.0618 -0.970139,0.0618 -0.705555,-0.28136 -0.705556,-0.28135 0.466171,-0.0248 0.46617,-0.0248 -0.529166,-0.52917 -0.529167,-0.52916 h -0.340233 -0.340233 l -0.26713,0.61736 -0.267131,0.61736 -0.101056,0.70555 -0.101056,0.70556 0.183452,-0.44097 0.183453,-0.44097 h 0.669019 0.669018 l 1.506445,0.58221 1.506444,0.58222 0.2497,0.21429 0.2497,0.21429 0.183633,1.46152 0.183632,1.46153 -0.6371,-0.16661 -0.637101,-0.1666 0.04408,-0.59833 0.04408,-0.59832 0.305754,-0.49472 0.305754,-0.49472 -0.619685,0.2378 -0.619684,0.23779 -0.184887,-0.70701 -0.184888,-0.70701 h -0.306899 -0.306898 l -0.479254,1.14653 -0.479255,1.14652 -0.579929,0.48095 -0.579929,0.48094 0.193325,0.31281 0.193324,0.3128 h -0.549986 -0.549987 v 0.72638 0.72637 l 0.440972,-0.24909 0.440973,-0.24909 -0.779,0.75744 -0.778999,0.75744 H 48.38208 48.055696 l -0.212029,-0.79375 -0.212028,-0.79375 0.591087,-0.44097 0.591088,-0.44098 H 48.369837 47.92586 l 0.223935,-0.70555 0.223935,-0.70556 h -0.376551 -0.376551 l -0.0054,0.44098 -0.0054,0.44097 -0.318364,-0.50305 -0.318364,-0.50304 -0.734567,-0.1121 -0.734567,-0.11211 v 0.37139 0.37138 l 0.352777,-0.21803 0.352778,-0.21803 v 0.72638 0.72637 l -0.440972,-0.005 -0.440972,-0.005 -0.79375,-0.21271 -0.79375,-0.21272 v -1.24288 -1.24288 l -0.512892,-0.39167 -0.512891,-0.39167 0.512891,-0.68478 0.512892,-0.68479 v 0.59659 0.59659 h 0.705555 0.705556 v -0.25133 -0.25133 l -0.970139,-0.83529 -0.970139,-0.8353 0.646214,0.20468 0.646214,0.20468 h 0.896287 0.896288 l -0.43917,0.52917 -0.439169,0.52917 h 0.572363 0.572362 v 0.3736 0.37359 l -0.352778,-0.21803 -0.352778,-0.21802 v 0.30304 0.30304 l 0.432523,0.43252 0.432523,0.43253 0.647924,-0.80294 0.647923,-0.80294 -0.215347,0.88194 -0.215346,0.88195 0.388715,-0.62016 0.388716,-0.62015 -0.201236,-0.32561 -0.201237,-0.32561 0.358532,-0.22158 0.358533,-0.22159 v -0.66721 -0.6672 l 0.617361,-0.35958 0.617361,-0.35958 -1.499306,-0.0107 -1.499305,-0.0107 -0.03516,0.79375 -0.03516,0.79375 -0.239149,-0.85579 -0.239149,-0.85579 -0.431242,-0.14375 -0.431241,-0.14375 v 0.38218 0.38218 h 0.373597 0.373598 l -0.247484,0.40043 -0.247484,0.40044 -0.409031,-0.76428 -0.40903,-0.76428 -0.210924,0.21093 -0.210924,0.21092 -0.196197,-0.31745 -0.196196,-0.31745 0.425454,-0.0646 0.425454,-0.0646 1.763889,-0.15274 1.763889,-0.15274 0.08819,-0.0179 0.08819,-0.0178 0.264583,0.0882 0.264583,0.0882 -0.0588,0.17639 -0.0588,0.17638 h 1.087731 1.087732 l 0.122372,-0.36711 0.122373,-0.36712 -2.827002,-1.02792 -2.827003,-1.02791 v -0.31841 -0.3184 l -0.517868,0.19872 -0.517869,0.19873 -0.208507,-0.33737 -0.208506,-0.33737 H 44.051208 43.69843 l 0.173931,0.28142 0.173932,0.28143 -0.324099,0.51232 -0.324098,0.51233 -0.0054,-0.7232 -0.0054,-0.72319 -0.440972,-0.49452 -0.440972,-0.49451 0.675877,0.51215 0.675878,0.51216 -0.241627,-0.97014 -0.241626,-0.97014 h 0.359499 0.359499 v -0.41158 -0.41157 l -0.218387,0.21839 -0.218386,0.21838 -0.512368,-0.51236 -0.512367,-0.51237 h -0.289836 -0.289837 l -0.220516,0.57466 -0.220517,0.57465 0.429948,1.189 0.429948,1.189 -0.435118,0.43512 -0.435118,0.43512 -0.207924,-0.7951 -0.207923,-0.7951 -0.452333,0.3754 -0.452333,0.37541 -1.003883,-0.19369 -1.003884,-0.19369 0.972337,0.38502 0.972337,0.38501 -0.179731,0.29082 -0.179732,0.29081 0.218732,0.57 0.218732,0.57001 0.549145,-0.44998 0.549145,-0.44997 -0.204539,0.79375 -0.204539,0.79375 h 0.290353 0.290353 l 0.173676,-0.44097 0.173676,-0.44098 -0.08099,1.33522 -0.08099,1.33523 -0.642541,0.60505 -0.642542,0.60506 0.178063,-0.52917 0.178062,-0.52916 0.248573,-0.79375 0.248572,-0.79375 h -0.338807 -0.338808 l -0.214132,0.55801 -0.214132,0.55802 v 0.8099 0.8099 l -0.529167,0.43917 -0.529166,0.43916 v 0.93665 0.93664 l -0.516712,0.73771 -0.516712,0.73771 0.241376,0.24137 0.241375,0.24138 -0.519139,-0.19921 -0.519139,-0.19922 -0.470443,0.7533 -0.470443,0.7533 -0.157991,2.50507 -0.157992,2.50506 0.717354,-0.76999 0.717355,-0.76999 v -0.22888 -0.22889 l -0.529167,0.20307 -0.529167,0.20306 v -0.5181 -0.51809 h 0.352778 0.352778 l 0.04804,-1.14653 0.04804,-1.14653 0.153568,0.79898 0.153569,0.79898 0.276595,-0.17094 0.276595,-0.17095 -0.166554,0.87127 -0.166553,0.87127 h 0.325803 0.325802 l 0.387151,-0.97014 0.38715,-0.97014 -0.172362,1.23473 -0.172361,1.23472 0.377076,-0.52917 0.377077,-0.52917 0.0054,0.44397 0.0054,0.44396 0.701079,-0.43783 0.701079,-0.43783 -0.701079,-0.25935 -0.701079,-0.25935 v -0.36414 -0.36415 h 0.558565 0.558565 l -0.1289,-0.26459 -0.128913,-0.26458 -0.486958,-0.97163 -0.486958,-0.97163 0.23742,-0.23742 0.23742,-0.23742 0.736923,0.79099 0.736924,0.791 0.638512,-0.57785 0.638513,-0.57784 0.242348,0.76357 0.242347,0.76357 0.671195,-0.17553 0.671195,-0.17552 0.197561,0.31966 0.19756,0.31966 h -0.373598 -0.373598 v 0.72638 0.72637 l -0.279546,-0.17277 -0.279546,-0.17277 -0.05761,0.76487 -0.05762,0.76486 0.33176,-0.52472 0.331759,-0.52472 0.0054,0.62843 0.0054,0.62844 0.535414,0.20545 0.535413,0.20546 -0.09444,0.57444 -0.09444,0.57444 1.145622,-0.11191 1.145622,-0.1119 -0.231691,0.64385 -0.231691,0.64386 0.24366,-0.21685 0.243659,-0.21685 0.157068,-0.81559 0.157067,-0.81559 0.405249,-0.37867 0.405249,-0.37868 -0.171681,0.97014 -0.171681,0.97014 h 0.501066 0.501066 l -0.215277,0.34833 -0.215277,0.34832 0.459041,0.5202 0.45904,0.5202 0.397776,0.0134 0.397777,0.0134 z m 0.5871,-19.54874 0.05793,-1.4986 0.191435,-0.19144 0.191435,-0.19144 0.632576,0.25784 0.632576,0.25784 -0.705556,0.29011 -0.705556,0.29012 0.79375,0.0248 0.79375,0.0248 v -0.41157 -0.41158 l 0.204971,0.20497 0.204972,0.20498 -0.416556,0.77834 -0.416556,0.77834 0.387973,-0.23978 0.387974,-0.23978 v 0.73878 0.73879 l 0.659172,-0.35278 0.659171,-0.35277 0.274861,0.25217 0.274861,0.25217 -0.183755,-0.74903 -0.183755,-0.74903 0.660834,0.17282 0.660833,0.17281 -0.0054,-0.65851 -0.0054,-0.65851 -0.328754,-0.51985 -0.328753,-0.51986 0.381816,-0.23597 0.381816,-0.23598 -0.800993,-0.42868 -0.800992,-0.42867 0.228528,0.91052 0.228528,0.91053 -0.57424,-0.22035 -0.574239,-0.22036 0.25675,0.84712 0.256749,0.84711 -0.46791,-0.4459 -0.467911,-0.4459 0.397617,-1.0534 0.397616,-1.05341 h -0.498523 -0.498523 v 0.52917 0.52916 h -0.529166 -0.529167 v -0.52916 -0.52917 h -1.940278 -1.940278 l 0.08819,0.44097 0.08819,0.44097 -0.970139,-0.10154 -0.970138,-0.10155 v 0.40387 0.40388 l -0.494367,-0.18971 -0.494367,-0.18971 0.07258,0.49453 0.07258,0.49453 0.245396,0.2454 0.245396,0.2454 v -0.41158 -0.41157 h 1.431931 1.431931 l -0.218029,-0.35278 -0.218029,-0.35278 h 0.330402 0.330402 l 0.453988,0.54703 0.453989,0.54702 -0.763571,0.19968 -0.76357,0.19967 v 0.33541 0.33541 l 0.646621,-0.20523 0.64662,-0.20523 0.429764,0.94323 0.429765,0.94323 -0.459024,0.32341 -0.459024,0.32342 0.529167,-0.14429 0.529167,-0.14429 z"
       id="path1" /></g></svg>
