<?xml version="1.0" encoding="UTF-8" standalone="no"?>
<!-- Created with Inkscape (http://www.inkscape.org/) -->

<svg
   width="101.60001mm"
   height="84.666672mm"
   viewBox="0 0 101.60001 84.666672"
   version="1.1"
   id="svg1"
   xml:space="preserve"
   xmlns="http://www.w3.org/2000/svg"
   xmlns:svg="http://www.w3.org/2000/svg"><defs
     id="defs1" /><g
     id="layer1"
     transform="translate(-47.577581,-152.65739)"><path
       style="fill:#ffffff;fill-opacity:1"
       d="m 47.577577,194.99072 v -42.33333 h 50.799999 50.800004 v 42.33333 42.33334 H 98.377576 47.577577 Z m 100.806253,23.57063 v -17.97028 l -0.33073,-0.12127 -0.33073,-0.12126 0.33073,-0.35058 0.33073,-0.35057 v -23.09812 -23.09813 h -21.71145 -21.71145 l 0.14493,0.2345 0.14493,0.23451 -0.52592,0.13753 -0.52593,0.13753 -0.1342,-0.21714 -0.13421,-0.21715 0.2654,-0.0887 0.2654,-0.0887 -2.64979,-0.0651 -2.649791,-0.0651 0.158518,0.63159 0.158519,0.63159 -0.256043,0.15824 -0.256042,0.15824 -0.303846,-0.36611 -0.303846,-0.36611 0.07543,-0.35858 0.07543,-0.35858 -4.024267,-0.073 -4.024266,-0.073 0.07347,0.93288 0.07347,0.93287 h -0.319997 -0.319998 l -0.169069,-0.67362 -0.16907,-0.67363 0.156002,-0.25241 0.156001,-0.25242 h -0.707932 -0.707932 l 0.13838,0.52917 0.138381,0.52916 H 88.28303 87.763019 l 0.181804,-0.29416 0.181803,-0.29417 -0.364626,-0.23095 -0.364626,-0.23095 -1.488282,-0.004 -1.488281,-0.004 -0.846231,0.16925 -0.846231,0.16925 0.160222,0.63837 0.160222,0.63837 -0.547683,-0.29311 -0.547683,-0.29311 -0.474971,0.15075 -0.474971,0.15075 -0.309563,-0.67942 -0.309563,-0.67941 -2.841378,0.0593 -2.841377,0.0593 -0.351743,0.35174 -0.351743,0.35174 h 0.362857 0.362857 l 0.3175,-0.3175 0.3175,-0.3175 -0.0084,0.25136 -0.0084,0.25135 -0.351483,0.46302 -0.351483,0.46302 h -0.458623 -0.458622 l -0.13838,-0.52916 -0.138381,-0.52917 h -0.249339 -0.24934 l 0.137052,-0.22175 0.137052,-0.22176 -2.6452,-0.007 -2.6452,-0.007 0.09677,0.29525 0.09677,0.29525 0.7072,0.0837 0.7072,0.0837 v 0.3793 0.3793 h 0.15119 0.151191 l 0.396875,-0.39688 0.396875,-0.39687 h 0.482287 0.482286 l 0.858303,0.80177 0.858302,0.80178 0.811829,0.57807 0.811829,0.57807 -0.649963,0.16716 -0.649962,0.16716 -0.54622,-0.48867 -0.546219,-0.48867 h -0.150526 -0.150526 l -0.138381,0.52916 -0.13838,0.52917 h -0.935197 -0.935197 l -0.163521,-0.26458 -0.163522,-0.26459 h -0.531381 -0.531381 l 0.157541,-0.49637 0.157541,-0.49636 -0.591178,-0.1546 -0.591178,-0.1546 -0.101953,0.10196 -0.101953,0.10195 0.254239,0.4543 0.254238,0.4543 -0.13445,0.51414 -0.13445,0.51413 -0.955431,-0.17852 -0.955432,-0.17851 -0.346383,-0.2863 -0.346382,-0.28629 -0.69967,-0.0746 -0.699669,-0.0746 -0.285738,0.23714 -0.285739,0.23714 -0.370362,-0.2289 -0.370363,-0.22889 0.908403,-0.39585 0.908403,-0.39584 -0.698921,-0.0216 -0.698921,-0.0216 -0.165005,-0.65743 -0.165004,-0.65743 -0.673209,-0.16896 -0.67321,-0.16897 0.139769,-0.36423 0.139768,-0.36423 H 61.36712 61.150322 l -0.821933,0.28653 -0.821934,0.28653 0.107368,1.07924 0.107367,1.07924 -0.25708,0.48036 -0.257079,0.48036 0.402997,-0.15465 0.402997,-0.15464 v 0.55747 0.55748 h -0.418924 -0.418923 l 0.110119,0.33073 0.11012,0.33072 0.507241,0.0935 0.507242,0.0935 0.473004,0.41961 0.473003,0.4196 -0.397648,0.22253 -0.397649,0.22254 -0.47223,-0.24171 -0.47223,-0.24171 -0.773867,-0.3616 -0.773866,-0.36159 -0.410301,-0.95693 -0.4103,-0.95693 -1.72625,0.13396 -1.726249,0.13397 -0.661458,0.24741 -0.661459,0.24742 0.444053,0.32626 0.444053,0.32627 -0.771985,0.29139 -0.771984,0.29139 -0.531964,-0.13911 -0.531964,-0.13911 v 0.29544 0.29544 h -0.21876 -0.218759 l 0.116498,-0.79375 0.116497,-0.79375 h -0.294613 -0.294613 v 0.77618 0.77617 l -0.7072,0.0837 -0.7072,0.0837 -0.116053,0.35309 -0.116053,0.3531 1.02169,-0.048 1.021691,-0.048 0.478635,0.0256 0.478636,0.0256 -0.138289,0.22375 -0.138289,0.22376 -1.332534,-0.0681 -1.332534,-0.0681 v 0.2412 0.24119 l 1.653645,0.036 1.653646,0.036 -0.661458,0.12172 -0.661458,0.12171 -0.211585,0.37142 -0.211585,0.37142 -0.449873,3.9e-4 -0.449874,3.9e-4 -0.07638,1.12409 -0.07637,1.12409 -0.254354,0.0882 -0.254353,0.0882 v 0.21158 0.21157 l 0.776553,-0.0391 0.776553,-0.0391 0.629562,-0.59144 0.629562,-0.59144 h 0.428138 0.428139 l 0.210848,0.59531 0.210848,0.59531 0.03099,0.26458 0.03099,0.26459 0.201172,0.46302 0.201172,0.46302 h 0.485244 0.485245 l 0.163521,-0.26458 0.163522,-0.26459 h 1.042718 1.042718 v -0.24675 -0.24676 l 0.562199,-0.17843 0.562199,-0.17844 0.2275,0.35905 0.227499,0.35904 0.0041,-0.59531 0.0041,-0.59531 H 57.469091 57.04173 l 0.181816,-1.45521 0.181817,-1.45521 h -0.192502 -0.192502 l -0.868602,0.66251 -0.868602,0.66252 -0.178422,-0.28869 -0.178423,-0.2887 0.294446,-0.29445 0.294446,-0.29444 v -0.47625 -0.47625 h 0.910427 0.910427 l 0.166189,0.2689 0.166189,0.2689 0.251717,-0.15557 0.251717,-0.15557 0.85448,0.71959 0.854479,0.71959 0.157863,-0.76677 0.157863,-0.76678 0.360034,1.25677 0.360034,1.25677 h 0.295878 0.295879 l 0.621408,0.66146 0.621408,0.66146 h 0.247145 0.247146 l -0.17158,-0.68363 -0.171579,-0.68363 0.267998,0.16564 0.267998,0.16563 0.29687,1.10249 0.29687,1.10249 0.437924,0.33313 0.437925,0.33313 -2.152569,0.008 -2.152569,0.008 -0.757848,-0.39524 -0.757848,-0.39525 -0.747004,-0.002 -0.747005,-0.002 0.08555,0.444 0.08555,0.44399 0.729852,0.19518 0.729853,0.19519 2.974314,0.29947 2.974314,0.29946 0.907736,0.14066 0.907736,0.14065 -0.335021,0.20705 -0.335022,0.20706 0.04244,0.22838 0.04244,0.22839 -0.284427,0.0948 -0.284427,0.0948 v -0.41892 -0.41893 H 65.60177 65.369583 l -0.33937,0.40892 -0.33937,0.40892 -0.376593,-0.14452 -0.376594,-0.14451 0.0989,0.2967 0.0989,0.2967 0.915396,0.0668 0.915396,0.0668 0.727604,0.19452 0.727604,0.19451 v -0.56715 -0.56716 l 0.529167,0.2832 0.529167,0.2832 0.008,-0.73691 0.008,-0.73692 0.249201,0.42642 0.249201,0.42642 0.07671,0.99966 0.07671,0.99965 0.724375,0.0772 0.724374,0.0772 v -0.37882 -0.37883 h 0.232484 0.232484 l 0.332762,0.80336 0.332763,0.80336 v 1.05417 1.05417 l -0.473962,0.52372 -0.473962,0.52372 h 0.449909 0.449909 l 0.649431,-0.64943 0.649432,-0.64943 v -0.65787 -0.65787 l -0.264583,-0.16352 -0.264583,-0.16353 v -0.28136 -0.28137 l 0.396875,0.32938 0.396875,0.32938 v 0.30103 0.30104 l 0.672165,0.7249 0.672166,0.7249 0.18773,2.9e-4 0.18773,2.9e-4 0.04006,1.32524 0.04006,1.32524 0.580145,0.46977 0.580145,0.46978 -1.083228,-0.10331 -1.083228,-0.1033 v -0.22118 -0.22117 l 0.264583,-0.16353 0.264583,-0.16352 v -0.64584 -0.64584 H 74.19909 73.833074 l -0.201169,0.59531 -0.201168,0.59531 -0.03512,0.26458 -0.03512,0.26459 -0.207059,0.33073 -0.20706,0.33073 0.146451,0.23696 0.146451,0.23696 2.250414,0.33481 2.250414,0.3348 v 0.32839 0.32839 l 0.79375,0.27671 0.79375,0.2767 v 0.51462 0.51462 l -0.418514,0.1606 -0.418515,0.1606 H 77.85076 77.210941 v 0.38126 0.38126 l 0.287638,0.17777 0.287637,0.17777 0.277437,-0.27744 0.277437,-0.27743 0.360968,0.36096 0.360967,0.36097 v 0.27518 0.27518 l -0.396875,-0.1523 -0.396875,-0.15229 v 0.42518 0.42518 h -0.264584 -0.264583 v 0.52087 0.52086 l 0.394645,-0.15144 0.394645,-0.15144 0.16022,0.41753 0.16022,0.41752 0.371177,-0.37117 0.371176,-0.37118 0.02149,-0.48192 0.02149,-0.48192 0.332243,0.75147 0.332243,0.75147 0.334148,0.20652 0.334148,0.20651 0.195444,0.8941 0.195444,0.8941 -0.370227,0.74554 -0.370228,0.74554 0.116824,0.31279 0.116824,0.31279 0.296547,-0.74595 0.296548,-0.74595 0.592183,0.0845 0.592183,0.0845 0.09725,0.50976 0.09725,0.50975 0.541868,0.43878 0.541868,0.43878 -0.286468,0.82176 -0.286469,0.82176 0.308401,0.1028 0.308401,0.1028 -0.373392,0.77274 -0.373391,0.77274 0.05737,0.33073 0.05737,0.33073 h -0.304489 -0.30449 l 0.152296,0.39687 0.152295,0.39688 -0.159848,0.41656 -0.159848,0.41655 -0.691744,-0.15877 -0.691744,-0.15877 0.661458,0.53396 0.661459,0.53396 0.390205,-0.0665 0.390205,-0.0665 0.408026,-1.10457 0.408025,-1.10457 0.1553,-0.1553 0.155299,-0.1553 1.890741,0.17572 1.89074,0.17573 v 0.70284 0.70284 l 0.294699,0.2947 0.294699,0.2947 -1.480527,0.18497 -1.480527,0.18498 -0.65567,-0.16456 -0.65567,-0.16456 -0.300781,0.56201 -0.30078,0.56202 -0.90043,-0.14612 -0.900429,-0.14612 v 0.21597 0.21598 l 0.685176,1.49662 0.685177,1.49662 0.63774,0.41787 0.63774,0.41786 v 1.13189 1.13189 l 0.44237,0.16975 0.442371,0.16975 0.768925,-0.84186 0.768925,-0.84187 -0.116328,-0.44483 -0.116327,-0.44484 2.807636,-0.34244 2.807636,-0.34244 0.647723,-0.24547 0.647722,-0.24548 0.886368,-0.91266 0.886368,-0.91267 -0.211174,-0.0313 -0.211173,-0.0313 -0.167432,0.021 -0.167432,0.021 -0.157556,-0.78778 -0.157556,-0.78778 -0.684424,-0.26022 -0.684424,-0.26021 h -1.094596 -1.094596 l -2.195471,-2.26576 -2.195472,-2.26575 v -0.34768 -0.34769 l 0.355074,-0.29468 0.355073,-0.29468 0.174093,0.17409 0.174094,0.17409 v 0.72097 0.72097 l 0.595312,0.14551 0.595313,0.1455 2.778125,0.27662 2.778125,0.27662 3.439583,0.26664 3.439579,0.26663 5.15938,0.39311 5.15938,0.39311 3.50573,0.30946 3.50573,0.30947 v 0.19245 0.19245 l -0.39688,0.32938 -0.39687,0.32938 v -0.19709 -0.19708 l -0.36812,0.3055 -0.36811,0.30551 -0.17665,1.17802 -0.17666,1.17803 -0.46484,0.3348 -0.46485,0.33481 -0.17359,0.46531 -0.17359,0.46532 0.26084,0.68606 0.26084,0.68606 0.38472,-0.14764 0.38473,-0.14763 0.15638,0.25303 0.15638,0.25303 h 0.4915 0.4915 l 0.13345,0.33073 0.13346,0.33073 0.0209,-0.40415 0.0209,-0.40415 -0.40411,-0.57696 -0.40412,-0.57695 -0.38963,0.14951 -0.38964,0.14952 v -0.29289 -0.29289 h 0.38373 0.38373 l 0.23952,-0.42801 0.23953,-0.42801 0.72562,0.47545 0.72561,0.47544 0.50322,-0.31426 0.50321,-0.31426 v 0.28059 0.28058 l 0.8265,0.28812 0.8265,0.28812 -0.43172,0.24161 -0.43172,0.2416 -0.26436,-0.16338 -0.26436,-0.16338 -0.16456,0.42885 -0.16457,0.42885 -0.32058,-0.12302 -0.32058,-0.12302 -0.33744,0.20855 -0.33744,0.20855 -0.0354,1.48629 -0.0354,1.48629 -0.21405,4.7e-4 -0.21405,4.8e-4 0.18097,0.29283 0.18098,0.29283 0.22398,-0.35898 0.22398,-0.35897 0.47055,0.29342 0.47056,0.29342 -0.0224,0.63262 -0.0224,0.63262 -0.21158,0.87244 -0.21158,0.87245 -0.41956,-0.0808 -0.41955,-0.0808 -0.29198,-1.04068 -0.29199,-1.04069 -0.31121,-0.10374 -0.31122,-0.10373 v 0.41892 0.41892 h -0.26458 -0.26458 v -0.66146 -0.66145 h 0.29289 0.29289 l -0.14574,-0.37979 -0.14573,-0.37978 0.31586,-0.11481 0.31587,-0.11482 -0.34331,-0.58028 -0.3433,-0.58029 0.15563,-0.49035 0.15563,-0.49035 -0.30074,-0.18587 -0.30073,-0.18586 -0.37368,0.37368 -0.37367,0.37367 0.24416,1.30697 0.24417,1.30698 -0.1313,0.21245 -0.1313,0.21245 0.18024,1.06683 0.18024,1.06682 0.37054,-0.14219 0.37054,-0.14219 v 0.25628 0.25628 h -0.25778 -0.25779 l -0.40367,0.78061 -0.40367,0.78061 v 0.97004 0.97004 l -0.59531,-0.19933 -0.59532,-0.19932 -2.83674,-0.0357 -2.83674,-0.0357 -0.33826,-0.35477 -0.33826,-0.35477 0.59532,0.17986 0.59531,0.17986 v -0.4263 -0.42631 l -0.33073,0.0533 -0.33073,0.0533 -0.39688,-0.15185 -0.39687,-0.15186 -3.42071,-0.45567 -3.42072,-0.45568 -0.45876,0.56655 -0.45876,0.56654 -0.17868,1.05759 -0.17868,1.05759 h -0.49936 -0.499362 l 0.241142,-0.63426 0.24114,-0.63425 -0.15949,-0.1595 -0.159501,-0.15949 h -0.220486 -0.220486 v 0.39687 0.39688 h -0.944061 -0.943871 l 0.167951,0.52916 0.16795,0.52917 h -0.288961 -0.288962 l -0.235004,-0.59531 -0.235004,-0.59532 -0.468582,-1.05833 -0.468582,-1.05833 0.05982,-0.32875 0.05982,-0.32876 -0.867584,-0.84808 -0.867585,-0.8481 0.489024,0.18766 0.489024,0.18766 -0.161751,-0.42152 -0.16175,-0.42151 v -0.27239 -0.27239 l -0.952086,0.17861 -0.952086,0.17861 0.17553,-0.28401 0.175529,-0.28401 -0.537073,-0.68278 -0.537072,-0.68278 0.07562,0.96019 0.07562,0.96019 -0.387277,-0.0764 -0.387276,-0.0764 -0.292942,-0.52916 -0.292943,-0.52917 -0.03035,-0.0744 -0.03035,-0.0744 -0.631112,-0.15075 -0.631112,-0.15076 -0.79375,-0.11944 -0.79375,-0.11944 0.859895,0.76078 0.859896,0.76078 v 0.31146 0.31146 h -0.264583 -0.264583 l -0.0017,-0.33073 -0.0017,-0.33073 -0.481194,0.72974 -0.481194,0.72974 -0.178521,-0.17852 -0.178521,-0.17853 v -0.36839 -0.36839 l 0.298908,0.18473 0.298908,0.18474 -0.111451,-0.33435 -0.111451,-0.33436 -1.267028,-0.10889 -1.267027,-0.10889 0.09009,0.47256 0.09009,0.47256 0.592609,0.0845 0.59261,0.0846 v 0.35643 0.35642 l -0.330729,0.11038 -0.330729,0.11038 0.27215,0.77157 0.27215,0.77156 0.653891,0.004 0.653892,0.004 0.240232,0.96812 0.240233,0.96811 0.487372,0.12746 0.487371,0.12745 v 0.55393 0.55394 H 89.66851 89.425995 l -0.542853,-0.7276 -0.542853,-0.72761 -0.0084,0.46302 -0.0084,0.46302 h 0.264584 0.264583 v 0.26459 0.26458 h -0.529167 -0.529166 v -0.39688 -0.39687 l -0.595313,-0.008 -0.595312,-0.008 0.463021,-0.35148 0.46302,-0.35149 v -0.16926 -0.16927 h -0.941656 -0.941657 l 0.163522,0.26458 0.163521,0.26458 h -0.1653 -0.165301 l -0.481605,-0.25774 -0.481604,-0.25775 -0.581776,-0.98604 -0.581776,-0.98603 0.146419,-0.7321 0.14642,-0.73209 -0.425461,-0.2381 -0.42546,-0.2381 -0.624559,-1.53514 -0.62456,-1.53513 v -0.0873 -0.0874 h 0.264583 0.264584 v 0.39688 0.39687 h 0.264583 0.264583 l 0.0036,-0.19844 0.0036,-0.19843 0.159538,-0.59532 0.159537,-0.59531 h -0.54441 -0.544411 l -0.163521,0.26458 -0.163522,0.26459 h -0.235654 -0.235653 l -0.309963,-1.57551 -0.309963,-1.57552 -0.497102,-0.44987 -0.497102,-0.44987 v 0.17689 0.17689 l 0.229118,0.45943 0.229118,0.45943 0.323284,0.92604 0.323284,0.92605 0.222621,0.79375 0.222621,0.79375 1.097444,2.77812 1.097445,2.77812 0.259389,0.48376 0.25939,0.48375 -0.31217,0.37614 -0.312171,0.37614 h 0.693856 0.693855 v 0.39688 0.39687 h 0.396875 0.396875 v 0.29403 0.29403 l -0.992188,-0.18233 -0.992187,-0.18232 -0.251354,-0.244 -0.251355,-0.24399 h -0.983777 -0.983777 l -0.418514,0.1606 -0.418515,0.1606 v 0.26458 0.26458 l 0.377138,-0.14472 0.377138,-0.14472 0.916024,0.25293 0.916023,0.25292 0.131442,0.50264 0.131442,0.50263 -0.286895,0.2869 -0.286895,0.28689 h -0.485559 -0.485559 l -0.615926,-0.40357 -0.615926,-0.40357 -0.920693,-0.0346 -0.920694,-0.0346 -0.323964,0.20022 -0.323963,0.20022 -0.145342,-0.55579 -0.145342,-0.55579 h -0.577683 -0.577682 l -0.306463,-0.30646 -0.306462,-0.30646 -0.827762,-0.0493 -0.827762,-0.0492 0.133905,0.55414 0.133905,0.55415 0.196182,0.63994 0.196181,0.63994 -0.50555,-0.21266 -0.505549,-0.21265 -0.882264,-0.32149 -0.882264,-0.32149 -0.440758,-0.37038 -0.440758,-0.37038 -0.768442,-0.49595 -0.768441,-0.49594 0.16493,0.4298 0.16493,0.4298 h -0.356174 -0.356174 l -0.328619,-0.39596 -0.328619,-0.39596 -0.101236,-1.52227 -0.101236,-1.52227 -0.324273,-1.85208 -0.324273,-1.85208 -0.102816,0.92604 -0.102816,0.92604 0.305535,3.70416 0.305536,3.70417 0.124368,0.98659 0.124368,0.98658 -0.705446,0.17706 -0.705445,0.17706 0.489201,0.35771 0.4892,0.35771 h 0.760574 0.760575 l 0.511772,0.27389 0.511773,0.27389 v 0.25528 0.25527 h -0.396875 -0.396875 v -0.26458 -0.26458 H 69.273464 69.00888 v 0.52916 0.52917 h -0.343958 -0.343958 l -0.289095,-0.2891 -0.289094,-0.28909 -0.559144,0.29924 -0.559143,0.29925 -1.060906,-0.31786 -1.060905,-0.31785 0.166845,-0.55219 0.166845,-0.55219 0.498757,-0.54622 0.498756,-0.54622 v -0.71055 -0.71055 h -0.264583 -0.264583 v -0.51356 -0.51355 l 0.23039,-0.14239 0.230391,-0.14239 0.132306,-1.26228 0.132307,-1.26229 0.100324,-0.37761 0.100323,-0.37761 -1.455208,-0.28385 -1.455208,-0.28385 v -0.66146 -0.66145 H 62.65888 61.997422 v 0.30868 0.30868 l -0.198437,0.19843 -0.198438,0.19844 v 0.22049 0.22048 h 0.661458 0.661459 v 0.52917 0.52917 l -0.330729,0.0219 -0.33073,0.0219 -1.719791,0.0725 -1.719792,0.0725 -1.404714,0.16424 -1.404714,0.16424 -0.26178,0.16179 -0.261779,0.16179 0.309828,0.37332 0.309828,0.37332 h 0.65992 0.65992 l -0.152077,0.58154 -0.152077,0.58155 0.238375,0.28722 0.238376,0.28723 -0.245398,0.388 -0.245397,0.388 -0.0041,-0.5424 -0.0041,-0.54239 -0.3175,-0.3175 -0.3175,-0.3175 h -2.753515 -2.753516 l 0.160779,-0.41899 0.160779,-0.41898 -0.328547,0.10951 -0.328546,0.10952 -0.333092,-0.33309 -0.333091,-0.33309 v -0.54807 -0.54806 H 49.429617 48.90045 v 0.28899 0.289 l 0.529167,0.67273 0.529167,0.67272 v 0.20788 0.20788 l -0.79375,0.17434 -0.79375,0.17433 v 0.25612 0.25612 l 2.05052,-0.0491 2.050521,-0.0491 0.973901,0.19483 0.973901,0.19483 -0.142313,0.37086 -0.142312,0.37086 h 0.403134 0.403134 l 0.133452,-0.33073 0.133452,-0.33073 0.02089,0.55431 0.02089,0.5543 0.529167,0.47889 0.529166,0.47889 v 0.75274 0.75275 h 0.333231 0.33323 l 0.301693,-0.48309 0.301693,-0.48309 1.283306,-0.47916 1.283306,-0.47917 0.396875,-0.3095 0.396875,-0.30951 0.727604,-0.31007 0.727604,-0.31007 v -0.28587 -0.28587 l -0.276173,0.17068 -0.276174,0.17069 -0.385285,-0.31976 -0.385285,-0.31976 v 0.56157 0.56156 h -0.205782 -0.205782 l -0.436095,-0.50932 -0.436096,-0.50933 0.137173,-0.52454 0.137173,-0.52455 0.46965,-0.12282 0.469651,-0.12282 -0.03109,0.2968 -0.03109,0.29679 0.264583,0.0661 0.264583,0.0662 v -0.46302 -0.46302 l 0.507872,-0.2065 0.507872,-0.20651 0.240178,0.24018 0.240177,0.24018 0.628987,-0.62899 0.628986,-0.62899 h 0.372633 0.372632 l -0.393314,1.19472 -0.393315,1.19471 -0.420721,-0.0702 -0.42072,-0.0702 -0.09937,0.48498 -0.09937,0.48497 0.581201,-0.31105 0.5812,-0.31105 0.217638,0.22295 0.217638,0.22295 -0.611823,2.11125 -0.611823,2.11125 -0.132695,-0.52375 -0.132695,-0.52375 -0.03069,0.87551 -0.03069,0.87551 0.264583,-0.16352 0.264584,-0.16352 v 0.2996 0.2996 l -0.463021,-0.0892 -0.463021,-0.0892 v -0.32201 -0.32201 l -0.595777,-0.4173 -0.595776,-0.4173 -0.264119,0.16323 -0.26412,0.16324 v 0.22099 0.22098 l 0.767612,0.82174 0.767612,0.82173 h -0.450112 -0.450112 l -0.294446,0.29444 -0.294446,0.29445 -0.30347,-0.18756 -0.30347,-0.18755 0.45279,-0.33109 0.452789,-0.33109 -0.304665,-0.18829 -0.304665,-0.18829 -0.268899,0.16619 -0.268899,0.16618 0.139039,0.22497 0.139039,0.22497 -0.444754,0.44476 -0.444754,0.44475 -1.042457,-0.16669 -1.042456,-0.1667 -0.375574,0.3117 -0.375574,0.3117 -0.331731,-0.45367 -0.331731,-0.45367 -0.485838,0.53685 -0.485839,0.53684 0.156077,0.40673 0.156077,0.40673 h -0.402468 -0.402467 l 0.05283,-1.99612 0.05283,-1.99613 0.124199,-0.64971 0.1242,-0.6497 h 0.498322 0.498322 l -1.47e-4,-0.19844 -1.47e-4,-0.19844 h -1.256624 -1.256623 l -0.003,1.98438 -0.003,1.98437 -0.214739,0.33669 -0.21474,0.33669 0.04281,1.25081 0.04281,1.25081 -0.02351,0.33073 -0.02351,0.33073 H 52.586593 52.03941 l 0.547183,0.76845 0.547184,0.76845 v 0.13282 0.13282 l -0.595313,-0.14573 -0.595312,-0.14574 -0.286653,-0.22219 -0.286653,-0.22218 -0.558696,0.64256 -0.558696,0.64255 -0.940589,0.17646 -0.940588,0.17645 v 0.33657 0.33658 l 0.571942,0.14956 0.571943,0.14957 0.420245,-0.22028 0.420245,-0.22027 1.157218,-0.1918 1.157218,-0.19181 0.165699,0.26552 0.165698,0.26551 1.5875,0.094 1.5875,0.094 v -0.52916 -0.52917 h -0.79375 -0.79375 l 0.08722,-1.45521 0.08722,-1.45521 0.426374,-0.33072 0.426375,-0.33073 h 0.341168 0.341167 l 1.460346,0.93417 1.460346,0.93417 v 0.65333 0.65333 h -0.873319 -0.873319 l -0.5934,1.22139 -0.5934,1.2214 -0.716094,-0.14454 -0.716093,-0.14453 -0.396875,-0.10746 -0.396875,-0.10745 0.198438,0.11097 0.198437,0.11098 v 0.40568 0.40569 l -0.595312,-0.15954 -0.595313,-0.15954 -0.330729,-0.004 -0.330729,-0.004 v -0.66146 -0.66146 l -0.727604,0.0186 -0.727604,0.0186 -0.509822,0.19972 -0.509822,0.19972 0.443676,0.17025 0.443676,0.17025 v 0.26634 0.26634 l -0.609237,-0.23163 -0.609236,-0.23163 -0.451192,0.2525 -0.451193,0.2525 -0.272613,-0.16849 -0.272614,-0.16848 0.04703,1.86352 0.04703,1.86351 0.516907,-0.27664 0.516908,-0.27664 0.636815,0.15983 0.636815,0.15983 v 0.25954 0.25955 h -0.396875 -0.396875 v 0.23627 0.23628 l 0.418514,0.1606 0.418515,0.1606 h 0.655433 0.655434 l -0.163521,0.26458 -0.163522,0.26458 h -0.513552 -0.513551 v 0.26459 0.26458 h 0.30559 0.30559 l -0.406587,0.46302 -0.406587,0.46302 -0.180759,0.59324 -0.180759,0.59324 49.09738,0.003 49.097384,0.003 z m -80.69792,17.63276 0.132291,-0.14606 4.454402,-1.89701 4.454401,-1.897 0.146356,0.14635 0.146355,0.14636 -0.632007,0.24273 -0.632007,0.24274 -1.455208,0.6601 -1.455208,0.66011 -1.852084,0.80374 -1.852083,0.80374 -0.79375,0.19013 -0.79375,0.19012 z m 11.932211,-5.04952 0.158253,-0.17836 1.673491,-0.65584 1.673491,-0.65583 0.104742,0.10474 0.104741,0.10474 -1.407319,0.53222 -1.407319,0.53222 -0.529167,0.19724 -0.529166,0.19723 z m 20.346955,-1.64673 v -0.089 l 1.203294,-0.70517 1.20329,-0.70518 0.88486,0.1436 0.88486,0.14359 0.56508,-0.3958 0.56507,-0.39579 0.51297,0.61549 0.51297,0.6155 0.009,-0.34052 0.009,-0.34053 1.20356,0.14448 1.20355,0.14447 0.53987,-0.28893 0.53986,-0.28892 -0.0999,0.48497 -0.0999,0.48498 -0.50803,-0.0459 -0.50803,-0.0459 -0.46619,0.24949 -0.46618,0.2495 -1.39689,0.15261 -1.3969,0.15261 -2.4474,0.0747 -2.447395,0.0747 z m -39.85651,-0.51522 -0.492448,-0.373 -0.463021,-0.008 -0.463021,-0.008 v -0.3689 -0.36889 l 0.767612,-0.82173 0.767612,-0.82173 1.018326,-0.028 1.018325,-0.028 0.708686,0.046 0.708685,0.046 0.29944,-0.55951 0.29944,-0.55951 1.306927,0.0785 1.306928,0.0785 5.1e-5,0.19844 5.2e-5,0.19844 h 0.321883 0.321883 l 1.135273,-0.43357 1.135272,-0.43356 -0.298928,-0.36019 -0.298927,-0.36018 h 0.429272 0.429272 v 0.23372 0.23373 l 0.595312,0.15902 0.595313,0.15902 0.264583,-0.3266 0.264583,-0.3266 0.572271,-0.0185 0.57227,-0.0185 0.10951,0.74613 0.10951,0.74614 h -0.756978 -0.756977 l 0.09271,0.69227 0.09271,0.69226 0.622206,0.333 0.622207,0.33299 -0.556176,0.29766 -0.556176,0.29765 H 70.80489 69.655743 l -0.521892,-0.35724 -0.521893,-0.35724 -0.992187,-0.15529 -0.992188,-0.15529 v 0.39917 0.39918 l -0.595312,-0.0769 -0.595313,-0.0769 -0.334259,0.20808 -0.334259,0.20807 -0.856366,0.0187 -0.856366,0.0187 -1.227343,0.47723 -1.227344,0.47723 z m 38.044101,-0.6545 0.276456,-0.79304 0.216212,0.13363 0.216211,0.13362 0.121817,-0.33237 0.121817,-0.33238 0.327519,0.30767 0.327519,0.30768 -0.178932,0.28952 -0.178932,0.28952 -0.763072,0.3946 -0.763071,0.39459 z m -18.560508,-0.52908 -0.396875,-0.25648 -1.389062,-0.004 -1.389063,-0.004 v -0.78544 -0.78545 l 0.367637,0.14108 0.367636,0.14107 -0.133912,0.51208 -0.133911,0.51208 h 0.527628 0.527629 l 0.294684,-0.35507 0.294685,-0.35508 -0.196142,-0.20799 -0.196142,-0.208 1.190625,0.1611 1.190625,0.16109 1.719792,0.0423 1.719791,0.0423 0.220421,0.12432 0.22042,0.12431 -0.824867,0.50164 -0.824868,0.50163 -1.015968,-0.16246 -1.015969,-0.16246 -0.181137,0.29308 -0.181136,0.29309 -0.182823,-0.004 -0.182823,-0.004 z m 31.290561,-2.64584 0.0833,-0.39687 0.75539,0.055 0.75539,0.055 0.47496,-0.25419 0.47495,-0.25419 0.17062,0.27606 0.17061,0.27606 0.44076,-0.13266 0.44075,-0.13267 0.7441,-0.12815 0.74411,-0.12815 -0.0827,0.5419 -0.0826,0.5419 -2.58648,0.0389 -2.58648,0.0389 z m -30.610712,-1.85208 -0.340637,-0.39688 -0.135009,-0.55773 -0.135008,-0.55773 0.237805,-0.42493 0.237805,-0.42494 0.657527,0.24999 0.657527,0.24999 1.704161,-0.15392 1.704161,-0.15392 0.165963,0.66125 0.165964,0.66125 -0.08807,0.59748 -0.08807,0.59748 -2.201737,0.0247 -2.201736,0.0247 z m 37.618592,-2.04967 -3.10885,-0.0838 v -0.50161 -0.50161 l 2.57968,0.0797 2.57969,0.0797 0.7276,0.0334 0.72761,0.0334 v 0.52917 0.52917 l -0.19844,-0.0569 -0.19844,-0.0569 z m 18.06186,-8.5e-4 0.004,-0.19844 0.24333,-0.38465 0.24332,-0.38464 0.68372,0.36591 0.68371,0.36591 -0.33578,0.21312 -0.33577,0.21312 -0.59532,0.004 -0.59531,0.004 z m -63.128543,-1.42513 -0.104972,-0.16836 0.55171,-0.14427 0.55171,-0.14428 0.371356,0.14251 0.371355,0.1425 v 0.1983 0.1983 l -0.818093,-0.0282 -0.818094,-0.0282 z m 5.445326,-0.29249 0.661458,-0.31826 0.16693,-0.23654 0.166929,-0.23654 0.46236,0.25875 0.46236,0.25875 -0.232415,0.13416 -0.232414,0.13415 -1.058333,0.16189 -1.058334,0.16189 z m -2.861702,-1.15419 0.102385,-0.50163 0.784346,0.0841 0.784346,0.0841 0.251354,0.24663 0.251354,0.24662 h -0.692735 -0.692736 l -0.445349,0.1709 -0.44535,0.17089 z m 8.28566,0.15983 0.163522,-0.26458 0.579697,0.004 0.579698,0.004 0.396875,0.25648 0.396875,0.25648 -1.140094,0.004 -1.140094,0.004 z m -8.513411,-1.65365 -0.535861,-0.59531 -0.170958,-0.48268 -0.170958,-0.48268 0.36984,-0.36984 0.36984,-0.36984 0.252644,0.32336 0.252644,0.32335 0.142418,0.58262 0.142419,0.58263 -0.302642,0.10195 -0.302641,0.10195 0.363126,0.4399 0.363126,0.43991 h -0.118568 -0.118568 z m 45.87991,-0.12481 0.85399,-0.10627 0.99809,0.10414 0.99809,0.10413 -1.85208,0.002 -1.85209,0.002 z m 7.37431,-0.79705 -0.15106,-0.15106 -0.79748,0.0227 -0.79747,0.0227 v -0.34869 -0.34869 l -1.52136,-0.21634 -1.52135,-0.21634 0.7276,-0.0963 0.72761,-0.0963 v -0.3793 -0.3793 h 2.24895 2.24896 v 0.42556 0.42556 l 0.66146,-0.16602 0.66146,-0.16602 -0.006,0.20348 -0.006,0.20348 -0.45714,0.58241 -0.45714,0.58241 -0.7051,0.1236 -0.70511,0.12359 z m -11.00643,-0.62368 0.39687,-0.28068 -0.33073,-0.1342 -0.33072,-0.13419 v -1.03629 -1.03628 h -0.26459 -0.26458 v -0.26963 -0.26962 l 0.69962,0.17559 0.69961,0.17559 -0.12598,-0.65901 -0.12597,-0.65901 h 1.04816 1.04817 l 0.51949,-0.63602 0.51949,-0.63602 -0.14342,0.44948 -0.14342,0.44947 0.48827,0.15497 0.48826,0.15497 0.35813,-0.0753 0.35813,-0.0753 0.18405,-0.25692 0.18405,-0.25692 0.19357,0.19357 0.19357,0.19357 -0.50991,0.51367 -0.50991,0.51367 -0.35116,0.42028 -0.35115,0.42028 -0.77676,0.15535 -0.77676,0.15535 -0.16015,0.6381 -0.16015,0.6381 -0.85358,0.65106 -0.85357,0.65105 -0.37191,-0.004 -0.3719,-0.004 z m -31.653614,-0.6389 0.757847,-0.39524 h 0.07374 0.07374 l 0.152296,0.39687 0.152295,0.39688 -0.983884,-0.002 -0.983883,-0.002 z m -1.80255,-0.75631 -0.67509,-0.62566 v -0.27208 -0.27208 l 0.418515,-0.1606 0.418514,-0.1606 h 0.539924 0.539924 l -0.308373,0.37157 -0.308373,0.37157 0.172368,0.68676 0.172367,0.68677 h -0.147343 -0.147343 z m 47.665164,-0.0441 -0.47537,-0.65315 h -0.64911 -0.6491 v -0.39687 -0.39688 l -1.12448,-0.0328 -1.12448,-0.0328 -1.45521,0.0608 -1.45521,0.0608 -0.13229,0.19968 -0.13229,0.19967 -0.86767,0.44461 -0.86766,0.4446 -0.28061,-0.17342 -0.28061,-0.17343 1.37945,-1.29509 1.37945,-1.2951 3.20841,0.16361 3.2084,0.16362 0.39688,0.48162 0.39687,0.48162 1.25677,-0.14797 1.25678,-0.14798 v -0.33416 -0.33416 l -0.39688,-0.15229 -0.39687,-0.1523 v -1.03719 -1.03719 l -0.92605,-0.17373 -0.92604,-0.17373 v -0.36766 -0.36766 l 0.24849,-0.65356 0.24848,-0.65356 0.14266,-1.21299 0.14265,-1.21298 0.17039,-0.67887 0.17038,-0.67887 -0.60764,-0.64681 -0.60765,-0.64681 h 0.15951 0.15952 l 0.41374,0.41375 0.41375,0.41374 0.26661,-0.16477 0.26661,-0.16478 v -0.47706 -0.47706 l -0.99219,-1.23142 -0.99218,-1.23142 -4.55642,0.13122 -4.55642,0.13123 -0.38368,-0.14723 -0.38367,-0.14723 0.27527,-0.78965 0.27527,-0.78965 0.36535,0.1402 0.36534,0.14019 v -0.7723 -0.7723 l -0.46302,-0.27416 -0.46302,-0.27417 1.98437,0.1509 1.98438,0.1509 2.11666,0.24353 2.11667,0.24352 5.74285,0.17293 5.74285,0.17293 0.96099,1.55692 0.96099,1.55692 -0.40265,0.61451 -0.40264,0.61451 -1.18901,0.29939 -1.189,0.2994 -0.30377,1.52232 -0.30377,1.52232 -0.23897,0.92604 -0.23896,0.92604 -0.99758,1.42741 -0.99758,1.4274 -0.39687,0.59071 -0.39688,0.59071 -0.52007,0.82615 -0.52006,0.82616 h -0.33983 -0.33983 v 0.49677 0.49677 l -0.36598,0.30374 -0.36597,0.30373 -0.14701,-0.38309 -0.147,-0.38309 -0.54536,0.14261 -0.54535,0.14261 v 0.89519 0.89518 l -0.33073,-0.008 -0.33073,-0.008 z m -20.90095,0.10257 -0.46293,-0.25907 0.15347,-0.24833 0.15347,-0.24832 h 0.35295 0.35296 l 0.14904,0.3884 0.14905,0.38841 -0.19254,0.11899 -0.19253,0.11899 z m 7.68414,-4.4771 0.59531,-0.23031 v -0.28242 -0.28242 l 0.53463,0.28613 0.53464,0.28612 0.32526,-0.18334 0.32526,-0.18334 -0.30771,0.33329 -0.30771,0.3333 -1.1475,0.0766 -1.1475,0.0767 z m 21.76198,-1.96718 v -0.92604 h 0.23627 0.23628 l 0.1425,0.37136 0.1425,0.37135 -0.14505,0.55469 -0.14506,0.55468 h -0.23372 -0.23372 z m 1.62427,-0.62756 -0.36011,-0.23373 0.95993,-0.11206 0.95993,-0.11207 -0.0914,0.27813 -0.0914,0.27813 -0.50844,0.0677 -0.50844,0.0677 z m -17.63157,-0.56306 -0.16352,-0.26459 h 0.79375 0.79375 l 0.16352,0.26459 0.16353,0.26458 h -0.79375 -0.79375 z m 21.74545,-2.68442 -0.47956,-0.52366 0.2433,-0.71106 0.24329,-0.71107 0.4869,1.05833 0.48689,1.05834 0.10214,0.19843 0.10215,0.19844 -0.35278,-0.022 -0.35278,-0.0221 z m 0.92031,-2.64393 0.0884,-0.62478 0.26458,0.0661 0.26459,0.0661 v 0.44097 0.44098 l -0.353,0.11766 -0.35299,0.11766 z m -28.61888,-3.36839 v -0.52588 l 0.42837,-0.42838 0.42838,-0.42837 0.10819,0.1082 0.1082,0.10819 -0.25567,0.67246 -0.25566,0.67245 -0.28091,0.1736 -0.2809,0.17361 z m 27.55203,-0.36524 -0.54576,-0.8599 0.27835,-0.0959 0.27835,-0.0959 0.20727,0.2282 0.20727,0.22821 0.17149,0.7276 0.1715,0.72761 h -0.11135 -0.11135 z m 1.85226,-0.23985 -0.3413,-0.54651 -0.20448,-1.29354 -0.20448,-1.29354 h 0.17207 0.17207 l 0.41797,1.78594 0.41796,1.78593 -0.0443,0.0541 -0.0442,0.0541 z m -63.002326,-4.52265 0.0041,-0.33073 0.260538,-0.39688 0.260539,-0.39687 0.159255,0.58044 0.159256,0.58045 0.568342,0.11113 0.568342,0.11112 -0.992188,0.036 -0.992187,0.036 z m 0.114494,-3.34309 -0.118545,-0.11854 v -0.61737 -0.61736 l -0.330729,-0.0168 -0.33073,-0.0168 0.661459,-0.27625 0.661458,-0.27625 1.719792,-0.0579 1.719791,-0.0579 0.359361,0.27483 0.35936,0.27483 0.336952,-0.46081 0.336953,-0.46081 0.154143,0.40169 0.154144,0.40169 0.638799,-0.24287 0.6388,-0.24287 0.6001,0.42033 0.6001,0.42032 0.291894,-0.39741 0.291894,-0.39742 0.992188,-0.32676 0.992187,-0.32677 v -0.50865 -0.50864 h 0.396875 0.396875 v 0.36477 0.36478 l 0.839294,0.34764 0.839295,0.34765 -0.310128,0.10338 -0.310127,0.10337 v 0.50712 0.50712 h 0.560025 0.560025 l -0.13718,-0.52458 -0.13718,-0.52457 0.503197,0.2693 0.503196,0.2693 v 0.25527 0.25528 h -0.25628 -0.256279 l 0.160624,0.41858 0.160625,0.41858 -1.161116,-0.17271 -1.161116,-0.17271 -1.719791,-0.0887 -1.719792,-0.0887 -2.606158,-0.11766 -2.606158,-0.11765 -0.43655,0.45973 -0.436551,0.45974 -1.138225,0.1044 -1.138225,0.1044 z m 24.672122,-0.28761 -1.00621,-0.19316 -0.68197,0.13036 -0.68196,0.13037 0.12046,-0.36138 0.12045,-0.36137 0.82576,-0.16889 0.82576,-0.16888 0.13912,0.36255 0.13912,0.36255 0.78708,-0.0682 0.78707,-0.0682 0.034,0.25797 0.034,0.25797 -0.21828,0.0407 -0.21828,0.0407 z m -4.98066,-0.35832 0.36312,-0.44275 h 0.61345 0.61345 l 0.16352,0.26458 0.16352,0.26458 -0.47864,0.004 -0.47863,0.004 -0.66146,0.17457 -0.66146,0.17456 z m 6.38128,-12.88278 -0.28567,-0.53377 0.40865,-0.58343 0.40865,-0.58343 v -0.46199 -0.462 l 0.46302,0.17084 0.46302,0.17083 0.19439,0.28389 0.19439,0.28388 0.004,0.48085 0.004,0.48085 -0.51448,-0.16329 -0.51447,-0.16329 0.23142,0.80692 0.23142,0.80692 h -0.50139 -0.50139 z m 5.91247,0.31788 -0.28243,-0.18098 -0.18578,-0.59531 -0.18579,-0.59531 h 0.26352 0.26351 l 0.41578,0.41577 0.41577,0.41577 v 0.23007 0.23007 l -0.21107,0.13045 -0.21107,0.13045 z m -3.00163,-1.32006 -0.61132,-0.49501 0.19267,-0.31175 0.19267,-0.31175 0.29127,0.18001 0.29126,0.18001 -0.16055,-0.41838 -0.16054,-0.41838 0.33301,-0.12779 0.33301,-0.12779 0.27835,0.44572 0.27835,0.44571 -0.0327,0.63045 -0.0328,0.63045 -0.29068,0.0968 -0.29067,0.0968 z m -23.806409,-1.30831 0.0041,-0.19844 0.206534,-0.32512 0.206534,-0.32512 0.448283,0.52356 0.448284,0.52355 h -0.658869 -0.658869 z m 10.579279,-0.97014 v -0.37483 l -0.33073,-0.1342 -0.330726,-0.13419 0.396876,-0.27625 0.39687,-0.27625 0.10582,0.32225 0.10582,0.32225 0.29106,0.1924 0.29105,0.1924 0.5271,-0.16442 0.52709,-0.16442 -0.36105,0.43504 -0.36106,0.43504 h -0.62906 -0.62906 z m 2.29582,-0.31334 0.16254,-0.42358 -0.34604,-0.21386 -0.34605,-0.21387 0.43205,-0.43206 0.43205,-0.43205 0.66919,0.43847 0.6692,0.43847 v 0.34057 0.34056 l -0.83324,0.29046 -0.83323,0.29047 h -0.0845 -0.0845 z m -15.213243,-4.8909 -0.311741,-0.49917 0.0084,-0.59891 0.0084,-0.5989 0.379437,0.52917 0.379436,0.52917 0.273607,0.31956 0.273608,0.31956 v 0.11515 0.11515 l -0.349718,0.1342 -0.349717,0.1342 z m -34.707574,-3.792 v -0.37524 l -0.160599,-0.41851 -0.160599,-0.41852 h 0.425182 0.425183 v 0.79375 0.79375 h -0.264583 -0.264584 z m 43.852452,-8.03845 -0.728066,-0.44177 0.0879,-0.26863 0.0879,-0.26863 0.708704,-0.0839 0.708704,-0.0839 0.152928,0.39853 0.152928,0.39852 -0.221464,0.39573 -0.221464,0.39574 z m -39.861501,68.87097 0.0057,-0.26458 -0.426305,-0.0885 -0.426306,-0.0885 -0.39819,0.1528 -0.39819,0.1528 0.174048,0.28162 0.174048,0.28161 0.644698,-0.0813 0.644698,-0.0813 z m -6.919937,-1.62347 0.841326,-0.16827 -0.138491,-0.3609 -0.138491,-0.3609 h 0.445268 0.445267 l -0.387426,-0.38461 -0.387425,-0.38462 -1.124479,-0.17837 -1.124479,-0.17837 v 0.91576 0.91576 l 0.176388,0.17639 0.176389,0.17639 h 0.187414 0.187413 z m 28.421393,-11.29391 -0.03988,-0.48172 1.032072,0.17437 1.032071,0.17437 1.058334,-0.17881 1.058333,-0.1788 v -0.24133 -0.24132 h -3.307292 -3.307291 v 0.26458 0.26458 h 0.76898 0.768979 l -0.144458,0.55241 -0.144458,0.55241 0.632249,-0.0895 0.632249,-0.0895 z m -23.111157,-0.0252 v -0.37483 l -0.216581,-0.0882 -0.216581,-0.0882 0.114574,-1.15063 0.114575,-1.15064 0.961902,-0.41775 0.961903,-0.41776 1.455208,-0.30461 1.455208,-0.3046 v -0.24367 -0.24367 l -1.259469,-0.0808 -1.25947,-0.0807 -0.1579,0.41148 -0.1579,0.41148 h -1.28216 -1.28216 l -0.673908,0.30706 -0.673907,0.30705 v 0.33012 0.33013 l -1.190625,1.22506 -1.190625,1.22506 v 0.12214 0.12214 h 0.396875 0.396875 v -0.26459 -0.26458 h 0.77592 0.77592 l 0.167951,0.52917 0.167951,0.52916 h 0.908212 0.908212 z m 44.00176,-1.22898 0.142645,-0.54548 0.473935,0.0824 0.473937,0.0825 0.0953,-0.46382 0.0953,-0.46382 -0.36427,-0.13979 -0.364274,-0.13978 -0.9782,0.40872 -0.9782,0.40871 v 0.34041 0.34041 l 0.3175,0.3175 0.3175,0.3175 h 0.3131 0.313099 z M 74.82966,209.48493 v -0.32241 l -1.380025,-1.39738 -1.380024,-1.39738 h 0.349998 0.349999 l -0.16655,-0.43403 -0.16655,-0.43402 1.706774,0.17487 1.706775,0.17486 0.171138,-0.27691 0.171138,-0.2769 0.707725,0.073 0.707726,0.073 v -0.52917 -0.52917 l -0.743603,-0.0853 -0.743604,-0.0853 -0.370038,0.30711 -0.370038,0.3071 -0.870733,-0.18681 -0.870733,-0.1868 -0.226686,-0.13426 -0.226685,-0.13425 0.358977,-0.24884 0.358977,-0.24884 -0.573046,0.16039 -0.573046,0.16038 -0.175307,-0.28365 -0.175306,-0.28365 1.738445,0.0745 1.738445,0.0744 0.0021,0.19844 0.0021,0.19843 h 0.354405 0.354406 l 0.29724,-0.65237 0.297241,-0.65237 -0.405962,-0.40596 -0.405961,-0.40596 -0.31183,-0.0305 -0.311831,-0.0305 -0.396875,-0.0356 -0.396875,-0.0356 0.02646,-0.33073 0.02646,-0.33073 0.03969,-0.23373 0.03969,-0.23372 0.555788,-0.14534 0.555788,-0.14535 -0.208013,-0.33657 -0.208012,-0.33657 -0.08097,-0.73957 -0.08096,-0.73957 h 0.373008 0.373008 l 0.418515,0.1606 0.418514,0.1606 v 0.36857 0.36856 h 0.570174 0.570174 l -0.449305,0.49648 -0.449304,0.49648 0.429937,0.16498 0.429937,0.16498 h 0.507527 0.507527 v -0.23211 -0.23227 l -0.416477,-0.99677 -0.416477,-0.99677 0.285484,-0.17644 0.285484,-0.17644 -0.234006,-1.25257 -0.234006,-1.25258 -0.146565,-0.14656 -0.146564,-0.14657 -0.308842,0.19088 -0.308841,0.19087 0.152332,0.76166 0.152332,0.76166 h -0.143071 -0.143071 l -0.511773,-0.27389 -0.511772,-0.27389 -0.0046,-0.45371 -0.0046,-0.45371 -0.628034,-0.59532 -0.628034,-0.59531 h -0.434032 -0.434033 l -0.155004,0.40394 -0.155005,0.40393 0.62633,0.59481 0.626329,0.59481 0.378085,0.47449 0.378085,0.47449 -1.56871,-0.035 -1.56871,-0.035 -2.872589,0.18524 -2.872589,0.18525 -0.232213,-0.36667 -0.232214,-0.36667 -0.0041,-0.56324 -0.0041,-0.56324 1.25677,0.26574 1.256771,0.26575 0.169513,0.26631 0.169512,0.2663 0.136625,-0.49797 0.136625,-0.49798 0.159268,-0.71702 0.159267,-0.71702 -0.514156,-0.27517 -0.514157,-0.27517 h -0.795529 -0.79553 l -0.156379,0.25303 -0.15638,0.25303 -0.388402,-0.14905 -0.388402,-0.14904 v -1.16225 -1.16232 h 0.537471 0.53747 l 0.142287,-0.37079 0.142286,-0.37079 -0.907335,-1.28286 -0.907336,-1.28285 -0.332147,-2.50085 -0.332148,-2.50085 0.758164,-0.61306 0.758163,-0.61306 1.249949,-0.85484 1.249948,-0.85484 0.0068,-0.33903 0.0068,-0.33904 -0.330729,-0.1048 -0.330729,-0.10481 -1.521514,-0.17053 -1.521514,-0.17053 -0.396715,-0.39672 -0.396716,-0.39671 v -0.63426 -0.63426 l 0.394645,0.15144 0.394645,0.15144 0.146061,-0.38063 0.146061,-0.38063 1.188511,0.18038 1.188511,0.18037 0.148785,-0.24074 0.148786,-0.24074 -0.48894,-0.57605 -0.48894,-0.57605 -0.45163,-0.34035 -0.45163,-0.34034 -0.974442,-0.91902 -0.974442,-0.91902 h -0.218461 -0.21846 l -0.175491,-1.32291 -0.175492,-1.32292 h -0.199638 -0.199638 l -0.113318,0.46302 -0.113317,0.46302 0.189757,2.24896 0.189757,2.24896 -0.135476,0.95693 -0.135476,0.95693 0.303017,0.56619 0.303018,0.5662 -0.671715,0.67171 -0.671714,0.67172 v 0.12026 0.12027 l 0.324447,-0.0661 0.324448,-0.0661 0.09083,0.59531 0.09083,0.59531 h 0.407156 0.407156 l -0.20068,0.72761 -0.200679,0.7276 -0.01699,0.46302 -0.01699,0.46302 h -0.120907 -0.120908 l -0.483854,-0.43788 -0.483854,-0.43788 v 0.30559 0.30559 h -0.396875 -0.396875 v -0.38373 -0.38373 l -0.463021,-0.26968 -0.463021,-0.26969 0.216454,-0.008 0.216454,-0.008 -0.5652,-0.79375 -0.565199,-0.79375 h -0.378859 -0.378858 v 0.6468 0.6468 l 0.910988,1.99904 0.910989,1.99903 h 0.359011 0.359012 l 0.3175,-0.3175 0.3175,-0.3175 v -0.62744 -0.62744 l 0.396875,0.39687 0.396875,0.39688 v 0.41577 0.41578 h 0.264583 0.264583 v -0.39688 -0.39687 h 0.233725 0.233725 l 0.159537,0.59531 0.159538,0.59531 0.0036,0.62462 0.0036,0.62463 -0.510385,-0.62463 -0.510386,-0.62462 -0.253627,0.26458 -0.253626,0.26459 -0.179859,0.59531 -0.179859,0.59531 h 0.767482 0.767483 l 0.163789,0.16379 0.16379,0.16379 -0.364617,0.36462 -0.364617,0.36462 -0.416534,-0.15984 -0.416534,-0.15984 v 1.49182 1.49182 l 0.390374,0.1498 0.390373,0.1498 0.403377,0.80858 0.403376,0.80859 v 0.6052 0.60519 l 0.264584,0.16352 0.264583,0.16352 0.02658,-0.74322 0.02658,-0.74322 0.202444,0.92605 0.202444,0.92604 0.307286,2.24895 0.307286,2.24896 0.08112,0.79375 0.08112,0.79375 0.507048,0.019 0.507047,0.0191 2.579611,-0.19645 2.579611,-0.19645 0.859973,-0.18423 0.859972,-0.18424 -0.220486,0.22934 -0.220486,0.22935 -0.176389,0.009 -0.176389,0.009 -0.552537,0.30777 -0.552536,0.30777 -0.52428,-0.13711 -0.524279,-0.1371 -0.348641,0.42009 -0.34864,0.42008 -0.02975,0.98738 -0.02975,0.98737 0.73209,0.0841 0.73209,0.0842 -0.152392,0.24657 -0.152393,0.24658 h -0.630228 -0.630229 l -0.15739,0.25466 -0.157391,0.25467 0.6754,1.33283 0.675399,1.33284 0.193981,2.1e-4 0.19398,2e-4 1.04025,0.92584 1.04025,0.92583 h 0.216521 0.216521 z m -0.463021,-6.6151 -0.595313,-0.2871 v -0.22415 -0.22416 l 0.330729,0.004 0.33073,0.004 0.57701,0.15475 0.57701,0.15476 0.14229,0.3708 0.14229,0.3708 -0.454717,-0.0179 -0.454717,-0.0179 z m 12.508725,6.39675 0.170685,-0.27617 -0.26201,-0.31914 -0.262009,-0.31914 -0.09166,-0.66146 -0.09166,-0.66145 -0.922119,0.0756 -0.922118,0.0756 -0.216224,0.21622 -0.216223,0.21622 0.569325,0.96493 0.569325,0.96494 h 0.752001 0.752001 z m -27.557519,-0.52685 0.230894,-0.21439 0.63012,0.28711 0.63012,0.2871 0.153222,-0.15322 0.153223,-0.15323 -0.551216,-0.55121 -0.551215,-0.55122 h -0.498308 -0.498308 l -0.13838,0.52917 -0.13838,0.52917 h -0.271524 -0.271524 l -0.172727,-0.54422 -0.172726,-0.54421 -0.440416,0.0839 -0.440415,0.0839 -0.04885,0.65876 -0.04885,0.65875 0.1344,-0.46302 0.1344,-0.46302 h 0.377475 0.377474 v 0.547 0.54699 l 0.595313,-0.17986 0.595312,-0.17986 z m 21.332648,0.009 0.529166,-0.52917 v -0.52917 -0.52916 h 0.418924 0.418924 l -0.109089,-0.33073 -0.109088,-0.33073 -0.597823,-0.30065 -0.597822,-0.30065 0.287987,-0.17799 0.287987,-0.17798 v -0.51355 -0.51356 h -0.629061 -0.629062 l -0.329377,0.39688 -0.329377,0.39687 h -0.364478 -0.364478 v 0.39688 0.39687 h 0.596871 0.59687 l 0.354903,0.80178 0.354903,0.80179 -0.285293,0.34375 -0.285293,0.34376 -0.798772,-0.11724 -0.798772,-0.11723 v 0.28705 0.28705 l 0.859896,0.24828 0.859895,0.24829 0.06615,0.0239 0.06615,0.0239 z m 21.695837,-0.60855 v -0.34395 l -0.3175,-0.3175 -0.3175,-0.3175 h -0.21167 -0.21167 v 0.34396 0.34395 l 0.3175,0.3175 0.3175,0.3175 h 0.21167 0.21167 z m -39.952087,-1.45031 v -0.44014 l 0.411878,0.58804 0.411878,0.58804 h 0.362493 0.362494 l 0.405976,-0.8138 0.405975,-0.81379 -0.318381,-0.50981 -0.318381,-0.50981 -0.266653,0.0967 -0.266654,0.0967 -0.693033,-0.34949 -0.693032,-0.34949 0.128564,-0.67254 0.128565,-0.67255 h 1.177355 1.177354 l -0.08372,-0.7276 -0.08372,-0.7276 -1.224685,-0.0793 -1.224686,-0.0793 -0.363853,0.34391 -0.363853,0.34392 -0.461982,0.36312 -0.461982,0.36313 -0.330729,-0.2646 -0.33073,-0.2646 -0.595312,-0.1825 -0.595313,-0.1825 v 0.37427 0.37427 l 0.595313,0.28711 0.595312,0.28711 -0.648229,0.0179 -0.648229,0.0179 0.251354,0.23262 0.251354,0.23262 1.058334,0.35141 1.058333,0.35141 0.242535,0.0113 0.242534,0.0113 0.08389,0.26458 0.08389,0.26458 -0.249265,0.39467 -0.249264,0.39466 -0.328518,-0.32852 -0.328517,-0.32852 h -0.211667 -0.211667 l 0.01019,0.59532 0.01019,0.59531 0.849704,0.55264 0.849704,0.55264 0.198438,-0.10524 0.198437,-0.10523 z m 35.407575,-0.14668 0.0857,-0.4419 -0.443132,-0.17004 -0.443133,-0.17005 -0.222745,0.36041 -0.222746,0.36041 0.289159,0.34842 0.289158,0.34841 0.291019,-0.0969 0.29102,-0.0969 z m -12.286772,-0.72203 0.234346,-0.21342 -0.432783,-0.43278 -0.432783,-0.43278 v -0.37798 -0.37797 h -0.396875 -0.396875 v -0.79375 -0.79375 h -0.246754 -0.246753 l -0.176245,0.55529 -0.176244,0.5553 0.184177,1.23064 0.184178,1.23064 0.122744,0.19941 0.122744,0.19941 0.711389,-0.16742 0.711389,-0.16743 z m 15.740344,0.0429 0.36426,-0.23073 -0.32451,-1.35272 -0.32451,-1.35272 h -0.20734 -0.20733 l -0.15208,0.58155 -0.15208,0.58154 0.31966,0.39038 0.31966,0.39038 -0.59532,-0.1534 -0.595308,-0.15341 v 0.23982 0.23981 h 0.560028 0.56002 l -0.13838,0.52917 -0.13838,0.52916 0.17367,-0.004 0.17367,-0.004 z m -43.745059,-0.8371 0.1744,-0.28219 -0.138184,-0.13819 -0.138184,-0.13818 -1.121055,-0.25188 -1.121055,-0.25189 -0.288609,0.29319 -0.288609,0.2932 0.51359,0.37906 0.513591,0.37906 h 0.859857 0.859857 z m -6.538393,-1.01456 0.08707,-0.59383 -0.147211,-0.38362 -0.14721,-0.38363 -0.469026,0.24211 -0.469025,0.24211 -0.754528,0.29964 -0.754528,0.29965 0.310869,0.37458 0.310869,0.37457 0.708243,0.10626 0.708242,0.10626 0.264583,-0.0451 0.264583,-0.0451 z m 4.698244,-2.6051 -0.169805,-0.1698 -0.553925,0.55392 -0.553926,0.55393 0.185494,0.30014 0.185494,0.30013 0.538237,-0.68426 0.538236,-0.68425 z m 44.382188,0.0847 0.44187,0.16956 -9.9e-4,-0.62362 -9.9e-4,-0.62362 -0.537066,-0.88091 -0.537071,-0.88092 0.35589,-0.71339 0.355887,-0.7134 -0.477893,-0.78694 -0.477895,-0.78694 -0.0014,-0.4474 -0.0014,-0.44741 -0.307433,-0.19 -0.307434,-0.19001 -0.486316,0.60058 -0.486317,0.60057 v 0.49986 0.49985 h 0.652541 0.652541 l -0.776206,0.8599 -0.776206,0.8599 -0.670085,0.67142 -0.670085,0.67142 v 0.32077 0.32076 h 0.268173 0.268174 l 0.499622,-0.31202 0.499622,-0.31202 0.678907,0.44484 0.678907,0.44484 -0.16234,0.42305 -0.162341,0.42305 0.362301,0.22391 0.3623,0.22392 0.160428,-0.25958 0.160428,-0.25958 z m -47.976877,-0.54851 v -0.39688 h 0.364478 0.364479 l 0.309827,-0.37331 0.309828,-0.37332 -0.275213,-0.1701 -0.275213,-0.17009 -0.663676,0.66368 -0.663676,0.66368 v 0.27661 0.2766 h 0.264583 0.264583 z m 8.036719,-0.0788 0.130448,-0.21107 -0.180979,-0.25734 -0.18098,-0.25733 -0.74743,-0.32871 -0.747431,-0.3287 -0.244757,0.15126 -0.244757,0.15127 v 0.64585 0.64584 h 1.042719 1.042718 z m 22.755679,-0.78112 -0.173933,-0.7276 -0.253605,-0.49351 -0.253606,-0.4935 -0.309403,-1.06865 -0.309403,-1.06865 -0.724027,-0.54056 -0.724027,-0.54057 -0.288375,0.28838 -0.288375,0.28837 0.289095,0.54018 0.289094,0.54018 v 0.47622 0.47622 l 0.724128,1.38307 0.724128,1.38306 0.532643,0.10645 0.532643,0.10645 0.203478,0.036 0.203478,0.036 z m -22.261529,-0.98086 0.990244,-0.0521 0.661141,-0.35383 0.661142,-0.35383 0.663719,0.30241 0.663718,0.30241 v -0.75568 -0.75568 l -0.37439,-0.31072 -0.37439,-0.31071 -2.337589,-0.26536 -2.337589,-0.26535 -0.654246,-0.0516 -0.654245,-0.0516 -0.148244,0.79375 -0.148243,0.79375 -1.159004,-0.0544 -1.159004,-0.0544 -0.201154,-0.32547 -0.201154,-0.32548 -0.350895,0.29121 -0.350894,0.2912 -2.116667,-0.0197 -2.116666,-0.0197 -0.595313,0.19238 -0.595312,0.19238 v 0.2159 0.21589 l 0.595312,0.15954 0.595313,0.15954 4.116617,0.004 4.116618,0.004 0.513591,0.38942 0.51359,0.38943 0.396875,-0.15926 0.396875,-0.15927 z m -9.060035,-4.65285 1.984375,-0.52803 1.455208,-0.16326 1.455208,-0.16327 0.264583,-0.20376 0.264584,-0.20376 1.322916,-0.19076 1.322917,-0.19077 0.238058,-0.13868 0.238059,-0.13868 0.820275,-0.0884 0.820275,-0.0884 0.79375,-0.0994 0.79375,-0.0994 v -0.3674 -0.36739 l -0.65548,-0.0924 -0.65548,-0.0924 -0.574173,-0.61954 -0.574172,-0.61955 -0.754723,0.2465 -0.754722,0.2465 -0.454258,0.16331 -0.454258,0.16332 -0.158884,0.5006 -0.158885,0.5006 h -1.545659 -1.54566 l 0.474657,-0.99219 0.474657,-0.99219 0.183608,-1.11004 0.183608,-1.11004 0.104701,-0.87433 0.104701,-0.87434 0.244909,-2.11666 0.244909,-2.11667 -0.108604,-0.113 -0.108604,-0.11301 -0.739322,0.70832 -0.739322,0.70832 h -0.201976 -0.201976 l 0.511098,-0.72761 0.511098,-0.7276 0.565252,-1.29041 0.565251,-1.2904 v -0.37255 -0.37255 l -0.562814,0.30121 -0.562815,0.30121 -0.226884,-0.35805 -0.226884,-0.35805 -0.0041,-0.20411 -0.0041,-0.20411 -0.661458,-0.30138 -0.661458,-0.30138 v -0.88357 -0.88357 l 0.198437,-9.7e-4 0.198438,-9.7e-4 3.704166,0.71876 3.704167,0.71876 0.161617,0.23044 0.161617,0.23043 0.166128,-0.43292 0.166128,-0.43292 -0.395933,-0.60427 -0.395932,-0.60427 -0.143267,-1.78013 -0.143266,-1.78013 -0.221202,-0.5783 -0.221203,-0.5783 -0.539612,-0.486 -0.539612,-0.48601 -3.922523,-0.0278 -3.922523,-0.0278 -0.0058,0.38147 -0.0058,0.38147 -0.92025,-0.0456 -0.92025,-0.0457 0.427746,0.31361 0.427747,0.31361 -0.300215,0.28045 -0.300215,0.28044 -0.573465,0.14996 -0.573465,0.14997 -0.141075,-0.36764 -0.141076,-0.36763 h -0.405179 -0.405178 v 8.33437 8.33438 h 0.412489 0.41249 l -0.166188,0.26889 -0.166189,0.2689 -0.246301,-0.15222 -0.246301,-0.15222 0.03069,1.53697 0.03069,1.53697 0.121,-0.46302 0.121,-0.46302 h 0.24136 0.241361 l -0.115339,1.23041 -0.115338,1.23041 -0.277714,0.27771 -0.277714,0.27772 v 1.1377 1.13771 l 0.595312,-0.006 0.595313,-0.006 z m 0.533119,-22.46605 -0.657505,-0.50519 0.202502,-0.2025 0.202502,-0.20251 0.713573,0.71358 0.713574,0.71357 -0.25857,-0.006 -0.25857,-0.006 z m 27.446568,20.82372 -0.110243,-0.33073 h -0.48507 -0.485069 l -0.110243,0.33073 -0.110243,0.33073 h 0.705555 0.705556 z m -0.920556,-2.11667 -0.143412,-0.59531 -0.675069,-0.7276 -0.67507,-0.72761 h -0.224391 -0.224391 l 0.286128,0.53464 0.286127,0.53463 -0.154177,0.24947 -0.154178,0.24946 0.472671,0.51677 0.472672,0.51677 0.43825,0.0221 0.438251,0.022 z m -7.744548,-0.16378 v -0.22992 l 0.409851,-2.34976 0.409851,-2.34977 0.139336,-1.05833 0.139335,-1.05833 0.138914,-1.12448 0.138913,-1.12448 H 71.973035 71.70896 l -1.380841,1.12448 -1.380842,1.12448 -0.802217,0.7276 -0.802217,0.72761 H 67.117502 66.89216 v 0.50996 0.50996 l 0.661458,0.52031 0.661458,0.5203 v 0.29791 0.29791 l 0.701003,1.11922 0.701003,1.11922 0.225039,0.0882 0.225039,0.0882 v 0.37482 0.37483 h 0.396875 0.396875 z m 3.318397,-0.0526 0.174627,-0.28255 0.88513,0.0763 0.885129,0.0763 0.147676,-0.14767 0.147676,-0.14768 -0.291659,-0.83665 -0.291659,-0.83666 h -0.482261 -0.482261 l -0.174337,-0.79375 -0.174337,-0.79375 H 74.15222 73.781408 l -0.120671,0.59531 -0.120671,0.59532 -0.154647,1.14053 -0.154647,1.14053 0.1536,0.24853 0.153601,0.24853 h 0.233353 0.233354 z m -14.450458,-2.85589 0.263641,-0.49262 -0.364991,-0.49915 -0.364991,-0.49916 -0.123016,0.13188 -0.123017,0.13187 -0.184222,0.8599 -0.184222,0.85989 h 0.408589 0.408588 z m 14.579046,-4.11812 -0.271985,-0.71538 v -0.79857 -0.79858 l -0.284428,0.0948 -0.284427,0.0948 0.02929,0.20127 0.02929,0.20128 -0.408757,0.40875 -0.408756,0.40876 0.150339,0.24325 0.150338,0.24325 h 0.338791 0.33879 l 0.316959,0.69565 0.316959,0.69565 0.129788,-0.12979 0.129788,-0.12978 z m -11.775032,-4.9342 0.17428,-0.54911 -0.15645,-0.15645 -0.15645,-0.15645 v 0.30868 0.30868 h -0.396875 -0.396875 v 0.22049 0.22048 l 0.176389,0.17639 0.176389,0.17639 h 0.202656 0.202657 z m -12.83862,-12.44013 -0.396875,-0.28112 1.389063,0.162 1.389062,0.16199 v -0.38401 -0.38435 l -0.152601,-0.39767 -0.1526,-0.39767 -0.707295,0.22333 -0.707295,0.22333 -0.992188,0.16469 -0.992187,0.16469 v 0.51718 0.51717 l 0.859895,-0.004 0.859896,-0.004 z m 17.197917,-10.1774 v -0.64585 H 66.658435 66.42471 l -0.120087,0.46302 -0.120088,0.46302 0.111827,0.33238 0.111827,0.33238 0.241985,-0.14956 0.241986,-0.14955 z m -10.679819,-1.05635 0.625652,-0.67509 v -0.10904 -0.10904 l -4.232046,0.0565 -4.232046,0.0565 -0.0013,0.28826 -0.0013,0.28826 0.649528,0.29594 0.649529,0.29595 1.665575,-0.13441 1.665576,-0.13442 1.058333,0.25124 1.058333,0.25123 0.234244,0.0266 0.234243,0.0266 z"
       id="path13" /></g></svg>
