<?xml version="1.0" encoding="UTF-8" standalone="no"?>
<!-- Created with Inkscape (http://www.inkscape.org/) -->

<svg
   width="101.59999mm"
   height="84.666672mm"
   viewBox="0 0 101.59999 84.666672"
   version="1.1"
   id="svg1"
   xml:space="preserve"
   xmlns="http://www.w3.org/2000/svg"
   xmlns:svg="http://www.w3.org/2000/svg"><defs
     id="defs1" /><g
     id="layer1"
     transform="translate(-21.094372,-132.05998)"><path
       style="fill:#ffffff;fill-opacity:1"
       d="m 21.094372,174.39332 v -42.33334 h 50.799999 50.799999 v 42.33334 42.33333 H 71.894371 21.094372 Z M 83.18326,211.1074 v -0.32758 l 0.553665,-0.55367 0.553666,-0.55366 0.732671,0.39211 0.732671,0.39212 -0.194976,-0.74559 -0.194977,-0.7456 0.937112,0.0248 0.937112,0.0248 -0.616047,0.24395 -0.616047,0.24394 0.712248,0.44481 0.712247,0.4448 0.152254,-0.44896 0.152255,-0.44896 0.368906,-2.09326 0.368906,-2.09327 v -0.64076 -0.64076 h -0.664982 -0.664983 l -0.547368,0.83538 -0.547368,0.83539 0.510579,0.72896 0.510578,0.72895 -0.319595,0.19752 -0.319596,0.19752 -0.237079,-0.61533 -0.237078,-0.61534 -0.35692,0.63583 -0.35692,0.63584 0.370635,0.44658 0.370635,0.44659 -1.665685,0.89944 -1.665686,0.89944 -0.114061,0.57578 -0.114062,0.57578 h 0.378645 0.378645 z m -1.587679,-6.31943 1.077431,-0.93771 2.702636,-1.76389 2.702636,-1.76389 0.02193,-0.39389 0.02193,-0.39389 -2.856545,-3.22208 -2.856545,-3.22208 -0.40665,0.004 -0.406649,0.004 -1.29832,2.09777 -1.29832,2.09777 -1.347513,0.61377 -1.347514,0.61377 -0.313688,0.15256 -0.313689,0.15257 0.246314,-0.39855 0.246314,-0.39854 h -0.657876 -0.657876 l -2.185831,0.73816 -2.185831,0.73817 0.186934,0.30247 0.186935,0.30246 -0.627242,0.32281 -0.627241,0.32281 -0.441213,-0.1582 -0.441212,-0.15819 0.23658,0.61651 0.236579,0.61651 -0.42689,-0.26382 -0.426889,-0.26384 -0.745376,0.94759 -0.745376,0.94759 -0.319078,-0.57016 -0.319077,-0.57016 -0.508885,0.50889 -0.508886,0.50889 v 0.18196 0.18197 l 1.384073,-0.16683 1.384073,-0.16683 0.224837,0.36379 0.224836,0.3638 0.684146,-0.36615 0.684146,-0.36614 0.617361,0.30266 0.617362,0.30267 1.058333,-0.22167 1.058333,-0.22167 -0.114292,-0.49966 -0.114293,-0.49965 0.696631,0.63044 0.696631,0.63044 0.232231,-0.37576 0.232232,-0.37576 1.654875,0.0418 1.654874,0.0418 -3.527778,0.69409 -3.527777,0.69408 -0.352778,0.37434 -0.352778,0.37433 0.606063,-0.2129 0.606064,-0.2129 0.185777,0.30059 0.185777,0.3006 1.418986,-0.0963 1.418986,-0.0963 0.149844,0.24245 0.149844,0.24246 1.687228,0.0873 1.687227,0.0873 0.06856,0.0678 0.06856,0.0678 0.989177,0.0558 0.989177,0.0558 z m 9.83322,-1.79578 0.224328,-1.40287 2.379649,-2.4445 2.379648,-2.4445 0.696446,-0.36387 0.696446,-0.36386 0.714665,0.38062 0.714665,0.38062 -0.453348,-0.54979 -0.453349,-0.54979 0.453349,0.0184 0.453348,0.0184 0.716807,-0.0556 0.716805,-0.0556 0.0785,-0.94911 0.0786,-0.94911 0.70395,-0.74932 0.70395,-0.74932 v -0.6057 -0.60569 l 0.50252,-0.19284 0.50252,-0.19283 -0.18444,-1.2954 -0.18444,-1.2954 -0.99521,-0.93977 -0.99521,-0.93976 0.23616,-0.26332 0.23616,-0.26332 -0.4166,0.2387 -0.4166,0.2387 -0.22158,-0.35853 -0.22159,-0.35853 h -0.331955 -0.331958 v 1.5875 1.5875 l -0.440972,-0.0882 -0.440972,-0.0882 -0.239968,-0.33377 -0.239968,-0.33377 0.340574,-0.63637 0.340575,-0.63637 h -0.327447 -0.327446 l -0.204316,0.53244 -0.204316,0.53244 -0.426041,-0.0915 -0.426041,-0.0915 -0.880004,1.32663 -0.880005,1.32662 -0.787153,-0.73949 -0.787153,-0.73949 -0.688688,0.36857 -0.688688,0.36858 -1.19668,0.0443 -1.196679,0.0443 -1.003364,-0.21922 -1.003364,-0.21923 0.813192,1.15946 0.813192,1.15945 -0.566445,-0.45335 -0.566445,-0.45335 -0.478105,0.10057 -0.478106,0.10057 0.063,-0.36537 0.063,-0.36538 H 86.702638 86.03908 l 0.157346,0.15734 0.157345,0.15735 -0.709213,0.49675 -0.709213,0.49675 0.20311,0.32864 0.203111,0.32864 h -0.373598 -0.373597 v 0.53396 0.53395 l -0.413775,0.66256 -0.413775,0.66256 1.207525,1.41851 1.207525,1.41852 2.411228,2.66182 2.411227,2.66182 -0.284641,0.45579 -0.28464,0.45579 -0.07689,0.50901 -0.07689,0.50901 0.179536,0.2905 0.179536,0.29049 0.282063,-0.17432 0.282063,-0.17433 z m 11.233159,-30.66497 1.1588,-1.00777 1.81469,-0.42956 1.81469,-0.42956 -0.57997,-1.37354 -0.57997,-1.37353 -0.52853,-0.10426 -0.52853,-0.10427 -6.4e-4,-0.69993 -6.3e-4,-0.69994 -0.52433,-9.1e-4 -0.52434,-9.1e-4 -0.11413,-0.59263 -0.11413,-0.59264 0.90305,-2.25727 0.90305,-2.25726 v -0.3839 -0.38389 l -0.40337,-0.13446 -0.40336,-0.13445 0.38633,-0.72187 0.38633,-0.72186 -0.72465,-1.46463 -0.72464,-1.46463 -0.28652,0.17708 -0.28653,0.17708 -0.11832,-0.26678 -0.11833,-0.26678 -1.41111,-0.68808 -1.41111,-0.68808 -0.678002,-0.54664 -0.678002,-0.54664 0.304748,0.52916 0.304748,0.52917 -0.596885,-0.48417 -0.596885,-0.48417 v 0.23386 0.23387 l -0.969288,-0.89878 -0.969288,-0.89877 -0.125896,0.37769 -0.125896,0.37768 0.559435,0.41862 0.559435,0.41861 -0.289141,0.45767 -0.289142,0.45768 -0.37187,-0.45768 -0.37187,-0.45767 -0.132464,-0.70555 -0.132463,-0.70556 -0.699671,-0.0131 -0.69967,-0.0131 -0.44055,-0.27227 -0.44055,-0.27228 -0.352778,0.21803 -0.352778,0.21803 v 0.66473 0.66473 l 0.720524,0.50468 0.720524,0.50467 -0.164301,0.90606 -0.1643,0.90607 0.389189,0.12973 0.38919,0.12973 -0.228785,0.5962 -0.228786,0.59621 h -0.401593 -0.401593 l 0.174888,-0.45576 0.174888,-0.45575 -0.401728,-0.52826 -0.401728,-0.52827 -0.79375,-0.0524 -0.79375,-0.0524 v 0.31003 0.31003 l 0.353732,0.21862 0.353732,0.21862 -0.33722,0.6301 -0.337221,0.6301 0.391871,0.39187 0.39187,0.39187 -0.470852,0.56735 -0.470853,0.56734 0.43388,1.19988 0.433881,1.19987 -0.339725,0.63478 -0.339724,0.63478 0.48498,0.87615 0.484981,0.87615 0.0125,0.57961 0.0125,0.57962 -0.529167,0.20306 -0.529167,0.20306 v -0.3417 -0.34171 h -0.694483 -0.694484 l 0.184724,0.48138 0.184724,0.48139 0.79715,0.3632 0.797151,0.36321 0.728455,-0.58001 0.728455,-0.58 0.214725,-0.52917 0.214724,-0.52917 -0.200267,1.14653 -0.200267,1.14653 h 0.329294 0.329294 l 0.967636,-0.89678 0.967637,-0.89677 0.463581,0.38474 0.463582,0.38474 0.228615,-0.36991 0.228616,-0.36991 h 0.54609 0.54609 l -0.201436,0.52493 -0.201436,0.52494 0.428276,-0.084 0.428276,-0.084 -0.11875,0.84322 -0.11875,0.84322 0.609621,-0.23394 0.609623,-0.23393 -0.452078,0.54472 -0.452076,0.54472 -0.113315,1.26281 -0.113316,1.26282 -0.383582,0.46219 -0.383582,0.46219 0.45647,0.29599 0.45647,0.29599 0.883579,0.41232 0.88358,0.41232 0.25231,0.0286 0.2523,0.0286 z m -11.913049,-14.59382 0.248453,-2.19603 -0.393999,-0.13133 -0.393998,-0.13133 0.373588,-0.45015 0.373589,-0.45015 -0.211671,-0.5516 -0.211671,-0.55161 -0.499971,0.19186 -0.499971,0.19186 -0.0053,0.756 -0.0053,0.75601 -0.446648,1.28193 -0.446648,1.28194 -0.460356,0.55469 -0.460355,0.5547 0.231135,0.37398 0.231136,0.37399 0.325608,-0.20124 0.325607,-0.20123 0.620155,0.36114 0.620155,0.36114 0.219017,0.0107 0.219016,0.0107 z m 21.500769,-0.12588 0.21413,-0.55802 v -0.45917 -0.45917 l -0.6758,-0.17672 -0.67581,-0.17673 -0.44896,0.40016 -0.44896,0.40017 0.59391,-0.88194 0.59391,-0.88195 0.56412,-1.01695 0.56413,-1.01695 -0.29785,-0.21777 -0.29785,-0.21777 -0.48417,-0.61736 -0.48417,-0.61737 h 0.7865 0.78649 l -0.21009,0.54749 -0.21009,0.54749 0.39223,-0.24241 0.39222,-0.24241 -0.20101,-1.69722 -0.20101,-1.69722 -0.52122,-0.98911 -0.52122,-0.98911 -1.55696,-1.63283 -1.55696,-1.63284 -1.74054,-1.2234 -1.74054,-1.22339 -0.78626,0.11999 -0.78626,0.11999 v -0.29394 -0.29393 l -0.89854,-0.40941 -0.89854,-0.4094 h -1.00059 -1.000593 l -0.174718,-0.66812 -0.174717,-0.66813 -1.10115,-0.24185 -1.101149,-0.24185 -0.0054,-0.41294 -0.0054,-0.41295 -0.320489,0.50649 -0.320488,0.50648 -0.46786,-0.37854 -0.467859,-0.37854 -0.971167,0.99713 -0.971167,0.99713 0.366365,0.22643 0.366364,0.22642 -1.306787,1.8235 -1.306787,1.8235 0.584411,-0.48063 0.584411,-0.48063 0.718509,-1.16257 0.71851,-1.16257 0.548685,0.0805 0.548686,0.0805 0.319165,0.50434 0.319165,0.50434 0.0054,0.26458 0.0054,0.26458 h -0.697423 -0.697423 l -0.62092,0.97014 -0.62092,0.97014 -0.403599,0.42423 -0.403599,0.42422 -2.217426,0.51227 -2.217425,0.51228 -0.558549,-0.16939 -0.55855,-0.16938 0.550933,0.35977 0.550932,0.35977 2.616977,0.7252 2.616977,0.7252 1.065424,0.0248 1.065424,0.0248 -0.650783,0.25613 -0.650783,0.25613 0.908412,0.4139 0.908413,0.4139 -0.202713,0.62809 -0.202714,0.62809 0.350171,-0.49192 0.350171,-0.49192 1.358802,0.82159 1.358802,0.82158 0.781786,0.59364 0.781783,0.59364 -0.25262,0.27978 -0.252616,0.27979 0.396546,-0.22632 0.39655,-0.22631 2.0729,1.36812 2.07289,1.36811 2.08563,1.59116 2.08563,1.59115 0.6427,-0.40137 0.64269,-0.40137 0.61047,0.61046 0.61046,0.61047 h 0.23944 0.23944 z"
       id="path1" /></g></svg>
