<?xml version="1.0" encoding="UTF-8" standalone="no"?>
<!-- Created with Inkscape (http://www.inkscape.org/) -->

<svg
   width="138.37831mm"
   height="138.42279mm"
   viewBox="0 0 138.37831 138.42279"
   version="1.1"
   id="svg1"
   xml:space="preserve"
   xmlns="http://www.w3.org/2000/svg"
   xmlns:svg="http://www.w3.org/2000/svg"><defs
     id="defs1" /><g
     id="layer1"
     transform="translate(-286.9174,-230.66496)"><path
       style="fill:#ffffff;fill-opacity:1"
       d="m 286.98388,299.96635 0.0666,-69.1224 0.79375,-0.0895 0.79376,-0.0895 -0.19615,0.19741 -0.19614,0.19741 0.25122,0.3027 0.25121,0.30269 -0.15793,0.60391 -0.15792,0.60392 -0.24928,-0.3531 -0.24927,-0.3531 0.17519,0.79321 0.1752,0.79321 0.0862,0.0862 0.0862,0.0862 0.83765,-0.43316 0.83765,-0.43317 0.77675,0.17061 0.77675,0.1706 -0.14487,0.2344 -0.14487,0.2344 0.53944,0.33688 0.53943,0.33688 v 0.57154 0.57154 l 0.64044,1.38233 0.64044,1.38232 -0.1344,0.35023 -0.13439,0.35023 1.64488,4.84216 1.64488,4.84215 0.0738,0.086 0.0738,0.086 0.48727,0.0922 0.48726,0.0922 0.28016,0.0202 0.28016,0.0202 0.47622,0.34822 0.47622,0.34822 -0.55794,1.22477 -0.55794,1.22476 v 0.25705 0.25705 l -0.25087,0.0882 -0.25086,0.0882 -0.16844,3.43958 -0.16843,3.43959 0.32943,7.67291 0.32943,7.67292 -0.009,0.79375 -0.009,0.79375 0.12187,-0.48245 0.12188,-0.48245 0.40727,0.15629 0.40727,0.15628 0.32546,-0.27011 0.32546,-0.27011 0.82733,0.16547 0.82734,0.16547 -0.13232,0.21408 -0.13231,0.21409 0.28694,0.17734 0.28693,0.17733 -0.13877,0.36164 -0.13877,0.36164 0.22818,0.14103 0.22819,0.14103 -0.11038,0.59505 -0.11039,0.59505 0.15727,-0.33073 0.15728,-0.33073 h 0.45655 0.45654 l 0.48551,0.355 0.4855,0.35501 -0.0231,1.62937 -0.0231,1.62937 h 0.52352 0.52352 l 0.58601,0.35871 0.586,0.35872 3.43958,-0.20347 3.43959,-0.20347 1.12448,-0.023 1.12447,-0.023 v -0.8158 -0.8158 l 0.33073,0.11141 0.33073,0.1114 0.01,0.63825 0.01,0.63825 0.95621,-0.0279 0.95622,-0.0279 0.4439,-0.17035 0.44391,-0.17034 -0.17439,-0.79397 -0.17438,-0.79397 h 0.25692 0.25692 l 0.16873,-0.67227 0.16874,-0.67228 0.25682,0.15872 0.25683,0.15873 v 0.40016 0.40016 l 0.39729,0.39729 0.3973,0.3973 0.4626,-0.0877 0.4626,-0.0877 0.0824,-0.99553 0.0825,-0.99553 0.27064,0.16727 0.27064,0.16726 -0.0831,-1.15132 -0.0831,-1.15132 0.45764,-0.0881 0.45765,-0.0881 v 0.65 0.65 l 0.48854,0.12775 0.48853,0.12776 -0.0567,0.763 -0.0567,0.763 0.11573,-0.46302 0.11573,-0.46303 h 0.24618 0.24618 v 0.70556 0.70556 l 0.11971,-0.11971 0.11971,-0.11971 0.11287,-1.31345 0.11288,-1.31345 h 0.33607 0.33606 l 0.2065,-0.52917 0.20651,-0.52917 0.0186,0.59532 0.0186,0.59531 h 0.52917 0.52916 v 0.66146 0.66145 h 0.28352 0.28352 l -0.0482,-0.59531 -0.0482,-0.59531 0.0293,-0.59531 0.0293,-0.59532 h 0.51355 0.51355 l 0.18022,0.29161 0.18023,0.2916 -0.042,2.30223 -0.042,2.30223 0.96116,-0.11221 0.96116,-0.11221 -0.0598,-2.1509 -0.0598,-2.15089 0.0343,-0.33073 0.0344,-0.33073 h 0.68976 0.68977 l -0.14442,0.37636 -0.14442,0.37635 1.07262,0.18122 1.07262,0.18122 0.63634,-0.34056 0.63634,-0.34056 0.31774,0.31775 0.31775,0.31775 0.0285,0.45742 0.0285,0.45743 0.0453,1.25677 0.0453,1.25677 h 0.27618 0.27619 l -0.0777,-0.46302 -0.0777,-0.46302 0.59531,-0.0845 0.59531,-0.0845 v 0.41528 0.41528 h 0.26459 0.26458 v -0.39688 -0.39687 h 0.42867 0.42868 l -0.11483,-1.5875 -0.11483,-1.5875 h 0.22385 0.22384 l 0.24255,-0.59531 0.24255,-0.59532 0.17187,0.57701 0.17188,0.57701 0.3708,0.14229 0.3708,0.14229 v 1.99268 1.99268 h 0.81337 0.81336 l -0.0657,-1.25677 -0.0657,-1.25677 0.30211,-0.562 0.30211,-0.562 -0.15639,-1.32045 -0.15638,-1.32046 0.32678,-0.20196 0.32678,-0.20197 0.23199,0.36463 0.23198,0.36463 -0.13372,1.15449 -0.13371,1.15449 0.40131,-0.154 0.40132,-0.154 v 0.49609 0.49609 l 0.52917,-0.13838 0.52916,-0.13838 v -0.65537 -0.65537 l 0.52917,-0.13838 0.52917,-0.13838 0.0574,-0.29987 0.0574,-0.29987 0.009,-2.64583 0.009,-2.64583 1.22851,-0.0795 1.22851,-0.0795 -0.13489,-0.51583 -0.13489,-0.51582 h 0.42773 0.42774 v 0.50086 0.50086 l 0.39283,0.15075 0.39284,0.15074 0.26862,-0.50192 0.26862,-0.50192 v -1.36236 -1.36236 l 0.33073,0.11045 0.33073,0.11045 -0.0892,0.86738 -0.0892,0.86737 0.35379,-0.11793 0.35379,-0.11792 0.0331,-0.30869 0.0331,-0.30868 0.0415,-0.33073 0.0415,-0.33072 0.32232,0.40726 0.32231,0.40726 0.83634,0.0582 0.83634,0.0582 0.65291,-0.24824 0.65292,-0.24823 0.52854,0.3702 0.52854,0.3702 1.02491,-0.12945 1.02492,-0.12945 0.46302,-0.14504 0.46302,-0.14505 -0.008,-0.84206 -0.008,-0.84207 -0.38846,-0.51359 -0.38846,-0.51359 v 0.31515 0.31516 h -0.29698 -0.29698 l 0.30687,-0.36976 0.30687,-0.36975 -0.53957,-1.03518 -0.53956,-1.03517 -0.0437,-2.49768 -0.0437,-2.49767 0.19909,-0.95543 0.19909,-0.95544 -0.61786,-0.16543 -0.61787,-0.16543 -0.59531,-0.004 -0.59531,-0.004 0.0661,0.19844 0.0661,0.19843 -0.19844,0.0661 -0.19844,0.0661 0.0226,-0.16886 0.0226,-0.16886 -0.35333,-0.22396 -0.35332,-0.22397 -1.64725,-0.004 -1.64726,-0.004 -0.86629,0.52817 -0.86629,0.52818 -0.60462,9.9e-4 -0.60462,9.9e-4 -0.58857,0.38564 -0.58856,0.38564 -0.39432,-0.25819 -0.39431,-0.25819 0.46859,-0.276 0.46858,-0.27601 -0.13494,-0.21834 -0.13494,-0.21834 0.40648,-0.33736 0.40649,-0.33735 -0.34104,-0.21077 -0.34105,-0.21078 0.32852,-0.32852 0.32852,-0.32851 0.004,-0.67469 0.004,-0.67469 0.19438,-0.29257 0.19439,-0.29257 1.85208,-0.33019 1.85208,-0.33019 0.66146,-0.26648 0.66146,-0.26649 1.98437,-0.60779 1.98438,-0.6078 0.97803,-0.41883 0.97804,-0.41882 0.16794,0.27174 0.16795,0.27174 0.23591,2.43788 0.23592,2.43787 0.0112,6.08542 0.0112,6.08542 0.21863,0.34469 0.21863,0.3447 0.35253,-0.0801 0.35252,-0.0801 -0.0648,1.23739 -0.0648,1.23738 0.74639,0.0855 0.7464,0.0855 0.006,1.12802 0.006,1.12802 0.6394,1.03458 0.63941,1.03459 0.41305,0.0279 0.41305,0.0279 0.92605,0.0477 0.92604,0.0477 2.18281,-0.0554 2.18281,-0.0554 v -0.92604 -0.92604 l 0.59531,0.008 0.59532,0.008 0.41862,0.32231 0.41863,0.32232 0.0434,1.14816 0.0434,1.14817 0.17068,0.27616 0.17068,0.27617 -0.0401,4.43842 -0.0401,4.43842 0.26887,0.70719 0.26888,0.70719 0.3291,-0.11087 0.3291,-0.11088 0.32231,0.4201 0.32232,0.4201 0.008,-0.33073 0.008,-0.33073 h 0.33464 0.33465 l 0.98731,-0.52917 0.98731,-0.52916 h 0.13325 0.13325 v 0.77813 0.77814 l -0.2689,0.16619 -0.2689,0.16619 0.15035,0.24327 0.15035,0.24327 -0.47676,-0.14414 -0.47676,-0.14413 0.59531,0.44402 0.59531,0.44402 v 0.34583 0.34583 l -1.42978,0.41565 -1.42978,0.41564 h -0.4223 -0.4223 v 0.7629 0.76289 l 0.59531,0.1564 0.59531,0.1564 0.0882,-0.25784 0.0882,-0.25783 h 0.25399 0.25398 l -0.0776,0.99219 -0.0776,0.99219 1.38906,0.08 1.38906,0.08 0.0104,-0.74143 0.0104,-0.74143 0.36703,0.84392 0.36703,0.84393 0.68137,-0.0727 0.68137,-0.0726 0.17596,-0.17597 0.17597,-0.17596 h 0.52018 0.52018 l 0.50895,0.58682 0.50895,0.58683 0.18354,-0.2561 0.18354,-0.2561 0.49027,-0.084 0.49026,-0.084 0.43578,0.19188 0.43578,0.19188 1.48452,-0.064 1.48452,-0.0639 0.15757,0.41062 0.15757,0.41063 -0.25303,0.15638 -0.25303,0.15638 v 0.61753 0.61754 l 0.37116,0.14243 0.37116,0.14242 0.48874,-0.37028 0.48874,-0.37029 0.69929,-0.008 0.6993,-0.008 0.15116,0.39391 0.15116,0.39392 0.67879,-0.25808 0.6788,-0.25808 0.29319,0.72406 0.2932,0.72406 0.0296,0.64938 0.0296,0.64938 0.85827,0.17676 0.85826,0.17677 0.36459,0.30258 0.36458,0.30258 0.16621,-0.83107 0.16622,-0.83107 v -0.59211 -0.59211 l 0.59531,-0.004 0.59531,-0.004 0.33073,-0.032 0.33073,-0.032 0.0168,-0.46302 0.0168,-0.46302 0.24749,0.61747 0.24748,0.61747 0.33106,-0.11938 0.33106,-0.11937 0.69811,0.40142 0.69811,0.40143 0.42637,-0.16361 0.42636,-0.16361 v -0.52186 -0.52185 l 0.30013,-0.1855 0.30013,-0.18549 -0.12201,0.83134 -0.12201,0.83133 h 0.32019 0.32019 l 0.12923,-0.49416 0.12922,-0.49415 0.89382,-0.1374 0.89382,-0.13739 0.46676,0.41136 0.46676,0.41136 -0.14679,0.46251 -0.14679,0.46251 0.27966,0.17284 0.27966,0.17284 -0.14835,0.24002 -0.14834,0.24003 0.42095,0.73388 0.42095,0.73388 -0.0998,-0.39452 -0.0997,-0.39451 0.38537,-0.38537 0.38537,-0.38537 -0.21219,-1.73366 -0.2122,-1.73366 -0.0183,-1.23233 -0.0183,-1.23233 -0.19931,0.12318 -0.19931,0.12318 -0.5885,-0.4122 -0.58851,-0.4122 h 0.73595 0.73594 l -0.16352,-0.26459 -0.16352,-0.26458 h 0.38245 0.38245 l 0.17436,-1.16276 0.17437,-1.16277 -0.1764,-0.70284 -0.1764,-0.70284 0.4123,-0.31721 0.41231,-0.31721 0.18601,-1.03282 0.186,-1.03282 -0.95826,0.1555 -0.95826,0.15551 -0.13423,-0.21718 -0.13423,-0.21719 0.33824,-0.28071 0.33823,-0.2807 1.07079,-0.24059 1.0708,-0.2406 0.6002,0.62362 0.60021,0.62361 h 0.5014 0.50139 v -0.39688 -0.39687 l 0.46302,-0.0209 0.46302,-0.0209 -0.33073,-0.13345 -0.33073,-0.13345 v -0.63941 -0.63941 h 0.28453 0.28452 l -0.0844,-0.80446 -0.0844,-0.80445 0.39517,-0.24983 0.39517,-0.24983 -0.38365,-0.004 -0.38364,-0.004 0.3175,-0.3175 0.3175,-0.3175 v -0.46451 -0.46452 l -1.0916,0.38514 -1.0916,0.38514 h -0.19105 -0.19106 l -0.023,-0.80868 -0.023,-0.80868 0.44575,-0.16421 0.44575,-0.16421 0.13229,-0.15697 0.13229,-0.15698 0.70086,-0.30749 0.70087,-0.30748 0.13949,-1.27463 0.13949,-1.27463 0.28619,-1.69568 0.28618,-1.69568 -0.0682,-0.0674 -0.0682,-0.0674 -1.45521,0.47893 -1.45521,0.47892 -1.45521,0.46327 -1.45521,0.46328 -2.30416,0.0557 -2.30417,0.0557 -0.66309,0.43447 -0.66308,0.43447 h -0.12497 -0.12497 l 0.13852,-0.99218 0.13851,-0.99219 0.51556,-2.07919 0.51556,-2.07919 0.50795,-0.99568 0.50796,-0.99568 0.60728,-0.16266 0.60727,-0.16267 0.61265,-0.004 0.61266,-0.004 1.90088,-0.92151 1.90089,-0.92152 1.45521,-1.05168 1.45521,-1.05169 0.51683,-0.40805 0.51684,-0.40805 h 0.19413 0.19414 l -0.14758,0.99218 -0.14758,0.99219 -0.36891,1.85209 -0.36892,1.85208 -0.0243,1.5875 -0.0243,1.5875 0.0283,0.63941 0.0283,0.63941 0.14028,-0.14028 0.14028,-0.14028 0.50795,-4.60017 0.50794,-4.60017 0.18411,-2.45563 0.18411,-2.45563 0.19233,-0.11886 0.19232,-0.11887 0.16704,1.91304 0.16705,1.91303 0.27713,3.04271 0.27713,3.04271 0.40989,3.96875 0.4099,3.96875 0.18691,2.17587 0.18691,2.17588 0.11717,0.087 0.11718,0.087 0.7276,0.45519 0.72761,0.45518 0.0305,-0.20453 0.0305,-0.20454 -0.0498,-0.4788 -0.0498,-0.47879 0.35003,-0.42287 0.35004,-0.42287 v -1.185 -1.18499 l 0.47055,-0.29459 0.47055,-0.29459 0.253,0.39687 0.253,0.39688 0.004,0.61905 0.004,0.61904 0.58437,0.4732 0.58437,0.4732 0.43891,-0.27411 0.43892,-0.2741 0.45193,0.17342 0.45192,0.17342 -0.0587,0.72823 -0.0587,0.72823 0.30324,0.74483 0.30325,0.74483 v 0.8932 0.8932 l 0.26458,0.16353 0.26459,0.16352 v 43.77293 43.77293 h -69.18929 -69.18904 z m 72.64703,40.08437 0.0846,-0.59531 h -0.23242 -0.23241 l -0.51359,0.38846 -0.51359,0.38846 -0.66146,0.0125 -0.66146,0.0125 0.39688,0.26344 0.39687,0.26344 0.92604,-0.0691 0.92604,-0.069 z m -1.93663,-1.38906 0.16352,-0.26458 h 0.64585 0.64584 v -0.63315 -0.63315 l -0.41852,-0.1606 -0.41851,-0.1606 h -0.63792 -0.63791 l 0.0415,1.05833 0.0415,1.05833 h 0.20559 0.2056 z m 10.87022,-7.9375 -0.13359,-0.66146 0.14752,0.34177 0.14752,0.34178 0.37114,-0.30803 0.37115,-0.30802 v 0.24406 0.24407 l -0.29445,0.29444 -0.29444,0.29445 0.1716,0.27766 0.1716,0.27766 0.65201,-0.29708 0.65201,-0.29707 0.004,-0.15597 0.004,-0.15597 0.17035,-0.63668 0.17036,-0.63669 -0.30626,0.18928 -0.30626,0.18928 v -0.22963 -0.22963 l 0.38846,-0.51359 0.38846,-0.51359 0.008,-0.19844 0.008,-0.19843 h -0.79375 -0.79375 v -0.23514 -0.23514 l 0.95429,-0.17902 0.95429,-0.17903 0.62815,-0.23882 0.62816,-0.23883 -0.14554,-0.37927 -0.14554,-0.37927 -0.46211,-0.12085 -0.46212,-0.12085 0.10061,-1.0297 0.10062,-1.02971 -0.27761,0.39688 -0.2776,0.39687 -0.0306,-0.39687 -0.0306,-0.39688 -0.23914,1.05834 -0.23914,1.05833 -0.30816,0.59531 -0.30815,0.59531 h -0.48446 -0.48446 v 0.39688 0.39687 h -0.26458 -0.26458 v 0.64585 0.64584 l 0.30466,0.18829 0.30467,0.1883 -0.46336,0.33881 -0.46336,0.33882 -0.0398,1.08118 -0.0397,1.08118 0.34253,-0.4682 0.34253,-0.46819 z m 7.43285,-5.62346 0.0594,-1.46643 -1.04527,0.1402 -1.04527,0.1402 -0.004,-0.49786 -0.004,-0.49786 -0.23128,0.36517 -0.23129,0.36517 0.50936,0.8633 0.50935,0.8633 -0.038,0.22674 -0.038,0.22674 0.18701,0.57713 0.18701,0.57713 0.56294,-0.20825 0.56295,-0.20824 z m -9.59931,-0.38338 0.10266,-1.06582 -0.20644,-0.33402 -0.20644,-0.33403 -0.29417,0.1818 -0.29416,0.18181 v 0.38126 0.38126 h 0.26458 0.26459 l -0.0313,0.19843 -0.0313,0.19844 0.0313,0.7717 0.0313,0.7717 0.13336,-0.13336 0.13336,-0.13336 z m 13.6344,-0.37411 0.15411,0.24935 1.33753,-1.24281 1.33754,-1.2428 0.17569,-0.45787 0.1757,-0.45786 0.64254,-0.24429 0.64254,-0.2443 0.1736,-0.2809 0.17361,-0.2809 -0.18098,-0.29283 -0.18098,-0.29284 -0.22745,0.35898 -0.22746,0.35898 -0.004,-0.33073 -0.004,-0.33073 h -0.66146 -0.66145 v 0.22789 0.2279 l -0.60693,-0.11603 -0.60693,-0.11602 -0.59519,0.48344 -0.5952,0.48344 -0.0816,0.66146 -0.0816,0.66146 -0.20524,0.86333 -0.20523,0.86333 -0.61266,0.15377 -0.61266,0.15376 -0.27962,-0.17281 -0.27962,-0.17282 v 0.35958 0.35957 l 0.30495,0.30495 0.30495,0.30495 0.66676,-0.52448 0.66677,-0.52447 z m -12.28399,-19.91983 0.26458,0.0849 0.54345,-0.84886 0.54346,-0.84885 0.44873,0.0368 0.44874,0.0367 v -0.23518 -0.23519 h -0.49874 -0.49874 l -0.4334,0.66146 -0.43341,0.66146 h -0.40008 -0.40009 l -0.65215,0.4273 -0.65214,0.42731 v 0.24095 0.24094 l 0.7276,-0.36736 0.7276,-0.36737 z m -17.85938,-1.8649 v -0.11984 l -0.30705,-0.67391 -0.30705,-0.6739 -0.68514,0.0307 -0.68513,0.0307 0.46302,0.121 0.46302,0.121 v 0.25635 0.25635 l 0.33073,0.37564 0.33073,0.37565 0.19844,0.0101 0.19843,0.0101 z m -7.13969,-1.04261 0.004,-0.29275 0.25648,0.39687 0.25648,0.39688 0.004,-0.42226 0.004,-0.42226 -0.98155,0.0596 -0.98154,0.0596 -0.0761,0.23038 -0.0761,0.23037 0.79308,0.0282 0.79308,0.0282 z m 60.80237,-2.21098 0.0845,-0.59531 -0.87829,0.004 -0.8783,0.004 -0.39688,0.25303 -0.39687,0.25303 1.05833,-0.13162 1.05834,-0.13162 -0.61231,0.26917 -0.61232,0.26918 0.17426,0.28195 0.17426,0.28195 0.57034,-0.0813 0.57035,-0.0813 z m -34.70138,-14.02865 0.30818,-0.19606 -0.35023,-0.47896 -0.35023,-0.47897 -0.22253,0.0186 -0.22253,0.0186 -0.0123,-0.59628 -0.0123,-0.59628 -0.99994,-1.7198 -0.99994,-1.71979 0.15586,1.34682 0.15587,1.34682 0.68863,1.43131 0.68864,1.4313 0.30004,0.19439 0.30004,0.19439 h 0.1323 0.13229 z m -8.80862,-20.76406 -0.0641,-0.8599 -0.032,-3.43958 -0.032,-3.43959 -0.16341,-3.175 -0.16341,-3.175 -0.33079,1.11282 -0.33079,1.11281 -0.27939,2.85594 -0.27939,2.85594 0.0109,2.19735 0.0109,2.19736 0.38061,0.14606 0.38061,0.14605 v 0.25189 0.25189 l -0.24428,-0.15097 -0.24429,-0.15098 0.57501,1.05922 0.57502,1.05922 0.14745,0.002 0.14746,0.002 z m 47.32237,17.99837 -0.28753,-0.34645 0.6431,-0.61896 0.6431,-0.61896 0.43001,0.16501 0.43001,0.16501 0.41263,-0.33529 0.41263,-0.33529 -0.50321,0.85989 -0.50321,0.8599 h -0.41921 -0.4192 l -0.2758,0.27579 -0.27579,0.2758 z m 0.0647,-2.06882 -0.17069,-0.27617 0.33424,-0.40273 0.33424,-0.40273 0.72026,-0.37246 0.72026,-0.37246 0.32359,0.3899 0.32359,0.38991 h -0.39258 -0.39258 l 0.12645,0.66146 0.12644,0.66146 h -0.94127 -0.94127 z m -1.64325,-2.02177 0.46626,-0.12335 -0.15381,-0.24888 -0.15381,-0.24887 -0.2463,0.15222 -0.24631,0.15222 v -0.1653 -0.1653 l 0.26267,-0.49079 0.26266,-0.49079 2.39857,-1.37259 2.39857,-1.3726 0.10972,0.10972 0.10972,0.10972 -0.30512,1.04346 -0.30512,1.04345 0.0653,0.35665 0.0653,0.35665 -0.45075,0.49807 -0.45075,0.49808 -0.82357,0.12322 -0.82357,0.12322 -1.32292,0.11757 -1.32292,0.11758 z"
       id="path3" /></g></svg>
