<?xml version="1.0" encoding="UTF-8" standalone="no"?>
<!-- Created with Inkscape (http://www.inkscape.org/) -->

<svg
   width="101.60001mm"
   height="84.666656mm"
   viewBox="0 0 101.60001 84.666656"
   version="1.1"
   id="svg1"
   xml:space="preserve"
   xmlns="http://www.w3.org/2000/svg"
   xmlns:svg="http://www.w3.org/2000/svg"><defs
     id="defs1" /><g
     id="layer1"
     transform="translate(-36.174184,-163.75857)"><path
       style="fill:#ffffff;fill-opacity:1"
       d="m 36.174186,206.0919 v -42.33333 h 50.800001 50.800003 v 42.33333 42.33333 H 86.974187 36.174186 Z m 54.504167,41.275 -0.661458,-0.21184 3.96875,0.0259 3.96875,0.0259 -2.910417,0.15998 -2.910416,0.15998 3.748263,0.0523 3.748264,0.0523 0.154341,-0.33073 0.15434,-0.33072 0.15434,0.33072 0.15434,0.33073 h 18.3665 18.36649 v -11.97929 -11.97936 l -1.13203,0.0213 -1.13203,0.0213 -0.34078,0.21062 -0.34079,0.21061 -0.37085,-0.48951 -0.37086,-0.48952 0.0125,-0.39687 0.0125,-0.39688 0.12063,0.29228 0.12064,0.29227 0.65223,-0.12468 0.65222,-0.12468 0.008,-0.29989 0.008,-0.29988 0.27067,0.46477 0.27066,0.46477 0.52051,-0.27857 0.52051,-0.27857 0.25911,0.16015 0.25912,0.16014 v -0.25918 -0.25917 l -0.79375,-0.17434 -0.79375,-0.17434 v -0.27224 -0.27225 l -0.66146,0.16602 -0.66146,0.16602 -0.004,-0.60036 -0.004,-0.60035 -0.25648,0.39687 -0.25648,0.39688 -0.004,-0.59531 -0.004,-0.59532 0.29892,0.0661 0.29891,0.0661 0.0485,-1.32291 0.0485,-1.32292 0.21612,-0.4788 0.21613,-0.47881 -0.53907,-0.14097 -0.53907,-0.14097 0.47163,-0.47163 0.47164,-0.47163 0.16536,-0.3638 0.16537,-0.36381 0.15434,0.33073 0.15434,0.33073 h 0.34243 0.34243 l 0.32937,0.39688 0.32938,0.39687 h 0.23219 0.23218 v -0.22212 -0.22211 l -0.66146,-0.30138 -0.66145,-0.30138 v -0.40255 -0.40255 l 0.19843,-0.008 0.19844,-0.008 0.44626,-0.33922 0.44626,-0.33923 -0.21954,-0.97341 -0.21954,-0.97341 0.2363,0.14604 0.2363,0.14604 V 188.24817 164.55232 H 86.973891 36.96764 v 12.83229 12.8323 l 1.12448,0.0245 1.12448,0.0245 1.09754,-0.0429 1.09753,-0.0429 0.17485,0.28291 0.17485,0.28291 h -0.51392 -0.51392 l -0.13838,0.52916 -0.13838,0.52917 h -0.28005 -0.28004 l -0.28321,-0.52917 -0.2832,-0.52916 h -0.64384 -0.64385 l 0.1523,0.39687 0.15229,0.39688 h -0.37226 -0.37227 l -0.34318,-0.33073 -0.34318,-0.33073 0.0951,0.52713 0.0951,0.52712 0.79052,0.16918 0.79052,0.16917 1.19063,0.0313 1.19062,0.0313 0.72761,-0.9119 0.7276,-0.9119 v -0.2573 -0.25727 l 0.38386,-0.74905 0.38386,-0.74905 0.47604,-1.27319 0.47603,-1.27319 1.15734,-0.95426 1.15734,-0.95426 1.72557,-0.47849 1.72557,-0.47849 0.46271,-0.41874 0.46271,-0.41875 0.13471,-0.70466 0.1347,-0.70465 -0.50376,-0.35285 -0.50376,-0.35285 -0.004,-0.84489 -0.004,-0.84489 -0.16231,-0.60591 -0.1623,-0.60591 -0.76013,-0.39307 -0.76012,-0.39308 v -0.37062 -0.37062 l 1.38907,-0.6574 1.38906,-0.6574 1.5875,-0.15731 1.587499,-0.15731 0.715969,0.37665 0.715968,0.37665 0.540803,-0.14143 0.540802,-0.14142 v 0.59242 0.59243 l -0.403269,-0.33469 -0.403269,-0.33468 -0.152392,0.15239 -0.152392,0.15239 0.174401,0.28219 0.174401,0.28219 h 0.377709 0.37771 l 0.406498,0.97288 0.406497,0.97289 -0.249979,0.24998 -0.24998,0.24998 0.139923,0.36463 0.139924,0.36464 h -0.292891 -0.292891 l -0.0036,-0.59532 -0.0036,-0.59531 -0.159538,-0.59531 -0.159538,-0.59531 h -0.45421 -0.454211 l -0.172882,0.17288 -0.172882,0.17288 0.547239,0.88545 0.547239,0.88545 h -0.390147 -0.390147 l -0.15234,0.397 -0.152341,0.39699 -0.942348,-0.52929 -0.94235,-0.52928 h -0.10322 -0.10322 l -0.17672,0.80459 -0.17671,0.80458 0.32038,0.38604 0.320381,0.38604 0.959791,0.009 0.959791,0.009 -0.639634,0.53252 -0.639634,0.53252 -0.357286,0.68866 -0.357286,0.68867 0.125613,0.12562 0.125613,0.12561 0.41074,-0.15762 0.41074,-0.15761 -0.0686,-0.33181 -0.0686,-0.33181 0.631537,-0.0956 0.631537,-0.0956 0.212206,0.34336 0.212207,0.34335 0.500007,-0.4525 0.500007,-0.4525 h 0.177604 0.177604 v 0.51115 0.51115 l 0.768448,0.54719 0.768448,0.54718 h 0.27427 0.274271 l 0.12565,0.20331 0.125651,0.2033 -1.068935,-0.10194 -1.068934,-0.10193 -0.130293,-0.49825 -0.130294,-0.49824 h -0.4573 -0.457301 l -0.46595,0.51487 -0.465949,0.51487 -0.943668,0.0804 -0.943668,0.0804 -0.108707,0.33091 -0.108707,0.3309 0.48513,-0.16806 0.485129,-0.16807 -0.529166,0.44909 -0.529163,0.44909 0.330725,0.13772 0.330729,0.13772 v 0.27493 0.27493 l -0.379173,-0.31468 -0.379171,-0.31469 -0.39666,0.61302 -0.39666,0.61302 -0.17889,0.7276 -0.17889,0.72761 h 0.42555 0.42556 v 0.26458 0.26458 h -0.52917 -0.52916 v 0.25955 0.25954 l 0.6699,0.16813 0.6699,0.16814 -0.44831,0.32781 -0.4483,0.32781 0.17828,0.4646 0.17828,0.46459 -0.43176,-0.16568 -0.43177,-0.16568 0.18614,0.59924 0.18613,0.59925 -0.028,0.82674 -0.028,0.82674 0.26667,0.70139 0.26667,0.70139 0.42971,0.1649 0.429705,0.16489 0.67123,0.62208 0.67123,0.62207 h 0.367549 0.367549 l -0.27216,-0.50853 -0.27216,-0.50854 -0.348203,-0.35136 -0.348203,-0.35136 -0.427001,-0.85989 -0.427,-0.8599 h 0.222255 0.222256 l 0.111045,0.33073 0.111045,0.33073 0.770899,-0.38546 0.7709,-0.38547 0.446349,-0.36806 0.446348,-0.36806 0.267981,0.16562 0.26798,0.16563 0.33337,-0.60273 0.333369,-0.60272 -0.08065,-0.39688 -0.08065,-0.39687 -0.291668,-0.35462 -0.291667,-0.35462 -0.351213,0.48031 -0.351213,0.48031 -0.465142,-0.29048 -0.465142,-0.29049 -0.826023,-0.18142 -0.826023,-0.18143 -0.173095,0.28007 -0.173093,0.28008 h -0.28945 -0.28946 l 0.56484,-0.48988 0.56484,-0.48989 -0.148916,-0.14891 -0.148916,-0.14892 0.310531,-0.58023 0.310531,-0.58023 0.306218,0.32606 0.306218,0.32606 -0.330729,0.12127 -0.330729,0.12126 v 0.22316 0.22316 l 0.8344,0.41625 0.8344,0.41625 h 0.08509 0.08509 l -0.259928,-0.68366 -0.259927,-0.68366 0.149799,-0.24238 0.1498,-0.24238 h 0.335139 0.33514 l 0.555673,-0.59531 0.555674,-0.59531 0.180588,-0.72761 0.180588,-0.7276 h 0.632776 0.632775 v 0.26458 0.26458 h 0.273892 0.273893 l -0.295329,-0.55182 -0.295329,-0.55183 0.152106,-0.15211 0.152106,-0.1521 0.52651,0.47648 0.526509,0.47649 -0.139371,0.55817 -0.139372,0.55818 0.828741,1.12549 0.828741,1.12549 0.210871,-0.13033 0.210871,-0.13032 0.137697,0.52656 0.137698,0.52655 -0.208865,-0.12908 -0.208865,-0.12909 0.08436,0.85632 0.08436,0.85633 0.01689,0.45028 0.01689,0.45029 0.961263,0.93356 0.961262,0.93357 -0.432096,0.16581 -0.432096,0.16581 v 0.44794 0.44795 l 0.28688,0.28688 0.28688,0.28688 -0.601646,0.42141 -0.601646,0.42141 0.204523,0.20452 0.204523,0.20452 0.308681,0.012 0.30868,0.012 -0.04654,0.25256 -0.04654,0.25256 -0.154906,0.3971 -0.154906,0.3971 0.796761,0.35268 0.796761,0.35267 v 0.3747 0.3747 h 0.264584 0.264583 v -0.60854 -0.60854 l -0.294446,-0.29445 -0.294447,-0.29444 0.17777,-0.28764 0.177769,-0.28764 h 0.248969 0.248968 v 1.07285 1.07285 l -0.527683,1.15834 -0.527683,1.15833 0.148846,0.38789 0.148846,0.38788 -0.269346,0.16647 -0.269346,0.16646 -0.287168,-0.53657 -0.287167,-0.53658 h -0.611142 -0.611142 l -0.464209,-0.51295 -0.464208,-0.51294 0.07985,-2.59591 0.07985,-2.59591 -0.471661,-1.38906 -0.47166,-1.38906 h -0.21329 -0.213289 l -0.150265,0.7276 -0.150265,0.72761 -0.335539,1.4552 -0.33554,1.45521 -0.404121,0.32232 -0.404122,0.32231 0.299871,0.008 0.29987,0.008 0.138666,0.53026 0.138665,0.53025 0.394597,-0.15141 0.394597,-0.15142 0.196027,0.31717 0.196028,0.31718 -0.02221,1.56609 -0.0222,1.56608 0.492133,-0.1562 0.492132,-0.15619 0.135476,0.2192 0.135476,0.21921 -0.746328,0.33035 -0.746328,0.33036 -0.162308,0.58568 -0.162309,0.58568 -0.521606,-0.66146 -0.521606,-0.66146 -0.0059,0.18669 -0.0059,0.18669 0.67661,0.99704 0.67661,0.99704 0.156206,0.13919 0.156206,0.13919 -0.146519,-0.59505 -0.146518,-0.59505 0.239744,-0.14817 0.239744,-0.14817 v 0.52314 0.52314 l -0.160599,0.41852 -0.160599,0.41851 h -0.360263 -0.360264 l 0.152295,0.39688 0.152295,0.39687 h 0.360647 0.360647 l 0.580653,-0.78538 0.580654,-0.78537 0.648863,0.70013 0.648862,0.70014 -0.428385,0.31324 -0.428386,0.31324 0.554924,1.42565 0.554924,1.42564 0.370221,0.69985 0.37022,0.69985 -0.433307,0.16627 -0.433307,0.16628 0.167866,0.16787 0.167865,0.16786 -0.294685,0.35507 -0.294684,0.35508 h -0.578492 -0.578492 l -0.437537,0.33073 -0.437536,0.33073 -0.0451,2.27977 -0.0451,2.27978 -0.323975,0.94238 -0.323975,0.94238 0.362367,0.36236 0.362366,0.36237 -0.466219,1.10593 -0.466219,1.10593 -0.358396,-0.0602 -0.358397,-0.0602 -0.435353,0.65018 -0.435354,0.65018 0.312447,-0.19148 0.312447,-0.19147 0.166189,0.2689 0.166189,0.2689 h -0.394088 -0.394088 l -0.08455,0.57458 -0.08455,0.57459 -0.358494,0.11818 -0.358494,0.11817 0.170819,-0.5382 0.170819,-0.53821 -0.251469,-0.15541 -0.251469,-0.15542 -0.420752,0.16146 -0.420752,0.16145 v 0.86943 0.86943 l 0.366619,0.14068 0.366619,0.14069 -0.1377,1.22167 -0.137699,1.22167 0.580974,0.61842 0.580975,0.61842 0.0151,1.09393 0.0151,1.09394 0.233342,0.14421 0.233342,0.14421 -0.002,0.31512 -0.002,0.31511 -1.023292,0.58422 -1.023292,0.58422 -0.165295,-0.1653 -0.165295,-0.16529 v -0.60172 -0.60175 l 0.2291,-0.14159 0.229101,-0.14159 -0.117523,-0.73392 -0.117523,-0.73392 0.281246,0.39688 0.281246,0.39687 0.0041,-0.31511 0.0041,-0.31512 -0.264583,-0.16352 -0.264584,-0.16352 -0.0046,-1.24116 -0.0046,-1.24115 -0.391249,-2.38125 -0.391248,-2.38125 -10e-4,-1.97311 -10e-4,-1.97311 -0.421865,-3.27152 -0.421866,-3.27151 0.09114,-0.0902 0.09114,-0.0902 1.190625,0.23009 1.190625,0.2301 1.397366,0.0115 1.397367,0.0115 0.153588,-0.40024 0.153588,-0.40024 -0.316961,-0.38192 -0.316962,-0.38192 0.172148,-0.27854 0.172147,-0.27854 -0.167199,-0.5268 -0.1672,-0.5268 h -0.344958 -0.344959 l -0.175491,-1.323 -0.175492,-1.32292 h -0.387762 -0.387762 v 0.26458 0.26459 h 0.292891 0.292891 l -0.194779,0.46302 -0.194779,0.46302 -0.05805,1.44505 -0.05806,1.44505 -0.966098,0.0941 -0.966098,0.0941 v -0.64688 -0.64688 l -0.403269,-0.33469 -0.403269,-0.33468 -0.172728,0.17273 -0.172729,0.17273 0.484128,0.354 0.484127,0.354 -0.202576,0.32778 -0.202576,0.32778 -0.287637,-0.28764 -0.287638,-0.28764 h -0.223265 -0.223265 l 0.07774,0.46302 0.07775,0.46302 -0.458796,-0.0768 -0.458795,-0.0768 0.130291,0.34136 0.13029,0.34136 -0.753279,0.026 -0.753284,0.026 0.12326,-1.28279 0.123263,-1.28278 h -0.550393 -0.55039 l -0.27555,0.99219 -0.27554,0.99218 -10e-4,0.22675 -10e-4,0.22674 0.40689,-0.15614 0.40689,-0.15613 0.16412,0.4277 0.16413,0.42771 -0.47052,1.88293 -0.47052,1.88294 -0.9186,3.04271 -0.91861,3.04271 -0.004,1.5875 -0.004,1.5875 -0.24548,-1.19062 -0.24549,-1.19063 -0.0477,-0.46302 -0.0477,-0.46302 -0.14174,0.004 -0.14174,0.004 -0.26459,0.19439 -0.26458,0.19438 -0.58569,1.05833 -0.58569,1.05834 -0.38914,-0.0738 -0.38915,-0.0738 -0.1373,1.13209 -0.1373,1.13209 -0.0227,0.52917 -0.0226,0.52917 0.0333,2.24895 0.0333,2.24896 0.27929,0.33713 0.27929,0.33712 -0.17629,0.17629 -0.17629,0.1763 -0.41483,-0.41482 -0.41482,-0.41483 -0.14722,-1.42151 -0.14722,-1.42151 0.0101,-5.29167 0.0101,-5.29166 0.20162,-3.41372 0.20161,-3.41371 -0.4469,-0.32678 -0.44689,-0.32678 0.38563,-1.02201 0.38564,-1.022 0.26449,-1.32292 0.2645,-1.32292 0.3111,-2.77812 0.3111,-2.77813 0.28113,-1.45521 0.28113,-1.4552 -0.0221,-0.79375 -0.0221,-0.79375 -0.60945,-2.3151 -0.60945,-2.31511 h -0.23797 -0.23797 l -1.75216,1.28722 -1.75215,1.28721 -0.39688,0.12501 -0.39687,0.125 -0.0209,0.6383 -0.0209,0.6383 -0.0453,0.72761 -0.0453,0.7276 h -0.40887 -0.40886 l 0.17373,-0.92604 0.17372,-0.92604 h -0.28899 -0.28898 l -0.15792,0.7276 -0.15792,0.72761 -0.2887,0.5953 -0.28871,0.59532 h -0.18902 -0.18901 l -0.14535,-0.55579 -0.14534,-0.55578 -0.28239,0.17452 -0.28239,0.17453 -0.0264,0.97657 -0.0264,0.97657 -0.18964,0.66146 -0.18965,0.66146 -0.44544,-0.0777 -0.44544,-0.0777 v 0.99056 0.99055 l 0.32439,-0.32439 0.3244,-0.32439 0.47615,0.6022 0.47616,0.60221 -0.1561,-0.68109 -0.1561,-0.6811 0.41376,-0.34338 0.41375,-0.34339 -0.12875,1.27242 -0.12875,1.27242 -0.268,0.268 -0.26799,0.26799 v -0.44979 -0.44979 h -0.25779 -0.25779 l -0.40367,0.78061 -0.40367,0.78061 v 11.13219 11.13219 l 0.63695,0.24216 0.63695,0.24217 0.17451,0.79452 0.1745,0.79452 0.37917,-0.1455 0.37917,-0.1455 v 0.42206 0.42206 l -0.46302,-0.0388 -0.46302,-0.0388 -0.53901,0.0419 -0.53901,0.0419 -0.0399,0.52917 -0.0399,0.52917 h 0.51272 0.51273 l 0.19844,-0.0265 0.19843,-0.0265 -0.0661,-0.23813 -0.0662,-0.23812 0.59531,0.004 0.59532,0.004 -0.37987,0.24036 -0.37986,0.24037 0.3437,0.41413 0.34369,0.41412 0.2462,-0.15215 0.24619,-0.15216 0.38192,0.31696 0.38191,0.31696 0.3703,-0.14209 0.3703,-0.1421 -0.11948,0.45688 -0.11947,0.45687 1.34004,0.36491 1.34005,0.36491 v 0.42842 0.42842 l 0.30694,0.30694 0.30694,0.30694 -0.63767,0.53092 -0.63767,0.53093 0.72761,0.009 0.7276,0.009 v -0.64483 -0.64482 l 0.99219,0.15546 0.99219,0.15545 -0.50403,-0.56896 -0.50403,-0.56897 h -0.35587 -0.35587 v -0.26458 -0.26459 h 0.20317 0.20316 l 1.00992,0.68626 1.00992,0.68626 -0.15979,0.63666 -0.15979,0.63666 h 0.13733 0.13733 l 0.48324,-0.48324 0.48323,-0.48323 0.1751,-0.4563 0.1751,-0.4563 1.52448,0.14595 1.52448,0.14595 1.852083,0.13345 1.852083,0.13344 0.872941,0.16287 0.872942,0.16286 -0.16572,-0.66028 -0.165719,-0.66028 h 0.681841 0.68184 v 0.92183 0.92182 l 0.573789,0.59616 0.57379,0.59617 0.484544,-0.12671 0.484544,-0.12671 v -0.34397 -0.34397 l 0.274717,-0.0916 0.274717,-0.0916 -0.936175,-1.02206 -0.936176,-1.02207 v -0.076 -0.0761 l 0.79375,0.29961 0.79375,0.29961 0.01791,0.40501 0.01791,0.40501 0.261706,-0.53838 0.261705,-0.53838 3.4907,-0.0556 3.4907,-0.0556 0.529167,0.2427 0.529166,0.24269 0.79375,0.19233 0.79375,0.19232 0.741404,-0.0608 0.741403,-0.0608 0.638797,0.41855 0.638797,0.41856 1.133341,-0.1174 1.133341,-0.11739 0.06615,-0.0152 0.06615,-0.0152 h 0.132292 0.132291 l 0.03557,0.19843 0.03556,0.19844 0.517644,0.36257 0.517643,0.36257 0.673498,-0.36044 0.673497,-0.36045 0.254385,-0.72973 0.254386,-0.72973 h 0.388822 0.388821 l -0.156715,-0.49377 -0.156716,-0.49376 0.296295,-2.4828 0.296295,-2.48279 0.0737,-4.49792 0.0737,-4.49792 0.434636,-2.77812 0.434637,-2.77813 0.422712,-1.65638 0.422712,-1.65639 -0.273197,-0.32918 -0.273197,-0.32918 0.339794,-1.98318 0.339793,-1.98319 -0.278144,-0.17827 -0.278144,-0.17827 0.335576,-0.40434 0.335575,-0.40435 -0.164223,-0.51742 -0.164223,-0.51742 -0.425067,-0.16311 -0.425066,-0.16312 -0.490903,0.44427 -0.490904,0.44426 v -0.51131 -0.5113 l 0.395925,-0.56526 0.395925,-0.56526 0.07502,-2.92789 0.07502,-2.92789 0.322803,-0.3228 0.322802,-0.3228 v -1.4951 -1.4951 l 0.310982,-0.89938 0.310982,-0.89937 0.416622,-0.32232 0.416623,-0.32231 -0.488429,-0.008 -0.488429,-0.008 0.142669,-1.78594 0.14267,-1.78594 0.170847,-0.66146 0.170846,-0.66145 0.1302,-0.39688 0.130199,-0.39687 0.353953,0.79375 0.353954,0.79375 0.02149,-0.56446 0.02149,-0.56445 0.530258,-0.13867 0.530259,-0.13866 -0.161691,-0.42136 -0.161691,-0.42136 h -0.534729 -0.534728 l 1.414371,-1.45521 1.414371,-1.45521 h 0.298283 0.298283 l 0.434269,-0.47986 0.43427,-0.47986 -0.233871,-0.24775 -0.23387,-0.24774 -0.100238,-1.12448 -0.100238,-1.12448 h 0.571446 0.571445 l 0.133912,0.51208 0.133912,0.51208 -0.387191,0.14858 -0.387191,0.14858 0.08709,0.45222 0.08709,0.45222 0.660069,0.15582 0.660069,0.15582 v 0.3188 0.3188 l 0.264584,-0.0173 0.264583,-0.0173 -0.07083,-0.34941 -0.07083,-0.34942 0.3971,-0.15239 0.397099,-0.15238 -0.144286,-0.376 -0.144287,-0.37601 0.407786,-0.97597 0.407786,-0.97596 0.270128,0.16694 0.270128,0.16695 -0.0041,-0.61093 -0.0041,-0.61092 -0.229209,-0.36181 -0.229209,-0.36181 -0.819752,0.60607 -0.819751,0.60607 -0.489176,-0.4427 -0.489176,-0.4427 h -0.284012 -0.284013 l -0.29498,0.84618 -0.294979,0.84618 -0.418047,-0.59685 -0.418047,-0.59684 0.345252,-1.73696 0.345252,-1.73696 -0.58415,-0.47301 -0.58415,-0.47302 v -0.27901 -0.27904 l 0.511772,-0.27389 0.511773,-0.27389 h 0.414269 0.414269 v 0.26458 0.26459 h -0.544782 -0.544781 l 0.15638,0.25302 0.15638,0.25303 0.361532,-0.13873 0.361533,-0.13873 0.01097,0.6133 0.01097,0.61331 0.04897,0.72761 0.04897,0.7276 h 0.363802 0.363802 l 5.26e-4,-0.33073 5.26e-4,-0.33073 0.769712,-0.0536 0.769711,-0.0537 0.1475,0.38438 0.1475,0.38438 h -0.785446 -0.785446 v 0.24295 0.24294 l -0.159743,0.41628 -0.159743,0.41629 0.437789,0.16799 0.437789,0.168 0.58185,-0.52764 0.58185,-0.52763 0.992187,-0.15066 0.992188,-0.15067 v 0.24795 0.24795 h 0.396875 0.396875 v -0.22211 -0.22212 l -0.640651,-0.2919 -0.640651,-0.2919 0.127231,-0.48653 0.127231,-0.48653 1.453454,0.26626 1.453454,0.26626 -0.477013,0.32839 -0.477013,0.32838 -0.346611,0.29888 -0.346611,0.29887 0.171997,1.37662 0.171997,1.37662 -0.713389,0.32504 -0.71339,0.32504 0.17855,0.98505 0.17855,0.98506 0.577161,0.45713 0.577162,0.45714 -0.176798,0.006 -0.176798,0.006 -0.418514,0.1606 -0.418515,0.1606 v -0.42518 -0.42518 h -0.269624 -0.269624 l 0.166015,-0.66146 0.166016,-0.66146 -0.227121,9.9e-4 -0.22712,9.9e-4 -0.868781,0.52969 -0.868781,0.52969 -0.163623,0.46151 -0.163623,0.4615 -0.397666,0.46303 -0.397665,0.46302 h 0.30559 0.305591 v 0.39687 0.39688 h -0.41249 -0.41249 l 0.198041,0.32043 0.198041,0.32044 0.0017,1.00248 0.0017,1.00248 h 0.230588 0.230588 l -0.167951,0.52917 -0.167951,0.52916 h 0.282413 0.282413 v -0.26458 -0.26458 h 0.29698 0.29698 l -0.294684,0.35507 -0.294685,0.35507 0.167699,0.1677 0.1677,0.1677 -0.325065,0.39168 -0.325064,0.39168 0.171126,0.27689 0.171127,0.27689 0.53577,-0.28674 0.53577,-0.28673 0.123889,0.12388 0.123889,0.12389 -0.5131,0.84373 -0.513101,0.84372 0.411971,0.83976 0.411971,0.83976 0.272676,0.18098 0.272677,0.18098 0.21107,-0.13045 0.211071,-0.13044 v -0.38126 -0.38126 h -0.529167 -0.529167 v -0.4867 -0.4867 l 0.603357,-0.27491 0.603356,-0.2749 0.983774,-2.01652 0.983774,-2.01652 h 0.150055 0.150056 l 0.511772,0.27389 0.511773,0.27389 v 0.65474 0.65474 l 0.505932,0.43319 0.505933,0.43319 -0.137365,0.35797 -0.137365,0.35797 h 0.238015 0.238015 l 0.31545,1.17943 0.31545,1.17943 -0.155734,0.40584 -0.155734,0.40584 0.446841,0.17147 0.446841,0.17147 -0.171111,0.9121 -0.171111,0.9121 0.545471,-0.17313 0.545472,-0.17313 v 0.4826 0.48256 l -0.29041,0.9243 -0.290409,0.92429 0.02378,3.12603 0.02378,3.12604 -0.527119,-0.1673 -0.527118,-0.1673 v 0.17385 0.17386 l 0.468618,0.43928 0.468618,0.43929 -0.256951,-0.19844 -0.256952,-0.19843 h -0.452994 -0.452993 l -0.176919,1.04717 -0.176919,1.04718 0.171492,0.54032 0.171492,0.54033 h -0.282412 -0.282413 v 0.31749 0.3175 l 0.3175,-0.3175 0.3175,-0.31749 h 0.290806 0.290807 l 0.296019,0.85989 0.296018,0.8599 0.174364,0.85686 0.174364,0.85686 0.273141,0.16881 0.273141,0.16881 -0.190119,-1.1253 -0.190118,-1.1253 0.293496,0.18139 0.293497,0.18139 v 1.19341 1.19341 l -0.575903,-0.0845 -0.575904,-0.0846 -0.388056,-1.64021 -0.388055,-1.64021 -0.530374,-0.0796 -0.530374,-0.0796 -0.189915,-0.39688 -0.189915,-0.39687 -0.697002,-1.52722 -0.697002,-1.52721 v -0.38033 -0.38032 l -1.079565,-1.10138 -1.079566,-1.10137 -0.346211,0.66732 -0.346211,0.66733 -0.174377,1.68013 -0.174377,1.68013 -0.0554,0.79375 -0.0554,0.79375 -0.222449,0.3474 -0.22245,0.3474 0.481515,0.53207 0.481515,0.53207 -0.257159,-0.0509 -0.257158,-0.0509 -0.230835,0.0313 -0.230834,0.0313 0.28757,0.3465 0.28757,0.3465 -0.194512,0.72731 -0.194513,0.72731 -0.570107,-0.61079 -0.570107,-0.61079 -0.09187,-0.92604 -0.09187,-0.92604 -0.466141,1.04634 -0.46614,1.04635 0.164102,0.74715 0.164103,0.74715 -0.221121,-0.0389 -0.221121,-0.0389 -0.208744,0.0313 -0.208744,0.0313 0.519209,0.55731 0.519209,0.55731 0.284848,-0.17605 0.284847,-0.17605 0.330729,0.20951 0.33073,0.2095 1.653645,0.0267 1.653646,0.0267 v -0.22061 -0.22061 h 0.364478 0.364479 l 0.332276,-0.40037 0.332276,-0.40037 0.295433,0.0615 0.295433,0.0615 0.715969,-0.4777 0.715969,-0.47771 0.310195,0.19171 0.310196,0.19171 -0.45007,0.25187 -0.45007,0.25187 0.163042,0.96829 0.163042,0.96829 -0.302276,2.77812 -0.302277,2.77813 -0.07306,0.7276 -0.07306,0.7276 -0.03307,1.20624 -0.03307,1.20624 -0.264584,-0.16352 -0.264583,-0.16352 v -1.2749 -1.27491 l -0.423125,-0.35116 -0.423125,-0.35116 0.148119,-1.86405 0.14812,-1.86405 0.01042,-0.31183 0.01042,-0.31183 0.405521,-0.40552 0.40552,-0.40552 -0.317037,-0.50766 -0.317037,-0.50765 -0.551504,0.69584 -0.551504,0.69584 -0.490774,0.88155 -0.490774,0.88156 -0.03839,1.10282 -0.03839,1.10282 -0.497559,0.41405 -0.497559,0.41405 0.02547,1.26888 0.02547,1.26887 0.674708,0.88459 0.674707,0.88459 0.160567,0.80283 0.160566,0.80283 -0.435429,0.66455 -0.435429,0.66455 h 0.244351 0.244351 l -0.08384,0.90211 -0.08384,0.90211 -0.221619,0.48695 -0.22162,0.48696 0.03909,0.52916 0.03909,0.52917 0.02813,1.52135 0.02812,1.52136 h 0.352165 0.352166 l 0.356863,0.6668 0.356863,0.66681 -0.299487,0.29948 -0.299487,0.29949 -0.31972,-0.70171 -0.319719,-0.70171 h -0.167399 -0.167399 l -0.253152,0.8599 -0.253153,0.85989 -0.595312,-0.021 -0.595313,-0.021 v 0.21945 0.21945 h 0.294614 0.294613 l -0.119116,0.81158 -0.119116,0.81159 0.684398,-0.16885 0.684399,-0.16885 -0.330729,0.33622 -0.330729,0.33622 v 0.74084 0.74083 l 0.859895,0.004 0.859896,0.004 -0.372881,0.23605 -0.372882,0.23605 -0.354723,-0.13612 -0.354722,-0.13612 v 0.25982 0.25982 l 0.843359,0.16867 0.84336,0.16867 0.272603,-0.2726 0.272603,-0.27261 -0.479769,-0.89087 -0.479769,-0.89088 0.09141,-0.47155 0.09141,-0.47155 0.34227,-0.11397 0.342269,-0.11396 -0.168422,0.67105 -0.168423,0.67105 0.454745,0.76982 0.454744,0.76982 2.546409,0.43936 2.546411,0.43936 1.32291,0.13968 1.32292,0.13968 1.91823,0.29237 1.91823,0.29238 v 0.11376 0.11376 l -0.37797,0.37798 -0.37798,0.37797 h -0.73327 -0.73328 l 0.27359,0.27359 0.27358,0.27358 1.43298,0.23189 1.43298,0.23189 0.24268,-0.23222 0.24268,-0.23221 -0.44112,-0.16928 -0.44112,-0.16927 v -0.24282 -0.24283 l 0.69022,-0.26242 0.69021,-0.26242 -0.25795,-0.32634 -0.25796,-0.32634 0.0867,-0.66146 0.0867,-0.66146 0.1761,-2.17559 0.17609,-2.17559 -0.43045,-0.90711 -0.43045,-0.9071 v -0.28367 -0.28353 l -0.50867,-1.13156 -0.50867,-1.13155 -0.44358,-1.5875 -0.44358,-1.5875 -0.51088,-0.72761 -0.51088,-0.7276 h 0.26033 0.26033 l -0.6467,-1.38906 -0.6467,-1.38907 -0.003,-0.57969 -0.003,-0.5797 0.23479,-0.14511 0.2348,-0.14512 0.0423,-2.45019 0.0423,-2.45019 0.0536,-0.51825 0.0536,-0.51825 -1.03672,-0.17494 -1.03672,-0.17494 -0.30943,-0.42317 -0.30943,-0.42317 0.10154,-3.51385 0.10154,-3.51384 0.25242,-1.10935 0.25242,-1.10935 v -0.63098 -0.63097 l 0.66843,-1.64499 0.66842,-1.64499 -0.50145,-1.64177 -0.50144,-1.64177 -0.18889,-1.29481 -0.1889,-1.29481 0.48163,-1.68175 0.48164,-1.68175 h 0.15592 0.15591 l -0.10835,-0.73825 -0.10835,-0.73826 0.80005,-2.33696 0.80005,-2.33696 0.50481,-0.56281 0.50481,-0.5628 0.61233,-1.2973 0.61233,-1.2973 0.0574,-0.9454 0.0574,-0.94539 0.49469,-0.006 0.49469,-0.006 1.53949,-0.88968 1.53949,-0.88969 -0.6039,-0.64282 -0.60389,-0.64282 -0.46669,0.60647 -0.46669,0.60646 -0.006,-0.41929 -0.006,-0.41928 -0.7276,-0.68862 -0.72761,-0.68862 -0.3858,-0.46124 -0.3858,-0.46123 0.31966,-0.10656 0.31965,-0.10655 v -0.24225 -0.24253 h -0.63103 -0.63103 l -0.43562,0.66484 -0.43562,0.66485 0.69853,0.26558 0.69854,0.26558 -0.33305,0.40131 -0.33306,0.4013 -0.57265,-0.53798 -0.57265,-0.53798 h -0.44597 -0.44597 v -0.22358 -0.22357 l 0.52917,-0.47889 0.52916,-0.47889 v -0.50192 -0.50193 l -0.79375,-0.2767 -0.79375,-0.2767 v -0.4774 -0.47741 l 0.79375,-0.2767 0.79375,-0.2767 v 0.22251 0.22251 l -0.44385,0.17033 -0.44385,0.17032 0.44126,0.44126 0.44127,0.44126 0.39104,-0.51713 0.39105,-0.51713 0.008,-0.46302 0.008,-0.46302 h 0.22049 0.22048 l 0.14534,0.14533 0.14533,0.14534 -0.23867,1.06224 -0.23867,1.06223 0.15349,0.24836 0.15349,0.24835 0.5302,-0.28375 0.53019,-0.28375 -0.29875,-0.35998 -0.29875,-0.35997 0.55172,-0.29527 0.55171,-0.29527 0.25912,0.16014 0.25912,0.16015 v -0.42409 -0.42409 l -0.43558,0.0778 -0.43557,0.0777 -0.1297,-0.37289 -0.12969,-0.37289 0.45461,0.17445 0.45462,0.17445 h 0.37524 0.37523 v 0.39688 0.39687 h 0.26459 0.26458 l 0.0307,-0.46302 0.0307,-0.46302 0.12674,0.49282 0.12674,0.49282 1.03319,-0.16522 1.03319,-0.16521 v 0.29857 0.29856 l 0.52954,-0.13847 0.52953,-0.13848 -0.16949,0.27424 -0.16948,0.27423 0.36756,-0.13086 0.36755,-0.13087 0.46302,0.23814 0.46302,0.23814 v 0.26904 0.26904 l -0.79933,0.27865 -0.79934,0.27865 -0.24449,0.45685 -0.2445,0.45684 -0.8744,-0.0797 -0.87439,-0.0797 -1.26284,-0.10332 -1.26284,-0.10333 0.17123,0.55824 0.17123,0.55825 0.11145,0.12228 0.11146,0.12227 0.49708,-0.31043 0.49709,-0.31044 0.87994,0.43985 0.87995,0.43986 0.52916,0.0428 0.52917,0.0428 0.18026,-0.28065 0.18026,-0.28065 0.32474,0.71273 0.32474,0.71273 -0.43885,0.48493 -0.43886,0.48493 v 0.62803 0.62803 l 0.84565,0.87249 0.84566,0.87249 h 0.3131 0.3131 l 0.89677,1.12448 0.89678,1.12448 0.30442,0.66146 0.30441,0.66146 0.55047,2.13468 0.55047,2.13469 v 0.94406 0.94407 l 0.64373,1.94833 0.64372,1.94833 0.30437,1.16852 0.30438,1.16851 -0.3087,1.10256 -0.30869,1.10254 0.33763,1.16852 0.33763,1.16852 0.046,1.65364 0.046,1.65365 -0.29544,0.0106 -0.29545,0.0106 0.72761,0.39473 0.7276,0.39473 v 0.15253 0.15252 l -0.63126,-0.15844 -0.63127,-0.15843 -0.15253,0.5833 -0.15254,0.58331 0.29381,0.18159 0.29382,0.18159 -0.92641,0.81339 -0.92641,0.8134 0.49675,1.47141 0.49674,1.47141 -0.17575,1.71544 -0.17575,1.71543 -0.88898,0.42185 -0.88897,0.42184 v 0.37032 0.37032 l -0.3241,0.51897 -0.32411,0.51898 0.32411,0.3241 0.3241,0.3241 v 3.40557 3.40556 l 0.39764,0.39764 0.39763,0.39763 0.16569,-0.43176 0.16568,-0.43177 0.31205,0.61055 0.31205,0.61054 0.51369,-0.0913 0.5137,-0.0913 0.85989,0.025 0.8599,0.025 0.008,-1.12432 0.008,-1.12432 0.2968,0.51148 0.29681,0.51148 0.057,1.00987 0.057,1.00988 h -0.22954 -0.22954 v -0.26459 -0.26458 h -0.26459 -0.26458 v 0.39688 0.39687 h -1.05833 -1.05834 v 0.27618 0.27619 l -0.43557,-0.0778 -0.43557,-0.0777 -0.12902,0.37085 -0.12901,0.37085 0.49844,-0.1424 0.49844,-0.14239 0.46302,-0.19062 0.46302,-0.19062 v 0.39434 0.39434 l -0.70918,0.13557 -0.70919,0.13557 -0.54759,-0.30316 -0.54758,-0.30317 -0.12463,-0.0805 -0.12463,-0.0805 0.38155,-0.23581 0.38155,-0.23581 -0.1529,-0.1529 -0.15291,-0.15291 -0.3686,0.14118 -0.36859,0.14118 -0.0398,2.57703 -0.0398,2.57702 -0.18806,3.13527 -0.18805,3.13527 -0.35394,0.68222 -0.35394,0.68222 0.13582,0.21977 0.13583,0.21978 -0.1672,0.5268 -0.1672,0.5268 h -0.27506 -0.27506 l 0.14905,-0.3884 0.14904,-0.38841 -0.26588,-0.16432 -0.26587,-0.16432 0.30703,-0.36995 0.30703,-0.36995 -0.15359,-0.40024 -0.15359,-0.40025 h 0.25628 0.25628 v -0.77813 -0.77814 l -0.26458,-0.16352 -0.26458,-0.16352 v -0.24897 -0.24897 h 0.38066 0.38066 l 0.1865,-1.24366 0.1865,-1.24368 -0.33351,-1.67788 -0.33351,-1.67788 0.44398,-0.49059 0.44398,-0.49059 -0.3469,-0.11413 -0.3469,-0.11414 -0.31778,-2.3607 -0.31777,-2.3607 0.10448,1.92466 0.10448,1.92466 -0.24973,-0.15434 -0.24973,-0.15434 v 0.5604 0.56039 l 0.26459,-0.16352 0.26458,-0.16352 -0.004,2.85989 -0.004,2.85988 -0.15954,0.59532 -0.15953,0.59531 h -0.21709 -0.21709 l 0.14808,-0.91252 0.14808,-0.91251 -0.4647,-0.4647 -0.46469,-0.46469 0.56678,-0.37633 0.56679,-0.37633 -0.65195,-0.60421 -0.65196,-0.60421 0.22845,-0.79654 0.22845,-0.79655 -0.0904,-0.97275 -0.0904,-0.97275 -0.41435,-0.45785 -0.41436,-0.45785 v -0.3099 -0.30989 h -0.55747 -0.55747 l 0.11508,-0.33073 0.11508,-0.33073 -0.48365,-0.46302 -0.48365,-0.46302 v 0.24735 0.24736 l 0.25804,0.67869 0.25803,0.67868 h 0.37258 0.37258 l 0.12533,0.65563 0.12533,0.65562 -0.4714,0.14962 -0.4714,0.14962 0.4809,1.11298 0.4809,1.11299 0.17843,0.59531 0.17842,0.59531 h -0.29802 -0.29803 l 0.15222,-0.2463 0.15222,-0.2463 -0.25061,-0.15489 -0.25062,-0.15489 -0.12574,0.20345 -0.12573,0.20344 0.36805,1.05764 0.36805,1.05764 0.004,0.19844 0.004,0.19844 h -0.46686 -0.46687 l -0.11325,1.65364 -0.11326,1.65365 -0.0152,1.47592 -0.0152,1.47592 0.7464,0.97846 0.7464,0.97847 0.0698,0.65489 0.0698,0.65489 0.21839,0.19802 0.21838,0.19801 -0.17903,-0.31245 -0.17902,-0.31244 0.30919,-0.19109 0.3092,-0.1911 -0.17572,1.09885 -0.17571,1.09886 h 0.26771 0.26771 v -0.48816 -0.48816 l 0.52917,-0.47889 0.52916,-0.47889 v 0.33089 0.33089 l -0.54718,0.76845 -0.54718,0.76845 h -0.76012 -0.76012 l -0.16352,-0.26458 -0.16352,-0.26459 h -0.52186 -0.52186 l -0.15229,0.39688 -0.1523,0.39687 h -1.03002 -1.03003 v -0.28019 -0.2802 l 0.26459,0.16352 0.26458,0.16352 v -0.38163 -0.38163 l 0.52917,-0.13838 0.52916,-0.13838 v -0.42165 -0.42164 h -0.26717 -0.26717 l -0.44148,0.51561 -0.44149,0.51561 -0.20583,-0.12721 -0.20583,-0.12721 0.15207,-0.39629 0.15207,-0.39629 -0.67597,0.6021 -0.67596,0.6021 0.38005,0.21268 0.38005,0.21269 v 0.25144 0.25143 h -1.16858 -1.16858 l -0.10684,-0.32054 -0.10685,-0.32054 -0.64281,-0.0275 -0.6428,-0.0275 -10.296706,-0.0488 -10.296701,-0.0489 0.178099,-0.1781 0.1781,-0.1781 1.71227,-0.0366 1.712271,-0.0366 0.169322,-0.16932 0.169323,-0.16932 -0.626533,-0.11996 -0.626533,-0.11995 -1.816512,-0.32459 -1.816511,-0.32459 -7.179322,0.20437 -7.179321,0.20437 -3.571875,-0.0752 -3.571875,-0.0752 -2.116667,-0.0541 -2.116667,-0.0541 -0.46302,-0.0403 -0.463021,-0.0403 0.06615,-0.29765 0.06615,-0.29766 -0.330729,-0.12127 -0.330729,-0.12126 v 0.39024 0.39024 l -0.595312,0.1281 -0.595313,0.1281 -0.79375,-0.0653 -0.79375,-0.0653 -0.322425,-0.0341 -0.322425,-0.0341 0.144028,-0.37533 0.144029,-0.37533 -1.409103,-0.15509 -1.4091,-0.1551 -1.03046,-0.0649 -1.03045,-0.0649 -0.10485,0.29704 -0.10484,0.29704 0.60613,0.16237 0.60613,0.16236 1.52136,0.004 1.521351,0.004 v 0.25116 0.25117 l -6.680731,-0.0808 -6.68073,-0.0808 -1.65364,0.13248 -1.65365,0.13248 v 1.41695 1.41694 l 27.185939,-0.0264 27.185937,-0.0264 z m -11.35013,-1.43806 0.115148,-0.11515 1.18572,-0.13966 1.185721,-0.13966 1.322916,0.22369 1.322917,0.22368 -2.623785,0.0311 -2.623784,0.0311 z m 36.141567,-2.16912 -0.17555,-0.17555 0.11997,-0.55603 0.11996,-0.55603 0.11822,-1.85097 0.11823,-1.85098 -0.273,-0.32894 -0.27299,-0.32894 0.17427,-0.92894 0.17427,-0.92894 h 0.22961 0.22961 l -0.30683,0.81288 -0.30682,0.81287 0.48347,0.27057 0.48348,0.27056 -0.16566,1.23167 -0.16567,1.23166 -0.021,1.22838 -0.021,1.22838 -0.18352,0.29695 -0.18353,0.29695 z m 14.15813,-13.44161 -0.29372,-0.64463 0.44968,-0.0963 0.44968,-0.0962 0.59532,0.62222 0.59531,0.62221 v 0.11866 0.11866 h -0.75128 -0.75128 z m 4.26604,0.46083 -0.57295,-0.11173 -0.13486,-0.35146 -0.13487,-0.35146 0.50937,0.13321 0.50937,0.1332 v -0.61294 -0.61294 l 0.24586,0.25135 0.24586,0.25136 0.1797,0.7276 0.1797,0.7276 -0.22712,-0.036 -0.22712,-0.036 z m -75.582967,-0.52176 -0.176389,-0.17639 v -0.22049 -0.22048 h 0.396875 0.396875 v -0.30868 -0.30868 l 0.15645,0.15645 0.156449,0.15645 -0.174279,0.5491 -0.17428,0.54911 h -0.202656 -0.202656 z m 65.241837,-0.0103 -0.59531,-0.11466 v -0.20518 -0.20517 l 0.52365,-0.4739 0.52365,-0.4739 0.11561,0.36675 0.11561,0.36674 -0.0219,0.46302 -0.0219,0.46302 -0.022,-0.036 -0.0221,-0.036 z m -47.817388,-1.65558 -0.162809,-0.26343 0.303827,-0.5677 0.303828,-0.56771 -0.336088,-0.62799 -0.336088,-0.62799 0.169385,-0.16938 0.169385,-0.16939 0.271986,0.71538 0.271985,0.71538 v 0.76091 0.76091 l -0.246301,0.15222 -0.246301,0.15222 z m 23.265164,-2.00991 0.76916,-0.31439 0.812104,0.0699 0.81211,0.0699 0.7276,0.029 0.72761,0.029 v 0.2548 0.2548 l -2.30887,-0.0393 -2.308874,-0.0393 z m 36.656914,-1.16657 v -0.25628 l -0.39687,0.1523 -0.39688,0.15229 v -0.42518 -0.42518 h 0.66146 0.66146 v 0.52917 0.52916 h -0.26458 -0.26459 z m -16.81932,-3.0807 -0.17776,-1.18538 0.16417,-0.16417 0.16416,-0.16416 v 0.54087 0.54086 l 0.38483,0.31938 0.38483,0.31938 -0.25254,-0.88054 -0.25253,-0.88055 0.008,-0.53092 0.008,-0.53091 0.40025,0.52917 0.40026,0.52916 -0.15777,0.62975 -0.15778,0.62975 0.54286,-0.14196 0.54285,-0.14196 v 0.20742 0.20742 l -0.39688,0.32937 -0.39687,0.32938 v 0.30817 0.30818 l -0.51558,0.0388 -0.51557,0.0388 z m 5.90526,0.5385 -0.19844,-0.20013 v -0.35278 -0.35277 h 0.30156 0.30156 l 0.35149,-0.46302 0.35148,-0.46303 0.008,0.59532 0.008,0.59531 h -0.37748 -0.37747 l -0.0855,0.42061 -0.0855,0.42061 z m -29.946234,-0.97183 0.185782,-0.59531 0.295069,-0.19147 0.295068,-0.19147 0.08799,0.40262 0.08799,0.40261 -0.318828,0.38417 -0.318829,0.38416 h -0.250016 -0.250016 z m 33.977514,-1.3073 -0.004,-0.34634 -0.15163,-0.66146 -0.15163,-0.66146 0.24254,0.33969 0.24255,0.33969 0.44186,-0.16956 0.44187,-0.16956 v 0.29289 0.29289 h -0.26458 -0.26459 v 0.38126 0.38126 l -0.26458,0.16352 -0.26458,0.16352 z m -55.752711,-1.03421 -0.04185,-0.55558 -0.477475,-0.36205 -0.477475,-0.36205 0.579697,-0.008 0.579698,-0.008 0.197484,0.31954 0.197485,0.31953 0.06466,0.60651 0.06466,0.6065 h -0.322521 -0.322521 z m 56.020911,-0.84294 v -0.45357 h -0.26458 -0.26459 v -0.28241 -0.28242 l 0.59531,0.18299 0.59532,0.18299 0.11654,0.10573 0.11654,0.10572 -0.44727,0.44727 -0.44727,0.44727 z m -2.96154,-1.74025 -0.12181,-0.82999 h 0.24744 0.24744 l -0.16052,-0.63956 -0.16052,-0.63956 0.25814,-0.088 0.25814,-0.088 0.17135,-0.85989 0.17136,-0.8599 h -0.29766 -0.29765 v 0.52917 0.52916 h -0.39688 -0.39687 v 0.26459 0.26458 h -0.39688 -0.39687 v 0.41249 0.41249 l -0.23408,-0.14467 -0.23408,-0.14466 0.0849,-0.86314 0.0849,-0.86313 0.0169,-0.0985 0.0169,-0.0985 0.35895,0.2979 0.35895,0.2979 -0.0282,-0.86082 -0.0282,-0.86082 -0.24169,-0.17463 -0.24169,-0.17464 1.10009,0.0424 1.10009,0.0423 0.002,0.56304 0.001,0.56304 0.47786,0.363 0.47787,0.363 -0.10449,1.65365 -0.10449,1.65364 h -0.49252 -0.49252 l -0.24238,0.43311 -0.24238,0.43312 z m 3.22612,-0.53039 v -0.52538 l -0.46302,-0.121 -0.46302,-0.121 0.7276,-0.0307 0.72761,-0.0307 v 0.51355 0.51356 l -0.26458,0.16352 -0.26459,0.16352 z m -53.746914,-1.67421 -0.09579,-1.93268 0.134362,-2.38125 0.134362,-2.38125 0.183047,0.79375 0.183047,0.79375 -0.06364,3.36221 -0.06364,3.3622 -0.157974,0.15797 -0.157974,0.15798 z m 47.188284,1.484 -0.25134,-0.44913 0.12374,-0.47318 0.12374,-0.47318 0.47005,0.0354 0.47005,0.0354 v 0.6027 0.60269 l -0.34245,0.28421 -0.34244,0.2842 z m 9.62044,-0.82391 -0.71452,-0.71452 0.12964,-0.49574 0.12963,-0.49574 -0.50353,-0.50353 -0.50353,-0.50353 -0.40287,0.1546 -0.40288,0.1546 v -0.24879 -0.2488 l 0.19844,-0.19916 0.19844,-0.19917 v -1.35783 -1.35784 l 0.91678,-0.0465 0.91678,-0.0465 -0.48026,0.35117 -0.48025,0.35118 0.1744,0.28218 0.1744,0.28219 h 0.38126 0.38126 v 0.26458 0.26459 h -0.24568 -0.24569 l -0.42837,-0.42838 -0.42837,-0.42837 -0.11252,0.11252 -0.11253,0.11252 0.2717,0.98399 0.27169,0.98399 0.47124,0.29429 0.47124,0.29429 -0.11949,0.62508 -0.11949,0.62507 h 0.29543 0.29543 v 0.60854 0.60854 l 0.3175,0.3175 0.3175,0.3175 h -0.14913 -0.14913 z m 1.17153,-1.00527 v -0.39687 h -0.26459 -0.26458 v -0.26459 -0.26458 h 0.52917 0.52916 v 0.66146 0.66146 h -0.26458 -0.26458 z m -10.96757,-0.19843 -0.20155,-0.46303 0.17483,-0.4556 0.17484,-0.45561 0.21943,0.35506 0.21944,0.35506 0.2777,-0.49477 0.27771,-0.49476 0.1247,0.39687 0.1247,0.39688 0.14612,0.45455 0.14612,0.45454 -0.25303,0.15638 -0.25303,0.15638 v -0.41249 -0.41249 h -0.37747 -0.37748 l -0.11074,0.46302 -0.11075,0.46302 z m 6.97902,-0.1323 -0.37208,-0.59531 h -0.4499 -0.44991 l -0.20661,-0.33073 -0.20662,-0.33073 -0.056,-0.37039 -0.056,-0.37039 -0.25962,-0.16045 -0.25962,-0.16045 0.3531,-0.48289 0.3531,-0.48289 0.0874,0.61686 0.0874,0.61685 0.39687,0.0151 0.39688,0.0151 0.4677,0.21342 0.46771,0.21342 -0.0464,0.30063 -0.0464,0.30062 0.19898,0.45429 0.19898,0.4543 -0.1134,0.33945 -0.11339,0.33946 z m -0.60724,-4.82864 -0.39591,-0.92604 0.37288,-0.38113 0.37288,-0.38113 0.19472,0.19473 0.19473,0.19472 -0.33905,0.5429 -0.33905,0.54289 0.12797,0.12797 0.12796,0.12796 0.55183,-0.29533 0.55183,-0.29533 v -1.10198 -1.10194 l 0.27457,0.27458 0.27457,0.27457 -0.17609,1.10126 -0.1761,1.10126 h -0.34992 -0.34991 l -0.261,0.46302 -0.261,0.46302 z m -3.86867,-1.05137 -0.39466,-0.24951 0.34499,-0.34175 0.345,-0.34175 0.26436,0.46859 0.26437,0.46858 0.23827,-0.14726 0.23827,-0.14726 -0.10435,-1.04893 -0.10435,-1.04893 h 0.24165 0.24166 l 0.16997,0.67724 0.16998,0.67724 0.36423,-0.13977 0.36423,-0.13977 v 0.38858 0.38857 h 0.26459 0.26458 v 0.40618 0.40618 l -0.55757,-0.2984 -0.55758,-0.2984 -0.28909,0.28909 -0.28909,0.2891 -0.5424,-0.004 -0.5424,-0.004 z m 0.14716,-1.54065 -0.16778,-0.52863 -0.51572,0.13487 -0.51571,0.13486 -0.65807,-0.16517 -0.65807,-0.16516 -0.29313,-0.54773 -0.29314,-0.54772 0.48102,-0.35173 0.48102,-0.35173 0.22279,0.13769 0.2228,0.1377 -0.15406,0.6138 -0.15406,0.61381 0.89964,-0.0474 0.89963,-0.0474 -0.12117,-0.19844 -0.12117,-0.19843 h 0.28587 0.28587 l 0.30465,0.66863 0.30465,0.66864 -0.28404,0.28404 -0.28404,0.28404 z M 63.955437,205.3452 v -0.24881 l -0.859896,-0.86374 -0.859896,-0.86375 1.12448,0.61649 1.124479,0.61649 v 0.33254 0.33254 l -0.264584,0.16352 -0.264583,0.16352 z m 64.626703,-1.58748 0.0417,-1.04651 0.31005,0.11898 0.31006,0.11898 -0.0414,0.82409 -0.0414,0.82409 -0.31035,0.10344 -0.31034,0.10345 z m 1.4566,0.48213 -0.19483,-0.66145 0.004,-0.92605 0.004,-0.92604 0.27159,0.46642 0.27158,0.46641 -0.0812,1.12109 -0.0812,1.12108 z m -5.74989,-0.46302 0.008,-0.19843 0.35149,-0.46302 0.35148,-0.46303 h 0.16927 0.16927 v 0.28349 0.28348 l -0.37798,0.37798 -0.37797,0.37797 h -0.15119 -0.1512 z m -84.402084,-1.4552 -0.008,-1.52136 h 0.23372 0.23373 l 0.15953,0.59531 0.15954,0.59532 0.004,0.41245 0.004,0.41245 -0.38846,0.51359 -0.38846,0.51359 z m 88.032814,-4.83005 -0.12554,-0.6567 0.35987,-0.29866 0.35986,-0.29866 v 0.81054 0.81053 l -0.23433,0.14482 -0.23432,0.14482 z m -2.41338,-1.06079 -0.16743,-0.43629 v -0.37528 -0.37523 h 0.24676 0.24675 l 0.1764,0.5558 0.17641,0.5558 -0.25574,0.25573 -0.25573,0.25574 z m 0.0972,-2.77427 v -1.32291 l 0.33072,-2e-4 0.33073,-2e-4 -0.0482,1.12468 -0.0482,1.12468 -0.018,0.19843 -0.018,0.19844 h -0.26458 -0.26458 z m -71.000066,-1.44078 -0.698164,-0.64704 0.25518,-0.15771 0.255181,-0.15771 0.668931,0.4383 0.668932,0.4383 v 0.36645 0.36644 h -0.225948 -0.225949 z m 46.029776,-3.28543 -0.44605,-0.49288 -0.12087,-1.42535 -0.120858,-1.42535 0.413528,1.19063 0.41352,1.19062 0.2262,0.72761 0.22621,0.7276 h -0.0728 -0.0728 z m -47.643434,-0.27755 -0.15,-0.24271 0.33238,-0.11186 0.332379,-0.11186 -0.363129,-0.4399 -0.36312,-0.43991 h 0.29698 0.296978 v 0.20446 0.20445 h 1.058333 1.058333 v -0.24855 -0.24855 l 0.153729,0.15373 0.153728,0.15373 -0.295329,0.55182 -0.295329,0.55183 H 54.93472 54.663831 l 0.198695,-0.33073 0.198696,-0.33073 -0.447664,0.36313 -0.447664,0.36313 v -0.17404 -0.174 l -0.51311,0.27461 -0.513108,0.27461 z m 37.159551,-3.35942 v -0.79609 l 0.394834,-0.51359 0.394835,-0.51359 -0.114968,1.02982 -0.114968,1.02982 -0.279867,0.27986 -0.279866,0.27987 z m -10.966486,-0.34586 -0.1498,-0.24238 0.259928,-0.68366 0.259927,-0.68367 h 0.13884 0.138841 v 0.92605 0.92604 H 79.581468 79.3325 Z m 0.327623,-5.0431 -0.11559,-0.78757 0.270768,-0.27077 0.270768,-0.27076 h 0.376355 0.376355 l -0.338683,0.40808 -0.338683,0.40809 0.306286,0.30629 0.306287,0.30628 v 0.34396 0.34396 H 80.12509 79.625954 Z m 11.02459,-5.58048 -0.17467,-0.28262 -0.370112,0.14203 -0.370112,0.14202 v -0.38857 -0.38857 l -0.198438,-0.002 -0.198437,-0.002 -0.305836,-0.65939 -0.305836,-0.6594 h 1.165732 1.165732 v 0.16927 0.16927 l -0.442745,0.32374 -0.442745,0.32375 0.707328,0.46346 0.707328,0.46346 v 0.23415 0.23415 h -0.38126 -0.38126 z m 23.951366,69.92812 -0.005,-0.45695 -0.65943,-0.62554 -0.65943,-0.62553 -0.15843,-0.63124 -0.15843,-0.63124 h -0.26421 -0.26421 l 0.18599,0.46302 0.18598,0.46303 0.13521,0.33072 0.13522,0.33073 h -0.55747 -0.55748 v 0.36448 0.36448 l 0.39396,0.32696 0.39397,0.32696 -0.10242,0.16846 -0.10241,0.16846 1.03137,0.0601 1.03137,0.0601 z m -67.927194,-0.35685 0.7276,0.0109 v -0.40182 -0.40183 l -3.77031,0.0392 -3.77031,0.0391 -1.12448,-0.19068 -1.12448,-0.19068 v 0.43171 0.43171 h -0.26459 -0.26458 v 0.24136 0.24135 l 4.43177,-0.1306 4.43177,-0.1306 z m 2.24908,-0.29854 -0.11012,-0.33073 -0.4411,-0.0855 -0.44109,-0.0855 v 0.41627 0.41628 h 0.55121 0.55122 z m 30.233531,-4.30481 0.579597,-0.61696 -0.187925,-0.30407 -0.187924,-0.30407 -0.604017,0.56745 -0.604017,0.56745 -0.360258,-0.0497 -0.360258,-0.0497 -0.610927,0.0314 -0.610928,0.0313 0.174981,0.28312 0.174981,0.28313 0.55837,0.20655 0.558371,0.20656 0.450179,-0.11773 0.450179,-0.11772 z m 12.063896,0.0603 -0.467649,-0.34196 0.01209,-5.80961 0.01209,-5.8096 0.143966,-2.64584 0.143967,-2.64583 -0.271373,-3.175 -0.271373,-3.175 -0.158504,-0.8599 -0.158505,-0.85989 h -0.731231 -0.731232 l -0.153644,0.76822 -0.153644,0.76822 -1.039328,2.62195 -1.039328,2.62195 -0.442659,2.36452 -0.44266,2.36451 -0.158005,0.66146 -0.158005,0.66146 0.06057,0.60191 0.06057,0.60191 -0.350529,-0.0727 -0.350529,-0.0727 -0.08441,0.79375 -0.08441,0.79375 -0.353106,1.05859 -0.353106,1.05859 -0.406197,0.7935 -0.406197,0.79349 -0.413062,0.96603 -0.413062,0.96602 v 0.42304 0.42303 h -0.529166 -0.529167 v 0.26459 0.26458 h -0.399157 -0.399117 l 0.332971,0.56374 0.332971,0.56373 -0.330729,0.11977 -0.330729,0.11977 v 0.36727 0.36726 l 0.859896,0.22727 0.859896,0.22728 0.463021,-0.28336 0.46302,-0.28335 v -0.43313 -0.43312 l 0.385285,-0.31976 0.385285,-0.31976 0.276174,0.17069 0.276173,0.17068 v 0.26458 0.26459 l -0.264583,-0.16352 -0.264584,-0.16353 v 0.25076 0.25075 l 0.859896,0.15251 0.859896,0.15251 1.389063,0.1756 1.389062,0.17561 v 0.25152 0.25152 l 0.859896,-0.1502 0.859896,-0.1502 -0.33073,0.15122 -0.330729,0.15123 v 0.24254 0.24253 h 1.241195 1.241195 z m -3.693398,-15.895 -0.199178,-0.75882 0.09232,-0.0923 0.09232,-0.0923 0.78045,0.23605 0.780451,0.23606 -0.581142,0.17922 -0.581141,0.17922 -0.09245,0.43587 -0.09245,0.43587 z m -5.843583,10.6807 h 0.334394 l 0.111417,-0.33073 0.111418,-0.33073 -0.420098,-0.33073 -0.420098,-0.33073 0.463021,-0.35989 0.463021,-0.3599 v -0.27667 -0.27667 l -0.620051,0.29262 -0.62005,0.29262 -0.276722,1.33613 -0.276723,1.33614 0.149579,0.2485 0.149578,0.2485 0.25846,-0.57923 0.25846,-0.57923 z m -43.814306,-3.58077 -0.322,-0.38798 h -0.23218 -0.23219 v 0.30156 0.30156 l 0.46302,0.34141 0.46302,0.34141 0.0912,-0.25499 0.0912,-0.25499 z m 44.53424,0.34052 0.849182,-0.59442 0.10385,-0.0607 0.103849,-0.0606 -0.338803,-0.40823 -0.338802,-0.40823 0.474398,-0.52421 0.474398,-0.5242 -0.504028,-0.0209 -0.504028,-0.0209 0.336296,-0.13531 0.336296,-0.13531 0.391308,-0.7567 0.391308,-0.75671 v -0.53726 -0.53727 l -0.727604,-0.15327 -0.727604,-0.15327 -0.462758,-0.0915 -0.462757,-0.0915 -0.152222,0.2463 -0.152221,0.2463 0.350395,-0.0727 0.350396,-0.0727 0.08372,0.72761 0.08372,0.7276 h -0.251339 -0.251298 l -0.135184,0.51694 -0.135183,0.51694 0.633491,-0.41507 0.633491,-0.41508 v 0.28186 0.28187 l -0.450522,0.25212 -0.450523,0.25213 0.350628,0.42248 0.350628,0.42248 -0.363126,0.0313 -0.363126,0.0313 -0.198438,-0.0313 -0.198437,-0.0313 0.0084,0.85989 0.0084,0.8599 0.385727,-0.50985 0.385726,-0.50985 0.175418,0.17541 0.175417,0.17542 -0.70185,0.55208 -0.701851,0.55207 v 0.24538 0.24538 h 0.143006 0.143005 z m 33.904364,-2.83057 0.0189,-1.30082 -0.42516,0.38476 -0.42516,0.38477 0.2786,1.04376 0.27859,1.04376 0.12771,-0.12771 0.1277,-0.1277 z m -68.112474,-3.12052 v -0.40347 l 0.9189,-0.86664 0.91891,-0.86663 0.40016,-1.14898 0.40016,-1.14898 0.004,-0.8599 0.004,-0.85989 h -0.43385 -0.43385 l -0.35148,0.46302 -0.35149,0.46302 -0.008,-0.38694 -0.008,-0.38693 0.72761,-0.58154 0.7276,-0.58153 -0.19204,-0.19372 -0.19204,-0.19371 -0.36147,0.29999 -0.36147,0.3 -0.17409,-0.1741 -0.1741,-0.17409 v 0.60412 0.60412 l -0.52916,-0.13838 -0.52917,-0.13838 v 0.1869 0.1869 l 0.2894,0.28939 0.28939,0.2894 -0.11216,0.49112 -0.11217,0.49113 -0.35199,-0.72761 -0.35199,-0.7276 h -0.16507 -0.16507 l -0.47074,0.79691 -0.47075,0.79691 0.17106,0.53896 0.17106,0.53896 -0.41882,0.6392 -0.41882,0.63919 v 0.55535 0.55535 l 0.72761,0.74142 0.7276,0.74141 0.33073,-0.12514 0.33073,-0.12513 z m 69.106774,-2.5206 -0.1144,-0.46714 -0.23264,-0.14378 -0.23265,-0.14379 0.0203,1.66926 0.0203,1.66926 0.32671,-1.05833 0.32671,-1.05833 z m -3.39005,1.24949 0.15668,-0.40829 0.53309,0.28531 0.53309,0.2853 v -0.159 -0.15899 l -0.27389,-0.51177 -0.27389,-0.51178 h -0.25528 -0.25527 v 0.39688 0.39687 h -0.54478 -0.54478 l 0.16352,-0.26458 0.16352,-0.26458 h -0.2918 -0.29179 l 0.0777,0.46302 0.0777,0.46302 0.26458,0.19438 0.26458,0.19439 0.17013,0.004 0.17013,0.004 z m -29.996984,-3.62314 9.89e-4,-0.59879 0.501156,-0.82185 0.501156,-0.82186 -0.23351,-0.36877 -0.233511,-0.36877 -0.0041,0.28016 -0.0041,0.28016 -0.393403,0.51359 -0.393403,0.51359 0.101845,-0.52916 0.101844,-0.52917 0.190126,-0.59531 0.190125,-0.59531 h 0.385417 0.385417 l -0.09568,-0.46302 -0.09568,-0.46303 -0.452883,0.0367 -0.452883,0.0367 v -0.54386 -0.54387 l -0.175207,0.17521 -0.175206,0.17521 0.03476,0.9245 0.03476,0.9245 -0.32257,-0.0634 -0.32257,-0.0634 -0.01212,0.92605 -0.01212,0.92604 -0.204151,0.59531 -0.20415,0.59531 H 82.19381 81.947056 v 0.40619 0.40618 l -0.366769,0.586 -0.36677,0.58601 -0.01179,0.8382 -0.01179,0.83821 1.304604,-1.29775 1.304604,-1.29776 z m 30.161514,2.02922 v -0.41471 l 0.52917,0.16796 0.52916,0.16795 -0.004,-0.34856 -0.004,-0.34856 -0.15954,-0.59531 -0.15953,-0.59532 h -0.36602 -0.36602 v 0.49677 0.49677 l -0.39687,0.32938 -0.39688,0.32938 v 0.36447 0.36448 h 0.39688 0.39687 z m -55.503263,-1.73909 -0.23551,-0.88891 -0.198308,0.608 -0.198307,0.60801 0.324146,0.39058 0.324146,0.39057 0.109671,-0.10967 0.109672,-0.10968 z m 76.669933,0.0371 v -0.52917 h 0.24253 0.24253 l 0.13346,0.33073 0.13345,0.33073 0.0429,-0.39688 0.0429,-0.39687 0.0761,-0.52917 0.0761,-0.52917 0.18437,-0.436 0.18437,-0.436 -0.55413,-0.51625 -0.55413,-0.51625 0.18148,-0.47291 0.18147,-0.47292 -0.37289,0.12466 -0.37289,0.12466 -0.0378,0.90363 -0.0378,0.90363 -0.19767,1.52136 -0.19768,1.52135 h 0.3016 0.3016 z m -76.05062,-2.20579 0.37978,0.14573 v -0.44458 -0.44458 l -0.459982,0.0886 -0.459983,0.0886 -0.06452,0.52613 -0.06452,0.52612 0.144721,-0.31586 0.14472,-0.31587 z m 58.90425,-1.25605 -0.0807,-0.90379 -0.38228,-1.54272 -0.38228,-1.54273 v -0.62447 -0.62448 l -0.28219,-0.1744 -0.28218,-0.1744 -0.12815,0.12815 -0.12814,0.12814 0.417,2.47804 0.41701,2.47804 0.14972,0.74162 0.14971,0.74161 0.30663,-0.10241 0.30663,-0.10241 z m -56.93697,-0.24233 v -0.52917 h -0.264583 -0.264583 l -0.0041,0.33073 -0.0041,0.33073 -0.260532,-0.39687 -0.260532,-0.39688 -0.198437,0.26458 -0.198438,0.26459 h -0.374826 -0.374827 l -0.110243,0.33073 -0.110243,0.33073 h 1.212674 1.212673 z m -0.658446,-6.86134 -0.181816,-1.07616 h -0.270773 -0.270773 l 0.185758,0.99017 0.185757,0.99017 0.134766,0.21806 0.134766,0.21806 0.132066,-0.13207 0.132066,-0.13207 z m 56.390996,-0.084 -0.16739,-1.38906 -0.27835,-0.99219 -0.27835,-0.99219 h -0.22346 -0.22347 l -0.16179,0.64463 -0.16179,0.64463 0.2829,1.40589 0.28289,1.4059 0.10649,0.33072 0.1065,0.33073 h 0.4416 0.44161 z m -2.27913,-1.91015 -0.56947,-0.60618 -0.38099,-1.26593 -0.38099,-1.26592 0.12637,-0.12638 0.12637,-0.12637 0.40327,0.33469 0.40327,0.33468 v -0.31437 -0.31438 l -0.3158,-0.57792 -0.3158,-0.57792 -0.0149,-0.52916 -0.0149,-0.52917 -3.175,-0.17216 -3.175,-0.17216 -0.59532,0.1347 -0.59531,0.1347 v 0.3838 0.38381 l 0.25681,-0.15872 0.25682,-0.15872 0.78838,0.40769 0.78838,0.40769 1.53449,0.0103 1.5345,0.0103 0.87587,1.19037 0.87587,1.19038 0.68214,1.37899 0.68213,1.37899 0.29408,0.37193 0.29407,0.37194 0.0901,-0.46168 0.0901,-0.46169 z m 5.81325,1.18255 v -0.26459 h -0.39688 -0.39687 v -0.39692 -0.39687 h 0.41249 0.41249 l -0.16352,-0.26459 -0.16352,-0.26458 h -0.69876 -0.69876 l 0.3175,0.3175 0.3175,0.3175 v 0.60854 0.60854 h 0.52916 0.52917 z m -60.593638,-2.7276 -0.0041,-0.57969 -0.240367,0.37986 -0.240366,0.37986 -0.423435,-0.35142 -0.423434,-0.35142 -0.152392,0.15239 -0.152392,0.15239 0.174401,0.28219 0.174401,0.28219 h 0.38126 0.38126 v 0.2802 0.28019 l 0.264583,-0.16352 0.264584,-0.16352 z m 56.889468,-0.35628 v -0.43805 l -0.66146,-0.86722 -0.66145,-0.86721 v -0.24984 -0.24984 l 0.39687,-0.32938 0.39688,-0.32938 v -0.39278 -0.39279 l -0.37202,0.14276 -0.37202,0.14275 -0.4684,-0.51757 -0.46839,-0.51758 -0.22342,0.22342 -0.22342,0.22342 0.44257,1.37034 0.44256,1.37033 h 0.22439 0.2244 v 0.7806 0.7806 l 0.46302,0.26969 0.46302,0.26968 0.19843,0.008 0.19844,0.008 z m -19.649852,-2.37109 -0.120518,-0.63045 h 0.229221 0.229222 l -0.147618,-2.71198 -0.147618,-2.71197 -0.150332,-0.92605 -0.150332,-0.92604 -0.500918,1.15895 -0.500918,1.15895 0.28053,0.33802 0.280531,0.33802 -0.06395,1.08384 -0.06395,1.08384 0.316377,0.31638 0.316378,0.31637 v 0.55563 0.55562 l -0.24423,0.25136 -0.24423,0.25135 0.142193,0.72452 0.142193,0.72452 0.259244,-0.16022 0.259245,-0.16022 z m -1.889846,-1.27509 -0.701905,-1.19771 -0.537948,-0.2879 -0.537949,-0.2879 0.311646,-0.37551 0.311645,-0.37551 0.216322,0.13369 0.216322,0.1337 0.179496,-0.29043 0.179496,-0.29043 -0.491943,0.052 -0.491942,0.052 -0.859896,-0.0305 -0.859896,-0.0305 v -0.64278 -0.64275 l -1.092249,-1.64441 -1.092248,-1.64441 -0.761001,-1.67835 -0.761001,-1.67835 -0.09249,-0.46626 -0.09249,-0.46626 -0.409239,-0.92604 -0.40924,-0.92604 -0.190197,-1.79356 -0.190198,-1.79357 -0.520187,-0.27839 -0.520188,-0.2784 -0.153728,0.15373 -0.153728,0.15373 h 0.300376 0.300377 l -0.14798,0.46302 -0.147979,0.46302 -0.285301,0.59531 -0.285301,0.59532 0.301875,0.59531 0.301875,0.59531 0.389635,1.73915 0.389634,1.73915 1.072992,2.2796 1.072991,2.27959 v 0.21913 0.21914 l 1.190625,1.36106 1.190625,1.36106 v 0.12435 0.12435 l -1.256771,-0.0348 -1.256771,-0.0348 v 0.52916 0.52917 l 0.661459,0.0741 0.661458,0.0741 0.595312,0.1294 0.595313,0.12941 v 0.39183 0.39184 h 0.276182 0.276182 l -0.07775,-0.46302 -0.07774,-0.46302 0.529167,-0.0757 0.529166,-0.0757 1.439706,1.4582 1.439705,1.4582 0.113794,-0.11379 0.113794,-0.1138 z m -57.281396,-0.34755 0.0247,-0.7276 0.0488,-1.27749 0.0488,-1.27749 -0.15228,-0.0941 -0.15228,-0.0941 -0.36722,0.22696 -0.36723,0.22696 0.34964,0.42129 0.34964,0.4213 -0.17053,1.45095 -0.17053,1.45095 h 0.2669 0.26689 z m 26.842289,-0.52916 -0.09043,-0.99219 -0.02684,-0.19844 -0.02684,-0.19844 h -0.529207 -0.529167 v 0.12694 0.12694 l 0.425604,1.06369 0.425603,1.06368 h 0.220832 0.220832 z m 45.893395,-0.35868 v -0.29254 l -0.67756,-0.80522 -0.67755,-0.80523 -0.77096,-1.52726 -0.77096,-1.52727 -0.54137,-1.93904 -0.54137,-1.93903 -0.0118,-2.17791 -0.0118,-2.17791 -0.19989,-0.12354 -0.19989,-0.12354 -0.43137,1.24312 -0.43136,1.24311 -0.0581,0.79375 -0.0581,0.79375 0.21049,1.45521 0.21049,1.45521 0.73791,1.91905 0.73792,1.91904 0.68429,0.81324 0.68429,0.81322 v 0.2726 0.27259 l 0.41062,-0.15757 0.41061,-0.15757 -0.16303,0.26379 -0.16303,0.26379 0.61231,0.24557 0.61231,0.24558 0.19844,0.0168 0.19844,0.0168 z m -54.607073,-0.96424 0.464064,-0.46302 -1.11394,-0.23757 -1.11394,-0.23757 -0.654142,0.29804 -0.654143,0.29805 v 0.40254 0.40255 h 1.304019 1.304018 z m 31.05915,-0.19843 v -0.36565 l -0.287637,-0.17777 -0.287637,-0.17777 -0.283233,0.28323 -0.283233,0.28324 0.336266,0.40517 0.336265,0.40517 0.234604,-0.14499 0.234605,-0.14499 z m -33.406885,-1.3887 -0.466256,-0.10656 0.17893,-0.28952 0.178935,-0.28953 -0.461915,0.17726 -0.46192,0.17725 h -0.78773 -0.78772 l 0.13214,0.21382 0.13215,0.21381 1.40482,0.005 1.404826,0.005 z m -13.839766,-1.68399 -0.145,-0.23461 h -0.38126 -0.38126 v 0.35278 0.35278 l 0.1741,0.17409 0.17409,0.1741 0.35216,-0.29227 0.35216,-0.29227 z m 3.87742,-1.18452 0.59701,-0.6355 -0.18946,-0.18946 -0.18947,-0.18947 -0.54248,0.33878 -0.54248,0.33879 -0.4585,-0.41495 -0.45851,-0.41494 h -0.44219 -0.44219 v 0.55747 0.55748 l 0.42634,-0.1636 0.42633,-0.1636 -0.14108,0.36763 -0.14107,0.36764 0.26622,0.26622 0.26622,0.26621 0.48414,-0.1266 0.48415,-0.12661 z m 65.809064,-7.77062 0.57892,-0.78304 v -0.15862 -0.15862 l -0.27617,0.17069 -0.27618,0.17068 -0.43482,-0.35351 -0.43482,-0.3535 0.17027,0.45454 0.17027,0.45455 -0.25302,0.15638 -0.25303,0.15638 v 0.51355 0.51355 h 0.21483 0.21482 z m -56.826404,-6.74636 -0.33868,-0.40809 h -0.23219 -0.23218 v 0.34396 0.34396 l 0.3175,0.3175 0.3175,0.3175 0.25337,-0.25337 0.25337,-0.25337 z m 39.28279,-0.67429 0.480357,-0.53079 -0.144238,-0.14424 -0.144238,-0.14424 -0.758133,0.66667 -0.758132,0.66667 0.422013,0.008 0.422014,0.008 z m -36.652142,-5.09161 0.0059,-0.19844 h -0.242535 -0.242534 l -0.09994,0.29981 -0.09993,0.2998 -0.847553,0.0309 -0.84755,0.0309 -6.1e-4,0.14736 -6e-4,0.14736 0.727605,0.27276 0.727604,0.27275 0.457138,-0.55241 0.457138,-0.5524 z m 56.626716,-0.19844 0.52917,-0.52916 v -0.067 -0.067 l -1.52093,8.6e-4 -1.52092,8.5e-4 -0.003,0.39688 -0.003,0.39687 0.92851,0.1609 0.92851,0.16089 0.0662,0.0376 0.0661,0.0376 z"
       id="path15" /></g></svg>
