<?xml version="1.0" encoding="UTF-8" standalone="no"?>
<!-- Created with Inkscape (http://www.inkscape.org/) -->

<svg
   width="101.60001mm"
   height="84.666672mm"
   viewBox="0 0 101.60001 84.666672"
   version="1.1"
   id="svg1"
   xml:space="preserve"
   xmlns="http://www.w3.org/2000/svg"
   xmlns:svg="http://www.w3.org/2000/svg"><defs
     id="defs1" /><g
     id="layer1"
     transform="translate(-33.745446,-63.83333)"><path
       style="fill:#ffffff;fill-opacity:1"
       d="M 33.745446,106.16666 V 63.83333 H 84.545449 135.34545 V 106.16666 148.5 H 84.545448 33.745446 Z M 134.5517,146.64112 v -1.06513 l -0.72761,0.36799 -0.7276,0.36799 -1.85208,0.33534 -1.85209,0.33535 -0.26458,0.15786 -0.26458,0.15785 -1.32292,-0.0636 -1.32292,-0.0635 -0.79375,0.24474 -0.79375,0.24475 4.96094,0.0227 4.96094,0.0228 z m -13.22917,0.27138 v -0.26459 h -0.11065 -0.11065 l -0.38437,-0.14749 -0.38438,-0.1475 -0.15813,0.41208 -0.15813,0.41208 h 0.65316 0.65315 z m 9.21521,-1.58416 0.11608,-0.34825 -0.87604,0.17521 -0.87604,0.17521 -0.12314,0.12314 -0.12314,0.12314 0.34044,0.41021 0.34044,0.4102 0.54266,-0.36031 0.54265,-0.36031 z m 3.59544,-1.48686 0.41852,-0.1606 v -0.38614 -0.38614 l -0.72534,0.0837 -0.72535,0.0837 -0.0878,0.46302 -0.0878,0.46302 h 0.39464 0.39464 z m -47.537211,-11.62091 0.330729,-0.10813 v -0.68866 -0.68866 l -0.377976,-0.37798 -0.377976,-0.37798 h -0.31179 -0.311789 l 0.152295,0.39688 0.152295,0.39687 h -1.68318 -1.683181 l -0.160599,0.41852 -0.160599,0.41851 v 0.44652 0.44653 l 2.050521,-0.0871 2.050521,-0.0871 z m -9.1513,-0.44582 0.04297,-0.60496 0.06233,-0.96451 0.06234,-0.96452 -0.799837,-0.15996 -0.799837,-0.15997 h -0.732371 -0.732369 l -0.1606,0.41851 -0.160599,0.41852 v 0.24294 0.24295 h 1.307302 1.307302 l 0.158512,0.25647 0.158512,0.25648 -2.791535,-0.006 -2.791535,-0.006 -0.261779,0.16179 -0.261779,0.16179 v 0.38978 0.38979 l 0.518464,0.19179 0.518463,0.19179 2.656537,0.0739 2.656536,0.0739 z m 7.894529,-2.06948 v -0.53847 l -0.410405,-0.62636 -0.410405,-0.62636 0.07968,-3.99494 0.07968,-3.99494 -0.164052,4e-4 -0.164052,4e-4 -0.277964,1.12448 -0.277965,1.12447 -0.272933,1.45521 -0.272933,1.45521 -0.0788,1.58662 -0.0788,1.58662 0.460064,8.8e-4 0.460063,8.8e-4 0.01857,0.26458 0.01857,0.26459 -0.610927,0.14314 -0.610927,0.14313 -0.08455,0.58447 -0.08455,0.58447 h 1.341319 1.341318 z m -44.918422,-1.7315 -0.12393,-0.64826 -0.27467,-0.16976 -0.27467,-0.16975 0.17036,0.63669 0.17036,0.63668 0.008,0.52917 0.008,0.52916 0.22057,-0.34783 0.22057,-0.34783 z m 37.482841,-3.55086 0.003,-3.57187 0.523488,-3.23761 0.523487,-3.2376 0.195311,-0.31602 0.19531,-0.31602 0.02093,-1.93638 0.02093,-1.93637 -0.396875,-0.0413 -0.396875,-0.0413 -0.595312,0.0512 -0.595313,0.0512 v -0.30328 -0.30328 l -0.661458,0.16601 -0.661458,0.16602 v -0.12488 -0.12489 l 0.320194,-0.74005 0.320194,-0.74005 0.473556,-0.631 0.473556,-0.63099 0.0094,-0.69193 0.0094,-0.69192 0.378124,-0.66146 0.378123,-0.66145 0.01569,-2.11667 0.01569,-2.11667 0.282889,-1.05833 0.28289,-1.05833 0.13662,-0.8599 0.136621,-0.8599 h -1.969225 -1.969225 l -0.174093,0.1741 -0.174094,0.17409 0.297371,0.35831 0.297371,0.35831 0.09261,0.85666 0.09261,0.85666 0.148284,0.62062 0.148284,0.62062 -0.240771,0.30542 -0.240771,0.30542 -0.181956,1.42937 -0.181955,1.42936 -0.122824,12.2173 -0.122823,12.2173 0.468011,0.42026 0.468012,0.42026 0.79375,0.0883 0.79375,0.0883 0.183314,-0.39688 0.183314,-0.39687 z m -2.618585,0.17639 v -1.23472 h 0.278025 0.278025 l -0.09833,1.05503 -0.09833,1.05502 -0.179696,0.1797 -0.179695,0.17969 z m -32.796756,2.33715 -0.18217,-1.32291 -0.16242,0.66146 -0.162419,0.66145 0.005,0.52917 0.005,0.52917 0.11877,0.37497 0.11877,0.37497 0.22049,-0.24268 0.2205,-0.24268 z m 9.79426,-0.67057 -0.27347,-0.65234 0.10489,1.45521 0.10489,1.4552 0.0682,0.1323 0.0682,0.13229 0.10039,-0.93516 0.10038,-0.93515 z m 20.51589,-7.46536 -0.181007,-6.41615 -0.245037,-1.85208 -0.245036,-1.85208 -0.02564,-1.7198 -0.02564,-1.71979 -0.316512,-1.49663 -0.316511,-1.49664 -0.512873,-0.56672 -0.512874,-0.56672 -0.939565,0.079 -0.939565,0.079 -0.141097,1.19063 -0.141098,1.19062 -0.177804,-1.05833 -0.177803,-1.05833 0.08798,-3.43959 0.08798,-3.43958 0.03249,-0.19844 0.03249,-0.19844 h 0.264583 0.264583 v 0.44219 0.44219 l 0.448966,0.4961 0.448965,0.4961 -0.02633,0.92882 -0.02633,0.92882 0.566847,-0.0812 0.566848,-0.0812 0.09123,-0.47848 0.09123,-0.47847 -0.194009,-0.44757 -0.194008,-0.44756 0.05496,-0.57005 0.05496,-0.57004 -0.280207,-0.17318 -0.280207,-0.17317 -0.03069,0.61092 -0.03069,0.61093 -0.133031,-0.52916 -0.133031,-0.52917 -0.621436,-0.6228 -0.621437,-0.6228 0.388284,-0.38829 0.388285,-0.38828 v -0.51027 -0.51027 h -0.512403 -0.512403 l -0.106712,0.8599 -0.106712,0.85989 -0.04234,-2.65906 -0.04234,-2.65906 L 67.546,87.66565 67.215271,87.31508 67.546,87.19381 67.876729,87.07255 v -0.34652 -0.34652 l -0.396875,-0.1523 -0.396875,-0.15229 0.0084,-1.26508 0.0084,-1.26507 0.389518,0.51504 0.389519,0.51503 -0.120413,-5.75263 -0.120412,-5.75263 0.147079,-0.38328 0.147078,-0.38328 0.201376,0.12445 0.201376,0.12446 -0.129968,0.73392 -0.129968,0.73392 0.350659,-0.33073 0.35066,-0.33073 h 0.211666 0.211667 v 0.39688 0.39687 h -0.529167 -0.529166 v 5.95817 5.95816 l 0.661458,-0.16601 0.661458,-0.16602 v 0.93911 0.93911 l 0.273244,0.16887 0.273243,0.16888 -0.04826,-1.60847 -0.04826,-1.60847 h -0.209365 -0.209365 l -0.166189,0.2689 -0.166188,0.2689 -0.246301,-0.15222 -0.246302,-0.15222 v -1.68254 -1.68254 l 0.165175,-0.43044 0.165175,-0.43043 0.382095,0.54551 0.382095,0.54552 0.247196,-0.15277 0.247195,-0.15278 -0.265298,-0.49572 -0.265299,-0.49571 v -0.14969 -0.14968 h 0.661458 0.661458 V 79.9913 79.74512 l 0.59261,-0.0846 0.59261,-0.0845 0.09453,-0.52917 0.09453,-0.52916 0.26864,-0.26459 0.268639,-0.26458 -0.190343,0.62834 -0.190343,0.62835 0.359043,0.22409 0.359043,0.22409 -0.595313,0.41934 -0.595312,0.41934 0.0041,0.31572 0.0041,0.31573 0.25648,-0.39688 0.25648,-0.39687 0.0041,0.38365 0.0041,0.38364 0.296825,-0.29682 0.296824,-0.29683 0.364634,0.13993 0.364634,0.13992 0.02637,-0.62362 0.02637,-0.62362 0.211836,0.66146 0.211836,0.66146 0.06555,-0.52917 0.06555,-0.52917 0.05394,-0.39687 0.05394,-0.39688 0.03917,-0.22886 0.03917,-0.22887 0.631132,0.41353 0.631132,0.41354 0.162618,-0.16262 0.162618,-0.16262 V 78.3413 77.59164 l -0.198438,-0.002 -0.198437,-0.002 -0.312243,-0.67298 -0.312243,-0.67297 0.621999,-0.23648 0.622,-0.23648 -0.142178,-0.54369 -0.142177,-0.54369 h -0.193075 -0.193075 l -0.83103,0.41457 -0.83103,0.41457 -0.331432,-0.20483 -0.331431,-0.20484 0.658791,-0.15521 0.658791,-0.15522 0.188959,-1.179 0.18896,-1.179 0.142566,-0.87878 0.142566,-0.87878 0.285223,-0.53294 0.285224,-0.53295 0.115434,0.11544 0.115433,0.11543 0.207068,1.56087 0.207068,1.56088 0.33086,-0.0706 0.33086,-0.0706 0.659739,0.78406 0.659739,0.78405 0.507552,0.16109 0.507552,0.16109 0.567566,-0.30375 0.567567,-0.30375 -0.271289,-0.27129 -0.271289,-0.27129 0.145211,-0.89482 0.14521,-0.89483 h -0.563786 -0.563785 v -0.26458 -0.26459 h 0.396875 0.396875 v -0.24896 -0.24897 l -0.276173,-0.17069 -0.276174,-0.17068 -0.364139,0.30221 -0.364139,0.30221 0.102143,0.80709 0.102144,0.80709 0.305982,0.36868 0.305983,0.36869 h -0.143049 -0.143049 l -0.418514,0.1606 -0.418515,0.1606 -0.0036,-0.75591 -0.0036,-0.75591 -0.159537,-0.59532 -0.159538,-0.59531 h -0.498308 -0.498308 v 0.25144 0.25143 l 0.463021,0.28748 0.463021,0.28747 -0.526128,-0.0789 -0.526129,-0.0789 -0.0885,-0.45957 -0.0885,-0.45956 0.425675,-0.42567 0.425675,-0.42568 0.519423,0.13583 0.519422,0.13584 0.165786,-0.26825 0.165785,-0.26825 1.006114,0.16089 1.006114,0.16088 0.428463,-0.42846 0.428464,-0.42846 0.15119,0.15119 0.151191,0.15119 -0.41798,0.41798 -0.417979,0.41798 -0.177185,0.98368 -0.177184,0.98368 -0.220495,0.28014 -0.220494,0.28014 0.522601,0.44746 0.522602,0.44747 h 0.129267 0.129267 v -0.44979 -0.4498 l 0.251333,0.25136 0.251332,0.25135 -0.255024,1.13498 -0.255023,1.13497 0.321007,0.58482 0.321007,0.58482 -0.07057,0.58693 -0.07057,0.58693 0.274375,0.4714 0.274374,0.4714 0.008,-0.46302 0.008,-0.46302 h 0.264583 0.264583 v 0.39688 0.39687 h 0.406184 0.406184 l -0.297353,-0.55561 -0.297353,-0.55561 0.337847,-1.6997 0.337846,-1.6997 -0.578969,-0.40553 -0.578969,-0.40552 v -0.45712 -0.45712 l 0.794293,-0.4692 0.794293,-0.4692 0.197894,0.11939 0.197895,0.11939 2.228835,0.0943 2.228834,0.0943 -0.05393,-1.85209 -0.05393,-1.85208 0.277723,0.39687 0.277723,0.39688 -0.05249,1.5505 -0.05249,1.5505 1.355994,0.6232 1.355994,0.6232 0.29713,0.55519 0.29713,0.55519 -0.338216,0.40753 -0.338216,0.40752 -0.631794,0.24021 -0.631795,0.24021 0.183199,1.57846 0.1832,1.57846 -0.686758,0.3129 -0.686757,0.31291 v 0.45839 0.45839 l 0.396875,0.15229 0.396875,0.1523 v -0.25628 -0.25628 h 0.264583 0.264583 v 0.55748 0.55747 l -0.396875,-0.1523 -0.396875,-0.15229 v 0.21157 0.21157 l 0.727605,0.36296 0.727604,0.36296 0.264583,0.12411 0.264583,0.1241 -0.45162,-0.51674 -0.45162,-0.51674 0.05474,-0.71224 0.05474,-0.71224 0.264584,0.005 0.264583,0.005 -0.03901,0.78155 -0.03901,0.78156 h 0.369742 0.369741 v 0.76544 0.76544 l 0.418515,0.1606 0.418515,0.1606 h 0.242943 0.242944 v -0.97014 -0.97014 l 0.182563,0.18257 0.182563,0.18256 -0.06864,1.29331 -0.06864,1.29332 0.418926,0.23444 0.418925,0.23444 0.822332,2.23638 0.822333,2.23639 0.05402,0.59339 0.05402,0.5934 0.178302,0.17831 0.178303,0.1783 v 0.73404 0.73403 l 0.264583,0.16353 0.264584,0.16352 0.0186,-0.34635 0.0186,-0.34634 0.214527,0.52917 0.214527,0.52916 -0.02098,-0.99219 -0.02098,-0.99218 h -0.344438 -0.344437 l -0.03412,-0.33073 -0.03412,-0.33073 -0.04395,-0.70131 -0.04395,-0.70131 -0.292935,-0.35702 -0.292934,-0.35703 -0.330177,-1.19062 -0.330178,-1.19063 -0.0658,-0.66146 -0.0658,-0.66145 0.128119,0.33237 0.12812,0.33238 0.241985,-0.14955 0.241985,-0.14956 v -0.24897 -0.24897 h -0.396875 -0.396874 l 0.03069,-0.59531 0.03069,-0.59531 0.121624,0.46626 0.121624,0.46626 0.244559,-0.15115 0.244559,-0.15114 v -0.41824 -0.41824 l 0.451937,-0.33046 0.451937,-0.33047 0.340294,0.13059 0.340293,0.13058 -0.135088,0.21858 -0.135088,0.21857 0.268899,0.16619 0.2689,0.16619 v 0.55053 0.55053 l -0.450183,0.32918 -0.450183,0.32918 0.02734,0.96451 0.02734,0.9645 0.31333,0.37754 0.313329,0.37754 -0.170684,0.27617 -0.170685,0.27617 h 0.404186 0.404186 l -0.142026,0.37012 -0.142026,0.37011 0.282622,0.17467 0.282621,0.17467 v 1.19706 1.19705 l 0.330726,-0.11564 0.33073,-0.11564 -0.0708,-0.40547 -0.0708,-0.40547 0.40156,-0.15409 0.40156,-0.15409 0.029,0.98388 0.029,0.98389 0.2197,-1.11217 0.21969,-1.11217 0.30192,-0.56414 0.30192,-0.56414 -0.10859,-0.10858 -0.10858,-0.10859 -0.62043,0.66041 -0.62043,0.66042 h -0.21846 -0.21846 v -0.27613 -0.27613 l 0.65631,-0.70781 0.65631,-0.7078 0.34559,-1.06659 0.34559,-1.06658 -0.0943,-0.59532 -0.0943,-0.59531 -0.44462,-6e-4 -0.44462,-6.1e-4 -0.0309,-0.84728 -0.0309,-0.84727 0.34275,-0.34275 0.34274,-0.34274 h 0.56368 0.56368 l -0.15222,0.2463 -0.15223,0.2463 0.2689,0.16619 0.2689,0.16619 V 82.9145 82.12075 l 0.22673,-0.14012 0.22672,-0.14013 -0.12235,2.1113 -0.12234,2.11129 0.40325,-0.15474 0.40325,-0.15475 -0.14849,-1.87097 -0.14849,-1.87098 0.30232,0.18684 0.30232,0.18684 0.036,0.97658 0.036,0.97657 0.11518,-0.59924 0.11517,-0.59923 0.24567,0.15183 0.24567,0.15183 v -0.39085 -0.39085 l 0.1606,-0.41852 0.16059,-0.41851 h -0.52507 -0.52508 l -0.26643,-0.33073 -0.26643,-0.33073 -0.18386,-0.8599 -0.18387,-0.85989 h -0.24356 -0.24356 v -0.54656 -0.54656 l 0.27389,-0.51178 0.27389,-0.51177 h -0.67076 -0.67077 v -0.39946 -0.39947 l 0.52917,-0.45308 0.52916,-0.45309 -0.002,-0.27193 -0.002,-0.27193 -0.79207,-0.45071 -0.79208,-0.45072 v -0.50907 -0.50908 l 0.33073,-0.27353 0.33073,-0.27353 1.64034,-0.33822 1.64034,-0.33822 2.72197,0.31936 2.72197,0.31936 0.91248,0.73852 0.91247,0.73853 0.10394,0.3118 0.10393,0.31181 -0.94695,0.55871 -0.94695,0.55872 v 0.36176 0.36177 l 0.44312,0.92923 0.44312,0.92923 -0.44312,0.48964 -0.44312,0.48964 v 0.67936 0.67937 l 0.93525,0.82116 0.93525,0.82115 h 0.33691 0.33691 l 0.73334,0.99219 0.73333,0.99219 0.22799,0.38745 0.22798,0.38745 1.07381,-0.86294 1.07381,-0.86294 v 0.16682 0.16682 l -0.95957,0.93187 -0.95956,0.93186 0.27219,0.96431 0.27219,0.9643 0.3365,1.77313 0.33649,1.77312 0.21859,-0.13509 0.21859,-0.1351 0.05,-1.63803 0.05,-1.63803 0.0964,1.5511 0.0964,1.55109 -0.45443,0.50214 -0.45444,0.50215 0.83927,2.70926 0.83927,2.70926 0.15857,0.83621 0.15858,0.83621 -0.29974,0.90823 -0.29974,0.90823 0.24416,0.63681 0.24416,0.63681 0.29167,-0.79375 0.29167,-0.79375 0.21712,-0.38053 0.21713,-0.38053 1.43668,-0.77212 1.43668,-0.77211 0.0847,-0.0786 0.0847,-0.0786 -0.39356,-1.15 -0.39356,-1.15001 0.2427,-0.25136 0.2427,-0.25135 v -1.2376 -1.23761 l 0.39687,-0.32937 0.39688,-0.32938 v -0.89364 -0.89365 h 0.26146 0.26147 l -0.0388,0.46302 -0.0388,0.46302 0.0419,0.5922 0.0419,0.59219 0.46302,-0.0388 0.46302,-0.0388 0.74862,0.0419 0.74863,0.0419 -0.1767,0.8045 -0.1767,0.8045 0.42813,0.6534 0.42812,0.65341 -0.23617,0.46032 -0.23618,0.46033 -0.1728,1.13145 -0.17281,1.13145 0.68362,0.72063 0.68362,0.72063 0.53385,1.02595 0.53384,1.02595 0.12719,1.48759 0.12719,1.4876 0.6935,3.00413 0.6935,3.00413 0.3275,-0.44789 0.3275,-0.44788 0.11248,0.75104 0.11249,0.75105 0.0396,-0.97657 0.0396,-0.97658 0.26458,-0.16352 0.26459,-0.16352 v 1.33853 1.33853 h 0.23218 0.23219 l 0.34611,-0.41704 0.34611,-0.41704 -0.37986,-0.23634 -0.37986,-0.23635 0.33969,-0.548 0.3397,-0.548 -0.15349,-0.24835 -0.1535,-0.24836 0.29291,-0.5473 0.29291,-0.5473 0.64537,-0.24537 0.64537,-0.24537 V 85.93249 64.62698 h -3.00862 -3.00862 l -0.20276,1.38906 -0.20275,1.38907 -0.19859,-0.87845 -0.19858,-0.87845 0.13352,-0.51062 0.13353,-0.51061 h -1.75065 -1.75065 l -0.0209,0.33073 -0.0209,0.33073 -0.13345,-0.33073 -0.13345,-0.33073 h -0.91961 -0.91961 l 0.16352,0.26458 0.16352,0.26459 h -0.26458 -0.26458 l -0.16352,-0.26459 -0.16352,-0.26458 h -4.48231 -4.4823 l -0.0396,0.72761 -0.0396,0.7276 -0.11022,-0.7276 -0.11022,-0.72761 h -2.76055 -2.76056 l 0.002,0.19844 0.002,0.19844 0.67879,0.31498 0.67878,0.31499 0.42089,-0.16151 0.42089,-0.16151 -0.19131,0.30954 -0.19131,0.30955 h -0.33859 -0.33859 l -2.19293,-0.69023 -2.19292,-0.69022 -2.67839,0.13272 -2.678393,0.13271 -0.636686,0.20231 -0.636686,0.20231 0.16684,-0.26995 0.166839,-0.26995 -3.631195,0.0298 -3.631195,0.0298 0.0026,0.86077 0.0026,0.86076 -0.267193,-0.0893 -0.267193,-0.0893 0.08609,-0.83765 0.08609,-0.83764 h -2.10421 -2.104211 l -0.342063,0.41216 -0.342064,0.41216 -0.928284,0.38787 -0.928284,0.38786 -0.283404,-0.10058 -0.283403,-0.10057 -0.529166,0.1894 -0.529167,0.1894 -0.926042,-0.33955 -0.926041,-0.33956 0.529166,-0.053 0.529167,-0.053 1.322917,0.0429 1.322916,0.0429 0.79375,-0.53752 0.79375,-0.53751 -1.859358,-0.002 -1.859357,-0.002 -0.521892,0.36124 -0.521893,0.36123 -0.635336,0.19847 -0.635337,0.19846 0.15561,-0.40551 0.155609,-0.40551 -0.401808,-0.15419 -0.401809,-0.15419 h -6.275231 -6.275232 l 0.106321,0.91072 0.10632,0.91071 -0.129268,0.34606 -0.129268,0.34605 -0.300894,-0.66146 -0.300895,-0.66145 0.162482,1.19062 0.162482,1.19063 -0.01882,5.68854 -0.01881,5.68854 0.0093,2.38125 0.0093,2.38125 0.07662,3.83646 0.07662,3.83646 0.04108,7.87135 0.04108,7.87135 h 0.414704 0.414705 l -0.160884,0.5069 -0.160884,0.5069 0.275346,0.17018 0.275346,0.17017 v -0.50068 -0.50069 l 0.185546,-0.18554 0.185546,-0.18555 0.0229,-5.40276 0.0229,-5.40277 0.209097,-0.20909 0.209097,-0.2091 -0.133039,6.87779 -0.13304,6.87779 -0.06046,1.21644 -0.06046,1.21644 0.188445,0.30491 0.188444,0.30491 h 0.22722 0.227219 l -0.0285,-4.49176 -0.0285,-4.49176 0.182545,-0.18254 0.182545,-0.18255 0.02684,0.7717 0.02684,0.77171 0.09317,1.03513 0.09317,1.03513 0.343005,0.21759 0.343005,0.21758 0.198437,0.004 0.198438,0.004 v -1.33853 -1.33854 l 0.24723,0.1528 0.247231,0.1528 0.398065,1.38417 0.398066,1.38417 -0.09371,0.96501 -0.09371,0.96501 0.345198,1.41624 0.345198,1.41624 0.04785,-1.05833 0.04785,-1.05833 0.202326,-0.51726 0.202326,-0.51725 0.175071,4.22142 0.175071,4.22142 8.82e-4,3.19705 8.81e-4,3.19705 0.176389,0.17638 0.176389,0.17639 h 0.12602 0.12602 z M 121.58711,91.6302 v -0.54479 h -0.26458 -0.26458 V 90.50636 89.9273 l 0.52916,0.56799 0.52917,0.568 v 0.39232 0.39232 l -0.26458,0.16353 -0.26459,0.16352 z m -1.07656,-2.99218 -0.0182,-0.0661 -0.0956,-0.72342 -0.0956,-0.72342 0.24609,-0.15209 0.24609,-0.15209 0.0182,0.21405 0.0182,0.21406 0.096,0.7276 0.096,0.7276 h -0.24654 -0.24653 z m -2.6276,-1.63299 v -0.3863 l 0.2463,-0.15223 0.2463,-0.15222 0.15084,0.24406 0.15084,0.24406 0.59504,-0.14344 0.59505,-0.14345 -0.26458,0.26642 -0.26458,0.26641 -0.72761,0.1715 -0.7276,0.17149 z m 8.9362,-1.27743 -0.11071,-1.38906 0.21746,-0.25135 0.21746,-0.25136 v 1.64042 1.64041 h -0.10675 -0.10676 z m -9.59766,0.33073 -0.16352,-0.26458 h 0.54478 0.54478 v -0.36857 -0.36857 l 0.42667,-0.16373 0.42668,-0.16373 -0.31147,-0.37529 -0.31146,-0.37529 0.56333,-0.30149 0.56333,-0.30149 -0.30352,-0.36572 -0.30353,-0.36573 0.17198,-0.54186 0.17198,-0.54187 h 0.3274 0.3274 l -0.0611,1.12448 -0.0611,1.12448 -0.23358,0.78086 -0.23358,0.78086 -0.77816,0.45658 -0.77816,0.45657 -0.18283,0.0193 -0.18282,0.0193 z m 6.69622,-0.19844 -0.11238,-0.46302 0.1081,-1.25596 0.10809,-1.25596 0.23801,0.1471 0.238,0.14709 v 1.57189 1.57188 h -0.23372 -0.23373 z m 1.11304,-6.92326 -0.004,-5.66649 0.16224,0.16224 0.16224,0.16224 0.0772,5.13242 0.0772,5.13242 -0.2354,0.37183 -0.2354,0.37183 z m -24.94103,4.03606 0.33073,-0.13346 v -0.40944 -0.40945 l -0.921196,0.14949 -0.921193,0.14949 -0.159946,-0.2588 -0.159946,-0.25879 0.419681,-0.64052 0.419681,-0.64051 v -0.49426 -0.49426 l 0.54248,0.04 0.542479,0.04 0.49858,0.81985 0.49858,0.81985 -0.0489,0.94686 -0.0489,0.94687 -0.66146,-0.0197 -0.661458,-0.0197 z m -6.080205,-1.13307 -0.167118,-1.176 0.290649,-0.54309 0.29065,-0.54308 0.09309,0.27926 0.09309,0.27927 -0.216618,1.43982 -0.216619,1.43982 z m -27.115096,-2.92504 -0.0015,-3.30729 0.173989,1.44698 0.17399,1.44698 -0.172441,1.86031 -0.172441,1.86031 z m 60.076981,-0.33226 0.0397,-2.79136 0.19843,0.12222 0.19844,0.12221 -0.004,2.29949 -0.004,2.29949 -0.23406,0.36966 -0.23406,0.36966 z m -6.97179,1.9414 v -0.50753 l -0.16059,-0.41851 -0.1606,-0.41852 h 0.68976 0.68977 v 0.42774 0.42773 l 0.5289,-0.13831 0.5289,-0.13831 0.14817,0.23974 0.14817,0.23975 h 0.77814 0.77813 v 0.30101 0.30101 l -1.43931,-0.16916 -1.43932,-0.16917 -0.1638,0.26503 -0.1638,0.26503 h -0.38126 -0.38126 z m -50.159701,-2.02578 -0.177434,-0.9458 0.297737,-0.29774 0.297736,-0.29774 v 1.24355 1.24354 h -0.120302 -0.120303 z m 1.361505,0.70942 -0.151432,-0.24503 0.161457,-0.42075 0.161458,-0.42075 h 0.236276 0.236275 v 0.51355 0.51355 l -0.246301,0.15223 -0.246301,0.15222 z m 1.276337,-3.10151 -1.087488,-0.38571 -0.543231,-0.58559 -0.543231,-0.58559 -0.08907,-0.51958 -0.08907,-0.51957 0.479817,-0.0984 0.479817,-0.0984 -0.04814,0.35337 -0.04815,0.35336 0.03135,0.44545 0.03135,0.44544 0.727605,0.0837 0.727604,0.0837 -0.06615,0.33073 -0.06615,0.33073 0.330729,0.0119 0.330729,0.0119 0.79375,0.36345 0.79375,0.36345 -0.529166,6e-4 -0.529167,6e-4 z m 55.221159,-2.37269 0.0264,-2.62379 0.18992,0.66146 0.18992,0.66146 -0.0906,1.83666 -0.0906,1.83666 -0.12567,0.12566 -0.12566,0.12567 z m -3.38398,-1.56545 0.003,-1.5875 0.10707,0.86463 0.10707,0.86463 -0.10977,0.72287 -0.10977,0.72287 z m -50.982535,-1.5762 -0.443392,-0.6767 0.602702,-0.54886 0.602702,-0.54886 1.058333,-0.89824 1.058333,-0.89824 0.330729,-0.006 0.33073,-0.006 v 0.2286 0.2286 l -1.115577,0.76359 -1.115577,0.76359 -0.492381,0.48347 -0.49238,0.48348 0.136565,0.35588 0.136564,0.35588 0.580774,-0.15187 0.580775,-0.15188 -0.122293,0.37085 -0.122293,0.37085 -0.535461,0.0794 -0.53546,0.0794 z m 54.340135,-0.69016 v -0.81114 l -0.26363,-0.49261 -0.26364,-0.4926 0.15907,-0.41452 0.15907,-0.41453 0.20214,0.12493 0.20214,0.12494 0.036,1.59334 0.036,1.59334 h -0.13359 -0.13359 z m -59.866511,0.38167 -0.151453,-0.24505 0.216275,-0.91951 0.216274,-0.9195 0.02708,0.47501 0.02708,0.47501 0.992187,-0.16568 0.992188,-0.16567 -0.768698,0.4239 -0.768697,0.42389 -0.315395,0.43133 -0.315395,0.43133 z m 16.871721,-1.42261 -0.163522,-0.26458 0.154691,-0.25029 0.15469,-0.2503 1.05155,0.0419 1.051549,0.0419 v 0.0725 0.0725 l -0.958353,0.40042 -0.958354,0.40043 h -0.08436 -0.08437 z m 9.855729,-0.98881 1.389062,-0.0972 1.389063,0.0972 1.389062,0.0972 h -2.778125 -2.778125 z m 6.994241,-0.20664 0.13713,-0.13713 3.21939,-0.0341 3.21939,-0.0341 0.17126,0.17127 0.17126,0.17126 h -3.52777 -3.52778 z m 7.22711,-0.003 0.26459,-0.0983 3.50573,-0.0837 3.50572,-0.0837 v 0.20287 0.20287 l -3.77031,-0.0209 -3.77031,-0.0209 z m 0.39688,-0.90974 V 66.4962 l 1.98437,0.0405 1.98438,0.0405 v 0.21554 0.21555 h -1.98438 -1.98437 z m 4.49791,-0.009 v -0.26459 l 2.05053,0.004 2.05052,0.004 0.39687,0.25648 0.39688,0.25648 -2.4474,0.004 -2.4474,0.004 z m -28.925477,-0.1741 -0.174094,-0.17409 0.294685,-0.35507 0.294685,-0.35508 h 0.232186 0.232187 v 0.52917 0.52917 h -0.352778 -0.352778 z m -42.140287,57.39024 -0.0759,-0.99219 -0.0156,-0.74965 -0.0156,-0.74965 -0.32774,0.10925 -0.32775,0.10925 -0.37116,0.9752 -0.37117,0.97521 0.63277,0.62948 0.63276,0.62947 0.15768,0.0279 0.15767,0.0279 z m 10.740769,-2.0349 v -0.38126 l -0.304665,-0.1883 -0.304664,-0.18829 0.43048,-0.31478 0.43048,-0.31477 -0.35557,-0.48627 -0.35557,-0.48627 -0.32392,0.60525 -0.32393,0.60526 0.2891,0.28909 0.289093,0.2891 v 0.47625 0.47625 h 0.264583 0.264583 z m 71.670655,-0.74322 0.24829,-0.8599 0.0239,0.8599 0.0239,0.85989 h 0.24675 0.24675 l 0.16927,-0.53332 0.16927,-0.53332 -0.31569,-0.98803 -0.31569,-0.98804 -0.23263,-0.25135 -0.23262,-0.25135 v -0.60855 -0.60854 h -0.36306 -0.36306 l -0.1763,1.10256 -0.17631,1.10257 0.25577,0.15807 0.25576,0.15807 -0.0227,0.39301 -0.0227,0.39301 0.0417,0.72761 0.0417,0.7276 h 0.12473 0.12472 z m 5.42091,0.26458 0.15954,-0.59531 0.004,-0.46302 0.004,-0.46302 h -0.26458 -0.26458 v 0.90399 0.90399 l -0.33073,0.13345 -0.33073,0.13346 0.43216,0.0209 0.43216,0.0209 z m -63.087245,-0.92604 -0.0186,-0.46302 -0.227391,-0.52917 -0.22739,-0.52917 -0.0186,0.99219 -0.0186,0.99219 h 0.264583 0.264584 z m 0.791459,-1.71979 -0.02089,-1.91823 -0.0922,0.26458 -0.0922,0.26458 -0.102237,1.65365 -0.102236,1.65365 h 0.21532 0.215321 z m 63.516836,-1.42435 0.004,-0.29987 -0.46302,-0.16332 -0.46302,-0.16332 -0.3638,-0.1652 -0.36381,-0.16519 0.12127,0.3638 0.12127,0.3638 0.37482,6.9e-4 0.37483,6.8e-4 0.0356,0.39619 0.0356,0.39619 0.0346,0.26458 0.0346,0.26459 0.25648,-0.39688 0.25648,-0.39687 z m -92.070944,-1.18657 v -0.79375 l -0.26459,0.16352 -0.26458,0.16352 v 0.79375 0.79375 l 0.26458,-0.16352 0.26459,-0.16352 z m 20.06732,-0.23335 -0.06245,-1.05834 h -0.209644 -0.209644 l 0.09951,0.8599 0.0995,0.8599 0.02958,0.19843 0.02958,0.19844 h 0.14301 0.14301 z m 71.743094,-3.54701 v -0.34078 l -0.52917,-0.61013 -0.52917,-0.61013 v 0.43735 0.43736 h 0.26459 0.26458 v 0.67708 0.67707 l 0.26458,-0.16352 0.26459,-0.16352 z m -67.64341,-0.22331 -0.205889,-0.33072 0.08074,-0.66146 0.08074,-0.66146 0.241826,-0.25136 0.241826,-0.25135 v -0.4983 -0.4983 l -0.325615,0.10854 -0.325614,0.10854 -0.231,0.97677 -0.231,0.97676 0.16478,0.65654 0.164781,0.65653 h 0.275157 0.275157 z m 50.29161,-2.91041 -0.18015,-1.65365 -0.12743,-0.22149 -0.12743,-0.22149 -0.20726,0.22149 -0.20725,0.22149 0.27361,1.65365 0.27362,1.65364 h 0.24122 0.24123 z m 5.86773,-0.88936 -0.1636,-0.42633 0.39988,0.15345 0.39987,0.15344 v -0.22543 -0.22544 l -0.7276,-0.13977 -0.72761,-0.13977 -0.0876,0.0863 -0.0876,0.0863 0.29533,0.55183 0.29533,0.55183 h 0.28358 0.28358 z m -41.176134,-1.42575 h 0.303933 l -0.163521,0.26459 -0.163522,0.26458 h 0.227282 0.227281 l 0.3175,-0.3175 0.3175,-0.3175 v -0.31565 -0.31565 l -0.396875,-0.1523 -0.396875,-0.15229 -0.34473,0.13228 -0.344731,0.13229 -0.449019,0.76013 -0.44902,0.76013 0.0088,0.22376 0.0088,0.22376 0.496629,-0.59531 0.496629,-0.59532 z m -19.703338,0 0.410464,-0.79375 h 0.216782 0.216781 l 0.473242,0.52293 0.473243,0.52293 0.229223,-0.14167 0.229222,-0.14167 v -0.8643 -0.86431 l -0.679144,-0.63802 -0.679145,-0.63802 -0.505597,0.65804 -0.505597,0.65805 -0.0059,0.77292 -0.0059,0.77292 -0.437882,0.48385 -0.437882,0.48385 h 0.298796 0.298796 z m 37.383588,0.43084 0.319536,-0.19748 v -0.49554 -0.49553 l -0.768448,-0.54719 -0.768449,-0.54718 h -0.136571 -0.136571 l -0.173031,0.7878 -0.173031,0.78781 0.163713,0.51581 0.163714,0.51582 0.594801,-0.0634 0.5948,-0.0634 z m -52.355199,-1.75375 -0.0145,-0.92604 -0.22739,0.52916 -0.22739,0.52917 -0.0145,0.79375 -0.0145,0.79375 0.25648,-0.39688 0.25648,-0.39687 z m 66.541713,-0.66146 -0.16601,-0.66146 h 0.42556 0.42555 V 104.09203 103.87 l -0.92604,0.0234 -0.92604,0.0234 v 0.0916 0.0916 l 0.54718,0.76845 0.54719,0.76845 h 0.11931 0.11932 z m 0.1605,-2.11667 0.002,-0.26458 -2.54281,-0.13229 -2.54282,-0.13229 -0.12185,0.19843 -0.12185,0.19844 0.16928,0.27391 0.16929,0.2739 2.49351,-0.0755 2.49351,-0.0755 z m 1.74591,-0.8092 -0.14636,-0.38142 h -0.26459 -0.26458 l 0.12399,0.39687 0.12398,0.39688 0.17324,0.46302 0.17324,0.46302 0.11372,-0.47848 0.11373,-0.47847 z m -20.006721,0.29074 v -0.12158 l -0.714863,-0.66286 -0.714863,-0.66286 -0.124027,0.12403 -0.124028,0.12403 0.620428,0.66041 0.620428,0.66042 h 0.218462 0.218463 z m -20.612709,-1.15501 -0.282666,-0.52816 -0.797105,-0.35284 -0.797104,-0.35283 -0.0041,-0.39843 -0.0041,-0.39843 -0.280328,-0.39688 -0.280329,-0.39687 0.160207,0.97155 0.160207,0.97156 -0.272702,0.16853 -0.272702,0.16854 v -0.28019 -0.2802 h -0.396875 -0.396875 v 0.24675 0.24675 l 0.463021,0.11657 0.463021,0.11657 0.926041,0.0347 0.926042,0.0347 0.396875,0.49985 0.396875,0.49986 0.08758,-0.0815 0.08758,-0.0815 z m -12.760142,-1.30309 -0.03535,-1.52135 -0.191627,1.32291 -0.191627,1.32292 0.110302,0.19844 0.110302,0.19843 h 0.116677 0.116677 z m 31.520768,0.27323 v -0.40109 l -0.595313,0.15953 -0.595312,0.15954 -1.574271,0.004 -1.574271,0.004 0.251354,0.24422 0.251354,0.24423 0.79375,0.0865 0.79375,0.0865 1.12448,-0.0928 1.124479,-0.0928 z m -37.956829,-0.0924 0.174401,-0.28218 -0.146461,-0.14647 -0.14647,-0.14646 -0.67378,0.16911 -0.67378,0.16911 v 0.25954 0.25954 h 0.64585 0.64584 z m 53.023853,-2.39181 -0.81558,-1.61567 -0.51114,-1.99853 -0.51114,-1.99853 -0.004,-0.94986 -0.004,-0.94987 -0.24235,-0.38307 -0.24235,-0.38308 -0.16641,0.77995 -0.16641,0.77995 -0.0924,0.4663 -0.0924,0.46629 0.3543,1.65037 0.35429,1.65038 0.63594,1.53842 0.63594,1.53843 0.43847,0.51209 0.43847,0.5121 h 0.40328 0.40327 z m -36.746118,-0.32551 -0.263975,-0.26398 -0.169273,0.44112 -0.169273,0.44112 0.1871,0.46302 0.187099,0.46302 0.246149,-0.64016 0.246148,-0.64017 z m 20.091594,0.92385 v -0.48816 l -0.522412,-0.47277 -0.522412,-0.47278 -0.1777,-0.56042 -0.177699,-0.56042 -0.575209,-0.92604 -0.575208,-0.92604 -0.480259,-1.19063 -0.48026,-1.19062 -0.49207,-1.3156 -0.49207,-1.3156 -0.167687,-1.26409 -0.167687,-1.26409 h -0.212667 -0.212667 l -0.155905,0.49122 -0.155905,0.49121 0.384528,1.55931 0.384527,1.55931 0.310509,1.05833 0.310509,1.05833 1.187322,2.37481 1.187324,2.3748 0.522689,0.73405 0.522691,0.73405 h 0.378858 0.378859 z m -17.095801,-0.19007 0.15873,-0.41364 0.266452,0.16467 0.266452,0.16468 V 97.4316 96.86792 l -0.445002,0.48192 -0.445002,0.48192 -0.399318,0.33073 -0.399317,0.33073 h 0.419137 0.419137 z m -20.740608,-2.43062 -9.9e-4,-0.19844 -0.57941,-0.92604 -0.57942,-0.92604 -0.10296,0.47603 -0.10296,0.47603 0.42488,0.64844 0.42488,0.64845 h 0.25849 0.25848 z M 79.386074,94.767 v -0.63941 l -1.022277,0.0903 -1.022278,0.0903 0.12608,-0.35485 0.126079,-0.35485 -0.367367,-0.72761 -0.367367,-0.7276 H 76.721457 76.58397 l 0.168774,0.89964 0.168773,0.89964 -0.818243,0.17971 -0.818242,0.17972 v 0.49605 0.49606 l 1.785938,0.0898 1.785938,0.0898 0.264583,-0.0336 0.264583,-0.0336 z m 21.341096,0.44216 0.17442,-0.24135 -0.37966,-0.37966 -0.37966,-0.37966 -0.390079,0.14968 -0.390075,0.14969 v 0.49233 0.49234 l 0.595312,-0.021 0.595312,-0.021 z m -21.109585,-2.30527 0.165364,-0.82682 -9.9e-4,-0.69453 -9.89e-4,-0.69453 -0.551278,0.90428 -0.551279,0.90427 -0.23743,-0.37511 -0.237431,-0.37511 -0.0041,0.8158 -0.0041,0.8158 0.176389,0.17639 0.176389,0.17639 h 0.451997 0.451996 z M 64.772587,91.60192 64.545096,90.724 l -0.38472,-0.11721 -0.384719,-0.11722 0.330729,0.35057 0.330729,0.35058 v 0.92604 0.92604 l 0.281482,-0.28148 0.281481,-0.28148 z m 14.481195,-1.6066 v -0.52917 l 0.246302,0.15223 0.246301,0.15222 0.156138,-0.25264 0.156138,-0.25264 -0.377256,-0.2147 -0.377256,-0.21469 -0.05653,-0.39688 -0.05653,-0.39687 0.03135,-0.3129 0.03135,-0.3129 0.463204,-0.14702 0.463204,-0.14701 0.343425,-0.77586 0.343426,-0.77585 1.640766,-1.42959 1.640766,-1.4296 0.45842,-0.16884 0.45842,-0.16884 -0.14512,-0.86996 -0.14512,-0.86997 -0.124316,-0.61289 -0.124315,-0.61289 -0.453568,0.0887 -0.453567,0.0887 v 0.6433 0.64331 l -0.529167,0.14551 -0.529167,0.14552 -0.10021,0.39687 -0.100208,0.39688 -0.04076,0.86189 -0.04076,0.86189 -0.25591,-0.0162 -0.25591,-0.0162 0.07962,-0.8457 0.07962,-0.84569 -0.152966,-0.83435 -0.152967,-0.83435 -0.40459,-0.15526 -0.40459,-0.15525 -0.638185,0.72502 -0.638186,0.72502 -0.0084,-0.42734 -0.0084,-0.42734 0.553158,-0.70322 0.553161,-0.70323 0.439027,0.0722 0.439028,0.0722 -0.02646,-0.33073 -0.02646,-0.33073 -0.03969,-0.41249 -0.03969,-0.41249 -0.306262,0.18928 -0.306262,0.18928 0.170357,-0.63669 0.170357,-0.63668 0.0251,-0.92605 0.0251,-0.92604 0.363452,0.79375 0.363452,0.79375 0.01193,-0.67703 0.01193,-0.67704 -0.383782,-0.51359 -0.383781,-0.51359 -0.400536,0.56043 -0.400535,0.56042 -0.649995,-0.12425 -0.649995,-0.12425 -0.596183,-0.63461 -0.596184,-0.63461 h -0.43013 -0.430129 l -0.298537,0.29854 -0.298538,0.29853 0.226307,0.42907 0.226307,0.42907 0.180004,0.52916 0.180005,0.52917 0.202458,-0.52917 0.202458,-0.52916 0.409018,0.92604 0.409018,0.92604 0.02158,-0.46302 0.02158,-0.46302 h 0.29942 0.299421 l -0.138671,1.03387 -0.138672,1.03388 0.295646,0.29564 0.295647,0.29565 -0.339294,0.54329 -0.339294,0.5433 0.303123,0.36524 0.303123,0.36524 -0.647024,0.16239 -0.647025,0.1624 0.07388,2.69278 0.07388,2.69278 0.27997,1.85208 0.279972,1.85208 0.0052,0.34635 0.0052,0.34634 0.264583,-0.16352 0.264584,-0.16352 z m 0.529167,-4.33439 v -0.66146 h -0.396875 -0.396875 v -0.76898 -0.76898 l 0.498244,0.13029 0.498243,0.1303 0.160303,0.96941 0.160303,0.96942 0.0029,0.33073 0.0029,0.33072 h -0.264583 -0.264584 z m -3.704166,2.91041 V 87.38072 H 75.844961 75.61114 l 0.08464,0.85989 0.08464,0.8599 0.01689,0.33073 0.01689,0.33073 h 0.132292 0.132292 z m 26.934517,-1.11102 0.30038,-0.97873 -0.12023,-0.12023 -0.12022,-0.12022 -0.40035,0.95816 -0.40035,0.95817 v 0.14079 0.14079 h 0.22019 0.22019 z m -30.478086,0.29563 -0.160599,-0.41851 v -0.24295 -0.24294 h -0.264583 -0.264584 v 0.66146 0.66146 h 0.425183 0.425182 z M 61.791282,86.98384 v -0.39687 h 0.529167 0.529166 l 0.04168,-0.59531 0.04168,-0.59532 -0.0075,-0.26458 -0.0075,-0.26458 -0.100278,-0.66146 -0.100278,-0.66146 h 0.926041 0.926042 l 0.06951,-9.47503 0.06951,-9.47502 -0.995547,0.0823 -0.995547,0.0823 0.07392,2.11667 0.07392,2.11667 -0.147827,0.60613 -0.147828,0.60613 -0.322972,-0.2052 L 61.923669,69.794 61.698435,69.79 61.4732,69.786 61.42368,68.5411 61.37416,67.29621 61.194149,67.1162 l -0.180011,-0.18001 -0.692672,0.45386 -0.692671,0.45385 -0.151811,-0.15181 -0.15181,-0.15181 0.480769,-0.53124 0.480769,-0.53125 -0.491141,-0.91199 -0.49114,-0.91199 -1.383547,0.0525 -1.383547,0.0525 0.04733,3.66484 0.04733,3.66483 0.08555,-0.42369 0.08555,-0.42369 h 0.245182 0.245183 l 0.0186,-1.25677 0.0186,-1.25677 0.179841,0.45348 0.179842,0.45349 v 1.96831 1.96831 l 0.194386,-0.30513 0.194386,-0.30512 0.0041,0.31511 0.0041,0.31511 -0.232554,0.14373 -0.232553,0.14373 0.13467,1.1948 0.134673,1.19481 h -0.399186 -0.399185 l -0.332296,0.80223 -0.332297,0.80224 0.167907,0.1679 0.167904,0.16791 V 77.89979 77.5911 h 0.427361 0.427361 l -0.181816,1.45521 -0.181817,1.45521 h 0.283622 0.283622 v -0.52917 -0.52916 h 0.28784 0.287839 l -0.160338,0.99219 -0.160338,0.99218 0.240384,1.19063 0.240384,1.19062 0.02899,-0.45371 0.02899,-0.45371 0.551827,-0.29533 0.551827,-0.29533 0.122231,0.12223 0.12223,0.12223 -0.364488,0.36449 -0.364489,0.36449 -0.154496,0.95205 -0.154497,0.95205 0.499767,0.76548 0.499767,0.76548 0.734223,0.31879 0.734223,0.3188 0.198437,0.0119 0.198438,0.0119 z m -1.006662,-1.24258 0.06491,-0.97799 -0.201075,-0.20108 -0.201074,-0.20107 -0.152656,0.58376 -0.152657,0.58375 h -0.233724 -0.233725 l -0.02929,-0.33072 -0.02929,-0.33073 0.05434,-0.66146 0.05434,-0.66146 0.239529,-0.0882 0.239529,-0.0882 V 82.86074 82.35362 L 59.67461,81.82446 59.145444,81.29529 v 0.44979 0.44979 l -0.299716,-0.29971 -0.299715,-0.29972 0.15912,-0.41466 0.159119,-0.41466 h 0.519641 0.519641 l 0.167951,0.52917 0.167951,0.52917 h 0.372431 0.372431 l -0.15875,0.79375 -0.15875,0.79375 h 0.297656 0.297656 l 0.0041,-0.46302 0.0041,-0.46302 0.243074,0.38424 0.243074,0.38424 -0.154845,0.25055 -0.154846,0.25054 -0.0942,1.04578 -0.0942,1.04578 -0.26928,0.4361 -0.269281,0.4361 z m 1.110646,-0.10197 0.160599,-0.41852 v -0.78719 -0.78773 l 0.207316,0.12813 0.207315,0.12813 -0.102814,1.07811 -0.102815,1.07811 h -0.2651 -0.2651 z m 0.336988,-2.40371 -0.176389,-0.17639 v -1.45521 -1.45521 l 0.151475,0.15148 0.151474,0.15147 0.08225,1.48012 0.08225,1.48013 h -0.05734 -0.05734 z m -1.095906,-2.97805 -0.172973,-0.54499 0.164985,-0.26695 0.164985,-0.26696 h 0.38126 0.38126 V 78.4005 77.62236 l -0.264583,-0.16352 -0.264583,-0.16352 -0.0013,0.34635 -0.0013,0.34634 -0.650629,0.79375 -0.650629,0.79375 -0.0095,-0.43062 -0.0095,-0.43063 0.396875,-0.32938 0.396875,-0.32937 -0.01388,-0.29833 -0.01388,-0.29834 -0.415269,0.59532 -0.415269,0.59531 -0.430749,-0.004 -0.430749,-0.004 -0.396875,-0.25107 -0.396875,-0.25108 0.849085,-0.29615 0.849085,-0.29615 0.149834,-0.47209 0.149834,-0.47208 -0.69549,-2.21778 -0.695489,-2.21778 -0.309178,-0.39688 -0.309177,-0.39687 0.151783,-1.32292 0.151783,-1.32292 0.209486,0.45386 0.209485,0.45386 0.660187,-0.78459 0.660187,-0.78459 h 0.28207 0.282071 l -0.458357,0.50648 -0.458357,0.50648 0.05094,0.48571 0.05094,0.48571 -0.03047,0.23083 -0.03047,0.23084 -0.396875,-0.32938 -0.396875,-0.32938 v 0.29194 0.29194 l 0.661458,0.16602 0.661459,0.16601 v 0.3682 0.36819 H 60.46841 60.203827 v -0.2802 -0.2802 l -0.226505,0.13999 -0.226506,0.13999 0.125488,1.39698 0.125489,1.39698 0.519471,0.8599 0.519471,0.85989 h 0.273034 0.273033 l -0.09618,-2.3151 -0.09618,-2.31511 0.330729,0.0662 0.330728,0.0661 v -0.44979 -0.44979 l 0.29063,0.29063 0.290627,0.29063 -0.147815,1.54822 -0.147815,1.54823 0.0065,2.41655 0.0065,2.41654 -0.522613,0.97508 -0.522612,0.97508 z m 13.354934,6.62931 v -0.36159 l 0.529166,0.13838 0.529168,0.13838 -0.0036,-0.17367 -0.0036,-0.17366 -0.159432,-0.59491 -0.159432,-0.59491 -0.61542,0.11159 -0.615421,0.1116 -0.126688,-0.31044 -0.126688,-0.31043 -0.02089,0.46302 -0.02089,0.46302 h 0.264583 0.264583 v 0.36819 0.36819 l -0.661458,0.16602 -0.661458,0.16601 v 0.1934 0.1934 h 0.79375 0.79375 z m 28.718438,-2.06947 -0.17852,-0.71126 -0.44548,-0.33866 -0.44548,-0.33865 -0.19844,-0.008 -0.19843,-0.008 v 0.38617 0.38616 l 0.7249,0.67217 0.7249,0.67216 h 0.0975 0.0975 z m -44.654752,-0.54551 -0.105412,-0.19843 -0.339395,-0.8599 -0.339395,-0.8599 H 57.54037 57.309973 l 0.152295,0.39688 0.152296,0.39687 H 57.189382 56.7642 v 0.33414 0.33413 l 0.595312,0.29484 0.595312,0.29484 0.352778,0.0325 0.352778,0.0325 z m 15.926872,-0.56109 0.326819,-0.62724 -0.320562,0.19811 -0.320561,0.19812 -0.21594,-0.3494 -0.215939,-0.34939 0.401704,-0.29374 0.401704,-0.29373 -0.426823,-0.35423 -0.426824,-0.35423 0.154237,0.40193 0.154238,0.40194 -0.799488,0.11734 -0.799487,0.11734 -0.140574,-0.36633 -0.140575,-0.36633 -0.266452,0.16467 -0.266452,0.16468 v 0.38126 0.38126 h 0.516717 0.516717 l 0.673908,0.30705 0.673908,0.30706 v 0.53079 0.5308 l 0.09645,-0.11025 0.09645,-0.11024 z m -4.42443,-0.41846 -0.165623,-0.27722 0.447664,0.36313 0.447664,0.36312 0.04605,-0.49541 0.04605,-0.49542 0.02861,-0.8599 0.02861,-0.85989 H 70.734522 70.532608 L 70.364564,81.70026 70.19652,82.3698 69.698065,82.2116 69.19961,82.05339 v 0.75866 0.75867 l 0.316026,0.31602 0.316025,0.31603 0.195683,-0.31662 0.195683,-0.31663 z m -15.74091,-1.13729 0.110666,-0.33091 -0.418984,0.16078 -0.418983,0.16078 v -0.29289 -0.2929 h -0.49677 -0.496773 l -0.29468,0.35508 -0.29469,0.35507 0.10813,0.10795 0.10812,0.10795 h 0.991647 0.991651 z m -8.947564,-1.49526 -0.1152,-0.1152 -0.72706,-0.18248 -0.72706,-0.18248 v 0.23053 0.23052 l 0.59531,0.27783 0.59531,0.27782 0.24695,-0.21067 0.24694,-0.21068 z m 42.504504,-0.35665 0.176969,-0.99218 0.541619,-0.59427 0.541618,-0.59427 -0.163926,-0.16393 -0.163926,-0.16392 -0.850947,0.29664 -0.850948,0.29664 -0.501628,-0.45397 -0.501628,-0.45397 -0.244379,0.38636 -0.244379,0.38635 -0.0041,0.29987 -0.0041,0.29987 0.555787,0.14535 0.555788,0.14534 -0.163228,0.26411 -0.163229,0.26411 0.268899,0.16619 0.2689,0.16618 v 0.21811 0.21811 l -0.529167,0.13838 -0.529167,0.13838 v 0.28936 0.28935 h 0.914052 0.914053 z m 17.92221,0.69454 0.57792,-0.29764 0.59532,-0.54223 0.59531,-0.54222 v -0.53041 -0.5304 l -0.9593,-0.87868 -0.9593,-0.87869 h -0.0743 -0.0743 l 0.12592,0.48151 0.12591,0.4815 -0.42648,0.35395 -0.42648,0.35395 -0.30629,-0.30629 -0.30628,-0.30628 h -0.21167 -0.21167 v 0.39687 0.39688 h 0.33983 0.33983 l 0.45933,0.77758 0.45932,0.77757 -0.43942,0.24592 -0.43943,0.24592 0.18505,0.29942 0.18505,0.29942 h 0.13408 0.13407 z m -53.154134,-0.12753 0.418516,-0.1606 V 80.4046 80.09967 l -0.564626,-0.35261 -0.56463,-0.35262 -0.18413,0.29794 -0.18413,0.29793 -0.44187,-0.16956 -0.44186,-0.16956 0.004,0.22674 0.004,0.22675 0.19439,0.29105 0.19438,0.29106 0.39688,0.15108 0.39687,0.15107 0.1768,0.0209 0.1768,0.0209 z m 29.990718,-1.44519 -0.07116,-1.03918 -0.257782,0.0855 -0.257783,0.0855 -0.16851,0.82392 -0.168511,0.82393 0.27021,0.27021 0.270211,0.27021 0.227243,-0.14044 0.227244,-0.14045 z m -45.833198,0.26527 0.1744,-0.28219 -0.13885,-0.13885 -0.13884,-0.13884 -0.55295,0.1755 -0.55295,0.1755 0.15175,0.24553 0.15175,0.24553 h 0.36564 0.36565 z m 72.470064,-0.14559 0.42527,-0.16319 -0.30373,-0.36598 -0.30374,-0.36597 h -0.22287 -0.22288 l -0.2832,0.52916 -0.2832,0.52917 h 0.38454 0.38455 z m -62.287184,-1.67524 -0.2905,-0.54282 -0.45371,0.008 -0.45372,0.008 0.47294,0.35873 0.47293,0.35873 -0.0519,0.22817 -0.0519,0.22817 0.23805,0.52916 0.23805,0.52917 0.0851,-0.58166 0.0852,-0.58167 z m -7.81251,-0.54282 -0.16352,-0.26458 -1.10886,0.004 -1.10887,0.004 0.39688,0.25648 0.39687,0.25648 0.87551,0.004 0.87551,0.004 z m 2.24896,-0.63315 v -0.36857 l -0.44112,-0.16927 -0.44112,-0.16927 -0.2502,0.2502 -0.2502,0.2502 0.17777,0.28764 0.17777,0.28764 h 0.51355 0.51355 z m 46.255337,-0.24867 0.08555,-0.4411 h -0.416275 -0.416276 v 0.55122 0.55122 l 0.330729,-0.11012 0.330729,-0.11012 z m -48.537107,-2.73598 0.95885,-0.1556 V 73.3761 73.19905 l -0.3175,-0.3175 -0.3175,-0.3175 h -0.41351 -0.41351 l -0.26117,0.59531 -0.26118,0.59532 -0.59531,0.0845 -0.59532,0.0846 v 0.20209 0.20208 l 0.17697,0.17697 0.17697,0.17696 0.45167,-0.40876 0.45168,-0.40876 z m 15.246353,0.31051 v -0.39688 h 0.396875 0.396875 V 73.34849 73.0746 l 0.511772,0.27389 0.511773,0.27389 h 0.281977 0.281978 v -0.38857 -0.38857 l -0.396875,0.1523 -0.396875,0.15229 v -0.55747 -0.55748 h -0.546997 -0.546996 l 0.160884,-0.5069 0.160884,-0.5069 -0.275346,-0.17017 -0.275346,-0.17017 -0.0186,-0.5797 -0.0186,-0.5797 -0.212879,0.52917 -0.212879,0.52917 0.139606,0.23857 0.139605,0.23858 -0.484128,0.354 -0.484127,0.354 0.172728,0.17273 0.172729,0.17273 0.403269,-0.33468 0.403269,-0.33469 v 0.98775 0.98775 l -0.520364,-0.62462 -0.520364,-0.62462 -0.0088,0.44462 -0.0088,0.44461 -0.595313,0.11467 -0.59531,0.11466 0.91281,0.036 0.912813,0.036 -0.3175,0.3175 -0.3175,0.3175 v 0.21167 0.21166 h 0.396875 0.396875 z m -4.365623,-0.45449 0.26458,-0.26644 -0.59661,0.18027 -0.59662,0.18027 -0.1593,-0.41512 -0.15929,-0.41512 h -0.20543 -0.20544 l -0.12903,0.675 -0.12903,0.67499 0.82579,-0.1737 0.82579,-0.1737 z m -14.48582,-0.009 -0.11012,-0.33073 -0.44109,-0.0855 -0.4411,-0.0855 v 0.41627 0.41628 h 0.55122 0.55121 z m 9.59103,-1.54675 v -0.47254 l -0.29417,-0.18181 -0.29416,-0.1818 -0.23095,0.36463 -0.23095,0.36462 -0.004,0.76861 -0.004,0.76862 0.52917,-0.47889 0.52917,-0.47889 z m 1.99997,0.0745 -0.16501,-0.5199 -0.6529,-0.12481 -0.6529,-0.1248 v 0.22285 0.22285 l 0.66146,0.16602 0.66146,0.16601 v 0.41229 0.41229 l 0.15645,-0.15645 0.15645,-0.15645 z m -5.7138,-0.37987 -0.01,-0.33073 -1.11482,-0.70427 -1.11482,-0.70427 -0.71952,0.13826 -0.71953,0.13825 -0.24877,0.30143 -0.24878,0.30143 1.20362,0.008 1.20362,0.008 0.42614,0.57734 0.42614,0.57734 0.46302,0.01 0.46302,0.01 z m 3.97841,-1.0005 v -0.27288 l -0.40363,-0.15489 -0.40363,-0.15489 0.26796,-0.32287 0.26796,-0.32287 0.0987,-1.09595 0.0987,-1.09595 0.27402,-0.33622 0.27403,-0.33621 0.27076,-0.99219 0.27077,-0.99219 h -0.76312 -0.76311 l -0.26151,0.48864 -0.26151,0.48863 0.29794,0.29794 0.29794,0.29794 -0.31032,0.68108 -0.31032,0.68109 v 1.03027 1.03026 l -0.30058,0.18577 -0.30057,0.18577 0.6313,0.48542 0.6313,0.48542 0.19844,0.006 0.19844,0.006 z m 3.43958,0.008 v -0.26459 h -0.39687 -0.39688 v -0.39687 -0.39688 h -0.23372 -0.23373 l -0.1332,0.50938 -0.1332,0.50937 0.34016,-0.13054 0.34017,-0.13053 0.17467,0.28262 0.17467,0.28262 h 0.24896 0.24897 z m 6.63968,-1.93282 -0.280858,-0.28086 -0.1321,0.1321 -0.1321,0.1321 0.326128,0.87672 0.326128,0.87673 0.08683,-0.72797 0.08683,-0.72797 z m -14.31259,-0.43282 v -0.77813 l 0.24046,-0.14862 0.24047,-0.14861 0.69645,0.82768 0.69645,0.82768 0.12557,-0.12558 0.12558,-0.12557 0.062,-1.56129 0.062,-1.5613 h -0.39687 -0.39688 l 0.021,0.59532 0.021,0.59531 h -0.57531 -0.57532 l -0.47889,-0.52917 -0.47888,-0.52917 h 0.24928 0.24929 l 0.0399,-0.52916 0.0399,-0.52917 h -0.99936 -0.99935 l 0.0465,0.78203 0.0465,0.78204 -0.37281,0.14306 -0.37281,0.14306 -0.53637,-0.28706 -0.53636,-0.28705 0.12196,-0.63804 0.12197,-0.63804 h -1.55081 -1.55081 v 0.39033 0.39032 l 0.67869,-0.25803 0.67868,-0.25804 h 0.20153 0.20154 l -0.10877,0.74112 -0.10878,0.74112 0.66603,0.30346 0.66602,0.30346 0.9089,-0.14749 0.90891,-0.1475 0.1674,0.89236 0.16741,0.89237 0.59508,0.29473 0.59507,0.29473 0.19844,0.0325 0.19844,0.0325 z m 10.05947,0.37487 0.33468,-0.40327 -0.15858,-0.15858 -0.15859,-0.15859 -0.40828,0.15668 -0.40829,0.15667 v 0.40518 0.40518 h 0.23219 0.23219 z m 3.169693,-1.4816 V 67.0687 l -0.583758,-0.15266 -0.583759,-0.15265 -0.101858,0.10185 -0.101858,0.10186 0.171924,0.54169 0.171924,0.54168 0.513692,-0.3208 0.513693,-0.32081 z m -6.867193,0.15065 0.34135,-0.4113 -0.57354,-0.57354 -0.57353,-0.57353 v 0.98483 0.98484 h 0.23218 0.23219 z M 61.526699,64.9622 v -0.37527 l -0.463021,0.0878 -0.463021,0.0878 -0.08974,0.7877 -0.08974,0.7877 0.552758,-0.50024 0.552759,-0.50024 z m -5.55625,0.3533 v -0.36857 l -0.418515,-0.1606 -0.418515,-0.1606 h -0.218173 -0.218174 l 0.138381,0.52917 0.13838,0.52916 h 0.498308 0.498308 z"
       id="path16" /></g></svg>
