<?xml version="1.0" encoding="UTF-8" standalone="no"?>
<!-- Created with Inkscape (http://www.inkscape.org/) -->

<svg
   width="101.6mm"
   height="84.666664mm"
   viewBox="0 0 101.6 84.666664"
   version="1.1"
   id="svg1"
   xml:space="preserve"
   xmlns="http://www.w3.org/2000/svg"
   xmlns:svg="http://www.w3.org/2000/svg"><defs
     id="defs1" /><g
     id="layer1"
     transform="translate(-40.104203,-71.817381)"><path
       style="fill:#ffffff;fill-opacity:1"
       d="M 40.1042,114.15071 V 71.81738 H 90.904202 141.7042 v 42.33333 42.33333 H 90.904202 40.1042 Z m 34.860872,41.2333 0.306287,-0.30629 0.348096,0.28889 0.348096,0.2889 4.138335,0.0193 4.138335,0.0193 0.121917,-0.33268 0.121918,-0.33268 0.350573,0.33073 0.350573,0.33073 h 3.236545 3.236546 l 0.162429,-0.51177 0.162428,-0.51176 -0.456378,-0.53302 -0.456379,-0.53301 -0.228977,0.14152 -0.228977,0.14151 -0.319139,-0.2568 -0.31914,-0.25681 -0.911028,-0.1951 -0.911029,-0.1951 -0.7913,-0.89379 -0.7913,-0.89378 h -0.326144 -0.326143 l -0.104062,0.31218 -0.104061,0.31218 -0.5133,-0.20829 -0.513299,-0.20829 0.519548,-0.19333 0.519547,-0.19333 -1.133487,-0.18125 -1.133487,-0.18125 -0.576685,-0.3712 -0.576686,-0.3712 -0.992188,-0.18131 -0.992187,-0.18131 v -0.25075 -0.25075 l -0.29856,0.18452 -0.29856,0.18452 0.430851,0.24112 0.430852,0.24111 v 0.25144 0.25144 h -0.349631 -0.34963 l -1.039432,-0.51863 -1.039432,-0.51862 0.579698,-0.0105 0.579697,-0.0105 0.174528,-0.28239 0.174528,-0.28239 -0.555788,-0.14534 -0.555788,-0.14535 v -0.23372 -0.23372 l 0.330729,-0.008 0.33073,-0.008 -0.462344,-0.35099 -0.462344,-0.35099 -1.597662,-0.0226 -1.597662,-0.0227 -0.495239,-0.15718 -0.495239,-0.15718 -0.148431,-0.3868 -0.14843,-0.38681 h 0.105089 0.105089 l 0.44805,0.44805 0.448049,0.44805 0.336613,-0.46034 0.336614,-0.46035 -0.127541,-0.48772 -0.127542,-0.48772 -0.83666,-0.40039 -0.83666,-0.40039 -0.739284,-0.28987 -0.739283,-0.28987 0.07782,-0.40908 0.07783,-0.40909 -0.729523,-0.44746 -0.729523,-0.44746 -0.523658,0.32703 -0.523657,0.32703 h -0.649434 -0.649433 l -0.170076,-0.27519 -0.170076,-0.27519 0.749773,0.16134 0.749774,0.16133 -0.624624,-0.5476 -0.624624,-0.54761 -0.698293,-0.004 -0.698293,-0.004 -0.564574,-0.1515 -0.564575,-0.1515 0.119204,-0.45584 0.119203,-0.45583 -0.691557,-0.3151 -0.691558,-0.31509 h -0.694321 -0.694321 l -0.417709,-0.35248 -0.417708,-0.35248 -1.455208,-0.61543 -1.455209,-0.61543 -1.5875,-0.02 -1.5875,-0.02 0.06615,0.19418 0.06615,0.19419 v 0.39687 0.39688 h 0.396875 0.396875 v 0.26458 0.26459 h -0.383728 -0.383728 l -0.211584,-0.33361 -0.211585,-0.3336 -1.389117,-0.63769 -1.389116,-0.63769 0.433843,-0.47939 0.433843,-0.47939 -0.235352,-2.18734 -0.235351,-2.18734 -0.849089,-0.27445 -0.84909,-0.27446 -0.623171,-0.58544 -0.623172,-0.58544 h -0.289013 -0.289013 l -1.809213,-0.81173 -1.80921,-0.81174 -0.91772,-0.69998 -0.91772,-0.69998 0.60122,-0.14193 0.60121,-0.14193 -0.0278,-0.26458 -0.0278,-0.26459 -0.69897,0.0916 -0.69897,0.0916 -0.61175,0.23258 -0.61174,0.23259 v 0.25766 0.25767 l 0.8599,0.63364 0.85989,0.63364 1.81256,0.75375 1.81256,0.75375 0.79511,0.74274 0.795108,0.74274 h 0.485571 0.48557 l 0.153472,0.24832 0.153471,0.24833 -0.336294,0.2147 -0.336294,0.21469 -0.402807,0.79375 -0.402808,0.79375 -1.236469,0.79375 -1.23648,0.79375 -0.0144,0.45693 -0.0144,0.45692 -0.66608,0.43643 -0.66609,0.43644 0.27378,0.32988 0.27377,0.32987 -0.16931,0.44124 -0.16932,0.44123 0.34748,-0.077 0.34747,-0.077 0.11273,0.52257 0.11273,0.52257 0.43215,0.32892 0.43215,0.32891 0.46302,0.008 0.46302,0.008 v 0.62906 0.62906 l 0.42077,0.3492 0.420766,0.34921 -0.423696,0.30982 -0.42371,0.30982 0.38944,0.3232 0.38943,0.3232 1.07516,0.14421 1.07516,0.1442 0.141456,0.22889 0.141456,0.22888 h -0.801061 -0.801061 l 0.147452,0.38425 0.147451,0.38425 -1.760043,0.0788 -1.76005,0.0788 0.52541,0.56219 0.5254,0.56218 1.211178,0.18163 1.211178,0.18163 v 0.25748 0.25749 l -1.322917,-0.17549 -1.322919,-0.17549 v 0.2409 0.24091 l 1.25677,0.37814 1.256774,0.37813 -0.529166,0.092 -0.529167,0.092 -0.374971,0.12547 -0.37497,0.12548 0.26221,0.26221 0.26222,0.26221 1.038795,0.019 1.038799,0.019 0.435844,0.11624 0.435844,0.11624 -0.135973,0.51996 -0.135974,0.51996 h 0.501154 0.501154 l 0.588038,0.41188 0.588038,0.41188 v 0.21954 0.21954 l -1.202733,0.18036 -1.202733,0.18036 0.15182,0.47834 0.151819,0.47834 -0.536586,0.14032 -0.536587,0.14032 v 0.57871 0.5787 l 0.529167,0.13838 0.529167,0.13838 v 0.23373 0.23372 h 11.324166 11.324167 z m -5.232843,-4.85949 -0.334683,-0.40327 0.184381,-0.18438 0.184381,-0.18438 0.184051,0.25692 0.184052,0.25692 0.396875,0.11079 0.396875,0.11079 0.593561,-0.0165 0.593562,-0.0165 -0.146156,0.23649 -0.146155,0.23648 h -0.87803 -0.87803 z m -3.765006,-0.30828 -0.463021,-0.121 v -0.24831 -0.24831 l 1.025104,0.16392 1.025103,0.16392 0.181136,-0.29308 0.181137,-0.29309 h 0.248969 0.248968 v 0.36857 0.36857 l -0.418515,0.1606 -0.418514,0.1606 -0.573673,-0.0307 -0.573673,-0.0307 z m 3.109096,-1.14014 -0.163763,-0.26497 h 0.262368 0.262369 l 0.172574,-0.54374 0.172573,-0.54373 0.291741,0.0973 0.29174,0.0973 0.07371,0.24804 0.07371,0.24805 -0.636629,0.46341 -0.636628,0.46341 z m 6.746633,-0.61775 v -0.35278 l 0.158159,-0.15816 0.158159,-0.15816 0.371008,0.14237 0.371008,0.14237 v 0.36857 0.36857 h -0.529167 -0.529167 z m -16.205729,-2.31425 -0.46302,-0.26969 v -0.38372 -0.38373 h 0.211666 0.211667 l 0.273257,0.27326 0.273257,0.27325 0.441118,-0.16927 0.441118,-0.16927 v -0.39725 -0.39725 l -0.631263,0.15843 -0.631264,0.15844 -0.137647,-0.52637 -0.137648,-0.52636 0.234276,-0.14479 0.234276,-0.14479 0.515656,0.27597 0.515655,0.27597 1.408042,0.0462 1.408042,0.0462 0.491426,0.24371 0.491426,0.2437 -0.281775,0.28178 -0.281775,0.28178 -0.38278,-0.31768 -0.382781,-0.31768 -0.684938,0.17191 -0.684938,0.1719 0.158602,0.25663 0.158602,0.25662 -0.546242,0.5089 -0.546243,0.50891 -0.606375,-0.008 -0.606376,-0.008 z m -1.389062,-5.00589 -0.478889,-0.52917 h 0.151659 0.151659 l 0.48466,-0.18183 0.484661,-0.18183 -0.363126,0.44642 -0.363126,0.44641 h 0.561563 0.561564 v 0.26458 0.26459 H 59.062918 58.70705 Z m -3.025973,-4.65037 0.346113,-0.41704 -0.379862,-0.24037 -0.379861,-0.24037 -0.182823,-0.004 -0.182823,-0.004 -0.171352,0.27725 -0.171352,0.27726 0.147434,0.3842 0.147433,0.38421 h 0.24049 0.240491 z m 3.952015,-3.94859 v -1.19062 h -0.396875 -0.396875 v 1.19062 1.19063 h 0.396875 0.396875 z m 4.074424,-3.14895 -0.142301,-0.37084 -1.106166,-0.11581 -1.106166,-0.11582 -0.103849,0.0834 -0.103849,0.0834 0.334683,0.40327 0.334684,0.40327 h 1.017632 1.017633 z m -11.992524,-2.27501 h 0.509766 v -0.26458 -0.26458 h -0.811144 -0.811144 l -0.506343,-0.27099 -0.506348,-0.27099 -0.66688,0.16738 -0.66689,0.16738 v 0.20276 0.20275 l 1.38906,0.50362 1.389064,0.50361 0.08555,-0.33818 0.08555,-0.33818 z m 26.775002,0.10764 -0.468361,-0.35539 -0.330729,-0.008 -0.330729,-0.008 v 0.22049 0.22048 l 0.143316,0.14332 0.143316,0.14331 h 0.655773 0.655774 z m 2.687005,-0.0196 0.169273,-0.44112 -0.207111,-0.20161 -0.207111,-0.20162 -0.727605,-0.1797 -0.727604,-0.1797 0.0041,0.35942 0.0041,0.35941 0.194386,0.29105 0.194386,0.29106 0.396875,0.15108 0.396875,0.15107 0.17013,0.0209 0.17013,0.0209 z M 41.703,126.0509 l 0.50568,-0.27063 0.52866,0.33015 0.52866,0.33015 0.3241,-0.3241 0.3241,-0.3241 h -0.56647 -0.56646 l -0.15532,-0.25131 -0.15532,-0.25131 0.51918,-0.27786 0.51919,-0.27786 h 0.66324 0.66323 l 0.16352,-0.26458 0.16353,-0.26458 h -1.12588 -1.12587 l -1.00641,0.69744 -1.00641,0.69744 v 0.36089 0.36089 h 0.14969 0.14968 z m 5.34652,-0.24515 0.19843,-0.0134 v -0.6306 -0.6306 l -0.5289,-0.13831 -0.5289,-0.13832 -0.14817,0.23975 -0.14817,0.23974 0.34634,0.008 0.34634,0.008 -0.51359,0.38846 -0.51359,0.38846 h -0.46298 -0.46298 l -0.12875,0.20832 -0.12875,0.20832 1.23762,-0.0626 1.23761,-0.0626 z m 2.95803,-0.24799 0.144993,-0.2346 -0.405175,-0.33627 -0.405176,-0.33626 -0.283232,0.28323 -0.28323,0.28323 0.17777,0.28764 0.17777,0.28764 h 0.365641 0.365645 z m 30.204235,-0.49705 0.287792,-0.19439 0.15056,-0.59569 0.15056,-0.5957 -0.789423,0.4634 -0.789423,0.46341 -0.276638,0.33073 -0.276638,0.33073 0.62771,-0.004 0.627709,-0.004 z M 69.472952,122.8133 v -0.33323 l 0.529167,-0.33047 0.529167,-0.33047 v -0.33099 -0.33098 l 0.549899,-0.34342 0.5499,-0.34342 0.365305,0.30318 0.365305,0.30317 0.762428,-0.16746 0.762428,-0.16745 0.339139,0.40864 0.339139,0.40863 h 0.5146 0.514599 l -0.167951,0.52917 -0.167951,0.52917 h 0.943872 0.943871 v -0.36857 -0.36857 l 0.463021,-0.189 0.463021,-0.189 -0.521194,-0.1939 -0.521194,-0.19391 1.692576,-1.246 1.692576,-1.24601 0.399003,-0.22329 0.399003,-0.22329 0.05822,-0.841 0.05822,-0.841 0.145917,-0.14592 0.145918,-0.14592 0.408286,0.15668 0.408286,0.15667 v 0.93435 0.93434 h 0.608541 0.608542 l 0.286984,0.28699 0.286984,0.28698 0.558495,-0.0885 0.558495,-0.0885 -0.395687,-0.75785 -0.395688,-0.75785 v -0.48331 -0.4833 l 0.264583,-0.16353 0.264584,-0.16352 v -0.63905 -0.63904 l 0.780611,-0.40367 0.78061,-0.40367 h 0.658983 0.658983 l 0.163521,-0.26459 0.163522,-0.26458 0.315114,0.004 0.315114,0.004 0.36381,0.23045 0.363811,0.23045 0.07898,0.71951 0.07898,0.71951 -0.519318,0.9246 -0.519319,0.9246 0.324096,0.39052 0.324096,0.39051 -0.342029,0.21138 -0.34203,0.21139 0.178435,0.5622 0.178435,0.5622 h -0.893302 -0.893301 l -0.513591,0.38754 -0.51359,0.38755 0.780962,0.63551 0.780962,0.63551 1.266994,-0.77959 1.266995,-0.77959 0.150471,-0.24347 0.150471,-0.24346 h 0.542997 0.542997 l -0.194701,-0.99219 -0.194701,-0.99219 -0.06405,-0.92604 -0.06405,-0.92604 -0.432156,-1.0245 -0.432156,-1.0245 v -0.52299 -0.523 l 0.79375,-0.74147 0.79375,-0.74147 v -0.32312 -0.32312 l -0.379962,0.31534 -0.379962,0.31534 -0.54608,-0.29225 -0.546079,-0.29225 v -0.37826 -0.37826 l -0.551177,-0.29498 -0.551176,-0.29498 -0.461844,0.41796 -0.461845,0.41797 H 87.633901 87.18341 l -0.162542,-0.42358 -0.162543,-0.42358 0.369284,-0.25928 0.369283,-0.25928 -0.752912,0.16508 -0.752912,0.16509 -0.399786,-0.33179 -0.399785,-0.3318 -0.567094,-0.33683 -0.567094,-0.33683 -0.430768,-0.15894 -0.430769,-0.15895 -0.308946,-0.67806 -0.308945,-0.67806 0.723069,-0.75472 0.72307,-0.75472 h 0.392686 0.392686 l 0.448528,0.40591 0.448529,0.40591 1.261059,-0.28261 1.26106,-0.28261 0.138985,0.13899 0.138985,0.13898 0.39136,-0.3248 0.39136,-0.3248 0.39286,0.59168 0.39286,0.59168 h 0.48128 0.48128 l 0.157438,-0.25474 0.157439,-0.25474 -0.67431,-1.06818 -0.674309,-1.06817 h -0.16595 -0.16595 l -0.330913,0.45255 -0.330914,0.45255 -0.702892,-0.32026 -0.702892,-0.32026 -0.582863,-0.01 -0.582863,-0.01 -0.775171,-0.63366 -0.775171,-0.63367 0.30889,-0.37219 0.30889,-0.37219 -0.659384,-0.35289 -0.659384,-0.35289 0.04292,-0.28539 0.04292,-0.28538 -0.151465,-0.39688 -0.151465,-0.39687 -0.144645,-1.03182 -0.144645,-1.03182 0.518963,-0.72882 0.518963,-0.72881 v -0.1576 -0.15759 H 84.284568 83.75036 l 0.154342,-0.61494 0.154341,-0.61495 -0.454549,-0.37724 -0.454549,-0.37724 -0.151157,0.086 -0.151158,0.086 -0.09662,-0.28987 -0.09662,-0.28987 0.82608,-0.28797 0.82608,-0.28797 -0.305447,-0.36805 -0.305447,-0.36804 h -0.33617 -0.336171 l -0.161457,-0.42075 -0.161458,-0.42075 0.148765,-0.24071 0.148765,-0.2407 h 0.761805 0.761806 l 0.81518,-0.74455 0.81518,-0.74456 -0.181489,-0.18149 -0.18149,-0.18149 h -0.485069 -0.48507 V 87.84291 87.46524 L 84.144047,86.93449 83.469311,86.40375 83.15186,86.29097 82.834409,86.17819 83.575645,85.4796 84.31688,84.781 h 0.493487 0.493486 l 0.103809,0.31143 0.10381,0.31143 0.290275,-0.1794 0.290275,-0.1794 -0.144997,-0.55447 -0.144996,-0.55447 -0.732274,0.14646 -0.732273,0.14645 -0.147921,-0.38547 -0.14792,-0.38548 h -0.37432 -0.37432 l -0.132518,-0.50675 -0.132519,-0.50675 -0.625944,-0.0886 -0.625945,-0.0886 v -0.52917 -0.52916 l 0.79375,-0.0896 0.79375,-0.0896 0.315023,-0.26053 0.315024,-0.26054 0.08185,-0.70824 0.08185,-0.70824 0.661458,0.0934 0.661459,0.0934 0.206135,0.30346 0.206135,0.30346 0.816002,-0.92604 0.816003,-0.92604 0.12439,0.33073 0.12439,0.33072 h 0.491503 0.491504 l 0.163521,-0.26458 0.163522,-0.26458 h 0.248968 0.248968 v 0.92604 0.92604 h 0.157615 0.157614 l 0.768427,-0.45392 0.768428,-0.45392 V 78.78834 78.4662 l 0.859896,0.0171 0.859895,0.0171 0.32736,0.25935 0.32736,0.25935 0.424121,-0.16275 0.424121,-0.16275 0.306852,0.19929 0.306853,0.1993 1.322917,0.42757 1.322916,0.42757 v 0.56157 0.56156 l 0.745915,0.79244 0.745915,0.79244 -0.166217,0.26895 -0.166218,0.26894 H 98.71162 98.34819 L 98.180239,82.66406 98.012288,82.1349 h -0.214357 -0.214357 l -0.329377,0.39687 -0.329377,0.39688 h -0.250016 -0.250016 l 0.167951,-0.52917 0.167951,-0.52917 h -0.412623 -0.412622 l -0.474244,0.99219 -0.474243,0.99219 -0.391884,-0.0635 -0.391883,-0.0635 -0.335544,0.5373 -0.335543,0.53729 0.15687,0.25382 0.15687,0.25382 h 0.749827 0.749828 l 0.165164,0.43041 0.165164,0.43041 -0.275082,0.33145 -0.275082,0.33146 -0.754406,0.15088 -0.754407,0.15088 -0.160648,0.41864 -0.160648,0.41864 0.693208,0.26356 0.693207,0.26355 0.966825,1.08948 0.966826,1.08948 0.549084,-0.29386 0.549083,-0.29386 0.14885,0.14885 0.14885,0.14884 -0.142369,0.37101 -0.142369,0.37101 h -0.368568 -0.368567 v 0.25095 0.25095 l 0.629368,0.6791 0.629369,0.6791 0.394739,-0.15147 0.39474,-0.15148 0.03039,-1.34881 0.03039,-1.34882 0.400712,-0.44278 0.400712,-0.44278 V 88.66252 88.22033 H 99.370868 98.841701 V 87.82346 87.42658 L 98.325112,86.91 97.808523,86.39341 98.721987,86.06309 99.635451,85.73278 V 85.43006 85.12735 L 99.106284,84.64846 98.577118,84.16957 V 83.93668 83.7038 l 0.562814,0.30121 0.562815,0.30121 0.227042,-0.35805 0.227041,-0.35804 0.17353,-0.90201 0.17353,-0.90201 -0.26006,-0.42091 -0.260071,-0.42091 0.112481,-0.33073 0.11248,-0.33073 h 0.98571 0.98572 l 0.51148,0.37401 0.51148,0.374 0.72971,-0.43105 0.72971,-0.43105 0.006,-0.14139 0.006,-0.14139 0.50352,-0.65528 0.50351,-0.65529 0.66859,0.72143 0.6686,0.72143 h 0.27722 0.27721 l 0.0417,-0.46302 0.0417,-0.46302 -0.0409,-0.39688 -0.041,-0.39687 0.14584,-0.87207 0.14583,-0.87207 0.63935,-0.29131 0.63935,-0.29131 0.33856,0.27204 0.33857,0.27205 0.92604,-0.0519 0.92604,-0.0519 0.46302,-0.20954 0.46302,-0.20954 0.39688,0.15229 0.39687,0.1523 v 0.53747 0.53747 h 0.52917 0.52917 v 0.51416 0.51417 l -0.56395,0.395 -0.56395,0.39501 0.16029,0.41771 0.1603,0.41772 0.64253,0.24429 0.64254,0.2443 0.20484,0.33143 0.20484,0.33144 -0.31143,0.10381 -0.31143,0.1038 v 0.50712 0.50712 l 0.19844,-0.0313 0.19844,-0.0313 0.74321,0.0313 0.74322,0.0313 -0.16585,0.26837 -0.16586,0.26836 -1.07186,0.54682 -1.07187,0.54682 0.29607,0.29607 0.29606,0.29606 v 0.20512 0.20512 l -0.67868,-0.25804 -0.67869,-0.25803 h -0.30027 -0.30028 l 0.3175,0.3175 0.3175,0.3175 v 0.59071 0.59071 l -0.46302,0.15969 -0.46302,0.15969 -1.16494,1.05448 -1.16494,1.05447 0.33083,1.11877 0.33084,1.11877 0.25712,0.48878 0.25713,0.48879 -0.13068,0.13069 -0.13069,0.13068 -0.5491,-0.17428 -0.54911,-0.17428 -0.008,-0.44519 -0.008,-0.44519 -0.35148,-0.46302 -0.35148,-0.46302 h -0.43386 -0.43385 v 0.35587 0.35586 l -0.52917,0.47889 -0.52916,0.47889 v 0.34272 0.34272 l -0.46302,0.26824 -0.46302,0.26824 0.87065,0.82671 0.87066,0.82671 0.4128,-0.3426 0.41281,-0.3426 0.30404,-0.0792 0.30404,-0.0792 0.9021,-0.16702 0.9021,-0.16702 -0.20389,0.49925 -0.20389,0.49924 -0.0367,0.39688 -0.0368,0.39687 h 0.39688 0.39687 l 0.009,-0.56494 0.008,-0.56494 0.35458,-0.42725 0.35458,-0.42724 h 0.76136 0.76135 v 0.24253 0.24254 l -0.22739,0.0882 -0.22739,0.0882 -0.57227,1.30377 -0.57228,1.30377 0.24209,0.24209 0.2421,0.2421 0.58023,-0.31053 0.58023,-0.31054 0.13782,0.13782 0.13782,0.13782 -0.95423,0.98254 -0.95423,0.98254 v 0.60525 0.60526 l -0.26458,0.16352 -0.26459,0.16352 v 0.66475 0.66474 l -0.41577,-0.41578 -0.41577,-0.41577 h -0.22405 -0.22404 l -0.41852,0.1606 -0.41851,0.1606 v 0.36857 0.36856 h 0.40518 0.40517 l 0.14445,0.37642 0.14444,0.37642 -0.54962,0.54962 -0.54962,0.54963 h -0.2739 -0.27389 l -0.63618,0.41684 -0.63618,0.41684 0.14463,0.37691 0.14463,0.37691 h -0.27035 -0.27036 l -0.94858,1.29222 -0.94857,1.29221 -0.004,0.62601 -0.004,0.62602 -0.15097,0.56253 -0.15096,0.56253 -0.70532,0.35263 -0.70532,0.35263 -0.58775,0.63855 -0.58775,0.63854 -0.15769,0.49681 -0.15768,0.49682 h -0.32954 -0.32955 l -0.75129,0.78418 -0.7513,0.78418 0.33326,0.40155 0.33325,0.40155 -0.94923,1.32126 -0.949225,1.32125 0.506624,0.27114 0.506621,0.27114 h 0.26308 0.26308 l 0.40116,-0.40117 0.40117,-0.40116 1.66825,-0.0695 1.66826,-0.0695 0.8335,-1.31531 0.83349,-1.31531 0.40027,-0.44002 0.40027,-0.44001 1.54436,0.10666 1.54436,0.10666 3.10885,0.16102 3.10886,0.16102 v 0.21189 0.2119 l 0.89761,1.33384 0.89761,1.33384 -0.11742,0.11742 -0.11742,0.11742 -4.02134,-0.12351 -4.02133,-0.12351 0.97156,0.88165 0.97156,0.88165 0.18808,0.66146 0.18808,0.66145 -0.51902,-0.46302 -0.51901,-0.46302 h -0.17194 -0.17193 l 0.30138,0.66146 0.30138,0.66146 h 1.25105 1.25105 l -0.0367,-0.46289 -0.0368,-0.4629 0.60604,-0.0861 0.60604,-0.0861 0.90199,0.53219 0.902,0.5322 -0.31202,-0.71083 -0.31203,-0.71082 -0.18985,-0.13927 -0.18986,-0.13928 0.20783,-0.33627 0.20782,-0.33627 0.33977,0.4094 0.33977,0.4094 h 0.36448 0.36448 v -0.36639 -0.36639 l 1.40146,-0.1751 1.40145,-0.1751 0.45063,0.17292 0.45063,0.17292 v 0.26105 0.26105 l -0.52917,0.13838 -0.52917,0.13838 v 0.23051 0.23051 l 0.8599,-0.0688 0.8599,-0.0688 0.0845,-0.58946 0.0845,-0.58946 h -0.41528 -0.41528 v -0.53796 -0.53796 l 0.66592,-1.31413 0.66591,-1.31412 h 0.77368 0.77368 l 0.15147,0.24509 0.15148,0.24509 0.72403,-0.20636 0.72404,-0.20636 2.19393,0.1282 2.19393,0.1282 0.38576,0.74598 0.38576,0.74597 0.006,0.34387 0.006,0.34386 1.09231,0.77325 1.09231,0.77325 -0.56879,0.21042 -0.5688,0.21041 v 0.27311 0.27311 h 1.33122 1.33122 l 0.16575,0.43192 0.16574,0.43192 -0.30858,0.49412 -0.30858,0.49412 h 0.50936 0.50936 l 0.13898,-0.33073 0.13898,-0.33073 0.27306,0.42723 0.27305,0.42722 0.6022,-0.0627 0.6022,-0.0627 0.32242,-0.0338 0.32243,-0.0338 -0.13791,-0.35937 -0.1379,-0.35938 1.33155,0.12795 1.33155,0.12794 0.008,-24.50711 0.008,-24.50711 H 90.906634 40.897845 v 24.72292 24.72293 l 0.33073,0.21165 0.33073,0.21165 2.45719,-0.0357 2.4572,-0.0357 0.75876,-0.31429 0.75876,-0.31429 0.15387,-0.57365 0.15387,-0.57365 0.004,-0.85989 0.004,-0.8599 0.52916,-0.52917 0.529169,-0.52916 h 0.396875 0.396875 v -0.51986 -0.51986 l 0.595313,-0.32022 0.595312,-0.32021 1.058334,-0.23738 1.058333,-0.23738 0.83838,-0.1396 0.838381,-0.13961 0.539619,-0.50274 0.539619,-0.50273 h 0.135051 0.13505 l -0.152295,0.39688 -0.152295,0.39687 0.491328,-0.004 0.491329,-0.004 0.361959,-0.2293 0.361959,-0.2293 0.481802,0.43179 0.481803,0.43179 0.963844,0.79375 0.963844,0.79375 0.895554,0.85989 0.895554,0.8599 h 0.220486 0.220486 v 0.91722 0.91722 l 0.192004,0.19201 0.192003,0.192 1.779143,0.32723 1.779142,0.32722 0.946999,0.35276 0.947,0.35276 -0.109152,0.32746 -0.109153,0.32745 h 0.418924 0.418923 z m 66.727918,-2.10093 -0.3175,-0.3175 v -0.29528 -0.29527 l 0.95879,-0.84886 0.9588,-0.84885 0.89329,0.68134 0.89329,0.68135 v 0.25111 0.25112 h -0.50712 -0.50712 l -0.11131,0.33073 -0.11132,0.33073 -0.40758,-0.3363 -0.40759,-0.33631 -0.13984,0.53474 -0.13983,0.53475 h -0.36873 -0.36873 z m -1.74122,-2.15607 -0.14645,-0.56002 0.27373,-0.26914 0.27373,-0.26915 0.37906,0.51359 0.37907,0.51359 v 0.18316 0.18315 l -0.50635,0.13241 -0.50635,0.13242 z m -50.51849,3.21762 0.312999,-0.25025 -0.437946,-0.51149 -0.437947,-0.51148 h -0.205782 -0.205782 v 0.51115 0.51115 l -0.79375,0.5652 -0.79375,0.5652 v 0.25194 0.25195 l 1.124479,-0.56656 1.124479,-0.56657 z m -3.124861,-1.91723 0.733736,-0.37943 0.343855,-0.41432 0.343856,-0.41432 -0.230834,0.001 -0.230835,0.001 -1.190625,0.79149 -1.190625,0.79148 0.343869,10e-4 0.343868,0.001 z m 49.919151,-0.43286 0.17498,-0.28313 0.56824,-0.22927 0.56824,-0.22927 -1.39837,-0.0168 -1.39837,-0.0168 0.2832,0.52916 0.2832,0.52917 h 0.37195 0.37195 z m -2.525,-1.99479 v -0.10334 l -1.38906,0.0186 -1.38906,0.0186 0.48346,0.19048 0.48345,0.19047 0.90561,-0.10573 0.9056,-0.10572 z m -13.49375,-0.33365 v -0.25826 l -0.68498,-0.81405 -0.68497,-0.81405 h -1.03482 -1.03481 l -0.52917,0.52917 -0.52916,0.52917 h -0.64646 -0.64646 l -0.34573,-0.47922 -0.34573,-0.47921 -0.3277,-0.19599 -0.3277,-0.19598 0.17563,0.47676 0.17563,0.47676 0.37237,0.58225 0.37238,0.58224 1.36719,0.0792 1.3672,0.0792 1.65365,0.0801 1.65364,0.0801 z m 2.02563,-0.42908 -0.30584,-0.6594 -0.46302,-0.002 -0.46302,-0.002 v 0.11066 0.11065 l -0.15172,0.39537 -0.15172,0.39537 0.48245,0.12474 0.48245,0.12475 0.43813,0.0307 0.43813,0.0307 z m -21.869378,-0.0838 v -0.21401 l -0.356488,-0.48753 -0.356488,-0.48753 -0.195457,0.31626 -0.195456,0.31625 0.319758,0.38529 0.319758,0.38528 h 0.232186 0.232187 z m 5.934068,-3.73368 0.45983,-0.50811 -0.53372,-0.28564 -0.53372,-0.28564 h -0.14969 -0.149685 v 0.3099 0.30989 l -0.437882,0.48386 -0.437882,0.48385 h 0.661458 0.661461 z m -0.0259,-15.47749 0.12827,-0.33426 -0.21052,-0.34063 -0.21052,-0.34064 -0.29417,0.18181 -0.294164,0.1818 v 0.63754 0.63754 l 0.376414,-0.14445 0.37642,-0.14444 z m -4.122126,-1.54305 -0.110119,-0.33072 -0.441096,-0.0856 -0.441096,-0.0855 v 0.41628 0.41627 h 0.551215 0.551216 z m 9.499726,-1.66505 0.15667,-0.40829 -0.15858,-0.15858 -0.15859,-0.15859 -0.40035,0.33227 -0.40036,0.33227 0.14499,0.2346 0.145,0.2346 h 0.25727 0.25727 z m -18.070402,-3.29576 0.226843,-0.21568 -0.54772,-0.29313 -0.547719,-0.29313 0.150746,-0.39284 0.150747,-0.39284 -0.62362,0.004 -0.62362,0.004 -0.364627,0.23095 -0.364626,0.23095 0.173599,0.28089 0.1736,0.28089 -0.543988,0.29113 -0.543988,0.29114 0.114367,0.18516 0.114367,0.18516 1.414398,-0.0905 1.414398,-0.0905 z m 17.500242,-3.39561 v -0.83785 l -0.26458,-0.0661 -0.26459,-0.0661 -0.0838,1.02012 -0.0838,1.02011 0.34837,-0.11612 0.34836,-0.11612 z m -1.08664,0.0666 0.1606,-0.41852 V 86.91948 86.719 l -0.65201,-0.29707 -0.65201,-0.29708 -0.10095,0.18846 -0.10094,0.18846 -0.16868,0.47318 -0.16868,0.47318 0.5909,0.23765 0.59091,0.23766 0.17013,0.0168 0.17013,0.0168 z m 6.74247,-2.49191 h 0.46645 l 0.52759,-0.60678 0.52759,-0.60679 0.17328,-0.45154 0.17328,-0.45155 h 0.52185 0.52186 l 0.14638,-0.23686 0.14639,-0.23686 -0.41699,-0.16002 -0.417,-0.16001 h -0.63982 -0.63982 v -0.60854 -0.60855 l 0.29445,-0.29444 0.29445,-0.29445 -0.17777,-0.28764 -0.17777,-0.28763 h -0.77814 -0.77813 v 0.71055 0.71055 l 0.57283,0.60975 0.57282,0.60975 -0.29924,0.65677 -0.29925,0.65678 -0.61622,0.15466 -0.61623,0.15466 -0.30202,0.48361 -0.30201,0.48361 0.14917,0.57044 0.14917,0.57044 0.3782,-0.53995 0.3782,-0.53996 z m -23.669138,0.10399 0.418514,-0.1606 v -0.40097 -0.40096 l -0.363339,0.30155 -0.36334,0.30154 -0.43041,-0.16516 -0.430411,-0.16517 v 0.2488 0.24879 l 0.176389,0.17639 0.176389,0.17639 h 0.198847 0.198846 z m 17.455828,-2.90375 0.1606,-0.41851 v -0.37524 -0.37524 h -0.3463 -0.34631 l -0.51359,0.39688 -0.51359,0.39687 0.51359,0.39688 0.51359,0.39687 h 0.18571 0.18571 z m 4.84776,-0.80668 0.0984,-0.29916 -0.65462,-0.16429 -0.65462,-0.1643 -0.67982,0.25846 -0.67982,0.25847 v 0.16752 0.16753 l 0.66145,-0.16602 0.66146,-0.16601 v 0.28802 0.28803 l 0.57459,-0.0846 0.57459,-0.0846 z"
       id="path17" /></g></svg>
