<?xml version="1.0" encoding="UTF-8" standalone="no"?>
<!-- Created with Inkscape (http://www.inkscape.org/) -->

<svg
   width="101.6mm"
   height="84.666687mm"
   viewBox="0 0 101.6 84.666687"
   version="1.1"
   id="svg1"
   xml:space="preserve"
   xmlns="http://www.w3.org/2000/svg"
   xmlns:svg="http://www.w3.org/2000/svg"><defs
     id="defs1" /><g
     id="layer1"
     transform="translate(-36.981542,-177.98793)"><path
       style="fill:#ffffff;fill-opacity:1"
       d="m 36.98154,220.32126 v -42.33333 h 50.8 50.8 v 42.33333 42.33334 h -50.8 -50.8 z m 56.042721,41.07657 -0.08775,-0.46303 -1.056133,-0.0847 -1.056132,-0.0847 -0.529167,-0.47687 -0.529167,-0.47687 -0.79375,-0.17078 -0.79375,-0.17077 -0.396875,-0.1073 -0.396875,-0.1073 -0.198437,-0.0202 -0.198438,-0.0202 v -0.38448 -0.38446 l -0.926041,-0.43944 -0.926042,-0.43944 v -0.23443 -0.23444 l 0.463021,-0.0392 0.463021,-0.0392 0.396875,-0.0539 0.396875,-0.0539 0.264583,-0.0485 0.264583,-0.0486 -0.661458,-0.37812 -0.661458,-0.37813 -0.731195,-0.009 -0.731194,-0.009 -0.490528,0.30634 -0.490529,0.30634 -0.498069,-0.21577 -0.498069,-0.21578 -0.330729,0.0533 -0.330729,0.0533 v -0.24379 -0.24378 l 0.41836,-0.34721 0.418359,-0.34721 0.448458,0.28007 0.448458,0.28007 1.213484,0.0244 1.213484,0.0244 0.499386,-0.37808 0.499386,-0.37807 -0.595313,-0.008 -0.595312,-0.008 v -0.2802 -0.2802 l 0.246301,0.15223 0.246301,0.15222 0.166189,-0.2689 0.166189,-0.2689 h 0.517281 0.517282 l 0.772329,0.8599 0.772329,0.85989 0.346208,-0.34174 0.346209,-0.34175 -0.356765,-0.22049 -0.356765,-0.2205 0.292831,-0.18098 0.292831,-0.18098 v -0.38126 -0.38126 h -0.396875 -0.396875 v -0.28019 -0.2802 l 0.323157,0.19972 0.323158,0.19972 0.71371,-0.0544 0.71371,-0.0544 0.399903,0.3999 0.399904,0.39991 0.698257,-0.26548 0.698257,-0.26548 0.643097,0.16141 0.643097,0.16141 0.0041,0.30204 0.0041,0.30205 0.232092,-0.36647 0.232093,-0.36648 0.327851,0.6126 0.327851,0.61259 0.353777,-0.48382 0.353777,-0.48381 0.401771,0.33344 0.40178,0.33344 0.39325,-0.1509 0.39324,-0.1509 0.22269,0.39792 0.22269,0.39793 0.7765,-0.31707 0.776494,-0.31706 0.47147,-0.0915 0.47147,-0.0915 0.15215,0.3965 0.15215,0.39651 h 0.36857 0.36857 v 0.23372 0.23372 l 0.57977,0.15162 0.57977,0.15161 1.53653,-0.45148 1.53653,-0.45149 3.7e-4,-0.22712 3.6e-4,-0.22712 -0.6397,0.16056 -0.63969,0.16055 -0.54255,-0.72718 -0.54254,-0.72719 -0.008,0.33258 -0.008,0.33258 -1.84602,-0.17157 -1.84602,-0.17157 -0.402944,0.33441 -0.40294,0.33441 v -0.44488 -0.44489 l -0.26695,0.16498 -0.26695,0.16499 -0.52218,-0.16573 -0.52218,-0.16574 0.43453,-0.66317 0.43452,-0.66316 0.61214,0.15363 0.61214,0.15364 -0.15355,-0.40015 -0.15355,-0.40014 h 0.29289 0.292894 v 0.39687 0.39688 h 0.39687 0.39688 v -0.64044 -0.64044 l 0.7276,-0.12105 0.72761,-0.12106 1.98253,-0.0437 1.98254,-0.0436 -0.30438,0.30438 -0.30437,0.30437 -0.88282,0.18056 -0.88281,0.18055 -0.0871,0.4525 -0.0871,0.4525 h 0.74951 0.7495 l 0.33047,-0.52916 0.33047,-0.52917 h 0.51131 0.51131 l 0.16648,0.26937 0.16649,0.26938 0.78916,-0.56194 0.78916,-0.56193 0.84591,0.17693 0.84591,0.17692 1.05833,0.0804 1.05833,0.0804 0.46303,-0.40265 0.46302,-0.40265 v -0.34024 -0.34025 l -0.27618,-0.17069 -0.27617,-0.17068 -0.36173,0.30021 -0.36173,0.3002 -0.15293,-0.24745 -0.15294,-0.24745 0.36043,-0.29913 0.36043,-0.29912 0.43378,0.16645 0.43377,0.16646 0.3999,-0.33189 0.3999,-0.33188 0.18419,0.18418 0.18419,0.18419 -0.0786,0.91185 -0.0786,0.91185 h 0.28485 0.28486 v -0.79375 -0.79375 h 0.21166 0.21167 l 0.3175,0.3175 0.3175,0.3175 v -0.44979 -0.44979 h 0.23219 0.23218 l 0.32658,0.3935 0.32658,0.39351 -0.16502,0.43004 -0.16502,0.43004 -0.34807,-0.28886 -0.34806,-0.28887 -0.60593,0.81956 -0.60592,0.81955 0.34917,0.21581 0.34918,0.2158 0.19382,-0.11979 0.19383,-0.11979 0.71306,0.93488 0.71307,0.93487 0.29637,-0.24478 0.29637,-0.24479 0.95524,-0.17848 0.95524,-0.17848 0.1398,0.36432 0.13981,0.36433 -0.33383,0.45653 -0.33382,0.45654 -0.49664,-0.15687 -0.49664,-0.15686 0.41685,0.27186 0.41684,0.27187 0.53993,-0.1412 0.53994,-0.14119 0.30728,-1.02563 0.30729,-1.02563 0.27109,-0.16754 0.27109,-0.16754 -0.0799,0.75175 -0.0799,0.75174 0.80727,0.079 0.80727,0.079 0.49051,-0.542 0.4905,-0.54201 h 0.2392 0.23919 l -0.16352,0.26459 -0.16353,0.26458 h 0.82498 0.82498 l -0.16619,-0.2689 -0.16618,-0.2689 -0.24631,0.15222 -0.2463,0.15223 v -0.52917 -0.52917 l -0.27617,-0.17068 -0.27617,-0.17069 -0.38529,0.31976 -0.38528,0.31976 v -0.50865 -0.50864 l 0.32246,-0.32246 0.32246,-0.32247 -0.89277,0.17856 -0.89277,0.17855 0.21026,-0.34021 0.21026,-0.34021 -0.36755,0.1212 -0.36756,0.12119 -0.0845,0.57459 -0.0846,0.57459 h 0.39966 0.39966 l 0.16352,0.26458 0.16353,0.26459 h -0.50232 -0.50231 l -0.31802,-0.69799 -0.31803,-0.69799 -0.58434,0.76413 -0.58434,0.76414 -1.45521,-0.0292 -1.45521,-0.0292 -0.33072,-0.037 -0.33073,-0.037 v -0.36857 -0.36857 l 0.44111,-0.16927 0.44112,-0.16927 0.27326,0.27325 0.27326,0.27326 h 0.15497 0.15497 v -0.5148 -0.5148 l -0.60477,-0.32366 -0.60476,-0.32366 v -0.34017 -0.34018 l 0.99219,-0.15874 0.99219,-0.15873 0.39687,-0.20652 0.39688,-0.20652 0.66889,0.18239 0.66888,0.18239 0.60488,-0.22376 0.60489,-0.22376 -0.16491,-0.26682 -0.1649,-0.26682 h -0.35296 -0.35295 l -0.16381,-0.4269 -0.16382,-0.42689 -0.51622,0.13499 -0.51622,0.135 -0.34046,-0.41544 -0.34046,-0.41545 0.60618,0.15625 0.60619,0.15625 -0.1605,-0.57339 -0.16049,-0.57338 0.22891,0.32672 0.2289,0.32672 0.97852,0.0701 0.97852,0.0702 5.3e-4,0.30242 5.3e-4,0.30242 0.45561,0.17483 0.4556,0.17484 -0.36186,0.22364 -0.36187,0.22365 0.15929,0.4151 0.15929,0.41511 -0.25303,0.15638 -0.25303,0.15638 v 0.50525 0.50524 l 0.39688,-0.15229 0.39687,-0.1523 v 0.30851 0.30851 l 0.2727,-0.16854 0.27271,-0.16854 -0.16418,-0.87511 -0.16417,-0.87511 0.30558,-0.18886 0.30558,-0.18886 -0.39023,-0.43675 -0.39023,-0.43676 -0.09,-0.52916 -0.09,-0.52917 0.53862,-0.0771 0.53861,-0.0771 0.0608,0.60628 0.0608,0.60629 0.0239,0.59531 0.0239,0.59531 h 0.2366 0.23659 v 0.37483 0.37483 l -0.33073,0.13345 -0.33073,0.13345 0.44741,0.0209 0.44741,0.0209 0.17498,-0.28312 0.17498,-0.28313 0.56824,-0.22927 0.56823,-0.22927 -0.48192,-0.0168 -0.48192,-0.0168 -0.37797,-0.37798 -0.37798,-0.37797 v -0.68036 -0.68036 h 0.27289 0.27289 l 0.15229,0.39688 0.1523,0.39687 h 0.36202 0.36201 l -0.24114,-0.63425 -0.24114,-0.63425 0.1595,-0.1595 0.15949,-0.1595 h 1.39389 1.39389 l 0.70744,-0.26896 0.70744,-0.26897 -0.32574,-0.39249 -0.32574,-0.39249 h -0.23219 -0.23218 v 0.39687 0.39688 h -0.34396 -0.34396 l -0.32852,-0.32852 -0.32851,-0.32852 -0.19809,0.32051 -0.19808,0.32051 -1.87226,0.10853 -1.87226,0.10854 -0.72024,-0.76309 -0.72023,-0.76309 -0.24111,0.14901 -0.24111,0.14901 v 0.35296 0.35295 l -0.41852,0.1606 -0.41851,0.1606 h -0.76381 -0.76381 l 0.15836,-0.41266 0.15835,-0.41266 -0.5785,-0.15128 -0.57849,-0.15128 0.13063,-0.34042 0.13063,-0.34042 -1.7124,0.0757 -1.7124,0.0757 -0.1501,0.1501 -0.15009,0.15009 0.95308,0.1788 0.95308,0.1788 v 0.35812 0.35812 l -0.52985,0.28356 -0.52985,0.28357 -0.57612,-0.53674 -0.57612,-0.53674 -0.43686,0.39535 -0.43686,0.39535 -0.17214,-0.17215 -0.17215,-0.17214 0.16606,-0.66165 0.16606,-0.66164 -0.30317,0.18737 -0.30317,0.18737 -0.29283,-0.18098 -0.29283,-0.18098 0.35897,-0.22746 0.35898,-0.22746 -0.59531,-0.004 -0.59531,-0.004 -0.002,0.19844 -0.002,0.19844 -0.60441,0.27988 -0.6044,0.27989 -0.25343,-0.22453 -0.25343,-0.22452 -0.49652,-0.34089 -0.49652,-0.34089 0.31952,-0.59703 0.31952,-0.59702 -0.14232,-0.14232 -0.14231,-0.14232 -0.47444,0.21392 -0.47443,0.21392 -0.79375,0.0702 -0.79375,0.0702 -0.52916,0.1047 -0.52917,0.10469 -0.009,0.80436 -0.009,0.80437 0.34001,-0.13048 0.34001,-0.13047 v 0.26344 0.26345 l -0.98453,0.1847 -0.98454,0.1847 -0.0957,-0.28709 -0.0957,-0.2871 -0.7057,0.17567 -0.70571,0.17566 -0.28818,0.39017 -0.28818,0.39017 -0.17074,-0.44496 -0.17075,-0.44495 -1.09298,0.0645 -1.09298,0.0645 -0.30678,-0.41954 -0.30677,-0.41954 -0.50065,-0.097 -0.500644,-0.097 -0.1224,-0.36755 -0.12239,-0.36756 0.27503,0.16998 0.27503,0.16998 0.420754,-0.16146 0.42075,-0.16146 0.002,-0.30242 0.002,-0.30242 0.71215,-0.33073 0.71214,-0.33073 h 0.87329 0.87329 v -0.39688 -0.39687 l -0.33072,-0.0313 -0.33073,-0.0313 -0.23468,0.0434 -0.23467,0.0434 -0.62522,-0.58737 -0.62523,-0.58736 v 0.71262 0.71262 l -0.7276,-0.17382 -0.7276,-0.17381 -0.307184,-0.24095 -0.30717,-0.24095 -0.17146,0.27743 -0.17146,0.27743 h -0.6238 -0.62379 l -0.0937,-0.28109 -0.0937,-0.28109 -0.74203,0.28212 -0.74203,0.28212 -0.395848,0.39584 -0.395848,0.39585 h -0.494653 -0.494653 l -0.164775,0.26661 -0.164776,0.26662 -0.380006,-0.38001 -0.380006,-0.38 v -0.30553 -0.30554 l -0.314192,0.10474 -0.314193,0.10473 -0.08785,0.26353 -0.08785,0.26354 1.047555,1.16903 1.047554,1.16903 -0.0502,0.0489 -0.0502,0.0489 -0.727604,-0.13978 -0.727604,-0.13977 v -0.38808 -0.38808 l -0.330729,0.11709 -0.330729,0.11709 0.04771,0.68333 0.04771,0.68333 -0.378435,-0.14522 -0.378435,-0.14522 v -0.50086 -0.50086 h 0.246754 0.246754 l 0.176404,-0.5558 0.176404,-0.5558 -0.27019,-0.27019 -0.270191,-0.27019 0.132137,-0.34434 0.132137,-0.34434 -0.585976,-0.31361 -0.585976,-0.3136 -0.823608,0.15072 -0.823607,0.15072 -0.636686,0.18427 -0.636686,0.18427 0.173085,-0.28006 0.173085,-0.28005 -0.991607,0.0244 -0.991608,0.0244 -0.330729,0.41243 -0.330729,0.41244 -0.405578,-0.52549 -0.405579,-0.5255 0.619468,-0.16567 0.619467,-0.16567 0.563804,-0.30174 0.563804,-0.30174 0.164406,0.26602 0.164406,0.26601 0.470333,-0.25171 0.470334,-0.25172 0.571942,0.14957 0.571943,0.14957 v -0.27983 -0.27983 l -0.310455,-0.19187 -0.310456,-0.19187 -0.773113,-0.0222 -0.773113,-0.0222 -0.102835,0.16639 -0.102836,0.16639 -1.988596,-0.0984 -1.988596,-0.0985 v 0.24784 0.24784 l 0.588038,0.41187 0.588038,0.41188 h -0.423349 -0.42335 l -0.334683,0.40327 -0.334684,0.40327 -0.141419,-0.14142 -0.14142,-0.14142 0.509852,-0.37633 0.509852,-0.37633 -0.313505,-0.31809 -0.313504,-0.31808 -1.093639,0.57003 -1.093639,0.57004 -2.03244,0.28239 -2.03244,0.28239 -0.278351,0.23053 -0.278351,0.23052 -0.581077,-0.15195 -0.581076,-0.15196 -0.652618,0.42761 -0.652617,0.42761 h -0.428233 -0.428232 l 0.108919,-0.33072 0.108918,-0.33073 0.574589,-0.0846 0.574588,-0.0846 -0.0021,-0.31233 -0.0021,-0.31233 -0.650622,-0.30169 -0.650622,-0.3017 -0.868668,0.90218 -0.868667,0.90217 -0.992188,-0.16071 -0.992187,-0.16072 v 0.28784 0.28784 H 69.24661 68.966412 l 0.163522,-0.26458 0.163521,-0.26459 -1.933844,-0.0364 -1.933844,-0.0364 -1.124479,0.0284 -1.124479,0.0284 v -0.57412 -0.57412 l 0.3175,0.3175 0.3175,0.3175 0.277812,-0.009 0.277813,-0.009 -0.661459,-0.56428 -0.661458,-0.56429 0.473036,0.17175 0.473037,0.17176 0.150583,-0.39242 0.150584,-0.39241 h 0.268673 0.268672 l -0.329377,0.39687 -0.329377,0.39688 h 0.539515 0.539515 l 0.104062,0.31218 0.104061,0.31219 0.463924,-0.17803 0.463923,-0.17802 -0.182958,-0.29603 -0.182959,-0.29604 0.364626,-0.23095 0.364627,-0.23095 0.595312,-0.004 0.595313,-0.004 v 0.26459 0.26458 h 0.396875 0.396875 v -0.26439 -0.26459 h -0.396875 -0.396875 v -0.52916 -0.52917 h 0.396875 0.396875 v 0.26458 0.26459 h 0.661458 0.661458 v -0.39688 -0.39687 h 0.233739 0.233739 l 0.128451,-0.67195 0.12845,-0.67194 -0.296044,0.1426 -0.296043,0.14261 -0.463021,0.16332 -0.463021,0.16332 v 0.34939 0.34938 l -0.931353,-0.15114 -0.931353,-0.15114 0.152568,0.39759 0.152567,0.39758 -0.610277,0.16345 -0.610277,0.16345 -0.294039,0.004 -0.294039,0.004 0.126446,-0.66146 0.126446,-0.66146 h 0.892955 0.892956 l 0.33047,-0.52916 0.33047,-0.52917 h 0.33323 0.33323 v -0.4147 -0.41471 l -0.529166,0.16795 -0.529167,0.16795 v -0.26679 -0.2668 l 0.25711,-0.15891 0.25711,-0.1589 0.678888,0.44483 0.678888,0.44482 0.381891,-0.49997 0.38189,-0.49998 0.24003,0.36463 0.24003,0.36463 0.26949,-0.16656 0.26949,-0.16655 -0.138286,0.52881 -0.138286,0.5288 0.890565,-0.086 0.890565,-0.086 0.327598,0.2488 0.327598,0.24879 0.176722,-0.46052 0.176722,-0.46053 -0.636612,-0.48943 -0.636611,-0.48943 0.603616,-0.006 0.603616,-0.006 0.152296,0.39688 0.152295,0.39687 h 0.574349 0.57435 l 0.435074,0.50813 0.435075,0.50813 0.615914,-0.0783 0.615914,-0.0783 0.661459,-0.12663 0.661458,-0.12663 -0.330729,0.11312 -0.330729,0.11311 v 0.34917 0.34917 l 0.420751,0.16145 0.420752,0.16146 0.229151,-0.14162 0.229152,-0.14162 -0.149044,-0.38841 -0.149044,-0.3884 h 0.292891 0.292891 v 0.46458 0.46458 l 0.806079,0.35681 0.80608,0.3568 0.516574,-0.13509 0.516573,-0.13508 0.148402,0.24012 0.148402,0.24012 1.311352,-0.10243 1.311353,-0.10243 0.559266,-0.711 0.559266,-0.71099 -0.35628,-0.66571 -0.35628,-0.66572 0.429583,-0.2404 0.429582,-0.24041 -0.146421,-0.55992 -0.146421,-0.55991 0.634049,0.18341 0.634049,0.18341 0.466863,0.13035 0.466863,0.13034 -0.179538,0.2905 -0.179537,0.2905 0.385217,-0.14782 0.385216,-0.14782 0.454871,0.3326 0.454872,0.33261 -0.39981,0.33182 -0.399809,0.33181 v 0.39687 0.39688 l 0.343827,-0.28535 0.343827,-0.28535 0.97363,0.0623 0.973631,0.0623 0.322959,0.32296 0.32296,0.32296 0.674687,-0.002 0.674688,-0.001 0.995742,-0.27653 0.995742,-0.27652 0.290029,0.17924 0.290029,0.17925 1.095477,0.0575 1.09548,0.0575 0.15995,-0.24286 0.15995,-0.24286 0.89838,-0.0105 0.898394,-0.0105 0.13229,0.0405 0.13229,0.0405 1.38906,0.1066 1.38907,0.10661 v -0.2818 -0.2818 l 0.39535,0.32811 0.39536,0.32812 0.71235,-0.13618 0.71236,-0.13617 0.34597,0.13276 0.34598,0.13277 -0.1337,0.21634 -0.13371,0.21634 0.9607,-0.26526 0.9607,-0.26526 0.28577,0.28578 0.28578,0.28578 h 0.87313 0.87312 v -0.79375 -0.79375 h 0.24897 0.24897 l 0.16352,0.26458 0.16352,0.26458 h 1.04272 1.04272 v 0.38857 0.38857 l 0.39687,-0.15229 0.39688,-0.1523 v -0.62811 -0.62811 l -0.72761,-0.18709 -0.7276,-0.1871 0.66146,-0.18845 0.66146,-0.18844 -1.24847,-0.0264 -1.24847,-0.0264 0.14689,0.38278 0.14689,0.38279 -0.7298,-0.0561 -0.72981,-0.0561 -0.2467,-0.7401 -0.2467,-0.7401 0.17424,-0.17424 0.17424,-0.17424 0.18405,0.28603 0.18405,0.28603 0.95203,-0.0363 0.95203,-0.0363 0.63184,-0.41953 0.63184,-0.41952 -0.3595,-0.43316 -0.35949,-0.43316 h -0.34243 -0.34243 l -0.0882,0.23804 -0.0882,0.23804 -1.19062,0.0927 -1.19063,0.0927 -0.0786,-0.6748 -0.0786,-0.67479 1.79842,0.10984 1.79841,0.10984 0.31485,0.25344 0.31484,0.25344 0.082,0.5761 0.082,0.57609 0.97414,0.2407 0.97414,0.24069 0.67951,-0.44523 0.67951,-0.44523 v -0.25848 -0.25849 l -0.33073,-0.006 -0.33073,-0.006 -0.64809,-0.49808 -0.64809,-0.49809 -0.87327,0.14172 -0.87326,0.14171 v -0.24629 -0.24628 l 0.3175,-0.3175 0.3175,-0.3175 -0.3175,-0.3175 -0.3175,-0.3175 -0.3175,0.3175 -0.3175,0.3175 h -0.20505 -0.20506 l 0.16369,-0.8599 0.16368,-0.8599 0.07,-0.086 0.07,-0.086 0.35497,-0.0625 0.35498,-0.0624 0.53051,-0.17953 0.53052,-0.17954 1.16213,0.19839 1.16214,0.19839 0.28287,0.44844 0.28287,0.44844 -0.61793,0.65775 -0.61793,0.65776 0.56064,0.71273 0.56063,0.71274 v 0.36119 0.36119 h 0.40518 0.40518 l 0.1523,-0.39687 0.15229,-0.39688 h 1.30071 1.30071 l -0.43341,-0.66145 -0.4334,-0.66146 h -0.23415 -0.23416 v 0.42772 0.42772 l -0.66146,-0.12645 -0.66145,-0.12644 v 0.36018 0.36018 h -0.50712 -0.50712 l -0.11859,-0.33072 -0.11858,-0.33073 0.2421,-0.47043 0.24211,-0.47044 0.26634,0.16461 0.26635,0.16462 0.64642,-0.16225 0.64642,-0.16224 v -0.65641 -0.65642 l -0.33073,-0.004 -0.33073,-0.004 0.64057,-0.32683 0.64056,-0.32683 0.0964,-0.29276 0.0964,-0.29276 -1.39846,-0.16796 -1.39845,-0.16796 -1.38906,-0.002 -1.38907,-0.002 v -0.28096 -0.28096 l 1.52136,0.0231 1.52135,0.0231 1.91823,-0.12167 1.91823,-0.12166 v 0.37949 0.37949 h 1.19063 1.19062 v -0.39687 -0.39688 h 0.11065 0.11065 l 0.41852,0.1606 0.41851,0.1606 v 0.23628 0.23627 h -0.39687 -0.39688 v 0.26459 0.26458 h 0.21167 0.21167 l 0.29444,-0.29445 0.29445,-0.29444 0.28861,0.17837 0.28861,0.17837 -0.16195,0.64524 -0.16195,0.64524 h 0.55785 0.55785 v 0.25528 0.25527 l -0.51177,0.27389 -0.51177,0.2739 h -0.55487 -0.55486 l -0.14355,-0.46302 -0.14354,-0.46303 -0.36065,-0.66145 -0.36064,-0.66146 h -0.72223 -0.72223 l -0.10897,0.32693 -0.10898,0.32693 0.68224,0.31085 0.68224,0.31085 v 0.1674 0.1674 l -0.84251,0.25315 -0.84251,0.25315 -0.11806,0.36818 -0.11806,0.36817 0.69431,-0.13272 0.6943,-0.13273 0.29866,0.35987 0.29866,0.35986 h 0.6043 0.60429 l -0.13838,0.52917 -0.13838,0.52916 h -1.44809 -1.44808 l -0.45447,0.56124 -0.45446,0.56124 -0.42894,-0.42895 -0.42895,-0.42894 h -0.41577 -0.41578 v 0.24896 0.24897 l 0.26459,0.16352 0.26458,0.16353 v 0.52185 0.52186 l -0.39687,0.15229 -0.39688,0.1523 v 0.35295 0.35295 l 0.26141,0.16156 0.26141,0.16156 0.73014,-0.67702 0.73014,-0.67703 0.10647,0.31941 0.10647,0.31942 -0.30427,0.10142 -0.30427,0.10143 v 0.28784 0.28785 l 0.43788,0.48386 0.43788,0.48385 h 0.59841 0.5984 l 0.0937,-0.28109 0.0937,-0.28109 0.6901,0.26237 0.6901,0.26238 0.49502,-0.0714 0.49502,-0.0714 0.0847,-0.57255 0.0847,-0.57254 -0.34928,-0.12342 -0.34929,-0.12341 -1.4153,-0.12213 -1.4153,-0.12212 -0.15015,-0.15016 -0.15015,-0.15015 h 0.58157 0.58157 l 0.15229,-0.39687 0.1523,-0.39688 h 0.37687 0.37687 l 0.15229,0.39688 0.1523,0.39687 h 0.44794 0.44794 l 0.3175,0.3175 0.3175,0.3175 v 0.72522 0.72522 l 0.32608,0.20153 0.32608,0.20152 0.40153,0.0768 0.40152,0.0768 2.35504,0.33258 2.35504,0.33257 0.26508,0.59531 0.26508,0.59531 h 0.48874 0.48873 v -0.41577 -0.41577 l -0.39635,-0.39635 -0.39635,-0.39635 0.24886,-0.46501 0.24886,-0.465 -0.53179,-0.45534 -0.5318,-0.45533 0.1047,-0.31806 0.10469,-0.31806 0.59389,-0.0871 0.59388,-0.0871 0.13378,0.51156 0.13378,0.51156 2.02974,0.38521 2.02974,0.38521 0.0868,-0.64349 0.0868,-0.64348 -0.22909,-0.22909 -0.22909,-0.22909 -2.0665,-0.1174 -2.06649,-0.11739 -0.13285,-0.13285 -0.13284,-0.13285 0.17707,-0.2865 0.17706,-0.2865 0.19219,0.11878 0.19218,0.11877 1.44318,0.16339 1.44318,0.16338 0.59531,0.14772 0.59532,0.14771 v -1.88077 -1.88076 h -0.64585 -0.64584 l -0.15175,-0.24554 -0.15175,-0.24553 0.53064,-0.16842 0.53064,-0.16842 0.26696,0.16498 0.26695,0.16499 V 204.46175 178.78168 H 87.781492 37.775242 v 41.53958 41.53959 H 65.443601 93.11196 Z m -13.047929,-6.07181 -0.79375,-0.10553 -1.27024,-0.40973 -1.27024,-0.40973 0.102977,-0.30499 0.102978,-0.30499 0.770387,-0.0322 0.770388,-0.0322 0.463021,-0.19454 0.463021,-0.19454 v -0.36544 -0.36544 l -1.058334,-0.16923 -1.058333,-0.16924 v -0.21186 -0.21187 l 0.345534,-0.34963 0.345533,-0.34963 0.17533,-0.46302 0.175329,-0.46302 h 0.405179 0.405178 v 0.26458 0.26459 h 0.343959 0.343958 l 0.330639,-0.33073 0.33064,-0.33073 0.648319,-0.0123 0.648319,-0.0123 v 0.082 0.082 l -0.330729,0.54281 -0.33073,0.5428 0.633069,0.51878 0.633069,0.51877 0.442587,-0.40054 0.442588,-0.40053 0.88528,0.91338 0.885281,0.91337 0.07153,0.67095 0.07153,0.67094 h -0.224894 -0.224894 l -0.425268,-0.16319 -0.425268,-0.16319 0.320469,-0.38614 0.320469,-0.38614 -0.379862,-0.24037 -0.379861,-0.24036 -0.198438,-0.004 -0.198437,-0.004 v 0.38126 0.38126 l -0.25711,0.1589 -0.25711,0.1589 -0.635437,-0.41635 -0.635436,-0.41636 -1.091829,0.1746 -1.091828,0.17459 v 0.23076 0.23077 h 0.485069 0.48507 l 0.198437,0.19844 0.198438,0.19844 0.242534,0.0331 0.242535,0.0331 0.264583,0.0331 0.264584,0.0331 v 0.39687 0.39688 l -0.463021,-0.0396 -0.463021,-0.0396 z m 16.804654,-1.57907 0.0036,-0.48507 0.15954,-0.59531 0.15954,-0.59531 h 0.39432 0.39432 l -0.18953,0.46302 -0.18954,0.46302 -0.0372,0.50725 -0.0372,0.50725 -0.33073,0.11011 -0.330729,0.11011 z m -9.793196,-0.14634 v -0.32273 l -0.8275,-0.70626 -0.8275,-0.70626 0.166306,-0.26909 0.166305,-0.26908 0.543867,0.14222 0.543867,0.14223 -0.145591,0.3794 -0.145591,0.3794 0.497099,-0.15777 0.497099,-0.15777 0.704822,0.32114 0.704822,0.32114 -0.409836,0.22935 -0.409835,0.22936 v 0.38372 0.38373 H 87.516957 86.98779 Z m 11.377086,-2.06507 v -0.27113 l 0.67868,-0.25803 0.67868,-0.25804 0.313514,0.002 0.3135,0.002 -0.793754,0.52568 -0.79375,0.52568 -0.19843,0.002 -0.19844,0.002 z m -9.120058,-0.73107 -0.13144,-0.34074 0.392415,-0.15059 0.392414,-0.15058 0.43041,0.16516 0.430411,0.16517 0.339784,-0.282 0.339784,-0.28199 0.171462,0.27743 0.171462,0.27743 h -0.41249 -0.41249 v 0.3589 0.3589 l -0.790141,-0.0282 -0.790142,-0.0282 z m -12.905792,-0.41555 -0.991472,-0.56662 -7.15e-4,-0.19844 -7.15e-4,-0.19843 h 0.63941 0.639409 l 0.118118,-0.33073 0.118117,-0.33073 0.234245,0.22007 0.234244,0.22007 -0.462605,0.33826 -0.462605,0.33827 v 0.16927 0.16927 h 0.364478 0.364478 l 0.329377,0.39687 0.329377,0.39688 -0.230834,-0.0287 -0.230834,-0.0287 z m 8.911828,-0.28509 -0.535192,-0.60085 0.937627,-0.39351 0.937626,-0.39351 1.256771,-0.0543 1.256771,-0.0543 v 0.27678 0.27677 l -0.463021,0.03 -0.463021,0.03 -0.898286,-0.0105 -0.898286,-0.0105 -0.341476,0.34148 -0.341475,0.34147 0.270628,0.27063 0.270628,0.27063 -0.227051,0.14032 -0.227051,0.14033 z m 7.822353,-0.89685 v -0.25411 l 0.418514,-0.1606 0.418515,-0.16059 h 0.428152 0.428152 l -0.251354,0.23484 -0.251354,0.23485 -0.595313,0.17986 -0.595312,0.17985 z m 13.379753,-0.28113 -0.14775,-0.23905 0.50897,-0.62288 0.50897,-0.62287 0.34951,0.3638 0.34951,0.3638 -0.33545,0.12285 -0.33546,0.12284 -0.37528,0.37528 -0.37528,0.37528 z m -7.360484,-0.3979 -0.46302,-0.35149 v -0.14128 -0.14128 l 0.59531,0.016 0.59532,0.016 0.707664,-0.19993 0.70767,-0.19994 -0.0763,0.4867 -0.0763,0.4867 -0.41301,-0.0732 -0.41302,-0.0732 -0.16786,0.2716 -0.167854,0.2716 -0.18283,-0.008 -0.18282,-0.008 z m 9.326564,-0.16916 v -0.52086 h 0.34699 0.34698 l 0.51292,-0.47692 0.51291,-0.47691 1.19062,0.0788 1.19063,0.0788 0.37497,0.14223 0.37497,0.14223 -0.28442,0.28441 -0.28442,0.28442 -1.7442,0.14001 -1.7442,0.14001 v 0.20005 0.20005 l -0.39687,0.1523 -0.39688,0.15229 z m 8.83631,-0.2658 -0.40416,-0.14181 0.488,-0.44163 0.48799,-0.44163 0.88828,0.11242 0.88828,0.11242 0.1447,0.1447 0.1447,0.1447 -0.30251,0.30252 -0.30252,0.30251 -0.8143,0.0238 -0.81429,0.0238 z m -12.50992,-0.23618 -0.34106,-0.21079 -1.0427,0.0588 -1.04269,0.0588 -0.14058,-0.22746 -0.14059,-0.22747 h 0.30394 0.30393 l 0.48514,-0.59531 0.48514,-0.59531 -0.0459,0.52917 -0.0459,0.52916 0.99219,0.0821 0.99219,0.0821 v 0.233 0.233 l -0.21107,0.13044 -0.21107,0.13045 z m -15.587351,-1.30306 -0.343253,-0.21774 0.447385,-0.3713 0.447386,-0.3713 1.795183,-0.0205 1.795183,-0.0205 -0.655171,0.33991 -0.655172,0.33991 -0.743047,-0.14861 -0.743046,-0.14861 -0.162065,0.42233 -0.162064,0.42233 -0.339033,-0.004 -0.339033,-0.004 z m -5.080705,-1.09707 v -0.26459 h 0.79375 0.79375 v 0.26459 0.26458 h -0.79375 -0.79375 z m 13.629642,0.006 -0.1758,-0.28445 -0.35957,0.0732 -0.359571,0.0732 0.04879,-0.24726 0.0488,-0.24726 0.6057,-0.0265 0.60571,-0.0265 0.26671,0.16484 0.26672,0.16483 -0.38584,0.32023 -0.38585,0.32022 z m -3.840059,-0.27042 v -0.26458 l 0.463021,-0.004 0.463021,-0.004 0.595312,-0.15954 0.595313,-0.15954 v 0.42774 0.42773 H 94.92529 93.866957 Z m -6.416146,-0.5564 0.330729,-0.34318 v -0.35327 -0.35327 l -0.511772,0.2739 -0.511773,0.27389 H 86.079143 85.40029 v -0.26455 -0.26459 h 0.396875 0.396875 v -0.66146 -0.66145 l 0.01984,-0.19183 0.01984,-0.19182 -0.250739,-0.0836 -0.250739,-0.0836 -0.14121,0.53999 -0.141209,0.53998 h -1.083104 -1.083103 v 0.64584 0.64585 l -0.264584,0.16352 -0.264583,0.16352 v -0.0835 -0.0835 l 0.246114,-0.85815 0.246114,-0.85815 h -0.397305 -0.397304 l -0.396875,-0.39687 -0.396875,-0.39688 h 0.394134 0.394135 l 0.418514,-0.1606 0.418515,-0.1606 v 0.38109 0.38109 h 0.79375 0.79375 v -0.48507 -0.48507 l 0.595312,-0.0414 0.595313,-0.0414 0.661458,-0.0529 0.661458,-0.0529 0.834708,-0.1858 0.834707,-0.18579 0.191377,0.30966 0.191378,0.30965 -0.364627,0.234 -0.364626,0.23399 -0.396875,-0.0295 -0.396875,-0.0295 -0.463021,0.0305 -0.463021,0.0305 v 0.53747 0.53747 l 0.447154,0.17159 0.447154,0.17159 0.104061,-0.31218 0.104062,-0.31219 h 0.374826 0.374827 v 0.39688 0.39687 h -0.380541 -0.380541 l 0.04981,0.71724 0.04981,0.71723 -0.529166,0.1022 -0.529167,0.10219 z m 22.383579,-0.36117 0.14904,-0.3884 -0.25302,-0.15638 -0.25303,-0.15638 0.009,-0.4474 0.01,-0.44741 0.65063,0.79375 0.65063,0.79375 0.001,0.19844 10e-4,0.19843 h -0.55748 -0.55747 z m -12.259214,-0.97861 -0.004,-0.44097 -0.33073,-0.11804 -0.33073,-0.11804 -0.723615,0.36531 -0.723617,0.3653 -0.533154,-0.33296 -0.533154,-0.33296 v -0.20091 -0.20093 h 0.211666 0.211667 l 0.328517,0.32851 0.328518,0.32852 0.18742,-0.28909 0.18742,-0.28908 0.733919,-0.13624 0.733923,-0.13624 0.12615,0.20412 0.12616,0.20412 0.65921,-0.30575 0.65922,-0.30575 0.002,-0.46302 0.002,-0.46302 h 0.28241 0.28241 l -0.17683,0.59531 -0.17684,0.59531 -0.39665,0.31313 -0.39666,0.31312 0.19967,0.32307 0.19967,0.32307 -0.33505,-0.20707 -0.33504,-0.20707 -0.23095,0.36463 -0.23096,0.36462 z m -43.633219,-0.52291 -0.02708,-0.69929 -0.396875,-0.1523 -0.396875,-0.15229 -0.01677,-0.60362 -0.01677,-0.60362 -0.292425,0.66146 -0.292426,0.66146 -0.153824,-0.9149 -0.153824,-0.91489 -0.610928,-0.14344 -0.610925,-0.14344 0.0156,-0.19843 0.0156,-0.19844 v -0.50325 -0.50329 l 0.793748,-0.2767 0.793749,-0.2767 v -0.49236 -0.49236 l 0.352778,-0.48246 0.352778,-0.48245 0.008,0.8949 0.008,0.89491 -0.260915,0.33073 -0.260916,0.33073 0.329377,0.39687 0.329377,0.39688 h 0.227146 0.227145 l 0.166016,-0.66146 0.166015,-0.66146 h 0.368192 0.368192 v 1.17501 1.17501 l 0.23535,0.14545 0.235351,0.14546 0.133937,0.86235 0.133938,0.86234 0.190737,0.59532 0.190738,0.59531 h -0.291891 -0.291891 l -0.403899,-0.96667 -0.403899,-0.96666 -0.159489,0.15949 -0.15949,0.15949 -0.206829,0.87332 -0.20683,0.87332 z m 35.691667,-0.44072 v -0.74318 l 0.368243,-0.50361 0.368244,-0.5036 0.425506,0.35314 0.425507,0.35314 v 0.20741 0.20742 l -0.529167,-0.13838 -0.529167,-0.13838 v 0.29544 0.29544 l 0.264584,0.0331 0.264583,0.0331 0.30868,0.0331 0.308681,0.0331 0.09901,0.29704 0.09901,0.29704 -0.606131,0.16237 -0.606132,0.16237 -0.330729,0.004 -0.330729,0.004 z m -29.633333,-2.18451 v -0.18252 l 0.396875,-0.32938 0.396875,-0.32937 v -0.25217 -0.25217 l -1.182018,0.0727 -1.182018,0.0727 -0.184996,-0.185 -0.184996,-0.185 h 0.689941 0.68994 l 0.163964,-0.2653 0.163964,-0.26529 0.471485,0.25233 0.471485,0.25233 1.379963,-0.36403 1.379963,-0.36403 -0.101972,0.31085 -0.101972,0.31085 -0.720934,0.085 -0.720934,0.085 -0.258252,0.67925 -0.258252,0.67926 0.108196,0.10819 0.108197,0.1082 0.409474,-0.40947 0.409474,-0.40948 h 0.283482 0.283482 v 0.23628 0.23627 l -0.46302,0.20756 -0.463021,0.20755 -0.992188,0.0357 -0.992187,0.0357 z m 24.97781,-3.26058 -0.153868,-0.40098 0.15763,-0.25505 0.15763,-0.25505 -0.259928,-0.68366 -0.259927,-0.68366 h 0.390326 0.390326 l 0.02684,0.19844 0.02684,0.19843 0.09004,0.9861 0.09004,0.9861 -0.25104,0.15515 -0.251039,0.15515 z m 42.755529,-0.94805 -1.19063,-0.13973 v -0.39687 -0.39688 l 0.52917,0.0663 0.52917,0.0663 1.96295,0.19826 1.96295,0.19827 0.097,0.29293 0.097,0.29293 -1.39851,-0.0209 -1.39851,-0.0209 z m -46.698965,-0.46068 -0.529166,-0.12728 -0.219664,-0.20722 -0.219664,-0.20721 1.476394,0.0344 1.476394,0.0345 4e-5,0.17013 4.1e-5,0.17013 -0.418514,0.1606 -0.418515,0.1606 -0.309089,-0.0307 -0.30909,-0.0307 z m 25.598115,-0.27089 -0.86022,-0.10319 0.27422,-0.51238 0.27422,-0.51238 h 0.38756 0.38757 v -0.63315 -0.63315 l -0.44112,-0.16927 -0.44112,-0.16927 0.26294,-0.26295 0.26294,-0.26294 1.36881,-0.16211 1.3688,-0.16212 v 0.43373 0.43373 h -0.61089 -0.61089 l -0.47987,0.35089 -0.47987,0.35089 0.18966,0.59758 0.18967,0.59757 0.61193,-0.15359 0.61193,-0.15358 0.35531,-0.13352 0.35531,-0.13353 0.3048,0.65937 0.3048,0.65936 -0.83397,-0.0518 -0.83396,-0.0517 -0.52917,0.14035 -0.52917,0.14035 z m -14.353323,-0.3342 v -0.26458 h 0.910427 0.910426 l 0.163522,-0.26458 0.163521,-0.26459 h 0.248969 0.248968 v 0.26459 0.26458 H 94.528415 94.13154 v 0.26458 0.26459 h -0.926041 -0.926042 z m 4.235545,0.0107 -0.394663,-0.25323 0.300413,-0.30042 0.300414,-0.30041 0.49112,0.0946 0.49113,0.0946 v 0.38963 0.38963 l -0.39688,0.0694 -0.39687,0.0694 z m 5.686338,-0.15582 -1.5875,-0.31618 0.39687,-0.0604 0.39688,-0.0604 1.52135,-0.0948 1.52135,-0.0948 v 0.3575 0.3575 l -0.33072,0.11383 -0.33073,0.11382 z m -50.138549,-0.63149 v -0.51204 l -0.940111,-0.33995 -0.9401,-0.33994 0.1592,-0.63434 0.15921,-0.63433 -0.47236,-0.52195 -0.47236,-0.52195 0.45951,-0.336 0.45951,-0.336 v -0.17298 -0.17298 l 0.59531,-0.91906 0.595316,-0.91905 0.573673,-0.003 0.573673,-0.003 0.416995,-0.16002 0.416995,-0.16001 -0.154328,-0.24971 -0.154327,-0.24971 -0.37332,0.30983 -0.37332,0.30983 v -0.37827 -0.37826 l 0.699833,-0.84476 0.699832,-0.84476 h 0.538154 0.538153 l 0.878681,0.31774 0.878681,0.31773 v 0.21144 0.21143 h 0.270683 0.270682 l -0.442305,-0.67505 -0.442306,-0.67504 0.276879,-0.27688 0.27688,-0.27688 0.820785,0.85887 0.820785,0.85888 v 0.22534 0.22534 h 0.403424 0.403423 l 0.227671,0.59531 0.22767,0.59532 0.559531,0.50402 0.559531,0.50403 v 0.57636 0.57635 l 0.181779,0.18178 0.181779,0.18178 0.03875,0.52597 0.03875,0.52598 -0.887265,0.67675 -0.887266,0.67675 -0.920763,0.14942 -0.920763,0.14942 v 0.32115 0.32115 l -1.653646,0.40363 -1.653646,0.40364 -0.251354,-0.23024 -0.251354,-0.23024 H 53.625683 53.17774 l -0.152295,0.39688 -0.152295,0.39687 h -0.405179 -0.405179 z m 76.375969,0.0535 -0.13574,-0.21962 -0.85044,-0.0648 -0.85044,-0.0648 -0.228,-0.14091 -0.22801,-0.14092 v -0.31512 -0.31511 l 0.7276,-0.009 0.72761,-0.009 0.17827,0.25642 0.17827,0.25642 0.42825,-0.35541 0.42826,-0.35542 0.30628,0.30628 0.30629,0.30629 h 0.72522 0.72522 l 0.14638,0.23686 0.14639,0.23686 -0.36983,0.14192 -0.36984,0.14192 -0.5561,-0.14543 -0.55609,-0.14542 -0.37191,0.30866 -0.37191,0.30866 z m -58.724317,-0.41476 -0.172545,-0.44965 h -0.405179 -0.405178 v -0.39687 -0.39688 h -0.566145 -0.566144 l -0.293751,0.38882 -0.293752,0.38882 -0.613135,-0.46954 -0.613134,-0.46955 0.331836,-0.77917 0.331836,-0.77917 0.807407,-0.87143 0.807407,-0.87144 -0.355918,-0.21997 -0.355919,-0.21997 0.297805,-0.18405 0.297806,-0.18406 1.372671,-0.11406 1.372671,-0.11406 0.474438,0.15058 0.474437,0.15058 v 0.53157 0.53157 l 0.992188,-0.0459 0.992187,-0.0459 1.009762,0.0256 1.009762,0.0256 -0.08372,0.7276 -0.08372,0.72761 -1.785937,-0.056 -1.785937,-0.056 v 0.50339 0.50338 l 0.264583,0.16352 0.264583,0.16353 v 0.24896 0.24897 h -0.752743 -0.752743 l -0.403357,0.46302 -0.403357,0.46302 -0.11826,0.3835 -0.11826,0.3835 z m 54.910327,0.15096 -0.33073,-0.11554 v -0.4915 -0.4915 l 0.26249,-0.16223 0.26249,-0.16223 0.37815,0.21276 0.37816,0.21276 -0.30991,0.55651 -0.30992,0.55651 z m -35.520313,-0.42444 v -0.40961 l -1.124479,-0.25182 -1.124479,-0.25182 0.711989,-0.0283 0.711989,-0.0283 0.163522,-0.26458 0.163521,-0.26458 h 0.38126 0.38126 v 0.69453 0.69453 l 0.79375,-0.15875 0.79375,-0.15875 v 0.25797 0.25797 h -0.507527 -0.507527 l -0.418514,0.1606 -0.418515,0.1606 z m 2.910417,0.10863 -0.926042,-0.17472 0.886924,-0.14547 0.886924,-0.14548 0.631346,0.12069 0.631347,0.12069 -0.144823,0.23433 -0.144823,0.23433 -0.447406,-0.0348 -0.447406,-0.0348 z m -30.008028,-0.76807 0.02218,-0.7479 0.191872,-0.31045 0.191872,-0.31046 h 0.513551 0.513552 v -0.39687 -0.39688 h 0.242944 0.242943 l 0.484661,-0.15725 0.48466,-0.15725 -0.287791,0.2234 -0.287792,0.22339 -0.158107,0.62456 -0.158108,0.62456 0.512045,0.13391 0.512045,0.1339 v 0.10143 0.10143 l -0.51263,0.51263 -0.51263,0.51263 -0.12794,-0.31419 -0.12794,-0.31419 -0.02089,0.33073 -0.02089,0.33073 -0.859895,2e-5 -0.859896,2e-5 z m 69.871924,0.57147 -0.17639,-0.17639 v -0.51338 -0.51337 l 0.41851,0.16059 0.41852,0.1606 h 0.0859 0.0859 l -0.13838,0.52917 -0.13838,0.52917 h -0.18963 -0.18963 z m -35.573163,-0.39666 0.11634,-0.35299 0.604059,-0.0884 0.60406,-0.0884 -0.11634,0.35299 -0.11634,0.35299 -0.604061,0.0884 -0.604058,0.0884 z m 2.197619,0.0537 -0.18817,-0.30446 0.16224,-0.64642 0.16224,-0.64642 h 0.25955 0.25954 l -0.0661,0.33073 -0.0661,0.33073 0.55481,-0.0759 0.554804,-0.0759 0.34788,0.41916 0.34788,0.41917 0.21372,-0.34325 0.21372,-0.34325 0.51837,0.32118 0.51837,0.32119 0.13102,-0.32119 0.13102,-0.32118 0.26726,0.38424 0.26727,0.38424 -0.12039,0.19481 -0.1204,0.19481 -0.58975,-0.14369 -0.58975,-0.14369 -0.39687,0.0255 -0.39688,0.0255 -1.093514,0.1593 -1.09352,0.1593 z m -7.348248,-0.74091 -0.463021,-0.10144 v -0.1487 -0.1487 l 0.685697,-0.63548 0.685697,-0.63548 -0.321219,-0.38705 -0.321219,-0.38704 h -0.2566 -0.256599 l -0.64591,-0.50807 -0.64591,-0.50808 0.273448,-0.169 0.273448,-0.169 v -0.56522 -0.56522 l -0.645518,-0.67593 -0.645519,-0.67594 -0.167961,-2.11667 -0.167961,-2.11666 -0.275723,-0.66146 -0.275723,-0.66146 -0.233714,-0.45943 -0.233714,-0.45943 v -0.27699 -0.277 l 0.926042,-0.92604 0.926041,-0.92604 v -0.76931 -0.76932 l -0.266951,-0.16499 -0.266951,-0.16498 -0.537856,0.17071 -0.537856,0.17071 0.161179,0.50783 0.161178,0.50782 h -0.232656 -0.232656 l -0.586844,-0.79375 -0.586845,-0.79375 h -0.434267 -0.434266 l -0.484929,-0.43885 -0.484929,-0.43886 -0.680101,0.30988 -0.6801,0.30987 -0.840179,-0.46633 -0.840179,-0.46633 -0.09389,-0.21554 -0.09389,-0.21553 -0.63371,-0.24094 -0.63371,-0.24094 v -0.47684 -0.47684 l 0.411878,-0.58804 0.411878,-0.58804 h 0.485856 0.485856 l 0.161712,0.42141 0.161712,0.42142 1.123366,-0.17668 1.123367,-0.17668 0.661458,-0.0375 0.661458,-0.0374 0.184052,-0.26577 0.184051,-0.26577 0.15141,0.15141 0.15141,0.15141 -0.398325,0.76697 -0.398325,0.76696 0.291142,0.0981 0.291142,0.0981 1.160784,-0.57972 1.160784,-0.57972 v -0.28291 -0.2829 l -0.79375,-1.29001 -0.79375,-1.29001 v -0.23018 -0.23018 l -0.689743,-0.45193 -0.689742,-0.45194 -0.249885,0.24988 -0.249884,0.24989 0.679519,0.44524 0.679519,0.44523 -0.257983,0.48205 -0.257982,0.48204 -1.15099,-0.29264 -1.150989,-0.29263 -0.615805,-0.40909 -0.615806,-0.40908 0.353545,-0.56611 0.353545,-0.56612 0.476132,-0.12451 0.476133,-0.12451 v -0.53831 -0.53833 l -0.266613,-0.16477 -0.266613,-0.16478 -0.394846,0.39485 -0.394845,0.39484 v 0.41578 0.41577 h -0.258484 -0.258484 l -0.448391,-0.68445 -0.448392,-0.68433 -0.173358,-1.1423 -0.173357,-1.1423 0.477475,-0.62076 0.477475,-0.62077 0.0059,-0.33903 0.0059,-0.33904 -0.412081,-0.15813 -0.41208,-0.15813 0.141496,-0.36873 0.141496,-0.36873 -0.545214,-0.54522 -0.545214,-0.54521 0.143545,-0.14355 0.143544,-0.14354 1.267567,-0.0342 1.267566,-0.0342 v -0.39554 -0.39554 l -0.460173,0.0363 -0.460174,0.0363 0.145059,-0.23471 0.14506,-0.23471 h 1.13436 1.13436 l 0.8344,-0.41626 0.8344,-0.41625 v -0.12954 -0.12955 l -0.463021,0.0573 -0.463021,0.0573 -0.470906,-0.20429 -0.470905,-0.20428 0.151233,-0.4765 0.151234,-0.47649 -0.537856,-0.17071 -0.537856,-0.17071 -0.236871,0.14639 -0.23687,0.1464 -0.137602,-0.52619 -0.137602,-0.52619 h -0.421645 -0.421646 v -0.28165 -0.28167 l -0.785591,-0.66103 -0.785591,-0.66103 0.320069,-0.51251 0.320069,-0.51251 h 0.3838 0.3838 l -0.471336,0.34464 -0.471337,0.34465 0.440933,0.36595 0.440932,0.36594 0.228265,-0.36934 0.228265,-0.36935 0.546942,0.49498 0.546941,0.49498 0.1964,-0.1964 0.196399,-0.1964 -0.462605,-0.33827 -0.462605,-0.33826 v -0.1871 -0.1871 l 0.529167,0.16795 0.529167,0.16795 0.529166,-0.16795 0.529167,-0.16795 v -0.45842 -0.45842 l -0.3175,-0.3175 -0.3175,-0.3175 h -0.211667 -0.211666 v 0.41845 0.41846 l -0.933513,-0.57695 -0.933512,-0.57694 -0.389404,0.32318 -0.389405,0.32318 v -0.27494 -0.27493 l 0.311428,-0.10381 0.311429,-0.10381 -0.208997,-0.33816 -0.208997,-0.33816 -0.533923,0.13962 -0.533923,0.13962 -0.381157,-0.38115 -0.381157,-0.38116 h -0.510268 -0.510268 v -0.26458 -0.26459 l 0.727604,-0.008 0.727604,-0.008 0.463021,-0.35148 0.463021,-0.35148 v -0.69844 -0.69844 h 0.38126 0.38126 l 0.163522,0.26459 0.163521,0.26458 h 0.500405 0.500404 l 0.269685,-0.46302 0.269685,-0.46302 0.008,0.31723 0.008,0.31723 0.95464,-0.39888 0.954639,-0.39887 0.141397,0.1414 0.141398,0.14139 -0.30555,0.36817 -0.305549,0.36816 0.429698,0.35662 0.429699,0.35662 1.277577,-0.68125 1.277577,-0.68125 0.280362,0.28036 0.280362,0.28036 v 0.37482 0.37481 l 0.581545,-0.15207 0.581545,-0.15208 0.35089,0.29121 0.350891,0.29122 0.182028,-0.18203 0.182028,-0.18203 -0.339046,-0.5429 -0.339046,-0.5429 0.09603,-0.096 0.09603,-0.096 0.598722,0.15657 0.598722,0.15657 -0.121873,0.29596 -0.121873,0.29596 -0.173564,0.43066 -0.173563,0.43066 0.875785,0.13627 0.875785,0.13628 0.26002,-0.24487 0.26002,-0.24488 -0.590749,-0.15448 -0.590749,-0.15448 v -0.39433 -0.39432 l 0.46302,0.19211 0.463021,0.19211 0.330729,0.0126 0.33073,0.0126 v 0.46343 0.46343 l 0.175795,0.45812 0.175796,0.45812 -0.680382,-0.17077 -0.680383,-0.17076 -0.403571,-0.15487 -0.403571,-0.15486 -0.457409,0.88134 -0.457409,0.88134 -0.11169,-0.33073 -0.11169,-0.33073 h -0.177947 -0.177947 l -0.338804,0.76541 -0.338803,0.76541 -0.481955,0.12603 -0.481954,0.12604 -0.4543,-0.25424 -0.454299,-0.25424 -0.144222,0.14422 -0.144223,0.14423 0.169108,0.67378 0.169108,0.67378 h 0.669557 0.669556 l 0.788381,0.40768 0.788381,0.40769 0.256813,-0.15872 0.256814,-0.15872 v 0.2481 0.2481 l -0.803862,0.33297 -0.803861,0.33297 -0.254472,0.47549 -0.254472,0.47548 v 0.14614 0.14613 l 0.900661,0.37632 0.900661,0.37632 -0.04077,0.47699 -0.04077,0.47699 0.522569,0.10715 0.52257,0.10715 0.335736,0.43216 0.335736,0.43215 -0.141307,0.61748 -0.141306,0.61748 0.23207,-0.14343 0.23207,-0.14342 0.572285,0.40084 0.572285,0.40085 v 0.66207 0.66207 l 0.268899,-0.16619 0.268899,-0.16619 -0.152222,-0.2463 -0.152223,-0.2463 h 0.677074 0.677073 v -0.29292 -0.29289 l 0.396875,0.15229 0.396879,0.1523 v -0.25628 -0.25628 -0.19844 -0.19844 h -0.242539 -0.242535 l -0.198437,-0.19843 -0.198438,-0.19844 h 0.412665 0.412664 l 0.1606,-0.41852 0.1606,-0.41851 v -0.11065 -0.11066 h -0.529168 -0.529166 v -0.22409 -0.2241 l 0.521525,-0.60133 0.521529,-0.60132 -0.26625,-0.49749 -0.266256,-0.4975 h -0.358883 -0.358883 l -0.17562,-0.69973 -0.175621,-0.69973 0.252771,-0.25277 0.252771,-0.25277 h 0.952501 0.9525 v -0.22571 -0.22571 l -0.92604,-0.43944 -0.926044,-0.43943 v -0.13045 -0.13046 l 0.38333,0.1471 0.383334,0.1471 0.16366,-0.51567 0.16367,-0.51566 h 0.27506 0.27506 l -0.13992,-0.36464 -0.13993,-0.36463 0.25166,-0.25165 0.25165,-0.25165 -0.40264,-0.77278 -0.40263,-0.77278 0.55965,-0.25335 0.55965,-0.25336 0.43055,0.52452 0.43055,0.52452 0.49436,-0.0982 0.494364,-0.0982 -0.16449,0.26614 -0.164484,0.26614 0.161454,0.42075 0.16146,0.42075 h 0.36857 0.36857 v 0.75274 0.75275 l 0.52238,0.47275 0.52239,0.47276 0.66824,-0.43785 0.66824,-0.43785 v -0.39077 -0.39078 h -0.64585 -0.64584 l -0.16352,-0.26458 -0.16352,-0.26458 h 1.17384 1.17384 l 0.30742,-0.37042 0.30742,-0.37042 h 0.88356 0.88356 l 0.52466,-0.28079 0.52466,-0.28079 0.4622,0.33797 0.46219,0.33796 -0.0973,0.50504 -0.0973,0.50503 -0.56475,0.28156 -0.56475,0.28156 -0.43686,0.36256 -0.43685,0.36255 0.16898,0.76936 0.16898,0.76937 -0.43684,0.48269 -0.43683,0.4827 -0.51413,-0.13445 -0.51414,-0.13445 v 0.42773 0.42774 h 0.28989 0.28988 l 0.70231,-0.49828 0.7023,-0.49827 0.52917,-0.10356 0.52916,-0.10356 -0.0828,-0.58879 -0.0828,-0.58879 h 0.49288 0.49288 l 0.30629,-0.30629 0.30629,-0.30629 0.40809,0.33869 0.40808,0.33868 v 0.33579 0.3358 l -0.61292,0.15383 -0.61293,0.15384 -0.35782,0.6686 -0.35783,0.6686 h -0.21987 -0.21988 v -0.26459 -0.26458 h -0.42518 -0.42518 l 0.15318,0.39917 0.15317,0.39917 -0.25525,0.67138 -0.25526,0.67138 0.4254,0.64924 0.4254,0.64924 h -0.16272 -0.16272 l -0.50953,-0.50953 -0.50953,-0.50953 -0.5264,0.13765 -0.52639,0.13766 -0.15783,0.62882 -0.15782,0.62882 -0.53345,0.2855 -0.53346,0.2855 0.14355,0.23225 0.14354,0.23226 -0.50444,0.16011 -0.50444,0.1601 -0.13609,0.5204 -0.13609,0.52041 h -0.39366 -0.39367 l -0.84971,-0.79375 -0.84971,-0.79375 h -0.236604 -0.23661 v 0.2289 0.2289 l 0.529174,0.67273 0.52917,0.67273 v 0.31985 0.31986 l 0.51208,-0.13392 0.51208,-0.13391 0.15345,0.3999 0.15345,0.39989 0.7981,-0.15962 0.7981,-0.15962 0.24961,0.65653 0.24961,0.65653 h 0.27768 0.27769 l 0.24867,-0.65407 0.24868,-0.65407 0.73696,-0.18042 0.73696,-0.18042 0.18405,-0.28233 0.18406,-0.28233 0.19181,0.19182 0.19182,0.19182 -0.61945,0.65937 -0.61944,0.65938 0.17104,0.17103 0.17103,0.17104 0.36147,-0.29999 0.36147,-0.29999 0.17409,0.17409 0.17409,0.1741 v 0.49709 0.4971 l 0.71591,-0.71591 0.7159,-0.7159 0.0117,-0.68519 0.0117,-0.68518 h 0.39688 0.39687 l -0.0869,0.52917 -0.0869,0.52916 -0.37611,0.76826 -0.37611,0.76825 v 0.26091 0.26091 l 0.45951,0.336 0.45951,0.336 -0.45951,0.50776 -0.45951,0.50775 v 0.53347 0.53347 l -0.46302,0.40844 -0.46302,0.40843 -0.87777,0.18669 -0.87778,0.18669 -0.1465,0.38178 -0.1465,0.38178 0.43534,0.48104 0.43534,0.48105 -0.16697,0.43514 -0.16698,0.43514 h -0.78106 -0.78106 l 0.14639,0.23686 0.14639,0.23686 -0.39536,0.15171 -0.39535,0.15171 v 0.53747 0.53747 h -0.22622 -0.22622 l -0.75258,1.19063 -0.75259,1.19062 h -0.17574 -0.17574 v 1.06893 1.06893 l -0.4991,0.37553 -0.49911,0.37553 -0.46302,-0.13937 -0.46302,-0.13937 v 0.54699 0.547 h -0.264584 -0.26458 v 0.39688 0.39687 h -0.26459 -0.26458 v 0.39688 0.39687 h -0.2802 -0.2802 l 0.15858,-0.25658 0.15857,-0.25657 -0.96902,-0.40488 -0.96902,-0.40489 h -0.364564 -0.364563 v 0.63315 0.63316 l -0.396875,0.15229 -0.396875,0.1523 v 0.41716 0.41717 l 0.939087,-0.17617 0.93909,-0.17618 -0.17488,0.69679 -0.17489,0.69679 0.32653,0.39344 0.32652,0.39344 h -0.29698 -0.29698 v 0.34737 0.34737 l -0.793747,0.76047 -0.79375,0.76046 v 0.34737 0.34737 h 0.247949 0.247949 l -0.154573,0.95252 -0.154573,0.95253 0.345651,0.21362 0.345652,0.21362 0.362607,-0.13914 0.362605,-0.13915 -0.15177,-0.47819 -0.151775,-0.4782 0.446055,-0.24962 0.44605,-0.24963 0.49159,0.12856 0.49158,0.12855 v -0.56002 -0.56003 h 0.15119 0.15119 l 0.38822,0.38821 0.38821,0.38822 0.745444,-0.14909 0.74543,-0.14909 0.16207,0.42233 0.16206,0.42234 h 0.64812 0.64813 l 0.41851,0.1606 0.41852,0.16059 v 0.24132 0.24132 l -0.659,-0.1654 -0.65899,-0.1654 -0.16306,0.42494 -0.16307,0.42494 h -0.61753 -0.61754 l -0.14817,0.23975 -0.14817,0.23974 -0.530314,-0.13868 -0.53032,-0.13868 -0.40523,0.33632 -0.40524,0.33631 0.0714,0.42252 0.0714,0.42251 -0.39234,0.55736 -0.39235,0.55736 -0.56397,0.17813 -0.563984,0.17813 -0.155321,-0.40476 -0.155321,-0.40476 -0.735908,0.009 -0.735908,0.009 0.624101,0.51994 0.624102,0.51995 -0.166122,0.66188 -0.166121,0.66188 h -0.471149 -0.471209 l -0.312154,-0.31216 -0.312154,-0.31215 -0.600659,0.31614 -0.600658,0.31613 -0.79375,0.21035 -0.79375,0.21036 z m 2.538117,-1.86097 -0.158097,-0.60456 -0.297042,0.0989 -0.297041,0.0989 -0.08852,0.45655 -0.08852,0.45655 0.16439,0.4284 0.164391,0.42839 0.37927,-0.37927 0.379271,-0.37927 z m -2.774978,-4.99027 0.623034,-0.16678 -0.16314,-1.02023 -0.163141,-1.02022 h 0.400002 0.400002 v -0.41427 -0.41427 l -0.284875,-0.5323 -0.284875,-0.53229 -0.442729,0.19003 -0.44273,0.19003 -0.639447,0.0289 -0.639447,0.0289 -0.110206,0.33073 -0.110205,0.33073 h 0.449782 0.449782 l -0.142612,0.54535 -0.142613,0.54536 0.405298,0.15552 0.405298,0.15553 -0.425836,0.23831 -0.425835,0.23831 v 0.47192 0.47192 l 0.176388,0.17639 0.176389,0.17639 0.154341,-0.004 0.15434,-0.004 z m -0.22616,-6.10898 v -0.40554 l -0.463021,-0.35149 -0.463021,-0.35148 -0.430624,-0.008 -0.430624,-0.008 -0.329377,0.39688 -0.329377,0.39687 h 0.370471 0.37047 l 0.448376,0.52367 0.448375,0.52366 0.404176,-0.1551 0.404176,-0.15509 z m 6.879169,-3.63888 v -0.66146 h -0.47625 -0.476252 l -0.3175,0.3175 -0.3175,0.3175 v 0.34396 0.34396 h 0.793749 0.793753 z m -14.287502,-2.12497 v -0.40518 l -0.408286,-0.15667 -0.408286,-0.15668 -0.127109,0.12711 -0.127108,0.12711 0.166827,0.43474 0.166827,0.43475 h 0.368567 0.368568 z m 9.924572,-6.95865 -0.134989,-0.35237 v -0.24294 -0.24294 h -0.689766 -0.689766 l 0.160599,0.41851 0.1606,0.41852 v 0.21495 0.21495 l 0.664156,-0.0382 0.664156,-0.0382 z m 4.80666,-0.99725 0.16254,-0.42358 -0.36928,-0.23382 -0.36928,-0.23383 h -0.1323 -0.13229 l -0.396873,0.26556 -0.396874,0.26556 0.513587,0.39184 0.51359,0.39185 h 0.22232 0.22232 z m 10.035874,-0.0394 0.35149,-0.46302 0.008,-0.21684 0.008,-0.21684 -0.59532,0.0846 -0.59531,0.0846 -0.0846,0.59531 -0.0845,0.59532 h 0.31996 0.31997 z m -10.558204,-1.17857 0.74006,-0.31868 0.46302,-0.46401 0.46302,-0.46401 -0.008,-0.34179 -0.008,-0.34179 -0.32232,-0.40259 -0.32231,-0.40258 -0.60101,0.036 -0.60101,0.036 -0.478158,0.43273 -0.478157,0.43272 h -0.309896 -0.309896 l -0.03047,0.33073 -0.03047,0.33073 0.05774,0.52917 0.05774,0.52917 0.303461,0.19438 0.303462,0.19439 0.185988,0.004 0.185988,0.004 z m 0.52696,-1.17324 -0.18378,-0.18378 v -0.48507 -0.48507 h 0.24897 0.24897 l 0.16222,0.26249 0.16223,0.26249 -0.22741,0.40636 -0.22741,0.40637 z m 4.314144,0.86132 v -0.6306 l -0.59531,-0.15954 -0.59532,-0.15954 -0.19843,-0.004 -0.19844,-0.004 v 0.64306 0.64306 l 0.59531,0.11466 0.59531,0.11466 0.19844,0.036 0.19844,0.036 z m 2.38125,-0.71172 v -0.81315 l -0.44421,0.0856 -0.4442,0.0855 0.0473,0.19844 0.0473,0.19843 v 0.52917 0.52917 h 0.39687 0.39688 z m -20.273704,0.3375 0.130448,-0.21107 -0.236108,-0.38203 -0.236107,-0.38203 -0.305464,0.30546 -0.305464,0.30546 0.17777,0.28764 0.177769,0.28764 h 0.233354 0.233353 z m 9.137462,-0.84727 h 0.288319 v -0.58228 -0.58208 l 0.3175,0.3175 0.3175,0.3175 h 0.460635 0.460635 l 0.173826,-0.28126 0.173825,-0.28125 -0.463801,-0.5125 -0.463801,-0.51249 h -0.204677 -0.204678 l -0.396115,0.39611 -0.396115,0.39612 -0.482679,-0.17773 -0.48268,-0.17772 -0.211585,-0.35068 -0.211584,-0.35069 H 91.604851 90.95654 v 0.39688 0.39687 h 0.387566 0.387566 l 0.277465,0.51845 0.277465,0.51845 -0.03491,0.20916 -0.03491,0.20915 0.04013,0.66146 0.04014,0.66146 0.496629,-0.59531 0.496629,-0.59532 z m -9.634307,-0.5268 0.167199,-0.52679 -0.164985,-0.26696 -0.164984,-0.26695 h -0.231139 -0.231139 l -0.17146,0.54023 -0.171461,0.54022 -0.507827,-0.16118 -0.507828,-0.16118 v 0.23832 0.23832 l 0.176389,0.17638 0.176389,0.17639 h 0.731823 0.731823 z m 16.460549,-6.35236 0.13838,-0.52917 h 0.17486 0.17485 l 0.61256,0.42905 0.61255,0.42905 0.4385,-0.43862 0.43851,-0.43862 -0.39688,-0.27515 -0.39687,-0.27516 0.33073,-0.1342 0.33072,-0.1342 v -0.51366 -0.51367 l 0.61897,-0.23533 0.61897,-0.23533 -0.11983,-0.81646 -0.11983,-0.81645 h -0.35123 -0.35123 l -0.16352,0.26458 -0.16353,0.26459 h -0.4915 -0.4915 l -0.11131,0.33073 -0.11132,0.33073 -0.42534,-0.35104 -0.42534,-0.35104 -0.60277,0.0865 -0.602784,0.0865 -0.0439,0.89233 -0.0439,0.89234 0.48143,0.1259 0.481434,0.12589 -0.0365,0.48479 -0.0365,0.4848 -0.18833,-0.1164 -0.188334,-0.11639 -0.3993,0.3993 -0.39931,0.39931 h -0.28348 -0.28348 v 0.24518 0.24519 l 0.46302,0.121 0.46302,0.121 0.3555,0.0307 0.355504,0.0307 z m 5.2512,-5.13775 0.51317,-0.37524 -0.13187,-0.11882 -0.13188,-0.11883 -0.96149,-0.17362 -0.96149,-0.17362 -0.16384,0.42698 -0.16385,0.42698 0.14876,0.24071 0.14877,0.24071 h 0.59527 0.59528 z m -18.001242,-1.5805 0.503603,-0.36824 -0.362445,-0.43672 -0.362445,-0.43672 0.264583,-0.26458 0.264583,-0.26459 0.338684,0.40809 0.338683,0.40809 h 0.364478 0.364478 l -0.0084,-0.33073 -0.0084,-0.33073 -0.351483,-0.46302 -0.351483,-0.46302 H 88.400462 88.15165 l -0.712143,0.33073 -0.712142,0.33073 -0.0021,0.41892 -0.0021,0.41893 -0.174093,0.17409 -0.174094,0.17409 -0.343483,-0.28506 -0.343483,-0.28507 -0.276174,0.17069 -0.276173,0.17068 v 0.31852 0.31852 l 0.595312,0.29484 0.595313,0.29483 0.412451,0.0325 0.412451,0.0325 z m -0.749888,42.22705 -0.446326,-0.49318 v -0.40979 -0.40979 l 0.373958,-0.31036 0.373958,-0.31036 1.265681,0.0655 1.265681,0.0655 0.471027,0.47103 0.471026,0.47103 -0.144095,0.3755 -0.144094,0.3755 -1.206648,0.18095 -1.206648,0.18095 -0.313596,0.12034 -0.313597,0.12034 z m 14.63493,-0.3986 v -0.34396 l -0.31389,-0.31388 -0.31389,-0.31389 -0.44429,0.40208 -0.44429,0.40207 -1.126954,-0.1802 -1.12695,-0.18021 1.24898,-0.4741 1.248974,-0.4741 0.332,-0.45405 0.33201,-0.45404 0.59536,0.15569 0.59537,0.15569 0.63482,-0.28925 0.63483,-0.28924 0.68492,0.31206 0.68491,0.31207 0.1397,-0.53418 0.13969,-0.53418 h 0.60896 0.60896 l 0.41851,0.1606 0.41852,0.1606 v 0.48524 0.48525 l -0.33073,0.21 -0.33073,0.21 -0.19844,0.0371 -0.19844,0.0371 -0.41249,0.0331 -0.41249,0.0331 0.17147,0.27743 0.17146,0.27743 0.31026,-0.25749 0.31026,-0.2575 0.29565,0.62648 0.29565,0.62648 -1.45263,0.1815 -1.45264,0.18149 -0.22709,-0.36489 -0.22709,-0.36489 -0.53365,0.33073 -0.53365,0.33073 h -0.40047 -0.40046 z m 9.62573,-2.16995 -0.0316,-0.92567 h 0.34667 0.34668 l 0.1498,0.24238 0.1498,0.24238 -0.25993,0.68366 -0.25993,0.68366 -0.20498,-3.7e-4 -0.20499,-3.7e-4 z m -62.01324,0.38565 v -0.27619 l -0.43557,0.0777 -0.43557,0.0777 -0.11564,-0.33072 -0.11565,-0.33073 h 0.68351 0.68351 v 0.52916 0.52917 h -0.13229 -0.1323 z m 55.29792,-2.40971 v -0.48911 l 0.0661,-0.19844 0.0662,-0.19844 1.16104,0.0764 1.16103,0.0764 0.55805,0.29866 0.55806,0.29867 -0.26388,0.0806 -0.26388,0.0807 -1.52135,0.23183 -1.52136,0.23183 z m 24.90874,0.33366 -0.35898,-0.22746 0.2386,-0.14746 0.2386,-0.14746 1.11256,0.14922 1.11257,0.14923 v 0.22975 0.22974 l -0.99219,-0.004 -0.99219,-0.004 z m -46.457737,-1.85757 -0.21463,-0.34728 0.364626,-0.25515 0.364626,-0.25514 -0.336296,-0.13605 -0.336296,-0.13606 -0.366354,-0.70845 -0.366354,-0.70845 0.139358,-0.789 0.139357,-0.789 0.563293,-0.45713 0.563292,-0.45714 0.837848,-0.006 0.837847,-0.006 0.111313,-0.33073 0.111314,-0.33073 0.439901,0.36313 0.439902,0.36312 v 0.46846 0.46847 l -0.396875,0.15229 -0.396875,0.1523 v 0.40518 0.40518 h -0.242534 -0.242535 l -0.133452,-0.33073 -0.133452,-0.33073 -0.02089,0.59531 -0.02089,0.59531 h 0.368568 0.368567 l 0.149044,0.3884 0.149044,0.38841 -0.253999,0.15698 -0.253999,0.15698 0.171993,0.68527 0.171993,0.68528 -1.083992,-0.1454 -1.083992,-0.14539 -0.09692,0.29077 -0.09692,0.29076 z m -2.913662,-28.31567 -0.152222,-0.2463 0.222983,-0.13781 0.222983,-0.13781 0.575083,0.15039 0.575082,0.15038 v 0.23373 0.23372 h -0.645843 -0.645843 z m 30.263249,-6.69901 -0.0202,-0.0662 -0.0886,-0.46302 -0.0886,-0.46302 h 0.55107 0.55107 l 0.45759,-0.41411 0.45758,-0.41411 0.16323,0.2641 0.16322,0.26411 -0.79841,0.47163 -0.79842,0.47164 v 0.20754 0.20753 h -0.26458 -0.26459 z m -7.08747,-1.71979 -0.036,-0.33073 h -0.42927 -0.42927 l 0.35454,-0.4272 0.35455,-0.4272 -0.60692,-0.49145 -0.60691,-0.49145 0.41706,-0.59543 0.41705,-0.59543 v 0.31666 0.31666 l 0.75321,0.3895 0.75322,0.3895 0.63585,-0.12355 0.63585,-0.12355 -0.40578,0.20386 -0.40577,0.20387 -0.5602,0.40343 -0.5602,0.40342 -0.12248,0.65491 -0.12247,0.65491 z m 6.89228,-0.60985 -0.61231,-0.24557 0.16491,-0.26682 0.1649,-0.26682 h 0.4915 0.49151 l 0.12126,-0.33073 0.12127,-0.33073 0.31938,0.29953 0.31938,0.29954 -0.34995,0.56036 -0.34995,0.56036 -0.13479,-0.0168 -0.1348,-0.0168 z m -3.95175,-1.21902 -0.33073,-0.13346 v -0.50711 -0.50712 h -0.54478 -0.54478 l 0.20745,-0.33073 0.20745,-0.33073 -0.081,-0.49169 -0.081,-0.49169 0.15626,-0.6226 0.15626,-0.62261 1.74273,0.16274 1.74272,0.16274 0.21247,-0.34377 0.21246,-0.34377 0.39087,0.14999 0.39088,0.14999 -0.12451,0.6513 -0.1245,0.6513 0.2895,0.17892 0.2895,0.17892 v 0.24897 0.24897 h -0.39688 -0.39687 v 0.38857 0.38857 l -0.35125,-0.13479 -0.35125,-0.13478 -0.70708,0.26883 -0.70709,0.26883 v 0.53572 0.53571 l -0.46302,-0.0209 -0.46302,-0.0209 z m -6.283854,74.78772 0.16352,-0.26458 h -0.88874 -0.88874 l -0.31309,-0.31309 -0.31309,-0.31309 -0.20285,0.21702 -0.20285,0.21702 0.33238,0.11867 0.33238,0.11867 -0.14956,0.24198 -0.14955,0.24199 h 1.05833 1.05833 z m -3.331797,-1.77168 0.27774,-0.60957 h -0.258911 -0.258911 v 0.36448 0.36448 l -0.438377,0.36313 -0.438376,0.36312 0.190994,-1.01997 0.190994,-1.01997 -0.34793,0.11713 -0.34793,0.11714 -0.0079,0.558 -0.0079,0.55801 -0.188195,0.18819 -0.188195,0.1882 0.284851,0.34322 0.284851,0.34323 0.487775,-0.30462 0.487774,-0.30462 z m 27.012001,-0.34795 v -0.5262 h -0.41577 -0.41577 l -0.36538,0.36537 -0.36538,0.36538 0.10486,0.10485 0.10485,0.10486 0.6763,0.056 0.67629,0.056 z m -32.808333,-1.19155 v -0.40077 l -0.853127,-0.51881 -0.853127,-0.51882 -0.240338,0.24034 -0.240339,0.24034 0.157408,0.4102 0.157408,0.41019 0.417711,-0.16029 0.41771,-0.16029 -0.04215,0.2309 -0.04215,0.2309 0.03133,0.19843 0.03133,0.19844 h 0.529166 0.529167 z m 45.004353,-3.23151 0.20802,-0.56231 -0.42707,-0.35011 -0.42706,-0.3501 0.1534,0.59531 0.1534,0.59532 -0.70283,0.008 -0.70283,0.008 0.51846,0.39202 0.51847,0.39203 0.25002,-0.0833 0.25001,-0.0833 z m -23.13386,-0.13804 0.20589,-0.33073 -0.0736,-0.57004 -0.0736,-0.57004 0.28021,-0.17318 0.28021,-0.17318 v -0.24897 -0.24896 l -0.19844,0.008 -0.19844,0.008 -0.44108,0.33544 -0.44109,0.33544 -0.18367,0.97906 -0.18367,0.97906 h 0.4107 0.41071 z m -4.24584,-0.90061 0.92059,-0.70217 0.29292,0.29291 0.29291,0.29291 0.50571,-0.27065 0.50572,-0.27065 -0.27937,-0.33662 -0.27937,-0.33662 0.17409,-0.17409 0.1741,-0.1741 h -0.42536 -0.42536 l -0.16102,0.26054 -0.16102,0.26053 -0.5822,0.0147 -0.5822,0.0147 -0.72955,0.0173 -0.72956,0.0172 -0.16615,0.66199 -0.16615,0.66199 0.36654,0.23213 0.36654,0.23214 0.0838,0.004 0.0838,0.004 z m 5.76893,-0.0254 0.19843,-0.19844 h 0.28664 0.28663 l 0.0953,-0.28595 0.0953,-0.28595 -0.79236,0.1163 -0.79236,0.11629 -0.3055,0.3681 -0.30549,0.36809 h 0.51747 0.51747 z m 21.05642,-1.22437 v -0.36448 l -0.35507,-0.29469 -0.35508,-0.29468 -0.17409,0.17409 -0.17409,0.17409 v 0.48507 0.48507 h 0.52916 0.52917 z m 2.38125,-2.54999 0.39688,-0.26053 -0.39688,-0.26021 -0.39687,-0.26021 -0.92605,0.16301 -0.92604,0.16302 -0.0926,0.0796 -0.0926,0.0796 0.1744,0.28219 0.1744,0.28218 0.84428,-0.004 0.84429,-0.004 z m -3.175,-0.5095 v -0.51355 l -0.26458,-0.16353 -0.26459,-0.16352 v 0.25856 0.25856 l -0.1606,0.41851 -0.16059,0.41852 h 0.42518 0.42518 z m 2.70793,-4.38124 0.19438,-0.26459 0.004,-0.47501 0.004,-0.47501 -0.98555,0.1849 -0.98555,0.18489 -0.35626,0.35626 -0.35627,0.35627 h -0.24568 -0.24569 v 0.26458 0.26458 h 0.77814 0.77813 l 0.17147,0.27743 0.17146,0.27744 0.43946,-0.34358 0.43947,-0.34358 z m -9.74103,-0.55748 0.41852,-0.1606 v -0.23627 -0.23628 h -0.66146 -0.66146 v 0.22049 0.22049 l 0.17639,0.17638 0.17639,0.17639 h 0.0666 0.0666 z m -21.01273,-2.16773 v -0.74084 l -0.28764,-0.28763 -0.28764,-0.28764 0.26936,-0.16647 0.26935,-0.16647 0.16619,0.2689 0.16619,0.2689 0.44741,-0.009 0.4474,-0.009 -0.62462,-0.52037 -0.62463,-0.52036 h -0.76443 -0.76444 v 0.27288 0.27289 l 0.37882,0.14537 0.37882,0.14537 -0.0354,0.57393 -0.0354,0.57393 -0.27728,0.19844 -0.27727,0.19844 0.39687,0.26053 0.39688,0.26053 0.33072,0.004 0.33073,0.004 z m 10.44308,-0.39416 0.33088,-0.45251 h 0.41824 0.41823 l 0.17698,-0.28636 0.17698,-0.28635 -1.21783,0.0749 -1.21783,0.0749 -0.35991,-0.4922 -0.3599,-0.4922 -0.56632,0.39667 -0.56632,0.39666 0.16848,0.16848 0.16848,0.16848 -0.43475,0.16683 -0.43474,0.16682 v 0.2448 0.24481 l 0.56721,0.20982 0.56721,0.20983 0.91701,-0.0304 0.91701,-0.0304 z m -40.685026,-2.69109 0.685148,-0.17196 -0.27457,-0.27457 -0.274569,-0.27457 -0.689743,0.45194 -0.689743,0.45193 v 0.19006 0.19005 l 0.198438,0.20013 0.198437,0.20012 0.08073,-0.39558 0.08073,-0.39559 z m 20.46975,0.37719 0.511772,-0.2739 v -0.28395 -0.28396 l -0.727061,0.18248 -0.727062,0.18248 -0.09318,0.0932 -0.09318,0.0932 0.174401,0.28219 0.174401,0.28218 h 0.134071 0.134071 z m -15.62781,-0.65215 0.329377,-0.39688 H 80.537896 79.84404 v 0.22049 0.22048 l 0.176389,0.17639 0.176389,0.17639 h 0.188089 0.18809 z m 56.885416,-1.29206 V 237.052 l -0.59531,-0.15954 -0.59531,-0.15954 -0.94162,-0.004 -0.94162,-0.004 -0.51359,0.37907 -0.51359,0.37906 0.31133,0.31591 0.31133,0.31591 1.40846,0.34086 1.40847,0.34086 0.33072,0.0225 0.33073,0.0225 z m -21.19326,-1.00661 -0.29262,-0.54675 0.35585,-0.21993 0.35585,-0.21993 0.63697,0.15987 0.63697,0.15987 -0.18737,-0.30317 -0.18737,-0.30317 h -1.05102 -1.05102 l -0.14743,-0.3842 -0.14744,-0.38421 0.18024,-0.29163 0.18024,-0.29163 0.6013,0.39399 0.60131,0.39399 0.30023,-0.30024 0.30024,-0.30023 v -0.34396 -0.34396 h -0.26458 -0.26459 v 0.26458 0.26459 h -0.28019 -0.2802 l 0.16352,-0.26459 0.16352,-0.26458 h -0.88874 -0.88874 l -0.3175,-0.3175 -0.3175,-0.3175 v 0.3175 0.3175 h 0.26458 0.26459 v 0.54656 0.54656 l 0.27389,0.51177 0.27389,0.51178 h -0.27389 -0.27389 v 0.3748 0.37481 l 0.72459,0.52783 0.7246,0.52783 0.20216,-0.12494 0.20216,-0.12495 z m 4.21219,0.26887 -0.0845,-0.57459 -0.33073,-0.10892 -0.33073,-0.10891 v 0.50711 0.50712 l 0.17639,0.17639 0.17639,0.17639 h 0.23888 0.23889 z m -32.155552,-0.6836 0.105348,-0.19702 -0.174694,-0.66146 -0.174694,-0.66146 -0.445085,0.84676 -0.445086,0.84676 v 0.28703 0.28703 l 0.514431,-0.27531 0.514431,-0.27532 z"
       id="path16" /></g></svg>
