<?xml version="1.0" encoding="UTF-8" standalone="no"?>
<!-- Created with Inkscape (http://www.inkscape.org/) -->

<svg
   width="101.59998mm"
   height="84.666672mm"
   viewBox="0 0 101.59998 84.666672"
   version="1.1"
   id="svg1"
   xml:space="preserve"
   xmlns="http://www.w3.org/2000/svg"
   xmlns:svg="http://www.w3.org/2000/svg"><defs
     id="defs1" /><g
     id="layer1"
     transform="translate(-44.614724,-148.5)"><path
       style="fill:#ffffff;fill-opacity:1"
       d="M 44.614721,190.83334 V 148.5 h 50.799992 50.799997 v 42.33334 42.33332 H 95.414713 44.614721 Z m 5.55625,40.74582 0.5652,-0.79375 h 0.29606 0.29607 l -0.74881,0.7816 -0.74882,0.78159 6.18942,-0.007 6.18942,-0.007 0.61669,-0.3983 0.61668,-0.3983 0.33141,0.12718 0.3314,0.12717 v -0.36001 -0.36002 l -0.20221,0.12497 -0.2022,0.12497 -0.16549,-0.26777 -0.1655,-0.26778 0.67638,-0.30817 0.67638,-0.30818 v -0.23951 -0.23951 l -0.27389,-0.51177 -0.2739,-0.51177 -0.45371,0.004 -0.45371,0.004 0.36463,0.23095 0.36462,0.23095 -0.1818,0.29417 -0.1818,0.29416 h -0.35296 -0.35295 l -0.15229,-0.39687 -0.1523,-0.39688 h 0.27189 0.2719 l -0.15756,-0.25493 -0.15756,-0.25493 0.51236,-0.51236 0.51236,-0.51236 0.29104,0.29104 0.29105,0.29104 v 0.32896 0.32895 l 0.56761,0.39758 0.56762,0.39757 0.821444,-0.14031 0.821447,-0.1403 0.70781,-0.26617 0.707809,-0.26616 -0.08891,-0.46167 -0.08891,-0.46167 0.198205,-0.32071 0.198205,-0.3207 0.325735,0.39249 0.325734,0.39248 -0.289007,0.54002 -0.289008,0.54001 -0.523103,0.27996 -0.523103,0.27996 v 0.26687 0.26687 l 0.330729,-0.043 0.33073,-0.0429 0.363126,0.0314 0.363126,0.0313 -0.363126,0.4402 -0.363126,0.44019 0.577918,-0.3079 0.577918,-0.3079 h 0.171735 0.171734 l -0.09481,0.28442 -0.09481,0.28443 -0.228387,-0.0424 -0.228388,-0.0424 -0.203539,0.32933 -0.20354,0.32934 0.132303,0.34477 0.132303,0.34478 0.614212,-0.40245 0.614213,-0.40245 0.172876,0.54469 0.172877,0.54468 h 4.183192 4.183188 l 0.95836,-0.40042 0.95835,-0.40043 3.4e-4,-0.0626 3.4e-4,-0.0626 -3.770652,0.0472 -3.770652,0.0472 1.984375,-0.38701 1.984375,-0.38701 2.116664,0.0962 2.11667,0.0962 0.46302,0.20582 0.46302,0.20583 v -0.59239 -0.59239 l 0.54039,-0.87437 0.54039,-0.87437 1.37394,-1.00895 1.37394,-1.00894 0.79765,-0.45193 0.79765,-0.45193 0.46302,-0.0111 0.46302,-0.0111 v 0.23627 0.23628 l -0.41364,0.15873 -0.41365,0.15873 0.14515,0.23486 0.14515,0.23486 0.59923,0.14322 0.59922,0.14322 1.51582,0.38152 1.51582,0.38152 0.54461,-1.45561 0.54461,-1.4556 -0.0761,-0.19972 -0.0761,-0.19972 -1.71979,0.45889 -1.71979,0.45889 -0.52917,0.18363 -0.52917,0.18363 0.8599,-0.45439 0.8599,-0.45438 v -0.40179 -0.40179 l 0.28038,0.28039 0.28039,0.28038 1.22637,-0.22911 1.22636,-0.2291 0.20899,-0.3291 0.20899,-0.32909 0.004,-0.20498 0.004,-0.20499 -0.72761,-0.28655 -0.7276,-0.28655 -2.24896,-0.35601 -2.24896,-0.35601 -0.92429,-0.27693 -0.9243,-0.27694 h -0.57676 -0.57676 l -0.77733,0.65409 -0.77733,0.65408 -0.16901,-0.16902 -0.16901,-0.16901 v 0.27272 0.27272 l 1.22755,0.16825 1.22756,0.16826 1.21984,0.0186 1.21984,0.0186 0.52917,0.22739 0.52917,0.22739 -0.39688,0.0184 -0.39687,0.0184 -2.88236,-0.27333 -2.88235,-0.27332 -2.54161,0.81232 -2.541601,0.81232 -1.348565,0.92077 -1.348565,0.92076 -0.308442,0.67695 -0.308442,0.67696 0.151268,0.24476 0.151268,0.24475 -0.214053,-6e-4 -0.214052,-6e-4 -2.905441,-0.99555 -2.90544,-0.99556 -0.243602,-0.69267 -0.243601,-0.69268 0.17561,-0.45763 0.175611,-0.45764 0.390831,0.32436 0.390831,0.32437 -0.144994,0.2346 -0.144993,0.2346 h 0.130682 0.130682 l 0.644212,-0.24492 0.644212,-0.24493 0.484182,-1.61638 0.484182,-1.61638 0.403539,0.0777 0.403539,0.0777 0.333474,0.65911 0.333475,0.65912 0.0039,-0.42439 0.0039,-0.42439 -0.668245,-0.72104 -0.668245,-0.72105 0.04852,-0.30978 0.04852,-0.30977 -0.193336,-0.52917 -0.193335,-0.52916 -0.254233,-0.47379 -0.254233,-0.47378 0.182136,-0.2947 0.182135,-0.2947 -0.287181,0.17748 -0.287182,0.17749 -0.169149,-0.27369 -0.169149,-0.27369 -0.775175,0.55198 -0.775175,0.55197 v 0.29066 0.29067 l 0.171577,-0.17158 0.171577,-0.17157 0.489881,0.56483 0.489882,0.56484 v 0.10742 0.10743 l -0.264303,-0.16352 -0.264584,-0.16353 v 0.2802 0.2802 l 0.463021,0.004 0.463021,0.004 -0.396875,0.26054 -0.396875,0.26053 0.396875,0.26053 0.396875,0.26053 -0.198438,0.0239 -0.198437,0.0239 -1.653646,0.009 -1.653646,0.009 -0.446314,-0.18335 -0.44631,-0.18334 0.13645,-0.3556 0.136454,-0.35559 -0.748474,-0.40567 -0.74847,-0.40566 0.34634,-0.0106 0.34635,-0.0106 -0.16353,-0.26458 -0.16352,-0.26459 h 0.53164 0.531632 l 0.257886,0.46082 0.257886,0.46082 0.164735,-0.16474 0.164735,-0.16473 -0.409474,-0.40948 -0.409474,-0.40947 v -0.1795 -0.1795 l 0.374978,0.1439 0.374979,0.14389 0.133512,-0.34793 0.133513,-0.34793 -0.296825,-0.29682 -0.296824,-0.29683 h 0.273403 0.273403 v -0.37164 -0.37165 l -0.352778,0.13537 -0.352778,0.13537 v -0.25224 -0.25224 l 0.44721,-0.89645 0.44721,-0.89645 0.06221,-0.58353 0.06221,-0.58352 -0.377132,0.14472 -0.377132,0.14472 v -0.45349 -0.45349 l 0.402997,0.15464 0.402997,0.15465 -0.292862,-0.54722 -0.292861,-0.54722 0.318839,-0.76974 0.318838,-0.76975 h 0.232484 0.232484 l 0.0084,0.33073 0.0084,0.33073 0.351482,-0.46302 0.351483,-0.46302 h 0.427753 0.427753 l 0.392031,-0.59531 0.392031,-0.59532 1.079969,-0.66145 1.07997,-0.66146 -0.162598,-0.66146 -0.162597,-0.66146 -0.509554,-0.54622 -0.509553,-0.54622 v -0.197 -0.197 l 0.236958,0.14645 0.236958,0.14645 1.717031,-0.64629 1.717031,-0.64629 0.162678,0.11858 0.162678,0.11858 -0.127482,-0.17158 -0.127482,-0.17157 1.243319,-1.74666 1.243319,-1.74665 0.537808,-0.44586 0.537809,-0.44587 -0.474038,-0.35239 -0.474037,-0.35239 -0.366545,-0.65695 -0.366545,-0.65695 -0.448847,-0.86519 -0.448847,-0.86519 -0.322414,0.26758 -0.322415,0.26758 -0.174093,-0.17409 -0.174094,-0.17409 v 0.45658 0.45659 l -0.239414,-0.14797 -0.239415,-0.14796 0.147393,1.09889 0.147393,1.0989 -0.345734,-0.21368 -0.345734,-0.21367 0.171993,0.27829 0.171992,0.27829 -0.168453,0.84226 -0.168453,0.84227 -0.212108,-0.3432 -0.212107,-0.34319 0.262296,-0.31605 0.262297,-0.31605 -0.318312,-0.19673 -0.318311,-0.19672 0.216575,0.35042 0.216576,0.35043 -0.45402,-0.17423 -0.454021,-0.17422 0.189437,0.30652 0.189437,0.30651 -0.439752,-0.16875 -0.439752,-0.16875 -0.457436,0.7191 -0.457436,0.7191 -0.270694,0.19439 -0.270695,0.19438 0.264583,0.0146 0.264584,0.0147 -0.750996,0.40699 -0.750995,0.40699 -0.175046,-0.1754 -0.175047,-0.1754 0.0776,-2.39662 0.07761,-2.39663 -1.532813,0.18346 -1.532813,0.18346 -3.571878,0.12689 -3.57187,0.12688 -3.42835,-0.37064 -3.42835,-0.37064 -0.80498,0.23908 -0.80499,0.23908 -1.98437,-0.17392 -1.98438,-0.17391 -0.71446,-0.36397 -0.71447,-0.36397 h -0.27772 -0.27772 v 1.05479 1.05478 l 0.92604,0.38692 0.92604,0.38693 v 0.15778 0.15778 l -0.92604,-0.17372 -0.92604,-0.17373 v 14.18465 14.18466 h 0.35545 0.35545 l 1.56278,-0.53908 1.56277,-0.53909 0.58863,0.0761 0.58863,0.0761 -2.50686,2.21725 -2.50685,2.21725 v 0.75931 0.75931 h 2.09865 2.09865 z m 7.40833,0.14791 v -0.41249 l 0.0661,-0.19844 0.0661,-0.19843 0.23155,0.0772 0.23156,0.0772 0.48981,-0.44327 0.48981,-0.44327 -0.16693,-0.27011 -0.16693,-0.2701 0.28718,0.17749 0.28718,0.17749 0.17944,-0.29034 0.17944,-0.29034 0.6546,0.1643 0.6546,0.16429 0.14114,-0.53973 0.14114,-0.53973 h 0.11883 0.11883 l 0.52885,0.28303 0.52886,0.28304 -0.31406,0.37842 -0.31407,0.37842 h 0.26868 0.26867 l 0.14904,0.38841 0.14905,0.3884 -0.29391,0.18164 -0.29391,0.18165 0.18879,-0.30547 0.18878,-0.30546 h -0.51238 -0.51239 l -0.32356,0.38987 -0.32357,0.38988 -0.9656,0.17419 -0.9656,0.17419 -0.46402,0.0824 -0.46401,0.0824 -0.26359,0.1629 -0.26359,0.16291 z m -4.12992,-3.15484 -0.29346,-0.30036 0.26979,-0.59531 0.26978,-0.59531 h 0.19127 0.19127 l 0.12612,0.65978 0.12613,0.65977 -0.29372,0.2359 -0.29372,0.23589 z m 1.48409,-0.39697 v -0.82943 h 0.52916 0.52917 v 0.15671 0.1567 l -0.52917,0.67273 -0.52916,0.67272 z m 9.4701,-1.55703 -0.27448,-0.33073 h -0.36448 -0.36448 v -0.24897 -0.24897 l 0.25294,-0.15632 0.25294,-0.15633 0.93191,0.38938 0.93191,0.38938 0.153681,-0.24867 0.153685,-0.24867 -0.214053,-0.004 -0.214053,-0.004 0.870989,-0.55772 0.870987,-0.55771 0.165297,0.16529 0.165297,0.1653 h -0.300376 -0.300377 l 0.151439,0.39465 0.15144,0.39464 -0.424327,0.16283 -0.424326,0.16283 v 0.43471 0.43472 h -0.948543 -0.94854 z m -13.37822,-0.11576 0.10473,-0.31419 0.35102,-0.11701 0.35102,-0.11701 -0.20793,0.36506 -0.20794,0.36505 0.35632,-0.33073 0.35631,-0.33073 h 0.24407 0.24406 l -0.32938,0.39688 -0.32937,0.39687 h -0.51882 -0.51882 z m 2.70192,-0.60817 0.51359,-0.40055 h 0.42802 0.42803 l 0.4927,-0.36027 0.4927,-0.36027 0.47443,0.12406 0.47443,0.12407 0.46069,-0.46069 0.46069,-0.46069 0.10001,0.30002 0.1,0.30002 h 0.71283 0.71283 l 0.60524,-0.42393 0.60524,-0.42392 0.31353,0.41995 0.31353,0.41995 2.77812,-0.50031 2.778128,-0.5003 0.734706,-0.28562 0.734707,-0.28563 0.213459,-0.57703 0.21346,-0.57704 0.573188,0.57319 0.573188,0.57319 h 0.264583 0.264584 v 0.37134 0.37134 l -1.256771,0.13097 -1.256771,0.13098 -1.322917,0.30314 -1.322914,0.30313 -1.19063,0.2761 -1.19062,0.27609 -0.66146,0.11673 -0.66146,0.11673 -0.33073,0.11633 -0.33073,0.11634 v -0.28867 -0.28868 l -0.36764,0.30511 -0.36763,0.30512 -1.55575,-0.0614 -1.55575,-0.0614 -0.26279,0.16241 -0.26279,0.16241 -1.71643,0.15916 -1.71643,0.15916 z m 1.11311,-2.45443 0.12988,-0.49663 -0.42133,-0.34967 -0.42133,-0.34967 0.15639,0.40754 0.15638,0.40753 -0.22769,0.14073 -0.2277,0.14072 -0.0381,-0.50563 -0.0381,-0.50562 0.23558,-0.1456 0.23558,-0.1456 0.67363,0.16907 0.67363,0.16907 v 0.34615 0.34614 l 0.29359,0.0979 0.2936,0.0979 -0.42589,0.35346 -0.42589,0.35345 v -0.32938 -0.32937 l -0.37606,0.3121 -0.37606,0.3121 z m 0.4375,-2.25347 -0.58164,-0.32684 1.06763,-0.61444 1.06763,-0.61445 0.10057,0.10057 0.10057,0.10057 -0.20872,0.78045 -0.20872,0.78045 -0.37784,0.0603 -0.37785,0.0603 z m -0.74129,-2.30724 0.52917,-0.22739 0.81273,-0.0186 0.81273,-0.0186 0.57633,-1.27523 0.57633,-1.27522 v -0.42251 -0.42252 l -0.2908,-0.0969 -0.2908,-0.0969 -0.36454,-0.86698 -0.36453,-0.86697 0.83513,-0.4472 0.83513,-0.44721 1.17856,-1.05833 1.17856,-1.05833 -0.1998,0.92604 -0.1998,0.92604 -0.61563,1.05833 -0.61563,1.05834 -0.4094,1.5875 -0.4094,1.5875 -0.45827,0.85989 -0.45828,0.8599 -1.59348,-0.0186 -1.59348,-0.0186 z m 9.65729,-2.33715 v -0.22048 l 0.19844,-0.19844 0.19844,-0.19843 0.0331,-0.24254 0.0331,-0.24253 0.0331,-0.30868 0.0331,-0.30869 0.16708,0.16708 0.16708,0.16708 0.47832,-0.25599 0.478322,-0.25599 0.157312,0.25454 0.157312,0.25454 -0.325433,0.5211 -0.325433,0.5211 -0.62202,0.28341 -0.62202,0.28341 h -0.11985 -0.11984 z m -2.98708,-1.36701 0.13838,-0.52916 h 0.23373 0.23372 v -0.3564 -0.35639 l 0.48988,-0.56483 0.48989,-0.56484 0.14741,0.14742 0.14742,0.14741 0.17428,-0.5491 L 63.435791,212 h 0.21436 0.21436 l 0.32937,0.39688 0.32938,0.39687 h -0.28868 -0.28867 l 0.13603,0.35449 0.13602,0.35448 -0.40891,0.33937 -0.40892,0.33937 v 0.36448 0.36448 h -0.26458 -0.26458 v 0.39687 0.39688 h -0.50712 -0.50712 l -0.13345,-0.33073 -0.13345,-0.33073 -0.0209,0.33073 -0.0209,0.33073 h -0.23981 -0.23982 z m -0.29777,-7.00666 0.17594,-0.70099 0.34988,-1.10711 0.34989,-1.10711 -0.0522,1.25546 -0.0522,1.25547 -0.19844,0.001 -0.19843,0.001 v 0.38126 0.38126 l -0.27519,0.17007 -0.27519,0.17008 z m 27.208552,23.62522 0.4058,-0.57935 -0.0895,-0.0895 -0.0895,-0.0895 -0.7643,0.31243 -0.7643,0.31243 -0.49125,0.0945 -0.49124,0.0945 -0.4348,0.25389 -0.4348,0.25389 1.37406,0.008 1.37406,0.008 z m 12.564217,-4.44773 0.29121,-4.89479 0.16113,-1.5548 0.16113,-1.5548 0.16857,0.25118 0.16858,0.25118 0.46302,0.17084 0.46302,0.17083 0.0331,1.7281 0.0331,1.72809 0.0662,0.26459 0.0661,0.26458 0.0331,4.10104 0.0331,4.10104 h 1.54312 1.54313 l -0.10238,-1.52135 -0.10238,-1.52135 -0.23808,-1.19063 -0.23808,-1.19062 -0.17026,-1.65324 -0.17026,-1.65323 -0.20041,0.12386 -0.20041,0.12385 0.057,-0.98416 0.057,-0.98417 0.0411,-1.05833 0.0411,-1.05833 0.25648,0.39687 0.25648,0.39688 0.004,-0.28826 0.004,-0.28826 0.66677,-0.3038 0.66677,-0.30381 0.23657,-0.62221 0.23657,-0.62222 0.84237,0.12363 0.84237,0.12364 -0.10778,-0.49686 -0.10777,-0.49685 -0.28992,0.0578 -0.28992,0.0578 -0.14583,-0.38004 -0.14584,-0.38004 0.29391,-0.18164 0.29391,-0.18165 -0.21,0.33979 -0.21,0.33979 0.36756,-0.12203 0.36755,-0.12203 0.0745,-2.92421 0.0745,-2.92422 -0.66983,-0.16812 -0.66984,-0.16812 v -0.43799 -0.43796 l -0.66146,0.62141 -0.66145,0.62141 v -0.3107 -0.31071 h -0.26162 -0.26162 l 0.03,0.72761 0.03,0.7276 0.33516,1.32292 0.33516,1.32291 0.16372,0.71827 0.16372,0.71826 0.46032,-0.17249 0.46033,-0.17249 -0.35259,0.43372 -0.35259,0.43371 0.1825,0.575 0.18249,0.575 -0.29293,-0.18105 -0.29293,-0.18104 -0.007,-0.31511 -0.007,-0.31511 -0.74742,-0.98706 -0.74742,-0.98706 -0.13565,0.13565 -0.13564,0.13565 -0.3323,-0.80224 -0.33229,-0.80223 h -0.16825 -0.16824 l 0.0824,-1.25677 0.0825,-1.25677 -0.2519,0.36867 -0.25189,0.36867 -0.55625,-0.14546 -0.55625,-0.14547 v 0.62439 0.62438 l -0.78227,-0.44897 -0.78228,-0.44896 -0.32897,0.32898 -0.32898,0.32898 h 0.44979 0.44979 v 0.66145 0.66146 h -0.26458 -0.26458 l 0.0662,0.33073 0.0661,0.33073 -0.39688,-0.0258 -0.396867,-0.0258 -0.0524,1.34867 -0.0524,1.34868 -0.009,0.91973 -0.009,0.91972 0.628887,0.53549 0.62889,0.53548 -0.35471,5.29166 -0.35472,5.29167 -0.0141,1.03628 -0.0141,1.03629 0.10669,-0.11024 0.10669,-0.11025 z m 3.33193,1.63439 0.0649,-2.46665 0.24815,-0.24815 0.24815,-0.24815 -0.19818,1.92105 -0.19817,1.92105 -0.11489,0.79375 -0.11489,0.79375 z m 14.47738,3.01256 0.98369,-0.41362 h 0.14079 0.14079 v 0.39688 0.39687 h 0.89773 0.89774 l 0.15229,-0.39687 0.1523,-0.39688 h 0.30119 0.3012 l -0.15435,0.40223 -0.15435,0.40222 5.48385,-0.0715 5.48386,-0.0715 v -0.39687 -0.39688 l 0.39687,-0.009 0.39688,-0.009 0.32135,0.53804 0.32135,0.53805 0.009,-0.34635 0.009,-0.34634 0.33073,0.16752 0.33073,0.16753 -0.46302,-0.37952 -0.46302,-0.37951 0.008,-1.02917 0.008,-1.02916 0.29482,0.50793 0.29482,0.50792 0.0324,0.55041 0.0324,0.5504 0.45846,-0.0777 0.45847,-0.0778 v 0.2918 0.2918 l -0.29891,-0.18474 -0.29891,-0.18473 0.1212,0.36755 0.12119,0.36756 0.57459,0.0846 0.57459,0.0845 -0.009,-0.21684 -0.009,-0.21684 -0.35462,-1.45521 -0.35461,-1.45521 -0.71554,-2.60254 -0.71554,-2.60254 0.11012,-0.11012 0.11012,-0.11012 2.49081,0.5257 2.49082,0.52571 0.7276,0.004 0.7276,0.004 v -0.31448 -0.31447 l 0.53948,0.57906 0.53947,0.57905 0.45272,0.004 0.45271,0.004 0.62544,0.16742 0.62543,0.16741 -0.18745,-0.59061 -0.18745,-0.59061 0.53814,0.288 0.53815,0.28801 0.11195,-0.19915 0.11195,-0.19915 0.0528,-1.87791 0.0528,-1.87791 -3.52217,-0.16885 -3.52218,-0.16885 -1.85208,-0.39974 -1.85208,-0.39973 -0.69565,-0.15793 -0.69564,-0.15793 0.13562,0.70946 0.13563,0.70946 -0.68473,-0.68473 -0.68472,-0.68472 h -0.39691 -0.39692 l -0.16877,-0.89962 -0.16877,-0.89962 0.12874,-0.48944 0.12873,-0.48944 0.19042,0.59233 0.19042,0.59234 0.25254,-0.15608 0.25254,-0.15608 -0.11371,-0.30396 -0.11372,-0.30397 0.20937,-0.52917 0.20938,-0.52916 0.0186,0.42375 0.0186,0.42375 1.65364,0.42352 1.65365,0.42352 1.42007,0.28107 1.42007,0.28106 3.40857,0.16389 3.40858,0.16389 v -2.41187 -2.41167 l -0.59531,-0.13792 -0.59532,-0.13792 -3.30729,-0.52853 -3.30729,-0.52852 -0.46302,-5e-5 -0.46302,-5e-5 v 0.33362 0.33362 l -0.94061,1.05544 -0.9406,1.05544 1.33748,-2.08447 1.33748,-2.08447 v -0.21502 -0.21502 l -0.21107,-0.13045 -0.21107,-0.13044 -0.31508,0.19473 -0.31508,0.19473 -1.07447,2.07635 -1.07447,2.07636 0.13711,0.35729 0.1371,0.35729 h -0.25612 -0.25612 l 0.066,-0.92552 0.066,-0.92551 0.16634,-5.3e-4 0.16634,-5.3e-4 0.3323,-0.80223 0.33229,-0.80224 -0.10176,-0.087 -0.10176,-0.087 -1.09668,-0.16779 -1.09667,-0.16779 -0.18153,0.4617 -0.18152,0.4617 -0.35396,-0.79375 -0.35395,-0.79375 -0.0215,0.33073 -0.0215,0.33073 h -0.50712 -0.50712 l -0.0989,-0.29676 -0.0989,-0.29677 -1.0476,-0.034 -1.04761,-0.034 -0.19843,-0.26459 -0.19844,-0.26458 -0.23094,0.35805 -0.23093,0.35804 -0.56282,-0.30121 -0.56281,-0.30121 -0.0264,-0.45371 -0.0264,-0.45371 -0.18967,0.66146 -0.18967,0.66146 -0.70708,-0.0757 -0.70709,-0.0757 0.26189,0.68882 0.26189,0.68883 0.27367,0.51136 0.27367,0.51135 0.45372,-0.004 0.45371,-0.004 -0.34534,-0.21903 -0.34534,-0.21903 0.0874,-0.63681 0.0875,-0.63682 0.20021,-0.31917 0.20021,-0.31917 0.38689,0.14846 0.38688,0.14846 -0.14906,0.24117 -0.14905,0.24118 -0.2463,-0.15223 -0.2463,-0.15222 -0.0202,0.21405 -0.0202,0.21406 -0.0886,0.46302 -0.0886,0.46302 h 0.23455 0.23456 l -0.14194,0.7276 -0.14194,0.72761 0.61157,0.36184 0.61158,0.36185 -0.33073,-0.34862 -0.33073,-0.34862 0.0214,-0.54239 0.0214,-0.5424 0.48373,1.0384 0.48373,1.0384 0.59857,0.0914 0.59857,0.0914 0.35149,0.29171 0.3515,0.29171 v 0.2405 0.24049 l -0.46302,0.17083 -0.46302,0.17084 -0.19439,0.28388 -0.19439,0.28388 -0.004,0.59532 -0.004,0.59531 h 0.2802 0.2802 l -0.14877,-0.24071 -0.14876,-0.24071 0.17257,-0.44971 0.17257,-0.44971 0.2413,0.43117 0.2413,0.43118 -0.16684,0.52566 -0.16684,0.52567 -0.67029,-0.12155 -0.67028,-0.12155 -0.60973,-0.39951 -0.60973,-0.3995 -0.14848,0.38692 -0.14848,0.38693 -0.7359,-0.009 -0.73591,-0.009 -0.66146,-0.37812 -0.66146,-0.37813 -0.33073,-0.009 -0.33073,-0.009 v 0.53276 0.53275 l 0.31899,0.51078 0.31898,0.51078 -0.45795,0.50603 -0.45795,0.50603 0.40352,0.33489 0.40353,0.3349 0.3969,-0.94992 0.3969,-0.94992 v -0.38976 -0.38976 l 0.26645,-0.16467 0.26645,-0.16468 0.15894,0.41418 0.15894,0.41419 -0.42539,1.06315 -0.42539,1.06315 0.0259,0.58995 0.0259,0.58996 0.44058,-1.42551 0.44059,-1.4255 0.39337,0.47398 0.39337,0.47399 -0.085,0.15777 -0.085,0.15777 -0.4293,0.47438 -0.42931,0.47438 0.60282,0.15764 0.60282,0.15764 -0.30914,0.19106 -0.30913,0.19105 0.41906,0.16081 0.41906,0.16081 v -0.2 -0.2 l 0.79375,-0.0605 0.79375,-0.0605 v 0.29083 0.29083 l 0.33073,-0.11858 0.33073,-0.11859 0.445,0.2285 0.44501,0.2285 -0.0647,0.60683 -0.0647,0.60684 -0.21074,0.34098 -0.21073,0.34097 -0.56645,-0.14217 -0.56645,-0.14218 0.006,1.24265 0.006,1.24265 0.46101,0.0888 0.461,0.0888 -0.30283,-0.66465 -0.30284,-0.66466 0.17033,-0.44386 0.17032,-0.44386 0.59104,0.39244 0.59104,0.39243 0.012,0.96774 0.012,0.96773 -0.3736,-0.14336 -0.3736,-0.14337 0.13941,0.5331 0.13941,0.5331 h -0.23982 -0.23981 v -0.3175 -0.3175 l -0.32852,0.32852 -0.32851,0.32852 0.39466,0.26116 0.39466,0.26116 -0.79375,-0.0737 -0.79375,-0.0737 0.0661,0.33072 0.0661,0.33073 h -0.41249 -0.41249 l 0.16353,-0.26458 0.16352,-0.26458 h -0.22728 -0.22729 v -0.66146 -0.66146 h 0.15875 0.15875 l 0.25357,0.25357 0.25357,0.25356 0.39466,-0.24951 0.39466,-0.24952 -0.46957,-0.004 -0.46957,-0.004 -0.30076,-0.7276 -0.30076,-0.72761 0.028,-0.15434 0.028,-0.15434 h -0.35732 -0.35733 l 0.10374,0.8158 0.10374,0.8158 -0.14764,0.46686 -0.14764,0.46686 -0.24985,-0.15441 -0.24985,-0.15442 0.15223,-0.2463 0.15222,-0.2463 h -0.2802 -0.2802 l -0.0307,0.7276 -0.0307,0.72761 -0.12705,-0.49445 -0.12705,-0.49444 -1.05254,0.14118 -1.05254,0.14117 0.146,-0.38046 0.14599,-0.38045 -0.50269,0.26903 -0.5027,0.26903 -0.54968,0.69881 -0.54969,0.69882 v -0.54595 -0.54595 l 0.39891,-0.39891 0.3989,-0.3989 -0.24401,-0.15081 -0.24402,-0.15081 -0.0887,0.23905 -0.0887,0.23905 -1.98437,-0.51273 -1.98438,-0.51272 -1.17471,-0.0738 -1.17471,-0.0738 -0.10411,-0.31233 -0.10411,-0.31233 h -0.65454 -0.65453 l -1.18278,-0.29783 -1.18277,-0.29782 0.14869,-0.4685 0.1487,-0.46851 -0.67353,0.0387 -0.67353,0.0387 -0.14885,0.46831 -0.14886,0.46831 0.39317,1.25148 0.39316,1.25149 0.43545,1.86458 0.43544,1.86458 3.2258,0.0704 3.22579,0.0704 z m 14.33136,-3.09347 -0.49838,-0.5507 0.0661,-0.10452 0.0661,-0.10451 -0.0202,-0.0661 -0.0202,-0.0661 -0.0851,-0.4392 -0.0851,-0.4392 0.50226,-0.13134 0.50226,-0.13135 0.0441,0.5044 0.0441,0.5044 0.022,0.46302 0.0221,0.46302 0.22668,0.16536 0.22669,0.16537 -0.25747,0.15912 -0.25747,0.15913 z m 1.13321,-0.14237 -0.17638,-0.17639 v -0.88194 -0.88195 h 0.28019 0.2802 l -0.14024,0.22692 -0.14024,0.22691 0.23845,0.83142 0.23845,0.83142 h -0.20202 -0.20202 z m -1.71097,-2.52236 -0.3175,-0.3175 v -0.87312 -0.87313 h 0.39688 0.39687 v 0.2802 0.2802 l -0.26458,-0.16352 -0.26458,-0.16353 v 0.57718 0.57718 l 0.33072,-0.26428 0.33073,-0.26428 0.52917,0.21329 0.52917,0.21328 -0.43825,0.0186 -0.43825,0.0186 0.13838,0.52916 0.13838,0.52917 h -0.37482 -0.37482 z m 11.85334,-10.01686 v -0.2802 l -0.30547,0.18879 -0.30546,0.18878 0.18879,-0.30546 0.18878,-0.30546 -0.34634,-0.0262 -0.34635,-0.0263 -0.73102,-0.0654 -0.73103,-0.0654 -0.19501,-0.20817 -0.19502,-0.20818 1.19063,0.1485 1.19062,0.14849 0.63111,0.143 0.63112,0.14299 0.12298,0.12299 0.12299,0.12299 -0.1744,0.28218 -0.1744,0.28218 h -0.38126 -0.38126 z m -53.710417,15.22915 0.32938,-0.39687 -0.33209,-0.40014 -0.33208,-0.40014 -0.3743,0.31064 -0.37429,0.31064 0.34325,0.21774 0.34325,0.21774 -0.4474,0.004 -0.44741,0.004 -0.16352,0.26458 -0.16352,0.26459 h 0.64468 0.64467 z m 20.736737,-6.82402 0.18284,0.18284 -0.0517,-5.14607 -0.0517,-5.14608 -0.25404,-0.33073 -0.25404,-0.33072 h 0.2781 0.2781 l -0.081,-1.2111 -0.081,-1.21109 -0.26717,-0.26717 -0.26717,-0.26717 -0.15691,0.2539 -0.15692,0.2539 -0.17108,4.20092 -0.17107,4.20093 -0.0549,1.7974 -0.0549,1.7974 0.22076,0.13644 0.22077,0.13644 -0.004,0.31512 -0.004,0.31511 -0.25648,-0.39687 -0.25648,-0.39688 -0.004,0.57327 -0.004,0.57326 0.33073,0.11881 0.33073,0.11882 0.28892,-0.22676 0.28893,-0.22676 z m 9.69034,-3.88672 -0.39687,-0.2516 -0.0362,-1.53028 -0.0362,-1.53029 -0.28889,-1.82442 -0.28889,-1.82443 -0.0718,-0.0514 -0.0718,-0.0514 -2.38125,-0.93183 -2.38125,-0.93182 -0.66146,-0.15737 -0.66146,-0.15737 -0.26179,-0.009 -0.2618,-0.009 -0.0286,0.32847 -0.0286,0.32847 -0.0403,1.44576 -0.0403,1.44575 -0.43072,-0.43072 -0.43072,-0.43072 0.2956,-0.84796 0.2956,-0.84796 -0.15814,-0.6301 -0.15815,-0.63009 h -0.36819 -0.36819 v 0.26458 0.26458 h 0.21735 0.21736 l -0.082,0.99219 -0.082,0.99219 -0.16838,1.24448 -0.16838,1.24448 0.16844,0.43896 0.16845,0.43897 0.33661,-0.27936 0.3366,-0.27936 0.41682,0.0612 0.41683,0.0612 0.50021,0.50021 0.50021,0.50021 -0.11348,0.15119 -0.11347,0.15119 0.51035,0.0918 0.51035,0.0918 0.18514,0.17275 0.18514,0.17276 h -1.93729 -1.93728 l 0.11452,0.29871 0.11452,0.29871 0.84388,0.16244 0.84387,0.16244 3.43958,0.76919 3.43959,0.76918 0.39687,0.0224 0.39688,0.0224 z m 1.5875,-1.72467 V 218.35 h -0.52916 -0.52917 v 0.14968 0.14969 l 0.27389,0.51177 0.27389,0.51177 h 0.25528 0.25527 z m -28.075837,-2.4474 -0.60234,-0.99218 -0.73713,-1.19063 -0.73713,-1.19062 -0.005,0.22997 -0.005,0.22997 0.96888,1.62211 0.96889,1.62211 0.25414,0.33073 0.25413,0.33073 h 0.12147 0.12148 z m 32.217727,0.50816 -0.43888,-0.48496 0.19902,-0.21938 0.19901,-0.21938 -0.29879,0.17058 -0.29879,0.17059 -0.12521,0.47881 -0.12521,0.47881 0.66387,0.0549 0.66387,0.0549 z m -56.793966,-0.42037 v -0.37524 l -0.1606,-0.41851 -0.160599,-0.41851 h -0.192059 -0.192059 l 0.06603,0.59531 0.06603,0.59531 0.02205,0.19843 0.02205,0.19844 h 0.264583 0.264584 z m 20.432569,-0.78809 0.47844,-0.55647 0.26943,-0.46302 0.26943,-0.46302 h -0.23248 -0.23247 l -1.14276,1.35524 -1.14276,1.35524 0.62737,-0.33575 0.62736,-0.33576 z m -10.32396,0.48376 -0.59246,-0.41497 0.16901,-0.27348 0.16902,-0.27348 0.89374,-0.37343 0.89375,-0.37343 v -0.22863 -0.22864 l -0.33073,-0.27222 -0.33073,-0.27221 -1.19063,-0.18019 -1.190621,-0.18018 -0.452077,-0.60745 -0.452077,-0.60744 0.811453,-0.16229 0.811453,-0.16229 -0.13744,-0.35816 -0.13744,-0.35817 0.753699,-0.0214 0.7537,-0.0214 0.57065,-0.3054 0.57066,-0.30541 -0.15362,-0.57265 -0.15361,-0.57266 -0.004,-0.80855 -0.004,-0.80854 -2.446739,-0.36253 -2.446738,-0.36252 -0.362885,-0.36289 -0.362885,-0.36288 0.173887,-0.17389 0.173888,-0.17389 0.849798,0.34587 0.849798,0.34586 2.873106,0.14038 2.8731,0.14038 -0.60571,-0.69663 -0.60572,-0.69663 -1.60593,-0.0348 -1.60593,-0.0348 1.32292,-0.22286 1.32291,-0.22286 1.25677,-0.15547 1.25677,-0.15547 v -0.24737 -0.24737 l -3.59863,0.16391 -3.598644,0.16391 0.294593,-0.55046 0.294592,-0.55045 0.457573,-0.25607 0.457572,-0.25607 -0.168449,-0.16845 -0.168448,-0.16844 -0.963063,0.84558 -0.963063,0.84558 -0.714768,1.48583 -0.714768,1.48584 -0.268183,0.19438 -0.268183,0.19439 0.251354,0.004 0.251354,0.004 -0.272612,0.27261 -0.272611,0.27261 0.211742,1.54829 0.211742,1.5483 0.557674,1.49051 0.557673,1.49052 0.64134,0.76219 0.641339,0.76218 1.124044,0.5564 1.124044,0.55639 0.654186,2.1e-4 0.65418,2.1e-4 z m -1.976314,-0.98653 -0.116845,-0.31828 0.106002,-0.30264 0.106003,-0.30264 0.516481,0.13506 0.51648,0.13506 v 0.17008 0.17008 l -0.505637,0.31578 -0.505638,0.31577 z m 0.202079,-9.30456 -0.79375,-0.36345 0.529167,-0.0121 0.529167,-0.0121 0.661458,0.37813 0.661453,0.37812 -0.39687,-0.003 -0.396875,-0.003 z m 17.740545,9.71388 -0.17772,-0.99218 -0.28756,-0.82065 -0.28756,-0.82064 0.43698,-0.87595 0.43698,-0.87595 -0.0988,-0.0988 -0.0988,-0.0988 -0.43151,0.90934 -0.43151,0.90934 v 0.44846 0.44846 l 0.41565,1.42978 0.41565,1.42979 h 0.14296 0.14297 z m 32.397997,0.747 v -0.24518 l 0.46302,-0.11074 0.46302,-0.11074 -0.48973,-0.2118 -0.48972,-0.21179 -0.2083,0.33704 -0.2083,0.33703 -0.29416,-0.1818 -0.29417,-0.18181 v 0.41249 0.41249 h 0.52917 0.52917 z m -59.588438,-0.84031 0.02334,-0.82093 0.133283,-0.13328 0.133283,-0.13328 -0.510441,-0.5479 -0.51044,-0.54789 -0.143383,0.14338 -0.143383,0.14339 -0.112873,0.5861 -0.112873,0.5861 -0.160491,0.50566 -0.160491,0.50567 0.164985,0.26695 0.164984,0.26694 h 0.60558 0.605579 z m 53.955088,-0.13444 0.0966,-0.29389 -0.71217,-0.46664 -0.71218,-0.46663 0.16168,0.42133 0.16168,0.42133 -0.25734,0.15904 -0.25735,0.15905 0.16158,0.26143 0.16157,0.26143 0.54962,-0.0813 0.54962,-0.0813 z m -36.284537,-0.49489 0.60842,-0.65649 -0.2358,-0.14573 -0.23579,-0.14573 0.14904,-0.3884 0.14905,-0.3884 h -0.28358 -0.28359 l -0.29562,0.55237 -0.29562,0.55238 -0.11574,0.63825 -0.11573,0.63825 h 0.17327 0.17327 z m 38.213717,-1.84807 v -0.12331 l -0.44588,-0.93502 -0.44588,-0.93502 h -0.61245 -0.61246 v 0.61346 0.61345 l 0.8599,0.42796 0.85989,0.42796 0.19844,0.0169 0.19844,0.0169 z m -31.593677,-2.98739 0.17803,-1.18717 -0.32978,-1.4736 -0.32978,-1.4736 -0.74308,-0.74309 -0.74309,-0.74308 -1.674,0.0396 -1.674,0.0396 0.7484,0.11223 0.7484,0.11223 -0.14868,0.38745 -0.14868,0.38745 0.59091,0.26189 0.5909,0.26189 -0.62992,-0.12404 -0.62993,-0.12403 -0.40701,0.407 -0.40701,0.40701 1.70665,-0.18276 1.70666,-0.18277 0.38861,0.72687 0.38862,0.72687 -0.052,2.27432 -0.052,2.27431 0.37185,-0.49874 0.37184,-0.49875 z m 27.420307,0.18794 0.45684,-0.80275 -0.32455,-0.10095 -0.32455,-0.10095 -3.0427,-0.43459 -3.04271,-0.4346 -0.46302,-0.13306 -0.46302,-0.13307 v 0.26059 0.2606 l 2.44739,0.82806 2.4474,0.82807 0.79375,0.36289 0.79375,0.36288 0.13229,0.0198 0.13229,0.0198 z m -32.367087,-0.35083 0.30141,-0.36318 -0.29374,-1.36965 -0.29374,-1.36966 -0.60093,-0.64841 -0.60093,-0.64842 h -0.30039 -0.30039 v 0.39688 0.39687 h -0.44744 -0.44745 l 0.51359,0.37798 0.51359,0.37798 -0.46302,0.1795 -0.46302,0.17949 v 1.25051 1.25051 l 0.17639,0.17639 0.17639,0.17639 h 1.11413 1.11413 z m 54.163377,-0.0558 -0.16078,-0.41898 0.33091,0.12003 0.33091,0.12003 0.84449,-0.34257 0.84449,-0.34257 0.0974,0.29225 0.0974,0.29225 0.46488,-0.17839 0.46487,-0.17839 -0.0839,-0.72717 -0.0839,-0.72718 -1.31261,-0.18642 -1.31261,-0.18643 -0.34887,0.28954 -0.34887,0.28953 -0.66608,-0.30348 -0.66607,-0.30348 h -0.25213 -0.25214 v 0.38775 0.38775 l -0.76262,0.78016 -0.76262,0.78015 0.49804,0.13024 0.49804,0.13024 v -0.27221 -0.27221 l 0.39535,0.32812 0.39536,0.32811 0.66929,-0.12794 0.66929,-0.12794 0.1416,0.2291 0.14159,0.2291 h 0.14498 0.14499 z m -1.2849,-0.3161 -0.46302,-0.0975 v -0.26079 -0.2608 l 0.26458,0.16352 0.26459,0.16352 v -0.25125 -0.25125 l 0.92604,-0.10811 0.92604,-0.10811 v 0.21145 0.21146 l -0.26458,0.0331 -0.26459,0.0331 -0.27423,0.0331 -0.27424,0.0331 -0.18878,0.27651 -0.18879,0.2765 z m -3.39723,-0.63229 -0.28981,-0.54152 -0.28178,0.28178 -0.28177,0.28177 0.33626,0.40518 0.33627,0.40517 0.23532,-0.14543 0.23532,-0.14544 z m -31.19704,0.0445 v -0.26459 h -0.26458 -0.26459 v -0.39687 -0.39688 h -0.23372 -0.23373 l -0.13437,0.51385 -0.13437,0.51385 0.14761,0.14761 0.14761,0.14761 h 0.48507 0.48507 z m 25.12775,0.0103 0.38922,-0.24615 -0.17084,-0.17083 -0.17084,-0.17084 -0.5491,0.17428 -0.54911,0.17428 v 0.24675 0.24676 l 0.33073,-0.004 0.33073,-0.004 z m 4.34229,-0.15726 0.15791,-0.4115 -0.91485,-0.38225 -0.91485,-0.38224 h -0.41368 -0.41368 l -0.16254,-0.42358 -0.16254,-0.42358 0.33081,-0.20445 0.33081,-0.20446 0.83222,0.29731 0.83222,0.2973 0.1323,0.13229 0.13229,0.13229 0.39687,0.0875 0.39688,0.0875 0.21158,0.37551 0.21159,0.37551 h 0.25143 0.25144 v -0.25256 -0.25256 l -0.67349,-0.67348 -0.67348,-0.67349 -0.98016,-0.0419 -0.98016,-0.0419 -0.48645,0.0429 -0.48646,0.0429 0.17898,-1.05936 0.17898,-1.05937 -0.35398,-0.005 -0.35399,-0.005 -1.71707,-0.24813 -1.71708,-0.24813 -0.60646,0.39736 -0.60646,0.39737 0.13781,0.22298 0.13781,0.22298 -0.39105,0.32455 -0.39105,0.32454 0.11192,0.18109 0.11192,0.18109 -0.20293,0.32835 -0.20293,0.32835 -0.74235,-0.28224 -0.74234,-0.28224 -0.11554,0.11554 -0.11554,0.11553 0.54911,0.17428 0.54911,0.17428 v 0.22087 0.22087 l 0.7964,0.27763 0.79641,0.27763 1.65099,0.18211 1.65099,0.18211 0.61123,0.22711 0.61123,0.2271 -0.15323,0.24794 -0.15324,0.24795 0.86492,0.10708 0.86492,0.10709 0.6993,0.0423 0.69929,0.0423 z m 2.71466,-0.24678 -0.15107,-0.3937 0.30549,0.063 0.30549,0.063 0.10126,-0.46302 0.10126,-0.46302 h -0.665 -0.66501 l 0.0863,0.7276 0.0863,0.72761 0.0302,0.0661 0.0302,0.0662 h 0.29289 0.29289 z m -30.2076,-0.83589 0.52189,-0.35791 h -0.81955 -0.81954 l -0.89297,-0.17691 -0.89297,-0.17692 0.35007,0.42577 0.35008,0.42577 0.37753,-0.14487 0.37753,-0.14487 v 0.24879 0.2488 l 0.46302,0.005 0.46302,0.005 z m -5.18702,-1.12842 0.30189,-0.9028 -0.11799,-0.11798 -0.11798,-0.11799 -0.41238,0.98695 -0.41237,0.98696 v 0.28518 0.28519 l 0.22847,-0.25135 0.22848,-0.25136 z m 18.51544,0.15763 0.28906,-0.3483 -0.26152,-0.94715 -0.26152,-0.94715 -0.59046,-0.14187 -0.59046,-0.14187 -3.63802,-0.46389 -3.63802,-0.46389 v -0.39184 -0.39185 l -0.15658,0.15658 -0.15658,0.15658 0.34454,0.9528 0.34453,0.95279 0.37864,-0.14529 0.37863,-0.1453 -0.33971,0.40933 -0.33971,0.40932 0.17,0.17 0.16999,0.16999 v -0.28391 -0.28391 l 0.57054,0.1492 0.57054,0.1492 -0.18928,-0.30626 -0.18928,-0.30626 h 0.22728 0.22729 l 0.3175,0.3175 0.3175,0.3175 v -0.29273 -0.29273 l 0.54413,0.14229 0.54413,0.1423 -0.14791,0.42824 -0.1479,0.42825 0.384,-0.49509 0.384,-0.4951 0.67498,0.16941 0.67498,0.16941 0.0186,-0.33577 0.0186,-0.33577 0.22739,0.52916 0.22739,0.52917 0.0186,-0.32418 0.0186,-0.32418 0.66146,0.25149 0.66146,0.25148 v -0.15814 -0.15814 l 0.35507,0.29469 0.35508,0.29468 0.1414,-0.14141 0.14141,-0.1414 0.17896,0.46636 0.17896,0.46637 -0.18807,-0.18808 -0.18808,-0.18807 -0.3517,0.29188 -0.35171,0.29189 -0.39177,-0.15033 -0.39177,-0.15034 -0.14525,0.23502 -0.14525,0.23502 0.73209,0.11066 0.73209,0.11065 0.16604,0.0396 0.16604,0.0396 z m -10.21104,-1.38528 0.12908,-0.67525 -0.13333,-1.18291 -0.13334,-1.18291 -0.21621,-0.13363 -0.21621,-0.13363 -0.24122,0.47044 -0.24122,0.47043 -0.008,1.32291 -0.008,1.32292 0.11969,0.19844 0.1197,0.19844 h 0.35041 0.35042 z m 12.89719,0.42585 v -0.24939 l 0.54111,0.10421 0.54112,0.10421 0.38493,-0.14771 0.38492,-0.14771 v -0.20545 -0.20545 l -1.7406,-0.1864 -1.7406,-0.18641 -0.0806,0.0894 -0.0806,0.0894 0.22521,0.59532 0.22522,0.59531 h 0.66999 0.66998 z m 19.7266,-1.00472 -1.04319,-0.10683 0.38173,-0.24152 0.38173,-0.24151 -0.46302,-0.004 -0.46302,-0.004 v 0.22048 0.22049 l 0.17639,0.17639 0.17639,0.17639 0.94809,-0.0445 0.94809,-0.0445 z m -40.53301,-0.73026 -0.15229,-0.39687 h 0.95435 0.95435 v -0.26459 -0.26458 l -0.72761,-0.0119 -0.7276,-0.0119 0.79375,-0.36345 0.79375,-0.36346 -0.39688,-0.0295 -0.39687,-0.0295 0.46302,-0.26968 0.46302,-0.26969 v -0.38372 -0.38373 h -0.39688 -0.39687 v -0.23373 -0.23372 l 0.52917,-0.13838 0.52916,-0.13838 v -0.26149 -0.26149 l -0.99218,0.23041 -0.99219,0.23041 -0.99219,0.006 -0.99219,0.006 v 0.3721 0.3721 l -0.51738,-0.13529 -0.51738,-0.1353 0.31894,0.68717 0.31895,0.68717 0.33073,0.002 0.33073,0.002 v 0.39687 0.39688 h 0.41249 0.41249 l -0.14494,0.23452 -0.14494,0.23451 -1.20162,-0.0899 -1.20161,-0.0899 0.15593,0.2523 0.15593,0.25229 h 1.04271 1.04272 v 0.39688 0.39687 h 0.52087 0.52086 z m 33.3301,-0.7276 0.14999,-0.59532 -0.31891,0.42497 -0.31891,0.42496 -1.04969,-0.10768 -1.04969,-0.10769 -0.16892,-0.27332 -0.16892,-0.27331 -0.15479,0.40336 -0.15478,0.40337 0.84556,0.10564 0.84557,0.10564 0.69675,0.0423 0.69674,0.0423 z m 8.55478,-0.60134 v -0.4029 l -0.55122,-0.11236 -0.55121,-0.11235 -1.54827,-0.1686 -1.54826,-0.16861 -0.5684,-0.0955 -0.56841,-0.0955 -7.8052,-0.91106 -7.80521,-0.91105 -1.19063,0.0309 -1.19062,0.031 -0.41653,-0.1665 -0.41653,-0.16649 -0.34064,-2.28963 -0.34064,-2.28964 -0.13666,0.13666 -0.13665,0.13665 0.32987,2.12046 0.32986,2.12046 0.36552,0.30336 0.36552,0.30335 v 0.39534 0.39534 l 0.51208,-0.13392 0.51208,-0.13391 0.13301,0.34663 0.13302,0.34663 0.34709,-0.0526 0.3471,-0.0526 0.33073,-0.20662 0.33073,-0.20661 v 0.30851 0.3085 l 0.44186,-0.16956 0.44187,-0.16956 0.18114,0.2931 0.18115,0.29309 0.38753,-0.38754 0.38754,-0.38754 0.44676,0.25002 0.44675,0.25002 0.26249,-0.16223 0.26249,-0.16222 v 0.25536 0.25537 l 1.31428,-0.0682 1.31428,-0.0682 -0.17445,0.29149 -0.17444,0.29148 0.43608,-0.3535 0.43607,-0.35351 0.34232,0.21422 0.34232,0.21423 0.26458,0.0328 0.26458,0.0328 0.47864,0.0403 0.47864,0.0403 -0.16353,0.26458 -0.16352,0.26458 h 0.25189 0.25189 l 0.13125,-0.34201 0.13124,-0.34202 1.683,0.0927 1.683,0.0927 1.7198,0.0801 1.71979,0.0801 v 0.0643 0.0643 l 1.19062,0.0692 1.19063,0.0692 0.47863,0.0357 0.47864,0.0357 -0.13393,0.21671 -0.13394,0.21671 0.74845,-0.10985 0.74844,-0.10984 0.17924,0.29001 0.17924,0.29001 h 0.0726 0.0726 z m -58.293797,-1.1762 0.15927,-0.79636 -0.1534,-0.39977 -0.15341,-0.39977 h -0.33738 -0.33737 l -0.0153,1.10929 -0.0153,1.1093 0.13469,0.21794 0.13469,0.21793 0.21213,-0.1311 0.21213,-0.1311 z m 38.538237,0.85383 -0.39687,-0.15433 -0.3257,-0.4201 -0.3257,-0.42009 -0.26962,0.39687 -0.26961,0.39688 -0.19843,-0.26459 -0.19844,-0.26458 -1.19063,0.14218 -1.19062,0.14219 1.98437,0.28536 1.98438,0.28537 0.39687,0.0146 0.39688,0.0146 z m -9.03686,-1.61543 1.5549,-0.75321 0.252,0.68706 0.25199,0.68706 0.19618,-1.24526 0.19618,-1.24525 -0.38707,-0.73874 -0.38706,-0.73875 -0.26736,0.66108 -0.26735,0.66108 -0.13084,0.4248 -0.13085,0.4248 -1.47818,0.83424 -1.47818,0.83423 v 0.13003 0.13003 h 0.26037 0.26037 z m -5.37122,-1.6082 0.0858,-1.86221 -0.24719,-0.15277 -0.24718,-0.15277 -0.0294,1.47083 -0.0294,1.47082 v 0.52917 0.52916 l 0.0294,0.17639 0.0294,0.17639 0.1614,-0.1614 0.1614,-0.1614 z m -24.719017,0.2135 0.5604,-0.56039 -0.3349,-0.20698 -0.3349,-0.20698 -0.0271,-0.73219 -0.0271,-0.73219 -0.29589,-0.0984 -0.2959,-0.0984 -0.27294,1.0753 -0.27294,1.07529 0.13668,0.52264 0.13667,0.52264 h 0.23372 0.23373 z m 28.411477,-0.23335 -0.16352,-0.26458 h 0.28019 0.2802 v 0.28019 0.2802 l 0.33073,-0.20745 0.33073,-0.20745 0.52917,0.0824 0.52916,0.0824 -0.26458,-0.25316 -0.26458,-0.25316 -1.25677,-0.16153 -1.25677,-0.16152 v 0.1642 0.16421 l 0.46302,0.35148 0.46302,0.35149 0.0818,0.008 0.0818,0.008 z M 84.831383,197.7881 v -0.71815 l -0.42818,0.42818 -0.42818,0.42818 0.17921,0.28998 0.17921,0.28997 h 0.24897 0.24897 z m 50.335587,0.0567 -0.12645,-0.66145 h 0.29543 0.29543 l -0.0661,-0.33073 -0.0661,-0.33073 0.44307,0.0732 0.44307,0.0732 0.17851,-0.28884 0.17851,-0.28883 0.5029,0.45511 0.5029,0.45512 0.004,-0.37174 0.004,-0.37173 0.23095,0.36462 0.23095,0.36463 0.33378,-0.20629 0.33379,-0.20629 0.88642,-0.0795 0.88642,-0.0795 0.004,0.31808 0.004,0.31808 0.25648,-0.39688 0.25648,-0.39687 0.004,0.33073 0.004,0.33073 h 0.50712 0.50712 l 0.1342,-0.33073 0.13419,-0.33073 0.28473,0.39687 0.28473,0.39688 0.24441,-0.37986 0.24442,-0.37986 0.41704,0.34611 0.41704,0.34611 v -0.174 -0.17399 l 0.52917,0.2832 0.52917,0.2832 v -0.40618 -0.40619 h -0.20538 -0.20538 l -2.10973,-0.25771 -2.10972,-0.25771 -6.48229,-0.65692 -6.4823,-0.65693 -2.38125,-0.15983 -2.38125,-0.15984 -0.44755,-0.12907 -0.44755,-0.12908 0.0359,0.47611 0.0359,0.47612 0.67627,0.0426 0.67627,0.0426 0.35936,-0.29739 0.35936,-0.29738 0.33127,0.45304 0.33127,0.45303 0.3677,-0.004 0.36771,-0.004 -0.39688,-0.25648 -0.39687,-0.25648 0.26458,0.004 0.26459,0.004 0.4589,0.34848 0.45891,0.34847 -0.13958,0.13959 -0.13959,0.13958 1.40047,0.0208 1.40047,0.0209 1.05833,0.24599 1.05834,0.246 -0.39688,0.049 -0.39687,0.049 0.52916,0.21274 0.52917,0.21275 0.49495,-0.25774 0.49495,-0.25774 -0.17533,0.28368 -0.17532,0.28368 1.20173,-0.1216 1.20173,-0.1216 v 0.27681 0.2768 l 0.26458,-0.16352 0.26458,-0.16352 v 0.70947 0.70947 l -0.36334,-0.30154 -0.36333,-0.30155 -0.40651,0.15599 -0.40651,0.15599 -0.17569,-0.55354 -0.17568,-0.55354 -0.50088,0.60055 -0.50087,0.60055 -0.009,-0.46302 -0.009,-0.46302 h -0.39687 -0.39688 l -0.004,0.46302 -0.004,0.46302 -0.22746,-0.35897 -0.22746,-0.35898 -0.16384,0.26511 -0.16385,0.2651 0.32921,0.1118 0.32921,0.11179 1.19063,0.0722 1.19062,0.0722 0.11025,0.10828 0.11024,0.10827 h 0.84525 0.84526 z m -54.425477,-0.15032 0.17467,-0.28263 0.36607,0.14048 0.36608,0.14048 0.24077,-0.45317 0.24077,-0.45317 -0.40183,-1.00348 -0.40183,-1.00348 -1.21876,0.18277 -1.218769,0.18276 -0.58501,0.15926 -0.585009,0.15925 0.913107,1.25678 0.913101,1.25677 h 0.51099 0.51098 z m 8.59852,-1.09006 0.78304,-0.57892 v -0.6117 -0.6117 l -0.33073,-0.0282 -0.33073,-0.0282 -1.30069,0.0243 -1.30068,0.0243 -0.48525,0.15401 -0.48526,0.15401 v 0.322 0.322 l 0.81006,0.47851 0.81005,0.47851 0.69136,-0.17352 0.69136,-0.17351 -0.34319,0.41351 -0.34318,0.41351 h 0.1754 0.1754 z m -15.488838,-1.27058 3.439583,-0.76813 1.058334,-0.12699 1.058331,-0.12698 1.98438,-0.28988 1.98437,-0.28989 0.44189,-0.13751 0.44188,-0.13752 0.5835,-0.11237 0.5835,-0.11238 2.14962,-0.1483 2.14961,-0.14831 0.79227,-0.57768 0.79227,-0.57768 1.19211,-0.17118 1.1921,-0.17118 0.52917,-0.20753 0.52916,-0.20753 -0.39687,0.41889 -0.39688,0.4189 -1.63768,0.80874 -1.63769,0.80874 -0.17475,0.28274 -0.17474,0.28274 0.16599,0.16599 0.16599,0.166 1.04028,-0.0614 1.04028,-0.0614 1.16335,-0.51461 1.16335,-0.5146 0.7194,-1.0871 0.71941,-1.08709 0.11987,0.11987 0.11987,0.11988 -0.26543,0.69815 -0.26544,0.69815 0.0596,0.0124 0.0596,0.0124 1.38906,0.0587 1.38907,0.0587 v -0.71099 -0.71099 l 0.14965,-0.39 0.14966,-0.38999 -1.18415,-0.45224 -1.18415,-0.45223 -0.15252,-0.56847 -0.15252,-0.56847 -0.004,-0.34856 -0.004,-0.34856 0.56872,0.18051 0.56871,0.1805 -0.16077,-0.9907 -0.16076,-0.9907 0.64292,-1.52753 0.64293,-1.52753 -0.39315,-0.78808 -0.39315,-0.78808 0.15649,-0.40778 0.15648,-0.40778 0.41384,-0.15881 0.41384,-0.1588 -0.35114,0.42309 -0.35114,0.4231 0.37986,0.24037 0.37986,0.24036 0.19844,0.004 0.19844,0.004 v -0.51986 -0.51985 l 0.546077,-0.29226 0.54608,-0.29225 0.37855,0.31417 0.37855,0.31417 0.46443,-0.12145 0.46443,-0.12145 v 0.66734 0.66734 l -0.85989,0.50735 -0.8599,0.50735 v 1.06305 1.06304 l 0.60877,-0.11637 0.60877,-0.11638 -0.10963,0.74699 -0.10964,0.74699 h 0.20103 0.20103 l 1.27288,-1.19063 1.27287,-1.19062 0.20977,0.006 0.20978,0.006 0.39687,0.85417 0.39688,0.85417 0.50111,0.0929 0.50111,0.0929 -0.17639,-1.1031 -0.17639,-1.1031 -0.0601,-0.30642 -0.0601,-0.30642 0.59531,-0.0908 0.59531,-0.0908 v -0.11388 -0.11389 l -0.52917,-0.52917 -0.52916,-0.52917 h -0.14499 -0.14498 l -0.63356,-0.7276 -0.63356,-0.72761 -0.31444,-1.32291 -0.31444,-1.32292 -0.28611,-0.35938 -0.28611,-0.35938 -1.79591,0.17696 -1.7959,0.17697 v -0.4129 -0.41289 h -0.282417 -0.28241 l 0.15753,0.49633 0.15753,0.49633 -2.32251,0.56235 -2.32251,0.56235 -0.87729,-3.5e-4 -0.87729,-3.5e-4 -0.5018,0.26855 -0.50179,0.26855 -0.80373,1.16819 -0.80373,1.16818 0.009,0.21691 0.009,0.21691 0.45662,-0.5459 0.45662,-0.54591 1.78354,-0.98006 1.78353,-0.98007 v 0.32604 0.32604 l -0.5374,0.53848 -0.5374,0.53847 -0.6529,0.79375 -0.6529,0.79375 -3.2e-4,0.21405 -3.3e-4,0.21405 -0.28228,-0.17446 -0.28228,-0.17445 0.0838,0.39513 0.0838,0.39513 -0.74123,0.68975 -0.74124,0.68976 -0.44939,-0.004 -0.44939,-0.004 0.39688,-0.25648 0.39687,-0.25649 -0.27185,-0.004 -0.27186,-0.004 -0.60581,0.42433 -0.60581,0.42433 0.14176,0.36942 0.14176,0.36942 h -0.24383 -0.24383 l -0.67391,-0.30705 -0.67391,-0.30705 v -0.51501 -0.515 l -0.46302,0.19062 -0.46302,0.19061 -0.43425,0.12561 -0.43426,0.12561 -0.80019,-1.16303 -0.80018,-1.16303 -0.41921,-0.34791 -0.4192,-0.34791 v -0.88284 -0.88283 l 0.3011,-2.02449 0.30111,-2.02449 2.60931,0.1048 2.60931,0.10481 v -1.39827 -1.39841 h -0.92604 -0.92604 v 0.26458 0.26459 h 0.2802 0.28019 l -0.16921,0.2738 -0.16922,0.2738 -1.55024,-0.12282 -1.55023,-0.12283 -0.11588,0.44434 -0.11588,0.44433 0.10696,-1.32291 0.10695,-1.32292 0.2976,-1.37985 0.29759,-1.37985 -0.35229,-0.42448 -0.35228,-0.42449 -0.46442,0.12145 -0.46442,0.12145 -0.14107,-0.36764 -0.14108,-0.36763 h 0.21765 0.21764 l 0.70009,-0.64883 0.7001,-0.64882 v -0.28653 -0.28652 l -0.58985,0.31568 -0.58986,0.31567 -0.28087,0.28895 -0.28087,0.28894 -0.45219,0.65418 -0.4522,0.65419 v 0.1974 0.19741 l 0.46303,-0.14396 0.46302,-0.14397 -0.39688,0.25064 -0.39687,0.25063 -0.97156,0.17434 -0.97155,0.17433 -0.1286,-0.20807 -0.1286,-0.20807 0.40709,-1.58599 0.40708,-1.58598 -0.43141,-1.63092 -0.43141,-1.63093 v -0.54364 -0.54291 l -0.46302,-1.00116 -0.46302,-1.00117 -0.13338,-0.13229 -0.133369,-0.13229 -1.559972,-1.98438 -1.559972,-1.98437 -1.068279,-1.11893 -1.068278,-1.11893 0.180861,-0.18087 0.180861,-0.18086 0.923357,0.65698 0.923357,0.65698 2.286823,3.01476 2.286821,3.01475 1.59711,1.78384 1.59712,1.78385 0.22086,-0.13651 0.22087,-0.1365 v -0.23007 -0.23007 l -0.39008,-0.39007 -0.39007,-0.39008 0.40924,-0.15704 0.40924,-0.15704 0.51,0.27294 0.51,0.27295 v 0.37281 0.37281 l 0.64305,0.74236 0.64306,0.74236 0.2422,-0.26459 0.24219,-0.26458 0.46257,-1.5875 0.46256,-1.5875 0.32044,-1.32292 0.32045,-1.32291 -0.14758,-0.79375 -0.14758,-0.79375 -0.59827,-0.26275 -0.59827,-0.26274 0.12476,-0.32511 0.12476,-0.32512 -0.27006,-0.7747 -0.27006,-0.7747 -0.55604,-0.1454 -0.55603,-0.14541 0.32471,-0.39126 0.32472,-0.39126 -0.42029,-0.81276 -0.42029,-0.81275 h -0.39008 -0.39009 v 0.28988 0.28989 l -0.52134,0.73217 -0.52135,0.73216 0.18295,0.18296 0.18296,0.18296 -0.38921,0.24615 -0.38921,0.24614 -0.19844,0.004 -0.19844,0.004 v -0.35629 -0.35628 l -0.96467,-0.99329 -0.96467,-0.99329 0.36936,-0.23387 0.36936,-0.23388 -0.67469,-0.004 -0.67469,-0.004 -0.3175,0.3175 -0.3175,0.3175 -0.32852,-0.32851 -0.328513,-0.32852 0.352743,-0.21801 0.35274,-0.218 -1.917203,-0.28456 -1.917206,-0.28455 -0.191376,-0.30966 -0.191377,-0.30965 -2.08283,0.13406 -2.082831,0.13406 -0.876615,0.17853 -0.876614,0.17852 -0.404307,-0.33554 -0.404308,-0.33555 0.130471,0.82785 0.130471,0.82785 -0.370903,0.14233 -0.370903,0.14233 v 0.30119 0.3012 l 0.388402,-0.14904 0.388401,-0.14905 0.145081,0.23475 0.145081,0.23474 -0.205044,0.12673 -0.205044,0.12672 -1.115038,-0.2039 -1.115039,-0.2039 0.140756,0.22775 0.140757,0.22775 h -0.280198 -0.280198 v 0.23519 0.23518 l 0.330729,-0.0123 0.330729,-0.0123 0.610927,0.0417 0.610928,0.0417 -0.17467,0.28262 -0.174669,0.28262 -0.389279,-0.14938 -0.389279,-0.14938 -0.51,0.27295 -0.51,0.27294 v 0.38757 0.38756 h -0.229424 -0.229423 l -0.678482,1.02526 -0.67849,1.02526 h -0.65738 -0.65738 l -0.13491,-0.51589 -0.13491,-0.51589 -0.49308,0.2639 -0.49309,0.26389 -0.36497,0.68194 -0.36496,0.68195 h -0.3306 -0.3306 l -1.06134,0.95278 -1.06133,0.95278 0.14203,0.37013 0.14204,0.37014 h -0.13896 -0.13896 l -0.41663,-0.15988 -0.41664,-0.15987 0.12609,-0.56773 0.12609,-0.56773 0.4012,-3.99256 0.40119,-3.99257 v -0.5715 -0.5715 h -0.20284 -0.20284 l -0.4755,4.82349 -0.4755,4.82348 -0.0955,0.0955 -0.0955,0.0955 -0.5491,-0.17428 -0.54911,-0.17428 -0.004,-0.70977 -0.004,-0.70978 -0.27363,0.39688 -0.27363,0.39687 0.17685,-2.57969 0.17685,-2.57968 h -0.29604 -0.29605 l 0.0313,-0.8599 0.0313,-0.85989 0.20197,0.79375 0.20198,0.79375 0.0127,-1.7198 0.0127,-1.71979 -0.22739,0.52917 -0.22739,0.52917 -0.0186,-0.59532 -0.0186,-0.59531 h -0.37211 -0.3721 l 0.0951,0.46302 0.0951,0.46302 0.11637,4.20862 0.11637,4.20861 -1.43459,1.69107 -1.43458,1.69108 0.16818,0.27212 0.16818,0.27212 -2.47553,-0.17753 -2.47552,-0.17753 -0.0445,-0.0416 -0.0445,-0.0416 -0.30121,-2.19993 -0.30121,-2.19992 -0.2328,-0.57776 -0.23279,-0.57777 -0.0168,0.70433 -0.0168,0.70433 0.39683,2.07379 0.39683,2.0738 4e-5,0.19844 5e-5,0.19844 h -0.79375 -0.79375 v 15.06221 15.06221 l 1.52135,0.16751 1.52135,0.16751 1.32292,0.29669 1.32292,0.29669 0.24152,0.20647 0.24152,0.20646 -0.77069,0.30376 -0.77069,0.30376 1.45521,0.46326 1.45521,0.46326 1.85208,0.30577 1.85209,0.30578 1.05833,0.0615 1.05833,0.0615 5.82084,-0.0777 5.820831,-0.0777 z m 6.746878,-10.35629 -1.455211,-0.23769 -1.677534,-0.55466 -1.677534,-0.55465 0.16382,-1.8887 0.16382,-1.88871 0.15459,-1.55547 0.15459,-1.55548 -0.265132,0.16386 -0.265131,0.16386 -0.190919,3.17755 -0.19092,3.17755 h -0.249624 -0.249624 l -3.888326,-1.04245 -3.888326,-1.04246 -0.95567,-0.3466 -0.955671,-0.34661 0.672842,-2.05185 0.672842,-2.05185 -0.426558,-1.38773 -0.426556,-1.38774 -0.0498,-1.5875 -0.0498,-1.5875 0.0484,-0.52916 0.0484,-0.52917 0.248211,0.61942 0.248206,0.61943 0.168625,1.89412 0.168625,1.89411 0.366942,0.72761 0.366943,0.7276 h 0.632615 0.632615 l 0.133452,-0.33073 0.133452,-0.33073 0.02089,0.47864 0.02089,0.47863 0.234604,-0.14499 0.234604,-0.14499 0.306533,0.36935 0.306533,0.36935 0.583342,-0.0913 0.583342,-0.0913 0.926042,-0.14191 0.926041,-0.1419 0.495258,-0.60213 0.495257,-0.60213 -1.156716,-0.13583 -1.156715,-0.13583 0.913104,-0.49379 0.913104,-0.49379 0.362566,-0.36257 0.362565,-0.36256 h 0.230069 0.23007 l 0.151831,0.24566 0.15183,0.24567 -0.599236,0.0851 -0.599237,0.0851 v 0.39594 0.39594 l 0.991645,-0.0854 0.991645,-0.0854 -0.16135,0.42047 -0.161349,0.42047 0.326581,0.3935 0.32658,0.39351 h 0.255443 0.255443 l -0.185463,-1.12448 -0.185463,-1.12448 -0.232373,-0.28893 -0.232373,-0.28892 0.174094,-0.1741 0.174093,-0.17409 h 0.60395 0.603951 l 0.80412,0.8599 0.80412,0.85989 0.466061,-0.28622 0.46606,-0.28623 0.26118,-0.57367 0.26118,-0.57367 h 0.20184 0.20184 v -0.31368 -0.31367 l -0.57528,-0.61237 -0.57529,-0.61236 h 0.45502 0.45502 l 0.64943,0.64943 0.64944,0.64943 v 0.69106 0.69106 l 0.70642,-0.0837 0.70641,-0.0837 0.48428,-1.32292 0.48428,-1.32292 -0.15607,1.32292 -0.15607,1.32292 -0.2456,0.0898 -0.2456,0.0898 -0.39215,0.39215 -0.39215,0.39215 v 0.51027 0.51026 h 0.55785 0.55785 l -0.14809,0.59532 -0.14809,0.59531 -0.18248,1.79337 -0.18248,1.79338 -0.20609,0.12737 -0.2061,0.12738 -0.56361,-0.73013 -0.56361,-0.73012 -1.63502,-1.66976 -1.635018,-1.66976 -0.09743,0.2923 -0.09743,0.29229 2.398908,2.59974 2.39891,2.59974 -0.2548,1.55585 -0.25479,1.55585 -0.002,0.21405 -10e-4,0.21405 0.26458,-0.16352 0.26458,-0.16352 0.004,-0.71199 0.004,-0.71199 0.15954,-0.59531 0.15954,-0.59531 0.16758,0.002 0.16758,0.002 0.57657,0.85808 0.57657,0.85809 -0.14439,0.72761 -0.1444,0.7276 -1.22593,-0.0309 -1.22592,-0.0309 z m -0.7676,-2.14521 -0.2581,-0.67884 -0.24268,-0.14999 -0.242681,-0.14998 0.115531,0.71959 0.11553,0.7196 0.1195,0.37497 0.11951,0.37498 0.26574,-0.26575 0.26574,-0.26574 z m 0.55439,-2.35632 -0.24261,-0.88746 -0.18652,0.92879 -0.18652,0.92879 0.33604,0.791 0.33604,0.791 0.0931,-0.83233 0.0931,-0.83233 z m -7.732707,0.2214 -0.0084,-0.5797 -0.351483,-0.46302 -0.351483,-0.46302 h -0.197576 -0.197577 l 0.186163,0.46302 0.186163,0.46302 0.08648,0.39688 0.08648,0.39687 0.02024,0.34635 0.02024,0.34634 0.264583,-0.16352 0.264583,-0.16352 z m 0.69818,-0.60134 -0.160599,-0.41851 v -0.63982 -0.63982 H 72.925134 72.66055 v 0.63982 0.63982 l 0.160599,0.41851 0.160599,0.41852 h 0.264584 0.264583 z m -9.531505,-0.19428 -0.47622,-0.34822 0.10823,-0.51168 0.10822,-0.51168 0.45651,0.8599 0.45651,0.85989 h -0.0885 -0.0885 z m 4.199504,-19.88038 -0.649431,-0.64944 -0.03441,-0.73963 -0.03441,-0.73963 -0.04973,-0.79375 -0.04973,-0.79375 0.382543,-1.19062 0.382544,-1.19063 0.39774,-0.39687 0.397741,-0.39688 -0.194933,0.66146 -0.194932,0.66146 -0.132208,1.7509 -0.132207,1.75091 0.557044,1.25929 0.557045,1.25929 v 0.0987 0.0987 h -0.27661 -0.27661 z m 2.98419,-1.66136 -0.107111,-0.20275 0.306701,-1.0425 0.306702,-1.04251 0.191237,0.30943 0.191237,0.30943 -0.289054,0.5401 -0.289054,0.54011 0.148843,0.24083 0.148843,0.24083 -0.250617,0.15489 -0.250617,0.15489 z m -21.625284,37.22082 v -0.19135 l -1.12448,-0.51962 -1.12448,-0.51963 -0.8599,-0.16436 -0.85989,-0.16435 v 0.48816 0.48817 l 1.12448,0.29036 1.12447,0.29037 0.52917,0.0877 0.52917,0.0877 0.33073,0.009 0.33073,0.009 z m 55.919869,-2.30015 0.12844,-0.46302 0.17301,-1.52135 0.173,-1.52136 h -0.13888 -0.13888 l -0.69286,0.31569 -0.69285,0.31569 -0.22163,-0.3586 -0.22162,-0.3586 -0.43979,0.43979 -0.43978,0.43978 h -0.2613 -0.2613 l 0.16352,-0.26458 0.16352,-0.26458 h -0.28524 -0.28524 l 0.16193,0.7276 0.16192,0.7276 0.14557,0.52917 0.14557,0.52917 0.68974,0.59499 0.68973,0.59499 0.57748,3.2e-4 0.57749,3.2e-4 z m -3.35665,-0.74539 0.15912,-0.41466 -0.2503,-0.2503 -0.25031,-0.2503 -0.6247,0.66496 -0.62469,0.66496 h 0.71588 0.71588 z m -1.76323,-0.66572 v -0.55121 l -0.330727,0.11012 -0.33073,0.11011 -0.0855,0.4411 -0.0856,0.4411 h 0.41628 0.416267 z m 11.00385,-2.49149 -0.16601,-0.66146 h 0.21082 0.21082 l 0.47197,0.55122 0.47197,0.55122 0.40222,-0.15434 0.40223,-0.15435 h 0.24294 0.24294 v -0.39688 -0.39687 h -0.28348 -0.28348 l 0.42758,-0.42759 0.42759,-0.42758 -0.10127,-0.30002 -0.10128,-0.30002 -1.03501,-0.0163 -1.03502,-0.0163 -0.13229,-0.90976 -0.1323,-0.90976 -0.92604,-0.0962 -0.92604,-0.0962 0.52917,-0.21589 0.52916,-0.21589 -0.51177,-0.0186 -0.51178,-0.0186 -1.14187,0.55277 -1.14187,0.55277 v 0.24098 0.24098 h 0.26459 0.26458 v -0.23374 -0.23374 l 0.70941,-0.13561 0.70942,-0.13561 0.61639,0.28084 0.61639,0.28085 -0.46591,0.43259 -0.46591,0.4326 -0.47979,0.18321 -0.47979,0.18321 0.16734,0.27076 0.16735,0.27077 0.22725,-0.14045 0.22725,-0.14045 0.17889,0.59916 0.17889,0.59915 0.37543,0.59531 0.37542,0.59532 h 0.41946 0.41946 z m -11.10692,-1.97849 0.0469,-1.55524 -0.320137,0.12285 -0.32015,0.12285 0.0626,1.51172 0.0626,1.51172 0.021,0.11025 0.021,0.11024 0.18958,-0.18958 0.189577,-0.18958 z m 15.97807,-3.54083 v -0.35995 l -0.16825,-1.22755 -0.16826,-1.22756 h -0.22862 -0.22862 v 1.16899 1.16898 l 0.1606,0.41852 0.1606,0.41851 h 0.23628 0.23627 z m 0.62672,-4.32095 0.16834,-1.10902 -0.58869,-0.41233 -0.58869,-0.41234 h -0.38858 -0.38857 l 0.48853,0.35723 0.48854,0.35722 0.12692,1.53044 0.12691,1.53044 0.19348,-0.36631 0.19347,-0.36631 z m -4.55333,0.55381 0.21151,-0.13072 0.56304,0.30133 0.56304,0.30133 0.26973,-0.26973 0.26972,-0.26972 -0.56931,-0.92117 -0.56931,-0.92116 0.33733,-0.13565 0.33732,-0.13565 -0.39687,-0.0297 -0.39688,-0.0297 -0.61158,-0.5098 -0.61158,-0.5098 -0.0958,-1.48141 -0.0958,-1.48141 0.37668,0.31262 0.37668,0.31261 v -0.42927 -0.42927 h -0.24294 -0.24294 l -0.41852,-0.1606 -0.41851,-0.1606 v 1.85835 1.85834 l 0.33073,0.1301 0.33073,0.1301 -0.95856,-0.13722 -0.95855,-0.13721 -0.18154,0.29375 -0.18154,0.29374 h -0.62695 -0.62694 l -0.39688,0.39688 -0.39687,0.39687 h -0.32758 -0.32758 l 0.17409,0.17409 0.1741,0.1741 -0.32844,0.3981 -0.32843,0.3981 0.33238,0.11186 0.33237,0.11186 -0.14955,0.24199 -0.14956,0.24198 h 0.15317 0.15316 l 1.05503,-0.666 1.05503,-0.66601 0.72565,0.15894 0.72565,0.15894 0.34214,0.10627 0.34214,0.10626 -0.27592,0.51556 -0.27592,0.51556 0.70899,-0.12857 0.70899,-0.12856 z m 25.35786,-2.66047 v -0.43756 l 3.96875,0.17909 3.96875,0.17909 v -14.02903 -14.02904 h -11.90625 -11.90625 v 0.0982 0.0982 l -0.81895,4.06899 -0.81896,4.06899 -0.14246,2.57968 -0.14246,2.57969 h 0.85743 0.85743 l -0.16059,0.41851 -0.1606,0.41852 v 0.27379 0.27379 l -0.62394,-0.11928 -0.62393,-0.11927 -0.16982,2.77542 -0.16981,2.77542 v 1.40474 1.40474 l 0.53463,0.28613 0.53464,0.28613 0.23139,-0.14301 0.23139,-0.14301 0.15835,0.41266 0.15835,0.41266 -0.5275,-0.16743 -0.5275,-0.16742 v 0.28241 0.28242 h -0.36092 -0.36091 l -0.17208,1.25549 -0.17209,1.25549 0.26842,0.0895 0.26841,0.0895 0.004,0.44098 0.004,0.44097 0.19439,-0.30428 0.19438,-0.30429 0.39688,-0.0578 0.39687,-0.0578 1.52136,0.0314 1.52135,0.0313 -0.0661,0.33073 -0.0661,0.33073 0.71068,0.0821 0.71068,0.0821 0.0831,-0.98768 0.0831,-0.98767 0.29068,-0.0953 0.29068,-0.0953 0.58121,0.47172 0.58121,0.47171 0.045,0.60458 0.045,0.60458 0.53831,0.12426 0.53831,0.12426 3.175,0.0742 3.175,0.0742 1.38906,0.0569 1.38907,0.0569 z m -13.91247,-11.25651 0.0908,-1.29534 0.10939,-0.10939 0.10939,-0.10938 0.58375,0.15265 0.58376,0.15266 v 0.23372 0.23373 l 0.59532,0.0264 0.59531,0.0264 -0.66146,0.19059 -0.66146,0.19059 0.0648,0.82363 0.0648,0.82364 -0.78251,-0.0223 -0.78251,-0.0222 z m -5.93128,10.23154 v -0.37295 l 0.39688,0.15229 0.39687,0.1523 v -1.35123 -1.35122 h -0.29698 -0.29698 l 0.30983,-0.37332 0.30983,-0.37332 -0.2793,-0.17262 -0.2793,-0.17261 -0.12337,0.3475 -0.12337,0.3475 -0.26517,1.19062 -0.26517,1.19063 -0.006,0.74321 -0.007,0.74322 0.26459,-0.16352 0.26458,-0.16352 z m -1.85208,-0.35649 v -0.76067 l 0.16536,-0.82683 0.16537,-0.82682 h -0.56728 -0.56728 l 0.16601,0.66146 0.16602,0.66146 h -0.13934 -0.13933 l -0.41852,-0.1606 -0.41851,-0.1606 v -0.50086 -0.50086 h -0.23 -0.23 l -0.0359,1.5875 -0.0359,1.5875 h 1.05964 1.05963 z m -9.67893,0.3355 0.41851,-0.1606 v -0.32274 -0.32275 l -0.79375,0.1165 -0.79375,0.1165 v 0.2125 0.21251 l 0.33073,0.13345 0.33073,0.13345 0.0445,0.0209 0.0445,0.0209 z m 3.32929,-1.29609 0.34945,-1.4567 -0.1152,-0.1152 -0.1152,-0.11519 -1.38363,1.24116 -1.38363,1.24116 0.001,0.17904 0.001,0.17903 0.46302,0.121 0.46302,0.121 0.68535,0.0307 0.68534,0.0307 z m -10.319107,0.63208 v -0.29544 l 0.52917,0.13838 0.529157,0.13838 0.004,-0.30596 0.004,-0.30596 0.198,0.31131 0.198,0.31131 1.65003,-0.14962 1.65004,-0.14962 v -0.29857 -0.29857 l -0.98819,0.0465 -0.98819,0.0465 0.50959,-0.37262 0.50959,-0.37262 h -0.56728 -0.56729 l -0.68312,-0.31125 -0.68312,-0.31125 0.17154,-1.14396 0.17155,-1.14396 h -0.30393 -0.30394 l 0.27389,-0.51177 0.2739,-0.51177 v -3.45698 -3.45698 h 0.30868 0.30868 l -0.16708,0.16708 -0.16708,0.16708 0.27363,0.5113 0.27364,0.51129 -0.34909,0.43075 -0.34909,0.43075 0.33073,-0.1987 0.33073,-0.19869 0.0313,0.34634 0.0313,0.34635 -0.0282,0.18891 -0.0282,0.18892 0.45984,-0.16493 0.45985,-0.16492 -0.19614,0.21625 -0.19614,0.21624 0.31985,0.3854 0.31985,0.3854 -0.58673,0.47511 -0.58673,0.4751 v 0.42061 0.42061 h 0.20789 0.20788 v 0.52917 0.52917 h -0.20788 -0.20789 v 0.26458 0.26458 h 0.89665 0.89666 l 0.95543,-2.601 0.95543,-2.601 v -0.17712 -0.17713 h -0.41249 -0.41249 l 0.17466,-0.28262 0.17467,-0.28262 0.34462,0.13224 0.34462,0.13225 0.60776,-1.62513 0.60775,-1.62513 -0.0493,-0.59599 -0.0493,-0.59599 0.39311,0.15084 0.3931,0.15085 v 0.19486 0.19485 l -0.54749,1.56278 -0.54749,1.56277 -0.60075,2.04128 -0.60076,2.04127 0.0238,0.80302 0.0238,0.80301 -0.21405,-2e-5 -0.21405,-2e-5 0.16352,0.26459 0.16352,0.26458 h 2.07507 2.07508 l 0.19763,-1.65364 0.19764,-1.65365 -0.0308,-1.38435 -0.0308,-1.38434 0.51516,-0.27571 0.51515,-0.2757 0.67027,0.16823 0.67026,0.16822 0.22983,0.41069 0.22983,0.41068 0.15786,-2.09386 0.15786,-2.09386 0.16891,-5.6224 0.16891,-5.62239 -6.71154,3.1e-4 -6.711537,3.2e-4 0.0508,9.85541 0.0508,9.85542 0.0184,0.39687 0.0184,0.39688 -0.11249,2.60094 -0.11248,2.60094 -0.15513,0.15514 -0.15514,0.15513 -0.004,-0.90399 -0.004,-0.904 -0.23213,0.36654 -0.23213,0.36654 -0.75601,-0.2149 -0.756,-0.21491 -2.97656,0.075 -2.97656,0.075 v -0.68968 -0.68968 h -0.26459 -0.26458 v 1.57591 1.57591 l 1.91823,0.0913 1.91823,0.0913 2.3151,0.0526 2.31511,0.0526 z m 7.809007,-16.38529 0.1707,-0.53782 0.0851,-2.1725 0.0851,-2.17249 0.71567,-0.0864 0.71567,-0.0864 -0.17607,0.28487 -0.17606,0.28488 h -0.38126 -0.38126 l -0.0286,1.65364 -0.0286,1.65365 -0.007,0.71315 -0.007,0.71316 -0.37806,0.14507 -0.37807,0.14508 z m 1.85053,14.23333 0.92088,-0.59531 -0.16826,-0.39687 -0.16825,-0.39688 -0.12811,-0.74943 -0.1281,-0.74943 -1.62041,0.14343 -1.62042,0.14342 -0.79375,0.0268 -0.79375,0.0268 0.39688,0.13716 0.39687,0.13715 0.36053,0.11446 0.36053,0.11446 -0.32653,0.39344 -0.32652,0.39344 0.73925,-0.0612 0.73925,-0.0612 0.10791,0.32371 0.1079,0.32371 0.39451,-0.39452 0.39451,-0.39451 h 0.51027 0.51027 v 0.23628 0.23627 l -0.46302,0.20035 -0.46302,0.20035 -0.52917,0.10061 -0.52917,0.10061 -0.52181,0.5211 -0.52182,0.5211 h 1.12084 1.12084 z m 7.48714,-1.47077 -0.0811,-0.97222 -0.51045,-0.0969 -0.51046,-0.0969 -0.36834,-0.36834 -0.36834,-0.36834 h -0.24568 -0.24569 l -0.004,0.7276 -0.004,0.72761 -0.15322,0.57118 -0.15323,0.57119 0.48757,0.0903 0.48757,0.0903 0.87481,0.0484 0.8748,0.0484 z m -25.866397,-4.6548 0.026,-5.23604 -0.15105,-0.15105 -0.15105,-0.15105 v 5.51215 5.51215 l 0.12507,-0.12506 0.12506,-0.12507 z m 12.399197,4.56132 0.29166,-0.83666 -0.0968,-0.0968 -0.0968,-0.0968 -0.71408,0.27149 -0.71407,0.27149 0.16649,0.2694 0.1665,0.26939 0.31244,-0.17542 0.31245,-0.17542 -0.33073,0.35631 -0.33073,0.35632 v 0.21166 0.21167 h 0.371 0.37099 z m 8.87828,-0.47017 0.15357,-0.24848 0.0919,-1.48051 0.0919,-1.4805 -0.56056,0.37063 -0.56056,0.37064 -0.14192,0.89533 -0.14192,0.89534 0.10663,0.46302 0.10663,0.46302 h 0.35041 0.3504 z m 6.99029,-2.19891 -0.0311,-2.44739 -0.21497,1.28078 -0.21496,1.28078 -0.0441,0.96818 -0.0441,0.96817 0.0256,0.19844 0.0256,0.19844 h 0.26458 0.26458 z m -2.08555,0.82987 v -0.5592 l -0.79375,0.1165 -0.79375,0.1165 v -0.35206 -0.35206 l 0.84884,0.0671 0.84884,0.0671 0.2866,-2.1825 0.2866,-2.1825 -0.44753,-0.14204 -0.44752,-0.14203 v -0.91661 -0.91661 h 0.62996 0.62996 l 0.12427,-0.59531 0.12427,-0.59532 0.67452,-3.88438 0.67452,-3.88437 v -2.26718 -2.26719 h -2.2279 -2.2279 l -0.15589,1.65365 -0.15589,1.65365 -0.2754,7.39964 -0.27539,7.39964 -0.0703,0.0703 -0.0703,0.0703 -0.82326,-0.23611 -0.82326,-0.23611 -0.14188,0.36975 -0.14189,0.36975 0.18892,-0.0357 0.18891,-0.0357 1.14095,0.20762 1.14095,0.20761 -0.28105,0.28105 -0.28105,0.28105 v 0.46993 0.46993 l 0.99218,0.5238 0.99219,0.52379 0.33073,0.0117 0.33073,0.0117 z m -33.274017,-3.623 0.46569,-0.34573 v -0.35101 -0.35102 l -0.46302,-0.12008 -0.46303,-0.12009 -0.33072,0.11128 -0.33073,0.11127 v 0.35983 0.35982 l -0.46731,0.34573 -0.46731,0.34574 0.0305,0.66145 0.0305,0.66146 0.0399,0.21874 0.0399,0.21874 0.72494,-0.8802 0.72494,-0.88019 z m 30.592307,-11.0093 0.0359,-3.15295 -0.0996,0.11024 -0.0996,0.11025 -0.12779,6.08541 -0.12778,6.08542 0.19148,-3.04271 0.19148,-3.04271 z m -62.674419,6.12951 0.004,0.33073 h 0.22508 0.22507 l 0.0232,-2.78363 0.0231,-2.78363 -0.23196,0.14337 -0.23197,0.14336 -0.276,-0.46859 -0.27601,-0.46858 -0.26537,0.39687 -0.26537,0.39688 -0.004,-0.36313 -0.004,-0.36313 -0.36089,0.29951 -0.36089,0.29951 0.21708,1.12195 0.21707,1.12195 0.0115,1.37592 0.0115,1.37591 0.45997,0.25741 0.45996,0.25741 0.19744,-0.31041 0.19745,-0.3104 z m 9.13722,-9.33357 -0.40192,-2.86322 v -0.0862 -0.0862 h -0.21787 -0.21786 l 0.36909,2.71198 0.36909,2.71197 0.11959,0.3686 0.11958,0.3686 0.13112,-0.13111 0.13111,-0.13112 z"
       id="path17" /></g></svg>
