<?xml version="1.0" encoding="UTF-8" standalone="no"?>
<!-- Created with Inkscape (http://www.inkscape.org/) -->

<svg
   width="101.59999mm"
   height="84.666664mm"
   viewBox="0 0 101.59999 84.666664"
   version="1.1"
   id="svg1"
   xml:space="preserve"
   xmlns="http://www.w3.org/2000/svg"
   xmlns:svg="http://www.w3.org/2000/svg"><defs
     id="defs1" /><g
     id="layer1"
     transform="translate(-42.185979,-32.263633)"><path
       style="fill:#ffffff;fill-opacity:1"
       d="m 42.185979,74.596962 v -42.33333 h 50.799996 50.799995 v 42.33333 42.333328 H 92.985975 42.185979 Z m 27.648955,41.007758 -1.322917,-0.15195 1.322917,-0.19845 1.322916,-0.19845 0.79375,-0.20912 0.79375,-0.20912 -0.08504,-0.37502 -0.08504,-0.37502 0.336399,0.33073 0.336399,0.33072 0.939271,-0.004 0.93927,-0.004 -0.396875,-0.25648 -0.396875,-0.25648 -0.519227,-0.004 -0.519228,-0.004 -0.575128,-0.72128 -0.575127,-0.72128 -1.419186,-0.0763 -1.419187,-0.0763 -0.992187,-0.15745 -0.992188,-0.15744 v 0.14879 0.14879 l 0.239181,0.60776 0.239181,0.60776 0.419705,1.19274 0.419706,1.19273 1.259343,-0.1259 1.259342,-0.1259 z m 6.614583,0.26724 0.529168,-0.22739 -0.66146,-0.003 -0.661458,-0.003 -1.058333,0.21891 -1.058334,0.21891 1.190625,0.0118 1.190625,0.0118 z m 24.600073,-0.19844 0.18274,-0.46302 0.1376,-2.38125 0.1376,-2.38125 0.25857,-0.48568 0.25858,-0.48568 0.0706,0.0888 0.0706,0.0888 -0.21269,2.38125 -0.21269,2.38125 -0.15588,0.8599 -0.15589,0.85989 h 1.01043 1.01042 l -0.51989,-4.21766 -0.51989,-4.21766 -0.21396,0.13224 -0.21396,0.13223 -0.004,0.71199 -0.004,0.71199 -0.2319,-0.36616 -0.2319,-0.36617 0.25098,-0.82446 0.25099,-0.82446 -0.004,-2.14408 -0.004,-2.14409 0.59879,0.11447 0.5988,0.11447 0.30783,-0.67561 0.30783,-0.67562 -0.71886,-0.7606 -0.71886,-0.76061 -0.42607,-0.149708 -0.42608,-0.1497 -0.18167,-1.27925 -0.18168,-1.27925 0.0207,-0.8599 0.0207,-0.8599 h -0.53746 -0.53745 l -0.03,0.33073 -0.03,0.33073 0.0338,3.57188 0.0337,3.571868 0.0991,1.45521 0.0991,1.45521 0.0503,4.96094 0.0503,4.96093 h 0.21535 0.21534 z m 15.30056,-0.16446 1.41886,-0.62749 0.34499,-1.23218 0.34499,-1.23219 -0.15556,-0.15556 -0.15557,-0.15557 -2.06376,-0.48927 -2.06375,-0.48927 -0.94987,-0.009 -0.94986,-0.009 -2.07141,0.52978 -2.0714,0.52977 -0.0806,0.0806 -0.0806,0.0806 0.46304,1.70469 0.46303,1.70469 0.58835,-0.0828 0.58835,-0.0828 v 0.28121 0.28121 h 2.50599 2.506 z m 14.00906,-0.22642 0.1288,-0.86589 -0.35961,-1.19062 -0.35962,-1.19063 -0.003,-0.59531 -0.003,-0.59531 0.33073,-0.008 0.33073,-0.008 -0.42015,-0.32232 -0.42015,-0.32231 -0.17333,-1.85208 -0.17334,-1.85209 -0.27071,-1.85208 -0.27071,-1.85208 -0.16501,-1.38907 -0.16501,-1.389058 h -0.63203 -0.63204 l 0.14083,6.138618 0.14083,6.13862 -0.15107,0.47596 -0.15106,0.47597 h -0.37905 -0.37904 v 0.24814 0.24814 l -0.46302,-0.0275 -0.46302,-0.0275 -1.85209,0.90172 -1.85208,0.90171 -0.33046,0.31373 -0.33046,0.31374 4.59903,0.0252 4.59903,0.0252 z m -86.607281,0.2184 0.30784,-0.37091 0.6506,-0.16329 0.65061,-0.16329 v -0.25438 -0.25437 l -0.79773,0.0929 -0.79773,0.0929 0.3267,-0.42878 0.3267,-0.42878 -0.7196,0.64144 -0.71959,0.64143 v 0.48304 0.48305 h 0.23218 0.23219 z m 75.919981,-0.42283 h 0.30156 v -0.94166 -0.94165 l -0.26458,0.16352 -0.26459,0.16352 v 0.61345 0.61344 l -0.39687,0.32938 -0.39688,0.32938 0.008,0.29833 0.008,0.29833 0.35149,-0.46302 0.35148,-0.46302 z m -46.373997,-4.43177 0.74766,-0.99219 -0.51782,0.38389 -0.517819,0.38389 -0.330729,0.39429 -0.33073,0.39428 v 0.21401 0.21402 h 0.100889 0.100889 z m 36.274247,0.57692 1.80235,-0.41528 0.26459,-0.28512 0.26458,-0.28513 -0.42405,0.14797 -0.42405,0.14798 -1.82491,-0.49821 -1.82491,-0.4982 -0.1703,-0.008 -0.17031,-0.008 0.26864,1.05833 0.26863,1.05834 h 0.0837 0.0837 z m -64.290991,-0.74747 2.06418,-0.63357 1.32292,-0.15533 1.32292,-0.15533 0.99311,-1.12933 0.99312,-1.12933 -0.40105,-0.0862 -0.40104,-0.0862 0.18632,-0.3107 0.18632,-0.31071 -0.4972,0.39688 -0.4972,0.39687 0.17352,-0.46302 0.17353,-0.46302 h -0.25628 -0.25628 l -0.004,0.46302 -0.004,0.46302 -0.25009,-0.39558 -0.25008,-0.39559 -0.34118,0.4568 -0.34117,0.45679 -0.36929,-0.23294 -0.36928,-0.23295 0.19924,-0.48972 0.19925,-0.48972 0.19259,0.51743 0.19258,0.51743 0.26281,-0.4696 0.2628,-0.46961 0.70683,-0.0776 0.70684,-0.0776 0.008,0.29435 0.008,0.29434 0.27618,-0.47462 0.27617,-0.47461 0.50953,0.16172 0.50953,0.16171 v -0.29518 -0.29519 l -0.83958,-0.35301 -0.83957,-0.35302 0.81214,-0.17837 0.81214,-0.17838 0.43489,-0.48054 0.43488,-0.48055 -0.60589,-0.1623 -0.60588,-0.16231 -1.00781,-0.004 -1.0078,-0.004 0.16352,-0.26459 0.16352,-0.26458 h 1.2663 1.26629 l 0.47817,-0.52837 0.47817,-0.52837 -0.0221,-0.778 -0.0221,-0.777988 -0.25581,-0.47957 -0.25582,-0.47957 -0.0931,-0.75264 -0.0931,-0.75265 1.19062,-0.66253 1.19063,-0.66253 0.57293,-0.52815 0.57292,-0.52814 0.1753,-0.70252 0.17529,-0.70251 0.77439,-1.76701 0.77439,-1.767 0.52791,-3.08794 0.52791,-3.08793 v -1.29662 -1.29662 l -2.4474,-0.0188 -2.44739,-0.0188 -2.11667,-0.20604 -2.11666,-0.20603 -0.39688,0.46328 -0.39687,0.46328 -1.78271,-0.0991 -1.78271,-0.0991 -1.07058,-0.54617 -1.07057,-0.54617 -0.65245,-0.24805 -0.65244,-0.24806 v 0.78388 0.78388 l 0.9992,0.63077 0.9992,0.63076 0.85288,0.18733 0.85288,0.18732 v 0.27738 0.27738 l -0.99218,-0.15908 -0.99219,-0.15907 -0.8599,-0.1724 -0.85989,-0.1724 v 14.05599 14.055988 h 0.11863 0.11863 z m 45.680506,-0.89279 0.43652,-1.12948 -0.72746,0.16461 -0.72747,0.16461 -0.69026,0.28533 -0.69027,0.28533 0.13748,0.52573 0.13749,0.52574 -0.39726,-0.15244 -0.39725,-0.15244 -0.37288,0.23605 -0.37288,0.23605 0.66146,0.0452 0.66146,0.0452 0.57543,-0.048 0.57543,-0.048 0.18204,0.29453 0.18203,0.29454 0.19493,-0.22149 0.19493,-0.22149 z m 0.59919,-2.11341 0.41388,-0.41388 -0.44868,-0.25109 -0.44867,-0.25109 -0.96394,-0.0955 -0.96394,-0.0955 -0.85989,0.27728 -0.8599,0.27728 v 0.18132 0.18132 l 0.59531,0.28634 0.59532,0.28635 1.26332,0.0155 1.26332,0.0155 z m -9.21123,-1.22039 0.71447,-0.36225 1.78593,0.0822 1.78594,0.0822 v -0.0981 -0.0981 l -1.42978,-0.41565 -1.42979,-0.41565 -0.35615,0.0108 -0.35615,0.0108 -0.91605,0.783 -0.91605,0.78299 h 0.20158 0.20159 z m -7.84029,-8.280618 -0.25598,-0.45741 0.246608,-0.64863 0.246608,-0.64863 -0.339157,0.27128 -0.339157,0.27127 -0.43006,-0.16573 -0.43006,-0.16574 0.223097,-0.59532 0.223096,-0.59531 0.537693,-0.0441 0.537692,-0.0441 0.463021,-0.0221 0.463021,-0.0221 0.33389,-0.31499 0.33389,-0.31499 1.170678,-0.17556 1.17068,-0.17555 -0.0887,-0.96466 -0.0887,-0.96467 -0.0268,-0.28817 -0.0268,-0.28817 -0.85989,-0.0161 -0.859899,-0.0161 -1.190625,-0.0699 -1.190625,-0.0699 -0.862322,-0.63335 -0.862323,-0.63335 -0.149179,0.47833 -0.149179,0.47834 -0.202439,0.39687 -0.202439,0.39688 0.182686,1.71979 0.182685,1.71979 0.596881,1.32292 0.596881,1.32292 0.566666,0.61847 0.566666,0.61847 0.08394,-0.41172 0.08394,-0.41172 z m 58.884195,-0.99153 1.08182,-1.69689 0.17522,-0.55207 0.17522,-0.55206 h -0.24254 -0.24253 l -1.20271,2.24896 -1.2027,2.24895 h 0.1882 0.1882 z m -48.543505,-3.17835 0.72761,-0.16192 v -0.77309 -0.7731 l -0.24423,-0.15094 -0.24423,-0.15094 -0.17367,-0.79072 -0.17367,-0.79071 h -0.40062 -0.40062 l -0.13838,0.52916 -0.13838,0.52917 h -0.3504 -0.35041 l -0.1744,0.28219 -0.1744,0.28218 0.1246,0.1246 0.12459,0.12459 0.67878,-0.30927 0.67878,-0.30927 0.47989,0.19806 0.47989,0.19805 -1.19062,0.30134 -1.19063,0.30135 0.0787,0.52757 0.0787,0.52757 0.11842,0.34897 0.11842,0.34897 0.46432,-0.12594 0.46433,-0.12594 z m -16.549089,-1.47508 0.211071,-3.2e-4 0.71072,-0.61127 0.710719,-0.61126 -0.313844,-0.54456 -0.313845,-0.54456 -1.043372,-1.35031 -1.043373,-1.3503 -0.05813,0.0591 -0.05813,0.059 -0.176578,1.9316 -0.176578,1.93159 0.327593,0.39472 0.327593,0.39473 -0.306287,0.30629 -0.306286,0.30628 v 0.51489 0.51488 l 0.648824,-0.70009 0.648825,-0.7001 z m 61.822374,-0.92572 0.15229,-0.39687 -0.7193,-0.0282 -0.7193,-0.0281 0.68233,-0.27159 0.68232,-0.27159 0.26781,-1.00332 0.2678,-1.00333 -0.55326,-0.14853 -0.55325,-0.14854 -0.56075,-0.004 -0.56075,-0.004 -1.39611,1.1116 -1.39611,1.1116 0.23707,0.0559 0.23707,0.0559 0.7276,0.16048 0.72761,0.16048 v 0.21372 0.21371 l -0.8599,-0.12022 -0.85989,-0.12023 0.18501,0.19672 0.18501,0.19672 0.87332,0.20683 0.87332,0.20683 0.96388,0.0271 0.96388,0.0271 z m -50.427145,-1.67018 0.10473,-0.31419 h -1.62516 -1.625166 l 0.168539,0.2727 0.168537,0.2727 0.87511,-0.16417 0.87511,-0.16417 0.18684,0.30231 0.18684,0.30231 0.28994,-0.0966 0.28995,-0.0967 z m -3.577387,-1.09633 0.463021,-0.0116 v -0.26459 -0.26458 h -0.628386 -0.628385 l -0.826823,0.16537 -0.826823,0.16536 v 0.46492 0.46491 l 0.992188,-0.35408 0.992187,-0.35409 z m 12.633857,0.28382 v -0.23374 l -0.66146,-0.12645 -0.66146,-0.12644 v 0.36018 0.36018 h 0.66146 0.66146 z m 25.781675,-4.56049 1.76401,-0.82548 -0.0807,-0.67547 -0.0807,-0.67547 -0.29559,-0.0969 -0.29559,-0.0969 -0.15876,0.79378 -0.15875,0.79378 -1.39774,0.80158 -1.39774,0.80157 0.16873,0.002 0.16874,0.002 z m -47.556153,-2.06196 0.05365,-0.76971 -0.342426,-0.1314 -0.342426,-0.1314 -0.0339,0.90164 -0.0339,0.90164 0.322672,-5.3e-4 0.322672,-5.2e-4 z m -8.138868,-4.25631 h 0.29662 l 0.15528,0.40465 0.15528,0.40465 0.35717,-0.4708 0.35716,-0.4708 0.008,0.23084 0.008,0.23083 0.463024,-0.35036 0.463021,-0.35037 -0.330729,0.37089 -0.330726,0.37088 v 0.23269 0.23269 l 0.859892,-0.19154 0.859896,-0.19154 1.006984,0.0369 1.006984,0.0369 -0.190492,-0.30822 -0.190491,-0.30822 0.506424,0.20877 0.506425,0.20877 0.330729,-0.025 0.330729,-0.025 1.5875,0.006 1.5875,0.006 0.463021,0.0133 0.46302,0.0133 0.79375,-0.16877 0.79375,-0.16877 0.396875,-0.11568 0.396875,-0.11568 0.926042,-0.12429 0.926042,-0.12429 2.08876,-0.16907 2.088761,-0.16908 0.55707,-0.11193 0.55708,-0.11192 0.59094,-0.11179 0.59095,-0.11179 0.31322,-0.19357 0.31321,-0.19358 1.74167,-0.19686 1.74167,-0.19686 2.38125,-0.58767 2.38125,-0.58767 0.50122,0.0202 0.50121,0.0202 1.08629,-0.74938 1.08628,-0.74939 0.48894,-0.54329 0.48894,-0.54329 -0.19909,-0.32214 -0.19909,-0.32214 0.30546,0.18879 0.30547,0.18879 v -0.2802 -0.2802 h -0.20789 -0.20789 v -0.51657 -0.51656 l 0.11457,0.11456 0.11456,0.11456 0.74742,-0.98705 0.74742,-0.98706 0.007,-0.22374 0.007,-0.22374 0.53117,-0.74596 0.53117,-0.74596 -0.23489,-0.6178 -0.23489,-0.6178 -0.0128,-0.26459 -0.0128,-0.26458 0.41903,-0.46302 0.41903,-0.46302 h 0.7307 0.73069 l 0.11665,-0.33073 0.11665,-0.33073 0.78507,0.45059 0.78508,0.45059 0.575525,-0.57553 0.57553,-0.57553 v 1.06421 1.06421 l 0.30883,0.30883 0.30883,0.30882 -0.37498,0.11559 -0.37497,0.11558 -0.47979,0.15581 -0.479785,0.1558 0.16468,0.26645 0.16467,0.26646 h -0.32429 -0.3243 l 0.17697,0.17696 0.17696,0.17697 -0.46359,0.52997 -0.4636,0.52997 0.38541,-0.22718 0.38541,-0.22718 0.52076,-0.41361 0.520765,-0.41361 0.6272,-0.59532 0.62721,-0.59531 h 0.12026 0.12027 v 0.55937 0.55936 l -1.12448,1.00176 -1.124475,1.00176 0.2024,0.20673 0.202395,0.20673 0.9438,-0.90796 0.94379,-0.90796 0.28881,-0.52916 0.28882,-0.52917 0.19155,-0.79375 0.19156,-0.79375 0.0271,1.07391 0.0271,1.07391 0.38846,0.51359 0.38846,0.51359 0.008,-0.46302 0.008,-0.46302 h -0.2279 -0.22789 l 0.12586,-0.65838 0.12585,-0.65837 0.23433,0.14482 0.23433,0.14483 v -0.2802 -0.2802 h -0.2286 -0.2286 l -0.66876,-0.99219 -0.66875,-0.99219 -0.17574,-1.00694 -0.17573,-1.00695 -0.47979,-0.47978 -0.47978,-0.47978 -1.476945,0.2316 -1.47695,0.23161 -0.67434,0.25639 -0.67434,0.25638 v 0.16715 0.16715 l 0.3884,-0.14905 0.3884,-0.14904 0.15638,0.25303 0.15638,0.25303 -1.14009,0.0403 -1.1401,0.0403 -0.39687,0.0423 -0.39688,0.0423 -0.28451,-0.20895 -0.28451,-0.20894 -0.61696,1.5154 -0.61695,1.51539 -0.4876,0.47333 -0.48759,0.47333 v 0.38656 0.38657 h -0.21988 -0.21987 l -0.35379,0.66106 -0.35379,0.66106 -0.13107,-0.13107 -0.13107,-0.13107 -0.68433,0.75652 -0.68433,0.75652 -0.511,-0.0795 -0.511,-0.0795 -0.46836,0.25066 -0.46835,0.25065 -1.05048,-0.54754 -1.05048,-0.54754 -1.1257,0.57429 -1.1257,0.57429 -2.40071,-0.15444 -2.40072,-0.15445 -2.801009,-0.92006 -2.80101,-0.92006 -0.638573,-0.13175 -0.638574,-0.13174 -0.529166,-0.13823 -0.529167,-0.13823 -1.058333,-0.2659 -1.058333,-0.2659 -0.875511,-0.006 -0.875511,-0.006 0.198696,-0.33073 0.198695,-0.33073 -0.381518,0.29675 -0.381518,0.29675 -0.529167,-0.13407 -0.529166,-0.13408 -0.992188,-0.0304 -0.992187,-0.0304 v -0.21405 -0.21405 l -0.216978,0.1341 -0.216977,0.1341 -0.741528,0.13446 -0.741527,0.13447 0.14872,-0.14872 0.148719,-0.14872 -0.661122,-0.66112 -0.661124,-0.66113 -0.76408,0.11215 -0.76407,0.11214 0.0905,-0.15056 0.0906,-0.15057 -0.31261,-0.28839 -0.31261,-0.28838 -0.45337,0.0665 -0.45337,0.0665 v -0.27121 -0.2712 l -0.7836,0.11501 -0.78359,0.11501 -0.13942,-0.3633 -0.13941,-0.36331 0.30243,0.18692 0.30244,0.18691 -0.18879,-0.30546 -0.18879,-0.30547 h -0.38126 -0.38126 v 0.27069 0.27068 l -0.59531,-0.36861 -0.59531,-0.36862 -0.96895,0.057 -0.96895,0.057 -1.22145,0.34198 -1.22145,0.34199 -0.13632,-0.13632 -0.13632,-0.13632 2.45901,-0.61779 2.45901,-0.61778 1.72789,-0.01 1.72788,-0.01 1.7052,0.84435 1.705197,0.84435 0.126209,-0.12621 0.126209,-0.12621 -0.453115,-1.22258 -0.45312,-1.22257 0.10947,-0.10947 0.10947,-0.10947 0.818187,1.1892 0.818191,1.1892 0.259098,0.68148 0.259097,0.68147 h 0.214597 0.214597 l 0.623613,-1.79838 0.623614,-1.79838 -0.17215,-0.9136 -0.172151,-0.9136 -0.25612,-2.15547 -0.256121,-2.15547 -0.568357,-1.54869 -0.568358,-1.5487 -0.231908,-0.25135 -0.231909,-0.25136 v -0.22728 -0.22728 l 0.280904,0.17361 0.280903,0.17361 0.280818,0.7019 0.280817,0.7019 0.362716,-1.5875 0.362716,-1.5875 0.100546,-0.52917 0.100546,-0.52916 0.0995,-0.38543 0.0995,-0.38542 0.684998,-1.37724 0.684998,-1.37725 -0.261131,-0.48629 -0.261131,-0.48629 -0.490012,-0.47333 -0.490013,-0.47332 v 0.26558 0.26558 l -0.561096,0.30029 -0.561096,0.30029 0.179836,-0.29098 0.179835,-0.29098 h -0.295813 -0.295813 l 0.130449,-0.21107 0.130448,-0.21107 -0.243074,-0.38425 -0.243073,-0.38424 -0.0041,0.32243 -0.0041,0.32242 -0.347953,-0.13352 -0.347952,-0.13352 -0.724013,0.67099 -0.724009,0.67099 h -0.33336 -0.33335 l -0.57906,0.53948 -0.57905,0.53947 v 0.38657 0.38657 h -0.24254 -0.24253 l -0.0882,-0.20297 -0.0882,-0.20297 -1.19139,-0.96595 -1.19138,-0.96595 -1.11136,-0.34685 -1.11136,-0.34686 -0.10017,-0.93162 -0.10018,-0.93163 -0.0445,1.07836 -0.0445,1.07836 -0.66727,0.62687 -0.66726,0.62686 0.73341,0.60958 0.73341,0.60958 -0.50896,-0.17792 -0.50895,-0.17793 0.16475,0.42934 0.16475,0.42933 -0.3834,-0.14712 -0.3834,-0.14713 -0.43289,0.16612 -0.43289,0.16611 0.49904,0.56215 0.49903,0.56215 -0.57792,-0.30308 -0.57792,-0.30308 h -3.58926 -3.58927 v 8.96509 8.9651 l 1.91823,-0.37958 1.91823,-0.37957 0.92604,-0.12513 0.92604,-0.12513 -0.52917,0.23569 -0.52916,0.23569 -1.45521,0.59945 -1.45521,0.59944 -0.8599,0.12613 -0.85989,0.12613 v 5.26272 5.26272 l 1.12448,0.0313 1.12448,0.0313 0.26458,-0.0622 0.26458,-0.0622 1.05834,-0.0841 1.05833,-0.0841 0.85758,0.14393 0.85758,0.14393 -0.13537,0.21903 -0.13536,0.21903 0.73299,-0.1234 0.733,-0.1234 0.37572,-0.1336 0.37572,-0.13361 0.17482,0.28287 0.17482,0.28286 1.03696,0.11621 1.03696,0.11622 1.81203,0.12105 1.81203,0.12105 0.17193,0.17192 0.17192,0.17193 -0.51317,0.37524 -0.51318,0.37524 0.24901,0.004 0.24901,0.004 -0.35028,0.22209 -0.35028,0.22208 0.46739,0.4674 0.4674,0.46739 0.45446,-0.56124 0.45446,-0.56123 z m 44.034071,-1.38907 0.15954,-0.59531 0.004,-0.99219 0.004,-0.99218 -1.12448,0.008 -1.12448,0.008 -0.47512,0.36034 -0.475115,0.36033 0.172615,0.68776 0.17261,0.68776 0.23636,-0.14608 0.23636,-0.14608 v 0.2802 0.2802 h 0.26458 0.26459 v -0.36448 -0.36448 l -0.39688,-0.32938 -0.39687,-0.32937 0.009,-0.29834 0.009,-0.29833 0.52036,0.62462 0.52037,0.62463 v 0.76444 0.76444 h 0.6306 0.6306 z m -10.482705,-0.88461 0.59531,-0.66625 v -0.29933 -0.29933 l -0.7276,0.67038 -0.72761,0.67039 -0.66146,0.466 -0.66145,0.46601 0.79375,-0.17081 0.79375,-0.17081 z m 18.442905,-2.73436 0.15175,-0.24553 -0.55295,-0.1755 -0.55294,-0.1755 -0.13885,0.13885 -0.13885,0.13884 0.1744,0.28219 0.1744,0.28219 h 0.36565 0.36564 z m -28.120615,-6.01566 -0.26172,-0.48568 -0.71874,-0.66146 -0.71874,-0.66146 0.87484,1.25277 0.87484,1.25276 0.10563,-0.10562 0.10562,-0.10563 z m 30.693765,-1.03528 -0.10573,-0.90561 h -0.23563 -0.23564 l 0.004,0.72761 0.004,0.7276 0.17313,0.64729 0.17313,0.64729 0.16462,-0.46929 0.16462,-0.46929 z m -7.93824,-2.91434 0.81457,-0.42122 0.61949,0.11842 0.6195,0.11842 -0.1399,-0.22636 -0.1399,-0.22636 h 0.22133 0.22132 l 0.5564,0.38971 0.5564,0.38972 0.15184,-0.75921 0.15184,-0.7592 0.34282,0.0388 0.34282,0.0388 0.0691,-0.26458 0.0691,-0.26459 -1.42736,-0.0666 -1.42736,-0.0666 -0.43373,0.66196 -0.43373,0.66196 -0.45692,-0.004 -0.45693,-0.004 0.35898,-0.22746 0.35898,-0.22746 -0.34336,-0.21221 -0.34337,-0.21221 -0.10538,0.31615 -0.10538,0.31616 -0.37326,0.37325 -0.37325,0.37325 v 0.28348 0.28348 h 0.14543 0.14543 z m 29.53901,-2.16508 0.0851,-0.59654 0.31181,0.18701 0.31182,0.187 -0.33472,-0.41343 -0.33471,-0.41343 0.467,-0.50285 0.46701,-0.50285 -0.17776,0.23628 -0.17776,0.23627 0.16295,0.43078 0.16296,0.43078 0.31053,0.31462 0.31053,0.31463 3.2105,0.0823 3.21051,0.0822 -5e-4,-9.57553 -5e-4,-9.57553 -0.24199,-0.14956 -0.24198,-0.14955 -0.13505,0.27285 -0.13504,0.27284 0.0794,-0.33734 0.0794,-0.33735 0.29765,0.0661 0.29766,0.0662 v -2.0373 -2.03729 l -0.3175,0.3175 -0.3175,0.3175 h -0.27054 -0.27054 l 0.58804,-0.41187 0.58804,-0.41188 v -2.10439 -2.10439 l -11.8352,0.0689 -11.83519,0.0689 -0.84472,4.23333 -0.84472,4.23334 -0.0201,2.44739 -0.0201,2.4474 h 0.66146 0.66145 v 0.52917 0.52916 h 0.26459 0.26458 v -0.21166 -0.21167 h 0.63028 0.63028 l -0.0494,0.3363 -0.0494,0.3363 -0.22646,0.2061 -0.22647,0.20609 0.17903,-0.31245 0.17902,-0.31244 -0.22992,-0.1421 -0.22992,-0.1421 -0.47593,0.34801 -0.47594,0.34802 0.34555,0.21355 0.34554,0.21356 -0.21559,-0.37161 -0.21559,-0.37161 0.22647,0.2061 0.22646,0.2061 0.0509,0.34686 0.0509,0.34686 -0.63335,-0.12107 -0.63335,-0.12107 -0.39536,0.32811 -0.39535,0.32812 -0.004,-0.36313 -0.004,-0.36313 -0.25648,0.39688 -0.25648,0.39687 -0.004,0.48243 -0.004,0.48242 0.46302,-0.10126 0.46302,-0.10126 -0.063,-0.3055 -0.063,-0.30549 0.3937,0.15108 0.3937,0.15107 v 0.36857 0.36857 h 0.27736 0.27735 l 0.36953,0.8599 0.36953,0.85989 -0.43287,0.33073 -0.43287,0.33073 h 0.31515 0.31516 v 0.92604 0.92604 h 0.28019 0.2802 l -0.14955,-0.24198 -0.14956,-0.24199 0.31719,-0.10573 0.31718,-0.10572 0.078,-2.49656 0.078,-2.49656 0.003,-0.33073 0.003,-0.33073 h 1.31361 1.3136 l 0.26459,0.49438 0.26458,0.49438 -0.0952,0.10093 -0.0952,0.10094 -0.16253,1.68284 -0.16254,1.68284 -0.17074,0.27627 -0.17075,0.27627 0.28394,-0.17548 0.28393,-0.17549 0.17554,0.86221 0.17554,0.8622 0.23352,0.79375 0.23353,0.79375 0.38856,1.25208 0.38855,1.25207 -0.21695,0.13407 -0.21694,0.13408 -0.31391,-0.37823 -0.3139,-0.37824 -0.3809,0.14617 -0.3809,0.14616 -0.38192,-0.31696 -0.38191,-0.31696 -0.27618,0.17068 -0.27617,0.17069 v 0.34886 0.34887 l -0.39687,0.32937 -0.39688,0.32938 v 0.64846 0.64846 l 0.46302,-0.0899 0.46302,-0.0899 v -0.92165 -0.92165 l 0.70313,-0.0814 0.70312,-0.0814 0.55365,0.59427 0.55364,0.59427 v 0.47928 0.47927 l 0.72761,0.0332 0.7276,0.0333 3.83646,0.18736 3.83646,0.18737 0.39687,-0.0249 0.39688,-0.0249 z m -6.33887,-1.72666 -0.32155,-0.34422 -0.71589,0.10507 -0.71588,0.10507 -0.17924,-0.29002 -0.17924,-0.29001 h 0.44489 0.44489 l -0.32658,-0.39351 -0.32658,-0.3935 0.17612,-0.45898 0.17613,-0.45897 0.2463,0.38946 0.24629,0.38946 0.008,-0.39688 0.008,-0.39687 0.24657,0.38989 0.24656,0.38989 -0.31676,0.20137 -0.31676,0.20137 0.47863,0.004 0.47864,0.004 -0.16619,0.2689 -0.16619,0.2689 -0.28718,-0.17749 -0.28718,-0.17748 0.19767,0.31984 0.19767,0.31984 0.62765,-0.41126 0.62765,-0.41125 h 0.15722 0.15721 l -0.16352,0.26459 -0.16352,0.26458 h 0.2802 0.2802 v -0.27068 -0.27069 l 0.59531,0.37441 0.59531,0.3744 0.65635,-0.11137 0.65635,-0.11138 -0.48381,0.35377 -0.48381,0.35378 -1.28922,-0.1654 -1.28921,-0.16539 0.28918,0.34844 0.28917,0.34844 h -0.15425 -0.15426 z m -15.36164,0.57724 0.0804,-0.69302 -0.60955,-0.16326 -0.60955,-0.16326 -0.46302,-0.004 -0.46302,-0.004 v 0.88722 0.88722 l 0.99218,-0.0273 0.99219,-0.0273 z m -6.46105,-0.82833 0.17304,-0.7276 h -0.20504 -0.20503 l -0.34861,0.78756 -0.34861,0.78756 0.18834,0.30475 0.18834,0.30475 0.19227,-0.36471 0.19226,-0.36471 z m -13.385385,-0.12784 0.28855,-0.85544 -0.83997,0.0681 -0.83997,0.0681 -0.32885,0.65503 -0.32884,0.65503 0.8534,0.14442 0.8534,0.14443 0.0269,-0.0121 0.0269,-0.0121 z m 1.69352,0.22813 0.11149,-0.7596 -0.80032,0.33651 -0.80032,0.33651 -0.0906,0.27171 -0.0906,0.27172 0.74329,0.11173 0.74329,0.11174 0.0361,0.0396 0.0361,0.0396 z m -5.48168,0.0667 0.42837,-0.42837 -0.15927,-0.15928 -0.15928,-0.15928 -0.24615,0.38921 -0.24614,0.38922 -0.004,-0.59531 -0.004,-0.59532 h -0.25528 -0.25527 l -0.23814,0.46302 -0.23814,0.46302 0.11859,0.33073 0.11858,0.33073 h 0.35593 0.35593 z m 1.68644,-0.36538 0.27671,-0.79375 h -0.23299 -0.23299 l -0.18579,0.59532 -0.18578,0.59531 -0.29507,0.19438 -0.29506,0.19439 0.43713,0.004 0.43714,0.004 z m -7.76556,-0.10707 v -0.50394 l -0.45146,-0.0663 -0.45146,-0.0663 -0.29892,0.36018 -0.29892,0.36017 0.18003,0.29131 0.18004,0.2913 0.57035,-0.0813 0.57034,-0.0813 z m 3.30729,0.12269 v -0.51355 l -0.26458,-0.16353 -0.26458,-0.16352 v 0.5604 0.5604 l -0.30547,-0.18879 -0.30546,-0.18879 0.18879,0.30547 0.18878,0.30546 h 0.38126 0.38126 z m 10.84792,-2.44096 v -2.95452 l -0.14886,0.14886 -0.14886,0.14886 -0.0496,2.80577 -0.0496,2.80577 0.19844,-1.1e-4 0.19843,-1.2e-4 z m -16.0231,1.99725 0.17385,-0.69268 -0.14516,-0.14517 -0.14517,-0.14517 v 0.30868 0.30868 h -0.52917 -0.52917 v 0.11065 0.11066 l -0.1606,0.41851 -0.1606,0.41852 h 0.66109 0.66108 z m 41.423095,-1.54067 v -1.17501 l 0.26458,-0.16352 0.26459,-0.16352 -0.004,-0.31511 -0.004,-0.31512 -0.23161,0.36569 -0.23161,0.36569 -0.18537,-0.58407 -0.18538,-0.58406 0.17084,-0.17084 0.17084,-0.17083 0.24614,0.38921 0.24615,0.38921 0.004,-0.31511 0.004,-0.31512 -0.29482,-0.18221 -0.29482,-0.1822 0.13407,-0.99958 0.13407,-0.99957 -0.21577,-0.2229 -0.21577,-0.22289 -0.113,-0.79375 -0.11301,-0.79375 -0.0396,0.85989 -0.0396,0.8599 h -0.53747 -0.53747 l -0.16575,0.43192 -0.16574,0.43193 0.32587,0.5218 0.32588,0.52181 -0.25945,-0.16035 -0.25944,-0.16034 0.14009,0.53569 0.14009,0.5357 0.33087,-0.4525 0.33088,-0.4525 0.13808,0.51248 0.13808,0.51248 -0.0773,1.45521 -0.0773,1.45521 0.12284,0.46302 0.12283,0.46302 h 0.24675 0.24676 z m -42.150915,-0.90839 0.30969,-0.49591 -0.0731,-0.49628 -0.0731,-0.49628 0.34175,-0.26459 0.34174,-0.26458 0.17545,-0.7276 0.17546,-0.72761 h -0.27133 -0.27133 l -1.21256,0.51977 -1.21256,0.51976 v 0.40628 0.40628 h -0.52917 -0.52917 v 0.12873 0.12873 l 0.99219,0.92244 0.99219,0.92244 0.26708,0.007 0.26709,0.007 z m 36.594665,-0.85941 v -1.09073 l 0.41015,0.3404 0.41016,0.34039 0.37403,-0.37414 0.37402,-0.37415 -0.27997,-0.39687 -0.27997,-0.39688 0.14894,0.46302 0.14895,0.46302 h -0.25628 -0.25628 v -0.52916 -0.52917 h 0.26458 0.26459 v -0.2802 -0.2802 l -0.26459,0.16352 -0.26458,0.16353 v -0.42811 -0.4281 l -0.2463,0.15222 -0.2463,0.15222 -0.19171,-0.31019 -0.19171,-0.3102 0.99996,0.16228 0.99996,0.16227 -0.14411,-0.14412 -0.14412,-0.14411 -0.92254,-0.20807 -0.92254,-0.20806 -0.11328,0.59262 -0.11329,0.59263 -0.0612,1.88754 -0.0612,1.88753 h 0.28233 0.28234 z m -43.038839,-1.44221 -0.144854,-0.37748 h -0.251891 -0.25189 l 0.188787,0.30547 0.188787,0.30546 -0.30978,-0.19145 -0.30978,-0.19146 0.177488,-0.28718 0.177488,-0.28718 -0.305464,0.18879 -0.305463,0.18878 v -0.32429 -0.3243 l -0.139694,0.1397 -0.139695,0.13969 0.265438,0.69815 0.265437,0.69816 h -0.27365 -0.273649 l 0.188787,0.30546 0.188787,0.30546 -0.30978,-0.19145 -0.30978,-0.19146 0.152223,-0.2463 0.152222,-0.2463 h -0.280198 -0.280198 v 0.48507 0.48507 l 0.164946,0.16495 0.164947,0.16494 0.877641,-0.6694 0.877641,-0.66941 z m 41.684619,-0.19465 0.0313,-0.47864 -0.26458,0.16352 -0.26459,0.16352 0.0313,1.10887 0.0313,1.10886 0.20198,-0.79375 0.20197,-0.79375 z m -44.573031,0.67707 0.198437,-0.19844 0.242535,-0.0331 0.242534,-0.0331 0.41249,-0.0331 0.41249,-0.0331 -0.166189,-0.2689 -0.166188,-0.2689 -0.246301,0.15222 -0.246302,0.15223 v -0.25189 -0.2519 l 0.463021,-0.2026 0.463021,-0.2026 0.264583,0.0699 0.264584,0.0699 0.595312,0.005 0.595313,0.005 v 0.26391 0.26391 l 0.355073,-0.29469 0.355073,-0.29468 0.208828,0.19614 0.208828,0.19614 -0.329071,-0.54104 -0.329071,-0.54105 -0.565559,0.0136 -0.56556,0.0136 -0.307502,0.19794 -0.307503,0.19793 0.08882,-0.46428 0.08882,-0.46428 h 0.04049 0.04049 l 0.0908,-0.47779 0.0908,-0.47778 -0.382024,0.31705 -0.382025,0.31705 -0.169995,-0.16999 -0.169995,-0.17 h 0.324295 0.324296 l -0.171346,-0.27724 -0.171346,-0.27724 -0.439581,0.0722 -0.439582,0.0722 -0.371609,-0.23271 -0.37161,-0.23272 0.188787,0.30547 0.188787,0.30546 -1.140094,0.0209 -1.140094,0.0209 0.332377,0.134 0.332378,0.134 -0.149555,0.24198 -0.149555,0.24199 h 0.25815 0.258149 l 0.08819,-0.22909 0.08819,-0.22909 0.529167,0.21049 0.529166,0.2105 -0.595312,0.0186 -0.595313,0.0186 v 0.2802 0.2802 l -0.264583,-0.16353 -0.264583,-0.16352 v 0.62416 0.62416 l -0.330729,0.35631 -0.33073,0.35632 0.328634,-0.18543 0.328634,-0.18543 0.465116,0.27086 0.465116,0.27086 -0.214052,0.008 -0.214052,0.008 0.163521,0.26458 0.163522,0.26459 h 0.204871 0.204871 z m 26.295786,-13.22917 0.079,-7.73906 -0.21181,-9e-5 -0.2118,-8e-5 -0.0412,2.97665 -0.0412,2.97664 -0.14631,6.68752 -0.14632,6.68752 0.18753,0.45623 0.18753,0.45623 0.13276,-2.38125 0.13277,-2.38125 z m -21.245252,11.31321 -0.142326,-0.23029 0.309778,-0.19145 0.30978,-0.19146 -0.17749,0.28718 -0.17748,0.28718 0.24985,0.15442 0.24985,0.15442 0.20132,-0.59916 0.20132,-0.59915 0.0589,-0.33073 0.0589,-0.33073 -0.30731,-0.004 -0.30732,-0.004 0.39687,-0.25648 0.39688,-0.25648 -0.39688,-0.0354 -0.39687,-0.0354 -0.28663,0.0328 -0.286637,0.0328 v -0.38671 -0.38671 l 0.220487,0.13627 0.22049,0.13627 0.0209,-0.34635 0.0209,-0.34634 0.13345,0.33073 0.13345,0.33073 h 0.24253 0.24254 v -0.76136 -0.76135 l -0.39132,-0.32476 -0.39131,-0.32477 0.28013,-0.52342 0.28012,-0.52342 -0.30491,-1.27101 -0.30491,-1.27102 -1.766714,-2.19887 -1.766713,-2.19887 -0.965636,-1.01057 -0.965636,-1.01057 -0.143979,-0.3752 -0.14398,-0.37521 0.296565,-0.0988 0.296564,-0.0989 -0.190307,-0.30792 -0.190308,-0.30793 -1.060171,-0.28547 -1.06017,-0.28548 -0.582304,0.17729 -0.582304,0.17729 -0.500522,0.43173 -0.500521,0.43172 -0.621373,1.32292 -0.621373,1.32291 -0.0026,1.38371 -0.0026,1.38371 0.426568,1.0661 0.426568,1.0661 0.631765,0.15856 0.631765,0.15857 v 0.35257 0.35258 l 0.287637,0.17777 0.287637,0.17777 0.307676,-0.31012 0.307675,-0.31012 -0.463021,0.17627 -0.46302,0.17627 0.0041,-0.22674 0.0041,-0.22675 0.215539,-0.33969 0.215539,-0.33969 0.425161,0.16315 0.425161,0.16315 -0.143892,0.37498 -0.143893,0.37498 h 0.268121 0.26812 l -0.13838,0.52917 -0.13838,0.52916 -0.167579,-0.004 -0.167579,-0.004 -0.372881,-0.23605 -0.372882,-0.23606 -0.376907,0.14464 -0.376907,0.14463 0.352914,0.22371 0.352913,0.22371 -0.711989,0.004 -0.711989,0.004 -0.188787,0.30546 -0.188787,0.30546 0.305463,-0.18878 0.305464,-0.18879 v 0.17164 0.17164 l -0.595312,0.52559 -0.595313,0.52559 0.314468,-0.15801 0.314468,-0.15802 0.272799,0.46859 0.272799,0.46858 0.008,-0.2849 0.008,-0.28491 0.787169,0.11554 0.787169,0.11553 -0.567039,0.45916 -0.56704,0.45916 0.624656,-0.046 0.624657,-0.046 0.101021,-0.30306 0.10102,-0.30307 0.638998,0.41869 0.638998,0.41869 0.163295,-0.42554 0.163294,-0.42554 h 0.251891 0.251891 l -0.144993,0.23461 -0.144994,0.2346 0.414127,0.3437 0.414127,0.34369 0.217622,-0.35212 0.217622,-0.35212 0.128396,0.50143 0.128396,0.50142 0.03069,-0.83283 0.03069,-0.83283 0.945601,0.0632 0.945601,0.0632 0.443461,0.42032 0.443462,0.42031 0.341161,0.41549 0.34116,0.41549 -0.34116,0.008 -0.341161,0.008 0.529166,0.42406 0.529167,0.42405 -0.463021,-0.15958 -0.463021,-0.15958 v 0.49922 0.49922 l 0.139193,0.36273 0.139192,0.36273 0.527985,0.0398 0.527981,0.0398 z m -5.809513,-7.89968 -0.155228,-0.48908 0.400352,-0.76769 0.400351,-0.7677 0.0097,-0.66145 0.0097,-0.66146 0.269685,0.46302 0.269684,0.46302 h 0.383728 0.383728 v 0.11984 0.11984 l -0.311711,0.68413 -0.311711,0.68414 -0.341274,-0.13096 -0.341274,-0.13096 -0.181645,0.29391 -0.181646,0.2939 0.305464,-0.18878 0.305464,-0.18879 v 0.25856 0.25856 l -0.160599,0.41851 -0.160599,0.41852 h -0.218447 -0.218446 z m -2.442369,-1.61989 -0.284315,-0.75324 0.125126,-0.65455 0.125125,-0.65455 -0.289499,-0.17892 -0.289499,-0.17892 v -0.24897 -0.24897 l 0.463021,-0.008 0.463021,-0.008 -0.463021,-0.26968 -0.463021,-0.26969 v -0.35542 -0.35542 l 0.399769,-0.1534 0.399769,-0.15341 0.857002,0.1573 0.857001,0.1573 -0.529166,-0.41272 -0.529167,-0.41272 0.503443,-0.37309 0.503442,-0.3731 -0.203963,-0.33002 -0.203964,-0.33002 -0.899306,0.10499 -0.899306,0.10499 0.09104,-0.27813 0.09104,-0.27813 0.86847,-0.0851 0.868471,-0.0851 0.632508,0.59421 0.632507,0.59421 v 0.54119 0.5412 l -0.838815,0.71591 -0.838816,0.71592 -0.06937,0.615 -0.06937,0.61499 -0.185244,1.26285 -0.185244,1.26285 -0.177676,0.10981 -0.177675,0.1098 z m 43.613339,5.41626 0.0913,-0.52917 0.25033,-0.17997 0.25033,-0.17998 0.49687,0.26592 0.49687,0.26591 0.14355,-0.54896 0.14356,-0.54896 h 0.61439 0.61439 l 0.17589,-1.25677 0.1759,-1.25677 0.50097,-2.64584 0.50098,-2.64583 8e-4,-2.80085 8e-4,-2.80085 -2.07664,-0.038 -2.07663,-0.038 -0.16638,3.23575 -0.16638,3.23574 -0.17433,4.63021 -0.17433,4.63021 0.14323,-0.13229 0.14323,-0.1323 z m 2.00293,-13.37642 0.14229,-0.54414 0.37585,0.14423 0.37584,0.14423 -0.1683,-0.27232 -0.1683,-0.27232 -0.5069,0.16089 -0.5069,0.16088 v -0.39665 -0.39666 l 0.7276,0.076 0.72761,0.076 0.0746,0.89813 0.0746,0.89813 -0.24001,-0.35898 -0.24,-0.35898 -0.18098,0.29284 -0.18098,0.29283 h -0.2242 -0.2242 z m -6.91981,13.13073 0.37797,-0.37797 v -0.27518 -0.27518 l 0.39688,0.1523 0.39687,0.15229 v -0.28224 -0.28224 l -0.76797,0.0555 -0.76797,0.0555 0.12213,0.19844 0.12213,0.19844 h -0.2235 -0.22351 v 0.52916 0.52917 h 0.0945 0.0945 z m 3.1032,-9.87462 0.13331,-4.82865 h -1.44488 -1.44489 l 0.17069,0.27617 0.17068,0.27618 -0.27222,0.32801 -0.27223,0.32801 0.23431,0.37913 0.23432,0.37913 -0.2623,0.31605 -0.2623,0.31604 0.27744,0.17146 0.27743,0.17147 v 0.24066 0.24067 l -0.43941,-0.16862 -0.4394,-0.16861 0.15015,0.57415 0.15014,0.57416 -0.20983,-0.12968 -0.20983,-0.12968 -0.1376,0.52619 -0.1376,0.52619 h 1.01192 1.01193 l 0.42527,0.16319 0.42526,0.16319 -0.26343,0.31742 -0.26343,0.31742 -0.0657,0.86242 -0.0657,0.86243 -0.20678,0.12779 -0.20677,0.12779 v -0.41249 -0.41249 h -0.2359 -0.2359 l -0.15937,-0.635 -0.15938,-0.635 h -0.9037 -0.9037 l -0.12212,0.46698 -0.12212,0.46698 0.0779,1.16021 0.0779,1.1602 0.18153,0.99219 0.18153,0.99219 h 0.214 0.21399 l 0.38706,0.14853 0.38705,0.14852 0.58072,-1.19961 0.58072,-1.19961 -0.19326,-0.31271 -0.19327,-0.31271 0.30547,0.18878 0.30546,0.18879 v 1.12699 1.12699 l 0.36933,1.30479 0.36932,1.30479 0.20879,0.79375 0.20878,0.79375 0.18869,-2.77812 0.18868,-2.77813 z m -25.600595,9.17634 0.1746,-0.28252 0.0262,-0.92592 0.0263,-0.92592 -0.25138,-0.18063 -0.25138,-0.18063 -0.34358,-0.43946 -0.34357,-0.43947 0.31831,-0.19672 0.31831,-0.19673 -0.17749,0.28718 -0.17749,0.28718 0.23882,0.1476 0.23882,0.1476 0.18018,-0.59234 0.18018,-0.59234 0.13653,0.33073 0.13654,0.33073 h 0.25815 0.25815 l -0.16353,-0.26458 -0.16352,-0.26458 h 0.26237 0.26237 l 0.17206,-0.54213 0.17206,-0.54212 -0.39602,-0.6044 -0.39602,-0.60441 h -0.40803 -0.40803 l 0.12449,0.20144 0.1245,0.20143 -0.56604,0.17966 -0.56604,0.17965 -0.21817,-0.353 -0.21816,-0.353 0.37573,-0.41518 0.37574,-0.41519 -0.14068,-0.77585 -0.14069,-0.77584 -0.30251,-0.18696 -0.30251,-0.18696 -0.40895,0.23064 -0.40895,0.23064 v 1.11647 1.11648 l -0.61003,0.0478 -0.61004,0.0479 -0.5223,-0.664 -0.5223,-0.664 0.30634,-0.18933 0.30634,-0.18933 -0.18447,-0.29848 -0.18448,-0.29848 -0.2463,0.15222 -0.2463,0.15222 v -0.71808 -0.71808 l -0.52916,0.47889 -0.52917,0.47889 v -0.29729 -0.29728 l -0.3755,0.14409 -0.3755,0.14409 -0.69719,-0.45681 -0.697185,-0.45682 -0.148797,0.56901 -0.148797,0.569 h -0.24934 -0.249339 l 0.148231,0.23984 0.148231,0.23984 -0.654904,-0.30599 -0.654904,-0.30599 0.554319,-0.13616 0.554319,-0.13617 -0.825781,-0.884 -0.825781,-0.884 -0.0084,0.22642 -0.0084,0.22641 -0.38846,-0.51359 -0.38846,-0.51359 v 0.17632 0.17631 l -0.661459,-0.25149 -0.661458,-0.25148 v 0.25803 0.25804 h 0.396875 0.396875 v 0.26458 0.26458 h -0.315986 -0.315987 l 0.855225,0.63097 0.855224,0.63096 0.86583,1.15498 0.86583,1.15497 1.415909,1.90636 1.41591,1.90637 0.35402,0.13585 0.35403,0.13585 v -0.25628 -0.25628 h 0.29265 0.29265 l 0.50432,0.64115 0.50432,0.64114 0.78612,0.17266 0.78613,0.17266 0.10891,-0.0862 0.10892,-0.0862 0.55695,0.50403 0.55694,0.50403 v 0.44406 0.44406 l 0.17639,0.17639 0.17639,0.17639 h 0.20487 0.20487 z m -2.48227,-3.48514 -0.30694,-0.30693 v -0.34396 -0.34396 h 0.20094 0.20094 l 0.32281,0.5169 0.32281,0.5169 -0.21681,0.134 -0.21681,0.13399 z m -33.902266,-3.58016 -0.27783,-0.4574 0.047,2.51354 0.047,2.51354 0.15464,0.39688 0.15465,0.39687 0.0761,-2.45301 0.0761,-2.45301 z m -0.60644,0.93866 -0.10162,-1.13148 -0.002,2.11667 -0.002,2.11667 0.10337,-0.9852 0.10337,-0.98519 z m 5.02883,-4.89213 -0.0958,-1.53101 -0.001,2.91041 -10e-4,2.91042 0.0968,-1.3794 0.0968,-1.3794 z"
       id="path18" /></g></svg>
