<?xml version="1.0" encoding="UTF-8" standalone="no"?>
<!-- Created with Inkscape (http://www.inkscape.org/) -->

<svg
   width="101.59999mm"
   height="84.666664mm"
   viewBox="0 0 101.59999 84.666664"
   version="1.1"
   id="svg1"
   xml:space="preserve"
   xmlns="http://www.w3.org/2000/svg"
   xmlns:svg="http://www.w3.org/2000/svg"><defs
     id="defs1" /><g
     id="layer1"
     transform="translate(-36.808068,-24.630449)"><path
       style="fill:#ffffff;fill-opacity:1"
       d="M 36.808067,66.96378 V 24.63045 h 50.799995 50.799998 v 42.33333 42.33333 H 87.608062 36.808067 Z m 53.644266,35.82702 0.595313,-0.38506 v -0.20791 -0.20791 l -0.368244,-0.50361 -0.368244,-0.5036 -0.425506,0.35314 -0.425506,0.35314 v 0.49677 0.49677 h -0.396875 -0.396875 v -0.4786 -0.4786 l -0.357712,-0.4892 -0.357712,-0.4892 -0.171219,0.68219 -0.171219,0.68219 0.178903,0.48405 0.178902,0.48404 0.283883,0.20107 0.283882,0.20107 0.661458,-0.15284 0.661459,-0.15284 z m -0.316961,-3.0055 -0.08429,-0.14548 -0.31918,-1.9171 -0.319181,-1.9171 -0.785269,-0.55916 -0.785268,-0.55916 -0.145517,0.14552 -0.145517,0.14551 0.32616,1.4047 0.32616,1.4047 0.52129,1.37555 0.521291,1.37554 0.486811,-0.30402 0.486811,-0.30402 z m -15.3785,0.1002 0.415774,-0.41577 v -0.51027 -0.51027 h 0.264583 0.264584 V 98.05232 97.65544 H 75.469626 75.23744 l -0.329377,0.39688 -0.329377,0.39687 h -0.49677 -0.49677 v 0.37483 0.37483 l 0.330729,0.15434 0.330729,0.15434 -0.330729,0.15434 -0.330729,0.15434 v 0.24253 0.24254 h 0.377976 0.377976 z m 23.646338,-3.00116 -0.07952,-0.68411 -0.444346,-0.003 -0.444347,-0.003 -0.188835,-0.18884 -0.188835,-0.18883 0.368598,-0.11877 0.368599,-0.11877 1.25677,-0.16826 1.256776,-0.16825 v -0.38066 -0.38067 h 0.28348 0.28348 l 0.39688,0.39688 0.39687,0.39687 0.44412,-0.004 0.44413,-0.004 0.38921,-0.24615 0.38921,-0.24614 -0.15408,-0.15408 -0.15408,-0.15408 -0.68879,0.26187 -0.68878,0.26188 -0.1383,-0.22377 -0.13829,-0.22376 0.83602,-0.3463 0.83603,-0.34629 0.86049,0.058 0.8605,0.0579 0.14104,-0.22821 0.14104,-0.22821 1.26793,-0.0425 1.26793,-0.0425 0.79375,-0.16364 0.79375,-0.16365 0.29338,-0.23543 0.29338,-0.23543 1.54106,-0.5302 1.54106,-0.53021 0.4775,0.15156 0.4775,0.15155 0.86306,-0.47638 0.86306,-0.47639 0.59542,-0.5127 0.59542,-0.51271 1.56946,-1.07826 1.56945,-1.07825 2.03964,-1.71979 2.03963,-1.71979 0.82257,-0.72338 0.82258,-0.72338 0.17953,-0.004 0.17954,-0.004 0.34963,-0.33382 0.34963,-0.33381 0.66146,-0.32573 0.66146,-0.32572 0.39687,-0.23557 0.39688,-0.23557 0.71611,-0.22937 0.71611,-0.22937 2.64559,-2.33458 2.64559,-2.33458 0.62299,-1.11465 0.62299,-1.11465 0.32676,-1.18098 0.32676,-1.18098 -0.24936,-1.73483 -0.24937,-1.73482 -0.55537,-0.91101 -0.55537,-0.911 -9.9e-4,-0.50985 -9.9e-4,-0.50984 -1.04471,-2.15837 -1.04471,-2.15837 -1.1957,-1.3299 -1.1957,-1.32991 -1.2048,-0.33732 -1.2048,-0.33732 -1.78031,0.17922 -1.78031,0.17923 -1.05833,0.27951 -1.05833,0.2795 -1.08551,0.49213 -1.08551,0.49213 -1.82491,1.64719 -1.82491,1.6472 -0.60336,0.80751 -0.60336,0.80751 -0.28377,0.94715 -0.28378,0.94716 -1.09724,1.13544 -1.09724,1.13544 -2.77812,2.02487 -2.77813,2.02487 -1.42643,0.73174 -1.42644,0.73173 -0.0894,-0.0894 -0.0894,-0.0894 1.31736,-2.70444 1.31736,-2.70443 v -0.34692 -0.34692 l 0.5118,-0.46318 0.51181,-0.46317 0.91592,-1.92868 0.91593,-1.92869 0.18797,-0.59223 0.18797,-0.59224 0.53704,-0.91021 0.53704,-0.91022 0.28143,0.28143 0.28142,0.28142 h 0.31283 0.31283 l 1.12329,-1.12328 1.12328,-1.12328 2.0167,-2.37412 2.0167,-2.37413 0.8099,-0.80207 0.80991,-0.80207 1.23847,-1.07458 1.23847,-1.07458 1.44951,1.52241 1.4495,1.52241 1.65843,1.12622 1.65842,1.12621 1.16289,1.07179 1.16288,1.07178 1.10924,1.45521 1.10925,1.45521 0.18456,0.50089 0.18457,0.50089 0.16009,-0.16009 0.16009,-0.16009 -0.83647,-2.49856 -0.83646,-2.49856 -0.0446,-0.75266 -0.0446,-0.75265 0.20464,-1.52136 0.20465,-1.52135 -0.34977,-0.028 -0.34977,-0.028 -0.7276,0.048 -0.72761,0.048 0.003,-0.21838 0.003,-0.21838 0.92348,-1.16171 0.92347,-1.16172 v -0.83511 -0.83511 l -1.05833,-1.03343 -1.05833,-1.03344 v -0.63392 -0.63392 l 0.44161,-0.93063 0.44161,-0.93063 1.0235,-0.74142 1.0235,-0.74142 1.11457,-0.16803 1.11458,-0.16804 0.7276,-0.13915 0.72761,-0.13915 V 32.416 25.42557 l -3.77031,0.001 -3.77032,10e-4 0.79375,0.65389 0.79375,0.65389 -0.39687,0.26387 -0.39688,0.26387 -0.0862,-0.3935 -0.0862,-0.3935 -0.8398,-0.44053 -0.8398,-0.44053 -3.80511,-0.11942 -3.80511,-0.11941 -2.80948,0.33231 -2.80947,0.33231 -1.44202,0.63697 -1.44202,0.63696 -0.10138,0.10138 -0.10138,0.10138 0.49641,0.49642 0.49642,0.49642 0.7824,0.29004 0.7824,0.29004 1.02981,0.0402 1.0298,0.0402 0.47416,0.25377 0.47416,0.25376 0.48041,0.008 0.48041,0.008 0.66179,0.58695 0.66178,0.58695 1.27364,1.56672 1.27364,1.56671 -0.0699,1.13666 -0.0699,1.13666 0.185,0.18499 0.18499,0.185 v 0.95536 0.95537 l -0.3574,0.52189 -0.3574,0.52189 -0.1931,0.79254 -0.1931,0.79253 -0.007,3.57309 -0.007,3.57309 -1.57214,0.99219 -1.57213,0.99219 h -0.25146 -0.25147 v 0.39687 0.39688 l -0.19844,10e-4 -0.19843,0.001 -3.25656,3.17369 -3.25656,3.17368 h -0.39148 -0.39147 l 0.0762,-0.69186 0.0762,-0.69186 -0.39688,-0.20592 -0.39687,-0.20592 -0.66146,-0.29093 -0.66146,-0.29092 -0.52917,-0.30823 -0.52916,-0.30823 -0.39688,-0.1759 -0.39687,-0.1759 -0.70244,-1.30373 -0.70243,-1.30373 -0.85011,-2.64583 -0.85012,-2.64583 -0.18888,-0.39688 -0.18889,-0.39687 -0.5564,-0.25374 -0.5564,-0.25375 -0.27553,-0.60471 -0.27552,-0.60472 0.15903,-0.79519 0.15904,-0.79519 h 0.19901 0.19901 l -0.12947,-1.25677 -0.12947,-1.25677 -0.3672,-0.29375 -0.36719,-0.29375 v -0.34687 -0.34688 l 0.39467,-0.4361 0.39466,-0.4361 0.25172,-1.32729 0.25171,-1.32728 -0.11151,-1.43245 -0.11151,-1.43244 0.39345,-1.37147 0.39344,-1.37147 0.70261,-0.835 0.70261,-0.835 0.81647,0.17304 0.81647,0.17303 1.19063,0.1436 1.19062,0.14359 0.29983,0.24295 0.29983,0.24294 0.16588,-0.43226 0.16587,-0.43226 0.90602,0.10577 0.90601,0.10577 0.27964,-0.61373 0.27963,-0.61373 0.46531,-0.17765 0.46531,-0.17766 0.51291,-0.47638 0.51292,-0.47637 h -8.22721 -8.227204 l 0.137602,0.52619 0.137602,0.52619 0.168357,-0.10406 0.168357,-0.10407 -0.09356,1.17502 -0.09356,1.17502 -0.396903,-0.3294 -0.396904,-0.3294 0.134553,-1.00316 0.134552,-1.00317 h -0.239406 -0.239407 v 1.30509 1.30509 l 0.529167,0.16795 0.529167,0.16795 0.02089,0.84206 0.02089,0.84207 0.133452,-0.33073 0.133452,-0.33073 h 0.251844 0.251844 l -0.311833,0.58267 -0.311834,0.58266 0.302525,0.10084 0.302524,0.10085 v 0.63941 0.63941 h 0.286632 0.286632 l -0.110244,0.33072 -0.110243,0.33073 h -0.30868 -0.308681 l 0.0023,0.2618 0.0023,0.26179 0.437984,0.003 0.437983,0.003 0.110972,0.33073 0.110972,0.33073 H 99.240752 98.65714 l 0.363126,0.44766 0.363126,0.44767 -0.310705,-0.18632 -0.310705,-0.18632 -0.102135,0.46626 -0.102135,0.46626 0.257902,0.59757 0.257902,0.59757 -0.302004,0.59305 -0.302003,0.59306 0.05271,0.39687 0.05271,0.39688 -0.219553,1.93438 -0.219553,1.93439 0.486465,0.35571 0.486464,0.35571 -0.722572,-0.13813 -0.722573,-0.13813 v 0.31105 0.31104 l 0.264583,-0.16352 0.264584,-0.16353 -0.0084,0.47864 -0.0084,0.47864 -0.348475,0.4589 -0.348476,0.45891 -0.172276,-0.17227 -0.172277,-0.17228 v 0.30868 0.30868 h 0.239813 0.239814 l -0.138381,0.52917 -0.13838,0.52916 h 0.295442 0.295442 l 0.02089,-0.33072 0.02089,-0.33073 0.145928,0.39687 0.145928,0.39688 0.413662,0.4744 0.413662,0.47441 -0.448187,-0.17199 -0.448186,-0.17198 v 0.23997 0.23998 l 0.330729,0.33317 0.330729,0.33318 -0.463021,-0.17628 -0.463021,-0.17627 v 0.17799 0.178 l 0.263635,0.4926 0.263634,0.49261 -0.15965,0.41604 -0.15965,0.41604 h -0.384183 -0.384182 l 0.152222,-0.2463 0.152223,-0.2463 -0.268899,-0.16619 -0.2689,-0.16619 v 0.54478 0.54478 l 1.256771,0.0472 1.256771,0.0472 h 0.444075 0.44408 l -0.576369,0.73194 -0.576369,0.73194 -0.274425,0.0146 -0.274425,0.0146 -0.03619,0.48039 -0.03619,0.48039 0.802945,-0.11784 0.802943,-0.11785 0.22562,0.36506 0.22562,0.36506 h 0.27424 0.27423 l -0.0662,0.26459 -0.0661,0.26458 -0.52916,0.0287 -0.52917,0.0287 -0.264587,0.0455 -0.264583,0.0455 0.46302,0.26969 0.46302,0.26968 v 0.39934 0.39935 l 0.26459,-0.16352 0.26458,-0.16353 v 0.2719 0.27189 l 0.46302,-0.16885 0.46302,-0.16885 -0.49903,0.56851 -0.49904,0.56852 0.43289,0.16611 0.43289,0.16612 v 0.50086 0.50086 h 0.26458 0.26459 v 0.36819 0.36819 l 0.68918,0.17297 0.68918,0.17298 -0.13948,0.53335 -0.13947,0.53335 0.37633,0.14442 0.37634,0.14441 v 0.48771 0.48772 l -0.46302,0.2977 -0.46302,0.29771 0.45455,-0.14071 0.45454,-0.14072 0.17063,0.27609 0.17063,0.27608 -0.25515,0.25515 -0.25515,0.25515 0.12677,0.66318 0.12678,0.66319 0.38039,-0.14598 0.3804,-0.14597 -0.1779,0.56053 -0.17791,0.56054 0.35904,0.23155 0.35905,0.23155 -0.39688,0.26961 -0.39687,0.26961 0.49488,0.37817 0.49489,0.37817 0.89417,-0.0704 0.89418,-0.0704 v 0.19097 0.19098 l -0.94533,1.67906 -0.94534,1.67906 -0.60916,0.66146 -0.60917,0.66146 -2.41218,3.57187 -2.412186,3.57188 -1.4669,0.89971 -1.4669,0.8997 -0.850272,0.0748 -0.850272,0.0748 -1.719792,0.31161 -1.719791,0.3116 -1.455209,0.69829 -1.455208,0.69829 -2.248958,-0.0748 -2.248958,-0.0748 -1.190625,0.31034 -1.190625,0.31035 -0.299438,0.36752 -0.299438,0.36752 -0.14119,-0.36794 -0.141191,-0.36794 -0.551924,-0.14433 -0.551925,-0.14433 0.148272,0.23991 0.148272,0.23991 H 79.702048 79.437465 L 79.273944,83.36788 79.110422,83.1033 H 78.724121 78.33782 l 0.156469,0.62342 0.15647,0.62343 -0.480977,0.48097 -0.480976,0.48098 0.834782,-0.16696 0.834782,-0.16695 0.149176,0.38874 0.149176,0.38875 -0.720556,-0.16841 -0.720556,-0.16842 0.449742,0.47314 0.449742,0.47314 0.344008,-0.27316 0.344008,-0.27317 0.859896,-0.0171 0.859896,-0.0171 v 0.37087 0.37088 l 0.394645,-0.15144 0.394644,-0.15144 0.16283,0.42432 0.162829,0.42433 h 0.485244 0.485245 l 0.166189,0.2689 0.166188,0.2689 0.246301,-0.15222 0.246302,-0.15223 v 0.25221 0.25221 l 0.595312,0.0103 0.595313,0.0103 1.852083,0.15905 1.852083,0.15905 0.859896,0.0372 0.859896,0.0372 v 0.1816 0.1816 l 0.727604,-0.13825 0.727604,-0.13825 -0.321942,0.3899 -0.321942,0.3899 0.843022,1.04181 0.843021,1.04181 0.283541,0.18065 0.283541,0.18065 0.06394,0.94939 0.06394,0.94939 0.217932,0.58975 0.217931,0.58975 -0.116351,0.33073 -0.116351,0.33073 H 94.089084 93.734777 L 93.429156,94.34811 93.123534,93.42207 H 92.87947 92.635406 v 0.3638 0.3638 l 0.162486,0.81244 0.162487,0.81243 0.795667,0.17476 0.795667,0.17475 0.122466,0.46831 0.122465,0.46831 0.613944,0.32857 0.613943,0.32858 0.226987,-0.14029 0.226986,-0.14028 0.65736,0.35181 0.65736,0.3518 0.344884,-0.28623 0.344885,-0.28622 z m -6.207688,-9.3202 -0.28799,-0.35974 -0.455536,-0.89625 -0.455536,-0.89624 -0.702012,-0.65487 -0.702011,-0.65487 0.529167,0.0979 0.529167,0.0979 1.013488,1.52165 1.013488,1.52164 -0.09712,0.29135 -0.09712,0.29135 z m -15.179107,8.96682 0.0083,-0.19843 h -0.677073 -0.677073 l 0.146387,0.23686 0.146387,0.23685 -0.454086,0.17425 -0.454087,0.17425 0.369136,0.22814 0.369136,0.22814 0.607322,-0.44081 0.607322,-0.44081 z m 10.062481,-0.19843 v -0.52917 l -0.463021,-0.0314 -0.463021,-0.0314 -0.35201,0.0478 -0.352011,0.0478 -0.590487,-0.3869 -0.590488,-0.3869 H 83.29139 82.314921 l -0.149836,0.24244 -0.149837,0.24244 -0.246301,-0.15222 -0.246301,-0.15223 v 0.16681 0.1668 l 0.361292,0.3613 0.361291,0.36129 0.763188,-0.0112 0.763187,-0.0112 0.661459,0.27569 0.661458,0.27569 0.992187,0.0168 0.992188,0.0168 z m -5.55625,-1.50578 v -0.34631 h -0.264583 -0.264584 l -0.0036,0.19844 -0.0036,0.19844 -0.148317,0.66146 -0.148316,0.66145 0.416513,-0.51359 0.416512,-0.51359 z m -9.274216,-4.56551 0.383076,-0.24236 -0.713213,-0.179 -0.713214,-0.17901 -0.414236,0.15896 -0.414237,0.15896 0.164677,0.26645 0.164676,0.26645 0.579698,-0.004 0.579697,-0.004 z m -2.484166,-0.93176 0.51359,-0.38846 -0.579697,-0.008 -0.579698,-0.008 -0.163521,-0.26458 -0.163522,-0.26458 h -0.224075 -0.224075 l 0.305836,0.65939 0.305836,0.65939 0.147868,0.002 0.147867,0.002 z m 1.757892,-1.39043 -0.07862,-0.8004 1.004657,-0.41651 1.004657,-0.41651 -0.586003,-0.0136 -0.586004,-0.0136 -0.290541,-0.54288 -0.290542,-0.54288 -1.173975,0.17605 -1.173976,0.17604 v -0.32505 -0.32506 l -0.661459,0.43341 -0.661458,0.4334 v -0.18451 -0.18451 l -0.661458,0.62141 -0.661459,0.6214 v 0.33293 0.33292 l 0.58361,0.18523 0.583609,0.18523 0.0999,-0.29969 0.0999,-0.29969 h 0.242535 0.242535 l 0.01388,0.46302 0.01388,0.46302 0.415268,-0.59531 0.415269,-0.59531 h 0.232312 0.232311 v 0.33323 0.33323 l 0.529167,0.33047 0.529167,0.33047 v 0.41668 0.41668 l 0.330729,-0.11442 0.330729,-0.11442 z m 2.319911,-2.37376 0.124629,-0.10945 -0.352355,-0.21777 -0.352356,-0.21777 -0.499878,0.13072 -0.499878,0.13072 v 0.37106 0.37106 l 0.727605,-0.17455 0.727604,-0.17456 z m 3.182662,-0.59047 v -0.2452 l -0.798205,-0.3982 -0.798206,-0.3982 0.191061,0.31268 0.191061,0.31267 0.276416,0.32066 0.276415,0.32067 0.330729,0.0101 0.330729,0.0101 z M 66.441396,84.55857 v -0.39688 h 0.368568 0.368567 l 0.152295,-0.39687 0.152296,-0.39688 h -0.127578 -0.127578 l -0.53365,0.33073 -0.533649,0.33073 -0.227585,-0.36569 -0.227586,-0.36568 -0.178295,0.56175 -0.178295,0.56176 0.164985,0.26695 0.164985,0.26695 h 0.38126 0.38126 z M 71.468479,84.171 v -0.25527 l -0.535413,-0.28655 -0.535413,-0.28654 -0.390629,0.39063 -0.390628,0.39063 v 0.15119 0.15119 h 0.926042 0.926041 z m -2.331265,-5.81248 0.114041,0.34213 0.450299,-0.1728 0.4503,-0.1728 -0.167688,-1.42675 -0.167687,-1.42676 0.291415,-0.18011 0.291415,-0.1801 -0.239851,-0.45076 -0.239851,-0.45075 -0.143301,-0.46302 -0.143302,-0.46302 h -0.242846 -0.242845 l -0.171657,1.14469 -0.171656,1.14469 0.16506,0.43014 0.16506,0.43014 -0.217009,0.3434 -0.21701,0.3434 -0.04179,0.76207 -0.04179,0.76207 0.203328,-0.32899 0.203328,-0.32899 z m 6.740326,-5.953 -0.15912,-0.41466 h -0.272887 -0.272887 v 0.48507 0.48507 l 0.180799,0.1808 0.180798,0.1808 0.251209,-0.25121 0.251208,-0.25121 z m -4.723932,-1.27456 0.08909,-0.46302 h -0.253125 -0.253125 l -0.138666,-0.53025 -0.138666,-0.53026 -0.434799,0.16685 -0.4348,0.16684 0.175165,-0.69791 0.175166,-0.69791 -0.441515,0.16942 -0.441514,0.16943 0.132634,0.34563 0.132634,0.34564 -0.304606,0.10154 -0.304607,0.10153 0.584053,0.62691 0.584053,0.62691 v 0.31086 0.31086 l 0.591771,-0.03 0.59177,-0.03 z m 8.801782,-2.16076 0.02024,-0.55121 0.111683,-0.52917 0.111683,-0.52917 0.09352,-0.68954 0.09352,-0.68955 0.175746,-0.28436 0.175745,-0.28436 -0.2689,-0.16619 -0.268899,-0.16619 v 0.48638 0.48637 l -0.529166,0.3814 -0.529167,0.3814 v 0.50316 0.50315 l -0.355073,-0.29468 -0.355074,-0.29469 -0.174093,0.1741 -0.174093,0.17409 v 0.83785 0.83784 l 0.132291,0.13229 0.132292,0.1323 h 0.79375 0.79375 z m -4.782744,-0.022 v -0.39687 h 0.242535 0.242534 l 0.140015,0.33073 0.140016,0.33073 -0.09378,-3.3073 -0.09378,-3.30729 -0.07432,-3.63869 -0.07432,-3.63869 -1.091729,-0.5285 -1.091728,-0.52849 H 73.10116 72.78423 L 72.324799,54.01206 71.865368,53.7603 70.861884,53.3151 69.8584,52.8699 l -0.601069,0.56467 -0.601068,0.56467 h -0.275151 -0.275151 l 0.07218,1.80525 0.07218,1.80525 -0.176853,0.28474 -0.176853,0.28475 -0.661458,0.0928 -0.661458,0.0928 -0.0108,0.75683 -0.0108,0.75683 -0.462666,0.3383 -0.462666,0.33831 0.457363,0.45737 0.457364,0.45736 0.479121,0.89394 0.47912,0.89393 v 0.44193 0.44194 l 0.170406,-0.17041 0.170405,-0.17041 0.0648,-1.26275 0.0648,-1.26275 h 0.31183 0.311831 l 0.09488,1.55472 0.09488,1.55473 0.284125,0.28413 0.284125,0.28412 v -0.34989 -0.3499 l 0.410267,0.34049 0.410266,0.34049 0.149759,-0.57267 0.149759,-0.57268 h 0.264583 0.264583 l -0.143845,0.55006 -0.143846,0.55007 0.39921,-0.15319 0.39921,-0.15319 h 0.271626 0.271627 L 71.901208,63.96972 71.7474,63.3569 l 0.389304,-0.55581 0.389303,-0.55581 -0.776856,-0.34387 -0.776856,-0.34387 0.777261,-0.32681 0.777261,-0.32681 v -0.63375 -0.63375 l -0.499195,-0.57557 -0.499194,-0.57558 0.07397,-1.17525 0.07398,-1.17526 0.425219,-0.42522 0.42522,-0.42522 0.368768,0.36877 0.368768,0.36877 -0.08261,1.10762 -0.08261,1.10762 0.243007,-0.15019 0.243008,-0.15019 0.03135,0.74322 0.03135,0.74322 -0.02723,0.26459 -0.02723,0.26458 0.825922,0.0583 0.825922,0.0583 0.161728,0.16173 0.161728,0.16173 -0.528751,0.38791 -0.52875,0.38791 -0.463021,-0.12019 -0.463021,-0.12019 v 0.63669 0.63669 h 0.38126 0.38126 l 0.1399,0.22636 0.1399,0.22636 -0.653452,-0.12491 -0.653451,-0.12492 -0.0041,0.62616 -0.0041,0.62616 -0.236053,0.37288 -0.236052,0.37288 0.141359,0.36838 0.14136,0.36837 0.753747,-0.16555 0.753747,-0.16555 0.273877,0.16927 0.273876,0.16926 -0.399712,0.57067 -0.399713,0.57067 v 0.20571 0.20571 h 0.396875 0.396875 v 0.37524 0.37523 l 0.172316,0.44905 0.172315,0.44905 -0.56919,-0.18065 -0.569191,-0.18066 v 0.5029 0.5029 l 0.176389,0.17639 0.176389,0.17639 h 0.220486 0.220486 z m -16.951929,-2.01484 0.0186,-1.22109 -0.536206,-0.68167 -0.536206,-0.68168 -0.409088,-0.97908 -0.409087,-0.97908 0.160707,-0.64031 0.160706,-0.64031 -1.927392,-1.90415 -1.927392,-1.90415 -1.647608,-1.47565 -1.64761,-1.47565 -0.50072,-0.63867 -0.50073,-0.63867 -0.18779,-0.85989 -0.1878,-0.8599 h 0.31392 0.31391 l -0.17458,0.45496 -0.17459,0.45495 0.18569,-0.18568 0.18569,-0.18569 0.29132,-0.4993 0.29131,-0.4993 0.47548,-0.83924 0.47547,-0.83925 0.33743,-2.30416 0.33744,-2.30416 -0.2176,-0.0882 -0.21759,-0.0882 v -0.62219 -0.62218 l -0.25921,-0.68178 -0.25921,-0.68177 0.28207,-1.38597 0.28207,-1.38597 0.21305,-0.99009 0.21306,-0.99008 -0.23591,0.1458 -0.23592,0.1458 -0.0247,-0.21405 -0.0247,-0.21405 -0.0853,-1.17783 -0.0853,-1.17784 -0.36012,-0.27737 -0.36013,-0.27738 0.007,-0.52916 0.007,-0.52917 -0.26459,-0.19439 -0.26458,-0.19438 -0.20348,-0.004 -0.20348,-0.004 0.16602,0.66145 0.16602,0.66146 h -0.42556 -0.42556 v 0.92604 0.92604 h -0.38126 -0.38126 l -0.18104,0.29293 -0.18104,0.29293 0.53097,-0.16852 0.53096,-0.16852 0.15015,0.39128 0.15015,0.39129 -0.44954,-0.16097 -0.44955,-0.16098 0.19614,0.21625 0.19615,0.21625 -0.30217,0.36409 -0.30217,0.3641 0.34917,0.65244 0.34917,0.65243 h 0.21988 0.21987 v -0.37482 -0.37483 l -0.32836,-0.10945 -0.32837,-0.10946 0.46746,-0.46746 0.46745,-0.46745 0.45623,0.17688 0.45622,0.17689 -0.46762,0.34436 -0.46762,0.34436 0.17777,0.46325 0.17776,0.46324 -0.44737,0.25036 -0.44738,0.25037 0.0595,1.00906 0.0595,1.00906 0.4131,-0.0641 0.41311,-0.0641 0.19439,0.29325 0.19438,0.29325 0.004,0.3435 0.004,0.34351 -0.79966,0.33623 -0.79966,0.33623 0.67662,0.36211 0.67661,0.36212 -0.14154,0.36885 -0.14154,0.36886 -0.004,0.44138 -0.004,0.44138 -0.25648,-0.39688 -0.25648,-0.39687 -0.0348,-0.66146 -0.0347,-0.66146 -0.1284,0.50143 -0.12839,0.50142 -0.22356,-0.36172 -0.22355,-0.36171 -0.18508,0.48231 -0.18508,0.4823 0.33046,0.20424 0.33045,0.20423 -0.30121,0.56281 -0.30121,0.56282 h -0.22728 -0.22729 l 0.0382,0.65833 0.0382,0.65833 0.34448,0.13239 0.34447,0.13239 -0.16165,-0.26156 -0.16165,-0.26155 h 0.54478 0.54478 v 0.35217 0.35216 l -0.66457,0.35567 -0.66457,0.35567 0.1594,0.50222 0.1594,0.50222 -0.48701,0.35963 -0.48702,0.35964 0.33073,0.33531 0.33073,0.33531 v -0.47184 -0.47184 l 0.33073,0.12127 0.33072,0.12127 -0.0989,0.3638 -0.099,0.3638 -0.24081,1.02646 -0.2408,1.02646 -0.22905,0.42875 -0.22906,0.42875 0.70111,0.95155 0.70111,0.95155 0.87581,1.16512 0.87581,1.16511 1.13477,1.19062 1.134761,1.19063 1.825882,2.43394 1.825881,2.43395 1.054683,1.73378 1.054682,1.73378 0.183492,-0.46356 0.183492,-0.46356 z m -9.64493,-16.61864 0.16172,-0.50953 -0.42314,-0.2368 -0.42313,-0.2368 0.53012,-0.64274 0.53012,-0.64273 -0.15261,0.60741 -0.1526,0.60741 0.48706,0.35615 0.48705,0.35614 -0.35314,0.42551 -0.35313,0.4255 h -0.25002 -0.25002 z M 77.5763,67.10935 77.818479,66.85799 v -0.47625 -0.47625 h -0.236276 -0.236275 l -0.1606,0.41852 -0.160599,0.41851 0.03603,0.97055 0.03603,0.97055 0.118664,-0.66146 0.118664,-0.66146 z m 0.663626,-6.90269 -0.07162,-0.67176 -0.318222,-0.31822 -0.318222,-0.31822 -0.249514,0.39466 -0.249515,0.39467 -0.0041,-0.37483 -0.0041,-0.37483 -0.161155,0.16116 -0.161156,0.16115 0.576047,0.80899 0.576047,0.80898 h 0.228517 0.228517 z m -0.568819,-2.57811 -0.01508,-0.73631 0.34581,0.1327 0.34581,0.1327 v -0.1598 -0.15979 l -0.678334,-0.62866 -0.678334,-0.62866 0.179217,-0.56466 0.179217,-0.56466 -0.360779,0.33762 -0.360779,0.33762 -0.06828,0.92063 -0.06828,0.92063 0.399006,-0.15311 0.399007,-0.15311 v 0.25627 0.25628 h -0.3175 -0.3175 l 0.3175,0.3175 0.3175,0.3175 v 0.19227 0.19227 l -0.463021,0.1344 -0.463021,0.1344 0.661458,-0.0489 0.661459,-0.0489 z m -34.99115,-5.54753 -0.0899,-2.31511 h -0.21926 -0.21926 l -0.28362,0.8136 -0.28362,0.81359 -0.27143,-0.16775 -0.27143,-0.16775 v -0.30252 -0.30252 l 0.83111,-0.85749 0.83112,-0.85749 -0.56653,0.14815 -0.56653,0.14815 v -0.25135 -0.25134 l 0.18404,-0.18405 0.18405,-0.18405 0.057,-0.38816 0.057,-0.38817 -0.24151,-0.14926 -0.24151,-0.14926 -0.25562,0.67232 -0.25562,0.67233 -0.40535,-0.15555 -0.40534,-0.15554 -0.39241,0.15058 -0.39242,0.15058 0.14492,0.37766 0.14492,0.37765 0.51691,-0.13518 0.51691,-0.13517 -0.18059,1.94311 -0.1806,1.94312 0.66928,-0.43852 0.66927,-0.43853 0.30024,0.30024 0.30024,0.30024 v 0.42333 0.42333 l -0.3175,0.3175 -0.3175,0.3175 h 0.3175 0.3175 v 0.4498 0.44979 l 0.20279,-0.25136 0.2028,-0.25135 z m 35.115675,1.49382 -0.300937,-0.36261 0.153588,-0.40024 0.153589,-0.40025 h -0.363395 -0.363394 l 0.141952,-1.05833 0.141953,-1.05833 h -0.423291 -0.423291 l 0.126866,1.25677 0.126867,1.25677 0.261587,0.0882 0.261587,0.0882 v 0.6311 0.63111 l 0.403628,-0.15489 0.403628,-0.15488 z m 39.115038,-2.34483 0.85989,-0.92716 v -0.89968 -0.89969 l -0.39524,-0.75785 -0.39525,-0.75784 -0.002,-0.46302 -0.002,-0.46303 h -0.23627 -0.23628 l -0.16956,-0.44186 -0.16956,-0.44187 0.33969,-0.23973 0.33969,-0.23974 -0.33073,-0.1342 -0.33073,-0.13419 V 44.06362 43.6971 l -0.42357,0.16254 -0.42358,0.16255 -0.23184,-0.36929 -0.23184,-0.36928 0.1546,-0.49615 0.15459,-0.49616 -0.29293,0.18104 -0.29293,0.18104 0.008,-0.34634 0.008,-0.34635 0.35149,-0.46302 0.35148,-0.46302 h 0.43385 0.43386 v -0.26458 -0.26459 h 0.54656 0.54656 l 0.51918,0.27786 0.51918,0.27786 -0.15531,0.25131 -0.15532,0.25131 h 0.2802 0.2802 v -0.22049 -0.22048 l -0.18178,-0.18178 -0.18178,-0.18178 -0.0386,-0.52378 -0.0386,-0.52378 h 0.22037 0.22036 V 39.47802 39.2443 l -0.54066,-0.14139 -0.54065,-0.14138 -0.78226,0.22434 -0.78226,0.22435 v -0.1837 -0.18369 l 1.06015,-0.45929 1.06014,-0.4593 h 0.29517 0.29517 l -0.32938,-0.39687 -0.32938,-0.39688 h 0.58259 0.58258 l -0.17433,-0.79375 -0.17434,-0.79375 h 0.28561 0.2856 v -0.36447 -0.36448 l 0.39688,-0.32938 0.39687,-0.32938 v 0.26919 0.26919 l 1.07031,0.10207 1.07031,0.10207 -0.0781,-0.66959 -0.0781,-0.66959 h -0.57326 -0.57327 l -0.19843,-0.19844 -0.19844,-0.19843 h -0.22049 -0.22048 l -0.002,0.46302 -0.002,0.46302 -0.46128,-0.67324 -0.46128,-0.67324 -0.44041,0.093 -0.44042,0.093 -0.19234,-0.60602 -0.19234,-0.60601 -0.2249,0.60796 -0.2249,0.60797 -0.28486,-0.17605 -0.28486,-0.17606 0.13053,-0.34016 0.13053,-0.34017 -0.57551,0.13834 -0.57552,0.13834 0.33073,-0.35349 0.33073,-0.3535 V 31.3245 30.98055 h -0.26458 -0.26459 v 0.43788 0.43788 l -0.55953,-0.50403 -0.55953,-0.50403 -0.26576,-0.66145 -0.26575,-0.66146 -0.13278,0.36066 -0.13279,0.36067 -0.2285,-0.36067 -0.2285,-0.36066 -0.008,0.39687 -0.008,0.39688 -0.32683,-0.63289 -0.32683,-0.63289 -0.65018,-0.42544 -0.65018,-0.42545 0.18489,0.30179 0.18488,0.30179 -0.65918,0.43191 -0.65919,0.43192 V 29.13456 28.5993 h -0.28935 -0.28936 l -0.14107,0.53948 -0.14108,0.53948 -0.9648,-0.0899 -0.96479,-0.0899 -0.3124,-0.19308 -0.3124,-0.19307 -0.68574,0.17211 -0.68575,0.17211 0.80587,0.71948 0.80587,0.71948 v 0.17484 0.17484 h -0.24946 -0.24946 l -0.96136,0.56721 -0.96136,0.56722 0.26273,0.16238 0.26273,0.16237 v 1.30316 1.30316 l 0.61736,0.47491 0.61736,0.47491 -0.33073,0.006 -0.33073,0.006 v 0.26458 0.26459 h 0.35278 0.35278 v 0.39687 0.39688 h -0.38518 -0.38517 l 0.33937,0.40891 0.33937,0.40892 0.34101,-0.13086 0.34101,-0.13086 -0.12259,0.31947 -0.12259,0.31946 1.17482,-0.0934 1.17481,-0.0934 1.16115,1.21185 1.16116,1.21185 0.28377,-0.28378 0.28378,-0.28377 0.17892,0.2895 0.17893,0.28951 -0.41365,0.15873 -0.41364,0.15873 v 0.76544 0.76544 h -0.26459 -0.26458 v 0.30039 0.30039 l -0.66006,0.61173 -0.66006,0.61172 -0.42573,0.23825 -0.42573,0.23825 0.79492,1.69391 0.79493,1.69391 0.16361,0.7276 0.16362,0.7276 h 0.42052 0.42051 l -0.1615,-0.64346 -0.16149,-0.64346 0.54962,-0.17445 0.54963,-0.17444 0.15645,0.15645 0.15645,0.15645 H 113.05 112.74132 v 0.28398 0.28399 l 0.46302,-0.0892 0.46302,-0.0892 0.0189,-0.26096 0.0189,-0.26096 0.34695,-0.71142 0.34694,-0.71141 -0.44216,-0.44216 -0.44216,-0.44216 0.0763,-1.22767 0.0763,-1.22768 0.31183,-0.33073 0.31183,-0.33073 h 0.12789 0.12789 l -0.12056,0.7276 -0.12057,0.72761 -0.0546,0.52916 -0.0546,0.52917 -0.26458,0.20347 -0.26458,0.20346 0.41327,0.3257 0.41327,0.3257 0.19627,0.52175 0.19628,0.52176 0.19119,-0.30935 0.19118,-0.30935 0.36666,0.22661 0.36666,0.2266 -0.45434,0.45434 -0.45434,0.45434 0.0539,0.56186 0.0539,0.56186 -0.15017,0.39687 -0.15017,0.39688 -0.11973,0.66146 -0.11972,0.66146 -0.19016,0.45139 -0.19017,0.45139 0.88374,-0.24795 0.88374,-0.24795 z m -2.55966,-11.40729 0.64143,-0.68277 -0.086,-0.17051 -0.086,-0.17051 0.26651,-0.0888 0.26652,-0.0888 0.29473,0.55071 0.29473,0.55071 -0.16679,0.26988 -0.1668,0.26988 -0.5069,-0.16089 -0.5069,-0.16088 v 0.28241 0.28241 h -0.44299 -0.443 z m -2.47313,-9.53144 -0.17835,-0.17834 0.14072,-0.22768 0.14071,-0.22768 h 0.5356 0.5356 l -0.11012,0.33073 -0.11012,0.33073 -0.38785,0.0753 -0.38785,0.0753 z m -50.194367,20.92237 0.576943,-0.93351 -0.323177,-0.38941 -0.323176,-0.3894 H 61.07202 60.529938 l -0.478403,0.43295 -0.478403,0.43295 0.722153,0.87086 0.722153,0.87087 0.04457,0.0191 0.04457,0.0191 z m 52.035237,-1.28431 -0.005,-0.49803 -0.35278,0.48245 -0.35278,0.48246 v 0.53747 0.53746 l 0.35791,-0.52189 0.3579,-0.52189 z m -3.09194,0.63186 v -0.20133 l -0.38797,-0.32199 -0.38798,-0.322 -0.71997,0.23999 -0.71996,0.23999 -0.11399,0.34196 -0.11398,0.34195 0.5382,-0.17081 0.5382,-0.17082 0.15483,0.2505 0.15482,0.25051 0.5289,-0.13831 0.5289,-0.13831 z m -45.277892,-0.22248 -0.303213,-0.48552 -0.643601,0.12304 -0.643601,0.12303 0.216967,0.20451 0.216968,0.20452 0.529167,0.12728 0.529166,0.12728 0.20068,0.0307 0.200679,0.0307 z m 43.811392,-1.91401 -0.15223,-0.2463 h 0.35958 0.35957 l 0.3175,0.3175 0.3175,0.3175 -0.006,-0.25135 -0.006,-0.25136 -0.45714,-0.55695 -0.45713,-0.55695 -0.43308,-0.15086 -0.43307,-0.15085 0.14195,0.54283 0.14196,0.54283 -0.4909,0.27472 -0.49089,0.27472 0.51743,0.18788 0.51743,0.18788 0.20275,-0.11747 0.20276,-0.11747 z M 77.818479,46.85073 v -0.2032 l -0.418514,-0.1606 -0.418515,-0.1606 h -0.242944 -0.242943 v 0.3638 0.3638 h 0.661458 0.661458 z m -31.323872,-0.67586 -0.15965,-0.41604 0.25433,-0.47521 0.25432,-0.47522 -0.15926,-0.15926 -0.15926,-0.15926 -0.78952,0.56218 -0.78951,0.56219 0.62736,0.48245 0.62735,0.48244 0.22675,0.006 0.22674,0.006 z m 59.706913,-0.009 0.16082,-0.16082 -0.30426,-0.48719 -0.30425,-0.48719 -0.34163,0.28353 -0.34164,0.28353 v 0.36448 0.36448 h 0.48507 0.48507 z m -65.887723,-0.69756 -0.59532,-0.28082 v -0.22415 -0.22415 h -0.43788 -0.43788 l 0.42721,0.47206 0.4272,0.47205 0.60599,0.0329 0.60599,0.0329 z m 79.813113,-1.00596 0.58793,-1.04608 -0.34766,-0.004 -0.34766,-0.004 0.39688,-0.25648 0.39687,-0.25648 -0.33727,-0.004 -0.33728,-0.004 -0.25149,-0.66145 -0.25148,-0.66146 h -0.21313 -0.21313 l -0.29478,0.78097 -0.29478,0.78097 0.28362,0.0945 0.28362,0.0945 -0.2059,0.33315 -0.2059,0.33315 -0.37011,-0.14202 -0.37011,-0.14203 v 0.20337 0.20336 l 0.32852,0.32852 0.32851,0.32851 -0.36026,0.22266 -0.36026,0.22265 0.47878,0.26794 0.47879,0.26794 0.30488,-0.11699 0.30487,-0.11699 z m -11.88135,0.45642 v -0.2362 l 0.39688,0.1523 0.39687,0.15229 V 44.73088 44.4746 h -0.39928 -0.39928 l -0.85749,-0.82021 -0.85749,-0.82021 0.092,-0.56885 0.092,-0.56885 0.2879,-0.35089 0.2879,-0.3509 -0.37986,-0.24037 -0.37986,-0.24036 -0.30868,-0.004 -0.30868,-0.004 -0.15123,-0.33072 -0.15122,-0.33073 0.15973,0.92604 0.15973,0.92604 0.23683,0.29508 0.23684,0.29507 -0.3986,0.76326 -0.39861,0.76326 0.42229,0.31312 0.4223,0.31313 -0.17253,0.27915 -0.17253,0.27916 0.38385,-0.1473 0.38386,-0.1473 0.13963,0.22593 0.13963,0.22592 h 0.54859 0.54859 z m -65.797433,-1.56982 -0.13404,-1.38789 -0.33724,-0.39687 -0.33723,-0.39688 0.11408,-0.31353 0.11409,-0.31354 -0.63886,0.30149 -0.63886,0.3015 0.11945,0.45676 0.11944,0.45676 0.3708,0.14229 0.37081,0.14229 v 0.66976 0.66976 h -0.31071 -0.3107 l 0.61375,0.65331 0.61374,0.6533 0.20276,-0.12531 0.20275,-0.12531 z m 95.162133,0.13347 -0.004,-0.72761 -0.23095,0.36463 -0.23095,0.36463 -0.27588,-0.17051 -0.27588,-0.1705 -0.15614,0.25263 -0.15614,0.25264 0.46858,0.2728 0.46859,0.2728 0.19844,0.008 0.19844,0.008 z m -26.54348,-0.39688 0.20661,-0.33073 0.0461,-0.30329 0.0461,-0.30329 -0.4134,0.0607 -0.4134,0.0607 -0.21209,0.57335 -0.2121,0.57334 h 0.37274 0.37273 z M 77.396745,42.52086 77.276211,42.20675 h -0.522616 -0.522616 v 0.29608 0.29608 l 0.147613,0.14761 0.147612,0.14761 0.495538,-0.12958 0.495537,-0.12959 z m -30.848478,-1.24214 0.44625,-0.0209 -0.31586,-0.1285 -0.31587,-0.1285 0.14574,-0.37978 0.14573,-0.37978 h -0.41587 -0.41587 l -0.29533,0.55183 -0.29533,0.55183 0.15143,0.15143 0.15144,0.15143 -0.29469,0.35507 -0.29468,0.35508 h 0.42927 0.42927 l 0.0423,0.33073 0.0423,0.33073 0.10671,-0.8599 0.10671,-0.8599 z m 73.607363,-1.75664 -0.40069,-0.32231 -0.17367,-0.008 -0.17367,-0.008 0.13839,0.52916 0.13838,0.52917 h -0.29545 -0.29544 v -0.26458 -0.26459 h -0.26458 -0.26459 v 0.371 0.37099 l 0.79375,0.2767 0.79375,0.2767 0.0348,0.3445 0.0348,0.34449 0.16743,-0.92604 0.16743,-0.92604 z m -53.965541,0.81656 0.264762,-0.69637 0.524061,0.47427 0.524062,0.47427 0.189153,-0.18916 0.189153,-0.18915 -0.361621,-0.2235 -0.361622,-0.22349 0.173847,-0.45304 0.173847,-0.45303 -0.3833,0.14708 -0.383299,0.14709 -0.08272,-0.37584 -0.08272,-0.37584 -0.661459,0.33904 -0.661458,0.33904 0.07774,0.44834 0.07775,0.44834 h -0.276182 -0.276182 v -0.2359 -0.2359 l -0.686766,-0.17237 -0.686767,-0.17237 -0.379561,0.31501 -0.379562,0.31501 0.495305,0.46144 0.495304,0.46145 0.703315,-0.13445 0.703316,-0.13444 v 0.29542 0.29543 h 0.403423 0.403424 z m -11.386308,-0.84059 0.0041,-0.71199 0.280674,0.39688 0.280675,0.39687 0.129243,-0.31586 0.129243,-0.31587 0.353018,0.13547 0.353018,0.13546 0.199935,-0.3235 0.199935,-0.3235 -0.286415,0.17701 -0.286415,0.17702 -0.176351,-0.55563 -0.176351,-0.55564 -0.609467,0.57257 -0.609466,0.57256 -0.111398,0.759 -0.111398,0.75901 0.216708,-0.13394 0.216709,-0.13393 z m 43.059891,-1.83373 0.421386,-0.328 -0.215346,-0.20117 -0.215345,-0.20117 -0.118667,0.33238 -0.118667,0.33238 -0.241985,-0.14956 -0.241986,-0.14955 0.03069,0.87551 0.03069,0.87551 0.12392,-0.52917 0.12392,-0.52917 z m -51.532255,-1.6574 -0.33073,-0.2044 0.1796,-0.2906 0.1796,-0.2906 -0.60872,0.22473 -0.60873,0.22473 -0.0967,0.49089 -0.0967,0.49088 0.46585,-0.38662 0.46585,-0.38663 0.2918,0.4626 0.2918,0.4626 0.0989,-0.29659 0.0989,-0.29659 z m 6.837327,-0.78111 0.617974,-0.31908 -0.102408,-0.10241 -0.102408,-0.1024 -0.959932,0.43509 -0.959932,0.4351 -0.134097,0.51279 -0.134097,0.51279 0.578463,-0.5264 0.578464,-0.52639 z m -11.215257,0.13245 -0.0725,-0.91425 -0.1708,-0.27637 -0.1708,-0.27637 h -0.64585 -0.64584 v 0.2802 0.2802 l 0.24071,-0.14877 0.2407,-0.14876 0.42075,0.16146 0.42076,0.16145 v 0.72135 0.72134 l 0.17639,0.17639 0.17638,0.17639 h 0.0513 0.0513 z m 4.11499,-1.26605 v -0.46552 h -0.39687 -0.39688 v 0.37523 0.37524 l -0.17065,0.44471 -0.17065,0.44472 0.56753,-0.35443 0.56752,-0.35443 z m 6.392586,0.62588 0.424768,-0.49609 h -0.63055 -0.630551 v 0.49609 0.4961 h 0.205782 0.205782 z m -4.540496,-1.0914 v -0.79375 h -0.26459 -0.26458 v 0.61736 0.61736 l 0.17639,0.17639 0.17639,0.17639 h 0.0882 0.0882 z m 4.891716,-0.5322 0.0031,-0.65843 0.161636,-0.13229 0.161637,-0.13229 0.12902,-1.37622 0.129019,-1.37622 -0.273017,-0.27301 -0.273018,-0.27302 0.195185,-0.19519 0.195185,-0.19518 0.205205,0.33203 0.205204,0.33202 0.441868,-0.16956 0.441867,-0.16956 v -0.40096 -0.40097 l -0.393744,0.32678 -0.393744,0.32678 -0.175047,-0.45616 -0.175047,-0.45617 0.430462,-0.72871 0.430462,-0.72872 -0.477817,-0.43242 -0.477817,-0.43241 h -0.148205 -0.148206 l 0.03675,0.33072 0.03675,0.33073 h -0.264583 -0.264584 l 0.03675,-0.33073 0.03675,-0.33072 h -0.711939 -0.711941 l 0.198586,1.78593 0.198583,1.78594 0.01359,2.27101 0.01359,2.271 0.185535,0.18554 0.185536,0.18553 0.406704,-0.0783 0.406705,-0.0783 z m -6.745126,-0.79533 -0.218,-0.76013 0.3081,-0.12665 0.3081,-0.12666 -0.29507,-0.21858 -0.29507,-0.21858 -0.18578,-0.59531 -0.18578,-0.59531 h 0.25155 0.25156 l 0.14567,-0.55704 0.14566,-0.55705 0.34821,0.11356 0.34821,0.11356 0.37303,0.76619 0.37302,0.76619 0.20369,-0.52114 0.2037,-0.52115 0.0186,-0.19843 0.0186,-0.19844 h -0.52917 -0.52916 l 0.0313,-0.19844 0.0313,-0.19844 -0.0313,-0.7193 -0.0313,-0.7193 -0.37012,0.14203 -0.37011,0.14202 -0.16183,-0.26185 -0.16184,-0.26186 0.78552,-0.39187 0.78552,-0.39187 0.28664,0.34538 0.28664,0.34537 -0.34178,0.13714 -0.34177,0.13713 0.49133,0.0209 0.49133,0.0209 -0.13993,0.36463 -0.13992,0.36463 0.29683,0.29683 0.29682,0.29682 h -0.21761 -0.2176 l 0.36313,0.4399 0.36312,0.43991 -0.33073,0.11131 -0.33073,0.11131 v 0.50712 0.50712 l -0.46302,0.0209 -0.46302,0.0209 0.31587,0.1285 0.31586,0.1285 -0.14021,0.3654 -0.14022,0.3654 0.80455,-0.30368 0.80455,-0.30369 -0.2943,-0.3546 -0.2943,-0.35461 0.29508,-0.29507 0.29507,-0.29508 0.40809,0.33869 0.40809,0.33868 v -0.42927 -0.42927 h -0.26459 -0.26458 v -0.79375 -0.79375 h 0.21514 0.21515 l 0.0616,-1.19063 0.0616,-1.19062 h -3.0549 -3.0549 l -0.0209,0.33072 -0.0209,0.33073 -0.13345,-0.33073 -0.13345,-0.33072 h -0.50289 -0.50288 l 0.10174,1.12447 0.10173,1.12448 0.0568,0.1323 0.0568,0.13229 -0.0578,0.52606 -0.0578,0.52606 0.49034,-0.60433 0.49033,-0.60433 0.52916,0.40058 0.52917,0.40059 -0.33073,0.008 -0.33073,0.008 v 0.52916 0.52917 h 0.26459 0.26458 v 0.25628 0.25628 l -0.39688,-0.1523 -0.39687,-0.15229 v 0.29289 0.29289 l 0.33073,0.0209 0.33073,0.0209 -0.33073,0.13346 -0.33073,0.13345 v 0.46833 0.46834 l 0.7276,0.78512 0.72761,0.78511 0.30678,-0.10399 0.30677,-0.10399 z m -4.40121,-0.78914 h 0.32117 l 0.0399,-0.52969 0.0399,-0.5297 -0.51277,0.27442 -0.51276,0.27442 0.0307,0.7183 0.0307,0.71829 0.121,-0.46302 0.121,-0.46302 z m 20.650765,0.13229 -0.166015,-0.66145 h 0.293266 0.293267 v 0.26458 0.26458 h 0.264583 0.264583 v -0.39687 -0.39688 h -0.372105 -0.372104 l 0.144229,-0.55153 0.144229,-0.55153 0.250151,0.35309 0.250152,0.3531 -0.147953,-0.8599 -0.147953,-0.85989 h 0.409159 0.409159 l 0.377977,-0.37798 0.377976,-0.37798 v -0.18358 -0.18359 l -0.368414,0.30575 -0.368414,0.30576 -0.549246,-0.73638 -0.549245,-0.73638 -0.0084,0.59531 -0.0084,0.59532 H 62.208027 61.67886 v 0.54478 0.54478 l -0.264583,-0.16352 -0.264583,-0.16352 -0.0041,-0.5797 -0.0041,-0.5797 -0.233736,0.36913 -0.233736,0.36914 -0.118786,-0.50143 -0.118787,-0.50142 -0.274414,0.66146 -0.274414,0.66145 0.300259,0.37376 0.300258,0.37376 -0.330729,0.11131 -0.330729,0.11131 v 0.63941 0.63941 h 0.282413 0.282413 l -0.167951,-0.52916 -0.167951,-0.52917 0.546996,-0.0397 0.546997,-0.0397 0.30868,-0.0265 0.308681,-0.0265 0.112999,0.33899 0.112999,0.339 -0.33982,-0.0744 -0.33982,-0.0744 -0.09743,0.44311 -0.09742,0.44311 0.592446,0.68137 0.592445,0.68137 h 0.08962 0.08962 z m -4.474274,-0.92604 0.167951,-0.52916 h 0.246754 0.246753 v -0.92605 -0.92604 h -0.256279 -0.25628 l 0.152296,-0.39687 0.152295,-0.39688 H 58.055954 57.81598 l -0.3175,0.3175 -0.3175,0.3175 v -0.84666 -0.84667 h 0.29289 0.292891 l -0.160779,0.41898 -0.160779,0.41899 0.315488,-0.10517 0.315489,-0.10516 0.09626,-0.84299 0.09626,-0.84298 h -1.602197 -1.602197 v 0.6394 0.63941 l -0.328367,0.10946 -0.328367,0.10946 0.426042,0.42604 0.426042,0.42604 0.578041,-0.15116 0.57804,-0.15116 0.514909,0.55269 0.51491,0.55269 v 0.27565 0.27564 h 0.396875 0.396875 v 0.41249 0.41249 l -0.282392,-0.17453 -0.282392,-0.17452 -0.144563,0.55281 -0.144564,0.55281 -0.234503,-0.14493 -0.234503,-0.14493 v 0.2361 0.2361 l 0.176389,0.17639 0.176389,0.17639 h 0.202657 0.202656 z m 10.827205,-3.64715 -0.06323,-0.45389 -0.187328,-0.59531 -0.187328,-0.59531 h -0.256476 -0.256476 l 0.0889,1.12447 0.0889,1.12448 0.257601,0.18447 0.2576,0.18448 0.160531,-0.25975 0.160531,-0.25974 z M 61.678896,25.65988 V 25.42461 H 61.414313 61.14973 v 0.39687 0.39688 h -0.25628 -0.256279 l 0.152295,-0.39688 0.152295,-0.39687 H 60.64887 60.35598 v 0.37523 0.37524 l 0.176235,0.45926 0.176235,0.45926 0.485223,-0.59923 0.485223,-0.59922 z m 4.495713,0.89829 0.130087,-0.11492 -0.526962,-0.29715 -0.526963,-0.29715 0.661458,-0.18948 0.661459,-0.18948 -1.452158,0.0215 -1.452157,0.0215 -0.33378,0.33378 -0.33378,0.33378 v 0.15119 0.15119 h 0.396875 0.396875 v -0.26458 -0.26459 h 0.233724 0.233725 l 0.141143,0.53973 0.141143,0.53973 0.749611,-0.18007 0.749612,-0.18008 z M 41.835147,26.08606 v -0.66145 h -0.53747 -0.53747 l -0.16254,0.42357 -0.16255,0.42358 0.36929,0.23383 0.36928,0.23383 0.33073,0.004 0.33073,0.004 z"
       id="path19" /></g></svg>
