<?xml version="1.0" encoding="UTF-8" standalone="no"?>
<!-- Created with Inkscape (http://www.inkscape.org/) -->

<svg
   width="101.6mm"
   height="84.666656mm"
   viewBox="0 0 101.6 84.666656"
   version="1.1"
   id="svg1"
   xml:space="preserve"
   xmlns="http://www.w3.org/2000/svg"
   xmlns:svg="http://www.w3.org/2000/svg"><defs
     id="defs1" /><g
     id="layer1"
     transform="translate(-39.236798,-123.16784)"><path
       style="fill:#ffffff;fill-opacity:1"
       d="M 39.236797,165.50117 V 123.16784 H 90.036798 140.8368 v 42.33333 42.33332 H 90.036798 39.236797 Z m 39.422918,40.87812 v -0.66146 H 78.30896 77.958206 l -0.621408,0.66146 -0.621408,0.66145 h 0.972163 0.972162 z m 15.072835,0.33072 -0.0084,-0.33072 -0.370287,-0.48874 -0.370288,-0.48874 0.12616,-0.32877 0.12616,-0.32877 -0.34277,-0.28389 -0.34277,-0.2839 -1.175945,0.21539 -1.175944,0.21539 -0.643627,-0.2447 -0.643627,-0.24471 0.127867,-2.17657 0.127868,-2.17658 -0.276692,-0.6122 -0.276692,-0.61221 -1.206339,0.0877 -1.206339,0.0877 -0.450577,0.92134 -0.450578,0.92134 -0.01271,0.62327 -0.01271,0.62327 -0.411703,1.58881 -0.411703,1.58881 0.125384,0.12539 0.125384,0.12538 -0.433941,0.50681 -0.43394,0.5068 h -0.338074 -0.338074 v 0.39688 0.39687 h 5.291667 5.291667 z m 8.0528,-1.19467 -0.28999,-0.19439 -0.17807,-0.7276 -0.17807,-0.72761 h -0.253 -0.25299 l 0.26598,0.69958 0.26598,0.69958 0.13996,0.22646 0.13996,0.22647 0.31512,-0.004 0.31511,-0.004 z m -8.429234,-3.62194 0.649432,-0.64944 v -0.69878 -0.69879 l -0.526442,-0.73932 -0.526442,-0.73931 -0.307304,-2.06617 -0.307304,-2.06617 -0.515305,-0.87338 -0.515305,-0.87337 h -0.503032 -0.503033 v -0.24897 -0.24897 l 0.266389,-0.16464 0.266389,-0.16463 0.85809,0.60248 0.858091,0.60249 0.08874,0.20964 0.08874,0.20964 0.241985,-0.14955 0.241985,-0.14956 v -0.24896 -0.24897 l -0.463021,-0.0168 -0.463021,-0.0168 0.570393,-0.23007 0.570393,-0.23007 0.185493,-0.84454 0.185493,-0.84455 -0.326744,-0.20194 -0.326745,-0.20194 -1.355183,-0.17111 -1.355183,-0.17111 -0.866871,-0.15382 -0.866871,-0.15382 0.135995,1.02294 0.135995,1.02294 0.116297,0.8599 0.116296,0.8599 h -0.1924 -0.192399 l -0.251354,-0.24364 -0.251355,-0.24363 -3.279201,-0.27607 -3.279202,-0.27606 -1.550457,0.43107 -1.550458,0.43106 -0.991174,0.88218 -0.991174,0.88217 -0.209501,2.1e-4 -0.2095,2.1e-4 -0.542139,0.50507 -0.542139,0.50508 0.311977,3.00066 0.311978,3.00065 0.212819,0.22294 0.212819,0.22295 0.549271,-0.29396 0.54927,-0.29396 0.66976,-1.14286 0.66976,-1.14286 v -0.7835 -0.78349 l 0.960141,-0.3472 0.960141,-0.34719 -0.357166,-0.22074 -0.357166,-0.22074 0.189657,-0.18966 0.189656,-0.18965 0.641798,0.29242 0.641798,0.29242 0.808467,-0.30516 0.808466,-0.30516 0.420434,-0.80418 0.420433,-0.80418 -0.111983,0.72178 -0.111983,0.72177 0.547102,0.17364 0.547102,0.17365 2.788531,-0.004 2.78853,-0.004 0.58478,1.74271 0.58478,1.74272 -0.143392,0.14339 -0.143392,0.14339 -0.338264,-0.4626 -0.338265,-0.46261 h -0.315388 -0.315388 l 0.07997,1.38907 0.07997,1.38906 0.926041,0.31579 0.926042,0.3158 0.342756,0.0149 0.342755,0.0149 z m 33.457764,-0.003 v -0.12347 l -0.92604,-0.92605 -0.92604,-0.92604 v -0.25999 -0.25999 l 0.8599,-0.80785 0.85989,-0.80785 0.46302,-0.14943 0.46302,-0.14943 v -0.2519 -0.2519 l -2.05052,0.1196 -2.05052,0.11961 -0.23944,0.0178 -0.23945,0.0178 0.43788,0.48385 0.43789,0.48386 v 0.33522 0.33522 l 0.37612,0.70228 0.37612,0.70228 0.16728,0.52175 0.16728,0.52175 0.2463,-0.38946 0.24629,-0.38946 0.004,0.55122 0.004,0.55121 0.17639,0.17639 0.17639,0.17639 h 0.48507 0.48507 z m -27.516665,-2.39007 0.329377,-0.39688 -0.363126,-0.004 -0.363126,-0.004 0.389212,-0.24614 0.389213,-0.24615 -0.190775,-0.19077 -0.190775,-0.19077 -0.152145,0.15214 -0.152145,0.15215 -0.05373,0.35496 -0.05373,0.35498 -0.206612,0.33072 -0.206612,0.33073 h 0.247801 0.247802 z m 1.535625,-4.24757 -0.10432,-0.89356 0.68646,-0.15077 0.68646,-0.15077 1.44216,-0.0917 1.44216,-0.0917 1.76043,-0.31856 1.76044,-0.31855 0.48852,-0.44865 0.48853,-0.44865 0.58521,-0.0406 0.58522,-0.0406 0.86999,-0.38575 0.86999,-0.38576 0.52917,-0.17891 0.52917,-0.17891 1.2763,-0.24315 1.2763,-0.24314 0.97266,-0.44414 0.97265,-0.44414 1.67471,-1.21265 1.6747,-1.21265 1.52272,-1.32292 1.52271,-1.32291 2.66199,-2.05052 2.66198,-2.05053 h 0.25976 0.25976 l 0.30292,-0.36498 0.30291,-0.36499 0.81161,-0.16233 0.81162,-0.16232 2.85734,-2.51243 2.85733,-2.51243 0.65149,-1.25974 0.65148,-1.25973 0.19887,-0.79375 0.19888,-0.79375 -0.0309,-1.66941 -0.0308,-1.6694 -0.65794,-1.29836 -0.65793,-1.29837 v -0.61106 -0.61084 l -0.7276,-1.45742 -0.72761,-1.45741 -0.52916,-0.74481 -0.52917,-0.74481 -0.90799,-1.05134 -0.908,-1.05135 -0.99969,-0.51001 -0.9997,-0.51001 -1.13502,3.2e-4 -1.13502,3.1e-4 -1.93673,0.36935 -1.93673,0.36935 -1.63514,0.81006 -1.63515,0.81006 -2.0359,1.97886 -2.0359,1.97887 -0.3005,1.11598 -0.30051,1.11599 -0.96077,1.14938 -0.96076,1.14939 h -0.30037 -0.30036 l -0.6358,0.55917 -0.63579,0.55916 -0.92604,0.68917 -0.92605,0.68916 -0.87134,0.73802 -0.87135,0.73802 -1.58463,0.79992 -1.58463,0.79991 0.68382,-1.3972 0.68383,-1.3972 0.48314,-0.92605 0.48314,-0.92604 0.31734,-0.99218 0.31735,-0.99219 h 0.2365 0.2365 l 1.02583,-2.18281 1.02583,-2.18282 0.47106,-1.11104 0.47107,-1.11104 0.7272,0.14544 0.72721,0.14544 1.55377,-1.59381 1.55378,-1.59382 1.71979,-2.06783 1.71979,-2.06782 0.80547,-0.79672 0.80546,-0.79671 1.17891,-1.01375 1.17891,-1.01375 0.66146,0.87609 0.66146,0.87609 0.65628,0.62137 0.65627,0.62138 2.00976,1.40827 2.00976,1.40827 1.52662,1.67989 1.52663,1.67989 0.56984,0.99015 0.56984,0.99015 0.33073,0.002 0.33073,0.002 v -0.31516 -0.31515 l 0.33771,0.46184 0.33771,0.46185 0.4268,-0.16378 0.4268,-0.16378 -0.13391,-0.51208 -0.13391,-0.51208 h -0.23207 -0.23206 l 0.0813,-0.53275 0.0813,-0.53276 0.30153,-0.30153 0.30152,-0.30152 -0.29014,-0.54214 -0.29014,-0.54213 0.26407,-0.088 0.26407,-0.088 -0.12508,-0.6543 -0.12507,-0.6543 0.32802,-0.79192 0.32802,-0.79191 -0.36293,-0.43967 -0.36292,-0.43966 0.39687,0.13362 0.39688,0.13362 v 1.93772 1.93771 l 0.33072,0.11041 0.33073,0.11041 v -3.20202 -3.20209 l -0.7276,0.17391 -0.7276,0.17391 -0.19941,0.11193 -0.19941,0.11193 0.1517,0.71138 0.1517,0.71139 -0.48146,-0.53307 -0.48146,-0.53307 -0.33073,0.037 -0.33073,0.037 -0.26458,0.0331 -0.26458,0.0331 v 0.52916 0.52917 h 0.51355 0.51355 l 0.16352,0.26458 0.16352,0.26459 h -0.41249 -0.41249 v 0.39687 0.39688 h -0.26458 -0.26458 l -0.008,-0.33073 -0.008,-0.33073 -0.40943,0.52916 -0.40942,0.52917 0.17493,-1.5875 0.17493,-1.5875 0.12844,-0.46302 0.12845,-0.46302 h 0.37905 0.37904 v -0.26458 -0.26459 h -0.37482 -0.37483 l -0.0882,0.22666 -0.0882,0.22665 -0.99219,0.18221 -0.99218,0.18221 v -0.27657 -0.27657 h 0.38442 0.38443 l 0.67391,-0.30706 0.6739,-0.30705 v -0.2508 -0.25079 l -0.68394,0.17166 -0.68395,0.17166 0.41936,-0.59873 0.41937,-0.59872 v -0.95334 -0.95334 l -0.6952,-0.64144 -0.69519,-0.64143 -0.33982,-0.79191 -0.33983,-0.79191 0.38365,-0.9182 0.38365,-0.91819 0.45293,-0.50086 0.45293,-0.50086 0.97261,-0.4964 0.9726,-0.4964 1.47479,-0.17333 1.47479,-0.17334 v -7.11005 -7.11005 l -10.88419,0.0204 -10.88418,0.0204 -0.62519,0.40964 -0.62519,0.40964 v -0.27561 -0.27562 l 0.46302,-0.121 0.46302,-0.121 -9.2986,-0.0307 -9.298616,-0.0307 0.03025,20.76979 0.03025,20.76979 h 5.101176 5.10118 v 0.14284 0.14283 l -0.56041,1.09848 -0.5604,1.09849 -1.62241,2.17674 -1.62241,2.17673 -1.83711,2.69531 -1.83711,2.6953 -0.41185,0.1554 -0.41185,0.1554 -0.92604,0.54426 -0.926041,0.54427 -0.529167,0.0382 -0.529167,0.0382 -1.47702,0.33783 -1.47702,0.33783 -0.446575,-0.17136 -0.446574,-0.17137 -0.159999,-0.8 -0.159999,-0.79999 h -0.189821 -0.189041 l -0.307053,-0.67391 -0.307053,-0.67391 v -0.13545 -0.13546 l 0.264584,0.16352 0.264583,0.16352 v -0.26458 -0.26458 l -0.238125,-0.14717 -0.238125,-0.14717 v -0.94525 -0.94524 l 0.412874,-0.15843 0.412874,-0.15844 -0.571624,-0.21146 -0.571624,-0.21145 v -0.38979 -0.38979 l 0.246568,-0.15238 0.246568,-0.15239 -0.37723,-0.72312 -0.377229,-0.72313 -0.0016,-0.4101 -0.0016,-0.41011 0.300491,-0.30049 0.300491,-0.30049 -0.441764,-0.44176 -0.441764,-0.44177 0.159103,-0.50128 0.159102,-0.50129 H 91.90681 91.624397 l -0.01677,-0.46302 -0.01677,-0.46302 -0.248717,0.62081 -0.248717,0.6208 -0.0049,3.34795 -0.0049,3.34794 0.04028,2.41688 0.04028,2.41689 -0.182855,0.29586 -0.182855,0.29587 -0.747847,-0.72838 -0.747847,-0.72837 0.267169,-0.33073 0.267168,-0.33073 -0.230834,-0.008 -0.230834,-0.008 0.481481,-0.36498 0.481482,-0.36498 -0.481482,-0.28787 -0.481481,-0.28787 0.51359,-0.39707 0.513591,-0.39707 h -0.346012 -0.346012 l 0.145345,-0.55579 0.145344,-0.5558 -0.29788,-0.65378 -0.29788,-0.65377 0.359131,-0.22196 0.359132,-0.22195 -0.704904,-0.83773 -0.704904,-0.83773 v 0.28488 0.28488 h -0.264583 -0.264583 l 0.03069,-0.85989 0.03069,-0.8599 0.121,0.46302 0.121,0.46302 h 0.223543 0.223543 l 0.371201,-0.14244 0.371201,-0.14244 -0.118219,-0.84975 -0.118218,-0.84974 -0.26374,-0.33073 -0.263739,-0.33073 0.329377,-0.39687 0.329377,-0.39688 h -0.561563 -0.561564 l 0.0041,-0.7276 0.0041,-0.72761 0.201369,0.31676 0.201369,0.31677 0.386347,-0.23878 0.386347,-0.23877 -0.580705,-0.54101 -0.580704,-0.54101 h -0.250876 -0.250876 l 0.13838,0.52917 0.13838,0.52916 h -0.295442 -0.295442 l -0.03043,-0.46302 -0.03043,-0.46302 -0.222608,1.05834 -0.222609,1.05833 -0.03246,2.08252 -0.03246,2.08253 -0.237449,-0.23745 -0.237449,-0.23745 -0.180867,-4.88779 -0.180867,-4.88778 -0.551098,-0.74725 -0.551097,-0.74726 0.479533,-0.26836 0.479534,-0.26836 -0.06071,-1.36563 -0.0607,-1.36564 -0.235099,-0.30717 -0.235098,-0.30718 0.277431,-0.17146 0.277431,-0.17146 v -0.37296 -0.37295 l -0.396875,0.15229 -0.396875,0.1523 v -0.29289 -0.29289 l 0.330729,0.0661 0.330729,0.0661 0.05414,-2.51354 0.05414,-2.51355 0.01201,-0.51593 0.01201,-0.51594 0.330729,0.3306 0.330729,0.3306 0.06128,4.0218 0.06128,4.02179 0.0049,0.33073 0.0049,0.33073 h 0.396875 0.396875 v 0.52917 0.52916 h -0.425657 -0.425657 l 0.194595,2.18282 0.194595,2.18281 0.03262,0.70555 0.03262,0.70556 0.240593,0.22048 0.240594,0.22049 -0.156604,-0.43816 -0.156605,-0.43816 0.466011,-0.42174 0.466011,-0.42173 h 0.177604 0.177604 v 0.39687 0.39688 l -0.330729,0.004 -0.330729,0.004 0.389213,0.24614 0.389212,0.24615 0.100077,-0.10008 0.100077,-0.10007 -0.187672,-1.11082 -0.187672,-1.11082 -0.23142,0.36538 -0.23142,0.36539 -0.0041,-0.34634 -0.0041,-0.34635 -0.241357,0.14917 -0.241357,0.14917 0.07807,-0.46428 0.07807,-0.46429 0.295583,0.0661 0.295583,0.0662 v -0.38857 -0.38857 l 0.463021,0.13886 0.463021,0.13887 -0.595313,-0.44402 -0.595312,-0.44403 0.02089,-0.43074 0.02089,-0.43075 0.133452,0.33073 0.133452,0.33072 h 0.242535 0.242535 v -0.51602 -0.51601 l -0.463021,-0.26969 -0.463021,-0.26968 0.174489,-0.008 0.17449,-0.008 -0.348794,-1.32222 -0.348794,-1.32222 0.215611,-0.13325 0.215611,-0.13326 -0.15039,-0.59505 -0.15039,-0.59505 -0.28558,-0.18742 -0.28558,-0.18742 0.297324,-0.29732 0.297324,-0.29732 0.568433,0.35245 0.568434,0.35245 0.243125,-0.39083 0.243125,-0.39083 -0.418851,-0.46283 -0.41885,-0.46282 -0.199244,0.12314 -0.199243,0.12314 -0.289157,-0.34842 -0.289156,-0.34841 0.236548,-0.82479 0.236548,-0.8248 -0.3081,-0.13017 -0.3081,-0.13018 0.489516,-0.39589 0.489516,-0.39589 -0.166197,-0.26892 -0.166197,-0.26891 0.536577,-0.28716 0.536577,-0.28717 v -0.38757 -0.38756 h -0.236276 -0.236276 l -0.16373,0.42667 -0.16373,0.42667 -0.368014,-0.30542 -0.368015,-0.30543 -0.131055,0.34178 -0.131055,0.34177 0.02832,-0.58183 0.02832,-0.58182 0.284314,0.23596 0.284314,0.23596 0.31393,-0.19402 0.31393,-0.19402 -0.05822,-1.38784 -0.05822,-1.38783 0.292565,-0.18895 0.292565,-0.18895 0.200779,-1.05833 0.20078,-1.05833 0.07505,-1.28446 0.07505,-1.28446 -0.832973,0.13468 -0.832973,0.13469 0.727604,-0.29037 0.727604,-0.29036 v -0.74267 -0.74268 l -0.06615,-0.19843 -0.06615,-0.19844 -0.257159,0.0857 -0.257158,0.0857 0.406226,-0.4826 0.406226,-0.48259 -0.01678,-0.34038 -0.01678,-0.34038 -0.358046,-0.22129 -0.358046,-0.22128 0.2919,-0.54542 0.2919,-0.54542 v -0.75823 -0.75823 l -0.308293,-0.30829 -0.308293,-0.30829 -0.336415,0.45381 -0.336414,0.45382 0.06378,-0.45537 0.06379,-0.45536 0.184047,-0.18405 0.184047,-0.18404 -0.0041,-0.28664 -0.0041,-0.28663 -0.227459,0.35898 -0.227458,0.35898 -0.18098,-0.29284 -0.180979,-0.29283 0.280198,-0.0331 0.280198,-0.0331 0.3188,-0.0331 0.318801,-0.0331 0.158061,-0.66146 0.15806,-0.66145 -0.341157,-0.66146 -0.341157,-0.66146 0.139642,-0.44075 0.139642,-0.44076 -0.275346,-0.17017 -0.275346,-0.17017 v -0.27728 -0.27728 l 0.38209,0.14662 0.382089,0.14663 -0.09436,-1.42629 -0.09436,-1.42629 0.439874,-0.11654 0.439875,-0.11654 -24.936978,-0.0307 -24.936981,-0.0307 v 16.39755 16.39755 l 0.8599,-0.14857 0.85989,-0.14858 0.33073,-0.10109 0.33073,-0.10109 v -0.58278 -0.58279 l 0.43788,-0.48385 0.43789,-0.48386 h 0.47501 0.47501 l 0.22811,0.40762 0.22811,0.40761 0.4465,-0.17134 0.44649,-0.17133 v -0.63315 -0.63316 h 0.25954 0.25955 l 0.16601,0.66146 0.16602,0.66146 0.16975,-0.009 0.16976,-0.009 0.99612,-1.57879 0.99613,-1.57879 h 0.25403 0.25403 l -0.13942,0.7276 -0.13942,0.7276 0.60906,0.82661 0.60905,0.8266 1.08919,1.42235 1.08919,1.42236 0.59602,0.52917 0.59603,0.52916 1.49473,1.85209 1.49472,1.85208 1.0232,1.5875 1.0232,1.5875 0.93411,1.38913 0.93412,1.38914 0.0932,-0.0932 0.0932,-0.0932 0.027,-1.82509 0.027,-1.82509 -0.92169,-1.72126 -0.92169,-1.72125 0.11286,-0.79229 0.11286,-0.79228 -1.33982,-1.31297 -1.33981,-1.31297 -0.004,-0.8037 -0.004,-0.8037 -0.22328,0.35222 -0.22329,0.35221 -0.17921,-1.12072 -0.17921,-1.12073 -0.1311,-0.21212 -0.13109,-0.21212 -0.3884,0.14904 -0.38841,0.14905 v 0.25189 0.25189 l 0.26459,-0.16352 0.26458,-0.16352 v 0.39085 0.39085 l -0.16417,0.42781 -0.16417,0.42782 -1.8202,-1.78845 -1.82021,-1.78845 v -0.37146 -0.37171 l 0.81502,-1.4245 0.81502,-1.42451 0.38903,-2.4168 0.38903,-2.41681 -0.18772,-0.42423 -0.18772,-0.42423 0.0563,-0.24138 0.0563,-0.24138 -0.30291,-0.7313 -0.30292,-0.73131 0.17536,-0.55251 0.17536,-0.55252 0.19061,0.11781 0.19061,0.1178 0.0367,-0.44469 0.0367,-0.44469 0.55975,-1.25677 0.55976,-1.25677 h 0.19589 0.1959 l 0.0401,-0.53182 0.0401,-0.53183 -0.38063,0.38064 -0.38063,0.38063 v 0.28348 0.28348 h -0.26458 -0.26459 l 0.006,-0.33073 0.006,-0.33073 0.45714,-0.55267 0.45714,-0.55267 0.81772,-0.5598 0.81773,-0.5598 2.73461,-0.40888 2.7346,-0.40888 0.94558,0.004 0.94559,0.004 0.39687,0.25648 0.39688,0.25648 -1.30087,0.004 -1.30087,0.004 0.16446,0.16445 0.16445,0.16445 1.75655,0.11503 1.756543,0.11502 -0.172726,-0.27948 -0.172725,-0.27947 h -0.434177 -0.434177 l 0.300964,-0.30097 0.300964,-0.30096 1.125047,0.28557 1.125047,0.28556 0.214406,-0.13251 0.214405,-0.13251 v 0.2333 0.2333 l 1.227225,0.61291 1.227225,0.6129 2.150547,2.14598 2.150547,2.14597 0.351275,0.63156 0.351275,0.63156 0.471402,0.82365 0.471402,0.82364 1.067622,1.86848 1.067622,1.86847 0.291434,1.08231 0.291434,1.0823 -0.24757,0.65116 -0.24757,0.65116 -0.439146,0.16851 -0.439145,0.16852 0.09476,0.28429 0.09476,0.28428 0.218387,-0.034 0.218387,-0.034 0.660753,1.24123 0.660754,1.24122 -0.298152,0.65437 -0.298152,0.65437 -0.587603,-0.14513 -0.587603,-0.14514 -1.5875,-0.55222 -1.5875,-0.55222 -1.205887,-0.54403 -1.205887,-0.54404 -0.90956,0.84966 -0.909561,0.84966 0.05496,1.81757 0.05496,1.81757 -0.320763,0.0403 -0.320764,0.0403 -0.396875,0.0259 -0.396875,0.0258 -0.08265,0.85645 -0.08265,0.85646 -0.518435,0.36312 -0.518435,0.36313 0.421988,0.35022 0.421988,0.35022 0.485743,0.95213 0.485744,0.95214 0.288668,1.56155 0.288669,1.56156 v 2.02859 2.02859 l -0.301208,0.86405 -0.301209,0.86404 0.343805,1.88742 0.343805,1.88741 0.210382,0.27771 0.210382,0.27771 0.16817,1.1775 0.16817,1.1775 0.51596,1.55438 0.515959,1.55439 -0.07721,0.0471 -0.07721,0.0471 -0.661458,0.41026 -0.661459,0.41026 -1.2784,0.19057 -1.278401,0.19058 -0.378796,0.90658 -0.378796,0.90659 h -0.415373 -0.415373 l 0.116702,0.33073 0.116702,0.33073 1.132218,-0.075 1.132219,-0.075 -0.439221,0.67033 -0.439221,0.67034 h 0.270683 0.270682 v 0.289 0.28899 l 0.529167,0.67273 0.529167,0.67273 v 0.73218 0.73219 l 0.817044,0.28482 0.817045,0.28482 0.142626,0.54541 0.142627,0.54541 0.826266,0.43628 0.826267,0.43628 -1.041598,0.29991 -1.041597,0.29991 -0.275372,0.43655 -0.275373,0.43656 0.313569,0.31357 0.313569,0.31357 0.396498,-0.32907 0.396499,-0.32906 0.270705,0.1673 0.270705,0.16731 0.551718,-0.29527 0.551718,-0.29527 -0.347812,-0.42231 -0.347813,-0.42231 0.672187,0.16731 0.672186,0.16731 0.849168,-0.51641 0.849168,-0.51641 0.0025,-0.20233 0.0025,-0.20232 1.171625,-0.51498 1.171624,-0.51497 -0.169418,-0.27413 -0.169418,-0.27412 -0.03474,-0.47156 -0.03474,-0.47156 0.485236,0.15401 0.485236,0.15401 v -0.37936 -0.37915 l 1.918229,-0.17469 1.918229,-0.17469 0.396875,0.0127 0.396875,0.0127 1.769731,-0.003 1.769731,-0.003 0.611519,0.24528 0.611519,0.24528 -1.25677,0.0168 -1.256771,0.0168 v 0.2341 0.23409 l 1.389062,0.18859 1.389063,0.18858 0.396875,0.0817 0.396875,0.0817 1.5875,0.28294 1.5875,0.28294 1.011471,0.24751 1.011472,0.2475 -0.115268,-0.30721 -0.115267,-0.30722 -0.18643,-0.59531 -0.186429,-0.59531 h 0.282413 0.282413 v 0.21287 0.21288 l 0.887418,0.96884 0.887419,0.96883 0.168323,1.61043 0.168322,1.61042 -0.261991,-0.16192 -0.261991,-0.16192 v -0.58245 -0.58241 l -0.696062,-0.75067 -0.696062,-0.75067 -0.188554,0.30509 -0.188553,0.30508 0.433375,1.58319 0.433375,1.58319 0.682673,0.4526 0.682673,0.4526 0.670425,0.47761 0.670425,0.4776 1.280955,0.3245 1.280952,0.3245 0.22466,-0.36244 0.22466,-0.36245 z m -13.9975,-14.80242 -0.02646,-0.1323 -0.02646,-0.66145 -0.02646,-0.66146 0.251354,-0.0661 0.251354,-0.0661 0.08291,0.85989 0.08291,0.8599 h -0.281347 -0.281347 z m 0.001,-2.05053 -0.02544,-0.0661 -0.07476,-2.71619 -0.07476,-2.7162 0.232494,-0.14369 0.232494,-0.14369 0.01871,0.21406 0.01871,0.21405 0.09323,2.71198 0.09323,2.71198 h -0.244232 -0.244232 z m -7.964104,-2.91006 -0.120819,-0.63203 0.181276,-0.51098 0.181276,-0.51099 0.196506,0.88605 0.196506,0.88605 -0.256963,0.25696 -0.256963,0.25696 z m 34.781734,-20.36282 0.063,-0.58486 -1.44368,-0.73806 -1.44368,-0.73805 h -0.29614 -0.29614 l -0.54244,-0.59531 -0.54243,-0.59531 -0.42457,-0.92605 -0.42456,-0.92604 -0.0988,-0.52916 -0.0988,-0.52917 -0.43551,-0.98369 -0.4355,-0.98369 v -0.16695 -0.16695 l -0.41912,-0.96603 -0.41912,-0.96602 -0.25968,-0.4872 -0.25968,-0.48719 -0.10983,-1.30658 -0.10984,-1.30658 -0.28914,-0.54026 -0.28914,-0.54027 -0.10083,-1.10154 -0.10083,-1.10154 -0.2766,-0.0922 -0.27661,-0.0922 v -0.47472 -0.47472 l 0.36738,-0.30489 0.36738,-0.3049 0.21434,-1.51344 0.21434,-1.51344 -0.0457,-1.12448 -0.0456,-1.12447 h 0.26423 0.26424 l 0.24715,0.65006 0.24716,0.65007 -0.40624,1.36795 -0.40623,1.36794 0.20492,0.69397 0.20492,0.69396 0.022,0.66146 0.022,0.66146 0.20586,0.33073 0.20586,0.33073 h -0.41249 -0.41249 v 0.23218 0.23219 l 0.38529,0.31976 0.38528,0.31976 0.2523,-0.15593 0.2523,-0.15593 0.41425,0.15896 0.41425,0.15897 0.37223,0.74616 0.37224,0.74616 -0.26569,0.26568 -0.26568,0.26569 -0.43078,-0.16116 -0.43078,-0.16115 0.33274,0.4098 0.33274,0.4098 -0.43365,1.34271 -0.43364,1.34271 0.15572,0.40581 0.15572,0.40581 0.73894,0.16227 0.73893,0.16228 0.33073,0.10189 0.33073,0.10189 v 0.2885 0.2885 l -0.26645,-0.16468 -0.26646,-0.16467 -0.15873,0.41364 -0.15873,0.41365 0.19141,0.46302 0.1914,0.46302 0.12409,-0.33238 0.12408,-0.33238 0.30813,0.1931 0.30813,0.19309 0.26459,0.0328 0.26458,0.0328 0.66146,0.0487 0.66146,0.0487 -0.52158,0.3943 -0.52157,0.3943 -0.33515,-0.12861 -0.33515,-0.12861 0.0282,0.18892 0.0282,0.18891 -0.0313,0.31554 -0.0313,0.31554 -0.53623,-0.10327 -0.53623,-0.10327 0.14239,0.2304 0.14239,0.23039 0.79072,0.17367 0.79071,0.17367 v 0.37586 0.37585 h -0.26458 -0.26458 v 0.64584 0.64584 l 0.31716,0.19602 0.31717,0.19602 1.40263,-0.0146 1.40262,-0.0146 v 0.23108 0.23108 h -0.36857 -0.36857 l -0.15229,0.39688 -0.1523,0.39687 h 0.48847 0.48847 l 0.30564,-0.36828 0.30565,-0.36828 0.52515,-0.13733 0.52516,-0.13733 0.40543,0.40543 0.40544,0.40544 -0.0821,0.4309 -0.0821,0.43091 -0.59261,0.0846 -0.59261,0.0846 v -0.27468 -0.27468 l -0.40363,0.15488 -0.40362,0.15489 0.30093,0.36261 0.30094,0.3626 -0.15359,0.40025 -0.15359,0.40024 h -0.26976 -0.26977 z m -27.794639,-7.41878 -0.273495,-0.33073 0.355532,-1.32292 0.355532,-1.32291 0.04319,0.13229 0.04319,0.13229 0.128357,1.52135 0.128357,1.52136 H 86.38641 86.132827 Z m 38.176939,-1.25844 0.16742,-0.5275 h -0.33533 -0.33533 l 0.29136,-0.29135 0.29135,-0.29135 -0.25826,-0.83313 -0.25825,-0.83313 -0.13869,-0.89422 -0.13868,-0.89423 0.34431,-0.21279 0.34431,-0.2128 0.18811,0.11626 0.18812,0.11626 0.006,2.24578 0.006,2.24579 0.14746,0.2386 0.14747,0.23861 -0.41265,0.15835 -0.41266,0.15836 z m -38.124775,-2.47965 -0.1528,-0.39819 0.08852,-0.45655 0.08852,-0.45655 0.33073,-0.11012 0.330729,-0.11012 v 0.80019 0.80018 l -0.266452,0.16468 -0.266452,0.16467 z m 25.667035,-1.57107 0.47621,-0.34821 -0.0973,-0.50504 -0.0973,-0.50503 -0.56475,-0.28156 -0.56475,-0.28156 -0.42509,-0.35279 -0.42509,-0.3528 v -0.2035 -0.20351 l 0.66145,-0.16601 0.66146,-0.16602 v -0.25954 -0.25954 h -0.92604 -0.92604 v -0.2204 -0.22019 l 0.85989,-0.25495 0.8599,-0.25495 0.50142,0.10506 0.50143,0.10506 -0.3303,0.20414 -0.33031,0.20414 0.33067,0.61785 0.33066,0.61786 0.0381,0.54027 0.0381,0.54027 0.32001,-0.0661 0.32001,-0.0662 v 0.27309 0.27308 l -0.38337,0.91754 -0.38338,0.91754 h -0.46094 -0.46095 z m -25.675715,-1.36732 -0.291962,-0.61866 0.191721,-0.31022 0.19172,-0.31021 -0.131932,-2.39732 -0.131932,-2.39732 0.305409,0.18875 0.305408,0.18875 -0.140923,0.22802 -0.140924,0.22802 0.283172,0.17501 0.283171,0.17501 -0.177332,2.68754 -0.177332,2.68755 -0.03815,0.0469 -0.03815,0.0469 z m -5.381724,-0.11915 -0.273892,-0.51177 v -0.64646 -0.64645 l 0.376142,-0.31217 0.376142,-0.31217 0.549899,0.34342 0.5499,0.34341 -0.0088,0.53167 -0.0088,0.53167 -0.496629,0.59531 -0.496629,0.59532 h -0.146718 -0.146717 z m 7.858699,-3.14008 -0.724258,-0.43946 v -0.2033 -0.2033 h 0.338074 0.338074 l 0.474622,0.55432 0.474622,0.55431 -0.08844,0.0884 -0.08844,0.0884 z m -1.435401,-2.39961 -0.309265,-0.49521 0.298537,-0.29854 0.298538,-0.29853 h 0.362857 0.362857 l 0.409474,0.40947 0.409474,0.40947 -0.09764,0.0838 -0.09764,0.0839 -0.577919,0.30043 -0.577918,0.30042 h -0.08604 -0.08604 z m -1.099591,-0.95999 0.01223,-0.52917 -0.197903,-2.05052 -0.197902,-2.05052 h 0.303407 0.303407 l 0.02732,1.12448 0.02732,1.12448 0.08653,1.04863 0.08653,1.04863 -0.23158,0.40658 -0.231581,0.40657 z m -0.176839,-5.49011 -0.118881,-0.33073 -0.09254,-1.66575 -0.09254,-1.66576 0.219723,-0.13579 0.219724,-0.1358 0.02024,0.34634 0.02024,0.34635 0.07405,0.39687 0.07405,0.39688 0.179404,1.38906 0.179404,1.38906 h -0.282 -0.282 z m -16.026741,65.81511 -0.01454,-0.79375 -0.227391,0.52916 -0.22739,0.52917 -0.01455,0.66146 -0.01454,0.66146 0.25648,-0.39688 0.256481,-0.39687 z m 22.074549,-29.82231 0.153202,-0.58584 -0.292576,-0.18083 -0.292576,-0.18082 0.145462,-0.55625 0.145463,-0.55625 h -0.239814 -0.239813 v 1.32292 1.32292 h 0.233725 0.233725 z m 48.327283,-0.3404 v -0.92605 h -0.39688 -0.39687 v 0.40047 0.40046 l 0.32823,0.52558 0.32823,0.52558 h 0.0686 0.0686 z m -0.0586,-4.3903 -0.0548,-1.2594 -0.20789,0.12848 -0.20789,0.12849 v 0.38126 0.38126 h -0.22049 -0.22048 v 0.39687 0.39688 l 0.41892,0.0209 0.41892,0.0209 -0.33073,0.13345 -0.33072,0.13345 v 0.19844 0.19844 h 0.39497 0.39498 z m -48.757038,-0.76908 -0.163522,-0.26458 0.74322,-0.036 0.743219,-0.036 -0.60247,-0.1156 -0.60247,-0.1156 0.03851,-0.31139 0.03851,-0.31139 -0.03135,-0.33073 -0.03135,-0.33073 h -0.264584 -0.264583 v 1.05833 1.05834 h 0.280198 0.280198 z m -22.349009,-4.09106 -0.281995,-0.33978 0.157756,-0.41111 0.157756,-0.41111 -0.55419,0.14493 -0.554189,0.14492 -0.170266,0.2755 -0.170266,0.27549 0.598824,0.4849 0.598825,0.4849 0.249871,-0.15443 0.24987,-0.15443 z m 22.481301,-0.50675 v -0.36448 l 0.371767,-0.30854 0.371767,-0.30854 -0.05543,-0.37765 -0.05543,-0.37766 -0.226466,-0.2061 -0.226467,-0.20609 0.171798,0.30075 0.171798,0.30075 -0.371856,0.30861 -0.371855,0.30861 -0.123706,-0.47707 -0.123706,-0.47707 -0.03069,1.12448 -0.03069,1.12448 h 0.264583 0.264584 z m -30.264588,-1.07402 0.14588,-0.38017 0.41458,0.15909 0.41458,0.15909 -0.17286,-0.68875 -0.17287,-0.68875 0.26556,-0.16412 0.26555,-0.16412 v 0.38418 0.38418 l 0.33405,0.12819 0.33405,0.12819 1.253453,-0.19023 1.253448,-0.19022 0.01864,0.15649 0.01864,0.15649 0.377396,-1.02978 0.377395,-1.02977 -0.462184,-0.35426 -0.462184,-0.35426 0.396875,-0.26133 0.396875,-0.26132 1.772548,0.0156 1.772548,0.0156 0.247184,-0.15277 0.247183,-0.15277 -0.04023,-0.73102 -0.04023,-0.73102 -0.234445,-0.37161 -0.234444,-0.37161 0.371609,0.22502 0.37161,0.22502 -0.906352,-1.04 -0.906353,-1.04001 -0.60482,-0.31378 -0.604821,-0.31379 -0.737785,-0.38412 -0.737786,-0.38411 -0.926041,-0.28233 -0.926045,-0.28233 -0.97255,-0.17404 -0.97256,-0.17404 0.054,0.35649 0.054,0.35649 0.19531,0.31245 0.19532,0.31245 -0.27322,0.16885 -0.27321,0.16886 0.15489,0.25062 0.15489,0.25061 0.22801,-0.14092 0.22802,-0.14092 0.13533,0.21896 0.13533,0.21896 1.07358,-0.0548 1.073578,-0.0548 v 0.30569 0.30569 l -0.505638,0.31578 -0.505637,0.31577 -0.158953,-0.41422 -0.15895,-0.41422 -0.35566,0.29517 -0.35566,0.29517 -0.97588,-0.66225 -0.97587,-0.66224 h -0.50427 -0.50427 l -0.23146,-0.4136 -0.23146,-0.41359 -0.34199,0.41207 -0.34199,0.41208 0.11677,0.61084 0.11677,0.61084 -0.29184,0.27262 -0.29185,0.27262 h -0.46663 -0.46664 l 0.13538,-0.35277 0.13537,-0.35278 H 57.7411 57.47651 l -0.15229,0.39687 -0.1523,0.39688 h -0.67724 -0.67725 l 0.18404,0.18405 0.18405,0.18404 0.44636,0.0655 0.44635,0.0655 0.28753,-0.23862 0.28753,-0.23863 0.69496,0.36055 0.69496,0.36055 0.18822,-0.17304 0.18822,-0.17305 -0.17456,0.72761 -0.17455,0.7276 h 0.77529 0.77529 l 0.0897,1.64904 0.0896,1.64904 -0.76933,0.73458 -0.76932,0.73459 0.16762,0.16762 0.16762,0.16762 0.40327,-0.33468 0.40327,-0.33469 v 0.42928 0.42927 h 0.27289 0.27288 z m 30.509622,-2.90357 0.309828,-0.37332 -0.281747,-0.17413 -0.281747,-0.17413 0.151935,-0.24584 0.151936,-0.24583 -0.37932,-0.54156 -0.37932,-0.54155 -0.165175,0.43044 -0.165174,0.43043 v 0.90441 0.9044 h 0.364478 0.364478 z M 58.815966,149.0646 v -0.23218 h -0.48507 -0.48507 l -0.17409,0.17409 -0.1741,0.1741 0.29739,0.35833 0.2974,0.35834 0.36177,-0.30025 0.36177,-0.30024 z m 17.401177,-0.0121 0.309096,-0.30909 -1.065365,-0.78348 -1.065364,-0.78348 -1.213971,-0.13683 -1.21397,-0.13683 -0.490386,-0.49039 -0.490386,-0.49038 h -0.286632 -0.286632 l 0.121268,0.33073 0.121267,0.33073 0.266153,-0.0556 0.266152,-0.0556 0.469386,0.51866 0.469386,0.51867 h 0.377916 0.377917 l -0.116506,0.33073 -0.116506,0.33073 1.086645,0.58335 1.086645,0.58336 0.542395,0.012 0.542396,0.012 z m 15.4733,-1.35554 0.463021,-0.17084 v -0.29071 -0.29072 l -0.529167,0.16795 -0.529167,0.16795 v -0.15943 -0.15943 l 0.400493,-0.61123 0.400493,-0.61123 -0.123802,-0.96696 -0.123801,-0.96696 h 0.195779 0.195779 v -0.52917 -0.52916 h -0.199583 -0.199583 l 0.162542,-0.42358 0.162542,-0.42358 -0.369284,-0.23383 -0.369283,-0.23383 0.330729,-0.004 0.330729,-0.004 v -0.39687 -0.39688 h 0.396875 0.396875 v 0.25955 0.25954 l 0.661459,0.16601 0.661458,0.16602 v 0.40059 0.40059 l 0.447664,-0.36313 0.447664,-0.36313 -0.20604,0.39688 -0.206041,0.39687 0.533496,-0.65679 0.533496,-0.6568 -0.255236,-0.30754 -0.255236,-0.30754 0.04062,-0.22629 0.04062,-0.22629 -0.04071,-0.39687 -0.04071,-0.39688 -0.378124,0.66146 -0.378124,0.66146 -0.0094,-0.57326 -0.0094,-0.57327 -0.330729,-0.11811 -0.330729,-0.11812 0.212824,-0.227 0.212823,-0.227 0.220616,0.35697 0.220616,0.35696 0.260878,-0.16123 0.260879,-0.16123 0.709637,0.65767 0.709637,0.65767 -0.17534,0.2837 -0.175339,0.28371 0.755759,-0.0864 0.75576,-0.0864 0.04359,-0.87176 0.04359,-0.87176 0.254436,-0.31886 0.254436,-0.31887 -0.176069,-0.4826 -0.176069,-0.4826 -0.254253,0.0857 -0.254253,0.0857 -0.03358,-0.79375 -0.03357,-0.79375 0.298159,-0.38027 0.298158,-0.38027 -0.469143,0.17588 -0.469143,0.17587 0.301486,-0.56333 0.301485,-0.56333 -0.449294,0.17241 -0.449295,0.17241 h -0.107525 -0.107526 l -0.169234,1.05834 -0.169234,1.05833 h -0.344657 -0.344657 l -0.08455,-0.53965 -0.08455,-0.53964 -0.235002,0.0331 -0.235002,0.0331 -0.19559,-0.31647 -0.195589,-0.31647 0.130721,-0.49988 0.130721,-0.49988 h 0.24934 0.249339 l -0.153471,-0.24832 -0.153472,-0.24832 0.431401,-0.24143 0.431401,-0.24142 -0.439578,-0.16868 -0.439578,-0.16868 0.161649,0.26155 0.161648,0.26155 h -0.384182 -0.384183 l -0.152295,-0.39687 -0.152295,-0.39688 h 0.388571 0.388571 v -0.26458 -0.26459 l -0.555286,-0.55528 -0.555287,-0.55529 0.619357,0.19658 0.619358,0.19657 -0.361051,-0.43504 -0.361051,-0.43504 0.363126,-0.44275 0.363126,-0.44276 -0.595313,0.1534 -0.595312,0.15341 v -0.33971 -0.33971 l 0.355073,-0.29468 0.355073,-0.29469 0.156167,0.15617 0.156167,0.15617 -0.156043,-0.59672 -0.156044,-0.59671 0.306262,0.18928 0.306261,0.18928 0.03133,-0.74322 0.03133,-0.74321 -0.03133,-0.19844 -0.03133,-0.19844 0.198438,0.006 0.198437,0.006 1.011472,0.23476 1.011472,0.23475 -0.147116,-0.38337 -0.147115,-0.38338 0.360392,-0.13829 0.360391,-0.1383 -0.06547,-0.83228 -0.06547,-0.83227 -0.275134,-0.0917 -0.275134,-0.0917 -0.172153,0.27855 -0.172153,0.27855 h 0.280198 0.280198 v 0.23151 0.23151 H 96.79201 96.138943 l 0.265501,-0.4961 0.265501,-0.49609 h -1.5875 -1.5875 l -0.23814,0.46302 -0.238139,0.46302 0.130215,0.39688 0.130216,0.39687 0.561636,0.63798 0.561636,0.63797 -0.312447,-0.17927 -0.312447,-0.17927 -0.166189,0.2689 -0.166189,0.2689 h -0.239659 -0.239659 l -0.269303,-0.5032 -0.269302,-0.50319 0.590722,0.14246 0.590723,0.14247 -0.588071,-0.56887 -0.588071,-0.56887 -1.07844,0.33429 -1.078441,0.33428 0.141545,0.52917 0.141544,0.52917 0.0036,0.34233 0.0036,0.34232 0.46302,-0.0777 0.463021,-0.0777 0.08291,0.8599 0.08291,0.8599 -0.347493,0.0314 -0.347492,0.0314 -0.33073,-0.043 -0.330729,-0.0429 -0.03544,1.92982 -0.03544,1.92983 0.0091,1.85208 0.0091,1.85209 0.190625,3.83646 0.190626,3.83645 0.05624,1.05834 0.05624,1.05833 0.04812,0.92604 0.04812,0.92604 0.194386,-0.28388 0.194386,-0.28388 z m 0.362841,-8.95657 -0.166326,-0.83163 0.263249,-0.31719 0.263249,-0.3172 -0.174093,-0.17409 -0.174094,-0.1741 h 0.16708 0.16708 l 0.291506,0.54469 0.291507,0.54468 -0.170928,0.77824 -0.170929,0.77823 h -0.210488 -0.210488 z m 5.35917,8.08747 0.186711,0.1154 -0.05462,-2.16427 -0.05462,-2.16426 -0.05286,-0.1323 -0.05286,-0.13229 0.05067,-0.48407 0.05067,-0.48407 -0.61551,0.0872 -0.61551,0.0872 -0.0119,0.92604 -0.0119,0.92605 0.304023,0.52916 0.304022,0.52917 -0.06231,1.19062 -0.06231,1.19063 0.149357,0.25155 0.149357,0.25155 0.106448,-0.31934 0.106449,-0.31935 z m -39.739758,-0.95899 0.87868,-0.31774 v -0.22074 -0.22074 l -0.48384,0.25895 -0.48385,0.25894 0.0333,-0.45272 0.0333,-0.45273 0.21725,-0.35151 0.21725,-0.35152 -0.44219,0.0916 -0.44218,0.0916 0.0801,0.22254 0.0801,0.22253 -0.7276,0.38123 -0.72761,0.38123 v 0.38842 0.38843 h 0.44424 0.44423 z m 82.352174,-3.65102 0.0432,-2.91042 h -0.70638 -0.70638 l 0.30155,0.36334 0.30154,0.36334 -0.16516,0.43041 -0.16516,0.43041 h -0.23628 -0.23628 v -0.39687 -0.39688 h -0.24814 -0.24813 l 0.0144,0.59532 0.0144,0.59531 0.258,0.70859 0.258,0.70859 0.38942,0.14944 0.38942,0.14943 -0.16468,0.26645 -0.16468,0.26646 h 0.30889 0.30888 l -0.16052,0.63956 -0.16052,0.63956 0.33027,0.1333 0.33028,0.1333 0.0354,0.0209 0.0354,0.0209 z m -68.282221,2.08765 -0.358977,-0.22746 0.271858,-0.004 0.271858,-0.004 0.623168,0.43648 0.623169,0.43648 0.488153,-0.63492 0.488153,-0.63492 0.0059,-0.19844 0.0059,-0.19843 h 0.368568 0.368567 l 0.135798,-0.35389 0.135798,-0.35388 -0.887751,-0.96903 -0.887751,-0.96904 H 73.016795 72.63853 l -0.330381,-0.79761 -0.330381,-0.79761 -0.297031,0.0352 -0.297031,0.0352 -0.330729,-0.0313 -0.330729,-0.0314 v -0.26458 -0.26458 h 0.414892 0.414891 l -0.568042,-0.79775 -0.568043,-0.79774 -0.759751,-0.39288 -0.759752,-0.39288 h -0.83461 -0.834611 l -1.339468,-0.67278 -1.339468,-0.67278 -0.371667,0.14263 -0.371669,0.14262 0.077,0.5963 0.077,0.5963 -0.19459,0.31245 -0.19459,0.31244 0.30978,0.19146 0.309775,0.19145 -0.177485,-0.28718 -0.17749,-0.28718 0.27093,-0.16745 0.270927,-0.16744 0.402667,0.40267 0.402666,0.40266 -0.183166,0.7298 -0.183166,0.72979 -0.287676,0.35232 -0.287676,0.35232 -0.491156,0.4962 -0.49116,0.4962 0.21122,0.35099 0.21122,0.351 -0.44767,-0.36313 -0.44766,-0.36312 -0.0221,0.0985 -0.022,0.0985 -0.0684,0.627 -0.0684,0.627 1.0826,0.49166 1.082593,0.49167 0.31189,0.006 0.311891,0.006 0.911755,-0.85989 0.911755,-0.8599 0.165417,-0.0661 0.165417,-0.0661 h 0.264583 0.264584 v -0.28335 -0.28349 l 0.397195,-0.39719 0.397195,-0.3972 0.83408,0.4161 0.83408,0.41609 h 0.124038 0.124039 l -0.363126,-0.44019 -0.363126,-0.44019 0.595312,0.31721 0.595313,0.31721 v 0.25527 0.25528 h -0.236276 -0.236276 l -0.1636,0.42633 -0.163599,0.42633 0.399875,-0.15344 0.399876,-0.15345 v 0.25628 0.25628 h -0.206577 -0.206577 l -0.299607,0.79375 -0.299607,0.79375 h 0.406289 0.406289 l -0.363126,0.44641 -0.363126,0.44641 0.449476,-0.16832 0.449477,-0.16833 0.164885,0.51951 0.164885,0.5195 0.273782,-0.1692 0.273782,-0.16921 z m -14.034463,-2.28609 -0.0883,-0.46302 -0.59261,-0.0845 -0.59261,-0.0846 v -0.37847 -0.37847 h -0.42518 -0.42519 l 0.13993,0.36463 0.13992,0.36463 -0.30784,0.30785 -0.30784,0.30784 0.39466,0.24951 0.39466,0.24952 0.8793,0.004 0.8793,0.004 z m 1.10778,-2.3151 0.32938,-0.39688 h 0.26264 0.26265 l 0.89558,-0.97774 0.89558,-0.97775 0.0182,-0.27902 0.0182,-0.27903 0.0948,-0.7159 0.0948,-0.7159 -0.52257,-0.16585 -0.52256,-0.16586 -0.35845,0.29749 -0.35845,0.29748 -0.11937,-0.34177 -0.11936,-0.34177 -0.54955,0.48749 -0.54956,0.4875 -0.86276,0.43855 -0.86276,0.43854 -0.48858,0.8877 -0.48858,0.88769 0.8015,0.76595 0.8015,0.76595 h 0.49917 0.49918 z m 11.579404,-3.97591 -0.988302,-0.91888 h -0.453677 -0.453677 l 0.251354,0.22752 0.251354,0.22751 1.053607,0.69853 1.053606,0.69852 0.137019,-0.007 0.137018,-0.007 z m -12.963894,-1.39562 0.1132,-0.3396 -0.86191,0.3517 -0.8619,0.35169 -0.0683,0.46503 -0.0683,0.46503 0.81696,-0.47713 0.81696,-0.47712 z m 40.555211,-1.52257 0.341767,-0.4118 -0.375516,0.0811 -0.375516,0.0811 -0.01818,-0.52917 -0.01818,-0.52916 -0.199309,-0.59916 -0.199309,-0.59915 -0.275116,0.17003 -0.275115,0.17003 -0.207123,-0.33513 -0.207123,-0.33513 0.07284,0.76425 0.07284,0.76426 0.213617,0.52916 0.213618,0.52917 0.413271,0.32231 0.413272,0.32232 0.03375,0.008 0.03375,0.008 z m -5.965515,-8.32307 v -0.39325 l -0.574646,-0.0818 -0.574647,-0.0818 0.145835,0.55767 0.145835,0.55768 0.428811,-0.0826 0.428812,-0.0826 z"
       id="path18" /></g></svg>
