<?xml version="1.0" encoding="UTF-8" standalone="no"?>
<!-- Created with Inkscape (http://www.inkscape.org/) -->

<svg
   width="101.6mm"
   height="84.666656mm"
   viewBox="0 0 101.6 84.666656"
   version="1.1"
   id="svg1"
   xml:space="preserve"
   xmlns="http://www.w3.org/2000/svg"
   xmlns:svg="http://www.w3.org/2000/svg"><defs
     id="defs1" /><g
     id="layer1"
     transform="translate(-41.021958,-26.365264)"><path
       style="fill:#ffffff;fill-opacity:1"
       d="m 41.021959,68.698594 v -42.33333 h 50.800004 50.799997 v 42.33333 42.333326 H 91.821963 41.021959 Z m 27.761159,36.181766 0.289161,-0.46302 H 68.85837 68.644462 l -0.356316,0.33073 -0.356316,0.33073 0.169588,-0.30301 0.169588,-0.303 -0.416995,-0.16002 -0.416995,-0.16001 -0.176798,0.004 -0.176798,0.004 -0.379862,0.24037 -0.379862,0.24036 0.291217,0.3509 0.291217,0.35089 h 0.793913 0.793913 z m 6.327496,-2.32357 -0.279655,-0.80222 -0.36804,0.30545 -0.368041,0.30545 0.03069,0.43062 0.03069,0.43062 0.121,-0.46302 0.121,-0.46302 h 0.273491 0.27349 l -0.145736,0.37978 -0.145735,0.37979 0.315865,0.12849 0.315866,0.1285 0.05238,0.0209 0.05238,0.0209 z m 7.450931,-2.06725 v -0.26144 l 0.330729,-0.13345 0.330729,-0.133446 -0.727604,-0.0209 -0.727604,-0.0209 v -0.41577 -0.41577 l -0.413297,0.41329 -0.413297,0.4133 0.456177,0.772246 0.456177,0.77224 0.353995,-0.35399 0.353995,-0.354 z m 58.208335,-3.099266 v -0.41249 l 0.25131,0.15531 0.2513,0.15532 0.27786,-0.51918 0.27786,-0.51918 -0.0119,-0.61271 -0.0119,-0.61271 -0.36345,0.79375 -0.36345,0.79375 -0.0319,-0.39687 -0.0318,-0.39688 -0.38652,0.89027 -0.38652,0.89028 v 0.10191 0.10192 h 0.26458 0.26459 z m -0.46705,-4.92289 -0.30829,-0.30829 0.45382,-0.33361 0.45381,-0.33361 -0.52917,0.0466 -0.52916,0.0466 -0.16533,0.39687 -0.16533,0.39688 0.1148,0.19844 0.11479,0.19843 h 0.43418 0.43418 z m -11.17462,-3.5979 0.66146,-0.36273 -0.92604,0.1812 -0.92604,0.1812 -0.19844,0.11679 -0.19844,0.1168 v 0.24066 0.24067 l 0.46302,-0.17593 0.46302,-0.17593 z m -66.608853,0.20494 0.463021,-0.003 v -0.23941 -0.23941 l -1.124479,0.14216 -1.124479,0.14217 -0.396875,0.24683 -0.396876,0.24682 1.058334,-0.14667 1.058334,-0.14667 z m 3.443426,-0.70652 0.466862,-0.12824 -0.1455,-0.23543 -0.1455,-0.23542 -0.669316,0.25447 -0.669315,0.25448 H 64.15578 63.511546 v 0.27657 0.27657 l 0.992187,-0.16738 0.992188,-0.16739 z m -2.715821,-0.25328 1.984375,-0.39484 2.248958,-0.66295 2.248958,-0.66295 0.506527,-0.10958 0.506528,-0.10958 1.213264,-0.37517 1.213264,-0.37517 2.175178,-0.59228 2.175178,-0.59227 -0.04993,-1.68476 -0.04993,-1.68477 -0.405458,0.11838 -0.405458,0.11837 -2.459198,0.56746 -2.459198,0.56746 0.305986,0.36869 0.305986,0.36869 -0.160024,0.41702 -0.160023,0.41701 -0.266452,-0.16468 -0.266452,-0.16467 v -0.5444 -0.54439 l -0.661458,0.12644 -0.661459,0.12645 v -0.17006 -0.17006 l 2.463112,-0.61838 2.463112,-0.61838 -0.110972,-0.7561 -0.110971,-0.7561 -0.489339,0.26188 -0.489339,0.26189 -0.341447,-0.0697 -0.341448,-0.0697 -0.186595,-0.26104 -0.186596,-0.26103 -0.551315,0.59176 -0.551316,0.59177 h -0.386568 -0.386568 v -0.26458 -0.26459 h -0.529166 -0.529167 v 0.37586 0.37585 l -0.79375,0.17434 -0.79375,0.17433 v 0.80141 0.80141 l 0.683627,-0.17158 0.683628,-0.17158 -0.170076,0.27519 -0.170076,0.27519 h 0.41249 0.41249 v 0.66146 0.66146 H 69.72925 69.332375 v -0.66146 -0.66146 h -0.47625 -0.47625 l -0.3175,-0.3175 -0.3175,-0.3175 v -0.89095 -0.89096 l -0.595312,0.18578 -0.595313,0.18579 -0.168856,0.26282 -0.168856,0.26281 -0.26644,-0.16466 -0.266441,-0.16467 -0.153663,0.40044 -0.153663,0.40044 -1.27204,-0.045 -1.272039,-0.045 -0.56516,0.30247 -0.565159,0.30246 -1.939467,0.27158 -1.93947,0.27159 -0.33072,0.4425 -0.33073,0.4425 v 0.21401 0.21402 h 1.28084 1.28085 l 2.174742,-0.29268 2.174741,-0.29267 0.158547,0.15854 0.158546,0.15855 -0.786777,0.15735 -0.786777,0.15736 0.113089,0.77052 0.113088,0.77053 h -0.559196 -0.559197 l -0.03133,-0.46302 -0.03133,-0.46302 0.03133,-0.19844 0.03133,-0.19844 h -0.507527 -0.507527 l -0.418515,0.1606 -0.418514,0.1606 v 0.76544 0.76544 l 0.595312,0.022 0.595313,0.022 -1.531658,0.37104 -1.53167,0.37104 -0.56654,0.3032 -0.56654,0.30321 0.486,0.35537 0.48599,0.35537 1.61221,-0.01 1.612208,-0.01 z m 1.058333,-3.27645 v -0.52916 h 0.264583 0.264584 l 0.172072,-0.0661 0.172072,-0.0661 0.09085,0.59531 0.09085,0.59531 h -0.527507 -0.527506 z m 2.645833,-0.64388 v -0.64388 l -0.727604,-0.09 -0.727604,-0.09 0.845922,-0.14424 0.845923,-0.14423 -0.133933,0.21671 -0.133934,0.21671 h 0.544782 0.544782 v 0.24294 0.24294 l -0.1606,0.41852 -0.160599,0.41851 h -0.368567 -0.368568 z m 74.877082,2.89284 v -1.19062 h -0.60266 -0.60265 l -0.48613,0.56775 -0.48613,0.56776 0.43289,0.24225 0.43289,0.24226 -0.17873,0.2892 -0.17874,0.2892 0.25195,-0.15571 0.25195,-0.15571 0.38424,0.24307 0.38425,0.24307 0.19843,0.004 0.19844,0.004 z m -83.183151,-0.81539 -0.1606,-0.41851 v -0.24295 -0.24294 h -0.23627 -0.23628 l -0.16956,0.44187 -0.16956,0.44187 0.33969,0.21553 0.33969,0.21554 0.22675,0.004 0.22674,0.004 z m 76.846291,0.0148 0.78061,-0.40367 -1.9e-4,-0.0593 -1.8e-4,-0.0593 -0.67845,-0.0392 -0.67845,-0.0392 0.14536,0.14536 0.14535,0.14536 -0.45891,0.34847 -0.4589,0.34848 0.21157,0.008 0.21158,0.008 z m -92.651321,-0.91925 h 0.19277 l 0.25798,0.25798 0.25798,0.25798 0.29361,-0.47015 0.29362,-0.47016 -1.09052,0.14603 -1.09053,0.14603 -0.0982,0.51045 -0.0981,0.51046 0.44431,-0.44431 0.44431,-0.44431 z m 38.134016,-2.25588 1.190625,-0.39577 0.436502,-0.15331 0.436502,-0.1533 0.114696,-0.78148 0.114696,-0.78147 -0.243519,-0.15051 -0.243519,-0.1505 0.130571,-0.49931 0.130572,-0.4993 h -0.20674 -0.206741 l -0.796746,0.15935 -0.796747,0.15935 0.03607,0.80464 0.03607,0.80465 -0.330729,0.11638 -0.330729,0.11639 v -0.63941 -0.63941 l -0.13851,-0.13851 -0.13851,-0.13851 -0.589546,0.1127 -0.589547,0.1127 0.08223,1.23848 0.08223,1.23849 0.10836,0.33073 0.108359,0.33073 0.206741,-0.004 0.206742,-0.004 z m -35.251696,-0.33535 0.1139,-0.34227 -0.7535,0.17954 -0.7535,0.17954 -0.36326,0.19146 -0.36327,0.19145 1.00287,-0.0287 1.00286,-0.0287 z m 75.865241,-2.17689 2.64583,-0.32261 0.31256,-0.39077 0.31255,-0.39077 -0.14242,-0.37115 -0.14243,-0.37116 h -0.63315 -0.63315 l -0.0186,-1.12448 -0.0186,-1.12448 -0.22085,0.52917 -0.22085,0.52916 0.1312,0.57683 0.13119,0.57683 -0.55067,-0.144 -0.55067,-0.14401 0.16391,-0.69741 0.16392,-0.6974 -0.27634,0.26458 -0.27634,0.26458 -0.0885,0.66146 -0.0885,0.66146 -0.53862,0.0771 -0.53861,0.0771 v -0.54014 -0.54014 h 0.27743 0.27744 l 0.26118,-0.58848 0.26118,-0.58847 0.85989,-0.24355 0.8599,-0.24355 v -0.22631 -0.22631 h -0.5044 -0.50439 l 0.13838,-0.52917 0.13838,-0.52916 h -0.29545 -0.29544 v -0.43385 -0.43386 l 0.43593,-0.31876 0.43593,-0.31875 -1.56041,0.11015 -1.56041,0.11016 -0.33073,0.10498 -0.33072,0.10499 v 0.89765 0.89766 l -0.72761,-0.14861 -0.7276,-0.1486 0.42405,-0.0912 0.42406,-0.0912 -0.12742,-0.66655 -0.12742,-0.66656 -0.9195,0.12392 -0.91949,0.12391 -0.28996,0.28995 -0.28995,0.28995 h -0.60854 -0.60854 v -1.01615 -1.01616 l -1.38906,0.024 -1.38907,0.024 0.085,-0.39688 0.085,-0.39687 -0.33639,0.33073 -0.3364,0.33073 h -0.74084 -0.74083 v -0.27289 -0.27289 l 0.39688,-0.15229 0.39687,-0.1523 v -0.27728 -0.27728 l -0.48449,0.43846 -0.48449,0.43846 -0.17697,-0.17697 -0.17697,-0.17697 v 0.47337 0.47337 l -0.37332,-0.30983 -0.37332,-0.30982 -0.17579,0.28444 -0.1758,0.28445 -0.31078,-0.0384 -0.31078,-0.0384 -0.33073,0.0314 -0.33073,0.0313 v 1.19062 1.19063 l -0.19843,-0.004 -0.19844,-0.004 -0.39688,-0.26556 -0.39687,-0.26556 0.46302,-0.35486 0.46302,-0.35487 v -0.16927 -0.16927 h -0.66146 -0.66146 v 0.2802 0.28019 l -0.2346,-0.14499 -0.2346,-0.14499 -0.32455,0.39105 -0.32454,0.39104 -0.19478,-0.12037 -0.19477,-0.12038 0.12551,-2.72098 0.12551,-2.72098 -0.16722,0.15622 -0.16722,0.15622 -0.14451,3.11056 -0.1445,3.11057 1.07235,-0.18118 1.07236,-0.18117 0.23419,0.61856 0.23418,0.61855 -0.26651,0.33073 -0.26651,0.33073 h -0.48115 -0.48116 l -0.16619,0.2689 -0.16618,0.2689 -0.22802,-0.14092 -0.22802,-0.14093 -0.1665,0.2694 -0.16649,0.26939 0.63328,0.24078 0.63328,0.24077 v 0.43666 0.43666 l -0.94809,-0.0817 -0.94809,-0.0817 v 0.39594 0.39594 l -0.39687,-0.01 -0.39688,-0.01 -0.85989,-0.18209 -0.8599,-0.1821 v -0.38144 -0.38144 l 0.33073,-0.13345 0.33073,-0.13346 -0.44741,-0.0209 -0.4474,-0.0209 -0.166187,0.2689 -0.16619,0.2689 -0.2463,-0.15223 -0.2463,-0.15222 0.0152,0.21405 0.0152,0.21406 0.60947,0.92592 0.609477,0.92592 1.42579,0.31643 1.42579,0.31643 7.80521,-0.0917 7.80521,-0.0917 z m -7.27605,-1.86386 v -0.28197 l 0.24082,-0.44998 0.24082,-0.44997 -0.36373,-0.65711 -0.36374,-0.65711 -0.009,1.10886 -0.009,1.10886 -0.26458,0.16353 -0.26458,0.16352 v -1.71979 -1.7198 l 0.26458,-0.16352 0.26458,-0.16352 v 0.38418 0.38419 l 0.46302,0.20117 0.46302,0.20117 0.26459,0.0514 0.26458,0.0514 0.33073,0.0403 0.33073,0.0403 v 0.90127 0.90127 l -0.54044,-0.14133 -0.54043,-0.14132 0.0426,0.23224 0.0426,0.23224 -0.0313,0.33073 -0.0313,0.33073 h -0.39688 -0.39687 z m 5.27058,-0.24719 -0.0398,-0.39687 0.0533,-0.52917 0.0533,-0.52916 0.20627,-0.21593 0.20628,-0.21592 0.13243,0.5064 0.13243,0.5064 -0.35221,0.63557 -0.3522,0.63556 z m -14.66268,-0.79277 -0.16412,-0.26556 h 0.41248 0.41249 v -0.26458 -0.26459 h 0.38126 0.38126 l 0.17441,0.28219 0.1744,0.28219 -0.0926,0.0775 -0.0926,0.0775 -0.71139,0.17049 -0.71139,0.17048 z m 13.62544,-0.46296 v -0.50607 l -0.56854,0.021 -0.56853,0.021 -0.10156,-0.29049 -0.10156,-0.29049 1.00082,0.0608 1.00083,0.0608 v 0.60455 0.60456 l -0.33073,0.11024 -0.33073,0.11024 z m -9.62899,-1.01486 -0.1606,-0.41852 v -0.52593 -0.52593 l 0.59532,0.0845 0.59531,0.0846 0.0829,0.85989 0.0829,0.8599 h -0.51762 -0.51763 z m 1.69149,-0.50753 v -0.92604 h 0.11065 0.11065 l 0.41852,0.1606 0.41851,0.1606 v 0.76544 0.76544 h -0.52917 -0.52916 z m -3.175,-0.13229 v -0.79375 h 0.42518 0.42518 l -0.15757,0.41061 -0.15756,0.41062 0.26155,-0.16165 0.26155,-0.16165 v 0.54479 0.54478 h -0.52917 -0.52916 z m 7.29489,-0.20164 -0.15114,-0.15114 v -0.22049 -0.22048 h 1.29461 1.29461 l 0.14644,0.38161 0.14644,0.38162 -1.28992,-0.01 -1.28991,-0.01 z m 5.27282,-0.59211 0.16352,-0.26459 0.84428,0.004 0.84428,0.004 -0.39688,0.25648 -0.39687,0.25648 -0.61093,0.004 -0.61093,0.004 z m -42.465629,5.72347 1.455209,-0.33952 -0.02646,-0.31072 -0.02646,-0.31073 -0.03969,-0.39688 -0.03969,-0.39687 H 78.460495 78.06362 v -0.31516 -0.31515 l -0.38846,0.51359 -0.388461,0.51359 -0.0084,-0.33073 -0.0084,-0.33073 h -0.264583 -0.264584 v 0.54479 0.54478 l -0.240707,-0.14877 -0.240707,-0.14876 -0.420751,0.16145 -0.420751,0.16146 v 0.63315 0.63315 l 0.330729,-0.0112 0.330729,-0.0112 z m -12.963861,-1.21418 2.975131,-0.51778 0.143671,-0.14368 0.143671,-0.14367 -0.63941,0.0158 -0.63941,0.0158 -1.302247,0.21377 -1.302247,0.21376 -0.682128,-0.18724 -0.682128,-0.18724 -0.79375,0.23971 -0.79375,0.23972 -1.256774,-0.0127 -1.25677,-0.0127 v 0.39211 0.39211 h 1.555507 1.555504 z m 17.70628,-0.006 1.071349,-0.28848 -0.327196,-0.53403 -0.327197,-0.53402 -0.924026,0.17042 -0.924027,0.17041 -0.200452,0.12389 -0.200453,0.12388 v 0.67415 0.67416 l 0.380326,-0.14595 0.380327,-0.14594 z m -10.589302,-1.37177 2.804175,-0.57262 0.264583,-0.23681 0.264584,-0.23681 -0.436258,0.16601 -0.436258,0.166 -0.17467,-0.28262 -0.174669,-0.28262 H 73.29866 72.798256 l -0.211585,0.34908 -0.211585,0.34908 -2.05052,0.47559 -2.050521,0.47559 v 0.10137 0.10137 h 0.304679 0.30468 z m 15.746712,-0.55187 0.15434,-0.33072 0.15434,0.33072 0.15434,0.33073 h 0.21776 0.21777 l -0.13031,-0.49829 -0.1303,-0.49829 -1.03555,-0.0143 -1.035552,-0.0143 v 0.51258 0.51258 h 0.63941 0.639412 z m 49.896,-0.0505 v -0.38126 l -0.23974,-0.14817 -0.23974,-0.14817 0.15094,-0.59505 0.15094,-0.59504 0.38381,-0.59532 0.38382,-0.59531 -1.02262,0.0396 -1.02261,0.0396 0.7276,0.11022 0.7276,0.11022 v 0.24701 0.24701 h -0.41249 -0.41249 l 0.16353,0.26458 0.16352,0.26459 h -0.2802 -0.2802 v -0.26459 -0.26458 h -0.48403 -0.48403 l 0.021,0.58706 0.021,0.58705 -0.46302,0.0938 -0.46302,0.0938 v -0.53295 -0.53296 l 0.26459,-0.16352 0.26458,-0.16352 v -0.38126 -0.38126 h -0.34631 -0.3463 l -0.51352,0.3755 -0.51352,0.37549 0.30767,0.81513 0.30768,0.81513 h -0.17701 -0.17702 l -0.34861,-0.78756 -0.3486,-0.78757 0.15209,-0.24609 0.1521,-0.2461 -0.52954,0.13848 -0.52953,0.13847 0.004,0.69675 0.004,0.69675 0.26053,0.39687 0.26054,0.39688 0.23565,-0.36569 0.23566,-0.36569 0.17499,0.55133 0.17498,0.55133 1.50759,0.0951 1.50758,0.0951 0.46302,0.05 0.46303,0.05 z m 3.47794,0.16632 0.69982,-0.0496 0.12052,-1.12448 0.12052,-1.12448 -0.19625,-0.22258 -0.19624,-0.22257 -1.74816,0.18721 -1.74817,0.18721 0.11382,0.62764 0.11381,0.62765 -0.40235,0.22517 -0.40236,0.22517 0.38161,0.3816 0.3816,0.3816 1.03101,-0.0249 1.03101,-0.0249 z m -1.89044,-1.50485 v -0.70026 l 0.46303,0.0892 0.46302,0.0892 v 0.52192 0.52192 l -0.46302,0.0892 -0.46303,0.0892 z m -75.670828,1.07936 v -0.37585 l 0.79375,-0.17434 0.79375,-0.17434 v -0.2486 -0.2486 l -0.727605,0.18027 -0.727604,0.18027 -0.661457,0.1989 -0.661458,0.19891 0.330729,0.0227 0.330729,0.0227 v 0.39688 0.39687 h 0.264583 0.264584 z m 14.485937,-0.24041 0.330729,-0.001 v -0.19531 -0.19531 l -1.124479,0.14054 -1.124479,0.14055 -0.264583,0.25174 -0.264584,0.25174 1.058334,-0.19587 1.058334,-0.19588 z m -5.884024,-0.81655 0.658503,-0.43147 v -0.20179 -0.20179 H 71.05217 69.596962 v 0.34018 0.34018 h -0.264584 -0.264583 v -0.39687 -0.39688 h -0.264583 -0.264584 v 0.39688 0.39687 h -0.396875 -0.396875 v 0.35278 0.35278 l 0.1283,0.1283 0.128299,0.12829 1.594448,-0.188 1.594448,-0.188 z m -21.897226,0.37809 0.33073,-0.004 v -0.26459 -0.26458 l -0.46302,0.008 -0.46302,0.008 -0.52917,0.42153 -0.52917,0.42152 0.661461,-0.16174 0.66146,-0.16175 z m 13.972347,-1.18582 0.513591,-0.38846 -0.264584,-0.0267 -0.264583,-0.0266 -0.774061,-0.10097 -0.77406,-0.10096 -0.241531,0.14927 -0.241531,0.14928 0.618716,0.34085 0.618717,0.34085 0.147868,0.0259 0.147869,0.0259 z m 38.481294,-0.71798 v -0.48106 h -0.37797 -0.37798 l -0.41577,0.41577 -0.41578,0.41578 v 0.0653 0.0653 h 0.79375 0.79375 z m -41.979227,-2.78227 0.158755,-0.9783 -0.138523,-0.13852 -0.138522,-0.13852 -0.246146,0.38921 -0.246148,0.38921 -0.004,-0.33073 -0.004,-0.33073 -0.59531,0.0307 -0.59532,0.0307 0.46303,0.121 0.46302,0.121 v 0.2608 0.26079 l -0.26459,-0.16352 -0.26458,-0.16352 v 0.39085 0.39085 l 0.1606,0.41852 0.1606,0.41851 h 0.46624 0.466239 z m 5.202149,-0.25798 v -0.38241 l -0.266452,0.16468 -0.266452,0.16467 -0.158731,-0.41364 -0.15873,-0.41365 h -0.350872 -0.350871 l 0.0211,0.74224 0.0211,0.74223 0.75495,-0.11081 0.754951,-0.1108 z m 2.910416,-0.21894 v -0.66146 h -0.529166 -0.529167 v 0.14969 0.14969 l 0.273892,0.51177 0.273893,0.51177 h 0.255274 0.255274 z m 42.413332,-1.70702 -0.1261,-0.48221 0.28666,-0.17717 0.28667,-0.17717 -0.40718,-0.78739 -0.40717,-0.78738 -0.25331,0.15656 -0.25332,0.15655 v 1.26321 1.2632 l 0.15816,0.15816 0.15816,0.15816 0.34177,-0.13115 0.34177,-0.13115 z m -51.106681,0.0163 -0.35898,-0.22746 0.29283,-0.18098 0.292833,-0.18098 -0.02089,-0.4474 -0.02089,-0.44741 -0.133456,0.33073 -0.13345,0.33073 h -0.522729 -0.52273 l 0.16352,-0.26458 0.16352,-0.26459 h -0.13229 -0.13229 l -0.15378,0.24881 -0.15377,0.24882 0.58492,0.54493 0.58493,0.54494 0.28084,-0.004 0.280834,-0.004 z m 69.212081,-3.00558 -0.10128,-1.12448 v 2.24896 2.24896 l 0.10128,-1.12448 0.10128,-1.12448 z m -62.188576,2.44739 h 0.403542 l -0.152295,-0.39687 -0.152295,-0.39688 h 0.388571 0.388571 v 0.38126 0.38126 l 0.287637,0.17777 0.287638,0.17777 0.294447,-0.29444 0.294445,-0.29445 h 0.572491 0.57249 l 0.131873,-2.52117 0.131873,-2.52117 0.102616,-0.0972 0.102615,-0.0972 1.455208,-0.0936 1.455209,-0.0936 -0.01151,1.45521 -0.01151,1.45521 -0.231796,0.52917 -0.231795,0.52916 0.507884,-0.42849 0.507885,-0.4285 0.33073,0.11982 0.330729,0.11981 v -0.94809 -0.94809 h 0.396875 0.396875 v 0.41892 0.41893 l 0.330729,-0.10892 0.330729,-0.10892 0.0592,-0.64073 0.0592,-0.64074 -0.151079,0.34178 -0.151078,0.34177 -0.313467,-0.26016 -0.313467,-0.26015 0.106797,-1.11987 0.106797,-1.11987 0.324956,0.60718 0.324955,0.60719 0.05094,-3.07466 0.05094,-3.07467 -0.871101,0.003 -0.871103,0.003 -0.934381,0.15462 -0.93438,0.15461 0.105257,2.6206 0.105257,2.62059 h -0.295356 -0.295356 l -0.03603,-0.85989 -0.03603,-0.8599 -0.114662,0.59532 -0.114662,0.59531 H 71.69521 71.449029 l 0.0036,-2.18281 0.0036,-2.18282 0.147287,-0.54846 0.147286,-0.54846 1.635037,-0.0369 1.63504,-0.0369 1.521354,-0.16826 1.521354,-0.16826 v -0.3709 -0.3709 H 77.799004 77.53442 v -0.26458 -0.26458 h 0.507527 0.507527 l 0.418514,0.1606 0.418515,0.1606 v 0.92031 0.92031 l 1.785937,-0.14251 1.785939,-0.14251 0.46302,-0.0288 0.46302,-0.0288 v -0.38043 -0.38043 h -0.264583 -0.264583 v -0.28135 -0.28134 l 0.859669,0.0829 0.859669,0.0829 -0.09059,4.72721 -0.09059,4.72722 0.300845,-0.18593 0.300844,-0.18593 0.385285,0.31975 0.385285,0.31976 v 0.26303 0.26303 l -0.661458,-0.12644 -0.661458,-0.12645 v 0.25585 0.25584 l 0.645222,0.7668 0.645222,0.76681 0.150176,-0.24299 0.150177,-0.24299 -0.332378,-0.14439 -0.332378,-0.14439 0.72668,0.15024 0.726684,0.15024 -0.13998,-0.75605 -0.13998,-0.75606 0.21893,-1.19062 0.21892,-1.19063 0.51729,0.046 0.51729,0.046 1.190634,0.28851 1.19062,0.28851 0.99488,0.43446 0.99489,0.43445 0.16708,-0.16708 0.16707,-0.16707 -0.63279,-0.54017 -0.6328,-0.54017 -0.90251,-0.39679 -0.90251,-0.39679 -0.47043,0.14931 -0.47044,0.14931 -0.28012,-0.52341 -0.28012,-0.5234 -0.595894,-0.0846 -0.59589,-0.0846 0.073,-1.71979 0.073,-1.71979 0.0373,-0.33073 0.0373,-0.33073 h 0.35277 0.35278 v -0.24356 -0.24356 l 0.771274,-0.1694 0.77127,-0.1694 0.23042,-0.97431 0.23042,-0.97431 0.46043,-0.0887 0.46043,-0.0887 -0.0382,0.21917 -0.0382,0.21917 0.0313,0.37121 0.0313,0.37122 0.49405,-0.56965 0.49406,-0.56966 h 0.328 0.328 l -0.14904,-0.3884 -0.14904,-0.3884 0.22819,-0.14103 0.22818,-0.14103 -0.13831,-0.5289 -0.13831,-0.5289 h -0.36601 -0.36602 v -0.77034 -0.77034 l -0.46302,0.0886 -0.46302,0.0886 -0.32243,0.0203 -0.32242,0.0202 0.14664,0.38214 0.14664,0.38214 -0.48568,-0.004 -0.48567,-0.003 -1.09205,0.1588 -1.092054,0.1588 -0.14566,-0.73588 -0.14565,-0.73588 0.34966,-0.35928 0.34966,-0.35928 0.755764,-0.0846 0.75575,-0.0845 0.59531,-0.18234 0.59531,-0.18234 0.005,-0.29987 0.005,-0.29987 0.98742,-0.8118 0.98742,-0.8118 0.85989,-0.50201 0.8599,-0.50202 0.0283,-1.86118 0.0283,-1.86119 0.0956,-2.77812 0.0956,-2.77813 1.59665,-1.01679 1.59666,-1.0168 1.23699,0.42148 1.236987,0.42149 h 0.21745 0.21745 v -0.52917 -0.52916 h 0.2746 0.2746 l -0.0762,0.70316 -0.0762,0.70317 1.98437,0.59926 1.98438,0.59926 4.72245,1.23206 4.72246,1.23206 1.09837,0.39184 1.09838,0.39184 3.04271,0.75216 3.04271,0.75216 6.48229,1.63518 6.48229,1.63519 0.26237,0.25359 0.26238,0.2536 -0.36242,0.22398 -0.36241,0.22399 0.1818,0.29416 0.1818,0.29417 h -0.2235 -0.2235 v 0.52916 0.52917 h 0.34018 0.34018 v 0.28241 0.28242 l -0.46302,-0.14408 -0.46302,-0.14409 -0.38187,0.23962 -0.38187,0.23962 1.63864,0.18539 1.63864,0.1854 0.0316,0.56113 0.0316,0.56114 -0.054,1.4877 -0.054,1.48771 0.8823,0.14846 0.8823,0.14846 1.12448,0.17303 1.12448,0.17303 V 40.543674 27.159014 H 91.822003 41.815749 v 18.62005 18.62005 l 0.16451,0.82253 0.1645,0.82253 0.23237,-0.14361 0.23237,-0.14362 v -0.79596 -0.79596 l 0.5623,0.17846 0.5623,0.17847 -0.16974,-0.27465 -0.16974,-0.27464 0.24118,-0.14906 0.24117,-0.14905 0.13902,0.36228 0.13902,0.36228 h 0.68246 0.68245 v -0.23655 -0.23655 l 0.70092,0.17592 0.70092,0.17592 -0.18737,-0.30317 -0.18737,-0.30317 h 0.41249 0.41249 v 0.26458 0.26458 h 0.26459 0.26458 v -0.66145 -0.66146 h 0.63941 0.63941 l 0.12605,0.33073 0.12605,0.33073 0.19363,-1.11967 0.19363,-1.11967 0.20933,0.12937 0.20933,0.12938 0.70203,-0.26691 0.70202,-0.26691 0.60918,0.15289 0.60918,0.1529 0.36423,0.70743 0.36422,0.70744 0.265,0.21858 0.26501,0.21858 -0.33073,0.13419 -0.33073,0.1342 v 0.63262 0.63261 l 0.79375,0.41047 0.79375,0.41046 0.0209,1.24998 0.0209,1.24997 0.14343,-0.36066 0.14343,-0.36067 0.19573,0.3167 0.19574,0.31671 0.16081,-0.41906 0.1608,-0.41906 h -0.25627 -0.25628 l 0.0307,-0.7276 0.0307,-0.72761 0.121,0.46302 0.121,0.46302 h 0.24518 0.24519 v -0.50711 -0.50712 l -0.33073,-0.1519 -0.33073,-0.1519 0.59294,0.14693 0.59295,0.14693 0.2952,-0.18245 0.29519,-0.18244 -0.31519,-0.1948 -0.3152,-0.1948 0.53174,-0.13906 0.53173,-0.13905 -0.15745,0.41033 -0.15746,0.41033 0.32113,-0.19847 0.32114,-0.19847 0.40545,0.33649 0.40545,0.3365 0.24442,-0.37987 0.24442,-0.37986 0.24441,0.37986 0.244422,0.37987 0.41704,-0.34612 0.417041,-0.34611 v -4.74572 -4.74572 l 0.268629,0.16603 0.26863,0.16602 0.01262,4.67824 0.01261,4.67824 -0.0175,0.6835 -0.0175,0.68351 h 0.3722 0.372201 l -0.0933,-0.55122 -0.0933,-0.55121 0.650361,-0.47717 0.650361,-0.47716 0.228013,0.14092 0.228012,0.14092 0.174866,1.39458 0.174865,1.39458 0.08461,0.52916 0.08461,0.52917 0.400879,-0.0696 0.400879,-0.0696 0.342269,0.41241 0.342269,0.41241 0.376125,-0.14433 0.376125,-0.14434 z m 6.863401,-6.82385 -0.171337,-0.27723 0.399307,-0.39931 0.399306,-0.39931 0.0041,-0.34963 0.0041,-0.34962 0.256481,0.39687 0.25648,0.39688 v 0.52916 0.52917 l -0.22962,-0.36247 -0.229619,-0.36248 -0.258882,0.4626 -0.258882,0.46259 z m -3.277797,-1.82474 0.104412,-0.84338 -0.50358,0.26951 -0.50358,0.2695 -0.139074,-0.13907 -0.139075,-0.13907 0.650658,-0.60997 0.650659,-0.60997 0.138636,-0.39687 0.138636,-0.39688 0.183649,0.92829 0.18365,0.9283 -0.434701,0.7915 -0.434701,0.7915 z m 60.424292,7.7071 -0.14636,-0.38142 h -0.26458 -0.26459 l 0.12399,0.39687 0.12399,0.39688 0.17324,0.46302 0.17323,0.46302 0.11373,-0.47848 0.11372,-0.47847 z m 8.56828,-0.11684 0.2832,-0.52917 h -0.38413 -0.38414 l -0.10945,0.32837 -0.10946,0.32837 -0.46066,-0.46066 -0.46066,-0.46066 h -0.11339 -0.11339 v 0.33414 0.33413 l 0.59531,0.29484 0.59531,0.29483 0.18913,0.0325 0.18913,0.0325 z m -80.322681,-0.42518 0.41852,-0.1606 v -0.25411 -0.2541 l -0.52917,0.16795 -0.52917,0.16795 v -0.4147 -0.41471 h -0.29289 -0.29289 l 0.1606,0.41852 0.1606,0.41851 v 0.24294 0.24295 h 0.242941 0.242949 z m 1.485701,-1.03003 -0.0191,-0.26458 h -0.457897 -0.457895 l -0.33073,-0.21405 -0.33073,-0.21406 v 0.42811 0.4281 l 0.2463,-0.15222 0.246301,-0.15222 0.17524,0.28355 0.17525,0.28355 0.386179,-0.0808 0.386182,-0.0808 z m 20.099481,-0.7251 v -0.46552 h 0.529167 0.529167 v -0.42518 -0.42519 l 0.396875,0.1523 0.396875,0.15229 0.0096,-1.38076 0.0096,-1.38075 0.154194,-2.35549 0.154194,-2.35549 -0.449983,0.17268 -0.449983,0.17267 H 80.68789 79.386613 v 3.43958 3.43959 h 0.264583 0.264583 v 0.24568 0.24569 l -0.401599,0.4016 -0.4016,0.4016 0.07087,0.3449 0.07087,0.3449 0.240909,0.17416 0.240909,0.17415 0.486695,-0.30394 0.486695,-0.30395 z m -32.503062,0.007 0.21579,-0.3401 0.004,-0.19844 0.004,-0.19844 h -0.25528 -0.25527 l -0.296549,0.55411 -0.29654,0.5541 -0.50625,-0.13239 -0.50625,-0.13239 -0.17369,0.28104 -0.1737,0.28104 1.01192,-0.16421 1.01191,-0.16421 z m 93.263461,-3.1205 -0.39714,-0.79608 0.24545,-0.85585 0.24546,-0.85584 v -0.0835 -0.0835 l -0.19844,0.12071 -0.19844,0.1207 -0.0404,-1.04297 -0.0404,-1.04296 -0.16304,-0.64963 -0.16305,-0.64962 h -0.50851 -0.50851 l -0.16619,-0.2689 -0.16619,-0.2689 -0.24817,0.15338 -0.24817,0.15338 -0.18176,-0.47979 -0.18177,-0.47979 -0.34553,-0.34963 -0.34553,-0.34963 v 2.18614 2.18613 l 0.37524,-0.51317 0.37524,-0.51318 0.19994,0.19994 0.19993,0.19993 0.0287,0.65485 0.0287,0.65485 -0.25988,-0.25989 -0.25989,-0.25989 h -0.15251 -0.15251 l 0.10425,1.09318 0.10425,1.09318 -0.26797,-0.16562 -0.26798,-0.16561 -0.15171,0.39535 -0.15171,0.39536 h 0.33565 0.33566 l 0.28534,-0.28535 0.28535,-0.28534 0.84234,0.74836 0.84233,0.74837 0.57888,0.58443 0.57888,0.58443 0.0855,-0.38596 0.0855,-0.38596 z m -1.93928,-3.33644 -0.13051,-0.34011 0.19612,-0.31734 0.19613,-0.31733 0.35649,0.48752 0.35648,0.48753 v 0.16992 0.16991 h -0.4221 -0.4221 z m -10.3423,3.27257 0.11114,-1.38906 -0.20011,-0.39688 -0.2001,-0.39687 -0.13751,0.39687 -0.13752,0.39688 -0.0439,0.39687 -0.0439,0.39688 0.0314,0.99218 0.0314,0.99219 h 0.23905 0.23905 z m 1.81141,-0.19844 h 0.24519 l 0.0209,0.33073 0.0209,0.33073 0.134,-0.33238 0.134,-0.33238 0.24199,0.14956 0.24198,0.14955 v -0.39687 -0.39688 l -0.26458,-0.16352 -0.26459,-0.16352 v -1.03441 -1.03442 l 0.36764,0.14108 0.36764,0.14107 -0.12437,0.47559 -0.12437,0.4756 0.35204,0.1249 0.35205,0.12489 1.10304,-0.11415 1.10305,-0.11416 0.32383,-0.7818 0.32383,-0.7818 0.35207,0.1351 0.35206,0.1351 0.26353,-0.45204 0.26354,-0.45203 0.0411,0.39688 0.041,0.39687 0.21242,-1.45521 0.21242,-1.4552 -0.52155,-0.5585 -0.52155,-0.5585 -0.70741,0.0293 -0.7074,0.0293 -0.31906,-1.05833 -0.31905,-1.05833 -0.0203,-1.15534 -0.0203,-1.15534 -0.51524,0.13474 -0.51524,0.13474 -0.11553,-0.43461 -0.11553,-0.43461 -0.0266,0.92604 -0.0266,0.92604 0.21732,-0.34257 0.21732,-0.34257 0.42487,1.93007 0.42486,1.93007 -0.36137,0.72761 -0.36137,0.7276 h 0.21599 0.216 l 0.15229,0.39688 0.1523,0.39687 h -0.49256 -0.49255 l -0.15318,-0.39917 -0.15317,-0.39917 0.24102,-0.63394 0.24102,-0.63395 -0.22866,-0.75282 -0.22867,-0.75282 -0.18293,0.59531 -0.18293,0.59531 h -0.31545 -0.31544 l -0.51359,-0.37555 -0.51359,-0.37554 v -1.87341 -1.87342 l -0.1323,-5.3e-4 -0.13229,-5.3e-4 -0.0697,-0.9732 -0.0697,-0.9732 -0.0626,-0.0517 -0.0625,-0.0517 -0.59531,-0.18299 -0.59531,-0.18299 v 0.28241 0.28241 h 0.39687 0.39688 v 0.42927 0.42928 l -0.40293,-0.33441 -0.40294,-0.3344 0.18331,0.4777 0.18332,0.4777 -0.30955,-0.19131 -0.30955,-0.19131 v 0.21656 0.21655 l -0.50299,0.31413 -0.503,0.31412 -0.95221,-0.26292 -0.95221,-0.26291 -0.0281,-0.58288 -0.0281,-0.58288 -0.038,-0.40098 -0.038,-0.40099 -0.59902,-0.76388 -0.59902,-0.76389 -0.0893,0.10654 -0.0893,0.10654 -0.30003,0.88839 -0.30004,0.8884 0.92674,-0.10819 0.92674,-0.10819 -0.73213,0.59934 -0.73213,0.59934 -0.66146,0.0409 -0.66146,0.0409 -0.29767,-0.0354 -0.29767,-0.0354 -0.45452,0.69367 -0.45451,0.69368 1.3383,-0.18407 1.33829,-0.18406 0.6674,0.72013 0.66739,0.72013 0.38558,-0.32 0.38558,-0.32001 0.60717,0.0865 0.60718,0.0865 0.0943,0.49435 0.0943,0.49436 -0.26528,-0.16395 -0.26528,-0.16395 0.30165,0.63919 0.30166,0.6392 0.21826,-0.13489 0.21826,-0.1349 -0.15954,-0.7264 -0.15955,-0.7264 0.38509,-0.31959 0.38508,-0.31959 0.17431,0.28203 0.17431,0.28204 -0.18124,1.4506 -0.18124,1.4506 h -0.2341 -0.2341 l 0.0313,0.19844 0.0313,0.19844 -0.0313,0.33073 -0.0313,0.33073 h -0.39687 -0.39688 v 0.51602 0.51602 l -0.46302,0.2977 -0.46302,0.29771 0.46302,-0.14396 0.46302,-0.14397 v 0.25628 0.25628 l 0.19844,-0.042 0.19844,-0.042 0.45118,0.19806 0.45119,0.19807 -0.50629,0.54343 -0.50628,0.54344 0.26681,0.49854 0.26681,0.49854 0.25131,-0.15531 0.25131,-0.15532 v 0.2802 0.28019 h 0.26458 0.26459 v -0.51355 -0.51355 l 0.21107,-0.13045 0.21107,-0.13045 0.31141,0.19247 0.31142,0.19246 0.11931,0.64998 0.11931,0.64997 0.0503,1.32292 0.0504,1.32291 0.121,-0.46302 0.121,-0.46302 z m -2.02842,-4.53781 -0.16737,-0.2708 0.27666,-0.27666 0.27667,-0.27666 0.41465,0.15912 0.41466,0.15912 v 0.34887 0.34888 l -0.52395,0.0395 -0.52396,0.0395 z m 0.16536,-4.79705 0.008,-1.38076 0.38846,0.51359 0.38846,0.51359 v 0.71487 0.71487 l -0.39688,0.1523 -0.39687,0.15229 z m -1.06675,8.2453 v -0.26459 l -0.26459,0.16353 -0.26458,0.16352 v -0.2802 -0.2802 h 0.29698 0.29698 l -0.33208,-0.40014 -0.33209,-0.40013 -0.36177,0.30024 -0.36177,0.30024 v 0.2478 0.2478 l 0.24554,-0.15174 0.24553,-0.15175 0.17039,0.53685 0.17039,0.53685 0.24553,-0.15175 0.24554,-0.15175 z m -17.64184,-3.03635 -0.047,-2.27408 -0.15139,-0.15139 -0.15139,-0.1514 v 2.42535 2.42535 l 0.19843,1.3e-4 0.19844,1.2e-4 z m -18.415907,-0.83503 -0.25496,-0.33073 h -0.21574 -0.21575 l 0.0399,0.52917 0.0399,0.52917 h 0.2082 0.20828 l 0.0264,0.46302 0.0264,0.46302 0.19619,-0.66146 0.1962,-0.66146 z m 35.520057,-2.71198 h 0.2731 v -0.39687 -0.39688 h -0.25527 -0.25527 l -0.2739,0.51178 -0.27389,0.51177 0.0168,0.48041 0.0168,0.48042 0.23929,-0.59531 0.23928,-0.59532 z m 9.77745,-2.3151 -0.0468,-1.25677 0.0651,-0.26458 0.0651,-0.26459 -0.0313,-0.28663 -0.0313,-0.28663 h -0.39687 -0.39688 v 0.30865 0.30865 l 0.30111,1.49934 0.30111,1.49933 h 0.10885 0.10884 z m -35.33477,-2.61915 -0.17592,-0.70092 0.3052,0.18862 0.3052,0.18863 0.41375,-0.41375 0.41374,-0.41374 h 0.22679 0.22678 l 0.36462,0.36461 0.36462,0.36462 0.91105,0.21576 0.91105,0.21576 0.38882,0.0149 0.38881,0.0149 0.0407,-0.81012 0.0407,-0.81012 -0.7892,-0.34933 -0.7892,-0.34934 -0.22518,0.36435 -0.22518,0.36436 -0.67116,0.0516 -0.67115,0.0516 -0.26334,-0.49207 -0.26335,-0.49206 -0.93898,-0.30989 -0.93899,-0.3099 -0.44469,0.17065 -0.4447,0.17064 0.38946,0.2463 0.38946,0.2463 -0.29987,0.004 -0.29987,0.004 -0.13881,0.53083 -0.13881,0.53082 0.83555,0.9042 0.83556,0.9042 0.0712,0.0202 0.0712,0.0202 z m 30.15154,-1.6971 0.30909,-0.0168 -0.61231,-0.24557 -0.61231,-0.24558 0.19017,-0.3077 0.19017,-0.3077 -0.3456,0.21359 -0.3456,0.2136 -0.35674,-0.48787 -0.35674,-0.48787 -0.35673,0.48787 -0.35674,0.48787 -0.3456,-0.2136 -0.3456,-0.21359 0.19312,0.31248 0.19312,0.31248 0.31078,-0.0589 0.31078,-0.0589 0.59531,0.20199 0.59531,0.202 v 0.27506 0.27506 l 0.41852,-0.1606 0.41851,-0.1606 z m -4.12268,-0.77407 0.59531,-0.003 v -0.29544 -0.29544 l -0.5289,0.13831 -0.5289,0.13831 -0.13687,-0.22146 -0.13687,-0.22146 0.2689,-0.16619 0.26889,-0.16619 v -0.52386 -0.52386 l -0.57905,0.53947 -0.57906,0.53948 h -0.21469 -0.2147 v -0.39688 -0.39687 h -0.26458 -0.26458 l -0.0414,0.33073 -0.0414,0.33073 -0.0518,0.75588 -0.0518,0.75589 0.95313,-0.15766 0.95313,-0.15766 z m -4.7069,-1.8747 -0.27265,-0.50946 h -0.1386 -0.1386 l 0.15222,0.2463 0.15223,0.2463 -0.2689,0.16619 -0.2689,0.16619 -0.0348,-0.87551 -0.0348,-0.87551 -0.16361,0.85278 -0.16361,0.85278 -0.39687,-0.25341 -0.39688,-0.25342 0.37174,-0.004 0.37174,-0.004 -0.40336,-0.46303 -0.40336,-0.46302 0.13399,-0.39687 0.13399,-0.39688 -0.21032,0.19615 -0.21031,0.19614 -0.35508,-0.29469 -0.35507,-0.29468 v 0.42927 0.42927 h 0.3175 0.3175 l -0.3175,0.3175 -0.3175,0.3175 v 0.57768 0.57769 l 0.59531,0.15954 0.59532,0.15953 0.7276,0.004 0.7276,0.004 0.0168,0.46302 0.0168,0.46302 0.24658,-0.61502 0.24658,-0.61501 z m 1.4148,0.11461 -0.13678,-0.35645 -0.23686,0.14639 -0.23686,0.14639 v -0.39044 -0.39044 l 0.2712,-0.1345 0.27119,-0.1345 -0.33734,0.0669 -0.33734,0.0669 -0.0819,1.11481 -0.0819,1.11481 0.52167,-0.44668 0.52168,-0.44667 z m -6.82821,-1.48692 v -1.38611 l -0.59531,-0.0845 -0.59532,-0.0846 v 0.28298 0.28299 h 0.20789 0.20789 l 0.007,0.59531 0.007,0.59531 -0.28084,0.20328 -0.28084,0.20328 0.46859,0.276 0.46858,0.27601 -0.1516,0.24529 -0.15159,0.24529 0.34447,-0.13222 0.34447,-0.13222 z m -1.62629,-0.0507 -0.13639,-0.80621 -0.29055,-0.60036 -0.29055,-0.60036 -0.21312,0.33578 -0.21312,0.33577 -0.004,1.28508 -0.004,1.28508 0.39687,-0.1523 0.39688,-0.15229 0.004,0.32242 0.004,0.32243 0.24318,-0.38441 0.24318,-0.38442 z m -1.82646,0.45561 0.17574,-0.45798 -0.27972,-0.0932 -0.27973,-0.0932 v -1.03628 -1.03629 h -0.25628 -0.25628 l 0.1523,0.39688 0.15229,0.39687 h -0.29289 -0.29289 l 0.0313,-0.19844 0.0313,-0.19843 -0.0313,-0.38365 -0.0313,-0.38364 -0.31859,0.31858 -0.31858,0.31859 0.0623,0.92495 0.0623,0.92496 h -0.27288 -0.27287 v -0.64424 -0.64423 l -0.25803,-0.67868 -0.25804,-0.67868 h -0.40344 -0.40342 l -0.0268,0.46302 -0.0268,0.46302 0.0515,0.92604 0.0515,0.92604 0.0932,0.0958 0.0932,0.0958 0.82323,0.0648 0.82323,0.0648 0.30249,0.30249 0.30249,0.30249 h 0.44795 0.44794 z m -4.49332,-1.90631 -0.1813,-0.94301 -0.0517,-0.32307 -0.0517,-0.32307 -0.17765,-0.17765 -0.17765,-0.17766 -0.40327,0.33469 -0.40327,0.33468 v 0.50527 0.50526 l 0.3969,0.94992 0.3969,0.94992 0.41707,-0.34613 0.41707,-0.34614 z"
       id="path19" /></g></svg>
