<?xml version="1.0" encoding="UTF-8" standalone="no"?>
<!-- Created with Inkscape (http://www.inkscape.org/) -->

<svg
   width="101.6mm"
   height="84.666672mm"
   viewBox="0 0 101.6 84.666672"
   version="1.1"
   id="svg1"
   xml:space="preserve"
   xmlns="http://www.w3.org/2000/svg"
   xmlns:svg="http://www.w3.org/2000/svg"><defs
     id="defs1" /><g
     id="layer1"
     transform="translate(-41.021962,-130.49624)"><path
       style="fill:#ffffff;fill-opacity:1"
       d="m 41.021962,172.82957 v -42.33334 h 50.800001 50.799997 v 42.33334 42.33333 H 91.821963 41.021962 Z m 12.0944,41.10743 0.0995,-0.29839 -0.87141,-0.16393 -0.87141,-0.16393 -0.79375,-0.75824 -0.79375,-0.75823 -1.5875,0.12966 -1.5875,0.12967 -0.24506,0.22543 -0.24505,0.22544 -0.35632,-0.29572 -0.35631,-0.29571 0.16666,0.4343 0.16666,0.4343 h -1.08664 -1.08665 v 0.29766 0.29765 l 0.7835,-0.1567 0.78349,-0.15669 0.13825,0.2237 0.13826,0.2237 -0.72331,0.14598 -0.72331,0.14597 -0.46302,0.17913 -0.46302,0.17913 v -0.60804 -0.60805 l -0.3922,0.51359 -0.39221,0.51359 0.1607,-0.85989 0.16069,-0.8599 h -0.31327 -0.31328 l 0.16619,-0.2689 0.16619,-0.2689 0.2463,0.15223 0.2463,0.15222 v -0.52426 -0.52427 l 0.89815,-0.29641 0.89814,-0.29641 0.13159,-0.50321 0.13159,-0.5032 -0.56671,-0.11091 -0.56671,-0.11092 0.79625,-0.036 0.79625,-0.036 0.33047,-0.52917 0.33047,-0.52917 -0.46526,-0.0307 -0.46527,-0.0307 0.43587,-0.11577 0.43587,-0.11577 0.13213,-0.50527 0.13213,-0.50527 -0.38485,-0.31939 -0.38484,-0.31939 -0.36809,-0.88096 -0.36809,-0.88096 h -0.75775 -0.75775 l -0.71096,0.74208 -0.71096,0.74208 v 4.29266 4.29265 l 5.60059,-0.0745 5.6006,-0.0745 z m 4.83893,0.0353 v -0.39687 h 0.529171 0.529167 v 0.39687 0.39688 h 4.365625 4.365625 l 0.02089,-0.33073 0.02089,-0.33073 0.133452,0.33073 0.133452,0.33073 h 7.78316 7.783159 l 0.0041,-0.33073 0.0041,-0.33073 0.208615,0.32849 0.208614,0.32848 6.798791,-0.0237 6.79879,-0.0236 v -0.53568 -0.53567 l 0.39688,0.32938 0.39687,0.32938 v -0.38681 -0.3868 l 0.69565,-0.31696 0.69565,-0.31696 -0.16009,-0.16009 -0.16008,-0.16009 -0.33713,0.26991 -0.33712,0.2699 -0.58683,0.17981 -0.58682,0.17981 0.29188,-0.8373 0.29189,-0.83729 -0.36652,-0.23212 -0.36652,-0.23212 0.47864,-0.004 0.47863,-0.004 -0.16618,-0.2689 -0.16619,-0.2689 -0.2463,0.15222 -0.24631,0.15222 -0.0227,-0.47863 -0.0227,-0.47864 -0.23715,0.79375 -0.23715,0.79375 0.25989,0.0882 0.2599,0.0882 v 0.27493 0.27494 l -0.38529,-0.31976 -0.38528,-0.31976 -0.30362,0.18765 -0.30362,0.18764 0.48975,-0.74745 0.48975,-0.74745 -0.46231,0.17741 -0.4623,0.1774 -0.0397,-0.38857 -0.0397,-0.38857 -0.0265,-0.33073 -0.0265,-0.33073 -0.26458,-0.19439 -0.26459,-0.19438 0.83826,-0.004 0.838261,-0.004 0.389269,-0.14938 0.38928,-0.14938 -0.13391,-0.51208 -0.13392,-0.51208 h 0.20013 0.20013 l 0.34209,0.46302 0.34208,0.46302 0.34633,-0.34175 0.34633,-0.34174 -0.39466,-0.2709 -0.39467,-0.2709 0.59532,0.16746 0.595307,0.16745 0.0271,-0.34856 0.0271,-0.34856 -0.005,-0.99219 -0.005,-0.99218 h 0.3745 0.3745 v -0.26459 -0.26458 h -0.28348 -0.28348 l 0.4182,-0.41821 0.41821,-0.4182 -0.15114,-0.24455 -0.15115,-0.24456 -1.108057,0.01 -1.108059,0.01 -2.16523,-0.0324 -2.16523,-0.0324 0.15153,-0.39488 0.15153,-0.39488 0.183539,0.29696 0.183531,0.29697 1.09703,-0.17542 1.09703,-0.17542 0.46855,-0.35553 0.468559,-0.35553 -0.67469,-0.008 -0.674689,-0.008 -0.28237,0.28237 -0.28237,0.28236 -0.159121,-0.41466 -0.15912,-0.41465 h 1.06893 1.06893 l -0.41374,-0.41375 -0.41375,-0.41374 -0.24833,0.15347 -0.24833,0.15348 -0.1517,-0.24545 -0.15169,-0.24546 1.05945,-0.17899 1.05946,-0.17899 v -0.30998 -0.30997 l -0.52917,-0.33047 -0.52916,-0.33047 v 0.5031 0.5031 l -0.39688,0.1523 -0.39687,0.15229 -0.42358,-0.16254 -0.42358,-0.16254 -0.20106,0.32532 -0.20106,0.32532 -0.16081,-0.41906 -0.16081,-0.41906 h 0.379271 0.37926 l 0.27244,-0.50906 0.27245,-0.50907 0.79519,-0.3967 0.7952,-0.39669 0.0209,0.44274 0.0209,0.44274 0.13346,-0.33073 0.13345,-0.33073 0.440969,-0.0209 0.44097,-0.0209 -0.36067,-0.14343 -0.36066,-0.14343 0.36066,-0.23256 0.36067,-0.23255 -0.35291,-0.22777 -0.35292,-0.22776 0.440701,-0.16911 0.4407,-0.16911 h 0.50753 0.507526 v 0.24518 0.24518 l -0.463016,0.1344 -0.46302,0.1344 0.661446,-0.0488 0.66146,-0.0489 -0.0922,-1.05833 -0.0922,-1.05833 -0.27089,-0.33073 -0.270896,-0.33073 h 0.295536 0.29554 l -0.14364,-0.99219 -0.14364,-0.99219 -0.1112,-0.33073 -0.11119,-0.33072 h 0.2311 0.2311 l -0.14352,-1.12448 -0.14351,-1.12448 -0.0861,-0.10043 -0.0861,-0.10042 -2.457216,0.93387 -2.45721,0.93387 -2.18281,0.85716 -2.182821,0.85716 v 0.22195 0.22195 l 0.59532,-0.2408 0.59531,-0.24079 3.92071,-1.23473 3.92071,-1.23473 0.15709,0.15709 0.157087,0.15709 -0.836657,0.29166 -0.83665,0.29165 v 0.2387 0.23871 h -0.41249 -0.41249 l 0.15638,0.25302 0.15638,0.25303 0.45455,-0.14071 0.45455,-0.14072 -0.4791,0.3067 -0.47909,0.30671 -0.35891,-0.13773 -0.3589,-0.13773 -0.14741,0.38414 -0.14741,0.38414 -0.67515,0.25669 -0.67515,0.2567 -0.5884,0.10925 -0.5884,0.10925 -0.99511,0.18925 -0.99511,0.18924 -0.14499,0.23459 -0.14498,0.23459 h -0.26458 -0.26459 l 0.18879,-0.30546 0.18879,-0.30547 -0.30547,0.18879 -0.30546,0.18879 v 0.64584 0.64585 l 0.33073,-0.004 0.33073,-0.004 0.59531,-0.15954 0.59531,-0.15954 v -0.20895 -0.20896 l -0.59531,0.11295 -0.59531,0.11296 0.52494,-0.22906 0.52494,-0.22905 0.46725,0.12219 0.46724,0.12219 v 0.12033 0.12033 l -0.33728,0.33729 -0.33729,0.33728 -0.9885,0.46908 -0.98849,0.46907 -0.14683,0.6961 -0.146829,0.69609 -0.3959,0.73008 -0.39589,0.73009 0.41127,0.41126 0.41127,0.41127 0.23889,-0.14764 0.23889,-0.14764 0.163,0.42479 0.16301,0.42478 -0.698891,-0.1754 -0.69888,-0.17541 0.14195,0.54285 0.14196,0.54285 -1.232,-0.0168 -1.231998,-0.0168 0.612308,-0.24558 0.61231,-0.24557 -0.17578,-0.28443 -0.17579,-0.28442 0.48952,-0.37086 0.48952,-0.37085 -0.33683,-0.008 -0.33683,-0.008 0.38959,-0.59532 0.38959,-0.59531 -0.669,-0.64322 -0.66899,-0.64322 -0.2011,0.32538 -0.201101,0.32539 -0.662726,-0.12018 -0.662726,-0.12017 -0.372024,0.23552 -0.372025,0.23552 0.529167,0.0256 0.529167,0.0256 -0.926042,0.39362 -0.926042,0.39362 -0.366324,0.44469 -0.366324,0.4447 0.159583,-0.46302 0.159583,-0.46302 h -0.52503 -0.52503 l -1.054166,0.329 -1.054167,0.329 v 0.32591 0.32591 l -0.697171,-0.26507 -0.697172,-0.26506 -0.611947,0.40096 -0.611948,0.40096 -0.151868,-0.24572 -0.151868,-0.24573 -0.911764,0.38096 -0.911765,0.38096 H 76.616476 75.94652 v 0.39687 0.39688 h -0.282413 -0.282413 l 0.167951,0.52917 0.167951,0.52916 H 75.335288 74.95298 l -0.308023,0.37115 -0.308023,0.37114 0.29232,0.0974 0.292321,0.0974 -0.62043,0.72204 -0.62043,0.72204 h -0.321846 -0.322306 v -0.40518 -0.40518 l 0.396875,-0.15229 0.396875,-0.1523 v -0.26458 -0.26458 l -0.396875,0.15229 -0.396875,0.1523 v -0.25628 -0.25628 h 0.264584 0.264583 v -0.38857 -0.38857 l 0.396875,0.15229 0.396875,0.1523 v -0.82187 -0.82206 l -0.556727,0.55673 -0.556728,0.55673 -0.776258,-0.15526 -0.776259,-0.15525 -0.167301,0.45842 -0.167301,0.45842 -0.602526,0.61754 -0.602527,0.61754 -0.54302,-0.17235 -0.54302,-0.17234 v 0.4147 0.41471 l -0.46302,0.0239 -0.463021,0.0239 0.918461,0.26346 0.918461,0.26346 0.09578,-0.28732 0.09577,-0.28733 0.440972,0.0209 0.440972,0.0209 -0.332377,0.134 -0.332378,0.134 0.129135,0.20895 0.129136,0.20894 -1.185821,0.33201 -1.18582,0.33201 v 0.2302 0.2302 H 67.62822 66.982377 l -0.163522,0.26458 -0.163521,0.26459 0.478635,0.0139 0.478636,0.0139 -1.235715,0.61355 -1.235715,0.61356 -0.74601,0.18724 -0.746009,0.18724 -0.154879,0.25059 -0.154879,0.2506 -1.369126,0.16216 -1.369124,0.16215 v -0.34554 -0.34553 l -0.198438,0.19844 -0.198437,0.19843 -0.03307,0.24254 -0.03307,0.24253 -0.03307,0.26459 -0.03307,0.26458 H 59.42776 58.783526 l -0.698613,0.26561 -0.6986,0.26561 -0.39585,0.39585 -0.39585,0.39585 h 0.43467 0.43468 l 0.39687,-0.39688 0.396875,-0.39687 0.708706,0.0149 0.708705,0.0149 -0.926042,0.32205 -0.926044,0.32206 0.0772,0.5229 0.0772,0.52291 -0.27562,-0.39687 -0.27561,-0.39688 -0.23788,0.36929 -0.23788,0.36928 -0.38143,-0.14637 -0.38142,-0.14636 -0.37289,0.23605 -0.37288,0.23605 0.47864,0.004 0.47863,0.004 -0.12882,0.20844 -0.12882,0.20845 0.79159,0.35039 0.79159,0.35039 -0.14091,0.36721 -0.14091,0.36721 h 0.25628 0.25627 z m 0.768428,-1.2924 0.354703,-0.42739 h -0.29698 -0.29698 v -0.25396 -0.25393 l 0.797028,0.0555 0.797029,0.0555 -0.360263,0.26458 -0.360264,0.26458 -0.02591,0.26459 -0.02592,0.26458 -0.468574,0.0967 -0.468574,0.0967 z m 36.654673,-1.94874 -0.17856,-0.59532 h -0.24934 -0.24934 l 0.16352,-0.26458 0.16352,-0.26458 h 0.35295 0.35296 l 0.12398,0.33073 0.12398,0.33073 -0.212549,0.52916 -0.21255,0.52917 z m 2.99201,-3.97688 -0.72761,-0.0932 v -0.2387 -0.23871 l 0.39688,0.1523 0.39687,0.15229 v -0.27084 -0.27084 l -0.33073,-0.13346 -0.33072,-0.13345 0.26458,-0.015 0.26458,-0.015 0.63131,0.48543 0.6313,0.48542 -0.23443,0.11345 -0.23443,0.11346 z M 77.26988,206.12765 v -0.22514 h 0.29289 0.292891 l -0.125832,-0.33073 -0.125833,-0.33073 0.213688,-0.57476 0.213688,-0.57476 0.56026,0.14651 0.560259,0.14652 -0.147256,0.38374 -0.147255,0.38374 v 0.12627 0.12626 l -0.246302,-0.15222 -0.246301,-0.15222 -0.166188,0.2689 -0.166189,0.2689 0.346344,0.0313 0.346344,0.0313 0.198437,-0.0313 0.198438,-0.0313 v 0.26458 0.26459 l -0.198438,0.0414 -0.198437,0.0414 -0.727604,0.0514 -0.727604,0.0514 z m 6.635776,-0.15899 0.350572,-0.46302 0.503296,-0.57573 0.503296,-0.57573 -0.175626,-0.28417 -0.175627,-0.28416 h 0.280199 0.280198 v 0.28241 0.28241 l 0.5623,-0.17847 0.562299,-0.17846 -0.18104,0.29293 -0.181039,0.29293 h -0.396875 -0.396875 l 0.177767,0.28763 0.177767,0.28763 0.499306,-0.13057 0.499307,-0.13057 v 0.27288 0.27289 l -0.79375,-0.15875 -0.793751,-0.15875 -0.0041,0.32412 -0.0041,0.32411 -0.25648,-0.39687 -0.25648,-0.39688 -0.0041,0.56701 -0.0041,0.567 -0.418515,0.1606 -0.418514,0.1606 h -0.14305 -0.143049 z m 1.03714,-2.66141 v -0.31515 h -0.396875 -0.396874 v -0.26459 -0.26458 h 0.519858 0.519857 l 0.283202,-0.52917 0.283201,-0.52916 h 0.365518 0.365517 l 0.119771,0.33072 0.119772,0.33073 0.5895,-0.34906 0.5895,-0.34906 0.165011,0.16501 0.16501,0.16501 -0.333735,0.20626 -0.333736,0.20626 2.06119,-0.0505 2.06119,-0.0505 -0.59531,0.26716 -0.59532,0.26715 v 0.23977 0.23977 l -0.25911,-0.16015 -0.25912,-0.16014 -0.55967,0.29953 -0.55967,0.29953 0.17516,-0.55188 0.17516,-0.55187 h -0.10964 -0.10964 l -0.610134,0.52916 -0.610134,0.52917 h -0.356391 -0.356391 v -0.30559 -0.30559 l -0.483855,0.43788 -0.483854,0.43788 -0.376041,-0.004 -0.376042,-0.004 0.389213,-0.24614 0.389212,-0.24615 -0.212407,-0.2124 -0.212408,-0.21241 -0.375243,0.51317 -0.375242,0.51318 z m 33.243814,10.66483 -0.75514,-0.39384 -0.23705,0.1465 -0.23704,0.1465 v 0.24897 0.24897 l 0.99218,-0.002 0.99219,-0.002 z m 19.80999,-0.52894 0.005,-0.79375 -0.18628,-0.73271 -0.18628,-0.73271 0.19401,0.1199 0.194,0.11991 -0.0776,-3.09137 -0.0776,-3.09136 -0.001,-0.45471 -0.001,-0.45472 -0.39687,0.15229 -0.39688,0.1523 v -0.29289 -0.29289 h 0.25628 0.25628 l -0.13091,-0.34116 -0.13092,-0.34116 0.94901,-1.1087 0.94901,-1.1087 0.27673,0.0608 0.27674,0.0608 0.37361,-1.32292 0.37362,-1.32292 0.65653,-2.1323 0.65652,-2.1323 v -2.70139 -2.70138 l -0.7276,0.13891 -0.7276,0.13892 0.7276,-0.28821 0.7276,-0.28822 v -0.24253 -0.24254 h -0.14283 -0.14283 l -1.06756,0.54463 -1.06755,0.54463 -0.27303,-0.091 -0.27303,-0.091 1.48342,-0.72636 1.48341,-0.72636 v -4.52678 -4.52677 l -1.45926,0.15061 -1.45927,0.15061 0.15197,-0.24589 0.15196,-0.24589 h -0.2802 -0.2802 v -0.51355 -0.51355 l 0.29417,-0.1818 0.29416,-0.18181 0.23501,0.36463 0.235,0.36463 0.26053,-0.39688 0.26053,-0.39687 0.004,-0.8599 0.004,-0.8599 h -0.24253 -0.24254 l -0.11812,0.33073 -0.11811,0.33073 -0.20622,-0.19204 -0.20622,-0.19204 0.33227,-0.40036 0.33226,-0.40036 0.23461,0.145 0.2346,0.14499 v -0.80936 -0.80937 h -0.26458 -0.26459 v 0.37211 0.3721 l -0.52916,-0.13838 -0.52917,-0.13838 v -0.49831 -0.4983 h 0.52917 0.52916 l 0.0186,-0.46303 0.0186,-0.46302 0.2274,0.52917 0.22739,0.52917 0.0186,-0.31351 0.0186,-0.3135 -0.25804,-0.67869 -0.25803,-0.67868 0.19188,-4e-5 0.19189,-4e-5 0.014,-1.05829 0.014,-1.05829 h -0.42413 -0.42413 l -0.32852,-0.32852 -0.32851,-0.32852 -0.23611,0.38203 -0.23611,0.38203 0.13045,0.21107 0.13045,0.21107 h -0.13946 -0.13946 l -0.39473,-0.7276 -0.39473,-0.72761 -0.0106,2.94349 -0.0106,2.94349 -0.13489,0.89297 -0.13489,0.89297 0.28923,-0.7276 0.28923,-0.72761 0.17639,0.0186 0.17639,0.0186 0.52917,0.21759 0.52916,0.21759 -0.44631,0.18258 -0.44632,0.18259 0.1439,0.37498 0.14389,0.37498 h -0.68977 -0.68976 v 1.19062 1.19063 h -0.53848 -0.53847 l 0.27389,-0.51177 0.27389,-0.51178 v -0.67885 -0.67885 h -0.2802 -0.2802 l 0.16619,-0.2689 0.16619,-0.2689 0.20786,0.12846 0.20786,0.12847 0.1819,-2.81361 0.18191,-2.81361 -0.24515,-0.15481 -0.24514,-0.15481 -0.11618,-0.52917 -0.11618,-0.52916 0.32094,-0.66146 0.32093,-0.66146 0.19159,-3.60382 0.19159,-3.60381 -0.29466,-0.18211 -0.29467,-0.18211 0.0396,-0.97658 0.0396,-0.97657 0.11023,0.7276 0.11022,0.72761 h 0.24701 0.24701 v 3.83646 3.83646 h 0.24897 0.24896 l 0.16353,-0.26459 0.16352,-0.26458 h 0.20972 0.20973 l 0.77989,0.7453 0.77989,0.74531 0.32595,-0.10865 0.32596,-0.10865 -0.0396,0.22324 -0.0396,0.22324 0.0313,0.33073 0.0313,0.33073 h 0.39687 0.39688 v -4.61419 -4.61419 l -1.85209,-0.1825 -1.85208,-0.18249 v -0.25985 -0.25984 l 0.92804,0.1741 0.92803,0.1741 0.92405,0.11831 0.92405,0.11831 v -0.26297 -0.26296 l -0.46302,-0.0307 -0.46302,-0.0307 0.46302,-0.121 0.46302,-0.121 V 144.76433 131.28998 H 91.821973 41.815721 v 25.84098 25.84097 l 0.19844,-0.2003 0.19844,-0.2003 v -0.54104 -0.54105 l 0.68136,-0.51052 0.68137,-0.51052 1.22883,0.65338 1.22883,0.65337 -0.38884,0.14921 -0.38885,0.14921 v 0.91109 0.91109 l -1.06748,0.18035 -1.06748,0.18035 -0.39894,-0.33108 -0.39894,-0.33109 -0.25982,0.25981 -0.25981,0.25982 0.0809,4.61053 0.0809,4.61053 0.22098,-0.59531 0.220979,-0.59531 h 0.233721 0.23372 v 0.39687 0.39688 h 0.79375 0.79375 l 0.004,0.33073 0.004,0.33073 0.27475,-0.39688 0.27476,-0.39687 -0.0831,0.52916 -0.0831,0.52917 -0.62197,0.0884 -0.62198,0.0884 0.17727,-0.28683 0.17728,-0.28684 h -1.07395 -1.07395 v 0.39033 0.39033 l 0.70454,-0.26787 0.70455,-0.26787 0.25126,0.25127 0.25127,0.25126 -0.27346,0.75076 -0.27347,0.75075 -0.0209,-0.51972 -0.0209,-0.51971 -0.44727,0.44727 -0.44728,0.44727 0.17508,0.17508 0.175079,0.17507 4.30709,-0.33133 4.307091,-0.33133 0.529169,-0.0606 0.529161,-0.0606 1.455209,-0.19507 1.45521,-0.19506 2.5551,-0.50783 2.555106,-0.50783 h 1.030001 1.030001 l 0.251354,-0.24073 0.251354,-0.24072 1.455208,-0.09 1.455209,-0.09 0.366637,-0.34774 0.366637,-0.34773 0.281592,0.28159 0.281592,0.28159 h 0.504557 0.504558 l -0.143893,-0.37498 -0.143892,-0.37498 0.401808,-0.15419 0.401808,-0.15418 0.573673,0.0209 0.573673,0.0209 -0.33073,0.13345 -0.330729,0.13345 v 0.22734 0.22735 l 0.582714,-0.11222 0.582713,-0.11222 0.211037,0.32585 0.211036,0.32585 0.198438,-0.29071 0.198437,-0.29071 0.463021,0.004 0.463021,0.004 v 0.22048 0.22049 h 0.256279 0.25628 l -0.142026,-0.37011 -0.142025,-0.37012 0.282621,-0.17467 0.282622,-0.17467 v 0.41249 0.41249 h 0.401916 0.401916 l -0.176075,-0.7276 -0.176074,-0.7276 -0.225842,-0.61254 -0.225841,-0.61254 v -0.17648 -0.17649 l 0.661457,0.97342 0.661459,0.97343 v 0.37523 0.37523 l 0.529166,0.67272 0.529167,0.67273 v 0.2566 0.2566 l 0.354501,0.29421 0.354501,0.29421 4.474145,-1.47622 4.474144,-1.47623 0.264584,-0.20755 0.264583,-0.20756 0.79375,-0.14834 0.79375,-0.14833 1.794824,-0.60095 1.79483,-0.60094 -0.0859,-0.40844 -0.0859,-0.40844 -0.6068,0.067 -0.60679,0.067 0.12155,-0.33157 0.12154,-0.33156 0.29766,0.0661 0.29765,0.0661 -0.004,-0.19844 -0.004,-0.19844 -0.16147,-0.60273 -0.16148,-0.60273 -0.56252,0.15341 -0.56251,0.15341 0.46762,-0.37696 0.46761,-0.37696 -0.16519,-0.43049 -0.1652,-0.43049 h -0.38418 -0.38418 l 0.163521,-0.26458 0.163519,-0.26459 h -0.280196 -0.280198 l -0.02089,0.33073 -0.02089,0.33073 -0.12009,-0.29064 -0.12009,-0.29064 -1.370301,0.44671 -1.370301,0.44672 -1.00696,-0.2556 -1.00696,-0.25559 0.318413,-0.38367 0.318414,-0.38366 -0.352271,-0.21771 -0.35227,-0.21772 0.170338,-0.44389 0.170338,-0.4439 0.860404,0.0471 0.860404,0.0471 0.661458,-0.0454 0.661458,-0.0454 -0.43006,-0.17984 -0.43006,-0.17984 0.223097,-0.59531 0.223096,-0.59531 0.603839,0.008 0.603837,0.008 -0.513589,0.38846 -0.513592,0.38846 h 0.740336 0.740336 l -0.144138,-0.37562 -0.144139,-0.37562 1.874557,0.14877 1.87456,0.14877 -0.19838,-0.32098 -0.19838,-0.32099 -1.00725,0.17017 -1.00726,0.17017 -0.201587,-0.61452 -0.201591,-0.61453 -0.05477,-1.32291 -0.05477,-1.32292 -1.156632,-2.38125 -1.156633,-2.38125 -0.132292,2.51354 -0.132293,2.51354 0.143573,0.26459 0.143573,0.26458 -0.0383,0.94056 -0.0383,0.94056 -0.183412,0.97767 -0.183411,0.97767 h -0.596553 -0.596553 l -0.339612,0.33073 -0.339612,0.33073 0.05346,-0.39688 0.05346,-0.39687 -0.03135,-0.34635 -0.03135,-0.34634 -0.241985,0.14955 -0.241985,0.14956 -0.101787,-0.30536 -0.101787,-0.30536 -1.442165,0.31887 -1.442165,0.31887 -0.531365,0.10612 -0.531365,0.10613 -0.307554,-0.19008 -0.307554,-0.19008 -0.181952,-0.72495 -0.181951,-0.72496 h 0.690141 0.690141 v 0.23373 0.23372 l 0.53263,0.13929 0.532629,0.13928 0.282123,-0.52715 0.282122,-0.52715 0.367458,0.48487 0.367459,0.48487 0.01247,-0.26458 0.01247,-0.26459 0.285491,0.39688 0.28549,0.39687 -0.141523,-0.44367 -0.141523,-0.44368 0.315002,-0.25917 0.315002,-0.25916 1.260024,-0.18758 1.260024,-0.18759 0.145808,-0.23592 0.145808,-0.23592 -0.412125,-0.15815 -0.412125,-0.15815 0.146387,-0.23686 0.146387,-0.23685 H 84.61342 84.253846 l -0.3175,0.3175 -0.3175,0.31749 -0.01677,-0.38364 -0.01677,-0.38365 -0.255878,0.64017 -0.255877,0.64016 -0.322665,-0.32266 -0.322664,-0.32267 v -0.18523 -0.18521 l -0.615163,-0.61516 -0.615166,-0.61517 0.06475,-1.10463 0.06475,-1.10462 -0.0449,-0.59531 -0.0449,-0.59532 H 80.97301 80.708427 v 0.39688 0.39687 h -0.396875 -0.396875 v -0.39687 -0.39688 h -0.368568 -0.368567 l -0.157569,0.41062 -0.157568,0.41062 0.233828,-0.14452 0.233829,-0.14451 0.163016,0.42481 0.163017,0.42482 -0.419098,-0.16083 -0.419097,-0.16082 0.0955,0.46209 0.09551,0.4621 0.452883,-0.0368 0.452884,-0.0367 v 1.4582 1.45821 l -0.396875,-0.32938 -0.396875,-0.32937 v 0.29698 0.29698 h -0.368568 -0.368567 l -0.160599,-0.41852 -0.160599,-0.41851 v -0.60313 -0.60313 l -0.661459,0.12645 -0.661458,0.12644 v 0.39434 0.39434 l 0.388402,-0.14904 0.388401,-0.14905 0.174662,0.28261 0.174663,0.28261 -0.25905,0.16886 -0.25905,0.16885 -0.135032,0.72761 -0.135032,0.7276 0.161747,-0.004 0.161747,-0.004 0.396875,-0.25648 0.396875,-0.25648 -0.374826,-0.004 -0.374827,-0.004 0.134129,-0.13413 0.13413,-0.13413 0.836009,0.16721 0.83601,0.1672 v 0.24712 0.24713 l -0.264583,-0.16352 -0.264583,-0.16353 v 0.25422 0.25422 l -1.653646,0.18838 -1.653646,0.18838 -0.264583,0.16067 -0.264584,0.16068 -0.47219,0.0735 -0.47219,0.0735 0.283061,-0.52891 0.283062,-0.5289 h -0.257437 -0.258278 l -0.164121,0.26555 -0.164122,0.26556 -0.620297,-0.15569 -0.620297,-0.15568 -0.168943,0.53229 -0.168943,0.53229 -2.435691,0.5824 -2.43569,0.58239 -1.984375,0.0908 -1.984375,0.0908 1.058334,-0.3854 1.058333,-0.38539 -1.190625,0.0992 -1.190625,0.0992 -1.058333,0.32791 -1.058333,0.32791 -1.521355,0.12163 -1.521359,0.12164 v 0.40484 0.40483 l -2.51354,-0.18844 -2.51354,-0.18845 v 0.27729 0.27728 l 0.96099,0.18028 0.96098,0.18029 4.264537,-0.15751 4.264536,-0.1575 3.836458,-0.81228 3.836458,-0.81227 1.322917,-0.23651 1.322917,-0.23651 1.322916,-0.29462 1.322918,-0.29463 0.46302,-0.14042 0.463021,-0.14042 v 0.52495 0.52495 l 0.33073,0.13345 0.330729,0.13345 -0.595313,0.0209 -0.595313,0.0209 v 0.371 0.37099 l -0.764718,0.26658 -0.764717,0.26658 -0.293616,-0.29361 -0.293616,-0.29362 v 0.3175 0.3175 h -0.529166 -0.529167 l -0.03603,-0.7276 -0.03603,-0.72761 -0.115176,0.59924 -0.115177,0.59924 -0.244498,-0.15111 -0.244499,-0.15111 -0.694866,0.7425 -0.694866,0.74249 -0.27354,-0.42561 -0.27354,-0.42561 -0.884846,0.27156 -0.884846,0.27157 v 0.32163 0.32162 l -0.529166,0.13838 -0.529167,0.13838 v -0.3721 -0.37211 h -0.529167 -0.529166 v -0.41249 -0.41249 l -0.264584,0.16352 -0.264583,0.16352 v 0.51356 0.51355 h -0.516019 -0.51602 l -0.244978,0.43775 -0.244977,0.43775 -0.429628,-0.16486 -0.429628,-0.16487 v -0.53747 -0.53747 h -0.79375 -0.79375 l -0.03133,0.33073 -0.03133,0.33073 0.02187,0.17005 0.02187,0.17005 -0.535833,0.14013 -0.535834,0.14012 -0.231683,-0.57476 -0.231684,-0.57476 -0.01677,0.84428 -0.01677,0.84428 -0.198437,0.11794 -0.198438,0.11795 -2.182812,0.18979 -2.182814,0.1898 v -0.42442 -0.42441 h -0.39687 -0.39688 v 0.39688 0.39687 h -0.25628 -0.25628 l 0.16123,-0.42016 0.16123,-0.42015 -0.63255,0.0894 -0.63256,0.0894 0.0473,0.26458 0.0474,0.26458 -0.37808,0.21159 -0.37809,0.21158 v 0.26705 0.26705 l 0.23991,-0.14827 0.23991,-0.14827 -0.13847,0.52953 -0.13848,0.52953 h 0.42773 0.42774 v 0.26459 0.26458 h -0.20831 -0.2083 l -0.0623,0.81696 -0.0623,0.81696 0.50495,0.13205 0.50496,0.13204 0.27686,0.57235 0.27686,0.57235 0.0179,-0.59531 0.0179,-0.59532 h 0.36019 0.36018 l -0.12949,0.67737 -0.12948,0.67737 0.61503,0.16083 0.61503,0.16084 -0.515,0.20153 -0.515,0.20154 0.45472,0.0186 0.45471,0.0186 -0.15488,0.40363 -0.15489,0.40362 -0.29983,-0.23389 -0.29983,-0.2339 -2.18281,0.0732 -2.18282,0.0732 v -0.24294 -0.24294 h -0.52916 -0.52917 v 0.24254 0.24253 l 0.33073,0.13346 0.33073,0.13345 -0.70596,0.0209 -0.70597,0.0209 -0.46192,0.17725 -0.46192,0.17726 0.19131,-0.30955 0.19131,-0.30954 h -0.26079 -0.2608 l -0.121,-0.46303 -0.121,-0.46302 -0.0307,0.72761 -0.0307,0.7276 h -0.28019 -0.2802 l 0.16129,-0.26097 0.16129,-0.26098 -0.80713,0.094 -0.80714,0.094 v -0.23918 -0.23919 l -0.52917,0.2832 -0.52916,0.2832 0.008,-0.8692 0.008,-0.86921 0.26497,0.45459 0.26496,0.4546 0.52074,-0.52074 0.52074,-0.52074 h 0.39687 0.39688 v 0.26458 0.26459 l 0.7276,-0.008 0.72761,-0.008 0.46302,-0.35148 0.46302,-0.35149 v -0.58235 -0.58236 l -1.12448,0.14169 -1.12448,0.14168 -1.75396,0.15237 -1.75396,0.15238 -0.11936,-0.81325 -0.11936,-0.81324 0.5504,-0.11082 0.55041,-0.11081 0.98499,-0.15818 0.985,-0.15817 0.22053,-0.39408 0.22054,-0.39408 1.3702,-0.2166 1.3702,-0.2166 0.13625,0.13625 0.13624,0.13625 v 1.19062 1.19063 l 0.11621,-0.11621 0.1162,-0.1162 0.13007,-0.71728 0.13007,-0.71728 0.16622,-0.26895 0.16621,-0.26895 h 0.51356 0.51355 v -0.62838 -0.62839 l -0.79375,-0.15875 -0.79375,-0.15875 0.0396,-1.13109 0.0396,-1.13109 0.11223,0.74839 0.11223,0.7484 0.39894,-0.15308 0.39893,-0.15309 h 0.24294 0.24295 v -0.66133 -0.66146 l -0.33073,-0.004 -0.33073,-0.004 0.31748,-0.20181 0.31747,-0.20181 -0.0764,-3.29987 -0.0764,-3.29987 0.20669,1.05834 0.20668,1.05833 0.0189,1.19063 0.0189,1.19062 0.15953,0.59531 0.15954,0.59532 h 1.54103 1.54102 l 0.16353,-0.26459 0.16352,-0.26458 h -1.47083 -1.47082 v -0.66136 -0.66146 h 0.44219 0.44219 l 0.48385,-0.43788 0.48385,-0.43789 v -0.44406 -0.44406 l 0.19844,-0.19834 0.19844,-0.19835 0.0304,-0.57336 0.0304,-0.57335 0.20801,-1.32292 0.20802,-1.32292 0.0703,-0.52916 0.0703,-0.52917 0.022,-2.05052 0.0221,-2.05052 h 0.36477 0.36478 l 0.28819,0.7276 0.28819,0.72761 0.302875,1.25037 0.302874,1.25037 0.861584,0.16164 0.861585,0.16163 0.6133,-0.0891 0.613299,-0.0891 0.540704,-2.11667 0.540705,-2.11666 0.335862,-0.34963 0.335863,-0.34963 v 0.26787 0.26787 l -0.22763,0.14068 -0.22763,0.14068 -0.169591,1.2373 -0.169591,1.2373 -0.296634,0.35743 -0.296634,0.35742 h 0.429272 0.429271 l 0.03755,-0.59531 0.03755,-0.59532 0.160892,1.03765 0.160891,1.03764 0.595313,0.0426 0.595312,0.0426 v -0.20475 -0.20476 l -0.264583,-0.16352 -0.264583,-0.16352 v -0.28136 -0.28137 l 0.41704,0.34611 0.41704,0.34612 0.240367,-0.37987 0.240366,-0.37986 0.0041,0.40855 0.0041,0.40855 h 1.852084 1.852083 v -0.21011 -0.21011 h 0.669762 0.669762 l 0.116527,-0.33073 0.116527,-0.33073 0.07361,-2.38125 0.07361,-2.38125 1.389062,-0.08 1.389063,-0.08 v 0.24755 0.24755 l -0.529167,0.13838 -0.529167,0.13838 v 0.56955 0.56956 l 0.198438,-0.12227 0.198437,-0.12227 -0.0041,2.55405 -0.0041,2.55405 -0.988089,0.2451 -0.98809,0.2451 3.85e-4,0.15177 3.85e-4,0.15178 1.851698,0.0848 1.851699,0.0848 v -0.25081 -0.25082 l -0.396875,-0.32937 -0.396875,-0.32938 v -0.89365 -0.89364 l 0.330729,-0.0209 0.330729,-0.0209 -0.330729,-0.13345 -0.330729,-0.13346 v -0.48871 -0.48872 l 0.595312,-0.0846 0.595313,-0.0845 0.08323,-0.58528 0.08323,-0.58528 0.787874,0.15758 0.787874,0.15757 -0.03507,-4.58755 -0.03507,-4.58754 0.486876,-0.19167 0.486875,-0.19168 0.198438,-0.0186 0.198437,-0.0186 v 0.39688 0.39687 h 0.224319 0.224319 l 0.02257,-0.79375 0.02257,-0.79375 h -0.299804 -0.299804 l 0.31939,-0.31939 0.31939,-0.31939 0.409709,0.40971 0.40971,0.40971 -0.02039,7.03014 -0.02039,7.03014 0.534828,-0.13986 0.534828,-0.13986 v -0.35771 -0.35771 l -0.396875,0.15229 -0.396875,0.1523 v -0.55748 -0.55747 h 0.408474 0.408473 l -0.04295,-0.33073 -0.04295,-0.33073 0.03135,-0.37482 0.03135,-0.37483 0.174094,0.17409 0.174093,0.1741 0.397723,-0.32844 0.397723,-0.32843 -0.138251,0.7276 -0.138251,0.72761 h 0.0767 0.0767 l 0.392221,-0.39222 0.39222,-0.39222 -0.139597,-0.53383 -0.139597,-0.53382 -0.432162,-0.0313 -0.432163,-0.0313 0.786662,-0.1685 0.786661,-0.1685 0.183234,-1.07335 0.183233,-1.07334 0.142532,-3.1546 0.142533,-3.15461 0.276635,-0.0922 0.276635,-0.0922 v 1.47726 1.47726 h 0.220316 0.220316 l -0.02265,-1.78594 -0.02264,-1.78594 -0.213285,-0.33073 -0.213285,-0.33073 h 0.299097 0.299097 l 0.395224,0.39523 0.395224,0.39522 -0.06015,5.18505 -0.06015,5.18504 0.271509,0.17442 0.271509,0.17442 1.375745,2.4474 1.375745,2.44739 h 0.08448 0.08448 l -0.03805,-0.75653 -0.03805,-0.75654 -0.36557,-0.44048 -0.365569,-0.44049 0.159443,-0.15944 0.159442,-0.15944 -0.385352,-0.74519 -0.385353,-0.74519 0.263613,-0.16292 0.263613,-0.16293 v -0.91873 -0.91873 l 0.463021,-0.14798 0.463021,-0.14798 0.586291,-0.28047 0.58629,-0.28047 0.36651,0.30417 0.3665,0.30416 0.70682,0.0585 0.70683,0.0585 -0.12671,0.3302 -0.12671,0.3302 0.23398,0.14461 0.23398,0.14461 0.16917,-0.53301 0.16917,-0.53301 h 0.2247 0.22471 l 0.13345,0.33073 0.13345,0.33073 0.0209,-0.46302 0.0209,-0.46302 h 0.20911 0.2091 l 0.0385,2.3151 0.0385,2.31511 0.1243,1.453 0.1243,1.45299 0.62029,0.17428 0.62028,0.17427 -1.52135,0.0264 -1.52136,0.0264 v 2.11667 2.11666 h -0.3175 -0.3175 l 0.32852,0.32852 0.32852,0.32852 0.18742,-0.30244 0.18742,-0.30244 0.84368,-0.13273 0.84368,-0.13274 0.26252,-0.16224 0.26251,-0.16225 0.18013,0.29145 0.18012,0.29145 1.6241,-0.17017 1.62409,-0.17018 -0.36002,0.24749 -0.36001,0.24749 -0.47002,-0.12291 -0.47002,-0.12292 -0.17776,0.28764 -0.17777,0.28763 0.87551,-0.0196 0.87551,-0.0196 1.05833,-0.48992 1.058336,-0.48992 -0.322426,-0.0196 -0.32242,-0.0196 0.14649,-0.38177 0.1465,-0.38177 0.705096,0.27227 0.70509,0.27227 0.85916,0.004 0.85916,0.004 -0.14717,0.23813 -0.14717,0.23812 h -0.38126 -0.38126 v 0.24133 0.24132 l -1.05834,0.17881 -1.058326,0.1788 v 0.25754 0.25754 l -1.18758,-0.17809 -1.18757,-0.17809 -0.16365,0.42646 -0.16365,0.42646 h -0.74654 -0.74654 l -0.40996,0.40996 -0.40996,0.40995 -0.93186,-0.17481 -0.93186,-0.17482 -0.004,0.49247 -0.004,0.49246 -0.25648,-0.39687 -0.25648,-0.39688 -0.004,0.49133 -0.004,0.49133 -0.36543,-0.14023 -0.36543,-0.14023 -0.89134,0.3125 -0.89134,0.3125 -0.33538,0.21479 -0.33539,0.21479 0.53382,0.67865 0.53383,0.67864 v 0.37681 0.37681 l 0.19843,-0.12213 0.19844,-0.12213 0.0553,0.76504 0.0553,0.76503 0.26956,0.50368 0.26956,0.50367 2.71789,-0.99013 2.71788,-0.99013 1.68474,-0.49603 1.684736,-0.49604 0.13535,-0.35272 0.13535,-0.35272 -0.428176,-1.09004 -0.42818,-1.09005 0.10528,-0.10529 0.10529,-0.10528 0.16726,0.52699 0.167256,0.52699 0.84909,0.30788 0.84908,0.30787 6.87917,0.0934 6.87917,0.0934 2.24896,-0.21229 2.24895,-0.2123 1.98438,-0.18219 1.98437,-0.18219 -0.26458,0.21372 -0.26458,0.21371 0.0356,0.39688 0.0356,0.39687 0.0305,0.36159 0.0305,0.36159 0.52916,-0.13838 0.52917,-0.13838 v 0.48235 0.48234 l 0.19844,0.11098 0.19844,0.11098 -0.31139,-0.0732 -0.31138,-0.0732 -0.31391,0.37823 -0.31391,0.37824 -0.17137,-0.10592 -0.17138,-0.10592 -0.52625,0.39365 -0.52625,0.39365 1.31642,-0.19151 1.31641,-0.19152 0.53567,-0.0301 0.53567,-0.0301 0.30924,0.66441 0.30924,0.66441 0.0215,-0.87879 0.0215,-0.8788 -0.37798,-0.37797 -0.37797,-0.37798 h -0.40016 -0.40016 l -0.14877,-0.24071 -0.14876,-0.2407 0.16146,-0.42075 0.16145,-0.42076 h 0.36857 0.36857 v -0.26458 -0.26458 h 0.41249 0.41249 l -0.17984,0.29098 -0.17983,0.29098 0.62724,-0.34909 0.62724,-0.34909 -1.46119,-0.27262 -1.4612,-0.27262 0.0966,-0.48939 0.0966,-0.48939 1.1,0.15356 1.1,0.15356 1.65365,0.0485 1.65364,0.0485 v 0.22117 0.22116 h 0.36857 0.36857 l 0.15229,0.39688 0.1523,0.39687 0.47132,-0.0307 0.47133,-0.0307 -0.46302,-0.121 -0.46302,-0.121 v -0.22735 -0.22735 l 0.52916,-0.16795 0.52917,-0.16796 v -0.20753 -0.20754 l -2.18281,-0.16992 -2.18282,-0.16992 -1.65364,-0.002 -1.65365,-0.002 v -0.39033 -0.39033 l 0.59712,0.22702 0.59711,0.22703 2.84247,0.0416 2.84247,0.0416 0.004,-0.34134 0.004,-0.34133 0.19439,0.26997 0.19438,0.26996 0.67965,0.29783 0.67965,0.29782 0.71332,-0.13636 0.71333,-0.13636 0.14399,-0.233 0.144,-0.23299 h -0.80936 -0.80937 v -0.2136 -0.2136 l 0.7276,0.0604 0.72761,0.0604 0.95098,0.12811 0.95097,0.12811 0.36453,-0.22528 0.36452,-0.22529 -0.38946,-0.14023 -0.38946,-0.14023 -1.5875,-0.10239 -1.5875,-0.1024 2.85197,0.0754 2.85198,0.0754 0.84152,-0.24134 0.84153,-0.24135 0.25219,0.25219 0.25219,0.2522 -0.67615,0.25707 -0.67615,0.25707 -0.56331,-0.14731 -0.56332,-0.14731 0.25371,0.66731 0.25371,0.66731 -0.57071,0.14924 -0.5707,0.14925 -0.60329,-0.15142 -0.60329,-0.15142 v -0.2359 -0.2359 h -0.2802 -0.2802 l 0.16468,0.26646 0.16467,0.26645 -0.41212,0.15815 -0.41213,0.15814 0.13104,0.21202 0.13103,0.21202 0.46276,-0.0695 0.46276,-0.0695 -0.35345,0.1181 -0.35344,0.11809 0.14622,0.58259 0.14622,0.58259 0.18234,1.55142 0.18234,1.55141 -0.29042,-0.17949 -0.29043,-0.17949 -0.17986,-1.82536 -0.17987,-1.82535 -0.36472,0.13995 -0.36472,0.13996 v -0.55753 -0.55747 h -0.8158 -0.8158 l 0.10702,0.32106 0.10703,0.32107 -0.68029,0.63051 -0.68029,0.63052 0.0521,1.76039 0.0521,1.7604 -0.23197,-0.52916 -0.23198,-0.52917 -0.0186,-0.8682 -0.0186,-0.8682 -0.41208,-0.15813 -0.41208,-0.15813 0.13919,-0.36273 0.1392,-0.36273 h -0.38633 -0.38633 l -0.31398,0.50276 -0.31399,0.50277 -0.37642,-0.14445 -0.37642,-0.14444 -0.23383,0.36928 -0.23382,0.36928 -0.004,-0.46302 -0.004,-0.46302 h -0.52917 -0.52917 l -0.19809,-0.0661 -0.19808,-0.0661 -3.5e-4,0.52917 -3.5e-4,0.52917 -0.44307,-0.0732 -0.44307,-0.0732 -0.17502,0.28319 -0.17502,0.28319 0.31824,0.38345 0.31824,0.38346 -0.0309,2.91224 -0.0309,2.91225 h 0.0909 0.0909 l 1.43048,-0.49274 1.43048,-0.49274 1.38907,-0.59818 1.38906,-0.59817 0.004,-0.56273 0.004,-0.56273 0.22909,0.36162 0.2291,0.36163 0.89133,-0.29815 0.89133,-0.29814 1.15149,-0.65879 1.15149,-0.6588 h 0.51777 0.51778 l -0.16353,0.26459 -0.16352,0.26458 0.61093,0.009 0.61093,0.009 -0.66146,0.52027 -0.66146,0.52027 -0.31956,0.26468 -0.31956,0.26467 h -0.15418 -0.15417 l -0.78303,0.57893 -0.78304,0.57892 0.004,0.28097 0.004,0.28098 0.19439,-0.26459 0.19438,-0.26458 0.57937,-0.0602 0.57937,-0.0602 0.16607,0.52322 0.16606,0.52322 -0.17525,0.55217 -0.17525,0.55216 -0.38675,-0.55216 -0.38675,-0.55217 h -0.51416 -0.51417 v -0.29326 -0.29327 l -0.7276,0.1797 -0.7276,0.1797 -0.18083,0.17971 -0.18083,0.17972 0.21989,0.92604 0.21989,0.92604 0.0271,-0.44364 0.0271,-0.44364 0.79375,-0.39598 0.79375,-0.39597 v 0.2443 0.2443 l -0.19844,0.003 -0.19843,0.003 -1.06499,1.01877 -1.06499,1.01877 -0.58332,0.18514 -0.58332,0.18514 -0.46836,-0.27267 -0.46836,-0.27267 0.34635,-0.008 0.34634,-0.008 -0.1533,-0.24804 -0.15329,-0.24804 0.63608,0.11534 0.63608,0.11534 0.13969,-0.7272 0.1397,-0.7272 -0.10744,-0.10875 -0.10745,-0.10876 -2.58117,1.29235 -2.58117,1.29235 -0.0724,0.0353 -0.0724,0.0353 0.1599,0.41669 0.1599,0.41669 0.57393,-0.0354 0.57393,-0.0354 0.15879,-0.22873 0.15878,-0.22873 1.62181,-0.0808 1.62182,-0.0808 -0.13312,0.21539 -0.13312,0.2154 -1.18446,0.17762 -1.18445,0.17762 v 0.23454 0.23454 l -0.19844,-0.0313 -0.19844,-0.0313 -0.26458,0.0595 -0.26459,0.0595 -0.52916,0.038 -0.52917,0.038 0.0658,0.61068 0.0658,0.61069 -0.30587,-0.18904 -0.30586,-0.18903 0.15042,0.57519 0.15041,0.57519 -0.39222,0.39223 -0.39222,0.39222 h 0.20411 0.20411 l -0.3175,0.3175 -0.3175,0.3175 v 0.24252 0.24253 l 0.55352,-0.14475 0.55352,-0.14475 -0.42181,0.46609 -0.42181,0.46609 0.17697,0.17697 0.17697,0.17696 h -0.70556 -0.70555 v -0.26458 -0.26458 h 0.44097 0.44097 l -0.14935,-0.14936 -0.14936,-0.14935 -0.93467,0.17535 -0.93468,0.17534 0.0391,0.519 0.0391,0.51899 0.45459,-0.11887 0.45458,-0.11888 0.15561,0.40551 0.1556,0.4055 -0.1529,0.15291 -0.15291,0.15291 -0.23581,-0.38155 -0.23581,-0.38156 -0.18438,0.18439 -0.18438,0.18438 0.33208,0.40014 0.33209,0.40013 -0.39744,0.15251 -0.39743,0.15251 0.13386,0.5119 0.13387,0.5119 -0.82276,0.34594 -0.82276,0.34595 0.3233,0.3233 0.3233,0.3233 -0.62667,-0.0737 -0.62666,-0.0737 -0.13074,0.37085 -0.13073,0.37085 0.63073,-0.18971 0.63074,-0.18971 0.52917,-0.13795 0.52916,-0.13794 -0.35028,0.24908 -0.35028,0.24909 0.45446,0.45446 0.45446,0.45446 0.62343,-0.15647 0.62342,-0.15647 v 0.26962 0.26963 h -1.16123 -1.16122 l 0.0368,0.45112 0.0367,0.45112 -0.77185,0.0656 -0.77185,0.0656 -0.41878,0.44217 -0.41877,0.44217 0.7276,-0.17017 0.72761,-0.17019 v 0.23723 0.23723 l -0.36334,0.30154 -0.36334,0.30155 -0.49656,-0.1864 -0.49656,-0.18639 0.36033,0.44304 0.36033,0.44305 -0.16002,0.41701 -0.16002,0.41702 -0.27077,-0.16735 -0.27077,-0.16734 0.14092,-0.22802 0.14093,-0.22802 -0.31058,-0.19195 -0.31058,-0.19194 0.1492,0.57054 0.1492,0.57054 h -0.52001 -0.52001 l 0.17677,0.28602 0.17677,0.28602 0.65476,-0.16433 0.65477,-0.16434 -0.16389,0.26518 -0.16389,0.26518 8.27765,-0.0561 8.27766,-0.0561 z m -91.491648,-18.55 -0.14283,-0.14283 -0.48727,-0.0922 -0.48726,-0.0922 -0.63941,-0.0202 -0.63941,-0.0202 0.14059,-0.14059 0.14058,-0.14059 0.56597,-0.109 0.56596,-0.10899 0.26359,-0.16291 0.26358,-0.1629 v 0.26343 0.26344 l 0.8599,0.0829 0.8599,0.0829 -0.56053,0.32142 -0.56052,0.32142 z m 9.7436,-4.40261 -0.18095,-0.59531 -0.13654,0.33073 -0.13653,0.33073 h -0.24087 -0.24088 l 0.0896,-0.59531 0.0896,-0.59532 0.57025,-0.0846 0.57024,-0.0845 v 0.79275 0.79276 l 0.46302,0.121 0.46302,0.121 -0.564449,0.0307 -0.56446,0.0307 z m 28.429661,-0.30583 v -0.63657 l 0.660046,0.30584 0.660047,0.30583 -0.446033,0.33073 -0.446033,0.33073 h -0.214014 -0.214013 z m -25.752778,-0.069 -0.176389,-0.17639 v -0.35281 -0.35278 h 0.529167 0.529167 v 0.52917 0.52917 h -0.352778 -0.352778 z m 28.225329,-0.49648 -0.156674,-0.40829 0.158584,-0.15858 0.158584,-0.15859 0.400356,0.33227 0.400356,0.33226 -0.144994,0.23461 -0.144992,0.2346 h -0.257272 -0.257273 z m -9.450937,-2.00604 -0.165364,-0.82682 v -0.76071 -0.76068 h 0.241083 0.241082 l 0.08965,1.58798 0.08965,1.58799 -0.165363,-4.9e-4 -0.165365,-4.8e-4 z m 49.902973,0.24367 0.10619,-0.31858 0.87092,-0.22567 0.87091,-0.22568 0.12787,0.12787 0.12786,0.12786 -0.8052,0.41639 -0.8052,0.41638 h -0.29977 -0.29977 z m -40.722587,-0.33468 0.09081,-0.27279 0.407804,-0.0791 0.407804,-0.0791 0.155833,0.40609 0.155832,0.4061 -0.654444,-0.0542 -0.654445,-0.0542 z m 4.25769,-0.17706 -0.19145,-0.30978 0.33979,0.21 0.33979,0.21 -0.12252,-0.36756 -0.12252,-0.36756 -0.30868,-0.0331 -0.30868,-0.0331 -0.2802,-0.0331 -0.2802,-0.0331 0.14817,-0.23974 0.14817,-0.23975 0.59505,0.11039 0.59505,0.11039 -0.33238,-0.15783 -0.33238,-0.15782 0.14956,-0.24199 0.14955,-0.24198 h 0.24897 0.24897 v 0.91043 0.91042 l -0.2463,0.15222 -0.2463,0.15223 z m -12.80969,-1.15407 v -1.19062 h 0.264583 0.264584 v 1.19062 1.19063 h -0.264584 -0.264583 z m 49.105627,-3.76693 -0.19506,-0.19507 -0.41331,-0.003 -0.4133,-0.003 -0.21596,-0.58182 -0.21597,-0.58182 0.38336,0.14711 0.38336,0.14711 v 0.23627 0.23628 h 0.29289 0.29289 l -0.15614,-0.40689 -0.15614,-0.40689 0.39242,-0.15059 0.39241,-0.15058 v -0.26713 -0.26714 l -0.52916,0.13838 -0.52917,0.13838 v -0.4045 -0.4045 l -0.35507,0.29468 -0.35508,0.29469 -0.16572,-0.16572 -0.16572,-0.16572 -0.60368,-0.0304 -0.60369,-0.0304 -0.03,-0.59531 -0.03,-0.59532 h 0.22846 0.22846 l 0.0239,0.33073 0.0239,0.33073 0.24828,-0.85989 0.24829,-0.8599 h 0.38931 0.38931 l 0.0261,-0.8599 0.0261,-0.85989 0.0401,-0.66146 0.0401,-0.66146 0.60666,0.065 0.60665,0.065 -0.0775,-0.33744 -0.0775,-0.33744 0.1323,-0.0754 0.13229,-0.0754 0.52916,0.1709 0.52917,0.17089 0.53189,0.20849 0.53188,0.20849 0.33844,-0.36231 0.33845,-0.3623 h 0.25415 0.25415 v 0.26458 0.26459 h 0.52917 0.52916 v 0.39687 0.39688 h 0.66146 0.66146 v -0.26458 -0.26458 l -0.19844,0.0313 -0.19844,0.0313 -0.34634,-0.0313 -0.34634,-0.0313 0.15347,-0.24832 0.15347,-0.24832 -0.36733,-0.2147 -0.36733,-0.2147 0.21088,-0.52917 0.21087,-0.52917 0.0186,0.46303 0.0186,0.46302 h 0.26459 0.26458 v -1.04272 -1.04272 l -0.26458,-0.16352 -0.26459,-0.16352 0.0264,-1.24116 0.0264,-1.24116 0.21184,0.66146 0.21183,0.66146 0.0264,-0.94809 0.0264,-0.94809 0.1741,-0.17409 0.17409,-0.1741 0.35507,0.29469 0.35508,0.29468 v 2.58258 2.58258 l -0.52917,0.13838 -0.52917,0.13838 v 0.26833 0.26833 l 0.79375,0.17434 0.79375,0.17434 v 0.40115 0.40115 l 0.49446,0.70231 0.49445,0.7023 0.17084,0.55121 0.17084,0.55122 h -0.38453 -0.38452 l -0.3384,-1.14607 -0.33839,-1.14607 -0.47154,0.14967 -0.47154,0.14966 -0.004,-0.34856 -0.004,-0.34856 -0.34313,0.66146 -0.34312,0.66146 0.2739,0.18447 0.27389,0.18447 0.17235,-0.27887 0.17235,-0.27886 0.11816,0.22668 0.11817,0.22669 -0.18608,0.79375 -0.18608,0.79375 -0.0313,-0.64823 -0.0313,-0.64823 -0.2389,0.25135 -0.2389,0.25136 -0.0918,0.45605 -0.0918,0.45606 -0.39688,-0.25762 -0.39687,-0.25762 0.38921,-0.25019 0.38921,-0.2502 -0.19351,-0.19351 -0.19351,-0.19351 -0.38572,0.50985 -0.38573,0.50986 -0.0293,-0.79375 -0.0293,-0.79375 -0.13345,0.33072 -0.13345,0.33073 -0.57327,0.0307 -0.57326,0.0307 0.46302,0.121 0.46302,0.121 v 0.14987 0.14987 l -0.46302,0.35148 -0.46302,0.35149 0.67469,0.008 0.67468,0.008 0.2869,0.28689 0.28689,0.2869 -0.1333,0.50974 -0.1333,0.50975 -0.62984,0.15808 -0.62985,0.15808 v 0.20505 0.20504 l 0.52917,0.13838 0.52917,0.13838 v 0.25849 0.2585 l -0.55007,0.14384 -0.55007,0.14385 0.14489,-0.37757 0.14489,-0.37757 h -0.63754 -0.63754 l -0.19131,-0.30955 -0.19131,-0.30954 0.4318,0.1657 0.43181,0.16569 0.14307,-0.23149 0.14308,-0.2315 -0.81498,-0.179 -0.81498,-0.179 -0.0472,0.0913 -0.0472,0.0913 -0.31888,0.57275 -0.31888,0.57275 0.39889,0.33105 0.39889,0.33105 0.97833,0.19025 0.97832,0.19025 -1.47726,0.0304 -1.47726,0.0304 z m -30.703857,-1.89373 0.25136,-0.23671 0.92604,-0.15705 0.92604,-0.15706 -0.33238,0.15178 -0.33238,0.15178 0.14956,0.24198 0.14955,0.24199 h -0.99457 -0.99457 z m 12.620627,-0.2031 -0.33073,-0.13346 v -0.50712 -0.50711 h 0.39687 0.39688 v 0.66146 0.66145 l -0.0662,-0.0209 -0.0661,-0.0209 z M 92.351133,179.57646 V 178.915 h 0.39687 0.39688 v 0.66146 0.66146 h -0.39688 -0.39687 z m 8.711817,0.0999 -0.64203,-0.17941 1.52135,-0.0264 1.52136,-0.0264 -1.7e-4,0.19844 -1.7e-4,0.19844 -0.87915,0.007 -0.87915,0.007 z m -3.713497,-0.49674 -0.0298,-0.13229 0.0463,-0.58086 0.0463,-0.58087 -0.290941,-0.54361 -0.29093,-0.54362 h 0.2822 0.28219 l 0.14589,0.38017 0.14588,0.38017 0.35457,-0.13606 0.35458,-0.13606 -0.0644,0.43851 -0.0644,0.43851 -0.36929,0.22823 -0.36929,0.22823 0.71864,0.27323 0.71863,0.27323 v 0.12818 0.12819 l -0.79322,-0.0555 -0.79322,-0.0555 z m 21.163047,-2.51354 -0.0999,-2.38125 0.20724,-1.5875 0.20723,-1.5875 0.11484,-4.49792 0.11483,-4.49791 0.29393,-2.61192 0.29392,-2.61193 -0.23217,-0.23217 -0.23217,-0.23217 -1.11143,-0.0436 -1.11142,-0.0436 v -0.20875 -0.20874 l 1.29516,0.15339 1.29517,0.1534 0.17511,-2.87784 0.1751,-2.87784 0.0975,-0.39688 0.0974,-0.39687 -0.03,3.30729 -0.03,3.30729 1.54455,0.19386 1.54455,0.19386 0.15892,0.17011 0.15892,0.17011 -1.80354,-0.16955 -1.80355,-0.16955 0.0349,2.716 0.0349,2.716 -0.1357,1.5875 -0.13571,1.5875 -0.15655,3.70416 -0.15655,3.70417 -0.16054,2.5062 -0.16054,2.5062 -0.19221,0.6688 -0.1922,0.6688 z m 3.60337,1.72122 0.16264,-0.26316 0.51444,-0.27532 0.51443,-0.27532 v 0.53848 0.53848 h -0.67708 -0.67707 z m 15.73162,-0.17338 -0.40885,-0.11056 0.10707,-0.91708 0.10706,-0.91707 h 0.20785 0.20784 l 0.10093,1.05833 0.10093,1.05833 -0.007,-0.0307 -0.007,-0.0307 z m -22.98404,-0.91945 -0.0227,-0.69453 -0.0981,-0.76068 -0.0981,-0.76068 0.12661,0.39688 0.12661,0.39687 0.2267,0.28036 0.2267,0.28035 -0.23243,0.77798 -0.23243,0.77798 z m -1.08926,-2.5876 -0.12411,-1.69462 0.29035,-0.39598 0.29034,-0.39598 0.19623,0.31752 0.19624,0.31751 0.37332,-0.30983 0.37332,-0.30983 0.37114,0.30803 0.37115,0.30802 0.12495,-0.34177 0.12494,-0.34178 0.30391,0.28407 0.30391,0.28406 -0.53542,0.48455 -0.53542,0.48455 v -0.27463 -0.27463 l -0.85989,0.042 -0.8599,0.042 -0.14048,1.5807 -0.14048,1.58071 z m 10.10093,-0.22555 -0.56774,-1.79892 v -0.32326 -0.32327 h 0.21073 0.21073 l 0.46792,2.01128 0.46793,2.01127 -0.11091,0.11091 -0.11091,0.11091 z m -29.774746,-0.29505 -0.17102,-1.28919 0.16653,-0.43397 0.16653,-0.43398 -0.25882,-0.32736 -0.25883,-0.32736 0.48222,-0.78004 0.48223,-0.78004 -0.0779,1.17692 -0.0779,1.17691 0.25917,0.33679 0.259169,0.33679 -0.46508,-0.17847 -0.46508,-0.17847 0.295361,0.55189 0.29537,0.55189 v 0.94344 0.94344 h -0.230501 -0.2305 z m 30.965776,-0.82394 0.16418,-0.82091 -0.36616,0.078 -0.36617,0.078 0.0506,-0.73364 0.0506,-0.73363 -0.25968,0.16049 -0.25968,0.16049 0.15991,-0.63711 0.1599,-0.63712 -0.41388,-0.34349 -0.41388,-0.3435 v -0.49677 -0.49677 h 0.26458 0.26458 v 0.39688 0.39687 h 0.2802 0.2802 l -0.14877,-0.2407 -0.14876,-0.24071 0.15369,-0.40051 0.15369,-0.40051 0.58596,0.0625 0.58597,0.0625 0.25339,0.14529 0.25339,0.14529 0.75291,0.18026 0.75292,0.18027 0.37156,-0.30838 0.37157,-0.30837 -0.0307,2.08292 -0.0307,2.08292 -0.12474,-0.48245 -0.12474,-0.48245 -0.39104,0.15005 -0.39103,0.15006 0.16222,-0.59365 0.16223,-0.59365 -0.29036,0.46302 -0.29037,0.46302 h -0.2336 -0.23361 l -0.17257,-0.54373 -0.17258,-0.54373 -0.30828,0.10292 -0.30827,0.10292 -0.004,1.32316 -0.004,1.32316 -0.45592,0.45593 -0.45593,0.45592 z m -17.01773,-0.44333 0.0792,-0.83667 -0.76882,-0.15377 -0.76883,-0.15377 -0.13806,-0.52794 -0.13806,-0.52794 -0.23451,0.14493 -0.2345,0.14493 v -0.41249 -0.41249 h 0.26458 0.26459 v -0.28938 -0.28935 l -0.52917,-0.13838 -0.52917,-0.13838 v -0.36602 -0.36602 h -0.41249 -0.41249 l 0.19131,-0.30954 0.19131,-0.30955 -0.44027,0.16895 -0.44028,0.16895 v -0.53241 -0.53241 l -0.6292,-0.67856 -0.6292,-0.67856 0.13675,-0.52291 0.13674,-0.52291 0.36016,-0.13821 0.36016,-0.1382 v -0.36857 -0.36857 h 0.25628 0.25628 l -0.14158,-0.36896 -0.14158,-0.36896 1.14207,-0.38142 1.14208,-0.38142 0.0122,-0.3741 0.0122,-0.37409 0.28274,-0.52917 0.28274,-0.52917 -0.11858,-0.33073 -0.11859,-0.33073 h 0.54191 0.5419 l 0.27793,-0.51931 0.27793,-0.51931 0.39061,0.14989 0.39061,0.14989 0.16283,-0.42433 0.16282,-0.42433 h 0.23628 0.23628 l -0.05,7.73907 -0.05,7.73906 -0.0955,-1.52136 -0.0955,-1.52135 h -0.25138 -0.25138 l -0.004,1.52135 -0.004,1.52136 -0.25449,-0.39688 -0.2545,-0.39687 0.14409,-0.46302 0.14408,-0.46302 h -0.14256 -0.14256 l -0.26832,0.85989 -0.26833,0.8599 z m 27.58273,-0.11765 -0.12409,-0.3686 -0.27753,-1.05834 -0.27754,-1.05833 0.003,-0.79375 0.003,-0.79375 0.23962,0.37864 0.23961,0.37865 0.31771,1.68377 0.3177,1.68377 -0.15827,0.15827 -0.15826,0.15826 z m -3.96629,-0.83162 -0.1709,-0.59532 -0.1527,-1.19062 -0.1527,-1.19063 0.26336,0.26459 0.26337,0.26458 0.25379,1.52136 0.2538,1.52135 h -0.19356 -0.19356 z m -2.04125,-0.22049 -0.0338,-0.37483 -0.0594,-0.52916 -0.0594,-0.52917 -0.1887,-0.66146 -0.18869,-0.66146 0.27786,0.39688 0.27787,0.39687 0.004,-0.57969 0.004,-0.5797 0.25283,-0.15626 0.25283,-0.15626 -0.0952,1.74692 -0.0952,1.74691 -0.15762,0.15762 -0.15762,0.15762 z m -57.213611,-6.08725 -0.167202,-0.83601 -0.02637,-0.95912 -0.02637,-0.95911 -0.211836,0.66146 -0.211836,0.66145 -0.02637,-1.23513 -0.02637,-1.23513 0.160599,-0.41851 0.160599,-0.41852 h 0.251891 0.25189 l -0.119854,0.19844 -0.119854,0.19844 0.232322,2.4957 0.232323,2.4957 -0.09317,0.0932 -0.09317,0.0932 z m 17.038775,0.30352 -0.29711,-0.55516 0.16014,-0.25911 0.16014,-0.25912 h -0.18488 -0.18489 l -0.37725,0.46302 -0.377262,0.46302 0.115896,-0.74295 0.115896,-0.74296 -0.36312,0.13934 -0.363119,0.13934 0.0041,-0.19013 0.0041,-0.19014 0.25648,-0.39687 0.25648,-0.39688 0.0081,0.39688 0.0081,0.39687 0.25648,-0.39687 0.25648,-0.39688 0.0129,0.26459 0.0129,0.26458 0.53093,0.63767 0.53092,0.63767 0.30694,-0.30694 0.30694,-0.30694 h 0.16757 0.16757 v 0.79375 0.79375 h -0.19885 -0.19884 l -0.39823,0.15281 -0.39822,0.15281 z m 35.281266,-0.9305 -0.16512,-0.43029 0.12711,-0.12711 0.12711,-0.12711 0.44592,0.17112 0.44593,0.17112 -0.0939,0.28159 -0.0939,0.2816 -0.31405,0.10468 -0.31406,0.10468 z m -29.824016,-3.10789 -0.15265,-0.58376 0.0919,-0.0919 0.0919,-0.0919 0.55907,-0.0421 0.55907,-0.0421 v -0.35947 -0.35947 l 0.37798,-0.37798 0.37797,-0.37797 h 0.23939 0.23938 v 0.39687 0.39688 h -0.35277 -0.35278 v 0.37965 0.37965 l -0.26897,0.70744 -0.26897,0.70744 -0.44328,-0.35949 -0.44328,-0.35948 0.1987,0.33072 0.19869,0.33073 h -0.24933 -0.24934 z m 2.60078,-0.48625 -0.16275,-0.51276 0.16499,-0.26695 0.16498,-0.26695 h 0.51355 0.51356 v 0.33807 0.33807 l -0.5158,0.44164 -0.51579,0.44164 z m 26.001616,0.27625 -0.15665,-0.39687 -0.008,-1.05833 -0.008,-1.05834 0.13414,-1.19062 0.13413,-1.19063 0.77744,-0.0282 0.77745,-0.0282 0.0202,0.16046 0.0202,0.16047 0.097,0.52016 0.097,0.52016 -0.29869,0.3599 -0.29869,0.3599 0.3722,0.23004 0.3722,0.23003 -0.18848,0.18848 -0.18848,0.18848 0.26627,0.32084 0.26627,0.32084 -0.52435,0.62954 -0.52435,0.62955 -0.009,-0.45472 -0.009,-0.45472 -0.3814,0.14636 -0.38141,0.14636 -0.10121,0.57294 -0.10121,0.57294 z m 8.206,-3.1074 -0.45651,-0.10389 0.26709,-0.31258 0.26709,-0.31258 0.37944,-0.52917 0.37943,-0.52917 0.008,0.84428 0.008,0.84428 -0.19843,0.10136 -0.19844,0.10136 z m 6.60806,-0.52169 -0.7276,-0.11022 v -0.21889 -0.21888 l 0.99218,0.21605 0.99219,0.21605 0.66146,0.11667 0.66146,0.11667 -0.92604,-0.004 -0.92605,-0.004 z m -3.05594,-1.45091 -0.3175,-0.3175 v -0.55562 -0.55563 l 0.29445,-0.29445 0.29445,-0.29444 -0.17063,-0.27608 -0.17063,-0.27609 -0.41524,0.15935 -0.41523,0.15934 0.0951,-0.49367 0.0951,-0.49367 0.92395,-0.0481 0.92395,-0.0481 0.39687,0.25856 0.39688,0.25855 -0.46302,-0.14396 -0.46302,-0.14397 -0.0165,0.0578 -0.0164,0.0578 -0.13533,1.18706 -0.13532,1.18705 -0.31125,0.19796 -0.31124,0.19795 0.33073,0.004 0.33073,0.004 v 0.26459 0.26458 h -0.21167 -0.21166 z m -41.488506,-2.48226 0.1606,-0.41852 v -0.11065 -0.11065 h 0.57905 0.57906 l -0.56799,0.52916 -0.568,0.52917 h -0.17166 -0.17166 z m 37.268346,-0.30502 -0.33078,-0.70511 0.19849,-0.19113 0.19849,-0.19114 0.96189,-0.17664 0.96189,-0.17664 0.17821,0.28835 0.1782,0.28834 h -0.41249 -0.41249 v 0.73604 0.73605 l -0.59531,0.0485 -0.59531,0.0485 z m -37.528026,-0.7661 0.16781,-0.4373 -0.36113,0.29971 -0.36113,0.29971 -0.1741,-0.17409 -0.17409,-0.17409 v -0.44412 -0.44407 l 0.48385,-0.43788 0.48386,-0.43788 h 0.25664 0.25664 l -0.0129,1.05445 -0.0129,1.05445 -0.36019,0.13918 -0.36018,0.13917 z m 1.62484,-0.0753 -0.17807,-0.28813 0.74352,-0.29563 0.74353,-0.29562 -0.39688,-0.14368 -0.39687,-0.14368 -0.31998,-0.4201 -0.31998,-0.42009 0.13937,-0.46302 0.13937,-0.46302 h -0.28241 -0.28241 v -0.80937 -0.80936 l 0.24757,0.15301 0.24758,0.15301 -0.24163,-0.84254 -0.24164,-0.84253 0.12659,-2.92416 0.12659,-2.92416 1.46215,-0.89428 1.46215,-0.89429 2.837086,0.97759 2.83709,0.97759 2.51354,0.60566 2.51354,0.60566 1.98438,0.55961 1.98437,0.55961 1.15801,0.27269 1.158,0.27269 0.5183,0.27739 0.5183,0.27738 -0.12276,0.12277 -0.12277,0.12277 -1.28896,-0.29405 -1.28895,-0.29405 -0.45943,-0.24703 -0.45943,-0.24703 h -0.48074 -0.48074 l -4.72806,-1.32119 -4.72805,-1.32119 -0.13246,0.13247 -0.13246,0.13246 0.0647,1.5856 0.0647,1.5856 h -0.51745 -0.51746 l -0.43578,-0.6651 -0.435786,-0.66509 -0.69042,0.1252 -0.69042,0.12519 -0.53043,-0.28388 -0.53044,-0.28387 0.16739,0.62533 0.16739,0.62534 0.004,0.17367 0.004,0.17367 0.52959,-0.13849 0.52959,-0.13849 0.16408,0.82042 0.16409,0.82043 0.23237,-0.14362 0.23237,-0.14361 v 1.08957 1.08956 l 0.24675,-0.15251 0.24676,-0.1525 -0.0225,-0.79288 -0.0225,-0.79288 0.187656,-0.18766 0.18767,-0.18767 0.7126,0.39998 0.7126,0.39997 v 1.18048 1.18048 l -1.13423,-0.0178 -1.134236,-0.0178 0.11168,0.29102 0.11167,0.29103 -0.44742,0.55253 -0.44741,0.55254 -0.53345,0.16931 -0.53344,0.16931 -0.60328,1.07339 -0.60328,1.0734 -0.33762,-0.12956 -0.33762,-0.12956 -0.26696,0.26696 -0.26696,0.26697 z m 1.44127,-2.5361 v -0.39687 h 0.27389 0.27389 l -0.32382,-0.59532 -0.32382,-0.59531 -0.18828,0.66146 -0.18828,0.66146 -0.0264,0.33073 -0.0264,0.33073 h 0.26458 0.26459 z m 30.888946,2.02017 -0.15621,-0.59733 0.36367,-0.13955 0.36367,-0.13956 0.27725,0.17136 0.27725,0.17135 v 0.38126 0.38126 h -0.26458 -0.26458 l -0.0186,-0.33073 -0.0186,-0.33073 -0.20154,0.515 -0.20154,0.515 z m 6.02042,-2.82056 -1.05833,-0.36173 -1.15119,-0.29623 -1.15118,-0.29622 0.14738,-0.14738 0.14738,-0.14738 2.45901,0.59773 2.45902,0.59773 0.39687,0.22045 0.39688,0.22045 -0.79375,-0.0128 -0.79375,-0.0128 z m -78.287487,63.62956 0.5,-0.009 -0.66146,-0.37812 -0.66146,-0.37813 0.46302,-0.009 0.46302,-0.009 v -0.39723 -0.39688 h -0.39687 -0.39688 v 0.26459 0.26458 h -0.39687 -0.39688 v -0.21167 -0.21166 l 0.3175,-0.3175 0.3175,-0.3175 h -0.52917 -0.52916 l -0.3175,0.3175 -0.3175,0.3175 v 0.24406 0.24407 l 0.42261,-0.35074 0.42261,-0.35074 -0.0919,0.64617 -0.0919,0.64618 0.33073,0.036 0.33072,0.036 0.16469,0.0331 0.16469,0.0331 -0.29468,0.35508 -0.29469,0.35507 0.18888,0.18888 0.18888,0.18888 0.30102,-0.41166 0.30101,-0.41166 z m 83.677607,-2.10729 0.003,-1.7198 -0.21695,-1.05833 -0.21695,-1.05833 -0.006,3.30729 -0.006,3.30729 0.21916,-0.52916 0.21917,-0.52917 z m -73.616583,-3.57036 0.151712,-0.39535 0.265205,0.1639 0.265205,0.16391 -0.19117,-0.60233 -0.19117,-0.60232 0.427407,0.16401 0.427408,0.16401 v -0.20336 -0.20336 l -0.290866,-0.29087 -0.290866,-0.29087 0.171084,-0.53903 0.171083,-0.53904 0.582804,-0.11757 0.582803,-0.11756 -0.866417,0.0253 -0.866416,0.0253 0.120969,0.31524 0.120969,0.31524 -0.510389,0.46189 -0.510389,0.4619 0.289924,0.34934 0.289924,0.34933 -0.42315,0.42315 -0.42315,0.42315 v 0.24569 0.24568 h 0.272887 0.272887 z m 76.560843,-2.37346 v -0.38757 l -0.51177,-0.27389 -0.51178,-0.27389 h -0.43367 -0.43366 l 0.0869,0.45142 0.0869,0.45142 0.66006,0.18366 0.66007,0.18367 0.19844,0.0264 0.19844,0.0264 z m -96.188487,-1.50699 0.67391,-0.30705 v -0.17261 -0.17261 l -0.74849,-0.7171 -0.74848,-0.71709 -0.30985,0.68004 -0.30985,0.68004 v 0.51672 0.51672 h 0.38443 0.38442 z m 94.890387,-1.54503 h 0.20854 l 0.16352,0.26459 0.16352,0.26458 h 0.38126 0.38126 v -2.13872 -2.13871 l -0.31123,0.10374 -0.31123,0.10375 -0.74564,1.83653 -0.74564,1.83653 0.0164,0.52917 0.0164,0.52917 0.28711,-0.59531 0.28711,-0.59532 z m -35.87586,0 0.16352,-0.26458 -0.74322,-0.0307 -0.74322,-0.0307 0.52917,-0.12728 0.52917,-0.12728 0.25135,-0.2389 0.25136,-0.23891 h -0.56045 -0.56044 l -0.41852,0.1606 -0.41851,0.1606 v 0.50086 0.50086 h 0.77814 0.77813 z m 18.66724,-2.00138 0.3435,-0.41388 0.65599,0.16464 0.65599,0.16464 0.21949,-0.34607 0.21948,-0.34607 0.004,-0.46526 0.004,-0.46527 -0.46302,0.23836 -0.46302,0.23835 -0.66146,0.30353 -0.66146,0.30353 -0.6,0.34699 -0.59999,0.34699 -0.17171,0.1717 -0.1717,0.1717 h 0.67316 0.67316 z m -48.134139,-0.46166 0.431013,-0.59434 -0.695596,0.0303 -0.695596,0.0303 -0.08241,0.42379 -0.08241,0.42378 -0.579046,0.11253 -0.579045,0.11253 0.926041,0.0277 0.926042,0.0277 z m 40.447109,0.0722 3.57187,-0.53591 0.92605,-0.20607 0.92604,-0.20606 -0.70926,-0.18307 -0.70926,-0.18307 -0.0908,-0.59488 -0.0908,-0.59488 -0.39059,0.0902 -0.3906,0.0902 -0.92604,0.0677 -0.92604,0.0677 -0.8599,0.20587 -0.85989,0.20586 v 0.20211 0.20211 l 0.33073,-0.0368 0.33073,-0.0367 0.12078,0.26459 0.12078,0.26458 -1.70828,0.3189 -1.70828,0.3189 -0.3475,-0.11859 -0.3475,-0.1186 0.15427,-0.24962 0.15427,-0.24961 0.5901,-0.0123 0.59011,-0.0123 0.56897,-0.01 0.56898,-0.01 0.13971,-0.36407 0.1397,-0.36406 -0.7947,0.055 -0.7947,0.055 -0.24066,0.38033 -0.24066,0.38034 -0.004,-0.27257 -0.004,-0.27257 -1.12448,0.0416 -1.12448,0.0416 -2.64583,0.19685 -2.64583,0.19684 -0.19702,0.11502 -0.19701,0.11502 -0.28505,0.53261 -0.28505,0.53262 0.87894,-0.0843 0.87894,-0.0843 0.0331,-0.33073 0.0331,-0.33073 0.0411,-0.19844 0.0411,-0.19844 0.25973,0.44524 0.25973,0.44523 0.79055,-0.0225 0.79056,-0.0225 v -0.37222 -0.37223 l 0.2689,0.16619 0.2689,0.16619 -0.15222,0.2463 -0.15223,0.2463 h 0.25815 0.25815 l 0.15434,-0.33073 0.15434,-0.33073 0.15434,0.33073 0.15434,0.33073 h 0.50712 0.50712 v 0.26458 0.26459 l 0.7276,-10e-4 0.72761,-0.001 z m 0.79559,-1.39609 0.002,-0.3141 1.23235,-0.0568 1.23235,-0.0568 -0.242,0.22078 -0.24201,0.22077 -0.99218,0.15011 -0.99219,0.15012 z m -35.643298,0.0654 1.532495,-0.28934 -0.151318,-0.47677 -0.151318,-0.47676 0.442629,-0.16985 0.442629,-0.16985 0.13852,0.13852 0.138519,0.13852 H 82.81731 82.455713 l 0.328517,0.32851 0.328518,0.32852 0.191281,-0.3095 0.191282,-0.3095 0.525177,0.0471 0.525177,0.0471 0.0845,-0.594 0.08451,-0.59401 -0.34896,0.11737 -0.34896,0.11737 -1.852083,0.43371 -1.852083,0.43372 -0.79375,0.24121 -0.79375,0.24122 -1.124479,0.27492 -1.124479,0.27493 v 0.24593 0.24594 l 0.703763,0.36874 0.703764,0.36874 0.685299,-0.3566 0.685299,-0.3566 z m -9.512188,-0.31335 0.134197,-0.33073 0.23806,0.33699 0.238061,0.33698 0.483702,-0.53449 0.483703,-0.53448 0.356714,0.29604 0.356713,0.29605 v -0.29698 -0.29698 h 0.507118 0.507118 l 0.134197,-0.33073 0.134198,-0.33073 0.236649,0.3347 0.23665,0.3347 4.479847,-1.35665 4.479848,-1.35665 0.47044,-0.13533 0.470441,-0.13533 -0.17258,-0.56251 -0.17258,-0.56251 -0.08914,-0.1 -0.08914,-0.1 -1.362376,0.44561 -1.362375,0.44561 -0.116619,-0.11662 -0.116619,-0.11662 0.85016,-0.29637 0.850161,-0.29636 -0.148971,-0.14897 -0.14897,-0.14897 -2.42253,0.81162 -2.422529,0.81162 H 77.916291 77.53447 v 0.26458 0.26459 l -0.727604,0.0307 -0.727604,0.0307 0.46302,0.121 0.463021,0.121 v 0.19226 0.19227 l -0.3175,0.3175 -0.3175,0.3175 h -0.38927 -0.389271 l -0.529335,-0.46302 -0.529334,-0.46302 0.151993,0.26458 0.151993,0.26458 -0.804698,0.0584 -0.804698,0.0584 -0.447128,0.40465 -0.447127,0.40464 h -0.394165 -0.394165 l -1.437085,0.44072 -1.437085,0.44072 1.058334,0.33269 1.058334,0.3327 0.176389,0.0203 0.176389,0.0203 z m 53.154626,-0.32863 0.72494,-0.35576 0.82257,-0.18066 0.82256,-0.18067 -0.32381,-0.30396 -0.3238,-0.30396 -0.12182,0.33238 -0.12182,0.33237 -0.21871,-0.13517 -0.21871,-0.13517 0.13066,-0.82904 0.13066,-0.82903 -0.61695,0.16519 -0.61696,0.1652 -0.47863,0.004 -0.47864,0.004 0.18879,0.30546 0.18878,0.30547 -0.30783,-0.19025 -0.30783,-0.19025 -0.5268,0.1672 -0.5268,0.1672 v 0.41144 0.41144 l -0.40327,-0.33468 -0.40326,-0.33469 -0.14795,0.14795 -0.14795,0.14795 0.55122,0.55121 0.55121,0.55122 v 0.13229 0.13229 h -0.30989 -0.3099 l -0.4901,-0.44354 -0.49011,-0.44354 -0.31125,0.31125 -0.31125,0.31125 0.25136,0.24218 0.25135,0.24218 0.66146,0.12647 0.66146,0.12648 0.92604,-0.12358 0.92604,-0.12359 z m -53.509309,-1.64298 3.571875,-0.91716 0.0903,-0.0901 0.0903,-0.0901 -0.180352,-0.56824 -0.180353,-0.56824 -0.372972,0.14312 -0.372972,0.14312 v -0.25628 -0.25628 h 0.286632 0.286632 l -0.102165,-0.30649 -0.102166,-0.3065 -0.581341,-0.0887 -0.581342,-0.0887 v 0.26293 0.26292 h -0.529168 -0.529166 v 0.26458 0.26459 h -0.41249 -0.41249 l 0.163964,0.26529 0.163963,0.2653 0.53577,-0.28673 0.53577,-0.28674 0.136126,0.13613 0.136125,0.13612 -0.174401,0.28219 -0.174401,0.28219 h -0.505247 -0.505248 l 0.139333,0.36309 0.139334,0.3631 -0.676804,0.12938 -0.676804,0.12938 v -0.23403 -0.23399 l -0.61817,0.40504 -0.61817,0.40504 -2.315174,0.50593 -2.315174,0.50593 -0.154078,0.15408 -0.154079,0.15408 1.69836,-0.16405 1.69836,-0.16404 z m 17.065624,0.3771 1.058339,-0.0591 -0.0787,-0.46721 -0.0787,-0.46721 0.21099,0.0355 0.211,0.0355 0.43216,-0.0313 0.43216,-0.0313 0.14385,-0.55006 0.14385,-0.55007 -0.44372,0.1913 -0.44372,0.1913 -1.455205,0.27531 -1.455208,0.2753 -0.214699,0.35361 -0.214699,0.35361 -0.277903,-0.17176 -0.277904,-0.17175 -0.217544,0.35199 -0.217544,0.352 0.145848,0.23598 0.145847,0.23599 0.696591,-0.16422 0.69659,-0.16423 z m 28.043515,-0.21149 3.17269,-0.29219 0.19875,-0.12284 0.19875,-0.12283 1.65565,-0.261 1.65564,-0.261 1.52136,-0.42094 1.52135,-0.42095 v -0.37987 -0.37984 l -0.46302,0.14321 -0.46302,0.14322 -2.24896,0.63518 -2.24896,0.63519 -1.05833,0.1803 -1.05834,0.1803 -2.51354,0.3769 -2.51354,0.3769 -1.12448,0.005 -1.12448,0.005 v 0.27658 0.27657 l 0.8599,-0.14051 0.85989,-0.14051 z m 13.83267,-0.7665 2.04464,-1.05115 0.58,-0.50021 0.57999,-0.50021 -0.13865,-0.53019 -0.13864,-0.53018 -0.60921,0.2875 -0.60921,0.2875 0.11975,0.31207 0.11976,0.31208 -0.28262,0.17467 -0.28262,0.17467 v -0.4408 -0.4408 l -0.33073,0.12206 -0.33073,0.12206 -1.45521,0.46794 -1.45521,0.46793 -0.25135,0.23207 -0.25136,0.23206 h 0.2892 0.28919 l 0.16698,0.43513 0.16697,0.43514 -0.44426,0.49091 -0.44426,0.4909 h 0.31147 0.31146 z m -21.90015,-1.59468 v -1.05834 h -0.26458 -0.26458 v 0.79375 0.79375 h -0.26459 -0.26458 v -0.25631 -0.25628 l -0.39688,0.1523 -0.39687,0.15229 v -0.42518 -0.42518 h 0.29698 0.29698 l -0.32696,-0.39397 -0.32696,-0.39396 -0.19131,0.11824 -0.19132,0.11824 -0.0346,0.92045 -0.0346,0.92044 0.71892,0.10938 0.71892,0.10939 0.46302,0.0396 0.46302,0.0396 z m -17.283026,-1.5875 h 0.11635 l -0.21,-0.33073 -0.21001,-0.33073 -0.0371,-0.19844 -0.0371,-0.19844 -0.0331,-0.38302 -0.0331,-0.38303 -0.99218,0.34985 -0.992191,0.34985 0.0302,0.39075 0.0302,0.39074 -1.551552,0.46477 -1.551551,0.46476 v 0.45649 0.45648 l 0.16118,0.16118 0.16118,0.16118 2.516216,-0.91083 2.516217,-0.91083 z m -1.66537,1.27831 1.08903,-0.30919 0.25135,-0.21998 0.25136,-0.21998 -0.25136,2.2e-4 -0.25135,2.1e-4 -1.32292,0.51658 -1.322915,0.51657 0.233886,0.0124 0.233887,0.0124 z m 36.289486,-0.50217 0.1744,-0.28218 -0.13539,-0.1354 -0.1354,-0.13539 -0.75099,0.40699 -0.751,0.40698 0.71199,0.0106 0.71199,0.0106 z m 9.5697,-0.44541 0.99957,-0.46303 0.72183,-0.63248 0.72184,-0.63249 -0.12576,-0.20348 -0.12576,-0.20348 -1.71896,0.68201 -1.71896,0.68201 v 0.61698 0.61698 h 0.12331 0.12332 z m -41.065986,-1.63978 0.52916,-0.227 1.71979,-0.67008 1.7198,-0.67008 1.19062,-0.36821 1.190626,-0.36821 0.0829,-0.83952 0.0829,-0.83952 h -0.18451 -0.184496 l -1.02289,0.30646 -1.02288,0.30647 -0.001,0.28885 -10e-4,0.28884 -0.85871,0.0555 -0.85871,0.0555 -2.38125,0.89486 -2.38125,0.89485 -0.0817,0.96084 -0.0817,0.96083 1.00774,-0.40173 1.00774,-0.40173 z m -41.234571,-1.34146 -0.0874,-0.79842 -0.18156,-0.0152 -0.18157,-0.0152 -0.32411,0.10911 -0.32412,0.10911 0.36313,0.4399 0.36312,0.4399 -0.36312,0.004 -0.36313,0.004 0.39688,0.25648 0.39687,0.25648 0.19621,0.004 0.19621,0.004 z m 66.580297,-0.41633 0.84801,-0.0241 0.52917,-0.0504 0.52917,-0.0504 -0.46637,-0.35393 -0.46637,-0.35393 1.33549,-0.17716 1.33549,-0.17716 -0.16215,-0.26237 -0.16215,-0.26236 -0.97155,0.18884 -0.97156,0.18883 -0.66146,0.0498 -0.66146,0.0497 -0.33072,0.0341 -0.33073,0.0341 v 0.26459 0.26458 l 0.59531,0.0266 0.59531,0.0266 -1.05833,0.25274 -1.05834,0.25274 -0.66145,-0.12658 -0.66146,-0.12658 -0.51359,0.37643 -0.51359,0.37643 0.77817,0.004 0.77817,0.004 0.39688,0.2556 0.39687,0.25559 0.34262,-0.45808 0.34261,-0.45809 z m 3.67715,-2.3108 0.1833,-0.29316 -0.28455,-0.34286 -0.28455,-0.34287 -0.29563,0.23342 -0.29562,0.23342 -1.77336,0.13524 -1.77336,0.13524 -0.4639,0.4639 -0.4639,0.4639 2.63414,-0.19654 2.63413,-0.19653 z m -2.36203,-1.1708 -0.12685,-0.33073 h -0.50085 -0.50086 v 0.36889 0.36888 l 0.6277,-0.0382 0.62771,-0.0382 z m -33.407726,-1.15279 v -0.23627 h 0.280198 0.280198 l -0.163521,0.26458 -0.163522,0.26458 h 0.280198 0.280199 v -0.23218 -0.23219 l -0.350711,-0.29106 -0.350711,-0.29107 -1.170643,0.21814 -1.170644,0.21813 0.727605,0.20151 0.727604,0.20151 v 0.22759 0.2276 l 0.396875,-0.1523 0.396875,-0.15229 z m 7.67292,-1.55919 v -0.26458 l -0.46302,-0.008 -0.46302,-0.008 -0.5136,-0.38846 -0.51359,-0.38846 h -0.45029 -0.45028 l -0.13975,0.36417 -0.13975,0.36417 -0.68231,-0.13043 -0.68231,-0.13044 v 0.30717 0.30717 l 1.97709,-0.0631 1.97709,-0.0631 0.18368,0.18367 0.18367,0.18367 h 0.0882 0.0882 z m -33.07292,-0.9958 0.661458,-0.19483 -2.38125,-0.13474 -2.381249,-0.13474 -0.66146,0.12215 -0.66146,0.12214 0.79375,0.17973 0.79375,0.17973 1.587503,0.0277 1.5875,0.0277 z m 2.645833,-1.04458 v -0.39283 l 1.653646,0.18506 1.653646,0.18506 0.215857,0.2023 0.215858,0.2023 1.636226,-0.31158 1.636226,-0.31158 0.595312,-0.32369 0.595313,-0.32369 v -0.65531 -0.65528 l -1.058334,0.16923 -1.058333,0.16924 -0.03415,-0.49684 -0.03415,-0.49684 -0.03687,-1.76875 -0.03687,-1.76876 -0.215202,-0.2152 -0.215203,-0.2152 -0.390523,0.52875 -0.390524,0.52875 -0.257762,-0.45465 -0.257763,-0.45464 -0.928721,0.0349 -0.92872,0.0349 -0.136767,0.22129 -0.136768,0.22129 h -0.645844 -0.645844 v -0.27781 -0.27781 l -1.049798,0.10498 -1.049798,0.10498 -0.12302,-0.29019 -0.12302,-0.29019 -0.180957,0.59532 -0.180957,0.59531 -0.167579,0.0202 -0.167579,0.0202 -0.463021,0.0886 -0.463021,0.0886 v -0.36516 -0.36516 l 0.463021,0.14894 0.463021,0.14895 -0.396875,-0.28549 -0.396875,-0.28549 -1.256771,-0.004 -1.256771,-0.004 0.0041,0.59531 0.0041,0.59531 0.383317,1.5875 0.383317,1.5875 0.0094,0.28664 0.0094,0.28663 -0.330729,0.0358 -0.330729,0.0358 -0.926046,0.11156 -0.92604,0.11156 -0.13229,0.0603 -0.13229,0.0603 -0.22324,-0.0396 -0.22324,-0.0396 0.11163,0.339 0.11163,0.339 1.21939,0.08 1.219383,0.08 0.294561,-0.55039 0.294561,-0.55039 0.292188,0.18058 0.292189,0.18058 -0.188787,-0.30546 -0.188787,-0.30547 h 0.560396 0.560397 l -0.15638,-0.25303 -0.15638,-0.25302 -0.454547,0.17027 -0.454548,0.17028 0.330383,-0.40696 0.330383,-0.40697 0.168601,-1.23007 0.168601,-1.23008 h 0.594637 0.594636 l 0.138111,0.52814 0.138112,0.52814 -0.139326,1.03875 -0.139325,1.03875 -0.3409,-0.13082 -0.340899,-0.13081 -0.162194,0.51102 -0.162194,0.51103 0.166599,0.43415 0.166598,0.43415 H 60.7616 60.336417 v 0.23981 0.23982 l 0.529167,-0.13838 0.529167,-0.13838 v -0.50662 -0.50661 l 0.384603,-0.14758 0.384603,-0.14759 0.60031,0.42047 0.60031,0.42048 h -0.72033 -0.72033 v 0.51602 0.51602 l 0.410755,0.22986 0.410754,0.22987 0.779871,-0.11446 0.77987,-0.11446 z m 0.859896,-1.39237 0.463021,-0.29771 0.0083,-0.31758 0.0083,-0.31759 0.671239,-0.48902 0.67124,-0.48902 0.126795,0.1268 0.126795,0.12679 -0.409474,0.40947 -0.409474,0.40948 v 0.41577 0.41578 h -0.375236 -0.375236 l -0.48466,0.15227 -0.484661,0.15226 z m 2.489198,0.0791 -0.174094,-0.1741 v -0.83582 -0.83582 l 0.661459,-0.62141 0.661458,-0.62141 v -0.61537 -0.61534 h 0.264583 0.264584 v 0.92963 0.92963 l 0.30634,0.49053 0.30634,0.49053 -0.182722,0.47617 -0.182722,0.47616 -0.308827,-0.30882 -0.308826,-0.30883 h -0.211667 -0.211666 v 0.36448 0.36448 l -0.355074,0.29468 -0.355073,0.29469 z m -3.189184,-1.80569 0.176277,-0.52917 -0.03538,-0.62608 -0.03538,-0.62607 0.661041,0.12636 0.66104,0.12637 v -0.37488 -0.37489 l 0.859896,0.0982 0.859896,0.0982 0.0049,0.37953 0.0049,0.37952 -0.602025,0.48365 -0.602024,0.48364 -0.746576,-0.16397 -0.746576,-0.16398 -0.318133,0.60637 -0.318134,0.60637 z m 20.249841,3.05109 0.624624,-0.52079 -1.124479,0.035 -1.124479,0.035 v 0.22121 0.22121 h 0.280198 0.280198 l -0.163521,0.26458 -0.163522,0.26459 h 0.383179 0.383178 z m -27.207965,-3.7787 -0.13667,-1.91823 -0.10443,-0.11024 -0.10444,-0.11024 v 2.02847 2.02847 h 0.24111 0.2411 z m 27.766748,0.52917 0.123066,-0.33073 0.05579,-2.23762 0.05579,-2.23763 0.129646,-0.20977 0.129647,-0.20977 h -0.280198 -0.280199 v -0.64588 -0.64584 l -0.306343,-0.18933 -0.306344,-0.18934 0.155465,1.31266 0.155466,1.31265 -0.219559,0.35526 -0.219558,0.35525 -0.996356,0.0272 -0.996356,0.0272 -0.116291,0.34821 -0.116291,0.34821 0.554066,0.14489 0.554066,0.14489 -0.137789,0.22295 -0.137789,0.22295 -0.386002,-0.14813 -0.386002,-0.14812 0.07043,1.01957 0.07043,1.01958 0.207369,0.33073 0.207368,0.33073 h 1.146703 1.146703 z M 58.682902,177.1953 v -0.66146 h -0.39211 -0.392109 l 0.1606,0.41851 0.160598,0.41852 v 0.24294 0.24294 h 0.23151 0.231511 z m 83.102968,-0.46302 -0.0423,-1.12448 -0.10672,0.85989 -0.10671,0.8599 -0.44626,0.004 -0.44625,0.004 0.39687,0.25648 0.39688,0.25648 0.19843,0.004 0.19844,0.004 z m -67.632842,-0.45141 -0.118207,-0.8054 h -0.31393 -0.313928 l -0.305699,0.3057 -0.305698,0.3057 0.576759,0.59925 0.576758,0.59925 0.161076,-0.0995 0.161076,-0.0996 z m 1.654677,0.29968 -0.389908,-0.0855 v -0.37747 -0.37748 h 0.233725 0.233724 l 0.138381,-0.52917 0.13838,-0.52916 H 75.55196 74.941913 l -0.09499,1.19439 -0.09499,1.1944 0.324462,-0.12451 0.324463,-0.12451 0.173838,0.28128 0.173837,0.28127 0.224544,-0.35897 0.224543,-0.35898 z m 16.660959,-0.28745 0.14877,-0.24071 -0.15371,-0.40056 -0.15371,-0.40056 -0.50861,0.43548 -0.50861,0.43549 v 0.20578 0.20578 h 0.51356 0.51355 z m -16.631943,-2.66971 h 0.903993 v -0.28056 -0.28055 l -0.989987,0.0821 -0.989987,0.0821 -0.06368,0.52916 -0.06368,0.52917 0.149674,-0.33073 0.149675,-0.33073 z m 3.016608,-3.41754 0.0041,-2.75607 -0.174081,0.17408 -0.174081,0.17408 -0.08345,2.97887 -0.08345,2.97887 0.253483,-0.39688 0.253484,-0.39687 z m 2.863756,3.13311 -0.09481,-0.28443 -0.151158,0.086 -0.151157,0.086 -0.416725,-0.34585 -0.416724,-0.34585 0.142335,0.54429 0.142334,0.54429 h 0.520357 0.520357 z m -5.240954,-2.22912 v -0.92604 h -0.66146 -0.661458 v 0.50753 0.50753 l 0.160599,0.41851 0.160599,0.41852 h 0.500859 0.500861 z m 6.966838,0.0662 -0.163682,-0.8599 -0.09429,-0.11024 -0.09429,-0.11025 -0.09429,0.11025 -0.09429,0.11024 -0.163682,0.8599 -0.163682,0.85989 h 0.515938 0.515937 z m -5.379338,-2.06614 v -0.80937 l -0.264584,0.16352 -0.264583,0.16352 v 0.64585 0.64584 h 0.264583 0.264584 z m -0.431763,-3.09324 0.170874,-1.91823 h -0.266431 -0.26643 v 2.02847 2.02848 l 0.09556,-0.11025 0.09556,-0.11024 z m 5.983961,0.39687 -0.0041,-1.65364 -0.25648,-0.39688 -0.25648,-0.39687 -0.0041,2.05052 -0.0041,2.05052 h 0.264583 0.264583 z m -4.809689,-1.98437 -0.05124,-2.84427 -0.147197,2.64583 -0.147196,2.64584 0.08176,0.19843 0.08176,0.19844 h 0.116677 0.116677 z"
       id="path20" /></g></svg>
