<?xml version="1.0" encoding="UTF-8" standalone="no"?>
<!-- Created with Inkscape (http://www.inkscape.org/) -->

<svg
   width="101.6mm"
   height="84.666664mm"
   viewBox="0 0 101.6 84.666664"
   version="1.1"
   id="svg1"
   xml:space="preserve"
   xmlns="http://www.w3.org/2000/svg"
   xmlns:svg="http://www.w3.org/2000/svg"><defs
     id="defs1" /><g
     id="layer1"
     transform="translate(-30.909699,-21.500009)"><path
       style="fill:#ffffff;fill-opacity:1"
       d="M 30.909698,63.83334 V 21.500007 H 81.709701 132.5097 V 63.83334 106.16667 H 81.709701 30.909698 Z m 64.822919,41.13784 v -0.39201 h 0.440972 0.440972 l -0.11828,-0.11828 -0.118281,-0.11828 -0.858552,-0.15126 -0.858552,-0.15125 -0.241118,0.60026 -0.241119,0.60027 -0.01677,-0.48301 -0.01677,-0.483 -1.124479,0.0445 -1.124479,0.0445 -0.264584,-0.0286 -0.264583,-0.0286 0.396875,-0.27218 0.396875,-0.27218 -1.5875,0.1319 -1.5875,0.1319 0.79375,-0.18899 0.79375,-0.189 -0.132292,-0.26019 -0.132291,-0.26019 -0.264584,0.0574 -0.264583,0.0574 -5.159375,0.7862 -5.159375,0.7862 -1.401815,0.14526 -1.401815,0.14526 -0.482525,-0.46145 -0.482525,-0.46145 -0.210378,-1.32291 -0.210379,-1.32292 -0.103585,0.52916 -0.103585,0.52917 -0.131034,0.38946 -0.131033,0.38946 -0.196023,-0.31717 -0.196023,-0.31717 -0.07456,-2.18714 -0.07456,-2.18714 -0.112061,-0.11206 -0.112061,-0.11206 -0.04567,2.75608 -0.04567,2.75608 -0.173249,-1.7198 -0.17325,-1.71979 -0.04567,0.70556 -0.04567,0.70555 -0.330729,0.11105 -0.330729,0.11104 0.365886,0.68691 0.365886,0.6869 -0.198253,0.48087 -0.198252,0.48087 -0.123536,-0.33073 -0.123536,-0.33073 h -0.384136 -0.384135 l 0.273892,-0.51177 0.273892,-0.51177 -0.04157,-1.40646 -0.04157,-1.40646 -0.181449,1.32292 -0.181449,1.32292 -0.04562,-1.71979 -0.04562,-1.71979 -0.230763,0.36432 -0.230762,0.36432 0.0788,1.22318 0.0788,1.22318 -0.130976,-0.66146 -0.130976,-0.66146 -0.210693,-0.21987 -0.210694,-0.21987 -0.01529,1.10766 -0.01529,1.10767 -0.14849,0.14849 -0.148491,0.14849 v -3.36701 -3.367 l 0.263784,0.16303 0.263783,0.16303 -0.263783,-0.69381 -0.263784,-0.6938 0.01665,-2.43017 0.01665,-2.43017 0.204124,-2.13082 0.204123,-2.13082 0.683978,-1.44581 0.683978,-1.44581 1.065646,-0.85638 1.065646,-0.85637 0.711542,-0.27053 0.711542,-0.27053 0.956083,-0.17061 0.956084,-0.1706 1.124479,0.0253 1.124479,0.0253 v -0.26541 -0.2654 l 0.79375,0.17434 0.79375,0.17434 v -0.28561 -0.28561 h -0.560025 -0.560026 l 0.180027,-0.59531 0.180027,-0.59531 0.145931,-1.08994 0.145932,-1.08994 -0.993663,-1.09986 -0.993663,-1.09987 -0.132082,0.13208 -0.132083,0.13209 0.698354,0.91558 0.698354,0.91559 -0.0186,0.48068 -0.0186,0.48067 -0.217588,-0.52916 -0.217588,-0.52917 -0.182044,0.52917 -0.182044,0.52916 -0.509407,1.05834 -0.509407,1.05833 -0.329136,0.41964 -0.329135,0.41965 -1.697434,0.17619 -1.697433,0.17618 -1.128127,0.66113 -1.128126,0.66113 -0.454822,0.45482 -0.454821,0.45482 0.174932,-2.10866 0.174932,-2.10865 0.144985,-2.77813 0.144984,-2.77812 0.446923,-0.36109 0.446923,-0.36109 -0.330729,-0.12398 -0.330729,-0.12398 v -1.02314 -1.02313 l 0.463021,-0.26306 0.463021,-0.26305 -0.330729,-0.54025 -0.33073,-0.54026 0.01059,-0.46661 0.01059,-0.46661 0.394732,0.7276 0.394732,0.72761 h 0.203216 0.203217 l 0.3175,-0.3175 0.3175,-0.3175 -0.03483,-0.93927 -0.03483,-0.93927 -0.194924,0.92604 -0.194923,0.92604 -0.03483,-0.84489 -0.03483,-0.8449 0.588038,-0.41187 0.588038,-0.41188 -0.786475,-0.0209 -0.786476,-0.0209 0.365984,-0.1452 0.365985,-0.14521 1.419953,0.34064 1.419953,0.34064 v 1.3044 1.30439 l -0.562777,0.45571 -0.562778,0.45571 0.163693,0.51575 0.163692,0.51575 1.391273,0.36013 1.391272,0.36013 0.926042,0.13406 0.926041,0.13406 0.132292,0.17037 0.132292,0.17038 0.718295,0.45691 0.718295,0.4569 h 0.169908 0.169908 l -0.152295,-0.39687 -0.152295,-0.39688 h 0.287138 0.287138 l -0.132991,0.50856 -0.132992,0.50856 0.697445,0.66552 0.697446,0.66552 1.058333,0.14013 1.058333,0.14013 0.75701,0.15151 0.75701,0.15151 0.386368,0.38636 0.386368,0.38637 h 0.328086 0.328086 l 0.563936,0.52539 0.563936,0.52538 -0.0099,1.27183 -0.0099,1.27183 0.293848,1.04706 0.293848,1.04705 0.326437,0.41981 0.326437,0.4198 0.577918,0.3078 0.577919,0.3078 0.480415,-10e-4 0.480414,-0.001 -0.70196,-0.594 -0.701959,-0.59399 -0.173688,-1.01225 -0.173688,-1.01224 0.289618,-0.34897 0.289617,-0.34897 -0.472303,0.0383 -0.472303,0.0383 -0.194386,0.26459 -0.194386,0.26458 -0.0041,-0.72985 -0.0041,-0.72984 0.524889,0.3278 0.52489,0.32779 0.457848,-0.45784 0.457849,-0.45785 h -0.336895 -0.336894 l 0.188787,-0.30547 0.188787,-0.30546 -0.287182,0.17749 -0.287181,0.17749 -0.149156,-0.24134 -0.149156,-0.24134 0.493691,-0.60969 0.493692,-0.60968 0.386047,0.38605 0.386048,0.38605 -0.101374,0.30412 -0.101373,0.30412 0.296245,0.18309 0.296246,0.18309 -0.08384,-0.48958 -0.08384,-0.48957 h 0.396875 0.396875 l -0.0998,0.39688 -0.0998,0.39687 -0.01044,0.33073 -0.01044,0.33073 -0.418924,0.0313 -0.418924,0.0313 -0.198437,-0.0313 -0.198438,-0.0313 v 0.39688 0.39687 h 0.493088 0.493087 l 0.697538,-0.69754 0.697537,-0.69754 v 0.34598 0.34598 l -0.437882,0.48385 -0.437882,0.48385 h 0.298796 0.298796 l 0.40367,-0.78061 0.403669,-0.78061 v -0.44241 -0.44241 l -0.443726,0.36313 -0.443726,0.36312 0.289678,-0.52354 0.289677,-0.52355 -0.97043,-0.45966 -0.970431,-0.45967 0.447406,-0.009 0.447406,-0.009 0.163521,0.26459 0.163522,0.26458 h 0.289975 0.289976 l -0.47889,-0.52917 -0.478889,-0.52916 h -1.03472 -1.03472 l -0.449388,0.2405 -0.449388,0.24051 -0.492445,-0.36009 -0.492445,-0.36008 0.157173,-0.40959 0.157173,-0.40959 h 0.272887 0.272887 v 0.39688 0.39687 h 0.264584 0.264583 v -0.28352 -0.28351 l 0.727604,0.0851 0.727604,0.0851 -0.08938,-1.85209 -0.08938,-1.85208 -0.245917,-0.2972 -0.245918,-0.29719 0.157314,-0.40995 0.157314,-0.40996 0.508709,0.50871 0.50871,0.50871 h 0.47625 0.47625 l 0.251354,0.23206 0.251354,0.23206 1.356751,0.43993 1.356751,0.43993 -0.137449,2.89989 -0.137449,2.89988 h 0.261627 0.261627 l 0.171513,-2.97656 0.171514,-2.97656 8.42e-4,-5.02708 8.41e-4,-5.02709 -0.375792,-2.11666 -0.375793,-2.116671 -0.193229,-0.529167 -0.193229,-0.529167 -0.382577,-0.446348 -0.382578,-0.446349 0.173826,-0.281255 0.173826,-0.281256 H 97.59664 97.313003 l -0.591874,-1.256771 -0.591874,-1.256771 -0.330729,-0.211584 -0.330729,-0.211585 v -0.237804 -0.237805 l -0.661634,-0.713914 -0.661634,-0.713915 0.264065,-0.318178 0.264064,-0.318178 -0.925347,-0.9528 -0.925348,-0.9528 V 46.661659 46.132525 L 92.470567,45.92094 92.11917,45.709356 91.688105,43.063522 91.25704,40.417689 91.085946,38.565606 90.914852,36.713523 90.672143,36.56213 l -0.242709,-0.151392 0.243645,-1.039233 0.243646,-1.039232 0.02658,0.727604 0.02658,0.727604 h 0.26771 0.26771 l -0.165197,-1.033087 -0.165197,-1.033087 0.578973,-0.309857 0.578972,-0.309857 -0.28461,0.5318 -0.284611,0.5318 v 0.281977 0.281978 h 0.379301 0.379301 l 0.120228,-0.727605 0.120229,-0.727604 -0.119925,1.984375 -0.119924,1.984375 0.0045,0.661459 0.0045,0.661458 0.180276,1.913695 0.180275,1.913695 0.883059,0.673541 0.883059,0.673542 1.396818,0.242144 1.396819,0.242143 1.298664,0.160294 1.298665,0.160294 0.47122,0.252187 0.47121,0.252187 0.18923,-0.306179 0.18923,-0.306179 -0.28718,0.177488 -0.28718,0.177488 -0.15184,-0.245673 -0.15183,-0.245673 0.46428,0.08882 0.46428,0.08882 0.0661,0.02024 0.0662,0.02024 0.19844,-0.06615 0.19844,-0.06615 -0.0811,-0.243224 -0.0811,-0.243224 0.46259,0.375515 0.46259,0.375516 -0.19985,-0.332598 -0.19985,-0.332597 0.42506,-0.16311 0.42505,-0.163109 0.14738,0.147375 0.14737,0.147375 -0.21749,0.348332 -0.21749,0.348332 -0.0502,0.330729 -0.0502,0.33073 h 0.25679 0.25678 l -0.18098,0.292831 -0.18098,0.292831 -0.18484,-0.299085 -0.18484,-0.299084 -0.45497,0.502729 -0.45496,0.50273 0.38013,0.14587 0.38013,0.14587 0.60345,-0.642346 0.60346,-0.642346 h -0.20884 -0.20885 l 0.45475,-0.694035 0.45475,-0.694035 -0.33291,0.205749 -0.3329,0.205748 0.18922,-0.306179 0.18923,-0.306179 0.54504,0.291695 0.54504,0.291696 -0.17983,-0.29098 -0.17984,-0.29098 h 0.51238 0.51239 l 0.30983,0.373319 0.30983,0.37332 -0.23943,0.147974 -0.23943,0.147974 -0.56161,-0.108155 -0.5616,-0.108156 -0.17475,0.282752 -0.17475,0.282752 -0.0776,1.160806 -0.0776,1.160806 0.22355,-0.138165 0.22356,-0.138165 -0.0573,0.390477 -0.0573,0.390477 -0.22647,0.206096 -0.22647,0.206096 0.21353,-0.396875 0.21353,-0.396875 -0.35364,0.328051 -0.35364,0.328051 -0.0588,0.400813 -0.0588,0.400814 0.24568,-0.151835 0.24567,-0.151834 -0.17749,-0.287181 -0.17749,-0.287182 0.31706,0.19595 0.31705,0.19595 0.33509,-0.221215 0.33508,-0.221215 -0.59022,0.498972 -0.59022,0.498972 -2.23338,0.101418 -2.233392,0.101417 -0.333591,-0.401952 -0.333591,-0.401952 h -0.744129 -0.744128 l -0.634623,-0.241284 -0.634622,-0.241283 -0.272362,0.175138 -0.272361,0.175137 0.04205,0.529166 0.04205,0.529167 h 0.158477 0.158476 l 0.518983,0.469673 0.518983,0.469673 -0.1305,0.720952 -0.1305,0.720952 0.210264,-0.196142 0.210263,-0.196142 0.355073,0.294685 0.355074,0.294684 v -0.200369 -0.20037 l 0.467066,0.630994 0.467067,0.630993 0.569788,1.058334 0.569788,1.058333 0.531167,1.5875 0.53117,1.587497 0.17152,0.92605 0.17152,0.92604 0.13037,0.46302 0.13037,0.46302 0.70977,0.0186 0.70978,0.0186 0.52917,0.22739 0.52916,0.22739 -0.66146,0.0479 -0.66145,0.0479 -0.55577,-0.043 -0.55577,-0.043 -0.16996,1.79969 -0.16995,1.79969 -0.002,1.5279 -0.002,1.52791 0.72222,0.27458 0.72222,0.27459 0.19977,0.31418 0.19977,0.31418 0.004,0.87551 0.004,0.87551 0.26458,-0.16352 0.26459,-0.16353 V 69.77093 68.8605 h 0.48173 0.48173 l -0.1678,1.30804 -0.16781,1.30803 0.20464,-0.12647 0.20463,-0.12647 -0.0555,2.25787 -0.0555,2.25787 -0.42259,1.5e-4 -0.42258,1.5e-4 -0.28711,0.59531 -0.28711,0.59531 -0.0179,-0.5797 -0.0179,-0.57969 -0.24567,-0.15183 -0.24567,-0.15183 -0.0851,0.57851 -0.0851,0.57851 -0.3163,0.10411 -0.3163,0.10411 -0.0978,-1.4063 -0.0978,-1.40631 -0.0489,1.63108 -0.0489,1.63107 -1.98438,0.18595 -1.984375,0.18595 0.0016,0.16735 0.0016,0.16735 1.255155,0.0477 1.25516,0.0477 2.86157,-0.48395 2.86157,-0.48395 0.13643,-0.13643 0.13642,-0.13643 -0.28602,-0.53443 -0.28602,-0.53444 v -2.30052 -2.30053 l 1.52136,0.15833 1.52135,0.15834 3.76855,0.31646 3.76854,0.31645 0.39824,0.60779 0.39824,0.60779 -0.59491,0.55609 -0.59491,0.5561 -0.16713,-0.7446 -0.16713,-0.74461 -0.0313,0.59531 -0.0313,0.59531 h -0.2802 -0.2802 l 0.15034,0.24326 0.15034,0.24325 -0.41821,0.41821 -0.4182,0.4182 h -0.62695 -0.62694 l -0.14466,0.23405 -0.14465,0.23406 -1.1931,0.17892 -1.1931,0.17891 -0.31123,-0.19235 -0.31124,-0.19235 -0.68173,-0.0414 -0.68173,-0.0414 -1.05833,-0.20881 -1.05834,-0.20881 0.51918,0.39782 0.51918,0.39783 -0.35314,0.42551 -0.35314,0.4255 h 0.51747 0.51747 l 0.17017,-0.17017 0.17016,-0.17017 2.18904,0.0496 2.18903,0.0495 1.92616,-0.95275 1.92616,-0.95276 0.91104,-0.79991 0.91104,-0.79991 -0.0243,-0.17723 -0.0243,-0.17724 0.0313,-0.36758 0.0313,-0.36758 1.38907,0.19278 1.38906,0.19278 1.42252,0.0854 1.42252,0.0854 0.33224,0.35397 0.33225,0.35397 0.44653,1.38068 0.44653,1.38069 0.1221,1.50226 0.1221,1.50227 0.18198,0.29205 0.18199,0.29205 -0.0736,0.57004 -0.0736,0.57004 0.22424,0.13859 0.22424,0.13859 -0.0309,0.93258 -0.0309,0.93258 0.2192,-0.13547 0.2192,-0.13547 v 0.54478 0.54478 h 0.24518 0.24518 l 0.099,0.46302 0.099,0.46302 -0.184,0.8599 -0.184,0.85989 h 0.23672 0.23672 l 0.008,0.46302 0.008,0.46302 0.38846,-0.51359 0.38846,-0.51359 v 0.22818 0.22817 l -0.44354,0.49011 -0.44354,0.4901 0.27303,0.27304 0.27304,0.27303 -0.18954,1.03648 -0.18953,1.03648 0.19811,-0.12244 0.19812,-0.12244 0.1161,0.79105 0.1161,0.79105 h -0.182 -0.182 l 0.27802,1.0416 0.27802,1.0416 0.14824,-0.0146 0.14824,-0.0146 0.1867,0.0313 0.18671,0.0313 -0.36497,1.03442 -0.36496,1.03441 0.15621,0.15621 0.15622,0.15621 0.55121,0.0313 0.55122,0.0313 -0.79375,0.16869 -0.79375,0.16868 -0.66146,1.37716 -0.66146,1.37716 -0.34634,0.0104 -0.34635,0.0103 0.1987,-0.33073 0.19869,-0.33073 -0.44475,0.36071 -0.44475,0.36071 0.15976,0.25848 0.15975,0.25849 -1.02256,1.07345 -1.02257,1.07344 0.46302,-0.16298 0.46303,-0.16298 v 0.0936 0.0936 l -0.69404,0.45475 -0.69403,0.45474 0.22357,-0.35817 0.22357,-0.35817 0.0502,-0.33073 0.0502,-0.33073 h -0.27357 -0.27356 l 0.32937,-0.39688 0.32938,-0.39687 h -0.32938 -0.32937 l 0.32937,-0.39688 0.32938,-0.39687 h -0.11857 -0.11857 l -0.64143,0.70412 -0.64143,0.70412 0.30813,-0.1766 0.30813,-0.1766 0.12121,0.33237 0.12122,0.33238 -0.56164,0.63798 -0.56164,0.63797 0.39688,-0.21469 0.39687,-0.21469 -0.92604,1.02041 -0.92604,1.0204 0.52917,-0.3726 0.52916,-0.37259 -0.32805,0.36821 -0.32805,0.3682 -0.38123,0.056 -0.38123,0.0559 0.13201,-0.34401 0.13201,-0.34401 -0.26434,-0.16337 -0.26434,-0.16337 -0.19146,0.30978 -0.19145,0.30978 0.30546,-0.18879 0.30547,-0.18879 v 0.1069 0.1069 l -0.59076,0.50403 -0.59075,0.50403 0.35857,-0.46302 0.35856,-0.46302 h -0.3431 -0.3431 l 0.64047,-0.72761 0.64048,-0.7276 -0.85894,0.7771 -0.85893,0.77711 -0.0362,0.41352 -0.0362,0.41352 -0.21461,-1.71979 -0.2146,-1.7198 0.01,-3.53507 0.01,-3.53508 -0.30756,-0.30138 -0.30755,-0.30138 0.0679,1.45521 0.0679,1.4552 -0.0881,2.11667 -0.0881,2.11667 -0.11023,-0.72761 -0.11022,-0.7276 h -0.23502 -0.23502 l -0.17329,-0.92373 -0.17329,-0.92372 -0.27416,0.16944 -0.27416,0.16944 0.18148,-0.72309 0.18148,-0.7231 -0.27518,0.17008 -0.27519,0.17008 v 1.16 1.16001 l -0.52499,0.36772 -0.52499,0.36771 -0.23783,1.43322 -0.23783,1.43323 -0.0309,-1.26356 -0.0309,-1.26357 -0.8599,0.43952 -0.85989,0.43951 -0.22192,0.37949 -0.22191,0.37949 -0.34963,-0.47814 -0.34962,-0.47814 -0.17773,1.05499 -0.17774,1.05499 -0.0897,0.26459 -0.0897,0.26458 -0.0584,-1.05833 -0.0584,-1.05834 -0.18949,1.05834 -0.18949,1.05833 -0.0376,-0.84428 -0.0375,-0.84428 -0.2463,-0.15222 -0.2463,-0.15223 -0.16886,0.27322 -0.16885,0.27321 -0.24631,-0.15222 -0.2463,-0.15222 -0.004,0.34634 -0.004,0.34635 -0.19438,-0.26459 -0.19439,-0.26458 -1.12448,-0.0213 -1.12448,-0.0213 v 0.17388 0.17389 l -0.74322,-0.10908 -0.74323,-0.10908 -0.2972,0.61792 -0.2972,0.61793 -0.0443,-0.66146 -0.0443,-0.66146 -0.21184,0.66146 -0.21183,0.66146 -0.0264,-0.43961 -0.0264,-0.43961 -0.46302,0.067 -0.46302,0.067 -0.16361,0.90181 -0.16361,0.90181 -0.0534,-0.92604 -0.0534,-0.92604 -0.22739,0.52917 -0.22739,0.52916 -0.0226,-0.39687 -0.0226,-0.39688 -0.19438,0.26459 -0.19439,0.26458 -0.50099,0.0865 -0.501,0.0865 -0.22256,-0.35105 -0.22256,-0.35104 -0.004,0.59531 -0.004,0.59531 -0.330725,-0.0662 -0.33073,-0.0661 -0.177279,-0.24596 -0.177279,-0.24597 -0.396642,-0.0582 -0.396642,-0.0582 -0.49012,0.45662 -0.49012,0.45661 -0.325021,-0.10834 -0.325022,-0.10834 v 0.55122 0.55121 h 0.529167 0.529167 l 0.02089,-0.33073 0.02089,-0.33072 0.133452,0.33072 0.133452,0.33073 h 6.327952 6.32795 l 0.008,-0.46302 0.008,-0.46302 0.3433,0.45183 0.3433,0.45183 10.10861,0.016 10.10861,0.016 -0.0754,-4.67758 -0.0754,-4.67759 -1.05833,-0.32654 -1.05834,-0.32653 0.48085,-0.0277 0.48085,-0.0277 -0.17846,-0.5623 -0.17847,-0.5623 0.29293,0.18104 0.29293,0.18104 0.0313,-0.61093 0.0313,-0.61093 0.20197,0.79375 0.20198,0.79375 0.0577,-0.52916 0.0577,-0.52917 0.21012,0.66146 0.21012,0.66146 0.0296,-36.44636 0.0296,-36.446351 H 81.71071 31.703 V 37.110424 51.92709 h 0.26459 0.26458 v 0.280198 0.280198 l -0.24898,-0.153879 -0.24898,-0.153879 -0.0194,5.297639 -0.0194,5.297643 0.86369,0.0305 0.86369,0.0305 0.42785,-0.0411 0.42785,-0.0411 1.94808,0.53984 1.94808,0.53984 h 0.5793 0.57931 l -0.23439,0.85989 -0.23438,0.8599 0.0783,1.60598 0.0784,1.60598 0.2315,0.37458 0.23151,0.37459 -0.0409,0.92985 -0.041,0.92985 0.18525,-0.60467 0.18525,-0.60467 0.48557,0.56788 0.48557,0.56788 0.0174,0.83054 0.0174,0.83054 -0.71505,1.50888 -0.71505,1.50888 v 3.46148 3.46148 l -0.9785,-0.1713 -0.97851,-0.17129 0.52917,0.41804 0.52917,0.41804 0.46302,0.008 0.46302,0.008 v 0.91774 0.91774 l -0.46302,-0.16293 -0.46302,-0.16293 0.33073,0.35644 0.33073,0.35644 v 0.31587 0.31587 l -2.38125,0.18847 -2.38125,0.18847 v 0.25975 0.25975 l 0.99218,-0.15365 0.99219,-0.15366 1.52136,-0.15054 1.52135,-0.15054 v 1.06224 1.06224 l -0.30878,0.67771 -0.30879,0.67771 -0.50376,-0.15989 -0.50377,-0.15989 -1.56829,0.18202 -1.56829,0.18202 0.11981,0.19384 0.1198,0.19385 1.48781,0.33296 1.48782,0.33296 -0.11318,0.11317 -0.11318,0.11318 -2.30984,-0.54859 -2.30985,-0.54858 -0.27083,0.0903 -0.27082,0.0903 1.50594,0.4747 1.50595,0.47471 -0.11378,0.11377 -0.11377,0.11378 -1.66374,-0.5315 -1.66373,-0.5315 h -0.0978 -0.0978 v 0.22631 0.22631 l 0.8599,0.29891 0.8599,0.29891 -0.8599,-0.12173 -0.8599,-0.12173 v 0.80518 0.80518 l 1.22038,-0.12716 1.22037,-0.12717 0.27969,-0.27969 0.27968,-0.27969 -0.64016,-0.25587 -0.64016,-0.25588 0.45487,-0.0168 0.45487,-0.0168 1.00034,0.51223 1.00033,0.51223 1.05833,0.18433 1.05834,0.18432 -0.16858,-0.18162 -0.16857,-0.18163 -1.28664,-0.50256 -1.28663,-0.50255 0.26458,-0.007 0.26459,-0.007 1.30512,0.33837 1.30511,0.33838 0.0985,0.29553 0.0985,0.29552 -0.60987,0.20143 -0.60988,0.20142 0.66146,0.2122 0.66145,0.21219 -0.99218,-0.13857 -0.99219,-0.13857 v 0.25452 0.25452 l 0.33073,0.13534 0.33073,0.13534 -1.32292,-0.11812 -1.32292,-0.11812 0.52917,0.26396 0.52917,0.26397 -1.05834,-0.0299 -1.05833,-0.0299 -0.39687,0.15469 -0.39688,0.15469 -0.66146,0.0791 -0.66145,0.0791 -0.0717,5.22719 -0.0717,5.22719 32.020177,-0.006 32.020182,-0.007 z m -7.112252,-0.10796 -0.336865,-0.20819 1.012579,-0.16731 1.01258,-0.16731 0.330729,-0.003 0.330729,-0.003 v 0.23982 0.23981 l -0.502117,-0.13131 -0.502118,-0.13131 -0.504326,0.26991 -0.504326,0.26991 z m -33.618133,-4.2528 -0.04594,-0.66146 -0.1044,-0.9922 -0.104399,-0.9922 0.613432,-0.66191 0.613432,-0.6619 0.824834,0.16497 0.824834,0.16496 -0.128261,0.20753 -0.128261,0.20753 -0.479042,-0.12527 -0.479042,-0.12527 -0.286891,0.93478 -0.286891,0.93477 0.447196,0.14194 0.447196,0.14193 1.530107,0.10812 1.530106,0.10812 0.177957,0.17929 0.177956,0.17929 -1.20141,-0.0732 -1.201411,-0.0732 -0.255813,0.1581 -0.255812,0.1581 -0.975929,0.18308 -0.975928,0.18309 -0.115844,0.43625 -0.115844,0.43624 z m 14.597027,0.0429 -0.336483,-0.21355 0.0719,-0.90688 0.0719,-0.90687 -0.447018,0.0341 -0.447018,0.0341 -0.136739,-0.35633 -0.136739,-0.35634 0.293908,-0.18164 0.293908,-0.18165 -0.17889,0.28945 -0.178891,0.28945 0.534885,-0.0403 0.534885,-0.0403 0.0041,-0.80359 0.0041,-0.80359 0.256481,-0.39688 0.25648,-0.39687 0.0041,2.57969 0.0041,2.57968 -0.06615,-0.004 -0.06615,-0.004 z m -6.145808,-1.52017 -0.661458,-0.36703 -0.715155,-0.004 -0.715155,-0.004 -0.607762,-0.24246 -0.607762,-0.24245 -1.251965,-0.31975 -1.251966,-0.31976 0.134763,-0.21805 0.134764,-0.21805 0.762104,0.0965 0.762104,0.0965 0.580585,0.31072 0.580584,0.31072 0.48503,-0.12684 0.485031,-0.12684 0.141075,0.36764 0.141075,0.36763 h 0.272887 0.272888 v -0.42518 -0.42518 l 0.418514,0.1606 0.418515,0.1606 h 0.23464 0.234639 l -0.144856,0.37749 -0.144857,0.37749 0.748473,0.40566 0.748473,0.40567 -0.396875,-0.0153 -0.396875,-0.0154 z m -14.283448,-1.66858 -0.0041,-0.36771 -0.463021,-0.36055 -0.463021,-0.36054 0.463021,0.16125 0.463021,0.16124 V 96.4226 96.14693 l -0.259112,-0.68152 -0.259112,-0.68151 0.749784,-0.66806 0.749785,-0.66806 -0.133723,-0.69953 -0.133722,-0.69952 0.631692,0.58851 0.631693,0.58851 -0.39333,0.24869 -0.39333,0.24869 0.661458,0.0121 0.661459,0.0121 -0.494765,0.28745 -0.494765,0.28745 0.362473,0.22962 0.362473,0.22962 -0.831588,0.004 -0.831588,0.004 -0.144073,0.37544 -0.144072,0.37545 0.477528,0.5506 0.477529,0.55059 H 50.866198 51.3138 L 51.152151,96.38 l -0.161648,-0.26155 0.410617,0.15756 0.410616,0.15757 v 0.20144 0.20144 l -1.096465,0.14707 -1.096465,0.14706 -0.2224,0.35079 -0.2224,0.3508 z m 20.781725,-4.43514 0.172509,-1.07881 -0.656132,-0.16468 -0.656133,-0.16468 -0.904837,-0.93157 -0.904838,-0.93158 -0.90507,-2.04833 -0.905071,-2.04834 -0.0095,-2.64583 -0.0095,-2.64584 0.853936,-1.8029 0.853937,-1.80291 1.259594,-1.47437 1.259594,-1.47437 -0.07698,-0.58744 -0.07698,-0.58744 0.807721,-0.33457 0.80772,-0.33457 v -1.00418 -1.00419 l 0.330729,-0.13345 0.330729,-0.13345 -0.447807,-0.0209 -0.447808,-0.0209 -0.08136,1.12219 -0.08136,1.1222 -0.428731,0.0812 -0.428731,0.0812 0.518255,-1.6003 0.518255,-1.60029 0.175059,0.004 0.17506,0.004 0.342527,0.21729 0.342528,0.21729 -0.178427,1.74155 -0.178427,1.74155 -0.303984,-0.11665 -0.303984,-0.11665 -0.521575,0.41731 -0.521575,0.41731 0.543423,-0.26072 0.543423,-0.26071 0.340007,0.21013 0.340008,0.21014 -0.148638,1.42505 -0.148638,1.42504 -0.155582,1.7198 -0.155582,1.71979 -0.128273,2.77812 -0.128273,2.77813 -0.188542,4.27961 -0.188542,4.27962 -0.208365,0.20837 -0.208365,0.20836 z m -21.16854,-0.0691 -0.154745,-0.25038 -1.517183,-0.18675 -1.517184,-0.18675 -0.396875,-0.0545 -0.396875,-0.0545 -0.163629,-3.0184 -0.163629,-3.01839 -0.03481,-1.78594 -0.03481,-1.78594 H 44.10469 43.805931 l 0.159154,1.52136 0.159155,1.52135 0.05181,3.43958 0.05181,3.43959 -0.441368,0.0855 -0.441369,0.0856 v -0.44868 -0.44867 l 0.383727,0.31847 0.383727,0.31846 -0.156593,-1.01367 -0.156593,-1.01367 -0.09484,-0.11025 -0.09484,-0.11024 -0.02637,0.63941 -0.02637,0.63941 -0.211836,-0.66146 -0.21184,-0.66146 -0.0264,1.09364 -0.0264,1.09363 -0.59532,0.10202 -0.59531,0.10202 -0.56513,-0.0856 -0.56513,-0.0856 -0.12906,-0.71316 -0.12907,-0.71316 0.0327,-7.95866 0.0327,-7.95867 0.87263,-0.99472 0.87262,-0.99472 -0.31795,-0.38311 -0.31795,-0.38311 0.1746,-3.89267 0.1746,-3.89267 0.39521,-0.29375 0.3952,-0.29375 v -0.30156 -0.30156 h 0.26459 0.26458 v -0.41249 -0.41249 l 0.264583,0.16352 0.264584,0.16352 0.02637,1.24115 0.02637,1.24116 0.198891,0.66146 0.19889,0.66146 -0.129581,-2.3041 -0.129581,-2.3041 0.698067,-0.31806 0.698066,-0.31806 V 61.14511 60.923 h 0.41427 0.414269 l 0.52746,0.28228 0.527461,0.28229 -0.544855,0.92346 -0.544855,0.92346 v 1.15386 1.15387 l -0.185859,0.48434 -0.18586,0.48434 -0.338037,-1.19031 -0.338037,-1.1903 0.150698,1.05833 0.150699,1.05833 0.270896,0.32783 0.270897,0.32783 -0.165574,0.88259 -0.165574,0.88258 -0.541647,0.58139 -0.541647,0.58139 -0.289691,-0.17904 -0.289691,-0.17904 0.188787,0.30547 0.188787,0.30546 h -0.25815 -0.258149 l -0.120869,-0.33073 -0.120869,-0.33073 0.03267,0.74091 0.03267,0.74091 0.464124,-0.12111 0.464125,-0.12112 0.156226,0.62246 0.156227,0.62245 -0.276926,1.29127 -0.276927,1.29126 0.150455,0.57534 0.150455,0.57534 h -0.295442 -0.295442 l 0.0186,0.72761 0.0186,0.7276 0.250832,-0.52917 0.250832,-0.52916 -0.120502,0.99218 -0.120502,0.99219 h 0.205479 0.20548 l 0.316959,0.69565 0.316959,0.69565 -0.138085,0.13809 -0.138086,0.13808 0.455396,0.33299 0.455396,0.333 -0.476744,0.52679 -0.476744,0.5268 0.281819,0.17417 0.281819,0.17418 0.03307,-0.14791 0.03307,-0.14791 0.03307,-0.24253 0.03307,-0.24253 0.187027,-0.18703 0.187027,-0.18703 0.405326,0.15554 0.405326,0.15554 -0.258664,0.68034 -0.258664,0.68033 0.401506,0.15408 0.401505,0.15407 -0.625066,0.82867 -0.625067,0.82868 -0.275145,0.80351 -0.275144,0.8035 0.133567,1.44546 0.133567,1.44545 0.647267,1.11656 0.647267,1.11657 -0.135339,0.21898 -0.135338,0.21898 0.243074,0.38425 0.243074,0.38424 0.0041,-0.31504 0.0041,-0.31504 0.727604,0.37956 0.727604,0.37955 0.330729,0.002 0.330729,0.002 v 0.24897 0.24897 l -0.246301,0.15222 -0.246301,0.15222 z m -5.67133,-2.8166 0.268621,-0.54481 -0.103751,-1.17498 -0.10374,-1.17498 -0.0878,1.32291 -0.0878,1.32292 -0.18145,-1.32292 -0.18145,-1.32291 -0.0109,2.24896 -0.0109,2.24895 0.11524,-0.52916 0.11524,-0.52917 z m -1.66379,-2.23331 -0.008,-1.45521 -0.21184,0.66145 -0.21183,0.66146 -0.008,1.32292 -0.008,1.32292 0.22739,-0.52917 0.22739,-0.52917 z m -0.55739,-6.94532 -0.10671,-0.85989 v 1.71979 1.71979 l 0.10671,-0.8599 0.10672,-0.85989 z m 1.77395,-4.96093 -0.0378,-2.91042 h 0.19598 0.19597 l 0.14233,-0.54429 0.142338,-0.54429 -0.372928,0.30951 -0.37293,0.3095 -0.12245,-0.36053 -0.12245,-0.36053 -0.10923,-0.66145 -0.10923,-0.66146 -0.036,0.80698 -0.036,0.80698 0.25159,0.25158 0.25158,0.25159 -0.24527,1.0581 -0.24527,1.0581 -0.006,1.38906 -0.006,1.38907 h 0.2279 0.22789 l -0.12645,0.66145 -0.12644,0.66146 h 0.23864 0.23865 z m 2.306207,-10.3587 -0.255076,-0.8861 -0.02386,0.83826 -0.02386,0.83826 0.190621,0.48466 0.190621,0.48466 0.08832,-0.43682 0.08832,-0.43682 z m 44.331168,8.52172 0.142332,-0.54427 h -0.295442 -0.295442 v 0.39687 0.39688 h -0.372105 -0.372105 l 0.13838,-0.52917 0.13838,-0.52917 h 0.781294 0.781293 l -0.08455,0.57459 -0.08455,0.57459 -0.30991,0.10198 -0.30991,0.10198 z m -3.211134,-0.3931 -1.042791,-0.3225 -0.08186,-0.24507 -0.08187,-0.24506 0.992363,0.047 0.992364,0.047 0.46302,0.0191 0.463021,0.0191 v 0.52916 0.52917 l -0.330729,-0.0277 -0.330729,-0.0277 z m 37.886021,-1.38474 0.33073,-0.13345 0.004,-0.44097 0.004,-0.44097 0.28067,0.39687 0.28068,0.39688 -0.10591,-0.38958 -0.1059,-0.38958 -0.50955,-0.13959 -0.50956,-0.13959 -0.0905,-1.65364 -0.0905,-1.65365 h 0.40601 0.40601 l 0.10591,0.99219 0.10591,0.99219 0.0133,-1.05834 0.0133,-1.05833 0.19363,-0.85989 0.19363,-0.8599 h 0.24092 0.24091 l 0.51976,1.21256 0.51977,1.21256 -0.005,0.83796 -0.005,0.83796 -0.65689,0.62308 -0.65689,0.62309 v 0.63368 0.63369 l -0.7276,-0.0209 -0.72761,-0.0209 z m 1.39404,-5.12589 -0.28449,-0.652 0.13614,0.66146 0.13614,0.66145 0.0498,1.05834 0.0498,1.05833 0.0985,-1.06779 0.0985,-1.0678 z m -28.916963,2.80784 -1.792192,-0.58839 -0.280494,-0.2805 -0.280494,-0.28049 1.633753,-1.02294 1.633753,-1.02294 0.769662,-0.61883 0.769662,-0.61883 v 2.53706 2.53706 l -0.330729,-0.0264 -0.330729,-0.0264 z m -7.600516,-1.02568 v -0.44979 h -0.264584 -0.264583 v 0.2802 0.2802 l -0.264583,-0.16352 -0.264584,-0.16352 v -0.38126 -0.38126 h 0.669762 0.669763 l 0.159119,0.41466 0.15912,0.41466 -0.299715,0.29971 -0.299715,0.29972 z m -7.408334,-1.19944 v -1.10243 h 0.276573 0.276572 l -0.17938,0.99219 -0.179381,0.99218 -0.09719,0.11025 -0.09719,0.11024 z m 3.598386,0.41892 -0.167499,-0.59531 -0.392527,0.51359 -0.392526,0.51359 v -0.57973 -0.57973 h 0.661458 0.661458 v 0.66145 0.66146 h -0.101433 -0.101433 z m 35.824527,-2.09461 v -0.30868 l -0.16708,0.16707 -0.16708,0.16708 -0.49437,-0.26458 -0.49438,-0.26458 -0.46302,0.24423 -0.46303,0.24424 -2.38125,-0.34821 -2.38125,-0.3482 -3.80481,-0.55389 -3.80481,-0.55389 -0.21556,-0.13322 -0.21557,-0.13323 -0.0262,-1.77929 -0.0262,-1.7793 0.002,-0.74374 0.002,-0.74374 0.48488,-0.44688 0.48488,-0.44689 -0.30933,0.20272 -0.30932,0.20272 -0.27068,-0.73188 -0.27067,-0.731892 -0.30676,-1.500908 -0.30677,-1.500908 -0.38248,-0.317426 -0.38248,-0.317427 v -0.311561 -0.311562 h 0.66946 0.66946 l -0.14635,0.381382 -0.14635,0.381382 0.45247,-0.368153 0.45247,-0.368153 -0.17991,0.479676 -0.17992,0.479675 0.74919,-0.53347 0.74919,-0.533471 0.37338,-0.460014 0.37337,-0.460015 -0.39687,0.223325 -0.39688,0.223325 -0.42475,0.36301 -0.42476,0.363009 -0.44656,-0.171361 -0.44656,-0.171362 0.4493,-0.496476 0.4493,-0.496476 h -0.21861 -0.21861 l -0.55,0.458885 -0.55,0.458885 0.73131,-0.807958 0.73131,-0.807958 -0.1432,-0.143198 -0.1432,-0.143197 0.8671,-0.657109 0.8671,-0.657108 0.59882,-0.317014 0.59882,-0.317015 0.40894,0.228856 0.40894,0.228855 -1.78547,1.15469 -1.78548,1.154689 0.33087,0.110289 0.33087,0.110288 -0.45406,0.501727 -0.45406,0.501727 0.23945,-0.01101 0.23944,-0.01101 1.05834,-0.964186 1.05833,-0.964187 -0.75056,0.467175 -0.75056,0.467174 -0.13935,-0.139352 -0.13936,-0.139352 1.87836,-1.215101 1.87835,-1.215102 0.28836,-0.538798 0.28836,-0.538798 0.50913,-0.509139 0.50914,-0.509139 v -0.264584 -0.264583 h 0.36448 0.36448 l 0.32938,-0.396875 0.32937,-0.396875 h -0.24406 -0.24406 l -0.34862,0.330729 -0.34862,0.330729 0.36185,-0.661458 0.36185,-0.661458 0.17831,-0.135468 0.17831,-0.135467 -0.66063,-0.311766 -0.66062,-0.311765 0.30096,0.362635 0.30096,0.362636 -0.51847,0.277475 -0.51847,0.277475 -0.34601,-0.416921 -0.34601,-0.41692 0.47531,-0.265999 0.47531,-0.265999 0.37564,-0.89902 0.37563,-0.899021 h 0.26723 0.26722 l 1.99656,1.374185 1.99655,1.374186 0.80019,1.010312 0.80018,1.010311 0.36893,1.385815 0.36893,1.385815 0.003,1.101205 0.003,1.101204 -0.37471,1.941504 -0.3747,1.941504 -0.2616,0.678674 -0.26161,0.678674 -0.17081,1.437993 -0.17081,1.43799 0.82135,0.92604 0.82135,0.92604 1.15036,1.7198 1.15037,1.71979 0.17615,0.59531 0.17615,0.59531 h -0.67929 -0.67929 z m -8.78563,-5.01393 0.35517,-0.50708 0.2282,0.14103 0.2282,0.14104 0.16619,-0.2689 0.16619,-0.2689 -0.34635,-0.0168 -0.34634,-0.0168 0.63211,-0.2529 0.63211,-0.2529 0.95539,0.1416 0.95539,0.14159 -0.57789,-0.30145 -0.57788,-0.30146 -1.20805,0.18116 -1.20806,0.18116 v 0.2153 0.2153 l -0.85989,0.18778 -0.8599,0.18778 0.50982,0.1959 0.50982,0.1959 -0.46469,0.17832 -0.46471,0.17832 -0.61157,-0.15349 -0.61156,-0.1535 -0.13539,0.21988 -0.13538,0.21988 1.35695,0.0396 1.35695,0.0396 z m 3.37142,-1.80537 -0.15377,-0.24881 0.56106,-0.52271 0.56107,-0.52271 -1.01822,0.36303 -1.01822,0.36303 -0.51594,0.0116 -0.51593,0.0116 0.25135,0.24218 0.25135,0.24218 0.66146,0.11867 0.66146,0.11866 0.21405,0.036 0.21406,0.036 z m 0.82386,-1.951805 0.2086,-0.208604 -0.45496,0.174583 -0.45495,0.174583 v -0.174099 -0.1741 l 0.92604,-0.386925 0.92604,-0.386925 V 56.14125 55.864603 l -0.26155,0.161648 -0.26156,0.161649 0.15616,-0.40694 0.15616,-0.406939 -0.72505,-0.275664 -0.72505,-0.275663 -0.13969,0.139694 -0.1397,0.139695 h 0.35925 0.35925 l -0.51359,0.38846 -0.51359,0.38846 0.23945,0.0084 0.23944,0.0084 -0.47889,0.529166 -0.47889,0.529167 h 0.2057 0.20569 l -0.30397,0.366266 -0.30397,0.366268 0.78251,-0.03936 0.78251,-0.03935 z m -9.19109,-2.401744 0.30626,-0.369025 -0.0754,-0.257448 -0.0754,-0.257447 0.66146,-0.592914 0.66146,-0.592913 -0.7183,0.425636 -0.71829,0.425636 h -0.15636 -0.15635 l 0.74236,-0.677425 0.74235,-0.677424 -0.53212,0.256043 -0.53213,0.256042 -0.50107,0.553674 -0.50107,0.553673 h 0.2057 0.2057 l -0.31976,0.385285 -0.31976,0.385285 0.17068,0.276174 0.17069,0.276173 h 0.21657 0.21657 z m 8.35026,-0.701005 -0.1337,-0.216322 0.28054,-0.17338 0.28053,-0.17338 0.64982,0.42578 0.64983,0.425781 0.0284,-0.07225 0.0283,-0.07225 0.0378,-0.742759 0.0378,-0.74276 0.66146,-0.517493 0.66145,-0.517492 -0.52916,0.180637 -0.52917,0.180637 0.52917,-0.614988 0.52916,-0.614989 -0.73586,0.473673 -0.73586,0.473673 -0.15987,-0.159871 -0.15987,-0.15987 0.82544,-0.471282 0.82545,-0.471282 0.1364,-0.35229 0.13641,-0.35229 -0.99216,0.588897 -0.99216,0.588897 0.92604,-0.842991 0.92604,-0.842991 -0.92604,0.429535 -0.92604,0.429536 0.79375,-0.673532 0.79375,-0.673532 -0.36312,-0.0095 -0.36313,-0.0095 0.32938,-0.396875 0.32937,-0.396875 h -0.28136 -0.28137 l -0.16352,0.264584 -0.16352,0.264583 h -0.28998 -0.28997 l 0.48919,-0.540553 0.4892,-0.540553 -0.51434,0.193216 -0.51433,0.193216 0.33748,-0.415514 0.33749,-0.415514 -0.40593,-0.155769 -0.40593,-0.155768 -0.60388,0.229598 -0.60389,0.229598 -0.35226,0.424438 -0.35225,0.424438 h 0.1891 0.18911 l 0.67272,-0.529166 0.67273,-0.529167 h 0.2686 0.2686 l -1.12264,0.813237 -1.12264,0.813237 0.15528,0.15528 0.15528,0.155279 0.46464,-0.399105 0.46464,-0.399106 0.39688,-0.212504 0.39687,-0.212504 -1.05833,0.954996 -1.05834,0.954996 0.33591,0.01101 0.3359,0.01101 -0.15491,0.727604 -0.15492,0.727604 -0.078,1.256771 -0.078,1.256771 h 0.26826 0.26826 l -0.58053,0.503491 -0.58053,0.503492 0.34161,0.12244 0.34161,0.122441 0.32781,-0.259036 0.32782,-0.259036 z m -1.89498,-2.00495 -0.0501,-0.232312 0.57929,-0.622006 0.57929,-0.622007 -1.39187,0.861737 -1.39187,0.861736 0.11244,0.112436 0.11244,0.112436 0.53443,-0.28602 0.53443,-0.28602 0.21583,0.0059 0.21584,0.0059 -0.66146,0.555765 -0.66146,0.555765 0.66146,-0.395483 0.66146,-0.395482 z m -3.12488,-0.487503 -0.79375,0.692008 1.43003,-0.706644 1.43002,-0.706643 -0.33729,-0.208457 -0.33729,-0.208457 0.49477,-0.313699 0.49476,-0.3137 -0.59568,0.125821 -0.59567,0.125821 0.12767,-0.206572 0.12766,-0.206572 1.49245,-0.70664 1.49245,-0.706641 -0.13679,-0.136787 -0.13678,-0.136787 -2.67359,1.34167 -2.67359,1.34167 v -0.108721 -0.108722 l 0.85989,-0.550692 0.8599,-0.550691 -0.26459,-0.0035 -0.26458,-0.0035 -0.88973,0.542435 -0.88974,0.542435 0.16271,0.162709 0.16271,0.162708 -0.4636,0.546079 -0.4636,0.546078 0.39688,-0.274454 0.39687,-0.274453 0.79375,-0.314164 0.79375,-0.314165 -0.52917,0.383218 -0.52916,0.383217 -0.52917,0.419673 -0.52916,0.419674 1.4552,-0.683313 1.45521,-0.683313 z m 1.887,0.10132 0.89113,-0.550745 v -0.09721 -0.09721 l -0.99219,0.407918 -0.99219,0.407918 -0.25135,0.24004 -0.25136,0.240039 h 0.35242 0.35242 z m 2.81247,-4.539951 0.73071,-0.506016 -0.15102,-0.244352 -0.15101,-0.244351 h -0.24897 -0.24897 l 0.0661,0.297656 0.0662,0.297656 -0.36756,0.133544 -0.36756,0.133544 0.18287,-0.295878 0.18286,-0.295877 -0.47676,0.178799 -0.47677,0.178799 0.39688,-0.48892 0.39687,-0.48892 -0.59792,0.372366 -0.59792,0.372365 0.27823,0.09275 0.27824,0.09275 -0.34177,0.414463 -0.34177,0.414463 0.66146,-0.346401 0.66145,-0.3464 -0.52916,0.613147 -0.52917,0.613146 0.39688,-0.221155 0.39687,-0.221155 z m -19.537746,16.475678 0.02161,-1.18273 1.253604,-0.008 1.253604,-0.008 0.132428,0.34447 0.132428,0.34447 -0.261553,-0.16164 -0.261552,-0.16165 -0.0041,0.34634 -0.0041,0.34635 -0.194386,-0.26459 -0.194386,-0.26458 -0.264584,-0.0357 -0.264583,-0.0357 -0.580282,-0.17583 -0.580283,-0.17582 -0.102787,1.13753 -0.102788,1.13754 z m 8.015096,-0.53844 0.13634,-0.52136 -0.42537,-0.16323 -0.42537,-0.16323 0.14638,-0.23686 0.14639,-0.23686 h 0.52917 0.52916 l -0.16352,0.26458 -0.16352,0.26459 h 0.2802 0.2802 v 0.38756 0.38757 l -0.5032,0.2693 -0.5032,0.2693 z m -64.557822,-0.16262 -0.14961,-0.14961 -0.87949,-0.0865 -0.87948,-0.0865 -0.63777,-0.24128 -0.63777,-0.24127 0.43933,-0.16859 0.43934,-0.16859 0.0186,0.32243 0.0186,0.32242 0.22739,-0.52917 0.22739,-0.52916 0.0186,0.46302 0.0186,0.46302 h 0.24937 0.24937 l 0.10128,-1.12448 0.10128,-1.12448 0.0462,1.12448 0.0462,1.12448 h 0.24701 0.24701 l 0.11022,-0.7276 0.11023,-0.72761 0.0396,0.8599 0.0396,0.85989 h 0.24861 0.24862 l 0.10378,-0.99218 0.10379,-0.99219 0.0445,1.10886 0.0445,1.10887 -0.22768,0.14071 -0.22768,0.14071 z m 27.623155,-0.89608 -0.03069,-0.92779 -0.261642,-0.91229 -0.261642,-0.9123 0.254866,-1.58257 0.254866,-1.582572 0.567111,-1.910319 0.567111,-1.910319 0.710134,-0.777497 0.710133,-0.777496 -0.0902,-0.270614 -0.0902,-0.270613 0.910243,-0.431939 0.910243,-0.431938 h 0.423035 0.423034 v 0.285891 0.285891 l -0.939649,1.415641 -0.93965,1.415642 -0.505658,1.438687 -0.505658,1.438688 -0.128889,0.762384 -0.12889,0.762384 -0.311225,2.381249 -0.311224,2.38125 -0.190238,0.51519 -0.190238,0.51519 -0.182412,-1.37508 -0.182411,-1.37509 h -0.202342 -0.202342 l 0.104507,0.89518 0.104507,0.89518 -0.126944,0.49388 -0.126943,0.49388 z m -4.649101,0.0148 -0.46709,-0.51613 -0.678214,0.44438 -0.678215,0.44438 -0.112057,-0.33617 -0.112058,-0.33617 -0.359555,0.2984 -0.359555,0.29841 -0.34232,-0.21486 -0.342319,-0.21485 -1.190625,-0.0312 -1.190625,-0.0312 -1.322916,-0.0583 -1.322917,-0.0584 -1.043777,-0.14722 -1.043777,-0.14722 0.499034,-0.3649 0.499034,-0.3649 -0.249007,0.009 -0.249007,0.009 -0.661458,0.37812 -0.661459,0.37812 -0.167143,0.009 -0.167143,0.009 -0.187338,-2.24895 -0.187337,-2.248963 H 49.680479 49.44876 l -0.177696,1.339543 -0.177697,1.33954 -0.242522,-0.24252 -0.242522,-0.24252 0.389286,-1.56004 0.389285,-1.560044 0.173749,-0.661459 0.17375,-0.661458 -0.408037,0.502 -0.408037,0.501999 0.139431,0.225605 0.139431,0.225604 h -0.263987 -0.263986 l -0.169173,1.128128 -0.169173,1.128125 -0.773081,0.0316 -0.77308,0.0316 V 58.2037 57.664433 l 0.484492,0.438457 0.484492,0.43846 0.176967,-0.17696 0.176966,-0.17697 v -0.24879 -0.2488 l -0.352778,0.13538 -0.352778,0.13537 v -0.346425 -0.346424 l 0.396182,0.152029 0.396181,0.152029 -0.176833,-0.286121 -0.176833,-0.286122 0.449662,-0.783491 0.449662,-0.783491 -0.5804,-2.168522 -0.580399,-2.168522 0.288678,-0.5394 0.288678,-0.5394 0.269935,0.269935 0.269935,0.269935 -0.180437,0.291953 -0.180436,0.291952 -0.246301,-0.152222 -0.246302,-0.152222 v 0.154455 0.154455 l 0.688355,0.261712 0.688355,0.261712 -0.135033,0.35189 -0.135033,0.35189 0.571157,-0.108593 0.571158,-0.108592 0.47411,0.804808 0.47411,0.804808 -0.07723,0.116794 -0.07724,0.116793 0.240857,0.220486 0.240857,0.220486 -0.215592,-0.371609 -0.215591,-0.37161 0.305463,0.188787 0.305464,0.188787 v 0.422267 0.422268 l 0.529167,-0.47889 0.529166,-0.478889 v -0.239191 -0.239191 l -0.330729,0.193387 -0.330729,0.193387 0.428496,-0.508501 0.428496,-0.508502 -0.123497,-0.341772 -0.123496,-0.341772 -0.437291,0.337213 -0.437291,0.337212 0.41389,-0.524607 0.41389,-0.524607 -0.01702,-0.529167 -0.01702,-0.529166 -0.463021,0.07774 -0.463021,0.07774 V 50.735 50.577971 l 0.423594,-0.81914 0.423593,-0.81914 0.219404,0.355002 0.219403,0.355002 -0.222044,0.414892 -0.222043,0.414892 0.332812,0.455148 0.332812,0.455147 0.235602,-0.194325 0.235603,-0.194325 -0.501209,0.595313 -0.501208,0.595312 0.371736,0.03133 0.371737,0.03133 0.218104,-0.03789 0.218104,-0.03789 -0.170241,0.275455 -0.17024,0.275454 -0.229296,-0.141712 -0.229296,-0.141713 0.247578,0.863254 0.247578,0.863255 v 0.08351 0.08351 l 0.261553,-0.161648 0.261553,-0.161648 -0.174224,0.45402 -0.174224,0.45402 0.375692,-0.226484 0.375692,-0.226484 -0.363126,0.447664 -0.363126,0.447664 h 0.281365 0.281366 l 0.172153,-0.27855 0.172153,-0.278549 0.306482,0.112581 0.306483,0.112582 0.576625,-0.524055 0.576625,-0.524055 -0.290351,-0.637251 -0.290351,-0.637251 -0.683149,0.597159 -0.683149,0.597158 0.911798,-0.989676 0.911799,-0.989676 H 55.80003 55.451147 l 0.329377,-0.396875 0.329377,-0.396875 h 0.211164 0.211164 l 0.174844,0.796059 0.174844,0.796058 0.240023,-0.148342 0.240023,-0.148342 -0.170334,0.476762 -0.170333,0.476763 -0.193596,0.264583 -0.193596,0.264584 -0.185228,1.123092 -0.185229,1.123093 -0.241561,0.149293 -0.241562,0.149293 v 0.409568 0.409567 l 0.396875,-0.152295 0.396875,-0.152295 v 0.256279 0.25628 h -0.292535 -0.292535 l -0.76157,0.640817 -0.76157,0.64082 0.326501,0.13204 0.326501,0.13205 -0.422014,0.0209 -0.422013,0.0209 -0.404432,-0.46302 -0.404431,-0.46303 -0.319357,-0.99462 -0.319358,-0.994624 -0.249815,0.154395 -0.249816,0.154394 0.03789,-0.218104 0.03789,-0.218104 -0.03133,-0.346344 -0.03133,-0.346344 -0.264583,0.163522 -0.264584,0.163521 v -0.11551 -0.115509 l 0.447664,-0.363126 0.447664,-0.363126 -0.221896,0.396875 -0.221896,0.396875 0.352184,-0.326599 0.352185,-0.326598 0.03986,-0.540978 0.03986,-0.540979 -0.747339,0.715997 -0.747339,0.715996 -0.16984,-0.16984 -0.16984,-0.16984 -0.528974,0.283099 -0.528975,0.283099 0.131519,2.514392 0.131519,2.51439 0.329241,0.20348 0.329241,0.20348 0.522271,-0.13658 0.52227,-0.13657 0.138206,-0.36016 0.138207,-0.36016 h 1.691484 1.691484 v -0.20543 -0.20543 l -1.027368,0.098 -1.027368,0.098 -0.20666,-0.33439 -0.206661,-0.33438 0.494031,0.18958 0.49403,0.18957 1.401456,-0.1751 1.401457,-0.1751 v -0.36639 -0.36638 h -0.677073 -0.677073 l 0.157273,-0.25448 0.157273,-0.25447 0.626862,0.23833 0.626861,0.23833 0.397128,-0.819975 0.397128,-0.819979 -0.293643,-0.644476 -0.293643,-0.644476 0.456477,-0.255457 0.456476,-0.255457 -0.154626,-0.250191 -0.154626,-0.250191 0.396938,-0.152319 0.396938,-0.15232 -0.151509,-0.394826 -0.151509,-0.394827 0.415449,0.08599 0.415448,0.08599 -0.04879,-0.264583 -0.0488,-0.264584 -0.340011,0.0383 -0.340012,0.03829 0.306263,-0.369024 0.306262,-0.369024 h -0.312595 -0.312595 l 0.163522,-0.264583 0.163521,-0.264584 h -0.227281 -0.227282 l -0.256406,0.198438 -0.256407,0.198437 0.864948,-0.753267 0.864948,-0.753267 V 50.272987 49.99306 l -0.595312,0.502135 -0.595313,0.502135 0.595313,-0.676618 0.595312,-0.676618 V 49.421702 49.19931 l -0.595312,0.504028 -0.595313,0.504028 0.504028,-0.595312 0.504028,-0.595313 h 0.08591 0.08591 l 0.562886,1.103349 0.562887,1.103349 -0.119618,2.666963 -0.119618,2.666964 -0.173786,0.396875 -0.173786,0.396875 0.72855,0.793754 0.728551,0.79375 0.737023,1.13374 0.737023,1.13375 -0.157794,0.25532 -0.157794,0.25531 h 0.280199 0.280198 v 0.57018 0.57017 l -0.540553,-0.48919 -0.540553,-0.4892 0.171986,0.44819 0.171985,0.44818 h -0.119592 -0.119592 z m -12.817717,-1.00523 0.02637,-0.46302 0.211836,-0.66146 0.211836,-0.66146 0.02637,1.12448 0.02637,1.12448 H 49.430523 49.16594 Z m 39.405211,-9.041051 -0.320114,-0.772822 0.08958,-0.462024 0.08958,-0.462023 0.330729,-0.11012 0.330729,-0.110119 v 1.344965 1.344965 h -0.100192 -0.100193 z m 15.720754,-0.307011 -0.17681,-0.286084 0.73986,-0.77225 0.73986,-0.77225 h -0.2228 -0.2228 l 0.48455,-0.535419 0.48455,-0.53542 0.18833,0.304733 0.18834,0.304734 0.32814,-0.202802 0.32814,-0.202803 -0.45727,-0.255903 -0.45727,-0.255902 1.00547,-1.029698 1.00547,-1.029697 0.2817,0.859193 0.28169,0.859193 -1.59147,1.027774 -1.59148,1.027774 -0.59531,0.539701 -0.59531,0.5397 v 0.264584 0.264583 l 0.7276,-0.641433 0.7276,-0.641433 -0.64143,0.727604 -0.64143,0.727604 h -0.0706 -0.0706 z m -49.916367,-1.433709 0.538491,-1.058333 1.003855,-0.926041 1.003854,-0.926042 -0.316915,0.421219 -0.316916,0.421219 0.196142,0.196142 0.196142,0.196142 -0.360676,-0.08819 -0.360677,-0.0882 -0.103142,0.611421 -0.103143,0.611421 0.306262,-0.189281 0.306262,-0.18928 -0.196728,0.318311 -0.196727,0.318312 -0.37332,-0.309828 -0.373319,-0.309828 v 0.383151 0.383152 l -0.693968,0.641433 -0.693967,0.641433 z m 3.405234,-1.234722 0.718213,-0.749652 h -0.233461 -0.233461 l -0.808228,0.727604 -0.808227,0.727604 0.731308,-0.812094 0.731309,-0.812095 -0.202142,-0.222512 -0.202142,-0.222513 0.37161,0.215591 0.371609,0.215592 -0.199935,-0.323501 -0.199935,-0.323502 -0.31505,0.120896 -0.31505,0.120897 -0.496375,-0.362959 -0.496375,-0.362958 -0.352437,0.292497 -0.352437,0.292496 V 47.547729 47.33692 l -0.661458,0.621408 -0.661459,0.621408 v -0.301395 -0.301395 l 0.526043,-0.28153 0.526043,-0.281529 0.164098,-0.653821 0.164099,-0.653821 h 0.229505 0.229506 l 0.738708,0.46302 0.738708,0.463021 0.834516,0.629787 0.834516,0.629788 -0.773789,0.6511 -0.773789,0.651101 0.121363,0.196369 0.121363,0.196369 h -0.39249 -0.39249 z m 31.952037,-3.417915 -0.447298,-0.494259 -0.205996,0.127313 -0.205997,0.127312 0.08882,-0.464281 0.08882,-0.464281 0.02024,-0.180863 0.02024,-0.180863 0.727604,-0.110223 0.727604,-0.110223 -0.746539,-0.03964 -0.746539,-0.03964 0.05828,-0.595313 0.05827,-0.595312 -0.200703,-0.465013 -0.200703,-0.465013 0.171094,-0.912012 0.171094,-0.912011 0.385625,0.147978 0.385625,0.147978 -0.128944,0.208635 -0.128944,0.208635 0.65963,0.165557 0.65963,0.165556 v 0.259543 0.259542 l -0.727604,0.03603 -0.727604,0.03603 0.638204,0.120283 0.638203,0.120283 -0.37362,0.236509 -0.373621,0.236509 0.463021,0.0041 0.463021,0.0041 v 0.264583 0.264584 l -0.330729,0.0041 -0.330729,0.0041 0.369133,0.233735 0.369132,0.233736 -0.501424,0.128396 -0.501425,0.128396 0.564469,0.03069 0.564468,0.03069 0.129111,0.595312 0.129112,0.595313 0.171599,0.40302 0.171599,0.40302 -0.78397,0.295916 -0.783971,0.295915 z m -37.163743,-1.8958 -1.180542,-0.595312 0.08862,-0.529167 0.08862,-0.529167 0.80422,-0.742777 0.804221,-0.742777 0.581999,0.54676 0.581999,0.546759 0.134583,-0.134582 0.134582,-0.134583 -0.04053,0.550193 -0.04053,0.550192 -0.378261,0.265704 -0.378261,0.265705 0.859896,-0.147953 0.859896,-0.147953 v 0.333214 0.333214 l -0.768427,0.453921 -0.768428,0.453922 h -0.101551 -0.101552 z m 20.668471,0.116677 -0.02089,-0.346344 -0.330729,0.190326 -0.330729,0.190326 0.189128,-0.209499 0.189129,-0.2095 -0.264584,-0.494378 -0.264583,-0.494379 h 0.227395 0.227395 l -0.05125,-2.645833 -0.05125,-2.645833 h 0.494619 0.49462 l 0.198437,0.003 0.198438,0.003 0.0023,0.404998 0.0023,0.404998 0.381929,0.236045 0.381929,0.236045 0.21107,-0.130448 0.211071,-0.130449 v 0.443349 0.443349 l -0.492599,-0.128818 -0.492598,-0.128817 -0.164255,2.130018 -0.164256,2.130019 -0.229515,0.150753 -0.229515,0.150752 -0.151076,0.396875 -0.151077,0.396875 z m 34.110358,-0.412247 v -0.09713 l 1.05834,-0.700372 1.05833,-0.700371 v 0.171851 0.171852 l -0.67509,0.625652 -0.67509,0.625653 h -0.38324 -0.38325 z m -62.759576,-0.312774 -0.150212,-0.251552 -0.12356,-1.058333 -0.12356,-1.058333 0.113466,0.478465 0.113465,0.478466 0.376449,-0.312425 0.376449,-0.312425 0.0036,0.495418 0.0036,0.495417 0.15163,0.661459 0.151631,0.661458 -0.255507,-0.360667 -0.255507,-0.360668 -0.115879,0.347636 -0.115878,0.347635 z m 42.732145,-0.61721 -0.289599,-0.463721 -0.01767,-1.479174 -0.01767,-1.479174 0.424025,-0.162714 0.424025,-0.162714 -0.334403,0.402932 -0.334404,0.402932 h 0.312595 0.312595 l -0.166219,0.268948 -0.166219,0.268948 -0.122996,0.678281 -0.122996,0.678281 0.314481,-0.19436 0.31448,-0.194359 -0.185408,0.299996 -0.185407,0.299995 0.277534,0.518578 0.277535,0.518577 -0.212343,0.131235 -0.212342,0.131235 z M 49.695118,41.989673 v -0.412417 l 1.101376,-1.175083 1.101377,-1.175083 h 0.501738 0.501739 l -0.157066,0.254137 -0.157065,0.254137 0.9352,-0.07365 0.935201,-0.07365 v 0.295764 0.295764 l -0.3175,0.3175 -0.3175,0.3175 h -0.227282 -0.227281 l 0.163521,-0.264583 0.163522,-0.264584 -0.610928,0.0084 -0.610927,0.0084 -0.458909,0.348475 -0.458908,0.348476 0.154046,0.154046 0.154047,0.154047 0.437153,-0.156218 0.437154,-0.156217 -0.132292,0.146014 -0.132291,0.146015 -1.000235,0.5576 -1.000236,0.557599 h -0.388827 -0.388827 z m -5.027084,-1.871819 v -0.520347 l -0.282068,-0.282069 -0.282069,-0.282069 0.534445,-0.13976 0.534445,-0.139761 -0.158089,0.831934 -0.15809,0.831933 -0.09429,0.110243 -0.09429,0.110243 z m 66.847636,-0.541743 -0.14369,-0.143686 -0.74208,-0.06067 -0.74208,-0.06067 -1.10652,-0.567383 -1.10653,-0.567382 -0.16586,-0.268365 -0.16586,-0.268364 h -0.4499 -0.44991 l -0.31391,-0.502653 -0.31391,-0.502653 0.83044,-0.687972 0.83043,-0.687972 h -0.49319 -0.49319 l -0.41771,0.36558 -0.41771,0.36558 -0.55796,0.169561 -0.55795,0.16956 -0.3203,-0.385936 -0.3203,-0.385936 0.29225,-0.546079 0.29225,-0.54608 h 0.35817 0.35817 l -0.0367,-0.444899 -0.0367,-0.444899 0.66146,-0.334337 0.66146,-0.334337 0.52917,-0.1901 0.52916,-0.1901 0.19844,-0.05592 0.19844,-0.05592 0.44097,-0.03307 0.44097,-0.03307 -0.17409,-0.174094 -0.1741,-0.174093 0.29469,-0.355073 0.29468,-0.355074 h 0.41505 0.41505 l -0.51359,0.388461 -0.51359,0.38846 0.69829,0.0084 0.69829,0.0084 0.57048,0.463021 0.57048,0.463021 0.14208,1.29685 0.14208,1.29685 0.26758,0.687525 0.26757,0.687525 0.0908,1.23487 0.0908,1.23487 -0.35431,0.135962 -0.35431,0.135963 z m -35.236712,-0.359999 -0.127224,-0.205852 0.158696,-0.413555 0.158696,-0.413555 0.845993,-0.158709 0.845993,-0.158709 1.04669,0.107035 1.04669,0.107035 -1.543402,0.04448 -1.543403,0.04448 0.108991,0.33073 0.108992,0.330729 1.392955,0.08083 1.392955,0.08083 -0.172596,-0.279267 -0.172597,-0.279266 h 0.280199 0.280198 v 0.255274 0.255275 l -0.472136,0.252673 -0.472136,0.25268 -1.518166,-0.01364 -1.518165,-0.01364 z m 5.900491,-0.136634 -0.147612,-0.147612 0.135131,-0.516741 0.13513,-0.51674 0.563697,-0.125098 0.563697,-0.125098 1.297833,-0.07045 1.297833,-0.07044 0.0955,0.277395 0.0955,0.277395 -1.790208,-0.06533 -1.790208,-0.06533 0.79375,0.219651 0.79375,0.219652 0.926042,0.03972 0.926042,0.03972 -0.513591,0.388461 -0.513591,0.38846 h -1.360541 -1.360541 z m 20.042981,-0.369387 -0.156,-0.252415 0.16907,-0.673626 0.16907,-0.673626 h 0.18277 0.18277 l -0.10811,0.926041 -0.10811,0.926042 h -0.0877 -0.0877 z M 87.001367,38.422624 v -0.222637 l 0.327182,-0.20221 0.327182,-0.20221 1.128027,-0.06554 1.128026,-0.06554 v 0.234303 0.234302 l -0.538363,0.17087 -0.538363,0.17087 -0.916845,0.08521 -0.916846,0.08521 z m 5.332057,62.482856 -0.30427,-1.01556 -0.66181,0.12651 -0.66181,0.12651 v 1.55666 1.55666 h 0.515963 0.515963 l 0.09547,-1.52136 0.09547,-1.52135 0.07704,1.71979 0.07704,1.71979 0.277611,-0.86604 0.27761,-0.86605 z m 4.457526,0.26242 v -1.5592 l -0.3834,-0.14712 -0.3834,-0.14713 0.13919,0.36273 0.139191,0.36273 -0.338378,0.61598 -0.338379,0.61599 -0.07004,0.39688 -0.07004,0.39687 0.438613,0.33073 0.438612,0.33073 h 0.214014 0.214013 z m 2.348177,1.29055 0.429948,-0.004 -0.394677,-0.24952 -0.394677,-0.24952 -0.663656,0.15544 -0.663656,0.15544 -0.264584,0.26541 -0.264583,0.26542 0.892969,-0.16728 0.892969,-0.16728 z m 3.869533,-0.69716 0.79375,-0.16622 0.73073,-0.0288 0.73074,-0.0288 -0.10147,-0.26512 -0.10147,-0.26512 1.55355,0.009 1.55354,0.009 v -0.19893 -0.19894 l -1.38906,0.0576 -1.38906,0.0576 0.0848,-0.52916 0.0848,-0.52917 0.14915,-0.76519 0.14914,-0.76519 -0.30013,0.1855 -0.30013,0.18549 0.029,-3.91822 0.029,-3.91822 0.24741,1.19062 0.2474,1.19063 -0.11892,0.99213 -0.11891,0.99214 0.24371,0.15063 0.24372,0.15062 -0.15492,0.25067 -0.15492,0.25066 -0.12063,0.66521 -0.12062,0.66522 0.87784,-1.00031 0.87784,-1.00031 0.75488,-0.92604 0.75488,-0.92604 0.29215,-0.006 0.29216,-0.006 -0.0885,-0.52323 -0.0885,-0.52323 -0.326,-0.66146 -0.32599,-0.66145 -0.30355,0.063 -0.30354,0.063 0.14287,-0.37233 0.14288,-0.37233 -0.44741,-0.68283 -0.44741,-0.68283 h 0.15734 0.15735 l -0.47844,-0.8599 -0.47844,-0.8599 -0.72916,-0.0859 -0.72916,-0.0859 -0.44067,0.19269 -0.44067,0.19269 -0.46302,-0.0573 -0.46302,-0.0573 -0.0457,3.65465 -0.0457,3.65465 -0.17517,-1.71979 -0.17517,-1.71979 -0.006,3.83645 -0.006,3.83646 0.18325,1.23179 0.18324,1.23179 -0.35341,-0.13562 -0.35341,-0.13561 -0.0316,-1.22847 -0.0316,-1.22846 -0.0563,-3.57188 -0.0563,-3.57187 -0.20031,-0.92604 -0.20031,-0.92604 -0.43583,-1.01863 -0.43583,-1.01863 -1.0619,0.1758 -1.061891,0.1758 -1.322917,0.14424 -1.322917,0.14425 -0.371375,0.30169 -0.371376,0.3017 -0.454806,-0.077 -0.454806,-0.0771 -0.144241,0.55157 -0.14424,0.55158 0.211393,0.73709 0.211393,0.73708 -0.0792,0.72146 -0.0792,0.72145 0.309059,-0.11404 0.309058,-0.11404 -0.04725,-0.24096 -0.04725,-0.24096 h 0.499965 0.499966 l -0.42758,0.47247 -0.42758,0.47247 h 0.289976 0.289976 l 0.163521,-0.26459 0.163522,-0.26458 h 0.541859 0.541859 l -0.152295,0.39688 -0.152296,0.39687 h 0.141382 0.141382 l 0.577919,-0.3079 0.577918,-0.3079 -0.312005,0.37859 -0.312005,0.3786 1.322014,-0.0434 1.322018,-0.0434 -0.13664,0.35608 -0.13664,0.35607 0.44955,-0.16835 0.44954,-0.16836 -0.36312,0.44641 -0.36313,0.44642 h 0.28137 0.28136 l 0.17408,-0.28168 0.17409,-0.28167 0.0536,-2.0912 0.0536,-2.0912 0.16148,-0.16148 0.16147,-0.16148 0.16167,1.67446 0.16167,1.67446 -0.008,0.52916 -0.008,0.52917 2.1e-4,3.53409 2.2e-4,3.53409 -0.14866,0.24054 -0.14866,0.24053 -0.22802,-0.14092 -0.22802,-0.14092 -0.16619,0.2689 -0.16619,0.2689 h -0.49793 -0.49794 l -0.187864,0.30397 -0.187864,0.30397 1.296728,-0.17459 1.29673,-0.1746 z m -26.171152,-0.0738 0.368014,0.30543 0.157319,-0.40997 0.15732,-0.40997 0.348215,0.13362 0.348216,0.13363 0.182609,-0.29547 0.18261,-0.29547 0.422858,0.34358 0.422858,0.34357 -0.18483,-0.49248 -0.184831,-0.49248 0.360968,0.13852 0.360968,0.13852 0.489829,-0.57208 0.489829,-0.57208 -0.01198,-0.13229 -0.01198,-0.13229 0.121082,-0.46302 0.121083,-0.46303 h 0.208954 0.208955 l -0.13838,-0.52916 -0.13838,-0.52917 0.493879,-0.004 0.49388,-0.004 -0.364627,-0.23095 -0.364626,-0.23095 0.181804,-0.29416 0.181803,-0.29417 h -0.333114 -0.333115 l 0.3175,-0.3175 0.3175,-0.3175 V 95.5212 95.30022 l -0.529167,0.2832 -0.529167,0.2832 v 0.96965 0.96965 l -0.3175,-0.3175 -0.3175,-0.3175 H 79.861002 79.70564 l -0.03986,0.52917 -0.03986,0.52917 h 0.24814 0.24814 v 0.60304 0.60305 l -0.561586,0.38914 -0.561586,0.38914 -0.313756,0.29893 -0.313756,0.29893 -1.337562,0.18396 -1.337562,0.18396 -0.164733,-0.61518 -0.164734,-0.61518 -0.0036,-2.10344 -0.0036,-2.10344 -0.226174,0.25136 -0.226173,0.25135 0.125275,2.5759 0.125276,2.5759 0.20321,-0.12559 0.203211,-0.12559 0.351037,0.42297 0.351038,0.42298 0.101546,-0.30464 0.101546,-0.30464 z m 12.280526,-0.54792 -0.926042,-0.50699 -0.771701,-0.0111 -0.771702,-0.0111 0.143926,0.14393 0.143926,0.14392 0.742354,0.13462 0.742354,0.13461 0.414588,0.24258 0.414588,0.24258 0.396875,-0.003 0.396875,-0.003 z m 21.034376,-0.52917 0.52917,-0.22739 -0.99219,-0.0186 -0.99219,-0.0186 v 0.26458 0.26459 l 0.46302,-0.0186 0.46302,-0.0186 z m -36.982561,-2.44739 -0.106712,-0.8599 v 1.71979 1.71979 l 0.106712,-0.85989 0.106712,-0.8599 z m 20.727773,1.8863 0.300289,-0.5611 -0.320562,0.19812 -0.320561,0.19812 -0.205421,-0.33238 -0.205421,-0.33238 -0.288746,0.17846 -0.288746,0.17845 0.322809,0.5169 0.32281,0.5169 h 0.19163 0.191629 z m 20.257778,-1.62172 -0.15695,-0.8599 -0.14716,-1.84011 -0.14717,-1.84012 -0.12221,-0.12221 -0.12221,-0.12221 v 2.42535 2.42535 h 0.26458 0.26459 v 0.39687 0.39688 h 0.16173 0.16174 z m 1.24402,-3.10885 -0.15549,-0.92605 -0.22261,-0.39687 -0.22261,-0.39688 -0.0429,0.39688 -0.0429,0.39687 -0.19493,-0.92604 -0.19492,-0.92604 -0.0348,1.93384 -0.0348,1.93385 0.26458,-0.16352 0.26459,-0.16352 0.004,0.87551 0.004,0.87551 0.18624,0.66145 0.18625,0.66146 0.19628,-1.4552 0.19629,-1.45521 z M 79.223812,97.8163 79.393839,97.13886 79.25403,96.0965 79.114221,95.05415 h 0.371698 0.371698 v -0.0679 -0.0679 l 0.244162,-0.85134 0.244162,-0.85134 -0.310308,0.0593 -0.310307,0.0593 0.09267,-0.52804 0.09267,-0.52803 -0.549456,0.49725 -0.549456,0.49725 0.149498,0.24189 0.149498,0.24189 -0.154645,0.403 -0.154645,0.403 -0.728696,-0.5049 -0.728696,-0.50491 -0.463021,-0.16704 -0.463021,-0.16705 v 0.2719 0.27189 l -0.245667,-0.15183 -0.245667,-0.15183 -0.115177,0.59924 -0.115176,0.59924 -0.03603,-3.22554 -0.03603,-3.22553 -0.285453,-0.17642 -0.285453,-0.17642 0.171572,3.13737 0.171571,3.13737 0.2834,0.58133 0.283399,0.58133 0.690378,0.0801 0.690378,0.0801 -0.07976,1.26026 -0.07976,1.26026 0.60893,0.24432 0.60893,0.24433 0.325688,0.0168 0.325689,0.0168 z m 2.221305,-3.15047 v -0.17965 l -0.438024,0.0856 -0.438024,0.0856 -0.06558,0.39688 -0.06558,0.39687 -0.205473,0.52917 -0.205473,0.52917 0.709076,-0.83195 0.709075,-0.83194 z m -4.260154,-2.62207 0.302557,-0.36456 -0.517656,-0.13537 -0.517655,-0.13537 -0.131149,0.34177 -0.131149,0.34177 0.158159,0.15816 0.158158,0.15816 h 0.18809 0.188089 z M 93.527756,89.6255 V 88.70417 H 93.190593 92.85343 l -0.214052,0.33073 -0.214053,0.33073 -0.005,1.11315 -0.005,1.11315 0.556208,-0.52253 0.556209,-0.52253 z m 25.223614,-1.84739 v -3.83644 h -0.26459 -0.26458 l -0.0209,0.8599 -0.0209,0.85989 -0.13345,-0.33072 -0.13345,-0.33073 h -0.24254 -0.24253 v 0.55747 0.55747 l 0.39687,-0.15229 0.39688,-0.1523 0.002,1.51305 0.002,1.51305 0.16684,1.38907 0.16685,1.38906 h 0.0954 0.0954 z m -6.67439,2.3151 -0.31305,-0.7276 -0.34274,-0.52189 -0.34274,-0.52189 -0.0403,0.25731 -0.0403,0.2573 -0.0286,0.39688 -0.0286,0.39687 0.51346,0.59532 0.51345,0.59531 h 0.2112 0.2112 z m -32.778622,-0.10385 1.749884,-0.2265 1.984375,-0.23874 1.984375,-0.23874 4.497917,-0.69983 4.497916,-0.69983 2.513542,-0.23957 2.513542,-0.23956 1.955661,-0.28161 1.95565,-0.28162 0.55789,-0.11816 0.55788,-0.11816 1.32292,-0.17082 1.32291,-0.17082 1.68229,-0.18638 1.68228,-0.18639 0.55071,0.74488 0.55071,0.74487 0.18564,-0.30038 0.18565,-0.30038 0.1861,0.84731 0.1861,0.84731 0.47236,-0.42747 0.47235,-0.42748 0.16909,0.67372 0.1691,0.67373 h 0.23086 0.23086 l 0.16601,-0.66146 0.16602,-0.66146 h 0.23123 0.23124 l 0.15229,0.39687 0.1523,0.39688 h 0.40518 0.40518 v -0.42165 -0.42164 l -0.51685,-0.13516 -0.51684,-0.13516 -0.43664,-0.6664 -0.43665,-0.66639 0.29203,0.18048 0.29203,0.18048 -0.004,-0.21405 -0.004,-0.21405 -0.22746,-0.35898 -0.22746,-0.35898 -0.18098,0.29283 -0.18098,0.29284 h -0.28997 -0.28998 l 0.45512,-0.5029 0.45512,-0.5029 -0.29341,-0.18134 -0.29341,-0.18134 -0.36173,0.30021 -0.36173,0.30021 -0.17551,-0.28399 -0.17552,-0.28398 0.21811,0.0628 0.2181,0.0628 0.61797,-0.34223 0.61798,-0.34223 -0.11201,-0.11201 -0.112,-0.112 -0.81088,0.40453 -0.81089,0.40452 -0.14809,0.38591 -0.14809,0.38592 -0.40689,-0.15614 -0.40689,-0.15614 v 0.3085 0.30851 l 0.29002,-0.17924 0.29002,-0.17924 -0.0952,0.49435 -0.0952,0.49436 h -0.39326 -0.39325 l 0.0788,-0.36856 0.0788,-0.36856 -1.79854,0.18301 -1.79855,0.183 -0.59531,0.14809 -0.59532,0.14809 -0.004,-1.28545 -0.004,-1.28546 -0.15724,-0.58655 -0.15725,-0.58654 -0.4906,-0.15572 -0.49061,-0.15571 -0.53916,0.28855 -0.53916,0.28855 -0.0313,0.7183 -0.0313,0.71829 -0.20197,-0.79375 -0.20198,-0.79375 -0.0313,1.66926 -0.0313,1.66926 0.29891,-0.18473 0.29891,-0.18474 -0.12483,0.36756 -0.12483,0.36756 -1.28831,-0.007 -1.2883,-0.007 -0.16013,-0.65436 -0.16012,-0.65436 -0.392582,0.0656 -0.392578,0.0656 -0.890501,-0.87856 -0.890501,-0.87857 -1.456897,0.22847 -1.456896,0.22846 -0.30633,-0.11755 -0.306329,-0.11755 0.116019,1.95882 0.116019,1.95881 h -0.438708 -0.438709 l 0.130041,-1.65364 0.130042,-1.65365 -0.135305,0.59531 -0.135306,0.59532 h -0.188418 -0.188419 l -0.358047,1.21262 -0.358046,1.21263 -0.39503,0.15159 -0.39503,0.15159 -0.457559,-0.6066 -0.457559,-0.6066 -0.175085,0.69759 -0.175084,0.69759 h -0.275158 -0.275157 l 0.144738,-0.23419 0.144738,-0.23419 -0.294286,-0.84419 -0.294285,-0.84419 0.252126,-0.25212 0.252125,-0.25213 0.710909,0.5592 0.710909,0.5592 0.392753,-0.93999 0.392753,-0.93999 v -0.40699 -0.40699 l -2.050521,0.15294 -2.050521,0.15293 -1.5875,0.39365 -1.5875,0.39365 -1.576262,0.12358 -1.576262,0.12357 -0.192217,0.31101 -0.192218,0.31102 0.130449,0.21107 0.130448,0.21107 h 0.248969 0.248968 l 0.008,-0.46302 0.008,-0.46302 0.276174,0.47461 0.276175,0.47462 0.465213,-0.14765 0.465212,-0.14765 1.373064,-0.0309 1.373063,-0.0309 0.142519,-0.2306 0.142519,-0.2306 0.52052,0.27857 0.52052,0.27857 -0.155317,0.25131 -0.155317,0.25131 h -0.513552 -0.513551 v 0.26458 0.26459 h 0.492476 0.492476 l -0.126445,0.66146 -0.126446,0.66145 -0.167593,0.004 -0.167593,0.004 -0.625339,0.16739 -0.625339,0.16739 0.294609,-0.55048 0.29461,-0.55048 v -0.16662 -0.16661 l -1.047574,0.58877 -1.047575,0.58877 0.137148,0.22191 0.137148,0.22191 h -0.908584 -0.908584 l -0.892968,0.15456 -0.892969,0.15457 0.36867,-0.25978 0.36867,-0.25977 -0.135635,-0.51867 -0.135635,-0.51867 0.243133,-0.43446 0.243133,-0.43445 h -0.277731 -0.27773 v 0.28988 0.28989 l -0.52135,0.73217 -0.521349,0.73217 0.144414,0.14441 0.144413,0.14441 -0.575739,0.18274 -0.57574,0.18273 -0.266355,-0.26636 -0.266355,-0.26635 0.556708,-0.29794 0.556708,-0.29794 0.530031,-1.03895 0.530031,-1.03895 v -0.40741 -0.40742 h -0.251437 -0.251436 l -0.211584,0.33116 -0.211585,0.33116 -0.718574,0.37018 -0.718574,0.37017 0.141544,0.22902 0.141544,0.22903 0.246301,-0.15222 0.246301,-0.15223 v 0.54478 0.54479 h -0.280199 -0.280198 l 0.149555,0.24198 0.149555,0.24199 -0.332377,0.11186 -0.332378,0.11186 0.336597,0.40794 0.336596,0.40793 -0.653703,0.12497 -0.653704,0.12496 -0.248342,-0.24834 -0.248343,-0.24835 -0.170628,0.27609 -0.170628,0.27608 -0.388402,-0.14905 -0.388401,-0.14904 v 0.27349 0.27349 l 0.463021,0.10514 0.46302,0.10515 0.234491,-0.12364 0.23449,-0.12364 z m 11.334276,-0.65255 -0.156026,-0.15603 -1.076162,0.18182 -1.076162,0.18182 v 0.27135 0.27136 l 0.783598,-0.11501 0.783599,-0.11501 0.170426,0.41571 0.170426,0.41571 0.278163,-0.59785 0.278164,-0.59785 z m 11.949186,-4.87747 -0.0577,-1.59897 -0.21119,-0.13052 -0.21119,-0.13052 0.0295,1.72949 0.0295,1.7295 h 0.23941 0.23942 z m -0.89918,-1.05663 -0.14672,-0.46226 -0.5204,-0.13608 -0.5204,-0.13609 -0.54794,0.14329 -0.547938,0.14328 1.003308,1.02748 1.0033,1.02747 0.21175,-0.57242 0.21175,-0.57242 z m 13.36456,0.50593 V 83.3777 l 0.22976,-0.44563 0.22975,-0.44563 0.15848,-1.05833 0.15848,-1.05833 -0.14625,0.33238 -0.14625,0.33237 -0.27861,-0.17219 -0.2786,-0.17218 0.16766,0.89814 0.16767,0.89814 -0.48382,0.79377 -0.48381,0.79377 0.11078,0.33236 0.11079,0.33236 0.24198,-0.14956 0.24199,-0.14955 z m 4.08496,-0.74297 0.46281,-0.51139 -0.17824,-0.81152 -0.17824,-0.81152 h -0.20687 -0.20687 l 0.12821,0.67073 0.12822,0.67073 -0.46485,0.51365 -0.46485,0.51366 -0.22922,-0.14167 -0.22923,-0.14167 v 0.2802 0.2802 h 0.48816 0.48816 z m -4.61413,-1.20839 v -1.19061 h -0.66146 -0.66145 v 0.30868 0.30868 l 0.17409,-0.17409 0.17409,-0.17409 0.35508,0.29468 0.35507,0.29469 v 0.76135 0.76135 h 0.13229 0.13229 z m 2.26555,-0.653 0.36154,0.653 -0.0115,-1.19063 -0.0115,-1.19062 -0.13346,0.33073 -0.13345,0.33073 h -0.22313 -0.22314 l -0.121,-0.46302 -0.121,-0.46303 0.005,1.32292 0.005,1.32292 0.12223,-0.653 0.12222,-0.65301 z m -13.22261,-1.22682 0.37373,0.14342 -0.004,-0.58701 -0.004,-0.58701 -0.26053,0.39688 -0.26053,0.39687 -0.26054,-0.39687 -0.26053,-0.39688 0.0266,0.92604 0.0266,0.92604 0.12474,-0.48244 0.12475,-0.48245 z m 1.45326,-0.83216 -0.26969,-0.46302 -0.0121,0.52916 -0.0121,0.52917 -0.25648,-0.39687 -0.25648,-0.39688 -0.004,0.61093 -0.004,0.61093 0.26458,-0.16353 0.26459,-0.16352 0.008,0.34635 0.008,0.34634 0.26968,-0.46302 0.26969,-0.46302 z m -72.891062,-0.55358 -0.41972,-0.41971 0.0186,0.7843 0.0186,0.7843 0.22739,-0.52917 0.22739,-0.52916 0.0546,0.79375 0.0546,0.79375 0.1191,-0.62917 0.1191,-0.62917 z m 51.822262,1.03871 -0.251354,-0.24247 -0.396875,-0.0535 -0.396875,-0.0535 -0.396875,0.0499 -0.396875,0.0499 0.529166,0.22739 0.529167,0.22739 0.515937,0.0186 0.515938,0.0186 z m 28.43505,-0.91031 -0.0209,-0.83159 -0.134,0.33238 -0.134,0.33237 -0.24386,-0.15071 -0.24385,-0.15071 -0.15873,0.41365 -0.15873,0.41364 0.15058,0.39242 0.15058,0.39241 0.40689,-0.15614 0.4069,-0.15614 z m -27.467948,0.32817 -0.601116,-0.56002 -0.287375,0.28738 -0.287376,0.28737 0.640164,0.25588 0.640163,0.25588 0.248328,0.0168 0.248328,0.0168 z m 2.882585,0.09 v -0.20542 l 1.124479,0.07 1.124479,0.07 -0.665434,-0.2628 -0.665435,-0.26279 -0.260607,-0.59398 -0.260607,-0.59399 -0.595312,-0.26118 -0.595313,-0.26118 v -0.20184 -0.20184 h -0.38126 -0.38126 l -0.149799,0.24238 -0.1498,0.24238 0.282086,0.74194 0.282086,0.74194 -0.431512,0.31553 -0.431511,0.31553 0.482047,0.12467 0.482048,0.12466 0.595313,0.0307 0.595312,0.0307 z m 27.512613,-0.0592 0.26053,0.39688 -0.0223,-1.5875 -0.0223,-1.5875 -0.21183,0.66146 -0.21184,0.66146 -0.0264,-0.34635 -0.0264,-0.34634 -0.26458,0.16352 -0.26458,0.16352 0.004,1.10887 0.004,1.10886 0.26054,-0.39688 0.26053,-0.39687 z m -30.441626,-1.52135 -0.0186,-0.7276 -0.206838,-0.52917 -0.206838,-0.52917 -0.195331,0.61441 -0.195331,0.61441 0.161223,0.64236 0.161223,0.64236 h 0.259542 0.259543 z m -1.701195,-0.74603 v -0.76808 l -0.463021,-0.0892 -0.463021,-0.0892 v 0.54857 0.54857 h 0.396875 0.396875 v 0.24253 0.24254 l -0.271198,0.13449 -0.271198,0.1345 0.337344,-0.0684 0.337344,-0.0683 z M 38.185738,76.53326 V 75.9159 l -0.33072,-0.11024 -0.33073,-0.11025 v 0.83785 0.83785 l 0.33073,-0.11024 0.33072,-0.11025 z m 79.403172,-1.32231 -0.0282,-0.79315 -0.33072,-6e-4 -0.33073,-6.1e-4 v 0.37524 0.37524 l 0.1606,0.41851 0.16059,0.41851 h 0.19831 0.1983 z m 1.42704,-1.07455 v -1.04272 h -0.26458 -0.26459 v 1.20624 1.20624 l 0.26459,-0.16353 0.26458,-0.16352 z m -36.908219,0.27833 0.164676,-0.26646 -0.479791,-0.15875 -0.47979,-0.15875 -0.926042,-0.40363 -0.926042,-0.40364 -0.264583,-0.11683 -0.264583,-0.11682 0.51359,0.4165 0.513591,0.41649 h 0.305298 0.305298 l 0.478889,0.52917 0.47889,0.52917 h 0.207961 0.207961 z m -3.363098,-0.67015 -0.109773,-0.10977 -0.582836,-0.0889 -0.582836,-0.089 -0.31391,-0.31391 -0.313911,-0.31391 H 76.54353 76.245692 l -0.544877,-0.59531 -0.544878,-0.59532 -0.13811,-0.52916 -0.13811,-0.52917 -0.16464,-0.73842 -0.16464,-0.73843 -0.264945,0.16375 -0.264945,0.16374 0.172455,0.97156 0.172455,0.97155 0.695559,0.76019 0.69556,0.76019 0.926041,0.41436 0.926042,0.41436 0.185208,0.0161 0.185209,0.0161 0.340651,0.34065 0.340651,0.34065 0.09701,-0.29104 0.09701,-0.29104 z M 35.407618,66.97336 v -1.09324 l -0.95788,-0.9034 -0.95788,-0.90339 -0.15221,0.15221 -0.15221,0.1522 -0.0589,0.401 -0.0589,0.401 0.90132,0.58353 0.90132,0.58353 0.16478,0.8599 0.16478,0.85989 h 0.10284 0.10285 z m 0.81146,-1.59316 -0.24875,-0.6209 0.007,1.45521 0.007,1.45521 0.24166,-0.83432 0.24166,-0.83431 z m 66.341682,-20.628469 -0.3281,-0.202783 -0.29781,0.247153 -0.2978,0.247153 -0.19614,-0.196142 -0.19614,-0.196142 0.0882,0.396875 0.0882,0.396875 0.25854,0.185052 0.25854,0.185053 0.47532,-0.430156 0.47531,-0.430156 z"
       id="path21" /></g></svg>
