<?xml version="1.0" encoding="UTF-8" standalone="no"?>
<!-- Created with Inkscape (http://www.inkscape.org/) -->

<svg
   width="101.6mm"
   height="84.666672mm"
   viewBox="0 0 101.6 84.666672"
   version="1.1"
   id="svg1"
   xml:space="preserve"
   xmlns="http://www.w3.org/2000/svg"
   xmlns:svg="http://www.w3.org/2000/svg"><defs
     id="defs1" /><g
     id="layer1"
     transform="translate(-30.909697,-117.96338)"><path
       style="fill:#ffffff;fill-opacity:1"
       d="m 30.909697,160.29672 v -42.33333 h 50.8 50.800003 v 42.33333 42.33333 h -50.800003 -50.8 z m 21.034376,41.23977 -0.79375,-0.25434 -1.701226,-0.25775 -1.701226,-0.25776 -1.152292,-0.39121 -1.152291,-0.39121 h -0.236934 -0.236935 l -0.114663,0.59531 -0.114662,0.59531 -0.05463,-0.79375 -0.05463,-0.79375 -0.227391,0.52917 -0.227391,0.52917 -0.04497,-0.92605 -0.04497,-0.92604 -0.211836,0.66146 -0.211836,0.66146 -0.05275,-1.5875 -0.05275,-1.5875 -0.211836,0.66146 -0.211836,0.66146 -0.05024,-0.52917 -0.05024,-0.52917 -0.260979,0.90888 -0.260979,0.90888 -0.240274,-0.37971 -0.240274,-0.37971 -0.0416,0.39687 -0.0416,0.39688 -0.189491,-1.05834 -0.189492,-1.05833 -0.03755,0.85989 -0.03755,0.8599 h -0.264583 -0.264583 l -0.0389,-1.25677 -0.0389,-1.25677 -0.161021,1.50079 -0.161021,1.50079 -0.196955,0.19695 -0.196952,0.19696 v -1.57869 -1.57868 l -0.2389,-0.25135 -0.23891,-0.25135 -0.12728,-0.52917 -0.12728,-0.52917 -0.0307,1.83651 -0.0307,1.83651 -0.33073,-0.42873 -0.33073,-0.42873 -0.66146,-0.11498 -0.66146,-0.11497 0.72761,-0.036 0.7276,-0.036 v -0.24896 -0.24897 l -0.29283,-0.18098 -0.29283,-0.18098 0.35898,-0.25288 0.35897,-0.25289 -1.19062,0.14199 -1.19063,0.14198 0.52917,-0.23431 0.52917,-0.2343 -1.19063,-0.0493 -1.19062,-0.0493 0.39687,-0.0848 0.39688,-0.0848 1.25677,-0.16532 1.25677,-0.16532 v -0.38066 -0.38066 l -0.33073,-0.0186 -0.33073,-0.0186 0.52917,-0.22739 0.52916,-0.22739 -0.66146,-0.0493 -0.66145,-0.0493 0.50142,-0.1284 0.50142,-0.12839 -0.36913,-0.23374 -0.36913,-0.23374 0.50712,-0.004 0.50712,-0.004 -0.12117,-0.12116 -0.12116,-0.12117 -2.37033,0.38474 -2.37033,0.38474 -0.52917,-0.0254 -0.52916,-0.0254 0.66145,-0.21184 0.66146,-0.21183 -0.42995,-0.0264 -0.42994,-0.0264 -0.89297,-0.13735 -0.89297,-0.13735 0.52917,0.25105 0.52916,0.25104 -0.48242,0.0186 -0.48242,0.0186 0.0881,0.46303 0.0881,0.46302 1.05577,0.17779 1.05577,0.17779 -1.13646,-0.0536 -1.13645,-0.0536 0.0781,0.66959 0.0781,0.6696 1.71979,-0.0407 1.7198,-0.0407 -1.05834,0.25412 -1.05833,0.25412 -0.7276,-0.10149 -0.72761,-0.10148 v 2.86459 2.86459 l 10.517188,-0.0227 10.517188,-0.0227 z m -17.859376,-7.35528 v -0.24675 l 0.46302,-0.12788 0.46302,-0.12788 1.19063,-0.11255 1.19062,-0.11254 -0.52916,0.12327 -0.52917,0.12327 0.52917,0.21045 0.52916,0.21045 -1.45521,-0.0984 -1.4552,-0.0984 0.92604,0.21706 0.92604,0.21707 -1.12448,0.0348 -1.12448,0.0348 z m 35.74419,7.54146 0.113633,-0.11364 -0.09114,-1.14593 -0.09114,-1.14593 -3.484126,-1.70009 -3.484126,-1.70008 -0.661458,0.0466 -0.661458,0.0466 0.396875,-0.25792 0.396875,-0.25792 -0.463021,-0.004 -0.463021,-0.004 v 0.36683 0.36684 l -1.256771,0.17225 -1.256771,0.17225 -1.113322,0.15074 -1.113323,0.15075 -0.296259,0.89767 -0.296259,0.89767 H 55.495428 54.98678 v -0.26458 -0.26459 h -0.579057 -0.579057 l 0.581588,-0.54183 0.581588,-0.54183 -0.276423,-0.5165 -0.276424,-0.5165 H 54.213763 53.98853 l -0.173628,-1.15784 -0.173629,-1.15784 -0.974587,-0.15815 -0.974587,-0.15816 -0.257659,0.25766 -0.25766,0.25766 h -0.71215 -0.712151 l -0.161824,0.64476 -0.161824,0.64476 -0.859046,0.0828 -0.859046,0.0828 -0.04885,0.66146 -0.04885,0.66146 0.132732,-0.45436 0.132731,-0.45436 0.920647,-0.17272 0.920647,-0.17271 0.164051,0.16405 0.164052,0.16405 -0.147233,0.14724 -0.147232,0.14723 -0.756761,0.0803 -0.75676,0.0803 -0.08555,0.43392 -0.08555,0.43391 H 47.948376 47.82794 l -1.579955,-0.79756 -1.579955,-0.79756 -0.03603,-0.72379 -0.03603,-0.7238 -0.112133,0.57602 -0.112134,0.57601 -0.844022,-0.28955 -0.844023,-0.28955 -1.00845,-0.63078 -1.008451,-0.63078 0.08241,-0.71402 0.08241,-0.71401 1.151521,-0.0827 1.151522,-0.0827 0.435978,0.36482 0.435979,0.36483 1.810287,0.8709 1.810288,0.8709 0.266818,-0.26682 0.266818,-0.26682 -0.671898,-1.15081 -0.671897,-1.15081 0.270578,-0.47909 0.270579,-0.47909 -0.146129,-0.38081 -0.146128,-0.3808 0.454717,-0.0186 0.454717,-0.0186 -0.529167,-0.2274 -0.529166,-0.22739 H 46.387827 45.85866 l 0.529167,0.24837 0.529167,0.24836 -2.248959,-0.12045 -2.248958,-0.12044 0.661458,0.24432 0.661459,0.24432 -1.322917,-0.0921 -1.322917,-0.0921 -0.385266,-0.10032 -0.385266,-0.10032 -0.161157,1.12045 -0.16115,1.12046 0.196827,0.20246 0.196826,0.20246 0.08501,0.92511 0.08501,0.92511 2.248958,1.37552 2.248958,1.37552 1.923527,1.09427 1.923527,1.09426 1.313488,0.88391 1.313489,0.88391 -0.326599,0.11389 -0.326598,0.11388 1.123092,0.1944 1.123093,0.19439 0.149293,0.24156 0.149293,0.24156 h 8.142371 8.142371 z m -12.838416,-1.09394 -0.509852,-0.37446 0.156405,-0.15641 0.156404,-0.1564 0.515298,0.0875 0.515297,0.0875 -0.16185,0.44334 -0.16185,0.44334 z m -4.593398,-1.03523 -1.1345,-0.59946 -0.123893,-0.1239 -0.123893,-0.12389 0.542175,-0.49066 0.542175,-0.49066 -0.161716,0.42142 -0.161715,0.42143 0.282621,0.17466 0.282621,0.17467 v -0.67707 -0.67707 l 0.727604,0.0179 0.727604,0.0179 -0.595312,0.28711 -0.595313,0.28711 0.02637,0.68717 0.02637,0.68717 0.211835,-0.66146 0.211836,-0.66145 0.02637,0.7276 0.02637,0.7276 0.330729,0.0313 0.330729,0.0313 0.198438,-0.0313 0.198437,-0.0313 v 0.26459 0.26458 l -0.330729,-0.0279 -0.330729,-0.0279 z m -1.908208,-2.25512 v -0.26458 h -0.364479 -0.364478 l -0.329377,-0.39687 -0.329377,-0.39688 h 0.124039 0.124038 l 0.837181,0.41764 0.837181,0.41764 -0.150687,0.24382 -0.150688,0.24382 h -0.116677 -0.116676 z m 21.934042,3.77032 -0.02637,-0.72761 -0.199463,0.66146 -0.199463,0.66146 -0.131395,-0.79375 -0.131396,-0.79375 -0.03964,0.85989 -0.03964,0.8599 h 0.396875 0.396875 z m 1.349291,0.0505 v -0.67708 l -0.264584,0.16353 -0.264583,0.16352 -0.02637,0.4474 -0.02637,0.44741 -0.211835,-0.66146 -0.211836,-0.66146 -0.02637,0.72761 -0.02637,0.7276 h 0.529167 0.529167 z m 43.889532,-0.31512 -0.0313,-0.99218 -0.20198,0.79375 -0.20197,0.79375 -0.0313,-0.33073 -0.0313,-0.33073 h -0.50753 -0.50753 l -0.40181,0.15419 -0.4018,0.15418 0.14389,0.37498 0.14389,0.37498 h 1.03003 1.03002 z m 0.82505,-0.46302 v -1.45521 l -0.19844,4.5e-4 -0.19843,4.6e-4 -0.0509,1.45475 -0.0509,1.45476 h 0.24932 0.24933 z m 13.22917,-0.39687 v -1.85209 l -0.33073,-0.004 -0.33073,-0.004 0.35309,-0.22382 0.3531,-0.22383 -0.61768,-0.16538 -0.61768,-0.16539 -0.52916,0.015 -0.52917,0.015 0.52917,0.22041 0.52916,0.22042 -2.11666,-0.0588 -2.11667,-0.0588 -1.83578,1.66653 -1.83578,1.66654 -0.059,0.40224 -0.059,0.40225 h 4.60679 4.6068 z m -8.73125,1.01032 0.39687,-0.39232 1.5875,-1.43082 1.5875,-1.43082 -0.59531,0.67585 -0.59531,0.67585 v 0.22751 0.2275 l 0.7276,-0.63697 0.72761,-0.63698 -1.17957,1.25231 -1.17957,1.25232 h -0.1096 -0.1096 l 0.32938,-0.39688 0.32937,-0.39687 h -0.20586 -0.20586 l -0.95101,0.70132 -0.95102,0.70132 z m -52.458357,-4.78063 -0.10128,-1.12448 v 2.24895 2.24896 l 0.10128,-1.12448 0.10128,-1.12448 z m 33.849727,1.22796 0.57366,-0.15388 0.18514,-2.22258 0.18514,-2.22258 -0.18607,-1.98556 -0.18606,-1.98555 h -0.25762 -0.25763 l 0.16353,0.26458 0.16352,0.26458 -0.20276,0.32807 -0.20275,0.32806 -0.20601,-0.65879 -0.206,-0.65879 0.10938,0.97652 0.10939,0.97653 -0.3777,-0.14494 -0.3777,-0.14494 v 3.60019 3.60018 l 0.19844,-0.004 0.19844,-0.004 z m -45.288247,-2.18302 1.058333,-0.19696 -0.926042,-0.30189 -0.926041,-0.30189 -0.554666,-0.0812 -0.554667,-0.0812 -0.437521,0.36311 -0.437521,0.36311 v 0.23218 0.23219 l 0.859896,-0.0153 0.859895,-0.0152 z m -19.101596,-2.22587 0.15254,-0.99812 -0.26523,0.16392 -0.26523,0.16392 -0.23092,0.60737 -0.23092,0.60736 0.1537,0.58772 0.15369,0.58773 0.18991,-0.36089 0.18991,-0.3609 z m 25.848471,0.99811 v -0.39687 h 0.280198 0.280198 l -0.188787,0.30546 -0.188787,0.30546 0.305464,-0.18878 0.305464,-0.18879 0.02637,-0.5797 0.02637,-0.57969 0.183993,0.66145 0.183992,0.66146 h 0.384946 0.384947 l 0.08502,-0.88822 0.08502,-0.88821 0.911548,-1.68826 0.911548,-1.68826 -1.208829,-0.75239 -1.20883,-0.75239 -1.011524,-1.22409 -1.011524,-1.22408 -0.116904,0.1169 -0.116904,0.11691 -1.828265,-0.77133 -1.828265,-0.77133 -0.108295,-0.32489 -0.108296,-0.32489 0.499123,0.22144 0.499124,0.22143 0.906857,0.0192 0.906858,0.0192 0.1925,-0.71923 0.1925,-0.71923 -0.305608,0.0578 -0.305607,0.0578 -0.0306,-1.5875 -0.0306,-1.5875 0.185912,1.45521 0.185912,1.45521 0.04604,-1.19063 0.04604,-1.19062 0.195526,-1.05833 0.195526,-1.05834 0.166277,1.71979 0.166277,1.7198 -0.07196,-2.52156 -0.07196,-2.52157 0.714949,-1.31489 0.714948,-1.3149 0.605928,-0.99219 0.605927,-0.99219 h 0.254064 0.254064 l -0.188787,0.30547 -0.188787,0.30546 0.30978,-0.19145 0.309779,-0.19146 -0.177029,-0.28644 -0.177029,-0.28644 0.464215,-0.33944 0.464215,-0.33944 1.362144,-4.05219 1.362144,-4.05219 0.684618,-0.32456 0.684618,-0.32457 1.961215,0.36195 1.961216,0.36195 2.645833,0.57375 2.645833,0.57375 0.926042,0.0948 0.926042,0.0947 1.768057,0.44628 1.768057,0.44627 2.526215,-0.45486 2.526215,-0.45485 0.341772,0.13115 0.341771,0.13115 0.06106,0.73775 0.06106,0.73775 0.148613,0.14861 0.148612,0.14861 0.0022,-1.31793 0.0022,-1.31794 0.12694,-3.77031 0.126939,-3.77031 h 0.510179 0.510179 l 0.165867,-0.66087 0.165867,-0.66087 -0.143227,-0.37324 -0.143227,-0.37324 -2.06812,-0.17122 -2.06812,-0.17122 -0.595312,-0.24421 -0.595313,-0.24421 -0.02708,-0.86556 -0.02708,-0.86557 -0.20683,0.87332 -0.206829,0.87332 -0.09682,0.0931 -0.09682,0.0931 -3.307292,-0.37305 -3.307291,-0.37306 -2.513542,-0.1451 -2.513542,-0.14511 -0.342355,-0.11371 -0.342355,-0.11372 -2.899085,-0.27339 -2.899086,-0.27339 -0.661164,0.16594 -0.661163,0.16594 v 0.50048 0.50049 h 0.408467 0.408466 l -0.07774,1.91822 -0.07774,1.91823 -0.926042,0.15317 -0.926042,0.15317 0.396875,0.16207 0.396875,0.16207 0.529167,0.084 0.529167,0.084 0.08215,1.29131 0.08215,1.2913 -0.280588,0.28059 -0.280587,0.28059 -0.0186,-0.78053 -0.0186,-0.78052 -0.227391,-0.52916 -0.22739,-0.52917 -0.05834,1.05833 -0.05833,1.05834 -0.185105,-1.19063 -0.185106,-1.19062 -0.03974,1.24362 -0.03974,1.24362 0.463021,0.26969 0.463021,0.26968 -0.661458,0.0408 -0.661459,0.0408 -1.256771,0.0868 -1.25677,0.0868 -0.04448,-1.24403 -0.04448,-1.24402 -0.10211,0.96407 -0.10211,0.96408 -0.713309,0.13778 -0.713308,0.13778 -2.778125,-0.35562 -2.778125,-0.35563 -3.307292,-0.43095 -3.307291,-0.43095 -1.39009,-0.0297 -1.39009,-0.0297 -0.601997,0.56555 -0.601997,0.56555 -0.05576,0.73638 -0.05575,0.73638 -0.267129,0.52916 -0.267128,0.52917 -0.545219,1.5875 -0.545218,1.5875 -0.492361,1.5875 -0.492361,1.5875 -0.300782,1.31781 -0.300781,1.31782 0.287284,0.0958 0.287285,0.0958 -0.133973,0.96767 -0.133973,0.96768 0.232501,-0.66146 0.2325,-0.66146 0.0612,1.05834 0.0612,1.05833 0.184483,-0.92604 0.184483,-0.92604 0.155463,0.39687 0.155464,0.39688 0.184707,0.79375 0.184707,0.79375 0.21567,-0.52917 0.215671,-0.52917 0.04929,0.66146 0.04929,0.66146 0.121,-0.46302 0.121,-0.46302 h 0.377475 0.377475 v 0.2802 0.28019 l 0.264583,-0.16352 0.264583,-0.16352 0.02386,0.61093 0.02386,0.61093 0.274154,-0.92605 0.274155,-0.92604 0.303848,0.8754 0.303848,0.87539 0.191885,-0.19189 0.191885,-0.19188 0.04448,0.50712 0.04448,0.50711 0.175627,-1.5875 0.175626,-1.5875 0.07578,1.71979 0.07578,1.7198 0.201975,-0.79375 0.201975,-0.79375 0.06613,0.79375 0.06614,0.79375 0.194923,-0.92605 0.194923,-0.92604 0.07238,1.19063 0.07238,1.19062 0.189491,-1.05833 0.189492,-1.05833 0.07238,1.4552 0.07238,1.45521 0.194923,-0.92604 0.194923,-0.92604 0.0612,0.39687 0.0612,0.39688 0.211836,-0.66146 0.211836,-0.66146 0.05768,1.19063 0.05768,1.19062 0.201975,-0.79375 0.201976,-0.79375 0.07104,0.79375 0.07104,0.79375 0.185106,-1.19062 0.185106,-1.19063 0.05833,1.19063 0.05833,1.19062 0.227391,-0.52916 0.227391,-0.52917 0.02265,0.79375 0.02265,0.79375 0.25648,-0.39688 0.256481,-0.39687 0.04379,0.52917 0.04379,0.52916 0.185106,-1.19062 0.185106,-1.19063 0.04379,1.19063 0.04379,1.19062 0.256481,-0.39687 0.25648,-0.39688 0.02265,0.52917 0.02265,0.52917 0.22739,-0.52917 0.227391,-0.52917 0.05343,0.39688 0.05343,0.39687 0.194923,-0.92604 0.194923,-0.92604 0.0612,1.32292 0.0612,1.32291 0.211836,-0.66146 0.211836,-0.66145 0.04497,0.66145 0.04497,0.66146 0.22739,-0.52916 0.227391,-0.52917 0.04497,0.52917 0.04497,0.52916 0.211836,-0.66146 0.211836,-0.66145 0.05275,0.66145 0.05275,0.66146 0.211836,-0.66146 0.211836,-0.66145 0.02637,0.88605 0.02637,0.88606 -0.43435,0.91532 -0.434349,0.91533 -0.245445,-0.24545 -0.245445,-0.24544 -0.09371,-0.49761 -0.09371,-0.4976 -0.02024,-0.0864 -0.02024,-0.0865 -0.661458,0.7861 -0.661459,0.7861 v 0.14505 0.14505 l 0.530162,-0.1021 0.530161,-0.1021 0.265457,-0.16406 0.265458,-0.16406 0.15088,0.39319 0.15088,0.39318 0.362943,0.13928 0.362944,0.13927 -0.146968,-0.44954 -0.146968,-0.44955 0.553429,0.8599 0.553428,0.85989 h 0.400764 0.400764 v 0.26458 0.26459 h -0.211667 -0.211667 l -0.251354,-0.22763 -0.251354,-0.22762 -1.455208,-0.48798 -1.455209,-0.48798 -0.418346,-0.3433 -0.418346,-0.34331 -0.150472,0.15047 -0.150472,0.15047 -0.152547,-0.24682 -0.152546,-0.24683 0.522927,-0.47324 0.522927,-0.47325 v -0.20016 -0.20017 l -0.399553,0.0587 -0.399553,0.0586 -0.328051,0.35364 -0.328051,0.35363 0.330729,-0.18672 0.330729,-0.18672 v 0.22728 0.22728 l -0.298537,0.29854 -0.298537,0.29854 -0.429067,-0.23313 -0.429067,-0.23312 -1.715158,-0.58073 -1.715158,-0.58074 -0.872577,-0.49009 -0.872577,-0.4901 h -0.51946 -0.519459 l -0.790596,1.09138 -0.790597,1.09139 0.142758,0.23099 0.142758,0.23099 -0.429026,0.72814 -0.429025,0.72815 0.282758,0.66146 0.282759,0.66146 -0.149649,-0.92605 -0.14965,-0.92604 0.276586,0.39688 0.276585,0.39687 0.0416,1.05834 0.0416,1.05833 0.189492,-1.05833 0.189491,-1.05834 0.07728,1.19063 0.07728,1.19062 0.185106,-1.19062 0.185106,-1.19063 0.03974,0.8599 0.03974,0.85989 h 0.245183 0.245183 l 0.121,0.46303 0.120999,0.46302 0.05707,-0.92605 0.05707,-0.92604 0.211836,0.66146 0.211836,0.66146 0.02637,-0.47864 0.02637,-0.47863 0.282621,0.17467 0.282621,0.17467 -0.147299,0.38385 -0.147298,0.38385 0.261553,-0.16164 0.261552,-0.16165 0.03483,0.74322 0.03483,0.74322 0.194924,-0.92605 0.194923,-0.92604 0.07238,1.05834 0.07237,1.05833 0.189492,-1.05833 0.189492,-1.05834 0.06885,0.79375 0.06885,0.79375 0.201975,-0.79375 0.201975,-0.79375 0.06261,0.92604 0.06261,0.92605 0.169732,-0.79375 0.169732,-0.79375 0.25537,0.0463 0.255371,0.0463 0.0929,0.35057 0.0929,0.35058 -0.307002,-0.39688 -0.307002,-0.39687 0.154568,0.89296 0.154567,0.89297 0.02637,0.42995 0.02637,0.42995 0.211835,-0.66146 0.211836,-0.66146 0.04497,0.66146 0.04497,0.66146 0.227391,-0.52917 0.227391,-0.52916 0.04497,0.66145 0.04497,0.66146 0.211836,-0.66146 0.211836,-0.66145 0.06611,1.19062 0.06611,1.19063 0.185105,-1.19063 0.185106,-1.19062 0.06611,0.92604 0.06611,0.92604 0.211836,-0.66146 0.211836,-0.66146 0.05275,0.79375 0.05275,0.79375 0.211836,-0.66146 0.211836,-0.66145 0.02637,0.7276 0.02637,0.7276 h 0.529167 0.529166 l 0.0186,0.33073 0.0186,0.33073 0.227391,-0.52916 0.22739,-0.52917 0.0499,0.79375 0.0499,0.79375 0.201975,-0.79375 0.201976,-0.79375 0.05768,0.79375 0.05768,0.79375 0.211836,-0.66146 0.211836,-0.66146 0.05768,0.79375 0.05768,0.79375 0.178719,-0.79375 0.178719,-0.79375 0.224837,0.79375 0.224838,0.79375 0.200224,-0.66146 0.200224,-0.66145 0.05275,0.92604 0.05275,0.92604 0.211836,-0.66146 0.211836,-0.66146 0.05275,0.66146 0.05275,0.66146 0.211836,-0.66146 0.211836,-0.66146 0.06794,1.19063 0.06794,1.19062 0.18145,-1.32291 0.181449,-1.32292 0.04157,1.12448 0.04157,1.12448 h 0.245183 0.245183 l 0.121,-0.46302 0.121,-0.46302 0.05707,0.66145 0.05706,0.66146 0.211836,-0.66146 0.211836,-0.66145 0.06392,1.05833 0.06392,1.05833 0.189492,-1.05833 0.189492,-1.05833 0.07238,1.05833 0.07238,1.05833 0.194924,-0.92604 0.194923,-0.92604 0.03483,1.0451 0.03483,1.04511 0.242179,-0.25136 0.24218,-0.25135 0.118664,-0.66146 0.118664,-0.66146 0.05463,1.05834 0.05463,1.05833 0.22739,-0.52917 0.227391,-0.52916 0.0186,0.78052 0.0186,0.78052 0.238901,-0.25136 0.238902,-0.25135 0.12382,-0.39688 0.12382,-0.39687 -0.07961,0.66146 -0.07961,0.66146 -0.179128,0.46302 -0.179128,0.46302 h 0.292891 0.292891 z m -5.662483,-13.13996 -0.431195,-0.61562 0.268714,-0.0896 0.268714,-0.0896 0.03483,-0.70555 0.03483,-0.70556 0.194923,0.92604 0.194923,0.92604 0.03483,-0.71199 0.03483,-0.71199 0.305464,-0.18878 0.305464,-0.18879 -0.19595,0.31705 -0.19595,0.31706 0.252003,0.31914 0.252004,0.31914 -0.463619,0.74928 -0.463619,0.74929 z m 19.420816,-19.77583 -0.661459,-0.18701 0.595313,-0.15872 0.595312,-0.15873 v 0.27066 0.27066 l 0.661459,-0.12645 0.661458,-0.12644 v 0.22789 0.22789 l -0.595312,-0.0264 -0.595313,-0.0264 z m -5.085774,-0.74629 -0.984733,-0.10335 0.316649,-0.50703 0.316649,-0.50704 -0.324104,-0.3241 -0.324104,-0.3241 v -1.3141 -1.3141 l 0.104644,0.11024 0.104643,0.11025 0.143805,0.92604 0.143805,0.92604 0.183045,0.99219 0.183046,0.99219 h 0.258272 0.258272 l -0.142323,-0.37089 -0.142323,-0.37089 -0.31504,-2.15457 -0.31504,-2.15457 0.164472,-0.16447 0.164472,-0.16448 v 0.44098 0.44097 h 0.237731 0.23773 l 0.178126,1.91823 0.178126,1.91823 0.13114,0.46302 0.13114,0.46302 h 0.674473 0.674473 l -0.123176,-0.64436 -0.123176,-0.64435 0.220572,-0.34783 0.220571,-0.34784 0.0041,1.12448 0.0041,1.12448 -0.727604,-0.0445 -0.727604,-0.0445 z m 3.398668,-0.4794 -0.164978,-0.42992 0.03112,-0.97055 0.03112,-0.97055 0.219794,1.31454 0.219793,1.31454 -0.08593,0.0859 -0.08594,0.0859 z m -5.192061,-1.3283 v -1.47082 l -0.264583,0.16352 -0.264583,0.16352 v -0.51171 -0.51171 l 0.176116,-0.88058 0.176117,-0.88058 0.202162,0.51678 0.202162,0.51678 0.0186,-0.64588 0.0186,-0.64588 0.38846,0.51359 0.38846,0.51359 0.0084,0.21405 0.0084,0.21405 -0.256827,-0.15873 -0.256827,-0.15872 -0.172517,0.68736 -0.172517,0.68736 0.177899,1.57242 0.177898,1.57242 h -0.277721 -0.277722 z m -1.948769,1.04119 0.300189,-0.12327 -0.227731,-0.98032 -0.227731,-0.98032 0.03816,-1.71979 0.03817,-1.71979 0.124446,1.05833 0.124446,1.05834 0.221119,-0.66146 0.221119,-0.66146 -0.124576,1.45521 -0.124575,1.45521 0.235836,0.99218 0.235837,0.99219 -0.567449,-0.0209 -0.567449,-0.0209 z m 1.04353,-0.95943 -0.143912,-1.12448 -0.07074,-2.44753 -0.07074,-2.44753 0.173644,1.4e-4 0.173644,1.3e-4 0.14116,2.57969 0.14116,2.57969 0.177164,0.99218 0.177164,0.99219 H 72.22985 71.952532 Z m 3.812744,0.2802 -0.0029,-0.87551 -0.163838,-1.05833 -0.163839,-1.05834 0.265476,0.26459 0.265476,0.26458 0.146372,1.51778 0.146372,1.51778 -0.245097,0.15148 -0.245098,0.15148 z m -36.906462,33.13517 0.52917,-0.21567 -0.74544,-0.19577 -0.74544,-0.19577 -0.84206,0.27742 -0.84206,0.27741 1.19062,-0.10777 1.19063,-0.10776 -0.66146,0.23401 -0.66146,0.23401 0.52917,0.008 0.52916,0.008 z m 14.009687,-0.009 0.515937,-0.003 -0.251354,-0.23249 -0.251354,-0.2325 -1.058333,-0.15814 -1.058334,-0.15814 0.529167,0.22994 0.529167,0.22995 -0.396875,0.13972 -0.396875,0.13973 -0.396875,0.15566 -0.396875,0.15565 1.058333,-0.13178 1.058333,-0.13178 z m 18.066675,-4.03081 -0.101622,-1.13148 -0.0017,2.11667 -0.0017,2.11667 0.103369,-0.9852 0.103369,-0.98519 z m 59.884941,-5.98843 0.0186,-0.43471 0.22739,0.52916 0.22739,0.52917 0.0186,-0.5797 0.0186,-0.5797 0.27121,-0.16761 0.2712,-0.16762 -0.0311,-3.3065 -0.0311,-3.3065 -0.31767,0.1219 -0.31766,0.1219 -1.56088,-0.73333 -1.56088,-0.73333 -0.80897,0.12306 -0.80897,0.12306 -0.25136,0.24271 -0.25135,0.2427 h 0.33311 0.33312 l -0.19131,0.30955 -0.19131,0.30954 0.44028,-0.16895 0.44028,-0.16895 v 0.2719 0.27189 l 0.26458,-0.16352 0.26458,-0.16352 v 0.2802 0.28019 h -0.79375 -0.79375 v 0.51195 0.51194 l 0.25804,0.67868 0.25803,0.67868 h 0.52741 0.52742 l -0.14203,-0.37011 -0.14203,-0.37011 0.32351,-0.19993 0.3235,-0.19994 -0.18879,0.30546 -0.18879,0.30547 h 0.2802 0.2802 v -0.26459 -0.26458 h 0.38126 0.38126 l 0.18833,-0.30472 0.18833,-0.30472 -0.50345,-0.3841 -0.50344,-0.38411 0.66146,0.2128 0.66146,0.2128 0.59531,0.013 0.59531,0.013 v 0.19844 0.19843 l -0.33073,0.0313 -0.33073,0.0313 -0.20394,-0.0332 -0.20395,-0.0332 0.12617,0.69576 0.12616,0.69576 -0.16533,-0.16533 -0.16533,-0.16534 -0.54608,0.4636 -0.54608,0.4636 0.32388,-0.42122 0.32387,-0.42122 -0.1669,-0.1669 -0.1669,-0.1669 -0.22768,0.14071 -0.22768,0.14072 v 0.34518 0.34518 l 0.66424,0.66424 0.66424,0.66424 -0.0622,0.49632 -0.0622,0.49632 0.21418,1.37212 0.21417,1.37213 0.37438,-0.14367 0.37438,-0.14366 z m -26.28518,-1.95133 -0.10706,-0.86463 -0.003,1.5875 -0.003,1.5875 0.10976,-0.72287 0.10977,-0.72287 z m -32.231266,-0.0128 0.5541,-1.00023 v -0.12424 -0.12425 l -0.509139,0.50914 -0.509139,0.50914 -0.284611,0.5318 -0.284611,0.5318 v 0.33489 0.3349 l 0.23965,-0.25136 0.23965,-0.25135 z m -32.061807,-3.62997 v -1.05833 h -0.22851 -0.2285 v 0.88194 0.88195 l 0.17639,0.17639 0.17639,0.17638 h 0.0521 0.0521 z m 51.401324,-0.94166 v -0.91042 h -0.248969 -0.248968 l -0.146727,0.23741 -0.146727,0.23741 0.163326,0.81663 0.163326,0.81663 0.232369,-0.14362 0.23237,-0.14361 z m -11.107194,0.27381 0.334684,-0.40327 -0.147335,-0.14733 -0.147334,-0.14734 -0.551827,0.29533 -0.551828,0.29533 v 0.25527 0.25528 h 0.364479 0.364478 z m 47.727653,-3.83007 0.22694,0.66146 0.19188,-1.05833 0.19188,-1.05833 0.082,1.32291 0.082,1.32292 0.17562,-1.5875 0.17563,-1.5875 0.0805,1.5875 0.0805,1.5875 0.12028,-0.6382 0.12029,-0.63821 0.24056,0.37362 0.24056,0.37362 0.2307,-0.35767 0.23071,-0.35768 0.39587,0.56518 0.39586,0.56518 0.16718,-0.83589 0.16718,-0.83589 v -9.62422 -9.62421 l -0.59531,-0.0314 -0.59532,-0.0314 -0.39687,0.0496 -0.39688,0.0496 -0.32225,0.41756 -0.32225,0.41755 0.17142,0.27738 0.17143,0.27737 0.0845,1.07271 0.0845,1.07271 -0.0362,1.32292 -0.0362,1.32291 -0.0203,0.4464 -0.0203,0.44639 -1.80743,-0.0369 -1.80744,-0.0369 -0.22718,-0.27718 -0.22719,-0.27718 -0.12161,-0.66146 -0.12161,-0.66146 -0.036,0.87464 -0.036,0.87463 -1.64552,-0.15213 -1.64551,-0.15213 -0.25949,-0.25948 -0.25948,-0.25949 h -0.22728 -0.22729 l 0.14956,0.24199 0.14955,0.24198 -0.3078,0.10261 -0.30781,0.1026 0.90747,1.44135 0.90748,1.44135 0.31905,0.7276 0.31906,0.72761 0.46869,-0.004 0.46869,-0.004 0.28389,-0.19438 0.28388,-0.19439 0.17083,-0.46302 0.17084,-0.46302 h 0.27856 0.27856 l 0.29185,0.7276 0.29186,0.72761 0.29778,0.63536 0.29779,0.63537 -0.003,1.74588 -0.003,1.74589 -0.51396,0.8545 -0.51396,0.85451 -0.20667,-0.32534 -0.20667,-0.32534 v 1.32292 1.32291 l 0.25648,-0.39687 0.25648,-0.39688 0.0304,0.66146 0.0304,0.66146 0.21183,-0.66146 0.21184,-0.66146 0.0577,0.79375 0.0577,0.79375 0.18361,-0.79375 0.1836,-0.79375 0.22682,0.92604 0.22681,0.92605 0.19336,-0.66146 0.19336,-0.66146 0.0612,0.79375 0.0612,0.79375 0.17027,-0.92604 0.17026,-0.92604 z m -22.93496,-2.70724 -0.10706,-0.86463 -0.003,1.5875 -0.003,1.5875 0.10976,-0.72287 0.10977,-0.72286 z m 18.2347,-0.60342 0.15358,-0.40024 -0.27235,-0.32816 -0.27235,-0.32817 0.0587,-0.84857 0.0588,-0.84857 -0.34516,0.28646 -0.34517,0.28646 v -0.54267 -0.54266 l 0.41578,-0.41577 0.41577,-0.41578 -0.48192,-0.0264 -0.48192,-0.0264 0.66146,-0.21183 0.66146,-0.21184 -0.67469,-0.0264 -0.67469,-0.0264 -0.25591,0.25591 -0.25592,0.25592 -0.59075,-0.15448 -0.59075,-0.15449 v -0.6306 -0.6306 h -0.23981 -0.23981 l 0.13313,0.50912 0.13314,0.50912 -0.75322,0.0902 -0.75322,0.0902 -0.5351,-0.32575 -0.5351,-0.32575 -0.57521,0.15042 -0.57521,0.15042 -0.11577,0.43587 -0.11577,0.43586 -0.0307,-0.57591 -0.0307,-0.57591 0.46302,-0.121 0.46302,-0.121 -0.59531,-0.0307 -0.59531,-0.0307 -0.0423,0.99218 -0.0423,0.99219 -0.10671,-0.8599 -0.10672,-0.85989 h -0.1949 -0.1949 l -0.3175,0.3175 -0.3175,0.3175 v -0.43139 -0.43139 l 0.59531,-0.11466 0.59531,-0.11467 -0.7276,-0.036 -0.72761,-0.036 v 1.57189 1.57188 l -0.21692,0.13407 -0.21692,0.13406 -1.17214,-0.36533 -1.17214,-0.36534 0.44781,-0.0177 0.44781,-0.0177 0.10128,-1.12448 0.10128,-1.12448 0.0462,1.25677 0.0462,1.25677 h 0.21166 0.21167 l 0.3175,-0.3175 0.3175,-0.3175 v -0.88143 -0.88143 l -0.46302,-0.17795 -0.46302,-0.17795 0.66146,-0.20425 0.66145,-0.20424 -1.32291,0.12078 -1.32292,0.12078 0.52917,-0.24085 0.52916,-0.24085 -0.39687,-0.015 -0.39688,-0.015 -0.61285,0.16413 -0.61285,0.16412 0.0627,1.35362 0.0627,1.35361 h -0.22262 -0.22261 l 0.0302,-1.4552 0.0302,-1.45521 -0.22322,0.66146 -0.22322,0.66145 -0.0577,-0.52916 -0.0577,-0.52917 0.0313,-0.19844 0.0313,-0.19843 h -0.26459 -0.26458 v 0.66145 0.66146 h -0.29461 -0.29462 l 0.1165,-0.79375 0.1165,-0.79375 h -0.35105 -0.35105 v 0.25628 0.25628 l -0.39688,-0.15229 -0.39687,-0.1523 -0.004,0.35904 -0.004,0.35903 -0.25648,-0.39687 -0.25648,-0.39688 -0.0371,0.33073 -0.0371,0.33073 -0.0331,0.24254 -0.0331,0.24253 -0.22176,0.22049 -0.22175,0.22048 0.0895,-0.79249 0.0895,-0.79249 0.79375,-0.1805 0.79375,-0.18049 -1.05833,0.0582 -1.05834,0.0582 -0.0725,0.78246 -0.0726,0.78246 -0.13093,0.59531 -0.13092,0.59532 h -0.55244 -0.55243 l 0.1606,0.41851 0.1606,0.41851 0.0186,1.36743 0.0186,1.36742 0.17984,-0.40489 0.17984,-0.40489 5.55625,0.46443 5.55625,0.46443 3.175,0.23343 3.175,0.23342 0.20674,0.0378 0.20674,0.0378 z m -14.72228,-3.34038 v -0.22789 h 0.26458 0.26458 l 0.0186,-0.46302 0.0186,-0.46302 0.21302,0.52916 0.21302,0.52917 0.12923,-0.66146 0.12923,-0.66146 0.036,0.69676 0.036,0.69676 -0.66146,0.12645 -0.66146,0.12644 z m -0.59988,-1.08779 0.14352,-1.12448 0.0959,-0.11024 0.0959,-0.11024 v 1.23472 1.23472 h -0.23941 -0.23941 z m -35.881572,1.38907 -0.237655,-1.19063 -0.02899,1.34497 -0.02899,1.34496 0.198438,0.20013 0.198437,0.20012 0.06821,-0.35446 0.06821,-0.35447 z m 2.114591,-3.19851 0.3679,-0.23298 -0.289722,-0.004 -0.289722,-0.004 -0.415721,0.46302 -0.415721,0.46302 0.162749,0.79375 0.162748,0.79375 0.174795,-1.01974 0.174794,-1.01975 z m 31.025091,1.54486 0.15954,-0.59531 -4.4e-4,-0.92604 -4.4e-4,-0.92605 -0.22993,-0.36297 -0.22993,-0.36298 -0.35471,0.11823 -0.35471,0.11824 0.0451,1.17078 0.0451,1.17079 -0.20914,-0.82277 -0.20915,-0.82276 -0.43788,-0.62517 -0.43789,-0.62517 -0.0453,0.65418 -0.0453,0.65419 -0.0288,0.44892 -0.0288,0.44892 -0.19049,0.19049 -0.19049,0.19049 v -1.23473 -1.23472 h -0.26458 -0.26458 v 1.83611 1.83612 l 0.99218,0.10378 0.99219,0.10379 0.56445,0.0445 0.56446,0.0445 z m -3.60889,-2.50764 -0.10414,-0.99809 -0.002,1.85208 -0.002,1.85209 0.10627,-0.854 0.10628,-0.85399 z m -6.574397,-2.23646 0.0313,-0.97378 0.595313,-0.0846 0.595312,-0.0845 0.08313,-1.00917 0.08313,-1.00917 -1.009171,0.0831 -1.009172,0.0831 -0.07845,2.11578 -0.07845,2.11577 0.187521,0.66235 0.187521,0.66235 0.190354,-0.79375 0.190354,-0.79375 z m 10.350057,0.16442 v -0.94165 l -0.26459,0.16352 -0.26458,0.16352 v 0.5004 0.50041 l -0.46302,0.26968 -0.46302,0.26969 0.7276,0.008 0.72761,0.008 z m -65.453043,-2.90854 -0.15756,-0.41062 0.327694,0.20462 0.327699,0.20462 1.405929,0.0439 1.40593,0.0439 -0.133475,-0.34783 -0.133476,-0.34784 0.821723,0.28646 0.821723,0.28645 0.48551,-0.59958 0.485511,-0.59958 v -0.34551 -0.34552 l -0.309423,-0.10314 -0.309424,-0.10314 0.372949,-0.84255 0.372948,-0.84255 0.182462,0.46062 0.182462,0.46062 0.02265,1.19063 0.02265,1.19062 0.211191,-0.33265 0.211191,-0.33266 0.06353,-1.25484 0.06353,-1.25485 0.250391,-0.0882 0.250392,-0.0882 v -0.38144 -0.38144 l -0.79375,-0.15875 -0.79375,-0.15875 v -0.49609 -0.49609 h 0.264583 0.264583 v -0.51013 -0.51013 l -1.521354,-0.16261 -1.521354,-0.1626 -1.517642,-0.23943 -1.517643,-0.23944 -2.252891,0.0523 -2.25288,0.0523 2.1e-4,-0.19013 2.2e-4,-0.19013 -0.43513,0.16697 -0.43514,0.16698 -0.35861,-0.49043 -0.35862,-0.49044 v 0.31516 0.31515 h -0.40518 -0.40518 l -0.14968,0.39007 -0.14969,0.39008 0.42257,0.42257 0.42258,0.42258 v 1.83318 1.83319 h -0.39688 -0.39687 v 0.42518 0.42518 l 0.41061,-0.15757 0.41062,-0.15757 -0.16165,0.26156 -0.16165,0.26155 h -0.79375 -0.79375 l 0.14499,0.23459 0.14498,0.23459 0.99511,0.21528 0.99511,0.21527 0.26459,0.0288 0.26458,0.0288 0.66146,0.2241 0.66146,0.22411 0.52916,0.0647 0.52917,0.0648 0.79375,0.1799 0.79375,0.1799 -0.39688,-0.28193 -0.39687,-0.28193 0.16806,-0.004 0.16806,-0.004 0.89027,0.38651 0.89028,0.38652 0.0944,0.0104 0.09445,0.0104 z m 57.780123,-0.27526 v -0.42128 l -0.470172,-0.59773 -0.470173,-0.59773 -0.323577,0.34639 -0.323578,0.34639 v 0.26056 0.26056 l 0.523756,-0.10087 0.523755,-0.10086 -0.02592,0.1822 -0.02592,0.1822 0.03133,0.33073 0.03133,0.33073 h 0.264583 0.264583 z m -1.099666,-3.43128 -0.09096,-0.4692 -0.330729,-0.11012 -0.330729,-0.11012 v 0.63941 0.63941 l 0.180799,0.1808 0.180798,0.18079 0.240889,-0.24088 0.24089,-0.24089 z m 24.330926,0.14841 0.0605,-0.79375 -0.20264,0.0186 -0.20264,0.0186 -0.52917,0.22739 -0.52917,0.22739 0.52917,0.045 0.52917,0.045 -0.66146,0.21184 -0.66146,0.21183 0.5797,0.0264 0.5797,0.0264 0.16352,0.26458 0.16352,0.26459 h 0.0604 0.0604 z m 2.43332,-2.75649 v -0.37524 l -0.1606,-0.41851 -0.16059,-0.41851 h -0.19046 -0.19045 l 0.1165,0.79375 0.1165,0.79375 h 0.23455 0.23455 z m 6.95707,-3.17827 0.55534,-0.77538 -0.31662,0.19568 -0.31662,0.19569 v -0.2802 -0.2802 h -0.29698 -0.29698 l 0.29336,0.35348 0.29336,0.35348 -0.97459,1.16787 -0.9746,1.16788 0.7395,-0.66146 0.7395,-0.66146 z m -49.290399,0.75977 v -0.41249 l 0.236859,0.14638 0.236859,0.14639 0.120695,-0.32921 0.120695,-0.32921 -0.05393,-1.19062 -0.05393,-1.19063 -0.0529,-3.30729 -0.0529,-3.30729 0.01385,-0.59531 0.01385,-0.59532 h 0.292891 0.292891 l -0.141836,0.36962 -0.141835,0.36962 0.642695,0.12286 0.642694,0.12286 v -0.76368 -0.76367 l -0.79375,-0.15875 -0.79375,-0.15875 v -0.89297 -0.89297 h 0.529167 0.529167 v -0.26458 -0.26459 h -0.529167 -0.529167 l 0.0016,-1.12448 0.0016,-1.12448 0.379555,-0.7276 0.379554,-0.7276 -0.315038,-0.0179 -0.315039,-0.0179 0.595313,-0.28711 0.595312,-0.2871 v -0.35645 -0.35644 h 0.367563 0.367564 l 0.624624,0.52036 0.624624,0.52037 -0.301331,0.009 -0.301331,0.009 0.03675,0.46302 0.03675,0.46302 -0.379817,-0.0825 -0.379817,-0.0825 -0.555096,0.13932 -0.555097,0.13932 0.01386,0.86923 0.01386,0.86923 -0.248361,0.34583 -0.248361,0.34584 1.963162,-0.16803 1.963162,-0.16802 1.058334,-0.0848 1.058333,-0.0848 1.015688,-0.0268 1.015688,-0.0268 -0.08965,-1.59918 -0.08965,-1.59919 1.455209,0.0778 1.455208,0.0778 0.0018,4.23333 0.0018,4.23334 0.338242,0.59531 0.338241,0.59531 h 0.65215 0.652149 l -0.06615,0.30073 -0.06615,0.30074 0.79375,0.23647 0.79375,0.23648 1.811403,0.1515 1.811401,0.15151 1.09902,-0.27905 1.09901,-0.27905 1.26888,-0.16311 1.26888,-0.16311 -0.16265,-0.51244 -0.16264,-0.51244 0.41849,-0.16059 0.41849,-0.16059 0.32736,0.2632 0.32736,0.2632 0.86489,-0.13207 0.86489,-0.13207 0.51835,-0.65897 0.51834,-0.65897 -0.28138,-0.52577 -0.28137,-0.52576 -0.58354,0.54821 -0.58354,0.5482 -1.12033,-0.55429 -1.12034,-0.5543 0.30368,-0.36591 0.30368,-0.36591 h 1.05834 1.05833 l -0.32696,-0.39397 -0.32696,-0.39396 -0.21201,0.13103 -0.212,0.13103 -0.0887,-0.20009 -0.0887,-0.20009 -1.16264,-0.90302 -1.16263,-0.90303 -0.35872,0.49058 -0.35872,0.49057 -0.0314,0.54474 -0.0314,0.54475 0.0523,0.37142 0.0523,0.37142 0.53397,0.43239 0.53398,0.43239 -0.0919,0.6437 -0.0919,0.6437 -1.13906,-1.15247 -1.13906,-1.15246 0.17489,-1.48567 0.17489,-1.48567 0.40808,-0.64587 0.40809,-0.64588 1.11061,-1.15902 1.11062,-1.15903 1.16526,-0.25491 1.16526,-0.25492 0.89221,-0.41533 0.89221,-0.41533 0.60188,0.27424 0.60188,0.27423 0.75487,0.98966 0.75487,0.98967 0.0531,1.07895 0.0531,1.07895 0.27655,1.67299 0.27656,1.67299 -0.27285,0.50983 -0.27285,0.50982 h -0.38757 -0.38756 v 0.22358 0.22357 l 0.46302,0.39712 0.46302,0.39713 1.25677,0.59353 1.25677,0.59352 0.008,0.30713 0.008,0.30713 0.36306,-0.47886 0.36306,-0.47885 0.12111,0.21427 0.12111,0.21427 0.17663,0.73843 0.17663,0.73842 0.28348,-0.1752 0.28348,-0.1752 -0.15233,-0.76166 -0.15233,-0.76166 h 0.25797 0.25797 l 0.0182,0.19843 0.0182,0.19844 0.10826,0.66146 0.10827,0.66146 0.0885,0.47029 0.0885,0.4703 0.24093,-0.0734 0.24093,-0.0734 -0.078,-0.59531 -0.078,-0.59532 h 0.39385 0.39385 l -0.0735,0.92604 -0.0735,0.92605 h 0.45852 0.45853 l -0.12297,-1.45521 -0.12298,-1.45521 h 0.28905 0.28906 v 1.21267 1.21268 l 0.33073,-0.11363 0.33073,-0.11363 -0.0157,-1.10532 -0.0157,-1.10533 0.32659,0.33701 0.32659,0.33701 0.0928,1.17085 0.0928,1.17086 0.32389,0.10796 0.32389,0.10797 v -0.60414 -0.60413 l 0.24289,0.25136 0.24288,0.25135 0.0485,0.92604 0.0485,0.92604 -0.0268,0.49133 -0.0268,0.49133 -0.38841,-0.14904 -0.3884,-0.14905 -0.15638,0.25303 -0.15638,0.25303 h 0.644 0.644 l 0.15875,0.79375 0.15875,0.79375 h 0.53579 0.53578 v 0.66146 0.66146 l 0.33073,2e-4 0.33072,2e-4 -0.0482,-1.12468 -0.0482,-1.12468 -0.018,-0.33073 -0.018,-0.33073 h -0.26458 -0.26458 v 0.68351 0.6835 l -0.31631,-0.10543 -0.3163,-0.10544 -0.18998,-0.71036 -0.18998,-0.71036 h 0.20699 0.207 l -0.0984,-0.84476 -0.0984,-0.84476 -0.22738,-0.14743 -0.22738,-0.14743 0.1711,-1.19062 0.1711,-1.19063 0.32163,0.57792 0.32164,0.57792 v 1.60489 1.6049 h 0.92604 0.92604 v -0.66146 -0.66146 h -0.23372 -0.23373 l -0.14534,0.55579 -0.14534,0.55578 -0.28239,-0.17452 -0.28239,-0.17453 v -1.43959 -1.4396 h 0.23627 0.23628 l 0.20126,0.46302 0.20126,0.46302 -0.0573,0.46302 -0.0573,0.46303 h 0.40696 0.40696 l -0.24793,-0.6521 -0.24792,-0.65209 0.18983,-0.11732 0.18984,-0.11733 0.72609,0.13881 0.7261,0.1388 0.0331,0.36603 0.0331,0.36603 0.0662,0.26458 0.0661,0.26459 0.0331,0.52916 0.0331,0.52917 h 0.41249 0.41249 l -0.17924,-0.29002 -0.17924,-0.29002 0.49435,0.0981 0.49436,0.0981 -0.0828,0.58879 -0.0828,0.58879 h 0.37682 0.37681 l -0.12644,-0.66146 -0.12645,-0.66146 h 0.42772 0.42772 v 0.66146 0.66146 h 0.23372 0.23373 l 0.17007,-0.59531 0.17007,-0.59532 0.39841,0.72761 0.3984,0.7276 h 0.12384 0.12384 V 131.72172 118.75714 H 81.709697 31.703447 v 10.96298 10.96298 l 0.26097,0.6864 0.26097,0.6864 0.0585,0.76773 0.0585,0.76773 0.2097,-0.1296 0.20969,-0.1296 0.0186,-0.71199 0.0186,-0.71199 0.22739,-0.52917 0.22739,-0.52917 0.0186,0.32243 0.0186,0.32242 0.36946,-0.14177 0.36945,-0.14177 0.17227,-0.84211 0.17227,-0.84211 0.14868,-0.8599 0.14868,-0.85989 h 0.20031 0.20031 l -0.13214,-1.84689 -0.13215,-1.84689 0.4982,-0.15435 0.4982,-0.15435 0.79375,-0.37171 0.79375,-0.37171 0.92604,0.20572 0.92605,0.20572 -0.56053,0.30584 -0.56052,0.30583 -0.16708,-0.16708 -0.16708,-0.16708 v 0.3243 0.32429 l -0.24199,-0.14955 -0.24198,-0.14956 -0.134,0.33238 -0.13401,0.33238 -0.0209,-0.46302 -0.0209,-0.46302 h -0.28936 -0.28935 l -0.13838,0.52916 -0.13838,0.52917 h -0.21432 -0.21433 l -0.121,-0.46302 -0.121,-0.46302 -0.0307,0.74862 -0.0307,0.74863 0.7276,-0.15403 0.72761,-0.15403 0.79375,0.24256 0.79375,0.24256 -0.33073,0.0227 -0.33073,0.0227 v 0.26458 0.26459 h 0.52916 0.52917 v 0.4983 0.49831 l -0.52917,0.13838 -0.52916,0.13838 v 1.46276 1.46275 l 0.25803,0.67868 0.25804,0.67869 h -0.27694 -0.27693 l 0.41577,0.41577 0.41578,0.41577 v 0.48196 0.48196 l 0.3884,0.14905 0.3884,0.14904 0.13222,-0.21394 0.13223,-0.21394 -0.10509,-1.6507 -0.10509,-1.65071 0.47027,0.42559 0.470265,0.42558 0.05421,-1.85668 0.05421,-1.85667 H 40.16843 39.87425 l 0.17069,-0.27617 0.170684,-0.27618 -0.270534,-0.32597 -0.27053,-0.32597 1.03164,0.0138 1.031637,0.0138 0.472886,-0.18676 0.472886,-0.18677 -1.441979,-0.0186 -1.44198,-0.0186 0.27405,-0.27405 0.274044,-0.27404 1.480773,-0.0177 1.480773,-0.0177 0.141876,-0.36972 0.141877,-0.36973 -0.15813,-0.41208 -0.15813,-0.41208 -0.35426,0.13594 -0.354259,0.13595 -0.15638,-0.25303 -0.15638,-0.25303 h 1.608886 1.608885 l -0.03707,2.05052 -0.03707,2.05052 0.04179,0.9274 0.04179,0.92741 0.250039,0.39551 0.25004,0.39551 0.0041,-0.46302 0.0041,-0.46302 h 0.236276 0.236276 l 0.179495,0.46302 0.179496,0.46302 0.341001,-0.46302 0.341001,-0.46302 0.367707,-0.002 0.367706,-0.002 0.305836,-0.65939 0.305836,-0.65939 -0.305836,-0.0186 -0.305836,-0.0186 0.423579,-0.17984 0.423578,-0.17984 0.833193,-0.79289 0.833192,-0.79289 v -0.41806 -0.41805 l 0.804187,0.11803 0.804187,0.11803 0.518729,-0.46945 0.51873,-0.46944 v 0.33427 0.33428 l 0.631263,-0.15844 0.631264,-0.15844 0.144678,0.55325 0.144678,0.55325 0.29524,-0.18247 0.295239,-0.18246 -0.309828,-0.37332 -0.309828,-0.37332 h 0.398414 0.398413 l 0.13838,0.52916 0.13838,0.52917 h 0.405011 0.40501 l -0.159626,-0.99219 -0.159627,-0.99219 0.46101,0.37987 0.46101,0.37986 0.2334,-0.37765 0.233401,-0.37765 0.328517,0.32852 0.328518,0.32851 h 0.211666 0.211667 v -0.51355 -0.51355 l 0.264583,-0.16352 0.264584,-0.16352 v 0.80936 0.80937 h 0.425558 0.425558 l -0.161946,-0.64525 -0.161946,-0.64524 0.237331,-0.14668 0.23733,-0.14668 0.178695,0.71198 0.178694,0.71198 0.242353,-0.38308 0.242353,-0.38308 0.0041,-0.59531 0.0041,-0.59531 h 0.264583 0.264584 v 0.39687 0.39688 h 0.396875 0.396875 v -0.57326 -0.57327 l 0.165776,0.16578 0.165776,0.16577 0.1247,1.1351 0.124699,1.13509 0.238691,0.25135 0.238691,0.25136 v -1.78833 -1.78832 l 0.234078,0.14467 0.234078,0.14467 0.170742,0.86313 0.170742,0.86313 0.0081,0.46874 0.0081,0.46874 0.24857,-0.15362 0.248571,-0.15363 0.0041,-1.10886 0.0041,-1.10887 0.25648,0.39688 0.25648,0.39687 0.0041,0.71199 0.0041,0.71199 0.264584,0.16352 0.264583,0.16353 0.02929,-0.47864 0.02929,-0.47864 -0.02235,-0.66145 -0.02235,-0.66146 0.378004,0.79375 0.378003,0.79375 0.01193,0.59531 0.01193,0.59531 h 0.372105 0.372105 l -0.137347,-0.52521 -0.137346,-0.52521 0.198536,-0.46698 0.198536,-0.46697 0.20179,0.66146 0.20179,0.66145 0.02637,0.99219 0.02637,0.99219 h 0.264583 0.264583 v -1.5875 -1.5875 h 0.264584 0.264583 l 0.02024,0.8599 0.02024,0.85989 0.09975,0.52917 0.09975,0.52916 0.05757,1.38907 0.05758,1.38906 h 0.36399 0.363991 l -0.07854,-1.45428 -0.07854,-1.45429 -0.175027,-9.2e-4 -0.175026,-9.3e-4 0.08864,-0.46302 0.08864,-0.46302 0.05668,-0.92604 0.05668,-0.92604 0.272494,1.25677 0.272495,1.25677 h 0.220239 0.220239 v -0.66146 -0.66146 h 0.261457 0.261456 l 0.169235,1.05834 0.169234,1.05833 h 0.193913 0.193914 l 0.166846,-1.38906 0.166846,-1.38907 0.0023,-1.38906 0.0023,-1.38906 h 0.661459 0.661458 l -0.02149,1.12448 -0.02149,1.12448 -0.363453,-0.79375 -0.363452,-0.79375 -0.01193,0.85989 -0.01193,0.8599 h 0.529167 0.529166 v -1.19063 -1.19062 l 0.06615,-0.004 0.06615,-0.004 1.058333,-0.38128 1.058333,-0.38127 -0.661458,-0.038 -0.661458,-0.038 0.661458,-0.21183 0.661458,-0.21184 1.609549,-0.0264 1.609549,-0.0264 0.198437,0.19844 0.198438,0.19844 h 0.286632 0.286632 l 0.110243,0.33073 0.110243,0.33073 -1.27882,0.0443 -1.278819,0.0443 -0.661459,0.0437 -0.661458,0.0436 -0.330729,0.0443 -0.330729,0.0443 -0.03483,0.99219 -0.03483,0.99218 -0.170266,-0.92604 -0.170265,-0.92604 -0.207198,0.66146 -0.207198,0.66146 -0.230569,-0.52917 -0.230568,-0.52917 -0.04497,0.79375 -0.04497,0.79375 -0.211836,-0.66145 -0.211836,-0.66146 -0.02637,0.85957 -0.02637,0.85958 1.785938,-0.0381 1.785937,-0.038 1.140095,0.0384 1.140094,0.0384 -0.125776,0.20351 -0.125776,0.20351 -1.800793,0.0809 -1.800792,0.0809 -0.404151,0.26035 -0.404151,0.26034 2.283599,-0.1591 2.283599,-0.15909 0.1702,0.67813 0.170201,0.67813 -0.270987,0.50635 -0.270987,0.50634 v 0.55487 0.55486 l -0.330729,0.12662 -0.330729,0.12662 0.07094,4.20986 0.07094,4.20986 0.395633,0.94688 0.395633,0.94689 h 0.393324 0.393325 z m -8.913847,-14.53647 0.0027,-1.5875 0.107065,0.86463 0.107066,0.86464 -0.109766,0.72286 -0.109765,0.72287 z m 13.689616,-2.38125 -0.06602,-0.79375 -0.211836,0.66146 -0.211836,0.66145 -0.02637,-0.7276 -0.02637,-0.7276 0.859896,0.0307 0.859896,0.0307 -0.447022,0.11792 -0.447021,0.11792 -0.108648,0.71128 -0.108648,0.71129 z m -5.834103,-2.22308 v -0.2387 l 0.801205,-0.2793 0.801205,-0.2793 0.416837,0.15995 0.416836,0.15996 -0.851543,0.35805 -0.851543,0.35804 h -0.366498 -0.366499 z m 43.129883,18.8952 -0.32658,-0.39351 0.15358,-0.40024 0.15359,-0.40025 h -0.24066 -0.24067 l -0.17068,0.27618 -0.17069,0.27617 0.28507,0.34348 0.28507,0.34349 -0.1741,0.17409 -0.17409,0.17409 h 0.47337 0.47337 z m -68.529882,-1.72205 v -0.20484 l -0.66726,-0.4372 -0.667259,-0.43721 -0.411284,0.23017 -0.411283,0.23016 0.67429,0.80135 0.67429,0.80135 -0.05877,0.11338 -0.05877,0.11339 0.463021,-0.50285 0.463021,-0.50285 z m 29.475411,-1.88678 -0.09761,-2.67941 -0.280153,-0.33757 -0.280154,-0.33756 0.323228,-0.10774 0.323228,-0.10775 -0.179133,-0.46681 -0.179133,-0.46681 -0.34812,0.35039 -0.34812,0.35038 0.04774,2.51355 0.04774,2.51354 0.196015,0.7276 0.196016,0.72761 h 0.338035 0.338036 z m 43.814171,1.3565 v -0.52917 h -0.39687 -0.39688 v 0.24254 0.24253 l 0.33073,0.13345 0.33073,0.13346 -0.53862,0.0209 -0.53861,0.0209 v -0.52916 -0.52917 h 0.60476 0.60476 v -0.26963 -0.26962 l -0.66146,0.16602 -0.66146,0.16601 v -0.95472 -0.95473 l -0.33073,-2e-5 -0.33072,-2e-5 0.0222,0.7479 0.0222,0.7479 0.14069,0.24431 0.14069,0.24431 -0.0393,0.7276 -0.0393,0.72761 h 0.86863 0.86864 z m -85.792735,-6.15156 -0.08914,-2.18282 v 4.36563 4.36562 l 0.08914,-2.18281 0.08914,-2.18281 z m 68.953325,5.04222 0.69983,-0.84476 v -0.17388 -0.17388 l -0.75861,-1.04722 -0.7586,-1.04722 0.7586,-0.43538 0.75861,-0.43538 v -0.27688 -0.27689 h -0.39688 -0.39687 l -0.0313,-0.33073 -0.0313,-0.33073 0.0324,-0.20155 0.0324,-0.20155 -0.92381,0.59842 -0.9238,0.59843 -0.003,0.30484 -0.003,0.30485 -0.84319,0.29394 -0.8432,0.29394 0.31403,0.31403 0.31403,0.31402 v 0.49391 0.4939 l 0.7276,0.9743 0.7276,0.97429 0.26459,0.3209 0.26458,0.32091 0.16006,0.0101 0.16007,0.0101 z m -74.276513,-2.45747 -0.15206,-1.85715 -0.0975,-0.66146 -0.0975,-0.66146 -0.0704,-0.52916 -0.0704,-0.52917 -0.44352,2.11667 -0.44352,2.11666 0.25377,0.60282 0.25378,0.60283 0.19578,-0.31678 0.19578,-0.31678 0.21156,1.30146 0.21157,1.30145 0.10234,-0.65639 0.10233,-0.65639 z m 70.456263,2.13446 0.8754,-0.90318 -0.17765,-0.28744 -0.17765,-0.28745 -0.5797,-0.0264 -0.5797,-0.0264 0.66146,-0.21184 0.66146,-0.21184 -0.63023,-0.0264 -0.63023,-0.0264 -0.87987,0.54379 -0.87987,0.54379 0.43462,0.91141 0.43463,0.91142 h 0.29597 0.29597 z m -31.463256,-4.30029 v -4.40972 l -0.130681,0.13068 -0.130682,0.13068 -0.06776,4.2793 -0.06776,4.27931 0.198438,-2.6e-4 0.198437,-2.7e-4 z m -7.966744,1.89618 -0.01036,-1.98437 h -0.22538 -0.225381 l -0.09718,0.46302 -0.09718,0.46302 0.213967,1.1881 0.213966,1.1881 -0.127882,0.33325 -0.127882,0.33326 h 0.246838 0.246837 z m -16.110339,1.45904 v -0.25483 l -0.810625,-0.41919 -0.810625,-0.41919 0.102637,-0.30791 0.102637,-0.30791 0.602148,-0.14214 0.602149,-0.14215 -1.054664,-0.59276 -1.054664,-0.59275 h -0.162413 -0.162413 v 0.76135 0.76136 l 0.424438,0.35225 0.424438,0.35225 0.207606,0.54604 0.207605,0.54605 0.690873,0.0572 0.690873,0.0572 z m -3.241146,-1.23855 v -0.61736 h -0.363802 -0.363802 l -0.0084,0.46302 -0.0084,0.46302 -0.397618,-0.52612 -0.397618,-0.52611 0.273741,-0.0913 0.273741,-0.0912 v -0.24254 -0.24253 h -0.396875 -0.396875 v 0.88194 0.88194 l 0.132292,0.1323 0.132291,0.13229 h 0.760677 0.760677 z m -7.297149,-0.55122 0.04504,-0.99219 0.02111,-1.12522 0.02111,-1.12522 -0.264584,-0.0654 -0.264583,-0.0654 -0.07685,2.18282 -0.07685,2.18281 h 0.275283 0.275284 z m 45.549434,-3.21309 0.148793,-3.8084 -0.231177,0.23653 -0.231177,0.23652 -0.149602,2.60719 -0.149601,2.60719 0.166254,1.0397 0.166254,1.03969 0.06573,-0.075 0.06573,-0.075 z m -43.094585,2.95483 0.175252,-0.4567 -0.177768,-1.65997 -0.177767,-1.65996 h -0.233761 -0.23376 v 2.11666 2.11667 h 0.236276 0.236276 z m 18.137613,-0.71831 v -0.64584 l -0.264584,-0.16353 -0.264583,-0.16352 v 0.80937 0.80936 h 0.264583 0.264584 z m 12.993797,-3.33237 -0.260256,-0.652 -0.01316,1.05834 -0.01316,1.05833 0.194825,0.66146 0.194824,0.66146 0.07859,-1.0678 0.07859,-1.06779 z m 2.616619,2.25842 v -0.39687 l 0.727604,-0.0396 0.727604,-0.0396 -0.727604,-0.11022 -0.727604,-0.11023 v -0.76056 -0.76056 l -0.264583,-0.16352 -0.264584,-0.16352 v 1.47082 1.47083 h 0.264584 0.264583 z M 62.924281,138.3363 v -0.52916 h -0.280198 -0.280198 l 0.186722,-0.33073 0.186722,-0.33073 -0.294733,0.26914 -0.294733,0.26915 0.154484,0.59075 0.154485,0.59075 h 0.233724 0.233725 z m 4.725397,-1.32291 -0.04682,-1.32292 h -0.301784 -0.301783 l 0.09726,0.99219 0.09726,0.99218 0.105891,0.33073 0.105892,0.33073 h 0.145455 0.145456 z m -1.221944,0.73443 0.107967,-0.3239 -0.19436,-1.06287 -0.19436,-1.06287 0.124056,-0.20073 0.124057,-0.20073 H 66.04875 65.702406 v 1.32292 1.32291 h 0.214052 0.214053 l -0.163522,0.26459 -0.163521,0.26458 h 0.258149 0.25815 z m 12.697112,-0.77929 0.309435,0.30944 h 0.230068 0.230069 l -0.08455,-0.56644 -0.08455,-0.56644 -0.859895,-0.0928 -0.859896,-0.0928 0.0036,0.3285 0.0036,0.3285 0.171733,0.64195 0.171734,0.64195 0.229594,-0.62066 0.229595,-0.62065 z m -13.819315,0.0665 v -0.50753 l -0.160599,-0.41852 -0.160599,-0.41851 h -0.183148 -0.183147 l 0.10811,0.92604 0.10811,0.92604 h 0.235637 0.235636 z m 20.524731,0.17932 0.155642,-0.15564 -0.295329,-0.55183 -0.295329,-0.55183 h -0.519858 -0.519857 v 0.73634 0.73634 l 0.659544,-0.0289 0.659545,-0.0289 z m 4.709944,-1.9869 -0.169947,-1.52136 -0.240747,-0.39687 -0.240748,-0.39688 0.159164,0.83414 0.159163,0.83413 -0.595711,0.41725 -0.595711,0.41725 0.626468,0.66685 0.626468,0.66684 h 0.220774 0.220774 z m -1.84069,-1.54966 0.418515,-0.1606 -5.26e-4,-0.17013 -5.26e-4,-0.17013 -0.793224,-0.0555 -0.793224,-0.0555 v 0.38622 0.38623 h 0.375235 0.375235 z"
       id="path20" /></g></svg>
