<?xml version="1.0" encoding="UTF-8" standalone="no"?>
<!-- Created with Inkscape (http://www.inkscape.org/) -->

<svg
   width="101.6mm"
   height="84.666664mm"
   viewBox="0 0 101.6 84.666664"
   version="1.1"
   id="svg1"
   xml:space="preserve"
   xmlns="http://www.w3.org/2000/svg"
   xmlns:svg="http://www.w3.org/2000/svg"><defs
     id="defs1" /><g
     id="layer1"
     transform="translate(-45.54218,-131.8419)"><path
       style="fill:#ffffff;fill-opacity:1"
       d="M 45.54218,174.17523 V 131.8419 h 50.799999 50.800001 v 42.33333 42.33333 H 96.342179 45.54218 Z m 100.80625,0 V 132.63565 H 96.342179 46.33593 v 17.22233 17.22233 l 0.463021,0.58863 0.463021,0.58864 0.264583,0.0484 0.264583,0.0484 0.03307,-0.26458 0.03307,-0.26459 0.04984,-0.33073 0.04984,-0.33073 0.239286,0.59532 0.239287,0.59531 0.73613,0.0313 0.73613,0.0313 0.210722,-0.0354 0.210723,-0.0354 0.847611,0.60007 0.847611,0.60007 0.529166,0.3319 0.529167,0.3319 1.190625,0.78689 1.190625,0.78689 -0.235603,0.005 -0.235603,0.005 -1.15346,-0.57606 -1.153459,-0.57607 v -0.21768 -0.21769 h -0.544782 -0.544781 l 0.163521,-0.26458 0.163522,-0.26458 h -0.384183 -0.384182 l -0.152295,-0.39688 -0.152296,-0.39687 h -0.240089 -0.24009 l 0.33426,1.60177 0.33426,1.60178 0.162415,0.16242 0.162415,0.16241 1.427935,0.11842 1.427935,0.11842 0.159259,0.79629 0.159259,0.7963 v 1.41552 1.41552 l 0.859896,-0.14769 0.859896,-0.14769 -0.859896,0.57716 -0.859896,0.57716 v 0.51149 0.51149 l 0.390076,0.14969 0.390075,0.14968 -0.374232,0.37423 -0.374233,0.37424 0.127959,3.28432 0.127959,3.28433 -0.591184,0.0861 -0.591184,0.0861 -0.186612,0.79375 -0.186611,0.79375 -0.164797,0.7276 -0.164797,0.72761 -0.193397,-0.004 -0.193397,-0.004 -0.32735,-0.20791 -0.327351,-0.20791 0.253539,-0.88404 0.253539,-0.88404 -0.117779,-0.19057 -0.117778,-0.19057 -1.39591,0.31435 -1.39591,0.31434 -0.08499,0.44015 -0.08499,0.44015 0.746444,0.29907 0.746444,0.29908 1.352126,0.61995 1.352126,0.61995 0.433811,0.66208 0.433812,0.66208 v 0.14364 0.14364 l -0.809023,-0.72084 -0.809023,-0.72085 -1.439935,-0.58582 -1.439936,-0.58583 -0.02089,0.31244 -0.02089,0.31244 -0.133452,-0.33073 -0.133452,-0.33073 -1.367014,0.008 -1.367014,0.008 0.529167,0.40591 0.529166,0.40591 -0.727604,-0.17842 -0.727604,-0.17842 v 0.44658 0.44658 l 0.729293,-0.16018 0.729294,-0.16018 1.048535,-0.0941 1.048536,-0.0941 1.339241,0.65683 1.339241,0.65682 0.587097,0.89563 0.587096,0.89562 v 0.16431 0.16431 l -0.416042,-0.15965 -0.416042,-0.15965 -0.576145,0.2967 -0.576146,0.2967 -0.575726,0.52382 -0.575726,0.52382 -0.28417,-0.17562 -0.284169,-0.17563 v -0.18769 -0.18768 l 0.727604,-0.45112 0.727604,-0.45111 -0.351752,-0.007 -0.351751,-0.007 0.174336,-0.79375 0.174337,-0.79375 h -0.304505 -0.304504 l -0.314917,0.33073 -0.314916,0.33073 -0.33144,0.74839 -0.33144,0.74839 -0.326932,-0.10748 -0.326933,-0.10747 -0.132291,-1.43466 -0.132292,-1.43467 -0.198437,0.48466 -0.198438,0.48466 v 0.73972 0.73971 l -0.396875,0.32938 -0.396875,0.32937 -0.396875,-0.32937 -0.396875,-0.32938 v 2.81052 2.81052 h 0.276182 0.276182 l -0.07775,-0.44544 -0.07774,-0.44543 0.661458,-0.18965 0.661459,-0.18965 -0.274033,-0.0264 -0.274033,-0.0264 v -0.52917 -0.52917 h 0.47247 0.472471 v 0.33323 0.33323 l 0.518707,0.32394 0.518707,0.32394 0.407334,-0.15631 0.407335,-0.15631 v 0.30851 0.3085 l 0.292876,-0.181 0.292876,-0.18101 -0.168102,0.76536 -0.168102,0.76537 0.735122,0.4555 0.735122,0.45551 0.507836,0.39552 0.507836,0.39553 -0.482698,0.53337 -0.482697,0.53337 h -0.216962 -0.216961 l 0.156652,-0.78326 0.156652,-0.78326 -0.999723,-0.47351 -0.999722,-0.47351 -0.112184,0.33238 -0.112184,0.33238 -0.286948,-0.17735 -0.286948,-0.17734 0.177254,0.46192 0.177255,0.46192 v 0.25856 0.25855 l 0.264583,-0.16352 0.264584,-0.16352 v 0.41249 0.41249 l 0.198437,5.3e-4 0.198438,5.2e-4 0.05549,0.79323 0.0555,0.79322 h -0.188241 -0.18824 l -0.595593,-1.12448 -0.595593,-1.12448 7.34e-4,-0.29988 7.35e-4,-0.29989 -0.595312,-0.1138 -0.595313,-0.1138 -0.04637,0.54598 -0.04637,0.54598 -0.08502,1.25677 -0.08502,1.25677 h -0.19934 -0.199339 v -0.91043 -0.91043 l -0.27896,-0.1724 -0.27896,-0.17241 0.35936,-0.57081 0.35936,-0.57081 -0.09972,-0.4626 -0.09972,-0.4626 -0.377555,0.37755 -0.377556,0.37756 v 2.77497 2.77498 l 0.330729,0.15434 0.330729,0.15434 -0.330729,0.15434 -0.330729,0.15434 v 4.47587 4.47586 H 96.34215 146.3484 Z m -70.64375,25.93546 -0.396875,-0.22717 -0.899876,-0.3351 -0.899875,-0.33509 0.503,-0.19733 0.503001,-0.19733 -0.447406,-0.0186 -0.447406,-0.0186 -0.181008,-0.29288 -0.181007,-0.29287 0.776731,0.1706 0.776732,0.1706 0.645432,-0.28206 0.645431,-0.28207 -0.624561,0.12264 -0.62456,0.12263 -0.129115,-0.49374 -0.129115,-0.49373 -0.321352,0.12331 -0.321352,0.12332 -0.472246,-0.52183 -0.472246,-0.52182 0.173826,-0.28126 0.173825,-0.28126 H 73.07446 72.794262 v -0.22757 -0.22757 l -0.908274,-0.96305 -0.908275,-0.96306 -0.613079,0.004 -0.61308,0.004 -0.306855,0.19524 -0.306856,0.19525 -0.105796,0.79289 -0.105797,0.79289 -0.18266,-0.46302 -0.18266,-0.46302 -0.123988,-0.39688 -0.123988,-0.39687 H 67.643192 66.97343 l -0.0041,-0.33073 -0.0041,-0.33073 -0.232138,0.36655 -0.232138,0.36654 -1.159592,0.0441 -1.159591,0.0441 -0.257865,0.14267 -0.257866,0.14266 -0.446097,-0.47027 -0.446097,-0.47027 1.384957,-0.17304 1.384957,-0.17304 1.045514,0.09 1.045517,0.09 0.08354,-0.26458 0.08354,-0.26459 0.577917,-0.33581 0.577919,-0.33582 -0.396875,0.0364 -0.396874,0.0364 -0.33073,-0.0314 -0.33073,-0.0314 v -0.29289 -0.29289 l 0.410617,0.15757 0.410617,0.15757 -0.169493,-0.27425 -0.169494,-0.27424 -1.135883,0.17033 -1.135882,0.17034 -0.181856,-0.29425 -0.181856,-0.29425 -0.287198,0.1775 -0.287198,0.1775 -1.745041,0.0339 -1.745041,0.0339 -0.373756,-0.27323 -0.373756,-0.27323 -0.106359,0.31587 -0.106359,0.31586 -0.37978,-0.14573 -0.37978,-0.14574 v -0.50086 -0.50086 l 0.198437,-3.2e-4 0.198438,-3.3e-4 0.793749,-0.66164 0.79375,-0.66165 0.61779,-0.52866 0.617789,-0.52865 h 0.638981 0.638982 v 0.26458 0.26459 h 0.396875 0.396874 v -0.26459 -0.26458 H 64.576468 64.29627 l 0.164676,-0.26645 0.164676,-0.26645 -0.448694,-0.17218 -0.448693,-0.17218 -0.529577,0.33072 -0.529578,0.33073 -0.225073,-0.35511 -0.225072,-0.35512 -0.0041,-0.17367 -0.0041,-0.17367 0.489651,0.12805 0.489649,0.12805 -0.07716,-1.01271 -0.07716,-1.01272 -0.01562,-0.59531 -0.01562,-0.59531 h -0.246753 -0.246754 l -0.167951,0.52916 -0.167951,0.52917 h -0.282115 -0.282115 l -0.625774,-0.7276 -0.625773,-0.72761 -3.23e-4,-0.35903 -3.24e-4,-0.35904 0.341814,0.13117 0.341813,0.13116 0.518082,-0.39481 0.518083,-0.3948 -0.586499,0.17469 -0.586498,0.17469 -0.170225,-0.67823 -0.170225,-0.67823 0.178286,-0.95035 0.178286,-0.95035 -0.302596,0.18702 -0.302597,0.18701 0.06897,-1.29946 0.06897,-1.29947 -0.143888,-0.25057 -0.143888,-0.25056 0.063,-0.66146 0.063,-0.66146 -0.268949,-0.33679 -0.268949,-0.33678 0.434298,0.16665 0.434299,0.16666 0.0041,0.43471 0.0041,0.43472 0.23095,-0.36463 0.230951,-0.36463 0.29848,0.18447 0.298481,0.18448 -0.152223,0.2463 -0.152222,0.2463 h 0.370797 0.370796 l -0.02445,2.88527 -0.02445,2.88528 0.155647,-0.25197 0.155647,-0.25196 0.330152,0.39781 0.330152,0.3978 -0.170685,0.27618 -0.170684,0.27617 0.478635,0.0202 0.478636,0.0203 0.529167,0.0947 0.529166,0.0947 -0.661458,-0.55274 -0.661458,-0.55274 0.551215,0.13695 0.551215,0.13696 0.02336,-0.42672 0.02336,-0.42672 -0.304612,-0.66146 -0.304613,-0.66145 -0.632093,-0.8599 -0.632093,-0.8599 h 0.295987 0.295986 l 0.0186,0.33073 0.0186,0.33073 0.22739,-0.52916 0.227391,-0.52917 0.0186,0.45371 0.0186,0.45371 0.490277,0.26239 0.490277,0.26239 -0.128401,-0.67169 -0.128402,-0.67169 -0.361875,-0.13886 -0.361876,-0.13887 v -0.25189 -0.25189 l 0.245534,0.15175 0.245534,0.15175 0.163276,-0.51444 0.163276,-0.51444 0.980253,0.13628 0.980252,0.13628 0.396875,0.16124 0.396875,0.16125 1.190625,0.0146 1.190625,0.0146 -0.03675,0.46302 -0.03675,0.46302 h 0.148206 0.148206 l 0.418129,-0.3784 0.418129,-0.3784 1.799192,-0.1436 1.799192,-0.14361 0.250908,-0.15507 0.250909,-0.15506 v -0.28205 -0.28204 l -0.782605,0.15652 -0.782604,0.15652 -0.991293,-0.41418 -0.991293,-0.41419 0.384835,0.46532 0.384835,0.46532 -2.513542,-0.18828 -2.513542,-0.18827 -1.133148,-0.28448 -1.133149,-0.28448 -0.280425,-0.52398 -0.280425,-0.52398 0.23638,-0.23638 0.236381,-0.23638 1.313798,-0.0783 1.313799,-0.0783 0.355997,-0.22002 0.355997,-0.22002 0.23095,0.36463 0.230951,0.36462 0.04573,-0.52916 0.04573,-0.52917 -0.0016,-0.26458 -0.0016,-0.26459 1.348996,0.11736 1.348997,0.11735 -0.661459,0.089 -0.661458,0.089 -0.595312,0.12941 -0.595313,0.1294 v 0.22562 0.22561 l 1.613119,-0.0951 1.613118,-0.0951 0.157878,0.59207 0.157878,0.59207 0.156296,-0.64932 0.156296,-0.64932 1.181562,-0.0735 1.181561,-0.0735 0.396875,0.27997 0.396875,0.27996 -0.330729,0.1342 -0.330729,0.1342 v 0.23423 0.23423 l 0.370112,-0.14202 0.370112,-0.14203 0.17467,0.28262 0.174669,0.28262 h 0.364036 0.364036 l 0.744828,-0.30201 0.744829,-0.30201 0.46302,-0.0507 0.463021,-0.0506 v 0.15672 0.15672 l -0.50608,0.31605 -0.506081,0.31605 -1.346003,0.17856 -1.346002,0.17855 v 0.26529 0.26529 l 2.007361,-0.12882 2.007361,-0.12883 0.137613,0.35862 0.137613,0.35861 h 0.368567 0.368568 v 0.92604 0.92604 h 0.548065 0.548066 l -0.406325,-0.40632 -0.406324,-0.40632 0.542646,-0.54265 0.542645,-0.54265 -0.154765,-0.61663 -0.154765,-0.61663 0.223195,-0.088 0.223195,-0.088 0.178266,-0.7276 0.178266,-0.72761 h -0.375632 -0.375633 l -0.284963,0.99219 -0.284963,0.99219 0.0897,-0.7276 0.0897,-0.72761 h -0.492476 -0.492476 l -0.03133,0.46302 -0.03133,0.46302 0.03133,0.19844 0.03133,0.19844 H 80.2334 79.999675 l -0.133132,-0.46302 -0.133133,-0.46302 -0.176754,-0.4269 -0.176754,-0.42689 1.099088,-0.17575 1.099088,-0.17576 -0.357039,-0.43908 -0.357039,-0.43907 0.504152,0.1893 0.504152,0.18931 0.620327,-0.58276 0.620327,-0.58277 v -0.40053 -0.40053 l -0.595313,-0.88447 -0.595312,-0.88448 -0.435157,0.10844 -0.435158,0.10845 -0.292447,-0.64185 -0.292446,-0.64185 v -0.21734 -0.21733 l 1.431612,-0.0129 1.431612,-0.0129 0.569676,-0.30488 0.569675,-0.30488 0.376831,0.31274 0.376832,0.31275 0.165023,-0.43005 0.165023,-0.43004 -0.326581,-0.39351 -0.326581,-0.3935 h 0.403736 0.403736 l 0.09168,1.31951 0.09168,1.31952 -0.272403,-0.0627 -0.272403,-0.0627 0.0078,0.26458 0.0078,0.26459 0.264583,-0.0911 0.264584,-0.0911 0.727604,-0.0948 0.727604,-0.0948 v 0.63167 0.63166 l 0.232886,0.61254 0.232886,0.61253 h -0.872008 -0.872009 l -0.255477,-0.40908 -0.255478,-0.40909 0.497725,-0.0375 0.497725,-0.0375 v 0.24814 0.24814 h 0.220486 0.220486 v -0.79375 -0.79375 h -0.204871 -0.204871 l -0.170173,0.27534 -0.170173,0.27535 -0.440755,-0.13701 -0.440754,-0.13702 -0.396875,0.25855 -0.396875,0.25854 0.396875,0.26961 0.396875,0.26961 -0.529167,0.40562 -0.529166,0.40562 -0.132292,-1.27055 -0.132292,-1.27054 -0.188028,0.28862 -0.188028,0.28863 -0.04656,2.62179 -0.04656,2.6218 -0.260833,0.33073 -0.260833,0.33072 h 0.429272 0.429272 v 0.23373 0.23372 l 0.529166,0.13838 0.529167,0.13838 0.02929,-0.30595 0.02929,-0.30596 -0.04244,-0.55122 -0.04244,-0.55121 0.476178,-0.008 0.476177,-0.008 0.330729,0.26092 0.330729,0.26091 v -0.48219 -0.48219 l 0.3175,0.3175 0.3175,0.3175 h 0.211667 0.211666 v -0.668 -0.66801 l 0.633711,-0.24094 0.63371,-0.24093 0.157597,-0.34783 0.157598,-0.34783 -0.162232,0.66146 -0.162231,0.66146 -0.26218,0.32782 -0.262181,0.32781 -0.26295,-0.16251 -0.26295,-0.16251 0.178467,0.5623 0.178467,0.5623 H 87.862392 87.54912 l 0.13838,0.52916 0.13838,0.52917 h -0.362795 -0.362796 l -0.283202,0.52917 -0.283201,0.52916 H 86.14632 85.758754 v 0.34018 0.34018 h 0.509741 0.509742 l -0.128482,-0.20788 -0.128481,-0.20789 h 0.308881 0.308882 l -0.144252,0.59531 -0.144251,0.59531 -0.293782,2.1818 -0.293782,2.1818 0.146977,2.5807 0.146977,2.5807 0.166703,0.89815 0.166703,0.89814 -0.342085,-0.21142 -0.342085,-0.21142 0.191454,0.30978 0.191455,0.30978 0.246301,-0.15222 0.246301,-0.15223 v 0.92276 0.92276 l 0.396875,0.39688 0.396875,0.39687 -0.0041,0.34963 -0.0041,0.34963 -0.256481,-0.39688 -0.25648,-0.39687 -0.03239,0.52916 -0.03239,0.52917 -0.251819,-1.12448 -0.251819,-1.12448 h -0.278854 -0.278855 l 0.168178,2.51354 0.168177,2.51354 H 86.161569 85.75865 v 0.34738 0.34737 l -0.834671,0.77711 -0.834671,0.7771 0.188828,-0.33073 0.188827,-0.33073 h -0.428105 -0.428104 l 0.181405,0.29352 0.181406,0.29353 -0.754042,0.64792 -0.754041,0.64793 -0.470448,-0.12302 -0.470447,-0.12303 0.117062,0.18941 0.117062,0.18941 -1.042739,0.27833 -1.042738,0.27832 -0.0041,-0.42626 -0.0041,-0.42626 -0.194386,0.26458 -0.194386,0.26458 -0.396875,0.10403 -0.396875,0.10403 -0.661459,-0.0402 -0.661458,-0.0402 -0.08819,-0.2623 -0.08819,-0.2623 -0.440972,0.004 -0.440972,0.004 0.396875,0.25648 0.396875,0.25648 -0.264584,0.0226 -0.264583,0.0226 0.529167,0.22739 0.529166,0.22739 0.79375,0.0387 0.79375,0.0387 -0.926041,0.35662 -0.926042,0.35661 -0.529167,0.005 -0.529166,0.005 z m 3.896621,-1.97781 0.06016,-0.045 0.09383,-0.61484 0.09383,-0.61484 0.840369,-0.0661 0.840368,-0.0661 0.407223,-0.33797 0.407225,-0.33796 -0.309117,-0.19105 -0.309116,-0.19104 -1.011579,-0.014 -1.011578,-0.014 0.162509,0.42349 0.162509,0.42349 -0.309547,-0.19131 -0.309546,-0.19131 -2.69e-4,-0.31512 -2.7e-4,-0.31511 -1.322647,-0.74287 -1.322648,-0.74286 v -0.27763 -0.27763 l 0.389218,0.14936 0.389218,0.14935 0.350726,-0.35072 0.350726,-0.35073 0.616106,-0.19554 0.616107,-0.19555 -0.18104,0.29293 -0.181041,0.29293 0.346344,-0.004 0.346344,-0.004 0.595313,-0.15954 0.595312,-0.15954 v -0.22542 -0.22542 l -0.396874,0.15229 -0.396876,0.1523 v -0.42518 -0.42519 h 0.283482 0.283482 l 0.396352,-0.39635 0.396349,-0.39635 0.533453,0.2855 0.533454,0.28549 0.153729,-0.15372 0.153728,-0.15373 H 82.58693 82.237243 l 0.474397,-0.52421 0.474398,-0.5242 -0.350231,-0.422 -0.350231,-0.42201 0.335899,-0.20759 0.3359,-0.2076 -0.440699,-0.16911 -0.440697,-0.16912 h -0.63982 -0.639819 v -0.24896 -0.24897 l 0.264584,-0.16352 0.264583,-0.16353 v -0.20383 -0.20383 l -0.595313,0.021 -0.595312,0.021 0.06297,-0.32121 0.06297,-0.32121 -0.376994,0.14467 -0.376996,0.14467 0.141284,0.36818 0.141283,0.36818 -0.403674,0.40367 -0.403674,0.40367 h -0.204107 -0.204108 l 0.317501,-0.3175 0.3175,-0.3175 v -0.20336 -0.20336 l -0.442809,0.16992 -0.442809,0.16992 0.166984,-0.43515 0.166983,-0.43515 -0.385633,-0.38563 -0.385632,-0.38564 v -0.15119 -0.15119 h 0.740833 0.740833 l 0.278169,0.27817 0.278169,0.27817 0.480303,-0.73304 0.480304,-0.73303 -0.0041,-0.40503 -0.0041,-0.40503 0.283047,-0.18405 0.283048,-0.18405 -0.16694,-0.16694 -0.166941,-0.16694 -2.149637,0.18751 -2.149637,0.18752 0.139132,0.13913 0.139132,0.13913 -0.294685,0.35507 -0.294685,0.35508 H 75.936813 75.17546 v 0.22789 0.22789 l 0.637887,-0.12194 0.637887,-0.12194 0.486592,0.28288 0.486592,0.28288 -1.124479,0.008 -1.124479,0.008 v 0.52916 0.52917 l -0.330729,0.0209 -0.330729,0.0209 0.333761,0.13446 0.333761,0.13446 0.279912,0.52302 0.279912,0.52302 -0.302289,0.36424 -0.302288,0.36423 -0.423465,-0.16249 -0.423464,-0.1625 0.175195,0.45655 0.175195,0.45655 -0.301691,-0.18646 -0.301691,-0.18645 -0.290591,0.37277 -0.290592,0.37278 -0.867059,0.71493 -0.86706,0.71492 -0.455857,-0.17078 -0.455856,-0.17077 0.368084,0.45238 0.368084,0.45239 0.469884,-0.14913 0.469883,-0.14914 -0.141222,0.54004 -0.141223,0.54003 h 0.449782 0.449783 l -0.108919,0.33073 -0.108919,0.33073 -0.574588,0.0846 -0.574588,0.0846 v 0.19629 0.19629 l 0.53106,0.57003 0.53106,0.57002 0.394982,-0.15157 0.394981,-0.15156 v 0.69807 0.69807 l 0.380169,0.14588 0.380168,0.14588 -0.148045,0.3858 -0.148044,0.3858 0.230897,-0.0421 0.230897,-0.0422 0.346344,0.0313 0.346344,0.0313 -0.153625,0.24857 -0.153625,0.24857 0.468739,-0.007 0.468739,-0.007 1.190625,0.3954 1.190625,0.3954 0.661459,-0.1454 0.661458,-0.14541 z m -5.922376,-4.10827 0.09239,-0.65583 0.805198,-0.16468 0.805197,-0.16468 -0.0609,0.42364 -0.0609,0.42363 -0.637509,0.0928 -0.637509,0.0928 -0.199178,0.30405 -0.199178,0.30406 z m 1.496588,-1.97798 v -0.38485 l 0.635039,-0.63504 0.63504,-0.63504 0.419422,-0.16094 0.419422,-0.16095 -0.326857,0.58457 -0.326858,0.58457 -0.608944,0.59627 -0.608944,0.59626 h -0.11866 -0.11866 z m 3.505729,-0.43144 -0.595312,-0.22499 v -0.66068 -0.66067 l 0.489059,-0.26174 0.489059,-0.26173 0.757607,0.20261 0.757606,0.20262 -0.519061,0.20353 -0.519062,0.20354 0.79375,0.34299 0.79375,0.343 -0.765724,0.30497 -0.765724,0.30498 -0.160318,0.0933 -0.160317,0.0933 z m 3.317343,5.69413 0.590816,-0.41382 0.498487,0.15821 0.498486,0.15822 -0.03824,-0.472 -0.03824,-0.47199 0.355534,0.0744 0.355534,0.0744 -0.111675,-0.339 -0.111675,-0.339 -0.514945,-0.0767 -0.514945,-0.0767 -0.770603,0.80433 -0.770603,0.80434 h -0.347373 -0.347374 v 0.26458 0.26459 h 0.338003 0.338004 z m -15.735281,-11.78363 0.145342,-0.55578 0.26411,0.16322 0.264109,0.16323 0.17402,-0.28157 0.174019,-0.28157 -0.152288,-0.39685 -0.152288,-0.39686 -0.788282,0.8064 -0.788281,0.8064 H 64.997972 64.59218 v 0.26459 0.26458 h 0.762891 0.762891 z m 18.966375,-2.32614 v -0.46946 l -0.169195,-0.16919 -0.169196,-0.1692 -0.192196,0.11878 -0.192196,0.11879 0.127063,0.66469 0.127064,0.66469 0.234328,-0.14483 0.234328,-0.14482 z m -5.966354,-3.69922 -0.251354,-0.23116 -1.124479,-0.14054 -1.124479,-0.14054 v 0.22183 0.22183 l 0.727604,0.11022 0.727604,0.11023 0.648229,0.0396 0.64823,0.0396 z m 0.717661,-2.03746 0.09626,-1.21028 -0.187521,-0.30341 -0.187521,-0.30342 -0.212824,0.21299 -0.212823,0.21299 v 1.3006 1.3006 l 0.304087,1.1e-4 0.304087,1e-4 z m -13.801306,0.18925 v -0.46064 l 0.3175,-0.3175 0.3175,-0.3175 h -0.428152 -0.428152 l -0.352369,-0.0889 -0.352369,-0.0889 0.198438,0.11097 0.198437,0.11098 v 0.91961 0.9196 l 0.264583,-0.16352 0.264584,-0.16352 z m 28.543301,22.35818 0.361075,-0.43507 h -0.429272 -0.429271 v -0.22942 -0.22943 l -1.058334,-0.70037 -1.058333,-0.70037 v -0.19724 -0.19724 l 0.859896,0.003 0.859896,0.003 -0.08674,-0.61868 -0.08673,-0.61867 0.48361,0.0938 0.483611,0.0938 0.0034,0.44001 0.0034,0.44002 0.188669,0.18867 0.188669,0.18867 0.408232,-0.3388 0.408232,-0.3388 0.478891,0.43339 0.478891,0.43339 h 0.196503 0.196503 l -0.415774,-0.41578 -0.415774,-0.41577 v -0.26458 -0.26459 l 0.415774,0.41578 0.415774,0.41577 h 0.245684 0.245685 v 0.3775 0.37749 l 0.8344,0.41626 0.8344,0.41625 h 0.242832 0.242832 l 0.421288,0.42129 0.42129,0.42128 0.69675,-0.13935 0.69676,-0.13935 0.38441,0.24318 0.38441,0.24318 -0.66145,0.0378 -0.66146,0.0378 -0.52917,0.0656 -0.52917,0.0656 -3.040654,0.20343 -3.040657,0.20344 z m -41.594845,-0.61022 -0.177623,-0.17763 v -0.74965 -0.74965 h 0.544782 0.544781 l -0.149555,0.24198 -0.149555,0.24199 0.321118,0.10704 0.321119,0.10704 -0.538723,0.57825 -0.538722,0.57825 z m 51.945294,-0.3038 0.39688,-0.25078 1.52135,-0.11992 1.52135,-0.11993 v 0.22021 0.2202 l -1.25677,0.004 -1.25677,0.004 -0.66146,0.14688 -0.66145,0.14689 z m -2.70874,-0.50812 0.33397,-0.11131 -0.15115,-0.24456 -0.15114,-0.24456 h 0.69269 0.69268 l -0.16282,-0.26346 -0.16283,-0.26346 0.67638,-0.30817 0.67638,-0.30818 v -0.22716 -0.22715 l -0.72761,0.16907 -0.7276,0.16906 -0.34547,0.43129 -0.34547,0.43129 -0.44828,-0.0926 -0.44828,-0.0926 -0.19439,-0.30428 -0.19438,-0.30428 -0.004,-0.23084 -0.004,-0.23083 0.3396,0.28184 0.3396,0.28185 0.25571,-0.1833 0.25571,-0.18331 0.0265,-0.33073 0.0265,-0.33073 0.0397,-0.28019 0.0397,-0.2802 0.30547,0.18878 0.30546,0.18879 -0.18541,-0.29999 -0.1854,-0.3 0.29009,-0.54204 0.29009,-0.54205 0.20344,0.12573 0.20343,0.12573 -0.10474,-0.71363 -0.10474,-0.71363 h -1.1703 -1.1703 v 0.20523 0.20523 l -0.73218,-0.37862 -0.732176,-0.37862 -0.325142,-1.21568 -0.325143,-1.21567 H 98.98924 98.723641 l 0.0016,0.46302 0.0016,0.46302 0.379555,0.72761 0.379554,0.7276 H 98.471615 97.45728 l -0.152296,-0.39687 -0.152295,-0.39688 h 0.23845 0.23845 l 0.16675,-0.59531 0.166751,-0.59531 0.272003,-0.66146 0.272003,-0.66146 0.513018,-0.99219 0.513018,-0.99219 h -0.378893 -0.378892 l -0.253644,0.72761 -0.253644,0.7276 -0.01422,0.235 -0.01422,0.23501 -0.304772,0.18836 -0.304772,0.18836 -0.056,0.37038 -0.05599,0.37039 -0.253092,0.39688 -0.253091,0.39687 -0.0269,0.13229 -0.0269,0.1323 -0.226927,0.52916 -0.226928,0.52917 -0.358133,0.36223 -0.358133,0.36222 -0.08581,-0.0976 -0.08581,-0.0976 0.365506,-2.62128 0.365506,-2.62127 -0.131329,-0.13133 -0.131329,-0.13133 -0.375168,0.90052 -0.375169,0.90052 -0.190496,1.27666 -0.190496,1.27666 -0.211056,-0.21832 -0.211055,-0.21833 -0.417378,-1.6257 -0.417378,-1.62569 0.0041,-0.75555 0.0041,-0.75556 0.217741,0.34325 0.217741,0.34325 0.339771,-0.4094 0.339771,-0.4094 h 0.629061 0.629062 l 7.61e-4,-0.19843 7.6e-4,-0.19844 0.774198,-0.51869 0.774198,-0.51869 -0.117068,-0.18942 -0.117068,-0.18942 -0.727373,0.2086 -0.727373,0.20861 -1.186813,0.54408 -1.186811,0.54408 -0.0335,-0.0446 -0.0335,-0.0446 -0.177067,-1.5875 -0.177067,-1.5875 0.23206,0.34101 0.232059,0.34102 0.771776,0.0559 0.771779,0.0559 v -0.39636 -0.39636 l -0.991473,-0.52968 -0.991472,-0.52968 -7.16e-4,-0.93927 -7.14e-4,-0.93928 0.297597,-0.29759 0.297595,-0.2976 0.656037,0.60831 0.656036,0.60831 1.016938,0.33562 1.016936,0.33562 0.137794,0.35909 0.137792,0.35908 h 0.537471 0.537471 v -0.26459 -0.26458 h -0.396875 -0.396875 v -0.39687 -0.39688 l -0.330729,-0.0305 -0.330729,-0.0305 -0.264584,-0.0356 -0.264583,-0.0356 -0.101034,-0.26458 -0.101034,-0.26459 -1.089591,-0.65618 -1.089591,-0.65619 -0.236351,0.0735 -0.236351,0.0735 0.179673,-1.52873 0.179673,-1.52874 0.44404,-0.66671 0.444041,-0.66672 -0.06929,-0.43958 -0.06929,-0.43958 0.277243,-0.17135 0.277244,-0.17134 0.01405,0.87551 0.01405,0.87551 0.145617,1.5875 0.145616,1.5875 0.229164,0.39687 0.229165,0.39688 0.03258,-1.85208 0.03258,-1.85209 -0.02006,-1.19062 -0.02006,-1.19063 1.384586,2.84116 1.384585,2.84116 0.198437,0.003 0.198438,0.003 v -0.51355 -0.51355 l -0.259165,-0.16017 -0.259165,-0.16017 0.228296,-0.45076 0.228295,-0.45075 0.283593,-0.66146 0.283593,-0.66146 0.395239,-0.99219 0.39523,-0.99219 h -0.2109 -0.2109 l -0.464099,1.12448 -0.4641,1.12448 -0.352912,0.79375 -0.352913,0.79375 -0.01692,-0.44799 -0.01692,-0.44798 -1.147489,-2.26671 -1.147488,-2.2667 0.368741,-0.52646 0.368742,-0.52645 h 0.373568 0.373568 l -0.152295,-0.39687 -0.152295,-0.39688 h 0.264583 0.264583 l 0.144415,0.37634 0.144414,0.37634 0.567718,-0.14847 0.567718,-0.14846 -0.346114,-0.21391 -0.346111,-0.21391 -0.206161,0.31677 -0.206161,0.31676 0.08172,-0.58593 0.08173,-0.58592 0.631166,-0.54741 0.631168,-0.54741 0.346182,0.13284 0.346182,0.13285 v -0.25628 -0.25628 l 1.52136,0.0209 1.52135,0.0209 -0.33238,0.13401 -0.33237,0.134 0.14955,0.24198 0.14956,0.24199 h 0.39687 0.39688 l -0.16353,-0.26458 -0.16352,-0.26459 h 0.13546 0.13546 l 0.68413,0.31171 0.68413,0.31171 -0.13949,0.36349 -0.13948,0.36349 0.26336,-0.16276 0.26336,-0.16277 0.76692,0.5461 0.76691,0.54609 0.69764,1.19043 0.69764,1.19043 h 0.14982 0.14982 l -0.17995,-0.72761 -0.17995,-0.7276 -0.70863,-0.7073 -0.70863,-0.70729 -0.34993,-0.35104 -0.34993,-0.35104 -0.59143,-0.5791 -0.59142,-0.5791 -1.17531,-0.40924 -1.17531,-0.40923 -1.38906,-0.004 -1.389067,-0.004 -0.02024,-0.19844 -0.02024,-0.19844 -0.09877,-0.39687 -0.09877,-0.39688 -0.148504,-0.66145 -0.148504,-0.66146 0.157274,0.33073 0.157274,0.33073 h 0.229399 0.229398 l 0.6069,-1.32292 0.6069,-1.32292 h 0.19999 0.19999 v 0.27068 0.27069 l 0.71737,-0.46912 0.71737,-0.46912 -0.20382,0.33073 -0.20382,0.33073 h 0.37201 0.372 l 0.6038,0.52367 0.60381,0.52367 0.21138,-0.13064 0.21138,-0.13064 0.16917,0.53301 0.16917,0.53301 h 0.33495 0.33495 l 0.17696,-0.17697 0.17697,-0.17696 -0.35723,-0.41835 -0.35724,-0.41835 -0.18649,-0.5211 -0.18649,-0.5211 0.19662,0.19662 0.19662,0.19662 0.32926,-0.73385 0.32927,-0.73385 -0.0565,0.52916 -0.0565,0.52917 -0.17572,0.28109 -0.17571,0.28109 0.46951,0.71574 0.46952,0.71574 0.3637,-0.73225 0.36369,-0.73224 0.0981,0.79375 0.0981,0.79375 0.2049,0.21202 0.20489,0.21202 0.44231,-0.67504 0.4423,-0.67504 h 0.40639 0.40639 l -0.17999,-0.29124 -0.18,-0.29124 -0.76166,0.15233 -0.76166,0.15233 v -0.23592 -0.23592 l 0.33073,-0.11127 0.33073,-0.11127 -0.88707,-0.0261 -0.88707,-0.0262 -0.14922,-0.14922 -0.14921,-0.14921 h 0.9485 0.9485 l 0.41851,-0.1606 0.41852,-0.1606 v -0.66146 -0.66146 l 0.41851,0.1606 0.41852,0.1606 h 0.39085 0.39085 l -0.19131,0.30955 -0.19131,0.30954 0.40645,-0.15597 0.40645,-0.15597 1.19943,-0.17986 1.19944,-0.17987 -0.0411,0.48931 -0.0411,0.48931 0.79375,0.042 0.79375,0.042 -0.59531,-0.12652 -0.59532,-0.12652 v -0.18144 -0.18144 l 0.92605,-0.28985 0.92604,-0.28985 v 0.37302 0.37301 l -0.26459,-0.16352 -0.26458,-0.16352 v 0.28019 0.2802 h 0.24569 0.24568 l 0.42961,-0.42961 0.4296,-0.4296 -0.15763,-0.82717 -0.15763,-0.82716 0.30131,0.48459 0.30131,0.48459 -0.13365,0.51106 -0.13364,0.51106 0.5053,0.27043 0.5053,0.27043 -0.004,0.32142 -0.004,0.32142 -0.24614,-0.38921 -0.24615,-0.38921 -0.20945,0.20944 -0.20945,0.20945 -0.003,0.44435 -0.003,0.44435 -0.39687,0.0122 -0.39688,0.0122 -0.55253,0.30491 -0.55254,0.30492 -0.54208,-0.14176 -0.54209,-0.14176 -0.17776,0.28764 -0.17777,0.28763 h 0.82826 0.82827 l 0.39484,0.39484 0.39485,0.39485 -0.16478,0.26661 -0.16477,0.26662 0.61092,0.0119 0.61093,0.0119 -0.79375,0.36345 -0.79375,0.36346 1.14653,0.0215 1.14653,0.0215 -0.11362,-0.33073 -0.11361,-0.33073 0.20436,-0.72404 0.20437,-0.72404 -0.24509,-0.15147 -0.24509,-0.15147 v -0.56711 -0.5671 l 0.92604,1.80829 0.92604,1.80829 v 0.11296 0.11296 l -0.26458,-0.16352 -0.26459,-0.16352 v 0.28019 0.2802 h 0.36857 0.36857 l 0.1606,0.41852 0.1606,0.41851 v 0.12848 0.12848 l -0.5069,-0.16088 -0.5069,-0.16088 -0.15542,0.25147 -0.15542,0.25147 0.15444,0.40245 0.15443,0.40245 0.8119,-0.0231 0.8119,-0.0231 0.32046,0.43826 0.32047,0.43826 h 0.27951 0.27951 l 0.15728,-0.33073 0.15727,-0.33073 -0.11039,0.59505 -0.11038,0.59505 0.23974,0.14817 0.23975,0.14817 v -0.80937 -0.80936 h 0.41249 0.41249 l -0.2064,0.33073 -0.2064,0.33073 -0.0721,0.46302 -0.0721,0.46302 h 0.42352 0.42352 l -0.12583,-0.33073 -0.12583,-0.33073 0.22758,-0.61231 0.22758,-0.61231 0.26682,0.1649 0.26682,0.16491 v 0.49572 0.49572 l 0.54911,0.17428 0.5491,0.17428 -0.12957,0.12957 -0.12957,0.12957 -0.53577,-0.28673 -0.53577,-0.28674 -0.18224,0.29488 -0.18225,0.29488 0.36463,0.24314 0.36462,0.24315 1.22345,-0.0743 1.22345,-0.0743 -0.13311,0.34594 -0.13311,0.34593 -0.36084,-0.13846 -0.36084,-0.13847 -0.5108,0.54827 -0.51079,0.54828 -0.28485,-0.17605 -0.28485,-0.17604 v 0.67707 0.67707 h 0.3646 0.36461 l 0.43032,0.59532 0.43033,0.59531 -0.0673,-0.50172 -0.0673,-0.50172 0.33073,-0.11564 0.33072,-0.11564 v 0.5356 0.5356 l 0.2689,0.16619 0.2689,0.16619 -0.16853,0.27269 -0.16854,0.2727 0.57381,-0.30709 0.57381,-0.3071 -0.15966,-0.50306 -0.15967,-0.50305 0.29252,-0.54657 0.29251,-0.54658 0.25131,0.15532 0.25131,0.15532 v 0.78644 0.78644 l -0.39687,0.15229 -0.39688,0.1523 v 0.35016 0.35017 l -0.57459,0.0846 -0.57459,0.0845 -0.10891,0.33073 -0.10892,0.33073 h 0.44723 0.44723 l -0.14276,0.37202 -0.14275,0.37201 0.51132,0.46274 0.51132,0.46275 v 0.2184 0.21841 l -0.85066,-0.099 -0.85066,-0.099 0.50062,0.36607 0.50062,0.36606 -0.11298,0.0992 -0.11298,0.0992 -0.59531,0.30973 -0.59531,0.30973 v 0.23864 0.23864 l 0.99219,-0.12862 0.99218,-0.12863 0.67708,-0.1026 0.67707,-0.1026 -0.18171,1.5411 -0.18172,1.54111 0.18508,2.6687 0.18507,2.66869 0.50668,0.55987 0.50668,0.55988 -0.52566,0.40857 -0.52565,0.40857 0.46302,-0.15958 0.46302,-0.15958 v 0.43267 0.43267 l 0.17409,-0.1741 0.1741,-0.17409 0.35507,0.29468 0.35507,0.29469 0.004,-0.62771 0.004,-0.62771 0.2463,-0.38946 0.2463,-0.38946 0.19316,0.50335 0.19315,0.50335 1.01426,1.04513 1.01426,1.04513 -0.0565,-0.89444 -0.0565,-0.89443 0.21459,-0.62845 0.21458,-0.62845 -0.30353,0.1876 -0.30353,0.18759 0.16531,-0.65868 0.16532,-0.65868 -0.55159,-0.17507 -0.55158,-0.17506 v -1.73436 -1.73436 l 0.34575,0.28695 0.34575,0.28695 0.46124,-0.78081 0.46124,-0.78081 -0.2565,-0.92895 -0.2565,-0.92896 h 0.22121 0.22121 l 0.13345,0.33073 0.13345,0.33073 0.0209,-0.33073 0.0209,-0.33073 h 0.37482 0.37483 l 0.14664,-0.33072 0.14665,-0.33073 -0.0442,0.39687 -0.0442,0.39688 0.19882,0.58531 0.19882,0.58532 -0.28855,0.53916 -0.28855,0.53916 h -0.51979 -0.51985 v 0.24295 0.24294 l -0.1606,0.41852 -0.1606,0.41851 h 0.4318 0.43179 l 0.15985,0.79926 0.15986,0.79925 0.2304,0.1424 0.23041,0.1424 v -0.65984 -0.65985 l -0.25803,-0.67869 -0.25804,-0.67868 h 0.34594 0.34593 l 0.25508,0.8599 0.25508,0.85989 -0.14454,1.71979 -0.14454,1.7198 -0.46302,-0.0778 -0.46302,-0.0777 v 0.24787 0.24788 l 0.40783,0.1565 0.40784,0.1565 -0.0611,1.0349 -0.0611,1.0349 -0.34677,-0.13307 -0.34677,-0.13307 -0.008,0.75591 -0.008,0.75592 -0.38846,-0.51359 -0.38846,-0.5136 v 0.97662 0.97661 h 0.28019 0.2802 l -0.14638,0.23686 -0.14639,0.23686 0.4615,0.20158 0.4615,0.20158 -0.79375,0.19171 -0.79375,0.19172 -1.04386,0.0313 -1.04385,0.0313 -0.72685,-0.69636 -0.72684,-0.69636 -0.60515,-1.94947 -0.60514,-1.94947 h -0.68891 -0.68891 l -0.17228,-0.17228 -0.17228,-0.17227 0.45891,-0.33908 0.45891,-0.33908 -0.33073,-0.33531 -0.33073,-0.33532 v -0.56753 -0.56753 l -0.5093,-0.46092 -0.50931,-0.46092 -1.00732,0.6845 -1.00732,0.68449 h -0.61787 -0.61787 l 0.16836,0.53047 0.16837,0.53047 -0.39905,0.15313 -0.39905,0.15313 -0.47909,-0.27868 -0.47909,-0.27868 0.33073,-0.008 0.33073,-0.008 v -0.39688 -0.39687 l -0.19844,0.004 -0.19844,0.004 -0.29112,0.19439 -0.29112,0.19438 -0.2951,0.56094 -0.29511,0.56094 -1.61017,-0.0319 -1.61017,-0.0319 0.12647,0.48365 0.12648,0.48364 -0.79985,0.27883 -0.79984,0.27883 0.24363,0.16366 0.24363,0.16367 -0.64777,1.67883 -0.64777,1.67883 -0.75326,0.26259 -0.75326,0.26258 0.0236,0.17525 0.0236,0.17525 -0.0313,0.33073 -0.0313,0.33073 h -0.91692 -0.91692 l -0.82968,-0.81104 -0.82968,-0.81104 0.17113,-0.17113 0.17114,-0.17113 0.48607,0.30356 0.48608,0.30356 -0.34868,-1.1586 -0.34869,-1.15859 0.37974,0.14572 0.37975,0.14572 0.004,0.6993 0.004,0.6993 0.25648,-0.39688 0.25648,-0.39687 0.004,0.46302 0.004,0.46302 h 0.28348 0.28348 l 0.38563,0.38563 0.38564,0.38563 0.37073,-0.14226 0.37073,-0.14226 0.2914,-0.83591 0.29139,-0.83591 -0.27291,-0.091 -0.27291,-0.091 v -0.27493 -0.27493 l 0.34629,0.28739 0.34628,0.28739 0.39913,-0.46615 0.39913,-0.46615 -0.106,-0.31801 -0.10601,-0.31801 h -0.37482 -0.37483 v 0.39688 0.39687 h -0.49831 -0.49831 l -0.13847,-0.52953 -0.13848,-0.52953 0.23741,0.14672 0.2374,0.14673 -0.10672,-1.40313 -0.10673,-1.40313 -0.0231,-0.0985 -0.0231,-0.0985 -0.39687,0.32938 -0.39688,0.32937 v 0.61592 0.61591 l 0.46302,0.26969 0.46302,0.26968 -0.33073,0.008 -0.33073,0.008 -0.54962,-0.54962 -0.54962,-0.54962 -0.37642,0.14444 -0.37642,0.14445 v -0.23423 -0.23424 l 0.29459,-0.0982 0.2946,-0.0982 -0.6894,-0.31411 -0.6894,-0.31411 -0.1661,1.03875 -0.16611,1.03876 -0.82815,-0.15153 -0.82815,-0.15153 0.4363,0.36293 0.4363,0.36293 0.17631,0.59365 0.17631,0.59364 -0.41417,-0.15893 -0.41418,-0.15893 -0.0177,-0.43472 -0.0177,-0.43471 -0.37516,1.19062 -0.37516,1.19063 -0.004,0.0818 -0.004,0.0818 0.29002,-0.17924 0.29002,-0.17924 -0.0952,0.49435 -0.0952,0.49436 h -0.36914 -0.36915 l -0.42098,0.85389 -0.42098,0.85388 -0.33073,0.006 -0.33073,0.006 v 0.25546 0.25546 l -0.73972,0.73673 -0.73971,0.73673 -0.78164,0.43247 -0.78164,0.43247 -0.79375,0.12183 -0.79375,0.12184 z m -0.99273,-7.74418 -0.22532,-1.45521 0.0301,1.32292 0.0302,1.32292 -0.51415,-0.0466 -0.51415,-0.0466 0.51495,0.37831 0.51494,0.37831 0.19438,-0.19943 0.19438,-0.19943 z m 4.751,1.65365 -0.009,-0.19844 -0.46342,-0.52917 -0.46342,-0.52916 -0.83998,-0.59532 -0.83998,-0.59531 h -0.11811 -0.11811 l 0.30583,0.6594 0.30584,0.65939 0.33073,0.002 0.33073,0.002 v 0.24568 0.24569 l 0.41577,0.41577 0.41577,0.41577 h 0.37798 0.37798 z m 9.95617,-2.6928 -0.0312,-0.77458 -0.19557,-0.19556 -0.19557,-0.19557 v 0.44097 0.44097 h -0.23627 -0.23628 l -0.15757,0.41062 -0.15756,0.41062 0.26155,-0.16165 0.26155,-0.16165 v 0.2802 0.2802 h 0.35909 0.35909 z m -11.27028,-1.85097 v -0.24428 l -0.66146,-0.7861 -0.66146,-0.7861 v -0.29253 -0.29254 h -0.26458 -0.26459 v 0.41102 0.41101 l 0.72761,0.91189 0.7276,0.9119 0.19844,1e-5 0.19844,1e-5 z m 6.57855,-1.27707 -0.036,-0.99218 -0.12304,0.65922 -0.12303,0.65921 -0.3384,-0.79151 -0.33841,-0.79151 -0.19746,0.47649 -0.19746,0.47648 0.60876,0.648 0.60876,0.64799 h 0.0862 0.0862 z m 5.98152,-1.11213 0.15589,-0.25223 -0.46366,-0.54152 -0.46366,-0.54151 h -0.43993 -0.43994 l -0.4334,-0.66146 -0.43341,-0.66146 h -0.39077 -0.39078 v 0.36448 0.36448 l 0.38529,0.31976 0.38528,0.31975 0.31786,-0.19644 0.31785,-0.19644 -0.1492,0.57054 -0.1492,0.57054 h 0.38772 0.38772 l -0.15115,0.24456 -0.15114,0.24456 0.46626,0.12162 0.46626,0.12162 0.31511,0.0307 0.31511,0.0307 z m 9.25487,-0.52018 0.15034,-0.24325 -0.43522,-0.43522 -0.43521,-0.43521 -0.27038,0.27038 -0.27038,0.27037 0.33868,0.40809 0.33869,0.40809 h 0.21657 0.21657 z m -19.31951,-0.89915 -0.12728,-0.33171 -0.45647,-0.0164 -0.45647,-0.0164 -0.36381,-0.10643 -0.3638,-0.10643 -0.13052,0.35849 -0.13052,0.3585 0.52311,-0.16603 0.52312,-0.16603 0.33192,0.39993 0.33191,0.39994 0.22305,-0.13785 0.22305,-0.13786 z m 10.93229,-0.64354 0.11012,-0.33073 h -0.6835 -0.68351 v 0.22049 0.22049 l 0.18554,0.18553 0.18553,0.18554 0.38785,-0.0753 0.38786,-0.0753 z m 1.17324,-1.6713 -0.0834,-0.35055 -0.63891,-0.59212 -0.63891,-0.59212 -0.60059,-0.0837 -0.6006,-0.0837 0.0265,0.33073 0.0265,0.33072 0.0397,0.81105 0.0397,0.81104 1.25678,-0.11543 1.25677,-0.11544 z m -14.78379,-0.5079 0.74322,-0.004 -0.16619,-0.2689 -0.16618,-0.2689 -0.19279,0.11915 -0.19279,0.11915 -0.38424,-0.24307 -0.38424,-0.24308 0.32142,-0.004 0.32142,-0.004 0.2832,-0.52917 0.2832,-0.52916 h -0.0902 -0.0902 l -0.89656,0.66146 -0.89655,0.66145 0.38213,0.008 0.38213,0.008 -0.46512,0.27085 -0.46511,0.27086 -0.30337,-0.18749 -0.30337,-0.18749 0.20303,0.32851 0.20304,0.32851 0.56545,-0.15172 0.56545,-0.15173 z m 1.10887,-5.20638 0.79375,-0.74176 0.19844,0.0618 0.19843,0.0619 v -0.26459 -0.26458 h -0.47029 -0.4703 l -0.58803,0.41188 -0.58804,0.41188 v 0.38187 0.38187 h -0.38126 -0.38126 l -0.16352,0.26458 -0.16353,0.26459 0.1747,0.28266 0.17469,0.28266 0.43624,-0.3965 0.43623,-0.3965 z m 9.12812,-0.43735 v -0.0839 l -0.80867,-1.56977 -0.80868,-1.56978 -0.0254,-0.73133 -0.0254,-0.73133 0.17266,-0.17266 0.17267,-0.17267 v 0.68994 0.68995 l 0.25682,0.15872 0.25683,0.15873 0.17182,-0.6846 0.17183,-0.6846 0.13201,0.13201 0.13201,0.13202 0.36066,-0.36066 0.36065,-0.36065 0.33545,-0.15591 0.33546,-0.15592 -0.34929,-0.16053 -0.34929,-0.16052 0.54773,-0.38364 0.54772,-0.38365 v -0.24958 -0.24958 h -0.43658 -0.43659 l -1.40746,0.71267 -1.40747,0.71266 -0.27284,0.78268 -0.27285,0.78268 0.66944,1.41507 0.66944,1.41507 h 0.22815 0.22815 l 0.16601,0.66146 0.16602,0.66146 h 0.25954 0.25954 z m -13.29433,-2.10461 0.0289,-1.38339 -0.22007,0.66145 -0.22006,0.66146 -0.0223,1.05834 -0.0223,1.05833 0.2135,-0.3364 0.21351,-0.3364 z m 21.90754,-1.00957 0.17777,-0.28764 -0.29445,-0.29445 -0.29444,-0.29444 -0.29445,0.29444 -0.29445,0.29445 0.17777,0.28764 0.17777,0.28763 h 0.23336 0.23335 z m -22.1461,-1.34373 0.54532,-1.10219 -0.13908,-0.22504 -0.13908,-0.22504 -0.25031,0.1547 -0.25031,0.1547 -0.39286,0.94026 -0.39287,0.94027 v 0.23227 0.23227 h 0.23693 0.23694 z m 3.26688,-1.08061 -0.27663,-0.33073 -0.8141,-0.47798 -0.81409,-0.47798 v 0.25356 0.25356 l 0.8599,0.55069 0.85989,0.55069 0.23084,0.004 0.23083,0.004 z m 6.93708,-5.65071 0.41852,-0.1606 v -0.37169 -0.37169 l -1.12448,0.17223 -1.12448,0.17224 -0.0926,0.0779 -0.0926,0.0779 0.1744,0.28219 0.1744,0.28218 h 0.6242 0.62421 z m -61.493983,31.65432 v -0.25628 l -0.396875,0.1523 -0.396875,0.15229 v -0.31072 -0.31072 l -0.529167,0.16795 -0.529167,0.16795 v -0.2541 -0.25411 l 0.457974,-0.17574 0.457973,-0.17574 0.09324,0.27973 0.09324,0.27972 h 0.342429 0.34243 l 0.329377,0.39688 0.329377,0.39687 h -0.296981 -0.29698 z m 2.960502,-0.17399 -0.240791,-0.43027 0.379314,-0.76035 0.379315,-0.76036 h 0.245205 0.245205 l 0.04168,0.46302 0.04168,0.46302 -0.01228,0.33073 -0.01228,0.33073 0.301331,0.008 0.301331,0.008 -0.513591,0.38846 -0.51359,0.38846 h -0.200867 -0.200866 z m 3.654081,-1.5541 -0.661458,-0.37813 0.396875,-0.0387 0.396875,-0.0387 0.661458,0.055 0.661458,0.055 0.124629,0.12095 0.12463,0.12095 -0.389213,0.24614 -0.389212,0.24615 -0.132292,-0.005 -0.132292,-0.005 z m 4.233333,-0.92318 -0.661458,-0.2147 0.727604,-0.0661 0.727604,-0.0661 0.264583,-0.0265 0.264584,-0.0265 0.01397,0.26458 0.01398,0.26459 -0.344705,0.0426 -0.344705,0.0426 z m 52.281677,0.04 -0.15293,-0.24745 0.39396,-0.32696 0.39396,-0.32696 v -0.38009 -0.3801 l 0.23974,0.14817 0.23975,0.14817 -0.13605,0.52024 -0.13604,0.52024 -0.34473,0.28609 -0.34473,0.2861 z m -57.719147,-0.97745 -0.515655,-0.71151 -0.350388,-0.36832 -0.350388,-0.36832 0.417126,-0.16006 0.417125,-0.16007 0.713213,0.17901 0.713214,0.179 -0.383076,0.24641 -0.383076,0.2464 0.339004,0.21917 0.339004,0.21916 -0.220224,0.59533 -0.220223,0.59532 z m 80.886077,-2.50496 -0.003,-1.71979 0.21185,-1.19063 0.21186,-1.19062 0.0624,0.26458 0.0624,0.26459 -0.0509,1.91348 -0.0509,1.91348 -0.22023,0.73235 -0.22023,0.73235 z m -3.95498,-0.53761 -0.32071,-0.51354 v -0.0796 -0.0796 l 0.52495,-0.0395 0.52495,-0.0395 -0.0772,0.50558 -0.0772,0.50559 -0.12708,0.12708 -0.12707,0.12708 z m 3.6511,-6.74212 0.33244,-0.40056 -0.16889,-1.23217 -0.16889,-1.23218 0.14409,0.14409 0.14409,0.14409 0.21287,1.3466 0.21287,1.34659 -0.22353,-0.13814 -0.22353,-0.13815 v 0.2802 0.28019 h -0.29698 -0.29698 z m -3.03911,-2.84058 0.18546,-1.12448 0.21217,-0.26458 0.21217,-0.26459 4.5e-4,-0.22048 4.5e-4,-0.22049 0.1449,-0.1449 0.1449,-0.1449 -0.0868,1.02685 -0.0868,1.02684 -0.036,0.47864 -0.036,0.47863 -0.30955,-0.19131 -0.30954,-0.19131 0.16895,0.44028 0.16895,0.44028 h -0.27954 -0.27953 z m 1.07744,0.37242 -0.15502,-0.25083 0.3909,-0.15 0.39089,-0.15 -0.14587,-0.38013 -0.14586,-0.38012 0.30141,-0.18629 0.30142,-0.18628 -0.0849,0.86675 -0.0849,0.86675 -0.30649,0.10049 -0.30648,0.10048 z m -5.95762,-5.24801 -0.37561,-0.42369 0.44175,-0.32302 0.44176,-0.32302 0.0179,-0.63229 0.0179,-0.63229 0.28059,0.58071 0.28059,0.5807 -0.15619,0.40702 -0.15619,0.40703 -0.4503,-0.1728 -0.45029,-0.17279 0.19131,0.30955 0.19131,0.30954 h 0.51355 0.51355 v 0.26458 0.26459 l -0.46302,-0.0101 -0.46302,-0.0101 z m -66.635347,-1.24337 -0.595197,-0.31854 0.320054,-0.32005 0.320053,-0.32006 H 61.073221 60.62343 v -0.25627 -0.25628 l 0.362047,0.13893 0.362047,0.13893 -0.103695,-0.94099 -0.103696,-0.94098 h 0.386472 0.386472 l -0.147785,-0.99219 -0.147786,-0.99219 -0.415316,-0.33073 -0.415316,-0.33072 h 0.712028 0.712028 v 0.30868 0.30868 l 0.151578,-0.15158 0.151579,-0.15158 -0.262543,-0.95085 -0.262543,-0.95085 h 0.4862 0.4862 l 0.416995,0.16001 0.416994,0.16002 -0.171193,0.27699 -0.171194,0.277 0.487866,0.35674 0.487867,0.35674 -0.513591,0.006 -0.51359,0.006 0.852825,0.42048 0.852825,0.42047 -0.361334,0.68963 -0.361335,0.68963 0.330073,0.27294 0.330073,0.27293 -0.199878,0.66146 -0.199877,0.66146 -0.02637,-0.47864 -0.02637,-0.47863 -0.236859,0.14638 -0.236859,0.14639 -0.160875,-0.41923 -0.160874,-0.41923 0.139258,-0.22533 0.139258,-0.22532 -0.71301,0.0548 -0.713011,0.0548 -0.067,0.33331 -0.067,0.3333 0.134496,-0.2712 0.134497,-0.2712 h 0.258149 0.25815 l -0.202616,0.32784 -0.202616,0.32784 -0.41098,1.50138 -0.410981,1.50138 z m -4.510989,-0.87421 -1.407358,-0.66521 0.118335,-0.11833 0.118336,-0.11834 1.48746,0.70428 1.48746,0.70428 v 0.10132 0.10131 l -0.198438,-0.0221 -0.198437,-0.0221 z m 7.010678,0.5359 -0.148218,-0.14822 0.312656,-0.50064 0.312656,-0.50064 h 0.465522 0.465522 v 0.26458 0.26458 h -0.245685 -0.245684 l -0.384276,0.38428 -0.384276,0.38428 z m 2.268034,-0.95351 -0.595313,-0.27686 v -0.19938 -0.19938 l 0.529167,0.13838 0.529166,0.13838 v -0.42773 -0.42774 h 0.272888 0.272887 l 0.160168,0.4174 0.160168,0.41739 -0.36691,0.3482 -0.366909,0.34819 z m 30.294791,-5.67906 0.859896,-0.10671 v -0.22999 -0.22999 l -0.529167,-0.16795 -0.529167,-0.16795 v -0.35741 -0.3574 l 0.160599,-0.41852 0.1606,-0.41851 h 0.207138 0.207138 l 0.558304,1.18774 0.558305,1.18774 v 0.13518 0.13517 l -1.256771,-0.0423 -1.256771,-0.0423 z m 1.653646,-3.88269 v -0.29654 l -0.529167,-0.33047 -0.529167,-0.33047 v -0.31291 -0.31291 l 0.358615,0.49044 0.358614,0.49043 0.464594,-0.17828 0.464595,-0.17828 -0.153447,0.39987 -0.153446,0.39988 h 0.223882 0.223883 l 0.326959,-0.39396 0.326959,-0.39397 0.247452,0.15294 0.247451,0.15293 -0.28551,0.34402 -0.285511,0.34402 -0.653378,0.1249 -0.653378,0.1249 z m 15.874997,-3.36255 v -0.29289 l -0.39687,0.1523 -0.39688,0.15229 v -0.20336 -0.20336 l 0.23891,-0.25136 0.2389,-0.25135 0.12728,-0.52917 0.12728,-0.52917 0.0307,0.80698 0.0307,0.80698 0.3175,0.3175 0.3175,0.3175 h -0.3175 -0.3175 z m -1.80455,-0.31129 -0.28184,-0.33961 0.24945,-0.388 0.24944,-0.388 0.23501,0.36463 0.235,0.36462 0.3137,-0.19387 0.31369,-0.19388 -0.34776,0.55686 -0.34776,0.55685 h -0.16854 -0.16854 z m -64.870447,15.66899 v -0.77731 H 47.12968 46.865097 v 0.2802 0.2802 l -0.264584,-0.16352 -0.264583,-0.16352 v 0.62076 0.62077 l 0.529167,0.0399 0.529166,0.0399 z m 2.161729,-4.41533 -0.23814,-0.46302 0.118587,-0.33073 0.118588,-0.33073 h -0.286632 -0.286632 v 0.61736 0.61736 l 0.176389,0.17639 0.176389,0.17639 h 0.229795 0.229795 z"
       id="path22" /></g></svg>
