<?xml version="1.0" encoding="UTF-8" standalone="no"?>
<!-- Created with Inkscape (http://www.inkscape.org/) -->

<svg
   width="101.6mm"
   height="84.666672mm"
   viewBox="0 0 101.6 84.666672"
   version="1.1"
   id="svg1"
   xml:space="preserve"
   xmlns="http://www.w3.org/2000/svg"
   xmlns:svg="http://www.w3.org/2000/svg"><defs
     id="defs1" /><g
     id="layer1"
     transform="translate(-45.542176,-33.651481)"><path
       style="fill:#ffffff;fill-opacity:1"
       d="M 45.542179,75.98481 V 33.65148 h 50.799999 50.800002 v 42.33333 42.33334 H 96.342178 45.542179 Z m 86.615861,41.20886 -0.19869,-0.33073 0.38152,0.29682 0.38151,0.29682 6.76563,0.051 6.76563,0.051 0.0443,-2.64606 0.0443,-2.64606 -0.52609,-0.16698 -0.52609,-0.16697 v -0.24676 -0.24675 h 0.52099 0.52099 l 0.003,-6.68073 0.003,-6.68073 -0.22224,-0.35209 -0.22225,-0.35207 -0.17755,0.88124 -0.17755,0.88123 -0.21687,-0.3481 -0.21687,-0.34809 -0.7315,-0.37951 -0.73149,-0.37951 h -0.36664 -0.36663 v 0.36306 0.36306 l 1.05834,0.16924 1.05833,0.16923 v 0.26146 0.26145 h -0.24897 -0.24897 l -0.16352,-0.26458 -0.16352,-0.26458 h -1.43959 -1.4396 v 0.29544 0.29544 l -0.59531,-0.18231 -0.59531,-0.18232 -0.26459,0.002 -0.26458,0.002 -2.30673,0.0461 -2.30672,0.0461 -0.28269,0.34062 -0.28269,0.34062 -0.51944,-0.13584 -0.51944,-0.13583 v 0.54441 0.54441 l 0.27618,0.17068 0.27617,0.17069 0.43607,-0.35351 0.43608,-0.35351 -0.21698,0.36031 -0.21698,0.36032 0.36463,0.2564 0.36462,0.2564 -0.71138,-0.15466 -0.71139,-0.15467 -0.17642,0.28546 -0.17642,0.28545 -0.62304,-0.58531 -0.62303,-0.58531 -1.06885,0.14336 -1.06884,0.14336 v -0.20845 -0.20844 l -0.7276,0.0401 -0.72761,0.0401 -0.3893,0.24538 -0.38931,0.24538 -0.80132,-0.0357 -0.80132,-0.0357 0.36067,0.14822 0.36067,0.14822 -0.36067,0.2285 -0.36067,0.2285 0.46302,0.004 0.46302,0.004 v -0.29685 -0.29686 l 0.57476,0.38163 0.57475,0.38162 0.0453,0.61544 0.0453,0.61544 -0.31853,-0.43563 -0.31854,-0.43562 h -0.3066 -0.3066 l 0.16602,0.66146 0.16601,0.66146 -0.75629,-0.009 -0.75628,-0.009 -0.66146,-0.39345 -0.66146,-0.39345 0.66146,0.0352 0.66146,0.0352 0.47863,-0.0293 0.47864,-0.0293 -0.17017,-0.27535 -0.17018,-0.27534 -0.48463,0.15381 -0.48463,0.15382 -0.15165,-0.24537 -0.15164,-0.24536 0.39396,-0.32696 0.39396,-0.32696 v -0.24418 -0.24419 l -0.99219,0.17912 -0.99219,0.17912 -0.66145,0.35144 -0.66146,0.35144 1.12448,0.0106 1.12448,0.0106 v 0.22862 0.22862 l -1.22756,0.16826 -1.22755,0.16825 -0.69068,-0.0264 -0.69067,-0.0264 0.66146,-0.21184 0.66145,-0.21183 -0.69067,-0.0264 -0.69068,-0.0264 -1.24133,0.17014 -1.24134,0.17015 0.13777,0.35902 0.13777,0.35902 h -0.53648 -0.53647 l 0.17782,-0.28772 0.17782,-0.28772 -1.81585,0.15224 -1.81586,0.15225 -1.05575,0.17184 -1.05576,0.17185 -0.32489,0.42665 -0.32489,0.42665 -0.008,-0.27645 -0.008,-0.27645 -4.10131,0.11019 -4.1013,0.11019 -0.34805,-0.28885 -0.34806,-0.28886 -0.77616,-0.0327 -0.77616,-0.0327 -0.62231,0.1471 -0.622306,0.1471 -0.303734,0.2381 -0.303734,0.23809 -0.697558,0.16627 -0.697558,0.16628 -3.234322,0.0334 -3.234322,0.0334 -0.686247,0.35603 -0.686246,0.35603 -0.136711,-0.13671 -0.136711,-0.13672 0.389212,-0.26752 0.389213,-0.26753 -0.529167,0.1314 -0.529167,0.1314 -1.455208,0.26426 -1.455208,0.26425 -5.027083,-0.0253 -5.027084,-0.0253 0.661459,-0.19475 0.661458,-0.19476 1.058333,-0.55591 1.058334,-0.55591 -0.79375,0.17635 -0.79375,0.17634 -0.926042,0.38518 -0.926042,0.38519 -3.042708,0.35971 -3.042708,0.35972 -0.875511,0.006 -0.875511,0.005 0.163522,-0.26459 0.163521,-0.26458 h 0.778135 0.778135 v -0.23518 -0.23519 l 0.33073,0.0123 0.330729,0.0123 0.992187,-0.0417 0.992188,-0.0417 v -0.30081 -0.3008 l -1.709357,0.13721 -1.709357,0.13721 0.05571,-0.29943 0.05571,-0.29942 -0.661458,0.0705 -0.661459,0.0705 0.79375,-0.352 0.79375,-0.35201 1.516843,-0.33175 1.516842,-0.33176 0.152418,-0.24662 0.152419,-0.24662 h -0.427006 -0.427006 l -1.242255,-0.56362 -1.242255,-0.56361 -1.471858,-1.27177 -1.471857,-1.27177 -1.041684,0.24158 -1.041684,0.24157 -1.241156,0.006 -1.241156,0.006 -0.163521,-0.26459 -0.163522,-0.26458 H 61.54193 60.639551 l -0.937557,0.52659 -0.937558,0.5266 -1.042724,0.16674 -1.042724,0.16674 -0.307659,1.48948 -0.30766,1.48947 -0.615867,1.21906 -0.615868,1.21905 -0.676114,0.80352 -0.676114,0.80351 v 0.17808 0.17807 l 0.595312,-0.16116 0.595313,-0.16116 -0.661458,0.42274 -0.661459,0.42274 1.719792,-0.14409 1.719792,-0.14409 2.38125,-0.13522 2.381249,-0.13522 -1.984374,0.53179 -1.984375,0.5318 -0.264584,0.13196 -0.264583,0.13197 1.058333,-0.12998 1.058334,-0.12999 0.469818,0.5906 0.469818,0.59061 -0.175492,-0.75836 -0.175491,-0.75836 1.988437,0.10041 1.988438,0.10041 -0.128259,-0.33424 -0.128259,-0.33424 h 0.277275 0.277276 l 0.166189,0.2689 0.166189,0.2689 0.246301,-0.15222 0.246301,-0.15222 v 0.43454 0.43453 l 0.330729,-0.11097 0.330729,-0.11097 0.0034,-0.42157 0.0034,-0.42157 0.214908,-0.21491 0.214907,-0.2149 0.237896,0.42509 0.237896,0.4251 0.932885,-0.1028 0.932884,-0.10281 v 0.30389 0.30389 l 0.859896,-0.165 0.859896,-0.16499 -0.396875,0.265 -0.396875,0.26499 -1.803326,-0.0544 -1.803326,-0.0544 -0.267338,0.38436 -0.267338,0.38435 -0.134197,-0.33073 -0.134197,-0.33073 h -0.478811 -0.47881 l -0.159611,0.41594 -0.159611,0.41594 -0.596301,-0.0483 -0.596301,-0.0483 -0.529166,0.0333 -0.529167,0.0333 0.377054,0.23863 0.377053,0.23864 1.15656,-0.0653 1.15656,-0.0653 0.149895,0.24253 0.149896,0.24254 -0.291768,0.29176 -0.291768,0.29177 -0.333408,0.044 -0.333407,0.044 -2.513542,0.19049 -2.513541,0.1905 -1.455209,0.12995 -1.455208,0.12995 -1.058333,0.0684 -1.058334,0.0684 -0.661458,0.17327 -0.661458,0.17328 -1.852084,0.15676 -1.852083,0.15676 -0.396875,-0.002 -0.396875,-0.002 -0.595312,0.12046 -0.595313,0.12047 v 2.77308 2.77309 h 43.010406 43.010407 z m -3.32916,-7.56592 0.33982,-0.21562 1.44611,-0.0585 1.44612,-0.0585 v 0.27818 0.27818 l -1.78594,-0.004 -1.78594,-0.004 z m -59.047716,-0.45597 -0.159295,-0.41512 -0.563604,0.17888 -0.563604,0.17888 0.181041,-0.29293 0.18104,-0.29293 h 0.72183 0.721831 l 0.03986,0.52917 0.03986,0.52916 h -0.219832 -0.219833 z m 26.560532,0.0844 4.82e-4,-0.19844 h 0.760677 0.760677 l 0.826823,-0.16537 0.826823,-0.16536 v 0.27416 0.27415 l -1.587982,0.0896 -1.587982,0.0897 z m -18.716503,-1.5875 0.112528,-0.33073 1.033999,0.0364 1.034,0.0364 0.926042,0.26724 0.926042,0.26724 -1.336146,0.0271 -1.336146,0.0271 -0.287637,-0.28764 -0.287637,-0.28764 -0.17777,0.28764 -0.177769,0.28764 h -0.271017 -0.271017 z m 4.064182,-0.16355 -0.447317,-0.49428 0.662813,0.1267 0.662814,0.12671 0.30506,0.36757 0.30506,0.36758 h -0.520556 -0.520556 z m -0.891467,-1.26845 -0.330729,-0.13346 v -0.24253 -0.24254 l 1.124479,0.002 1.124479,0.002 -0.757848,0.39525 -0.757848,0.39524 -0.0359,-0.0209 -0.0359,-0.0209 z m 10.252604,-0.0893 -0.396875,-0.25648 0.346344,-0.004 0.346344,-0.004 -0.163522,-0.26459 -0.163521,-0.26458 h 0.41249 0.41249 v 0.26458 0.26459 l 0.463021,0.0186 0.46302,0.0186 -0.529166,0.22739 -0.529167,0.22739 -0.132292,0.0145 -0.132291,0.0145 z m 27.119788,-0.2586 -1.32292,-0.13828 0.48467,-0.19844 0.48466,-0.19843 0.83825,0.004 0.83826,0.004 0.35291,0.22371 0.35291,0.22371 -0.35291,0.10895 -0.35291,0.10895 z m 12.33782,-0.89023 -0.29469,-0.35507 0.1718,-0.1718 0.1718,-0.1718 0.3981,0.32844 0.3981,0.32843 0.11131,-0.33073 0.11132,-0.33073 h 0.25815 0.25815 l -0.16353,0.26459 -0.16352,0.26458 h 0.80937 0.80936 v 0.26458 0.26459 h -1.29052 -1.29052 z m -21.20136,-0.40782 v -0.23372 l 0.55469,-0.14505 0.55468,-0.14506 0.36984,0.14192 0.36983,0.14192 -0.14638,0.23686 -0.14639,0.23686 h -0.77813 -0.77814 z m 7.63917,-0.47727 -0.36313,-0.44641 0.45455,0.17027 0.45455,0.17028 0.15638,-0.25303 0.15638,-0.25303 h 1.3514 1.35139 l -0.14279,0.14279 -0.14279,0.14279 -1.29037,0.0853 -1.29037,0.0853 0.0661,0.30111 0.0662,0.3011 h -0.23218 -0.23219 z m 5.7733,0.0627 -0.41009,-0.41009 h -0.28348 -0.28348 v -0.29289 -0.29289 l 0.46302,0.19802 0.46302,0.19802 0.73908,0.12659 0.73908,0.12658 -0.0995,0.29902 -0.0995,0.29901 -0.40898,0.0794 -0.40898,0.0794 z m 4.05003,-0.1455 -0.39688,-0.25648 0.5424,-0.004 0.5424,-0.004 0.28159,-0.2816 0.28159,-0.28159 0.369,0.369 0.369,0.369 0.32837,-0.10946 0.32836,-0.10945 v 0.28663 0.28663 l -1.12448,-0.004 -1.12448,-0.004 z m 9.59115,-1.23357 -0.33073,-0.13345 v -0.47881 -0.47881 l 0.41061,-0.15757 0.41062,-0.15757 -0.1682,0.27216 -0.16821,0.27216 0.74978,-0.18364 0.74977,-0.18363 0.17949,-0.27495 0.17949,-0.27495 0.69286,0.31569 0.69285,0.31569 h 0.13648 0.13647 l -0.0828,-0.57072 -0.0828,-0.57072 0.39688,-0.11088 0.39687,-0.11089 -0.36647,0.25629 -0.36647,0.25629 0.51302,0.27456 0.51302,0.27456 0.32543,-0.20113 0.32544,-0.20113 -0.16956,-0.44187 -0.16956,-0.44186 h 0.31179 0.31179 l 0.39687,0.39687 0.39688,0.39688 h 1.2884 1.2884 l 0.14425,0.23339 0.14424,0.23339 -3.10519,0.36192 -3.10519,0.36192 -0.59531,-0.0498 -0.59532,-0.0498 v 0.4114 0.4114 l -0.52916,-0.13838 -0.52917,-0.13838 v 0.23981 0.23982 l -0.19844,-0.0209 -0.19844,-0.0209 z m -84.158881,7.02214 0.441641,-0.004 0.138259,-0.3603 0.13826,-0.3603 1.20844,-0.18121 1.20844,-0.18122 0.460617,0.36113 0.460618,0.36113 -0.341772,-0.43729 -0.341773,-0.43729 0.738648,-0.26943 0.738647,-0.26942 -0.661458,-0.0182 -0.661459,-0.0182 -2.613456,0.91304 -2.613456,0.91305 -0.164669,0.17879 -0.164669,0.17879 0.79375,-0.18267 0.79375,-0.18267 z m -4.659399,-0.3562 0.513591,-0.38846 0.529166,-0.0178 0.529167,-0.0178 0.661458,-0.37812 0.661459,-0.37813 -0.423539,-0.009 -0.423539,-0.009 -0.899378,0.28729 -0.899378,0.28729 -0.727604,0.27398 -0.727604,0.27397 v 0.23249 0.23248 h 0.346305 0.346306 z m 28.810343,-6.2199 1.175257,-0.53539 0.345245,-0.0175 0.345245,-0.0175 1.448648,-0.47289 1.448647,-0.47289 -0.864984,-0.12695 -0.864984,-0.12695 -0.108313,0.17525 -0.108312,0.17525 -1.470877,0.35286 -1.470877,0.35286 -0.293642,0.35381 -0.293641,0.35382 H 75.06374 74.487595 l -0.3175,0.3175 -0.3175,0.3175 v 0.20512 0.20512 l 0.66231,-0.25181 0.662311,-0.25181 z m 12.676629,-2.55816 1.285882,-0.42035 1.029222,0.13805 1.029222,0.13805 v -0.24988 -0.24989 l -1.011223,-0.9912 -1.011224,-0.9912 -0.774714,-1.3793 -0.774714,-1.37931 -0.445191,-2.6e-4 -0.445191,-2.7e-4 -0.157976,0.49774 -0.157977,0.49774 -0.516407,0.62674 -0.516407,0.62674 -0.269488,0.31956 -0.269488,0.31956 v 0.23474 0.23475 l -0.512494,0.4638 -0.512494,0.4638 -0.250158,-0.15461 -0.250157,-0.1546 -0.671096,0.52788 -0.671096,0.52788 -0.81521,0.16305 -0.815211,0.16304 v 0.22814 0.22813 l 2.050521,-0.14172 2.05052,-0.14172 0.785482,-0.12445 0.785482,-0.12445 -0.256315,0.24714 -0.256315,0.24714 -0.529167,0.12108 -0.529167,0.12107 1.058334,-0.10613 1.058333,-0.10614 z m -36.343173,-0.22619 v -0.39688 l -0.727604,0.008 -0.727604,0.008 0.51359,0.38846 0.513591,0.38846 h 0.214013 0.214014 z m 26.514887,-1.40593 0.275119,-0.27512 -0.16967,-0.67602 -0.169669,-0.67601 -0.776778,-0.40169 -0.776778,-0.40169 h -0.890176 -0.890177 l -0.457219,0.9588 -0.45722,0.9588 0.0846,0.0846 0.0846,0.0846 0.786638,0.42516 0.786637,0.42516 1.147489,-0.11573 1.147489,-0.11574 z M 100.1431,98.31392 100.1076,97.54836 99.661341,96.02701 99.215084,94.50565 H 98.428082 97.64108 l -0.649432,0.64944 -0.649432,0.64943 v 0.53915 0.53915 l 0.815024,0.72965 0.815024,0.72964 0.838622,0.45128 0.838622,0.45127 0.264583,-0.0826 0.264579,-0.0826 z m 11.54491,-0.36868 0.66146,-0.21184 -1.0205,-0.0264 -1.02049,-0.0264 0.13736,-0.35796 0.13737,-0.35797 -0.53109,-0.45473 -0.53108,-0.45473 -0.0713,0.0851 -0.0713,0.0851 -0.35384,0.66146 -0.35385,0.66146 -0.0555,0.33073 -0.0555,0.33073 1.23336,-0.0264 1.23336,-0.0264 z m -8.71817,-1.61314 0.553,-1.08397 -0.0846,-0.0809 -0.0846,-0.0809 -0.79375,-0.0919 -0.79375,-0.0919 -0.0848,0.88508 -0.0848,0.88508 0.14263,0.37169 0.14263,0.37169 h 0.26751 0.26751 z m 25.39792,-0.17706 0.38587,0.0215 0.85098,-0.0417 0.85097,-0.0417 -0.50312,-0.85989 -0.50312,-0.8599 -0.31311,-1.25677 -0.31312,-1.25677 h -0.47571 -0.47571 l -0.0884,0.26504 -0.0883,0.26504 -0.84141,-0.24131 -0.8414,-0.24131 -0.87824,0.21036 -0.87823,0.21036 -0.52916,0.18678 -0.52917,0.18677 -0.63861,0.30674 -0.63861,0.30674 -0.11104,-0.33073 -0.11105,-0.33073 h -0.64771 -0.64771 l -0.15359,0.40024 -0.15359,0.40025 0.27231,0.32811 0.2723,0.32811 -0.33802,0.46227 -0.33802,0.46227 h -0.27325 -0.27325 l -0.15059,-0.39241 -0.15058,-0.39242 -0.4503,0.17279 -0.45029,0.1728 0.19131,-0.30955 0.19131,-0.30954 h 0.51355 0.51355 v -0.66146 -0.66146 h -1.28984 -1.28984 l -0.15844,0.7922 -0.15844,0.7922 -0.52016,1.07659 -0.52015,1.07659 2.82833,-0.1245 2.82834,-0.12451 0.26458,-0.0404 0.26458,-0.0404 2.44331,0.10001 2.4433,0.10001 0.17117,0.17117 0.17117,0.17118 0.43923,-0.23507 0.43923,-0.23507 z m 12.29212,-0.37051 2.91042,-0.0625 1.38906,0.21041 1.38907,0.21041 V 83.84421 71.54557 l -0.47332,-0.58452 -0.47331,-0.58451 -0.87758,0.81978 -0.87759,0.81979 h 0.20076 0.20075 l -0.6126,0.53131 -0.6126,0.5313 -0.4409,-0.39901 -0.44091,-0.39901 h -0.30159 -0.30159 l 0.15915,-0.41473 0.15914,-0.41472 -0.32249,-0.60257 -0.32248,-0.60257 -0.61268,0.11712 -0.61267,0.11712 -0.17541,-0.55267 -0.17541,-0.55267 0.15785,-0.25539 0.15784,-0.2554 0.35604,0.13663 0.35604,0.13662 0.11883,-0.80964 0.11883,-0.80963 h -0.25116 -0.25115 l 0.32937,-0.39688 0.32938,-0.39687 h 0.23219 0.23218 v 0.28019 0.2802 l -0.26458,-0.16352 -0.26458,-0.16352 0.004,0.21405 0.004,0.21405 0.23652,0.37364 0.23652,0.37364 0.42089,-0.42088 0.42088,-0.42089 v -0.29617 -0.29618 l -0.7276,-0.6404 -0.72761,-0.64041 0.46303,-0.008 0.46302,-0.008 v 0.26458 0.26459 h 0.22789 0.22789 l -0.12644,-0.66138 -0.12645,-0.66146 h 0.16969 0.16968 l 0.24956,0.6564 0.24957,0.65641 0.38864,-0.14914 0.38864,-0.14913 -0.1439,-0.37498 -0.14389,-0.37498 h -0.23627 -0.23628 V 64.60858 64.344 l 0.33073,0.0661 0.33073,0.0662 -0.0663,-0.41301 -0.0663,-0.41301 0.53959,-0.57918 0.53958,-0.57918 0.58501,-0.0305 0.585,-0.0305 0.46303,0.0471 0.46302,0.0471 V 48.484777 34.44523 H 96.342178 46.335929 v 10.318749 10.31875 h 0.211667 0.211666 l 0.3175,-0.3175 0.3175,-0.3175 0.308827,0.308826 0.308826,0.308826 -0.439598,0.16869 -0.439599,0.16869 0.146387,0.236859 0.146387,0.236859 h 0.76252 0.762521 l 0.163521,-0.264583 0.163521,-0.264584 h 0.458293 0.458292 l 0.981301,1.067278 0.981301,1.06727 0.0084,0.58637 0.0084,0.58637 0.351482,-0.46302 0.351483,-0.46302 h 0.31087 0.31087 l -0.29639,0.55381 -0.29639,0.55381 0.152907,0.60923 0.152906,0.60923 -0.358277,0.13749 -0.358278,0.13748 -0.150605,0.57591 -0.150605,0.57592 0.465453,-0.42123 0.465453,-0.42123 h 0.330918 0.330918 l -0.1829,0.83274 -0.1829,0.83274 0.823336,-0.16467 0.823336,-0.16466 v 0.53085 0.53086 l -0.379364,0.14557 -0.379364,0.14558 0.04999,0.65036 0.04999,0.65035 0.342914,0.21194 0.342914,0.21193 -0.329225,0.72257 -0.329224,0.72257 0.351496,0.21723 0.351497,0.21724 -0.211202,0.756 -0.211202,0.75601 0.0486,0.30419 0.04861,0.3042 -0.865401,-0.0396 -0.865401,-0.0396 0.07087,0.3449 0.07087,0.3449 -0.352266,0.35227 -0.352267,0.35227 -0.644646,-0.35707 -0.644645,-0.35706 -0.230835,-0.009 -0.230834,-0.009 0.324821,0.39138 0.324821,0.39139 0.832055,0.42058 0.832055,0.42059 1.058333,0.12223 1.058334,0.12223 0.396875,0.14303 0.396875,0.14303 -0.513591,0.37797 -0.513591,0.37798 h 0.447445 0.447445 v 0.21558 0.21558 l 0.859896,0.44953 0.859896,0.44954 1.098461,0.62204 1.098462,0.62204 0.147796,-1.3533 0.147797,-1.3533 -0.107437,-0.92604 -0.107438,-0.92604 -0.240483,-0.79375 -0.240484,-0.79375 0.207546,-0.52917 0.207545,-0.52917 0.0186,-3.52312 0.0186,-3.52312 0.273892,-0.51178 0.273893,-0.51177 h 0.792744 0.792745 l 0.152295,-0.39687 0.152296,-0.39688 h 0.522908 0.522907 l -0.116671,-0.33073 -0.116671,-0.33073 -0.377848,0.0273 -0.377848,0.0273 -0.05431,-1.80169 -0.05431,-1.801697 0.906406,-0.170043 0.906406,-0.170043 0.913047,0.301333 0.913047,0.301332 -0.20776,0.849357 -0.20776,0.849361 -0.321758,0.8734 -0.321757,0.8734 0.09674,0.0526 0.09674,0.0526 1.389062,0.7276 1.389063,0.72761 1.329936,0.7276 1.329936,0.72761 0.157457,0.60926 0.157457,0.60927 0.69542,-0.14578 0.695419,-0.14577 0.396875,0.26006 0.396875,0.26006 -0.982879,0.004 -0.982878,0.004 -0.290204,0.54225 -0.290204,0.54225 0.08246,0.67474 0.08246,0.67473 1.028569,-0.82011 1.028569,-0.82011 h 0.127305 0.127305 l -0.836244,0.85533 -0.836243,0.85533 0.458543,0.3353 0.458543,0.33529 h -0.447444 -0.447445 v 0.36448 0.36448 l 0.404631,0.33581 0.404632,0.33582 0.653022,-0.61349 0.653023,-0.61348 0.318414,-0.88056 0.318415,-0.88056 h 0.214982 0.214982 l -0.408092,0.99219 -0.408092,0.99219 -0.544297,0.74772 -0.544298,0.74773 0.460679,0.50904 0.46068,0.50905 h 0.325009 0.325009 l 0.13838,0.52917 0.138381,0.52916 h 0.264583 0.264583 l -0.13838,-0.52916 -0.13838,-0.52917 h 0.169699 0.169699 l 0.251486,0.66146 0.251486,0.66146 h 2.123215 2.123216 v -0.14544 -0.14543 l -0.419061,-0.81037 -0.41906,-0.81037 0.309903,-2.72695 0.309903,-2.72695 -0.0616,-0.88131 -0.0616,-0.88131 0.03846,-0.99219 0.03846,-0.99218 0.595313,-0.007 0.595312,-0.007 0.786088,-0.80079 0.786087,-0.80079 -0.389212,-0.24614 -0.389213,-0.24615 -0.396875,-0.008 -0.396875,-0.008 0.308512,-0.19627 0.308512,-0.19627 -0.530991,-1.158267 -0.530992,-1.158267 0.317034,-0.195938 0.317034,-0.195938 1.031239,-0.340339 1.031239,-0.34034 0.16937,0.16937 0.169369,0.169369 0.173257,1.791643 0.173256,1.791647 1.141752,1.12383 1.141752,1.12384 0.894986,0.7858 0.894985,0.78581 0.937587,-0.55319 0.937586,-0.55319 1.302313,0.12514 1.302313,0.12514 1.182337,0.96883 1.182338,0.96884 0.77958,0.15591 0.77958,0.15592 0.172853,-0.27968 0.172854,-0.27969 0.388402,0.14905 0.388401,0.14904 v -0.68976 -0.68977 h 0.602254 0.602254 l 2.109723,0.25619 2.10973,0.25619 1.78148,0.10821 1.78148,0.10821 -0.14345,-0.23211 -0.14345,-0.23211 h 0.2885 0.2885 l 0.1475,0.38438 0.1475,0.38438 0.70409,0.009 0.7041,0.009 0.65634,0.0151 0.65635,0.0151 0.33014,-0.4515 0.33015,-0.4515 -0.15528,-0.61868 -0.15528,-0.61868 h 0.42556 0.42556 v 0.66146 0.66146 h 0.51069 0.5107 l -0.24273,-0.84637 -0.24274,-0.84637 0.32735,-0.20791 0.32735,-0.20791 0.56292,-0.004 0.56291,-0.004 0.32938,-0.39688 0.32938,-0.39687 h 0.23218 0.23219 v 0.42994 0.42995 l 0.79375,-0.15875 0.79375,-0.15875 0.0305,0.32412 0.0305,0.32411 0.0615,0.26458 0.0615,0.26459 0.0403,0.33073 0.0403,0.33073 h 0.26458 0.26459 v -0.39688 -0.39687 h 0.24675 0.24675 l 0.18579,0.59531 0.18578,0.59531 0.29507,0.19439 0.29507,0.19438 -0.31268,0.004 -0.31268,0.004 0.0741,0.6946 0.0741,0.6946 0.43858,0.24544 0.43859,0.24545 -0.14667,0.58438 -0.14667,0.58439 0.41328,0.98911 0.41328,0.98912 h 0.0852 0.0852 l -0.0631,-1.25677 -0.0631,-1.25678 -0.10337,-0.43632 -0.10337,-0.43633 -0.35153,-0.42357 -0.35153,-0.42357 0.27129,-0.33073 0.2713,-0.33073 0.0886,-0.69082 0.0886,-0.69082 -0.35991,-0.43365 -0.3599,-0.43366 h 0.28868 0.28867 l -0.14202,-0.37012 -0.14203,-0.37011 0.2549,-0.15753 0.2549,-0.15754 0.16601,0.43263 0.16602,0.43263 -0.14906,0.46963 -0.14905,0.46962 0.27534,0.17018 0.27535,0.17017 -0.005,-0.87551 -0.005,-0.87551 -0.25613,-3.954992 -0.25614,-3.954989 0.32773,-0.213911 0.32773,-0.213911 1.90966,0.06786 1.90966,0.06786 0.12801,3.836458 0.12802,3.836455 0.17983,4.63021 0.17983,4.63021 0.49447,0.47333 0.49448,0.47333 v 0.26258 0.26258 l -0.39688,0.15229 -0.39687,0.1523 v 0.3812 0.3812 l 0.70009,0.64882 0.7001,0.64883 h 0.34101 0.34102 l 0.74483,0.30731 0.74482,0.30731 0.26459,-0.0648 0.26458,-0.0648 -0.17683,0.17683 -0.17684,0.17683 0.25963,0.74475 0.25962,0.74475 0.51252,0.13403 0.51253,0.13403 v 1.45834 1.45834 l 0.1606,0.41851 0.16059,0.41852 h -0.57308 -0.57309 l 0.14309,0.23153 0.14309,0.23153 -0.77024,1.06329 -0.77024,1.06329 -0.61401,0.44736 -0.61401,0.44736 1.05834,-0.10988 1.05833,-0.10988 0.35024,-0.11095 0.35024,-0.11095 0.42007,1.05834 0.42008,1.05833 0.0234,0.0333 0.0234,0.0333 0.59706,0.18355 0.59707,0.18354 0.46127,-0.81255 0.46126,-0.81254 0.31416,0.11804 0.31415,0.11803 0.0924,-0.44835 0.0923,-0.44836 -0.40608,-0.30909 -0.40609,-0.3091 0.23424,-0.22007 0.23424,-0.22007 0.12647,0.35578 0.12647,0.35579 0.64606,-1.08339 0.64605,-1.08339 h 0.62286 0.62286 l 0.54335,1.12448 0.54334,1.12448 0.4375,1.98437 0.4375,1.98438 0.0132,4.36562 0.0132,4.36563 -0.44132,0.98369 -0.44133,0.98369 v 0.36899 0.36899 l 0.7276,-0.0867 0.72761,-0.0867 z m -13.36443,-25.21585 0.24852,-0.65364 -0.41632,-0.23298 -0.41631,-0.23298 0.44408,-0.17041 0.44408,-0.17041 -0.16837,-0.53047 -0.16836,-0.53047 h 0.27042 0.27042 l 0.17753,0.94629 0.17752,0.94629 -0.29215,0.64121 -0.29216,0.64121 h -0.2637 -0.26371 z m 10.12181,0.13821 -0.59678,-0.49782 0.3322,-0.11618 0.3322,-0.11617 -0.49903,-0.56231 -0.49904,-0.56231 0.39342,-0.15096 0.39341,-0.15097 0.37021,0.0793 0.3702,0.0793 0.41679,0.59745 0.41679,0.59744 0.17853,-0.17852 0.17852,-0.17852 v 0.33699 0.33698 l -0.38841,-0.14904 -0.3884,-0.14904 -0.16354,0.26462 -0.16354,0.26461 0.31976,0.38529 0.31975,0.38528 -0.36312,-0.009 -0.36313,-0.009 z m -11.78214,-0.21217 -0.11147,-0.46302 -0.0506,-1.36606 -0.0506,-1.36606 0.24294,-0.15015 0.24295,-0.15015 0.18105,1.60022 0.18104,1.60022 0.14544,0.37901 0.14544,0.37901 h -0.40735 -0.40736 z m 3.51539,-0.60186 v -0.27115 l 0.67868,-0.25803 0.67868,-0.25803 0.31351,0.002 0.3135,0.002 -0.79375,0.52568 -0.79375,0.52568 -0.19843,0.002 -0.19844,0.002 z m 3.64662,-2.15046 -0.10163,-0.30491 -0.64802,-0.0476 -0.64801,-0.0476 -0.093,-0.47964 -0.093,-0.47963 0.78261,0.15652 0.78261,0.15652 -0.0711,-0.64725 -0.071,-0.64726 h 0.50587 0.50587 v 0.41427 0.41427 l -0.2653,0.49572 -0.2653,0.49571 0.26962,0.16663 0.26961,0.16664 -0.15222,0.2463 -0.15222,0.2463 h -0.22692 -0.22692 z m 7.20176,-1.28258 -0.0398,-0.39687 -0.10893,-0.58198 -0.10894,-0.58198 0.28394,-0.17549 0.28395,-0.17549 0.20947,0.2283 0.20947,0.2283 -0.34469,0.92605 -0.34469,0.92604 z m -14.51201,-1.32376 -0.0102,-1.32359 -0.11432,-0.19768 -0.11433,-0.19768 0.21288,-0.52916 0.21288,-0.52917 0.042,0.66146 0.042,0.66146 0.096,1.24912 0.096,1.24913 -0.2263,0.13985 -0.22629,0.13986 z m -19.26115,-4.63382 -0.15058,-0.39242 h -0.35627 -0.35626 l 0.44823,-0.78099 0.44823,-0.781 0.31,0.57924 0.31,0.57924 -0.14297,0.23134 -0.14298,0.23134 0.32067,0.19818 0.32066,0.19818 -0.42907,0.16465 -0.42908,0.16465 z m 7.21723,32.49517 -0.17627,-0.17627 -0.29372,0.29372 -0.29372,0.29372 0.20463,0.74697 0.20462,0.74698 0.26537,-0.86442 0.26537,-0.86442 z m 6.1098,-1.40217 0.0399,-0.52917 h -0.61415 -0.61416 l -0.13838,0.52917 -0.13838,0.52916 h 0.71267 0.71268 z m 1.73336,0.36786 0.1613,-0.1613 2.06561,-0.12154 2.0656,-0.12154 0.76826,-0.37862 0.76825,-0.37861 h 0.34246 0.34247 l -0.25342,-0.72761 -0.25342,-0.7276 -1.12188,0.0482 -1.12188,0.0482 -0.45472,0.018 -0.45472,0.018 0.1523,0.39688 0.15229,0.39687 h -0.31178 -0.31179 l -0.39636,0.39635 -0.39635,0.39635 -0.54272,-0.29045 -0.54272,-0.29046 0.19736,0.31933 0.19735,0.31932 -0.5636,-0.17888 -0.56361,-0.17888 -0.17725,0.46192 -0.17726,0.46192 -0.17624,-0.50243 -0.17624,-0.50242 -0.13768,0.72021 -0.13767,0.7202 h 0.44838 0.44838 z M 60.094262,88.42939 v -0.75336 l -0.529166,0.13838 -0.529167,0.13838 v 0.44539 0.44539 l 0.306938,0.30694 0.306938,0.30694 0.222229,-0.13735 0.222228,-0.13734 z m -2.38125,0.0232 v -0.49677 l 0.330729,-0.263 0.33073,-0.263 0.444727,0.0722 0.444727,0.0722 0.148717,-0.38755 0.148716,-0.38755 0.248891,0.15383 0.248892,0.15382 -0.006,-0.86466 -0.006,-0.86465 -0.126539,-0.46302 -0.12654,-0.46303 h -0.379046 -0.379045 v -0.26458 -0.26458 h 0.661458 0.661458 V 83.2891 82.65595 l -0.405052,-0.15544 -0.405053,-0.15543 0.04138,-1.12965 0.04138,-1.12964 -0.0332,-1.85364 -0.0332,-1.85364 -0.859896,-0.3707 -0.859896,-0.37069 -1.243229,-0.58952 -1.243229,-0.58951 -0.115142,0.4326 -0.115141,0.4326 -0.03069,-0.56701 -0.03069,-0.567 -0.434299,-0.16666 -0.434298,-0.16665 0.290125,0.34958 0.290126,0.34958 0.06645,0.98676 0.06645,0.98676 0.342302,-0.13136 0.342302,-0.13135 v 0.52086 0.52086 h 0.529166 0.529167 v 0.63316 0.63315 l 0.424326,0.16283 0.424327,0.16283 -0.151439,0.39464 -0.15144,0.39464 0.454717,0.008 0.454717,0.008 -0.498565,0.37748 -0.498564,0.37747 0.172173,1.29791 0.172174,1.29791 -0.377658,0.31342 -0.377658,0.31343 -0.171461,-0.27743 -0.171462,-0.27743 h -0.38126 -0.38126 v 0.67885 0.67885 l 0.273892,0.51178 0.273892,0.51177 h 0.308191 0.308191 l -0.3175,-0.3175 -0.3175,-0.3175 0.0084,-0.5424 0.0084,-0.54239 0.322314,0.41496 0.322315,0.41497 0.860348,0.37743 0.860348,0.37742 -0.09576,0.26594 -0.09576,0.26594 -0.566147,-0.063 -0.566146,-0.063 v 0.20855 0.20855 l 0.287637,0.28764 0.287637,0.28763 -0.287637,0.17777 -0.287637,0.17777 v 0.91043 0.91043 h 0.264583 0.264583 z m -0.537481,-1.95062 0.0083,-0.19844 h -0.50086 -0.500859 l -0.160599,0.41851 -0.160599,0.41852 v 0.25529 0.2553 l 0.653144,-0.47537 0.653144,-0.47538 z m 61.163859,-3.67785 -0.41898,-0.48934 h -0.4456 -0.44559 l 0.12169,0.46302 0.12169,0.46302 0.74289,0.0263 0.74288,0.0263 z m -55.237285,-1.37044 -0.168885,-1.23215 -0.320006,-0.43764 -0.320007,-0.43763 0.126575,1.5604 0.126574,1.56041 0.287645,0.18405 0.287645,0.18405 0.07467,-0.0747 0.07467,-0.0747 z m 29.072886,0.0481 0.463021,0.006 v -0.769 -0.76901 l -0.396875,0.1523 -0.396875,0.15229 v -0.29289 -0.29289 h -0.396875 -0.396875 v -0.28241 -0.28241 l -0.5069,0.16088 -0.506901,0.16088 -0.170173,-0.27534 -0.170173,-0.27535 h -0.450811 -0.450812 l -0.261178,-0.59531 -0.261177,-0.59531 h -0.245548 -0.245547 l -0.202337,0.75656 -0.202336,0.75657 0.139516,-0.13952 0.139516,-0.13952 0.506805,0.43394 0.506806,0.43395 v 0.32853 0.32854 l 0.992187,0.68018 0.992188,0.68019 0.529166,-0.16429 0.529167,-0.1643 z M 56.601972,79.51487 56.95706,79.15979 h -0.176513 -0.176514 l -0.768427,0.45392 -0.768427,0.45392 v 0.21684 0.21685 l 0.589853,-0.31568 0.589852,-0.31568 z m 36.436474,-0.68475 0.0036,-0.41639 0.459461,-0.5077 0.459462,-0.5077 v -0.30159 -0.3016 l -0.396875,0.1523 -0.396875,0.15229 v -0.44079 -0.4408 l -0.264583,0.16352 -0.264583,0.16352 v -0.2802 -0.28019 h 0.248968 0.248969 l 0.171461,0.27743 0.171462,0.27743 0.37332,-0.30983 0.37332,-0.30983 v -0.49677 -0.49677 h 0.24098 0.240981 l 0.598519,-1.23637 0.598518,-1.23638 0.450345,-0.51649 0.450344,-0.51649 0.396875,-0.39687 0.396875,-0.39688 0.585882,-0.51973 0.585882,-0.51974 1.100837,-0.34707 1.100839,-0.34708 -0.79375,-0.0243 -0.793752,-0.0243 -1.840926,0.17381 -1.840925,0.17381 0.518009,0.20259 0.518008,0.20259 -0.79375,0.0215 -0.79375,0.0215 -0.992187,0.164 -0.992188,0.164 v 0.22996 0.22997 h 0.513552 0.513552 l 0.18925,0.30621 0.18925,0.30621 -1.188776,-0.16294 -1.188776,-0.16294 -0.572359,0.4009 -0.572359,0.40089 v 0.19867 0.19866 l 1.075649,0.47457 1.075648,0.47458 -0.09379,0.0938 -0.09379,0.0938 -1.104533,-0.38054 -1.104534,-0.38055 -0.428778,0.16454 -0.428777,0.16454 -0.943644,1.98804 -0.943644,1.98804 0.502912,0.34732 0.502911,0.34733 0.319562,0.27361 0.319562,0.2736 h 0.266379 0.26638 l 1.13385,0.78486 1.13385,0.78486 0.264583,-0.08 0.264584,-0.08 z M 91.135872,75.536 90.559773,75.42385 90.243579,75.04286 89.927385,74.66187 h 0.39996 0.39996 l 0.624624,0.52036 0.624624,0.52037 -0.132291,-0.0272 -0.132292,-0.0272 z m -27.917013,0.51493 -0.0504,-0.19844 0.215935,-0.92604 0.215935,-0.92604 0.25866,-0.16479 0.25866,-0.16479 -0.343126,-0.62896 -0.343127,-0.62896 -0.461776,1.45521 -0.461776,1.45521 -0.01617,0.46302 -0.01616,0.46302 h 0.396875 0.396875 z m 79.937001,-4.01438 -0.37931,-0.1528 -0.0265,-0.33073 -0.0265,-0.33073 -0.0397,-0.41892 -0.0397,-0.41892 -0.33073,0.11278 -0.33073,0.11279 0.0923,0.62681 0.0923,0.6268 0.43397,0.31733 0.43397,0.31732 0.24994,-0.15447 0.24994,-0.15447 z m -69.759662,-1.52682 0.205061,-0.1206 -0.823443,-1.03969 -0.823444,-1.03968 -0.641456,0.50457 -0.641456,0.50457 -1.266731,0.30389 -1.26673,0.30388 -0.665027,-0.25284 -0.665027,-0.25285 0.116295,0.79237 0.116295,0.79237 3.075301,-0.1877 3.075301,-0.18769 z m 70.994192,-0.50483 -0.14202,-0.37011 h 0.38857 0.38857 v -0.26458 -0.26458 h -0.36857 -0.36857 l -0.16059,0.41851 -0.1606,0.41851 v 0.39086 0.39085 l 0.28262,-0.17467 0.28262,-0.17467 z m -74.850854,-1.0324 1.339235,-0.39771 0.328684,-0.39604 0.328684,-0.39604 -0.329377,-0.39688 -0.329377,-0.39687 h -0.581437 -0.581437 l -1.118609,0.95749 -1.118609,0.95748 -0.125052,-0.12505 -0.125052,-0.12505 1.1605,-1.06971 1.1605,-1.06971 0.1667,-0.66419 0.1667,-0.66418 0.13064,-0.35531 0.130641,-0.35531 -0.250264,-0.39382 -0.250263,-0.39382 -0.937582,0.90874 -0.937582,0.90874 v 0.3274 0.3274 l 0.727604,0.11022 0.727604,0.11023 -0.939271,0.0396 -0.939271,0.0396 -0.3175,0.3175 -0.3175,0.3175 v 0.65385 0.65385 l 0.437883,0.48386 0.437882,0.48385 h 0.307845 0.307846 z m 16.818056,-0.15854 -0.145462,-0.55625 0.262666,-0.17135 0.262666,-0.17136 0.156756,-1.91823 0.156756,-1.91823 h -0.371283 -0.371283 l -0.247752,0.99219 -0.247751,0.99219 0.08539,1.5875 0.08539,1.5875 0.01987,0.0661 0.01987,0.0661 h 0.239814 0.239813 z m 2.047086,-3.14792 v -0.79375 l 0.595313,-0.008 0.595312,-0.008 -0.529166,-0.30347 -0.529167,-0.30348 -0.325701,-0.41608 -0.325701,-0.41608 -0.26556,0.39687 -0.26556,0.39688 -0.0041,1.12447 -0.0041,1.12448 h 0.529167 0.529166 z m -19.336979,-2.15508 0.0224,-0.17071 -1.350201,-0.706 -1.350201,-0.706 -0.146665,0.14667 -0.146666,0.14666 -0.106393,1.43718 -0.106393,1.43718 0.611072,0.0957 0.611072,0.0957 0.969792,-0.80288 0.969792,-0.80288 z m -16.051041,1.2576 0.463021,-0.35148 v -0.23541 -0.23542 h -0.926042 -0.926041 v 0.27781 0.27782 l 0.3175,0.3175 0.3175,0.3175 0.14552,-0.008 0.145521,-0.008 z m -4.034896,-0.57297 v -0.3504 l -0.282187,-0.1744 -0.282187,-0.1744 -0.355809,0.48659 -0.355809,0.4866 0.109093,0.17652 0.109093,0.17651 0.528903,-0.13831 0.528903,-0.13831 z m 43.287298,-1.19619 0.765827,-0.50487 -0.661459,-0.0437 -0.661458,-0.0437 -0.463021,0.0388 -0.463021,0.0388 V 62.24531 62.0059 l 0.33073,-0.13898 0.330729,-0.13899 -0.529167,-0.34608 -0.529167,-0.34609 -0.723798,-0.16424 -0.723799,-0.16424 -0.432801,0.31647 -0.4328,0.31647 1.268106,0.83996 1.268107,0.83996 h 0.219222 0.219222 l -0.523166,0.52316 -0.523165,0.52317 0.170685,0.4448 0.170685,0.44479 0.578841,-0.72593 0.578841,-0.72594 z m 12.37622,0.83288 -0.4797,-0.81207 -0.53826,0.008 -0.53827,0.008 0.51359,0.38846 0.51359,0.38846 h 0.19619 0.19618 l 0.17428,0.54911 0.17428,0.5491 0.13391,-0.13391 0.13392,-0.13391 z m -3.40831,-0.2829 0.16352,-0.26459 h 0.79375 0.79375 l -0.16352,-0.26458 -0.16352,-0.26458 -1.50574,0.004 -1.50574,0.004 0.38424,0.24307 0.38424,0.24307 0.27722,-0.16562 0.27722,-0.16562 -0.36313,0.44766 -0.36313,0.44767 h 0.41366 0.41366 z m -2.298673,-0.46441 -0.08798,-0.46164 -0.592609,-0.0845 -0.59261,-0.0846 v 0.48987 0.48986 l 0.680593,0.0563 0.680593,0.0563 z m 9.839293,0.19982 0.39688,-0.25648 -0.74322,-0.004 -0.74322,-0.004 0.16352,-0.26458 0.16352,-0.26458 -0.21405,-0.0202 -0.21405,-0.0202 -0.46302,-0.0886 -0.46302,-0.0886 v 0.21286 0.21286 l 0.46302,0.189 0.46302,0.189 -0.52917,0.21759 -0.52917,0.21759 0.92605,0.0145 0.92604,0.0145 z m -5.29166,-1.20017 -1.71979,-0.34334 -2.050524,-0.17893 -2.050521,-0.17892 v 0.40831 0.40831 l 1.521354,0.0955 1.521351,0.0955 2.24896,0.0185 2.24896,0.0185 z m -56.336367,-4.70661 -0.23836,-0.23836 -0.287637,0.17777 -0.287637,0.17777 v 0.51096 0.51096 l 0.525997,-0.45037 0.525996,-0.45037 z"
       id="path21" /></g></svg>
