<?xml version="1.0" encoding="UTF-8" standalone="no"?>
<!-- Created with Inkscape (http://www.inkscape.org/) -->

<svg
   width="69.320847mm"
   height="67.789215mm"
   viewBox="0 0 69.320847 67.789215"
   version="1.1"
   id="svg1"
   xml:space="preserve"
   xmlns:inkscape="http://www.inkscape.org/namespaces/inkscape"
   xmlns:sodipodi="http://sodipodi.sourceforge.net/DTD/sodipodi-0.dtd"
   xmlns="http://www.w3.org/2000/svg"
   xmlns:svg="http://www.w3.org/2000/svg"><sodipodi:namedview
     id="namedview1"
     pagecolor="#ffffff"
     bordercolor="#000000"
     borderopacity="0.25"
     inkscape:showpageshadow="2"
     inkscape:pageopacity="0.0"
     inkscape:pagecheckerboard="0"
     inkscape:deskcolor="#d1d1d1"
     inkscape:document-units="mm" /><defs
     id="defs1" /><g
     inkscape:label="Layer 1"
     inkscape:groupmode="layer"
     id="layer1"
     transform="translate(-104.99998,-25.799285)"><path
       style="fill:#ffffff;fill-opacity:1"
       d="m 104.99999,59.665956 v -33.86667 h 34.66042 34.66042 v 33.86667 33.86666 h -5.28003 -5.28002 l 0.0229,-4.45068 0.0229,-4.45068 -0.26372,-0.51026 -0.26371,-0.51025 -0.17038,-1.32292 -0.17037,-1.32291 -0.65056,-1.32292 -0.65055,-1.32292 -0.008,0.19309 -0.008,0.19308 0.41782,1.04425 0.41783,1.04424 -0.0871,0.61476 -0.0871,0.61475 -0.1997,-0.0692 -0.19971,-0.0692 -0.95709,0.3999 -0.95709,0.3999 h -0.1461 -0.1461 l 0.62141,-0.66146 0.62141,-0.66146 h -0.41094 -0.41094 l -1.48588,0.89475 -1.48588,0.89475 -1.39045,0.53155 -1.39044,0.53155 -1.69585,0.54761 -1.69584,0.54761 -0.19958,-0.12334 -0.19957,-0.12335 0.48414,-0.99067 0.48414,-0.99067 0.26281,-0.66146 0.2628,-0.66146 0.14056,-0.44367 0.14056,-0.44368 -0.33173,-0.27531 -0.33174,-0.27531 -0.98188,0.15933 -0.98188,0.15934 -0.14148,0.22892 -0.14149,0.22893 h -0.60566 -0.60566 l -0.49115,-1.12448 -0.49115,-1.12448 -0.74548,-0.87574 -0.74548,-0.87574 0.15373,-0.24874 0.15373,-0.24874 h 0.58242 0.58243 l 0.0617,-1.38906 0.0617,-1.38907 0.0584,-0.44836 0.0584,-0.44836 0.3848,0.31607 0.3848,0.31607 -0.17231,-0.86996 -0.17232,-0.86997 0.39076,-0.14994 0.39075,-0.14995 -0.103,-0.17072 -0.103,-0.17071 0.3691,-0.34116 0.36911,-0.34116 0.004,0.20887 0.004,0.20887 0.24207,-0.38262 0.24207,-0.38262 -0.28234,-0.52756 -0.28235,-0.52756 -0.49294,0.60876 -0.49295,0.60876 -0.004,-0.22775 -0.004,-0.22775 -0.2275,0.35905 -0.2275,0.35904 -0.58152,-0.18457 -0.58152,-0.18456 0.38167,-0.43906 0.38167,-0.43906 -0.11981,-0.33073 -0.11982,-0.33073 h -1.30086 -1.30087 v -0.23981 -0.23982 l -0.46302,0.1202 -0.46302,0.12019 -0.52583,-0.38578 -0.52583,-0.38577 0.97983,-0.18382 0.97982,-0.18381 0.15915,-0.50142 0.15914,-0.50141 h 0.26237 0.26237 l -0.16352,-0.26458 -0.16353,-0.26459 -0.84428,-0.0139 -0.84428,-0.0139 0.60906,-0.42439 0.60906,-0.4244 0.37234,-0.89113 0.37233,-0.89112 -0.1498,-0.39039 -0.14981,-0.39039 h -0.51394 -0.51399 l -0.80206,-0.41476 -0.80206,-0.41476 0.18709,-0.44514 0.18709,-0.44514 0.13162,-2.11666 0.13163,-2.11667 0.24517,-0.47043 0.24518,-0.47043 0.25131,0.15532 0.2513,0.15531 v -0.25855 -0.25856 l -0.1606,-0.41851 -0.16059,-0.41852 h -0.53129 -0.53129 l 0.4383,-0.66893 0.4383,-0.66893 -0.1589,-0.25711 -0.15891,-0.25711 h 0.53234 0.53233 l 0.67391,-0.30705 0.6739,-0.30706 v -0.25042 -0.25042 l 0.37202,0.14276 0.37202,0.14275 0.46274,-0.51132 0.46274,-0.51132 h 0.45576 0.45576 l 0.34049,-0.41027 0.3405,-0.41027 -0.59401,-0.15533 -0.59401,-0.15534 0.17498,-0.55888 0.17498,-0.55887 0.1368,-0.56928 0.1368,-0.56927 -0.57922,-0.18384 -0.57922,-0.18383 0.18444,-0.56981 0.18444,-0.56981 0.13612,-1.85208 0.13611,-1.85208 0.22387,-0.14239 0.22386,-0.14238 -0.38794,-0.74776 -0.38794,-0.74775 v -0.0869 -0.0869 l 0.52916,0.10191 0.52917,0.10191 v -0.59335 -0.59335 l -0.3175,-0.3175 -0.3175,-0.3175 h -0.43013 -0.43013 l -0.58694,-0.62478 -0.58695,-0.62477 -0.45136,0.047 -0.45136,0.047 -0.66146,0.17679 -0.66146,0.1768 -0.92604,-0.23344 -0.92604,-0.23343 0.6952,-0.0271 0.69521,-0.0271 0.36313,-0.4415 0.36312,-0.4415 -0.79375,0.15839 -0.79375,0.15838 -0.49912,0.19299 -0.49912,0.19298 0.12429,-0.37289 0.1243,-0.37289 0.30868,-0.0331 0.30868,-0.0331 0.13229,-0.0662 0.13229,-0.0661 0.27424,-0.0331 0.27423,-0.0331 0.18879,-0.30453 0.18879,-0.30453 1.01034,2.6e-4 1.01034,2.6e-4 -0.15045,0.37041 -0.15044,0.37042 -0.1606,0.39687 -0.1606,0.39688 0.22674,-0.004 0.22675,-0.004 0.28084,-0.19439 0.28084,-0.19438 -0.007,-0.59532 -0.007,-0.59531 h -0.2235 -0.22351 l 0.17395,-0.28146 0.17395,-0.28145 -1.01823,0.1609 -1.01823,0.16091 -1.05833,0.30789 -1.05834,0.3079 -0.16975,0.24489 -0.16976,0.24489 -1.41774,1.67993 -1.41775,1.67993 -0.33072,0.005 -0.33073,0.004 v 0.38478 0.38478 l -1.30469,2.26734 -1.30469,2.26734 -0.67969,0.80776 -0.67968,0.80777 -0.0522,1.50105 -0.0522,1.50105 0.0719,1.19063 0.0719,1.19062 0.40307,0.44635 0.40307,0.44635 -0.1602,0.25921 -0.1602,0.2592 0.003,2.07257 0.003,2.07257 0.10372,3.175 0.10373,3.175 0.19443,0.79375 0.19444,0.79375 -0.0156,0.4304 -0.0156,0.43039 0.71555,1.42169 0.71555,1.42169 0.75291,1.26872 0.7529,1.26872 -0.0983,0.0804 -0.0983,0.0804 -2.64584,1.78204 -2.64583,1.78203 -0.57946,0.63544 -0.57946,0.63545 -1.40492,0.62024 -1.40491,0.62025 -1.86307,0.56491 -1.86307,0.56492 -1.57651,1.02551 -1.57651,1.02551 -2.70938,2.62892 -2.70937,2.62892 -1.33832,2.73246 -1.33832,2.73246 0.10451,0.30298 0.10452,0.30297 0.56569,-1.23337 0.5657,-1.23338 0.20248,-0.0895 0.20249,-0.0895 0.58688,-1.20273 0.58689,-1.20274 0.66988,-0.62932 0.66989,-0.62932 v 0.3107 0.3107 h 0.25259 0.2526 l 0.16952,-0.90363 0.16952,-0.90363 0.63517,-0.59672 0.63518,-0.59671 0.15477,0.15477 0.15477,0.15477 -0.23913,0.48568 -0.23912,0.48568 0.16903,0.79375 0.16903,0.79375 0.20611,-1.39142 0.2061,-1.39143 0.50239,-1.03983 0.50239,-1.03983 0.58384,-0.40894 0.58384,-0.40893 0.18309,0.29625 0.18309,0.29625 0.29147,-0.5446 0.29146,-0.5446 1.42283,-0.81406 1.42283,-0.81406 h 0.31414 0.31413 l -0.16352,0.26458 -0.16352,0.26458 0.21405,-0.006 0.21405,-0.006 1.70751,-0.92003 1.70751,-0.92003 h 0.29326 0.29325 l 0.59668,-0.80705 0.59668,-0.80705 0.57756,-0.24864 0.57755,-0.24865 2.24896,-1.58235 2.24896,-1.58235 0.16373,-0.008 0.16373,-0.008 1.47444,1.46271 1.47443,1.46271 0.45403,2.17531 0.45404,2.17531 0.11424,1.85209 0.11425,1.85208 0.27335,0.33073 0.27335,0.33073 h -0.25602 -0.25598 l -0.47324,-0.52284 -0.47324,-0.52292 -0.24789,0.1532 -0.24789,0.15321 0.17724,1.04908 0.17724,1.04907 -0.53882,0.14091 -0.53882,0.1409 0.2524,0.66388 0.25241,0.66387 -0.23105,0.83678 -0.23104,0.83678 0.21807,0.5895 0.21807,0.58951 h -0.18991 -0.18991 v 0.66145 0.66146 h 0.17996 0.17997 l -0.23845,0.83142 -0.23844,0.83142 0.14024,0.22691 0.14024,0.22692 -0.18098,0.29283 -0.18098,0.29283 -0.22746,-0.35898 -0.22746,-0.35897 -0.016,-1.45521 -0.016,-1.45521 -0.34236,-0.79375 -0.34236,-0.79375 -0.1522,0.52917 -0.1522,0.52916 -0.43759,2.05052 -0.4376,2.05052 h -3.44983 -3.44985 l 0.19463,-0.46302 0.19462,-0.46302 0.11568,-0.66145 0.11568,-0.66146 -0.53364,1.12448 -0.53365,1.12447 h -0.1097 -0.1097 l 0.19353,-1.05833 0.19353,-1.05833 h -0.22906 -0.22905 l -0.008,0.59531 -0.008,0.59531 -0.35148,0.46302 -0.35149,0.46302 h -1.05124 -1.05121 l -0.14191,-0.1419 -0.14191,-0.14191 0.30411,-0.85028 0.30411,-0.85028 0.32287,-0.57792 0.32286,-0.57792 v -0.2111 -0.21111 l -0.61267,0.92132 -0.61268,0.92131 -0.34546,0.8599 -0.34547,0.85989 h -2.30505 -2.30505 l -0.1741,-0.17409 -0.17409,-0.17409 0.24169,-0.29123 0.2417,-0.29122 0.14107,-1.52737 0.14108,-1.52738 -0.25208,0.15579 -0.25207,0.15579 -0.16369,1.02363 -0.16368,1.02362 -0.49458,0.81328 -0.49459,0.81327 h -1.34302 -1.34301 l 0.17854,-1.19062 0.17855,-1.19062 h -0.29463 -0.29462 v 0.77211 0.77211 l -0.1606,0.41851 -0.1606,0.41851 h -0.76544 -0.76545 v -0.39687 -0.39687 h -0.26458 -0.26458 v 0.37917 0.37918 l -0.80647,-0.0229 -0.80647,-0.0229 0.1564,-0.40756 0.15639,-0.40756 -0.49524,0.44819 -0.49524,0.44818 h -3.74948 -3.74948 z m 19.49098,33.16111 -0.17639,-0.17639 v 0.35278 0.35278 l 0.17639,-0.17639 0.17639,-0.17639 z m -6.81362,-3.1309 -0.0145,-0.52917 -0.22739,0.52917 -0.22739,0.52916 -0.0145,0.39688 -0.0145,0.39687 0.25648,-0.39687 0.25648,-0.39688 z m 10.60598,0 v -0.1323 h -0.13229 -0.1323 v 0.1323 0.13229 h 0.1323 0.13229 z m -7.9375,-0.26459 v -0.13229 h -0.13229 -0.1323 v 0.13229 0.13229 h 0.1323 0.13229 z m 10.2349,-0.44648 -0.13896,-0.34727 -0.0209,0.50712 -0.0209,0.50712 0.15985,-0.15985 0.15986,-0.15986 z m 2.90668,-0.79631 0.21988,0.0801 0.0955,-0.46263 0.0955,-0.46262 -0.62469,0.41282 -0.62468,0.41283 -0.0718,0.63113 -0.0718,0.63114 0.38109,-0.66146 0.38109,-0.66146 z m 32.41132,0.25549 -0.27955,-0.27955 0.16386,0.6266 0.16386,0.62661 0.11569,-0.34706 0.11568,-0.34706 z m -0.57374,0.45814 v -0.1323 h -0.13229 -0.13229 v 0.1323 0.13229 h 0.13229 0.13229 z m -39.46805,-0.87976 0.0871,-0.61518 -0.68247,0.44717 -0.68246,0.44717 v 0.25255 0.25256 l 0.59531,-0.0846 0.59531,-0.0845 z m 4.01389,-4.20502 v -0.16522 l 0.42402,-0.46855 0.42403,-0.46854 -0.10303,-0.3091 -0.10303,-0.3091 -1.24704,2.02071 -1.24704,2.02071 v 0.1392 0.1392 l -0.66145,0.97342 -0.66146,0.97343 0.003,0.26931 0.003,0.26931 1.58438,-2.45978 1.58438,-2.45978 z m -0.52917,4.39209 v -0.26459 l -0.26458,0.16353 -0.26459,0.16352 v 0.26458 0.26458 l 0.26459,-0.16352 0.26458,-0.16352 z m -6.92423,-0.43179 0.23814,-0.46302 -0.11874,-0.33119 -0.11874,-0.33118 0.9242,-1.25632 0.92419,-1.25631 0.71184,-0.66146 0.71183,-0.66146 0.81881,-1.029 0.81881,-1.029 -0.51441,0.27558 -0.51441,0.27558 -1.22396,1.07775 -1.22396,1.07776 -1.09114,2.09731 -1.09115,2.09732 v 0.29033 0.29033 h 0.25528 0.25527 z m -1.01732,-0.67708 0.004,-0.21405 -0.26458,0.16352 -0.26459,0.16352 0.004,0.44741 0.004,0.44741 0.25648,-0.39688 0.25648,-0.39687 z m 12.35127,-0.62379 -0.17639,-0.17639 v 0.35278 0.35278 l 0.17639,-0.17639 0.17639,-0.17639 z m 0.35278,-0.48507 v -0.13229 h -0.13229 -0.13229 v 0.13229 0.13229 h 0.13229 0.13229 z m 0.34134,-0.92641 0.13848,-0.52953 -0.23991,0.14827 -0.23991,0.14827 v 0.38126 0.38126 h 0.10143 0.10144 z m -2.98717,-0.39651 v -0.13229 h -0.13229 -0.1323 v 0.13229 0.13229 h 0.1323 0.13229 z m 4.23836,-0.7998 0.3344,-0.40294 -0.4343,0.16666 -0.4343,0.16666 v 0.23627 0.23628 h 0.0999 0.0999 z m 1.22969,-0.25853 v -0.39688 h -0.22048 -0.22049 v 0.39688 0.39687 h 0.22049 0.22048 z m 28.39861,0.0156 v -0.11667 l -0.30546,-0.18879 -0.30546,-0.18879 0.18878,0.30547 0.18879,0.30546 h 0.11668 0.11667 z m -40.21666,-3.19061 v -0.13229 h -0.13229 -0.1323 v 0.13229 0.13229 h 0.1323 0.13229 z m 4.49791,-1.05833 v -0.1323 h -0.13229 -0.13229 v 0.1323 0.13229 h 0.13229 0.13229 z m 0.99788,-1.33928 -0.16125,-0.16125 -0.31693,0.61797 -0.31693,0.61797 0.47818,-0.45672 0.47818,-0.45672 z m 21.49171,-3.15864 v -0.13229 h -0.1323 -0.13229 v 0.13229 0.13229 h 0.13229 0.1323 z m 0.26458,-0.51355 v -0.11668 l -0.26458,-0.16352 -0.26459,-0.16352 v 0.2802 0.28019 h 0.26459 0.26458 z m -2.11667,-1.33853 v -0.13229 h -0.13229 -0.13229 v 0.13229 0.13229 h 0.13229 0.13229 z m 4.10104,-0.39688 0.16353,-0.26458 h -0.1323 -0.13229 l -0.16352,0.26458 -0.16352,0.26459 h 0.13229 0.13229 z m -3.0427,-0.39687 v -0.13229 h -0.1323 -0.13229 v 0.13229 0.13229 h 0.13229 0.1323 z m -0.79375,-1.37584 v -0.71437 l -0.29972,0.29971 -0.29971,0.29972 0.15912,0.41466 0.15912,0.41466 h 0.14059 0.1406 z m 4.49791,0.0529 v -0.13229 h -0.13229 -0.13229 v 0.13229 0.13229 h 0.13229 0.13229 z m 0,-1.05833 v -0.13229 h -0.13229 -0.13229 v 0.13229 0.13229 h 0.13229 0.13229 z m 1.5875,0 v -0.13229 h -0.13229 -0.13229 v 0.13229 0.13229 h 0.13229 0.13229 z m 0.92604,-1.19063 0.16353,-0.26458 h -0.2802 -0.2802 v 0.26458 0.26459 h 0.11668 0.11667 z m 0.91794,-1.19062 v -0.26459 l -0.25648,0.39688 -0.25648,0.39687 v 0.26459 0.26458 l 0.25648,-0.39687 0.25648,-0.39688 z m -7.40023,-0.62906 v -0.23219 l -0.35507,-0.29468 -0.35507,-0.29469 -0.15587,0.15587 -0.15586,0.15586 0.14237,0.37101 0.14237,0.37101 h 0.36857 0.36856 z m 8.11389,-0.47337 -0.17639,-0.17639 -0.17639,0.17639 -0.17638,0.17639 h 0.35277 0.35278 z m 0.52917,-1.05833 -0.17639,-0.17639 v 0.35278 0.35277 l 0.17639,-0.17639 0.17639,-0.17638 z m 2.46944,-2.33713 v -0.13229 h -0.13229 -0.13229 v 0.13229 0.1323 h 0.13229 0.13229 z m 1.99563,-7.80521 -0.14722,-2.24896 -0.15937,-2.05052 -0.15937,-2.05052 h -0.20736 -0.20736 l -0.14838,0.38669 -0.14839,0.38669 0.27094,1.53154 0.27094,1.53154 0.14712,1.11549 0.14712,1.11548 -0.43028,1.31548 -0.43027,1.31548 v 0.42566 0.42566 l 0.67455,-0.47538 0.67455,-0.47537 z m -16.01854,2.77813 v -0.13229 h -0.13229 -0.1323 v 0.13229 0.13229 h 0.1323 0.13229 z m 2.57968,-0.38975 1.12448,-0.51042 v -1.54987 -1.54986 l -0.41847,-0.5136 -0.41848,-0.51359 0.13838,0.44424 0.13838,0.44423 0.17202,0.91697 0.17203,0.91697 -0.30457,0.56909 -0.30457,0.5691 -1.3733,0.62771 -1.37329,0.62771 0.66146,0.0159 0.66145,0.0159 z m -4.16718,0.0687 -0.39688,-0.14693 -0.39687,-0.2952 -0.39688,-0.29521 0.36313,0.46302 0.36312,0.46302 0.43063,-0.0209 0.43062,-0.0209 z m 3.09954,-1.06807 -0.0721,-0.46302 -0.2064,-0.33073 -0.2064,-0.33073 0.14493,-0.2345 0.14493,-0.2345 -0.52619,-0.1376 -0.52619,-0.13761 v -0.42164 -0.42165 h 0.39183 0.39184 l 0.16601,-0.66145 0.16602,-0.66146 0.30205,-0.002 0.30204,-0.002 -0.77103,-0.40209 -0.77103,-0.40208 -1.2671,0.42086 -1.26711,0.42087 -0.16175,0.50965 -0.16176,0.50965 0.16932,0.27396 0.16932,0.27397 0.31078,-0.0384 0.31078,-0.0384 0.33073,0.0314 0.33073,0.0314 v 0.99705 0.99705 l 0.7276,0.45112 0.72761,0.45112 0.46136,0.007 0.46136,0.007 z m -4.68704,-1.52135 v -0.13229 h -0.13229 -0.1323 v 0.13229 0.13229 h 0.1323 0.13229 z m 4.49791,-0.52917 v -0.13229 h -0.13229 -0.13229 v 0.13229 0.13229 h 0.13229 0.13229 z m -5.18861,-1.07755 0.15967,-0.4161 -0.44016,0.0854 -0.44017,0.0854 -0.11012,0.33073 -0.11012,0.33073 h 0.39062 0.39061 z m 11.62154,-0.82654 2.0673,-0.66408 -0.14358,-0.14358 -0.14357,-0.14358 -2.51904,0.7439 -2.51904,0.74389 v 0.19598 0.19598 l 0.59532,-0.13222 0.59531,-0.13221 z m -7.06608,-5.52588 -0.1606,-0.41851 v -0.11065 -0.11066 h -0.39687 -0.39688 v 0.21167 0.21167 l 0.3175,0.3175 0.3175,0.3175 h 0.23998 0.23997 z m 14.00877,-1.01877 -0.287,-1.43729 -0.22717,-0.21636 -0.22718,-0.21636 0.1454,0.52917 0.14541,0.52917 0.18316,0.92604 0.18316,0.92604 0.11679,0.19844 0.11679,0.19844 h 0.0688 0.0688 z m -2.33871,-6.42462 -0.44097,-0.44097 -0.20433,0.20432 -0.20432,0.20432 0.50944,0.37251 0.50944,0.37251 0.13585,-0.13586 0.13586,-0.13586 z m -8.12649,-0.20788 v -0.1323 h -0.13229 -0.13229 v 0.1323 0.13229 h 0.13229 0.13229 z m -0.0882,-0.83785 -0.17639,-0.17639 v 0.35278 0.35277 l 0.17639,-0.17638 0.17639,-0.17639 z m 5.42732,-0.69247 -0.28191,-0.33969 -1.13955,-0.62423 -1.13954,-0.62424 0.31766,0.34231 0.31766,0.34232 1.00525,0.59667 1.00526,0.59667 0.0985,0.0249 0.0985,0.0249 z m -10.10162,-0.32177 v -0.13229 h -0.13229 -0.13229 v 0.13229 0.13229 h 0.13229 0.13229 z m -0.66146,-0.39687 -0.16352,-0.26459 h -0.26458 -0.26459 l 0.16353,0.26459 0.16352,0.26458 h 0.26458 0.26458 z m 1.36702,0.0882 -0.17639,-0.17639 -0.17639,0.17639 -0.17639,0.17639 h 0.35278 0.35277 z m 0.61736,0.0441 v -0.13229 h -0.13229 -0.1323 v 0.13229 0.13229 h 0.1323 0.13229 z m 3.43958,-1.5875 v -0.13229 h -0.13229 -0.13229 v 0.13229 0.13229 h 0.13229 0.13229 z m -5.48507,-1.09959 -0.32569,-0.13178 -0.46806,0.12197 -0.46805,0.12197 0.79375,0.01 0.79375,0.01 z m 2.83924,0.0413 v -0.1323 h -0.1323 -0.13229 v 0.1323 0.13229 h 0.13229 0.1323 z m -0.85681,-0.31409 -0.45994,-0.1204 -0.5984,0.11506 -0.59839,0.11507 1.05833,0.005 1.05833,0.005 z m 0.59222,59.07048 v -0.11339 l 0.36164,-0.34963 0.36165,-0.34963 1.51521,-1.32291 1.51521,-1.32292 1.48504,-1.37855 1.48505,-1.37856 0.12222,0.12223 0.12222,0.12222 -0.89026,1.25633 -0.89027,1.25633 -1.456,1.78594 -1.456,1.78593 h -1.13785 -1.13786 z m 5.35528,-0.61421 0.31686,-0.7276 0.69233,-1.32292 0.69233,-1.32292 0.97698,-1.58433 0.97699,-1.58433 1.01953,-1.0615 1.01954,-1.0615 0.82508,-0.47798 0.82508,-0.47798 v 0.27954 0.27954 l -0.47955,0.47956 -0.47956,0.47956 -0.29151,-0.0972 -0.29152,-0.0972 -0.8317,1.20883 -0.8317,1.20883 -1.58969,3.30357 -1.58969,3.30358 h -0.63832 -0.63833 z m 7.08014,0.44741 v -0.2802 l 0.26458,0.16352 0.26459,0.16352 v 0.11668 0.11667 h -0.26459 -0.26458 z m -1.05833,-3.54919 v -0.12521 l 0.57554,-1.18465 0.57555,-1.18465 0.19498,0.1205 0.19499,0.12051 -0.17583,0.59404 -0.17582,0.59405 -0.39377,0.59532 -0.39377,0.59531 h -0.20094 -0.20093 z m -10.05417,-1.1977 v -0.26458 l 0.59531,0.004 0.59531,0.004 -0.39687,0.25648 -0.39688,0.25648 -0.19843,0.004 -0.19844,0.004 z m 0.7276,-1.79247 -0.46302,-0.0984 v -0.23275 -0.23275 l 0.97731,-0.26984 0.97731,-0.26985 0.1002,0.10019 0.10019,0.10019 2.16364,-1.04292 2.16364,-1.04293 0.78976,-0.41072 0.78976,-0.41072 -0.50033,0.55286 -0.50033,0.55286 -1.61234,0.90085 -1.61235,0.90085 -1.45521,0.50075 -1.45521,0.50074 z m -4.96093,-12.09815 v -0.1323 h 0.13229 0.13229 v 0.1323 0.13229 h -0.13229 -0.13229 z m 0.0661,-1.10127 -0.33073,-0.13346 v -0.24253 -0.24253 h 0.39687 0.39688 v 0.39687 0.39688 l -0.0661,-0.0209 -0.0661,-0.0209 z m -7.2011,-6.37321 -0.009,-0.59531 h 0.26459 0.26458 v -0.36019 -0.36018 l 0.69447,0.13275 0.69447,0.13276 -0.49276,0.27576 -0.49276,0.27576 -0.45749,0.54698 -0.45749,0.54698 z m 2.96776,-3.04271 0.11025,-0.33073 h 0.35277 0.35278 l 0.11025,0.33073 0.11024,0.33073 h -0.57327 -0.57326 z m 1.52136,-0.0661 v -0.13229 h 0.13229 0.13229 v 0.13229 0.13229 h -0.13229 -0.1323 z m -5.28586,-0.67469 0.006,-0.38364 0.53708,-1.18403 0.53709,-1.18403 0.23638,0.38247 0.23638,0.38247 -0.55704,0.93385 -0.55703,0.93385 -0.22224,0.25135 -0.22224,0.25136 z m 4.22752,-0.11906 v -0.13229 h 0.1323 0.13229 v 0.13229 0.13229 h -0.13229 -0.1323 z m -7.67291,-6.61458 v -0.13229 h 0.13229 0.13229 v 0.13229 0.13229 h -0.13229 -0.1323 z m 4.49791,-0.70556 v -0.22048 h 0.24897 0.24897 l 0.13627,0.22048 0.13627,0.22049 h -0.38524 -0.38524 z m -4.49791,-0.0882 v -0.13229 h 0.13229 0.13229 v 0.13229 0.13229 h -0.13229 -0.1323 z m 3.37189,-0.59531 -0.0989,-0.19844 0.0172,-0.38603 0.0172,-0.38602 0.92604,-0.19298 0.92604,-0.19297 0.38743,0.38057 0.38742,0.38056 h -0.32128 -0.32128 v 0.39687 0.39688 h -0.91042 -0.91043 z m -1.76234,-0.1626 0.11024,-0.0965 0.66146,-0.34374 0.66146,-0.34374 -0.36313,0.44019 -0.36313,0.4402 h -0.40857 -0.40858 z m 10.03211,-5.59209 v -0.13229 h 0.1323 0.13229 v 0.13229 0.13229 h -0.13229 -0.1323 z m 0.39688,-1.19062 0.16352,-0.26459 h 0.13229 0.13229 l -0.16352,0.26459 -0.16352,0.26458 h -0.13229 -0.1323 z m -8.86355,-7.09763 v -0.31071 h 0.2033 0.20331 l 0.45111,-0.7276 0.45112,-0.7276 0.007,0.4169 0.007,0.4169 -0.66146,0.6214 -0.66146,0.62141 z m 1.85739,-2.0241 -0.33468,-0.40327 h 0.28137 0.28136 l 0.1744,0.28218 0.1744,0.28219 -0.12108,0.12108 -0.12108,0.12108 z m 1.05303,-0.67454 -0.66146,-0.18506 0.48081,-0.20384 0.4808,-0.20385 0.29531,0.29531 0.2953,0.2953 -0.11465,0.0936 -0.11465,0.0936 z m -0.52917,-1.44852 v -0.1323 h 0.1323 0.13229 v 0.1323 0.13229 h -0.13229 -0.1323 z"
       id="path1" /></g></svg>
