<?xml version="1.0" encoding="UTF-8" standalone="no"?>
<!-- Created with Inkscape (http://www.inkscape.org/) -->

<svg
   width="69.320831mm"
   height="67.733337mm"
   viewBox="0 0 69.320831 67.733337"
   version="1.1"
   id="svg1"
   xml:space="preserve"
   xmlns:inkscape="http://www.inkscape.org/namespaces/inkscape"
   xmlns:sodipodi="http://sodipodi.sourceforge.net/DTD/sodipodi-0.dtd"
   xmlns="http://www.w3.org/2000/svg"
   xmlns:svg="http://www.w3.org/2000/svg"><sodipodi:namedview
     id="namedview1"
     pagecolor="#ffffff"
     bordercolor="#000000"
     borderopacity="0.25"
     inkscape:showpageshadow="2"
     inkscape:pageopacity="0.0"
     inkscape:pagecheckerboard="0"
     inkscape:deskcolor="#d1d1d1"
     inkscape:document-units="mm" /><defs
     id="defs1" /><g
     inkscape:label="Layer 1"
     inkscape:groupmode="layer"
     id="layer1"
     transform="translate(-105,-117.94545)"><path
       style="fill:#ffffff;fill-opacity:1"
       d="m 105,151.81211 v -33.86666 h 34.66041 34.66042 v 33.86666 33.86667 h -5.7066 -5.70659 l 0.0702,-2.24095 0.0702,-2.24095 -0.17817,-0.17817 -0.17817,-0.17817 -0.1756,0.50089 -0.1756,0.50089 -0.89253,1.91823 -0.89254,1.91823 h -1.18029 -1.18029 l 1.347,-2.57969 1.347,-2.57969 0.54066,-0.92604 0.54067,-0.92604 -0.26257,0.26458 -0.26257,0.26459 -1.23498,1.60396 -1.23498,1.60397 v 0.28187 0.28186 l -0.41622,0.34543 -0.41621,0.34542 -0.5152,1.00989 -0.51521,1.00989 h -1.71442 -1.71441 v -0.18422 -0.18421 l 0.61671,-0.94027 0.6167,-0.94026 1.67085,-2.58519 1.67084,-2.5852 -0.14123,-0.14122 -0.14122,-0.14123 -2.31675,3.25559 -2.31675,3.25558 -0.53715,0.59532 -0.53716,0.59531 -2.0044,-7.6e-4 -2.0044,-7.6e-4 1.86413,-1.78518 1.86413,-1.78518 1.17858,-0.96114 1.17858,-0.96114 -0.16578,-0.17478 -0.16578,-0.17478 -1.86767,1.40051 -1.86766,1.4005 -0.57327,0.39688 -0.57327,0.39687 -0.83287,0.74762 -0.83287,0.74762 -0.8514,0.37686 -0.85139,0.37686 -1.79444,-0.0209 -1.79443,-0.0209 0.33073,-0.13345 0.33072,-0.13345 v -0.32494 -0.32493 l -0.55727,-0.59816 -0.55727,-0.59817 -0.36877,0.71081 -0.36877,0.71081 v 0.11766 0.11766 l 0.33073,-0.19869 0.33073,-0.1987 -0.36313,0.44766 -0.36312,0.44767 h -1.12737 -1.12737 l -0.19674,-0.59531 -0.19674,-0.59532 -0.1171,0.59532 -0.11711,0.59531 h -16.51806 -16.51805 z m 41.63052,32.22458 0.15266,-0.58376 -0.15802,-0.14385 -0.15802,-0.14384 -0.11812,0.33073 -0.11812,0.33073 h -0.50712 -0.50712 v 0.28019 0.2802 l 0.24631,-0.15222 0.2463,-0.15222 0.16619,0.2689 0.16618,0.2689 h 0.21811 0.21811 z m -1.46347,-0.98721 0.11576,-0.34726 -0.34727,0.11575 -0.34726,0.11576 -0.11576,0.34726 -0.11575,0.34727 0.34726,-0.11576 0.34727,-0.11575 z m 2.69545,0.24805 v -0.26458 h -0.2802 -0.2802 l 0.16352,0.26458 0.16352,0.26458 h 0.11668 0.11668 z M 143.1,182.22841 v -0.21876 l 0.64354,0.1167 0.64354,0.1167 -0.24667,-0.86008 -0.24666,-0.86007 v -0.0835 -0.0835 l 0.26458,0.16352 0.26458,0.16353 v -0.12627 -0.12627 l 0.1606,-0.41851 0.1606,-0.41852 -0.49133,-0.006 -0.49132,-0.006 -1.58157,-0.77171 -1.58156,-0.77172 -0.0847,0.0847 -0.0847,0.0847 0.36095,0.36223 0.36095,0.36222 0.47457,0.72568 0.47456,0.72568 -0.1665,0.66338 -0.1665,0.66339 h 0.21671 0.21671 l 0.3175,-0.3175 0.3175,-0.3175 v 0.58208 0.58209 h -0.26458 -0.26459 v 0.25627 0.25628 l 0.39688,-0.15229 0.39687,-0.1523 z m 0.52916,-2.23817 v -0.13229 h 0.1323 0.13229 v 0.13229 0.13229 h -0.13229 -0.1323 z m 3.175,1.05833 v -0.13229 h -0.13229 -0.13229 v 0.13229 0.13229 h 0.13229 0.13229 z m -1.5875,-0.26458 v -0.13229 h -0.13229 -0.13229 v 0.13229 0.13229 h 0.13229 0.13229 z m 17.72709,-0.26459 v -0.13229 h -0.13229 -0.1323 v 0.13229 0.1323 h 0.1323 0.13229 z m -0.61301,-2.82773 -0.13897,-0.34727 -0.0209,0.50712 -0.0209,0.50712 0.15986,-0.15985 0.15985,-0.15985 z m -12.39535,-0.41341 0.23943,-0.46302 0.35653,-1.45521 0.35653,-1.45521 0.26558,-0.18405 0.26559,-0.18405 -0.18484,-0.18484 -0.18484,-0.18484 -0.99812,0.38604 -0.99813,0.38604 0.0842,0.47394 0.0842,0.47393 -0.30247,-0.10082 -0.30247,-0.10083 0.0395,-0.24487 0.0395,-0.24487 -0.49102,-0.18164 -0.49103,-0.18164 -0.52078,-1.02208 -0.52079,-1.02209 -0.7276,-0.68505 -0.72761,-0.68506 v -0.96859 -0.96859 h -0.28122 -0.28122 l 0.0782,-0.46302 0.0782,-0.46302 -0.39234,-0.54659 -0.39234,-0.54659 -0.44527,-0.16589 -0.44526,-0.1659 0.30486,-0.646 0.30487,-0.646 0.30508,0.11707 0.30508,0.11707 -0.11724,-0.74296 -0.11723,-0.74296 0.69372,0.75813 0.69373,0.75814 0.1617,-0.16171 0.1617,-0.1617 -0.30189,-0.66257 -0.30189,-0.66258 h 0.25892 0.25891 v -0.2802 -0.2802 l -0.23881,0.1476 -0.23881,0.14759 -0.2766,-0.79344 -0.27659,-0.79343 h 0.38311 0.38311 v -0.26459 -0.26458 h -0.26458 -0.26458 l -0.52917,0.52917 -0.52917,0.52916 -0.0331,-0.13229 -0.0331,-0.13229 -0.0331,-0.33073 -0.0331,-0.33073 -0.6996,-0.081 -0.6996,-0.081 -0.12226,-0.63957 -0.12226,-0.63957 0.51666,-0.34305 0.51667,-0.34305 -0.51879,-0.64068 -0.51879,-0.64068 -1.09197,0.86485 -1.09198,0.86486 -0.20456,0.78945 -0.20457,0.78946 -0.26072,-0.006 -0.26073,-0.006 -0.19051,-1.26691 -0.19051,-1.26691 0.38895,-0.29375 0.38895,-0.29375 0.006,-0.23542 0.006,-0.23541 0.5174,-0.66146 0.5174,-0.66146 0.006,0.89229 0.006,0.89229 0.39544,-0.32819 0.39545,-0.32819 1.03239,0.0143 1.03239,0.0143 0.44176,-0.32303 0.44177,-0.32302 -1.60502,0.0654 -1.60502,0.0654 v -0.20986 -0.20986 l 0.66146,-0.354 0.66146,-0.354 v -0.24819 -0.24818 l -0.37498,0.14389 -0.37498,0.1439 -0.15504,-0.40405 -0.15505,-0.40404 0.14937,-0.24168 0.14936,-0.24168 0.71139,0.16742 0.71139,0.16743 -0.31216,-0.33309 -0.31216,-0.33309 -0.66491,-0.073 -0.66491,-0.073 -0.26964,-0.16665 -0.26964,-0.16664 -1.00225,1.85699 -1.00225,1.85699 -0.17013,0.004 -0.17013,0.004 -0.13386,-0.34883 -0.13385,-0.34883 0.20217,-1.10561 0.20218,-1.10561 0.73939,-1.1173 0.7394,-1.1173 0.17312,0.49355 0.17313,0.49355 0.69477,0.0741 0.69476,0.0741 -0.14386,-0.3749 -0.14386,-0.3749 0.39508,-0.15161 0.39509,-0.15161 -0.11677,-0.44652 -0.11676,-0.44651 0.3912,-1.50195 0.39121,-1.50195 0.28397,-0.5306 0.28396,-0.53059 v -0.14968 -0.14969 h -0.36102 -0.36102 l -0.86082,0.75158 -0.86082,0.75158 0.17714,0.55811 0.17714,0.55812 -0.42058,0.81331 -0.42058,0.81331 -1.77586,-0.17481 -1.77587,-0.1748 -0.11024,-0.0961 -0.11025,-0.0961 h 0.91262 0.91263 v -1.86874 -1.86874 l -0.27322,0.36762 -0.27321,0.36761 -0.59531,0.15344 -0.59531,0.15343 v -0.32739 -0.3274 l -0.66106,-0.35379 -0.66106,-0.35378 0.12341,-0.12341 0.12341,-0.12341 0.77506,0.32104 0.77506,0.32104 0.82092,-0.42451 0.82092,-0.42452 v -0.39008 -0.39008 h -1.46351 -1.46351 l -0.15171,0.39536 -0.15171,0.39535 -0.27694,-0.17116 -0.27695,-0.17116 0.48753,-0.35648 0.48753,-0.35649 0.80932,-0.004 0.80933,-0.004 0.39688,-0.25648 0.39687,-0.25648 -0.69521,-0.004 -0.6952,-0.004 -0.30983,-0.37332 -0.30983,-0.37332 0.27743,-0.17146 0.27743,-0.17146 0.2387,0.14752 0.23871,0.14753 1.81181,0.12453 1.81182,0.12454 0.36535,0.008 0.36535,0.008 -0.1444,0.8599 -0.1444,0.8599 -0.18311,0.46302 -0.18311,0.46302 h 0.25681 0.25681 l 0.69754,-0.69754 0.69754,-0.69754 v -0.88996 -0.88996 h 0.24897 0.24897 l 0.14905,0.24117 0.14905,0.24117 0.7926,-0.29918 0.79261,-0.29918 v -0.19096 -0.19096 l -0.26459,-0.16352 -0.26458,-0.16352 v -0.23534 -0.23534 l 0.66409,-0.71656 0.66408,-0.71656 -0.13329,-0.13329 -0.1333,-0.1333 -0.48548,0.43935 -0.48547,0.43935 h -0.29335 -0.29326 l 0.15028,-0.92604 0.15027,-0.92604 h -0.2992 -0.2992 v -0.39688 -0.39687 h -0.39688 -0.39687 l 0.004,-0.46302 0.004,-0.46302 0.20137,0.31676 0.20137,0.31676 0.35764,-0.22103 0.35764,-0.22104 -0.19295,-0.3122 -0.19295,-0.3122 -0.37011,0.14202 -0.37012,0.14203 v -1.4059 -1.4059 l 0.52917,-0.47889 0.52917,-0.47889 v -0.24247 -0.24248 l 0.42042,-0.42042 0.42043,-0.42043 -0.45194,-0.25291 -0.45193,-0.25291 -0.1768,0.28606 -0.17679,0.28606 -1.53721,-0.11194 -1.5372,-0.11194 -0.39468,-0.32755 -0.39468,-0.32755 0.0881,0.38378 0.0881,0.38379 -1.22664,1.13068 -1.22665,1.13068 -0.75619,1.44724 -0.7562,1.44724 -0.17645,6.3e-4 -0.17646,6.2e-4 0.55259,-1.12447 0.55258,-1.12448 0.21918,-0.45943 0.21919,-0.45944 v -0.30057 -0.30057 l -0.42444,0.35226 -0.42444,0.35225 -0.281,0.67233 -0.28099,0.67233 -0.0222,0.14201 -0.0222,0.14201 -0.86346,0.91633 -0.86345,0.91632 -0.2693,0.98503 -0.26929,0.98503 -0.0383,1.4562 -0.0383,1.45621 0.45966,0.50792 0.45967,0.50792 0.0144,1.15189 0.0144,1.15188 0.30011,0.19844 0.3001,0.19844 -0.39687,0.28753 -0.39688,0.28754 0.61621,-0.13594 0.61622,-0.13594 -0.14164,0.3691 -0.14164,0.36909 0.25303,0.15638 0.25303,0.15638 v 1.21602 1.21602 l -0.48385,-0.43788 -0.48386,-0.43789 -0.11146,-1.2e-4 -0.11145,-1.2e-4 -0.0205,1.52148 -0.0205,1.52147 -0.0807,0.52917 -0.0807,0.52917 0.32396,2.38125 0.32396,2.38125 0.68975,1.4552 0.68975,1.45521 0.65726,1.05833 0.65726,1.05834 1.76589,1.85208 1.76589,1.85208 0.48165,2.38125 0.48164,2.38125 0.094,1.45521 0.094,1.45521 0.12851,0.59481 0.1285,0.59481 1.02792,0.68025 1.02792,0.68024 1.28227,0.21518 1.28227,0.21518 1.24746,0.0311 1.24746,0.0311 z m -6.76925,-14.47491 v -0.67249 h 0.23151 0.23151 v 0.39688 0.39687 l 0.0198,0.19183 0.0198,0.19182 -0.25135,0.0838 -0.25135,0.0838 z m 1.52136,0.38585 v -0.35278 l 0.17639,0.17639 0.17639,0.17639 -0.17639,0.17639 -0.17639,0.17638 z m -2.91042,-2.24896 v -0.13229 h 0.13229 0.13229 v 0.13229 0.13229 h -0.13229 -0.13229 z m -5.82083,-10.58333 v -0.1323 h 0.13229 0.13229 v 0.1323 0.13229 h -0.13229 -0.13229 z m 5.56844,-7.40834 -0.0487,-0.52916 -0.0956,-0.72342 -0.0956,-0.72342 0.21837,-0.13496 0.21836,-0.13496 0.12829,0.33432 0.12829,0.33431 -0.20243,1.05323 -0.20243,1.05323 z M 143.29844,141.141 143.1,140.65634 v -0.69274 -0.69274 l 0.28385,0.28386 0.28386,0.28386 -0.0854,0.89354 -0.0854,0.89354 z m -8.51087,-2.52254 -0.20723,-0.3353 0.15879,-0.15879 0.15878,-0.15878 0.15986,0.15985 0.15985,0.15985 -0.11141,0.33424 -0.11141,0.33423 z m 7.51868,-0.1678 v -0.1323 h 0.13229 0.13229 v 0.1323 0.13229 h -0.13229 -0.13229 z m -7.40834,-0.89482 v -0.26458 l 0.26459,-0.16352 0.26458,-0.16352 v 0.26458 0.26458 l -0.26458,0.16353 -0.26459,0.16352 z m 6.87917,38.99481 v -0.13229 h -0.13229 -0.13229 v 0.13229 0.1323 h 0.13229 0.13229 z m 16.66875,0 v -0.13229 h -0.13229 -0.13229 v 0.13229 0.1323 h 0.13229 0.13229 z m -16.13958,-0.26458 v -0.13229 h -0.13229 -0.1323 v 0.13229 0.13229 h 0.1323 0.13229 z m 4.1286,-12.76063 -0.15985,-0.15985 -0.15879,0.15878 -0.15878,0.15879 0.20722,0.3353 0.20723,0.3353 0.11141,-0.33424 0.11141,-0.33423 z m -2.97897,-4.97786 -0.15667,-0.40829 -0.1261,0.1261 -0.1261,0.1261 0.1744,0.28219 0.1744,0.28218 h 0.10837 0.10838 z m -2.78175,-9.28062 0.0877,-0.49755 -0.68299,0.71605 -0.68299,0.71606 v 0.17611 0.17611 l 0.59532,-0.39461 0.59531,-0.39462 z m 0.48559,-2.39373 -0.17639,-0.17639 v 0.35277 0.35278 l 0.17639,-0.17639 0.17639,-0.17639 z m 7.05311,-0.19462 0.14237,-0.37101 -0.15096,-0.15097 -0.15097,-0.15096 -0.22768,0.14071 -0.22768,0.14071 v 0.38126 0.38126 h 0.23628 0.23628 z m 15.96999,-0.73694 -0.13896,-0.34726 -0.0209,0.50711 -0.0209,0.50712 0.15985,-0.15985 0.15985,-0.15985 z m -15.74499,-0.41989 0.27814,-0.27814 -0.19579,-0.3168 -0.19579,-0.3168 -0.91601,0.14865 -0.91602,0.14865 -0.37035,0.30737 -0.37035,0.30736 0.12354,0.19989 0.12353,0.19989 1.08048,-0.061 1.08048,-0.061 z m -4.36769,0.0285 -0.17639,-0.17639 -0.17639,0.17639 -0.17639,0.17639 h 0.35278 0.35278 z m 19.93194,-0.74965 v -0.1323 h -0.13229 -0.13229 v 0.1323 0.13229 h 0.13229 0.13229 z m -18.78542,-2.38125 v -0.1323 h -0.13229 -0.13229 v 0.1323 0.13229 h 0.13229 0.13229 z m -1.85208,-10.58334 v -0.13229 H 143.23229 143.1 v 0.13229 0.13229 h 0.13229 0.13229 z m 0.44097,-0.57326 -0.17639,-0.17639 v 0.35278 0.35278 l 0.17639,-0.17639 0.17639,-0.17639 z m -4.6743,-0.22049 V 130.91 h -0.13229 -0.1323 v 0.13229 0.13229 h 0.1323 0.13229 z m 1.23472,-1.10243 -0.17639,-0.17639 -0.17639,0.17639 -0.17639,0.17639 h 0.35278 0.35278 z m 21.46043,54.42083 0.4215,-1.31807 0.0494,0.0613 0.0494,0.0613 0.1824,1.25677 0.18241,1.25677 h -0.65335 -0.65334 z"
       id="path2" /></g></svg>
