<?xml version="1.0" encoding="UTF-8" standalone="no"?>
<!-- Created with Inkscape (http://www.inkscape.org/) -->

<svg
   width="101.6mm"
   height="84.666664mm"
   viewBox="0 0 101.6 84.666664"
   version="1.1"
   id="svg1"
   xml:space="preserve"
   xmlns="http://www.w3.org/2000/svg"
   xmlns:svg="http://www.w3.org/2000/svg"><defs
     id="defs1" /><g
     id="layer1"
     transform="translate(-54.200002,-135.31153)"><path
       style="fill:#ffffff;fill-opacity:1"
       d="M 54.200001,177.64485 V 135.31153 H 105 155.8 v 42.33332 42.33334 H 105 54.200001 Z m 2.116666,41.02603 v -0.51355 l 0.302946,-0.18723 0.302943,-0.18723 -0.133961,0.70078 -0.133964,0.70079 h 0.210389 0.210386 l 0.01126,-1.91823 0.01126,-1.91823 0.167479,-0.99219 0.167479,-0.99219 h -0.293529 -0.29353 v -0.39687 -0.39688 l 0.198437,5.6e-4 0.198438,5.5e-4 -0.08872,-1.72034 -0.08872,-1.72035 h -0.242008 -0.242007 l -0.0403,0.33073 -0.0403,0.33073 -0.06147,0.26458 -0.06147,0.26458 -0.05141,0.66146 -0.05141,0.66146 -0.12409,-0.30264 -0.124091,-0.30264 -0.51648,0.13506 -0.516481,0.13506 v 1.68063 1.68063 l 0.396876,-0.15229 0.396875,-0.1523 v -0.20797 -0.20797 l 0.377132,-0.14471 0.377133,-0.14472 -0.09432,0.71172 -0.09432,0.71172 -0.01823,0.25136 -0.01823,0.25135 -0.3175,-0.3175 -0.3175,-0.3175 H 55.3377 54.993741 v 0.60854 0.60855 l 0.3175,0.3175 0.3175,0.3175 h -0.275594 -0.275594 l -0.018,1.19062 -0.018,1.19063 h 0.637552 0.637552 z m 25.979813,-4.31509 0.05064,-4.82865 0.147791,2.51355 0.147792,2.51354 0.19718,-0.30343 0.197177,-0.30343 0.13435,-8.29553 0.134349,-8.29553 0.255614,-11.77396 0.255615,-11.77395 0.149888,-8.86355 0.149889,-8.86353 0.266896,-9.63232 0.266897,-9.63233 -0.265111,-0.26511 -0.265108,-0.26511 -0.413051,0.34281 -0.413052,0.3428 -0.478892,-0.43339 -0.47889,-0.43339 h -1.136043 -1.136043 l 0.329376,0.39687 0.329377,0.39688 h -0.268673 -0.268672 l -0.152296,-0.39688 -0.152295,-0.39687 h -1.447993 -1.447994 l -0.08166,11.44323 -0.08166,11.44322 0.0964,0.59223 0.0964,0.59223 0.244934,-0.15137 0.244934,-0.15138 -0.171581,0.68363 -0.171578,0.68362 h 0.425557 0.425558 v 0.42927 0.42928 l -0.408089,-0.33869 -0.408088,-0.33868 -0.283233,0.28323 -0.283233,0.28324 0.192016,0.31068 0.192014,0.31069 0.536286,-0.14024 0.536285,-0.14024 -0.175562,13.41249 -0.175559,13.41251 -0.129086,6.08542 -0.129086,6.08541 -0.125338,8.75717 -0.125339,8.75717 0.172519,0.17252 0.172521,0.17252 h 2.337152 2.337153 z m 0.713842,2.84091 -0.01038,-1.98774 -0.244764,0.15127 -0.244765,0.15127 v 1.83647 1.83647 h 0.255144 0.25514 z m 6.114678,1.75623 v -0.23151 l 0.166314,-0.83158 0.166315,-0.83157 -0.430898,0.16535 -0.430899,0.16535 v 0.89773 0.89774 H 88.860416 89.125 Z m 3.556299,-0.17378 0.51359,-0.38846 h 0.456548 0.456549 l 0.102088,-0.30627 0.102089,-0.30627 1.838189,-0.60669 1.838189,-0.60669 -1.455208,0.14051 -1.455208,0.1405 -0.926042,0.43944 -0.926042,0.43945 -0.463021,0.37401 -0.46302,0.37402 -0.0041,-0.23944 -0.0041,-0.23945 -0.251822,0.39688 -0.251822,0.39687 -0.570113,-0.56875 -0.570112,-0.56875 0.561402,-0.30046 0.561402,-0.30045 v -0.30819 -0.30819 l -0.296824,0.29682 -0.296824,0.29683 -0.330492,-0.12682 -0.330492,-0.12683 -0.15924,0.41498 -0.159241,0.41497 0.158171,0.79086 0.158171,0.79086 0.826823,-0.008 0.826823,-0.008 z m 4.987029,-0.12388 -0.138379,-0.52917 h -0.445391 -0.445391 l -0.3175,0.3175 -0.317501,0.3175 v 0.21167 0.21167 h 0.901273 0.901271 z m 5.479592,-4e-4 v -0.20327 l -1.25677,-0.40453 -1.25677,-0.40452 -1.98438,-0.16397 -1.984375,-0.16398 -1.092658,0.33961 -1.092657,0.3396 h 3.077032 3.077038 l 0.85653,0.36144 0.85653,0.36143 -0.12929,0.2092 -0.1293,0.20921 0.52953,-0.13848 0.52954,-0.13847 z m 5.97596,-2.84387 -0.099,-3.37344 0.14376,-1.93602 0.14377,-1.93602 0.24732,0.34852 0.24732,0.34852 -0.14795,-0.85989 -0.14795,-0.8599 0.32411,-0.0314 0.32412,-0.0314 0.38314,0.055 0.38314,0.055 0.34446,-0.47108 0.34447,-0.47108 v 0.93251 0.93252 l -0.18773,0.18773 -0.18773,0.18772 -0.0107,1.84066 -0.0107,1.84066 0.16337,9e-5 0.16338,8e-5 0.79219,-4.82864 0.79219,-4.82865 0.30121,0.0661 0.3012,0.0662 v -0.23372 -0.23373 l -0.46302,-0.12009 -0.46302,-0.12008 -0.33073,0.11127 -0.33073,0.11128 v 0.86451 0.86451 l -0.28798,0.82612 -0.28799,0.82612 -0.86772,0.53628 -0.86773,0.53628 h -0.18282 -0.18282 l 0.16352,-0.26458 0.16352,-0.26459 -0.21405,-5.2e-4 -0.21405,-5.3e-4 -0.0588,-0.83556 -0.0588,-0.83556 0.45569,-0.34951 0.45569,-0.34951 -0.3623,-0.23859 -0.3623,-0.23859 0.46171,-1.42008 0.4617,-1.42009 0.61965,-0.83103 0.61965,-0.83103 0.8023,-0.27968 0.8023,-0.27969 v 0.38311 0.38311 l 0.19843,-9.2e-4 0.19844,-9.3e-4 0.78447,-1.45428 0.78447,-1.45428 h 0.22555 0.22555 l -0.18829,0.59324 -0.18829,0.59323 0.42689,-0.35428 0.42689,-0.35429 -0.0918,-0.78873 -0.0918,-0.78873 -0.29689,-0.29689 -0.29689,-0.29689 v -0.34395 -0.34396 h 0.53141 0.53141 l -0.32296,-0.51714 -0.32295,-0.51713 0.16383,-0.16383 0.16383,-0.16384 0.81834,0.42318 0.81834,0.42318 v -0.27968 -0.27968 l -0.35278,-0.13538 -0.35278,-0.13537 v -0.4031 -0.40311 l 0.61737,0.15495 0.61736,0.15495 v -0.27793 -0.27793 l -0.38017,-0.14588 -0.38017,-0.14589 0.14692,-0.38286 0.14692,-0.38286 0.51451,0.1633 0.51452,0.1633 -0.34741,-0.56841 -0.34742,-0.5684 0.45382,-0.33705 0.45381,-0.33705 -0.32152,-0.34724 -0.32152,-0.34723 0.46302,0.16293 0.46302,0.16293 v -0.26559 -0.26559 l 0.51413,0.27515 0.51413,0.27516 -0.38065,-0.72887 -0.38065,-0.72886 0.54342,-0.0866 0.54343,-0.0866 -0.31746,-0.38251 -0.31745,-0.38251 0.50045,0.16241 0.50044,0.16241 -0.92604,-0.81069 -0.92604,-0.81069 0.24901,-0.007 0.249,-0.007 -0.50867,-0.37196 -0.50868,-0.37195 0.49666,-1.41398 0.49666,-1.41399 0.87341,-1.23779 0.87342,-1.2378 0.67999,-1.34189 0.67999,-1.34189 h 0.22871 0.22872 l 0.29138,-1.15718 0.29138,-1.15717 0.68745,-0.45043 0.68744,-0.45043 0.41152,0.15791 0.41151,0.15791 -0.40318,0.45751 -0.40318,0.4575 -0.81754,1.63437 -0.81754,1.63437 -0.27428,0.16952 -0.27429,0.16952 -0.49878,0.9777 -0.49879,0.97771 -0.73117,0.73117 -0.73117,0.73117 -0.61835,0.83812 -0.61834,0.83812 v 0.36108 0.36109 l 0.33073,-0.21405 0.33073,-0.21406 h 0.5174 0.5174 l 0.30919,-0.66145 0.30919,-0.66146 0.49633,-1.04258 0.49632,-1.04257 0.0845,0.57955 0.0846,0.57956 0.18004,-0.0151 0.18003,-0.0151 1.71823,-3.56147 1.71823,-3.56147 0.0846,0.25374 0.0846,0.25375 -1.44541,3.04083 -1.44542,3.04083 -1.34958,2.39407 -1.34958,2.39407 0.007,0.33531 0.007,0.33532 0.77951,-0.92604 0.77952,-0.92604 0.007,0.50833 0.007,0.50834 -0.3907,0.43171 -0.39069,0.43171 1.51388,0.76655 1.51388,0.76654 1.52265,0.0462 1.52264,0.0462 v -0.23142 -0.23143 h 0.39688 0.39687 v -0.23627 -0.23628 l -0.39687,-0.15229 -0.39688,-0.1523 v -0.27288 -0.27289 l 0.33073,-0.007 0.33073,-0.007 0.92604,-0.81069 0.92604,-0.81069 -0.46302,0.14804 -0.46302,0.14805 -0.004,-0.32243 -0.004,-0.32242 -0.25648,0.39687 -0.25648,0.39688 -0.004,-0.21764 -0.004,-0.21764 -0.70185,0.55207 -0.70185,0.55208 -0.15584,-0.15584 -0.15584,-0.15585 0.39467,-0.22274 0.39467,-0.22275 3.0272,-2.14751 3.02719,-2.14752 0.54468,-0.78229 0.54468,-0.7823 0.39687,-0.13197 0.39688,-0.13197 0.78739,-0.73052 0.78739,-0.73053 h 0.18275 0.18275 l 0.22048,-0.24086 0.22049,-0.24085 -0.31245,0.17902 -0.31244,0.17903 -0.18365,-0.29715 -0.18365,-0.29714 -0.24132,0.35897 -0.24133,0.35898 0.16521,-1.05833 0.16521,-1.05833 0.11427,-0.42287 0.11428,-0.42287 0.65324,-0.29764 0.65323,-0.29763 0.40001,0.1535 0.40001,0.15349 v 0.20388 0.20388 l -0.39687,0.32938 -0.39688,0.32938 v 0.61559 0.6156 l 0.9472,0.72246 0.94719,0.72246 0.23938,-0.37827 0.23938,-0.37826 0.008,-0.26459 0.008,-0.26458 0.23336,0.36852 0.23335,0.36852 0.73745,-1.16227 0.73745,-1.16227 0.74159,-1.45521 0.74158,-1.4552 -0.023,-0.92605 -0.023,-0.92604 -0.21183,-0.66146 -0.21184,-0.66145 -0.0264,0.47579 -0.0264,0.47579 -0.84604,0.35573 -0.84604,0.35574 -0.31713,-0.1217 -0.31713,-0.12169 -0.35818,0.50495 -0.35818,0.50495 -0.57902,0.30716 -0.57901,0.30715 -0.17863,-1.19121 -0.17864,-1.19121 h -0.26322 -0.26322 l 0.16467,-0.65612 0.16468,-0.65612 -0.80807,-0.71998 -0.80806,-0.71999 0.67204,-0.35212 0.67205,-0.35212 0.40175,-0.96154 0.40176,-0.96153 0.32587,0.39977 0.32588,0.39978 0.83459,0.5702 0.8346,0.57019 h 0.28881 0.28881 l 2.2464,2.15792 2.2464,2.15791 0.5328,1.10062 0.5328,1.10062 v 0.74958 0.74958 l -1.19653,1.45341 -1.19653,1.45341 0.1522,0.47954 0.15219,0.47954 -0.44162,0.67401 -0.44163,0.67401 0.12756,0.66728 0.12756,0.66728 -0.26998,0.16686 -0.26998,0.16686 0.19279,-0.37161 0.19279,-0.37161 -0.41649,0.51359 -0.4165,0.51359 v 0.21401 0.21402 h 0.52917 0.52916 v 0.26458 0.26458 h -0.26431 -0.26458 v 0.30559 0.30559 l 0.51424,-0.46538 0.51425,-0.46539 0.11617,-0.7001 0.11616,-0.7001 -0.0351,1.32292 -0.0351,1.32291 -0.33073,-0.0661 -0.33073,-0.0661 v 0.23373 0.23372 l 0.53234,0.13921 0.53234,0.13921 -0.12028,1.8296 -0.12027,1.82961 2.96552,0.44329 2.96552,0.4433 h 0.82113 0.82113 l 0.15999,0.98588 0.15999,0.98588 -0.25559,0.25559 -0.25558,0.25558 -0.76147,0.0527 -0.76146,0.0527 -0.62921,0.1997 -0.62921,0.1997 -1.45567,-0.025 -1.45567,-0.025 3.175,0.9019 3.175,0.9019 0.19843,0.0104 0.19844,0.0104 v -9.88153 -9.88153 l -1.67153,-2.22316 -1.67152,-2.22316 -4.71833,-6.48237 -4.71833,-6.48229 -0.0935,-0.11129 -0.0935,-0.11128 -0.63353,0.59517 -0.63352,0.59516 -0.23008,0.97133 -0.23008,0.97133 0.005,2.55914 0.005,2.55913 -0.78096,0.1569 -0.78096,0.1569 -0.22437,-0.40093 -0.22438,-0.40093 h -0.34804 -0.34805 l -0.69714,-0.54837 -0.69714,-0.54837 v -1.84581 -1.84581 l -1.11042,-1.57457 -1.11042,-1.57457 h -0.1747 -0.17471 l -1.64566,2.00507 -1.64565,2.00506 0.14435,0.37619 0.14435,0.37618 h -0.52086 -0.52086 l 0.0662,-0.31665 0.0661,-0.31665 -1.38906,-0.75848 -1.38907,-0.75848 v -0.24779 -0.24779 h -0.79375 -0.79375 v -0.30181 -0.3016 l 1.47026,0.15175 1.47025,0.15174 0.16933,-0.44546 0.16932,-0.44545 0.60938,-0.48223 0.60938,-0.48222 v -0.20291 -0.2029 l 1.45124,-1.56383 1.45123,-1.56383 0.004,-0.33073 0.004,-0.33073 h 0.27287 0.27288 l -0.027,-0.85989 -0.027,-0.8599 0.16856,-2.67889 0.16856,-2.67888 -1.67119,-2.30683 -1.6712,-2.30682 -4.63021,0.15381 -4.6302,0.1538 -7.37891,0.16664 -7.37891,0.16664 1.3835,1.3477 1.38349,1.34771 0.6376,1.25824 0.6376,1.25825 v 0.41545 0.41545 l 2.05052,3.02061 2.05052,3.02061 0.44761,-0.13291 0.4476,-0.13291 0.9343,1.00512 0.9343,1.00513 0.007,0.19844 0.007,0.19843 h -0.52413 -0.52412 l -0.17807,-0.7276 -0.17807,-0.72761 -0.29,-0.19438 -0.28999,-0.19439 -0.57501,-0.004 -0.57501,-0.004 -0.7479,0.61934 -0.74791,0.61934 -1.42004,0.0202 -1.42004,0.0202 -0.19927,0.22038 -0.19927,0.22038 -0.55039,1.85208 -0.5504,1.85208 -0.17841,1.11949 -0.17842,1.11948 -0.36386,0.30198 -0.36386,0.30197 v 0.24325 0.24325 l -0.53815,0.57764 -0.53815,0.57763 0.43151,0.15137 0.43151,0.15136 -0.4068,0.33762 -0.4068,0.33761 0.14786,0.38531 0.14786,0.3853 0.38456,-0.47079 0.38457,-0.4708 -0.14541,0.86366 -0.14542,0.86365 -1.11095,2.26293 -1.11096,2.26293 -0.0518,1.37133 -0.0518,1.37133 -0.19395,2.79034 -0.19395,2.79035 0.31921,1.97875 0.31921,1.97875 -1.46587,3.03611 -1.46587,3.03611 -1.63784,2.91042 -1.637838,2.91042 -1.584816,3.57187 -1.584816,3.57188 -0.142826,0.13229 -0.142827,0.13229 0.155042,-0.43409 0.155042,-0.43409 0.186518,-10.1206 0.186517,-10.1206 -0.762424,0.18864 -0.762424,0.18864 -0.661459,0.0919 -0.661458,0.092 -0.132292,0.0299 -0.132291,0.0299 0.529166,0.42406 0.529167,0.42405 -0.452685,-0.15562 -0.452685,-0.15561 0.10198,1.02509 0.10198,1.02509 -0.257382,1.54232 -0.257382,1.54233 -0.142209,3.175 -0.142208,3.175 -0.241892,0.25136 -0.241892,0.25135 v 0.34396 0.34396 h 0.396875 0.396875 l 0.03069,-0.59532 0.03069,-0.59531 0.127697,0.4978 0.127698,0.4978 -0.342476,0.63992 -0.342475,0.63992 0.600107,3.62478 0.600107,3.62478 0.145349,0.60934 0.145349,0.60934 0.676771,-0.99596 0.676771,-0.99595 0.114541,0.34362 0.114542,0.34362 -0.294349,0.29435 -0.294349,0.29435 0.0014,0.27781 0.0014,0.27782 0.672871,1.05833 0.672872,1.05833 -0.173406,-0.62844 -0.173407,-0.62845 0.359075,0.21621 0.359075,0.21622 -0.363126,-0.44767 -0.363126,-0.44766 h 0.815949 0.815949 l 0.260122,-0.99219 0.260123,-0.99218 0.175679,-0.79375 0.17568,-0.79375 0.392624,-1.40869 0.392624,-1.40868 0.113092,0.11309 0.113093,0.1131 -0.66607,2.48621 -0.66607,2.48622 0.0161,0.52916 0.0161,0.52917 0.288732,-0.66146 0.288731,-0.66146 0.169399,0.79375 0.169399,0.79375 0.607843,-1.85208 0.607844,-1.85208 0.22286,-0.39688 0.22286,-0.39687 -0.12801,1.19062 -0.12802,1.19063 -0.0864,0.61537 -0.0864,0.61537 0.27318,-0.27317 0.27318,-0.27318 0.27375,-2.52501 0.27376,-2.52501 h 0.23722 0.23721 l -0.17716,1.04862 -0.17716,1.04863 0.17746,0.28714 0.17746,0.28714 0.37332,-0.30983 0.37332,-0.30983 0.0214,0.23084 0.0214,0.23083 0.50081,-1.05833 0.50081,-1.05833 0.0374,0.39687 0.0374,0.39688 -0.0485,0.47098 -0.0484,0.47099 1.37921,1.3811 1.37921,1.38109 -0.39649,-0.66146 -0.39649,-0.66145 -0.12516,-0.8599 -0.12517,-0.8599 h 0.21372 0.21372 l 0.16602,0.66146 0.16601,0.66146 0.16976,-0.0109 0.16975,-0.0108 0.59973,-1.28013 0.59974,-1.28014 2.0461,-1.68037 2.0461,-1.68037 1.11854,-1.03488 1.11855,-1.03488 0.15605,-0.49169 0.15606,-0.49168 h 0.23299 0.23299 l -0.26399,0.75728 -0.26399,0.75728 -0.64099,0.29205 -0.64099,0.29206 -0.18093,0.7366 -0.18093,0.7366 -1.12064,1.45521 -1.12063,1.45521 -1.2065,0.64895 -1.2065,0.64896 -0.47579,0.89244 -0.4758,0.89245 0.61793,0.5037 0.61792,0.5037 0.0538,0.33615 0.0538,0.33615 0.31243,0.52917 0.31242,0.52916 0.008,-0.18121 0.008,-0.18121 -0.25803,-0.67869 -0.25804,-0.67868 h 0.52766 0.52766 l -0.19336,0.72761 -0.19337,0.7276 -0.0101,0.59848 -0.0101,0.59847 -0.42987,0.13644 -0.42986,0.13643 -0.45418,1.18924 -0.45417,1.18924 0.13298,1.38314 0.13298,1.38314 0.13868,1.2838 0.13867,1.28379 0.18737,0.17142 0.18737,0.17141 -0.16993,-0.92604 -0.16993,-0.92604 0.26017,0.39687 0.26016,0.39688 0.004,-0.37483 0.004,-0.37483 0.14112,0.14113 0.14113,0.14112 -0.40738,1.1999 -0.40738,1.1999 0.14601,0.38048 0.146,0.38047 -0.40636,0.33725 -0.40636,0.33725 0.14776,0.69733 0.14776,0.69733 -0.42074,-0.52158 -0.42074,-0.52157 0.1351,-0.35207 0.1351,-0.35206 -0.23768,0.14689 -0.23767,0.14689 -0.42853,-0.16444 -0.42853,-0.16444 0.46788,-0.34212 0.46788,-0.34212 0.20136,0.12444 0.20135,0.12445 v -0.12529 -0.12528 l -1.25677,-0.70878 -1.25677,-0.70877 -2.05052,-0.1454 -2.05052,-0.14541 v 0.57628 0.57629 l -0.511775,-0.2739 -0.511773,-0.27389 h -0.669543 -0.669543 l -0.273893,0.51177 -0.273892,0.51178 v 1.07572 1.07573 l 0.463021,-0.004 0.463021,-0.004 -0.396875,-0.25648 -0.396875,-0.25648 0.542395,-0.004 0.542396,-0.004 0.291042,0.29104 0.291042,0.29104 0.555625,-0.55562 0.555627,-0.55563 h 0.62578 0.62577 l 0.6958,0.54732 0.6958,0.54732 -0.16341,-0.42585 -0.16341,-0.42584 0.36319,0.077 0.36319,0.077 -0.0728,-0.35067 -0.0728,-0.35067 0.60196,0.18618 0.60195,0.18618 1.05834,0.53043 1.05833,0.53042 0.99219,0.78078 0.99219,0.78077 v 0.77152 0.77152 h 0.39164 0.39165 z m -11.532213,-0.8599 v -0.26458 h 0.910426 0.910427 l 0.163522,0.26458 0.163522,0.26459 h -1.073949 -1.073948 z m 3.439583,-1.71979 -0.66146,-0.37812 0.66146,-0.006 0.66146,-0.006 0.59233,0.15876 0.59234,0.15876 -0.14493,0.2345 -0.14493,0.2345 -0.44741,-0.009 -0.4474,-0.009 z m 9.68206,-26.02139 -0.13876,-0.22451 0.45387,-0.50309 0.45387,-0.50309 0.37544,-0.72761 0.37544,-0.7276 h 0.33296 0.33296 l 0.48223,-0.59665 0.48222,-0.59665 0.7183,-0.46168 0.71829,-0.46169 h 0.17547 0.17547 l -1.34807,1.38907 -1.34807,1.38906 -0.82535,1.12448 -0.82536,1.12448 h -0.22608 -0.22608 z m -1.84732,-4.22562 -0.13488,-0.21823 1.44174,-0.97099 1.44173,-0.97098 v 0.21296 0.21296 l -0.7276,0.67863 -0.72761,0.67863 -0.57925,0.29763 -0.57926,0.29762 z m 19.72078,-1.59869 0.0666,-1.12887 0.21185,-0.13093 0.21185,-0.13094 v 0.41249 0.41249 h 0.26459 0.26458 v 0.35587 0.35587 l -0.54304,0.49145 -0.54305,0.49145 z m -0.96417,-5.12982 -0.11495,-0.33073 0.19841,-0.91703 0.19841,-0.91704 0.56426,0.56426 0.56426,0.56426 0.0882,-0.0441 0.0882,-0.0441 -0.46303,0.47332 -0.46302,0.47333 v 0.25428 0.25427 h -0.27288 -0.27289 z m -6.3903,-1.15232 0.0396,-0.45864 0.52917,-0.57641 0.52916,-0.57641 0.59532,-0.31414 0.59531,-0.31413 -0.008,0.20774 -0.008,0.20775 -0.60188,0.66146 -0.60187,0.66146 -0.55382,0.47998 -0.55382,0.47998 z m 8.96999,-1.7581 0.11097,-0.33072 0.3741,-0.007 0.3741,-0.007 0.35712,-0.22338 0.35713,-0.22337 -0.30029,0.56109 -0.30029,0.5611 h -0.5419 -0.54191 z m 9.90824,-0.63026 -0.18553,-0.18553 v -0.37118 -0.37118 l 0.59531,0.0845 0.59531,0.0846 v 0.39325 0.39325 l -0.40977,0.0789 -0.40978,0.0789 z m -22.69837,-0.34195 0.37362,-0.23651 -0.6382,-0.12028 -0.63821,-0.12029 1.19063,-0.0546 1.19062,-0.0546 -0.52916,-0.22739 -0.52917,-0.22739 1.43772,-0.0186 1.43773,-0.0186 -1.37158,-1.3013 -1.37158,-1.30131 3.3e-4,-0.35234 3.2e-4,-0.35234 0.62577,0.7276 0.62578,0.72761 h 0.31556 0.31556 l -0.16353,0.26458 -0.16352,0.26458 0.61093,0.0209 0.61093,0.0209 -0.33238,0.13401 -0.33238,0.134 0.14956,0.24198 0.14955,0.24199 h 0.51355 0.51356 v 0.30868 0.30868 l 0.16505,-0.16505 0.16505,-0.16506 1.09172,0.5786 1.09172,0.5786 -1.5875,0.1751 -1.5875,0.1751 -1.85209,0.0247 -1.85208,0.0247 z m 10.22644,-2.40122 -0.21379,-0.92604 -0.65301,-1.17675 -0.65301,-1.17674 0.39182,0.32518 0.39181,0.32518 0.57384,1.33392 0.57384,1.33393 -0.0989,0.44368 -0.0989,0.44368 z m 6.48004,-0.94349 0.34386,-0.41432 0.81302,-0.40647 0.81302,-0.40646 -0.92604,0.81003 -0.92604,0.81004 -0.23084,0.0108 -0.23083,0.0108 z m -27.7825,-1.61785 -0.0132,-0.84155 0.55319,-0.87825 0.55319,-0.87824 1.10046,-1.64227 1.10045,-1.64227 1.48629,-1.93425 1.48629,-1.93425 0.48123,-0.39222 0.48123,-0.39223 -0.44435,0.79375 -0.44435,0.79375 -0.25985,0.7276 -0.25985,0.72761 h -0.50998 -0.50999 l -0.88563,1.38906 -0.88562,1.38906 -0.4511,0.79375 -0.45109,0.79375 -1.05703,1.98437 -1.05703,1.98438 z m 18.11073,-11.48536 -1.32291,-0.48222 -0.59531,-0.0116 -0.59532,-0.0116 v -0.26458 -0.26459 h 0.10442 0.10443 l 1.73648,0.53635 1.73648,0.53634 0.15909,0.25741 0.15908,0.2574 -0.0818,-0.0354 -0.0818,-0.0354 z m -14.1244,62.13472 0.0308,-1.12448 0.0872,-1.85209 0.0872,-1.85208 0.12055,-0.79375 0.12056,-0.79375 0.19495,-1.03043 0.19495,-1.03044 -0.33957,0.20986 -0.33957,0.20987 0.13143,-0.68753 0.13143,-0.68753 -0.35765,-0.13724 -0.35765,-0.13724 0.0115,0.19013 0.0115,0.19013 0.23467,1.19063 0.23468,1.19062 -0.50905,3.43959 -0.50905,3.43958 -0.002,0.59531 -0.002,0.59532 h 0.39688 0.39687 z m 4.31318,0.96388 0.41852,-0.1606 0.0396,-0.96388 0.0396,-0.96388 0.11022,0.7276 0.11022,0.72761 h 0.19644 0.19644 l -0.16982,-1.78594 -0.16982,-1.78594 0.022,-3.72846 0.022,-3.72847 -0.71776,0.5298 -0.71777,0.5298 -0.13508,1.082 -0.13508,1.082 -0.26498,2.77812 -0.26498,2.77813 -0.11983,1.52135 -0.11983,1.52136 h 0.6207 0.6207 z m 13.3831,-1.3986 v -1.5592 l -0.42183,-2.07882 -0.42182,-2.07883 -0.4038,-0.39687 -0.40379,-0.39688 0.1881,0.79375 0.18811,0.79375 0.13555,3.24115 0.13556,3.24115 h 0.50196 0.50196 z m 12.42775,1.30495 0.38922,-0.24615 -0.12463,-0.12081 -0.12463,-0.1208 -0.65494,-0.092 -0.65493,-0.092 -0.0921,0.46302 -0.0921,0.46302 0.48242,-0.004 0.48242,-0.004 z m 14.5517,-4.30982 -0.008,-4.56406 -0.28164,0.4844 -0.28165,0.48439 -1.36395,-0.18569 -1.36396,-0.18569 -0.13229,-0.18466 -0.13229,-0.18466 -1.25677,-0.60067 -1.25677,-0.60067 v -0.20423 -0.20423 l -1.59743,-0.14485 -1.59739,-0.14484 -0.38764,-0.32172 -0.38765,-0.32172 -0.73941,0.14788 -0.73941,0.14788 -0.38441,-0.24318 -0.38442,-0.24318 0.26459,-0.005 0.26458,-0.005 0.89522,-0.54577 0.89522,-0.54585 -0.29991,-0.29991 -0.2999,-0.2999 v -0.29596 -0.29596 l 0.85989,-0.41441 0.8599,-0.41441 -1.04938,-0.20293 -1.04937,-0.20293 -1.13344,-0.50138 -1.13344,-0.50137 0.008,-0.18606 0.008,-0.18605 0.32232,-0.4198 0.32231,-0.41981 0.60272,-0.32107 0.60273,-0.32108 -0.16943,-0.27414 -0.16943,-0.27414 0.75242,0.089 0.75242,0.089 0.0979,-0.50162 0.0979,-0.50163 -0.45723,0.17545 -0.45725,0.17547 -0.29719,-0.22149 -0.2972,-0.22149 -1.19062,-0.35825 -1.19063,-0.35825 -0.25135,-0.21858 -0.25135,-0.21857 h -0.72885 -0.72884 l -0.14651,0.85989 -0.14651,0.8599 0.10194,2.11666 0.10194,2.11667 0.54649,1.85208 0.5465,1.85209 0.0153,1.60073 0.0153,1.60073 0.3175,0.3175 0.3175,0.3175 h 0.45868 0.45867 l 0.0837,-0.72761 0.0837,-0.7276 0.52917,0.083 0.52917,0.083 0.46302,-4.1e-4 0.46302,-4.1e-4 v 0.48188 0.48188 l 0.64784,0.12384 0.64783,0.12384 0.27821,-0.27821 0.2782,-0.2782 0.28156,0.28155 0.28155,0.28155 -0.0831,1.16043 -0.0831,1.16043 -0.79375,0.0103 -0.79375,0.0103 -0.62195,0.21443 -0.62194,0.21445 -0.29087,-0.29087 -0.29087,-0.29087 h -0.44794 -0.44794 l -0.15873,-0.41364 -0.15873,-0.41365 -0.26646,0.16468 -0.26645,0.16468 v 0.24217 0.24217 l 0.79375,0.41047 0.79375,0.41046 v 0.24116 0.24115 l -0.99218,-0.15545 -0.99219,-0.15546 0.52854,0.59605 0.52854,0.59606 0.73688,0.38105 0.73688,0.38106 -0.18182,0.29419 -0.18182,0.2942 0.33504,-0.20707 0.33505,-0.20707 0.16885,0.24162 0.16886,0.24162 0.92604,0.71538 0.92604,0.71539 4.69636,0.003 4.69635,0.003 z m -89.668817,-0.17472 -0.546049,-0.76686 v -0.15759 -0.1576 h 0.414705 0.414705 l -0.12553,-0.46302 -0.12553,-0.46302 -0.166336,-0.74518 -0.166336,-0.74519 -0.453568,0.0886 -0.453568,0.0886 0.08508,0.7227 0.08508,0.72269 h -0.283519 -0.283518 v -0.66146 -0.66145 h -0.374826 -0.374827 l -0.149674,0.33073 -0.149675,0.33072 0.06409,-0.52916 0.06409,-0.52917 1.498179,-0.13377 1.498178,-0.13378 0.146382,-0.14638 0.146382,-0.14638 -0.164869,-1.39206 -0.164869,-1.39206 -0.188966,0.30575 -0.188965,0.30575 -0.10271,-0.0151 -0.102711,-0.0151 -0.595312,0.15568 -0.595313,0.15568 v 0.20895 0.20896 l -0.529166,-0.13838 -0.529167,-0.13838 v -0.20133 -0.20133 l 0.363339,-0.30154 0.363339,-0.30155 0.430412,0.16516 0.430409,0.16517 v -0.39473 -0.39476 l 0.661458,-0.4334 0.661459,-0.43341 -0.02089,-0.32463 -0.02089,-0.32463 -0.133452,0.33073 -0.133452,0.33073 h -0.474721 -0.474722 l -0.298659,0.35987 -0.298662,0.35986 -0.659778,-0.12612 -0.659778,-0.12613 v -0.24935 -0.24936 l -0.287634,0.17777 -0.287633,0.17777 0.131477,0.50277 0.131477,0.50277 -0.487908,0.26112 -0.487908,0.26112 -0.480415,-0.0264 -0.480415,-0.0264 0.661459,-0.21184 0.661458,-0.21184 -0.396875,-0.0344 -0.396875,-0.0344 0.463021,-0.26968 0.463021,-0.26969 v -0.39934 -0.39934 l -0.264584,0.16352 -0.264583,0.16352 v -0.19322 -0.19322 l 0.437882,-0.48385 0.437882,-0.48385 h 0.592145 0.592144 l 0.160599,-0.41852 0.160599,-0.41851 v -0.26078 -0.26077 l -0.595312,0.18478 -0.595313,0.18478 -0.206256,0.35269 -0.206256,0.3527 -0.587494,-0.21707 -0.587495,-0.21708 -0.361328,0.12656 -0.361329,0.12655 -0.251316,-0.36298 -0.251316,-0.36298 0.191609,0.66146 0.19161,0.66146 -0.02306,1.71012 -0.02306,1.71013 0.911244,1.24136 0.911243,1.24136 -0.713816,0.51998 -0.713815,0.51998 0.908125,0.79014 0.908126,0.79014 1.719791,1.4597 1.719792,1.45971 0.08303,-0.76197 0.08303,-0.76196 z m -3.521491,-4.98034 -0.101591,-0.20275 0.01716,-0.39325 0.01716,-0.39325 0.442279,-0.0852 0.44228,-0.0852 -0.143487,0.54869 -0.143487,0.5487 -0.214365,0.13248 -0.214364,0.13249 z m 26.372439,5.72979 -0.471577,-0.52108 -0.247781,0.24778 -0.247781,0.24778 0.142034,0.22982 0.142035,0.22981 0.577324,0.0435 0.577323,0.0435 z m 35.617089,-3.96511 -0.31264,-2.28779 -0.37052,-1.03045 -0.37052,-1.03044 0.099,1.5875 0.099,1.5875 0.42182,1.44672 0.42182,1.44673 0.0307,0.80223 0.0307,0.80224 0.13163,-0.51823 0.13163,-0.51822 z m -3.47644,-0.61223 -0.2646,-0.95832 h -0.21139 -0.21138 l 0.0759,0.99218 0.0759,0.99219 0.0372,0.79375 0.0372,0.79375 0.36288,-0.82761 0.36287,-0.82762 z m -61.736008,1.51023 -0.16956,-0.44187 0.307442,-0.19001 0.307442,-0.19001 -0.181804,-0.29417 -0.181804,-0.29416 h -0.191791 -0.191792 l 0.03378,0.7276 0.03378,0.72761 0.04133,0.19844 0.04134,0.19843 h 0.1606 0.160599 z m 58.775648,-0.88105 0.15881,-0.39688 -0.0502,-0.22308 -0.0502,-0.22308 0.26362,-0.83525 0.26362,-0.83526 0.14186,-0.7091 0.14187,-0.7091 0.33033,-0.34923 0.33033,-0.34923 0.32527,-0.66146 0.32527,-0.66146 0.26367,-0.72805 0.26366,-0.72806 -1.99564,1.57354 -1.99564,1.57355 -0.12974,2.31699 -0.12973,2.31699 0.6104,0.46375 0.6104,0.46374 0.0816,-0.45122 0.0816,-0.45123 z m -28.44376,-0.29791 1.212985,-0.0628 -0.133855,-0.34882 -0.133854,-0.34882 h 0.308505 0.308506 l -0.166189,-0.2689 -0.166188,-0.2689 -0.218577,0.13509 -0.218577,0.13509 -0.141786,-0.36949 -0.141786,-0.36949 0.148818,-0.14881 0.148817,-0.14882 0.524786,0.36757 0.524785,0.36758 0.366501,-0.14064 0.3665,-0.14064 v -0.51648 -0.51647 l 0.292929,0.18104 0.292929,0.18104 -0.1714,-0.54003 -0.1714,-0.54004 0.275346,-0.17017 0.275346,-0.17017 0.0186,0.34634 0.0186,0.34634 0.227391,-0.52916 0.227391,-0.52917 0.0186,0.33073 0.0186,0.33073 h 0.273635 0.273635 l -0.119586,-0.72761 -0.119587,-0.7276 -0.05483,-0.0662 -0.05483,-0.0661 -0.03307,-0.24253 -0.03307,-0.24254 -0.198438,-0.19844 -0.198436,-0.19843 -0.0186,0.37482 -0.0186,0.37483 -0.20371,-0.52119 -0.20371,-0.5212 -1.180352,1.6034 -1.180352,1.60339 -0.590764,-5.8447 -0.590764,-5.8447 -0.09315,-0.81944 -0.09315,-0.81944 -0.185829,-1.09991 -0.18583,-1.09992 -0.241137,0.14903 -0.241136,0.14903 -6.98e-4,2.96095 -6.97e-4,2.96095 0.4253,4.96245 0.4253,4.96244 -0.211044,0.46151 -0.211045,0.46152 -0.0214,0.39687 -0.0214,0.39688 -0.456743,-0.0777 -0.456744,-0.0777 v 0.12225 0.12225 l 0.160016,0.41699 0.160016,0.417 0.187755,-0.11604 0.187755,-0.11604 z m 32.08346,-1.26764 0.16098,-0.50721 0.0989,-1.94018 0.0989,-1.94019 0.27032,-0.66146 0.27032,-0.66146 0.0168,0.56494 0.0168,0.56494 0.40473,0.89027 0.40474,0.89027 -0.15865,-1.19062 -0.15864,-1.19063 -0.24279,-0.79375 -0.24279,-0.79375 -0.0695,-1.65142 -0.0694,-1.65143 -0.14175,-0.002 -0.14175,-0.002 -0.48912,2.41975 -0.48912,2.41974 -0.12101,1.61515 -0.12102,1.61515 -0.0146,0.66146 -0.0146,0.66146 0.0388,0.59531 0.0388,0.59531 h 0.24675 0.24676 z m 33.98983,-7.36721 0.0177,-6.02235 -1.74041,-0.49843 -1.74042,-0.49843 -0.84008,-0.0442 -0.84008,-0.0442 -0.76093,-0.32032 -0.76092,-0.32032 -1.35574,0.0835 -1.35575,0.0835 v 0.38203 0.38203 l 0.52257,0.10064 0.52257,0.10064 0.32891,0.43215 0.32892,0.43215 0.008,0.22712 0.008,0.22712 -0.67254,-0.16879 -0.67254,-0.1688 -0.38579,0.3858 -0.3858,0.3858 v 0.15119 0.15119 h 0.39687 0.39688 v -0.29543 -0.29543 l 0.66146,0.12645 0.66146,0.12644 v -0.23399 -0.23399 l 0.61643,0.4039 0.61643,0.4039 0.17732,-0.17731 0.17732,-0.17732 v 0.2865 0.28651 l -0.79375,0.35135 -0.79375,0.35134 v 0.2 0.2 l 0.7276,0.0313 0.7276,0.0313 0.20167,-0.0324 0.20168,-0.0324 0.51506,0.84695 0.51507,0.84696 -0.28612,0.34475 -0.28611,0.34474 h -0.41739 -0.41739 l 0.2782,-0.2782 0.27821,-0.27821 -0.12266,-0.64165 -0.12266,-0.64165 -0.56565,0.10645 -0.56565,0.10644 -0.33073,0.0197 -0.33073,0.0197 v 0.40847 0.40848 l -0.37952,-0.0777 -0.37953,-0.0777 -0.033,0.26458 -0.033,0.26458 0.61093,0.17207 0.61093,0.17206 -0.69675,0.0264 -0.69674,0.0264 -0.15321,0.58585 -0.1532,0.58584 0.31191,0.19277 0.31191,0.19277 0.33828,-0.28075 0.33827,-0.28074 0.66279,0.43427 0.66278,0.43427 0.0313,0.32463 0.0313,0.32463 -0.0313,0.19844 -0.0313,0.19844 h 0.39687 0.39688 v 0.52916 0.52917 h 0.26458 0.26459 v -0.51354 -0.51355 l -0.2689,-0.16619 -0.2689,-0.16619 0.15222,-0.2463 0.15222,-0.2463 h 0.91043 0.91043 v 0.29289 0.29289 l -0.38841,-0.14904 -0.3884,-0.14905 -0.15638,0.25303 -0.15638,0.25303 h 0.41249 0.41249 v 0.39687 0.39688 h -0.22211 -0.22211 l -0.28936,0.63506 -0.28935,0.63506 0.15869,0.15869 0.15869,0.15869 1.08038,0.004 1.08038,0.004 -0.39468,0.24952 -0.39467,0.24953 -0.66366,-0.13931 -0.66366,-0.13931 0.52917,0.43238 0.52917,0.43238 0.96993,-0.0885 0.96993,-0.0885 -0.11396,0.18439 -0.11396,0.18439 0.59924,0.11518 0.59923,0.11517 0.18153,0.036 0.18153,0.036 z m -1.9815,3.66349 -0.25136,-0.24218 -0.66146,-0.0985 -0.66146,-0.0984 0.84593,-0.14066 0.84592,-0.14066 -0.13393,0.21671 -0.13394,0.21671 h 0.41249 0.41249 v 0.26458 0.26458 H 153.47167 153.26 Z m -0.58752,-1.66903 -0.29108,-0.35074 1.17258,0.006 1.17258,0.006 -0.0856,0.26459 -0.0856,0.26458 -0.79591,0.0797 -0.79591,0.0797 z m -4.02946,-2.00999 -0.39688,-0.17984 -0.0777,-0.46302 -0.0777,-0.46302 h 0.43678 0.43678 l -0.15229,0.39687 -0.1523,0.39688 0.8516,0.0305 0.85159,0.0305 0.46302,-0.0471 0.46302,-0.0471 v 0.28121 0.28122 l -1.12448,-0.0186 -1.12448,-0.0186 z m 1.95178,-2.74611 -0.13093,-0.21185 h 0.4408 0.44079 l -0.15229,-0.39688 -0.1523,-0.39687 0.19014,0.01 0.19013,0.01 0.79375,0.65968 0.79375,0.65969 -1.14145,-0.0605 -1.14145,-0.0605 z m -2.48095,-2.82307 v -0.22996 l 0.97829,-0.15876 0.9783,-0.15875 0.12413,0.12413 0.12414,0.12414 h -0.44097 -0.44097 v 0.26458 0.26459 h -0.66146 -0.66146 z m -22.07375,10.48257 -0.12342,-0.59531 -0.16473,-1.51719 -0.16472,-1.51718 -0.28545,-0.17642 -0.28545,-0.17642 0.1809,1.42902 0.18091,1.42902 0.15251,0.8599 0.15251,0.85989 h 0.24018 0.24017 z m -68.285346,-0.78657 2.252847,-1.1173 v -0.16632 -0.16633 l -2.273136,1.13141 -2.273135,1.13142 -0.152212,0.15221 -0.152211,0.15221 h 0.1725 0.1725 z m -0.804962,-1.55297 -0.153614,-0.24855 -0.775539,0.45812 -0.775538,0.45813 v 0.16344 0.16344 l 0.168572,0.16857 0.168571,0.16857 0.760582,-0.54158 0.760579,-0.54158 z m -0.213679,-0.91524 0.625653,-0.67509 0.02006,-0.1848 0.02006,-0.18481 0.104915,-2.3262 0.104914,-2.32619 -0.30223,0.18678 -0.302231,0.18679 0.1626,-0.42373 0.1626,-0.42373 0.271665,-1.00888 0.271664,-1.00888 -0.04399,-6.08527 -0.04399,-6.08527 0.0743,-3.04271 0.0743,-3.04271 0.178874,0.66146 0.178875,0.66146 -0.04995,3.83646 -0.04995,3.83646 0.277408,0.72784 0.277407,0.72784 -0.266356,0.33049 -0.266356,0.33049 -0.03321,2.38125 -0.03321,2.38125 0.234297,-0.35897 0.234298,-0.35898 0.167257,0.27063 0.167257,0.27062 -0.277274,0.72929 -0.277275,0.72929 0.140059,0.36499 0.14006,0.36499 -0.261552,-0.16165 -0.261553,-0.16165 v 1.33854 1.33853 l 0.198437,-0.0313 0.198438,-0.0313 0.264583,0.0354 0.264583,0.0354 -0.318773,0.20261 -0.318773,0.20261 -0.0781,2.10844 -0.0781,2.10844 0.584761,-0.0199 0.584761,-0.0199 0.109091,0.28446 0.109092,0.28446 -0.644885,0.0392 -0.644882,0.0392 -0.147801,0.1478 -0.147801,0.1478 0.168268,0.4385 0.168269,0.4385 0.658167,-0.16251 0.658169,-0.1625 0.727603,-0.17173 0.727604,-0.17172 0.194386,-0.2913 0.194386,-0.29129 0.0041,0.33072 0.0041,0.33073 h 0.529167 0.529166 l -2.94e-4,-0.19843 -2.94e-4,-0.19844 1.389357,0.0422 1.389356,0.0422 0.396875,0.0901 0.396875,0.0901 -0.02646,-0.33073 -0.02646,-0.33073 -0.03969,-2.26457 -0.03969,-2.26458 -0.241158,0.14905 -0.241159,0.14904 -0.815502,-0.46416 -0.8155,-0.46415 -0.0017,-0.16758 -0.0017,-0.16758 0.590749,-0.15449 0.59075,-0.15448 0.255917,0.25592 0.255916,0.25591 H 65.047947 64.67753 l 0.317499,0.3175 0.3175,0.3175 0.330729,-0.33026 0.33073,-0.33026 0.08216,-6.83392 0.08216,-6.83391 -1.471226,-0.16478 -1.471227,-0.16478 -1.521354,-0.18947 -1.521354,-0.18946 1.058333,-0.16987 1.058334,-0.16986 -0.992188,-0.0375 -0.992187,-0.0375 v -0.66146 -0.66146 l 0.330729,-0.0209 0.330729,-0.0209 -0.330729,-0.13345 -0.330729,-0.13345 v -0.47881 -0.47881 l 0.370821,-0.1423 0.370821,-0.1423 -0.05151,-1.88709 -0.05152,-1.8871 -0.374931,-0.23172 -0.37493,-0.23172 0.4525,-0.50001 0.4525,-0.5 v -0.4705 -0.47049 l -0.396875,0.15229 -0.396875,0.1523 v -0.66146 -0.66146 l 0.396875,-0.15229 0.396875,-0.1523 v -0.36026 -0.36026 l -0.396875,0.15229 -0.396875,0.1523 v -1.48352 -1.48352 h 0.529166 0.529167 v -0.52916 -0.52917 H 60.814606 60.28544 v -0.2802 -0.2802 l 0.246301,0.15223 0.246301,0.15222 0.149054,-0.24118 0.149054,-0.24117 -0.395355,-0.15171 -0.395355,-0.15171 v -0.55309 -0.55309 l 0.226581,0.14004 0.226582,0.14003 0.482034,-0.45764 0.482035,-0.45764 0.94503,0.0893 0.945029,0.0892 0.01289,-1.07894 0.01289,-1.07894 h -0.608204 -0.608204 v 0.39687 0.39688 h -0.396875 -0.396875 v -0.25528 -0.25527 l 0.557573,-0.29841 0.557572,-0.2984 -0.292989,-0.29299 -0.292989,-0.29299 v -0.22728 -0.22728 l 0.330729,0.20661 0.330729,0.20661 0.377062,0.057 0.377061,0.057 0.231398,0.41349 0.231399,0.41349 h 0.383728 0.383727 l 0.03133,-0.33073 0.03133,-0.33073 -0.03133,-0.19844 -0.03133,-0.19844 h 0.41249 0.41249 l -0.163521,-0.26458 -0.163522,-0.26458 h 0.264584 0.264583 l 0.191479,0.30982 0.191479,0.30982 0.213763,-0.57786 0.213762,-0.57785 0.135713,-3.10541 0.135713,-3.1054 0.144588,-9.32656 0.144588,-9.32656 h -6.093885 -6.093886 v 11.12072 11.1208 l 0.330729,0.0839 0.33073,0.0839 0.925454,0.30646 0.925454,0.30646 0.08617,-0.2585 0.08617,-0.25851 0.628678,0.71977 0.628678,0.71976 -0.149805,-0.59531 -0.149806,-0.59531 h 0.383637 0.383636 l 0.0041,-0.46302 0.0041,-0.46303 -0.29071,-0.19438 -0.29071,-0.19439 0.443621,-0.004 0.44362,-0.004 0.120999,-0.46302 0.121,-0.46302 0.03069,1.7809 0.03069,1.78089 -0.639816,0.16059 -0.639817,0.16058 -1.536204,-0.31891 -1.536204,-0.31892 -0.337521,-0.12952 -0.337521,-0.12952 v 22.3415 22.3415 l 0.176389,0.17639 0.176389,0.17639 h 0.256292 0.256292 z m 7.504819,-1.65212 v -0.27534 l 0.1606,-0.41852 0.160601,-0.41851 h 0.576453 0.576454 v 0.49911 0.4991 l -0.343548,-0.13183 -0.343547,-0.13183 -0.393507,0.32658 -0.393506,0.32658 z m -2.987079,-1.90612 -0.138379,-0.52917 h 0.343796 0.343799 l 0.160599,0.41852 0.160599,0.41851 v 0.11065 0.11066 h -0.366016 -0.366017 z m 1.252963,-0.28776 -0.194072,-0.31402 0.633365,-0.48849 0.633365,-0.48849 0.438536,-0.14672 0.438536,-0.14672 0.685943,0.63571 0.685943,0.63571 v 0.1681 0.1681 l -0.46302,-0.009 -0.463021,-0.009 -0.652961,-0.36152 -0.65296,-0.36151 -0.447791,0.5163 -0.447792,0.51631 z m -4.486371,-27.03047 -0.213399,-2.44739 -0.06211,-4.01743 -0.06211,-4.01742 0.386876,-0.14846 0.386877,-0.14846 -0.1779,-0.59661 -0.1779,-0.59662 0.396089,0.51984 0.396091,0.51984 -0.211203,0.5555 -0.211203,0.55551 -0.07947,2.62882 -0.07948,2.62882 0.08005,3.50573 0.08005,3.50573 h -0.118931 -0.118928 z m 56.480775,28.76073 -0.31883,-0.38417 h -0.20878 -0.20877 l 0.0543,0.37019 0.0543,0.37018 0.38528,0.46477 0.38528,0.46477 0.088,-0.45079 0.088,-0.45079 z m 30.70221,-5.14667 v -0.26458 h -0.64584 -0.64584 l -0.16353,0.26458 -0.16352,0.26459 h 0.80937 0.80936 z M 143.1,195.64482 v -0.25628 l -0.36273,0.1392 -0.36274,0.13919 -0.15813,-0.41208 -0.15813,-0.41208 h -1.09903 -1.09903 l 0.29195,0.35179 0.29196,0.35179 0.76744,-0.11264 0.76744,-0.11264 0.17924,0.29002 0.17924,0.29001 h 0.38126 0.38126 z m 2.90636,-8.93799 -0.004,-0.19843 -0.19438,-0.29399 -0.19439,-0.29399 -2.11667,-0.18171 -2.11666,-0.1817 -0.99219,-0.22405 -0.99219,-0.22405 v 0.34499 0.34498 l 1.91823,0.31456 1.91823,0.31457 1.05833,0.21029 1.05834,0.2103 0.33073,0.0283 0.33073,0.0283 z m -0.098,-1.84388 -0.19024,-0.19023 -2.63199,-0.0749 -2.63198,-0.0749 v 0.26516 0.26516 h 2.82222 2.82222 z m -2.42341,-3.77291 1.31844,-1.31844 -0.29006,-0.29006 -0.29005,-0.29006 -0.95767,0.84084 -0.95766,0.84084 0.14704,0.23793 0.14705,0.23793 h -0.36299 -0.36298 l -0.75482,0.78786 -0.75482,0.78786 0.90004,-0.25813 0.90004,-0.25813 z m -8.39522,-0.53477 -0.0399,-0.52917 h -0.17588 -0.17588 l -0.29469,0.35508 -0.29468,0.35507 0.17409,0.17409 0.17409,0.1741 h 0.33634 0.33633 z m 2.26144,-1.46886 0.72808,-0.67511 0.23368,0.14442 0.23368,0.14443 0.14655,-0.38188 0.14654,-0.38188 -0.44955,0.16368 -0.44955,0.16368 0.50403,-0.57403 0.50403,-0.57403 h -0.24718 -0.24718 l -0.37716,0.52328 -0.37716,0.52328 -0.17231,-0.27879 -0.1723,-0.27879 -0.71635,0.61618 -0.71635,0.61618 0.17738,0.46225 0.17738,0.46224 h 0.17283 0.17284 z m -47.697024,-7.92385 v -4.89479 h -1.96364 -1.96364 l -0.01547,4.66399 -0.01548,4.66398 0.142646,0.23081 0.142647,0.2308 h 1.836468 1.836467 z m 6.82233,-12.76614 0.340038,-0.59531 h 0.233636 0.233635 l 0.418514,-0.1606 0.418515,-0.1606 v 0.43371 0.43371 l -0.595313,0.22499 -0.595313,0.22499 -0.210589,-0.12435 -0.210588,-0.12435 0.0783,1.21354 0.0783,1.21353 0.7026,2.2e-4 0.702602,2.1e-4 1.01719,0.5073 1.017187,0.5073 0.39688,0.15248 0.39687,0.15247 0.44754,0.32129 0.44753,0.32129 0.54466,-0.49291 0.54465,-0.4929 v -0.608 -0.608 l -0.30327,-0.66562 -0.30328,-0.66561 -0.22589,0.13961 -0.22589,0.13961 v -0.2478 -0.2478 l 0.39687,-0.32938 0.39688,-0.32937 v -1.02594 -1.02594 h 0.21693 0.21693 l 0.81741,-0.72979 0.81742,-0.72978 0.17879,-0.95306 0.17879,-0.95306 -0.41938,-0.16093 -0.41939,-0.16094 v -0.3876 -0.38761 l 0.708,-0.0837 0.70799,-0.0837 0.46329,-0.79375 0.46329,-0.79375 0.0193,-0.47356 0.0193,-0.47356 -0.52178,-1.02278 -0.52179,-1.02278 -0.70452,-0.55418 -0.70452,-0.55418 h -0.62578 -0.62578 l -0.0228,-0.19843 -0.0228,-0.19844 -0.0433,-2.40684 -0.0433,-2.40684 -0.39687,-0.48697 -0.39688,-0.48697 0.39688,0.14808 0.39687,0.14808 0.038,-0.62596 0.038,-0.62595 -0.18297,0.11308 -0.18297,0.11308 -0.38424,-0.24307 -0.38424,-0.24308 0.52916,-0.0258 0.52917,-0.0258 0.75182,-0.12283 0.75183,-0.12283 0.41568,0.34303 0.41568,0.34302 0.11132,-0.33073 0.11131,-0.33073 2.16076,0.0477 2.16077,0.0477 -1.98438,0.16925 -1.98437,0.16925 2.05052,0.0477 2.05052,0.0477 -7e-5,-0.19844 -6e-5,-0.19843 6.81308,-0.0207 6.81309,-0.0207 9.39271,-0.17987 9.39271,-0.17986 2.64583,-0.12521 2.64583,-0.12521 3.77031,-0.005 3.77032,-0.005 v -0.92598 -0.92604 h -22.87085 -22.87085 l -0.15638,0.25302 -0.15638,0.25303 -0.38617,-0.14819 -0.38617,-0.14818 -0.16283,0.42432 -0.16283,0.42433 h -0.44794 -0.44794 l -0.32852,0.32852 -0.32852,0.32852 -0.20035,-0.32418 -0.20035,-0.32417 -3.52273,0.12039 -3.522735,0.1204 -0.339091,0.28142 -0.339091,0.28142 -0.226288,-0.0406 -0.226287,-0.0406 -0.330729,0.0313 -0.330729,0.0313 v 0.24675 0.24675 l 0.548488,0.17409 0.548488,0.17408 -0.457204,0.5052 -0.457203,0.50521 h -0.355768 -0.355868 v -0.88195 -0.88194 l -0.142201,-0.1422 -0.1422,-0.1422 -1.246861,0.26094 -1.246862,0.26095 -0.330729,0.26643 -0.33073,0.26643 v 0.77875 0.77874 l 0.284958,0.53245 0.284957,0.53245 -0.187483,0.44234 -0.187483,0.44235 -0.06974,1.32292 -0.06974,1.32291 -0.194947,2.19887 -0.194946,2.19886 0.469444,1.76989 0.469446,1.76988 0.283149,0.52917 0.283147,0.52917 -0.05304,0.18891 -0.05304,0.18892 0.35131,-0.13481 0.351311,-0.13481 0.337235,0.40634 0.337234,0.40634 0.105276,1.78851 0.105275,1.78851 -0.249232,-0.52916 -0.249231,-0.52917 -0.02664,0.39688 -0.02664,0.39687 -0.269686,-0.46302 -0.269684,-0.46302 h -0.279744 -0.279744 l 0.149044,0.3884 0.149044,0.3884 -0.281276,0.17384 -0.281276,0.17384 0.341964,0.21134 0.341964,0.21135 -0.308191,0.37135 -0.308191,0.37134 -0.275634,1.94347 -0.275633,1.94347 -0.247454,0.29816 -0.247452,0.29817 -0.1724,1.07811 -0.172397,1.07813 0.2974,0.1838 0.297401,0.1838 -0.142051,0.22985 -0.142051,0.22984 1.129922,0.77097 1.129924,0.77097 0.396876,0.12808 0.396875,0.12808 0.132291,-4.91748 0.132292,-4.91749 z m 1.90892,1.84474 v -0.20578 l 0.474483,-0.40627 0.474483,-0.40626 0.360147,-0.22258 0.360151,-0.22259 -0.213419,0.37161 -0.213417,0.37161 -0.397638,0.46302 -0.397637,0.46302 h -0.223578 -0.223575 z m -1.719791,-6.14422 -0.168857,-0.27321 -0.246301,0.15222 -0.246302,0.15222 v -0.23407 -0.23408 l 0.66146,-0.62141 0.661458,-0.62141 v 0.25779 0.25779 l -0.328518,0.32851 -0.328517,0.32852 0.356765,0.22049 0.356765,0.2205 -0.274549,0.16968 -0.274548,0.16968 z m -1.811056,-0.48385 -0.437882,-0.48386 v -0.30989 -0.3099 h 0.156026 0.156027 l 0.496629,0.59532 0.496629,0.59531 0.0088,0.19844 0.0088,0.19843 h -0.223576 -0.223576 z m 8.782231,-3.55935 -0.0403,-0.58701 -0.0289,-0.32057 -0.0289,-0.32057 -0.32766,-0.32766 -0.32765,-0.32765 v -0.42334 -0.42333 l 0.3175,-0.3175 0.3175,-0.3175 h 0.16584 0.16584 l -0.11102,0.75647 -0.11103,0.75647 0.61987,0.16956 0.61987,0.16957 -0.34607,0.22354 -0.34607,0.22354 0.16731,0.66665 0.16732,0.66665 -0.41656,0.15984 -0.41655,0.15985 z m 51.36947,1.92654 v -13.22917 l -2.18281,0.002 -2.18282,0.002 -1.80643,0.17059 -1.80643,0.17058 -1.26504,1.56344 -1.26504,1.56345 -0.1884,4.11915 -0.18839,4.11916 0.77306,0.82566 0.77307,0.82567 1.29618,1.80363 1.29617,1.80363 0.39688,0.7219 0.39687,0.72191 2.89118,4.0229 2.89118,4.0229 h 0.0854 0.0854 z m -66.770543,-12.63386 -0.03675,-0.46302 h 0.926042 0.926041 l 0.174427,-0.24135 0.174426,-0.24134 0.459335,0.45933 0.459334,0.45934 0.208677,-0.33765 0.208677,-0.33765 -0.130449,-0.21107 -0.130448,-0.21107 h 0.39466 0.39466 l 0.17428,-0.5491 0.174279,-0.54911 -0.168158,-0.16816 -0.168159,-0.16816 -0.626033,0.78342 -0.626034,0.78341 -0.177444,-0.17578 -0.177445,-0.17578 0.306935,-0.57351 0.306934,-0.57351 -0.483935,-0.36678 -0.483935,-0.36677 -1.389063,-0.008 -1.389062,-0.008 v 1.67569 1.6757 l 0.176389,0.17638 0.176389,0.17639 h 0.191087 0.191088 z"
       id="path22" /></g></svg>
