<?xml version="1.0" encoding="UTF-8" standalone="no"?>
<!-- Created with Inkscape (http://www.inkscape.org/) -->

<svg
   width="101.6mm"
   height="84.666672mm"
   viewBox="0 0 101.6 84.666672"
   version="1.1"
   id="svg1"
   xml:space="preserve"
   xmlns="http://www.w3.org/2000/svg"
   xmlns:svg="http://www.w3.org/2000/svg"><defs
     id="defs1" /><g
     id="layer1"
     transform="translate(-54.200002,-27.05919)"><path
       style="fill:#ffffff;fill-opacity:1"
       d="M 54.200001,69.392518 V 27.059188 H 105 155.8 v 42.33333 42.333342 H 105 54.200001 Z m 97.513209,41.251952 0.17776,-0.28764 0.28764,0.28764 0.28764,0.28764 h 1.27 1.27 v -1.70059 -1.70059 l -0.69515,-0.54681 -0.69516,-0.5468 0.32106,-0.38685 0.32106,-0.38685 -0.18897,-0.30576 -0.18897,-0.30575 0.33704,-0.2083 0.33703,-0.2083 -0.17308,-0.45103 -0.17307,-0.45103 -0.34183,0.13117 -0.34183,0.13118 -0.64813,-0.35893 -0.64813,-0.35893 -0.50697,-0.009 -0.50697,-0.009 -0.41907,-0.39548 -0.41907,-0.39549 -0.83194,-0.66285 -0.83195,-0.66285 h -0.80447 -0.80448 l -0.69505,-0.265 -0.69505,-0.26426 -1.8256,-0.16967 -1.8256,-0.16967 -0.52822,-0.492122 -0.52822,-0.49211 h -0.14336 -0.14335 v 0.25683 0.25683 l 1.45521,0.688432 1.45521,0.68842 v 0.22916 0.22916 l 1.19082,0.17857 1.19081,0.17857 0.85971,1.0503 0.8597,1.05029 -0.0754,0.27041 -0.0754,0.2704 0.33003,0.39765 0.33002,0.39766 -0.40328,0.3021 -0.40329,0.30209 -0.17202,0.45856 -0.17203,0.45856 -0.40689,-0.15613 -0.40689,-0.15614 v 0.45758 0.45758 l -0.34659,-0.28765 -0.3466,-0.28765 -0.97632,0.29964 -0.97632,0.29965 -0.004,0.41863 -0.004,0.41862 -0.24615,-0.38921 -0.24614,-0.38921 -0.17121,0.1712 -0.1712,0.1712 0.61984,0.53215 0.61983,0.53215 1.19063,0.94007 1.19062,0.94006 2.56408,0.003 2.56407,0.003 z m -1.96069,-2.90604 -0.62351,-0.24972 0.18033,-0.71851 0.18034,-0.71852 -0.5037,0.45584 -0.50369,0.45584 h -0.17099 -0.17099 l 0.15862,-0.7931 0.15862,-0.79309 -0.34666,-0.4177 -0.34666,-0.41769 0.37987,-0.24164 0.37986,-0.24164 0.32669,0.11966 0.32669,0.11966 0.28474,-0.53203 0.28473,-0.53203 0.5792,0.17318 0.5792,0.17319 0.45714,0.56713 0.45713,0.56714 0.006,0.87061 0.006,0.87061 -0.57892,0.78303 -0.57893,0.78304 -0.14868,-0.0168 -0.14868,-0.0168 z m -49.19068,-1.8344 -0.866297,-0.52817 h -0.258188 -0.258189 v 0.21166 0.21167 l 0.3175,0.3175 0.3175,0.3175 0.806984,-9.9e-4 0.80698,-9.9e-4 z m 43.33191,-7.695492 v -0.20322 l -0.39688,-0.39687 -0.39687,-0.39688 v -0.26565 -0.26565 l 0.58302,-0.18505 0.58302,-0.18504 -1.50906,-0.76307 -1.50906,-0.76307 v -0.27298 -0.27297 l 0.70009,-0.64883 0.70009,-0.64882 h 0.19509 0.19509 l 0.14218,-0.54369 0.14218,-0.54369 -0.70663,-0.28608 -0.70664,-0.28608 -0.52101,0.0239 -0.52101,0.0239 -0.18544,-0.30003 -0.18543,-0.30004 -0.41929,-0.0615 -0.41929,-0.0615 0.14916,0.24136 0.14917,0.24136 -0.34634,0.004 -0.34635,0.004 0.38424,0.24307 0.38425,0.24308 0.21107,-0.13045 0.21107,-0.13045 v 0.2802 0.2802 h -0.24262 -0.24262 l 0.074,0.93233 0.074,0.93233 -0.55896,-0.15121 -0.55896,-0.15122 0.46302,0.29036 0.46302,0.29037 -0.004,0.31758 -0.004,0.31758 -0.24615,-0.38921 -0.24614,-0.38921 -0.17183,0.17183 -0.17183,0.17182 0.54076,0.46302 0.54077,0.46302 -0.13435,0.21739 -0.13436,0.21738 h 0.5604 0.5604 l -0.14639,0.23686 -0.14639,0.23686 0.39536,0.15171 0.39535,0.15171 v 0.4401 0.44009 l 0.54327,0.87903 0.54327,0.87903 0.64736,-0.29495 0.64735,-0.29496 z m -83.893045,-17.64567 0.02013,-9.07029 0.403628,-0.15488 0.403628,-0.15489 -0.217332,-0.29983 -0.217333,-0.29983 0.03876,-0.99676 0.03876,-0.99676 0.171818,-0.17182 0.171817,-0.17181 v -0.22049 -0.22049 H 60.44507 60.075558 l -0.01749,-1.46423 -0.01749,-1.46423 -0.38988,-0.38988 -0.38988,-0.38988 -0.164776,0.26661 -0.164776,0.26661 h 0.238405 0.238406 l 0.105688,2.71198 0.105688,2.71198 -0.03894,4.10104 -0.03894,4.10104 -0.11647,1.19063 -0.11647,1.19062 0.157662,1.86816 0.157662,1.86815 -0.313645,0.62871 -0.313644,0.62872 0.381483,0.28126 0.381484,0.28125 -0.247807,0.8599 -0.247807,0.8599 h 0.261729 0.261729 l -0.18027,0.29168 -0.180269,0.29168 -0.07088,1.49426 -0.07088,1.49425 0.347699,-0.92604 0.347698,-0.92604 z m 38.460711,8.73602 0.0716,-0.45949 0.217277,-0.34833 0.217277,-0.34834 -0.158786,-0.15878 -0.158787,-0.15879 -0.0041,0.37483 -0.0041,0.37482 -0.245397,-0.388 -0.245397,-0.388 0.291152,-0.35081 0.291152,-0.35082 -0.33936,-0.31952 -0.339359,-0.31951 0.13084,0.39687 0.130839,0.39688 -0.389378,0.44757 -0.389377,0.44758 0.0078,0.61075 0.0078,0.61076 0.05504,1.05834 0.05504,1.05833 0.363245,-0.86342 0.363244,-0.86343 z m 6.065194,0.88461 -0.14258,-0.2434 0.50642,0.20727 0.50643,0.20727 0.42696,0.1237 0.42696,0.12371 0.56235,-0.74904 0.56234,-0.74903 0.24241,-0.26458 0.24241,-0.26459 2.31834,-2.11666 2.31834,-2.11667 1.27342,-1.32292 1.27341,-1.32291 0.005,-0.22651 0.005,-0.2265 0.60621,-0.47684 0.6062,-0.47684 0.6956,-1.28103 0.69559,-1.28103 0.58589,-1.69705 0.58589,-1.69706 1.3121,-2.60242 1.31211,-2.60243 h 0.19937 0.19936 l 0.84687,-1.61558 0.84686,-1.61557 -0.0937,-0.28111 -0.0937,-0.28111 -0.68989,1.16908 -0.68988,1.16908 -2.00723,2.33569 -2.00723,2.33568 -6.8e-4,0.17786 -6.8e-4,0.17786 -2.29326,1.97896 -2.29327,1.97896 -1.27793,1.95759 -1.27793,1.95759 v 0.25505 0.25505 l -0.52916,0.67272 -0.52917,0.67273 v -0.30027 -0.30026 h -0.25954 -0.25954 l -0.16602,0.66146 -0.16602,0.66146 h -0.2359 -0.2359 v -0.39688 -0.39687 h -0.26458 -0.26458 v 0.54071 0.54072 l -1.45521,1.42074 -1.45521,1.42074 -0.008,1.67656 -0.008,1.67657 -0.35148,-0.46302 -0.35149,-0.46302 h -0.30156 -0.30156 v 0.81114 0.81114 l 0.30614,0.57202 0.30613,0.57202 0.18993,-0.52327 0.18992,-0.52326 z m -3.80449,-2.40244 h 0.16449 l 0.0758,-0.49642 0.0758,-0.49642 0.37954,-0.8265 0.37955,-0.82649 0.39801,-1.97507 0.39802,-1.97508 -0.0679,-0.0679 -0.0679,-0.0679 -0.71909,1.56663 -0.7191,1.56663 -0.78641,2.19617 -0.786417,2.19617 -0.0013,0.10716 -0.0013,0.10715 0.556947,-0.50403 0.55694,-0.50403 z m 2.88945,-2.7152 0.36901,-2.0473 0.0467,-0.57004 0.0467,-0.57005 0.14008,0.0866 0.14008,0.0866 -0.008,-1.76549 -0.008,-1.76548 0.20649,-0.97124 0.2065,-0.97123 -0.47108,-0.12372 -0.47108,-0.12372 0.73358,0.0287 0.73358,0.0287 -0.15706,0.40482 -0.15705,0.40482 -0.15526,1.2982 -0.15527,1.29819 0.30635,-0.18933 0.30634,-0.18933 v 0.54478 0.54478 h -0.23092 -0.23092 l -0.14948,1.25677 -0.14948,1.25677 -0.15151,1.5875 -0.1515,1.5875 0.33347,-0.82145 0.33347,-0.82145 1.25656,-1.38974 1.25656,-1.38975 0.41083,0.15764 0.41082,0.15765 -0.15754,-0.2549 -0.15754,-0.25491 0.93755,-1.39218 0.93755,-1.39217 v -0.20913 -0.20912 l 0.85989,-0.94627 0.8599,-0.94627 3.17969,-3.21376 3.17969,-3.21377 -0.0344,-0.58839 -0.0344,-0.5884 0.19618,0.12124 0.19617,0.12125 0.69341,-0.69341 0.69341,-0.69341 -0.004,-0.29465 -0.004,-0.29464 -0.19439,-0.26459 -0.19438,-0.26458 -0.45265,-0.035 -0.45264,-0.035 0.0558,0.26991 0.0558,0.26992 -1.1782,0.91487 -1.17821,0.91487 -0.43851,0.9669 -0.43852,0.9669 -1.08815,0.66146 -1.08814,0.66146 -0.007,0.18573 -0.007,0.18572 -1.18718,0.8168 -1.18718,0.8168 0.0627,0.28838 0.0627,0.28838 -0.64576,0.0577 -0.64577,0.0576 -0.41256,0.59886 -0.41257,0.59885 -0.58329,0.63227 -0.58328,0.63227 h -0.40386 -0.40387 l -0.17314,-0.68985 -0.17314,-0.68986 0.23425,-0.17004 0.23424,-0.17004 0.0584,-0.56932 0.0584,-0.56933 -0.38602,-0.32037 -0.38602,-0.32037 -0.11332,0.36053 -0.11332,0.36053 -0.1676,0.76012 -0.16759,0.76012 -0.3574,-0.48878 -0.3574,-0.48877 0.12457,-0.93281 0.12458,-0.9328 -0.57044,1.19063 -0.57043,1.19062 -0.0969,0.47618 -0.0969,0.47619 0.38421,0.14743 0.38422,0.14744 v 0.25189 0.25189 l -0.19844,-0.12264 -0.19843,-0.12264 -0.0158,0.83463 -0.0158,0.83463 -0.17834,1.26611 -0.17833,1.26611 -0.26717,0.49923 -0.26718,0.49922 -0.1654,2.60029 -0.16541,2.60029 0.21101,-0.20166 0.21101,-0.20166 z m -3.885457,-0.12645 -0.283574,-0.4604 0.503372,-0.31436 0.503369,-0.31436 -0.13334,-0.34749 -0.13334,-0.34748 0.43953,-0.16867 0.43953,-0.16866 -0.14447,-0.37648 -0.14446,-0.37647 0.26155,0.16165 0.26155,0.16165 v -0.26459 -0.26458 l -0.26645,-0.16468 -0.26645,-0.16467 -0.17348,0.47979 -0.17347,0.47979 -0.504134,0.7276 -0.504129,0.72761 h 0.191316 0.191315 l -0.478889,0.52916 -0.47889,0.52917 h 0.280414 0.280414 l -0.120095,1.12448 -0.120096,1.12448 0.42824,-0.92604 0.428244,-0.92605 z m -43.368043,-0.79637 0.0414,-0.33073 0.04215,-1.32291 0.04215,-1.32292 0.04501,-2.91042 0.04501,-2.91041 -0.117684,-1.5875 -0.117683,-1.5875 -0.518496,-0.42184 -0.518495,-0.42184 -0.114197,-0.76878 -0.114197,-0.76879 -0.03964,1.65364 -0.03964,1.65365 h 0.388571 0.388571 l -0.151712,0.39536 -0.151712,0.39535 -0.236859,-0.14639 -0.236859,-0.14638 v 5.33559 5.33558 l 0.396875,-0.15229 0.396875,-0.1523 v 0.25628 0.25628 h 0.264583 0.264584 z m 69.41172,-7.29461 -0.52917,-0.44445 0.0616,-0.66146 0.0616,-0.66146 -0.21439,0.51161 -0.21438,0.5116 -0.19355,-0.31316 -0.19355,-0.31317 -0.18282,7.8e-4 -0.18282,7.8e-4 -0.0186,0.89473 -0.0186,0.89473 1.07691,0.012 1.07691,0.012 z m 28.91896,-0.89424 0.3175,-0.3175 v -4.12624 -4.12623 l -2.18281,0.0295 -2.18282,0.0295 -1.9325,0.0486 -1.93251,0.0486 0.0638,3.70417 0.0638,3.70416 h 0.193 0.193 l 0.10591,-0.31771 0.1059,-0.31772 0.98132,0.46567 0.98132,0.46566 0.53528,-0.16989 0.53528,-0.16989 0.71465,0.48496 0.71465,0.48496 0.79375,0.16361 0.79375,0.16361 0.4101,0.0348 0.41011,0.0348 z m -31.30876,-1.82243 0.96713,-1.34617 0.28732,-0.70435 0.28732,-0.70434 0.98587,-2.11667 0.98586,-2.11666 0.15985,-0.79375 0.15984,-0.79375 -0.38821,0.79375 -0.38822,0.79375 -1.17288,2.51354 -1.17288,2.51354 -0.94401,1.65364 -0.94401,1.65365 h 0.10494 0.10495 z m 4.77622,-2.00159 0.9606,-1.62799 0.48297,-0.12629 0.48297,-0.1263 0.68779,0.13148 0.68779,0.13148 v 0.26613 0.26614 l 0.39688,-0.32938 0.39687,-0.32938 v -0.16776 -0.16777 l -0.99218,-0.30706 -0.99219,-0.30706 -0.95527,-0.17675 -0.95527,-0.17676 -0.56609,0.71966 -0.56608,0.71966 v 0.47787 0.47787 l -0.23041,0.1424 -0.23041,0.1424 -0.16293,0.73311 -0.16293,0.73311 -0.25143,1.04175 -0.25144,1.04176 0.63008,-0.77717 0.63008,-0.77717 z m -7.28121,1.99362 v -0.52916 l 0.20017,0.12371 0.20017,0.12371 0.44711,-1.04694 0.4471,-1.04693 -0.71342,0.76473 -0.71342,0.76473 -0.3353,0.40515 -0.33529,0.40516 0.16458,0.42889 0.16458,0.42889 0.23686,-0.14638 0.23686,-0.14639 z m -9.525,-2.12059 v -0.22943 h 0.36448 0.36448 l 0.27352,-0.33073 0.27352,-0.33072 -0.13968,-0.72761 -0.13968,-0.7276 h -0.17802 -0.17802 l 0.0104,0.71544 0.0104,0.71544 -0.66146,0.33412 -0.66146,0.33412 v 0.3395 0.3395 l -0.59024,0.259 -0.59025,0.25899 -0.12816,0.33399 -0.12816,0.33398 1.04913,-0.69429 1.04914,-0.69428 z m -5.21335,-0.51516 -0.1267,-1.34965 0.5252,-0.48929 0.52519,-0.48929 0.16045,0.16045 0.16046,0.16046 0.004,-0.37483 0.004,-0.37482 0.23177,0.36595 0.23177,0.36596 0.17372,-0.76283 0.17372,-0.76283 0.6195,-0.70831 0.6195,-0.7083 1.35221,-0.68522 1.35221,-0.68521 0.0266,0.46747 0.0266,0.46748 0.24392,-1.04057 0.24393,-1.04058 -0.11733,-0.28234 -0.11732,-0.28234 -0.0209,0.46302 -0.0209,0.46302 h -0.57653 -0.57653 l -0.87868,0.31774 -0.87868,0.31773 v 0.47602 0.47601 h -0.29265 -0.29265 l -0.52813,-0.67142 -0.52814,-0.67141 -0.38105,0.31624 -0.38105,0.31625 -0.31731,-0.31731 -0.3173,-0.3173 0.32721,-0.20223 0.3272,-0.20222 0.16777,-1.60514 0.16777,-1.60513 0.56115,0.12154 0.56114,0.12153 -0.34607,-0.24648 -0.34607,-0.24649 0.17631,-0.70251 0.17632,-0.7025 h 0.36819 0.3682 v -0.64585 -0.64584 l 0.29416,-0.1818 0.29417,-0.18181 0.23095,0.36463 0.23095,0.36463 0.0125,1.05833 0.0125,1.05833 0.37453,-0.49455 0.37454,-0.49455 -0.0522,1.44515 -0.0522,1.44515 0.35851,0.4329 0.35852,0.43291 0.50138,-0.26834 0.50138,-0.26833 v -0.5833 -0.5833 l 0.69805,0.75282 0.69805,0.75281 -0.28462,0.17591 -0.28462,0.17591 -0.24537,0.65607 -0.24537,0.65608 0.0745,0.66145 0.0745,0.66146 0.022,0.47864 0.0221,0.47863 0.33073,-0.18672 0.33073,-0.18672 -0.31005,0.33564 -0.31005,0.33564 0.13992,0.36463 0.13992,0.36464 h -0.29289 -0.29289 l 0.004,0.59531 0.004,0.59531 0.24615,-0.38921 0.24614,-0.38921 0.19708,0.19707 0.19707,0.19708 -0.39377,0.39377 -0.39377,0.39377 0.10749,0.92072 0.10749,0.92073 0.23588,-0.14579 0.23589,-0.14578 v -0.54186 -0.54186 l 0.39687,0.15229 0.39688,0.1523 0.028,-0.45472 0.028,-0.45471 -0.0443,-0.69304 -0.0444,-0.69304 0.41319,-0.15855 0.41319,-0.15856 v -0.29072 -0.29071 l -0.55162,0.17507 -0.55162,0.17508 0.42882,-0.65446 0.42882,-0.65446 -0.40637,-0.15594 -0.40637,-0.15594 v -0.51542 -0.51543 l 0.33073,-0.13419 0.33073,-0.1342 -0.39687,-0.28068 -0.39688,-0.28067 0.39688,-0.008 0.39687,-0.008 -0.39687,-0.25648 -0.39688,-0.25648 0.49133,-0.004 0.49133,-0.004 -0.1523,-0.39687 -0.15229,-0.39688 h 0.56496 0.56496 l -0.16713,-0.16713 -0.16713,-0.16712 0.65812,-1.123 0.65812,-1.12299 -0.26971,-0.70937 -0.2697,-0.70938 0.26378,0.16303 0.26379,0.16302 -0.006,-0.47863 -0.006,-0.47864 -0.52336,-1.15337 -0.52336,-1.15337 -0.004,-0.56642 -0.004,-0.56642 -0.26016,0.39687 -0.26016,0.39688 0.16993,-0.92604 0.16992,-0.92604 0.0769,-0.0929 0.0769,-0.0928 0.30659,1.15119 0.30659,1.15118 0.39226,0.43982 0.39227,0.43981 0.0522,0.35573 0.0522,0.35573 0.39081,0.53437 0.3908,0.53437 1.33166,0.96559 1.33166,0.96558 1.46875,1.56438 1.46875,1.56438 0.33484,0.20695 0.33484,0.20694 -0.30513,-0.57015 -0.30514,-0.57016 1.22728,0.93681 1.22729,0.93681 0.26198,-0.16191 0.26198,-0.16191 -0.52321,-0.5674 -0.5232,-0.5674 -0.80606,-0.87337 -0.80605,-0.87337 -0.16368,-0.51569 -0.16368,-0.5157 h -0.24675 -0.24675 v -0.52086 -0.52087 l 0.34473,0.13229 0.34473,0.13229 0.46398,0.78545 0.46397,0.78545 h 0.38192 0.38192 v 0.52125 0.52124 l 0.77719,0.5746 0.77719,0.5746 0.30241,0.73011 0.30242,0.7301 0.64369,0.60471 0.64369,0.60472 0.24072,-0.24785 0.24072,-0.24785 0.0865,-0.79375 0.0865,-0.79375 0.67646,0.0784 0.67646,0.0784 1.30792,-1.63153 1.30791,-1.63153 1.55676,-1.30137 1.55675,-1.30136 0.29533,0.0984 0.29533,0.0984 v 0.35252 0.35253 l -1.19063,0.83683 -1.19062,0.83684 -0.27349,0.54344 -0.27348,0.54344 -0.91714,0.75444 -0.91714,0.75443 -0.18406,0.26118 -0.18405,0.26118 0.0952,0.0952 0.0952,0.0952 0.58244,-0.31171 0.58244,-0.31171 -0.115,0.345 -0.115,0.345 -0.77551,0.42862 -0.7755,0.42861 -0.31492,0.62701 -0.31491,0.627 -0.85649,0.41101 -0.85649,0.41101 -0.0764,0.26458 -0.0764,0.26458 0.38518,0.50985 0.38519,0.50986 0.18185,-0.18186 0.18186,-0.18186 -0.50985,-0.38572 -0.50985,-0.38573 0.2823,-0.008 0.28231,-0.008 1.517,0.77582 1.51699,0.77582 0.28276,-0.70967 0.28275,-0.70968 0.12281,0.33073 0.1228,0.33073 h 0.24253 0.24254 v -0.41577 -0.41578 l 0.41577,0.41578 0.41578,0.41577 0.31183,-0.008 0.31183,-0.008 -0.46302,-0.26969 -0.46302,-0.26968 v -0.38373 -0.38373 h -0.66146 -0.66146 v -0.26458 -0.26458 h 0.52917 0.52916 l 7.3e-4,-0.19844 7.3e-4,-0.19844 1.0576,-0.0275 1.05761,-0.0275 v 0.20387 0.20387 l -0.33073,0.1342 -0.33073,0.13419 0.38424,0.26727 0.38424,0.26727 0.1754,-0.1084 0.17539,-0.1084 -0.0735,-0.66919 -0.0735,-0.6692 0.21802,0.13474 0.21801,0.13474 1.04641,-0.99333 1.04642,-0.99333 -0.009,-0.46303 -0.009,-0.46302 -0.28664,-0.0293 -0.28663,-0.0293 -0.58693,0.0471 -0.58693,0.0471 -0.4714,-0.27438 -0.4714,-0.27437 0.54239,-0.008 0.5424,-0.008 0.3175,-0.3175 0.3175,-0.3175 v -0.59132 -0.59132 l -0.29686,-0.74483 -0.29685,-0.74482 -0.0686,-0.71974 -0.0686,-0.71973 0.45319,-0.14384 0.4532,-0.14384 0.69533,-1.06335 0.69548,-1.06225 -0.57747,0.40447 -0.57747,0.40448 h -0.338 -0.338 v -0.52917 -0.52917 h -0.3612 -0.36119 l -0.63099,-0.47972 -0.631,-0.47972 -1.28196,-0.47782 -1.28196,-0.47783 0.39947,-0.39947 0.39947,-0.39948 0.78269,0.55733 0.78269,0.55732 0.16304,-0.98624 0.16303,-0.98624 0.003,-0.57593 0.003,-0.57593 -1.10884,-1.60688 -1.10884,-1.60689 h -0.17505 -0.17504 l -1.22966,1.56516 -1.22965,1.56515 v 0.28693 0.28693 h -0.2802 -0.2802 l 0.17146,0.27743 0.17146,0.27743 0.43947,-0.33485 0.43946,-0.33486 -0.208,0.24339 -0.20801,0.24338 1.00176,0.60643 1.00175,0.60644 -0.26458,0.038 -0.26458,0.038 -2.24896,0.0349 -2.24896,0.0349 -0.46302,0.22128 -0.46302,0.22128 v -0.42518 -0.42518 h 0.61736 0.61736 l 0.17471,-0.17471 0.1747,-0.1747 -0.5164,-0.36171 -0.5164,-0.3617 0.12924,-0.3368 0.12925,-0.3368 -0.93408,-0.44543 -0.93407,-0.44542 v -0.30306 -0.30305 l -1.91823,0.16182 -1.91823,0.16182 0.79375,-0.37256 0.79375,-0.37257 0.52916,-0.18936 0.52917,-0.18935 -1.45521,-0.47559 -1.45521,-0.47559 -0.66145,-0.025 -0.66146,-0.025 0.601,-0.50124 0.601,-0.50123 -0.24767,-0.15307 -0.24768,-0.15307 -0.0887,0.25339 -0.0887,0.25338 -1.85208,0.17835 -1.85208,0.17836 0.28658,-0.30657 0.28658,-0.30657 1.20638,-0.0242 1.20639,-0.0242 0.35911,-0.24486 0.35912,-0.24486 -2.28751,0.0794 -2.28752,0.0794 -0.53928,0.48821 -0.53928,0.48821 -0.0836,-0.95676 -0.0836,-0.95676 -0.26458,-0.045 -0.26459,-0.045 -0.79375,1.07682 -0.79375,1.07681 -0.68555,0.419 -0.68555,0.41899 -1.64296,1.66346 -1.64297,1.66347 0.57189,0.46309 0.57189,0.46308 h 0.23527 0.23527 v -0.24896 -0.24897 l -0.26458,-0.16352 -0.26458,-0.16353 0.0108,-0.31511 0.0108,-0.31511 1.29607,-0.60754 1.29606,-0.60754 0.61132,-0.64466 0.61132,-0.64466 0.19046,-0.005 0.19046,-0.005 -0.63439,0.93483 -0.63439,0.93483 -0.17853,0.81285 -0.17853,0.81285 -0.72151,0.41409 -0.7215,0.41408 -0.50812,0.8148 -0.50812,0.8148 -0.44103,0.74861 -0.44103,0.74862 -0.39762,0.44201 -0.39762,0.44201 -0.96809,1.90885 -0.9681,1.90886 0.1668,0.52553 0.1668,0.52553 -0.27258,1.01228 -0.27258,1.01228 -0.13472,1.44812 -0.13473,1.44813 -0.23517,2.24896 -0.23516,2.24896 0.084,1.05833 0.084,1.05834 0.0156,0.21405 0.0156,0.21405 0.2348,-0.14511 0.23479,-0.14512 z m 27.70293,-6.70248 0.66146,-0.40137 0.46302,-0.009 0.46302,-0.009 v -0.16927 -0.16927 l -0.4626,-0.33826 -0.46261,-0.33827 0.16323,-0.16323 0.16323,-0.16322 1.45396,0.54399 1.45396,0.544 0.43292,-0.16613 0.43291,-0.16612 v 0.26049 0.2605 l -0.39281,0.326 -0.39281,0.32601 -2.31917,0.11713 -2.31917,0.11714 z m -6.35952,-1.01543 -0.29535,-1.12448 -0.61322,-1.85208 -0.61323,-1.85209 -0.35517,-0.8718 -0.35517,-0.8718 0.39138,-0.24188 0.39138,-0.24189 0.18439,0.49845 0.18439,0.49845 0.65505,1.03767 0.65505,1.03767 0.41121,1.3847 0.41121,1.3847 -0.16029,1.16943 -0.16028,1.16943 h -0.218 -0.218 z m 7.94702,-6.06803 v -0.31334 l 0.55277,-1.14187 0.55277,-1.14187 h 0.26929 0.26929 l -0.19802,0.46302 -0.19802,0.46303 -0.13142,0.79375 -0.13143,0.79375 -0.29417,0.19438 -0.29418,0.19439 -0.19844,0.004 -0.19844,0.004 z m -15.99748,-2.05204 -0.15905,-0.25734 -0.3884,0.14904 -0.3884,0.14905 v -0.52917 -0.52917 l 0.46302,-0.20233 0.46302,-0.20233 0.33073,0.0533 0.33073,0.0533 v -0.40847 -0.40848 h 0.39688 0.39687 v 0.66146 0.66146 h -0.39687 -0.39688 v 0.38126 0.38126 l -0.2463,0.15222 -0.2463,0.15223 z m -14.19632,13.16277 0.0313,-2.29949 0.26458,-0.16352 0.26459,-0.16353 v -0.28136 -0.28137 l -0.39693,0.32943 -0.39693,0.32942 0.43192,-1.02463 0.43191,-1.02463 0.0781,-1.12029 0.0781,-1.12029 0.17194,-0.5995 0.17193,-0.5995 -0.56251,0.88744 -0.56252,0.88745 0.10559,0.30318 0.10558,0.30318 -0.47195,1.71979 -0.47194,1.71979 -0.0311,1.71979 -0.0311,1.71979 0.19325,1.32292 0.19326,1.32292 0.18574,-0.79375 0.18573,-0.79375 z m 18.3858,1.86071 0.0585,-0.35497 0.67926,-1.06204 0.67925,-1.06204 0.71637,-1.41367 0.71636,-1.41368 -0.33063,0.11021 -0.33063,0.11021 -0.20692,0.38113 -0.20691,0.38113 -1.01196,1.85208 -1.01196,1.85208 -0.0426,0.62522 -0.0426,0.62522 0.13795,-0.13795 0.13796,-0.13796 z m -67.014583,-0.8631 0.505921,0.45785 v -0.64955 -0.64955 l -0.279918,-0.27992 -0.279919,-0.27992 0.05336,-4.07247 0.05336,-4.07248 -0.03667,-1.98438 -0.03667,-1.98437 -0.218821,-0.79375 -0.21882,-0.79375 -0.453714,-0.0874 -0.453714,-0.0874 -0.01792,0.88117 -0.01792,0.88117 -0.117922,4.36562 -0.117922,4.36563 0.550174,0.44555 0.550173,0.44554 -0.470753,0.30204 -0.470752,0.30203 0.463021,-0.14396 0.46302,-0.14397 v 0.22797 0.22798 l -0.392414,0.15058 -0.392414,0.15058 0.140563,0.3663 0.140563,0.36631 0.08939,0.76819 0.08939,0.76819 0.06086,0.52917 0.06086,0.52917 0.124846,-0.483 0.124846,-0.48299 z m 55.782953,-1.70555 -0.0209,-0.69674 -0.1502,0.39687 -0.1502,0.39688 -0.35808,0.21158 -0.35808,0.21159 v 0.22666 0.22667 l 0.52917,-0.13838 0.52916,-0.13838 z m 4.22048,-0.94388 0.73374,-0.37943 0.34385,-0.41432 0.34386,-0.41432 h -0.26459 -0.26458 l -0.32938,0.39688 -0.32937,0.39687 -0.29834,0.008 -0.29833,0.008 -0.51359,0.38846 -0.51359,0.38846 h 0.32829 0.3283 z m -5.19178,-0.31105 0.19843,-0.0371 0.39688,-0.0331 0.39687,-0.0331 2e-5,-0.19844 2e-5,-0.19843 -0.85991,0.0252 -0.85992,0.0252 -0.0916,0.46918 -0.0916,0.46919 0.35617,-0.22572 0.35616,-0.22573 z m 42.32544,-3.48114 -1.30066,-1.7815 -3.76303,-5.15938 -3.76302,-5.15937 -1.37046,-1.90808 -1.37046,-1.90807 -0.26459,0.0764 -0.26458,0.0764 -0.54509,0.8041 -0.54508,0.8041 -0.0411,3.44589 -0.0411,3.44589 1.0435,0.69055 1.04349,0.69055 h 0.26605 0.26604 l 2.33011,2.31511 2.33011,2.3151 0.29843,0.79375 0.29842,0.79375 0.14666,0.67908 0.14666,0.67907 0.60245,0.3158 0.60245,0.3158 0.79375,0.0991 0.79376,0.0991 0.46302,0.19112 0.46302,0.19113 v -0.36603 -0.36603 l 1.07802,0.10281 1.07802,0.1028 0.17875,0.43336 0.17875,0.43335 0.0841,-0.73204 0.0841,-0.73204 z m -64.864435,-0.59984 0.512429,-0.27424 v -0.51986 -0.51986 h -0.264583 -0.264584 v 0.27613 0.27614 l -0.661458,0.71335 -0.661458,0.71335 v 0.21676 0.21675 l 0.305463,-0.18878 0.305464,-0.18879 -0.188787,0.30546 -0.188787,0.30547 0.214052,0.33073 0.214053,0.33073 0.08288,-0.85955 0.08288,-0.85954 z m -5.043821,-1.99103 v -1.73541 l -0.235205,0.14537 -0.235205,0.14536 0.07075,1.39161 0.07075,1.3916 0.03216,0.19844 0.03216,0.19844 h 0.132291 0.132292 z m 71.172916,-17.05001 v -12.96458 h -3.816 -3.816 l -1.24753,1.46025 -1.24754,1.46025 -0.21661,1.11944 -0.21661,1.11943 -0.0115,3.20014 -0.0115,3.20014 0.56348,0.50403 0.56349,0.50403 0.61808,0.92604 0.61808,0.92604 0.80148,1.05833 0.80148,1.05834 0.33206,0.67493 0.33205,0.67492 2.91042,4.018 2.91042,4.018 0.0661,0.003 0.0661,0.003 z m -93.133333,10.32555 v -0.25779 l -0.79375,-0.41047 -0.79375,-0.41046 v 0.14267 0.14268 l 0.328228,0.52558 0.328228,0.52557 h 0.465522 0.465522 z m 4.990617,-19.12294 0.03647,-7.07761 h -3.133355 -3.133354 l -0.173128,4.56406 -0.173127,4.56407 -8.09e-4,7.47448 -8.09e-4,7.47447 h 0.248968 0.248968 l 0.171462,-0.27743 0.171461,-0.27743 0.361731,0.30021 0.36173,0.30021 0.270705,-0.16731 0.270705,-0.1673 0.556645,0.29791 0.556644,0.2979 0.461844,-0.41796 0.461844,-0.41796 h 0.71332 0.713319 l 0.318995,0.7276 0.318994,0.72761 0.167158,-5.42396 0.167157,-5.42396 z m 11.295979,15.8444 0.157094,-0.62592 -0.05111,-0.36627 -0.05111,-0.36628 0.0354,-1.19062 0.0354,-1.19063 0.25648,0.39688 0.25648,0.39687 0.0041,-0.99219 0.0041,-0.99218 h 0.264583 0.264583 l 0.0084,-0.46302 0.0084,-0.46302 0.424055,0.52916 0.424056,0.52917 -0.150195,-0.43856 -0.150194,-0.43855 0.974495,-1.0446 0.974495,-1.0446 0.293691,-0.50447 0.293691,-0.50447 -0.214029,-0.57857 -0.214028,-0.57857 0.355906,0.13657 0.355907,0.13657 0.424327,-0.60581 0.424327,-0.60581 0.03384,0.3896 0.03385,0.3896 -0.03908,1.32292 -0.03908,1.32292 0.24143,-0.39688 0.241431,-0.39687 0.193932,-7.10599 0.193932,-7.10599 -0.496273,0.15514 -0.496274,0.15515 -2.421012,0.0704 -2.42101,0.0704 -0.510239,-0.46176 -0.510239,-0.46176 h -0.136786 -0.136786 l -0.18979,11.39602 -0.18979,11.39602 0.31366,0.37794 0.31366,0.37794 h 0.227145 0.227146 z m 4.369501,-10.94961 0.0186,-0.46302 0.201536,-0.515 0.201536,-0.515 0.158646,0.60666 0.158646,0.60667 -0.142502,0.37135 -0.142503,0.37136 h -0.236276 -0.236276 z m 14.877959,8.91734 0.128813,-0.49258 -0.633518,-0.41509 -0.633518,-0.4151 v -0.36873 -0.36873 l 0.33073,-0.12126 0.330729,-0.12127 -0.300866,-0.32071 -0.300867,-0.32071 -0.209987,0.33977 -0.209986,0.33976 0.07076,1.33315 0.07076,1.33315 0.109629,0.17738 0.109629,0.17739 0.504442,-0.13192 0.504441,-0.13191 z m 30.876357,-0.55858 v -0.2751 l 0.72761,-0.74519 0.7276,-0.74519 0.72761,-0.75288 0.7276,-0.75289 v -0.22364 -0.22365 l 0.66146,-0.52031 0.66146,-0.5203 v -0.37767 -0.37767 h 0.28452 0.28452 l -0.0763,-0.72777 -0.0763,-0.72776 0.17334,-0.28047 0.17334,-0.28047 -0.005,-2.61198 -0.005,-2.61197 -1.50065,-2.10601 -1.50065,-2.10601 -7.51752,0.16997 -7.51753,0.16997 h -4.37968 -4.37969 l 1.33989,1.38906 1.33989,1.38906 0.53913,0.92604 0.53913,0.92605 0.18745,0.66145 0.18744,0.66146 0.82467,1.38907 0.82467,1.38906 h 0.36928 0.36928 l -0.17458,0.45495 -0.17459,0.45496 0.18808,-0.18808 0.18808,-0.18807 0.42122,0.32843 0.42122,0.32843 -0.36816,-0.46908 -0.36815,-0.46907 0.4343,0.16665 0.4343,0.16666 0.004,0.43471 0.004,0.43472 0.26016,0.39687 0.26016,0.39688 -0.17322,-0.90104 -0.17322,-0.90104 0.3102,0.19172 0.3102,0.19171 -0.15223,0.2463 -0.15222,0.2463 h 0.80937 0.80936 v -0.39687 -0.39688 h 0.24897 0.24897 l 0.14109,0.22829 0.14109,0.22829 1.19241,0.33386 1.19242,0.33385 0.302,0.3639 0.30201,0.3639 h 0.35838 0.35838 l 0.42815,0.65343 0.42814,0.65344 0.88484,0.31996 0.88483,0.31996 -0.24926,0.46575 -0.24927,0.46576 0.30618,0.18923 0.30618,0.18923 -0.20451,-0.3309 -0.2045,-0.3309 0.46599,0.0916 0.466,0.0916 0.29294,0.47056 0.29295,0.47055 -0.39688,0.28201 -0.39687,0.28201 0.46302,-0.14895 0.46302,-0.14894 0.39535,0.15171 0.39536,0.15171 -0.17319,0.303 -0.17319,0.30301 0.21469,-0.19433 0.2147,-0.19432 0.29799,0.40753 0.29799,0.40753 0.38963,0.0616 0.38963,0.0616 0.52351,0.2987 0.52352,0.2987 0.20409,-0.12614 0.20408,-0.12613 z m -3.2442,-1.57921 -0.45996,-0.25741 v -0.25144 -0.25143 h 0.66146 0.66145 l -0.004,0.19844 -0.004,0.19843 -0.19744,0.31041 -0.19744,0.31041 z m -68.45788,1.62097 v -0.26459 h -0.29698 -0.29698 l 0.27093,-0.33073 0.270929,-0.33072 0.07679,-1.5875 0.07679,-1.5875 -2.34e-4,-2.24896 -2.34e-4,-2.24896 -0.05604,-1.05833 -0.05604,-1.05834 0.08868,-2.71198 0.08868,-2.71198 h -0.215434 -0.215433 l -0.0041,0.33073 -0.0041,0.33073 -0.227459,-0.35897 -0.227459,-0.35898 -0.139129,0.22668 -0.139128,0.22669 0.04553,1.65365 0.04554,1.65364 H 55.330014 54.99366 v 6.07227 6.07227 l 0.463021,0.26968 0.463021,0.26969 0.330729,0.008 0.330729,0.008 z m 42.720669,-1.25205 0.670997,-0.98746 v -0.40887 -0.40888 l 0.375884,-0.53664 0.37588,-0.53665 -0.0736,-0.91129 -0.0736,-0.91129 -0.0377,-0.19843 -0.0377,-0.19844 h -0.39688 -0.396874 v -0.33847 -0.33846 l -0.554616,-0.38914 -0.554616,-0.38914 -0.402395,-0.28368 -0.402396,-0.28368 0.626283,-0.67374 0.626282,-0.67374 0.590906,0.21966 0.590906,0.21966 -0.12511,0.34088 -0.125101,0.34089 0.266571,0.39687 0.26656,0.39688 0.68571,-0.77609 0.68571,-0.77608 -0.38523,-0.28225 -0.38523,-0.28225 -0.44433,-0.85989 -0.44433,-0.8599 h 0.29028 0.29028 l -0.41578,-0.41577 -0.41577,-0.41578 v -0.24568 -0.24569 h 0.2802 0.2802 l -0.16165,0.26156 -0.16165,0.26155 0.41737,-0.16016 0.41737,-0.16016 -0.2723,-0.3281 -0.27229,-0.3281 0.16545,-0.89777 0.16545,-0.89777 -0.4487,0.52916 -0.448692,0.52917 0.156232,-0.31245 0.15623,-0.31244 -0.268904,-0.16619 -0.268899,-0.16619 v -0.24067 -0.24066 l 0.363803,0.1396 0.3638,0.13961 v -0.67382 -0.67381 l -0.667848,0.16762 -0.667849,0.16762 0.18737,-0.30317 0.18737,-0.30318 h -0.280198 -0.280198 l -0.0041,0.46303 -0.0041,0.46302 -0.246596,-0.38995 -0.246597,-0.38994 -0.699688,0.65453 -0.699689,0.65452 -0.271069,0.50314 -0.271068,0.50314 0.416195,-0.15971 0.416196,-0.15971 -0.295594,0.64876 -0.295593,0.64876 h -0.21381 -0.21381 l 0.135374,0.35278 0.135373,0.35277 h -0.396622 -0.396622 l 0.160897,-0.28663 0.160898,-0.28663 0.397638,-0.46302 0.397637,-0.46302 h -0.293238 -0.293238 l -0.475373,0.69421 -0.475373,0.69422 -0.789184,0.76338 -0.789184,0.76338 -0.324085,1.38667 -0.324085,1.38668 -0.01121,0.84477 -0.01121,0.84477 0.550164,0.93246 0.550163,0.93246 -0.168903,0.27329 -0.168903,0.27329 0.214052,-0.001 0.214052,-10e-4 0.940255,-0.26121 0.940255,-0.2612 0.59378,-0.55319 0.59378,-0.55319 0.648778,0.42509 0.648777,0.4251 v 0.23818 0.23819 l -0.651736,0.77454 -0.651736,0.77455 0.647352,0.34645 0.647352,0.34645 0.166809,0.52557 0.166809,0.52557 -0.427008,0.23896 -0.427008,0.23897 v 0.38373 0.38372 h 0.255045 0.255043 z m 14.429331,-1.98266 v -0.23611 l 0.2346,0.145 0.23461,0.14499 0.32696,-0.39396 0.32696,-0.39396 h -0.39996 -0.39996 l -0.59904,0.48507 -0.59903,0.48507 h 0.43743 0.43743 z m -8.07936,-2.25972 0.13294,-0.34644 -0.40384,-0.15496 -0.40383,-0.15497 0.43421,-0.4798 0.43422,-0.47981 -0.15986,-0.25866 -0.15986,-0.25865 0.33149,-0.1105 0.3315,-0.1105 -0.75399,-0.98853 -0.75399,-0.98853 -0.60072,-0.27371 -0.60072,-0.2737 -0.56264,0.30111 -0.56263,0.30111 -0.004,0.45371 -0.004,0.45372 -0.17036,0.63668 -0.17036,0.63669 0.30627,-0.18928 0.30626,-0.18928 v -0.88838 -0.88838 l 0.33073,-0.11128 0.33073,-0.11127 0.41452,0.1074 0.41453,0.10741 -0.11383,0.77557 -0.11383,0.77557 h 0.5592 0.5592 v 0.46694 0.46694 l -0.54219,1.01161 -0.5422,1.01162 0.30018,0.36168 0.30017,0.36168 0.50149,-0.31319 0.5015,-0.31318 z m 37.5572,-13.62172 -0.18672,-0.33073 0.35631,0.33073 0.35632,0.33073 h 2.18043 2.18042 l 0.1744,-0.28219 0.1744,-0.28218 -0.10537,-0.10538 -0.10537,-0.10537 -2.58194,-0.0962 -2.58193,-0.0962 -0.25891,0.48378 -0.25891,0.48378 h 0.42179 0.4218 z"
       id="path23" /></g></svg>
