<?xml version="1.0" encoding="UTF-8" standalone="no"?>
<!-- Created with Inkscape (http://www.inkscape.org/) -->

<svg
   width="112.99983mm"
   height="169.96222mm"
   viewBox="0 0 112.99983 169.96222"
   version="1.1"
   id="svg1"
   xml:space="preserve"
   xmlns="http://www.w3.org/2000/svg"
   xmlns:svg="http://www.w3.org/2000/svg"><defs
     id="defs1" /><g
     id="layer1"
     transform="translate(184.95279,-149.1681)"
     style="fill:#ffffff"><path
       id="rect1-3"
       style="fill:#ffffff;fill-opacity:1;stroke:#000000;stroke-width:0;stroke-linejoin:miter;stroke-dasharray:none;stroke-opacity:1"
       d="m -184.95279,169.13019 v -8.63203 c 0,-6.27731 5.43416,-11.33006 12.18685,-11.33006 h 7.81296 v 5.66529 h -8.70024 c -3.13013,0 -5.65289,2.52613 -5.65289,5.66477 v 8.63203 z m 107.350042,0 v -8.63203 c 0,-3.13864 -2.522302,-5.66477 -5.652369,-5.66477 h -6.697782 v -5.66529 h 5.809981 c 6.752707,0 12.189954,5.05275 12.189954,11.33006 v 8.63203 z M -184.95279,299.16823 v 8.63203 c 0,6.27731 5.43416,11.33006 12.18685,11.33006 h 7.81296 v -5.66529 h -8.70024 c -3.13013,0 -5.65289,-2.52613 -5.65289,-5.66477 v -8.63203 z m 107.350038,0 v 8.63203 c 0,3.13864 -2.52231,5.66477 -5.65237,5.66477 h -6.697783 v 5.66529 h 5.809983 c 6.7527,0 12.18995,-5.05275 12.18995,-11.33006 v -8.63203 z" /></g></svg>
