<?xml version="1.0" encoding="UTF-8" standalone="no"?>
<!-- Created with Inkscape (http://www.inkscape.org/) -->

<svg
   width="112.99999mm"
   height="169.96222mm"
   viewBox="0 0 112.99999 169.96222"
   version="1.1"
   id="svg1"
   xml:space="preserve"
   sodipodi:docname="cardcover2.svg"
   inkscape:version="1.3.2 (091e20e, 2023-11-25, custom)"
   xmlns:inkscape="http://www.inkscape.org/namespaces/inkscape"
   xmlns:sodipodi="http://sodipodi.sourceforge.net/DTD/sodipodi-0.dtd"
   xmlns="http://www.w3.org/2000/svg"
   xmlns:svg="http://www.w3.org/2000/svg"><sodipodi:namedview
     id="namedview1"
     pagecolor="#ffffff"
     bordercolor="#000000"
     borderopacity="0.25"
     inkscape:showpageshadow="2"
     inkscape:pageopacity="0.0"
     inkscape:pagecheckerboard="0"
     inkscape:deskcolor="#d1d1d1"
     inkscape:document-units="mm"
     inkscape:zoom="1.2391479"
     inkscape:cx="199.33052"
     inkscape:cy="315.53941"
     inkscape:window-width="1920"
     inkscape:window-height="1052"
     inkscape:window-x="-8"
     inkscape:window-y="-8"
     inkscape:window-maximized="1"
     inkscape:current-layer="layer1" /><defs
     id="defs1" /><g
     id="layer1"
     transform="translate(184.95279,-149.1681)"><path
       id="rect1-3"
       style="fill:#000000;fill-opacity:1;stroke:#000000;stroke-width:0;stroke-linejoin:miter;stroke-dasharray:none;stroke-opacity:1"
       d="m -172.76581,149.16811 c -6.75271,0 -12.18699,5.05291 -12.18699,11.33024 v 147.30172 c 0,6.27733 5.43428,11.33025 12.18699,11.33025 h 88.623074 c 6.752719,0 12.189936,-5.05292 12.189936,-11.33025 V 160.49835 c 0,-6.27733 -5.437217,-11.33024 -12.189936,-11.33024 z m -0.79999,16.99535 h 90.225994 a 5.7375448,5.7531887 0 0 1 5.73729,5.75295 v 73.47665 a 5.7375448,5.7531887 0 0 1 -5.73729,5.75293 H -173.5658 a 5.7375448,5.7531887 0 0 1 -5.73728,-5.75293 v -73.47665 a 5.7375448,5.7531887 0 0 1 5.73728,-5.75295 z m -0.0876,90.64765 h 90.398258 c 3.130073,0 5.652597,2.52646 5.652597,5.66512 v 45.32384 c 0,3.13866 -2.522524,5.66512 -5.652597,5.66512 H -173.6534 c -3.13013,0 -5.65265,-2.52646 -5.65265,-5.66512 v -45.32384 c 0,-3.13866 2.52252,-5.66512 5.65265,-5.66512 z" /><path
       id="rect1-3-6"
       style="fill:#ffffff;fill-opacity:1;stroke:#000000;stroke-width:0;stroke-linejoin:miter;stroke-dasharray:none;stroke-opacity:1"
       d="m -86.5625,150.22656 c -28.96712,0.003 -57.9356,-0.0135 -86.90259,0.0211 -3.65067,0.1777 -7.11709,2.11893 -9.03686,5.24847 -1.15228,1.87404 -1.46859,3.93671 -1.40574,6.1293 0.0346,10.63142 0.002,21.26442 0.0132,31.89649 0.004,38.25978 -0.007,76.52002 0.0161,114.77951 0.16375,4.32476 3.53939,8.08981 7.61864,9.26628 2.93023,0.83765 6.01063,0.39286 9.01214,0.50465 27.96818,-0.004 55.93709,0.0164 83.904809,-0.0265 3.74654,-0.17373 7.45026,-2.42086 9.186601,-5.68253 1.402693,-2.44072 1.16138,-5.3295 1.126953,-8.03125 0.041,-18.55136 0.0059,-37.10344 0.01758,-55.65508 -0.0077,-29.59306 0.01073,-59.18678 -0.01992,-88.77944 -0.217882,-4.374 -3.702695,-8.13827 -7.857889,-9.23328 -1.843596,-0.51206 -3.777749,-0.45821 -5.672968,-0.43767 z m 3.373047,14.89063 c 3.297733,0.0216 6.315699,2.76441 6.580078,6.0664 0.165129,2.10517 0.006,4.22147 0.06651,6.33164 -0.0046,22.75338 0.01752,45.50799 -0.02542,68.2606 -0.128335,3.22126 -2.833189,6.10783 -6.062423,6.36547 -2.097786,0.15836 -4.206213,0.006 -6.30875,0.0639 -28.336587,-0.005 -56.674387,0.0175 -85.010217,-0.0252 -3.22219,-0.13214 -6.09876,-2.84931 -6.35111,-6.07836 -0.15264,-2.13146 -0.003,-4.27241 -0.0607,-6.4082 0.004,-22.7194 -0.0173,-45.44001 0.0253,-68.15865 0.12491,-3.26104 2.90026,-6.17257 6.17025,-6.3842 3.62966,-0.1055 7.26693,-0.0151 10.89951,-0.0455 26.69232,-0.005 53.38464,0.003 80.076957,0.0122 z m 0.160156,90.64453 c 3.602179,0.0108 6.739907,3.41777 6.476776,7.00781 0.0031,15.19978 0.02459,30.40031 -0.01389,45.59961 -0.213144,3.46481 -3.506627,6.39678 -6.982422,6.14466 -30.152452,0.005 -60.305522,0.0253 -90.457582,-0.006 -3.52143,-0.0863 -6.6017,-3.40968 -6.33215,-6.94106 -0.0609,-11.06369 -0.01,-22.12792 -0.0286,-33.19184 0.0124,-4.22877 -0.0247,-8.46073 0.0488,-12.6875 0.31717,-3.38356 3.55933,-6.14695 6.95039,-5.93556 30.11289,-0.004 60.22578,-5.4e-4 90.338673,0.01 z" /></g></svg>
