<?xml version="1.0" encoding="UTF-8" standalone="no"?>
<!-- Created with Inkscape (http://www.inkscape.org/) -->

<svg
   width="112.99999mm"
   height="169.96222mm"
   viewBox="0 0 112.99999 169.96222"
   version="1.1"
   id="svg1"
   xml:space="preserve"
   sodipodi:docname="cardcover.svg"
   inkscape:version="1.3.2 (091e20e, 2023-11-25, custom)"
   xmlns:inkscape="http://www.inkscape.org/namespaces/inkscape"
   xmlns:sodipodi="http://sodipodi.sourceforge.net/DTD/sodipodi-0.dtd"
   xmlns="http://www.w3.org/2000/svg"
   xmlns:svg="http://www.w3.org/2000/svg"><sodipodi:namedview
     id="namedview1"
     pagecolor="#ffffff"
     bordercolor="#000000"
     borderopacity="0.25"
     inkscape:showpageshadow="2"
     inkscape:pageopacity="0.0"
     inkscape:pagecheckerboard="0"
     inkscape:deskcolor="#d1d1d1"
     inkscape:document-units="mm"
     inkscape:zoom="1.2391479"
     inkscape:cx="213.45313"
     inkscape:cy="321.18846"
     inkscape:window-width="1920"
     inkscape:window-height="992"
     inkscape:window-x="-8"
     inkscape:window-y="-8"
     inkscape:window-maximized="1"
     inkscape:current-layer="layer1" /><defs
     id="defs1" /><g
     id="layer1"
     transform="translate(184.95279,-149.1681)"><path
       id="rect1-3"
       style="fill:#ffffff;fill-opacity:1;stroke:#000000;stroke-width:0;stroke-linejoin:miter;stroke-dasharray:none;stroke-opacity:1"
       d="m -172.76581,149.16811 c -6.75271,0 -12.18699,5.05291 -12.18699,11.33024 v 147.30172 c 0,6.27733 5.43428,11.33025 12.18699,11.33025 h 88.623074 c 6.752719,0 12.189936,-5.05292 12.189936,-11.33025 V 160.49835 c 0,-6.27733 -5.437217,-11.33024 -12.189936,-11.33024 z m -0.79999,16.99535 h 90.225994 a 5.7375448,5.7531887 0 0 1 5.73729,5.75295 v 73.47665 a 5.7375448,5.7531887 0 0 1 -5.73729,5.75293 H -173.5658 a 5.7375448,5.7531887 0 0 1 -5.73728,-5.75293 v -73.47665 a 5.7375448,5.7531887 0 0 1 5.73728,-5.75295 z m -0.0876,90.64765 h 90.398258 c 3.130073,0 5.652597,2.52646 5.652597,5.66512 v 45.32384 c 0,3.13866 -2.522524,5.66512 -5.652597,5.66512 H -173.6534 c -3.13013,0 -5.65265,-2.52646 -5.65265,-5.66512 v -45.32384 c 0,-3.13866 2.52252,-5.66512 5.65265,-5.66512 z" /></g></svg>
